<?xml version="1.0" standalone="no"?>
<!DOCTYPE svg PUBLIC "-//W3C//DTD SVG 1.1//EN" "http://www.w3.org/Graphics/SVG/1.1/DTD/svg11.dtd" >
<svg xmlns="http://www.w3.org/2000/svg">
<metadata>
Created by FontPrep 20130207 at Mon Aug 15 19:30:15 2016
 By Damien Criado
(c) Copyright The Font Bureau, Inc. 2014. All rights reserved.
</metadata>
<defs>
<font id="8ef8bf32c0ce7134b86851150dd33bc3" horiz-adv-x='1024' >
  <font-face 
    font-family="InputMonoNarrow-ExtraLightItalic"
    font-weight="275"
    font-style="italic"
    font-stretch="semi-condensed"
    units-per-em="2048"
    panose-1="2 0 4 9 2 0 0 9 0 4"
    ascent="1583"
    descent="-465"
    x-height="1117"
    cap-height="1489"
    bbox="-415.545 -838 1644 2607"
    underline-thickness="0"
    underline-position="0"
    slope="-7"
    unicode-range="U+000D-1F41B"
  />
<missing-glyph 
d="M223 -335h786v1787h-786v-1787zM93 -465v2048h1046v-2048h-1046z" />
    <glyph glyph-name=".notdef" 
d="M223 -335h786v1787h-786v-1787zM93 -465v2048h1046v-2048h-1046z" />
    <glyph glyph-name=".null" horiz-adv-x="0" 
 />
    <glyph glyph-name="nonmarkingreturn" unicode="&#xd;" horiz-adv-x="0" 
 />
    <glyph glyph-name="NULL" horiz-adv-x="0" 
 />
    <glyph glyph-name="space" unicode="&#xa0;" 
 />
    <glyph glyph-name="space" unicode=" " 
 />
    <glyph glyph-name="exclam" unicode="!" 
d="M683 102q-13 -121 -157 -121q-68 0 -101.5 29t-26.5 92l6 53q14 126 156.5 126t128.5 -126zM546 559l80 930h167l-147 -930h-100z" />
    <glyph glyph-name="quotedbl" unicode="&#x22;" 
d="M307 804l43 685h199l-126 -685h-116zM825 804l41 685h199l-125 -685h-115z" />
    <glyph glyph-name="numbersign" unicode="#" 
d="M631 0l69 402h-281l-69 -402h-114l69 402h-219l13 114h225l78 463h-246l13 114h252l67 396h113l-67 -396h281l68 396h111l-65 -396h220l-13 -114h-226l-78 -463h246l-13 -114h-253l-67 -402h-114zM719 516l78 463h-281l-78 -463h281z" />
    <glyph glyph-name="dollar" unicode="$" 
d="M564 -93h-100l22 179q-206 15 -343 139l58 103q130 -120 305 -134l62 508q-186 67 -260 153.5t-56 230.5t120.5 228t275.5 90l20 179h101l-22 -183q169 -13 303 -115l-60 -105q-141 95 -264 110l-59 -493q192 -69 265 -156t56 -229t-122.5 -231.5t-279.5 -96.5z
M788.5 250.5q73.5 56.5 85.5 153.5t-40 157.5t-184 112.5l-58 -484q123 4 196.5 60.5zM640 1294q-249 -4 -275 -210q-9 -86 41 -147.5t177 -111.5z" />
    <glyph glyph-name="percent" unicode="%" 
d="M794.5 61q132.5 0 155.5 177l14 127q22 179 -75.5 179t-138.5 -44t-52 -135l-15 -127q-21 -177 111.5 -177zM781 -41q-111 0 -170.5 69t-40.5 214l15 119q17 145 95 215t189 70t168.5 -70t40.5 -215l-15 -119q-19 -145 -95 -214t-187 -69zM43 324l1095 935l59 -84
l-1095 -933zM268 1121q-21 -179 112 -179t154 179l15 123q21 180 -112 180t-154 -180zM366 840q-111 0 -169.5 69.5t-41.5 215.5l14 115q17 145 96 216t189 71t168 -71t41 -216l-15 -115q-17 -145 -94 -215t-188 -70z" />
    <glyph glyph-name="ampersand" unicode="&#x26;" 
d="M352 93q71 0 152.5 47.5t152.5 133.5q-100 103 -199 288q-20 41 -40.5 81t-35.5 79q-179 -125 -209 -360q-15 -116 31.5 -192.5t147.5 -76.5zM633 1396q-82 0 -137 -67t-66 -162q-19 -164 22 -320q307 146 332 346q9 88 -30 145.5t-121 57.5zM649 1510q133 0 197 -87.5
t48 -223.5t-119 -233.5t-298 -190.5q19 -51 86 -183t167 -235q118 166 227 393l97 -52q-116 -206 -276 -408l320 -188l-37 -113q-217 115 -337 225q-189 -233 -402 -233q-145 0 -218.5 102.5t-49.5 288.5q17 138 98 249t198 180q-62 191 -43 351q18 159 113.5 258.5
t228.5 99.5z" />
    <glyph glyph-name="quotesingle" unicode="'" 
d="M566 804l43 685h199l-127 -685h-115z" />
    <glyph glyph-name="parenleft" unicode="(" 
d="M795 -391q-246 65 -364 316.5t-71.5 633t226 633t442.5 316.5l2 -102q-223 -63 -363 -284.5t-182 -563.5t43 -562.5t295 -285.5z" />
    <glyph glyph-name="parenright" unicode=")" 
d="M158 -391l-2 101q225 65 364 286.5t182 562.5q41 341 -43 562t-292 285l24 102q248 -65 366 -316.5t71.5 -633t-226.5 -633t-444 -316.5z" />
    <glyph glyph-name="asterisk" unicode="*" 
d="M983 622l-311 283l-20 -449h-144l90 447l-380 -281l-58 123l417 231l-361 229l89 122l309 -283l21 445h143l-89 -446l382 284l55 -122l-417 -229l362 -231z" />
    <glyph glyph-name="plus" unicode="+" 
d="M473 74l63 514h-417l15 127h417l63 514h125l-63 -514h415l-15 -127h-415l-63 -514h-125z" />
    <glyph glyph-name="comma" unicode="," 
d="M240 -374l268 685h248l-410 -685h-106z" />
    <glyph glyph-name="hyphen" unicode="&#x2011;" 
d="M119 588l15 127h957l-15 -127h-957z" />
    <glyph glyph-name="hyphen" unicode="&#x2010;" 
d="M119 588l15 127h957l-15 -127h-957z" />
    <glyph glyph-name="hyphen" unicode="&#xad;" 
d="M119 588l15 127h957l-15 -127h-957z" />
    <glyph glyph-name="hyphen" unicode="-" 
d="M119 588l15 127h957l-15 -127h-957z" />
    <glyph glyph-name="period" unicode="." 
d="M524 -19q-64 0 -100.5 31t-28.5 96l7 52q13 132 160 132q63 0 99.5 -31.5t29.5 -100.5l-8 -52q-7 -65 -51 -96t-108 -31z" />
    <glyph glyph-name="slash" unicode="/" 
d="M74 -372l913 1861h125l-913 -1861h-125z" />
    <glyph glyph-name="zero.salt_slash" unicode="&#xe05c;" 
d="M536 95q171 0 259 138t123 424l20 168q40 309 -28 448l-543 -1120q62 -58 169 -58zM842 1354q-53 41 -146 41q-171 0 -259.5 -141.5t-123.5 -428.5l-21 -168q-33 -261 13 -408zM631.5 -19q-329.5 0 -418 169.5t-49.5 489.5l24 202q84 666 414.5 666t417 -171.5
t45.5 -494.5l-24 -202q-80 -659 -409.5 -659z" />
    <glyph glyph-name="zero.salt_slash" unicode="0" 
d="M536 95q171 0 259 138t123 424l20 168q40 309 -28 448l-543 -1120q62 -58 169 -58zM842 1354q-53 41 -146 41q-171 0 -259.5 -141.5t-123.5 -428.5l-21 -168q-33 -261 13 -408zM631.5 -19q-329.5 0 -418 169.5t-49.5 489.5l24 202q84 666 414.5 666t417 -171.5
t45.5 -494.5l-24 -202q-80 -659 -409.5 -659z" />
    <glyph glyph-name="one" unicode="1" 
d="M171 0l13 114h376l144 1161h-30q-58 -110 -164 -171t-234 -54v129q149 -6 273.5 78.5t184.5 231.5h121l-170 -1375h341l-13 -114h-842z" />
    <glyph glyph-name="two" unicode="2" 
d="M698 1395q-158 0 -229.5 -73t-107.5 -264l-126 11q43 229 153.5 334t319.5 105t304.5 -95t72.5 -283l-16 -132q-17 -130 -97 -209.5t-231 -121.5l-266 -71q-97 -26 -153 -89.5t-71 -186.5l-26 -206h751l-13 -114h-877l39 317q20 164 97.5 257.5t231.5 134.5l276 75
q104 28 153.5 83t62.5 159l9 84q19 151 -40 218t-217 67z" />
    <glyph glyph-name="three" unicode="3" 
d="M512 -19q-238 0 -324 95t-73 298l129 15q-4 -173 53 -235.5t230 -62.5t255 70t102 239l8 58q19 155 -42.5 217t-233.5 62h-152l13 114h152q153 0 222 49.5t82 168.5l9 67q17 145 -41.5 203.5t-212.5 58.5t-220 -57.5t-99 -212.5l-125 15q35 194 142.5 279.5t311.5 85.5
t299.5 -88.5t71.5 -283.5l-10 -67q-13 -115 -86.5 -182.5t-188.5 -76.5l-4 -32q134 -11 194.5 -97.5t43.5 -222.5l-7 -58q-24 -210 -142.5 -314.5t-356.5 -104.5z" />
    <glyph glyph-name="four" unicode="4" 
d="M1100 421h-204l-53 -421h-126l52 421h-646l13 113l707 955h183l-117 -955h204zM274 534h508l101 814z" />
    <glyph glyph-name="five" unicode="5" 
d="M508 -19q-222 0 -312 93.5t-81 310.5l129 13q-2 -175 55.5 -239t225.5 -64t254.5 75.5t104.5 226.5l13 98q17 141 -35 210.5t-184 69.5h-462l87 714h775l-13 -113h-648l-60 -484h337q186 0 270 -97t62 -285l-17 -130q-22 -190 -150.5 -294.5t-350.5 -104.5z" />
    <glyph glyph-name="six" unicode="6" 
d="M533 95q159 0 246 84t109 260l4 32q20 162 -47 238.5t-226 76.5t-244 -76.5t-105 -238.5l-4 -32q-22 -177 43 -260.5t224 -83.5zM656 901q216 0 302 -114.5t64 -294.5l-5 -49q-26 -222 -155 -342t-344 -120q-436 0 -369 529l56 466q34 266 163 399t333 133t290.5 -74.5
t95.5 -245.5l-136 -28q-7 134 -60 184.5t-208 50.5t-239.5 -98t-112.5 -321l-28 -229h25q112 154 328 154z" />
    <glyph glyph-name="seven" unicode="7" 
d="M376 0q149 464 263.5 747.5t365.5 620.5h-752l15 121h877l-15 -121q-266 -397 -386 -696.5t-225 -671.5h-143z" />
    <glyph glyph-name="eight" unicode="8" 
d="M536 91q173 0 250.5 69t97.5 240l6 39q19 156 -41.5 219.5t-234 63.5t-251.5 -63t-97 -220l-5 -39q-20 -171 41 -240t234 -69zM627.5 836q152.5 0 221.5 54t86 188l7 58q17 145 -38 203.5t-207.5 58.5t-222.5 -58.5t-87 -203.5l-7 -58q-17 -134 39 -188t208.5 -54z
M523 -19q-227 0 -321 98t-70 303l6 48q19 151 99 239.5t199 99.5l3 32q-97 9 -149 82.5t-35 203.5l8 67q22 182 130 268t316.5 86t296 -85.5t65.5 -268.5l-8 -67q-17 -130 -88.5 -203.5t-166.5 -82.5l-4 -32q115 -11 172 -99.5t39 -239.5l-6 -48q-24 -205 -141.5 -303
t-344.5 -98z" />
    <glyph glyph-name="nine" unicode="9" 
d="M578 588q-210 0 -302 109t-67 301l5 48q28 222 156.5 342t344.5 120q430 0 369 -529l-58 -465q-32 -257 -158.5 -395t-333.5 -138t-293 75.5t-98 245.5l138 29q9 -136 62 -186t207 -50t237.5 97.5t111.5 321.5l28 227h-22q-117 -153 -327 -153zM612.5 704q158.5 0 243 76
t105.5 238l3 32q22 177 -43 261t-223 84t-244.5 -84t-109.5 -261l-3 -32q-20 -162 46.5 -238t225 -76z" />
    <glyph glyph-name="colon" unicode=":" 
d="M601 292q102 0 88 -126l-8 -64q-13 -121 -116 -121t-140.5 29t-29.5 92l7 64q7 65 52 95.5t147 30.5zM627.5 817q-63.5 0 -100.5 30t-30 93l8 64q7 65 51.5 94.5t147 29.5t87.5 -124l-7 -64q-7 -63 -50 -93t-106.5 -30z" />
    <glyph glyph-name="semicolon" unicode=";" 
d="M242 -376l266 689h246l-408 -689h-104zM627.5 817q-63.5 0 -100.5 30t-30 91l8 66q7 65 51.5 94.5t147 29.5t87.5 -124l-7 -66q-7 -61 -50 -91t-106.5 -30z" />
    <glyph glyph-name="less" unicode="&#x3c;" 
d="M959 43l-778 545l14 127l913 545l-15 -117l-814 -491l695 -492z" />
    <glyph glyph-name="equal" unicode="=" 
d="M86 324l16 127h957l-16 -127h-957zM151 853l17 126h957l-17 -126h-957z" />
    <glyph glyph-name="greater" unicode="&#x3e;" 
d="M114 43l14 119l812 490l-692 489l15 119l778 -545l-15 -127z" />
    <glyph glyph-name="question" unicode="?" 
d="M601 102q-13 -121 -157 -121q-68 0 -101.5 29t-25.5 92l5 53q14 126 156.5 126t128.5 -126zM691 1395q-203 0 -280.5 -71t-116.5 -266l-126 11q43 246 160 342.5t372 96.5t357.5 -105t78.5 -297l-11 -86q-22 -188 -175 -283.5t-488 -151.5l-15 102q292 48 414 126.5
t139 214.5l5 56q20 160 -45.5 235.5t-268.5 75.5z" />
    <glyph glyph-name="at" unicode="@" 
d="M763 976q-116 0 -145 -229l-26 -216q-26 -222 131 -222t182 210l28 229q15 115 -19.5 171.5t-150.5 56.5zM601 -205q-263 0 -380 148t-83 424l74 599q32 257 161.5 399.5t338.5 142.5t300.5 -141.5t59.5 -396.5l-57 -465q-52 -300 -311 -300q-134 0 -189 82t-37 229
l30 245q19 145 97 232t179 87q65 0 101.5 -30t50.5 -71h28q53 434 -255 434q-179 0 -272 -110.5t-120 -336.5l-75 -599q-28 -233 60.5 -353t311.5 -120q158 0 306 50l-11 -99q-166 -50 -308 -50z" />
    <glyph glyph-name="A" unicode="A" 
d="M899 0l-72 454h-492l-186 -454h-130l631 1489h117l266 -1489h-134zM808 566l-121 748l-307 -748h428z" />
    <glyph glyph-name="B" unicode="B" 
d="M585 114q145 0 216.5 64t90.5 211l5 58q19 145 -36 209.5t-200 64.5h-326l-76 -607h326zM640 834q134 0 201.5 57t83.5 185l6 50q17 134 -36 192t-188 58h-292l-67 -542h292zM715 1489q190 0 276.5 -88t64.5 -262l-10 -83q-13 -99 -72.5 -167t-148.5 -85l-4 -31
q110 -11 166 -96t41 -213l-11 -84q-22 -186 -139.5 -283t-322.5 -97h-436l183 1489h413z" />
    <glyph glyph-name="C" unicode="C" 
d="M724 1508q220 0 317 -114.5t80 -360.5l-129 -13q9 210 -51.5 292.5t-232.5 82.5t-260.5 -97t-116.5 -322l-57 -470q-26 -218 38 -314.5t238 -96.5t258 84t115 283l127 -13q-70 -468 -510 -468q-223 0 -324 130.5t-69 387.5l60 484q32 259 164.5 392t352.5 133z" />
    <glyph glyph-name="D" unicode="D" 
d="M488 114q182 0 285.5 112.5t127.5 298.5l52 432q22 184 -52 301.5t-257 117.5h-229l-156 -1262h229zM659 1489q227 0 339 -145t82 -387l-52 -432q-30 -238 -178 -381.5t-375 -143.5h-356l183 1489h357z" />
    <glyph glyph-name="E" unicode="E" 
d="M121 0l182 1489h842l-13 -113h-717l-63 -507h633l-13 -113h-633l-80 -642h717l-13 -114h-842z" />
    <glyph glyph-name="F" unicode="F" 
d="M123 0l182 1489h842l-13 -113h-717l-82 -661h598l-13 -114h-598l-74 -601h-125z" />
    <glyph glyph-name="G" unicode="G" 
d="M552 -19q-226 0 -330.5 136t-72.5 391l56 466q32 261 166.5 397.5t348.5 136.5t303 -104t70 -337l-129 -13q9 194 -44.5 267.5t-216.5 73.5t-253.5 -99t-118.5 -320l-57 -470q-26 -218 43.5 -314.5t245.5 -96.5t261 112.5t118 384.5h-344l15 114h471l-17 -125
q-37 -305 -163 -452.5t-352 -147.5z" />
    <glyph glyph-name="H" unicode="H" 
d="M119 0l183 1489h126l-76 -620h557l76 620h127l-183 -1489h-127l94 756h-557l-93 -756h-127z" />
    <glyph glyph-name="I" unicode="I" 
d="M121 0l13 114h341l156 1262h-341l13 113h809l-14 -113h-340l-157 -1262h341l-13 -114h-808z" />
    <glyph glyph-name="J" unicode="J" 
d="M500 95q163 0 249.5 91t110.5 291l112 899h-367l13 113h494l-123 -1011q-64 -497 -500 -497q-217 0 -308.5 114t-72.5 357l128 15q-13 -212 44 -292t220 -80z" />
    <glyph glyph-name="K" unicode="K" 
d="M337 732l-89 -732h-129l183 1489h128l-78 -644h104l603 644h153l-653 -688l465 -801h-151l-419 732h-117z" />
    <glyph glyph-name="L" unicode="L" 
d="M205 0l182 1489h127l-170 -1375h598l-13 -114h-724z" />
    <glyph glyph-name="M" unicode="M" 
d="M510 371l-173 914l-155 -1285h-119l183 1489h165l179 -970l415 970h164l-182 -1489h-119l160 1279l-395 -908h-123z" />
    <glyph glyph-name="N" unicode="N" 
d="M767 0l-372 1288l-159 -1288h-117l183 1489h152l382 -1310l160 1310h117l-182 -1489h-164z" />
    <glyph glyph-name="O" unicode="O" 
d="M536.5 95q167.5 0 251 97t111.5 316l56 466q28 223 -31.5 322t-227 99t-252.5 -99t-113 -322l-55 -466q-28 -220 32.5 -316.5t228 -96.5zM711 1508q216 0 310 -134t61 -400l-56 -466q-68 -527 -393.5 -527t-421.5 132.5t-62 394.5l56 466q34 266 162 400t344 134z" />
    <glyph glyph-name="P" unicode="P" 
d="M652 635q151 0 223.5 66t90.5 219l21 169q19 153 -37 220t-207 67h-328l-91 -741h328zM760 1489q199 0 288.5 -99.5t64.5 -292.5l-22 -181q-44 -393 -451 -393h-329l-65 -523h-125l182 1489h457z" />
    <glyph glyph-name="Q" unicode="Q" 
d="M538.5 99q167.5 0 250 95.5t108.5 310.5l58 471q28 220 -31.5 317.5t-227 97.5t-252.5 -98t-113 -317l-57 -471q-26 -214 35.5 -310t229 -96zM711 1508q216 0 310 -135t61 -399l-58 -468q-28 -229 -128.5 -360t-268.5 -157q-17 -175 70 -221.5t260 -9.5l7 -114
q-240 -52 -363 29t-98 307q-205 7 -295.5 140t-60.5 386l58 468q34 264 162 399t344 135z" />
    <glyph glyph-name="R" unicode="R" 
d="M795 1489q401 0 352 -392l-15 -118q-40 -359 -376 -393l277 -586h-141l-274 583h-300l-70 -583h-129l183 1489h493zM694 694q149 0 222 67.5t91 219.5l13 112q19 151 -37 217t-205 66h-361l-84 -682h361z" />
    <glyph glyph-name="S" unicode="S" 
d="M562 -11q-168 0 -282 54t-196 160l89 89q148 -190 389 -190q140 0 235 76.5t111 203.5t-48.5 194.5t-268.5 134.5t-286.5 159t-62.5 258t146 267.5t305 101.5q267 0 415 -205l-86 -93q-140 184 -344 184q-128 0 -211 -66t-98 -184t52 -182.5t270 -131.5t283 -160t58 -271
t-162 -288.5t-308 -110.5z" />
    <glyph glyph-name="T" unicode="T" 
d="M462 0l169 1376h-424l13 113h975l-13 -113h-424l-170 -1376h-126z" />
    <glyph glyph-name="U" unicode="U" 
d="M422.5 -19q-305.5 0 -241.5 522l121 986h126l-121 -986q-26 -218 26 -313t203 -95t226.5 95t101.5 313l121 986h127l-122 -986q-32 -261 -147 -391.5t-420.5 -130.5z" />
    <glyph glyph-name="V" unicode="V" 
d="M585 0h-120l-264 1489h136l214 -1295l529 1295h136z" />
    <glyph glyph-name="W" unicode="W" 
d="M745 0l-101 964l-339 -964h-124l3 1489h118l-17 -1279l316 918h131l87 -908l291 1269h121l-362 -1489h-124z" />
    <glyph glyph-name="X" unicode="X" 
d="M920 0l-309 653l-475 -653h-147l568 765l-343 724h140l294 -621l452 621h144l-542 -731l356 -758h-138z" />
    <glyph glyph-name="Y" unicode="Y" 
d="M588 0h-126l69 559l-373 930h138l317 -808l502 808h140l-598 -930z" />
    <glyph glyph-name="Z" unicode="Z" 
d="M974 0h-886l13 114l895 1262h-739l13 113h886l-13 -113l-897 -1262h741z" />
    <glyph glyph-name="bracketleft" unicode="[" 
d="M244 -372l229 1861h555l-13 -113h-429l-202 -1644h428l-13 -104h-555z" />
    <glyph glyph-name="backslash" unicode="\" 
d="M758 -372l-455 1861h125l455 -1861h-125z" />
    <glyph glyph-name="bracketright" unicode="]" 
d="M158 -372l13 104h429l202 1644h-428l13 113h555l-229 -1861h-555z" />
    <glyph glyph-name="asciicircum" unicode="^" 
d="M950 372l-257 987l-494 -987h-117l562 1117h127l298 -1117h-119z" />
    <glyph glyph-name="underscore" unicode="_" 
d="M4 -344l16 126h957l-16 -126h-957z" />
    <glyph glyph-name="grave" unicode="`" 
d="M709 804l-253 685h248l113 -685h-108z" />
    <glyph glyph-name="a" unicode="a" 
d="M381 -19q-131 0 -213 83.5t-64 229.5t109.5 226t227.5 80h354l24 197q11 99 -43 162t-176 63t-183 -43t-112 -165l-108 31q56 151 155.5 221t263.5 70t256 -85t72 -243l-63 -518q-15 -125 27 -162t155 -14l-13 -120q-263 -41 -255 181h-24q-61 -86 -160 -140t-230 -54z
M412 89q107 0 187.5 40t152.5 128l30 242h-335q-91 0 -150 -41t-72 -147t33.5 -164t153.5 -58z" />
    <glyph glyph-name="b" unicode="b" 
d="M268 162q101 -71 250 -71q295 0 333 307l41 328q37 292 -192 292q-180 0 -352 -195zM745 1136q151 0 224.5 -107t48.5 -303l-41 -331q-24 -192 -148.5 -303t-332.5 -111t-362 118l169 1390h127l-65 -538h30q54 84 147 134.5t203 50.5z" />
    <glyph glyph-name="c" unicode="c" 
d="M539 -19q-202 0 -298 105.5t-72 304.5l40 328q26 203 147.5 310t323.5 107t287 -87.5t77 -266.5l-124 -9q6 138 -52 193.5t-204 55.5t-227 -73.5t-102 -229.5l-39 -328q-37 -296 257 -296q147 0 218 47.5t91 164.5l123 -9q-30 -162 -137 -239.5t-309 -77.5z" />
    <glyph glyph-name="d" unicode="d" 
d="M676 1136q134 0 259 -60l50 413h127l-183 -1489h-127l21 166h-30q-56 -86 -147 -135.5t-199 -49.5q-156 0 -229 107t-49 307l41 327q22 192 147 303t319 111zM666 1026q-293 0 -331 -307l-39 -326q-37 -294 182 -294q105 0 189.5 45.5t170.5 144.5l82 661
q-110 76 -254 76z" />
    <glyph glyph-name="e" unicode="e" 
d="M582.5 1024q-208.5 0 -247.5 -307l-9 -77h555l7 60q20 169 -38.5 246.5t-267 77.5zM518 -19q-182 0 -277.5 104.5t-71.5 307.5l40 326q26 209 151.5 313t307.5 104t278.5 -106.5t68.5 -325.5l-21 -166h-681l-17 -145q-20 -160 41 -231t195 -71t196.5 41t109.5 136
l115 -37q-58 -130 -155.5 -190t-279.5 -60z" />
    <glyph glyph-name="f" unicode="f" 
d="M900 1391q-225 0 -250 -196l-10 -78h436l-15 -113h-435l-170 -1376h-125l170 1376h-300l15 113h300l9 75q19 151 125 231.5t243 80.5t237 -44l-37 -106q-84 37 -193 37z" />
    <glyph glyph-name="g" unicode="g" 
d="M331 -283h336q193 0 216 182q21 162 -149 162h-565l-14 -128q-26 -216 176 -216zM620.5 560q175.5 0 196.5 185l8 63q13 106 -40 153.5t-229.5 47.5t-201.5 -201l-8 -63q-11 -95 44 -140t230.5 -45zM635 -391h-313q-149 0 -232.5 73.5t-65.5 224.5q11 91 59.5 145
t126.5 62l4 22q-56 9 -85.5 53.5t-18.5 128.5t67 146.5t151 69.5l2 17q-67 24 -91.5 80t-15.5 125l8 67q17 128 121 211t275 83h485l-15 -115l-254 29l-1 -20q63 -19 89 -82t19 -127l-8 -65q-15 -123 -112.5 -201t-287.5 -78h-207q-104 0 -121 -139t127 -138h389
q140 0 215.5 -67.5t57.5 -211.5t-122.5 -218.5t-245.5 -74.5z" />
    <glyph glyph-name="h" unicode="h" 
d="M743 1136q149 0 225 -98t56 -260l-95 -778h-127l94 752q15 127 -35.5 196.5t-148.5 69.5t-184.5 -46.5t-179.5 -148.5l-100 -823h-127l182 1489h127l-67 -545h30q133 192 350 192z" />
    <glyph glyph-name="i.salt_serifs" unicode="&#xe023;" 
d="M601 114h375l-13 -114h-501l123 1004h-375l15 113h501zM712 1525q50 0 80 -19q29 -19 23 -67l-1 -13q-10 -82 -124 -82q-49 0 -80 19t-23 71q7 53 41 72t84 19z" />
    <glyph glyph-name="i.salt_serifs" unicode="i" 
d="M601 114h375l-13 -114h-501l123 1004h-375l15 113h501zM712 1525q50 0 80 -19q29 -19 23 -67l-1 -13q-10 -82 -124 -82q-49 0 -80 19t-23 71q7 53 41 72t84 19z" />
    <glyph glyph-name="j" unicode="j" 
d="M344 -266q254 0 291 283l121 987h-479l15 113h604l-138 -1117q-22 -188 -140 -288t-290 -99q-129 0 -250 41l41 121q104 -41 225 -41zM876 1527q50 0 81 -19q30 -19 20 -80q-10 -82 -123 -82q-49 0 -80 19t-23 71q7 53 41 72t84 19z" />
    <glyph glyph-name="k" unicode="k" 
d="M395 532l-65 -532h-125l182 1489h125l-104 -847h136l398 475h151l-453 -521l311 -596h-141l-276 532h-139z" />
    <glyph glyph-name="l.salt_serifs_round" unicode="&#xe056;" 
d="M963 35q-100 -44 -224 -44q-125 0 -190 94t-44 261l126 1030h-374l13 113h501l-140 -1145q-31 -238 140 -238q87 0 179 39z" />
    <glyph glyph-name="l.salt_serifs_round" unicode="l" 
d="M963 35q-100 -44 -224 -44q-125 0 -190 94t-44 261l126 1030h-374l13 113h501l-140 -1145q-31 -238 140 -238q87 0 179 39z" />
    <glyph glyph-name="m" unicode="m" 
d="M715 976q84 160 243 160q83 0 126.5 -77.5t27.5 -213.5l-105 -845h-119l101 823q25 207 -90 207q-91 0 -208 -164l-106 -866h-120l101 823q25 207 -89 207q-86 0 -209 -164l-106 -866h-119l138 1117h119l-19 -141h26q84 160 218 160q67 0 110 -42t54 -118h26z" />
    <glyph glyph-name="n" unicode="n" 
d="M743 1136q151 0 226 -97t55 -263l-95 -776h-127l94 752q15 128 -34.5 196.5t-149.5 68.5q-191 0 -362 -188l-102 -829h-127l138 1117h126l-22 -173h30q58 89 152.5 140.5t197.5 51.5z" />
    <glyph glyph-name="o" unicode="o" 
d="M536.5 95q141.5 0 218.5 72.5t96 223.5l39 328q20 155 -39.5 229t-201 74t-217.5 -74.5t-97 -228.5l-39 -328q-19 -151 40 -223.5t200.5 -72.5zM523.5 -19q-193.5 0 -286 106.5t-68.5 303.5l40 328q26 201 145 309t312.5 108t285 -108t65.5 -309l-40 -326
q-24 -199 -142 -305.5t-311.5 -106.5z" />
    <glyph glyph-name="p" unicode="p" 
d="M512 -19q-135 0 -259 60l-52 -413h-127l185 1489h126l-22 -173h30q56 93 148 142.5t196 49.5q156 0 230 -110t51 -304l-41 -327q-24 -194 -147.5 -304t-317.5 -110zM708 1018q-106 0 -189 -45.5t-169 -145.5l-82 -658q112 -78 258 -78t226 74.5t99 232.5l41 328
q36 292 -184 292z" />
    <glyph glyph-name="q" unicode="q" 
d="M672 1026q-295 0 -337 -307l-37 -311q-38 -309 194 -309q178 0 346 191l82 669q-102 67 -248 67zM443 -19q-155 0 -226.5 108t-47.5 302l41 331q22 194 150 304t332 110t364 -103l-173 -1405h-127l67 545h-30q-63 -91 -154.5 -141.5t-195.5 -50.5z" />
    <glyph glyph-name="r" unicode="r" 
d="M802 1136q127 0 194 -80t50 -227l-18 -148h-123l15 120q27 217 -170 217q-170 0 -316 -189l-103 -829h-126l138 1117h126l-22 -175h30q121 194 325 194z" />
    <glyph glyph-name="s" unicode="s" 
d="M564 -19q-290 0 -460 155l71 100q155 -141 380 -141q117 0 200 47.5t94 142.5t-49 138t-246 79t-267 108t-63 214t129.5 227t268.5 85q222 0 393 -149l-69 -101q-156 136 -339 136q-104 0 -175 -47.5t-82 -142.5t47.5 -138.5t244.5 -79.5t267 -111t65 -215t-140 -223.5
t-270 -83.5z" />
    <glyph glyph-name="t" unicode="t" 
d="M953 30q-124 -47 -247 -47q-162 0 -242 96t-60 269l80 656h-289l15 113h289l45 372h126l-44 -372h443l-15 -113h-443l-79 -639q-33 -264 198 -264q89 0 210 42z" />
    <glyph glyph-name="u" unicode="u" 
d="M445 -19q-147 0 -224.5 100t-56.5 267l95 769h126l-91 -737q-34 -281 192 -281q180 0 352 190l102 828h127l-138 -1117h-127l21 173h-30q-61 -91 -152.5 -141.5t-195.5 -50.5z" />
    <glyph glyph-name="v" unicode="v" 
d="M601 0h-152l-235 1117h132l192 -1002l439 1002h133z" />
    <glyph glyph-name="w" unicode="w" 
d="M704 0l-86 769l-266 -769h-138l-74 1117h123l40 -979l259 793h145l79 -767l275 953h125l-350 -1117h-132z" />
    <glyph glyph-name="x" unicode="x" 
d="M810 0l-231 467l-343 -467h-135l426 564l-272 553h134l224 -452l337 452h137l-422 -555l279 -562h-134z" />
    <glyph glyph-name="y" unicode="y" 
d="M222 -272q73 0 132 47.5t117 170.5l22 52h-42l-237 1119h132l198 -998l435 998h133l-537 -1191q-74 -168 -170 -239t-224 -71q-63 0 -144 17l34 114q78 -19 151 -19z" />
    <glyph glyph-name="z" unicode="z" 
d="M896 0h-741l13 114l705 890h-596l15 113h741l-15 -113l-705 -890h596z" />
    <glyph glyph-name="braceleft" unicode="{" 
d="M797 -391q-337 -6 -479.5 70.5t-122.5 238.5q9 80 48 140t99 122t92.5 100t38.5 79q11 95 -70 134t-302 45l11 86q222 6 313 44t100 127q6 41 -17.5 74.5t-69.5 86.5t-70.5 110t-15.5 137q20 160 184 235.5t494 69.5l-13 -113q-281 6 -403 -42t-136 -160q-6 -47 15 -89.5
t75 -99.5q50 -60 70.5 -104.5t14.5 -98.5q-25 -199 -335 -215l-1 -9q149 -15 220.5 -75.5t58.5 -162.5q-6 -52 -38.5 -97.5t-100.5 -107.5t-97.5 -107.5t-37.5 -99.5q-15 -117 96 -165.5t392 -42.5z" />
    <glyph glyph-name="bar" unicode="|" 
d="M424 -372l229 1861h108l-229 -1861h-108z" />
    <glyph glyph-name="braceright" unicode="}" 
d="M836 -82q-20 -162 -181.5 -238.5t-498.5 -70.5l13 110q281 -6 403 42.5t137 165.5q7 54 -11 100t-72 107t-74.5 107t-15.5 98q26 207 339 238l2 9q-151 7 -223.5 58.5t-59.5 156.5q6 54 37.5 98.5t96.5 104.5q69 58 100.5 100.5t37.5 88.5q13 112 -98 159.5t-392 42.5
l13 113q333 6 478.5 -69.5t124.5 -235.5q-9 -80 -46 -137t-97 -110t-92.5 -86.5t-35.5 -70.5q-11 -91 70.5 -130.5t299.5 -44.5l-11 -86q-222 -6 -312 -45t-101 -134q-6 -41 16.5 -79t68.5 -100t69.5 -122t14.5 -140z" />
    <glyph glyph-name="asciitilde" unicode="~" 
d="M816 395q-100 0 -152.5 69.5t-96.5 230.5t-74.5 219t-88.5 58t-99 -65t-56 -200l-37 -294h-113l37 306q22 177 102 276.5t180 99.5t154 -70.5t96 -232.5t72.5 -219t88 -57t98.5 67t58 203l35 290h114l-37 -303q-22 -179 -101.5 -278.5t-179.5 -99.5z" />
    <glyph glyph-name="exclamdown" unicode="&#xa1;" 
d="M693 931l-82 -931h-166l145 931h103zM673.5 1506q106.5 0 139 -29.5t25.5 -93.5l-6 -52q-14 -125 -156.5 -125t-128.5 125l6 52q14 123 120.5 123z" />
    <glyph glyph-name="cent" unicode="&#xa2;" 
d="M512 169q-368 26 -318 429l37 292q48 404 422 430l32 263h101l-32 -261q173 -9 246.5 -98.5t64.5 -262.5l-119 -10q7 143 -44 197.5t-168 59.5l-114 -927q119 2 183.5 49.5t88.5 177.5l117 -9q-30 -162 -125 -243t-271 -88l-32 -261h-101zM318 590q-19 -153 35.5 -226.5
t180.5 -80.5l114 923q-127 -9 -200.5 -81.5t-91.5 -228.5z" />
    <glyph glyph-name="sterling" unicode="&#xa3;" 
d="M689 -19q-52 0 -106.5 26.5t-128.5 64.5t-119 45.5t-89 -22.5l-172 -112l-57 93l147 84q67 39 123.5 142.5t69.5 207.5t-29 237h-218l15 115h160q-42 120 -30 251q22 179 139.5 287t315.5 108t286 -90.5t71 -289.5l-129 -15q9 160 -45.5 221t-200 61t-219 -70t-91.5 -215
q-10 -98 39 -248h361l-15 -115h-305q65 -226 -6 -355t-160 -193l11 -17q54 32 98.5 26.5t98.5 -29.5t101 -51t99 -27q91 0 136.5 61t79.5 225l124 -15q-35 -194 -126 -292.5t-229 -98.5z" />
    <glyph glyph-name="currency" unicode="&#xa4;" 
d="M229 487.5q0 44.5 7 97.5l38 312q14 105 48 183l-154 193l87 82l138 -169q117 136 295 136q177 0 250 -136l174 162l67 -82l-198 -188q15 -83 0 -181l-37 -312q-17 -111 -47 -172l155 -190l-89 -82l-133 162q-112 -135 -296 -135t-255 130l-173 -164l-69 82l199 188
q-7 39 -7 83.5zM553 281q114 0 180 71t86 233l37 312q39 311 -189 311t-269 -311l-37 -312q-20 -162 29 -233t163 -71z" />
    <glyph glyph-name="yen" unicode="&#xa5;" 
d="M957 209h-343l-26 -209h-126l26 209h-341l13 115h341l31 257h-340l15 115h279l-330 793h140l317 -796l508 796h138l-524 -793h282l-15 -115h-343l-32 -257h343z" />
    <glyph glyph-name="brokenbar" unicode="&#xa6;" 
d="M424 -372l94 744h108l-94 -744h-108zM562 745l91 744h108l-91 -744h-108z" />
    <glyph glyph-name="section" unicode="&#xa7;" 
d="M510 -385q-114 0 -215 41.5t-168 118.5l74 102q76 -76 152.5 -112.5t184.5 -36.5t187 56t93 168t-62 173t-249 103t-254.5 117.5t-66.5 195.5q27 215 259 289q-211 102 -184 324q20 162 141 252.5t287 90.5q112 0 211.5 -41t168.5 -115l-77 -101q-76 73 -151 108t-183 35
t-187.5 -56.5t-93.5 -167.5t62.5 -172.5t250.5 -103.5t255 -115.5t66 -195.5t-85.5 -190.5t-178.5 -102.5q102 -50 152.5 -124.5t36.5 -189.5q-20 -166 -138.5 -258t-287.5 -92zM551 346q15 -6 32.5 -9.5t34.5 -8.5q106 7 179 60.5t85 151.5t-47 146t-191 79
q-15 6 -32.5 9.5t-32.5 9.5q-108 -7 -179.5 -60.5t-83.5 -151.5t45.5 -146t189.5 -80z" />
    <glyph glyph-name="dieresis" unicode="&#xa8;" 
d="M879 1346q-41 0 -66 18t-18 71q8 54 36 73q29 19 70 19q95 0 80 -99q-5 -48 -33 -65t-69 -17zM503 1346q-41 0 -66 18t-18 71q8 54 36 73q29 19 70 19q95 0 80 -99q-5 -48 -33 -65t-69 -17z" />
    <glyph glyph-name="copyright" unicode="&#xa9;" 
d="M380 838q0 352 242 352q122 0 174.5 -77.5t61.5 -222.5l-106 -7q-7 114 -32.5 159t-93.5 45t-98.5 -55t-30.5 -183v-320q0 -128 32.5 -183.5t98.5 -55.5t91.5 41t32.5 147l106 -7q-9 -138 -61 -210.5t-174 -72.5q-243 0 -243 358v292zM616 -115q244 0 350 146t106 468
v372q0 324 -106 473t-350 149t-350 -149t-106 -473v-372q0 -322 106 -468t350 -146zM616 -205q-281 0 -415 170.5t-134 505.5v428q0 339 134 511.5t416 172.5t415 -172.5t133 -511.5v-428q0 -335 -134 -505.5t-415 -170.5z" />
    <glyph glyph-name="ordfeminine" unicode="&#xaa;" 
d="M464 600q-108 0 -174.5 64t-52.5 176t91.5 174t172.5 62h294l15 125q13 97 -30.5 152.5t-139.5 55.5t-143.5 -31.5t-88.5 -130.5l-93 32q39 115 120 172t219 57t212 -74.5t56 -214.5l-47 -379q-9 -86 23.5 -109.5t125.5 -11.5l-13 -110q-106 -9 -158 21.5t-45 127.5h-20
q-124 -158 -324 -158zM532 989q-165 0 -182 -133q-18 -158 150 -158t263 123l21 168h-252z" />
    <glyph glyph-name="guillemotleft" unicode="&#xab;" 
d="M521 212l-407 393l11 91l504 393l-16 -126l-403 -311l326 -313zM1035 212l-408 393l12 91l504 393l-17 -126l-400 -311l324 -313z" />
    <glyph glyph-name="logicalnot" unicode="&#xac;" 
d="M855 0l72 588h-808l15 127h933l-88 -715h-124z" />
    <glyph glyph-name="registered" unicode="&#xae;" 
d="M823 1007q0 -147 -127 -173l142 -231h-104l-136 222h-82v-222h-90v665h207q93 0 141.5 -51.5t48.5 -149.5v-60zM734 1067q0 119 -103 119h-115v-279h115q103 0 103 100v60zM616 339q205 0 295.5 105t90.5 332v300q0 233 -90.5 339t-295.5 106t-295 -106t-90 -339v-300
q0 -227 90 -332t295 -105zM1082 758q0 -501 -466.5 -501t-466.5 501v337q0 506 469 506q464 0 464 -506v-337z" />
    <glyph glyph-name="macron" unicode="&#x2c9;" 
d="M384 1435l13 114h636l-13 -114h-636z" />
    <glyph glyph-name="macron" unicode="&#xaf;" 
d="M384 1435l13 114h636l-13 -114h-636z" />
    <glyph glyph-name="degree" unicode="&#xb0;" 
d="M819 1160q0 233 -202 233t-202 -233v-177q0 -123 50 -175t150 -52t152 52t52 175v177zM617 648q-142 0 -230.5 82t-88.5 253v175q0 173 88.5 258t231.5 85t230 -85t87 -258v-175q0 -171 -88 -253t-230 -82z" />
    <glyph glyph-name="plusminus" unicode="&#xb1;" 
d="M473 261l63 514h-417l15 126h417l63 514h125l-63 -514h415l-15 -126h-415l-63 -514h-125zM119 26l15 127h957l-15 -127h-957z" />
    <glyph glyph-name="two.sups" unicode="&#xb2;" 
d="M698 1406q-112 0 -154.5 -37.5t-63.5 -137.5l-113 9q24 134 102 197.5t241 63.5t228.5 -64.5t50.5 -189.5l-8 -63q-11 -91 -65 -145t-158 -78l-190 -41q-76 -15 -111.5 -47.5t-45.5 -111.5l-11 -98h529l-13 -97h-642l24 194q13 104 65 168t166 89l192 41q76 17 109.5 49
t42.5 99l4 36q11 86 -28 125t-151 39z" />
    <glyph glyph-name="three.sups" unicode="&#xb3;" 
d="M576 555q-172 0 -237 60.5t-58 183.5l114 7q0 -86 33.5 -120t157.5 -34t176 40t63 129l4 30q9 80 -32 116.5t-157 36.5h-121l13 96h121q101 0 146.5 26t53.5 93l5 38q9 80 -35.5 113.5t-142.5 33.5t-143 -31t-62 -105l-116 9q22 119 101.5 171.5t229.5 52.5t223.5 -55
t58.5 -178l-4 -30q-9 -76 -53 -120t-107 -51l-2 -23q69 -6 107 -60.5t29 -140.5l-4 -26q-17 -136 -103.5 -199t-258.5 -63z" />
    <glyph glyph-name="acute" unicode="&#xb4;" 
d="M534 1303l289 373h192l-371 -373h-110z" />
    <glyph glyph-name="mu1" unicode="&#xb5;" 
d="M443 -19q-139 0 -199 123l-9 -67l-38 -409h-152l63 409l134 1080h127l-93 -756q-17 -130 36 -196t146 -66t161 38t129 107l108 873h127l-102 -823q-15 -128 17 -165q33 -36 130 -17l-13 -118q-232 -38 -224 179h-22q-54 -76 -138 -134t-188 -58z" />
    <glyph glyph-name="paragraph" unicode="&#xb6;" 
d="M640 1489h473l-229 -1861h-124l124 1005h-219l-125 -1005h-127l125 1005q-186 0 -290.5 93t-81.5 274l11 97q24 190 151.5 291t311.5 101z" />
    <glyph glyph-name="periodcentered" unicode="&#x2219;" 
d="M599 588q-64 0 -100.5 31t-29.5 96l8 52q13 132 160 132q63 0 99.5 -31.5t28.5 -100.5l-7 -52q-7 -65 -51 -96t-108 -31z" />
    <glyph glyph-name="periodcentered" unicode="&#xb7;" 
d="M599 588q-64 0 -100.5 31t-29.5 96l8 52q13 132 160 132q63 0 99.5 -31.5t28.5 -100.5l-7 -52q-7 -65 -51 -96t-108 -31z" />
    <glyph glyph-name="cedilla" unicode="&#xb8;" 
d="M420 -402q-105 0 -165 46t-54 157l117 11q-2 -58 22 -83t90 -25q65 0 100 28q34 28 43 100t-14 110t-86 58l33 56q91 -19 145 -78q53 -60 40 -164t-89 -160t-182 -56z" />
    <glyph glyph-name="one.sups" unicode="&#xb9;" 
d="M359 566l13 97h231l82 670h-15q-30 -74 -99.5 -119t-149.5 -47l3 101q82 4 166 57t117 164h110l-100 -826h212l-13 -97h-557z" />
    <glyph glyph-name="ordmasculine" unicode="&#xba;" 
d="M610 704q120 0 185 56.5t80 179.5l26 218q17 127 -34.5 185.5t-171.5 58.5t-184 -58.5t-81 -185.5l-26 -218q-15 -123 35.5 -179.5t170.5 -56.5zM599 600q-165 0 -248 87.5t-62 252.5l26 216q22 173 125.5 262.5t269 89.5t247.5 -89.5t60 -262.5l-27 -216
q-20 -166 -123 -253t-268 -87z" />
    <glyph glyph-name="guillemotright" unicode="&#xbb;" 
d="M579 212l15 129l404 311l-328 311l17 128l408 -395l-11 -89zM63 212l15 129l406 311l-329 311l16 128l410 -395l-11 -89z" />
    <glyph glyph-name="onequarter" unicode="&#xbc;" 
d="M285 -101h331l51 403zM694 -391h-113l24 196h-443l11 94l473 503h147l-63 -503h160l-11 -94h-160zM1182 492l-515 26l11 83l521 23zM-13 492l17 132l542 -23l-12 -83zM350 763l13 97h231l59 484h-14q-30 -74 -100 -119t-150 -46l2 100q84 4 167.5 57t117.5 165h110
l-79 -641h213l-13 -97h-557z" />
    <glyph glyph-name="onehalf" unicode="&#xbd;" 
d="M562.5 298q-111.5 0 -154.5 -29t-58 -109l-115 11q20 114 98 168t241 54t230 -54t54 -160l-9 -65q-9 -76 -63 -120t-155 -67l-190 -41q-74 -15 -110.5 -45.5t-49.5 -136.5h529l-11 -97h-643l19 157q11 89 62.5 142t164.5 77l192 41q76 17 108.5 39.5t38.5 72.5l4 35
q9 67 -31 97t-151.5 30zM1182 492l-515 26l11 83l521 23zM-13 492l17 132l542 -23l-12 -83zM350 763l13 97h231l59 484h-14q-30 -74 -100 -119t-150 -46l2 100q82 4 166.5 57t118.5 165h110l-79 -641h213l-13 -97h-557z" />
    <glyph glyph-name="threequarters" unicode="&#xbe;" 
d="M285 -101h331l51 403zM694 -391h-113l24 196h-443l11 94l473 503h147l-63 -503h160l-11 -94h-160zM1182 492l-515 26l11 83l521 23zM-13 492l17 132l542 -23l-12 -83zM610 750q-172 0 -239.5 52.5t-59.5 154.5l115 9q-2 -65 33.5 -92t160.5 -27t175 28t58 91l3 30
q6 54 -37 78t-160 24h-99l13 97h99q101 0 146.5 19t50.5 65l6 39q6 52 -39.5 73.5t-143.5 21.5t-144.5 -22.5t-55.5 -76.5l-116 10q20 101 97.5 143.5t226.5 42.5t224.5 -41t64.5 -142l-4 -29q-7 -60 -50 -94.5t-105 -41.5l-3 -23q71 -6 110 -46.5t31 -102.5l-4 -27
q-13 -110 -97.5 -161.5t-256.5 -51.5z" />
    <glyph glyph-name="questiondown" unicode="&#xbf;" 
d="M542 95q202 0 280.5 70.5t115.5 266.5l127 -11q-41 -246 -159 -343t-374 -97t-357 105.5t-78 297.5l11 85q22 190 174 285t491 151l11 -103q-292 -48 -413.5 -126t-137.5 -214l-6 -56q-20 -160 46.5 -235.5t268.5 -75.5zM753 1208q-143 0 -127 127l5 52q17 121 157 121
q69 0 103 -29t25 -92l-6 -52q-14 -127 -157 -127z" />
    <glyph glyph-name="Agrave" unicode="&#xc0;" 
d="M899 0l-72 454h-492l-186 -454h-130l631 1489h117l266 -1489h-134zM808 566l-121 748l-307 -748h428zM752 1676l-277 372h193l194 -372h-110z" />
    <glyph glyph-name="Aacute" unicode="&#xc1;" 
d="M899 0l-72 454h-492l-186 -454h-130l631 1489h117l266 -1489h-134zM808 566l-121 748l-307 -748h428zM577 1676l289 372h192l-371 -372h-110z" />
    <glyph glyph-name="Acircumflex" unicode="&#xc2;" 
d="M899 0l-72 454h-492l-186 -454h-130l631 1489h117l266 -1489h-134zM808 566l-121 748l-307 -748h428zM439 1707l-42 73l337 300h87l263 -300l-60 -73l-264 250z" />
    <glyph glyph-name="Atilde" unicode="&#xc3;" 
d="M899 0l-72 454h-492l-186 -454h-130l631 1489h117l266 -1489h-134zM808 566l-121 748l-307 -748h428zM873 1694q-58 0 -93 36t-64 102q-29 68 -50 98t-59 30q-84 -1 -108 -227l-4 -20h-100l3 28q19 153 80 239t155 87q63 -1 99 -35t62 -101q28 -67 48 -100t56 -33
q81 1 109 230l4 20h101l-4 -28q-20 -154 -80 -240t-155 -86z" />
    <glyph glyph-name="Adieresis" unicode="&#xc4;" 
d="M899 0l-72 454h-492l-186 -454h-130l631 1489h117l266 -1489h-134zM808 566l-121 748l-307 -748h428zM922 1718q-41 0 -66 17t-18 72q8 54 36 73q29 19 70 19q95 0 80 -99q-6 -48 -34 -65t-68 -17zM546 1718q-41 0 -66 17t-18 72q8 54 36 73q29 19 70 19q95 0 80 -99
q-6 -48 -34 -65t-68 -17z" />
    <glyph glyph-name="Aring" unicode="&#xc5;" 
d="M899 0l-72 454h-492l-186 -454h-130l631 1489h117l266 -1489h-134zM808 566l-121 748l-307 -748h428zM735 1745q76 0 119 39q42 39 53 130l7 67q11 91 -19 133q-31 42 -107 42q-151 0 -172 -175l-7 -67q-11 -91 19 -130t107 -39zM724 1648q-118 0 -178 67t-43 199l7 67
q17 134 93 203q75 69 195 69t180 -69t42 -203l-7 -67q-17 -132 -93 -199t-196 -67z" />
    <glyph glyph-name="AE" unicode="&#xc6;" 
d="M616 452h-381l-177 -452h-112l592 1489h726l-13 -106h-404l-65 -530h385l-13 -106h-385l-78 -641h404l-13 -106h-522zM596 1383l-319 -823h352l101 823h-134z" />
    <glyph glyph-name="Ccedilla" unicode="&#xc7;" 
d="M438 -402q-106 0 -164 46q-60 46 -54 157l117 11q-2 -58 22 -83q23 -25 89 -25t100 28t44 100t-10 103q-18 30 -47 46q-220 1 -320 131t-68 387l60 484q32 259 164 392q133 133 353 133t317 -114t80 -361l-129 -13q9 210 -51 293q-61 82 -233 82t-260 -97t-117 -322
l-57 -470q-26 -218 38 -314t238 -97q174 0 258 84t115 283l127 -13q-60 -401 -393 -458q66 -66 52 -173q-13 -108 -89 -164t-182 -56z" />
    <glyph glyph-name="Egrave" unicode="&#xc8;" 
d="M121 0l182 1489h842l-13 -113h-717l-63 -507h633l-13 -113h-633l-80 -642h717l-13 -114h-842zM769 1676l-277 372h193l194 -372h-110z" />
    <glyph glyph-name="Eacute" unicode="&#xc9;" 
d="M121 0l182 1489h842l-13 -113h-717l-63 -507h633l-13 -113h-633l-80 -642h717l-13 -114h-842zM627 1676l289 372h192l-371 -372h-110z" />
    <glyph glyph-name="Ecircumflex" unicode="&#xca;" 
d="M121 0l182 1489h842l-13 -113h-717l-63 -507h633l-13 -113h-633l-80 -642h717l-13 -114h-842zM471 1707l-43 73l337 300h88l262 -300l-59 -73l-265 250z" />
    <glyph glyph-name="Edieresis" unicode="&#xcb;" 
d="M121 0l182 1489h842l-13 -113h-717l-63 -507h633l-13 -113h-633l-80 -642h717l-13 -114h-842zM953 1718q-41 0 -66 18t-18 71q8 54 37 73t70 19q95 0 80 -99q-6 -48 -34 -65t-69 -17zM600 1899q92 0 81 -86q-5 -60 -34 -77q-29 -18 -70 -18t-66 18t-18 71q8 54 37 73
t70 19z" />
    <glyph glyph-name="Igrave" unicode="&#xcc;" 
d="M121 0l13 114h341l156 1262h-341l13 113h809l-14 -113h-340l-157 -1262h341l-13 -114h-808zM750 1676l-277 372h194l193 -372h-110z" />
    <glyph glyph-name="Iacute" unicode="&#xcd;" 
d="M121 0l13 114h341l156 1262h-341l13 113h809l-14 -113h-340l-157 -1262h341l-13 -114h-808zM575 1676l289 372h192l-371 -372h-110z" />
    <glyph glyph-name="Icircumflex" unicode="&#xce;" 
d="M121 0l13 114h341l156 1262h-341l13 113h809l-14 -113h-340l-157 -1262h341l-13 -114h-808zM438 1707l-43 73l337 300h87l263 -300l-60 -73l-264 250z" />
    <glyph glyph-name="Idieresis" unicode="&#xcf;" 
d="M121 0l13 114h341l156 1262h-341l13 113h809l-14 -113h-340l-157 -1262h341l-13 -114h-808zM920 1718q-41 0 -66 18t-18 71q8 54 36 73q29 19 70 19q95 0 80 -99q-6 -48 -34 -65t-68 -17zM544 1718q-41 0 -66 17t-18 72q8 54 36 73q29 19 70 19q95 0 80 -99
q-6 -48 -34 -65t-68 -17z" />
    <glyph glyph-name="Eth" unicode="&#xd0;" 
d="M488 114q182 0 285.5 112.5t127.5 298.5l52 432q22 184 -52 301.5t-257 117.5h-229l-62 -503h256l-15 -113h-255l-80 -646h229zM659 1489q227 0 339 -145t82 -387l-52 -432q-30 -238 -178 -381.5t-375 -143.5h-356l93 760h-167l15 113h166l76 616h357z" />
    <glyph glyph-name="Ntilde" unicode="&#xd1;" 
d="M767 0l-372 1288l-159 -1288h-117l183 1489h152l382 -1310l160 1310h117l-182 -1489h-164zM903 1694q-58 0 -93 36t-64 102q-28 68 -50 98t-60 30q-83 -1 -107 -227l-4 -20h-101l4 28q20 153 80 239t155 87q63 -1 98 -35t63 -101t47 -100q20 -33 57 -33q81 1 109 230
l4 20h100l-3 -28q-20 -154 -80 -240t-155 -86z" />
    <glyph glyph-name="Ograve" unicode="&#xd2;" 
d="M536 95q168 0 252 97t111 316l56 466q28 223 -32 322q-59 99 -227 99t-252 -99t-113 -322l-55 -466q-28 -220 32 -316t228 -97zM711 1508q216 0 310 -134t61 -400l-56 -466q-68 -527 -503 -527q-216 1 -312 133t-62 394l56 466q34 266 162 400t344 134zM750 1676
l-277 372h194l193 -372h-110z" />
    <glyph glyph-name="Oacute" unicode="&#xd3;" 
d="M536 95q168 0 252 97t111 316l56 466q28 223 -32 322q-59 99 -227 99t-252 -99t-113 -322l-55 -466q-28 -220 32 -316t228 -97zM711 1508q216 0 310 -134t61 -400l-56 -466q-68 -527 -503 -527q-216 1 -312 133t-62 394l56 466q34 266 162 400t344 134zM642 1676l289 372
h192l-371 -372h-110z" />
    <glyph glyph-name="Ocircumflex" unicode="&#xd4;" 
d="M536 95q168 0 252 97t111 316l56 466q28 223 -32 322q-59 99 -227 99t-252 -99t-113 -322l-55 -466q-28 -220 32 -316t228 -97zM711 1508q216 0 310 -134t61 -400l-56 -466q-68 -527 -503 -527q-216 1 -312 133t-62 394l56 466q34 266 162 400t344 134zM438 1707l-43 73
l337 300h87l263 -300l-60 -73l-264 250z" />
    <glyph glyph-name="Otilde" unicode="&#xd5;" 
d="M536 95q168 0 252 97t111 316l56 466q28 223 -32 322q-59 99 -227 99t-252 -99t-113 -322l-55 -466q-28 -220 32 -316t228 -97zM711 1508q216 0 310 -134t61 -400l-56 -466q-68 -527 -503 -527q-216 1 -312 133t-62 394l56 466q34 266 162 400t344 134zM871 1694
q-58 0 -93 36t-64 102q-29 68 -50 98q-20 30 -58 30q-84 -1 -109 -227l-4 -20h-100l4 28q19 153 79 239t155 87q63 -1 99 -35t62 -101q28 -67 48 -100t56 -33q83 1 109 230l4 20h101l-4 -28q-20 -154 -80 -240t-155 -86z" />
    <glyph glyph-name="Odieresis" unicode="&#xd6;" 
d="M536 95q168 0 252 97t111 316l56 466q28 223 -32 322q-59 99 -227 99t-252 -99t-113 -322l-55 -466q-28 -220 32 -316t228 -97zM711 1508q216 0 310 -134t61 -400l-56 -466q-68 -527 -503 -527q-216 1 -312 133t-62 394l56 466q34 266 162 400t344 134zM920 1718
q-41 0 -66 18t-18 71q8 54 36 73q29 19 70 19q95 0 80 -99q-6 -48 -34 -65t-68 -17zM544 1718q-41 0 -66 17t-18 72q8 54 36 73q29 19 70 19q95 0 80 -99q-6 -48 -34 -65t-68 -17z" />
    <glyph glyph-name="multiply" unicode="&#xd7;" 
d="M158 108l-72 76l439 468l-324 467l91 76l322 -461l436 452l73 -76l-438 -458l326 -458l-91 -77l-324 453z" />
    <glyph glyph-name="Oslash" unicode="&#xd8;" 
d="M711 1508q107 0 183 -35l87 175h125l-117 -235q130 -122 93 -443l-56 -458q-68 -531 -503 -531q-124 0 -212 49l-91 -188h-125l127 255q-107 134 -73 415l56 458q68 538 506 538zM359 138q66 -43 177 -43q169 0 253 96t112 319l56 462q30 235 -34 328zM696 1395
q-169 0 -253 -98t-112 -325l-55 -462q-25 -187 14 -290l557 1147q-60 28 -151 28z" />
    <glyph glyph-name="Ugrave" unicode="&#xd9;" 
d="M523 -19q-406 0 -342 522l121 986h126l-121 -986q-26 -218 26 -313t203 -95t226 95t102 313l121 986h127l-122 -986q-32 -261 -147 -391t-320 -131zM750 1676l-277 372h194l193 -372h-110z" />
    <glyph glyph-name="Uacute" unicode="&#xda;" 
d="M523 -19q-406 0 -342 522l121 986h126l-121 -986q-26 -218 26 -313t203 -95t226 95t102 313l121 986h127l-122 -986q-32 -261 -147 -391t-320 -131zM575 1676l289 372h192l-371 -372h-110z" />
    <glyph glyph-name="Ucircumflex" unicode="&#xdb;" 
d="M523 -19q-406 0 -342 522l121 986h126l-121 -986q-26 -218 26 -313t203 -95t226 95t102 313l121 986h127l-122 -986q-32 -261 -147 -391t-320 -131zM438 1707l-43 73l337 300h87l263 -300l-60 -73l-264 250z" />
    <glyph glyph-name="Udieresis" unicode="&#xdc;" 
d="M523 -19q-406 0 -342 522l121 986h126l-121 -986q-26 -218 26 -313t203 -95t226 95t102 313l121 986h127l-122 -986q-32 -261 -147 -391t-320 -131zM920 1718q-41 0 -66 18t-18 71q8 54 36 73q29 19 70 19q95 0 80 -99q-6 -48 -34 -65t-68 -17zM544 1718q-41 0 -66 17
t-18 72q8 54 36 73q29 19 70 19q95 0 80 -99q-6 -48 -34 -65t-68 -17z" />
    <glyph glyph-name="Yacute" unicode="&#xdd;" 
d="M588 0h-126l69 559l-373 930h138l317 -808l502 808h140l-598 -930zM575 1676l289 372h192l-371 -372h-110z" />
    <glyph glyph-name="Thorn" unicode="&#xde;" 
d="M622 393q151 0 223.5 67t90.5 223l21 172q19 151 -37 215t-207 64h-328l-91 -741h328zM730 1247q197 0 287.5 -100.5t66.5 -291.5l-21 -170q-24 -197 -138.5 -300.5t-313.5 -103.5h-330l-35 -281h-125l182 1489h125l-30 -242h332z" />
    <glyph glyph-name="germandbls" unicode="&#xdf;" 
d="M620 1389q-134 0 -220.5 -81t-107.5 -249l-177 -1431h-126l179 1454q26 201 154.5 311.5t316.5 110.5t285.5 -112.5t75.5 -302.5l-10 -80q-367 -1 -391 -185q-12 -94 41.5 -133t197.5 -75t214.5 -106.5t52.5 -214.5t-127.5 -225t-262.5 -81q-101 0 -190 37t-143 106
l76 101q125 -129 277 -129q102 0 166.5 45.5t75.5 138.5t-34 135.5t-187 80.5t-222 102t-63 199t131.5 215t272.5 88q11 141 -55 211t-200 70z" />
    <glyph glyph-name="agrave" unicode="&#xe0;" 
d="M381 -19q-131 0 -213 83q-82 84 -64 230t109 226q92 80 228 80h354l24 197q11 99 -43 162t-176 63t-183 -43t-112 -165l-108 31q56 151 156 221q99 70 263 70t256 -85t72 -243l-63 -518q-15 -125 27 -162t155 -14l-13 -120q-263 -41 -255 181h-24q-61 -86 -160 -140
t-230 -54zM412 89q108 0 188 40t152 128l30 242h-335q-91 0 -150 -41t-72 -147t33 -164t154 -58zM676 1303l-278 373h194l194 -373h-110z" />
    <glyph glyph-name="aacute" unicode="&#xe1;" 
d="M381 -19q-131 0 -213 83q-82 84 -64 230t109 226q92 80 228 80h354l24 197q11 99 -43 162t-176 63t-183 -43t-112 -165l-108 31q56 151 156 221q99 70 263 70t256 -85t72 -243l-63 -518q-15 -125 27 -162t155 -14l-13 -120q-263 -41 -255 181h-24q-61 -86 -160 -140
t-230 -54zM412 89q108 0 188 40t152 128l30 242h-335q-91 0 -150 -41t-72 -147t33 -164t154 -58zM501 1303l288 373h192l-370 -373h-110z" />
    <glyph glyph-name="acircumflex" unicode="&#xe2;" 
d="M381 -19q-131 0 -213 83q-82 84 -64 230t109 226q92 80 228 80h354l24 197q11 99 -43 162t-176 63t-183 -43t-112 -165l-108 31q56 151 156 221q99 70 263 70t256 -85t72 -243l-63 -518q-15 -125 27 -162t155 -14l-13 -120q-263 -41 -255 181h-24q-61 -86 -160 -140
t-230 -54zM412 89q108 0 188 40t152 128l30 242h-335q-91 0 -150 -41t-72 -147t33 -164t154 -58zM380 1335l-43 73l337 299h87l263 -299l-60 -73l-264 249z" />
    <glyph glyph-name="atilde" unicode="&#xe3;" 
d="M381 -19q-131 0 -213 83q-82 84 -64 230t109 226q92 80 228 80h354l24 197q11 99 -43 162t-176 63t-183 -43t-112 -165l-108 31q56 151 156 221q99 70 263 70t256 -85t72 -243l-63 -518q-15 -125 27 -162t155 -14l-13 -120q-263 -41 -255 181h-24q-61 -86 -160 -140
t-230 -54zM412 89q108 0 188 40t152 128l30 242h-335q-91 0 -150 -41t-72 -147t33 -164t154 -58zM797 1322q-58 0 -93 35t-64 103q-28 68 -50 98t-60 30q-83 0 -107 -227l-4 -20h-101l4 27q19 153 79 240q61 87 156 86q63 0 98 -34t63 -101t47 -100q21 -33 57 -33
q82 0 109 229l4 21h100l-4 -28q-19 -154 -79 -240t-155 -86z" />
    <glyph glyph-name="adieresis" unicode="&#xe4;" 
d="M381 -19q-131 0 -213 83q-82 84 -64 230t109 226q92 80 228 80h354l24 197q11 99 -43 162t-176 63t-183 -43t-112 -165l-108 31q56 151 156 221q99 70 263 70t256 -85t72 -243l-63 -518q-15 -125 27 -162t155 -14l-13 -120q-263 -41 -255 181h-24q-61 -86 -160 -140
t-230 -54zM412 89q108 0 188 40t152 128l30 242h-335q-91 0 -150 -41t-72 -147t33 -164t154 -58zM845 1346q-41 0 -66 18t-18 71q8 54 37 73t70 19q95 0 80 -99q-6 -48 -34 -65t-69 -17zM492 1527q92 0 81 -86q-5 -60 -34 -77q-29 -18 -70 -18t-66 18t-18 71q8 54 37 73
t70 19z" />
    <glyph glyph-name="aring" unicode="&#xe5;" 
d="M381 -19q-131 0 -213 83q-82 84 -64 230t109 226q92 80 228 80h354l24 197q11 99 -43 162t-176 63t-183 -43t-112 -165l-108 31q56 151 156 221q99 70 263 70t256 -85t72 -243l-63 -518q-15 -125 27 -162t155 -14l-13 -120q-263 -41 -255 181h-24q-61 -86 -160 -140
t-230 -54zM412 89q108 0 188 40t152 128l30 242h-335q-91 0 -150 -41t-72 -147t33 -164t154 -58zM659 1372q76 0 118 39t53 131l8 67q11 91 -20 133t-107 42t-118 -42t-53 -133l-8 -67q-11 -90 20 -130t107 -40zM648 1275q-119 0 -179 67t-43 200l8 67q17 134 93 203
q76 68 195 68t179 -68t43 -203l-8 -67q-17 -132 -93 -200t-195 -67z" />
    <glyph glyph-name="ae" unicode="&#xe6;" 
d="M352 506q-176 0 -197 -195q-31 -229 126 -229q112 0 220 130l35 294h-184zM889 1033q-176 0 -209 -258l-17 -142h350l15 125q17 143 -17.5 209t-121.5 66zM443 1136q82 0 139.5 -40t72.5 -115q37 73 105.5 114t142.5 41q130 0 198 -91.5t44 -281.5l-26 -223h-467
l-26 -207q-17 -132 19 -190.5t124 -58.5t128.5 37t72.5 140l108 -17q-39 -134 -110.5 -198.5t-200.5 -64.5q-182 0 -223 164h-17q-121 -164 -281 -164q-106 0 -168 81.5t-44 227.5t99 227t189 81h225l23 182q15 114 -19.5 182t-117.5 68t-122 -37.5t-80 -143.5l-99 34
q76 253 311 253z" />
    <glyph glyph-name="ccedilla" unicode="&#xe7;" 
d="M418 -402q-106 0 -165 46q-60 46 -54 157l118 11q-2 -58 22 -83q23 -25 89 -25t100 28t44 100t-10 103q-19 30 -49 47q-184 8 -276 109t-68 300l40 328q26 203 148 310t323 107q200 0 286 -88t78 -266l-124 -9q6 137 -52 193t-204 56t-226 -74q-82 -74 -103 -229
l-39 -328q-37 -296 257 -296q147 0 218 47t91 165l123 -9q-51 -277 -344 -312q62 -62 48 -168q-13 -108 -89 -164t-182 -56z" />
    <glyph glyph-name="egrave" unicode="&#xe8;" 
d="M652 1024q-277 0 -317 -307l-9 -77h555l7 60q20 169 -38 247q-58 77 -198 77zM518 -19q-182 1 -278 105q-95 104 -71 307l40 326q25 209 151 313t308 104t278 -106q97 -106 69 -326l-21 -166h-681l-17 -145q-20 -160 41 -231t195 -71t197 41q62 41 109 136l115 -37
q-57 -130 -155 -190t-280 -60zM711 1303l-277 373h193l194 -373h-110z" />
    <glyph glyph-name="eacute" unicode="&#xe9;" 
d="M652 1024q-277 0 -317 -307l-9 -77h555l7 60q20 169 -38 247q-58 77 -198 77zM518 -19q-182 1 -278 105q-95 104 -71 307l40 326q25 209 151 313t308 104t278 -106q97 -106 69 -326l-21 -166h-681l-17 -145q-20 -160 41 -231t195 -71t197 41q62 41 109 136l115 -37
q-57 -130 -155 -190t-280 -60zM538 1303l289 373h191l-370 -373h-110z" />
    <glyph glyph-name="ecircumflex" unicode="&#xea;" 
d="M652 1024q-277 0 -317 -307l-9 -77h555l7 60q20 169 -38 247q-58 77 -198 77zM518 -19q-182 1 -278 105q-95 104 -71 307l40 326q25 209 151 313t308 104t278 -106q97 -106 69 -326l-21 -166h-681l-17 -145q-20 -160 41 -231t195 -71t197 41q62 41 109 136l115 -37
q-57 -130 -155 -190t-280 -60zM398 1335l-42 73l337 299h87l263 -299l-60 -73l-264 249z" />
    <glyph glyph-name="edieresis" unicode="&#xeb;" 
d="M652 1024q-277 0 -317 -307l-9 -77h555l7 60q20 169 -38 247q-58 77 -198 77zM518 -19q-182 1 -278 105q-95 104 -71 307l40 326q25 209 151 313t308 104t278 -106q97 -106 69 -326l-21 -166h-681l-17 -145q-20 -160 41 -231t195 -71t197 41q62 41 109 136l115 -37
q-57 -130 -155 -190t-280 -60zM881 1346q-41 0 -66 17t-18 72q8 54 36 73q29 19 70 19q95 0 80 -99q-5 -48 -33 -65t-69 -17zM505 1346q-41 0 -66 17t-18 72q8 54 36 73q29 19 70 19q95 0 80 -99q-5 -48 -33 -65t-69 -17z" />
    <glyph glyph-name="igrave.salt_serifs" unicode="&#xe025;" 
d="M601 114h375l-13 -114h-501l123 1004h-375l15 113h501zM668 1303l-277 373h194l193 -373h-110z" />
    <glyph glyph-name="igrave.salt_serifs" unicode="&#xec;" 
d="M601 114h375l-13 -114h-501l123 1004h-375l15 113h501zM668 1303l-277 373h194l193 -373h-110z" />
    <glyph glyph-name="iacute.salt_serifs" unicode="&#xe026;" 
d="M601 114h375l-13 -114h-501l123 1004h-375l15 113h501zM493 1303l289 373h192l-371 -373h-110z" />
    <glyph glyph-name="iacute.salt_serifs" unicode="&#xed;" 
d="M601 114h375l-13 -114h-501l123 1004h-375l15 113h501zM493 1303l289 373h192l-371 -373h-110z" />
    <glyph glyph-name="icircumflex.salt_serifs" unicode="&#xe027;" 
d="M601 114h375l-13 -114h-501l123 1004h-375l15 113h501zM356 1335l-43 73l337 299h87l263 -299l-60 -73l-264 249z" />
    <glyph glyph-name="icircumflex.salt_serifs" unicode="&#xee;" 
d="M601 114h375l-13 -114h-501l123 1004h-375l15 113h501zM356 1335l-43 73l337 299h87l263 -299l-60 -73l-264 249z" />
    <glyph glyph-name="idieresis.salt_serifs" unicode="&#xe028;" 
d="M601 114h375l-13 -114h-501l123 1004h-375l15 113h501zM838 1346q-41 0 -66 18t-18 71q8 54 36 73q29 19 70 19q95 0 80 -99q-6 -48 -34 -65t-68 -17zM462 1346q-41 0 -66 18t-18 71q8 54 36 73q29 19 70 19q95 0 80 -99q-6 -48 -34 -65t-68 -17z" />
    <glyph glyph-name="idieresis.salt_serifs" unicode="&#xef;" 
d="M601 114h375l-13 -114h-501l123 1004h-375l15 113h501zM838 1346q-41 0 -66 18t-18 71q8 54 36 73q29 19 70 19q95 0 80 -99q-6 -48 -34 -65t-68 -17zM462 1346q-41 0 -66 18t-18 71q8 54 36 73q29 19 70 19q95 0 80 -99q-6 -48 -34 -65t-68 -17z" />
    <glyph glyph-name="eth" unicode="&#xf0;" 
d="M538 95q147 0 221.5 74.5t93.5 230.5l16 129q19 147 -37.5 216.5t-204 69.5t-221 -69.5t-91.5 -216.5l-17 -129q-19 -156 37 -230.5t203 -74.5zM523 -19q-184 0 -281 105.5t-71 315.5l17 149q22 173 140.5 276.5t289.5 103.5q115 0 184 -44t92 -105h22q14 262 -80 413
l-331 -154l11 102l262 121q-97 112 -309 175l49 90q237 -70 366 -215l304 142l-13 -102l-237 -110q121 -200 77 -542l-36 -289q-26 -222 -149 -327t-307 -105z" />
    <glyph glyph-name="ntilde" unicode="&#xf1;" 
d="M743 1136q151 0 226 -97t55 -263l-95 -776h-127l94 752q16 128 -34 196t-150 69q-191 0 -362 -188l-102 -829h-127l138 1117h126l-22 -173h30q58 88 153 140t197 52zM866 1322q-58 0 -93 35t-64 103t-51 98t-58 30q-38 0 -67 -53t-41 -174l-4 -20h-101l4 27
q19 153 79 240q61 87 156 86q63 0 98 -34q34 -34 62 -101t48 -100t56 -33q82 0 110 229l4 21h100l-4 -28q-20 -154 -80 -240t-154 -86z" />
    <glyph glyph-name="ograve" unicode="&#xf2;" 
d="M536 95q141 0 219 73q77 73 96 223l39 328q20 155 -39 229q-60 74 -201 74q-142 0 -218 -74t-97 -229l-39 -328q-19 -151 40 -223t200 -73zM523 -19q-194 1 -286 107t-68 303l40 328q26 201 145 309t313 108q195 0 285 -108t65 -309l-40 -326q-24 -199 -142 -305
t-312 -107zM709 1303l-277 373h194l193 -373h-110z" />
    <glyph glyph-name="oacute" unicode="&#xf3;" 
d="M536 95q141 0 219 73q77 73 96 223l39 328q20 155 -39 229q-60 74 -201 74q-142 0 -218 -74t-97 -229l-39 -328q-19 -151 40 -223t200 -73zM523 -19q-194 1 -286 107t-68 303l40 328q26 201 145 309t313 108q195 0 285 -108t65 -309l-40 -326q-24 -199 -142 -305
t-312 -107zM534 1303l289 373h192l-371 -373h-110z" />
    <glyph glyph-name="ocircumflex" unicode="&#xf4;" 
d="M536 95q141 0 219 73q77 73 96 223l39 328q20 155 -39 229q-60 74 -201 74q-142 0 -218 -74t-97 -229l-39 -328q-19 -151 40 -223t200 -73zM523 -19q-194 1 -286 107t-68 303l40 328q26 201 145 309t313 108q195 0 285 -108t65 -309l-40 -326q-24 -199 -142 -305
t-312 -107zM397 1335l-43 73l337 299h87l263 -299l-60 -73l-264 249z" />
    <glyph glyph-name="otilde" unicode="&#xf5;" 
d="M536 95q141 0 219 73q77 73 96 223l39 328q20 155 -39 229q-60 74 -201 74q-142 0 -218 -74t-97 -229l-39 -328q-19 -151 40 -223t200 -73zM523 -19q-194 1 -286 107t-68 303l40 328q26 201 145 309t313 108q195 0 285 -108t65 -309l-40 -326q-24 -199 -142 -305
t-312 -107zM830 1322q-58 0 -93 35t-64 103t-50 98t-59 30q-84 0 -108 -227l-4 -20h-100l4 27q19 153 79 240q61 87 155 86q62 0 98 -34t63 -101t47 -100t58 -33q82 0 108 229l4 21h101l-4 -28q-20 -154 -80 -240t-155 -86z" />
    <glyph glyph-name="odieresis" unicode="&#xf6;" 
d="M536 95q141 0 219 73q77 73 96 223l39 328q20 155 -39 229q-60 74 -201 74q-142 0 -218 -74t-97 -229l-39 -328q-19 -151 40 -223t200 -73zM523 -19q-194 1 -286 107t-68 303l40 328q26 201 145 309t313 108q195 0 285 -108t65 -309l-40 -326q-24 -199 -142 -305
t-312 -107zM879 1346q-41 0 -66 18t-18 71q8 54 36 73q29 19 70 19q95 0 80 -99q-5 -48 -33 -65t-69 -17zM503 1346q-41 0 -66 18t-18 71q8 54 36 73q29 19 70 19q95 0 80 -99q-5 -48 -33 -65t-69 -17z" />
    <glyph glyph-name="divide" unicode="&#xf7;" 
d="M672 168q-12 -95 -139 -95t-116 95l4 31q6 50 45 74.5t129.5 24.5t80.5 -99zM119 588l15 127h957l-15 -127h-957zM647 1004q-57 0 -89.5 23t-26.5 71l5 32q12 99 105 99t124.5 -24.5t25.5 -74.5l-5 -32q-12 -94 -139 -94z" />
    <glyph glyph-name="oslash" unicode="&#xf8;" 
d="M667 1136q112 0 182 -36l102 175h120l-135 -229q109 -109 81 -327l-40 -328q-26 -209 -148 -309.5t-306 -100.5q-110 0 -184 36l-103 -175h-119l136 229q-110 102 -84 320l40 328q26 210 149.5 313.5t308.5 103.5zM395 123q60 -28 141 -28q140 0 218 70t99 226l39 328
q17 135 -30 216zM650 1022q-140 0 -218 -73.5t-99 -229.5l-39 -328q-17 -140 32 -212l465 813q-65 30 -141 30z" />
    <glyph glyph-name="ugrave" unicode="&#xf9;" 
d="M445 -19q-147 0 -224 100t-57 267l95 769h126l-91 -737q-34 -283 192 -281q180 0 352 190l102 828h127l-138 -1117h-127l21 173h-30q-61 -91 -153 -141t-195 -51zM661 1303l-277 373h193l194 -373h-110z" />
    <glyph glyph-name="uacute" unicode="&#xfa;" 
d="M445 -19q-147 0 -224 100t-57 267l95 769h126l-91 -737q-34 -283 192 -281q180 0 352 190l102 828h127l-138 -1117h-127l21 173h-30q-61 -91 -153 -141t-195 -51zM603 1303l289 373h192l-371 -373h-110z" />
    <glyph glyph-name="ucircumflex" unicode="&#xfb;" 
d="M445 -19q-147 0 -224 100t-57 267l95 769h126l-91 -737q-34 -283 192 -281q180 0 352 190l102 828h127l-138 -1117h-127l21 173h-30q-61 -91 -153 -141t-195 -51zM398 1335l-42 73l337 299h87l263 -299l-60 -73l-264 249z" />
    <glyph glyph-name="udieresis" unicode="&#xfc;" 
d="M445 -19q-147 0 -224 100t-57 267l95 769h126l-91 -737q-34 -283 192 -281q180 0 352 190l102 828h127l-138 -1117h-127l21 173h-30q-61 -91 -153 -141t-195 -51zM881 1346q-41 0 -66 17t-18 72q8 54 36 73q29 19 70 19q95 0 80 -99q-5 -48 -33 -65t-69 -17zM505 1346
q-41 0 -66 17t-18 72q8 54 36 73q29 19 70 19q95 0 80 -99q-5 -48 -33 -65t-69 -17z" />
    <glyph glyph-name="yacute" unicode="&#xfd;" 
d="M222 -272q72 0 132 48t117 170l22 52h-42l-237 1119h132l198 -998l435 998h133l-537 -1191q-74 -168 -170 -239t-224 -71q-61 0 -144 17l34 114q78 -19 151 -19zM534 1303l289 373h192l-371 -373h-110z" />
    <glyph glyph-name="thorn" unicode="&#xfe;" 
d="M512 -19q-139 0 -259 60l-52 -413h-127l229 1861h127l-67 -545h30q56 93 148 142.5t196 49.5q156 0 230 -110t51 -304l-41 -327q-24 -194 -147.5 -304t-317.5 -110zM708 1018q-106 0 -189 -45.5t-169 -145.5l-82 -658q107 -78 255 -78q149 0 229 75.5t99 231.5l41 328
q36 292 -184 292z" />
    <glyph glyph-name="ydieresis" unicode="&#xff;" 
d="M222 -272q72 0 132 48t117 170l22 52h-42l-237 1119h132l198 -998l435 998h133l-537 -1191q-74 -168 -170 -239t-224 -71q-61 0 -144 17l34 114q78 -19 151 -19zM879 1346q-41 0 -66 18t-18 71q8 54 36 73q29 19 70 19q95 0 80 -99q-5 -48 -33 -65t-69 -17zM503 1346
q-41 0 -66 18t-18 71q8 54 36 73q29 19 70 19q95 0 80 -99q-5 -48 -33 -65t-69 -17z" />
    <glyph glyph-name="Amacron" unicode="&#x100;" 
d="M899 0l-72 454h-492l-186 -454h-130l631 1489h117l266 -1489h-134zM808 566l-121 748l-307 -748h428zM426 1808l13 113h637l-13 -113h-637z" />
    <glyph glyph-name="amacron" unicode="&#x101;" 
d="M381 -19q-131 0 -213 83q-82 84 -64 230t109 226q92 80 228 80h354l24 197q11 99 -43 162t-176 63t-183 -43t-112 -165l-108 31q56 151 156 221q99 70 263 70t256 -85t72 -243l-63 -518q-15 -125 27 -162t155 -14l-13 -120q-263 -41 -255 181h-24q-61 -86 -160 -140
t-230 -54zM412 89q108 0 188 40t152 128l30 242h-335q-91 0 -150 -41t-72 -147t33 -164t154 -58zM350 1435l13 114h637l-13 -114h-637z" />
    <glyph glyph-name="Abreve" unicode="&#x102;" 
d="M899 0l-72 454h-492l-186 -454h-130l631 1489h117l266 -1489h-134zM808 566l-121 748l-307 -748h428zM726 1663q-169 1 -256 97t-64 290h125q-17 -151 34 -216t174 -65t191 65t88 216h125q-26 -194 -137 -290t-280 -97z" />
    <glyph glyph-name="abreve" unicode="&#x103;" 
d="M381 -19q-131 0 -213 83q-82 84 -64 230t109 226q92 80 228 80h354l24 197q11 99 -43 162t-176 63t-183 -43t-112 -165l-108 31q56 151 156 221q99 70 263 70t256 -85t72 -243l-63 -518q-15 -125 27 -162t155 -14l-13 -120q-263 -41 -255 181h-24q-61 -86 -160 -140
t-230 -54zM412 89q108 0 188 40t152 128l30 242h-335q-91 0 -150 -41t-72 -147t33 -164t154 -58zM650 1290q-169 0 -256 97t-64 290h124q-18 -151 34 -215t175 -66q123 0 191 66t88 215h125q-26 -195 -137 -291t-280 -96z" />
    <glyph glyph-name="Aogonek" unicode="&#x104;" 
d="M808 566l-121 748l-307 -748h428zM938 -400q-90 0 -152 58q-60 58 -49 146q17 135 158 224l-68 426h-492l-186 -454h-130l631 1489h117l266 -1489h-87q-76 -65 -86 -156q-18 -129 121 -129q62 0 140 17l-13 -116q-80 -16 -170 -16z" />
    <glyph glyph-name="aogonek" unicode="&#x105;" 
d="M381 -19q-131 0 -213 83q-82 84 -64 230t109 226q92 80 228 80h354l24 197q11 99 -43 162t-176 63t-183 -43t-112 -165l-108 31q56 151 156 221q99 70 263 70t256 -85t72 -243l-63 -518q-15 -125 27 -162t155 -14l-13 -120q-91 -14 -152 6q-76 -65 -86 -156
q-18 -129 121 -129q64 0 139 17l-13 -116q-90 -18 -154 -16q-106 0 -167 58q-62 58 -50 146q17 133 157 223q-53 44 -50 148h-24q-61 -86 -160 -140t-230 -54zM412 89q108 0 188 40t152 128l30 242h-335q-91 0 -150 -41t-72 -147t33 -164t154 -58z" />
    <glyph glyph-name="Cacute" unicode="&#x106;" 
d="M724 1508q220 0 317 -114t80 -361l-129 -13q9 210 -51 293q-61 82 -233 82t-260 -97t-117 -322l-57 -470q-26 -218 38 -314t238 -97q174 0 258 84t115 283l127 -13q-70 -468 -510 -468q-223 1 -324 131t-69 387l60 484q32 259 164 392q133 133 353 133zM659 1676l289 372
h191l-370 -372h-110z" />
    <glyph glyph-name="cacute" unicode="&#x107;" 
d="M539 -19q-202 -1 -298 105t-72 305l40 328q26 203 148 310t323 107q200 0 286 -88t78 -266l-124 -9q6 137 -52 193t-204 56t-226 -74q-82 -74 -103 -229l-39 -328q-37 -296 257 -296q147 0 218 47t91 165l123 -9q-30 -162 -137 -240t-309 -77zM549 1303l289 373h192
l-371 -373h-110z" />
    <glyph glyph-name="Ccircumflex" unicode="&#x108;" 
d="M724 1508q220 0 317 -114t80 -361l-129 -13q9 210 -51 293q-61 82 -233 82t-260 -97t-117 -322l-57 -470q-26 -218 38 -314t238 -97q174 0 258 84t115 283l127 -13q-70 -468 -510 -468q-223 1 -324 131t-69 387l60 484q32 259 164 392q133 133 353 133zM456 1707l-43 73
l337 300h88l262 -300l-59 -73l-265 250z" />
    <glyph glyph-name="ccircumflex" unicode="&#x109;" 
d="M539 -19q-202 -1 -298 105t-72 305l40 328q26 203 148 310t323 107q200 0 286 -88t78 -266l-124 -9q6 137 -52 193t-204 56t-226 -74q-82 -74 -103 -229l-39 -328q-37 -296 257 -296q147 0 218 47t91 165l123 -9q-30 -162 -137 -240t-309 -77zM423 1335l-43 73l337 299
h87l263 -299l-60 -73l-264 249z" />
    <glyph glyph-name="Cdotaccent" unicode="&#x10a;" 
d="M724 1508q220 0 317 -114t80 -361l-129 -13q9 210 -51 293q-61 82 -233 82t-260 -97t-117 -322l-57 -470q-26 -218 38 -314t238 -97q174 0 258 84t115 283l127 -13q-70 -468 -510 -468q-223 1 -324 131t-69 387l60 484q32 259 164 392q133 133 353 133zM772 1899
q50 0 81 -19q30 -19 20 -80q-10 -82 -124 -82q-49 0 -79 18t-23 72q7 53 41 72t84 19z" />
    <glyph glyph-name="cdotaccent" unicode="&#x10b;" 
d="M539 -19q-202 -1 -298 105t-72 305l40 328q26 203 148 310t323 107q200 0 286 -88t78 -266l-124 -9q6 137 -52 193t-204 56t-226 -74q-82 -74 -103 -229l-39 -328q-37 -296 257 -296q147 0 218 47t91 165l123 -9q-30 -162 -137 -240t-309 -77zM724 1527q50 0 80 -20
t21 -79q-10 -82 -124 -82q-49 0 -79 18t-23 72q7 53 41 72t84 19z" />
    <glyph glyph-name="Ccaron" unicode="&#x10c;" 
d="M724 1508q220 0 317 -114t80 -361l-129 -13q9 210 -51 293q-61 82 -233 82t-260 -97t-117 -322l-57 -470q-26 -218 38 -314t238 -97q174 0 258 84t115 283l127 -13q-70 -468 -510 -468q-223 1 -324 131t-69 387l60 484q32 259 164 392q133 133 353 133zM702 1683
l-264 300l61 72l261 -251l324 251l41 -72l-336 -300h-87z" />
    <glyph glyph-name="ccaron" unicode="&#x10d;" 
d="M539 -19q-202 -1 -298 105t-72 305l40 328q26 203 148 310t323 107q200 0 286 -88t78 -266l-124 -9q6 137 -52 193t-204 56t-226 -74q-82 -74 -103 -229l-39 -328q-37 -296 257 -296q147 0 218 47t91 165l123 -9q-30 -162 -137 -240t-309 -77zM653 1311l-264 299l62 73
l260 -251l324 251l41 -73l-335 -299h-88z" />
    <glyph glyph-name="Dcaron" unicode="&#x10e;" 
d="M488 114q182 0 286 112q103 113 127 299l52 432q22 183 -52 301t-257 118h-229l-156 -1262h229zM659 1489q227 0 339 -145t82 -387l-52 -432q-30 -237 -178 -381t-375 -144h-356l183 1489h357zM683 1683l-264 300l61 72l261 -251l324 251l41 -72l-335 -300h-88z" />
    <glyph glyph-name="dcaron" unicode="&#x10f;" 
d="M676 1136q134 0 259 -60l50 413h127l-183 -1489h-127l21 166h-30q-56 -86 -147 -135t-199 -50q-156 0 -229 107t-49 307l41 327q22 192 147 303t319 111zM666 1026q-293 0 -331 -307l-39 -326q-37 -294 182 -294q106 -1 190 45t170 145l82 661q-110 76 -254 76z
M1270 1370l195 492h179l-279 -492h-95z" />
    <glyph glyph-name="Dcroat" unicode="&#x110;" 
d="M488 114q182 0 285.5 112.5t127.5 298.5l52 432q22 184 -52 301.5t-257 117.5h-229l-62 -503h256l-15 -113h-255l-80 -646h229zM659 1489q227 0 339 -145t82 -387l-52 -432q-30 -238 -178 -381.5t-375 -143.5h-356l93 760h-167l15 113h166l76 616h357z" />
    <glyph glyph-name="dcroat" unicode="&#x111;" 
d="M665 1044q143 0 258 -63l27 214h-339l13 108h339l22 186h127l-23 -186h171l-13 -108h-171l-147 -1195h-127l21 166h-30q-131 -185 -348 -185q-156 0 -229 103.5t-48 291.5l33 272q22 186 144 291t320 105zM479 99q106 0 189.5 45.5t169.5 145.5l69 566q-111 77 -257 77
q-286 0 -322 -289l-32 -262q-33 -283 183 -283z" />
    <glyph glyph-name="Emacron" unicode="&#x112;" 
d="M121 0l182 1489h842l-13 -113h-717l-63 -507h633l-13 -113h-633l-80 -642h717l-13 -114h-842zM458 1808l13 113h637l-13 -113h-637z" />
    <glyph glyph-name="emacron" unicode="&#x113;" 
d="M652 1024q-277 0 -317 -307l-9 -77h555l7 60q20 169 -38 247q-58 77 -198 77zM518 -19q-182 1 -278 105q-95 104 -71 307l40 326q25 209 151 313t308 104t278 -106q97 -106 69 -326l-21 -166h-681l-17 -145q-20 -160 41 -231t195 -71t197 41q62 41 109 136l115 -37
q-57 -130 -155 -190t-280 -60zM385 1435l13 114h637l-13 -114h-637z" />
    <glyph glyph-name="Ebreve" unicode="&#x114;" 
d="M121 0l182 1489h842l-13 -113h-717l-63 -507h633l-13 -113h-633l-80 -642h717l-13 -114h-842zM758 1663q-169 1 -256 97t-64 290h124q-18 -151 34 -216t175 -65t191 65t88 216h125q-26 -194 -137 -290t-280 -97z" />
    <glyph glyph-name="ebreve" unicode="&#x115;" 
d="M652 1024q-277 0 -317 -307l-9 -77h555l7 60q20 169 -38 247q-58 77 -198 77zM518 -19q-182 1 -278 105q-95 104 -71 307l40 326q25 209 151 313t308 104t278 -106q97 -106 69 -326l-21 -166h-681l-17 -145q-20 -160 41 -231t195 -71t197 41q62 41 109 136l115 -37
q-57 -130 -155 -190t-280 -60zM685 1290q-169 0 -256 97t-64 290h125q-17 -151 34 -215t174 -66q123 0 191 66t88 215h125q-26 -195 -137 -291t-280 -96z" />
    <glyph glyph-name="Edotaccent" unicode="&#x116;" 
d="M121 0l182 1489h842l-13 -113h-717l-63 -507h633l-13 -113h-633l-80 -642h717l-13 -114h-842zM788 1899q50 0 80 -19t20 -80q-10 -82 -124 -82q-49 0 -79 18t-23 72q7 53 41 72q35 19 85 19z" />
    <glyph glyph-name="edotaccent" unicode="&#x117;" 
d="M652 1024q-277 0 -317 -307l-9 -77h555l7 60q20 169 -38 247q-58 77 -198 77zM518 -19q-182 1 -278 105q-95 104 -71 307l40 326q25 209 151 313t308 104t278 -106q97 -106 69 -326l-21 -166h-681l-17 -145q-20 -160 41 -231t195 -71t197 41q62 41 109 136l115 -37
q-57 -130 -155 -190t-280 -60zM714 1527q50 0 81 -19q30 -19 20 -80q-10 -82 -123 -82q-49 0 -80 19t-23 71q7 53 41 72t84 19z" />
    <glyph glyph-name="Eogonek" unicode="&#x118;" 
d="M676 -160q-15 -125 118 -125q66 0 144 17l-13 -116q-90 -18 -154 -16q-106 0 -167 58t-48 157q13 100 118 185h-553l182 1489h842l-13 -113h-717l-63 -507h633l-13 -113h-633l-80 -642h717l-13 -114h-200q-75 -63 -87 -160z" />
    <glyph glyph-name="eogonek" unicode="&#x119;" 
d="M652 1024q-277 0 -317 -307l-9 -77h555l7 60q20 169 -38 247q-58 77 -198 77zM624 -160q-15 -124 118 -125q66 0 144 17l-13 -116q-90 -18 -154 -16q-106 0 -167 58t-49 152q12 95 101 175q-36 -3 -77 -4q-192 1 -287 105t-71 307l40 326q25 209 151 313t308 104
t278 -106q97 -106 69 -326l-21 -166h-681l-17 -145q-20 -160 41 -231t195 -71t197 41q62 41 109 136l115 -37q-79 -176 -235 -225q-82 -66 -94 -166z" />
    <glyph glyph-name="Ecaron" unicode="&#x11a;" 
d="M121 0l182 1489h842l-13 -113h-717l-63 -507h633l-13 -113h-633l-80 -642h717l-13 -114h-842zM734 1683l-265 300l62 72l260 -251l324 251l41 -72l-335 -300h-87z" />
    <glyph glyph-name="ecaron" unicode="&#x11b;" 
d="M652 1024q-277 0 -317 -307l-9 -77h555l7 60q20 169 -38 247q-58 77 -198 77zM518 -19q-182 1 -278 105q-95 104 -71 307l40 326q25 209 151 313t308 104t278 -106q97 -106 69 -326l-21 -166h-681l-17 -145q-20 -160 41 -231t195 -71t197 41q62 41 109 136l115 -37
q-57 -130 -155 -190t-280 -60zM644 1311l-264 299l61 73l261 -251l324 251l41 -73l-335 -299h-88z" />
    <glyph glyph-name="Gcircumflex" unicode="&#x11c;" 
d="M552 -19q-226 0 -330 136t-73 391l56 466q33 262 167 398t348 136t303 -104q88 -104 70 -337l-129 -13q10 194 -44 268t-217 73q-163 0 -253 -99t-119 -320l-57 -470q-26 -218 44 -314t245 -97q176 0 261 113t118 384h-344l15 114h471l-17 -125q-37 -305 -163 -453
t-352 -147zM469 1707l-43 73l337 300h88l262 -300l-59 -73l-265 250z" />
    <glyph glyph-name="gcircumflex" unicode="&#x11d;" 
d="M331 -283h336q193 0 216 182q21 162 -149 162h-565l-14 -128q-26 -216 176 -216zM560 560q236 0 257 185l8 63q13 106 -40 154t-169 47q-116 0 -182 -47q-67 -47 -80 -154l-8 -63q-11 -95 44 -140t170 -45zM635 -391h-313q-149 0 -233 74t-65 224q12 91 60 145t126 62
l4 22q-56 9 -86 54q-30 44 -18 128t67 146q56 62 151 70l2 17q-128 46 -107 205l8 67q17 128 121 211t275 83h485l-15 -115l-254 29l-1 -20q63 -19 89 -82t19 -127l-8 -65q-15 -123 -113 -201t-287 -78h-207q-104 0 -121 -138t127 -139h389q140 0 216 -68q76 -67 57 -211
q-18 -144 -122 -218t-246 -75zM382 1335l-43 73l337 299h87l263 -299l-60 -73l-264 249z" />
    <glyph glyph-name="Gbreve" unicode="&#x11e;" 
d="M552 -19q-226 0 -330 136t-73 391l56 466q33 262 167 398t348 136t303 -104q88 -104 70 -337l-129 -13q10 194 -44 268t-217 73q-163 0 -253 -99t-119 -320l-57 -470q-26 -218 44 -314t245 -97q176 0 261 113t118 384h-344l15 114h471l-17 -125q-37 -305 -163 -453
t-352 -147zM756 1663q-169 1 -256 97t-64 290h124q-18 -151 34 -216t175 -65t191 65t88 216h125q-26 -194 -137 -290t-280 -97z" />
    <glyph glyph-name="gbreve" unicode="&#x11f;" 
d="M331 -283h336q193 0 216 182q21 162 -149 162h-565l-14 -128q-26 -216 176 -216zM560 560q236 0 257 185l8 63q13 106 -40 154t-169 47q-116 0 -182 -47q-67 -47 -80 -154l-8 -63q-11 -95 44 -140t170 -45zM635 -391h-313q-149 0 -233 74t-65 224q12 91 60 145t126 62
l4 22q-56 9 -86 54q-30 44 -18 128t67 146q56 62 151 70l2 17q-128 46 -107 205l8 67q17 128 121 211t275 83h485l-15 -115l-254 29l-1 -20q63 -19 89 -82t19 -127l-8 -65q-15 -123 -113 -201t-287 -78h-207q-104 0 -121 -138t127 -139h389q140 0 216 -68q76 -67 57 -211
q-18 -144 -122 -218t-246 -75zM683 1290q-169 0 -256 97t-64 290h125q-17 -151 34 -215t174 -66q123 0 191 66t89 215h124q-26 -195 -137 -291t-280 -96z" />
    <glyph glyph-name="Gdotaccent" unicode="&#x120;" 
d="M552 -19q-226 0 -330 136t-73 391l56 466q33 262 167 398t348 136t303 -104q88 -104 70 -337l-129 -13q10 194 -44 268t-217 73q-163 0 -253 -99t-119 -320l-57 -470q-26 -218 44 -314t245 -97q176 0 261 113t118 384h-344l15 114h471l-17 -125q-37 -305 -163 -453
t-352 -147zM770 1899q50 0 81 -19q30 -19 20 -80q-10 -82 -124 -82q-49 0 -79 18t-23 72q7 53 41 72t84 19z" />
    <glyph glyph-name="gdotaccent" unicode="&#x121;" 
d="M331 -283h336q193 0 216 182q21 162 -149 162h-565l-14 -128q-26 -216 176 -216zM560 560q236 0 257 185l8 63q13 106 -40 154t-169 47q-116 0 -182 -47q-67 -47 -80 -154l-8 -63q-11 -95 44 -140t170 -45zM635 -391h-313q-149 0 -233 74t-65 224q12 91 60 145t126 62
l4 22q-56 9 -86 54q-30 44 -18 128t67 146q56 62 151 70l2 17q-128 46 -107 205l8 67q17 128 121 211t275 83h485l-15 -115l-254 29l-1 -20q63 -19 89 -82t19 -127l-8 -65q-15 -123 -113 -201t-287 -78h-207q-104 0 -121 -138t127 -139h389q140 0 216 -68q76 -67 57 -211
q-18 -144 -122 -218t-246 -75zM712 1527q50 0 80 -19q29 -19 23 -67l-1 -13q-10 -82 -124 -82q-49 0 -80 19t-23 71q7 53 41 72t84 19z" />
    <glyph glyph-name="Gcommaaccent" unicode="&#x122;" 
d="M552 -19q-226 0 -330 136t-73 391l56 466q33 262 167 398t348 136t303 -104q88 -104 70 -337l-129 -13q10 194 -44 268t-217 73q-163 0 -253 -99t-119 -320l-57 -470q-26 -218 44 -314t245 -97q176 0 261 113t118 384h-344l15 114h471l-17 -125q-37 -305 -163 -453
t-352 -147zM263 -559l208 373h194l-294 -373h-108z" />
    <glyph glyph-name="gcommaaccent" unicode="&#x123;" 
d="M331 -283h336q193 0 216 182q21 162 -149 162h-565l-14 -128q-26 -216 176 -216zM560 560q236 0 257 185l8 63q13 106 -40 154t-169 47q-116 0 -182 -47q-67 -47 -80 -154l-8 -63q-11 -95 44 -140t170 -45zM635 -391h-313q-149 0 -233 74t-65 224q12 91 60 145t126 62
l4 22q-56 9 -86 54q-30 44 -18 128t67 146q56 62 151 70l2 17q-128 46 -107 205l8 67q17 128 121 211t275 83h485l-15 -115l-254 29l-1 -20q63 -19 89 -82t19 -127l-8 -65q-15 -123 -113 -201t-287 -78h-207q-104 0 -121 -138t127 -139h389q140 0 216 -68q76 -67 57 -211
q-18 -144 -122 -218t-246 -75zM572 1303l292 373h108l-209 -373h-191z" />
    <glyph glyph-name="Hcircumflex" unicode="&#x124;" 
d="M119 0l183 1489h126l-76 -620h557l76 620h127l-183 -1489h-127l94 756h-557l-93 -756h-127zM438 1707l-43 73l337 300h87l263 -300l-60 -73l-264 250z" />
    <glyph glyph-name="hcircumflex" unicode="&#x125;" 
d="M393 944q132 190 350 192q149 0 225 -98t56 -260l-95 -778h-127l94 752q14 127 -36 197q-50 69 -148 69t-185 -46q-86 -46 -179 -149l-100 -823h-127l182 1489h127l-67 -545h30zM125 1707l-43 73l337 300h87l263 -300l-60 -73l-264 250z" />
    <glyph glyph-name="Hbar" unicode="&#x126;" 
d="M324 640l-78 -640h-127l132 1072h-169l13 114h169l38 303h126l-37 -303h557l37 303h127l-38 -303h172l-13 -114h-172l-132 -1072h-127l79 640h-557zM339 754h557l39 318h-557z" />
    <glyph glyph-name="hbar" unicode="&#x127;" 
d="M735 1043q143 0 221.5 -90.5t58.5 -252.5l-86 -700h-127l82 672q17 127 -34.5 190t-149.5 63t-184 -47t-179 -148l-89 -730h-127l147 1195h-171l13 108h171l22 186h127l-22 -186h339l-13 -108h-339l-43 -346h30q63 95 155 144.5t198 49.5z" />
    <glyph glyph-name="Itilde" unicode="&#x128;" 
d="M121 0l13 114h341l156 1262h-341l13 113h809l-14 -113h-340l-157 -1262h341l-13 -114h-808zM871 1694q-58 0 -93 36t-64 102q-29 68 -50 98q-20 30 -58 30q-84 -1 -109 -227l-4 -20h-100l4 28q19 153 79 239t155 87q63 -1 99 -35t62 -101q28 -67 48 -100t56 -33
q83 1 109 230l4 20h101l-4 -28q-20 -154 -80 -240t-155 -86z" />
    <glyph glyph-name="itilde.salt_serifs" unicode="&#xe029;" 
d="M601 114h375l-13 -114h-501l123 1004h-375l15 113h501zM789 1322q-58 0 -93 35t-64 103t-50 98q-20 30 -58 30q-84 0 -109 -227l-4 -20h-100l4 27q19 153 79 240q61 87 155 86q63 0 99 -34t62 -101q28 -67 48 -100t56 -33q82 0 109 229l4 21h101l-4 -28
q-20 -154 -80 -240t-155 -86z" />
    <glyph glyph-name="itilde.salt_serifs" unicode="&#x129;" 
d="M601 114h375l-13 -114h-501l123 1004h-375l15 113h501zM789 1322q-58 0 -93 35t-64 103t-50 98q-20 30 -58 30q-84 0 -109 -227l-4 -20h-100l4 27q19 153 79 240q61 87 155 86q63 0 99 -34t62 -101q28 -67 48 -100t56 -33q82 0 109 229l4 21h101l-4 -28
q-20 -154 -80 -240t-155 -86z" />
    <glyph glyph-name="Imacron" unicode="&#x12a;" 
d="M121 0l13 114h341l156 1262h-341l13 113h809l-14 -113h-340l-157 -1262h341l-13 -114h-808zM424 1808l14 113h636l-13 -113h-637z" />
    <glyph glyph-name="imacron.salt_serifs" unicode="&#xe02a;" 
d="M601 114h375l-13 -114h-501l123 1004h-375l15 113h501zM343 1435l13 114h636l-13 -114h-636z" />
    <glyph glyph-name="imacron.salt_serifs" unicode="&#x12b;" 
d="M601 114h375l-13 -114h-501l123 1004h-375l15 113h501zM343 1435l13 114h636l-13 -114h-636z" />
    <glyph glyph-name="Ibreve" unicode="&#x12c;" 
d="M121 0l13 114h341l156 1262h-341l13 113h809l-14 -113h-340l-157 -1262h341l-13 -114h-808zM724 1663q-169 1 -256 97t-64 290h125q-17 -151 34 -216t174 -65t191 65t89 216h124q-26 -194 -137 -290t-280 -97z" />
    <glyph glyph-name="ibreve.salt_serifs" unicode="&#xe02b;" 
d="M601 114h375l-13 -114h-501l123 1004h-375l15 113h501zM642 1290q-169 0 -256 97t-64 290h125q-17 -151 34 -215t174 -66q123 0 191 66t89 215h124q-26 -195 -137 -291t-280 -96z" />
    <glyph glyph-name="ibreve.salt_serifs" unicode="&#x12d;" 
d="M601 114h375l-13 -114h-501l123 1004h-375l15 113h501zM642 1290q-169 0 -256 97t-64 290h125q-17 -151 34 -215t174 -66q123 0 191 66t89 215h124q-26 -195 -137 -291t-280 -96z" />
    <glyph glyph-name="Iogonek" unicode="&#x12e;" 
d="M512 -160q-15 -125 119 -125q67 0 144 17l-14 -116q-90 -18 -154 -16q-106 0 -167 58t-48 157q13 100 118 185h-389l13 114h341l156 1262h-341l13 113h809l-14 -113h-340l-157 -1262h341l-13 -114h-329q-76 -64 -88 -160z" />
    <glyph glyph-name="iogonek.salt_serifs" unicode="&#xe02c;" 
d="M448 -160q-15 -125 117 -125q66 0 144 17l-13 -116q-90 -18 -154 -16q-106 0 -167 58t-49 146q16 125 138 210l121 990h-375l15 113h501l-125 -1003h375l-13 -114h-429q-74 -63 -86 -160zM712 1525q50 0 80 -19q29 -19 23 -67l-1 -13q-10 -82 -124 -82q-49 0 -80 19
t-23 71q7 53 41 72t84 19z" />
    <glyph glyph-name="iogonek.salt_serifs" unicode="&#x12f;" 
d="M448 -160q-15 -125 117 -125q66 0 144 17l-13 -116q-90 -18 -154 -16q-106 0 -167 58t-49 146q16 125 138 210l121 990h-375l15 113h501l-125 -1003h375l-13 -114h-429q-74 -63 -86 -160zM712 1525q50 0 80 -19q29 -19 23 -67l-1 -13q-10 -82 -124 -82q-49 0 -80 19
t-23 71q7 53 41 72t84 19z" />
    <glyph glyph-name="Idotaccent" unicode="&#x130;" 
d="M121 0l13 114h341l156 1262h-341l13 113h809l-14 -113h-340l-157 -1262h341l-13 -114h-808zM754 1899q50 0 79 -19t23 -67l-1 -13q-10 -82 -124 -82q-49 0 -80 19t-23 71q7 53 41 72q35 19 85 19z" />
    <glyph glyph-name="dotlessi.salt_serifs" unicode="&#xe024;" 
d="M601 114h375l-13 -114h-501l123 1004h-375l15 113h501z" />
    <glyph glyph-name="dotlessi.salt_serifs" unicode="&#x131;" 
d="M601 114h375l-13 -114h-501l123 1004h-375l15 113h501z" />
    <glyph glyph-name="IJ" unicode="&#x132;" 
d="M688 -19q-160 0 -225 107t-44 361l127 15q-13 -205 19.5 -287t133.5 -82t155.5 86.5t74.5 263.5l115 931h-346l13 113h469l-126 -1040q-30 -236 -118 -352t-248 -116zM177 0h-125l183 1489h124z" />
    <glyph glyph-name="ij.salt_serifs" unicode="&#xe02d;" 
d="M544 -387q-108 0 -205 39l41 119q77 -39 177 -38t165 65t82 202l123 1004h-221l15 113h348l-140 -1136q-22 -179 -128 -273t-257 -95zM279 0h-124l137 1117h125zM1048 1527q50 0 79 -20t20 -79q-10 -82 -123 -82q-50 0 -79 18t-24 71t41 72q36 20 86 20zM382 1346
q-50 0 -80 19t-22 71q7 53 40 72q34 19 85 19t79 -19t23 -72t-40 -72q-35 -18 -85 -18z" />
    <glyph glyph-name="ij.salt_serifs" unicode="&#x133;" 
d="M544 -387q-108 0 -205 39l41 119q77 -39 177 -38t165 65t82 202l123 1004h-221l15 113h348l-140 -1136q-22 -179 -128 -273t-257 -95zM279 0h-124l137 1117h125zM1048 1527q50 0 79 -20t20 -79q-10 -82 -123 -82q-50 0 -79 18t-24 71t41 72q36 20 86 20zM382 1346
q-50 0 -80 19t-22 71q7 53 40 72q34 19 85 19t79 -19t23 -72t-40 -72q-35 -18 -85 -18z" />
    <glyph glyph-name="Jcircumflex" unicode="&#x134;" 
d="M500 95q164 0 250 91t110 291l112 899h-367l13 113h494l-123 -1011q-64 -497 -500 -497q-217 0 -308 114t-73 357l128 15q-13 -212 44 -292t220 -80zM588 1707l-42 73l337 300h87l263 -300l-60 -73l-264 250z" />
    <glyph glyph-name="jcircumflex" unicode="&#x135;" 
d="M344 -266q254 0 291 283l121 987h-479l15 113h604l-138 -1117q-22 -188 -140 -288t-290 -99q-129 0 -250 41l41 121q104 -41 225 -41zM508 1335l-43 73l337 299h88l262 -299l-59 -73l-264 249z" />
    <glyph glyph-name="Kcommaaccent" unicode="&#x136;" 
d="M337 732l-89 -732h-129l183 1489h128l-78 -644h104l603 644h153l-653 -688l465 -801h-151l-419 732h-117zM248 -559l208 373h194l-294 -373h-108z" />
    <glyph glyph-name="kcommaaccent" unicode="&#x137;" 
d="M395 532l-65 -532h-125l182 1489h125l-104 -847h136l398 475h151l-453 -521l311 -596h-141l-276 532h-139zM236 -559l209 373h194l-295 -373h-108z" />
    <glyph glyph-name="kgreenlandic" unicode="&#x138;" 
d="M397 531l-66 -531h-126l138 1117h126l-59 -475h134l398 475h151l-454 -521l312 -596h-141l-274 531h-139z" />
    <glyph glyph-name="Lacute" unicode="&#x139;" 
d="M205 0l182 1489h127l-170 -1375h598l-13 -114h-724zM484 1676l289 372h191l-370 -372h-110z" />
    <glyph glyph-name="lacute.salt_serifs_round" unicode="&#xe057;" 
d="M963 35q-100 -44 -224 -44q-125 0 -190 94t-44 261l126 1030h-374l13 113h501l-140 -1145q-31 -238 140 -238q87 0 179 39zM428 1676l289 372h192l-371 -372h-110z" />
    <glyph glyph-name="lacute.salt_serifs_round" unicode="&#x13a;" 
d="M963 35q-100 -44 -224 -44q-125 0 -190 94t-44 261l126 1030h-374l13 113h501l-140 -1145q-31 -238 140 -238q87 0 179 39zM428 1676l289 372h192l-371 -372h-110z" />
    <glyph glyph-name="Lcommaaccent" unicode="&#x13b;" 
d="M205 0l182 1489h127l-170 -1375h598l-13 -114h-724zM274 -559l208 373h194l-294 -373h-108z" />
    <glyph glyph-name="lcommaaccent.salt_serifs_round" unicode="&#xe058;" 
d="M963 35q-100 -44 -224 -44q-125 0 -190 94t-44 261l126 1030h-374l13 113h501l-140 -1145q-31 -238 140 -238q87 0 179 39zM315 -559l208 373h194l-294 -373h-108z" />
    <glyph glyph-name="lcommaaccent.salt_serifs_round" unicode="&#x13c;" 
d="M963 35q-100 -44 -224 -44q-125 0 -190 94t-44 261l126 1030h-374l13 113h501l-140 -1145q-31 -238 140 -238q87 0 179 39zM315 -559l208 373h194l-294 -373h-108z" />
    <glyph glyph-name="Lcaron" unicode="&#x13d;" 
d="M205 0l182 1489h127l-170 -1375h598l-13 -114h-724zM782 998l195 491h179l-279 -491h-95z" />
    <glyph glyph-name="lcaron.salt_serifs_round" unicode="&#xe059;" 
d="M963 35q-100 -44 -224 -44q-125 0 -190 94t-44 261l126 1030h-374l13 113h501l-140 -1145q-31 -238 140 -238q87 0 179 39zM974 1370l195 492h179l-279 -492h-95z" />
    <glyph glyph-name="lcaron.salt_serifs_round" unicode="&#x13e;" 
d="M963 35q-100 -44 -224 -44q-125 0 -190 94t-44 261l126 1030h-374l13 113h501l-140 -1145q-31 -238 140 -238q87 0 179 39zM974 1370l195 492h179l-279 -492h-95z" />
    <glyph glyph-name="Ldot" unicode="&#x13f;" 
d="M205 0l182 1489h127l-170 -1375h598l-13 -114h-724zM1122 970q50 0 81 -19q30 -19 20 -80q-10 -82 -124 -82q-49 0 -79 18t-23 72q7 53 41 72t84 19z" />
    <glyph glyph-name="ldot.salt_serifs_round" unicode="&#xe05a;" 
d="M963 35q-100 -44 -224 -44q-125 0 -190 94t-44 261l126 1030h-374l13 113h501l-140 -1145q-31 -238 140 -238q87 0 179 39zM1324 680q-10 -82 -124 -82q-49 0 -79 18t-25 70q5 53 41 73q36 19 86 19t80 -19t21 -79z" />
    <glyph glyph-name="ldot.salt_serifs_round" unicode="&#x140;" 
d="M963 35q-100 -44 -224 -44q-125 0 -190 94t-44 261l126 1030h-374l13 113h501l-140 -1145q-31 -238 140 -238q87 0 179 39zM1324 680q-10 -82 -124 -82q-49 0 -79 18t-25 70q5 53 41 73q36 19 86 19t80 -19t21 -79z" />
    <glyph glyph-name="Lslash" unicode="&#x141;" 
d="M114 633l13 106l176 61l84 689h127l-79 -643l446 154l-13 -108l-447 -153l-77 -625h598l-13 -114h-724l85 693z" />
    <glyph glyph-name="lslash.salt_serifs_round" unicode="&#xe05b;" 
d="M963 35q-100 -44 -224 -44q-125 0 -190 94t-44 261l41 339l-289 -84l13 108l289 83l72 584h-374l13 113h501l-81 -659l289 82l-13 -106l-289 -83l-46 -379q-31 -238 140 -238q87 0 179 39z" />
    <glyph glyph-name="lslash.salt_serifs_round" unicode="&#x142;" 
d="M963 35q-100 -44 -224 -44q-125 0 -190 94t-44 261l41 339l-289 -84l13 108l289 83l72 584h-374l13 113h501l-81 -659l289 82l-13 -106l-289 -83l-46 -379q-31 -238 140 -238q87 0 179 39z" />
    <glyph glyph-name="Nacute" unicode="&#x143;" 
d="M767 0l-372 1288l-159 -1288h-117l183 1489h152l382 -1310l160 1310h117l-182 -1489h-164zM611 1676l288 372h192l-370 -372h-110z" />
    <glyph glyph-name="nacute" unicode="&#x144;" 
d="M743 1136q151 0 226 -97t55 -263l-95 -776h-127l94 752q16 128 -34 196t-150 69q-191 0 -362 -188l-102 -829h-127l138 1117h126l-22 -173h30q58 88 153 140t197 52zM570 1303l288 373h192l-370 -373h-110z" />
    <glyph glyph-name="Ncommaaccent" unicode="&#x145;" 
d="M767 0l-372 1288l-159 -1288h-117l183 1489h152l382 -1310l160 1310h117l-182 -1489h-164zM214 -559l209 373h193l-294 -373h-108z" />
    <glyph glyph-name="ncommaaccent" unicode="&#x146;" 
d="M743 1136q151 0 226 -97t55 -263l-95 -776h-127l94 752q16 128 -34 196t-150 69q-191 0 -362 -188l-102 -829h-127l138 1117h126l-22 -173h30q58 88 153 140t197 52zM246 -559l208 373h194l-294 -373h-108z" />
    <glyph glyph-name="Ncaron" unicode="&#x147;" 
d="M767 0l-372 1288l-159 -1288h-117l183 1489h152l382 -1310l160 1310h117l-182 -1489h-164zM715 1683l-264 300l61 72l261 -251l324 251l41 -72l-336 -300h-87z" />
    <glyph glyph-name="ncaron" unicode="&#x148;" 
d="M743 1136q151 0 226 -97t55 -263l-95 -776h-127l94 752q16 128 -34 196t-150 69q-191 0 -362 -188l-102 -829h-127l138 1117h126l-22 -173h30q58 88 153 140t197 52zM678 1311l-265 299l62 73l260 -251l324 251l41 -73l-335 -299h-87z" />
    <glyph glyph-name="napostrophe" unicode="&#x149;" 
d="M743 1136q151 0 226 -97t55 -263l-95 -776h-127l94 752q16 128 -34 196t-150 69q-191 0 -362 -188l-102 -829h-127l138 1117h126l-22 -173h30q58 88 153 140t197 52zM108 1303l289 373h191l-370 -373h-110z" />
    <glyph glyph-name="Eng" unicode="&#x14a;" 
d="M801 1508q145 0 216.5 -104t49.5 -283l-131 -1067q-26 -210 -142.5 -325.5t-285.5 -115.5q-112 0 -234 48l43 119q116 -48 201 -48q250 0 294 346l123 998q19 156 -30.5 232.5t-152.5 76.5t-184.5 -56.5t-180.5 -168.5l-141 -1160h-127l183 1489h126l-26 -216h34
q149 235 365 235z" />
    <glyph glyph-name="eng" unicode="&#x14b;" 
d="M579 -266q85 0 145 60.5t78 198.5l94 768q31 257 -194 257q-183 0 -352 -189l-102 -829h-127l138 1117h126l-22 -173h30q56 91 151 141.5t208 50.5q147 0 219.5 -95t52.5 -263l-99 -810q-22 -181 -125 -268t-243 -87q-83 0 -186 35l40 121q83 -35 168 -35z" />
    <glyph glyph-name="Omacron" unicode="&#x14c;" 
d="M536 95q168 0 252 97t111 316l56 466q28 223 -32 322q-59 99 -227 99t-252 -99t-113 -322l-55 -466q-28 -220 32 -316t228 -97zM711 1508q216 0 310 -134t61 -400l-56 -466q-68 -527 -503 -527q-216 1 -312 133t-62 394l56 466q34 266 162 400t344 134zM424 1808l14 113
h636l-13 -113h-637z" />
    <glyph glyph-name="omacron" unicode="&#x14d;" 
d="M536 95q141 0 219 73q77 73 96 223l39 328q20 155 -39 229q-60 74 -201 74q-142 0 -218 -74t-97 -229l-39 -328q-19 -151 40 -223t200 -73zM523 -19q-194 1 -286 107t-68 303l40 328q26 201 145 309t313 108q195 0 285 -108t65 -309l-40 -326q-24 -199 -142 -305
t-312 -107zM384 1435l13 114h636l-13 -114h-636z" />
    <glyph glyph-name="Obreve" unicode="&#x14e;" 
d="M536 95q168 0 252 97t111 316l56 466q28 223 -32 322q-59 99 -227 99t-252 -99t-113 -322l-55 -466q-28 -220 32 -316t228 -97zM711 1508q216 0 310 -134t61 -400l-56 -466q-68 -527 -503 -527q-216 1 -312 133t-62 394l56 466q34 266 162 400t344 134zM724 1663
q-169 1 -256 97t-64 290h125q-17 -151 34 -216t174 -65t191 65t89 216h124q-26 -194 -137 -290t-280 -97z" />
    <glyph glyph-name="obreve" unicode="&#x14f;" 
d="M536 95q141 0 219 73q77 73 96 223l39 328q20 155 -39 229q-60 74 -201 74q-142 0 -218 -74t-97 -229l-39 -328q-19 -151 40 -223t200 -73zM523 -19q-194 1 -286 107t-68 303l40 328q26 201 145 309t313 108q195 0 285 -108t65 -309l-40 -326q-24 -199 -142 -305
t-312 -107zM685 1290q-169 0 -256 97t-64 290h125q-17 -151 34 -215t174 -66q123 0 191 66t88 215h125q-26 -195 -137 -291t-280 -96z" />
    <glyph glyph-name="Ohungarumlaut" unicode="&#x150;" 
d="M536 95q168 0 252 97t111 316l56 466q28 223 -32 322q-59 99 -227 99t-252 -99t-113 -322l-55 -466q-28 -220 32 -316t228 -97zM711 1508q216 0 310 -134t61 -400l-56 -466q-68 -527 -503 -527q-216 1 -312 133t-62 394l56 466q34 266 162 400t344 134zM471 1676l142 372
h191l-240 -372h-93zM825 1676l141 372h194l-242 -372h-93z" />
    <glyph glyph-name="ohungarumlaut" unicode="&#x151;" 
d="M536 95q141 0 219 73q77 73 96 223l39 328q20 155 -39 229q-60 74 -201 74q-142 0 -218 -74t-97 -229l-39 -328q-19 -151 40 -223t200 -73zM523 -19q-194 1 -286 107t-68 303l40 328q26 201 145 309t313 108q195 0 285 -108t65 -309l-40 -326q-24 -199 -142 -305
t-312 -107zM428 1303l142 373h191l-240 -373h-93zM782 1303l141 373h194l-242 -373h-93z" />
    <glyph glyph-name="OE" unicode="&#x152;" 
d="M408 106h165l157 1277h-166q-156 0 -248.5 -111.5t-116.5 -316.5l-52 -428q-26 -203 39.5 -312t221.5 -109zM393 0q-199 0 -296 141.5t-67 385.5l52 428q30 248 161 391t330 143h708l-13 -106h-421l-63 -514h419l-13 -106h-419l-80 -657h421l-14 -106h-705z" />
    <glyph glyph-name="oe" unicode="&#x153;" 
d="M302 88q88 0 141.5 71.5t74.5 233.5l39 324q39 313 -140 313q-175 0 -214 -313l-39 -324q-20 -162 15 -233.5t123 -71.5zM884 1031q-175 0 -212 -290l-13 -108h354l11 91q19 162 -16.5 234.5t-123.5 72.5zM281 -19q-134 0 -197.5 103.5t-36.5 308.5l39 324
q26 207 115 313t223 106q80 0 139 -44t79 -126q39 82 108 126t147 44q138 0 203 -103.5t41 -302.5l-22 -190h-471l-22 -173q-19 -151 16.5 -217t119.5 -66t127.5 38t78.5 131l106 -22q-91 -250 -295 -250t-239 174q-39 -84 -109 -129t-150 -45z" />
    <glyph glyph-name="Racute" unicode="&#x154;" 
d="M795 1489q403 0 352 -392l-15 -118q-40 -359 -376 -393l277 -586h-141l-274 583h-300l-70 -583h-129l183 1489h493zM694 694q149 0 222 67t91 220l13 112q19 151 -37 217t-205 66h-361l-84 -682h361zM698 1676l289 372h192l-371 -372h-110z" />
    <glyph glyph-name="racute" unicode="&#x155;" 
d="M802 1136q127 0 194 -80t50 -227l-18 -148h-123l15 120q27 219 -170 217q-170 0 -316 -189l-103 -829h-126l138 1117h126l-22 -175h30q121 194 325 194zM601 1303l289 373h192l-371 -373h-110z" />
    <glyph glyph-name="Rcommaaccent" unicode="&#x156;" 
d="M795 1489q403 0 352 -392l-15 -118q-40 -359 -376 -393l277 -586h-141l-274 583h-300l-70 -583h-129l183 1489h493zM694 694q149 0 222 67t91 220l13 112q19 151 -37 217t-205 66h-361l-84 -682h361zM220 -559l208 373h194l-294 -373h-108z" />
    <glyph glyph-name="rcommaaccent" unicode="&#x157;" 
d="M802 1136q127 0 194 -80t50 -227l-18 -148h-123l15 120q27 219 -170 217q-170 0 -316 -189l-103 -829h-126l138 1117h126l-22 -175h30q121 194 325 194zM20 -559l209 373h194l-295 -373h-108z" />
    <glyph glyph-name="Rcaron" unicode="&#x158;" 
d="M795 1489q403 0 352 -392l-15 -118q-40 -359 -376 -393l277 -586h-141l-274 583h-300l-70 -583h-129l183 1489h493zM694 694q149 0 222 67t91 220l13 112q19 151 -37 217t-205 66h-361l-84 -682h361zM691 1683l-265 300l62 72l260 -251l324 251l41 -72l-335 -300h-87z
" />
    <glyph glyph-name="rcaron" unicode="&#x159;" 
d="M802 1136q127 0 194 -80t50 -227l-18 -148h-123l15 120q27 219 -170 217q-170 0 -316 -189l-103 -829h-126l138 1117h126l-22 -175h30q121 194 325 194zM709 1311l-264 299l61 73l261 -251l324 251l41 -73l-335 -299h-88z" />
    <glyph glyph-name="Sacute" unicode="&#x15a;" 
d="M562 -11q-168 0 -283 54q-114 54 -195 160l89 89q147 -188 389 -190q140 0 235 76t111 204q16 126 -48 194t-269 135q-204 67 -287 158q-82 91 -62 258t146 268t282 101t261 -51q104 -52 177 -153l-86 -93q-141 186 -344 184q-128 0 -212 -66t-98 -184q-14 -119 53 -183
t270 -131t283 -160t58 -271t-162 -288q-140 -111 -308 -111zM577 1676l289 372h192l-371 -372h-110z" />
    <glyph glyph-name="sacute" unicode="&#x15b;" 
d="M564 -19q-292 0 -460 155l71 100q155 -141 380 -141q117 0 200 47q83 46 94 142t-48 139q-61 43 -247 79t-266 109t-64 214q18 141 130 226t268 85q222 0 393 -149l-69 -101q-156 136 -339 136q-104 0 -175 -47t-82 -143q-10 -96 48 -138q58 -44 244 -80t267 -110
q82 -75 65 -215q-16 -140 -140 -224t-270 -84zM532 1303l289 373h192l-371 -373h-110z" />
    <glyph glyph-name="Scircumflex" unicode="&#x15c;" 
d="M562 -11q-168 0 -283 54q-114 54 -195 160l89 89q147 -188 389 -190q140 0 235 76t111 204q16 126 -48 194t-269 135q-204 67 -287 158q-82 91 -62 258t146 268t282 101t261 -51q104 -52 177 -153l-86 -93q-141 186 -344 184q-128 0 -212 -66t-98 -184q-14 -119 53 -183
t270 -131t283 -160t58 -271t-162 -288q-140 -111 -308 -111zM439 1707l-42 73l337 300h87l263 -300l-60 -73l-264 250z" />
    <glyph glyph-name="scircumflex" unicode="&#x15d;" 
d="M564 -19q-292 0 -460 155l71 100q155 -141 380 -141q117 0 200 47q83 46 94 142t-48 139q-61 43 -247 79t-266 109t-64 214q18 141 130 226t268 85q222 0 393 -149l-69 -101q-156 136 -339 136q-104 0 -175 -47t-82 -143q-10 -96 48 -138q58 -44 244 -80t267 -110
q82 -75 65 -215q-16 -140 -140 -224t-270 -84zM393 1335l-43 73l337 299h88l262 -299l-60 -73l-264 249z" />
    <glyph glyph-name="Scedilla" unicode="&#x15e;" 
d="M422 -402q-105 0 -165 46t-54 157l117 11q-2 -58 22 -83t90 -25q65 0 100 28q34 28 43 100t-11 106q-20 33 -63 52q-264 13 -417 213l89 89q147 -188 389 -190q140 0 235 76t111 204q16 126 -48 194t-269 135q-204 67 -287 158q-82 91 -62 258t146 268t282 101t261 -51
q104 -52 177 -153l-86 -93q-141 186 -344 184q-128 0 -212 -66t-98 -184q-14 -119 53 -183t270 -131t283 -160t58 -271t-162 -288q-105 -83 -236 -104q74 -66 60 -176t-90 -166t-182 -56z" />
    <glyph glyph-name="scedilla" unicode="&#x15f;" 
d="M622 1136q222 0 393 -149l-69 -101q-156 136 -339 136q-104 0 -175 -47t-82 -143q-10 -96 48 -138q58 -44 244 -80t267 -110q82 -75 65 -215t-141 -224q-87 -59 -196 -76q64 -64 50 -171q-13 -108 -89 -164t-182 -56t-165 46q-60 46 -54 157l118 11q-2 -58 22 -83
q23 -25 89 -25t100 28t44 100t-10 103q-18 30 -48 47q-250 9 -408 154l71 100q155 -141 380 -141q117 0 200 47q83 46 94 142t-48 139q-61 43 -247 79t-266 109t-64 214q18 141 130 226t268 85z" />
    <glyph glyph-name="Scaron" unicode="&#x160;" 
d="M562 -11q-168 0 -283 54q-114 54 -195 160l89 89q147 -188 389 -190q140 0 235 76t111 204q16 126 -48 194t-269 135q-204 67 -287 158q-82 91 -62 258t146 268t282 101t261 -51q104 -52 177 -153l-86 -93q-141 186 -344 184q-128 0 -212 -66t-98 -184q-14 -119 53 -183
t270 -131t283 -160t58 -271t-162 -288q-140 -111 -308 -111zM685 1683l-264 300l61 72l261 -251l324 251l41 -72l-335 -300h-88z" />
    <glyph glyph-name="scaron" unicode="&#x161;" 
d="M564 -19q-292 0 -460 155l71 100q155 -141 380 -141q117 0 200 47q83 46 94 142t-48 139q-61 43 -247 79t-266 109t-64 214q18 141 130 226t268 85q222 0 393 -149l-69 -101q-156 136 -339 136q-104 0 -175 -47t-82 -143q-10 -96 48 -138q58 -44 244 -80t267 -110
q82 -75 65 -215q-16 -140 -140 -224t-270 -84zM639 1311l-265 299l62 73l260 -251l324 251l41 -73l-335 -299h-87z" />
    <glyph glyph-name="Tcedilla" unicode="&#x162;" 
d="M416 -402q-106 0 -165 46q-60 46 -54 157l118 11q-2 -58 22 -83q23 -25 89 -25t100 28t44 100t-14 110q-23 37 -87 58h-7l169 1376h-424l13 113h975l-13 -113h-424l-167 -1353q114 -69 96 -209q-13 -104 -89 -160t-182 -56z" />
    <glyph glyph-name="tcedilla" unicode="&#x163;" 
d="M715 101q103 0 225 42l13 -113q-98 -37 -199 -45q3 -4 7 -7q53 -60 40 -164t-89 -160t-182 -56q-105 0 -165 46t-54 157l117 11q-2 -58 22 -83t90 -25q65 0 100 28q34 28 43 100t-14 110q-23 37 -91 59t-114 78q-80 96 -60 269l80 656h-289l15 113h289l45 372h126
l-44 -372h443l-15 -113h-443l-79 -639q-16 -134 32 -199t151 -65z" />
    <glyph glyph-name="Tcaron" unicode="&#x164;" 
d="M462 0l169 1376h-424l13 113h975l-13 -113h-424l-170 -1376h-126zM683 1683l-264 300l61 72l261 -251l324 251l41 -72l-335 -300h-88z" />
    <glyph glyph-name="tcaron" unicode="&#x165;" 
d="M715 101q103 0 225 42l13 -113q-124 -47 -247 -47q-162 0 -242 96t-60 269l80 656h-289l15 113h289l45 372h126l-44 -372h443l-15 -113h-443l-79 -639q-16 -134 32 -199t151 -65zM832 1370l196 492h178l-279 -492h-95z" />
    <glyph glyph-name="Tbar" unicode="&#x166;" 
d="M195 607l15 114h340l81 655h-424l13 113h975l-13 -113h-424l-81 -655h341l-14 -114h-341l-75 -607h-126l74 607h-341z" />
    <glyph glyph-name="tbar" unicode="&#x167;" 
d="M953 30q-124 -47 -247 -47q-162 0 -242 96t-60 269l25 203h-265l15 116h264l41 337h-289l15 113h289l45 372h126l-44 -372h443l-15 -113h-443l-42 -337h418l-15 -116h-417l-23 -186q-33 -264 198 -264q89 0 210 42z" />
    <glyph glyph-name="Utilde" unicode="&#x168;" 
d="M523 -19q-406 0 -342 522l121 986h126l-121 -986q-26 -218 26 -313t203 -95t226 95t102 313l121 986h127l-122 -986q-32 -261 -147 -391t-320 -131zM871 1694q-58 0 -93 36t-64 102q-29 68 -50 98q-20 30 -58 30q-84 -1 -109 -227l-4 -20h-100l4 28q19 153 79 239t155 87
q63 -1 99 -35t62 -101q28 -67 48 -100t56 -33q83 1 109 230l4 20h101l-4 -28q-20 -154 -80 -240t-155 -86z" />
    <glyph glyph-name="utilde" unicode="&#x169;" 
d="M445 -19q-147 0 -224 100t-57 267l95 769h126l-91 -737q-34 -283 192 -281q180 0 352 190l102 828h127l-138 -1117h-127l21 173h-30q-61 -91 -153 -141t-195 -51zM830 1322q-58 0 -93 35t-64 103t-50 98t-59 30q-84 0 -108 -227l-4 -20h-100l4 27q19 153 79 240
q61 87 155 86q62 0 98 -34t63 -101t47 -100t58 -33q82 0 108 229l4 21h101l-4 -28q-20 -154 -80 -240t-155 -86z" />
    <glyph glyph-name="Umacron" unicode="&#x16a;" 
d="M523 -19q-406 0 -342 522l121 986h126l-121 -986q-26 -218 26 -313t203 -95t226 95t102 313l121 986h127l-122 -986q-32 -261 -147 -391t-320 -131zM424 1808l14 113h636l-13 -113h-637z" />
    <glyph glyph-name="umacron" unicode="&#x16b;" 
d="M445 -19q-147 0 -224 100t-57 267l95 769h126l-91 -737q-34 -283 192 -281q180 0 352 190l102 828h127l-138 -1117h-127l21 173h-30q-61 -91 -153 -141t-195 -51zM384 1435l13 114h636l-13 -114h-636z" />
    <glyph glyph-name="Ubreve" unicode="&#x16c;" 
d="M523 -19q-406 0 -342 522l121 986h126l-121 -986q-26 -218 26 -313t203 -95t226 95t102 313l121 986h127l-122 -986q-32 -261 -147 -391t-320 -131zM724 1663q-169 1 -256 97t-64 290h125q-17 -151 34 -216t174 -65t191 65t89 216h124q-26 -194 -137 -290t-280 -97z" />
    <glyph glyph-name="ubreve" unicode="&#x16d;" 
d="M445 -19q-147 0 -224 100t-57 267l95 769h126l-91 -737q-34 -283 192 -281q180 0 352 190l102 828h127l-138 -1117h-127l21 173h-30q-61 -91 -153 -141t-195 -51zM685 1290q-169 0 -256 97t-64 290h125q-17 -151 34 -215t174 -66q123 0 191 66t88 215h125
q-26 -195 -137 -291t-280 -96z" />
    <glyph glyph-name="Uring" unicode="&#x16e;" 
d="M523 -19q-406 0 -342 522l121 986h126l-121 -986q-26 -218 26 -313t203 -95t226 95t102 313l121 986h127l-122 -986q-32 -261 -147 -391t-320 -131zM734 1745q76 0 118 39t53 130l7 67q11 91 -19 133q-31 42 -107 42q-151 0 -172 -175l-7 -67q-11 -91 20 -130t107 -39z
M722 1648q-118 0 -178 67t-43 199l7 67q17 134 93 203q75 69 195 69t180 -69t42 -203l-7 -67q-17 -132 -93 -199t-196 -67z" />
    <glyph glyph-name="uring" unicode="&#x16f;" 
d="M445 -19q-147 0 -224 100t-57 267l95 769h126l-91 -737q-34 -283 192 -281q180 0 352 190l102 828h127l-138 -1117h-127l21 173h-30q-61 -91 -153 -141t-195 -51zM694 1372q76 0 119 39q42 39 53 131l7 67q11 91 -19 133q-31 42 -107 42q-151 0 -172 -175l-7 -67
q-11 -91 19 -131q31 -39 107 -39zM683 1275q-119 0 -179 67t-42 200l7 67q17 134 93 203q76 68 196 68t178 -68q60 -68 43 -203l-7 -67q-17 -132 -93 -200q-77 -67 -196 -67z" />
    <glyph glyph-name="Uhungarumlaut" unicode="&#x170;" 
d="M523 -19q-406 0 -342 522l121 986h126l-121 -986q-26 -218 26 -313t203 -95t226 95t102 313l121 986h127l-122 -986q-32 -261 -147 -391t-320 -131zM488 1676l141 372h192l-240 -372h-93zM842 1676l141 372h194l-242 -372h-93z" />
    <glyph glyph-name="uhungarumlaut" unicode="&#x171;" 
d="M445 -19q-147 0 -224 100t-57 267l95 769h126l-91 -737q-34 -283 192 -281q180 0 352 190l102 828h127l-138 -1117h-127l21 173h-30q-61 -91 -153 -141t-195 -51zM462 1303l141 373h192l-240 -373h-93zM815 1303l142 373h194l-242 -373h-94z" />
    <glyph glyph-name="Uogonek" unicode="&#x172;" 
d="M536 95q151 0 226 95t102 313l121 986h127l-122 -986q-32 -261 -140 -384t-282 -136q-58 -58 -67 -131t21 -105t96 -32q67 0 143 17l-13 -116q-80 -16 -170 -16t-151 58t-49 152q12 95 99 173q-356 27 -296 520l121 986h126l-121 -986q-26 -218 26 -313t203 -95z" />
    <glyph glyph-name="uogonek" unicode="&#x173;" 
d="M445 -19q-147 0 -224 100t-57 267l95 769h126l-91 -737q-34 -283 192 -281q180 0 352 190l102 828h127l-138 -1117h-60q-75 -64 -85 -156q-18 -129 121 -129q64 0 139 17l-13 -116q-90 -18 -154 -16q-106 0 -167 58q-62 58 -50 146q16 127 145 215l18 154h-30
q-61 -91 -153 -141t-195 -51z" />
    <glyph glyph-name="Wcircumflex" unicode="&#x174;" 
d="M745 0l-101 964l-339 -964h-124l3 1489h118l-17 -1279l316 918h131l87 -908l291 1269h121l-362 -1489h-124zM438 1707l-43 73l337 300h87l263 -300l-60 -73l-264 250z" />
    <glyph glyph-name="wcircumflex" unicode="&#x175;" 
d="M704 0l-86 769l-266 -769h-138l-74 1117h123l40 -979l259 793h145l79 -767l275 953h125l-350 -1117h-132zM398 1335l-42 73l337 299h87l263 -299l-60 -73l-264 249z" />
    <glyph glyph-name="Ycircumflex" unicode="&#x176;" 
d="M588 0h-126l69 559l-373 930h138l317 -808l502 808h140l-598 -930zM438 1707l-43 73l337 300h87l263 -300l-60 -73l-264 250z" />
    <glyph glyph-name="ycircumflex" unicode="&#x177;" 
d="M222 -272q72 0 132 48t117 170l22 52h-42l-237 1119h132l198 -998l435 998h133l-537 -1191q-74 -168 -170 -239t-224 -71q-61 0 -144 17l34 114q78 -19 151 -19zM397 1335l-43 73l337 299h87l263 -299l-60 -73l-264 249z" />
    <glyph glyph-name="Ydieresis" unicode="&#x178;" 
d="M588 0h-126l69 559l-373 930h138l317 -808l502 808h140l-598 -930zM920 1718q-41 0 -66 18t-18 71q8 54 36 73q29 19 70 19q95 0 80 -99q-6 -48 -34 -65t-68 -17zM544 1718q-41 0 -66 17t-18 72q8 54 36 73q29 19 70 19q95 0 80 -99q-6 -48 -34 -65t-68 -17z" />
    <glyph glyph-name="Zacute" unicode="&#x179;" 
d="M974 0h-886l13 114l895 1262h-739l13 113h886l-13 -113l-897 -1262h741zM627 1676l289 372h192l-371 -372h-110z" />
    <glyph glyph-name="zacute" unicode="&#x17a;" 
d="M896 0h-741l13 114l705 890h-596l15 113h741l-15 -113l-705 -890h596zM540 1303l289 373h191l-370 -373h-110z" />
    <glyph glyph-name="Zdotaccent" unicode="&#x17b;" 
d="M974 0h-886l13 114l895 1262h-739l13 113h886l-13 -113l-897 -1262h741zM754 1899q50 0 79 -19t23 -67l-1 -13q-10 -82 -124 -82q-49 0 -80 19t-23 71q7 53 41 72q35 19 85 19z" />
    <glyph glyph-name="zdotaccent" unicode="&#x17c;" 
d="M896 0h-741l13 114l705 890h-596l15 113h741l-15 -113l-705 -890h596zM718 1527q50 0 81 -19q30 -19 20 -80q-10 -82 -124 -82q-49 0 -79 18t-23 72q7 53 41 72t84 19z" />
    <glyph glyph-name="Zcaron" unicode="&#x17d;" 
d="M974 0h-886l13 114l895 1262h-739l13 113h886l-13 -113l-897 -1262h741zM683 1683l-264 300l61 72l261 -251l324 251l41 -72l-335 -300h-88z" />
    <glyph glyph-name="zcaron" unicode="&#x17e;" 
d="M896 0h-741l13 114l705 890h-596l15 113h741l-15 -113l-705 -890h596zM640 1311l-264 299l62 73l260 -251l324 251l41 -73l-335 -299h-88z" />
    <glyph glyph-name="longs" unicode="&#x17f;" 
d="M919 1391q-74 0 -122.5 -45.5t-61.5 -146.5l-193 -1571h-127l170 1376h-205l15 113h205l9 80q19 145 108 226t200 81t198 -42l-39 -108q-83 37 -157 37z" />
    <glyph glyph-name="florin" unicode="&#x192;" 
d="M928 1393q-92 0 -136.5 -53t-61.5 -182l-30 -255h374l-15 -112h-374l-59 -495q-19 -140 -107 -223.5t-220 -83.5t-215 43l39 108q91 -38 184 -38t137 53.5t59 183.5l56 452h-358l15 112h357l36 296q17 140 106 223.5t219 83.5t217 -41l-41 -110q-90 38 -182 38z" />
    <glyph glyph-name="Aringacute" unicode="&#x1fa;" 
d="M899 0l-72 454h-492l-186 -454h-130l631 1489h117l266 -1489h-134zM808 566l-121 748l-307 -748h428zM735 1745q76 0 119 39q42 39 53 130l7 67q11 91 -19 133q-31 42 -107 42q-151 0 -172 -175l-7 -67q-11 -91 19 -130t107 -39zM724 1648q-118 0 -178 67t-43 199l7 67
q25 197 176 253h-6l288 373h192l-352 -354q112 -3 170 -71t42 -201l-7 -67q-17 -132 -93 -199t-196 -67z" />
    <glyph glyph-name="aringacute" unicode="&#x1fb;" 
d="M381 -19q-131 0 -213 83q-82 84 -64 230t109 226q92 80 228 80h354l24 197q11 99 -43 162t-176 63t-183 -43t-112 -165l-108 31q56 151 156 221q99 70 263 70t256 -85t72 -243l-63 -518q-15 -125 27 -162t155 -14l-13 -120q-263 -41 -255 181h-24q-61 -86 -160 -140
t-230 -54zM412 89q108 0 188 40t152 128l30 242h-335q-91 0 -150 -41t-72 -147t33 -164t154 -58zM659 1372q76 0 118 39t53 131l8 67q11 91 -20 133t-107 42t-118 -42t-53 -133l-8 -67q-11 -90 20 -130t107 -40zM648 1275q-119 0 -179 67t-43 200l8 67q25 197 176 253h-9
l289 372h192l-352 -354q114 -2 172 -70t42 -201l-8 -67q-17 -132 -93 -200t-195 -67z" />
    <glyph glyph-name="AEacute" unicode="&#x1fc;" 
d="M616 452h-381l-177 -452h-112l592 1489h726l-13 -106h-404l-65 -530h385l-13 -106h-385l-78 -641h404l-13 -106h-522zM596 1383l-319 -823h352l101 823h-134zM797 1676l288 372h192l-370 -372h-110z" />
    <glyph glyph-name="aeacute" unicode="&#x1fd;" 
d="M352 506q-176 0 -197 -195q-31 -229 126 -229q112 0 220 130l35 294h-184zM889 1033q-176 0 -209 -258l-17 -142h350l15 125q16 143 -18 209t-121 66zM322 598h225l23 182q14 114 -20 182t-117 68t-122 -38t-80 -143l-99 34q76 253 311 253q82 0 140 -40t72 -115
q37 73 105 114t143 41q130 0 198 -92t44 -281l-26 -223h-467l-26 -207q-17 -132 19 -191q36 -58 124 -58q89 0 129 37t72 140l108 -17q-76 -262 -285 -262q-208 -1 -249 163h-17q-121 -164 -281 -164q-106 0 -168 82q-62 81 -44 227t99 227t189 81zM626 1303l288 373h192
l-371 -373h-109z" />
    <glyph glyph-name="Oslashacute" unicode="&#x1fe;" 
d="M711 1508q111 0 183 -35l87 175h125l-117 -235q130 -122 93 -443l-56 -458q-68 -531 -503 -531q-128 0 -212 49l-91 -188h-125l127 255q-107 134 -73 415l56 458q68 538 506 538zM359 138q66 -43 177 -43q169 0 253 96t112 319l56 462q30 235 -34 328zM847 1367
q-56 26 -151 28q-169 0 -253 -98t-112 -325l-55 -462q-25 -187 14 -290zM642 1676l289 372h192l-371 -372h-110z" />
    <glyph glyph-name="oslashacute" unicode="&#x1ff;" 
d="M523 -19q-112 0 -184 36l-103 -175h-119l136 229q-108 100 -84 320l40 328q26 210 149 313q124 103 309 104q112 0 182 -36l102 175h120l-135 -229q109 -109 81 -327l-40 -328q-26 -209 -148 -309t-306 -101zM395 123q60 -28 141 -28q140 0 218 70t99 226l39 328
q17 138 -30 216zM650 1022q-140 0 -218 -74t-99 -229l-39 -328q-18 -143 32 -212l465 813q-65 30 -141 30zM540 1303l289 373h191l-370 -373h-110z" />
    <glyph glyph-name="Scommaaccent" unicode="&#x218;" 
d="M562 -11q-168 0 -283 54q-114 54 -195 160l89 89q147 -188 389 -190q140 0 235 76t111 204q16 126 -48 194t-269 135q-204 67 -287 158q-82 91 -62 258t146 268t282 101t261 -51q104 -52 177 -153l-86 -93q-141 186 -344 184q-128 0 -212 -66t-98 -184q-14 -119 53 -183
t270 -131t283 -160t58 -271t-162 -288q-140 -111 -308 -111zM212 -559l209 373h193l-294 -373h-108z" />
    <glyph glyph-name="scommaaccent" unicode="&#x219;" 
d="M564 -19q-292 0 -460 155l71 100q155 -141 380 -141q117 0 200 47q83 46 94 142t-48 139q-61 43 -247 79t-266 109t-64 214q18 141 130 226t268 85q222 0 393 -149l-69 -101q-156 136 -339 136q-104 0 -175 -47t-82 -143q-10 -96 48 -138q58 -44 244 -80t267 -110
q82 -75 65 -215q-16 -140 -140 -224t-270 -84zM212 -559l209 373h193l-294 -373h-108z" />
    <glyph glyph-name="Tcommaaccent" unicode="&#x21a;" 
d="M462 0l169 1376h-424l13 113h975l-13 -113h-424l-170 -1376h-126zM210 -559l209 373h194l-295 -373h-108z" />
    <glyph glyph-name="tcommaaccent" unicode="&#x21b;" 
d="M715 101q103 0 225 42l13 -113q-124 -47 -247 -47q-162 0 -242 96t-60 269l80 656h-289l15 113h289l45 372h126l-44 -372h443l-15 -113h-443l-79 -639q-16 -134 32 -199t151 -65zM249 -559l209 373h194l-295 -373h-108z" />
    <glyph glyph-name="dotlessj" unicode="&#xf6be;" 
d="M344 -266q254 0 291 283l121 987h-479l15 113h604l-138 -1117q-22 -188 -139.5 -287.5t-290.5 -99.5q-129 0 -250 41l41 121q104 -41 225 -41z" />
    <glyph glyph-name="dotlessj" unicode="&#x237;" 
d="M344 -266q254 0 291 283l121 987h-479l15 113h604l-138 -1117q-22 -188 -139.5 -287.5t-290.5 -99.5q-129 0 -250 41l41 121q104 -41 225 -41z" />
    <glyph glyph-name="quoteleft" unicode="&#x2018;" 
d="M426 804l421 685h106l-281 -685h-246z" />
    <glyph glyph-name="quoteleft" unicode="&#x2bb;" 
d="M426 804l421 685h106l-281 -685h-246z" />
    <glyph glyph-name="circumflex" unicode="&#x2c6;" 
d="M397 1335l-43 73l337 299h87l263 -299l-60 -73l-264 249z" />
    <glyph glyph-name="caron" unicode="&#x2c7;" 
d="M642 1311l-264 299l61 73l261 -251l324 251l41 -73l-335 -299h-88z" />
    <glyph glyph-name="breve" unicode="&#x2d8;" 
d="M683 1290q-169 0 -256 97t-64 290h125q-17 -151 34 -215t174 -66q123 0 191 66t89 215h124q-26 -195 -137 -291t-280 -96z" />
    <glyph glyph-name="dotaccent" unicode="&#x2d9;" 
d="M712 1527q50 0 80 -19q29 -19 23 -67l-1 -13q-10 -82 -124 -82q-49 0 -80 19t-23 71q7 53 41 72t84 19z" />
    <glyph glyph-name="ring" unicode="&#x2da;" 
d="M693 1372q76 0 118 39t53 131l7 67q11 91 -19 133q-31 42 -107 42t-118 -42t-54 -133l-7 -67q-11 -90 20 -130t107 -40zM681 1275q-119 0 -179 67t-42 200l7 67q17 134 93 203q76 68 196 68t179 -68q60 -68 42 -203l-7 -67q-17 -132 -93 -200q-77 -67 -196 -67z" />
    <glyph glyph-name="ogonek" unicode="&#x2db;" 
d="M403 -342q-61 58 -49 146q12 90 79 160q68 70 161 107l28 -28q-132 -80 -145 -199q-18 -129 121 -129q61 0 139 17l-13 -116q-80 -16 -170 -16t-151 58z" />
    <glyph glyph-name="tilde" unicode="&#x2dc;" 
d="M830 1322q-58 0 -93 35t-64 103t-50 98t-59 30q-84 0 -108 -227l-4 -20h-100l4 27q19 153 79 240q61 87 155 86q62 0 98 -34t63 -101t47 -100t58 -33q82 0 108 229l4 21h101l-4 -28q-20 -154 -80 -240t-155 -86z" />
    <glyph glyph-name="hungarumlaut" unicode="&#x2dd;" 
d="M460 1303l141 373h192l-240 -373h-93zM814 1303l141 373h194l-242 -373h-93z" />
    <glyph glyph-name="gravecmb" unicode="&#x300;" horiz-adv-x="0" 
d="M93 1303l-277 373h193l194 -373h-110z" />
    <glyph glyph-name="acutecmb" unicode="&#x301;" horiz-adv-x="0" 
d="M-82 1303l289 373h191l-370 -373h-110z" />
    <glyph glyph-name="circumflexcmb" unicode="&#x302;" horiz-adv-x="0" 
d="M-220 1335l-43 73l337 299h88l262 -299l-59 -73l-264 249z" />
    <glyph glyph-name="tildecmb" unicode="&#x303;" horiz-adv-x="0" 
d="M214 1322q-58 0 -93 35t-64 103t-50 98t-59 30q-83 0 -108 -227l-4 -20h-100l3 27q19 153 79.5 239.5t155.5 86.5q63 0 98.5 -35t62.5 -101t48 -99t57 -33q81 0 108 229l4 21h100l-3 -28q-20 -155 -80 -240.5t-155 -85.5z" />
    <glyph glyph-name="macroncmb" unicode="&#x304;" horiz-adv-x="0" 
d="M-233 1435l13 114h637l-13 -114h-637z" />
    <glyph glyph-name="brevecmb" unicode="&#x306;" horiz-adv-x="0" 
d="M67 1290q-169 0 -256 97t-64 290h125q-17 -151 34 -216t174 -65t191 65.5t88 215.5h125q-26 -194 -137 -290.5t-280 -96.5z" />
    <glyph glyph-name="dotaccentcmb" unicode="&#x307;" horiz-adv-x="0" 
d="M97 1527q50 0 79.5 -19.5t20.5 -79.5q-10 -82 -124 -82q-49 0 -79.5 18t-23.5 72q8 53 42.5 72t84.5 19z" />
    <glyph glyph-name="dieresiscmb" unicode="&#x308;" horiz-adv-x="0" 
d="M262.5 1346q-40.5 0 -65.5 17.5t-18 71.5q8 54 36.5 73t96.5 19t53 -99q-6 -48 -34 -65t-68.5 -17zM-114 1346q-41 0 -65.5 17.5t-17.5 71.5q8 54 36.5 73t96.5 19t53 -99q-6 -48 -34 -65t-69 -17z" />
    <glyph glyph-name="ringcmb" unicode="&#x30a;" horiz-adv-x="0" 
d="M76.5 1372q76.5 0 118 39t53.5 131l7 67q11 91 -19.5 133t-107 42t-118.5 -42t-53 -133l-7 -67q-11 -91 19.5 -130.5t107 -39.5zM65 1275q-119 0 -178.5 67t-42.5 200l7 67q17 134 93 202.5t195.5 68.5t179 -68.5t42.5 -202.5l-7 -67q-17 -132 -93.5 -199.5t-195.5 -67.5
z" />
    <glyph glyph-name="hungarumlautcmb" unicode="&#x30b;" horiz-adv-x="0" 
d="M-156 1303l141 373h192l-240 -373h-93zM197 1303l142 373h193l-242 -373h-93z" />
    <glyph glyph-name="caroncmb" unicode="&#x30c;" horiz-adv-x="0" 
d="M26 1311l-264 299l61 73l261 -251l324 251l41 -73l-335 -299h-88z" />
    <glyph glyph-name="commaturnedabovecmb" unicode="&#x312;" horiz-adv-x="0" 
d="M-112 1303l293 373h108l-209 -373h-192z" />
    <glyph glyph-name="commaaccentcmb" unicode="&#x326;" horiz-adv-x="0" 
d="M-371 -559l209 373h194l-295 -373h-108z" />
    <glyph glyph-name="cedillacmb" unicode="&#x327;" horiz-adv-x="0" 
d="M-196 -402q-105 0 -165 46.5t-54 156.5l117 11q-2 -58 22.5 -83t89.5 -25t99.5 28t43.5 100.5t-14 110t-86 57.5l33 56q91 -19 144.5 -78.5t39.5 -163.5t-89.5 -160t-180.5 -56z" />
    <glyph glyph-name="ogonekcmb" unicode="&#x328;" horiz-adv-x="0" 
d="M-19 -285q72 0 140 17l-13 -116q-80 -16 -170 -16q-91 0 -151.5 57t-49.5 147t79.5 160t161.5 107l28 -28q-133 -81 -146 -199q-18 -129 121 -129z" />
    <glyph glyph-name="tonos" unicode="&#x384;" 
d="M577 1303l184 373h187l-268 -373h-103z" />
    <glyph glyph-name="dieresistonos" unicode="&#x385;" 
d="M1074 1409q-10 -82 -87 -82q-77 1 -64 91t89 90q77 0 62 -99zM408 1508q80 0 65 -99q-10 -82 -87 -82q-77 1 -64 91t86 90zM585 1303l145 373h149l-207 -373h-87z" />
    <glyph glyph-name="Alphatonos" unicode="&#x386;" 
d="M899 0l-72 454h-492l-186 -454h-130l631 1489h117l266 -1489h-134zM808 566l-121 748l-307 -748h428zM147 1303l184 373h187l-269 -373h-102z" />
    <glyph glyph-name="anoteleia" unicode="&#x387;" 
d="M608 588q-64 0 -101 31q-36 31 -29 96l8 52q7 69 51 101t108 32t101 -32q36 -32 29 -101l-8 -52q-7 -65 -51 -96t-108 -31z" />
    <glyph glyph-name="Epsilontonos" unicode="&#x388;" 
d="M121 0l182 1489h842l-13 -113h-717l-63 -507h633l-13 -113h-633l-80 -642h717l-13 -114h-842zM-91 1303l184 373h186l-268 -373h-102z" />
    <glyph glyph-name="Etatonos" unicode="&#x389;" 
d="M119 0l183 1489h126l-76 -620h557l76 620h127l-183 -1489h-127l94 756h-557l-93 -756h-127zM-110 1303l184 373h187l-268 -373h-103z" />
    <glyph glyph-name="Iotatonos" unicode="&#x38a;" 
d="M121 0l13 114h341l156 1262h-341l13 113h809l-14 -113h-340l-157 -1262h341l-13 -114h-808zM-110 1303l184 373h187l-268 -373h-103z" />
    <glyph glyph-name="Omicrontonos" unicode="&#x38c;" 
d="M544 95q168 0 252 97t111 316l56 466q28 223 -32 322q-59 99 -227 99t-253 -99t-112 -322l-56 -466q-27 -220 33 -316t228 -97zM531 -19q-216 1 -312 133t-63 394l56 466q68 534 507 534q216 0 310 -134t60 -400l-56 -466q-68 -527 -502 -527zM39 1303l184 373h187
l-269 -373h-102z" />
    <glyph glyph-name="Upsilontonos" unicode="&#x38e;" 
d="M588 0h-126l69 559l-373 930h138l317 -808l502 808h140l-598 -930zM-158 1303l184 373h186l-268 -373h-102z" />
    <glyph glyph-name="Omegatonos" unicode="&#x38f;" 
d="M696 1395q-177 0 -265 -99t-116 -326l-26 -210q-17 -140 19 -227t161 -116l-52 -417h-348l15 115h221l28 233q-110 39 -150 150t-21 262l26 210q65 538 521 538t391 -538l-26 -210q-18 -151 -84 -262t-188 -150l-27 -233h221l-15 -115h-346l52 417q127 31 185 117t76 226
l26 210q28 227 -36 326t-242 99zM-6 1303l185 373h186l-268 -373h-103z" />
    <glyph glyph-name="iotadieresistonos" unicode="&#x390;" 
d="M963 35q-100 -44 -224 -44q-125 0 -190 94t-44 261l80 658h-375l15 113h501l-95 -773q-31 -238 140 -238q87 0 179 39zM994 1508q76 0 65 -86q-7 -95 -86 -95t-64 95q6 48 27 67q22 19 58 19zM391 1508q80 0 65 -99q-10 -82 -87 -82q-77 1 -64 91t86 90zM568 1303
l145 373h149l-207 -373h-87z" />
    <glyph glyph-name="Alpha" unicode="&#x391;" 
d="M899 0l-72 454h-492l-186 -454h-130l631 1489h117l266 -1489h-134zM808 566l-121 748l-307 -748h428z" />
    <glyph glyph-name="Beta" unicode="&#x392;" 
d="M585 114q145 0 217 64t90 211l5 58q19 145 -36 209t-200 65h-326l-76 -607h326zM640 834q134 0 202 57q67 57 83 185l6 50q17 134 -36 192t-188 58h-292l-67 -542h292zM715 1489q191 0 277 -88t64 -262l-10 -83q-12 -99 -72 -167t-149 -85l-4 -31q110 -11 166 -96
t41 -213l-11 -84q-21 -186 -139 -283t-323 -97h-436l183 1489h413z" />
    <glyph glyph-name="Gamma" unicode="&#x393;" 
d="M121 0l182 1489h844l-13 -113h-717l-169 -1376h-127z" />
    <glyph glyph-name="Delta" unicode="&#x394;" 
d="M916 114l-231 1217l-532 -1217h763zM19 0l15 114l606 1375h120l284 -1375l-13 -114h-1012z" />
    <glyph glyph-name="Epsilon" unicode="&#x395;" 
d="M121 0l182 1489h842l-13 -113h-717l-63 -507h633l-13 -113h-633l-80 -642h717l-13 -114h-842z" />
    <glyph glyph-name="Zeta" unicode="&#x396;" 
d="M974 0h-886l13 114l895 1262h-739l13 113h886l-13 -113l-897 -1262h741z" />
    <glyph glyph-name="Eta" unicode="&#x397;" 
d="M119 0l183 1489h126l-76 -620h557l76 620h127l-183 -1489h-127l94 756h-557l-93 -756h-127z" />
    <glyph glyph-name="Theta" unicode="&#x398;" 
d="M462 700l15 114h299l-15 -114h-299zM536 95q179 0 266.5 96t115.5 319l56 462q28 227 -35.5 325t-242 98t-266 -98t-115.5 -325l-56 -462q-28 -223 35 -319t242 -96zM710 1508q224 0 323 -136t65 -402l-55 -458q-69 -531 -407 -531t-437.5 134t-66.5 397l56 458
q34 266 166 402t356 136z" />
    <glyph glyph-name="Iota" unicode="&#x399;" 
d="M121 0l13 114h341l156 1262h-341l13 113h809l-14 -113h-340l-157 -1262h341l-13 -114h-808z" />
    <glyph glyph-name="Kappa" unicode="&#x39a;" 
d="M337 732l-89 -732h-129l183 1489h128l-78 -644h104l603 644h153l-653 -688l465 -801h-151l-419 732h-117z" />
    <glyph glyph-name="Lambda" unicode="&#x39b;" 
d="M899 0l-212 1314l-538 -1314h-130l631 1489h117l266 -1489h-134z" />
    <glyph glyph-name="Mu" unicode="&#x39c;" 
d="M510 371l-173 914l-155 -1285h-119l183 1489h165l179 -970l415 970h164l-182 -1489h-119l160 1279l-395 -908h-123z" />
    <glyph glyph-name="Nu" unicode="&#x39d;" 
d="M767 0l-372 1288l-159 -1288h-117l183 1489h152l382 -1310l160 1310h117l-182 -1489h-164z" />
    <glyph glyph-name="Xi" unicode="&#x39e;" 
d="M88 0l13 114h875l-13 -114h-875zM222 756l13 113h793l-13 -113h-793zM257 1376l13 113h875l-13 -113h-875z" />
    <glyph glyph-name="Omicron" unicode="&#x39f;" 
d="M536 95q168 0 252 97t111 316l56 466q28 223 -32 322q-59 99 -227 99t-252 -99t-113 -322l-55 -466q-28 -220 32 -316t228 -97zM711 1508q216 0 310 -134t61 -400l-56 -466q-68 -527 -503 -527q-216 1 -312 133t-62 394l56 466q34 266 162 400t344 134z" />
    <glyph glyph-name="Pi" unicode="&#x3a0;" 
d="M119 0l183 1489h810l-183 -1489h-127l170 1376h-557l-169 -1376h-127z" />
    <glyph glyph-name="Rho" unicode="&#x3a1;" 
d="M652 635q152 0 224 66t90 219l21 169q19 153 -37 220t-207 67h-328l-91 -741h328zM760 1489q199 1 288 -99t65 -293l-22 -181q-44 -393 -451 -393h-329l-65 -523h-125l182 1489h457z" />
    <glyph glyph-name="Sigma" unicode="&#x3a3;" 
d="M963 0h-892l13 114l676 653l-520 609l13 113h892l-13 -113h-728l454 -551l-13 -110l-607 -601h738z" />
    <glyph glyph-name="Tau" unicode="&#x3a4;" 
d="M462 0l169 1376h-424l13 113h975l-13 -113h-424l-170 -1376h-126z" />
    <glyph glyph-name="Upsilon" unicode="&#x3a5;" 
d="M588 0h-126l69 559l-373 930h138l317 -808l502 808h140l-598 -930z" />
    <glyph glyph-name="Phi" unicode="&#x3a6;" 
d="M421 281h80l113 927h-80q-117 0 -180 -84t-88 -271l-26 -224q-24 -184 20 -266t161 -82zM815 1208h-81l-114 -927h82q117 0 179 82q61 82 85 266l26 224q24 188 -17 272q-43 83 -160 83zM687 168h-78l-24 -198h-125l24 198h-78q-173 0 -247 121t-45 340l26 224
q28 223 131 346t276 123h79l24 197h125l-25 -197h79q173 0 245 -123t45 -346l-26 -224q-29 -221 -131 -341t-275 -120z" />
    <glyph glyph-name="Chi" unicode="&#x3a7;" 
d="M920 0l-309 653l-475 -653h-147l568 765l-343 724h140l294 -621l452 621h144l-542 -731l356 -758h-138z" />
    <glyph glyph-name="Psi" unicode="&#x3a8;" 
d="M588 0h-124l46 382q-195 17 -271.5 141.5t-52.5 321.5l78 644h121l-78 -644q-20 -162 30 -244t188 -95l121 983h125l-121 -983q140 13 210.5 95t90.5 244l79 644h121l-79 -644q-24 -197 -132 -322t-305 -141z" />
    <glyph glyph-name="Omega" unicode="&#x3a9;" 
d="M696 1395q-177 0 -265 -99t-116 -326l-26 -210q-17 -140 19 -226.5t161 -116.5l-52 -417h-348l15 115h221l28 233q-110 39 -150 150t-21 262l26 210q65 538 521 538t391 -538l-26 -210q-19 -151 -85 -262t-187 -150l-27 -233h221l-15 -115h-346l52 417
q127 30 185.5 116.5t75.5 226.5l26 210q28 227 -36.5 326t-241.5 99z" />
    <glyph glyph-name="Iotadieresis" unicode="&#x3aa;" 
d="M121 0l13 114h341l156 1262h-341l13 113h809l-14 -113h-340l-157 -1262h341l-13 -114h-808zM920 1718q-41 0 -66 18t-18 71q8 54 36 73q29 19 70 19q95 0 80 -99q-6 -48 -34 -65t-68 -17zM544 1718q-41 0 -66 17t-18 72q8 54 36 73q29 19 70 19q95 0 80 -99
q-6 -48 -34 -65t-68 -17z" />
    <glyph glyph-name="Upsilondieresis" unicode="&#x3ab;" 
d="M588 0h-126l69 559l-373 930h138l317 -808l502 808h140l-598 -930zM920 1718q-41 0 -66 18t-18 71q8 54 36 73q29 19 70 19q95 0 80 -99q-6 -48 -34 -65t-68 -17zM544 1718q-41 0 -66 17t-18 72q8 54 36 73q29 19 70 19q95 0 80 -99q-6 -48 -34 -65t-68 -17z" />
    <glyph glyph-name="alphatonos" unicode="&#x3ac;" 
d="M568 1136q91 0 161 -50t107 -142h32l22 173h127l-101 -821q-16 -128 20 -166t138 -18l-13 -118q-135 -19 -197 28t-56 170h-32q-134 -211 -350 -211q-149 0 -223 109t-50 305l41 327q22 194 123 304t251 110zM855 827q-115 188 -278 190q-217 0 -255 -311l-37 -293
q-38 -312 180 -312q162 0 323 189zM665 1303l184 373h186l-268 -373h-102z" />
    <glyph glyph-name="epsilontonos" unicode="&#x3ad;" 
d="M522 -19q-218 0 -317 80t-77 250q13 121 83 197t193 84l2 21q-97 7 -147 63t-37 151l1 26q19 145 126 214t308 69t289 -74t84 -235l-127 -12q0 115 -58 162t-203 47t-213 -41t-81 -141l-2 -27q-11 -86 48 -120t207 -34h95l-13 -106h-95q-173 0 -245 -45t-87 -177
q-16 -131 49 -185t227 -55q162 0 237 51q74 51 104 178l123 -11q-36 -173 -146 -251t-328 -79zM579 1303l184 373h187l-269 -373h-102z" />
    <glyph glyph-name="etatonos" unicode="&#x3ae;" 
d="M747 1136q147 0 222 -94t57 -254l-143 -1160h-127l140 1133q34 254 -194 256q-182 0 -352 -188l-102 -829h-127l138 1117h126l-22 -173h30q57 88 153 140t201 52zM585 1303l184 373h186l-268 -373h-102z" />
    <glyph glyph-name="iotatonos" unicode="&#x3af;" 
d="M963 35q-100 -44 -224 -44q-125 0 -190 94t-44 261l80 658h-375l15 113h501l-95 -773q-31 -238 140 -238q87 0 179 39zM570 1303l184 373h186l-268 -373h-102z" />
    <glyph glyph-name="upsilondieresistonos" unicode="&#x3b0;" 
d="M523 -19q-195 -1 -287 105t-67 305l90 726h126l-89 -728q-20 -156 40 -225t200 -69q141 0 218 69q76 69 97 225l89 728h127l-90 -726q-23 -199 -141 -305t-313 -105zM1074 1409q-10 -82 -87 -82q-77 1 -64 91t89 90q77 0 62 -99zM408 1508q80 0 65 -99q-10 -82 -87 -82
q-77 1 -64 91t86 90zM585 1303l145 373h149l-207 -373h-87z" />
    <glyph glyph-name="alpha" unicode="&#x3b1;" 
d="M568 1136q91 0 161 -50.5t107 -141.5h32l22 173h127l-101 -821q-17 -128 19.5 -165.5t138.5 -18.5l-13 -118q-134 -19 -196.5 28t-56.5 170h-32q-134 -211 -350 -211q-149 0 -223.5 109t-49.5 305l41 327q22 194 123.5 304t250.5 110zM577 1017q-217 0 -255 -311
l-37 -293q-38 -312 180 -312q162 0 323 189l67 537q-116 190 -278 190z" />
    <glyph glyph-name="beta" unicode="&#x3b2;" 
d="M531 -19q-162 0 -278 58l-52 -411h-127l179 1454q26 205 144.5 315.5t290.5 110.5t260.5 -96t68.5 -267l-8 -56q-13 -106 -72.5 -178.5t-158.5 -91.5l-3 -30q115 -13 171 -95.5t43 -205.5l-12 -95q-24 -199 -154 -305.5t-292 -106.5zM613 741h-86l13 110h76
q123 0 189 56.5t79 174.5l6 41q17 140 -34.5 206t-180.5 66t-202 -74.5t-91 -235.5l-114 -921q103 -73 252 -73q150 0 229.5 73.5t97.5 232.5l11 85q17 134 -43.5 196.5t-201.5 62.5z" />
    <glyph glyph-name="gamma" unicode="&#x3b3;" 
d="M551 -372h-145l61 400l-253 1089h138l201 -922l419 922h138l-520 -1089z" />
    <glyph glyph-name="delta" unicode="&#x3b4;" 
d="M536.5 95q143.5 0 220.5 70.5t96 232.5l24 200q15 114 -46.5 171.5t-260.5 120.5q-228 -110 -253 -313l-23 -179q-19 -162 40 -232.5t202.5 -70.5zM523 -19q-190 0 -284 105.5t-70 311.5l23 179q30 232 292 348q-101 50 -140 117.5t-26 167.5q34 279 365 279h311
l-13 -113h-311q-104 0 -161.5 -37.5t-69 -125t39.5 -134t233 -110.5t245 -144t45 -227l-25 -200q-24 -207 -144 -312t-310 -105z" />
    <glyph glyph-name="epsilon" unicode="&#x3b5;" 
d="M522 -19q-218 0 -317 80t-77 250q13 121 83 197.5t193 83.5l2 21q-97 7 -147 63t-37 151l1 26q19 145 126 214t308 69t289.5 -74.5t83.5 -234.5l-127 -12q0 115 -57.5 162t-203.5 47t-213.5 -41t-80.5 -141l-2 -27q-11 -86 47.5 -120t207.5 -34h95l-13 -106h-95
q-173 0 -244.5 -45.5t-87.5 -176.5t49.5 -185.5t227.5 -54.5t236 51t104 178l123 -11q-35 -173 -145.5 -251.5t-328.5 -78.5z" />
    <glyph glyph-name="zeta" unicode="&#x3b6;" 
d="M598 -372h-183l15 113h190q80 0 125 36.5t55 122.5t-25.5 122t-115.5 36h-145q-192 0 -279.5 111.5t-66.5 292.5q28 205 204 407l315 354l-6 17q-182 -19 -288 54.5t-121 209.5l113 25q9 -123 125.5 -169.5t286.5 5.5l313 151l33 -142l-285 -104l-394 -458
q-78 -91 -116.5 -165.5t-53.5 -194.5t44 -200.5t189 -80.5h145q128 0 194.5 -68.5t50.5 -200.5t-100.5 -203t-218.5 -71z" />
    <glyph glyph-name="eta" unicode="&#x3b7;" 
d="M712 1017q-191 0 -362 -188l-102 -829h-127l138 1117h126l-22 -173h30q58 89 153.5 140.5t200.5 51.5q147 0 222 -94t57 -254l-143 -1160h-127l140 1133q17 127 -32.5 191.5t-151.5 64.5z" />
    <glyph glyph-name="theta" unicode="&#x3b8;" 
d="M855 404l35 296h-559l-35 -296q-40 -309 238.5 -309t320.5 309zM696 1395q-279 0 -318 -317l-32 -264h559l31 264q39 317 -240 317zM523 -19q-190 0 -284 109t-68 314l82 674q26 210 146 320t310 110t284 -110t68 -320l-82 -674q-26 -205 -146 -314t-310 -109z" />
    <glyph glyph-name="iota" unicode="&#x3b9;" 
d="M963 35q-100 -44 -224 -44q-125 0 -190 94t-44 261l80 658h-375l15 113h501l-95 -773q-31 -238 140 -238q87 0 179 39z" />
    <glyph glyph-name="kappa" unicode="&#x3ba;" 
d="M397 531l-66 -531h-126l138 1117h126l-59 -475h134l398 475h151l-454 -521l312 -596h-141l-274 531h-139z" />
    <glyph glyph-name="lambda" unicode="&#x3bb;" 
d="M411 1501q127 0 203.5 -64.5t107.5 -215.5l252 -1221h-132l-189 1000l-444 -1000h-135l512 1121h41l-11 59q-24 114 -68.5 161.5t-122.5 47.5t-153 -19l-8 112q87 19 147 19z" />
    <glyph glyph-name="mu" unicode="&#x3bc;" 
d="M460 -19q-139 0 -199 123l-10 -67l-37 -409h-153l64 409l134 1080h126l-93 -756q-17 -130 36.5 -196t146.5 -66t161 38t129 107l108 873h127l-103 -823q-15 -128 18 -164.5t129 -17.5l-13 -118q-231 -37 -223 179h-22q-54 -76 -138 -134t-188 -58z" />
    <glyph glyph-name="nu" unicode="&#x3bd;" 
d="M1110 1117q-122 -540 -527 -1117h-118l-251 1117h132l209 -1013q337 535 434 1013h121z" />
    <glyph glyph-name="xi" unicode="&#x3be;" 
d="M629 -372h-205l15 113h214q80 0 125 35.5t55 123.5t-25 123t-115 35h-179q-175 0 -269 89t-77 238l7 51q15 125 105.5 213t233.5 99l4 23q-93 0 -139 60.5t-36 148.5t61.5 151.5t133.5 97.5l4 24q-149 2 -237.5 70t-105.5 181l112 25q15 -104 126.5 -149t277.5 -13
l372 149l36 -142l-386 -114l-117 -61q-131 -68 -149 -209q-11 -89 26 -132.5t112 -43.5h301l-14 -114h-300q-130 0 -204 -64t-87 -172l-7 -51q-27 -240 233 -240h175q134 0 198.5 -67t47.5 -204t-101 -205.5t-222 -68.5z" />
    <glyph glyph-name="omicron" unicode="&#x3bf;" 
d="M536 95q141 0 219 73q77 73 96 223l39 328q20 155 -39 229q-60 74 -201 74q-142 0 -218 -74t-97 -229l-39 -328q-19 -151 40 -223t200 -73zM523 -19q-194 1 -286 107t-68 303l40 328q26 201 145 309t313 108q195 0 285 -108t65 -309l-40 -326q-24 -199 -142 -305
t-312 -107z" />
    <glyph glyph-name="pi" unicode="&#x3c0;" 
d="M1117 1117l-15 -113h-203l-91 -749q-13 -101 27 -130.5t159 -12.5l-13 -118q-177 -20 -247.5 36t-53.5 201l95 773h-339l-123 -1004h-125l123 1004h-170l15 113h961z" />
    <glyph glyph-name="rho" unicode="&#x3c1;" 
d="M666 1136q189 0 283 -107t68 -310l-40 -324q-24 -199 -126.5 -306.5t-260.5 -107.5q-101 0 -177 50.5t-113 141.5h-32l-67 -545h-127l135 1091q26 203 147 310t310 107zM283 290q114 -186 302 -186q231 0 268 307l37 308q39 303 -170.5 303t-286.5 -74.5t-98 -228.5z" />
    <glyph glyph-name="sigma1" unicode="&#x3c2;" 
d="M627 -259q82 0 125 32.5t53 115.5t-25 114.5t-117 31.5h-145q-205 0 -285 108t-54 322l30 246q52 425 452 425q201 0 279 -87.5t67 -283.5l-115 -7q11 147 -43.5 204.5t-200.5 57.5t-219 -68t-92 -230l-35 -277q-19 -158 34 -226t198 -68h146q276 1 242 -261
q-33 -262 -317 -262h-207l15 113h214z" />
    <glyph glyph-name="sigma" unicode="&#x3c3;" 
d="M489 -19q-170 0 -257 105.5t-63 304.5l38 307q24 199 138.5 309t285.5 110h605l-17 -132l-370 26q124 -97 93 -348l-33 -272q-24 -199 -137 -304.5t-283 -105.5zM296 391q-37 -296 206 -296q245 0 282 296l33 270q40 343 -203 343t-281 -304z" />
    <glyph glyph-name="tau" unicode="&#x3c4;" 
d="M793 -6q-182 -19 -252 34.5t-51 193.5l95 782h-343l15 113h827l-15 -113h-358l-93 -755q-11 -97 27 -125.5t161 -11.5z" />
    <glyph glyph-name="upsilon" unicode="&#x3c5;" 
d="M523.5 -19q-195.5 0 -287 105.5t-67.5 304.5l90 726h126l-89 -728q-20 -156 39.5 -225t201 -69t217.5 69t97 225l89 728h127l-90 -726q-24 -199 -141 -304.5t-312.5 -105.5z" />
    <glyph glyph-name="phi" unicode="&#x3c6;" 
d="M709 1011l-113 -920q307 38 354 402l13 108q26 212 -38.5 311t-215.5 99zM722 1117q197 0 293.5 -131t66.5 -385l-13 -108q-30 -231 -161.5 -360t-324.5 -148l-45 -357h-119l45 357q-192 19 -291 149t-71 358l21 165q38 293 192 484l108 -43q-150 -197 -181 -441
l-20 -165q-41 -363 255 -401l126 1026h119z" />
    <glyph glyph-name="chi" unicode="&#x3c7;" 
d="M750 -372l-201 631l-354 -631h-135l443 748l-240 741h128l199 -620l356 620h138l-447 -741l242 -748h-129z" />
    <glyph glyph-name="psi" unicode="&#x3c8;" 
d="M538 -372h-119l45 357q-209 17 -300 137t-65 329l82 666h119l-82 -666q-22 -171 39 -255t221 -97l125 1018h119l-124 -1018q160 13 242 96.5t104 255.5l82 666h119l-82 -666q-26 -209 -147 -329t-333 -137z" />
    <glyph glyph-name="omega" unicode="&#x3c9;" 
d="M294 -19q-117 0 -171 119.5t-26 337.5l20 167q20 164 70.5 313t101.5 220l104 -43q-35 -63 -86.5 -201t-70.5 -289l-20 -167q-22 -177 5 -260t105 -83t122.5 70t65.5 224l56 467h119l-56 -467q-20 -155 7.5 -224.5t106 -69.5t126 83t69.5 260l21 167q19 151 1 288.5
t-39 201.5l114 43q32 -71 47.5 -220t-4.5 -313l-21 -167q-28 -218 -110 -337.5t-199 -119.5q-78 0 -131 59t-64 172h-13q-37 -114 -104.5 -172.5t-145.5 -58.5z" />
    <glyph glyph-name="iotadieresis" unicode="&#x3ca;" 
d="M963 35q-100 -44 -224 -44q-125 0 -190 94t-44 261l80 658h-375l15 113h501l-95 -773q-31 -238 140 -238q87 0 179 39zM871 1346q-41 0 -64 16t-17 72q5 55 34 74t70 19q95 0 80 -99q-6 -48 -34 -65t-69 -17zM495 1346q-41 0 -66 18t-18 71q8 54 37 73t70 19q95 0 80 -99
q-6 -48 -34 -65t-69 -17z" />
    <glyph glyph-name="upsilondieresis" unicode="&#x3cb;" 
d="M523 -19q-195 -1 -287 105t-67 305l90 726h126l-89 -728q-20 -156 40 -225t200 -69q141 0 218 69q76 69 97 225l89 728h127l-90 -726q-23 -199 -141 -305t-313 -105zM879 1346q-41 0 -66 18t-18 71q8 54 36 73q29 19 70 19q95 0 80 -99q-5 -48 -33 -65t-69 -17zM503 1346
q-41 0 -66 18t-18 71q8 54 36 73q29 19 70 19q95 0 80 -99q-5 -48 -33 -65t-69 -17z" />
    <glyph glyph-name="omicrontonos" unicode="&#x3cc;" 
d="M536 95q141 0 219 73q77 73 96 223l39 328q20 155 -39 229q-60 74 -201 74q-142 0 -218 -74t-97 -229l-39 -328q-19 -151 40 -223t200 -73zM523 -19q-194 1 -286 107t-68 303l40 328q26 201 145 309t313 108q195 0 285 -108t65 -309l-40 -326q-24 -199 -142 -305
t-312 -107zM577 1303l184 373h187l-268 -373h-103z" />
    <glyph glyph-name="upsilontonos" unicode="&#x3cd;" 
d="M523 -19q-195 -1 -287 105t-67 305l90 726h126l-89 -728q-20 -156 40 -225t200 -69q141 0 218 69q76 69 97 225l89 728h127l-90 -726q-23 -199 -141 -305t-313 -105zM577 1303l184 373h187l-268 -373h-103z" />
    <glyph glyph-name="omegatonos" unicode="&#x3ce;" 
d="M294 -19q-117 -1 -171 119t-26 338l20 167q20 164 71 313q50 149 101 220l104 -43q-35 -63 -87 -201t-70 -289l-20 -167q-22 -177 5 -260t105 -83t123 70t65 224l56 467h119l-56 -467q-21 -155 7 -225t106 -69q78 0 126 83q47 83 70 260l21 167q19 151 0 289
q-18 138 -38 201l114 43q31 -71 47 -220t-4 -313l-21 -167q-28 -218 -110 -337t-199 -120q-78 0 -131 59t-64 172h-13q-36 -114 -104 -172t-146 -59zM594 1303l184 373h186l-268 -373h-102z" />
    <glyph glyph-name="IEgravecyrillic" unicode="&#x400;" 
d="M121 0l182 1489h842l-13 -113h-717l-63 -507h633l-13 -113h-633l-80 -642h717l-13 -114h-842zM797 1676l-278 372h194l194 -372h-110z" />
    <glyph glyph-name="Iocyrillic" unicode="&#x401;" 
d="M121 0l182 1489h842l-13 -113h-717l-63 -507h633l-13 -113h-633l-80 -642h717l-13 -114h-842zM970 1718q-41 0 -66 18t-18 71q8 54 37 73t69 19q92 0 82 -86q-10 -62 -36 -78q-27 -17 -68 -17zM594 1718q-41 0 -66 18t-18 71q8 54 36 73q29 19 70 19q95 0 80 -99
q-6 -48 -34 -65t-68 -17z" />
    <glyph glyph-name="Djecyrillic" unicode="&#x402;" 
d="M722 946q194 0 280.5 -93t64.5 -272l-23 -194q-49 -387 -417 -387l13 110q123 0 192 64t88 217l22 186q17 140 -41 199.5t-192 59.5h-223l-102 -836h-127l169 1376h-255l13 113h805l-13 -113h-423l-54 -430h223z" />
    <glyph glyph-name="Gjecyrillic" unicode="&#x403;" 
d="M121 0l182 1489h844l-13 -113h-717l-169 -1376h-127zM652 1676l288 372h192l-371 -372h-109z" />
    <glyph glyph-name="Ecyrillic" unicode="&#x404;" 
d="M722 1508q433 0 399 -475l-129 -13q11 201 -52.5 288t-233.5 87t-258.5 -96t-114.5 -320l-15 -110h386l-13 -113h-386l-31 -253q-26 -220 38 -314t234 -94t254 84.5t123 282.5l127 -13q-84 -468 -510 -468q-223 0 -324 131.5t-69 392.5l58 472q34 264 165.5 397.5
t351.5 133.5z" />
    <glyph glyph-name="Dzecyrillic" unicode="&#x405;" 
d="M562 -11q-168 0 -283 54q-114 54 -195 160l89 89q147 -188 389 -190q140 0 235 76t111 204q16 126 -48 194t-269 135q-204 67 -287 158q-82 91 -62 258t146 268t282 101t261 -51q104 -52 177 -153l-86 -93q-141 186 -344 184q-128 0 -212 -66t-98 -184q-14 -119 53 -183
t270 -131t283 -160t58 -271t-162 -288q-140 -111 -308 -111z" />
    <glyph glyph-name="Icyrillic" unicode="&#x406;" 
d="M121 0l13 114h341l156 1262h-341l13 113h809l-14 -113h-340l-157 -1262h341l-13 -114h-808z" />
    <glyph glyph-name="Yicyrillic" unicode="&#x407;" 
d="M121 0l13 114h341l156 1262h-341l13 113h809l-14 -113h-340l-157 -1262h341l-13 -114h-808zM920 1718q-41 0 -66 18t-18 71q8 54 36 73q29 19 70 19q95 0 80 -99q-6 -48 -34 -65t-68 -17zM544 1718q-41 0 -66 17t-18 72q8 54 36 73q29 19 70 19q95 0 80 -99
q-6 -48 -34 -65t-68 -17z" />
    <glyph glyph-name="Jecyrillic" unicode="&#x408;" 
d="M500 95q164 0 250 91t110 291l112 899h-367l13 113h494l-123 -1011q-64 -497 -500 -497q-217 0 -308 114t-73 357l128 15q-13 -212 44 -292t220 -80z" />
    <glyph glyph-name="Ljecyrillic" unicode="&#x409;" 
d="M704 114q89 0 148.5 62t78.5 221l20 169q20 158 -23.5 219.5t-132.5 61.5h-106l-91 -733h106zM810 959q153 0 219 -99t42 -292l-21 -179q-24 -194 -114.5 -291.5t-241.5 -97.5h-229l170 1376h-242l-149 -1076q-22 -166 -86.5 -238.5t-146.5 -72.5q-39 -3 -100 18l42 121
q35 -14 65 -15t62 38t48 162l164 1176h475l-65 -530h108z" />
    <glyph glyph-name="Njecyrillic" unicode="&#x40a;" 
d="M815 959q305 0 256 -391l-21 -179q-48 -389 -350 -389h-235l95 778h-297l-95 -778h-120l183 1489h119l-73 -597h298l73 597h119l-65 -530h113zM709 114q86 0 144.5 62t77.5 221l20 169q20 158 -22.5 219.5t-127.5 61.5h-112l-91 -733h111z" />
    <glyph glyph-name="Tshecyrillic" unicode="&#x40b;" 
d="M739 905q370 0 320 -386l-63 -519h-125l64 516q19 151 -30 214t-181 63h-260l-97 -793h-127l170 1376h-255l13 113h804l-13 -113h-423l-58 -471h261z" />
    <glyph glyph-name="Kjecyrillic" unicode="&#x40c;" 
d="M337 732l-89 -732h-129l183 1489h128l-78 -644h104l603 644h153l-653 -688l465 -801h-151l-419 732h-117zM693 1676l288 372h192l-371 -372h-109z" />
    <glyph glyph-name="Igravecyrillic" unicode="&#x40d;" 
d="M812 0l156 1285l-681 -1285h-168l183 1489h119l-160 -1308l700 1308h152l-182 -1489h-119zM732 1676l-278 372h194l194 -372h-110z" />
    <glyph glyph-name="Ushortcyrillic" unicode="&#x40e;" 
d="M302 106q65 0 119 48t108 170l11 22h-43l-288 1143h130l249 -1037l486 1037h131l-581 -1204q-82 -169 -167 -231t-191 -63q-47 0 -125 16l36 112q60 -13 125 -13zM724 1663q-147 -1 -239 83t-68 289l127 13q-17 -151 28 -215q46 -64 166 -64t182 64q61 64 82 215l123 -13
q-28 -205 -141 -289t-260 -83z" />
    <glyph glyph-name="Dzhecyrillic" unicode="&#x40f;" 
d="M428 -279l34 279h-343l183 1489h126l-169 -1375h556l170 1375h127l-183 -1489h-341l-33 -279h-127z" />
    <glyph glyph-name="Acyrillic" unicode="&#x410;" 
d="M899 0l-72 454h-492l-186 -454h-130l631 1489h117l266 -1489h-134zM808 566l-121 748l-307 -748h428z" />
    <glyph glyph-name="Becyrillic" unicode="&#x411;" 
d="M562 114q145 0 220.5 68.5t92.5 214.5l11 93q19 141 -39.5 207t-204.5 66h-303l-80 -649h303zM681 875q181 0 268.5 -94t67.5 -267l-15 -127q-24 -184 -136 -285.5t-291 -101.5h-456l183 1489h767l-13 -113h-641l-61 -501h327z" />
    <glyph glyph-name="Vecyrillic" unicode="&#x412;" 
d="M585 114q145 0 217 64t90 211l5 58q19 145 -36 209t-200 65h-326l-76 -607h326zM640 834q134 0 202 57q67 57 83 185l6 50q17 134 -36 192t-188 58h-292l-67 -542h292zM715 1489q191 0 277 -88t64 -262l-10 -83q-12 -99 -72 -167t-149 -85l-4 -31q110 -11 166 -96
t41 -213l-11 -84q-21 -186 -139 -283t-323 -97h-436l183 1489h413z" />
    <glyph glyph-name="Gecyrillic" unicode="&#x413;" 
d="M121 0l182 1489h844l-13 -113h-717l-169 -1376h-127z" />
    <glyph glyph-name="Decyrillic" unicode="&#x414;" 
d="M93 0l-33 -279h-125l46 393h99q132 96 179 454l119 921h702l-170 -1375h170l-47 -393h-126l33 279h-847zM225 141l-3 -27h562l156 1262h-456l-106 -819q-22 -168 -55 -263t-98 -153z" />
    <glyph glyph-name="Iecyrillic" unicode="&#x415;" 
d="M121 0l182 1489h842l-13 -113h-717l-63 -507h633l-13 -113h-633l-80 -642h717l-13 -114h-842z" />
    <glyph glyph-name="Zhecyrillic" unicode="&#x416;" 
d="M456 743l-372 -743h-125l408 801l-227 688h119l205 -642h109l79 642h113l-78 -642h104l367 642h119l-398 -687l214 -802h-125l-188 743h-104l-93 -743h-114l91 743h-104z" />
    <glyph glyph-name="Zecyrillic" unicode="&#x417;" 
d="M538 91q170 0 254.5 71t104.5 238l8 58q19 149 -39 209.5t-214 60.5h-185l13 114h185q132 0 192.5 51t75.5 176l9 67q17 141 -43.5 201.5t-209.5 60.5t-219 -61.5t-101 -210.5l-125 13q35 190 143 279.5t310 89.5q415 0 372 -372l-10 -67q-15 -121 -80 -188t-167 -80
l-4 -32q121 -11 180.5 -97t42.5 -214l-7 -58q-48 -419 -499 -419q-229 0 -326 96t-84 301l129 13q-4 -164 60 -232t234 -68z" />
    <glyph glyph-name="Iicyrillic" unicode="&#x418;" 
d="M812 0l156 1285l-681 -1285h-168l183 1489h119l-160 -1308l700 1308h152l-182 -1489h-119z" />
    <glyph glyph-name="Iishortcyrillic" unicode="&#x419;" 
d="M812 0l156 1285l-681 -1285h-168l183 1489h119l-160 -1308l700 1308h152l-182 -1489h-119zM741 1663q-147 -1 -239 83t-68 289l126 13q-17 -151 28 -215t166 -64t182 64t82 215l123 -13q-28 -205 -140 -289q-113 -83 -260 -83z" />
    <glyph glyph-name="Kacyrillic" unicode="&#x41a;" 
d="M337 732l-89 -732h-129l183 1489h128l-78 -644h104l603 644h153l-653 -688l465 -801h-151l-419 732h-117z" />
    <glyph glyph-name="Elcyrillic" unicode="&#x41b;" 
d="M58 95q91 0 144 85.5t77 273.5l132 1035h701l-183 -1489h-127l170 1376h-454l-123 -946q-30 -233 -117.5 -341t-216.5 -108q-74 0 -124 21l35 110q45 -17 86 -17z" />
    <glyph glyph-name="Emcyrillic" unicode="&#x41c;" 
d="M510 371l-173 914l-155 -1285h-119l183 1489h165l179 -970l415 970h164l-182 -1489h-119l160 1279l-395 -908h-123z" />
    <glyph glyph-name="Encyrillic" unicode="&#x41d;" 
d="M119 0l183 1489h126l-76 -620h557l76 620h127l-183 -1489h-127l94 756h-557l-93 -756h-127z" />
    <glyph glyph-name="Ocyrillic" unicode="&#x41e;" 
d="M536 95q168 0 252 97t111 316l56 466q28 223 -32 322q-59 99 -227 99t-252 -99t-113 -322l-55 -466q-28 -220 32 -316t228 -97zM711 1508q216 0 310 -134t61 -400l-56 -466q-68 -527 -503 -527q-216 1 -312 133t-62 394l56 466q34 266 162 400t344 134z" />
    <glyph glyph-name="Pecyrillic" unicode="&#x41f;" 
d="M119 0l183 1489h810l-183 -1489h-127l170 1376h-557l-169 -1376h-127z" />
    <glyph glyph-name="Ercyrillic" unicode="&#x420;" 
d="M652 635q152 0 224 66t90 219l21 169q19 153 -37 220t-207 67h-328l-91 -741h328zM760 1489q199 1 288 -99t65 -293l-22 -181q-44 -393 -451 -393h-329l-65 -523h-125l182 1489h457z" />
    <glyph glyph-name="Escyrillic" unicode="&#x421;" 
d="M724 1508q220 0 317 -114t80 -361l-129 -13q9 210 -51 293q-61 82 -233 82t-260 -97t-117 -322l-57 -470q-26 -218 38 -314t238 -97q174 0 258 84t115 283l127 -13q-70 -468 -510 -468q-223 1 -324 131t-69 387l60 484q32 259 164 392q133 133 353 133z" />
    <glyph glyph-name="Tecyrillic" unicode="&#x422;" 
d="M462 0l169 1376h-424l13 113h975l-13 -113h-424l-170 -1376h-126z" />
    <glyph glyph-name="Ucyrillic" unicode="&#x423;" 
d="M302 106q65 0 119 48.5t108 169.5l11 22h-43l-288 1143h130l249 -1037l486 1037h131l-581 -1204q-82 -169 -167 -231.5t-191 -62.5q-47 0 -125 16l36 112q60 -13 125 -13z" />
    <glyph glyph-name="Efcyrillic" unicode="&#x424;" 
d="M421 281h80l113 927h-80q-117 0 -180.5 -83.5t-87.5 -271.5l-26 -224q-24 -184 20 -266t161 -82zM815 1208h-81l-114 -927h82q117 0 178.5 82t85.5 266l26 224q24 188 -18 271.5t-159 83.5zM687 168h-78l-24 -198h-125l24 198h-78q-173 0 -246.5 121t-45.5 340l26 224
q28 223 131 346t276 123h79l24 197h125l-25 -197h79q173 0 245.5 -123t44.5 -346l-26 -224q-28 -220 -130.5 -340.5t-275.5 -120.5z" />
    <glyph glyph-name="Khacyrillic" unicode="&#x425;" 
d="M920 0l-309 653l-475 -653h-147l568 765l-343 724h140l294 -621l452 621h144l-542 -731l356 -758h-138z" />
    <glyph glyph-name="Tsecyrillic" unicode="&#x426;" 
d="M855 -279l33 279h-769l183 1489h126l-169 -1375h473l169 1375h127l-170 -1375h170l-47 -393h-126z" />
    <glyph glyph-name="Checyrillic" unicode="&#x427;" 
d="M590 527q-216 0 -299.5 89.5t-59.5 293.5l71 579h126l-71 -575q-19 -149 39 -213t207 -64h278l104 852h127l-183 -1489h-127l66 527h-278z" />
    <glyph glyph-name="Shacyrillic" unicode="&#x428;" 
d="M43 0l182 1489h119l-169 -1379h303l170 1379h119l-169 -1379h303l170 1379h119l-183 -1489h-964z" />
    <glyph glyph-name="Shchacyrillic" unicode="&#x429;" 
d="M1046 -277h-121l34 277h-916l182 1489h119l-169 -1379h303l170 1379h119l-169 -1379h303l170 1379h119l-170 -1379h73z" />
    <glyph glyph-name="Hardsigncyrillic" unicode="&#x42a;" 
d="M665 114q127 0 190 65t81 216l21 173q19 151 -27.5 216t-173.5 65h-235l-91 -735h235zM771 959q181 0 259 -95t54 -294l-23 -181q-47 -389 -406 -389h-365l170 1376h-332l13 113h459l-66 -530h237z" />
    <glyph glyph-name="Yericyrillic" unicode="&#x42b;" 
d="M346 110q99 0 156 66t75 221l21 169q20 155 -21 221t-139 66h-133l-91 -743h132zM849 0l182 1489h120l-183 -1489h-119zM451 959q166 0 228 -98t40 -291l-23 -181q-24 -194 -110.5 -291.5t-250.5 -97.5h-253l182 1489h120l-66 -530h133z" />
    <glyph glyph-name="Softsigncyrillic" unicode="&#x42c;" 
d="M588 114q141 0 218.5 65t96.5 218l20 169q19 153 -41.5 218t-201.5 65h-330l-91 -735h329zM694 961q403 0 358 -391l-22 -181q-48 -389 -451 -389h-458l182 1489h125l-65 -528h331z" />
    <glyph glyph-name="Ereversedcyrillic" unicode="&#x42d;" 
d="M724 1508q462 0 393 -531l-58 -472q-66 -524 -519 -524q-431 0 -399 470l129 14q-7 -199 55.5 -284.5t234.5 -85.5t259.5 96t113.5 312l31 253h-456l13 113h456l15 110q26 223 -38 319.5t-234 96.5t-255 -87t-128 -291l-125 14q87 477 512 477z" />
    <glyph glyph-name="IUcyrillic" unicode="&#x42e;" 
d="M696 91q104 0 161 80t79 265l75 608q22 188 -13.5 270t-139.5 82t-159 -81.5t-77 -270.5l-75 -608q-22 -184 11.5 -264.5t137.5 -80.5zM1056 436q-57 -455 -370 -455q-314 0 -258 455l39 324h-206l-93 -760h-120l183 1489h119l-76 -621h206l23 176q57 464 366 464
q318 0 261 -464z" />
    <glyph glyph-name="IAcyrillic" unicode="&#x42f;" 
d="M620 1489h492l-183 -1489h-127l71 583h-300l-411 -583h-147l421 586q-323 34 -281 390l16 124q44 389 449 389zM527 694h361l84 682h-361q-149 0 -222.5 -65t-92.5 -214l-13 -118q-20 -153 37.5 -219t206.5 -66z" />
    <glyph glyph-name="acyrillic" unicode="&#x430;" 
d="M381 -19q-131 0 -213 83q-82 84 -64 230t109 226q92 80 228 80h354l24 197q11 99 -43 162t-176 63t-183 -43t-112 -165l-108 31q56 151 156 221q99 70 263 70t256 -85t72 -243l-63 -518q-15 -125 27 -162t155 -14l-13 -120q-263 -41 -255 181h-24q-61 -86 -160 -140
t-230 -54zM412 89q108 0 188 40t152 128l30 242h-335q-91 0 -150 -41t-72 -147t33 -164t154 -58z" />
    <glyph glyph-name="becyrillic" unicode="&#x431;" 
d="M534 95q147 0 221.5 72.5t93.5 229.5l26 210q19 145 -38 214t-204 69t-219.5 -69t-91.5 -214l-26 -210q-19 -156 36 -229t202 -73zM523 -19q-188 0 -283 106.5t-69 318.5l69 568q26 207 140.5 321t310.5 152l350 65l3 -110l-340 -61q-169 -30 -253 -123t-107 -282
l-11 -80h23q43 67 127.5 108t201.5 41q175 0 260 -99.5t62 -278.5l-28 -232q-24 -205 -146 -309.5t-310 -104.5z" />
    <glyph glyph-name="vecyrillic" unicode="&#x432;" 
d="M532 112q181 0 254.5 42.5t88.5 156.5l2 26q15 114 -45.5 155.5t-233.5 41.5h-287l-52 -422h273zM611 640q156 0 218.5 34.5t73.5 126.5l4 33q13 99 -44 135t-221 36h-273l-45 -365h287zM655 1117q212 0 304.5 -65t75.5 -205l-4 -33q-25 -197 -242 -213l-3 -22
q245 -14 218 -248l-4 -24q-19 -156 -136 -231.5t-346 -75.5h-397l138 1117h396z" />
    <glyph glyph-name="gecyrillic" unicode="&#x433;" 
d="M205 0l138 1117h741l-15 -113h-615l-123 -1004h-126z" />
    <glyph glyph-name="decyrillic" unicode="&#x434;" 
d="M145 0l-33 -279h-127l47 393h106q67 50 104 136.5t58 241.5l84 625h625l-125 -1003h160l-46 -393h-127l34 279h-760zM285 141l-4 -27h477l110 890h-382l-67 -524q-19 -132 -48.5 -207.5t-85.5 -131.5z" />
    <glyph glyph-name="iecyrillic" unicode="&#x435;" 
d="M652 1024q-277 0 -317 -307l-9 -77h555l7 60q20 169 -38 247q-58 77 -198 77zM518 -19q-182 1 -278 105q-95 104 -71 307l40 326q25 209 151 313t308 104t278 -106q97 -106 69 -326l-21 -166h-681l-17 -145q-20 -160 41 -231t195 -71t197 41q62 41 109 136l115 -37
q-57 -130 -155 -190t-280 -60z" />
    <glyph glyph-name="zhecyrillic" unicode="&#x436;" 
d="M458 547l-333 -547h-131l378 600l-247 517h128l214 -469h84l58 469h110l-60 -469h78l334 469h130l-378 -514l231 -603h-129l-199 547h-78l-67 -547h-110l67 547h-80z" />
    <glyph glyph-name="zecyrillic" unicode="&#x437;" 
d="M528 -19q-224 0 -315.5 83t-82.5 275l125 13q-2 -149 58.5 -203t225.5 -54t243.5 49t94.5 176q15 128 -45.5 174t-222.5 46h-86l13 106h86q145 0 208.5 38t74.5 133l4 26q11 101 -49 140t-208 39t-214.5 -50t-96.5 -186l-123 15q35 179 140.5 257t305.5 78t295 -71
t76 -220l-4 -24q-26 -204 -238 -220l-4 -22q123 -7 175.5 -75t37.5 -180q-19 -179 -134.5 -261t-339.5 -82z" />
    <glyph glyph-name="iicyrillic" unicode="&#x438;" 
d="M806 0l116 931l-654 -931h-147l138 1117h123l-118 -940l661 940h142l-138 -1117h-123z" />
    <glyph glyph-name="iishortcyrillic" unicode="&#x439;" 
d="M806 0l116 931l-654 -931h-147l138 1117h123l-118 -940l661 940h142l-138 -1117h-123zM683 1290q-147 0 -239 84t-68 289l127 13q-17 -151 28 -215q45 -65 165 -65t182 64t83 216l123 -13q-28 -205 -141 -289t-260 -84z" />
    <glyph glyph-name="kacyrillic" unicode="&#x43a;" 
d="M395 532l-65 -532h-125l138 1117h124l-59 -475h134l400 475h151l-453 -521l311 -596h-141l-276 532h-139z" />
    <glyph glyph-name="elcyrillic" unicode="&#x43b;" 
d="M99 95q91 0 139.5 82t74.5 277l87 663h667l-138 -1117h-125l123 1004h-422l-77 -574q-28 -225 -113.5 -337t-219.5 -112q-61 0 -117 21l35 110q58 -17 86 -17z" />
    <glyph glyph-name="emcyrillic" unicode="&#x43c;" 
d="M493 279l-163 689l-118 -968h-119l138 1117h180l168 -713l339 713h175l-138 -1117h-117l117 964l-331 -685h-131z" />
    <glyph glyph-name="encyrillic" unicode="&#x43d;" 
d="M121 0l138 1117h126l-52 -415h555l52 415h127l-138 -1117h-127l73 588h-555l-72 -588h-127z" />
    <glyph glyph-name="ocyrillic" unicode="&#x43e;" 
d="M536 95q141 0 219 73q77 73 96 223l39 328q20 155 -39 229q-60 74 -201 74q-142 0 -218 -74t-97 -229l-39 -328q-19 -151 40 -223t200 -73zM523 -19q-194 1 -286 107t-68 303l40 328q26 201 145 309t313 108q195 0 285 -108t65 -309l-40 -326q-24 -199 -142 -305
t-312 -107z" />
    <glyph glyph-name="pecyrillic" unicode="&#x43f;" 
d="M121 0l138 1117h808l-138 -1117h-127l123 1004h-554l-123 -1004h-127z" />
    <glyph glyph-name="ercyrillic" unicode="&#x440;" 
d="M512 -19q-135 0 -259 60l-52 -413h-127l185 1489h126l-22 -173h30q56 93 148 142t196 50q156 0 230 -110t51 -304l-41 -327q-23 -194 -147 -304t-318 -110zM268 169q112 -78 258 -78q146 1 226 75t99 232l41 328q36 294 -184 292q-106 0 -189 -46q-84 -46 -169 -145z" />
    <glyph glyph-name="escyrillic" unicode="&#x441;" 
d="M539 -19q-202 -1 -298 105t-72 305l40 328q26 203 148 310t323 107q200 0 286 -88t78 -266l-124 -9q6 137 -52 193t-204 56t-226 -74q-82 -74 -103 -229l-39 -328q-37 -296 257 -296q147 0 218 47t91 165l123 -9q-30 -162 -137 -240t-309 -77z" />
    <glyph glyph-name="tecyrillic" unicode="&#x442;" 
d="M462 0l123 1004h-391l15 113h908l-15 -113h-391l-123 -1004h-126z" />
    <glyph glyph-name="ucyrillic" unicode="&#x443;" 
d="M222 -272q72 0 132 48t117 170l22 52h-42l-237 1119h132l198 -998l435 998h133l-537 -1191q-74 -168 -170 -239t-224 -71q-61 0 -144 17l34 114q78 -19 151 -19z" />
    <glyph glyph-name="efcyrillic" unicode="&#x444;" 
d="M676 112q224 0 264 307l34 274q38 314 -188 314h-82l-110 -895h82zM510 1007q-226 0 -262 -314l-34 -274q-40 -307 186 -307h82l110 895h-82zM683 0h-98l-47 -372h-119l46 372h-98q-153 0 -225.5 110t-48.5 305l35 285q24 197 124 307t253 110h98l45 372h119l-45 -372h99
q153 0 224.5 -110t47.5 -307l-35 -285q-24 -195 -123 -305t-252 -110z" />
    <glyph glyph-name="khacyrillic" unicode="&#x445;" 
d="M810 0l-231 467l-343 -467h-135l426 564l-272 553h134l224 -452l337 452h137l-422 -555l279 -562h-134z" />
    <glyph glyph-name="tsecyrillic" unicode="&#x446;" 
d="M864 -279l33 279h-776l138 1117h126l-124 -1003h471l124 1003h127l-125 -1003h170l-47 -393h-117z" />
    <glyph glyph-name="checyrillic" unicode="&#x447;" 
d="M521 359q-197 0 -281 98t-59 297l44 363h125l-45 -359q-19 -155 39 -221t195 -69t245 59l72 590h127l-138 -1117h-126l50 406q-132 -47 -248 -47z" />
    <glyph glyph-name="shacyrillic" unicode="&#x448;" 
d="M43 0l138 1117h119l-125 -1009h303l125 1009h119l-124 -1009h303l125 1009h119l-138 -1117h-964z" />
    <glyph glyph-name="shchacyrillic" unicode="&#x449;" 
d="M1061 -279h-110l34 279h-942l138 1117h119l-125 -1009h303l125 1009h119l-124 -1009h303l125 1009h119l-125 -1003h88z" />
    <glyph glyph-name="hardsigncyrillic" unicode="&#x44a;" 
d="M624 114q128 0 192.5 46.5t75.5 148.5l13 102q13 101 -39 145.5t-181 44.5h-277l-62 -487h278zM646 0h-437l122 1004h-257l15 113h382l-50 -404h313q156 0 236 -79t61 -223l-13 -102q-17 -147 -116.5 -228t-255.5 -81z" />
    <glyph glyph-name="yericyrillic" unicode="&#x44b;" 
d="M354 112q106 0 159 47.5t66 153.5l11 100q13 106 -28 152t-147 46h-139l-62 -499h140zM849 0l138 1117h119l-138 -1117h-119zM462 719q134 0 200 -80t47 -226l-11 -98q-19 -151 -104.5 -233t-217.5 -82h-294l138 1117h119l-50 -398h173z" />
    <glyph glyph-name="softsigncyrillic" unicode="&#x44c;" 
d="M622 114q128 0 192.5 46.5t77.5 152.5l11 100q13 106 -39 150t-181 44h-363l-61 -493h363zM728 719q156 0 238 -80t64 -226l-12 -100q-19 -147 -119 -230t-257 -83h-521l138 1117h125l-51 -398h395z" />
    <glyph glyph-name="ereversedcyrillic" unicode="&#x44d;" 
d="M518 95q150 0 231 70t102 226l17 136h-408l13 108h408l11 89q19 158 -45.5 228t-213.5 70t-218 -55t-97 -196l-121 9q34 182 142.5 269t316.5 87t297.5 -108t63.5 -313l-38 -309q-53 -425 -465 -425q-208 0 -296 77.5t-78 243.5l121 7q-2 -121 52.5 -167.5t204.5 -46.5z
" />
    <glyph glyph-name="iucyrillic" unicode="&#x44e;" 
d="M694.5 95q104.5 0 158.5 67t72 218l43 350q19 156 -18.5 224t-141.5 68t-158 -68t-73 -224l-43 -350q-19 -151 18.5 -218t142 -67zM682 -19q-157 0 -224 103.5t-43 295.5l23 179h-192l-69 -559h-125l138 1117h125l-56 -445h192l7 58q24 195 117 300.5t249.5 105.5
t222 -106.5t40.5 -299.5l-43 -350q-22 -190 -113.5 -294.5t-248.5 -104.5z" />
    <glyph glyph-name="iacyrillic" unicode="&#x44f;" 
d="M575 1117h492l-138 -1117h-127l51 400h-224l-372 -400h-153l373 400q-151 4 -218 89.5t-49 242.5l8 48q40 337 357 337zM503 510h363l59 492h-361q-102 0 -153.5 -49.5t-66.5 -163.5l-5 -50q-15 -121 24 -175t140 -54z" />
    <glyph glyph-name="iegravecyrillic" unicode="&#x450;" 
d="M652 1024q-277 0 -317 -307l-9 -77h555l7 60q20 169 -38 247q-58 77 -198 77zM518 -19q-182 1 -278 105q-95 104 -71 307l40 326q25 209 151 313t308 104t278 -106q97 -106 69 -326l-21 -166h-681l-17 -145q-20 -160 41 -231t195 -71t197 41q62 41 109 136l115 -37
q-57 -130 -155 -190t-280 -60zM711 1303l-277 373h193l194 -373h-110z" />
    <glyph glyph-name="iocyrillic" unicode="&#x451;" 
d="M652 1024q-277 0 -317 -307l-9 -77h555l7 60q20 169 -38 247q-58 77 -198 77zM518 -19q-182 1 -278 105q-95 104 -71 307l40 326q25 209 151 313t308 104t278 -106q97 -106 69 -326l-21 -166h-681l-17 -145q-20 -160 41 -231t195 -71t197 41q62 41 109 136l115 -37
q-57 -130 -155 -190t-280 -60zM881 1346q-41 0 -66 17t-18 72q8 54 36 73q29 19 70 19q95 0 80 -99q-5 -48 -33 -65t-69 -17zM505 1346q-41 0 -66 17t-18 72q8 54 36 73q29 19 70 19q95 0 80 -99q-5 -48 -33 -65t-69 -17z" />
    <glyph glyph-name="djecyrillic" unicode="&#x452;" 
d="M582 -266q88 0 146 64t74 202l82 674q15 121 -36 186t-147 65q-190 0 -364 -193l-89 -732h-127l147 1195h-171l13 108h171l22 186h127l-22 -186h339l-13 -108h-339l-43 -344h32q61 89 158 140.5t197 51.5q145 0 219.5 -93.5t56.5 -245.5l-88 -723q-22 -179 -120 -273.5
t-239 -94.5q-94 0 -188 39l39 119q75 -37 163 -37z" />
    <glyph glyph-name="gjecyrillic" unicode="&#x453;" 
d="M205 0l138 1117h741l-15 -113h-615l-123 -1004h-126zM655 1303l289 373h192l-371 -373h-110z" />
    <glyph glyph-name="ecyrillic" unicode="&#x454;" 
d="M685 1136q194 0 281.5 -87.5t77.5 -268.5l-124 -9q6 140 -51 195.5t-207 55.5t-229 -71.5t-98 -229.5l-11 -86h410l-13 -108h-410l-17 -132q-19 -156 44.5 -228t211.5 -72t217 48.5t95 165.5l123 -7q-63 -321 -439 -321q-429 0 -377 425l38 305q52 425 478 425z" />
    <glyph glyph-name="dzecyrillic" unicode="&#x455;" 
d="M564 -19q-292 0 -460 155l71 100q155 -141 380 -141q117 0 200 47q83 46 94 142t-48 139q-61 43 -247 79t-266 109t-64 214q18 141 130 226t268 85q222 0 393 -149l-69 -101q-156 136 -339 136q-104 0 -175 -47t-82 -143q-10 -96 48 -138q58 -44 244 -80t267 -110
q82 -75 65 -215q-16 -140 -140 -224t-270 -84z" />
    <glyph glyph-name="icyrillic.salt_serifs" unicode="&#xe02e;" 
d="M601 114h375l-13 -114h-501l123 1004h-375l15 113h501zM712 1525q50 0 80 -19q29 -19 23 -67l-1 -13q-10 -82 -124 -82q-49 0 -80 19t-23 71q7 53 41 72t84 19z" />
    <glyph glyph-name="icyrillic.salt_serifs" unicode="&#x456;" 
d="M601 114h375l-13 -114h-501l123 1004h-375l15 113h501zM712 1525q50 0 80 -19q29 -19 23 -67l-1 -13q-10 -82 -124 -82q-49 0 -80 19t-23 71q7 53 41 72t84 19z" />
    <glyph glyph-name="yicyrillic.salt_serifs" unicode="&#xe02f;" 
d="M601 114h375l-13 -114h-501l123 1004h-375l15 113h501zM838 1346q-41 0 -66 18t-18 71q8 54 36 73q29 19 70 19q95 0 80 -99q-6 -48 -34 -65t-68 -17zM462 1346q-41 0 -66 18t-18 71q8 54 36 73q29 19 70 19q95 0 80 -99q-6 -48 -34 -65t-68 -17z" />
    <glyph glyph-name="yicyrillic.salt_serifs" unicode="&#x457;" 
d="M601 114h375l-13 -114h-501l123 1004h-375l15 113h501zM838 1346q-41 0 -66 18t-18 71q8 54 36 73q29 19 70 19q95 0 80 -99q-6 -48 -34 -65t-68 -17zM462 1346q-41 0 -66 18t-18 71q8 54 36 73q29 19 70 19q95 0 80 -99q-6 -48 -34 -65t-68 -17z" />
    <glyph glyph-name="jecyrillic" unicode="&#x458;" 
d="M344 -266q254 0 291 283l121 987h-479l15 113h604l-138 -1117q-22 -188 -140 -288t-290 -99q-129 0 -250 41l41 121q104 -41 225 -41zM876 1527q50 0 81 -19q30 -19 20 -80q-10 -82 -123 -82q-49 0 -80 19t-23 71q7 53 41 72t84 19z" />
    <glyph glyph-name="ljecyrillic" unicode="&#x459;" 
d="M724 112q86 0 138 45.5t67 153.5l13 119q13 108 -28 152t-126 44h-110l-64 -514h110zM59 115q30 0 63.5 37.5t48.5 149.5l114 815h454l-48 -382h124q136 0 200.5 -78t45.5 -225l-15 -134q-19 -145 -101.5 -221.5t-216.5 -76.5h-246l123 1002h-220l-98 -717
q-22 -156 -90.5 -227t-153.5 -71q-44 0 -106 20l44 125q48 -17 78 -17z" />
    <glyph glyph-name="njecyrillic" unicode="&#x45a;" 
d="M808 726q138 0 201 -78t45 -224l-17 -130q-17 -141 -99 -217.5t-217 -76.5h-256l73 598h-298l-72 -598h-120l138 1117h119l-50 -410h298l50 410h119l-48 -391h134zM717 112q84 0 137 42.5t66 143.5l15 125q13 106 -29 148.5t-126 42.5h-119l-63 -502h119z" />
    <glyph glyph-name="tshecyrillic" unicode="&#x45b;" 
d="M700 925q-98 0 -184 -47t-179 -148l-89 -730h-127l147 1195h-171l13 108h171l22 186h127l-22 -186h339l-13 -108h-339l-43 -346h30q128 193 372 193q124 0 202 -90t59 -252l-86 -700h-127l82 672q17 127 -35 190q-51 63 -149 63z" />
    <glyph glyph-name="kjecyrillic" unicode="&#x45c;" 
d="M395 532l-65 -532h-125l138 1117h124l-59 -475h134l400 475h151l-453 -521l311 -596h-141l-276 532h-139zM642 1303l289 373h192l-371 -373h-110z" />
    <glyph glyph-name="igravecyrillic" unicode="&#x45d;" 
d="M806 0l116 931l-654 -931h-147l138 1117h123l-118 -940l661 940h142l-138 -1117h-123zM711 1303l-277 373h193l194 -373h-110z" />
    <glyph glyph-name="ushortcyrillic" unicode="&#x45e;" 
d="M222 -272q72 0 132 48t117 170l22 52h-42l-237 1119h132l198 -998l435 998h133l-537 -1191q-74 -168 -170 -239t-224 -71q-61 0 -144 17l34 114q78 -19 151 -19zM683 1290q-147 0 -239 84t-68 289l127 13q-17 -151 28 -215q45 -65 165 -65t182 64t83 216l123 -13
q-28 -205 -141 -289t-260 -84z" />
    <glyph glyph-name="dzhecyrillic" unicode="&#x45f;" 
d="M430 -279l34 279h-343l138 1117h126l-124 -1003h554l125 1003h127l-138 -1117h-343l-33 -279h-123z" />
    <glyph glyph-name="Gheupturncyrillic" unicode="&#x490;" 
d="M121 0l182 1489h717l36 280h126l-48 -393h-717l-169 -1376h-127z" />
    <glyph glyph-name="gheupturncyrillic" unicode="&#x491;" 
d="M205 0l138 1117h623l30 251h117l-44 -364h-615l-123 -1004h-126z" />
    <glyph glyph-name="Wgrave" unicode="&#x1e80;" 
d="M745 0l-101 964l-339 -964h-124l3 1489h118l-17 -1279l316 918h131l87 -908l291 1269h121l-362 -1489h-124zM767 1676l-277 372h193l194 -372h-110z" />
    <glyph glyph-name="wgrave" unicode="&#x1e81;" 
d="M704 0l-86 769l-266 -769h-138l-74 1117h123l40 -979l259 793h145l79 -767l275 953h125l-350 -1117h-132zM709 1303l-277 373h194l193 -373h-110z" />
    <glyph glyph-name="Wacute" unicode="&#x1e82;" 
d="M745 0l-101 964l-339 -964h-124l3 1489h118l-17 -1279l316 918h131l87 -908l291 1269h121l-362 -1489h-124zM592 1676l289 372h191l-370 -372h-110z" />
    <glyph glyph-name="wacute" unicode="&#x1e83;" 
d="M704 0l-86 769l-266 -769h-138l-74 1117h123l40 -979l259 793h145l79 -767l275 953h125l-350 -1117h-132zM540 1303l289 373h191l-370 -373h-110z" />
    <glyph glyph-name="Wdieresis" unicode="&#x1e84;" 
d="M745 0l-101 964l-339 -964h-124l3 1489h118l-17 -1279l316 918h131l87 -908l291 1269h121l-362 -1489h-124zM922 1718q-41 0 -66 17t-18 72q8 54 36 73q29 19 70 19q95 0 80 -99q-6 -48 -34 -65t-68 -17zM546 1718q-41 0 -66 17t-18 72q8 54 36 73q29 19 70 19
q95 0 80 -99q-6 -48 -34 -65t-68 -17z" />
    <glyph glyph-name="wdieresis" unicode="&#x1e85;" 
d="M704 0l-86 769l-266 -769h-138l-74 1117h123l40 -979l259 793h145l79 -767l275 953h125l-350 -1117h-132zM881 1346q-41 0 -66 17t-18 72q8 54 36 73q29 19 70 19q95 0 80 -99q-5 -48 -33 -65t-69 -17zM505 1346q-41 0 -66 17t-18 72q8 54 36 73q29 19 70 19q95 0 80 -99
q-5 -48 -33 -65t-69 -17z" />
    <glyph glyph-name="Ygrave" unicode="&#x1ef2;" 
d="M588 0h-126l69 559l-373 930h138l317 -808l502 808h140l-598 -930zM750 1676l-277 372h194l193 -372h-110z" />
    <glyph glyph-name="ygrave" unicode="&#x1ef3;" 
d="M222 -272q72 0 132 48t117 170l22 52h-42l-237 1119h132l198 -998l435 998h133l-537 -1191q-74 -168 -170 -239t-224 -71q-61 0 -144 17l34 114q78 -19 151 -19zM709 1303l-277 373h194l193 -373h-110z" />
    <glyph glyph-name="uni2000" unicode="&#x2000;" 
 />
    <glyph glyph-name="uni2001" unicode="&#x2001;" 
 />
    <glyph glyph-name="uni2002" unicode="&#x2002;" 
 />
    <glyph glyph-name="uni2003" unicode="&#x2003;" 
 />
    <glyph glyph-name="uni2004" unicode="&#x2004;" 
 />
    <glyph glyph-name="uni2005" unicode="&#x2005;" 
 />
    <glyph glyph-name="uni2007" unicode="&#x2007;" 
 />
    <glyph glyph-name="uni2009" unicode="&#x2009;" 
 />
    <glyph glyph-name="uni200A" unicode="&#x200a;" 
 />
    <glyph glyph-name="uni200B" unicode="&#x200b;" horiz-adv-x="0" 
 />
    <glyph glyph-name="endash" unicode="&#x2013;" 
d="M168 588l14 127h861l-15 -127h-860z" />
    <glyph glyph-name="emdash" unicode="&#x2014;" 
d="M0 588l15 127h1195l-15 -127h-1195z" />
    <glyph glyph-name="horizontalbar" unicode="&#x2015;" 
d="M0 588l15 127h1195l-15 -127h-1195z" />
    <glyph glyph-name="underscoredbl" unicode="&#x2017;" 
d="M4 28l16 127h957l-16 -127h-957zM4 -335l16 126h957l-16 -126h-957z" />
    <glyph glyph-name="quoteright" unicode="&#x2019;" 
d="M378 804l281 685h248l-421 -685h-108z" />
    <glyph glyph-name="quotesinglbase" unicode="&#x201a;" 
d="M249 -374l269 685h247l-409 -685h-107z" />
    <glyph glyph-name="quotereversed" unicode="&#x201b;" 
d="M719 804l-254 685h248l114 -685h-108z" />
    <glyph glyph-name="quotedblleft" unicode="&#x201c;" 
d="M168 804l411 685h99l-280 -685h-230zM683 804l412 685h100l-281 -685h-231z" />
    <glyph glyph-name="quotedblright" unicode="&#x201d;" 
d="M138 804l279 685h231l-412 -685h-98zM653 804l280 685h231l-412 -685h-99z" />
    <glyph glyph-name="quotedblbase" unicode="&#x201e;" 
d="M15 -359l279 685h231l-411 -685h-99zM531 -359l279 685h231l-412 -685h-98z" />
    <glyph glyph-name="dagger" unicode="&#x2020;" 
d="M415 -372l170 1376h-218l-112 -444h-100l121 557h324l33 372h149l-58 -372h326l-17 -557h-100l-6 444h-216l-169 -1376h-127z" />
    <glyph glyph-name="daggerdbl" unicode="&#x2021;" 
d="M138 0v426h100l19 -312h218l110 890h-218l-95 -313h-101l105 426h324l33 372h149l-58 -372h326v-426h-100l-21 313h-218l-110 -890h218l97 312h101l-105 -426h-320l-35 -372h-159l60 372h-320z" />
    <glyph glyph-name="bullet" unicode="&#x2022;" 
d="M585 486q-109 0 -173 45.5t-53 142.5l17 134q13 99 88.5 146.5t186.5 47.5t172 -47.5t48 -146.5l-16 -134q-11 -97 -86 -142.5t-184 -45.5z" />
    <glyph glyph-name="ellipsis" unicode="&#x2026;" 
d="M114 -19q-46 0 -70.5 30t-17.5 93l8 64q7 63 39.5 93.5t79 30.5t71 -30.5t16.5 -93.5l-7 -64q-7 -63 -40 -93t-79 -30zM524 -19q-46 0 -71 30t-17 93l7 64q7 63 40 93.5t106 30.5t59 -124l-8 -64q-7 -63 -38.5 -93t-77.5 -30zM932 -19q-46 0 -71 30t-18 93l8 64
q7 63 39.5 93.5t79.5 30.5t71 -30.5t17 -93.5l-8 -64q-7 -63 -39.5 -93t-78.5 -30z" />
    <glyph glyph-name="perthousand" unicode="&#x2030;" 
d="M843 214q-17 -158 63 -158q79 0 98 158l22 179q17 162 -58 162q-85 0 -102 -162zM732 214l22 179q17 162 -62 162t-96 -162l-23 -179q-17 -158 61.5 -158t97.5 158zM978 652q91 0 132.5 -67t25.5 -203l-19 -157q-17 -136 -76.5 -201t-141.5 -65q-103 0 -128 101
q-58 -101 -149 -101q-90 0 -132.5 65t-25.5 201l18 157q17 136 76.5 203t150.5 67t121 -105q57 105 148 105zM1152 1177l-1094 -924l-58 84l1093 923zM268 1104q-21 -162 80 -162q100 0 121 162l19 156q21 164 -80 164q-100 0 -121 -164zM335 840q-97 0 -149 65t-35 203
l18 149q17 138 87 204t167 66t149 -66t35 -204l-19 -149q-17 -138 -86.5 -203t-166.5 -65z" />
    <glyph glyph-name="minute" unicode="&#x2032;" 
d="M387 804l281 685h248l-421 -685h-108z" />
    <glyph glyph-name="second" unicode="&#x2033;" 
d="M69 804l279 685h231l-411 -685h-99zM585 804l279 685h231l-412 -685h-98z" />
    <glyph glyph-name="guilsinglleft" unicode="&#x2039;" 
d="M810 212l-469 395l11 89l566 395l-17 -128l-449 -311l373 -311z" />
    <glyph glyph-name="guilsinglright" unicode="&#x203a;" 
d="M292 212l15 129l451 311l-374 311l16 128l469 -395l-11 -89z" />
    <glyph glyph-name="exclamdbl" unicode="&#x203c;" 
d="M441 102q-13 -121 -157 -121q-68 0 -101.5 29t-26.5 92l6 53q14 126 156.5 126t128.5 -126zM800.5 281q142.5 0 126.5 -126l-5 -53q-13 -121 -119.5 -121t-139 29t-24.5 92l5 53q14 126 156.5 126zM303 559l82 930h164l-145 -930h-101zM784 559l82 930h165l-147 -930
h-100z" />
    <glyph glyph-name="overline" unicode="&#x203e;" 
d="M4 1711l16 127h957l-16 -127h-957z" />
    <glyph glyph-name="fraction" unicode="&#x2215;" 
d="M121 0l866 1489h125l-866 -1489h-125z" />
    <glyph glyph-name="fraction" unicode="&#x2044;" 
d="M121 0l866 1489h125l-866 -1489h-125z" />
    <glyph glyph-name="zero.sups" unicode="&#x2070;" 
d="M604 650q114 0 172 72.5t80 245.5l13 114q22 177 -17.5 250.5t-153.5 73.5t-173.5 -73.5t-81.5 -250.5l-13 -114q-22 -173 19 -245.5t155 -72.5zM675.5 555q-245.5 0 -314.5 101.5t-44 294.5l16 147q24 195 119 299t258 104t232 -103.5t45 -299.5l-17 -147
q-49 -396 -294.5 -396z" />
    <glyph glyph-name="four.sups" unicode="&#x2074;" 
d="M1013 812h-179l-32 -246h-115l32 246h-436l11 95l482 582h140l-71 -582h179zM398 907h332l56 461z" />
    <glyph glyph-name="five.sups" unicode="&#x2075;" 
d="M586 555q-168 0 -235.5 57.5t-56.5 202.5l116 12q-4 -106 35 -141.5t157 -35.5t169.5 42t64.5 138l6 47q11 91 -30 128.5t-153 37.5h-307l54 446h586l-11 -94h-471l-32 -254h211q143 0 214 -61.5t56 -178.5l-11 -91q-13 -119 -103.5 -187t-258.5 -68z" />
    <glyph glyph-name="six.sups" unicode="&#x2076;" 
d="M605 650q112 0 165 49t66 154q13 104 -29 154.5t-153 50.5q-217 0 -231 -215q-13 -95 28.5 -144t153.5 -49zM692 1143q299 0 263 -275l-2 -25q-17 -125 -104 -206.5t-255 -81.5t-235 88.5t-48 240.5l35 280q41 337 367 337q143 0 206.5 -51.5t72.5 -162.5l-128 -23
q-4 82 -40 113t-142 31t-155.5 -58t-64.5 -186l-13 -105h9q75 84 234 84z" />
    <glyph glyph-name="seven.sups" unicode="&#x2077;" 
d="M484 566q95 292 177 450.5t244 374.5h-531l11 98h646l-11 -98q-166 -248 -252.5 -411t-158.5 -414h-125z" />
    <glyph glyph-name="eight.sups" unicode="&#x2078;" 
d="M606 652q120 0 169.5 42t60.5 138q11 95 -27 133.5t-160 38.5t-168.5 -38t-59.5 -134t26 -138t159 -42zM659.5 1098q100.5 0 148 30t56.5 103l4 28q9 80 -30 113.5t-139.5 33.5t-148 -33.5t-57.5 -113.5l-3 -28q-9 -73 30 -103t139.5 -30zM593.5 557
q-182.5 0 -243.5 68.5t-48 182.5t60.5 170.5t119.5 64.5l2 22q-54 7 -85.5 53t-22.5 120l2 26q17 125 101.5 181.5t230 56.5t217 -55.5t54.5 -182.5l-2 -26q-9 -74 -52 -120t-100 -53l-2 -22q71 -7 104.5 -64t21.5 -143q-7 -139 -91 -209t-266.5 -70z" />
    <glyph glyph-name="nine.sups" unicode="&#x2079;" 
d="M709 1501q160 0 232 -87t51 -243l-33 -279q-40 -337 -367 -337q-145 0 -209.5 51t-69.5 163l125 22q6 -82 42 -111.5t141 -29.5t155.5 57.5t66.5 184.5l13 104h-11q-80 -84 -231 -84t-216 72t-50 204l4 24q17 134 107 211.5t250 77.5zM650 998q110 0 164 50t67 154
q13 105 -28 154.5t-153 49.5t-165 -48.5t-67 -154.5q-14 -105 29 -155t153 -50z" />
    <glyph glyph-name="nsuperior" unicode="&#x207f;" 
d="M769 1508q117 0 181.5 -82t47.5 -220l-80 -642h-106l76 620q26 225 -151 225q-131 0 -275 -150l-86 -695h-106l114 929h106l-17 -141h28q48 80 121.5 118t146.5 38z" />
    <glyph glyph-name="zero.sinf" unicode="&#x2080;" 
d="M604 84q114 0 172 72t80 246l13 114q23 176 -17 250t-154 74t-174 -74q-59 -74 -81 -250l-13 -114q-22 -174 19 -246t155 -72zM593 -11q-328 0 -276 396l16 147q24 194 119 298t258 104t232 -102q69 -104 45 -300l-17 -147q-49 -396 -377 -396z" />
    <glyph glyph-name="one.sinf" unicode="&#x2081;" 
d="M359 0l13 97h231l82 670h-15q-30 -74 -100 -119t-149 -47l3 101q82 4 166 57t117 164h110l-100 -826h212l-13 -97h-557z" />
    <glyph glyph-name="two.sinf" unicode="&#x2082;" 
d="M698 840q-112 0 -154 -38t-64 -137l-113 9q24 134 102 197t241 63t228 -64t51 -189l-8 -63q-11 -91 -65 -145t-158 -78l-190 -41q-76 -15 -112 -48t-45 -111l-11 -98h529l-13 -97h-642l24 194q13 104 65 168t166 89l192 41q75 18 109 50t43 98l4 36q11 86 -28 125
t-151 39z" />
    <glyph glyph-name="three.sinf" unicode="&#x2083;" 
d="M576 -11q-172 1 -237 61t-58 183l114 7q-1 -86 33 -120t158 -34t176 40q51 40 63 129l4 30q9 80 -32 116t-157 37h-121l13 96h121q101 0 147 26t53 93l5 38q8 79 -36 113t-142 34t-143 -31q-46 -31 -62 -105l-116 9q21 119 101 171t230 53q150 0 224 -55t58 -178l-4 -30
q-9 -76 -53 -120t-107 -51l-2 -23q69 -6 107 -60t29 -141l-4 -26q-17 -136 -103 -199q-87 -63 -259 -63z" />
    <glyph glyph-name="four.sinf" unicode="&#x2084;" 
d="M1013 246h-179l-32 -246h-115l32 246h-436l11 95l482 582h140l-71 -582h179zM398 341h332l56 461z" />
    <glyph glyph-name="five.sinf" unicode="&#x2085;" 
d="M586 -11q-168 0 -236 58q-67 58 -56 202l116 12q-4 -105 35 -141t157 -36t170 42q51 42 64 138l6 47q11 91 -30 128t-153 38h-307l54 446h586l-11 -94h-471l-32 -254h211q143 0 214 -61t56 -179l-11 -91q-14 -119 -104 -187t-258 -68z" />
    <glyph glyph-name="six.sinf" unicode="&#x2086;" 
d="M605 84q112 0 165 49t66 154q13 104 -29 154q-42 51 -153 51q-217 1 -231 -215q-13 -95 29 -144t153 -49zM692 577q299 0 263 -275l-2 -25q-17 -125 -103 -207t-256 -81q-168 0 -235 88t-48 241l35 280q41 337 367 337q143 1 207 -51t72 -163l-128 -23q-4 82 -39 113
t-142 31t-157 -58t-64 -186l-13 -105h9q75 84 234 84z" />
    <glyph glyph-name="seven.sinf" unicode="&#x2087;" 
d="M484 0q95 292 177 450t244 375h-531l11 98h646l-11 -98q-166 -248 -252 -411t-159 -414h-125z" />
    <glyph glyph-name="eight.sinf" unicode="&#x2088;" 
d="M606 86q120 0 169 43t61 137q11 95 -27 133q-38 39 -160 39t-169 -38t-59 -134q-13 -96 26 -138t159 -42zM659 532q101 0 148 30t57 103l4 28q9 79 -30 113t-140 34t-148 -34t-57 -113l-3 -28q-8 -73 30 -103t139 -30zM594 -9q-182 0 -244 69q-61 69 -48 182t60 170
q48 57 120 65l2 22q-54 7 -86 53t-22 120l2 26q33 240 331 238q145 0 217 -56t55 -182l-2 -26q-9 -74 -52 -120t-100 -53l-2 -22q71 -7 105 -65t21 -142q-7 -139 -91 -209t-266 -70z" />
    <glyph glyph-name="nine.sinf" unicode="&#x2089;" 
d="M620 84q106 0 156 58t67 184l13 104h-11q-78 -82 -230 -83t-217 71t-50 204l4 24q17 134 107 211t250 77t232 -86q72 -87 51 -243l-33 -279q-40 -337 -367 -337q-145 0 -209 51t-70 163l125 22q6 -81 42 -111q34 -30 140 -30zM650 432q110 0 164 50t67 154
q13 105 -28 154q-41 50 -153 50t-165 -49t-67 -154t29 -155t153 -50z" />
    <glyph glyph-name="franc" unicode="&#x20a3;" 
d="M635 395h-341l-48 -395h-125l48 395h-171l15 113h171l119 981h844l-13 -113h-719l-58 -469h600l-15 -114h-599l-34 -285h341z" />
    <glyph glyph-name="lira" unicode="&#x20a4;" 
d="M307 498q0 62 -2 81h-290l13 102h262q-4 25 -35.5 120.5t-36.5 131.5h-158l11 102h132q-3 31 2 78q22 177 153.5 286t355.5 109t322 -91t85 -289l-131 -15q7 158 -57 219t-238 61t-274 -82t-90 -276h490l-11 -102h-458q7 -26 33 -102.5t41 -149.5h352l-13 -102h-327v-65
q0 -65 -50.5 -158t-143.5 -157l11 -17q101 58 241 -2q62 -27 119 -53t111 -26q119 0 167.5 70.5t78.5 215.5l125 -15q-71 -391 -386 -391q-76 0 -145 33.5t-131 63.5t-122 43t-119 -26l-170 -112l-59 93l147 84q67 39 131 157.5t64 180.5z" />
    <glyph glyph-name="peseta" unicode="&#x20a7;" 
d="M866 78q114 0 138 179q9 78 -19 142.5t-65 135.5t-70.5 150.5t-23.5 150.5q18 131 47 184h-156l-99 -802l-2 -43q-4 -93 47 -93q39 0 71 17l26 35l20 -19q37 -37 86 -37zM1037 1039q-86 0 -108 -168q-9 -80 21.5 -149t70.5 -142t65 -149.5t11 -188.5t-80 -186.5
t-162 -74.5q-55 0 -105 26q-149 -64 -196.5 15t-30.5 216l95 782h-141l-25 -199q-37 -300 -221 -300h-71l-63 -521h-99l183 1489h171q185 0 145 -299l-7 -73h141l45 372h99l-45 -372h166l-10 -74q58 93 151 93t158 -60l-59 -86q-54 49 -99 49zM242 616q89 0 112 209l44 357
q27 211 -61 211h-69l-95 -777h69z" />
    <glyph glyph-name="Euro" unicode="&#x20ac;" 
d="M762 1508q205 0 291 -96t77 -284l-123 -15q0 151 -50.5 216.5t-208.5 65.5t-239 -93.5t-107 -301.5l-4 -30h341l-13 -108h-341l-29 -238h340l-13 -108h-340l-4 -30q-26 -207 32.5 -299t214.5 -92t224.5 64t105.5 210l119 -15q-75 -373 -450 -373q-216 0 -308.5 130.5
t-62.5 376.5l4 28h-170l13 108h170l30 238h-170l13 108h170l3 28q30 248 155 379t330 131z" />
    <glyph glyph-name="careof" unicode="&#x2105;" 
d="M794.5 61q132.5 0 155.5 177l14 127q22 179 -75.5 179t-138.5 -44t-52 -135l-15 -127q-21 -177 111.5 -177zM781 -41q-111 0 -170.5 69t-40.5 214l15 119q17 145 95 215t189 70t168.5 -70t40.5 -215l-15 -119q-19 -145 -95 -214t-187 -69zM43 324l1095 935l59 -84
l-1095 -933zM362 840q-107 0 -165.5 69.5t-41.5 215.5l14 115q17 145 96 216t185 71t166 -56t54 -171l-115 -10q2 69 -26.5 101.5t-90.5 32.5t-103 -43.5t-52 -136.5l-15 -123q-21 -179 112 -179q61 0 96.5 31.5t52.5 100.5l111 -13q-20 -112 -95.5 -166.5t-182.5 -54.5z
" />
    <glyph glyph-name="lsquare" unicode="&#x2113;" 
d="M495 114q113 0 255 59l-7 -125q-143 -61 -274 -61q-173 0 -255 102.5t-32 281.5l239 837q43 153 150 226.5t254 73.5t206.5 -92t16.5 -245l-115 -413q-43 -151 -142.5 -222t-234.5 -71t-195 94l-44 -172q-35 -134 15 -203.5t163 -69.5zM558 581q98 0 159 39t89 136
l116 417q28 95 3 158.5t-125 63.5t-162.5 -43t-88.5 -142l-123 -426q-24 -91 5 -147t127 -56z" />
    <glyph glyph-name="numero" unicode="&#x2116;" 
d="M686 76q72 0 114 41t55 136l13 108q22 183 -123.5 183t-167.5 -183l-13 -108q-13 -95 18.5 -136t103.5 -41zM674 -26q-115 0 -176.5 70t-43.5 209l13 106q17 141 96 214t195 73t176 -72.5t43 -214.5l-13 -106q-19 -140 -97 -209.5t-193 -69.5zM402 1367l-74 -602h-119
l89 724h160l467 -593l73 593h119l-89 -724h-157z" />
    <glyph glyph-name="uni2117" unicode="&#x2117;" 
d="M521 620h114q84 0 116.5 40t32.5 131v78q0 101 -32.5 145.5t-116.5 44.5h-114v-439zM901 791q0 -273 -266 -273h-114v-289h-117v935h231q266 0 266 -295v-78zM616 -117q240 0 346.5 149.5t106.5 473.5v358q0 326 -106.5 478.5t-346.5 152.5t-346 -152.5t-106 -478.5v-358
q0 -324 106 -473.5t346 -149.5zM616 -205q-281 0 -413 171.5t-132 511.5v414q0 343 133 517t414 174t412.5 -174.5t131.5 -516.5v-414q0 -341 -132.5 -512t-413.5 -171z" />
    <glyph glyph-name="trademark" unicode="&#x2122;" 
d="M564 653v836h121l157 -445l158 445h115v-836h-91v678l-149 -422h-71l-151 424l2 -680h-91zM207 653v743h-157v93h401v-93h-148v-743h-96z" />
    <glyph glyph-name="Ohm" unicode="&#x2126;" 
d="M696 1395q-177 0 -265 -99t-116 -326l-26 -210q-17 -140 19 -227t161 -116l-52 -417h-348l15 115h221l28 233q-110 39 -150 150t-21 262l26 210q65 538 521 538t391 -538l-26 -210q-18 -151 -84 -262t-188 -150l-27 -233h221l-15 -115h-346l52 417q127 31 185 117t76 226
l26 210q28 227 -36 326t-242 99z" />
    <glyph glyph-name="estimated" unicode="&#x212e;" 
d="M611 1370q-136 0 -231 -97v-472h460v467q-50 45 -103.5 73.5t-125.5 28.5zM67 751q0 340 152.5 553t392.5 213t391 -239t159 -626h-782v-430q107 -97 227 -97q256 0 382 216l82 -110q-155 -253 -464 -253q-236 0 -388 216.5t-152 556.5z" />
    <glyph glyph-name="oneeighth" unicode="&#x215b;" 
d="M493 -305q122 0 169 34t55 109q9 74 -30 104t-161 30t-170.5 -31.5t-53.5 -108.5q-9 -71 30 -104t161 -33zM537 67q100 0 146.5 21.5t53.5 73.5l4 28q6 60 -34 84t-140 24t-147.5 -24.5t-52.5 -83.5l-4 -28q-7 -52 33.5 -73.5t140.5 -21.5zM478.5 -402
q-184.5 0 -249.5 64t-41 180q7 73 53 117.5t118 49.5l2 23q-54 7 -87.5 43.5t-25.5 93.5l3 25q25 201 326 201q145 0 218 -46t60 -155l-4 -25q-7 -58 -48.5 -94t-98.5 -43l-2 -23q71 -6 108 -55.5t20 -130.5q-13 -108 -90 -166.5t-261.5 -58.5zM1182 492l-515 26l11 83
l521 23zM-13 492l17 132l542 -23l-12 -83zM350 763l13 97h231l59 484h-14q-30 -74 -100 -119t-150 -46l2 100q82 4 166.5 57t118.5 165h110l-79 -641h213l-13 -97h-557z" />
    <glyph glyph-name="threeeighths" unicode="&#x215c;" 
d="M493 -305q122 0 169 34t55 109q9 74 -30 104t-161 30t-170.5 -31.5t-53.5 -108.5q-9 -71 30 -104t161 -33zM537 67q100 0 146.5 21.5t53.5 73.5l4 28q6 60 -34 84t-140 24t-147.5 -24.5t-52.5 -83.5l-4 -28q-7 -52 33.5 -73.5t140.5 -21.5zM478.5 -402
q-184.5 0 -249.5 64t-41 180q7 73 53 117.5t118 49.5l2 23q-54 7 -87.5 43.5t-25.5 93.5l3 25q25 201 326 201q145 0 218 -46t60 -155l-4 -25q-7 -58 -48.5 -94t-98.5 -43l-2 -23q71 -6 108 -55.5t20 -130.5q-13 -108 -90 -166.5t-261.5 -58.5zM1182 492l-515 26l11 83
l521 23zM-13 492l17 132l542 -23l-12 -83zM610 750q-172 0 -239.5 52.5t-59.5 154.5l115 9q-2 -65 33.5 -92t160.5 -27t175 28t58 91l3 30q6 54 -37 78t-160 24h-99l13 97h99q101 0 146.5 19t50.5 65l6 39q6 52 -39.5 73.5t-143.5 21.5t-144.5 -22.5t-55.5 -76.5l-116 10
q20 101 97.5 143.5t226.5 42.5t224.5 -41t64.5 -142l-4 -29q-7 -60 -50 -94.5t-105 -41.5l-3 -23q71 -6 110 -46.5t31 -102.5l-4 -27q-13 -110 -97.5 -161.5t-256.5 -51.5z" />
    <glyph glyph-name="fiveeighths" unicode="&#x215d;" 
d="M493 -305q122 0 169 34t55 109q9 74 -30 104t-161 30t-170.5 -31.5t-53.5 -108.5q-9 -71 30 -104t161 -33zM537 67q100 0 146.5 21.5t53.5 73.5l4 28q6 60 -34 84t-140 24t-147.5 -24.5t-52.5 -83.5l-4 -28q-7 -52 33.5 -73.5t140.5 -21.5zM478.5 -402
q-184.5 0 -249.5 64t-41 180q7 73 53 117.5t118 49.5l2 23q-54 7 -87.5 43.5t-25.5 93.5l3 25q25 201 326 201q145 0 218 -46t60 -155l-4 -25q-7 -58 -48.5 -94t-98.5 -43l-2 -23q71 -6 108 -55.5t20 -130.5q-13 -108 -90 -166.5t-261.5 -58.5zM1182 492l-515 26l11 83
l521 23zM-13 492l17 132l542 -23l-12 -83zM610 752q-168 0 -237.5 46.5t-59.5 169.5l115 11q-4 -80 38 -106t161 -26t168.5 28t57.5 93l5 47q7 60 -34.5 85.5t-155.5 25.5h-307l47 373h586l-11 -95h-471l-22 -177h210q143 0 215 -50.5t61 -150.5l-8 -62
q-13 -101 -101.5 -156.5t-256.5 -55.5z" />
    <glyph glyph-name="seveneighths" unicode="&#x215e;" 
d="M493 -305q122 0 169 34t55 109q9 74 -30 104t-161 30t-170.5 -31.5t-53.5 -108.5q-9 -71 30 -104t161 -33zM537 67q100 0 146.5 21.5t53.5 73.5l4 28q6 60 -34 84t-140 24t-147.5 -24.5t-52.5 -83.5l-4 -28q-7 -52 33.5 -73.5t140.5 -21.5zM478.5 -402
q-184.5 0 -249.5 64t-41 180q7 73 53 117.5t118 49.5l2 23q-54 7 -87.5 43.5t-25.5 93.5l3 25q25 201 326 201q145 0 218 -46t60 -155l-4 -25q-7 -58 -48.5 -94t-98.5 -43l-2 -23q71 -6 108 -55.5t20 -130.5q-13 -108 -90 -166.5t-261.5 -58.5zM1182 492l-515 26l11 83
l521 23zM-13 492l17 132l542 -23l-12 -83zM514 763q73 210 160 347t231 292h-529l13 99h644l-13 -99q-143 -169 -237 -317.5t-148 -321.5h-121z" />
    <glyph glyph-name="arrowleft" unicode="&#x2190;" 
d="M618 1348v-540h596v-127h-596v-540h-33l-566 585v37l566 585h33z" />
    <glyph glyph-name="arrowup" unicode="&#x2191;" 
d="M553 2v838h-493v37l540 611h33l540 -611v-37h-493v-838h-127z" />
    <glyph glyph-name="arrowright" unicode="&#x2192;" 
d="M614 141v540h-595v127h595v540h34l566 -585v-37l-566 -585h-34z" />
    <glyph glyph-name="arrowdown" unicode="&#x2193;" 
d="M60 650h493v838h127v-838h493v-37l-540 -611h-33l-540 611v37z" />
    <glyph glyph-name="arrowboth" unicode="&#x2194;" 
d="M497 681v-540h-35l-443 585v37l443 585h35v-540h240v540h34l443 -585v-37l-443 -585h-34v540h-240z" />
    <glyph glyph-name="arrowupdn" unicode="&#x2195;" 
d="M60 465h493v559h-493v37l540 613h33l540 -613v-37h-493v-559h493v-37l-540 -612h-33l-540 612v37z" />
    <glyph glyph-name="arrowupdnbse" unicode="&#x21a8;" 
d="M60 465h493v559h-493v37l540 613h33l540 -613v-37h-493v-559h493v-37l-540 -612h-33l-540 612v37zM119 -339l15 127h957l-15 -127h-957z" />
    <glyph glyph-name="partialdiff" unicode="&#x2202;" 
d="M657 802q-155 0 -228 -71.5t-99 -216.5l-23 -116q-30 -153 23.5 -229t207.5 -77t227 76.5t103 229.5l24 116q28 143 -26 215.5t-209 72.5zM524 -19q-185 0 -288.5 104.5t-62.5 316.5l26 132q35 175 149 277.5t264 102.5t228 -51t98 -120h19q43 279 -44.5 430t-370.5 236
l58 93q315 -95 416 -283t38 -530l-54 -276q-43 -225 -167 -328.5t-309 -103.5z" />
    <glyph glyph-name="Delta#1" unicode="&#x2206;" 
d="M916 114l-231 1217l-532 -1217h763zM19 0l15 114l606 1375h120l284 -1375l-13 -114h-1012z" />
    <glyph glyph-name="product" unicode="&#x220f;" 
d="M73 -372l229 1861h810l-229 -1861h-127l216 1748h-557l-216 -1748h-126z" />
    <glyph glyph-name="summation" unicode="&#x2211;" 
d="M933 -259l-15 -113h-896l15 113l698 840l-497 795l13 113h896l-13 -113h-754l465 -749l-9 -87l-665 -799h762z" />
    <glyph glyph-name="minus" unicode="&#x2212;" 
d="M119 588l15 127h957l-15 -127h-957z" />
    <glyph glyph-name="radical" unicode="&#x221a;" 
d="M544 0l-235 810l-177 -39l13 104l253 56l220 -808l538 1553h112l-594 -1676h-130z" />
    <glyph glyph-name="infinity" unicode="&#x221e;" 
d="M330 354q60 0 111 91t121 277q-26 218 -55 316t-87 98t-107 -98t-72 -294t3 -293t86 -97zM811.5 354q59.5 0 108 98t71.5 294t-3 293t-88 97t-114 -91.5t-118 -279.5q26 -218 55 -314.5t88.5 -96.5zM422 1242q96 0 145 -86.5t77 -274.5q67 190 135 275.5t146 85.5
q106 0 159.5 -133t25.5 -364t-116.5 -364t-200.5 -133q-82 0 -126.5 87.5t-76.5 275.5q-123 -363 -283 -363q-106 0 -159 133t-25 364t115.5 364t183.5 133z" />
    <glyph glyph-name="orthogonal" unicode="&#x221f;" 
d="M123 0l160 1303h125l-147 -1189h715l-13 -114h-840z" />
    <glyph glyph-name="intersection" unicode="&#x2229;" 
d="M687 1322q190 0 281 -128.5t62 -376.5l-101 -817h-127l101 819q24 203 -32.5 296t-196.5 93t-221 -93t-105 -296l-100 -819h-127l101 817q30 248 152.5 376.5t312.5 128.5z" />
    <glyph glyph-name="integral" unicode="&#x222b;" 
d="M944 1393q-90 0 -144.5 -60.5t-73.5 -206.5l-140 -1146q-22 -169 -119.5 -265.5t-221.5 -96.5t-204 41l37 110q81 -37 168 -37t142 60.5t74 205.5l139 1145q22 173 119 268t237 95q103 0 192 -41l-39 -110q-76 38 -166 38z" />
    <glyph glyph-name="approxequal" unicode="&#x2248;" 
d="M767 -19q-95 0 -147 57t-103 190t-84 179.5t-91 46.5q-120 0 -150 -247l-26 -207h-118l26 218q22 173 103.5 264t175.5 91t146 -56.5t105 -188.5t85.5 -179.5t86.5 -47.5q121 0 151 251l26 205h118l-28 -218q-20 -173 -100.5 -265.5t-175.5 -92.5zM858 726q-95 0 -147 57
t-103 190t-83.5 179.5t-91.5 46.5q-120 0 -150 -246l-26 -208h-117l28 219q20 173 101 263.5t175 90.5t146 -56t105 -188t86 -180.5t87 -48.5q122 0 150 252l26 204h118l-28 -217q-20 -173 -100.5 -265.5t-175.5 -92.5z" />
    <glyph glyph-name="notequal" unicode="&#x2260;" 
d="M1050 384h-499l-134 -384h-125l134 384h-333l17 126h363l164 469h-469l14 127h501l134 383h123l-134 -383h333l-14 -127h-364l-163 -469h469z" />
    <glyph glyph-name="equivalence" unicode="&#x2261;" 
d="M73 220l16 124h957l-16 -124h-957zM119 588l15 127h957l-15 -127h-957zM164 959l17 126h957l-17 -126h-957z" />
    <glyph glyph-name="lessequal" unicode="&#x2264;" 
d="M97 0l13 108h856l-13 -108h-856zM1000 372l-801 468l17 124l912 468l-13 -118l-793 -411l691 -413z" />
    <glyph glyph-name="greaterequal" unicode="&#x2265;" 
d="M953 0h-856l13 108h856zM143 372l13 118l795 413l-692 411l13 118l800 -468l-16 -124z" />
    <glyph glyph-name="logicalnotreversed" unicode="&#x2310;" 
d="M69 0l87 715h939l-15 -127h-814l-72 -588h-125z" />
    <glyph glyph-name="integralbt" unicode="&#x2321;" 
d="M250 -268q182 0 214 272l182 1485h127l-185 -1504q-22 -175 -120.5 -271t-221.5 -96t-203 41l37 110q81 -37 170 -37z" />
    <glyph glyph-name="uni23af" unicode="&#x23af;" 
d="M-19 681v127h1270v-127h-1270z" />
    <glyph glyph-name="lighthorzbxd" unicode="&#x2500;" 
d="M-37 624h1307v-131h-1307v131z" />
    <glyph glyph-name="heavyhorzbxd" unicode="&#x2501;" 
d="M-37 689h1307v-261h-1307v261z" />
    <glyph glyph-name="lightvertbxd" unicode="&#x2502;" 
d="M551 1955h130v-2793h-130v2793z" />
    <glyph glyph-name="heavyvertbxd" unicode="&#x2503;" 
d="M486 1955h261v-2793h-261v2793z" />
    <glyph glyph-name="lighttrpldashhorzbxd" unicode="&#x2504;" 
d="M886 624h274v-131h-274v131zM477 624h273v-131h-273v131zM67 624h274v-131h-274v131z" />
    <glyph glyph-name="heavytrpldashhorzbxd" unicode="&#x2505;" 
d="M886 689h274v-261h-274v261zM477 689h273v-261h-273v261zM67 689h274v-261h-274v261z" />
    <glyph glyph-name="lighttrpldashvertbxd" unicode="&#x2506;" 
d="M551 2147h130v-455h-130v455zM551 1465h130v-454h-130v454zM551 784h130v-454h-130v454zM551 102h130v-454h-130v454z" />
    <glyph glyph-name="heavytrpldashvertbxd" unicode="&#x2507;" 
d="M486 2147h261v-455h-261v455zM486 1465h261v-454h-261v454zM486 784h261v-454h-261v454zM486 102h261v-454h-261v454z" />
    <glyph glyph-name="lightquaddashhorzbxd" unicode="&#x2508;" 
d="M959 624h231v-131h-231v131zM652 624h231v-131h-231v131zM344 624h231v-131h-231v131zM37 624h231v-131h-231v131z" />
    <glyph glyph-name="heavyquaddashhorzbxd" unicode="&#x2509;" 
d="M959 689h231v-261h-231v261zM652 689h231v-261h-231v261zM344 689h231v-261h-231v261zM37 689h231v-261h-231v261z" />
    <glyph glyph-name="lightquaddashvertbxd" unicode="&#x250a;" 
d="M551 1519h130v-385h-130v385zM551 1007h130v-385h-130v385zM551 495h130v-385h-130v385zM551 -17h130v-385h-130v385z" />
    <glyph glyph-name="heavyquaddashvertbxd" unicode="&#x250b;" 
d="M486 1519h261v-385h-261v385zM486 1007h261v-385h-261v385zM486 495h261v-385h-261v385zM486 -17h261v-385h-261v385z" />
    <glyph glyph-name="lightdnrightbxd" unicode="&#x250c;" 
d="M551 624h719v-131h-589v-1331h-130v1462z" />
    <glyph glyph-name="dnlightrightheavybxd" unicode="&#x250d;" 
d="M551 689h719v-261h-589v-1266h-130v1527z" />
    <glyph glyph-name="dnheavyrightlightbxd" unicode="&#x250e;" 
d="M486 624h784v-131h-523v-1331h-261v1462z" />
    <glyph glyph-name="heavydnrightbxd" unicode="&#x250f;" 
d="M486 689h784v-261h-523v-1266h-261v1527z" />
    <glyph glyph-name="lightdnleftbxd" unicode="&#x2510;" 
d="M-37 624h718v-1462h-130v1331h-588v131z" />
    <glyph glyph-name="dnlightleftheavybxd" unicode="&#x2511;" 
d="M-37 689h718v-1527h-130v1266h-588v261z" />
    <glyph glyph-name="dnheavyleftlightbxd" unicode="&#x2512;" 
d="M-37 624h784v-1462h-261v1331h-523v131z" />
    <glyph glyph-name="heavydnleftbxd" unicode="&#x2513;" 
d="M-37 689h784v-1527h-261v1266h-523v261z" />
    <glyph glyph-name="lightuprightbxd" unicode="&#x2514;" 
d="M551 1955h130v-1331h589v-131h-719v1462z" />
    <glyph glyph-name="uplightrightheavybxd" unicode="&#x2515;" 
d="M551 1955h130v-1266h589v-261h-719v1527z" />
    <glyph glyph-name="upheavyrightlightbxd" unicode="&#x2516;" 
d="M486 1955h261v-1331h523v-131h-784v1462z" />
    <glyph glyph-name="heavyuprightbxd" unicode="&#x2517;" 
d="M486 1955h261v-1266h523v-261h-784v1527z" />
    <glyph glyph-name="lightupleftbxd" unicode="&#x2518;" 
d="M-37 624h588v1331h130v-1462h-718v131z" />
    <glyph glyph-name="uplightleftheavybxd" unicode="&#x2519;" 
d="M-37 689h588v1266h130v-1527h-718v261z" />
    <glyph glyph-name="upheavyleftlightbxd" unicode="&#x251a;" 
d="M-37 624h523v1331h261v-1462h-784v131z" />
    <glyph glyph-name="heavyupleftbxd" unicode="&#x251b;" 
d="M-37 689h523v1266h261v-1527h-784v261z" />
    <glyph glyph-name="lightvertrightbxd" unicode="&#x251c;" 
d="M551 1955h130v-1331h589v-131h-589v-1331h-130v2793z" />
    <glyph glyph-name="vertlightrightheavybxd" unicode="&#x251d;" 
d="M551 1955h130v-1266h589v-261h-589v-1266h-130v2793z" />
    <glyph glyph-name="upheavyrightdnlightbxd" unicode="&#x251e;" 
d="M486 1955h261v-1331h523v-131h-589v-1331h-130v1331h-65v1462z" />
    <glyph glyph-name="dnheavyrightuplightbxd" unicode="&#x251f;" 
d="M486 624h65v1331h130v-1331h589v-131h-523v-1331h-261v1462z" />
    <glyph glyph-name="vertheavyrightlightbxd" unicode="&#x2520;" 
d="M486 1955h261v-1331h523v-131h-523v-1331h-261v2793z" />
    <glyph glyph-name="dnlightrightupheavybxd" unicode="&#x2521;" 
d="M486 1955h261v-1266h523v-261h-589v-1266h-130v1266h-65v1527z" />
    <glyph glyph-name="uplightrightdnheavybxd" unicode="&#x2522;" 
d="M486 689h65v1266h130v-1266h589v-261h-523v-1266h-261v1527z" />
    <glyph glyph-name="heavyvertrightbxd" unicode="&#x2523;" 
d="M486 1955h261v-1266h523v-261h-523v-1266h-261v2793z" />
    <glyph glyph-name="lightvertleftbxd" unicode="&#x2524;" 
d="M-37 624h588v1331h130v-2793h-130v1331h-588v131z" />
    <glyph glyph-name="vertlightleftheavybxd" unicode="&#x2525;" 
d="M-37 689h588v1266h130v-2793h-130v1266h-588v261z" />
    <glyph glyph-name="upheavyleftdnlightbxd" unicode="&#x2526;" 
d="M-37 624h523v1331h261v-1462h-66v-1331h-130v1331h-588v131z" />
    <glyph glyph-name="dnheavyleftuplightbxd" unicode="&#x2527;" 
d="M-37 624h588v1331h130v-1331h66v-1462h-261v1331h-523v131z" />
    <glyph glyph-name="vertheavyleftlightbxd" unicode="&#x2528;" 
d="M-37 624h523v1331h261v-2793h-261v1331h-523v131z" />
    <glyph glyph-name="dnlightleftupheavybxd" unicode="&#x2529;" 
d="M-37 689h523v1266h261v-1527h-66v-1266h-130v1266h-588v261z" />
    <glyph glyph-name="uplightleftdnheavybxd" unicode="&#x252a;" 
d="M-37 689h588v1266h130v-1266h66v-1527h-261v1266h-523v261z" />
    <glyph glyph-name="heavyvertleftbxd" unicode="&#x252b;" 
d="M-37 689h523v1266h261v-2793h-261v1266h-523v261z" />
    <glyph glyph-name="lightdnhorzbxd" unicode="&#x252c;" 
d="M-37 624h1307v-131h-589v-1331h-130v1331h-588v131z" />
    <glyph glyph-name="leftheavyrightdnlightbxd" unicode="&#x252d;" 
d="M-37 689h718v-65h589v-131h-589v-1331h-130v1266h-588v261z" />
    <glyph glyph-name="rightheavyleftdnlightbxd" unicode="&#x252e;" 
d="M-37 624h588v65h719v-261h-589v-1266h-130v1331h-588v131z" />
    <glyph glyph-name="dnlighthorzheavybxd" unicode="&#x252f;" 
d="M-37 689h1307v-261h-589v-1266h-130v1266h-588v261z" />
    <glyph glyph-name="dnheavyhorzlightbxd" unicode="&#x2530;" 
d="M-37 624h1307v-131h-523v-1331h-261v1331h-523v131z" />
    <glyph glyph-name="rightlightleftdnheavybxd" unicode="&#x2531;" 
d="M-37 689h784v-65h523v-131h-523v-1331h-261v1266h-523v261z" />
    <glyph glyph-name="leftlightrightdnheavybxd" unicode="&#x2532;" 
d="M-37 624h523v65h784v-261h-523v-1266h-261v1331h-523v131z" />
    <glyph glyph-name="heavydnhorzbxd" unicode="&#x2533;" 
d="M-37 689h1307v-261h-523v-1266h-261v1266h-523v261z" />
    <glyph glyph-name="lightuphorzbxd" unicode="&#x2534;" 
d="M-37 624h588v1331h130v-1331h589v-131h-1307v131z" />
    <glyph glyph-name="leftheavyrightuplightbxd" unicode="&#x2535;" 
d="M-37 689h588v1266h130v-1331h589v-131h-589v-65h-718v261z" />
    <glyph glyph-name="rightheavyleftuplightbxd" unicode="&#x2536;" 
d="M-37 624h588v1331h130v-1266h589v-261h-719v65h-588v131z" />
    <glyph glyph-name="uplighthorzheavybxd" unicode="&#x2537;" 
d="M-37 689h588v1266h130v-1266h589v-261h-1307v261z" />
    <glyph glyph-name="upheavyhorzlightbxd" unicode="&#x2538;" 
d="M-37 624h523v1331h261v-1331h523v-131h-1307v131z" />
    <glyph glyph-name="rightlightleftupheavybxd" unicode="&#x2539;" 
d="M-37 689h523v1266h261v-1331h523v-131h-523v-65h-784v261z" />
    <glyph glyph-name="leftlightrightupheavybxd" unicode="&#x253a;" 
d="M-37 624h523v1331h261v-1266h523v-261h-784v65h-523v131z" />
    <glyph glyph-name="heavyuphorzbxd" unicode="&#x253b;" 
d="M-37 689h523v1266h261v-1266h523v-261h-1307v261z" />
    <glyph glyph-name="lightverthorzbxd" unicode="&#x253c;" 
d="M-37 624h588v1331h130v-1331h589v-131h-589v-1331h-130v1331h-588v131z" />
    <glyph glyph-name="leftheavyrightvertlightbxd" unicode="&#x253d;" 
d="M-37 689h588v1266h130v-1331h589v-131h-589v-1331h-130v1266h-588v261z" />
    <glyph glyph-name="rightheavyleftvertlightbxd" unicode="&#x253e;" 
d="M-37 624h588v1331h130v-1266h589v-261h-589v-1266h-130v1331h-588v131z" />
    <glyph glyph-name="vertlighthorzheavybxd" unicode="&#x253f;" 
d="M-37 689h588v1266h130v-1266h589v-261h-589v-1266h-130v1266h-588v261z" />
    <glyph glyph-name="upheavydnhorzlightbxd" unicode="&#x2540;" 
d="M-37 624h523v1331h261v-1331h523v-131h-589v-1331h-130v1331h-588v131z" />
    <glyph glyph-name="dnheavyuphorzlightbxd" unicode="&#x2541;" 
d="M-37 624h588v1331h130v-1331h589v-131h-523v-1331h-261v1331h-523v131z" />
    <glyph glyph-name="vertheavyhorzlightbxd" unicode="&#x2542;" 
d="M-37 624h523v1331h261v-1331h523v-131h-523v-1331h-261v1331h-523v131z" />
    <glyph glyph-name="leftupheavyrightdnlightbxd" unicode="&#x2543;" 
d="M-37 689h523v1266h261v-1331h523v-131h-523v-65h-66v-1266h-130v1266h-588v261z" />
    <glyph glyph-name="rightupheavyleftdnlightbxd" unicode="&#x2544;" 
d="M-37 624h523v1331h261v-1266h523v-261h-589v-1266h-130v1266h-65v65h-523v131z" />
    <glyph glyph-name="leftdnheavyrightuplightbxd" unicode="&#x2545;" 
d="M-37 689h588v1266h130v-1266h66v-65h523v-131h-523v-1331h-261v1266h-523v261z" />
    <glyph glyph-name="rightdnheavyleftuplightbxd" unicode="&#x2546;" 
d="M-37 624h523v65h65v1266h130v-1266h589v-261h-523v-1266h-261v1331h-523v131z" />
    <glyph glyph-name="dnlightuphorzheavybxd" unicode="&#x2547;" 
d="M-37 689h523v1266h261v-1266h523v-261h-589v-1266h-130v1266h-588v261z" />
    <glyph glyph-name="uplightdnhorzheavybxd" unicode="&#x2548;" 
d="M-37 689h588v1266h130v-1266h589v-261h-523v-1266h-261v1266h-523v261z" />
    <glyph glyph-name="rightlightleftvertheavybxd" unicode="&#x2549;" 
d="M-37 689h523v1266h261v-1331h523v-131h-523v-1331h-261v1266h-523v261z" />
    <glyph glyph-name="leftlightrightvertheavybxd" unicode="&#x254a;" 
d="M-37 624h523v1331h261v-1266h523v-261h-523v-1266h-261v1331h-523v131z" />
    <glyph glyph-name="heavyverthorzbxd" unicode="&#x254b;" 
d="M-37 689h523v1266h261v-1266h523v-261h-523v-1266h-261v1266h-523v261z" />
    <glyph glyph-name="lightdbldashhorzbxd" unicode="&#x254c;" 
d="M769 624h309v-131h-309v131zM153 624h309v-131h-309v131z" />
    <glyph glyph-name="heavydbldashhorzbxd" unicode="&#x254d;" 
d="M769 689h309v-261h-309v261zM153 689h309v-261h-309v261z" />
    <glyph glyph-name="lightdbldashvertbxd" unicode="&#x254e;" 
d="M551 1326h130v-512h-130v512zM551 302h130v-512h-130v512z" />
    <glyph glyph-name="heavydbldashvertbxd" unicode="&#x254f;" 
d="M486 1326h261v-512h-261v512zM486 302h261v-512h-261v512z" />
    <glyph glyph-name="dblhorzbxd" unicode="&#x2550;" 
d="M-37 493h1307v-130h-1307v130zM-37 754h1307v-130h-1307v130z" />
    <glyph glyph-name="dblvertbxd" unicode="&#x2551;" 
d="M681 1955h131v-2793h-131v2793zM421 1955h130v-2793h-130v2793z" />
    <glyph glyph-name="dnsngrightdblbxd" unicode="&#x2552;" 
d="M551 754h719v-130h-589v-131h589v-130h-589v-1201h-130v1592z" />
    <glyph glyph-name="dndblrightsngbxd" unicode="&#x2553;" 
d="M421 624h849v-131h-458v-1331h-131v1331h-130v-1331h-130v1462z" />
    <glyph glyph-name="dbldnrightbxd" unicode="&#x2554;" 
d="M681 493h589v-130h-458v-1201h-131v1331zM421 754h849v-130h-719v-1462h-130v1592z" />
    <glyph glyph-name="dnsngleftdblbxd" unicode="&#x2555;" 
d="M-37 754h718v-1592h-130v1201h-588v130h588v131h-588v130z" />
    <glyph glyph-name="dndblleftsngbxd" unicode="&#x2556;" 
d="M-37 624h849v-1462h-131v1331h-130v-1331h-130v1331h-458v131z" />
    <glyph glyph-name="dbldnleftbxd" unicode="&#x2557;" 
d="M-37 493h588v-1331h-130v1201h-458v130zM-37 754h849v-1592h-131v1462h-718v130z" />
    <glyph glyph-name="upsngrightdblbxd" unicode="&#x2558;" 
d="M551 1955h130v-1201h589v-130h-589v-131h589v-130h-719v1592z" />
    <glyph glyph-name="updblrightsngbxd" unicode="&#x2559;" 
d="M421 1955h130v-1331h130v1331h131v-1331h458v-131h-849v1462z" />
    <glyph glyph-name="dbluprightbxd" unicode="&#x255a;" 
d="M681 1955h131v-1201h458v-130h-589v1331zM421 1955h130v-1462h719v-130h-849v1592z" />
    <glyph glyph-name="upsngleftdblbxd" unicode="&#x255b;" 
d="M-37 754h588v1201h130v-1592h-718v130h588v131h-588v130z" />
    <glyph glyph-name="updblleftsngbxd" unicode="&#x255c;" 
d="M-37 624h458v1331h130v-1331h130v1331h131v-1462h-849v131z" />
    <glyph glyph-name="dblupleftbxd" unicode="&#x255d;" 
d="M-37 754h458v1201h130v-1331h-588v130zM-37 493h718v1462h131v-1592h-849v130z" />
    <glyph glyph-name="vertsngrightdblbxd" unicode="&#x255e;" 
d="M551 1955h130v-1201h589v-130h-589v-131h589v-130h-589v-1201h-130v2793z" />
    <glyph glyph-name="vertdblrightsngbxd" unicode="&#x255f;" 
d="M421 1955h130v-2793h-130v2793zM681 1955h131v-1331h458v-131h-458v-1331h-131v2793z" />
    <glyph glyph-name="dblvertrightbxd" unicode="&#x2560;" 
d="M681 493h589v-130h-458v-1201h-131v1331zM681 1955h131v-1201h458v-130h-589v1331zM421 1955h130v-2793h-130v2793z" />
    <glyph glyph-name="vertsngleftdblbxd" unicode="&#x2561;" 
d="M-37 754h588v1201h130v-2793h-130v1201h-588v130h588v131h-588v130z" />
    <glyph glyph-name="vertdblleftsngbxd" unicode="&#x2562;" 
d="M681 1955h131v-2793h-131v2793zM-37 624h458v1331h130v-2793h-130v1331h-458v131z" />
    <glyph glyph-name="dblvertleftbxd" unicode="&#x2563;" 
d="M-37 754h458v1201h130v-1331h-588v130zM-37 493h588v-1331h-130v1201h-458v130zM681 1955h131v-2793h-131v2793z" />
    <glyph glyph-name="dnsnghorzdblbxd" unicode="&#x2564;" 
d="M-37 754h1307v-130h-1307v130zM-37 493h1307v-130h-589v-1201h-130v1201h-588v130z" />
    <glyph glyph-name="dndblhorzsngbxd" unicode="&#x2565;" 
d="M-37 624h1307v-131h-458v-1331h-131v1331h-130v-1331h-130v1331h-458v131z" />
    <glyph glyph-name="dbldnhorzbxd" unicode="&#x2566;" 
d="M-37 754h1307v-130h-1307v130zM681 493h589v-130h-458v-1201h-131v1331zM-37 493h588v-1331h-130v1201h-458v130z" />
    <glyph glyph-name="upsnghorzdblbxd" unicode="&#x2567;" 
d="M-37 493h1307v-130h-1307v130zM-37 754h588v1201h130v-1201h589v-130h-1307v130z" />
    <glyph glyph-name="updblhorzsngbxd" unicode="&#x2568;" 
d="M-37 624h458v1331h130v-1331h130v1331h131v-1331h458v-131h-1307v131z" />
    <glyph glyph-name="dbluphorzbxd" unicode="&#x2569;" 
d="M-37 493h1307v-130h-1307v130zM681 1955h131v-1201h458v-130h-589v1331zM-37 754h458v1201h130v-1331h-588v130z" />
    <glyph glyph-name="vertsnghorzdblbxd" unicode="&#x256a;" 
d="M-37 754h588v1201h130v-1201h589v-130h-589v-131h589v-130h-589v-1201h-130v1201h-588v130h588v131h-588v130z" />
    <glyph glyph-name="vertdblhorzsngbxd" unicode="&#x256b;" 
d="M-37 624h458v1331h130v-1331h130v1331h131v-1331h458v-131h-458v-1331h-131v1331h-130v-1331h-130v1331h-458v131z" />
    <glyph glyph-name="dblverthorzbxd" unicode="&#x256c;" 
d="M681 493h589v-130h-458v-1201h-131v1331zM681 1955h131v-1201h458v-130h-589v1331zM-37 493h588v-1331h-130v1201h-458v130zM-37 754h458v1201h130v-1331h-588v130z" />
    <glyph glyph-name="lightarcdnrightbxd" unicode="&#x256d;" 
d="M551 -58q0 141 54 265t146 216.5t216 146.5t266 54h37v-131h-37q-228 0 -390 -162t-162 -389v-780h-130v780z" />
    <glyph glyph-name="lightarcdnleftbxd" unicode="&#x256e;" 
d="M681 -838h-130v780q0 228 -161.5 389.5t-389.5 161.5h-37v131h37q141 0 265 -54t216 -146.5t146 -216t54 -265.5v-780z" />
    <glyph glyph-name="lightarcupleftbxd" unicode="&#x256f;" 
d="M681 1175q0 -141 -54 -265t-146 -216.5t-216 -146.5t-265 -54h-37v131h37q228 0 389.5 161.5t161.5 389.5v780h130v-780z" />
    <glyph glyph-name="lightarcuprightbxd" unicode="&#x2570;" 
d="M551 1955h130v-780q0 -227 162 -389t390 -162h37v-131h-37q-141 0 -265.5 54t-216.5 146.5t-146 216t-54 265.5v780z" />
    <glyph glyph-name="lightdiaguprightdnleftbxd" unicode="&#x2571;" 
d="M1233 1583v-127l-1157 -1921h-76v126l1156 1922h77z" />
    <glyph glyph-name="lightdiagupleftdnrightbxd" unicode="&#x2572;" 
d="M1233 -465h-77l-1156 1921v127h76l1157 -1922v-126z" />
    <glyph glyph-name="lightdiagcrossbxd" unicode="&#x2573;" 
d="M0 1583h76l540 -898l540 898h77v-127l-540 -897l540 -898v-126h-77l-540 897l-540 -897h-76v126l540 898l-540 897v127z" />
    <glyph glyph-name="lightleftbxd" unicode="&#x2574;" 
d="M-37 624h718v-131h-718v131z" />
    <glyph glyph-name="lightupbxd" unicode="&#x2575;" 
d="M551 1955h130v-1462h-130v1462z" />
    <glyph glyph-name="lightrightbxd" unicode="&#x2576;" 
d="M551 624h719v-131h-719v131z" />
    <glyph glyph-name="lightdnbxd" unicode="&#x2577;" 
d="M551 624h130v-1462h-130v1462z" />
    <glyph glyph-name="heavyleftbxd" unicode="&#x2578;" 
d="M-37 689h718v-261h-718v261z" />
    <glyph glyph-name="heavyupbxd" unicode="&#x2579;" 
d="M486 1955h261v-1462h-261v1462z" />
    <glyph glyph-name="heavyrightbxd" unicode="&#x257a;" 
d="M551 689h719v-261h-719v261z" />
    <glyph glyph-name="heavydnbxd" unicode="&#x257b;" 
d="M486 624h261v-1462h-261v1462z" />
    <glyph glyph-name="lightleftheavyrightbxd" unicode="&#x257c;" 
d="M-37 624h588v65h719v-261h-719v65h-588v131z" />
    <glyph glyph-name="lightupheavydnbxd" unicode="&#x257d;" 
d="M486 624h65v1331h130v-1331h66v-1462h-261v1462z" />
    <glyph glyph-name="heavyleftlightrightbxd" unicode="&#x257e;" 
d="M-37 689h718v-65h589v-131h-589v-65h-718v261z" />
    <glyph glyph-name="heavyuplightdnbxd" unicode="&#x257f;" 
d="M486 1955h261v-1462h-66v-1331h-130v1331h-65v1462z" />
    <glyph glyph-name="uphalfblock" unicode="&#x2580;" 
d="M0 1583h1233v-1024h-1233v1024z" />
    <glyph glyph-name="dneighthblock" unicode="&#x2581;" 
d="M0 -210h1233v-255h-1233v255z" />
    <glyph glyph-name="dnquarterblock" unicode="&#x2582;" 
d="M0 47h1233v-512h-1233v512z" />
    <glyph glyph-name="dnthreeeighthsblock" unicode="&#x2583;" 
d="M0 302h1233v-767h-1233v767z" />
    <glyph glyph-name="dnhalfblock" unicode="&#x2584;" 
d="M0 559h1233v-1024h-1233v1024z" />
    <glyph glyph-name="dnfiveeighthsblock" unicode="&#x2585;" 
d="M0 814h1233v-1279h-1233v1279z" />
    <glyph glyph-name="dnthreequartersblock" unicode="&#x2586;" 
d="M0 1071h1233v-1536h-1233v1536z" />
    <glyph glyph-name="dnseveneighthsblock" unicode="&#x2587;" 
d="M0 1326h1233v-1791h-1233v1791z" />
    <glyph glyph-name="fullblock" unicode="&#x2588;" 
d="M0 1583h1233v-2048h-1233v2048z" />
    <glyph glyph-name="leftseveneighthsblock" unicode="&#x2589;" 
d="M0 1583h1078v-2048h-1078v2048z" />
    <glyph glyph-name="leftthreequartersblock" unicode="&#x258a;" 
d="M0 1583h923v-2048h-923v2048z" />
    <glyph glyph-name="leftfiveeighthsblock" unicode="&#x258b;" 
d="M0 1583h769v-2048h-769v2048z" />
    <glyph glyph-name="lefthalfblock" unicode="&#x258c;" 
d="M0 1583h616v-2048h-616v2048z" />
    <glyph glyph-name="leftthreeeighthsblock" unicode="&#x258d;" 
d="M0 1583h462v-2048h-462v2048z" />
    <glyph glyph-name="leftquarterblock" unicode="&#x258e;" 
d="M0 1583h307v-2048h-307v2048z" />
    <glyph glyph-name="lefteighthblock" unicode="&#x258f;" 
d="M0 1583h153v-2048h-153v2048z" />
    <glyph glyph-name="righthalfblock" unicode="&#x2590;" 
d="M616 1583h617v-2048h-617v2048z" />
    <glyph glyph-name="lightshade" unicode="&#x2591;" 
d="M1210 1545h37v-56h-37v56zM1117 1452h37v-56h-37v56zM1210 1359h37v-56h-37v56zM1117 1266h37v-56h-37v56zM1210 1173h37v-56h-37v56zM1117 1080h37v-56h-37v56zM1210 987h37v-56h-37v56zM1117 894h37v-56h-37v56zM1210 801h37v-56h-37v56zM1117 707h37v-55h-37v55z
M1210 614h37v-55h-37v55zM1117 521h37v-56h-37v56zM1210 428h37v-56h-37v56zM1117 335h37v-56h-37v56zM1210 242h37v-56h-37v56zM1117 149h37v-56h-37v56zM1210 56h37v-56h-37v56zM1117 -37h37v-56h-37v56zM1210 -130h37v-56h-37v56zM1117 -223h37v-56h-37v56zM1210 -317h37
v-55h-37v55zM1117 -410h37v-55h-37v55zM1024 1545h37v-56h-37v56zM931 1452h37v-56h-37v56zM1024 1359h37v-56h-37v56zM931 1266h37v-56h-37v56zM1024 1173h37v-56h-37v56zM931 1080h37v-56h-37v56zM1024 987h37v-56h-37v56zM931 894h37v-56h-37v56zM1024 801h37v-56h-37v56
zM931 707h37v-55h-37v55zM1024 614h37v-55h-37v55zM931 521h37v-56h-37v56zM1024 428h37v-56h-37v56zM931 335h37v-56h-37v56zM1024 242h37v-56h-37v56zM931 149h37v-56h-37v56zM1024 56h37v-56h-37v56zM931 -37h37v-56h-37v56zM1024 -130h37v-56h-37v56zM931 -223h37v-56
h-37v56zM1024 -317h37v-55h-37v55zM931 -410h37v-55h-37v55zM838 1545h37v-56h-37v56zM745 1452h37v-56h-37v56zM838 1359h37v-56h-37v56zM745 1266h37v-56h-37v56zM838 1173h37v-56h-37v56zM745 1080h37v-56h-37v56zM838 987h37v-56h-37v56zM745 894h37v-56h-37v56z
M838 801h37v-56h-37v56zM745 707h37v-55h-37v55zM838 614h37v-55h-37v55zM745 521h37v-56h-37v56zM838 428h37v-56h-37v56zM745 335h37v-56h-37v56zM838 242h37v-56h-37v56zM745 149h37v-56h-37v56zM838 56h37v-56h-37v56zM745 -37h37v-56h-37v56zM838 -130h37v-56h-37v56z
M745 -223h37v-56h-37v56zM838 -317h37v-55h-37v55zM745 -410h37v-55h-37v55zM652 1545h37v-56h-37v56zM559 1452h37v-56h-37v56zM652 1359h37v-56h-37v56zM559 1266h37v-56h-37v56zM652 1173h37v-56h-37v56zM559 1080h37v-56h-37v56zM652 987h37v-56h-37v56zM559 894h37v-56
h-37v56zM652 801h37v-56h-37v56zM559 707h37v-55h-37v55zM652 614h37v-55h-37v55zM559 521h37v-56h-37v56zM652 428h37v-56h-37v56zM559 335h37v-56h-37v56zM652 242h37v-56h-37v56zM559 149h37v-56h-37v56zM652 56h37v-56h-37v56zM559 -37h37v-56h-37v56zM652 -130h37v-56
h-37v56zM559 -223h37v-56h-37v56zM652 -317h37v-55h-37v55zM559 -410h37v-55h-37v55zM465 1545h38v-56h-38v56zM372 1452h38v-56h-38v56zM465 1359h38v-56h-38v56zM372 1266h38v-56h-38v56zM465 1173h38v-56h-38v56zM372 1080h38v-56h-38v56zM465 987h38v-56h-38v56z
M372 894h38v-56h-38v56zM465 801h38v-56h-38v56zM372 707h38v-55h-38v55zM465 614h38v-55h-38v55zM372 521h38v-56h-38v56zM465 428h38v-56h-38v56zM372 335h38v-56h-38v56zM465 242h38v-56h-38v56zM372 149h38v-56h-38v56zM465 56h38v-56h-38v56zM372 -37h38v-56h-38v56z
M465 -130h38v-56h-38v56zM372 -223h38v-56h-38v56zM465 -317h38v-55h-38v55zM372 -410h38v-55h-38v55zM279 1545h38v-56h-38v56zM186 1452h37v-56h-37v56zM279 1359h38v-56h-38v56zM186 1266h37v-56h-37v56zM279 1173h38v-56h-38v56zM186 1080h37v-56h-37v56zM279 987h38
v-56h-38v56zM186 894h37v-56h-37v56zM279 801h38v-56h-38v56zM186 707h37v-55h-37v55zM279 614h38v-55h-38v55zM186 521h37v-56h-37v56zM279 428h38v-56h-38v56zM186 335h37v-56h-37v56zM279 242h38v-56h-38v56zM186 149h37v-56h-37v56zM279 56h38v-56h-38v56zM186 -37h37
v-56h-37v56zM279 -130h38v-56h-38v56zM186 -223h37v-56h-37v56zM279 -317h38v-55h-38v55zM186 -410h37v-55h-37v55zM93 1545h37v-56h-37v56zM0 1452h37v-56h-37v56zM93 1359h37v-56h-37v56zM0 1266h37v-56h-37v56zM93 1173h37v-56h-37v56zM0 1080h37v-56h-37v56zM93 987h37
v-56h-37v56zM0 894h37v-56h-37v56zM93 801h37v-56h-37v56zM0 707h37v-55h-37v55zM93 614h37v-55h-37v55zM0 521h37v-56h-37v56zM93 428h37v-56h-37v56zM0 335h37v-56h-37v56zM93 242h37v-56h-37v56zM0 149h37v-56h-37v56zM93 56h37v-56h-37v56zM0 -37h37v-56h-37v56z
M93 -130h37v-56h-37v56zM0 -223h37v-56h-37v56zM93 -317h37v-55h-37v55zM0 -410h37v-55h-37v55z" />
    <glyph glyph-name="mediumshade" unicode="&#x2592;" 
d="M1210 1583h75v-94h-75v94zM1117 1489h75v-93h-75v93zM1210 1396h75v-93h-75v93zM1117 1303h75v-93h-75v93zM1210 1210h75v-93h-75v93zM1117 1117h75v-93h-75v93zM1210 1024h75v-93h-75v93zM1117 931h75v-93h-75v93zM1210 838h75v-93h-75v93zM1117 745h75v-93h-75v93z
M1210 652h75v-93h-75v93zM1117 559h75v-94h-75v94zM1210 465h75v-93h-75v93zM1117 372h75v-93h-75v93zM1210 279h75v-93h-75v93zM1117 186h75v-93h-75v93zM1210 93h75v-93h-75v93zM1117 0h75v-93h-75v93zM1210 -93h75v-93h-75v93zM1117 -186h75v-93h-75v93zM1210 -279h75
v-93h-75v93zM1117 -372h75v-93h-75v93zM1024 1583h74v-94h-74v94zM931 1489h74v-93h-74v93zM1024 1396h74v-93h-74v93zM931 1303h74v-93h-74v93zM1024 1210h74v-93h-74v93zM931 1117h74v-93h-74v93zM1024 1024h74v-93h-74v93zM931 931h74v-93h-74v93zM1024 838h74v-93h-74
v93zM931 745h74v-93h-74v93zM1024 652h74v-93h-74v93zM931 559h74v-94h-74v94zM1024 465h74v-93h-74v93zM931 372h74v-93h-74v93zM1024 279h74v-93h-74v93zM931 186h74v-93h-74v93zM1024 93h74v-93h-74v93zM931 0h74v-93h-74v93zM1024 -93h74v-93h-74v93zM931 -186h74v-93
h-74v93zM1024 -279h74v-93h-74v93zM931 -372h74v-93h-74v93zM838 1583h74v-94h-74v94zM745 1489h74v-93h-74v93zM838 1396h74v-93h-74v93zM745 1303h74v-93h-74v93zM838 1210h74v-93h-74v93zM745 1117h74v-93h-74v93zM838 1024h74v-93h-74v93zM745 931h74v-93h-74v93z
M838 838h74v-93h-74v93zM745 745h74v-93h-74v93zM838 652h74v-93h-74v93zM745 559h74v-94h-74v94zM838 465h74v-93h-74v93zM745 372h74v-93h-74v93zM838 279h74v-93h-74v93zM745 186h74v-93h-74v93zM838 93h74v-93h-74v93zM745 0h74v-93h-74v93zM838 -93h74v-93h-74v93z
M745 -186h74v-93h-74v93zM838 -279h74v-93h-74v93zM745 -372h74v-93h-74v93zM652 1583h74v-94h-74v94zM559 1489h74v-93h-74v93zM652 1396h74v-93h-74v93zM559 1303h74v-93h-74v93zM652 1210h74v-93h-74v93zM559 1117h74v-93h-74v93zM652 1024h74v-93h-74v93zM559 931h74
v-93h-74v93zM652 838h74v-93h-74v93zM559 745h74v-93h-74v93zM652 652h74v-93h-74v93zM559 559h74v-94h-74v94zM652 465h74v-93h-74v93zM559 372h74v-93h-74v93zM652 279h74v-93h-74v93zM559 186h74v-93h-74v93zM652 93h74v-93h-74v93zM559 0h74v-93h-74v93zM652 -93h74v-93
h-74v93zM559 -186h74v-93h-74v93zM652 -279h74v-93h-74v93zM559 -372h74v-93h-74v93zM465 1583h75v-94h-75v94zM372 1489h75v-93h-75v93zM465 1396h75v-93h-75v93zM372 1303h75v-93h-75v93zM465 1210h75v-93h-75v93zM372 1117h75v-93h-75v93zM465 1024h75v-93h-75v93z
M372 931h75v-93h-75v93zM465 838h75v-93h-75v93zM372 745h75v-93h-75v93zM465 652h75v-93h-75v93zM372 559h75v-94h-75v94zM465 465h75v-93h-75v93zM372 372h75v-93h-75v93zM465 279h75v-93h-75v93zM372 186h75v-93h-75v93zM465 93h75v-93h-75v93zM372 0h75v-93h-75v93z
M465 -93h75v-93h-75v93zM372 -186h75v-93h-75v93zM465 -279h75v-93h-75v93zM372 -372h75v-93h-75v93zM279 1583h75v-94h-75v94zM186 1489h75v-93h-75v93zM279 1396h75v-93h-75v93zM186 1303h75v-93h-75v93zM279 1210h75v-93h-75v93zM186 1117h75v-93h-75v93zM279 1024h75
v-93h-75v93zM186 931h75v-93h-75v93zM279 838h75v-93h-75v93zM186 745h75v-93h-75v93zM279 652h75v-93h-75v93zM186 559h75v-94h-75v94zM279 465h75v-93h-75v93zM186 372h75v-93h-75v93zM279 279h75v-93h-75v93zM186 186h75v-93h-75v93zM279 93h75v-93h-75v93zM186 0h75v-93
h-75v93zM279 -93h75v-93h-75v93zM186 -186h75v-93h-75v93zM279 -279h75v-93h-75v93zM186 -372h75v-93h-75v93zM93 1583h75v-94h-75v94zM0 1489h74v-93h-74v93zM93 1396h75v-93h-75v93zM0 1303h74v-93h-74v93zM93 1210h75v-93h-75v93zM0 1117h74v-93h-74v93zM93 1024h75v-93
h-75v93zM0 931h74v-93h-74v93zM93 838h75v-93h-75v93zM0 745h74v-93h-74v93zM93 652h75v-93h-75v93zM0 559h74v-94h-74v94zM93 465h75v-93h-75v93zM0 372h74v-93h-74v93zM93 279h75v-93h-75v93zM0 186h74v-93h-74v93zM93 93h75v-93h-75v93zM0 0h74v-93h-74v93zM93 -93h75
v-93h-75v93zM0 -186h74v-93h-74v93zM93 -279h75v-93h-75v93zM0 -372h74v-93h-74v93z" />
    </font>
</defs>
</svg>
