<?xml version="1.0" standalone="no"?>
<!DOCTYPE svg PUBLIC "-//W3C//DTD SVG 1.1//EN" "http://www.w3.org/Graphics/SVG/1.1/DTD/svg11.dtd" >
<svg xmlns="http://www.w3.org/2000/svg">
<metadata>
Created by FontPrep 20130207 at Mon Aug 15 19:30:07 2016
 By Damien Criado
(c) Copyright The Font Bureau, Inc. 2014. All rights reserved.
</metadata>
<defs>
<font id="e6339cdfd953a210b692c1a757328e19" horiz-adv-x='1024' >
  <font-face 
    font-family="InputMonoNarrow-BlackItalic"
    font-weight="800"
    font-style="italic"
    font-stretch="semi-condensed"
    units-per-em="2048"
    panose-1="2 0 8 9 3 0 0 9 0 4"
    ascent="1583"
    descent="-465"
    x-height="1117"
    cap-height="1489"
    bbox="-560.909 -838 1821 2607"
    underline-thickness="0"
    underline-position="0"
    slope="-7"
    unicode-range="U+000D-1F41B"
  />
<missing-glyph 
d="M279 -279h674v1675h-674v-1675zM93 -465v2048h1046v-2048h-1046z" />
    <glyph glyph-name=".notdef" 
d="M279 -279h674v1675h-674v-1675zM93 -465v2048h1046v-2048h-1046z" />
    <glyph glyph-name=".null" horiz-adv-x="0" 
 />
    <glyph glyph-name="nonmarkingreturn" unicode="&#xd;" horiz-adv-x="0" 
 />
    <glyph glyph-name="NULL" horiz-adv-x="0" 
 />
    <glyph glyph-name="space" unicode="&#xa0;" 
 />
    <glyph glyph-name="space" unicode=" " 
 />
    <glyph glyph-name="exclam" unicode="!" 
d="M503 350q195 0 255.5 -39t51.5 -121l-8 -52q-18 -157 -277 -157q-260 0 -242 157l7 52q18 160 213 160zM421 559l63 930h428l-165 -930h-326z" />
    <glyph glyph-name="quotedbl" unicode="&#x22;" 
d="M181 661l39 828h400l-164 -828h-275zM758 661l39 828h400l-164 -828h-275z" />
    <glyph glyph-name="numbersign" unicode="#" 
d="M592 0l54 322h-201l-54 -322h-268l54 322h-220l30 235h231l63 376h-247l27 234h259l54 322h266l-52 -322h201l54 322h267l-54 -322h219l-28 -234h-230l-64 -376h248l-30 -235h-257l-56 -322h-266zM687 557l63 376h-201l-65 -376h203z" />
    <glyph glyph-name="dollar" unicode="$" 
d="M620 -93h-212l20 173q-256 21 -443 158l103 235q80 -60 166.5 -101.5t222.5 -54.5l37 307q-242 41 -334 124.5t-72 248.5t142 274.5t342 134.5l21 177h212l-21 -174q110 -11 213.5 -46.5t159.5 -85.5l-82 -225q-82 52 -158.5 82t-178.5 37l-36 -296q261 -45 359.5 -133.5
t77.5 -261.5t-158 -278t-361 -124zM779.5 353.5q38.5 32.5 46.5 90.5t-23.5 90t-115.5 54l-34 -273q88 6 126.5 38.5zM478.5 1128q-31.5 -30 -37.5 -80t18.5 -81.5t89.5 -52.5l32 255q-71 -11 -102.5 -41z" />
    <glyph glyph-name="percent" unicode="%" 
d="M860.5 426q-50.5 0 -73 -23t-27.5 -72l-15 -111q-12 -92 59 -92t80 92l15 111q12 95 -38.5 95zM783 -41q-135 0 -210.5 69t-56.5 214l11 86q17 145 111 215.5t229 70.5t208.5 -70.5t56.5 -215.5l-11 -86q-19 -145 -111 -214t-227 -69zM-2 391l1136 864l110 -164
l-1143 -866zM390 1046q70 0 81 92l15 113q12 93 -38.5 93t-73 -23t-28.5 -70l-15 -113q-11 -92 59 -92zM368 871q-135 0 -209.5 69t-57.5 214l11 86q17 145 111 216t229 71t208.5 -71t56.5 -216l-11 -86q-17 -145 -110 -214t-228 -69z" />
    <glyph glyph-name="ampersand" unicode="&#x26;" 
d="M475 199q82 0 141 60q-120 128 -229 331q-49 -87 -60 -195q-12 -108 27 -152t121 -44zM652 1290q-82 0 -102 -162q-14 -112 -3 -193q67 45 114 98.5t55 126.5t-7 101.5t-57 28.5zM328 -19q-150 0 -249 100t-79 275q19 138 87.5 237.5t219.5 195.5q-60 183 -44 304
q24 197 136.5 307t286.5 110t245 -96t56 -218t-94 -208.5t-310 -216.5q25 -73 46 -106q45 -97 125 -200q58 108 166 330l259 -56q-129 -237 -300 -437l281 -101l-95 -238q-166 45 -313 169q-82 -69 -178 -110t-246 -41z" />
    <glyph glyph-name="quotesingle" unicode="'" 
d="M456 661l39 828h425l-162 -828h-302z" />
    <glyph glyph-name="parenleft" unicode="(" 
d="M875 -391q-408 65 -542 324t-90 621t242 625.5t623 328.5l9 -233q-257 -65 -367 -241t-147 -474t31 -468t308 -237z" />
    <glyph glyph-name="parenright" unicode=")" 
d="M78 -391l-5 246q257 65 366.5 239t144.5 460t-30.5 471t-305.5 250l63 233q410 -65 544 -328.5t90 -625.5t-242.5 -621t-624.5 -324z" />
    <glyph glyph-name="asterisk" unicode="*" 
d="M961 508l-280 319l32 -455h-285l142 453l-354 -317l-112 253l438 172l-395 171l173 253l278 -318l-34 450h285l-143 -452l359 320l110 -253l-438 -171l395 -172z" />
    <glyph glyph-name="plus" unicode="+" 
d="M391 58l56 450h-356l34 287h355l56 451h285l-56 -451h354l-34 -287h-353l-56 -450h-285z" />
    <glyph glyph-name="comma" unicode="," 
d="M182 -289l228 829h499l-501 -829h-226z" />
    <glyph glyph-name="hyphen" unicode="&#x2011;" 
d="M91 508l37 304h995l-38 -304h-994z" />
    <glyph glyph-name="hyphen" unicode="&#x2010;" 
d="M91 508l37 304h995l-38 -304h-994z" />
    <glyph glyph-name="hyphen" unicode="&#xad;" 
d="M91 508l37 304h995l-38 -304h-994z" />
    <glyph glyph-name="hyphen" unicode="-" 
d="M91 508l37 304h995l-38 -304h-994z" />
    <glyph glyph-name="period" unicode="." 
d="M522 -19q-116 0 -183 54t-56 149l19 151q13 99 93 154t198 55t183.5 -55t52.5 -154l-19 -151q-11 -95 -91.5 -149t-196.5 -54z" />
    <glyph glyph-name="slash" unicode="/" 
d="M-6 -372l913 1861h285l-913 -1861h-285z" />
    <glyph glyph-name="zero.salt_slash" unicode="&#xe05c;" 
d="M553 233q110 0 164 88.5t82 309.5l26 220q6 37 7.5 64t3.5 53l-354 -724q31 -11 71 -11zM680 1257q-108 0 -163 -89.5t-83 -316.5l-26 -220q-8 -62 -13 -138l357 749q-32 15 -72 15zM523 -19q-253 0 -365.5 163t-77.5 452l35 290q37 290 190 456t405 166t365 -165.5
t76 -456.5l-36 -290q-35 -289 -187 -452t-405 -163z" />
    <glyph glyph-name="zero.salt_slash" unicode="0" 
d="M553 233q110 0 164 88.5t82 309.5l26 220q6 37 7.5 64t3.5 53l-354 -724q31 -11 71 -11zM680 1257q-108 0 -163 -89.5t-83 -316.5l-26 -220q-8 -62 -13 -138l357 749q-32 15 -72 15zM523 -19q-253 0 -365.5 163t-77.5 452l35 290q37 290 190 456t405 166t365 -165.5
t76 -456.5l-36 -290q-35 -289 -187 -452t-405 -163z" />
    <glyph glyph-name="one" unicode="1" 
d="M54 0l34 268h338l110 897h-50q-39 -121 -134 -193.5t-203 -75.5l17 266q132 13 247.5 103t167.5 224h354l-149 -1221h285l-34 -268h-983z" />
    <glyph glyph-name="two" unicode="2" 
d="M678 1257q-70 0 -107 -47.5t-63 -187.5l-355 19q43 246 174 356.5t386 110.5t363 -109t84 -314l-11 -80q-19 -158 -113 -241.5t-252 -158.5l-168 -74q-136 -63 -168.5 -97t-41.5 -121l-6 -45h676l-33 -268h-1036l38 309q22 179 102 275t277 187l166 74q106 50 150 83
t55 122l6 35q11 93 -21 132.5t-102 39.5z" />
    <glyph glyph-name="three" unicode="3" 
d="M518 -19q-257 0 -372.5 112t-102.5 337l363 19q-4 -127 30 -165t122 -38t126 38t50 120l9 74q17 170 -143 170h-185l32 262h184q73 0 104.5 25.5t40.5 97.5l10 79q17 132 -110 132q-65 0 -102.5 -37.5t-57.5 -128.5l-358 19q41 216 166.5 313.5t377.5 97.5t361.5 -87.5
t87.5 -273.5l-8 -49q-15 -123 -95 -197t-188 -87l-7 -54q110 -13 185 -97t59 -222l-6 -46q-28 -225 -172 -319.5t-401 -94.5z" />
    <glyph glyph-name="four" unicode="4" 
d="M1173 367h-205l-45 -367h-359l45 367h-574l32 251l601 871h438l-106 -871h205zM369 618h271l58 467z" />
    <glyph glyph-name="five" unicode="5" 
d="M518 -19q-274 0 -382 107t-89 374l363 18q-4 -151 26 -199t122 -48t128 46.5t51 159.5l10 82q13 101 -23.5 145.5t-168.5 44.5h-427l95 778h954l-30 -251h-592l-32 -259h201q440 0 389 -398l-22 -181q-22 -188 -160.5 -303.5t-412.5 -115.5z" />
    <glyph glyph-name="six" unicode="6" 
d="M552 233q90 0 129.5 54t52.5 151l5 48q13 110 -12 167.5t-115 57.5t-131.5 -57.5t-54.5 -167.5l-5 -48q-13 -106 14 -155.5t117 -49.5zM698 1508q248 0 352 -91t115 -302l-381 -43q-6 114 -31 149.5t-99 35.5t-111 -60.5t-55 -209.5l-23 -183h15q52 58 126.5 92.5
t194.5 34.5q173 0 251 -107t52 -323l-7 -67q-56 -453 -574 -453t-454 520l58 475q67 532 571 532z" />
    <glyph glyph-name="seven" unicode="7" 
d="M259 0q147 464 254 698.5t319 520.5h-676l34 270h1035l-33 -270q-216 -324 -330 -580.5t-212 -638.5h-391z" />
    <glyph glyph-name="eight" unicode="8" 
d="M555 246q95 0 132 45.5t48 132.5l6 49q11 91 -15 137.5t-121 46.5t-132 -46.5t-49 -137.5l-5 -49q-11 -88 15 -133t121 -45zM638 909q62 0 96.5 29.5t43.5 105.5l8 68q9 74 -18 103t-89 29t-97 -29t-44 -103l-7 -68q-9 -76 18 -105.5t89 -29.5zM182 1152
q44 356 528.5 356t440.5 -356l-10 -72q-13 -115 -95 -186t-190 -82l-7 -54q132 -15 197.5 -102.5t50.5 -217.5l-8 -54q-48 -403 -437 -403t-505.5 100t-92.5 303l7 54q17 134 103.5 219.5t222.5 100.5l8 54q-108 11 -171.5 81.5t-50.5 186.5z" />
    <glyph glyph-name="nine" unicode="9" 
d="M578 233q75 0 112.5 62t56.5 213l20 177h-17q-52 -58 -124.5 -92t-189.5 -34q-175 0 -254.5 107t-53.5 323l10 67q56 452 572 452t454 -519l-58 -475q-68 -533 -571 -533q-247 0 -352 92.5t-114 300.5l382 43q4 -114 28 -149t99 -35zM622 778q91 0 131 58t53 168l6 48
q13 106 -13 155.5t-117.5 49.5t-130.5 -54t-52 -151l-6 -48q-13 -110 12.5 -168t116.5 -58z" />
    <glyph glyph-name="colon" unicode=":" 
d="M522 -9q-104 0 -162 47.5t-49 134.5l15 108q9 88 80.5 136t178 48t163 -48t47.5 -136l-15 -108q-9 -88 -81.5 -135t-176.5 -47zM612 719q-104 0 -162.5 47.5t-49.5 134.5l15 108q9 88 81 136t178 48t163 -48t47 -136l-15 -108q-9 -88 -81 -135t-176 -47z" />
    <glyph glyph-name="semicolon" unicode=";" 
d="M220 -251l203 754h446l-448 -754h-201zM612 719q-104 0 -162.5 47.5t-49.5 134.5l15 108q9 88 81 136t178 48t163 -48t47 -136l-15 -108q-9 -88 -81 -135t-176 -47z" />
    <glyph glyph-name="less" unicode="&#x3c;" 
d="M972 4l-834 471l44 354l950 471l-35 -278l-747 -370l657 -371z" />
    <glyph glyph-name="equal" unicode="=" 
d="M54 214l35 287h995l-36 -287h-994zM127 802l35 287h994l-35 -287h-994z" />
    <glyph glyph-name="greater" unicode="&#x3e;" 
d="M80 4l32 260l780 388l-683 387l31 261l834 -471l-44 -354z" />
    <glyph glyph-name="question" unicode="?" 
d="M203 190q18 160 278.5 160t240.5 -160l-7 -52q-18 -157 -278 -157t-242 157zM677 1257q-98 0 -141 -51.5t-72 -183.5l-356 19q41 238 186.5 352.5t403.5 114.5t383 -122t103 -304l-7 -62q-26 -223 -217 -340.5t-606 -180.5l-6 235q261 45 358.5 112.5t112.5 181.5l4 39
q11 93 -18.5 141.5t-127.5 48.5z" />
    <glyph glyph-name="at" unicode="@" 
d="M797 856q-93 0 -110 -147l-19 -141q-13 -140 78 -140q46 0 74.5 25t35.5 100l21 160q9 76 -14 109.5t-66 33.5zM716 1508q274 0 388.5 -152.5t81.5 -430.5l-47 -374q-38 -328 -424 -328q-188 0 -267 87t-61 239l23 179q19 151 102.5 242t199.5 91q214 0 258 -139h52
q22 212 -42 312.5t-268 100.5t-303.5 -104.5t-121.5 -292.5l-60 -486q-28 -225 59.5 -350.5t324.5 -125.5q163 0 353 50l-22 -181q-192 -50 -354 -50q-320 0 -456 174t-98 465l61 504q32 259 189.5 414.5t431.5 155.5z" />
    <glyph glyph-name="A" unicode="A" 
d="M776 0l-24 344h-372l-119 -344h-322l547 1489h445l182 -1489h-337zM730 613l-45 614l-212 -614h257z" />
    <glyph glyph-name="B" unicode="B" 
d="M532 251q99 0 144 36.5t56 122.5l11 93q11 86 -26 121t-136 35h-138l-48 -408h137zM616 890q78 0 114.5 30.5t44.5 101.5l11 86q9 71 -20 100.5t-107 29.5h-143l-43 -348h143zM735 1489q227 0 330.5 -86.5t81.5 -263.5l-8 -65q-15 -119 -72.5 -178.5t-170.5 -80.5l-8 -54
q119 -13 174 -87t40 -186l-11 -97q-48 -391 -545 -391h-542l182 1489h549z" />
    <glyph glyph-name="C" unicode="C" 
d="M412 -19q-407 0 -347 494l65 532q64 501 470.5 501t515.5 -126.5t87 -411.5l-361 -19q11 177 -17 233t-126 56t-146 -60.5t-67 -207.5l-56 -464q-19 -140 14.5 -199.5t131.5 -59.5t140 54t73 228l358 -19q-47 -281 -187.5 -406t-547.5 -125z" />
    <glyph glyph-name="D" unicode="D" 
d="M527 268q108 0 156.5 63.5t68.5 236.5l43 346q22 179 -10.5 243t-140.5 64h-130l-117 -953h130zM715 1489q240 0 357.5 -148t85.5 -393l-50 -414q-30 -244 -183.5 -389t-393.5 -145h-527l182 1489h529z" />
    <glyph glyph-name="E" unicode="E" 
d="M4 0l182 1489h1039l-32 -268h-679l-37 -294h594l-34 -268h-594l-46 -391h679l-33 -268h-1039z" />
    <glyph glyph-name="F" unicode="F" 
d="M99 0l182 1489h983l-31 -268h-624l-49 -392h503l-33 -269h-503l-69 -560h-359z" />
    <glyph glyph-name="G" unicode="G" 
d="M524 -19q-248 0 -367.5 134t-87.5 378l59 499q32 246 182 381t402 135q494 0 459 -467l-363 -19q7 127 -19.5 172.5t-114.5 45.5t-129.5 -66t-60.5 -215l-52 -432q-19 -147 4.5 -212.5t118.5 -65.5t136 64.5t56 205.5h-155l34 269h513l-35 -293q-32 -249 -182 -381.5
t-398 -132.5z" />
    <glyph glyph-name="H" unicode="H" 
d="M4 0l182 1489h360l-66 -528h324l65 528h360l-183 -1489h-359l86 693h-324l-86 -693h-359z" />
    <glyph glyph-name="I" unicode="I" 
d="M4 0l33 268h341l117 953h-340l31 268h1043l-32 -268h-341l-117 -953h341l-34 -268h-1042z" />
    <glyph glyph-name="J" unicode="J" 
d="M498 -19q-270 0 -376.5 127t-82.5 421l361 20q-9 -184 18 -242t108 -58t124 51.5t59 185.5l92 735h-399l32 268h758l-123 -1011q-30 -233 -165.5 -365t-405.5 -132z" />
    <glyph glyph-name="K" unicode="K" 
d="M441 633l-78 -633h-359l182 1489h360l-73 -588h69l376 588h367l-494 -687l306 -802h-360l-221 633h-75z" />
    <glyph glyph-name="L" unicode="L" 
d="M89 0l183 1489h359l-149 -1221h598l-34 -268h-957z" />
    <glyph glyph-name="M" unicode="M" 
d="M473 456l-88 508l-78 -964h-314l182 1489h324l130 -688l294 688h317l-182 -1489h-315l154 946l-204 -490h-220z" />
    <glyph glyph-name="N" unicode="N" 
d="M633 0l-201 996l-123 -996h-305l182 1489h386l223 -1055l128 1055h306l-183 -1489h-413z" />
    <glyph glyph-name="O" unicode="O" 
d="M556 249q87 0 129.5 54t59.5 196l59 484q17 143 -11.5 200t-114.5 57t-129.5 -57t-60.5 -200l-60 -484q-17 -141 12 -195.5t116 -54.5zM523 -19q-253 0 -369.5 128.5t-88.5 355.5l67 552q28 229 177 360t401 131t368.5 -131t88.5 -360l-67 -552q-28 -227 -176 -355.5
t-401 -128.5z" />
    <glyph glyph-name="P" unicode="P" 
d="M611 722q80 0 124.5 33t55.5 131l21 162q13 101 -23.5 137t-116.5 36h-158l-62 -499h159zM724 1489q233 0 354 -101t95 -314l-28 -221q-46 -395 -545 -395h-181l-56 -458h-359l182 1489h538z" />
    <glyph glyph-name="Q" unicode="Q" 
d="M561 285q87 0 130 60.5t59 203.5l54 434q17 141 -11.5 198t-114.5 57t-129.5 -56.5t-60.5 -198.5l-54 -434q-17 -143 11.5 -203.5t115.5 -60.5zM710 1508q252 0 368.5 -131t88.5 -360l-61 -501q-26 -207 -150 -332.5t-336 -148.5q-7 -108 59 -139.5t235 0.5v-285
q-337 -48 -468 55t-89 388q-164 41 -236.5 160t-49.5 302l61 501q28 229 177 360t401 131z" />
    <glyph glyph-name="R" unicode="R" 
d="M758 1489q442 0 393 -409l-17 -132q-34 -304 -274 -388l212 -560h-374l-195 527h-75l-65 -527h-359l182 1489h572zM613 795q89 0 130 32.5t52 127.5l13 106q11 93 -20.5 126.5t-120.5 33.5h-153l-54 -426h153z" />
    <glyph glyph-name="S" unicode="S" 
d="M918 101.5q-160 -120.5 -429 -120.5t-482 144l107 268q95 -63 192.5 -103.5t213.5 -40.5t164 44.5t58 122.5t-43 112t-185 75q-220 63 -302 164.5t-58 288.5t166 318.5t397 131.5q123 0 240 -42t190 -90l-86 -255q-198 117 -361 117t-177.5 -109.5t31.5 -150t191 -82.5
q220 -67 300.5 -171.5t56.5 -302.5t-184 -318.5z" />
    <glyph glyph-name="T" unicode="T" 
d="M344 0l151 1221h-374l32 268h1111l-31 -268h-377l-150 -1221h-362z" />
    <glyph glyph-name="U" unicode="U" 
d="M524 -19q-267 0 -378.5 130.5t-78.5 404.5l119 973h360l-118 -960q-19 -153 11 -208t119.5 -55t132.5 55t61 208l117 960h360l-119 -973q-34 -274 -176.5 -404.5t-409.5 -130.5z" />
    <glyph glyph-name="V" unicode="V" 
d="M767 0h-482l-164 1489h356l82 -1212l396 1212h341z" />
    <glyph glyph-name="W" unicode="W" 
d="M633 0l-26 640l-181 -640h-311l8 1489h301l-74 -1078l194 706h234l26 -670l186 1042h302l-357 -1489h-302z" />
    <glyph glyph-name="X" unicode="X" 
d="M730 0l-160 438l-261 -438h-341l486 769l-260 720h365l135 -379l229 379h339l-452 -718l266 -771h-346z" />
    <glyph glyph-name="Y" unicode="Y" 
d="M706 0h-362l69 559l-279 930h356l141 -603l294 603h354l-504 -930z" />
    <glyph glyph-name="Z" unicode="Z" 
d="M1043 0h-1036l34 268l791 953h-674l32 268h1035l-32 -268l-778 -953h661z" />
    <glyph glyph-name="bracketleft" unicode="[" 
d="M128 -372l229 1861h788l-30 -251h-428l-168 -1361h429l-32 -249h-788z" />
    <glyph glyph-name="backslash" unicode="\" 
d="M680 -369l-457 1862l285 -4l455 -1861z" />
    <glyph glyph-name="bracketright" unicode="]" 
d="M43 -372l31 249h427l167 1361h-426l30 251h787l-229 -1861h-787z" />
    <glyph glyph-name="asciicircum" unicode="^" 
d="M801 372l-149 659l-311 -659h-339l525 1117h361l251 -1117h-338z" />
    <glyph glyph-name="underscore" unicode="_" 
d="M-19 -372l38 303h994l-37 -303h-995z" />
    <glyph glyph-name="grave" unicode="`" 
d="M681 661l-333 828h501l58 -828h-226z" />
    <glyph glyph-name="a" unicode="a" 
d="M301 -19q-132 0 -210.5 89.5t-60.5 241.5t129 233t290 81h229l16 135q9 78 -23 105.5t-102 27.5t-108 -32.5t-64 -124.5l-283 47q61 194 172.5 273t337.5 79t330.5 -89.5t82.5 -279.5l-52 -419q-9 -74 28 -92t108 -7l-30 -242q-296 -69 -337 155h-54q-63 -74 -165 -127.5
t-234 -53.5zM352 315q-14 -116 84 -116t197 58l22 188h-193q-50 0 -75.5 -26t-34.5 -104z" />
    <glyph glyph-name="b" unicode="b" 
d="M559 238q74 0 110.5 35.5t47.5 123.5l39 309q9 84 -17.5 123t-72.5 39q-88 0 -189 -92l-62 -497q70 -41 144 -41zM547 927q99 209 343 209q125 0 189 -101.5t44 -263.5l-47 -376q-24 -199 -168.5 -302.5t-395.5 -103.5q-130 0 -256 35.5t-219 94.5l168 1370h359l-69 -562
h52z" />
    <glyph glyph-name="c" unicode="c" 
d="M544 -19q-255 0 -376 111t-95 316l37 307q24 199 173 310t389 111t340.5 -107t102.5 -310l-348 -28q4 108 -25 150t-109 42t-116.5 -42t-49.5 -150l-33 -267q-13 -108 14 -149.5t108 -41.5t118 33.5t56 122.5l342 -28q-35 -186 -154 -283t-374 -97z" />
    <glyph glyph-name="d" unicode="d" 
d="M583 1128q125 0 219 -43l49 404h359l-182 -1489h-360l25 190h-53q-48 -95 -130 -152t-193 -57q-147 0 -208.5 107t-43.5 258l47 376q22 190 147.5 298t323.5 108zM624 881q-135 0 -153 -160l-39 -310q-18 -160 93 -160q88 0 184 90l62 489q-78 51 -147 51z" />
    <glyph glyph-name="e" unicode="e" 
d="M638.5 920q-85.5 0 -119 -35.5t-44.5 -126.5l-11 -88h286l10 77q13 97 -11.5 135t-110 38zM537 -19q-224 0 -357 106.5t-109 309.5l41 327q22 192 170 302t384.5 110t354.5 -112t94 -311l-28 -225h-646l-13 -116q-23 -165 137 -165q83 0 136 26t96 108l283 -78
q-80 -158 -199.5 -220t-343.5 -62z" />
    <glyph glyph-name="f" unicode="f" 
d="M979 1322q-80 0 -124.5 -40t-55.5 -133l-4 -32h370l-31 -251h-371l-152 -1238h-360l153 1238h-272l32 251h272l7 60q20 173 158 276t323 103t303 -42l-62 -227q-106 35 -186 35z" />
    <glyph glyph-name="g" unicode="g" 
d="M382 -192h260q54 0 91.5 18t45 81t-26 81t-85.5 18h-354l-11 -90q-6 -52 11 -80t69 -28zM572 596q124 0 135 121l12 89q16 116 -102.5 116t-136.5 -116l-11 -89q-6 -56 15.5 -88.5t87.5 -32.5zM626 -391h-291q-210 0 -299.5 75.5t-76.5 177.5t75.5 159t140.5 67l4 37
q-60 20 -99 62.5t-27 138.5t90.5 160.5t174.5 77.5l6 37q-88 24 -131.5 79t-32.5 135v10q19 141 146.5 216.5t300.5 75.5h611l-26 -201l-276 34l-6 -36q60 -19 97 -73t24 -126q-17 -136 -146 -210.5t-302 -74.5h-134q-123 0 -136 -89q-12 -92 110 -92h290q181 0 279 -74
t78 -227t-139 -246t-305 -93z" />
    <glyph glyph-name="h" unicode="h" 
d="M894 1136q119 0 185 -89.5t47 -240.5l-98 -806h-360l88 719q9 71 -12.5 110t-68.5 39t-101.5 -39.5t-102.5 -104.5l-89 -724h-360l183 1489h359l-69 -562h52q110 209 347 209z" />
    <glyph glyph-name="i.salt_serifs" unicode="&#xe023;" 
d="M737 251h300l-32 -251h-661l107 866h-300l31 251h661zM927 1426q-16 -138 -245 -138q-100 0 -160 31t-49 107l4 26q17 144 245 144t209 -144z" />
    <glyph glyph-name="i.salt_serifs" unicode="i" 
d="M737 251h300l-32 -251h-661l107 866h-300l31 251h661zM927 1426q-16 -138 -245 -138q-100 0 -160 31t-49 107l4 26q17 144 245 144t209 -144z" />
    <glyph glyph-name="j" unicode="j" 
d="M249 -155q116 0 177 42t75 139l102 840h-419l32 251h778l-138 -1121q-22 -179 -176 -283t-380 -104q-225 0 -337 43l61 229q109 -36 225 -36zM1061 1426q-16 -138 -245 -138q-100 0 -160 31t-49 107l4 26q17 144 245 144t209 -144z" />
    <glyph glyph-name="k" unicode="k" 
d="M449 462l-56 -462h-361l182 1489h361l-97 -795h60l307 423h365l-385 -504l242 -613h-380l-179 462h-59z" />
    <glyph glyph-name="l.salt_serifs_round" unicode="&#xe056;" 
d="M857 251q73 0 167 38l22 -246q-162 -58 -294 -58q-203 0 -312 108t-88 278l108 867h-263l30 251h624l-129 -1053q-13 -95 24.5 -140t110.5 -45z" />
    <glyph glyph-name="l.salt_serifs_round" unicode="l" 
d="M857 251q73 0 167 38l22 -246q-162 -58 -294 -58q-203 0 -312 108t-88 278l108 867h-263l30 251h624l-129 -1053q-13 -95 24.5 -140t110.5 -45z" />
    <glyph glyph-name="m" unicode="m" 
d="M635 1128q58 0 96 -38t44 -122h48q78 160 220 160q80 0 116 -67t20 -190l-107 -871h-288l100 814q12 91 -26 91q-47 0 -97 -103l-98 -802h-276l101 814q12 91 -28 91q-47 0 -95 -103l-99 -802h-288l137 1117h285l-18 -149h56q78 160 197 160z" />
    <glyph glyph-name="n" unicode="n" 
d="M902 1136q120 0 181.5 -86.5t42.5 -243.5l-98 -806h-360l92 745q7 58 -15.5 90.5t-69.5 32.5t-103 -31t-99 -89l-91 -748h-360l138 1117h359l-24 -190h52q52 99 143.5 154t211.5 55z" />
    <glyph glyph-name="o" unicode="o" 
d="M554 233q75 0 114 41t51 134l35 296q13 95 -16 137.5t-104 42.5t-113.5 -41.5t-49.5 -136.5l-35 -289q-13 -99 15 -141.5t103 -42.5zM524 -19q-234 0 -355.5 109t-97.5 301l39 328q24 194 173 305.5t383.5 111.5t353.5 -113.5t95 -313.5l-41 -325q-22 -188 -169 -295.5
t-381 -107.5z" />
    <glyph glyph-name="p" unicode="p" 
d="M605 -11q-124 0 -220 43l-50 -404h-359l184 1489h359l-24 -190h52q47 97 134.5 153t209.5 56t187 -94t47 -258l-49 -389q-22 -188 -149.5 -297t-321.5 -109zM566 236q67 0 103.5 36.5t47.5 124.5l39 322q9 76 -17.5 112.5t-72.5 36.5q-88 0 -189 -92l-60 -489
q82 -51 149 -51z" />
    <glyph glyph-name="q" unicode="q" 
d="M628 881q-73 0 -110.5 -36.5t-46.5 -123.5l-39 -308q-17 -162 93 -162q84 0 184 90l62 497q-70 43 -143 43zM302 -19q-132 0 -193.5 105.5t-43.5 259.5l47 376q24 197 168 301.5t394 104.5q119 0 259.5 -27t218.5 -79l-171 -1394h-359l71 562h-53q-41 -86 -123.5 -147.5
t-214.5 -61.5z" />
    <glyph glyph-name="r" unicode="r" 
d="M918 1136q134 0 190 -83t37 -234l-24 -205h-322l11 103q9 74 -10.5 112.5t-81.5 38.5q-138 0 -217 -136l-90 -732h-361l138 1117h361l-26 -203h50q99 222 345 222z" />
    <glyph glyph-name="s" unicode="s" 
d="M652 914q-128 0 -140 -95q-7 -54 41 -78t179 -54q195 -39 274 -116t60 -231t-163.5 -252.5t-390.5 -98.5q-138 0 -265.5 37t-211.5 95l103 214q93 -58 204.5 -92t196.5 -34t121 26t43 80t-26 80t-133 48q-214 39 -314 110t-80 229t156.5 256t350.5 98q114 0 225.5 -32
t193.5 -84l-82 -203q-180 97 -342 97z" />
    <glyph glyph-name="t" unicode="t" 
d="M819 235q89 0 185 37l3 -246q-94 -46 -303 -46t-315 105t-84 293l60 488h-233l32 251h233l44 372h361l-44 -372h368l-31 -251h-369l-54 -449q-13 -95 22.5 -138.5t124.5 -43.5z" />
    <glyph glyph-name="u" unicode="u" 
d="M287 -19q-104 0 -175 85t-51 245l99 806h359l-87 -711q-18 -155 74 -155q98 0 213 151l87 715h359l-137 -1117h-360l25 190h-53q-56 -108 -152.5 -158.5t-200.5 -50.5z" />
    <glyph glyph-name="v" unicode="v" 
d="M763 0h-478l-151 1117h337l97 -823l300 823h322z" />
    <glyph glyph-name="w" unicode="w" 
d="M657 0l-67 532l-190 -532h-307l-19 1117h302l-9 -711l169 508h194l59 -501l161 704h301l-292 -1117h-302z" />
    <glyph glyph-name="x" unicode="x" 
d="M707 0l-158 317l-218 -317h-351l443 572l-274 545h356l135 -268l177 268h354l-398 -532l294 -585h-360z" />
    <glyph glyph-name="y" unicode="y" 
d="M227 -149q86 0 143.5 44.5t102.5 171.5h-238l-138 1050h363l99 -828l318 828h350l-445 -1098q-91 -222 -220.5 -317t-347.5 -95q-109 0 -277 21l46 251q158 -28 244 -28z" />
    <glyph glyph-name="z" unicode="z" 
d="M1013 0h-976l32 251l672 615h-598l32 251h976l-32 -251l-661 -615h586z" />
    <glyph glyph-name="braceleft" unicode="{" 
d="M914 -391q-469 -6 -662.5 62t-171.5 247q9 84 42 139t101 115t96.5 94t32.5 67q11 84 -68 118.5t-306 40.5l22 178q229 6 315.5 39.5t97.5 117.5q4 32 -16.5 60.5t-74.5 74.5t-75.5 95t-11.5 129q22 184 233.5 256t678.5 66l-30 -251q-292 6 -405.5 -21.5t-123.5 -105.5
q-6 -43 16.5 -75.5t75 -73.5t75.5 -78t16 -99q-15 -115 -133.5 -164.5t-412.5 -56.5v-10q290 -19 396.5 -70t93.5 -159q-9 -67 -41 -105t-94 -79t-94 -77t-37 -90q-11 -84 96 -113t401 -23z" />
    <glyph glyph-name="bar" unicode="|" 
d="M335 -372l229 1861h287l-229 -1861h-287z" />
    <glyph glyph-name="braceright" unicode="}" 
d="M951 -82q-22 -179 -232.5 -247t-677.5 -62l32 248q289 -6 403 23t125 113q6 54 -15.5 90t-73.5 77q-54 41 -76.5 79t-12.5 105q13 108 132 159.5t413 69.5v10q-290 7 -397 56.5t-93 164.5q7 61 39.5 98.5t94.5 78.5t92.5 73.5t36.5 75.5q9 78 -99 105t-398 22l30 251
q469 6 661.5 -66t170.5 -256q-9 -80 -42 -129t-100 -95t-93 -75t-29 -60q-11 -84 68.5 -117.5t303.5 -39.5l-22 -178q-225 -6 -313 -40.5t-99 -118.5q-4 -34 15.5 -67.5t72.5 -93.5t72.5 -115t10.5 -139z" />
    <glyph glyph-name="asciitilde" unicode="~" 
d="M791 384q-161 0 -251 211q-44 102 -73 172.5t-72 70.5q-70 0 -101 -240l-24 -198h-210l26 209q30 240 121 368.5t216 128.5q165 0 253 -212q42 -102 72 -172t73 -70q67 0 91 175l28 229h211l-30 -242q-26 -209 -116.5 -319.5t-213.5 -110.5z" />
    <glyph glyph-name="exclamdown" unicode="&#xa1;" 
d="M814 931l-64 -931h-428l166 931h326zM951 1352l-5 -52q-22 -161 -282 -161t-238 161l6 52q18 156 278 156q261 0 241 -156z" />
    <glyph glyph-name="cent" unicode="&#xa2;" 
d="M406 -93l32 266q-195 24 -288.5 136t-71.5 300l36 279q22 190 147.5 297t317.5 131l32 267h212l-32 -267q186 -22 265.5 -128t82.5 -285l-333 -28q2 88 -13 133.5t-58 62.5l-82 -658q54 15 77.5 57t40.5 126l326 -28q-32 -173 -128 -275.5t-319 -121.5l-32 -264h-212z
M421 618q-11 -93 3.5 -142.5t70.5 -64.5l82 665q-60 -13 -86.5 -62.5t-39.5 -142.5z" />
    <glyph glyph-name="sterling" unicode="&#xa3;" 
d="M715 -19q-80 0 -151 33t-136 62q-54 28 -99.5 41t-101.5 -22l-169 -112l-118 214l200 118q61 39 127 123t58.5 145t-10.5 84h-255l22 184h154q-42 102 -29 193q26 209 166.5 336.5t384.5 127.5t336 -131t75 -381l-326 -19q7 117 -12 180.5t-107 63.5t-157 -84.5t5 -285.5
h221l-22 -184h-151v-73q0 -73 -62.5 -134.5t-166.5 -103.5l26 -69q97 42 137 33t65 -23t57 -14q76 0 106 56t58 184l318 -18q-47 -255 -160.5 -389.5t-282.5 -134.5z" />
    <glyph glyph-name="currency" unicode="&#xa4;" 
d="M691.5 1322q169.5 0 271.5 -78l175 165l126 -150l-201 -190q9 -37 9 -80t-5 -92l-37 -301q-7 -73 -36 -151l144 -214l-164 -151l-136 168q-113 -80 -288 -80t-276 76l-179 -173l-127 151l203 195q-18 73 -5 179l37 301q12 99 48 177l-154 194l164 151l136 -173
q125 76 294.5 76zM579 436q56 0 87.5 37t40.5 123l38 301q18 157 -92 157t-128 -157l-37 -301q-9 -86 13 -123t78 -37z" />
    <glyph glyph-name="yen" unicode="&#xa5;" 
d="M1069 186h-341l-22 -186h-362l23 186h-341l22 185h341l24 188h-340l22 184h259l-244 746h365l158 -633l317 633h353l-424 -746h259l-23 -184h-340l-25 -188h341z" />
    <glyph glyph-name="brokenbar" unicode="&#xa6;" 
d="M335 -372l93 744h287l-93 -744h-287zM473 745l91 744h287l-91 -744h-287z" />
    <glyph glyph-name="section" unicode="&#xa7;" 
d="M549 -117q71 0 127 24.5t63 88.5t-58 93.5t-175 57.5q-255 52 -372 138t-95 257q20 177 255 257q-210 111 -182 337q20 168 175.5 264.5t399.5 96.5q156 0 292 -52t235 -123l-132 -235q-104 63 -205 102.5t-213 39.5t-156 -32.5t-52 -92.5t75 -89.5t265 -69.5t282.5 -123
t77.5 -256q-21 -187 -216 -276q170 -110 144 -314q-20 -168 -175 -264.5t-399 -96.5q-156 0 -299.5 52t-229.5 123l118 251q216 -158 450 -158zM435 478q41 -32 91 -44t65.5 -15.5t32.5 -7.5q156 5 170 125q8 66 -34 97.5t-92 43.5t-65 15.5t-31 7.5q-156 -6 -170 -124
q-8 -66 33 -98z" />
    <glyph glyph-name="dieresis" unicode="&#xa8;" 
d="M1098 1426q-16 -138 -190 -138q-75 0 -120 31t-36 107l4 26q17 144 190 144q78 0 122 -33t34 -111zM648 1426q-16 -138 -191 -138q-75 0 -120 31t-35 107l3 26q17 144 190 144q78 0 122 -33t35 -111z" />
    <glyph glyph-name="copyright" unicode="&#xa9;" 
d="M544 532q0 -197 82 -197q42 0 58 36.5t22 151.5l236 -11q-13 -194 -84.5 -285t-237.5 -91q-326 0 -326 382v350q0 374 326 374q166 0 237.5 -98t84.5 -297l-236 -11q-6 123 -22 165t-58 42t-62 -46t-20 -152v-313zM617 -88q237 0 340.5 141.5t103.5 462.5v339
q0 326 -102.5 468t-340.5 142t-341.5 -142.5t-103.5 -467.5v-339q0 -320 103.5 -462t340.5 -142zM1180 478q0 -683 -564 -683t-564 683v414q0 691 564 691t564 -691v-414z" />
    <glyph glyph-name="ordfeminine" unicode="&#xaa;" 
d="M414 534q-116 0 -210 66t-77 202t122 206t278 70h220l9 78q11 86 -19.5 116.5t-94.5 30.5t-102.5 -27t-68.5 -105l-272 41q54 162 163 229t315 67t307 -77t77 -271l-33 -285q-11 -84 30.5 -104.5t131.5 -7.5l-25 -206q-283 -64 -340 124h-43q-52 -63 -152 -105t-216 -42z
M535.5 719q81.5 0 173.5 56l19 148h-201q-48 0 -74.5 -22t-32.5 -78t14 -80t101.5 -24z" />
    <glyph glyph-name="guillemotleft" unicode="&#xab;" 
d="M488 52l-469 423l44 354l574 422l-39 -311l-391 -288l320 -289zM1093 52l-467 423l44 354l572 422l-39 -311l-389 -288l318 -289z" />
    <glyph glyph-name="logicalnot" unicode="&#xac;" 
d="M737 0l64 508h-710l34 287h994l-97 -795h-285z" />
    <glyph glyph-name="registered" unicode="&#xae;" 
d="M946 1011q0 -125 -129 -173l172 -304h-255l-133 280h-29v-280h-241v767h324q291 0 291 -232v-58zM572 942h52q30 0 56 13t26 60v56q0 50 -26.5 67.5t-55.5 17.5h-52v-214zM616.5 326q219.5 0 315.5 98.5t96 325.5v319q0 231 -96 331.5t-315.5 100.5t-315.5 -100.5
t-96 -331.5v-319q0 -227 96 -325.5t315.5 -98.5zM1132 748q0 -525 -515.5 -525t-515.5 525v323q0 266 128 398t389 132q514 0 514 -530v-323z" />
    <glyph glyph-name="macron" unicode="&#x2c9;" 
d="M302 1355l33 269h778l-33 -269h-778z" />
    <glyph glyph-name="macron" unicode="&#xaf;" 
d="M302 1355l33 269h778l-33 -269h-778z" />
    <glyph glyph-name="degree" unicode="&#xb0;" 
d="M616 1272q-123 0 -123 -149v-157q0 -76 29.5 -109.5t91.5 -33.5t93.5 32.5t31.5 110.5v157q0 149 -123 149zM616.5 594q-178.5 0 -288.5 83t-110 256v223q0 173 110 259t290 86t288.5 -86t108.5 -259v-223q0 -173 -110 -256t-288.5 -83z" />
    <glyph glyph-name="plusminus" unicode="&#xb1;" 
d="M91 0l34 287h271l51 407h-356l34 287h355l56 451h285l-56 -451h354l-34 -287h-353l-51 -407h438l-34 -287h-994z" />
    <glyph glyph-name="two.sups" unicode="&#xb2;" 
d="M685 1320q-52 0 -86.5 -20.5t-47.5 -100.5l-268 13q26 145 126.5 217t298.5 72t285 -73t70 -212l-4 -37q-13 -106 -76 -170.5t-153 -83.5l-214 -46q-71 -15 -96 -33.5t-30 -57.5l-4 -27h531l-25 -195h-798l28 220q24 215 230 260l215 47q61 13 90 37t36 82
q15 69 -20.5 88.5t-87.5 19.5z" />
    <glyph glyph-name="three.sups" unicode="&#xb3;" 
d="M591 555q-393 0 -375 285l272 11q-2 -61 30.5 -82t100.5 -21t99.5 18t37.5 64l4 30q6 52 -25 71t-95 19h-197l22 191h198q58 0 85.5 14.5t34.5 68.5t-18.5 68.5t-91.5 14.5t-87.5 -15t-30.5 -61l-268 11q26 143 132 201t281 58t274 -51t82 -197q-11 -82 -62.5 -128.5
t-124.5 -57.5l-3 -34q67 -6 119 -54t39 -160q-19 -151 -131.5 -207.5t-301.5 -56.5z" />
    <glyph glyph-name="acute" unicode="&#xb4;" 
d="M452 1303l222 373h447l-438 -373h-231z" />
    <glyph glyph-name="mu1" unicode="&#xb5;" 
d="M735 140q-74 -155 -201 -155q-90 0 -124 67l-36 -424h-394l67 409l134 1080h361l-88 -715q-11 -76 11 -110q23 -34 61 -34q72 1 135 77l97 782h361l-93 -748q-9 -80 7 -104q17 -23 73 -16l-30 -242q-125 -30 -191 1t-97 132h-53z" />
    <glyph glyph-name="paragraph" unicode="&#xb6;" 
d="M544 1489h705l-229 -1861h-298l125 1005h-145l-125 -1005h-298l125 1007q-153 7 -243 93.5t-68 271.5l11 97q24 199 150 295.5t290 96.5z" />
    <glyph glyph-name="periodcentered" unicode="&#x2219;" 
d="M582 465q-116 0 -183.5 53.5t-55.5 149.5l18 151q11 97 92 152t199 55t182.5 -55t53.5 -152l-19 -151q-11 -97 -91 -150t-196 -53z" />
    <glyph glyph-name="periodcentered" unicode="&#xb7;" 
d="M582 465q-116 0 -183.5 53.5t-55.5 149.5l18 151q11 97 92 152t199 55t182.5 -55t53.5 -152l-19 -151q-11 -97 -91 -150t-196 -53z" />
    <glyph glyph-name="cedilla" unicode="&#xb8;" 
d="M410 -419q-164 0 -264 60t-90 188l303 18q0 -35 16 -49t59 -14t67 20q23 20 31 76t-4 82t-55 38l45 78q158 -15 244 -69q86 -55 69 -181q-16 -126 -136 -186q-121 -60 -285 -61z" />
    <glyph glyph-name="one.sups" unicode="&#xb9;" 
d="M279 566l24 195h233l64 512h-38q-22 -80 -89 -124.5t-142 -51.5l15 190q78 13 158.5 64t124.5 138h265l-90 -728h213l-25 -195h-713z" />
    <glyph glyph-name="ordmasculine" unicode="&#xba;" 
d="M616 748q80 0 113.5 38.5t45.5 127.5l27 224q9 76 -15 116t-104 40t-113.5 -41t-42.5 -119l-28 -220q-11 -89 13 -127.5t104 -38.5zM591 534q-193 0 -307.5 90.5t-91.5 267.5l31 253q20 179 157.5 271t329.5 92t306 -92t94 -271l-32 -253q-22 -177 -158 -267.5
t-329 -90.5z" />
    <glyph glyph-name="guillemotright" unicode="&#xbb;" 
d="M572 52l39 311l391 289l-321 288l40 311l469 -422l-45 -354zM-34 52l40 311l389 289l-319 288l39 311l468 -422l-45 -354z" />
    <glyph glyph-name="onequarter" unicode="&#xbc;" 
d="M307 -30h231l32 252zM944 -210h-158l-23 -181h-270l23 181h-434l22 180l442 432h316l-54 -432h158zM665 493l18 162l525 38l-29 -237zM-17 456l30 237l538 -38l-19 -162zM296 767l19 162h232l45 359h-37q-21 -75 -88 -124q-67 -46 -141 -52l13 189q133 22 197 90.5
t86 112.5h266l-71 -575h211l-19 -162h-713z" />
    <glyph glyph-name="onehalf" unicode="&#xbd;" 
d="M504 231q-71 0 -81 -84l-268 13q18 117 119 177q104 58 298.5 58t287.5 -58q88 -62 75 -173l-6 -37q-7 -76 -69 -133q-69 -52 -153 -68l-214 -47q-67 -14 -91 -29q-25 -15 -31 -45h528l-24 -196h-799l23 181q12 98 67 158q54 60 162 84l214 46q93 19 106 41t17 41v9
q6 53 -42 57.5t-119 4.5zM665 493l18 162l525 38l-29 -237zM-17 456l30 237l538 -38l-19 -162zM296 767l19 162h232l45 359h-37q-21 -75 -88 -124q-67 -46 -141 -52l13 189q133 22 197 90.5t86 112.5h266l-71 -575h211l-19 -162h-713z" />
    <glyph glyph-name="threequarters" unicode="&#xbe;" 
d="M315 -30h231l31 252zM950 -210h-159l-22 -181h-268l22 181h-435l22 180l441 432h317l-54 -432h158zM665 493l18 162l525 38l-29 -237zM-17 456l30 237l538 -38l-19 -162zM700 1512q292 0 331.5 -64t31.5 -129t-58 -101q-40 -35 -109 -49l-4 -33q62 -9 97 -37
q64 -51 54 -123t-67 -148t-349 -76q-403 0 -391 248l272 11q0 -58 30 -80q40 -19 107 -19t96 14q28 14 32 46l3 30q4 37 -28 52t-95 15h-202l20 158h203q87 0 101 20t17 44q7 53 -35 57t-87 4t-78 -11q-13 -7 -30 -45l-268 11q42 205 406 205z" />
    <glyph glyph-name="questiondown" unicode="&#xbf;" 
d="M553 233q97 0 139.5 51t72.5 183l360 -18q-43 -242 -191 -355t-405 -113t-382 124t-102 303l7 61q28 222 219 340t604 181l8 -234q-266 -47 -361.5 -115t-110.5 -179l-3 -39q-11 -93 18.5 -141.5t126.5 -48.5zM1033 1352l-5 -52q-22 -161 -281 -161t-237 161l6 52
q18 156 277 156q260 0 240 -156z" />
    <glyph glyph-name="Agrave" unicode="&#xc0;" 
d="M776 0l-24 344h-372l-119 -344h-322l547 1489h445l182 -1489h-337zM730 613l-45 614l-212 -614h257zM691 1676l-345 372h445l131 -372h-231z" />
    <glyph glyph-name="Aacute" unicode="&#xc1;" 
d="M776 0l-24 344h-372l-119 -344h-322l547 1489h445l182 -1489h-337zM730 613l-45 614l-212 -614h257zM493 1676l222 372h447l-438 -372h-231z" />
    <glyph glyph-name="Acircumflex" unicode="&#xc2;" 
d="M776 0l-24 344h-372l-119 -344h-322l547 1489h445l182 -1489h-337zM730 613l-45 614l-212 -614h257zM378 1650l-91 152l352 294h275l281 -294l-126 -151l-324 198z" />
    <glyph glyph-name="Atilde" unicode="&#xc3;" 
d="M776 0l-24 344h-372l-119 -344h-322l547 1489h445l182 -1489h-337zM730 613l-45 614l-212 -614h257zM894 1694q-128 0 -189 88q-25 36 -45 64t-50 27q-72 0 -89 -132l-3 -28h-228l4 28q20 155 108 257t216 102q121 0 187 -88q27 -36 47 -64t50 -28t52 26q23 26 33 106
l3 28h228l-4 -28q-20 -156 -106 -257t-214 -101z" />
    <glyph glyph-name="Adieresis" unicode="&#xc4;" 
d="M776 0l-24 344h-372l-119 -344h-322l547 1489h445l182 -1489h-337zM730 613l-45 614l-212 -614h257zM987 1968q78 0 122 -33t34 -110l-4 -26q-16 -138 -190 -138q-75 1 -120 31t-36 107l4 26q16 143 190 143zM536 1968q78 0 122 -33t35 -110l-4 -26q-16 -138 -191 -138
q-75 1 -120 31t-35 107l3 26q16 143 190 143z" />
    <glyph glyph-name="Aring" unicode="&#xc5;" 
d="M776 0l-24 344h-372l-119 -344h-322l547 1489h445l182 -1489h-337zM730 613l-45 614l-212 -614h257zM740 1797q59 0 93 27t44 94l7 59q14 127 -106 127t-136 -127l-7 -59q-9 -67 19 -94t86 -27zM721 1631q-166 0 -259 71t-75 216l8 59q19 147 128 220q110 73 276 73
t259 -73t74 -220l-7 -59q-19 -145 -129 -216t-275 -71z" />
    <glyph glyph-name="AE" unicode="&#xc6;" 
d="M529 344h-218l-116 -344h-249l521 1489h803l-30 -249h-296l-39 -315h259l-30 -249h-259l-54 -427h296l-30 -249h-601zM611 1240l-216 -646h164l80 646h-28z" />
    <glyph glyph-name="Ccedilla" unicode="&#xc7;" 
d="M736 1508q272 0 380 -127q109 -127 87 -411l-361 -19q11 177 -17 233t-126 56t-146 -61t-67 -207l-56 -464q-19 -140 14 -200q34 -60 132 -59q98 0 140 54t73 228l358 -19q-47 -281 -187 -406q-71 -63 -176 -94q2 -1 4 -3q86 -55 70 -181t-137 -186t-285 -61
q-164 0 -264 60t-90 188l303 18q0 -35 16 -49t59 -14t67 20q23 20 31 76t0 74t-20 27q-533 4 -473 494l65 532q65 501 606 501z" />
    <glyph glyph-name="Egrave" unicode="&#xc8;" 
d="M747 1676l-345 372h445l130 -372h-230zM4 0l182 1489h1039l-32 -268h-679l-37 -294h594l-34 -268h-594l-46 -391h679l-33 -268h-1039z" />
    <glyph glyph-name="Eacute" unicode="&#xc9;" 
d="M546 1670l221 372h447l-438 -372h-230zM4 0l182 1489h1039l-32 -268h-679l-37 -294h594l-34 -268h-594l-46 -391h679l-33 -268h-1039z" />
    <glyph glyph-name="Ecircumflex" unicode="&#xca;" 
d="M393 1650l-91 152l351 294h276l281 -294l-126 -151l-324 198zM4 0l182 1489h1039l-32 -268h-679l-37 -294h594l-34 -268h-594l-46 -391h679l-33 -268h-1039z" />
    <glyph glyph-name="Edieresis" unicode="&#xcb;" 
d="M4 0l182 1489h1039l-32 -268h-679l-37 -294h594l-34 -268h-594l-46 -391h679l-33 -268h-1039zM1015 1968q78 0 122 -33t34 -110l-4 -26q-16 -138 -191 -138q-75 1 -120 31t-35 107l4 26q16 143 190 143zM564 1968q78 0 122 -33t35 -110l-4 -26q-16 -138 -191 -138
q-75 1 -120 31t-35 107l3 26q16 143 190 143z" />
    <glyph glyph-name="Igrave" unicode="&#xcc;" 
d="M4 0l33 268h341l117 953h-340l31 268h1043l-32 -268h-341l-117 -953h341l-34 -268h-1042zM691 1676l-345 372h445l131 -372h-231z" />
    <glyph glyph-name="Iacute" unicode="&#xcd;" 
d="M4 0l33 268h341l117 953h-340l31 268h1043l-32 -268h-341l-117 -953h341l-34 -268h-1042zM493 1676l222 372h447l-438 -372h-231z" />
    <glyph glyph-name="Icircumflex" unicode="&#xce;" 
d="M4 0l33 268h341l117 953h-340l31 268h1043l-32 -268h-341l-117 -953h341l-34 -268h-1042zM378 1650l-91 152l352 294h275l281 -294l-126 -151l-324 198z" />
    <glyph glyph-name="Idieresis" unicode="&#xcf;" 
d="M4 0l33 268h341l117 953h-340l31 268h1043l-32 -268h-341l-117 -953h341l-34 -268h-1042zM987 1968q78 0 122 -33t34 -110l-4 -26q-16 -138 -190 -138q-75 1 -120 31t-36 107l4 26q16 143 190 143zM536 1968q78 0 122 -33t35 -110l-4 -26q-16 -138 -191 -138
q-75 1 -120 31t-35 107l3 26q16 143 190 143z" />
    <glyph glyph-name="Eth" unicode="&#xd0;" 
d="M527 268q108 0 156.5 63.5t68.5 236.5l43 346q22 179 -10.5 243t-140.5 64h-130l-37 -292h162l-26 -218h-162l-54 -443h130zM715 1489q240 0 357.5 -148t85.5 -393l-50 -414q-30 -244 -183.5 -389t-393.5 -145h-527l87 711h-89l26 218h89l69 560h529z" />
    <glyph glyph-name="Ntilde" unicode="&#xd1;" 
d="M890 1694q-128 0 -189 88q-25 36 -45 64t-50 27q-73 0 -88 -132l-4 -28h-227l3 28q20 155 108 257t214 102t190 -89q26 -35 46 -63t50 -28t52 26q23 26 33 106l4 28h227l-4 -28q-20 -156 -106 -257t-214 -101zM633 0l-201 996l-123 -996h-305l182 1489h386l223 -1055
l128 1055h306l-183 -1489h-413z" />
    <glyph glyph-name="Ograve" unicode="&#xd2;" 
d="M691 1676l-345 372h445l131 -372h-231zM556 249q88 0 130 54t59 196l59 484q17 143 -11 200q-29 57 -115 57t-130 -57t-60 -200l-60 -484q-17 -141 12 -195t116 -55zM523 -19q-253 1 -369 129t-89 355l67 552q28 229 177 360t401 131t368 -131t89 -360l-67 -552
q-28 -227 -176 -355t-401 -129z" />
    <glyph glyph-name="Oacute" unicode="&#xd3;" 
d="M544 1676l221 372h447l-437 -372h-231zM556 249q88 0 130 54t59 196l59 484q17 143 -11 200q-29 57 -115 57t-130 -57t-60 -200l-60 -484q-17 -141 12 -195t116 -55zM523 -19q-253 1 -369 129t-89 355l67 552q28 229 177 360t401 131t368 -131t89 -360l-67 -552
q-28 -227 -176 -355t-401 -129z" />
    <glyph glyph-name="Ocircumflex" unicode="&#xd4;" 
d="M378 1650l-91 152l352 294h275l281 -294l-126 -151l-324 198zM556 249q88 0 130 54t59 196l59 484q17 143 -11 200q-29 57 -115 57t-130 -57t-60 -200l-60 -484q-17 -141 12 -195t116 -55zM523 -19q-253 1 -369 129t-89 355l67 552q28 229 177 360t401 131t368 -131
t89 -360l-67 -552q-28 -227 -176 -355t-401 -129z" />
    <glyph glyph-name="Otilde" unicode="&#xd5;" 
d="M894 1694q-128 0 -189 88q-25 36 -45 64t-50 27q-72 0 -89 -132l-3 -28h-228l4 28q20 155 108 257t216 102q121 0 187 -88q27 -36 47 -64t50 -28t52 26q23 26 33 106l3 28h228l-4 -28q-20 -156 -106 -257t-214 -101zM556 249q88 0 130 54t59 196l59 484q17 143 -11 200
q-29 57 -115 57t-130 -57t-60 -200l-60 -484q-17 -141 12 -195t116 -55zM523 -19q-253 1 -369 129t-89 355l67 552q28 229 177 360t401 131t368 -131t89 -360l-67 -552q-28 -227 -176 -355t-401 -129z" />
    <glyph glyph-name="Odieresis" unicode="&#xd6;" 
d="M987 1968q78 0 122 -33t34 -110l-4 -26q-16 -138 -190 -138q-75 1 -120 31t-36 107l4 26q16 143 190 143zM536 1968q78 0 122 -33t35 -110l-4 -26q-16 -138 -191 -138q-75 1 -120 31t-35 107l3 26q16 143 190 143zM556 249q88 0 130 54t59 196l59 484q17 143 -11 200
q-29 57 -115 57t-130 -57t-60 -200l-60 -484q-17 -141 12 -195t116 -55zM523 -19q-253 1 -369 129t-89 355l67 552q28 229 177 360t401 131t368 -131t89 -360l-67 -552q-28 -227 -176 -355t-401 -129z" />
    <glyph glyph-name="multiply" unicode="&#xd7;" 
d="M240 61l-171 170l352 421l-246 415l210 177l242 -408l345 406l169 -171l-352 -419l248 -419l-210 -172l-244 406z" />
    <glyph glyph-name="Oslash" unicode="&#xd8;" 
d="M711 1508q89 0 147 -15l93 183h248l-140 -283q138 -138 105 -410l-60 -484q-30 -244 -179 -381t-402 -137q-59 0 -147 13l-89 -180h-248l140 277q-145 133 -110 408l59 484q30 246 180 385.5t403 139.5zM555 249q112 0 162 61.5t69 221.5l48 395q2 17 3 24.5t3 24.5
l-352 -719q34 -8 67 -8zM678 1240q-112 0 -162.5 -64t-68.5 -226l-52 -418q-4 -26 -4 -48l356 747q-20 9 -69 9z" />
    <glyph glyph-name="Ugrave" unicode="&#xd9;" 
d="M691 1676l-345 372h445l131 -372h-231zM524 -19q-267 1 -379 131t-78 404l119 973h360l-118 -960q-19 -153 11 -208q29 -55 119 -55t133 55t61 208l117 960h360l-119 -973q-34 -274 -176 -404t-410 -131z" />
    <glyph glyph-name="Uacute" unicode="&#xda;" 
d="M493 1676l222 372h447l-438 -372h-231zM524 -19q-267 1 -379 131t-78 404l119 973h360l-118 -960q-19 -153 11 -208q29 -55 119 -55t133 55t61 208l117 960h360l-119 -973q-34 -274 -176 -404t-410 -131z" />
    <glyph glyph-name="Ucircumflex" unicode="&#xdb;" 
d="M378 1650l-91 152l352 294h275l281 -294l-126 -151l-324 198zM524 -19q-267 1 -379 131t-78 404l119 973h360l-118 -960q-19 -153 11 -208q29 -55 119 -55t133 55t61 208l117 960h360l-119 -973q-34 -274 -176 -404t-410 -131z" />
    <glyph glyph-name="Udieresis" unicode="&#xdc;" 
d="M524 -19q-267 1 -379 131t-78 404l119 973h360l-118 -960q-19 -153 11 -208q29 -55 119 -55t133 55t61 208l117 960h360l-119 -973q-34 -274 -176 -404t-410 -131zM987 1968q78 0 122 -33t34 -110l-4 -26q-16 -138 -190 -138q-75 1 -120 31t-36 107l4 26q16 143 190 143z
M536 1968q78 0 122 -33t35 -110l-4 -26q-16 -138 -191 -138q-75 1 -120 31t-35 107l3 26q16 143 190 143z" />
    <glyph glyph-name="Yacute" unicode="&#xdd;" 
d="M706 0h-362l69 559l-279 930h356l141 -603l294 603h354l-504 -930zM493 1676l222 372h447l-438 -372h-231z" />
    <glyph glyph-name="Thorn" unicode="&#xde;" 
d="M557 497q101 0 147 33.5t57 117.5l23 190q11 88 -27 123t-139 35h-132l-62 -499h133zM696 1264q244 0 358.5 -107t90.5 -310l-28 -221q-22 -190 -162.5 -291.5t-382.5 -101.5h-181l-28 -233h-359l182 1489h360l-28 -225h178z" />
    <glyph glyph-name="germandbls" unicode="&#xdf;" 
d="M501 296q105 -99 199 -99t104 97q7 52 -42.5 80t-125.5 70q-161 89 -137 278q15 125 85.5 208t184.5 111q13 121 -24.5 169.5t-102.5 48.5t-114.5 -48.5t-63.5 -166.5l-175 -1416h-341l179 1443q24 205 166.5 319t369.5 114t340.5 -134t87.5 -344l-17 -136
q-254 -4 -268 -115q-7 -58 43 -90t112 -67q170 -105 149 -275q-20 -169 -130.5 -261.5t-272.5 -92.5q-78 0 -162.5 29t-136.5 77z" />
    <glyph glyph-name="agrave" unicode="&#xe0;" 
d="M301 -19q-132 -1 -211 89q-78 90 -60 242t129 232q111 82 290 82h229l16 135q9 78 -23 106q-33 27 -103 27t-107 -33q-38 -33 -64 -124l-283 47q61 194 173 273t337 79t330 -90t83 -279l-52 -419q-9 -74 28 -92t108 -7l-30 -242q-298 -70 -337 155h-54q-63 -74 -165 -128
t-234 -53zM438 199q94 0 195 58l22 188h-193q-50 0 -76 -26t-34 -104q-14 -116 86 -116zM635 1303l-345 373h445l131 -373h-231z" />
    <glyph glyph-name="aacute" unicode="&#xe1;" 
d="M301 -19q-132 -1 -211 89q-78 90 -60 242t129 232q111 82 290 82h229l16 135q9 78 -23 106q-33 27 -103 27t-107 -33q-38 -33 -64 -124l-283 47q61 194 173 273t337 79t330 -90t83 -279l-52 -419q-9 -74 28 -92t108 -7l-30 -242q-298 -70 -337 155h-54q-63 -74 -165 -128
t-234 -53zM438 199q94 0 195 58l22 188h-193q-50 0 -76 -26t-34 -104q-14 -116 86 -116zM438 1303l221 373h447l-438 -373h-230z" />
    <glyph glyph-name="acircumflex" unicode="&#xe2;" 
d="M301 -19q-132 -1 -211 89q-78 90 -60 242t129 232q111 82 290 82h229l16 135q9 78 -23 106q-33 27 -103 27t-107 -33q-38 -33 -64 -124l-283 47q61 194 173 273t337 79t330 -90t83 -279l-52 -419q-9 -74 28 -92t108 -7l-30 -242q-298 -70 -337 155h-54q-63 -74 -165 -128
t-234 -53zM438 199q94 0 195 58l22 188h-193q-50 0 -76 -26t-34 -104q-14 -116 86 -116zM320 1277l-91 153l352 294h275l282 -294l-127 -151l-324 197z" />
    <glyph glyph-name="atilde" unicode="&#xe3;" 
d="M301 -19q-132 -1 -211 89q-78 90 -60 242t129 232q111 82 290 82h229l16 135q9 78 -23 106q-33 27 -103 27t-107 -33q-38 -33 -64 -124l-283 47q61 194 173 273t337 79t330 -90t83 -279l-52 -419q-9 -74 28 -92t108 -7l-30 -242q-298 -70 -337 155h-54q-63 -74 -165 -128
t-234 -53zM438 199q94 0 195 58l22 188h-193q-50 0 -76 -26t-34 -104q-14 -116 86 -116zM649 1410q-25 36 -45 63q-20 28 -50 28t-55 -26q-24 -26 -34 -107l-3 -27h-227l3 27q20 156 108 258t216 102q122 0 187 -88q27 -36 47 -65q20 -28 50 -28q69 0 85 132l4 28h227
l-4 -28q-20 -157 -106 -257t-214 -100q-127 0 -189 88z" />
    <glyph glyph-name="adieresis" unicode="&#xe4;" 
d="M301 -19q-132 -1 -211 89q-78 90 -60 242t129 232q111 82 290 82h229l16 135q9 78 -23 106q-33 27 -103 27t-107 -33q-38 -33 -64 -124l-283 47q61 194 173 273t337 79t330 -90t83 -279l-52 -419q-9 -74 28 -92t108 -7l-30 -242q-298 -70 -337 155h-54q-63 -74 -165 -128
t-234 -53zM438 199q94 0 195 58l22 188h-193q-50 0 -76 -26t-34 -104q-14 -116 86 -116zM1084 1426q-16 -138 -191 -138q-75 0 -120 31t-36 107l4 26q17 144 190 144q78 0 122 -33t34 -111zM633 1426q-16 -138 -191 -138q-75 0 -120 31t-35 107l3 26q17 144 190 144
q78 0 122 -33t35 -111z" />
    <glyph glyph-name="aring" unicode="&#xe5;" 
d="M301 -19q-132 -1 -211 89q-78 90 -60 242t129 232q111 82 290 82h229l16 135q9 78 -23 106q-33 27 -103 27t-107 -33q-38 -33 -64 -124l-283 47q61 194 173 273t337 79t330 -90t83 -279l-52 -419q-9 -74 28 -92t108 -7l-30 -242q-298 -70 -337 155h-54q-63 -74 -165 -128
t-234 -53zM438 199q94 0 195 58l22 188h-193q-50 0 -76 -26t-34 -104q-14 -116 86 -116zM666 1424q59 0 93 27t43 94l8 60q14 128 -106 126q-120 0 -136 -126l-8 -60q-9 -67 19 -94t87 -27zM646 1259q-166 1 -259 71t-74 215l7 60q19 147 129 220q109 73 275 73t259 -74
q93 -72 75 -219l-8 -60q-19 -145 -128 -216q-110 -70 -276 -70z" />
    <glyph glyph-name="ae" unicode="&#xe6;" 
d="M397 447q-50 0 -76.5 -29t-34.5 -95q-15 -126 51 -126q51 0 112 49l24 201h-76zM862 922q-60 0 -80 -164l-11 -90h152l12 88q11 89 -1 127.5t-72 38.5zM782 205q64 0 102 121l241 -45q-58 -149 -152 -224.5t-213 -75.5q-80 0 -138 39.5t-84 115.5h-60q-32 -69 -96.5 -112
t-150.5 -43q-123 0 -189 79.5t-47 239.5t115.5 243t246.5 83h138l15 121q11 86 -3.5 117.5t-54.5 31.5t-62.5 -32t-59.5 -123l-248 47q61 181 149.5 264.5t219.5 83.5q171 0 210 -140q50 69 121 104.5t147 35.5q134 0 205 -104.5t46 -310.5l-29 -233h-403l-16 -138
q-7 -63 2 -104t48 -41z" />
    <glyph glyph-name="ccedilla" unicode="&#xe7;" 
d="M498 -419q-164 0 -264 60t-91 188l304 18q0 -35 16 -49t59 -14q42 0 66 20t32 76t-2 75t-21 28q-28 -2 -59 -2q-249 0 -370 111t-95 316l37 307q24 199 173 310t389 111t340 -107q101 -107 103 -310l-348 -28q4 108 -25 150t-109 42t-116 -42t-50 -150l-33 -267
q-13 -108 14 -150t108 -41q81 -1 118 33t56 123l342 -28q-49 -258 -250 -337q14 -7 27 -15q86 -55 70 -181t-136 -186t-285 -61z" />
    <glyph glyph-name="egrave" unicode="&#xe8;" 
d="M659 1303l-344 373h445l130 -373h-231zM638 920q-86 0 -118 -36q-34 -36 -45 -126l-11 -88h286l10 77q12 97 -12 135t-110 38zM666 1136q236 0 355 -112q118 -112 94 -311l-28 -225h-646l-13 -116q-22 -166 138 -166q82 0 135 27q53 26 96 108l283 -78
q-80 -157 -199 -219t-343 -62t-358 106q-133 106 -109 309l41 327q22 192 170 302t384 110z" />
    <glyph glyph-name="eacute" unicode="&#xe9;" 
d="M499 1303l222 373h446l-437 -373h-231zM638 920q-86 0 -118 -36q-34 -36 -45 -126l-11 -88h286l10 77q12 97 -12 135t-110 38zM666 1136q236 0 355 -112q118 -112 94 -311l-28 -225h-646l-13 -116q-22 -166 138 -166q82 0 135 27q53 26 96 108l283 -78
q-80 -157 -199 -219t-343 -62t-358 106q-133 106 -109 309l41 327q22 192 170 302t384 110z" />
    <glyph glyph-name="ecircumflex" unicode="&#xea;" 
d="M346 1277l-91 153l352 294h276l281 -294l-127 -151l-324 197zM638 920q-86 0 -118 -36q-34 -36 -45 -126l-11 -88h286l10 77q12 97 -12 135t-110 38zM666 1136q236 0 355 -112q118 -112 94 -311l-28 -225h-646l-13 -116q-22 -166 138 -166q82 0 135 27q53 26 96 108
l283 -78q-80 -157 -199 -219t-343 -62t-358 106q-133 106 -109 309l41 327q22 192 170 302t384 110z" />
    <glyph glyph-name="edieresis" unicode="&#xeb;" 
d="M638 920q-86 0 -118 -36q-34 -36 -45 -126l-11 -88h286l10 77q12 97 -12 135t-110 38zM666 1136q236 0 355 -112q118 -112 94 -311l-28 -225h-646l-13 -116q-22 -166 138 -166q82 0 135 27q53 26 96 108l283 -78q-80 -157 -199 -219t-343 -62t-358 106q-133 106 -109 309
l41 327q22 192 170 302t384 110zM1108 1426q-16 -138 -191 -138q-75 0 -120 31t-36 107l4 26q17 144 190 144q78 0 122 -33t35 -111zM657 1426q-16 -138 -191 -138q-75 0 -120 31t-35 107l4 26q17 144 190 144q78 0 122 -33t34 -111z" />
    <glyph glyph-name="igrave.salt_serifs" unicode="&#xe025;" 
d="M737 251h300l-32 -251h-661l107 866h-300l31 251h661zM655 1303l-344 373h445l130 -373h-231z" />
    <glyph glyph-name="igrave.salt_serifs" unicode="&#xec;" 
d="M737 251h300l-32 -251h-661l107 866h-300l31 251h661zM655 1303l-344 373h445l130 -373h-231z" />
    <glyph glyph-name="iacute.salt_serifs" unicode="&#xe026;" 
d="M737 251h300l-32 -251h-661l107 866h-300l31 251h661zM458 1303l222 373h446l-437 -373h-231z" />
    <glyph glyph-name="iacute.salt_serifs" unicode="&#xed;" 
d="M737 251h300l-32 -251h-661l107 866h-300l31 251h661zM458 1303l222 373h446l-437 -373h-231z" />
    <glyph glyph-name="icircumflex.salt_serifs" unicode="&#xe027;" 
d="M737 251h300l-32 -251h-661l107 866h-300l31 251h661zM343 1277l-92 153l352 294h276l281 -294l-127 -151l-324 197z" />
    <glyph glyph-name="icircumflex.salt_serifs" unicode="&#xee;" 
d="M737 251h300l-32 -251h-661l107 866h-300l31 251h661zM343 1277l-92 153l352 294h276l281 -294l-127 -151l-324 197z" />
    <glyph glyph-name="idieresis.salt_serifs" unicode="&#xe028;" 
d="M737 251h300l-32 -251h-661l107 866h-300l31 251h661zM1104 1426q-16 -138 -191 -138q-75 0 -120 31t-35 107l3 26q17 144 190 144q78 0 122 -33t35 -111zM653 1426q-16 -138 -190 -138q-75 0 -120 31t-36 107l4 26q17 144 190 144q78 0 122 -33t34 -111z" />
    <glyph glyph-name="idieresis.salt_serifs" unicode="&#xef;" 
d="M737 251h300l-32 -251h-661l107 866h-300l31 251h661zM1104 1426q-16 -138 -191 -138q-75 0 -120 31t-35 107l3 26q17 144 190 144q78 0 122 -33t35 -111zM653 1426q-16 -138 -190 -138q-75 0 -120 31t-36 107l4 26q17 144 190 144q78 0 122 -33t34 -111z" />
    <glyph glyph-name="eth" unicode="&#xf0;" 
d="M554 233q88 0 130 42.5t53 130.5l15 117q9 78 -23.5 116.5t-119.5 38.5t-127.5 -38.5t-49.5 -116.5l-15 -117q-11 -88 19 -130.5t118 -42.5zM523 -19q-233 0 -364 110t-103 335l13 101q22 184 143 294t294 110q106 0 171.5 -41t83.5 -97h36q7 214 -127 330l-290 -134
l22 182l101 47q-91 42 -229 82l262 229q207 -64 328 -144l262 121l-22 -182l-108 -51q182 -203 134 -588l-30 -247q-30 -238 -187 -347.5t-390 -109.5z" />
    <glyph glyph-name="ntilde" unicode="&#xf1;" 
d="M699 1410q-25 36 -45 63q-20 28 -50 28q-73 0 -88 -133l-4 -27h-227l4 27q20 156 108 258t216 102q122 0 187 -88q26 -36 46 -65q20 -28 50 -28q70 0 85 132l4 28h227l-4 -28q-20 -157 -106 -257t-214 -100q-127 0 -189 88zM902 1136q120 0 182 -87t42 -243l-98 -806
h-360l92 745q7 59 -15 91q-21 32 -69 32t-104 -31t-99 -89l-91 -748h-360l138 1117h359l-24 -190h52q51 99 143 154t212 55z" />
    <glyph glyph-name="ograve" unicode="&#xf2;" 
d="M650 1303l-345 373h445l131 -373h-231zM554 233q75 0 114 41t51 134l35 296q13 95 -16 138q-29 42 -104 42q-76 0 -114 -42t-49 -136l-35 -289q-13 -99 15 -141t103 -43zM524 -19q-234 0 -356 109t-97 301l39 328q24 193 173 305t384 112t353 -114t95 -313l-41 -325
q-22 -188 -169 -296t-381 -107z" />
    <glyph glyph-name="oacute" unicode="&#xf3;" 
d="M452 1303l222 373h447l-438 -373h-231zM554 233q75 0 114 41t51 134l35 296q13 95 -16 138q-29 42 -104 42q-76 0 -114 -42t-49 -136l-35 -289q-13 -99 15 -141t103 -43zM524 -19q-234 0 -356 109t-97 301l39 328q24 193 173 305t384 112t353 -114t95 -313l-41 -325
q-22 -188 -169 -296t-381 -107z" />
    <glyph glyph-name="ocircumflex" unicode="&#xf4;" 
d="M337 1277l-91 153l352 294h275l281 -294l-126 -151l-324 197zM554 233q75 0 114 41t51 134l35 296q13 95 -16 138q-29 42 -104 42q-76 0 -114 -42t-49 -136l-35 -289q-13 -99 15 -141t103 -43zM524 -19q-234 0 -356 109t-97 301l39 328q24 193 173 305t384 112t353 -114
t95 -313l-41 -325q-22 -188 -169 -296t-381 -107z" />
    <glyph glyph-name="otilde" unicode="&#xf5;" 
d="M664 1410q-25 36 -45 63q-21 28 -51 28t-54 -26t-34 -107l-3 -27h-228l4 27q20 156 108 258t216 102q122 0 187 -88q27 -36 47 -65q19 -28 49 -28q69 0 86 132l4 28h227l-4 -28q-20 -157 -106 -257t-214 -100q-127 0 -189 88zM554 233q75 0 114 41t51 134l35 296
q13 95 -16 138q-29 42 -104 42q-76 0 -114 -42t-49 -136l-35 -289q-13 -99 15 -141t103 -43zM524 -19q-234 0 -356 109t-97 301l39 328q24 193 173 305t384 112t353 -114t95 -313l-41 -325q-22 -188 -169 -296t-381 -107z" />
    <glyph glyph-name="odieresis" unicode="&#xf6;" 
d="M1098 1426q-16 -138 -190 -138q-75 0 -120 31t-36 107l4 26q17 144 190 144q78 0 122 -33t34 -111zM648 1426q-16 -138 -191 -138q-75 0 -120 31t-35 107l3 26q17 144 190 144q78 0 122 -33t35 -111zM554 233q75 0 114 41t51 134l35 296q13 95 -16 138q-29 42 -104 42
q-76 0 -114 -42t-49 -136l-35 -289q-13 -99 15 -141t103 -43zM524 -19q-234 0 -356 109t-97 301l39 328q24 193 173 305t384 112t353 -114t95 -313l-41 -325q-22 -188 -169 -296t-381 -107z" />
    <glyph glyph-name="divide" unicode="&#xf7;" 
d="M568 348q80 0 124.5 -35.5t35.5 -109.5l-4 -39q-17 -140 -146 -140t-175.5 33.5t-37.5 106.5l4 39q9 74 64 109.5t135 35.5zM93 525l30 253h994l-30 -253h-994zM681 1279q80 0 126 -35.5t36 -109.5l-5 -39q-17 -140 -146.5 -140t-176 33.5t-37.5 106.5l6 39
q9 74 63 109.5t134 35.5z" />
    <glyph glyph-name="oslash" unicode="&#xf8;" 
d="M667 1136q57 0 148 -13l108 180h209l-145 -245q82 -52 121 -146.5t26 -205.5l-37 -302q-24 -197 -177 -310t-397 -113q-61 0 -149 13l-108 -180h-208l143 244q-82 52 -122 144t-25 202l37 302q24 199 178 314.5t398 115.5zM551 216q112 0 162 49.5t63 164.5l34 268
q8 74 -6 110l-331 -585q30 -7 78 -7zM717 892q-43 9 -82 9q-112 0 -161.5 -52t-62.5 -155l-33 -264q-8 -78 4 -123z" />
    <glyph glyph-name="ugrave" unicode="&#xf9;" 
d="M674 1303l-344 373h445l130 -373h-231zM287 -19q-104 0 -175 85t-51 245l99 806h359l-87 -711q-18 -155 74 -155q98 0 213 151l87 715h359l-137 -1117h-360l25 190h-53q-56 -108 -152 -158t-201 -51z" />
    <glyph glyph-name="uacute" unicode="&#xfa;" 
d="M540 1303l221 373h447l-437 -373h-231zM287 -19q-104 0 -175 85t-51 245l99 806h359l-87 -711q-18 -155 74 -155q98 0 213 151l87 715h359l-137 -1117h-360l25 190h-53q-56 -108 -152 -158t-201 -51z" />
    <glyph glyph-name="ucircumflex" unicode="&#xfb;" 
d="M356 1277l-92 153l352 294h276l281 -294l-127 -151l-324 197zM287 -19q-104 0 -175 85t-51 245l99 806h359l-87 -711q-18 -155 74 -155q98 0 213 151l87 715h359l-137 -1117h-360l25 190h-53q-56 -108 -152 -158t-201 -51z" />
    <glyph glyph-name="udieresis" unicode="&#xfc;" 
d="M287 -19q-104 0 -175 85t-51 245l99 806h359l-87 -711q-18 -155 74 -155q98 0 213 151l87 715h359l-137 -1117h-360l25 190h-53q-56 -108 -152 -158t-201 -51zM1117 1426q-16 -138 -191 -138q-75 0 -120 31t-35 107l4 26q17 144 189 144q78 0 122 -33t35 -111zM667 1426
q-16 -138 -191 -138q-75 0 -120 31t-36 107l4 26q17 144 190 144q78 0 122 -33t34 -111z" />
    <glyph glyph-name="yacute" unicode="&#xfd;" 
d="M214 -393q-90 0 -277 21l46 251q146 -26 238 -27t149 43t103 172h-238l-138 1050h363l99 -828l318 828h350l-445 -1098q-90 -222 -220 -317t-348 -95zM465 1303l222 373h447l-438 -373h-231z" />
    <glyph glyph-name="thorn" unicode="&#xfe;" 
d="M547 927q101 209 341 209q123 0 189 -95t48 -257l-49 -389q-22 -188 -149.5 -297t-321.5 -109q-124 0 -220 43l-50 -404h-359l229 1861h359l-69 -562h52zM666 868q-88 0 -189 -92l-60 -489q76 -49 145 -49t107 36.5t48 122.5l39 322q9 76 -17.5 112.5t-72.5 36.5z" />
    <glyph glyph-name="ydieresis" unicode="&#xff;" 
d="M214 -393q-90 0 -277 21l46 251q146 -26 238 -27t149 43t103 172h-238l-138 1050h363l99 -828l318 828h350l-445 -1098q-90 -222 -220 -317t-348 -95zM1098 1426q-16 -138 -190 -138q-75 0 -120 31t-36 107l4 26q17 144 190 144q78 0 122 -33t34 -111zM648 1426
q-16 -138 -191 -138q-75 0 -120 31t-35 107l3 26q17 144 190 144q78 0 122 -33t35 -111z" />
    <glyph glyph-name="Amacron" unicode="&#x100;" 
d="M776 0l-24 344h-372l-119 -344h-322l547 1489h445l182 -1489h-337zM730 613l-45 614l-212 -614h257zM343 1728l33 268h778l-33 -268h-778z" />
    <glyph glyph-name="amacron" unicode="&#x101;" 
d="M301 -19q-132 -1 -211 89q-78 90 -60 242t129 232q111 82 290 82h229l16 135q9 78 -23 106q-33 27 -103 27t-107 -33q-38 -33 -64 -124l-283 47q61 194 173 273t337 79t330 -90t83 -279l-52 -419q-9 -74 28 -92t108 -7l-30 -242q-298 -70 -337 155h-54q-63 -74 -165 -128
t-234 -53zM438 199q94 0 195 58l22 188h-193q-50 0 -76 -26t-34 -104q-14 -116 86 -116zM268 1355l34 269h778l-34 -269h-778z" />
    <glyph glyph-name="Abreve" unicode="&#x102;" 
d="M776 0l-24 344h-372l-119 -344h-322l547 1489h445l182 -1489h-337zM730 613l-45 614l-212 -614h257zM724 1663q-233 0 -334 109t-75 332h285q-13 -128 19 -178q33 -49 131 -49t145 49q46 49 62 178h285q-30 -223 -158 -332t-360 -109z" />
    <glyph glyph-name="abreve" unicode="&#x103;" 
d="M301 -19q-132 -1 -211 89q-78 90 -60 242t129 232q111 82 290 82h229l16 135q9 78 -23 106q-33 27 -103 27t-107 -33q-38 -33 -64 -124l-283 47q61 194 173 273t337 79t330 -90t83 -279l-52 -419q-9 -74 28 -92t108 -7l-30 -242q-298 -70 -337 155h-54q-63 -74 -165 -128
t-234 -53zM438 199q94 0 195 58l22 188h-193q-50 0 -76 -26t-34 -104q-14 -116 86 -116zM650 1290q-233 0 -334 109t-76 332h285q-13 -128 20 -177q33 -50 131 -50t144 50t63 177h284q-30 -223 -157 -332t-360 -109z" />
    <glyph glyph-name="Aogonek" unicode="&#x104;" 
d="M730 613l-45 614l-212 -614h257zM930 -174q26 -24 92 -23q66 0 170 18l-27 -212q-120 -24 -248 -24q-128 -1 -204 59t-61 176t110 201q6 5 12 11l-22 312h-372l-119 -344h-322l547 1489h445l182 -1489h-161q-34 -34 -42 -92q-7 -58 20 -82z" />
    <glyph glyph-name="aogonek" unicode="&#x105;" 
d="M301 -19q-132 -1 -211 89q-78 90 -60 242t129 232q111 82 290 82h229l16 135q9 78 -23 106q-33 27 -103 27t-107 -33q-38 -33 -64 -124l-283 47q61 194 173 273t337 79t330 -90t83 -279l-52 -419q-9 -74 28 -92t108 -7l-30 -242q-106 -25 -179 -13q-31 -34 -38 -89
q-8 -55 20 -79t93 -23q65 0 169 18l-26 -212q-130 -26 -227 -24q-149 -1 -225 59t-62 176q18 148 173 249q-25 37 -35 93h-54q-63 -74 -165 -128t-234 -53zM438 199q94 0 195 58l22 188h-193q-50 0 -76 -26t-34 -104q-14 -116 86 -116z" />
    <glyph glyph-name="Cacute" unicode="&#x106;" 
d="M547 -19q-542 0 -482 494l65 532q64 501 605 501q272 0 381 -127t87 -411l-361 -19q11 177 -17 233t-126 56t-146 -61t-67 -207l-56 -464q-19 -140 14 -200q34 -60 132 -59q98 0 140 54t73 228l358 -19q-47 -281 -187 -406t-413 -125zM551 1676l222 372h446l-437 -372
h-231z" />
    <glyph glyph-name="cacute" unicode="&#x107;" 
d="M544 -19q-255 0 -376 111t-95 316l37 307q24 199 173 310t389 111t340 -107q101 -107 103 -310l-348 -28q4 108 -25 150t-109 42t-116 -42t-50 -150l-33 -267q-13 -108 14 -150t108 -41q81 -1 118 33t56 123l342 -28q-35 -186 -154 -283t-374 -97zM538 1303l222 373h446
l-437 -373h-231z" />
    <glyph glyph-name="Ccircumflex" unicode="&#x108;" 
d="M404 1650l-91 152l352 294h275l281 -294l-126 -151l-324 198zM547 -19q-542 0 -482 494l65 532q64 501 605 501q272 0 381 -127t87 -411l-361 -19q11 177 -17 233t-126 56t-146 -61t-67 -207l-56 -464q-19 -140 14 -200q34 -60 132 -59q98 0 140 54t73 228l358 -19
q-47 -281 -187 -406t-413 -125z" />
    <glyph glyph-name="ccircumflex" unicode="&#x109;" 
d="M346 1277l-91 153l352 294h276l281 -294l-127 -151l-324 197zM544 -19q-255 0 -376 111t-95 316l37 307q24 199 173 310t389 111t340 -107q101 -107 103 -310l-348 -28q4 108 -25 150t-109 42t-116 -42t-50 -150l-33 -267q-13 -108 14 -150t108 -41q81 -1 118 33t56 123
l342 -28q-35 -186 -154 -283t-374 -97z" />
    <glyph glyph-name="Cdotaccent" unicode="&#x10a;" 
d="M547 -19q-542 0 -482 494l65 532q64 501 605 501q272 0 381 -127t87 -411l-361 -19q11 177 -17 233t-126 56t-146 -61t-67 -207l-56 -464q-19 -140 14 -200q34 -60 132 -59q98 0 140 54t73 228l358 -19q-47 -281 -187 -406t-413 -125zM544 1825q16 143 245 143
q228 0 209 -143l-4 -26q-16 -138 -245 -138q-99 1 -159 31t-50 107z" />
    <glyph glyph-name="cdotaccent" unicode="&#x10b;" 
d="M544 -19q-255 0 -376 111t-95 316l37 307q24 199 173 310t389 111t340 -107q101 -107 103 -310l-348 -28q4 108 -25 150t-109 42t-116 -42t-50 -150l-33 -267q-13 -108 14 -150t108 -41q81 -1 118 33t56 123l342 -28q-35 -186 -154 -283t-374 -97zM938 1426
q-16 -138 -245 -138q-99 0 -159 31t-50 107l4 26q17 144 245 144t209 -144z" />
    <glyph glyph-name="Ccaron" unicode="&#x10c;" 
d="M616 1683l-281 294l127 151l324 -197l366 199l92 -153l-352 -294h-276zM547 -19q-542 0 -482 494l65 532q64 501 605 501q272 0 381 -127t87 -411l-361 -19q11 177 -17 233t-126 56t-146 -61t-67 -207l-56 -464q-19 -140 14 -200q34 -60 132 -59q98 0 140 54t73 228
l358 -19q-47 -281 -187 -406t-413 -125z" />
    <glyph glyph-name="ccaron" unicode="&#x10d;" 
d="M560 1311l-281 294l127 151l324 -198l367 200l91 -153l-352 -294h-276zM544 -19q-255 0 -376 111t-95 316l37 307q24 199 173 310t389 111t340 -107q101 -107 103 -310l-348 -28q4 108 -25 150t-109 42t-116 -42t-50 -150l-33 -267q-13 -108 14 -150t108 -41
q81 -1 118 33t56 123l342 -28q-35 -186 -154 -283t-374 -97z" />
    <glyph glyph-name="Dcaron" unicode="&#x10e;" 
d="M590 1683l-281 294l127 151l324 -197l366 199l92 -153l-352 -294h-276zM527 268q108 0 156 63t69 237l43 346q22 179 -10 243q-33 64 -141 64h-130l-117 -953h130zM715 1489q240 0 357 -148t86 -393l-50 -414q-30 -244 -184 -389t-393 -145h-527l182 1489h529z" />
    <glyph glyph-name="dcaron" unicode="&#x10f;" 
d="M1233 1313l148 549h440l-389 -549h-199zM583 1128q125 0 219 -43l49 404h359l-182 -1489h-360l25 190h-53q-48 -95 -130 -152t-193 -57q-147 0 -209 107q-61 107 -43 258l47 376q22 190 148 298t323 108zM624 881q-69 -1 -106 -39t-47 -121l-39 -310q-18 -160 93 -160
q88 0 184 90l62 489q-78 51 -147 51z" />
    <glyph glyph-name="Dcroat" unicode="&#x110;" 
d="M527 268q108 0 156.5 63.5t68.5 236.5l43 346q22 179 -10.5 243t-140.5 64h-130l-37 -292h162l-26 -218h-162l-54 -443h130zM715 1489q240 0 357.5 -148t85.5 -393l-50 -414q-30 -244 -183.5 -389t-393.5 -145h-527l87 711h-89l26 218h89l69 560h529z" />
    <glyph glyph-name="dcroat" unicode="&#x111;" 
d="M555 1002q127 0 231 -49l20 170h-266l22 182h267l22 184h359l-22 -184h171l-22 -182h-172l-137 -1123h-360l25 190h-53q-41 -86 -124.5 -147.5t-216.5 -61.5t-192.5 104.5t-41.5 260.5l30 250q24 190 146 298t314 108zM520 251q88 0 189 90l47 366q-83 47 -151 47
q-67 0 -103.5 -37t-47.5 -123l-22 -184q-9 -80 15.5 -119.5t72.5 -39.5z" />
    <glyph glyph-name="Emacron" unicode="&#x112;" 
d="M4 0l182 1489h1039l-32 -268h-679l-37 -294h594l-34 -268h-594l-46 -391h679l-33 -268h-1039zM357 1728l34 268h778l-33 -268h-779z" />
    <glyph glyph-name="emacron" unicode="&#x113;" 
d="M638 920q-86 0 -118 -36q-34 -36 -45 -126l-11 -88h286l10 77q12 97 -12 135t-110 38zM666 1136q236 0 355 -112q118 -112 94 -311l-28 -225h-646l-13 -116q-22 -166 138 -166q82 0 135 27q53 26 96 108l283 -78q-80 -157 -199 -219t-343 -62t-358 106q-133 106 -109 309
l41 327q22 192 170 302t384 110zM311 1355l33 269h779l-34 -269h-778z" />
    <glyph glyph-name="Ebreve" unicode="&#x114;" 
d="M4 0l182 1489h1039l-32 -268h-679l-37 -294h594l-34 -268h-594l-46 -391h679l-33 -268h-1039zM739 1663q-233 0 -334 109t-75 332h284q-13 -128 20 -178q34 -50 132 -49q98 0 144 49t62 178h285q-29 -223 -157 -332t-361 -109z" />
    <glyph glyph-name="ebreve" unicode="&#x115;" 
d="M638 920q-86 0 -118 -36q-34 -36 -45 -126l-11 -88h286l10 77q12 97 -12 135t-110 38zM666 1136q236 0 355 -112q118 -112 94 -311l-28 -225h-646l-13 -116q-22 -166 138 -166q82 0 135 27q53 26 96 108l283 -78q-80 -157 -199 -219t-343 -62t-358 106q-133 106 -109 309
l41 327q22 192 170 302t384 110zM674 1290q-233 0 -334 109t-76 332h285q-13 -128 20 -177q33 -50 131 -50t144 50t63 177h285q-30 -223 -158 -332t-360 -109z" />
    <glyph glyph-name="Edotaccent" unicode="&#x116;" 
d="M776 1968q100 0 160 -33t51 -110l-4 -26q-16 -138 -245 -138q-100 1 -160 31t-49 107l3 26q16 143 244 143zM4 0l182 1489h1039l-32 -268h-679l-37 -294h594l-34 -268h-594l-46 -391h679l-33 -268h-1039z" />
    <glyph glyph-name="edotaccent" unicode="&#x117;" 
d="M936 1426q-16 -138 -244 -138q-100 0 -160 31t-50 107l4 26q17 144 245 144t209 -144zM638 920q-86 0 -118 -36q-34 -36 -45 -126l-11 -88h286l10 77q12 97 -12 135t-110 38zM666 1136q236 0 355 -112q118 -112 94 -311l-28 -225h-646l-13 -116q-22 -166 138 -166
q82 0 135 27q53 26 96 108l283 -78q-80 -157 -199 -219t-343 -62t-358 106q-133 106 -109 309l41 327q22 192 170 302t384 110z" />
    <glyph glyph-name="Eogonek" unicode="&#x118;" 
d="M756 -174q28 -24 93 -23q65 0 169 18l-26 -212q-120 -24 -248 -24q-128 -1 -204 59t-62 169t89 187h-563l182 1489h1039l-32 -268h-679l-37 -294h594l-34 -268h-594l-46 -391h679l-33 -268h-264q-33 -33 -42 -92q-9 -58 19 -82z" />
    <glyph glyph-name="eogonek" unicode="&#x119;" 
d="M666 1136q236 0 355 -112q118 -112 94 -311l-28 -225h-646l-13 -116q-22 -166 138 -166q82 0 135 27q53 26 96 108l283 -78q-80 -158 -199 -220q-60 -31 -148 -47q-32 -35 -39 -90q-14 -103 96 -103q81 0 186 18l-26 -212q-120 -24 -248 -24q-128 -1 -205 59t-63 164
t73 174q-203 6 -331 109t-105 306l41 327q22 192 170 302t384 110zM638 920q-86 0 -118 -36q-34 -36 -45 -126l-11 -88h286l10 77q12 97 -12 135t-110 38z" />
    <glyph glyph-name="Ecaron" unicode="&#x11a;" 
d="M603 1683l-281 294l127 151l324 -197l366 199l92 -153l-352 -294h-276zM4 0l182 1489h1039l-32 -268h-679l-37 -294h594l-34 -268h-594l-46 -391h679l-33 -268h-1039z" />
    <glyph glyph-name="ecaron" unicode="&#x11b;" 
d="M559 1311l-282 294l127 151l324 -198l367 200l91 -153l-352 -294h-275zM638 920q-86 0 -118 -36q-34 -36 -45 -126l-11 -88h286l10 77q12 97 -12 135t-110 38zM666 1136q236 0 355 -112q118 -112 94 -311l-28 -225h-646l-13 -116q-22 -166 138 -166q82 0 135 27
q53 26 96 108l283 -78q-80 -157 -199 -219t-343 -62t-358 106q-133 106 -109 309l41 327q22 192 170 302t384 110z" />
    <glyph glyph-name="Gcircumflex" unicode="&#x11c;" 
d="M374 1650l-91 152l352 294h275l282 -294l-127 -151l-324 198zM524 -19q-248 0 -368 134q-119 134 -87 378l59 499q32 246 182 381t402 135q494 0 459 -467l-363 -19q7 126 -20 172q-26 46 -114 46t-130 -66t-60 -215l-52 -432q-20 -147 4 -212t119 -65t136 64t56 205
h-155l34 269h513l-35 -293q-32 -249 -182 -381t-398 -133z" />
    <glyph glyph-name="gcircumflex" unicode="&#x11d;" 
d="M357 1277l-91 153l352 294h276l281 -294l-127 -151l-324 197zM382 -192h260q54 0 92 18q37 18 44 81t-26 81q-34 18 -85 18h-354l-11 -90q-6 -52 11 -80t69 -28zM572 596q124 0 135 121l12 89q16 116 -104 116q-119 0 -135 -116l-11 -89q-7 -57 15 -89t88 -32zM626 -391
h-291q-210 0 -300 75q-89 75 -76 178q13 104 75 160t141 66l4 37q-60 20 -99 63q-39 42 -27 138t90 160t175 78l6 37q-88 24 -132 79t-32 135v10q19 141 146 217q128 75 301 75h611l-26 -201l-276 34l-6 -36q60 -19 97 -74t24 -125q-17 -136 -146 -210t-302 -75h-134
q-121 0 -136 -89q-6 -47 24 -69t86 -23h290q181 0 279 -74t78 -227t-138 -246q-120 -93 -306 -93z" />
    <glyph glyph-name="Gbreve" unicode="&#x11e;" 
d="M721 1663q-233 0 -335 109q-101 109 -75 332h285q-13 -128 19 -178q33 -49 132 -49t145 49t61 178h285q-30 -223 -157 -332t-360 -109zM524 -19q-248 0 -368 134q-119 134 -87 378l59 499q32 246 182 381t402 135q494 0 459 -467l-363 -19q7 126 -20 172q-26 46 -114 46
t-130 -66t-60 -215l-52 -432q-20 -147 4 -212t119 -65t136 64t56 205h-155l34 269h513l-35 -293q-32 -249 -182 -381t-398 -133z" />
    <glyph glyph-name="gbreve" unicode="&#x11f;" 
d="M683 1290q-233 0 -334 109t-75 332h285q-13 -128 19 -177q32 -50 132 -50q98 0 144 50t62 177h285q-29 -223 -157 -332t-361 -109zM382 -192h260q54 0 92 18q37 18 44 81t-26 81q-34 18 -85 18h-354l-11 -90q-6 -52 11 -80t69 -28zM572 596q124 0 135 121l12 89
q16 116 -104 116q-119 0 -135 -116l-11 -89q-7 -57 15 -89t88 -32zM626 -391h-291q-210 0 -300 75q-89 75 -76 178q13 104 75 160t141 66l4 37q-60 20 -99 63q-39 42 -27 138t90 160t175 78l6 37q-88 24 -132 79t-32 135v10q19 141 146 217q128 75 301 75h611l-26 -201
l-276 34l-6 -36q60 -19 97 -74t24 -125q-17 -136 -146 -210t-302 -75h-134q-121 0 -136 -89q-6 -47 24 -69t86 -23h290q181 0 279 -74t78 -227t-138 -246q-120 -93 -306 -93z" />
    <glyph glyph-name="Gdotaccent" unicode="&#x120;" 
d="M778 1968q100 0 160 -33t51 -110l-4 -26q-16 -138 -245 -138q-100 1 -160 31t-49 107l3 26q16 143 244 143zM524 -19q-248 0 -368 134q-119 134 -87 378l59 499q32 246 182 381t402 135q494 0 459 -467l-363 -19q7 126 -20 172q-26 46 -114 46t-130 -66t-60 -215
l-52 -432q-20 -147 4 -212t119 -65t136 64t56 205h-155l34 269h513l-35 -293q-32 -249 -182 -381t-398 -133z" />
    <glyph glyph-name="gdotaccent" unicode="&#x121;" 
d="M927 1426q-16 -138 -245 -138q-100 0 -160 31t-49 107l4 26q17 144 245 144t209 -144zM382 -192h260q54 0 92 18q37 18 44 81t-26 81q-34 18 -85 18h-354l-11 -90q-6 -52 11 -80t69 -28zM572 596q124 0 135 121l12 89q16 116 -104 116q-119 0 -135 -116l-11 -89
q-7 -57 15 -89t88 -32zM626 -391h-291q-210 0 -300 75q-89 75 -76 178q13 104 75 160t141 66l4 37q-60 20 -99 63q-39 42 -27 138t90 160t175 78l6 37q-88 24 -132 79t-32 135v10q19 141 146 217q128 75 301 75h611l-26 -201l-276 34l-6 -36q60 -19 97 -74t24 -125
q-17 -136 -146 -210t-302 -75h-134q-121 0 -136 -89q-6 -47 24 -69t86 -23h290q181 0 279 -74t78 -227t-138 -246q-120 -93 -306 -93z" />
    <glyph glyph-name="Gcommaaccent" unicode="&#x122;" 
d="M169 -559l153 373h445l-367 -373h-231zM524 -19q-248 0 -368 134q-119 134 -87 378l59 499q32 246 182 381t402 135q494 0 459 -467l-363 -19q7 126 -20 172q-26 46 -114 46t-130 -66t-60 -215l-52 -432q-20 -147 4 -212t119 -65t136 64t56 205h-155l34 269h513l-35 -293
q-32 -249 -182 -381t-398 -133z" />
    <glyph glyph-name="gcommaaccent" unicode="&#x123;" 
d="M382 -192h260q54 0 92 18q37 18 44 81t-26 81q-34 18 -85 18h-354l-11 -90q-6 -52 11 -80t69 -28zM572 596q124 0 135 121l12 89q16 116 -104 116q-119 0 -135 -116l-11 -89q-7 -57 15 -89t88 -32zM626 -391h-291q-210 0 -300 75q-89 75 -76 178q13 104 75 160t141 66
l4 37q-60 20 -99 63q-39 42 -27 138t90 160t175 78l6 37q-88 24 -132 79t-32 135v10q19 141 146 217q128 75 301 75h611l-26 -201l-276 34l-6 -36q60 -19 97 -74t24 -125q-17 -136 -146 -210t-302 -75h-134q-121 0 -136 -89q-6 -47 24 -69t86 -23h290q181 0 279 -74t78 -227
t-138 -246q-120 -93 -306 -93zM451 1303l366 373h233l-154 -373h-445z" />
    <glyph glyph-name="Hcircumflex" unicode="&#x124;" 
d="M4 0l182 1489h360l-66 -528h324l65 528h360l-183 -1489h-359l86 693h-324l-86 -693h-359zM378 1650l-91 152l352 294h275l281 -294l-126 -151l-324 198z" />
    <glyph glyph-name="hcircumflex" unicode="&#x125;" 
d="M894 1136q119 0 185 -90t47 -240l-98 -806h-360l88 719q9 71 -12 110q-20 39 -68 39t-102 -39t-103 -105l-89 -724h-360l183 1489h359l-69 -562h52q110 209 347 209zM71 1650l-91 152l351 294h276l281 -294l-127 -151l-323 198z" />
    <glyph glyph-name="Hbar" unicode="&#x126;" 
d="M439 516l-63 -516h-359l126 1026h-123l27 218h122l30 245h360l-30 -245h298l29 245h362l-30 -245h121l-26 -218h-121l-127 -1026h-361l63 516h-298zM473 784h298l30 242h-298z" />
    <glyph glyph-name="hbar" unicode="&#x127;" 
d="M877 1009q117 0 185 -89.5t50 -234.5l-84 -685h-360l73 588q19 153 -76 153q-46 0 -102.5 -41t-108.5 -112l-72 -588h-360l138 1123h-171l22 182h171l23 184h359l-22 -184h266l-22 -182h-267l-39 -322h52q50 99 139 153.5t206 54.5z" />
    <glyph glyph-name="Itilde" unicode="&#x128;" 
d="M4 0l33 268h341l117 953h-340l31 268h1043l-32 -268h-341l-117 -953h341l-34 -268h-1042zM894 1694q-128 0 -189 88q-25 36 -45 64t-50 27q-72 0 -89 -132l-3 -28h-228l4 28q20 155 108 257t216 102q121 0 187 -88q27 -36 47 -64t50 -28t52 26q23 26 33 106l3 28h228
l-4 -28q-20 -156 -106 -257t-214 -101z" />
    <glyph glyph-name="itilde.salt_serifs" unicode="&#xe029;" 
d="M737 251h300l-32 -251h-661l107 866h-300l31 251h661zM669 1410q-25 36 -44 63q-20 28 -51 28t-55 -26t-33 -107l-4 -27h-227l4 27q20 156 108 258t216 102q122 0 187 -88q26 -36 46 -65q20 -28 50 -28q70 0 85 132l4 28h227l-3 -28q-21 -157 -107 -257t-214 -100
q-127 0 -189 88z" />
    <glyph glyph-name="itilde.salt_serifs" unicode="&#x129;" 
d="M737 251h300l-32 -251h-661l107 866h-300l31 251h661zM669 1410q-25 36 -44 63q-20 28 -51 28t-55 -26t-33 -107l-4 -27h-227l4 27q20 156 108 258t216 102q122 0 187 -88q26 -36 46 -65q20 -28 50 -28q70 0 85 132l4 28h227l-3 -28q-21 -157 -107 -257t-214 -100
q-127 0 -189 88z" />
    <glyph glyph-name="Imacron" unicode="&#x12a;" 
d="M4 0l33 268h341l117 953h-340l31 268h1043l-32 -268h-341l-117 -953h341l-34 -268h-1042zM343 1728l33 268h778l-33 -268h-778z" />
    <glyph glyph-name="imacron.salt_serifs" unicode="&#xe02a;" 
d="M737 251h300l-32 -251h-661l107 866h-300l31 251h661zM307 1355l34 269h778l-34 -269h-778z" />
    <glyph glyph-name="imacron.salt_serifs" unicode="&#x12b;" 
d="M737 251h300l-32 -251h-661l107 866h-300l31 251h661zM307 1355l34 269h778l-34 -269h-778z" />
    <glyph glyph-name="Ibreve" unicode="&#x12c;" 
d="M4 0l33 268h341l117 953h-340l31 268h1043l-32 -268h-341l-117 -953h341l-34 -268h-1042zM724 1663q-233 0 -334 109t-75 332h285q-13 -128 19 -178q33 -49 131 -49t145 49q46 49 62 178h285q-30 -223 -158 -332t-360 -109z" />
    <glyph glyph-name="ibreve.salt_serifs" unicode="&#xe02b;" 
d="M737 251h300l-32 -251h-661l107 866h-300l31 251h661zM689 1290q-233 0 -334 109t-76 332h285q-13 -128 20 -177q34 -50 132 -50t144 50t62 177h284q-30 -223 -157 -332t-360 -109z" />
    <glyph glyph-name="ibreve.salt_serifs" unicode="&#x12d;" 
d="M737 251h300l-32 -251h-661l107 866h-300l31 251h661zM689 1290q-233 0 -334 109t-76 332h285q-13 -128 20 -177q34 -50 132 -50t144 50t62 177h284q-30 -223 -157 -332t-360 -109z" />
    <glyph glyph-name="Iogonek" unicode="&#x12e;" 
d="M630 -174q26 -24 92 -23q66 0 170 18l-26 -212q-130 -26 -227 -24q-149 0 -226 59q-76 60 -62 169t89 187h-436l33 268h341l117 953h-340l31 268h1043l-32 -268h-341l-117 -953h341l-34 -268h-393q-36 -36 -43 -93t20 -81z" />
    <glyph glyph-name="iogonek.salt_serifs" unicode="&#xe02c;" 
d="M518 -174q28 -24 93 -23q65 0 169 18l-26 -212q-120 -24 -248 -24q-128 -1 -204 59t-62 175t107 198l104 849h-300l31 251h661l-106 -866h300l-32 -251h-464q-35 -35 -43 -93q-8 -57 20 -81zM927 1426q-16 -138 -245 -138q-100 0 -160 31t-49 107l4 26q17 144 245 144
t209 -144z" />
    <glyph glyph-name="iogonek.salt_serifs" unicode="&#x12f;" 
d="M518 -174q28 -24 93 -23q65 0 169 18l-26 -212q-120 -24 -248 -24q-128 -1 -204 59t-62 175t107 198l104 849h-300l31 251h661l-106 -866h300l-32 -251h-464q-35 -35 -43 -93q-8 -57 20 -81zM927 1426q-16 -138 -245 -138q-100 0 -160 31t-49 107l4 26q17 144 245 144
t209 -144z" />
    <glyph glyph-name="Idotaccent" unicode="&#x130;" 
d="M4 0l33 268h341l117 953h-340l31 268h1043l-32 -268h-341l-117 -953h341l-34 -268h-1042zM518 1825q16 143 245 143q228 0 209 -143l-4 -26q-16 -138 -245 -138q-99 1 -159 31t-50 107z" />
    <glyph glyph-name="dotlessi.salt_serifs" unicode="&#xe024;" 
d="M737 251h300l-32 -251h-661l107 866h-300l31 251h661z" />
    <glyph glyph-name="dotlessi.salt_serifs" unicode="&#x131;" 
d="M737 251h300l-32 -251h-661l107 866h-300l31 251h661z" />
    <glyph glyph-name="IJ" unicode="&#x132;" 
d="M723 -19q-173 0 -249 119.5t-38 394.5l268 21q-24 -184 -17 -242t61 -58q37 0 59.5 43t35.5 151l105 845h-211l28 234h475l-134 -1092q-24 -194 -117 -305t-266 -111zM257 0h-264l182 1489h264z" />
    <glyph glyph-name="ij.salt_serifs" unicode="&#xe02d;" 
d="M873 -292q-134 -100 -305 -99q-171 0 -287 43l63 229q92 -34 178 -35t132 41t59 139l102 840h-219l31 251h542l-138 -1121q-24 -188 -158 -288zM348 0h-322l138 1117h322zM1011 1288q-91 0 -145 31t-45 107l4 26q17 144 223 144q93 0 147 -33t45 -111l-4 -26
q-16 -138 -225 -138zM365 1596q93 0 146 -33t44 -111l-4 -26q-16 -138 -223 -138q-91 0 -146 31t-46 107l4 26q17 144 225 144z" />
    <glyph glyph-name="ij.salt_serifs" unicode="&#x133;" 
d="M873 -292q-134 -100 -305 -99q-171 0 -287 43l63 229q92 -34 178 -35t132 41t59 139l102 840h-219l31 251h542l-138 -1121q-24 -188 -158 -288zM348 0h-322l138 1117h322zM1011 1288q-91 0 -145 31t-45 107l4 26q17 144 223 144q93 0 147 -33t45 -111l-4 -26
q-16 -138 -225 -138zM365 1596q93 0 146 -33t44 -111l-4 -26q-16 -138 -223 -138q-91 0 -146 31t-46 107l4 26q17 144 225 144z" />
    <glyph glyph-name="Jcircumflex" unicode="&#x134;" 
d="M475 1650l-91 152l351 294h276l281 -294l-127 -151l-323 198zM498 -19q-270 0 -377 127q-106 127 -82 421l361 20q-9 -184 18 -242t108 -58q81 -1 124 51t59 186l92 735h-399l32 268h758l-123 -1011q-29 -233 -165 -365t-406 -132z" />
    <glyph glyph-name="jcircumflex" unicode="&#x135;" 
d="M249 -155q116 0 177 42t75 139l102 840h-419l32 251h778l-138 -1121q-22 -179 -176 -283t-380 -104q-225 0 -337 43l61 229q109 -36 225 -36zM428 1277l-91 153l352 294h275l282 -294l-127 -151l-324 197z" />
    <glyph glyph-name="Kcommaaccent" unicode="&#x136;" 
d="M441 633l-78 -633h-359l182 1489h360l-73 -588h69l376 588h367l-494 -687l306 -802h-360l-221 633h-75zM216 -559l153 373h445l-367 -373h-231z" />
    <glyph glyph-name="kcommaaccent" unicode="&#x137;" 
d="M449 462l-56 -462h-361l182 1489h361l-97 -795h60l307 423h365l-385 -504l242 -613h-380l-179 462h-59zM216 -559l153 373h445l-367 -373h-231z" />
    <glyph glyph-name="kgreenlandic" unicode="&#x138;" 
d="M449 462l-56 -462h-361l137 1117h362l-53 -423h60l307 423h365l-385 -504l242 -613h-380l-179 462h-59z" />
    <glyph glyph-name="Lacute" unicode="&#x139;" 
d="M285 1676l221 372h447l-437 -372h-231zM89 0l183 1489h359l-149 -1221h598l-34 -268h-957z" />
    <glyph glyph-name="lacute.salt_serifs_round" unicode="&#xe057;" 
d="M264 1676l222 372h447l-438 -372h-231zM857 251q73 0 167 38l22 -246q-162 -58 -294 -58q-203 0 -312 108t-88 278l108 867h-263l30 251h624l-129 -1053q-14 -95 24 -140t111 -45z" />
    <glyph glyph-name="lacute.salt_serifs_round" unicode="&#x13a;" 
d="M264 1676l222 372h447l-438 -372h-231zM857 251q73 0 167 38l22 -246q-162 -58 -294 -58q-203 0 -312 108t-88 278l108 867h-263l30 251h624l-129 -1053q-14 -95 24 -140t111 -45z" />
    <glyph glyph-name="Lcommaaccent" unicode="&#x13b;" 
d="M89 0l183 1489h359l-149 -1221h598l-34 -268h-957zM253 -559l153 373h445l-367 -373h-231z" />
    <glyph glyph-name="lcommaaccent.salt_serifs_round" unicode="&#xe058;" 
d="M857 251q73 0 167 38l22 -246q-162 -58 -294 -58q-203 0 -312 108t-88 278l108 867h-263l30 251h624l-129 -1053q-14 -95 24 -140t111 -45zM231 -559l153 373h445l-367 -373h-231z" />
    <glyph glyph-name="lcommaaccent.salt_serifs_round" unicode="&#x13c;" 
d="M857 251q73 0 167 38l22 -246q-162 -58 -294 -58q-203 0 -312 108t-88 278l108 867h-263l30 251h624l-129 -1053q-14 -95 24 -140t111 -45zM231 -559l153 373h445l-367 -373h-231z" />
    <glyph glyph-name="Lcaron" unicode="&#x13d;" 
d="M761 940l149 549h440l-389 -549h-200zM89 0l183 1489h359l-149 -1221h598l-34 -268h-957z" />
    <glyph glyph-name="lcaron.salt_serifs_round" unicode="&#xe059;" 
d="M979 1313l149 549h440l-389 -549h-200zM857 251q73 0 167 38l22 -246q-162 -58 -294 -58q-203 0 -312 108t-88 278l108 867h-263l30 251h624l-129 -1053q-14 -95 24 -140t111 -45z" />
    <glyph glyph-name="lcaron.salt_serifs_round" unicode="&#x13e;" 
d="M979 1313l149 549h440l-389 -549h-200zM857 251q73 0 167 38l22 -246q-162 -58 -294 -58q-203 0 -312 108t-88 278l108 867h-263l30 251h624l-129 -1053q-14 -95 24 -140t111 -45z" />
    <glyph glyph-name="Ldot" unicode="&#x13f;" 
d="M1337 851q-16 -138 -245 -138q-100 0 -160 31t-49 107l3 26q17 145 244 143q100 0 160 -32t51 -111zM89 0l183 1489h359l-149 -1221h598l-34 -268h-957z" />
    <glyph glyph-name="ldot.salt_serifs_round" unicode="&#xe05a;" 
d="M1095 775q16 143 245 143q228 0 209 -143l-4 -27q-16 -137 -245 -137q-100 1 -160 31t-49 106zM857 251q73 0 167 38l22 -246q-162 -58 -294 -58q-203 0 -312 108t-88 278l108 867h-263l30 251h624l-129 -1053q-14 -95 24 -140t111 -45z" />
    <glyph glyph-name="ldot.salt_serifs_round" unicode="&#x140;" 
d="M1095 775q16 143 245 143q228 0 209 -143l-4 -27q-16 -137 -245 -137q-100 1 -160 31t-49 106zM857 251q73 0 167 38l22 -246q-162 -58 -294 -58q-203 0 -312 108t-88 278l108 867h-263l30 251h624l-129 -1053q-14 -95 24 -140t111 -45z" />
    <glyph glyph-name="Lslash" unicode="&#x141;" 
d="M89 0l75 603l-119 -39l26 216l119 39l82 670h359l-67 -547l406 132l-26 -216l-406 -132l-56 -458h598l-34 -268h-957z" />
    <glyph glyph-name="lslash.salt_serifs_round" unicode="&#xe05b;" 
d="M857 251q73 0 167 38l22 -246q-162 -58 -294 -58q-203 0 -312 108t-88 278l26 212l-205 -56l26 216l207 56l54 439h-263l30 251h624l-73 -588l227 63l-28 -216l-225 -63l-30 -249q-13 -95 24.5 -140t110.5 -45z" />
    <glyph glyph-name="lslash.salt_serifs_round" unicode="&#x142;" 
d="M857 251q73 0 167 38l22 -246q-162 -58 -294 -58q-203 0 -312 108t-88 278l26 212l-205 -56l26 216l207 56l54 439h-263l30 251h624l-73 -588l227 63l-28 -216l-225 -63l-30 -249q-13 -95 24.5 -140t110.5 -45z" />
    <glyph glyph-name="Nacute" unicode="&#x143;" 
d="M547 1676l222 372h447l-438 -372h-231zM633 0l-201 996l-123 -996h-305l182 1489h386l223 -1055l128 1055h306l-183 -1489h-413z" />
    <glyph glyph-name="nacute" unicode="&#x144;" 
d="M488 1303l221 373h447l-437 -373h-231zM902 1136q120 0 182 -87t42 -243l-98 -806h-360l92 745q7 59 -15 91q-21 32 -69 32t-104 -31t-99 -89l-91 -748h-360l138 1117h359l-24 -190h52q51 99 143 154t212 55z" />
    <glyph glyph-name="Ncommaaccent" unicode="&#x145;" 
d="M175 -559l153 373h445l-367 -373h-231zM633 0l-201 996l-123 -996h-305l182 1489h386l223 -1055l128 1055h306l-183 -1489h-413z" />
    <glyph glyph-name="ncommaaccent" unicode="&#x146;" 
d="M171 -559l153 373h445l-367 -373h-231zM902 1136q120 0 182 -87t42 -243l-98 -806h-360l92 745q7 59 -15 91q-21 32 -69 32t-104 -31t-99 -89l-91 -748h-360l138 1117h359l-24 -190h52q51 99 143 154t212 55z" />
    <glyph glyph-name="Ncaron" unicode="&#x147;" 
d="M586 1683l-281 294l127 151l324 -197l367 199l91 -153l-352 -294h-276zM633 0l-201 996l-123 -996h-305l182 1489h386l223 -1055l128 1055h306l-183 -1489h-413z" />
    <glyph glyph-name="ncaron" unicode="&#x148;" 
d="M585 1311l-282 294l127 151l324 -198l367 200l91 -153l-352 -294h-275zM902 1136q120 0 182 -87t42 -243l-98 -806h-360l92 745q7 59 -15 91q-21 32 -69 32t-104 -31t-99 -89l-91 -748h-360l138 1117h359l-24 -190h52q51 99 143 154t212 55z" />
    <glyph glyph-name="napostrophe" unicode="&#x149;" 
d="M26 1303l222 373h446l-437 -373h-231zM902 1136q120 0 182 -87t42 -243l-98 -806h-360l92 745q7 59 -15 91q-21 32 -69 32t-104 -31t-99 -89l-91 -748h-360l138 1117h359l-24 -190h52q51 99 143 154t212 55z" />
    <glyph glyph-name="Eng" unicode="&#x14a;" 
d="M931 1508q123 0 200 -92t57 -271l-142 -1152q-24 -194 -163.5 -289t-318.5 -95q-102 0 -225 45l63 229q87 -38 145 -38q120 0 144 179l124 1024q23 192 -57 192t-135 -47.5t-131 -142.5l-129 -1050h-359l182 1489h360l-28 -227h52q126 246 361 246z" />
    <glyph glyph-name="eng" unicode="&#x14b;" 
d="M543 -155q105 0 129 181l88 719q7 58 -15.5 90.5t-69.5 32.5t-103 -31t-99 -89l-91 -748h-360l138 1117h359l-24 -190h52q56 106 152.5 157.5t208.5 51.5t175.5 -84t42.5 -246l-98 -810q-26 -205 -166.5 -296t-302.5 -91q-104 0 -231 43l63 229q103 -36 152 -36z" />
    <glyph glyph-name="Omacron" unicode="&#x14c;" 
d="M343 1728l33 268h778l-33 -268h-778zM556 249q88 0 130 54t59 196l59 484q17 143 -11 200q-29 57 -115 57t-130 -57t-60 -200l-60 -484q-17 -141 12 -195t116 -55zM523 -19q-253 1 -369 129t-89 355l67 552q28 229 177 360t401 131t368 -131t89 -360l-67 -552
q-28 -227 -176 -355t-401 -129z" />
    <glyph glyph-name="omacron" unicode="&#x14d;" 
d="M302 1355l33 269h778l-33 -269h-778zM554 233q75 0 114 41t51 134l35 296q13 95 -16 138q-29 42 -104 42q-76 0 -114 -42t-49 -136l-35 -289q-13 -99 15 -141t103 -43zM524 -19q-234 0 -356 109t-97 301l39 328q24 193 173 305t384 112t353 -114t95 -313l-41 -325
q-22 -188 -169 -296t-381 -107z" />
    <glyph glyph-name="Obreve" unicode="&#x14e;" 
d="M724 1663q-233 0 -334 109t-75 332h285q-13 -128 19 -178q33 -49 131 -49t145 49q46 49 62 178h285q-30 -223 -158 -332t-360 -109zM556 249q88 0 130 54t59 196l59 484q17 143 -11 200q-29 57 -115 57t-130 -57t-60 -200l-60 -484q-17 -141 12 -195t116 -55zM523 -19
q-253 1 -369 129t-89 355l67 552q28 229 177 360t401 131t368 -131t89 -360l-67 -552q-28 -227 -176 -355t-401 -129z" />
    <glyph glyph-name="obreve" unicode="&#x14f;" 
d="M702 1290q-233 0 -334 109t-76 332h285q-13 -128 20 -177q33 -50 131 -50t144 50t63 177h284q-30 -223 -157 -332t-360 -109zM554 233q75 0 114 41t51 134l35 296q13 95 -16 138q-29 42 -104 42q-76 0 -114 -42t-49 -136l-35 -289q-13 -99 15 -141t103 -43zM524 -19
q-234 0 -356 109t-97 301l39 328q24 193 173 305t384 112t353 -114t95 -313l-41 -325q-22 -188 -169 -296t-381 -107z" />
    <glyph glyph-name="Ohungarumlaut" unicode="&#x150;" 
d="M430 1676l123 372h335l-279 -372h-179zM823 1676l123 372h335l-279 -372h-179zM556 249q88 0 130 54t59 196l59 484q17 143 -11 200q-29 57 -115 57t-130 -57t-60 -200l-60 -484q-17 -141 12 -195t116 -55zM523 -19q-253 1 -369 129t-89 355l67 552q28 229 177 360
t401 131t368 -131t89 -360l-67 -552q-28 -227 -176 -355t-401 -129z" />
    <glyph glyph-name="ohungarumlaut" unicode="&#x151;" 
d="M369 1303l123 373h335l-280 -373h-178zM761 1303l123 373h335l-279 -373h-179zM554 233q75 0 114 41t51 134l35 296q13 95 -16 138q-29 42 -104 42q-76 0 -114 -42t-49 -136l-35 -289q-13 -99 15 -141t103 -43zM524 -19q-234 0 -356 109t-97 301l39 328q24 193 173 305
t384 112t353 -114t95 -313l-41 -325q-22 -188 -169 -296t-381 -107z" />
    <glyph glyph-name="OE" unicode="&#x152;" 
d="M473 266h46l118 957h-47q-93 0 -131 -64t-57 -215l-48 -391q-17 -151 4.5 -219t114.5 -68zM406 0q-199 0 -293 144.5t-65 384.5l54 437q28 238 158.5 380.5t329.5 142.5h678l-30 -249h-294l-39 -313h199l-30 -249h-199l-54 -429h294l-30 -249h-679z" />
    <glyph glyph-name="oe" unicode="&#x153;" 
d="M359.5 231q31.5 0 47.5 28t23 91l52 428q15 108 -29.5 108t-58.5 -28.5t-22 -84.5l-52 -423q-7 -63 0.5 -91t39 -28zM830 914q-34 0 -48.5 -21.5t-20.5 -73.5l-18 -151h112l16 140q7 58 0 82t-41 24zM896 1136q128 0 203.5 -88.5t52.5 -272.5l-35 -287h-396l-23 -188
q-13 -95 63 -95q39 0 73 21.5t50 97.5l224 -45q-50 -169 -137 -233.5t-213 -64.5q-168 0 -235 125q-85 -125 -221 -125t-213.5 87t-54.5 269l54 436q22 184 121.5 273.5t234.5 89.5t191 -125q95 125 261 125z" />
    <glyph glyph-name="Racute" unicode="&#x154;" 
d="M527 1676l221 372h447l-437 -372h-231zM758 1489q442 0 393 -409l-17 -132q-34 -304 -274 -388l212 -560h-374l-195 527h-75l-65 -527h-359l182 1489h572zM613 795q89 0 130 33t52 127l13 106q11 93 -20 127q-32 34 -121 33h-153l-54 -426h153z" />
    <glyph glyph-name="racute" unicode="&#x155;" 
d="M493 1303l222 373h447l-438 -373h-231zM918 1136q134 0 190 -83t37 -234l-24 -205h-322l11 103q9 74 -10 112q-20 39 -82 39q-140 1 -217 -136l-90 -732h-361l138 1117h361l-26 -203h50q99 222 345 222z" />
    <glyph glyph-name="Rcommaaccent" unicode="&#x156;" 
d="M758 1489q442 0 393 -409l-17 -132q-34 -304 -274 -388l212 -560h-374l-195 527h-75l-65 -527h-359l182 1489h572zM613 795q89 0 130 33t52 127l13 106q11 93 -20 127q-32 34 -121 33h-153l-54 -426h153zM127 -559l152 373h445l-367 -373h-230z" />
    <glyph glyph-name="rcommaaccent" unicode="&#x157;" 
d="M918 1136q134 0 190 -83t37 -234l-24 -205h-322l11 103q9 74 -10 112q-20 39 -82 39q-140 1 -217 -136l-90 -732h-361l138 1117h361l-26 -203h50q99 222 345 222zM-112 -559l153 373h445l-367 -373h-231z" />
    <glyph glyph-name="Rcaron" unicode="&#x158;" 
d="M560 1683l-281 294l127 151l324 -197l367 199l91 -153l-352 -294h-276zM758 1489q442 0 393 -409l-17 -132q-34 -304 -274 -388l212 -560h-374l-195 527h-75l-65 -527h-359l182 1489h572zM613 795q89 0 130 33t52 127l13 106q11 93 -20 127q-32 34 -121 33h-153l-54 -426
h153z" />
    <glyph glyph-name="rcaron" unicode="&#x159;" 
d="M590 1311l-281 294l127 151l324 -198l366 200l92 -153l-352 -294h-276zM918 1136q134 0 190 -83t37 -234l-24 -205h-322l11 103q9 74 -10 112q-20 39 -82 39q-140 1 -217 -136l-90 -732h-361l138 1117h361l-26 -203h50q99 222 345 222z" />
    <glyph glyph-name="Sacute" unicode="&#x15a;" 
d="M717 1506q123 0 240 -42t190 -90l-86 -255q-201 117 -355 117q-169 -1 -188 -147q-10 -73 36 -113t191 -82q221 -68 301 -172t56 -302t-184 -318t-428 -121q-268 0 -483 144l107 268q94 -63 192 -103t214 -40t163 43q49 45 59 123t-43 112t-185 75q-220 63 -302 165
t-58 288t165 318q142 132 398 132zM490 1676l221 372h447l-437 -372h-231z" />
    <glyph glyph-name="sacute" unicode="&#x15b;" 
d="M652 914q-128 0 -140 -95q-7 -54 41 -78t179 -54q195 -39 274 -115t60 -231q-20 -155 -164 -253t-390 -99q-138 0 -266 37t-211 95l103 214q93 -58 205 -92q113 -34 197 -34t120 26t43 80t-26 80t-133 48q-214 39 -314 110t-80 229t156 256q137 98 351 98q114 0 226 -32
t193 -84l-82 -203q-180 97 -342 97zM469 1303l222 373h447l-438 -373h-231z" />
    <glyph glyph-name="Scircumflex" unicode="&#x15c;" 
d="M374 1650l-91 152l352 294h275l282 -294l-127 -151l-324 198zM717 1506q123 0 240 -42t190 -90l-86 -255q-201 117 -355 117q-169 -1 -188 -147q-10 -73 36 -113t191 -82q221 -68 301 -172t56 -302t-184 -318t-428 -121q-268 0 -483 144l107 268q94 -63 192 -103t214 -40
t163 43q49 45 59 123t-43 112t-185 75q-220 63 -302 165t-58 288t165 318q142 132 398 132z" />
    <glyph glyph-name="scircumflex" unicode="&#x15d;" 
d="M333 1277l-91 153l352 294h275l282 -294l-127 -151l-324 197zM652 914q-128 0 -140 -95q-7 -54 41 -78t179 -54q195 -39 274 -115t60 -231q-20 -155 -164 -253t-390 -99q-138 0 -266 37t-211 95l103 214q93 -58 205 -92q113 -34 197 -34t120 26t43 80t-26 80t-133 48
q-214 39 -314 110t-80 229t156 256q137 98 351 98q114 0 226 -32t193 -84l-82 -203q-180 97 -342 97z" />
    <glyph glyph-name="Scedilla" unicode="&#x15e;" 
d="M497 -19q-274 0 -490 144l107 268q94 -63 192 -103t214 -40t163 43q49 45 59 123t-43 112t-185 75q-220 63 -302 165t-58 288t165 318q142 132 398 132q123 0 240 -42t190 -90l-86 -255q-201 117 -355 117q-169 -1 -188 -147q-10 -73 36 -113t191 -82q221 -68 301 -172
t56 -302t-184 -319q-75 -56 -171 -85q97 -58 81 -186t-136 -188t-285 -61q-165 0 -265 60t-90 188l304 18q0 -35 16 -49t58 -14q43 0 67 20t34 87t-23 90h-11z" />
    <glyph glyph-name="scedilla" unicode="&#x15f;" 
d="M652 914q-128 0 -140 -95q-7 -54 41 -78t179 -54q195 -39 274 -115t60 -231t-164 -253q-72 -49 -170 -75q3 -2 7 -4q86 -55 70 -181t-136 -186q-121 -60 -285 -61q-164 0 -264 60t-90 188l303 18q0 -35 16 -49t59 -14q42 0 66 20t32 76t-2 77t-31 32q-119 4 -239 39
t-203 93l103 214q93 -58 205 -92q113 -34 197 -34t120 26t43 80t-26 80t-133 48q-214 39 -314 110t-80 229t156 256q137 98 351 98q114 0 226 -32t193 -84l-82 -203q-180 97 -342 97z" />
    <glyph glyph-name="Scaron" unicode="&#x160;" 
d="M586 1683l-281 294l127 151l324 -197l367 199l91 -153l-352 -294h-276zM717 1506q123 0 240 -42t190 -90l-86 -255q-201 117 -355 117q-169 -1 -188 -147q-10 -73 36 -113t191 -82q221 -68 301 -172t56 -302t-184 -318t-428 -121q-268 0 -483 144l107 268
q94 -63 192 -103t214 -40t163 43q49 45 59 123t-43 112t-185 75q-220 63 -302 165t-58 288t165 318q142 132 398 132z" />
    <glyph glyph-name="scaron" unicode="&#x161;" 
d="M546 1311l-282 294l127 151l324 -198l367 200l91 -153l-352 -294h-275zM652 914q-128 0 -140 -95q-7 -54 41 -78t179 -54q195 -39 274 -115t60 -231q-20 -155 -164 -253t-390 -99q-138 0 -266 37t-211 95l103 214q93 -58 205 -92q113 -34 197 -34t120 26t43 80t-26 80
t-133 48q-214 39 -314 110t-80 229t156 256q137 98 351 98q114 0 226 -32t193 -84l-82 -203q-180 97 -342 97z" />
    <glyph glyph-name="Tcedilla" unicode="&#x162;" 
d="M394 -419q-165 0 -265 60t-90 188l304 18q-1 -35 15 -49t59 -14t67 20t32 76t-4 82t-56 38h-112l151 1221h-374l32 268h1111l-31 -268h-377l-147 -1192q19 -9 36 -20q85 -55 69 -181t-136 -186t-284 -61z" />
    <glyph glyph-name="tcedilla" unicode="&#x163;" 
d="M480 -419q-164 0 -265 60q-100 60 -90 188l303 18q0 -35 16 -49t59 -14t67 20t32 76t-5 82q-12 26 -55 38q-93 26 -153 85q-106 105 -84 293l60 488h-233l32 251h233l44 372h361l-44 -372h368l-31 -251h-369l-54 -449q-13 -95 22 -139t125 -44t185 38l3 -246
q-48 -23 -150 -37q57 -54 44 -153q-17 -134 -137 -194t-284 -61z" />
    <glyph glyph-name="Tcaron" unicode="&#x164;" 
d="M590 1683l-281 294l127 151l324 -197l366 199l92 -153l-352 -294h-276zM344 0l151 1221h-374l32 268h1111l-31 -268h-377l-150 -1221h-362z" />
    <glyph glyph-name="tcaron" unicode="&#x165;" 
d="M901 1313l149 549h439l-389 -549h-199zM1007 26q-94 -46 -303 -46t-315 105t-84 293l60 488h-233l32 251h233l44 372h361l-44 -372h368l-31 -251h-369l-54 -449q-25 -184 130 -182q107 0 202 37z" />
    <glyph glyph-name="Tbar" unicode="&#x166;" 
d="M344 0l67 544h-264l26 217h265l57 460h-374l32 268h1111l-31 -268h-377l-57 -460h266l-26 -217h-266l-67 -544h-362z" />
    <glyph glyph-name="tbar" unicode="&#x167;" 
d="M819 235q89 0 185 37l3 -246q-94 -46 -303 -46t-315 105t-84 293l12 93h-202l26 218h202l22 177h-233l32 251h233l44 372h361l-44 -372h368l-31 -251h-369l-22 -177h337l-26 -218h-337l-6 -54q-13 -95 22.5 -138.5t124.5 -43.5z" />
    <glyph glyph-name="Utilde" unicode="&#x168;" 
d="M524 -19q-267 1 -379 131t-78 404l119 973h360l-118 -960q-19 -153 11 -208q29 -55 119 -55t133 55t61 208l117 960h360l-119 -973q-34 -274 -176 -404t-410 -131zM894 1694q-128 0 -189 88q-25 36 -45 64t-50 27q-72 0 -89 -132l-3 -28h-228l4 28q20 155 108 257
t216 102q121 0 187 -88q27 -36 47 -64t50 -28t52 26q23 26 33 106l3 28h228l-4 -28q-20 -156 -106 -257t-214 -101z" />
    <glyph glyph-name="utilde" unicode="&#x169;" 
d="M287 -19q-104 0 -175 85t-51 245l99 806h359l-87 -711q-18 -155 74 -155q98 0 213 151l87 715h359l-137 -1117h-360l25 190h-53q-56 -108 -152 -158t-201 -51zM664 1410q-25 36 -45 63q-21 28 -51 28t-54 -26t-34 -107l-3 -27h-228l4 27q20 156 108 258t216 102
q122 0 187 -88q27 -36 47 -65q19 -28 49 -28q69 0 86 132l4 28h227l-4 -28q-20 -157 -106 -257t-214 -100q-127 0 -189 88z" />
    <glyph glyph-name="Umacron" unicode="&#x16a;" 
d="M524 -19q-267 1 -379 131t-78 404l119 973h360l-118 -960q-19 -153 11 -208q29 -55 119 -55t133 55t61 208l117 960h360l-119 -973q-34 -274 -176 -404t-410 -131zM343 1728l33 268h778l-33 -268h-778z" />
    <glyph glyph-name="umacron" unicode="&#x16b;" 
d="M287 -19q-104 0 -175 85t-51 245l99 806h359l-87 -711q-18 -155 74 -155q98 0 213 151l87 715h359l-137 -1117h-360l25 190h-53q-56 -108 -152 -158t-201 -51zM302 1355l33 269h778l-33 -269h-778z" />
    <glyph glyph-name="Ubreve" unicode="&#x16c;" 
d="M524 -19q-267 1 -379 131t-78 404l119 973h360l-118 -960q-19 -153 11 -208q29 -55 119 -55t133 55t61 208l117 960h360l-119 -973q-34 -274 -176 -404t-410 -131zM724 1663q-233 0 -334 109t-75 332h285q-13 -128 19 -178q33 -49 131 -49t145 49q46 49 62 178h285
q-30 -223 -158 -332t-360 -109z" />
    <glyph glyph-name="ubreve" unicode="&#x16d;" 
d="M287 -19q-104 0 -175 85t-51 245l99 806h359l-87 -711q-18 -155 74 -155q98 0 213 151l87 715h359l-137 -1117h-360l25 190h-53q-56 -108 -152 -158t-201 -51zM702 1290q-233 0 -334 109t-76 332h285q-13 -128 20 -177q33 -50 131 -50t144 50t63 177h284
q-30 -223 -157 -332t-360 -109z" />
    <glyph glyph-name="Uring" unicode="&#x16e;" 
d="M524 -19q-267 1 -379 131t-78 404l119 973h360l-118 -960q-19 -153 11 -208q29 -55 119 -55t133 55t61 208l117 960h360l-119 -973q-34 -274 -176 -404t-410 -131zM740 1797q59 0 93 27t44 94l7 59q14 127 -106 127t-136 -127l-7 -59q-9 -67 19 -94t86 -27zM721 1631
q-166 0 -259 71t-75 216l8 59q19 147 128 220q110 73 276 73t259 -73t74 -220l-7 -59q-19 -145 -129 -216t-275 -71z" />
    <glyph glyph-name="uring" unicode="&#x16f;" 
d="M287 -19q-104 0 -175 85t-51 245l99 806h359l-87 -711q-18 -155 74 -155q98 0 213 151l87 715h359l-137 -1117h-360l25 190h-53q-56 -108 -152 -158t-201 -51zM718 1424q59 0 93 27t44 94l7 60q14 128 -106 126q-120 0 -136 -126l-7 -60q-9 -67 19 -94t86 -27zM698 1259
q-166 1 -259 71t-74 215l7 60q19 147 129 220q109 73 275 73t259 -74q93 -72 75 -219l-8 -60q-19 -145 -128 -216q-110 -70 -276 -70z" />
    <glyph glyph-name="Uhungarumlaut" unicode="&#x170;" 
d="M447 1676l123 372h335l-279 -372h-179zM840 1676l123 372h335l-280 -372h-178zM524 -19q-267 1 -379 131t-78 404l119 973h360l-118 -960q-19 -153 11 -208q29 -55 119 -55t133 55t61 208l117 960h360l-119 -973q-34 -274 -176 -404t-410 -131z" />
    <glyph glyph-name="uhungarumlaut" unicode="&#x171;" 
d="M365 1303l123 373h335l-279 -373h-179zM758 1303l123 373h335l-280 -373h-178zM287 -19q-104 0 -175 85t-51 245l99 806h359l-87 -711q-18 -155 74 -155q98 0 213 151l87 715h359l-137 -1117h-360l25 190h-53q-56 -108 -152 -158t-201 -51z" />
    <glyph glyph-name="Uogonek" unicode="&#x172;" 
d="M558 266q90 0 133 55t61 208l117 960h360l-119 -973q-34 -274 -166 -395t-350 -137q-23 -35 -30 -85q-6 -49 22 -73t92 -23q65 0 169 18l-26 -212q-120 -24 -248 -24q-128 -1 -204 59t-63 166t81 181q-161 26 -242 121q-112 130 -78 404l119 973h360l-118 -960
q-19 -153 11 -208q29 -55 119 -55z" />
    <glyph glyph-name="uogonek" unicode="&#x173;" 
d="M833 -174q27 -24 93 -23q66 0 169 18l-26 -212q-120 -24 -248 -24t-205 59q-76 60 -61 176t111 201l6 6l21 163h-53q-56 -108 -152 -158t-201 -50q-104 0 -175 84q-71 85 -51 245l99 806h359l-87 -711q-18 -155 74 -155q98 0 213 151l87 715h359l-137 -1117h-172
q-35 -35 -43 -93q-7 -57 20 -81z" />
    <glyph glyph-name="Wcircumflex" unicode="&#x174;" 
d="M378 1650l-91 152l352 294h275l281 -294l-126 -151l-324 198zM633 0l-26 640l-181 -640h-311l8 1489h301l-74 -1078l194 706h234l26 -670l186 1042h302l-357 -1489h-302z" />
    <glyph glyph-name="wcircumflex" unicode="&#x175;" 
d="M356 1277l-92 153l352 294h276l281 -294l-127 -151l-324 197zM657 0l-67 532l-190 -532h-307l-19 1117h302l-9 -711l169 508h194l59 -501l161 704h301l-292 -1117h-302z" />
    <glyph glyph-name="Ycircumflex" unicode="&#x176;" 
d="M706 0h-362l69 559l-279 930h356l141 -603l294 603h354l-504 -930zM378 1650l-91 152l352 294h275l281 -294l-126 -151l-324 198z" />
    <glyph glyph-name="ycircumflex" unicode="&#x177;" 
d="M214 -393q-90 0 -277 21l46 251q146 -26 238 -27t149 43t103 172h-238l-138 1050h363l99 -828l318 828h350l-445 -1098q-90 -222 -220 -317t-348 -95zM337 1277l-91 153l352 294h275l281 -294l-126 -151l-324 197z" />
    <glyph glyph-name="Ydieresis" unicode="&#x178;" 
d="M706 0h-362l69 559l-279 930h356l141 -603l294 603h354l-504 -930zM987 1968q78 0 122 -33t34 -110l-4 -26q-16 -138 -190 -138q-75 1 -120 31t-36 107l4 26q16 143 190 143zM536 1968q78 0 122 -33t35 -110l-4 -26q-16 -138 -191 -138q-75 1 -120 31t-35 107l3 26
q16 143 190 143z" />
    <glyph glyph-name="Zacute" unicode="&#x179;" 
d="M546 1676l221 372h447l-438 -372h-230zM1043 0h-1036l34 268l791 953h-674l32 268h1035l-32 -268l-778 -953h661z" />
    <glyph glyph-name="zacute" unicode="&#x17a;" 
d="M534 1303l222 373h447l-438 -373h-231zM1013 0h-976l32 251l672 615h-598l32 251h976l-32 -251l-661 -615h586z" />
    <glyph glyph-name="Zdotaccent" unicode="&#x17b;" 
d="M1043 0h-1036l34 268l791 953h-674l32 268h1035l-32 -268l-778 -953h661zM518 1825q16 143 245 143q228 0 209 -143l-4 -26q-16 -138 -245 -138q-99 1 -159 31t-50 107z" />
    <glyph glyph-name="zdotaccent" unicode="&#x17c;" 
d="M916 1426q-16 -138 -245 -138q-99 0 -159 31t-50 107l3 26q17 144 244 144q101 0 161 -33t50 -111zM1013 0h-976l32 251l672 615h-598l32 251h976l-32 -251l-661 -615h586z" />
    <glyph glyph-name="Zcaron" unicode="&#x17d;" 
d="M590 1683l-281 294l127 151l324 -197l366 199l92 -153l-352 -294h-276zM1043 0h-1036l34 268l791 953h-674l32 268h1035l-32 -268l-778 -953h661z" />
    <glyph glyph-name="zcaron" unicode="&#x17e;" 
d="M546 1311l-282 294l127 151l324 -198l367 200l91 -153l-352 -294h-275zM1013 0h-976l32 251l672 615h-598l32 251h976l-32 -251l-661 -615h586z" />
    <glyph glyph-name="longs" unicode="&#x17f;" 
d="M1016 1322q-148 0 -169 -173l-188 -1521h-361l153 1238h-205l31 251h205l8 60q20 173 159.5 276t350.5 103q123 0 247 -42l-61 -227q-102 35 -170 35z" />
    <glyph glyph-name="florin" unicode="&#x192;" 
d="M1182 1287q-93 35 -166 35q-72 0 -115 -43q-45 -49 -56 -136l-18 -162h337l-32 -251h-337l-45 -359q-18 -175 -156 -278q-138 -102 -356 -102q-136 0 -244 43l62 227q104 -36 171 -36t110 43q45 49 56 136l39 326h-337l32 251h338l25 196q18 173 156 279q140 100 354 100
q131 0 246 -42z" />
    <glyph glyph-name="Aringacute" unicode="&#x1fa;" 
d="M776 0l-24 344h-372l-119 -344h-322l547 1489h445l182 -1489h-337zM730 613l-45 614l-212 -614h257zM740 1797q59 0 93 27t44 94l7 59q14 127 -106 127t-136 -127l-7 -59q-9 -67 19 -94t86 -27zM721 1631q-166 0 -259 71t-75 216l8 59q26 202 225 266l216 364h447
l-402 -342q108 -14 177 -68q93 -73 74 -220l-7 -59q-19 -145 -129 -216t-275 -71z" />
    <glyph glyph-name="aringacute" unicode="&#x1fb;" 
d="M301 -19q-132 -1 -211 89q-78 90 -60 242t129 232q111 82 290 82h229l16 135q9 78 -23 106q-33 27 -103 27t-107 -33q-38 -33 -64 -124l-283 47q61 194 173 273t337 79t330 -90t83 -279l-52 -419q-9 -74 28 -92t108 -7l-30 -242q-298 -70 -337 155h-54q-63 -74 -165 -128
t-234 -53zM438 199q94 0 195 58l22 188h-193q-50 0 -76 -26t-34 -104q-14 -116 86 -116zM666 1424q59 0 93 27t43 94l8 60q14 128 -106 126q-120 0 -136 -126l-8 -60q-9 -67 19 -94t87 -27zM646 1259q-166 1 -259 71t-74 215l7 60q24 188 200 257h-17l221 372h447l-398 -338
q131 -8 217 -76t68 -215l-8 -60q-19 -145 -128 -216q-110 -70 -276 -70z" />
    <glyph glyph-name="AEacute" unicode="&#x1fc;" 
d="M696 1676l222 372h447l-438 -372h-231zM529 344h-218l-116 -344h-249l521 1489h803l-30 -249h-296l-39 -315h259l-30 -249h-259l-54 -427h296l-30 -249h-601zM611 1240l-216 -646h164l80 646h-28z" />
    <glyph glyph-name="aeacute" unicode="&#x1fd;" 
d="M614 1303l222 373h447l-438 -373h-231zM397 447q-51 0 -77 -29t-34 -95q-15 -126 51 -126q51 0 112 49l24 201h-76zM883 922q-81 0 -101 -164l-11 -90h152l12 88q11 89 -1 127t-51 39zM231 -19q-123 0 -189 80q-66 79 -47 239t115 243t247 83h138l15 121q11 85 -4 117
q-14 32 -54 32t-62 -32t-60 -123l-248 47q62 180 150 264t219 84q170 0 210 -140q100 138 268 140q134 0 205 -104t46 -311l-29 -233h-403l-16 -138q-7 -63 2 -104t48 -41q64 0 102 121l241 -45q-58 -149 -152 -224t-213 -76q-170 0 -222 155h-60q-32 -69 -96 -112t-151 -43
z" />
    <glyph glyph-name="Oslashacute" unicode="&#x1fe;" 
d="M711 1508q78 0 147 -15l93 183h248l-140 -283q138 -138 105 -410l-60 -484q-30 -244 -179 -381t-402 -137q-59 0 -147 13l-89 -180h-248l140 277q-145 133 -110 408l59 484q30 245 180 385t403 140zM555 249q112 -1 162 61t69 222l48 395q2 17 3 24t3 25l-352 -719
q34 -8 67 -8zM678 1240q-112 0 -162 -64t-69 -226l-52 -418q-4 -26 -4 -48l356 747q-20 9 -69 9zM544 1676l221 372h447l-437 -372h-231z" />
    <glyph glyph-name="oslashacute" unicode="&#x1ff;" 
d="M523 -19q-61 0 -149 13l-108 -180h-208l143 244q-82 52 -122 144t-25 202l37 302q24 199 178 314t398 116q57 0 148 -13l108 180h209l-145 -245q82 -52 121 -146t26 -206l-37 -302q-24 -197 -177 -310t-397 -113zM551 216q112 0 162 49t63 165l34 268q8 74 -6 110
l-331 -585q30 -7 78 -7zM717 892q-43 9 -82 9q-112 0 -161 -52t-63 -155l-33 -264q-8 -80 4 -123zM547 1303l222 373h447l-438 -373h-231z" />
    <glyph glyph-name="Scommaaccent" unicode="&#x218;" 
d="M717 1506q123 0 240 -42t190 -90l-86 -255q-201 117 -355 117q-169 -1 -188 -147q-10 -73 36 -113t191 -82q221 -68 301 -172t56 -302t-184 -318t-428 -121q-268 0 -483 144l107 268q94 -63 192 -103t214 -40t163 43q49 45 59 123t-43 112t-185 75q-220 63 -302 165
t-58 288t165 318q142 132 398 132zM138 -559l152 373h445l-366 -373h-231z" />
    <glyph glyph-name="scommaaccent" unicode="&#x219;" 
d="M652 914q-128 0 -140 -95q-7 -54 41 -78t179 -54q195 -39 274 -115t60 -231q-20 -155 -164 -253t-390 -99q-138 0 -266 37t-211 95l103 214q93 -58 205 -92q113 -34 197 -34t120 26t43 80t-26 80t-133 48q-214 39 -314 110t-80 229t156 256q137 98 351 98q114 0 226 -32
t193 -84l-82 -203q-180 97 -342 97zM156 -559l153 373h445l-367 -373h-231z" />
    <glyph glyph-name="Tcommaaccent" unicode="&#x21a;" 
d="M344 0l151 1221h-374l32 268h1111l-31 -268h-377l-150 -1221h-362zM156 -559l153 373h445l-367 -373h-231z" />
    <glyph glyph-name="tcommaaccent" unicode="&#x21b;" 
d="M1007 26q-94 -46 -303 -46t-315 105t-84 293l60 488h-233l32 251h233l44 372h361l-44 -372h368l-31 -251h-369l-54 -449q-25 -184 130 -182q107 0 202 37zM229 -559l153 373h445l-367 -373h-231z" />
    <glyph glyph-name="dotlessj" unicode="&#xf6be;" 
d="M249 -155q116 0 177.5 42t74.5 139l102 840h-419l32 251h778l-138 -1121q-22 -179 -176.5 -283t-376.5 -104t-340 43l61 229q109 -36 225 -36z" />
    <glyph glyph-name="dotlessj" unicode="&#x237;" 
d="M249 -155q116 0 177.5 42t74.5 139l102 840h-419l32 251h778l-138 -1121q-22 -179 -176.5 -283t-376.5 -104t-340 43l61 229q109 -36 225 -36z" />
    <glyph glyph-name="quoteleft" unicode="&#x2018;" 
d="M274 661l534 828h223l-258 -828h-499z" />
    <glyph glyph-name="quoteleft" unicode="&#x2bb;" 
d="M274 661l534 828h223l-258 -828h-499z" />
    <glyph glyph-name="circumflex" unicode="&#x2c6;" 
d="M337 1277l-91 153l352 294h275l281 -294l-126 -151l-324 197z" />
    <glyph glyph-name="caron" unicode="&#x2c7;" 
d="M549 1311l-281 294l127 151l324 -198l366 200l92 -153l-352 -294h-276z" />
    <glyph glyph-name="breve" unicode="&#x2d8;" 
d="M683 1290q-233 0 -334 109t-75 332h285q-13 -128 19 -177q32 -50 132 -50q98 0 144 50t62 177h285q-29 -223 -157 -332t-361 -109z" />
    <glyph glyph-name="dotaccent" unicode="&#x2d9;" 
d="M927 1426q-16 -138 -245 -138q-100 0 -160 31t-49 107l4 26q17 144 245 144t209 -144z" />
    <glyph glyph-name="ring" unicode="&#x2da;" 
d="M699 1424q59 0 93 27t44 94l7 60q14 128 -106 126q-120 0 -136 -126l-7 -60q-10 -67 18 -94t87 -27zM680 1259q-166 1 -259 71t-75 215l8 60q19 147 128 220q110 73 276 73t259 -74q93 -72 74 -219l-7 -60q-18 -145 -128 -215t-276 -71z" />
    <glyph glyph-name="ogonek" unicode="&#x2db;" 
d="M474 -415q-128 -1 -204 59t-61 176t110 201q96 85 212 117l35 -95q-60 -35 -78 -71t-23 -78q-12 -90 118 -91q61 0 165 18l-26 -212q-120 -24 -248 -24z" />
    <glyph glyph-name="tilde" unicode="&#x2dc;" 
d="M664 1410q-25 36 -45 63q-21 28 -51 28t-54 -26t-34 -107l-3 -27h-228l4 27q20 156 108 258t216 102q122 0 187 -88q27 -36 47 -65q19 -28 49 -28q69 0 86 132l4 28h227l-4 -28q-20 -157 -106 -257t-214 -100q-127 0 -189 88z" />
    <glyph glyph-name="hungarumlaut" unicode="&#x2dd;" 
d="M346 1303l123 373h335l-279 -373h-179zM739 1303l123 373h335l-279 -373h-179z" />
    <glyph glyph-name="gravecmb" unicode="&#x300;" horiz-adv-x="0" 
d="M34 1303l-345 373h445l130 -373h-230z" />
    <glyph glyph-name="acutecmb" unicode="&#x301;" horiz-adv-x="0" 
d="M-164 1303l222 373h447l-438 -373h-231z" />
    <glyph glyph-name="circumflexcmb" unicode="&#x302;" horiz-adv-x="0" 
d="M-279 1277l-92 153l352 294h276l281 -294l-127 -151l-323 197z" />
    <glyph glyph-name="tildecmb" unicode="&#x303;" horiz-adv-x="0" 
d="M236 1322q-80 0 -121.5 26t-66.5 62t-45.5 63.5t-50.5 27.5q-74 0 -88 -133l-4 -27h-227l4 27q20 156 107.5 258t216.5 102q122 0 187 -88q27 -36 46.5 -64.5t49.5 -28.5t53 26t33 106l3 28h227l-3 -28q-20 -156 -106.5 -256.5t-214.5 -100.5z" />
    <glyph glyph-name="macroncmb" unicode="&#x304;" horiz-adv-x="0" 
d="M-315 1355l34 269h778l-33 -269h-779z" />
    <glyph glyph-name="brevecmb" unicode="&#x306;" horiz-adv-x="0" 
d="M67 1290q-233 0 -334.5 109t-75.5 332h285q-13 -128 19.5 -177.5t131.5 -49.5t144.5 49.5t62.5 177.5h285q-30 -223 -157.5 -332t-360.5 -109z" />
    <glyph glyph-name="dotaccentcmb" unicode="&#x307;" horiz-adv-x="0" 
d="M311 1426q-16 -138 -245 -138q-100 0 -159.5 31t-49.5 107l3 26q17 144 181 144t223.5 -33t50.5 -111z" />
    <glyph glyph-name="dieresiscmb" unicode="&#x308;" horiz-adv-x="0" 
d="M330 1596q78 0 121.5 -33t34.5 -111l-4 -26q-16 -138 -191 -138q-75 0 -119.5 31t-35.5 107l4 26q17 144 190 144zM-159 1288q-75 0 -120 31t-36 107l4 26q17 144 190 144q78 0 122 -33t34 -111l-3 -26q-16 -138 -191 -138z" />
    <glyph glyph-name="ringcmb" unicode="&#x30a;" horiz-adv-x="0" 
d="M83 1424q59 0 93 27t44 94l7 60q14 126 -106 126t-136 -126l-7 -60q-9 -67 18.5 -94t86.5 -27zM63.5 1259q-165.5 0 -259 70.5t-74.5 215.5l7 60q19 147 129 219.5t275.5 72.5t258.5 -72.5t75 -219.5l-8 -60q-19 -145 -128.5 -215.5t-275 -70.5z" />
    <glyph glyph-name="hungarumlautcmb" unicode="&#x30b;" horiz-adv-x="0" 
d="M-270 1303l123 373h335l-279 -373h-179zM123 1303l123 373h335l-279 -373h-179z" />
    <glyph glyph-name="caroncmb" unicode="&#x30c;" horiz-adv-x="0" 
d="M-67 1311l-281 294l126 151l324 -198l367 200l91 -153l-351 -294h-276z" />
    <glyph glyph-name="commaturnedabovecmb" unicode="&#x312;" horiz-adv-x="0" 
d="M-197 1303l366 373h233l-154 -373h-445z" />
    <glyph glyph-name="commaaccentcmb" unicode="&#x326;" horiz-adv-x="0" 
d="M-445 -559l153 373h445l-367 -373h-231z" />
    <glyph glyph-name="cedillacmb" unicode="&#x327;" horiz-adv-x="0" 
d="M-206 -419q-164 0 -264 59.5t-90 188.5l303 18q0 -35 16 -49t59 -14t66.5 20t31.5 76t-4 81.5t-55 38.5l44 78q158 -15 244 -69.5t70 -180.5t-136.5 -186.5t-284.5 -60.5z" />
    <glyph glyph-name="ogonekcmb" unicode="&#x328;" horiz-adv-x="0" 
d="M-142 -415q-128 0 -204.5 59.5t-61.5 175.5t111 201t211 117l36 -95q-60 -35 -77.5 -70t-23.5 -79q-12 -90 117 -91q62 0 166 18l-26 -212q-120 -24 -248 -24z" />
    <glyph glyph-name="tonos" unicode="&#x384;" 
d="M521 1303l119 373h429l-334 -373h-214z" />
    <glyph glyph-name="dieresistonos" unicode="&#x385;" 
d="M1076 1287q-69 1 -109 31t-31 106l4 26q17 144 173 144q71 0 111 -33t31 -111l-4 -26q-16 -137 -175 -137zM328 1594q69 0 109 -33t30 -111l-3 -26q-16 -137 -175 -137q-69 1 -109 31t-31 106l4 26q17 144 175 144zM529 1303l124 373h300l-225 -373h-199z" />
    <glyph glyph-name="Alphatonos" unicode="&#x386;" 
d="M776 0l-24 344h-372l-119 -344h-322l547 1489h445l182 -1489h-337zM730 613l-45 614l-212 -614h257zM20 1303l120 373h428l-333 -373h-215z" />
    <glyph glyph-name="anoteleia" unicode="&#x387;" 
d="M592 465q-116 -1 -184 53q-67 54 -56 150l19 151q11 97 92 152t199 55t182 -55t53 -152l-18 -151q-11 -97 -91 -150t-196 -53z" />
    <glyph glyph-name="Epsilontonos" unicode="&#x388;" 
d="M4 0l182 1489h1039l-32 -268h-679l-37 -294h594l-34 -268h-594l-46 -391h679l-33 -268h-1039zM-238 1303l119 373h428l-333 -373h-214z" />
    <glyph glyph-name="Etatonos" unicode="&#x389;" 
d="M-274 1303l119 373h429l-334 -373h-214zM4 0l182 1489h360l-66 -528h324l65 528h360l-183 -1489h-359l86 693h-324l-86 -693h-359z" />
    <glyph glyph-name="Iotatonos" unicode="&#x38a;" 
d="M-274 1303l119 373h429l-334 -373h-214zM4 0l33 268h341l117 953h-340l31 268h1043l-32 -268h-341l-117 -953h341l-34 -268h-1042z" />
    <glyph glyph-name="Omicrontonos" unicode="&#x38c;" 
d="M-61 1303l119 373h428l-333 -373h-214zM556 249q88 0 130 54t59 196l59 484q17 143 -11 200q-29 57 -115 57t-130 -57t-60 -200l-60 -484q-17 -141 12 -195t116 -55zM523 -19q-253 1 -369 129t-89 355l67 552q28 229 177 360t401 131t368 -131t89 -360l-67 -552
q-28 -227 -176 -355t-401 -129z" />
    <glyph glyph-name="Upsilontonos" unicode="&#x38e;" 
d="M706 0h-362l69 559l-279 930h356l141 -603l294 603h354l-504 -930zM-268 1303l119 373h428l-333 -373h-214z" />
    <glyph glyph-name="Omegatonos" unicode="&#x38f;" 
d="M-134 1303l119 373h428l-333 -373h-214zM710 1508q260 0 381 -135t89 -390l-28 -218q-32 -271 -229 -380l-20 -167h182l-26 -218h-486l53 428q131 46 167 337l30 231q15 132 -22 185t-125 53t-138 -53t-65 -185l-30 -231q-36 -290 86 -337l-52 -428h-486l26 218h184
l21 167q-172 110 -138 380l28 218q32 255 184 390q154 135 414 135z" />
    <glyph glyph-name="iotadieresistonos" unicode="&#x390;" 
d="M1059 1287q-69 1 -109 31t-30 106l3 26q17 144 174 144q71 0 111 -33t30 -111l-4 -26q-16 -137 -175 -137zM311 1594q69 0 109 -33t31 -111l-4 -26q-16 -137 -174 -137q-68 1 -109 31t-32 106l4 26q17 144 175 144zM512 1303l125 373h299l-225 -373h-199zM857 251
q73 0 167 38l22 -244q-168 -60 -294 -60q-203 0 -312 108t-88 278l61 495h-262l31 251h624l-84 -681q-14 -95 24 -140t111 -45z" />
    <glyph glyph-name="Alpha" unicode="&#x391;" 
d="M776 0l-24 344h-372l-119 -344h-322l547 1489h445l182 -1489h-337zM730 613l-45 614l-212 -614h257z" />
    <glyph glyph-name="Beta" unicode="&#x392;" 
d="M532 251q99 1 144 37t56 122l11 93q11 86 -26 121t-136 35h-138l-48 -408h137zM616 890q78 0 115 31q36 31 44 101l11 86q9 70 -20 100t-107 30h-143l-43 -348h143zM735 1489q227 0 331 -86q103 -87 81 -264l-8 -65q-15 -118 -73 -178t-170 -81l-8 -54q119 -13 174 -87
t40 -186l-11 -97q-48 -391 -545 -391h-542l182 1489h549z" />
    <glyph glyph-name="Gamma" unicode="&#x393;" 
d="M99 0l182 1489h983l-31 -268h-624l-151 -1221h-359z" />
    <glyph glyph-name="Delta" unicode="&#x394;" 
d="M782 268l-102 994l-360 -994h462zM-22 0l33 268l447 1221h521l129 -1221l-34 -268h-1096z" />
    <glyph glyph-name="Epsilon" unicode="&#x395;" 
d="M4 0l182 1489h1039l-32 -268h-679l-37 -294h594l-34 -268h-594l-46 -391h679l-33 -268h-1039z" />
    <glyph glyph-name="Zeta" unicode="&#x396;" 
d="M1043 0h-1036l34 268l791 953h-674l32 268h1035l-32 -268l-778 -953h661z" />
    <glyph glyph-name="Eta" unicode="&#x397;" 
d="M4 0l182 1489h360l-66 -528h324l65 528h360l-183 -1489h-359l86 693h-324l-86 -693h-359z" />
    <glyph glyph-name="Theta" unicode="&#x398;" 
d="M471 637l28 234h266l-28 -234h-266zM555 249q106 0 165.5 63.5t78.5 219.5l52 418q19 156 -23 223t-149 67t-167 -67t-78 -223l-52 -418q-19 -156 24 -219.5t149 -63.5zM523.5 -19q-249.5 0 -367 136t-87.5 382l59 484q30 249 182 387t400 138t366.5 -137.5t88.5 -387.5
l-59 -484q-30 -246 -181.5 -382t-401 -136z" />
    <glyph glyph-name="Iota" unicode="&#x399;" 
d="M4 0l33 268h341l117 953h-340l31 268h1043l-32 -268h-341l-117 -953h341l-34 -268h-1042z" />
    <glyph glyph-name="Kappa" unicode="&#x39a;" 
d="M441 633l-78 -633h-359l182 1489h360l-73 -588h69l376 588h367l-494 -687l306 -802h-360l-221 633h-75z" />
    <glyph glyph-name="Lambda" unicode="&#x39b;" 
d="M776 0l-91 1227l-424 -1227h-322l547 1489h445l182 -1489h-337z" />
    <glyph glyph-name="Mu" unicode="&#x39c;" 
d="M473 456l-88 508l-78 -964h-314l182 1489h324l130 -688l294 688h317l-182 -1489h-315l154 946l-204 -490h-220z" />
    <glyph glyph-name="Nu" unicode="&#x39d;" 
d="M633 0l-201 996l-123 -996h-305l182 1489h386l223 -1055l128 1055h306l-183 -1489h-413z" />
    <glyph glyph-name="Xi" unicode="&#x39e;" 
d="M7 0l34 268h1035l-33 -268h-1036zM130 659l34 268h949l-33 -268h-950zM158 1221l32 268h1035l-32 -268h-1035z" />
    <glyph glyph-name="Omicron" unicode="&#x39f;" 
d="M556 249q88 0 130 54t59 196l59 484q17 143 -11 200q-29 57 -115 57t-130 -57t-60 -200l-60 -484q-17 -141 12 -195t116 -55zM523 -19q-253 1 -369 129t-89 355l67 552q28 229 177 360t401 131t368 -131t89 -360l-67 -552q-28 -227 -176 -355t-401 -129z" />
    <glyph glyph-name="Pi" unicode="&#x3a0;" 
d="M4 0l182 1489h1043l-183 -1489h-359l151 1221h-324l-151 -1221h-359z" />
    <glyph glyph-name="Rho" unicode="&#x3a1;" 
d="M611 722q81 0 125 33t55 131l21 162q12 101 -24 137t-116 36h-158l-62 -499h159zM724 1489q233 0 354 -101t95 -314l-28 -221q-46 -395 -545 -395h-181l-56 -458h-359l182 1489h538z" />
    <glyph glyph-name="Sigma" unicode="&#x3a3;" 
d="M987 0h-940l33 268l557 493l-440 460l32 268h940l-31 -268h-583l335 -340l-26 -213l-447 -400h603z" />
    <glyph glyph-name="Tau" unicode="&#x3a4;" 
d="M344 0l151 1221h-374l32 268h1111l-31 -268h-377l-150 -1221h-362z" />
    <glyph glyph-name="Upsilon" unicode="&#x3a5;" 
d="M706 0h-362l69 559l-279 930h356l141 -603l294 603h354l-504 -930z" />
    <glyph glyph-name="Phi" unicode="&#x3a6;" 
d="M497 1071q-95 0 -125 -229l-24 -202q-28 -221 69 -221h26l80 652h-26zM823 1071h-34l-80 -652h34q85 0 113 221l25 202q29 229 -58 229zM698 168h-13l-22 -187h-281l22 187h-13q-188 0 -273 126t-58 346l24 202q28 224 145 352t305 128h12l22 186h281l-22 -186h13
q188 0 274 -128t57 -352l-24 -202q-25 -222 -143 -347t-306 -125z" />
    <glyph glyph-name="Chi" unicode="&#x3a7;" 
d="M730 0l-160 438l-261 -438h-341l486 769l-260 720h365l135 -379l229 379h339l-452 -718l266 -771h-346z" />
    <glyph glyph-name="Psi" unicode="&#x3a8;" 
d="M668 0h-284l42 348q-194 34 -278.5 163t-58.5 340l79 638h288l-76 -620q-13 -112 5.5 -174t74.5 -81l106 875h283l-106 -875q60 19 93 81.5t47 173.5l76 620h288l-78 -638q-26 -210 -142.5 -339.5t-315.5 -163.5z" />
    <glyph glyph-name="Omega" unicode="&#x3a9;" 
d="M709.5 1508q260.5 0 381.5 -135t89 -390l-28 -218q-32 -271 -229 -380l-20 -167h182l-26 -218h-486l53 428q131 46 167 337l30 231q15 132 -22.5 185t-125 53t-137.5 -53t-65 -185l-30 -231q-36 -290 86 -337l-52 -428h-486l26 218h184l21 167q-170 108 -138 380l28 218
q32 255 184.5 390t413 135z" />
    <glyph glyph-name="Iotadieresis" unicode="&#x3aa;" 
d="M4 0l33 268h341l117 953h-340l31 268h1043l-32 -268h-341l-117 -953h341l-34 -268h-1042zM987 1968q78 0 122 -33t34 -110l-4 -26q-16 -138 -190 -138q-75 1 -120 31t-36 107l4 26q16 143 190 143zM536 1968q78 0 122 -33t35 -110l-4 -26q-16 -138 -191 -138
q-75 1 -120 31t-35 107l3 26q16 143 190 143z" />
    <glyph glyph-name="Upsilondieresis" unicode="&#x3ab;" 
d="M706 0h-362l69 559l-279 930h356l141 -603l294 603h354l-504 -930zM987 1968q78 0 122 -33t34 -110l-4 -26q-16 -138 -190 -138q-75 1 -120 31t-36 107l4 26q16 143 190 143zM536 1968q78 0 122 -33t35 -110l-4 -26q-16 -138 -191 -138q-75 1 -120 31t-35 107l3 26
q16 143 190 143z" />
    <glyph glyph-name="alphatonos" unicode="&#x3ac;" 
d="M434 1139q181 0 229 -197h50l22 175h360l-93 -748q-9 -79 14 -103t86 -17l-30 -242q-151 -35 -228 18t-90 202h-50q-132 -243 -388 -243q-128 0 -200 94q-72 95 -51 257l50 415q23 170 111 280t208 109zM575 869q-83 0 -104 -150l-39 -330q-17 -138 74 -138q64 0 133 80
l55 460q-53 78 -119 78zM614 1303l120 373h428l-333 -373h-215z" />
    <glyph glyph-name="epsilontonos" unicode="&#x3ad;" 
d="M561 -19q-278 1 -398 77t-102 232l4 36q11 88 85 152t209 73l6 41q-108 8 -166 60t-46 143l5 43q38 298 531 298q231 0 337 -87t97 -282l-322 -15q5 91 -25 131t-108 40t-112 -26q-33 -26 -38 -85l-4 -26q-8 -69 20 -92t103 -24h95l-23 -182h-95q-112 0 -145 -33
t-41 -104q-9 -71 19 -105q29 -34 137 -36q108 0 145 44q36 44 55 131l320 -13q-37 -194 -151 -292t-392 -99zM560 1303l120 373h428l-333 -373h-215z" />
    <glyph glyph-name="etatonos" unicode="&#x3ae;" 
d="M629 1303l119 373h429l-334 -373h-214zM676 868q-48 0 -104 -31t-99 -89l-91 -748h-360l138 1117h359l-24 -190h52q51 99 143 154t212 55t182 -87t42 -243l-145 -1178h-359l138 1117q7 59 -15 91q-21 32 -69 32z" />
    <glyph glyph-name="iotatonos" unicode="&#x3af;" 
d="M532 1303l120 373h428l-333 -373h-215zM857 251q73 0 167 38l22 -244q-168 -60 -294 -60q-203 0 -312 108t-88 278l61 495h-262l31 251h624l-84 -681q-14 -95 24 -140t111 -45z" />
    <glyph glyph-name="upsilondieresistonos" unicode="&#x3b0;" 
d="M524 -19q-236 0 -355 121t-93 336l84 679h359l-83 -670q-11 -101 15 -149t104 -48t116 45q38 46 51 146l84 676h359l-83 -679q-26 -214 -174 -336t-384 -121zM1076 1287q-69 1 -109 31t-31 106l4 26q17 144 173 144q71 0 111 -33t31 -111l-4 -26q-16 -137 -175 -137z
M328 1594q69 0 109 -33t30 -111l-3 -26q-16 -137 -175 -137q-69 1 -109 31t-31 106l4 26q17 144 175 144zM529 1303l124 373h300l-225 -373h-199z" />
    <glyph glyph-name="alpha" unicode="&#x3b1;" 
d="M704 227q-132 -244 -388 -244q-128 0 -199.5 95t-51.5 257l50 415q22 171 111 280t208 109q181 0 229 -197h50l22 175h360l-93 -748q-9 -80 14 -103.5t86 -16.5l-30 -242q-151 -35 -228 18t-90 202h-50zM566.5 869q-74.5 0 -95.5 -150l-39 -330q-17 -138 74 -138
q64 0 133 80l55 460q-53 78 -127.5 78z" />
    <glyph glyph-name="beta" unicode="&#x3b2;" 
d="M605 -19q-117 0 -221 39l-49 -392h-359l179 1452q26 205 163.5 316.5t357.5 111.5t340 -93t99 -255l-5 -56q-27 -219 -315 -270l-7 -54q160 -17 237 -97t60 -218l-11 -87q-22 -184 -148.5 -290.5t-320.5 -106.5zM596 694h-60l24 198h51q58 0 90.5 30.5t41.5 105.5l7 70
q11 80 -13 111t-88 31t-95 -42t-42 -135l-93 -767q58 -50 122 -50t113.5 39t62.5 147l9 71q15 112 -19.5 151.5t-110.5 39.5z" />
    <glyph glyph-name="gamma" unicode="&#x3b3;" 
d="M694 -372h-431l85 409l-251 1080h357l110 -780l304 780h359l-518 -1080z" />
    <glyph glyph-name="delta" unicode="&#x3b4;" 
d="M554 233q70 0 111 36t52 122l22 182q11 88 -23.5 133.5t-138.5 90.5q-105 -66 -123 -209l-24 -197q-11 -86 21.5 -122t102.5 -36zM523.5 -19q-236.5 0 -356.5 105.5t-96 304.5l22 182q26 214 272 313q-93 48 -126.5 109t-22.5 154q20 168 147 254t339 86h354l-30 -251
h-337q-56 0 -88.5 -18t-38.5 -68t46.5 -79t205.5 -87t229 -148t55 -265l-22 -182q-24 -199 -170 -304.5t-382.5 -105.5z" />
    <glyph glyph-name="epsilon" unicode="&#x3b5;" 
d="M561 -19q-278 0 -398 76.5t-102 232.5l4 36q11 88 85.5 152t208.5 73l6 41q-108 7 -166 59.5t-46 143.5l5 43q38 298 531 298q231 0 337 -86.5t97 -282.5l-322 -15q4 91 -25 131t-108 40t-112 -26t-38 -85l-4 -26q-9 -69 19.5 -92.5t103.5 -23.5h95l-23 -182h-95
q-112 0 -144.5 -33t-41.5 -104t19.5 -106t136.5 -35t144.5 44t55.5 131l320 -13q-37 -194 -151 -292.5t-392 -98.5z" />
    <glyph glyph-name="zeta" unicode="&#x3b6;" 
d="M562 -372h-245l29 234h233q54 0 89.5 20.5t42.5 85.5t-22.5 88.5t-83.5 23.5h-106q-463 0 -419 376q20 158 94 263.5t232 267.5l160 171l-6 28q-330 -68 -458 285l198 119q71 -151 182.5 -191t319.5 7l354 141l11 -316l-340 -54l-185 -263q-89 -128 -135.5 -213
t-59.5 -189t12 -150.5t94 -46.5h162q168 0 249.5 -83t60.5 -256t-145 -260.5t-318 -87.5z" />
    <glyph glyph-name="eta" unicode="&#x3b7;" 
d="M675 868q-47 0 -103 -31t-99 -89l-91 -748h-360l138 1117h359l-24 -190h52q52 99 143.5 154t211.5 55t181.5 -86.5t42.5 -243.5l-145 -1178h-359l138 1117q7 58 -15.5 90.5t-69.5 32.5z" />
    <glyph glyph-name="theta" unicode="&#x3b8;" 
d="M554 233q92 0 132 45.5t53 151.5l28 216h-324l-28 -216q-13 -106 17 -151.5t122 -45.5zM681 1257q-92 0 -134.5 -49.5t-53.5 -140.5l-24 -203h324l26 207q11 91 -17.5 138.5t-120.5 47.5zM523 -19q-233 0 -354 114t-96 309l82 674q24 199 173.5 314.5t381.5 115.5
t353 -115.5t97 -314.5l-82 -674q-24 -195 -173 -309t-382 -114z" />
    <glyph glyph-name="iota" unicode="&#x3b9;" 
d="M857 251q73 0 167 38l22 -244q-168 -60 -294 -60q-203 0 -312 108t-88 278l61 495h-262l31 251h624l-84 -681q-14 -95 24 -140t111 -45z" />
    <glyph glyph-name="kappa" unicode="&#x3ba;" 
d="M449 462l-56 -462h-361l137 1117h362l-53 -423h60l307 423h365l-385 -504l242 -613h-380l-179 462h-59z" />
    <glyph glyph-name="lambda" unicode="&#x3bb;" 
d="M421 1501q233 0 345.5 -87t143.5 -289l179 -1125h-357l-114 849l-303 -849h-356l352 966h290l-7 47q-19 134 -71 184t-153 50t-161 -9l-6 251q120 12 218 12z" />
    <glyph glyph-name="mu" unicode="&#x3bc;" 
d="M524 259q71 0 135 76l97 782h361l-93 -748q-9 -80 7.5 -103.5t72.5 -16.5l-30 -242q-125 -30 -191 1t-97 132h-52q-74 -155 -202 -155q-90 0 -124 67l-36 -424h-394l67 409l134 1080h361l-88 -715q-11 -76 11.5 -109.5t60.5 -33.5z" />
    <glyph glyph-name="nu" unicode="&#x3bd;" 
d="M1227 1117q-126 -561 -518 -1117h-370l-242 1117h359l147 -784q175 336 268 784h356z" />
    <glyph glyph-name="xi" unicode="&#x3be;" 
d="M540 -372h-207l30 234h194q63 0 103 20.5t47 85.5t-27 88.5t-97 23.5h-121q-192 0 -290.5 90.5t-78.5 248.5l4 33q13 108 98.5 189t236.5 94l6 43q-97 0 -142.5 54t-35.5 126t71.5 125t169.5 68l5 42q-311 -12 -400 278l186 119q76 -145 177 -184t296 2l378 139l-2 -316
l-383 -56l-49 -34q-73 -54 -84 -162q-12 -108 75 -108h277l-27 -234h-293q-95 0 -141.5 -45t-53.5 -112l-6 -33q-6 -60 28.5 -96t120.5 -36h63q194 0 284 -83.5t69 -255.5t-144 -260t-337 -88z" />
    <glyph glyph-name="omicron" unicode="&#x3bf;" 
d="M554 233q75 0 114 41t51 134l35 296q13 95 -16 138q-29 42 -104 42q-76 0 -114 -42t-49 -136l-35 -289q-13 -99 15 -141t103 -43zM524 -19q-234 0 -356 109t-97 301l39 328q24 193 173 305t384 112t353 -114t95 -313l-41 -325q-22 -188 -169 -296t-381 -107z" />
    <glyph glyph-name="pi" unicode="&#x3c0;" 
d="M1179 1117l-32 -251h-129l-59 -484q-9 -86 24.5 -116t126.5 -17l-30 -242q-242 -47 -358.5 33.5t-92.5 279.5l67 546h-216l-106 -866h-322l106 866h-113l31 251h1103z" />
    <glyph glyph-name="rho" unicode="&#x3c1;" 
d="M657 1128q247 0 365.5 -104t94.5 -303l-45 -358q-20 -169 -124.5 -275.5t-262.5 -106.5q-104 0 -163.5 55t-63.5 154h-52l-71 -562h-359l136 1093q24 199 161 303t384 104zM590 251q109 0 129 162l39 308q17 158 -119 158q-151 0 -168 -158l-48 -380q79 -90 167 -90z" />
    <glyph glyph-name="sigma1" unicode="&#x3c2;" 
d="M562 -121q54 0 87 18.5t41 78.5t-21 82t-83 22h-150q-190 0 -283 112.5t-67 315.5l24 207q24 199 172 310t384 111t334 -107t100 -312l-352 -28q6 112 -19 153t-103 41t-112 -43t-47 -147l-20 -170q-13 -104 13 -148t117 -44h153q160 0 238 -86.5t58 -256.5t-163.5 -265
t-376.5 -95h-188l32 251h232z" />
    <glyph glyph-name="sigma" unicode="&#x3c3;" 
d="M489.5 -19q-217.5 0 -330 110t-88.5 300l39 326q24 186 162.5 293t358.5 107h629l-33 -270l-225 15q50 -90 35 -233l-30 -238q-24 -190 -162 -300t-355.5 -110zM519.5 233q63.5 0 91.5 40t39 131l37 315q11 80 -6.5 122t-81 42t-91.5 -43t-39 -123l-37 -313
q-11 -91 6.5 -131t81 -40z" />
    <glyph glyph-name="tau" unicode="&#x3c4;" 
d="M910 7q-274 -52 -412.5 30t-113.5 283l65 529h-341l33 268h1060l-34 -268h-357l-58 -467q-11 -89 31 -118t157 -15z" />
    <glyph glyph-name="upsilon" unicode="&#x3c5;" 
d="M524 -19q-236 0 -355 121t-93 336l84 679h359l-83 -670q-11 -102 15 -150t104 -48t116 46t51 146l84 676h359l-83 -679q-26 -214 -174 -335.5t-384 -121.5z" />
    <glyph glyph-name="phi" unicode="&#x3c6;" 
d="M748 868l-76 -626q97 19 141.5 78.5t59.5 172.5l11 103q37 272 -136 272zM719 1117q223 0 334.5 -138.5t82.5 -382.5l-11 -103q-26 -205 -147.5 -334t-309.5 -165l-46 -366h-274l47 366q-192 35 -279.5 186t-57.5 397l15 125q39 304 119 430l273 -60q-72 -130 -104 -370
l-15 -125q-19 -151 3 -230t100 -103l108 873h162z" />
    <glyph glyph-name="chi" unicode="&#x3c7;" 
d="M626 -372l-120 366l-217 -366h-356l454 737l-240 752h358l124 -378l224 378h355l-461 -745l240 -744h-361z" />
    <glyph glyph-name="psi" unicode="&#x3c8;" 
d="M622 -372h-287l43 348q-384 63 -335 486l82 655h290l-76 -622q-15 -114 4.5 -180t84.5 -86l110 888h250l-110 -888q69 20 105 86.5t51 179.5l76 622h291l-82 -655q-24 -205 -138.5 -330t-315.5 -158z" />
    <glyph glyph-name="omega" unicode="&#x3c9;" 
d="M242 -19q-117 0 -172 123t-27 356l33 266q30 252 119 423l276 -60q-87 -210 -104 -363l-36 -283q-22 -194 32 -194q67 0 86 138l52 436h249l-52 -436q-17 -138 49 -138q56 0 80 194l35 283q16 146 -15 363l291 60q43 -173 14 -423l-33 -266q-28 -233 -114.5 -356
t-209.5 -123q-84 0 -141.5 52.5t-78.5 186.5h-56q-34 -136 -110 -187.5t-167 -51.5z" />
    <glyph glyph-name="iotadieresis" unicode="&#x3ca;" 
d="M857 251q73 0 167 38l22 -244q-168 -60 -294 -60q-203 0 -312 108t-88 278l61 495h-262l31 251h624l-84 -681q-14 -95 24 -140t111 -45zM1091 1426q-16 -138 -191 -138q-75 0 -120 31t-35 107l3 26q17 144 190 144q78 0 122 -33t35 -111zM640 1426q-16 -138 -190 -138
q-75 0 -120 31t-36 107l4 26q17 144 190 144q78 0 122 -33t34 -111z" />
    <glyph glyph-name="upsilondieresis" unicode="&#x3cb;" 
d="M524 -19q-236 0 -355 121t-93 336l84 679h359l-83 -670q-11 -101 15 -149t104 -48t116 45q38 46 51 146l84 676h359l-83 -679q-26 -214 -174 -336t-384 -121zM1098 1426q-16 -138 -190 -138q-75 0 -120 31t-36 107l4 26q17 144 190 144q78 0 122 -33t34 -111zM648 1426
q-16 -138 -191 -138q-75 0 -120 31t-35 107l3 26q17 144 190 144q78 0 122 -33t35 -111z" />
    <glyph glyph-name="omicrontonos" unicode="&#x3cc;" 
d="M521 1303l119 373h429l-334 -373h-214zM554 233q75 0 114 41t51 134l35 296q13 95 -16 138q-29 42 -104 42q-76 0 -114 -42t-49 -136l-35 -289q-13 -99 15 -141t103 -43zM524 -19q-234 0 -356 109t-97 301l39 328q24 193 173 305t384 112t353 -114t95 -313l-41 -325
q-22 -188 -169 -296t-381 -107z" />
    <glyph glyph-name="upsilontonos" unicode="&#x3cd;" 
d="M524 -19q-236 0 -355 121t-93 336l84 679h359l-83 -670q-11 -101 15 -149t104 -48t116 45q38 46 51 146l84 676h359l-83 -679q-26 -214 -174 -336t-384 -121zM503 1303l119 373h428l-333 -373h-214z" />
    <glyph glyph-name="omegatonos" unicode="&#x3ce;" 
d="M529 1303l119 373h428l-333 -373h-214zM242 -19q-117 0 -172 123t-27 356l33 266q30 252 119 423l276 -60q-87 -211 -104 -363l-36 -283q-22 -192 32 -194q35 0 56 32q20 32 30 106l52 436h249l-52 -436q-17 -138 49 -138q58 0 80 194l35 283q16 146 -15 363l291 60
q44 -178 14 -423l-33 -266q-28 -233 -115 -356t-209 -123q-84 1 -142 53t-78 186h-56q-34 -136 -110 -188t-167 -51z" />
    <glyph glyph-name="IEgravecyrillic" unicode="&#x400;" 
d="M648 1676l-345 372h445l131 -372h-231zM4 0l182 1489h1039l-32 -268h-679l-37 -294h594l-34 -268h-594l-46 -391h679l-33 -268h-1039z" />
    <glyph glyph-name="Iocyrillic" unicode="&#x401;" 
d="M4 0l182 1489h1039l-32 -268h-679l-37 -294h594l-34 -268h-594l-46 -391h679l-33 -268h-1039zM1000 1968q78 0 122 -33t34 -110l-4 -26q-16 -138 -190 -138q-75 1 -120 31t-36 107l4 26q16 143 190 143zM549 1968q78 0 122 -33t35 -110l-4 -26q-16 -138 -191 -138
q-75 1 -120 31t-35 107l3 26q16 143 190 143z" />
    <glyph glyph-name="Djecyrillic" unicode="&#x402;" 
d="M709 968q227 0 333.5 -110.5t80.5 -332.5l-11 -87q-28 -220 -161.5 -329t-360.5 -109l32 264q61 0 99.5 39.5t49.5 137.5l9 80q13 101 -15 142t-89 41h-110l-86 -704h-359l151 1221h-181l32 268h778l-32 -268h-238l-31 -253h109z" />
    <glyph glyph-name="Gjecyrillic" unicode="&#x403;" 
d="M551 1676l222 372h446l-437 -372h-231zM99 0l182 1489h983l-31 -268h-624l-151 -1221h-359z" />
    <glyph glyph-name="Ecyrillic" unicode="&#x404;" 
d="M550 -19q-269 0 -392 125t-93 369l65 532q32 248 184.5 374.5t419.5 126.5t379 -122t90 -416l-361 -19q9 175 -16 232t-127 57t-148 -56t-65 -212l-6 -45h242l-33 -268h-242l-17 -151q-19 -151 13 -205t133 -54t140.5 54t72.5 228l358 -19q-47 -279 -187.5 -405
t-409.5 -126z" />
    <glyph glyph-name="Dzecyrillic" unicode="&#x405;" 
d="M717 1506q123 0 240 -42t190 -90l-86 -255q-201 117 -355 117q-169 -1 -188 -147q-10 -73 36 -113t191 -82q221 -68 301 -172t56 -302t-184 -318t-428 -121q-268 0 -483 144l107 268q94 -63 192 -103t214 -40t163 43q49 45 59 123t-43 112t-185 75q-220 63 -302 165
t-58 288t165 318q142 132 398 132z" />
    <glyph glyph-name="Icyrillic" unicode="&#x406;" 
d="M4 0l33 268h341l117 953h-340l31 268h1043l-32 -268h-341l-117 -953h341l-34 -268h-1042z" />
    <glyph glyph-name="Yicyrillic" unicode="&#x407;" 
d="M987 1968q78 0 122 -33t34 -110l-4 -26q-16 -138 -190 -138q-75 1 -120 31t-36 107l4 26q16 143 190 143zM536 1968q78 0 122 -33t35 -110l-4 -26q-16 -138 -191 -138q-75 1 -120 31t-35 107l3 26q16 143 190 143zM4 0l33 268h341l117 953h-340l31 268h1043l-32 -268
h-341l-117 -953h341l-34 -268h-1042z" />
    <glyph glyph-name="Jecyrillic" unicode="&#x408;" 
d="M498 -19q-270 0 -377 127q-106 127 -82 421l361 20q-9 -184 18 -242t108 -58q81 -1 124 51t59 186l92 735h-399l32 268h758l-123 -1011q-29 -233 -165 -365t-406 -132z" />
    <glyph glyph-name="Ljecyrillic" unicode="&#x409;" 
d="M750 235q39 0 61.5 36t33.5 122l32 257q9 84 -4 117.5t-52 33.5h-39l-71 -566h39zM26 -9q-52 0 -125 16l65 254q11 -2 22.5 -6t27.5 -2t33.5 22.5t24.5 78.5l151 1135h641l-56 -458h95q138 0 201 -86.5t43 -248.5l-41 -337q-22 -173 -108 -266t-224 -93h-361l155 1255
h-114l-130 -1000q-19 -128 -95 -196t-205 -68z" />
    <glyph glyph-name="Njecyrillic" unicode="&#x40a;" 
d="M903 1031q286 0 246 -335l-41 -337q-44 -359 -333 -359h-360l86 693h-160l-86 -693h-266l182 1489h267l-66 -528h160l66 528h268l-56 -458h93zM748 235q41 0 63.5 36t33.5 122l32 257q9 84 -4 117.5t-54 33.5h-37l-71 -566h37z" />
    <glyph glyph-name="Tshecyrillic" unicode="&#x40b;" 
d="M717 929q231 0 330.5 -98.5t75.5 -303.5l-65 -527h-360l63 512q17 153 -89 153h-108l-82 -665h-359l151 1221h-181l32 268h797l-32 -268h-257l-37 -292h121z" />
    <glyph glyph-name="Kjecyrillic" unicode="&#x40c;" 
d="M614 1676l222 372h447l-438 -372h-231zM441 633l-78 -633h-359l182 1489h360l-73 -588h69l376 588h367l-494 -687l306 -802h-360l-221 633h-75z" />
    <glyph glyph-name="Igravecyrillic" unicode="&#x40d;" 
d="M655 1676l-344 372h445l130 -372h-231zM732 0l121 990l-436 -990h-413l182 1489h315l-129 -1051l471 1051h386l-183 -1489h-314z" />
    <glyph glyph-name="Ushortcyrillic" unicode="&#x40e;" 
d="M24 285q124 -28 203 -27q78 0 135 32t92 121l19 45h-132l-194 1033h350l121 -687l294 687h354l-510 -1154q-154 -346 -540 -346q-127 0 -253 28zM724 1663q-195 -1 -316 99t-90 323l308 19q-17 -123 8 -175t116 -52t130 52q38 52 51 175l303 -19q-24 -223 -169 -323
q-146 -99 -341 -99z" />
    <glyph glyph-name="Dzhecyrillic" unicode="&#x40f;" 
d="M311 -279l33 279h-340l182 1489h360l-149 -1221h324l148 1221h360l-183 -1489h-340l-34 -279h-361z" />
    <glyph glyph-name="Acyrillic" unicode="&#x410;" 
d="M776 0l-24 344h-372l-119 -344h-322l547 1489h445l182 -1489h-337zM730 613l-45 614l-212 -614h257z" />
    <glyph glyph-name="Becyrillic" unicode="&#x411;" 
d="M583 268q86 0 128.5 43t53.5 134l8 60q11 89 -21.5 130t-118.5 41h-186l-50 -408h186zM698 940q235 0 348.5 -106t89.5 -302l-13 -100q-24 -207 -165 -319.5t-373 -112.5h-581l182 1489h972l-32 -268h-612l-36 -281h220z" />
    <glyph glyph-name="Vecyrillic" unicode="&#x412;" 
d="M532 251q99 1 144 37t56 122l11 93q11 86 -26 121t-136 35h-138l-48 -408h137zM616 890q78 0 115 31q36 31 44 101l11 86q9 70 -20 100t-107 30h-143l-43 -348h143zM735 1489q227 0 331 -86q103 -87 81 -264l-8 -65q-15 -118 -73 -178t-170 -81l-8 -54q119 -13 174 -87
t40 -186l-11 -97q-48 -391 -545 -391h-542l182 1489h549z" />
    <glyph glyph-name="Gecyrillic" unicode="&#x413;" 
d="M99 0l182 1489h983l-31 -268h-624l-151 -1221h-359z" />
    <glyph glyph-name="Decyrillic" unicode="&#x414;" 
d="M248 0l-34 -279h-322l67 547h127q39 28 63 95t45 210l123 916h821l-149 -1221h134l-67 -547h-322l33 279h-519zM417 305l-4 -37h254l117 953h-184l-86 -653q-28 -194 -97 -263z" />
    <glyph glyph-name="Iecyrillic" unicode="&#x415;" 
d="M4 0l182 1489h1039l-32 -268h-679l-37 -294h594l-34 -268h-594l-46 -391h679l-33 -268h-1039z" />
    <glyph glyph-name="Zhecyrillic" unicode="&#x416;" 
d="M408 650l-179 -650h-268l272 851l-95 638h275l36 -606h59l75 606h249l-74 -606h59l185 606h275l-234 -646l46 -843h-270l-17 650h-72l-80 -650h-250l80 650h-72z" />
    <glyph glyph-name="Zecyrillic" unicode="&#x417;" 
d="M530 -19q-267 0 -384.5 110t-102.5 339l363 19q-4 -123 34 -163t122 -40t122 39t50 119l9 74q17 170 -149 170h-179l32 262h179q71 0 106 25.5t44 97.5l10 79q9 74 -18 103t-93 29t-102.5 -37.5t-56.5 -128.5l-358 19q39 209 172.5 310t377.5 101t354.5 -86.5
t88.5 -274.5l-8 -49q-15 -121 -92 -195t-191 -89l-7 -54q119 -13 189.5 -98t54.5 -221l-6 -46q-26 -214 -160 -314t-401 -100z" />
    <glyph glyph-name="Iicyrillic" unicode="&#x418;" 
d="M732 0l121 990l-436 -990h-413l182 1489h315l-129 -1051l471 1051h386l-183 -1489h-314z" />
    <glyph glyph-name="Iishortcyrillic" unicode="&#x419;" 
d="M732 0l121 990l-436 -990h-413l182 1489h315l-129 -1051l471 1051h386l-183 -1489h-314zM722 1663q-195 -1 -316 99t-89 323l307 19q-17 -123 8 -175t116 -52t130 52q38 52 51 175l304 -19q-24 -223 -170 -323t-341 -99z" />
    <glyph glyph-name="Kacyrillic" unicode="&#x41a;" 
d="M441 633l-78 -633h-359l182 1489h360l-73 -588h69l376 588h367l-494 -687l306 -802h-360l-221 633h-75z" />
    <glyph glyph-name="Elcyrillic" unicode="&#x41b;" 
d="M86 259q75 0 106 205l132 1025h905l-183 -1489h-359l151 1221h-192l-100 -780q-60 -467 -432 -467q-53 0 -185 33l69 270q57 -18 88 -18z" />
    <glyph glyph-name="Emcyrillic" unicode="&#x41c;" 
d="M473 456l-88 508l-78 -964h-314l182 1489h324l130 -688l294 688h317l-182 -1489h-315l154 946l-204 -490h-220z" />
    <glyph glyph-name="Encyrillic" unicode="&#x41d;" 
d="M4 0l182 1489h360l-66 -528h324l65 528h360l-183 -1489h-359l86 693h-324l-86 -693h-359z" />
    <glyph glyph-name="Ocyrillic" unicode="&#x41e;" 
d="M556 249q88 0 130 54t59 196l59 484q17 143 -11 200q-29 57 -115 57t-130 -57t-60 -200l-60 -484q-17 -141 12 -195t116 -55zM523 -19q-253 1 -369 129t-89 355l67 552q28 229 177 360t401 131t368 -131t89 -360l-67 -552q-28 -227 -176 -355t-401 -129z" />
    <glyph glyph-name="Pecyrillic" unicode="&#x41f;" 
d="M4 0l182 1489h1043l-183 -1489h-359l151 1221h-324l-151 -1221h-359z" />
    <glyph glyph-name="Ercyrillic" unicode="&#x420;" 
d="M611 722q81 0 125 33t55 131l21 162q12 101 -24 137t-116 36h-158l-62 -499h159zM724 1489q233 0 354 -101t95 -314l-28 -221q-46 -395 -545 -395h-181l-56 -458h-359l182 1489h538z" />
    <glyph glyph-name="Escyrillic" unicode="&#x421;" 
d="M547 -19q-542 0 -482 494l65 532q64 501 605 501q272 0 381 -127t87 -411l-361 -19q11 177 -17 233t-126 56t-146 -61t-67 -207l-56 -464q-19 -140 14 -200q34 -60 132 -59q98 0 140 54t73 228l358 -19q-47 -281 -187 -406t-413 -125z" />
    <glyph glyph-name="Tecyrillic" unicode="&#x422;" 
d="M344 0l151 1221h-374l32 268h1111l-31 -268h-377l-150 -1221h-362z" />
    <glyph glyph-name="Ucyrillic" unicode="&#x423;" 
d="M222 259q83 0 140 31.5t92 120.5l19 45h-132l-194 1033h350l121 -687l294 687h354l-510 -1154q-154 -346 -540 -346q-117 0 -253 28l61 268q115 -26 198 -26z" />
    <glyph glyph-name="Efcyrillic" unicode="&#x424;" 
d="M497 1071q-95 0 -125 -229l-24 -202q-28 -221 69 -221h26l80 652h-26zM823 1071h-34l-80 -652h34q85 0 113 221l25 202q29 229 -58 229zM698 168h-13l-22 -187h-281l22 187h-13q-188 0 -272.5 125.5t-58.5 346.5l24 202q28 225 145 352.5t305 127.5h12l22 186h281
l-22 -186h13q188 0 273.5 -127.5t57.5 -352.5l-24 -202q-26 -222 -143.5 -347t-305.5 -125z" />
    <glyph glyph-name="Khacyrillic" unicode="&#x425;" 
d="M730 0l-160 438l-261 -438h-341l486 769l-260 720h365l135 -379l229 379h339l-452 -718l266 -771h-346z" />
    <glyph glyph-name="Tsecyrillic" unicode="&#x426;" 
d="M739 -279l34 279h-769l182 1489h360l-149 -1221h275l149 1221h361l-149 -1221h132l-67 -547h-359z" />
    <glyph glyph-name="Checyrillic" unicode="&#x427;" 
d="M573 471q-266 0 -379.5 113.5t-83.5 350.5l67 554h359l-67 -551q-25 -203 136 -203h162l93 754h359l-182 -1489h-359l57 471h-162z" />
    <glyph glyph-name="Shacyrillic" unicode="&#x428;" 
d="M-20 0l182 1489h292l-151 -1238h112l151 1238h281l-151 -1238h114l151 1238h292l-182 -1489h-1091z" />
    <glyph glyph-name="Shchacyrillic" unicode="&#x429;" 
d="M1097 -363h-300l45 363h-862l182 1489h292l-151 -1238h112l151 1238h281l-151 -1238h114l151 1238h292l-151 -1238h71z" />
    <glyph glyph-name="Hardsigncyrillic" unicode="&#x42a;" 
d="M594 268q78 0 116 40t50 135l20 157q11 93 -17.5 130t-107.5 37h-74l-62 -499h75zM611 0h-475l151 1221h-211l32 268h560l-55 -458h126q222 0 320.5 -95.5t76.5 -289.5l-30 -236q-48 -410 -495 -410z" />
    <glyph glyph-name="Yericyrillic" unicode="&#x42b;" 
d="M333 251q52 0 79 39.5t39 135.5l24 190q11 93 -6.5 131.5t-70.5 38.5h-27l-66 -535h28zM776 0l183 1489h290l-182 -1489h-291zM434 1031q373 0 327 -368l-33 -270q-48 -393 -423 -393h-322l183 1489h290l-56 -458h34z" />
    <glyph glyph-name="Softsigncyrillic" unicode="&#x42c;" 
d="M572 268q106 0 157 39t62 132l21 166q11 89 -31 125.5t-148 36.5h-175l-61 -499h175zM728 1031q244 0 358.5 -96.5t92.5 -284.5l-30 -244q-24 -199 -164 -302.5t-385 -103.5h-596l182 1489h360l-56 -458h238z" />
    <glyph glyph-name="Ereversedcyrillic" unicode="&#x42d;" 
d="M516 -19q-268 0 -381 127t-88 404l361 19q-9 -171 16 -226.5t133 -55.5t148 62.5t56 196.5l17 151h-240l34 268h240l5 45q19 151 -11 209.5t-132 58.5t-143 -58.5t-71 -230.5l-358 19q45 279 188.5 408.5t411.5 129.5t390 -125.5t90 -375.5l-65 -532
q-30 -244 -181.5 -369t-419.5 -125z" />
    <glyph glyph-name="IUcyrillic" unicode="&#x42e;" 
d="M756 249q34 0 47.5 34t23.5 110l85 696q9 78 4.5 114.5t-38.5 36.5t-48.5 -36.5t-23.5 -114.5l-85 -696q-9 -76 -4 -110t39 -34zM725 -19q-167 0 -241 109t-50 303l31 266h-115l-80 -659h-290l182 1489h290l-68 -562h115l20 162q24 195 126.5 307t268.5 112t240.5 -111.5
t50.5 -307.5l-86 -696q-24 -194 -125.5 -303t-268.5 -109z" />
    <glyph glyph-name="IAcyrillic" unicode="&#x42f;" 
d="M657 1489h572l-183 -1489h-359l65 527h-89l-311 -527h-374l339 568q-204 97 -170 380l17 132q24 201 150.5 305t342.5 104zM631 795h153l54 426h-153q-91 0 -131 -35t-51 -127l-13 -102q-11 -91 19.5 -126.5t121.5 -35.5z" />
    <glyph glyph-name="acyrillic" unicode="&#x430;" 
d="M301 -19q-132 -1 -211 89q-78 90 -60 242t129 232q111 82 290 82h229l16 135q9 78 -23 106q-33 27 -103 27t-107 -33q-38 -33 -64 -124l-283 47q61 194 173 273t337 79t330 -90t83 -279l-52 -419q-9 -74 28 -92t108 -7l-30 -242q-298 -70 -337 155h-54q-63 -74 -165 -128
t-234 -53zM438 199q94 0 195 58l22 188h-193q-50 0 -76 -26t-34 -104q-14 -116 86 -116z" />
    <glyph glyph-name="becyrillic" unicode="&#x431;" 
d="M551 233q78 0 115.5 40t46.5 120l26 218q9 71 -18 106t-105 35t-114.5 -35.5t-45.5 -105.5l-26 -218q-9 -80 17 -120t104 -40zM817 1005q143 0 226 -97.5t65 -259.5l-30 -235q-26 -214 -169.5 -323t-384.5 -109t-358.5 119.5t-87.5 357.5l47 372q37 309 176.5 464.5
t402.5 181.5l419 43l-8 -275l-389 -43q-108 -13 -166.5 -73.5t-75.5 -183.5l-17 -114h39q110 175 311 175z" />
    <glyph glyph-name="vecyrillic" unicode="&#x432;" 
d="M575 229q95 0 138.5 34.5t47.5 107.5q7 56 -24 85.5t-136 29.5h-178l-32 -257h184zM624 668q78 0 114.5 20.5t43.5 84.5l4 26q6 58 -20.5 82t-106.5 24h-184l-30 -237h179zM667 1117q231 0 356.5 -63.5t106.5 -211.5l-4 -43q-11 -93 -81.5 -147t-180.5 -62l-6 -41
q134 -9 192 -74t47 -153l-4 -35q-17 -138 -144.5 -212.5t-419.5 -74.5h-507l138 1117h507z" />
    <glyph glyph-name="gecyrillic" unicode="&#x433;" 
d="M89 0l138 1117h899l-33 -268h-540l-104 -849h-360z" />
    <glyph glyph-name="decyrillic" unicode="&#x434;" 
d="M279 0l-33 -279h-322l67 547h102q37 28 61.5 92t42.5 204l80 553h820l-105 -849h134l-67 -547h-322l34 279h-492zM413 309l-3 -41h260l71 581h-186l-41 -290q-23 -144 -101 -250z" />
    <glyph glyph-name="iecyrillic" unicode="&#x435;" 
d="M638 920q-86 0 -118 -36q-34 -36 -45 -126l-11 -88h286l10 77q12 97 -12 135t-110 38zM666 1136q236 0 355 -112q118 -112 94 -311l-28 -225h-646l-13 -116q-22 -166 138 -166q82 0 135 27q53 26 96 108l283 -78q-80 -157 -199 -219t-343 -62t-358 106q-133 106 -109 309
l41 327q22 192 170 302t384 110z" />
    <glyph glyph-name="zhecyrillic" unicode="&#x436;" 
d="M384 473l-183 -473h-279l281 620l-149 497h285l97 -428h48l54 428h250l-54 -428h42l196 428h294l-270 -499l132 -618h-288l-64 473h-69l-57 -473h-250l58 473h-74z" />
    <glyph glyph-name="zecyrillic" unicode="&#x437;" 
d="M544 -19q-262 0 -373 94t-98 297l320 13q0 -114 34.5 -152.5t134.5 -38.5t136 41t44 114t-16 106t-136 33h-78l22 182h79q74 0 108.5 23.5t43.5 92.5l4 26q7 61 -19 86t-106 25t-116 -35t-59 -136l-318 15q37 192 163.5 280.5t371.5 88.5t355 -71t89 -227l-5 -43
q-11 -91 -80 -143t-181 -60l-6 -41q134 -9 192 -73.5t47 -151.5l-4 -36q-19 -160 -153 -234.5t-396 -74.5z" />
    <glyph glyph-name="iicyrillic" unicode="&#x438;" 
d="M724 0l86 691l-428 -691h-360l138 1117h304l-93 -750l465 750h329l-137 -1117h-304z" />
    <glyph glyph-name="iishortcyrillic" unicode="&#x439;" 
d="M724 0l86 691l-428 -691h-360l138 1117h304l-93 -750l465 750h329l-137 -1117h-304zM683 1290q-195 0 -316 100t-90 323l308 18q-17 -123 8 -175t116 -52t130 52q38 52 51 175l303 -18q-23 -223 -169 -323t-341 -100z" />
    <glyph glyph-name="kacyrillic" unicode="&#x43a;" 
d="M449 462l-56 -462h-361l137 1117h362l-53 -423h60l307 423h365l-385 -504l242 -613h-380l-179 462h-59z" />
    <glyph glyph-name="elcyrillic" unicode="&#x43b;" 
d="M82 242q75 0 102 205l92 670h908l-138 -1117h-359l106 866h-216l-56 -442q-30 -229 -131 -339.5t-280 -110.5q-54 0 -186 33l67 254q59 -19 91 -19z" />
    <glyph glyph-name="emcyrillic" unicode="&#x43c;" 
d="M451 279l-103 374l-37 -653h-305l137 1117h321l137 -534l268 534h313l-138 -1117h-305l117 642l-186 -363h-219z" />
    <glyph glyph-name="encyrillic" unicode="&#x43d;" 
d="M22 0l138 1117h359l-46 -374h287l46 374h359l-137 -1117h-360l58 475h-287l-57 -475h-360z" />
    <glyph glyph-name="ocyrillic" unicode="&#x43e;" 
d="M554 233q75 0 114 41t51 134l35 296q13 95 -16 138q-29 42 -104 42q-76 0 -114 -42t-49 -136l-35 -289q-13 -99 15 -141t103 -43zM524 -19q-234 0 -356 109t-97 301l39 328q24 193 173 305t384 112t353 -114t95 -313l-41 -325q-22 -188 -169 -296t-381 -107z" />
    <glyph glyph-name="pecyrillic" unicode="&#x43f;" 
d="M22 0l138 1117h1005l-137 -1117h-360l105 849h-287l-104 -849h-360z" />
    <glyph glyph-name="ercyrillic" unicode="&#x440;" 
d="M605 -11q-124 0 -220 43l-50 -404h-359l184 1489h359l-24 -190h52q47 97 134 153q88 56 210 56t187 -94t47 -258l-49 -389q-22 -188 -150 -297t-321 -109zM577 236q118 0 140 161l39 322q9 76 -17 112q-27 37 -73 37q-89 1 -189 -92l-60 -489q39 -23 71 -37t89 -14z" />
    <glyph glyph-name="escyrillic" unicode="&#x441;" 
d="M544 -19q-255 0 -376 111t-95 316l37 307q24 199 173 310t389 111t340 -107q101 -107 103 -310l-348 -28q4 108 -25 150t-109 42t-116 -42t-50 -150l-33 -267q-13 -108 14 -150t108 -41q81 -1 118 33t56 123l342 -28q-35 -186 -154 -283t-374 -97z" />
    <glyph glyph-name="tecyrillic" unicode="&#x442;" 
d="M344 0l105 849h-335l33 268h1032l-34 -268h-335l-104 -849h-362z" />
    <glyph glyph-name="ucyrillic" unicode="&#x443;" 
d="M214 -393q-90 0 -277 21l46 251q146 -26 238 -27t149 43t103 172h-238l-138 1050h363l99 -828l318 828h350l-445 -1098q-90 -222 -220 -317t-348 -95z" />
    <glyph glyph-name="efcyrillic" unicode="&#x444;" 
d="M786 901h-36l-83 -687h35q41 0 78 34.5t47 120.5l46 378q11 84 -17.5 119t-69.5 35zM400 214h36l83 687h-35q-41 0 -77 -35.5t-48 -118.5l-46 -378q-9 -86 18.5 -120.5t68.5 -34.5zM707 0h-39l-46 -372h-287l47 372h-39q-168 0 -250 97t-61 270l48 387q20 171 126.5 267
t273.5 96h39l45 372h287l-45 -372h39q168 0 250 -96t61 -267l-48 -389q-20 -171 -126.5 -268t-274.5 -97z" />
    <glyph glyph-name="khacyrillic" unicode="&#x445;" 
d="M707 0l-158 317l-218 -317h-351l443 572l-274 545h356l135 -268l177 268h354l-398 -532l294 -585h-360z" />
    <glyph glyph-name="tsecyrillic" unicode="&#x446;" 
d="M747 -279l33 279h-758l138 1117h359l-104 -849h266l105 849h361l-104 -849h113l-67 -547h-342z" />
    <glyph glyph-name="checyrillic" unicode="&#x447;" 
d="M501 305q-225 0 -326.5 114.5t-73.5 338.5l44 359h360l-45 -356q-13 -106 21.5 -148.5t90.5 -42.5q92 0 160 26l65 521h359l-138 -1117h-359l41 331q-107 -26 -199 -26z" />
    <glyph glyph-name="shacyrillic" unicode="&#x448;" 
d="M-13 0l138 1117h281l-108 -868h117l108 868h279l-108 -868h118l108 868h281l-138 -1117h-1076z" />
    <glyph glyph-name="shchacyrillic" unicode="&#x449;" 
d="M1091 -279h-283l34 279h-855l138 1117h281l-108 -868h117l108 868h279l-108 -868h118l108 868h281l-108 -868h61z" />
    <glyph glyph-name="hardsigncyrillic" unicode="&#x44a;" 
d="M648 251q63 0 95 28t41 93l9 77q7 63 -19 87t-89 24h-72l-38 -309h73zM667 0h-483l105 849h-257l33 268h616l-39 -309h127q201 0 303.5 -94t81.5 -262l-13 -104q-20 -164 -145.5 -256t-328.5 -92z" />
    <glyph glyph-name="yericyrillic" unicode="&#x44b;" 
d="M333 235q56 0 87 27.5t40 102.5l15 125q9 73 -15 98t-80 25h-32l-46 -378h31zM776 0l138 1117h291l-138 -1117h-291zM410 842q175 0 263 -80.5t70 -225.5l-24 -205q-19 -156 -128 -243.5t-286 -87.5h-322l138 1117h290l-35 -275h34z" />
    <glyph glyph-name="softsigncyrillic" unicode="&#x44c;" 
d="M555 251q84 0 126.5 25.5t50.5 94.5l9 63q7 69 -29 97.5t-120 28.5h-153l-37 -309h153zM680 808q222 0 333.5 -95t88.5 -268l-11 -91q-20 -168 -154.5 -261t-357.5 -93h-570l138 1117h361l-39 -309h211z" />
    <glyph glyph-name="ereversedcyrillic" unicode="&#x44d;" 
d="M506 -19q-250 0 -359.5 90.5t-99.5 284.5l351 28q-4 -101 18.5 -138t117.5 -37t133.5 43.5t49.5 147.5l11 78h-257l24 200h257l6 48q13 101 -14.5 142t-115.5 41t-126 -32t-57 -119l-344 28q47 182 178 266t370 84t365.5 -106.5t100.5 -314.5l-37 -305
q-24 -205 -173 -317t-399 -112z" />
    <glyph glyph-name="iucyrillic" unicode="&#x44e;" 
d="M751 216q33 0 47 30.5t21 90.5l54 436q7 63 1 95.5t-39 32.5t-46.5 -32.5t-21.5 -95.5l-54 -436q-7 -60 -1 -90.5t39 -30.5zM725 -19q-167 0 -243 94t-56 262l19 153h-117l-60 -490h-288l137 1117h289l-49 -393h118l5 49q20 169 121 266t268 97t242 -97t54 -266l-53 -436
q-20 -168 -120 -262t-267 -94z" />
    <glyph glyph-name="iacyrillic" unicode="&#x44f;" 
d="M562 1117h603l-137 -1117h-360l41 341h-91l-233 -341h-378l267 384q-157 85 -127 322l6 57q22 169 129 261.5t280 92.5zM592 575h147l37 308h-147q-50 0 -78 -26.5t-39 -106.5l-4 -41q-11 -86 11.5 -110t72.5 -24z" />
    <glyph glyph-name="iegravecyrillic" unicode="&#x450;" 
d="M638 920q-86 0 -118 -36q-34 -36 -45 -126l-11 -88h286l10 77q12 97 -12 135t-110 38zM666 1136q236 0 355 -112q118 -112 94 -311l-28 -225h-646l-13 -116q-22 -166 138 -166q82 0 135 27q53 26 96 108l283 -78q-80 -157 -199 -219t-343 -62t-358 106q-133 106 -109 309
l41 327q22 192 170 302t384 110zM659 1303l-344 373h445l130 -373h-231z" />
    <glyph glyph-name="iocyrillic" unicode="&#x451;" 
d="M638 920q-86 0 -118 -36q-34 -36 -45 -126l-11 -88h286l10 77q12 97 -12 135t-110 38zM666 1136q236 0 355 -112q118 -112 94 -311l-28 -225h-646l-13 -116q-22 -166 138 -166q82 0 135 27q53 26 96 108l283 -78q-80 -157 -199 -219t-343 -62t-358 106q-133 106 -109 309
l41 327q22 192 170 302t384 110zM1098 1426q-16 -138 -190 -138q-75 0 -120 31t-36 107l4 26q17 144 190 144q78 0 122 -33t34 -111zM648 1426q-16 -138 -191 -138q-75 0 -120 31t-35 107l3 26q17 144 190 144q78 0 122 -33t35 -111z" />
    <glyph glyph-name="djecyrillic" unicode="&#x452;" 
d="M530 -155q51 0 90 39.5t50 130.5l71 579q19 147 -76 147q-98 0 -211 -145l-72 -596h-360l138 1123h-171l22 182h171l23 184h359l-22 -184h266l-22 -182h-267l-39 -322h52q50 97 139 152.5t205 55.5t185 -85.5t51 -238.5l-86 -702q-24 -188 -165.5 -281t-320.5 -93
q-104 0 -231 43l62 229q108 -36 159 -36z" />
    <glyph glyph-name="gjecyrillic" unicode="&#x453;" 
d="M449 1303l221 373h447l-437 -373h-231zM89 0l138 1117h899l-33 -268h-540l-104 -849h-360z" />
    <glyph glyph-name="ecyrillic" unicode="&#x454;" 
d="M542 -19q-248 0 -371 112t-98 317l37 305q26 207 180.5 314t393.5 107t348 -84t111 -266l-350 -28q4 86 -27.5 118.5t-119.5 32.5t-125 -41t-50 -142l-7 -58h299l-22 -182h-300l-11 -86q-13 -106 16 -148.5t120 -42.5t126.5 37t54.5 138l342 -28q-35 -194 -167 -284.5
t-380 -90.5z" />
    <glyph glyph-name="dzecyrillic" unicode="&#x455;" 
d="M652 914q-128 0 -140 -95q-7 -54 41 -78t179 -54q195 -39 274 -115t60 -231q-20 -155 -164 -253t-390 -99q-138 0 -266 37t-211 95l103 214q93 -58 205 -92q113 -34 197 -34t120 26t43 80t-26 80t-133 48q-214 39 -314 110t-80 229t156 256q137 98 351 98q114 0 226 -32
t193 -84l-82 -203q-180 97 -342 97z" />
    <glyph glyph-name="icyrillic.salt_serifs" unicode="&#xe02e;" 
d="M737 251h300l-32 -251h-661l107 866h-300l31 251h661zM927 1426q-16 -138 -245 -138q-100 0 -160 31t-49 107l4 26q17 144 245 144t209 -144z" />
    <glyph glyph-name="icyrillic.salt_serifs" unicode="&#x456;" 
d="M737 251h300l-32 -251h-661l107 866h-300l31 251h661zM927 1426q-16 -138 -245 -138q-100 0 -160 31t-49 107l4 26q17 144 245 144t209 -144z" />
    <glyph glyph-name="yicyrillic.salt_serifs" unicode="&#xe02f;" 
d="M737 251h300l-32 -251h-661l107 866h-300l31 251h661zM1104 1426q-16 -138 -191 -138q-75 0 -120 31t-35 107l3 26q17 144 190 144q78 0 122 -33t35 -111zM653 1426q-16 -138 -190 -138q-75 0 -120 31t-36 107l4 26q17 144 190 144q78 0 122 -33t34 -111z" />
    <glyph glyph-name="yicyrillic.salt_serifs" unicode="&#x457;" 
d="M737 251h300l-32 -251h-661l107 866h-300l31 251h661zM1104 1426q-16 -138 -191 -138q-75 0 -120 31t-35 107l3 26q17 144 190 144q78 0 122 -33t35 -111zM653 1426q-16 -138 -190 -138q-75 0 -120 31t-36 107l4 26q17 144 190 144q78 0 122 -33t34 -111z" />
    <glyph glyph-name="jecyrillic" unicode="&#x458;" 
d="M249 -155q116 0 177 42t75 139l102 840h-419l32 251h778l-138 -1121q-22 -179 -176 -283t-380 -104q-225 0 -337 43l61 229q109 -36 225 -36zM1061 1426q-16 -138 -245 -138q-100 0 -160 31t-49 107l4 26q17 144 245 144t209 -144z" />
    <glyph glyph-name="ljecyrillic" unicode="&#x459;" 
d="M747 218q41 0 62 32.5t31 112.5l13 112q9 67 -5 94t-55 27h-39l-47 -378h40zM2 238q51 0 63 84l104 795h650l-39 -309h91q138 0 204 -80t48 -225l-19 -159q-20 -164 -107 -254t-226 -90h-356l110 899h-125l-82 -661q-15 -117 -92 -182t-200 -65q-54 0 -127 16l64 239
q17 -8 39 -8z" />
    <glyph glyph-name="njecyrillic" unicode="&#x45a;" 
d="M881 842q136 0 201 -77.5t48 -217.5l-28 -229q-19 -151 -104.5 -234.5t-222.5 -83.5h-360l65 525h-160l-65 -525h-266l138 1117h266l-45 -357h160l45 357h268l-35 -275h95zM747 218q43 0 63 29.5t30 104.5l18 149q9 71 -3.5 99.5t-55.5 28.5h-38l-52 -411h38z" />
    <glyph glyph-name="tshecyrillic" unicode="&#x45b;" 
d="M876 1009q118 0 186 -89t50 -235l-84 -685h-360l73 588q19 153 -74 153q-49 0 -105 -41t-108 -112l-72 -588h-360l138 1123h-171l22 182h171l23 184h359l-22 -184h266l-22 -182h-267l-39 -322h52q50 99 138 153t206 55z" />
    <glyph glyph-name="kjecyrillic" unicode="&#x45c;" 
d="M560 1303l222 373h447l-438 -373h-231zM449 462l-56 -462h-361l137 1117h362l-53 -423h60l307 423h365l-385 -504l242 -613h-380l-179 462h-59z" />
    <glyph glyph-name="igravecyrillic" unicode="&#x45d;" 
d="M689 1303l-345 373h445l131 -373h-231zM724 0l86 691l-428 -691h-360l138 1117h304l-93 -750l465 750h329l-137 -1117h-304z" />
    <glyph glyph-name="ushortcyrillic" unicode="&#x45e;" 
d="M214 -393q-90 0 -277 21l46 251q146 -26 238 -27t149 43t103 172h-238l-138 1050h363l99 -828l318 828h350l-445 -1098q-90 -222 -220 -317t-348 -95zM683 1290q-195 0 -316 100t-90 323l308 18q-17 -123 8 -175t116 -52t130 52q38 52 51 175l303 -18q-23 -223 -169 -323
t-341 -100z" />
    <glyph glyph-name="dzhecyrillic" unicode="&#x45f;" 
d="M320 -279l34 279h-332l138 1117h359l-104 -849h287l104 849h359l-137 -1117h-332l-33 -279h-343z" />
    <glyph glyph-name="Gheupturncyrillic" unicode="&#x490;" 
d="M99 0l182 1489h622l35 280h362l-67 -548h-624l-151 -1221h-359z" />
    <glyph glyph-name="gheupturncyrillic" unicode="&#x491;" 
d="M89 0l138 1117h557l33 279h343l-67 -547h-540l-104 -849h-360z" />
    <glyph glyph-name="Wgrave" unicode="&#x1e80;" 
d="M689 1676l-345 372h445l131 -372h-231zM633 0l-26 640l-181 -640h-311l8 1489h301l-74 -1078l194 706h234l26 -670l186 1042h302l-357 -1489h-302z" />
    <glyph glyph-name="wgrave" unicode="&#x1e81;" 
d="M650 1303l-345 373h445l131 -373h-231zM657 0l-67 532l-190 -532h-307l-19 1117h302l-9 -711l169 508h194l59 -501l161 704h301l-292 -1117h-302z" />
    <glyph glyph-name="Wacute" unicode="&#x1e82;" 
d="M492 1676l221 372h447l-438 -372h-230zM633 0l-26 640l-181 -640h-311l8 1489h301l-74 -1078l194 706h234l26 -670l186 1042h302l-357 -1489h-302z" />
    <glyph glyph-name="wacute" unicode="&#x1e83;" 
d="M547 1303l222 373h447l-438 -373h-231zM657 0l-67 532l-190 -532h-307l-19 1117h302l-9 -711l169 508h194l59 -501l161 704h301l-292 -1117h-302z" />
    <glyph glyph-name="Wdieresis" unicode="&#x1e84;" 
d="M1005 1968q78 0 122 -33t35 -110l-4 -26q-16 -138 -191 -138q-75 1 -120 31t-35 107l3 26q16 143 190 143zM555 1968q78 0 122 -33t34 -110l-4 -26q-16 -138 -190 -138q-75 1 -120 31t-36 107l4 26q16 143 190 143zM633 0l-26 640l-181 -640h-311l8 1489h301l-74 -1078
l194 706h234l26 -670l186 1042h302l-357 -1489h-302z" />
    <glyph glyph-name="wdieresis" unicode="&#x1e85;" 
d="M1117 1426q-16 -138 -191 -138q-75 0 -120 31t-35 107l4 26q17 144 189 144q78 0 122 -33t35 -111zM667 1426q-16 -138 -191 -138q-75 0 -120 31t-36 107l4 26q17 144 190 144q78 0 122 -33t34 -111zM657 0l-67 532l-190 -532h-307l-19 1117h302l-9 -711l169 508h194
l59 -501l161 704h301l-292 -1117h-302z" />
    <glyph glyph-name="Ygrave" unicode="&#x1ef2;" 
d="M706 0h-362l69 559l-279 930h356l141 -603l294 603h354l-504 -930zM691 1676l-345 372h445l131 -372h-231z" />
    <glyph glyph-name="ygrave" unicode="&#x1ef3;" 
d="M214 -393q-90 0 -277 21l46 251q146 -26 238 -27t149 43t103 172h-238l-138 1050h363l99 -828l318 828h350l-445 -1098q-90 -222 -220 -317t-348 -95zM650 1303l-345 373h445l131 -373h-231z" />
    <glyph glyph-name="uni2000" unicode="&#x2000;" 
 />
    <glyph glyph-name="uni2001" unicode="&#x2001;" 
 />
    <glyph glyph-name="uni2002" unicode="&#x2002;" 
 />
    <glyph glyph-name="uni2003" unicode="&#x2003;" 
 />
    <glyph glyph-name="uni2004" unicode="&#x2004;" 
 />
    <glyph glyph-name="uni2005" unicode="&#x2005;" 
 />
    <glyph glyph-name="uni2007" unicode="&#x2007;" 
 />
    <glyph glyph-name="uni2009" unicode="&#x2009;" 
 />
    <glyph glyph-name="uni200A" unicode="&#x200a;" 
 />
    <glyph glyph-name="uni200B" unicode="&#x200b;" horiz-adv-x="0" 
 />
    <glyph glyph-name="endash" unicode="&#x2013;" 
d="M48 508l38 304h1079l-37 -304h-1080z" />
    <glyph glyph-name="emdash" unicode="&#x2014;" 
d="M-9 508l37 304h1195l-37 -304h-1195z" />
    <glyph glyph-name="horizontalbar" unicode="&#x2015;" 
d="M-9 508l37 304h1195l-37 -304h-1195z" />
    <glyph glyph-name="underscoredbl" unicode="&#x2017;" 
d="M-19 0l38 303h994l-37 -303h-995zM-19 -529l38 304h994l-37 -304h-995z" />
    <glyph glyph-name="quoteright" unicode="&#x2019;" 
d="M283 661l259 828h499l-535 -828h-223z" />
    <glyph glyph-name="quotesinglbase" unicode="&#x201a;" 
d="M192 -289l227 829h499l-501 -829h-225z" />
    <glyph glyph-name="quotereversed" unicode="&#x201b;" 
d="M691 661l-334 828h501l58 -828h-225z" />
    <glyph glyph-name="quotedblleft" unicode="&#x201c;" 
d="M28 661l510 828h201l-247 -828h-464zM600 661l497 828h201l-235 -828h-463z" />
    <glyph glyph-name="quotedblright" unicode="&#x201d;" 
d="M17 661l236 828h462l-495 -828h-203zM575 661l248 828h464l-511 -828h-201z" />
    <glyph glyph-name="quotedblbase" unicode="&#x201e;" 
d="M-84 -289l237 829h461l-495 -829h-203zM475 -289l247 829h464l-510 -829h-201z" />
    <glyph glyph-name="dagger" unicode="&#x2020;" 
d="M326 -372l152 1238h-104l-106 -408h-242l132 659h352l28 372h339l-62 -372h352l-29 -659h-244l-6 408h-104l-153 -1238h-305z" />
    <glyph glyph-name="daggerdbl" unicode="&#x2021;" 
d="M309 -372l54 322h-357l5 478h233l39 -227h114l87 715h-113l-95 -227h-233l112 478h357l26 322h339l-52 -322h357l-7 -478h-233l-39 227h-114l-87 -715h113l95 227h233l-110 -478h-357l-28 -322h-339z" />
    <glyph glyph-name="bullet" unicode="&#x2022;" 
d="M580 439q-126 0 -199.5 57t-58.5 178l17 134q15 123 101.5 181.5t215 58.5t199 -58.5t55.5 -181.5l-16 -134q-15 -121 -101.5 -178t-212.5 -57z" />
    <glyph glyph-name="ellipsis" unicode="&#x2026;" 
d="M114 -17q-60 0 -94.5 38.5t-25.5 118.5l30 244q11 82 55 121t106 39t96 -39.5t22 -120.5l-29 -244q-9 -80 -54.5 -118.5t-105.5 -38.5zM522 -17q-62 0 -95.5 38.5t-24.5 118.5l30 244q11 82 54 121t106 39t96.5 -39.5t22.5 -120.5l-30 -244q-9 -80 -53 -118.5t-106 -38.5
zM930.5 -17q-61.5 0 -95.5 38.5t-25 118.5l30 244q11 82 54.5 121t105.5 39t97 -39.5t24 -120.5l-30 -244q-9 -80 -54 -118.5t-106.5 -38.5z" />
    <glyph glyph-name="perthousand" unicode="&#x2030;" 
d="M942 231l11 82q12 100 -40 100t-62 -100l-11 -82q-11 -97 40 -97t62 97zM644 231l11 82q12 100 -39 100t-63 -100l-11 -82q-11 -97 41 -97t61 97zM944 596q108 0 162 -72t35 -221l-7 -55q-17 -147 -89.5 -218t-180.5 -71t-143 104q-68 -104 -192 -104q-95 0 -143.5 71
t-31.5 218l7 55q19 149 91.5 221t180.5 72t143 -103q60 103 168 103zM1251 1072l-1171 -681l-73 147l1164 678zM414.5 1344q-49.5 0 -72 -24t-27.5 -76l-13 -101q-11 -97 58.5 -97t78.5 97l13 101q12 100 -37.5 100zM336 871q-128 0 -196.5 71t-51.5 218l9 74
q19 149 107 221t216 72t196.5 -72t50.5 -221l-10 -74q-17 -147 -105 -218t-216 -71z" />
    <glyph glyph-name="minute" unicode="&#x2032;" 
d="M292 661l259 828h499l-534 -828h-224z" />
    <glyph glyph-name="second" unicode="&#x2033;" 
d="M-84 661l237 828h461l-495 -828h-203zM475 661l247 828h464l-510 -828h-201z" />
    <glyph glyph-name="guilsinglleft" unicode="&#x2039;" 
d="M883 52l-650 423l44 354l754 422l-39 -311l-514 -288l444 -289z" />
    <glyph glyph-name="guilsinglright" unicode="&#x203a;" 
d="M181 52l39 311l514 289l-444 288l40 311l649 -422l-44 -354z" />
    <glyph glyph-name="exclamdbl" unicode="&#x203c;" 
d="M266 350q166 0 186.5 -59.5t16.5 -100.5l-7 -52q-12 -83 -73 -120q-60 -37 -168.5 -37t-160.5 38q-52 43 -41 119l7 52q16 160 240 160zM852 -19q-111 0 -163 38q-52 43 -41 119l7 52q16 160 242 160q165 0 185 -59.5t16 -100.5l-7 -52q-6 -41 -39 -99t-200 -58zM156 559
l64 930h352l-166 -930h-250zM786 559l63 930h352l-164 -930h-251z" />
    <glyph glyph-name="overline" unicode="&#x203e;" 
d="M-19 1558l38 304h994l-37 -304h-995z" />
    <glyph glyph-name="fraction" unicode="&#x2215;" 
d="M41 0l866 1489h285l-866 -1489h-285z" />
    <glyph glyph-name="fraction" unicode="&#x2044;" 
d="M41 0l866 1489h285l-866 -1489h-285z" />
    <glyph glyph-name="zero.sups" unicode="&#x2070;" 
d="M614 735q83 0 110.5 55t40.5 173l17 124q13 117 0 175t-96 58t-111 -57.5t-41 -175.5l-16 -124q-13 -117 0 -172.5t96 -55.5zM592 555q-188 0 -278.5 99.5t-67.5 280.5l22 180q22 184 137.5 285t303.5 101t278.5 -100.5t68.5 -285.5l-23 -180q-22 -181 -137.5 -280.5
t-303.5 -99.5z" />
    <glyph glyph-name="four.sups" unicode="&#x2074;" 
d="M1072 786h-158l-28 -220h-268l28 220h-436l23 180l450 523h317l-64 -523h159zM460 966h208l34 278z" />
    <glyph glyph-name="five.sups" unicode="&#x2075;" 
d="M596 555q-212 0 -300.5 71.5t-75.5 241.5l272 11q0 -82 27 -113t101 -31t102 26.5t38 100.5l1 24q9 63 -24 86.5t-136 23.5h-333l60 493h752l-22 -180h-485l-14 -119h163q173 0 252.5 -64.5t64.5 -189.5l-15 -117q-13 -114 -114.5 -189t-313.5 -75z" />
    <glyph glyph-name="six.sups" unicode="&#x2076;" 
d="M612.5 735q74.5 0 106.5 28.5t40 96.5q8 69 -14.5 100.5t-100.5 31.5t-107 -30.5t-38 -103.5q-9 -74 15 -98.5t98.5 -24.5zM773 1143q167 0 220 -70.5t37 -204.5l-2 -25q-15 -123 -120.5 -205.5t-315.5 -82.5t-294 86.5t-65 242.5l35 278q19 162 121.5 250.5t312.5 88.5
t284.5 -71t78.5 -188l-281 -26q-4 67 -30 85.5t-98 18.5t-91 -40t-31 -120l-11 -91h11q72 74 239 74z" />
    <glyph glyph-name="seven.sups" unicode="&#x2077;" 
d="M406 566q101 236 194.5 400t213.5 332h-529l22 191h799l-22 -191q-119 -184 -221 -360.5t-178 -371.5h-279z" />
    <glyph glyph-name="eight.sups" unicode="&#x2078;" 
d="M614 732q75 0 105.5 28.5t36.5 77.5l4 30q7 50 -16.5 79.5t-99.5 29.5t-107 -29.5t-38 -79.5l-4 -30q-6 -48 19 -77t100 -29zM692.5 1125q78.5 0 87.5 80l6 39q6 47 -24 63.5t-108 16.5t-88 -80l-6 -39q-6 -45 24 -62.5t108.5 -17.5zM593 555q-228 0 -305.5 70.5
t-62.5 193.5l4 26q9 80 64 131.5t141 58.5l4 34q-67 7 -109 48t-33 110l4 37q29 237 309.5 237t371.5 -55t75 -182l-4 -37q-9 -69 -59.5 -110t-121.5 -48l-3 -34q86 -7 127.5 -58.5t32.5 -131.5l-4 -26q-15 -125 -109 -194.5t-322 -69.5z" />
    <glyph glyph-name="nine.sups" unicode="&#x2079;" 
d="M532 912q-161 0 -220 65.5t-42 210.5l4 24q15 123 120 206t314 83t294 -86t65 -244l-34 -277q-20 -164 -120.5 -251.5t-314.5 -87.5t-285 68t-78 191l279 26q6 -69 32.5 -87t97.5 -18t90.5 40t28.5 121l12 91h-14q-68 -75 -229 -75zM655.5 1063q78.5 0 110 34t37.5 104
t-18 94.5t-98 24.5t-104.5 -27t-40.5 -98q-9 -71 13 -101.5t100.5 -30.5z" />
    <glyph glyph-name="nsuperior" unicode="&#x207f;" 
d="M878 1508q76 0 119.5 -25t70.5 -73q56 -100 32 -274l-70 -577h-306l69 566q10 59 -1 95t-26.5 45.5t-34.5 9.5q-78 0 -199 -147l-68 -569h-306l114 930h305l-18 -152h52q44 81 117 126q74 45 150 45z" />
    <glyph glyph-name="zero.sinf" unicode="&#x2080;" 
d="M614 169q82 0 110 55t41 173l17 124q13 117 0 175t-96 58t-111 -58t-41 -175l-16 -124q-13 -117 0 -173t96 -55zM592 -11q-188 -1 -278 99t-68 281l22 180q22 184 138 285t303 101q189 0 279 -101t68 -285l-23 -180q-22 -181 -137 -281q-116 -99 -304 -99z" />
    <glyph glyph-name="one.sinf" unicode="&#x2081;" 
d="M279 0l24 195h233l64 512h-38q-22 -81 -89 -125t-142 -51l15 190q78 13 159 64q80 51 124 138h265l-90 -728h213l-25 -195h-713z" />
    <glyph glyph-name="two.sinf" unicode="&#x2082;" 
d="M685 756q-52 0 -86 -20t-48 -101l-268 13q26 145 127 217q100 71 298 71t285 -72t70 -212l-4 -38q-13 -106 -76 -170t-153 -83l-214 -46q-71 -15 -96 -34t-30 -58l-4 -26h531l-25 -195h-798l28 220q24 215 230 260l215 47q61 13 90 37t36 82q15 68 -20 88q-36 20 -88 20z
" />
    <glyph glyph-name="three.sinf" unicode="&#x2083;" 
d="M591 -11q-189 0 -287 71t-88 214l272 11q-2 -61 31 -81t101 -22q68 0 99 18q32 18 37 64l4 30q6 52 -26 71t-94 19h-197l22 191h198q57 0 85 15q28 14 35 68t-19 68t-91 15q-66 0 -87 -15t-31 -61l-268 11q26 143 132 201t281 58q175 -1 274 -51t84 -180
q-11 -98 -64 -145q-52 -47 -125 -58l-3 -34q67 -6 119 -54t41 -143q-20 -167 -133 -224t-302 -57z" />
    <glyph glyph-name="four.sinf" unicode="&#x2084;" 
d="M1072 220h-158l-28 -220h-268l28 220h-436l23 180l450 523h317l-64 -523h159zM460 400h208l34 278z" />
    <glyph glyph-name="five.sinf" unicode="&#x2085;" 
d="M596 -11q-212 0 -301 72q-88 72 -75 241l272 11q0 -82 27 -113t101 -31t102 26t38 101l1 24q9 63 -24 87q-34 23 -136 23h-333l60 493h752l-22 -180h-485l-14 -119h163q172 0 252 -64t65 -189l-15 -118q-12 -114 -114 -189t-314 -75z" />
    <glyph glyph-name="six.sinf" unicode="&#x2086;" 
d="M613 169q74 0 106 28t40 97t-15 101q-22 31 -100 31t-107 -30t-38 -104t15 -98t99 -25zM592 -11q-210 1 -294 87t-65 242l35 278q19 162 122 250q102 88 312 88t284 -70q74 -71 79 -188l-281 -26q-4 68 -30 86t-98 18t-91 -40q-20 -40 -31 -120l-11 -91h11q74 76 240 75
t219 -72t37 -204l-2 -25q-14 -123 -120 -205t-316 -83z" />
    <glyph glyph-name="seven.sinf" unicode="&#x2087;" 
d="M406 0q101 236 194 400q94 164 214 332h-529l22 191h799l-22 -191q-118 -184 -220 -360t-179 -372h-279z" />
    <glyph glyph-name="eight.sinf" unicode="&#x2088;" 
d="M614 166q131 0 142 106l4 30q7 50 -17 80q-23 30 -99 30t-107 -30t-38 -80l-4 -30q-6 -48 19 -77t100 -29zM661 559q110 0 119 80l6 39q6 48 -24 64t-78 16q-110 0 -118 -80l-6 -39q-6 -45 24 -63t77 -17zM593 -11q-228 0 -305 71t-63 193l4 26q9 79 64 131t141 59l4 34
q-67 7 -109 48t-33 110l4 37q29 237 407 237q181 0 273 -55t76 -182l-4 -37q-10 -69 -60 -110t-121 -48l-3 -34q86 -7 128 -58t32 -132l-4 -26q-15 -125 -109 -195t-322 -69z" />
    <glyph glyph-name="nine.sinf" unicode="&#x2089;" 
d="M708 935q208 0 294 -86t65 -244l-34 -277q-21 -164 -121 -252t-314 -87q-214 0 -284 68q-72 68 -79 191l279 26q6 -69 32 -87t98 -18q70 0 90 40t29 121l12 91h-14q-67 -75 -229 -75q-161 0 -220 65t-42 211l4 24q15 123 120 206t314 83zM655 497q78 0 110 34t38 104
t-17 95q-24 24 -98 24t-106 -27q-31 -27 -40 -98t13 -101t100 -31z" />
    <glyph glyph-name="franc" unicode="&#x20a3;" 
d="M680 255h-248l-32 -255h-359l32 255h-172l26 218h172l124 1016h1015l-32 -268h-655l-30 -240h537l-34 -268h-536l-30 -240h248z" />
    <glyph glyph-name="lira" unicode="&#x20a4;" 
d="M694 283q68 0 99 49q30 49 60 191l331 -18q-43 -252 -170 -388t-321 -136q-66 0 -138 30l-129 67q-75 38 -124.5 45t-100.5 -28l-171 -112l-118 214l202 118q81 51 118.5 111t48.5 90h-268l22 182h235l-69 171h-145l22 183h101q40 219 177 333q141 123 392 123t362 -127
q103 -124 87 -385l-339 -19q8 134 -20 183q-25 61 -129 61q-65 0 -111 -46q-38 -48 -56 -123h225l-22 -183h-196l8 -24l5 -22q11 -35 15 -56t7.5 -36.5t5.5 -32.5h134l-22 -182h-138q-27 -43 -78 -92q-54 -42 -121 -68l26 -69q114 57 186 33q42 -15 62 -26q19 -11 55 -11z
" />
    <glyph glyph-name="peseta" unicode="&#x20a7;" 
d="M775 205q58 -58 100 -58t62.5 65.5t10.5 124t-55 141t-76 177.5q-24 105 -13 162.5t13 69.5t6 24t7 24h-67l-82 -665q-8 -61 1 -90t27 -29h8t7 2l17 2zM966 1117q28 19 75 19q92 0 178 -78l-96 -146l-29 29q-29 29 -66 29q-17 0 -26 -26q-11 -23 -20 -93t16 -138
q9 -31 55 -115q46 -83 65 -152q19 -68 8 -155q-18 -156 -100 -237q-77 -73 -171 -73q-31 0 -86 15q-23 -5 -65 -11l-64 -2q-166 0 -132 291l82 661h-65l-15 -114q-21 -170 -93 -242q-62 -58 -149 -58h-33l-64 -521h-191l182 1489h227q203 0 166 -299l-8 -73h66l44 372h173
l-44 -372h180zM251 700q70 0 84 125l45 357q14 125 -54 125h-13l-75 -607h13z" />
    <glyph glyph-name="Euro" unicode="&#x20ac;" 
d="M544 -19q-246 0 -352 124t-78 353v4h-134l22 178h132l26 205h-132l22 179h134v4q28 231 168 355.5t384 124.5t345 -126.5t79 -402.5l-307 -18q9 162 -25 220.5t-134 58.5t-145.5 -53t-58.5 -159v-4h262l-22 -179h-266l-26 -205h266l-23 -178h-262v-4q-13 -106 20 -157.5
t143 -51.5t150.5 62.5t66.5 209.5l301 -18q-45 -272 -177.5 -397t-378.5 -125z" />
    <glyph glyph-name="careof" unicode="&#x2105;" 
d="M890 404q-18 22 -51 22t-55 -27t-24 -68l-15 -111q-8 -92 39.5 -92t72.5 22t27 70l15 111q4 49 -9 73zM527 328q13 139 105 212q91 74 232.5 74t211.5 -70t56 -216l-11 -86q-18 -141 -107 -212t-229 -71t-214 72t-55 211zM-2 391l1136 864l110 -164l-1143 -866zM369 871
q-138 0 -213 69q-75 75 -55 214l11 86q18 144 108 216q90 71 231 71q255 0 255 -224l-218 -28q8 64 -41.5 64t-74.5 -23q-20 -24 -28 -72l-13 -112q-15 -91 56.5 -91t79.5 59l213 -15q-59 -214 -311 -214z" />
    <glyph glyph-name="lsquare" unicode="&#x2113;" 
d="M826 1508q222 0 307 -83t25 -282l-108 -385q-22 -74 -102 -183.5t-337 -109.5q-87 0 -149 23l-13 -49q-26 -96 7 -139q28 -45 110 -45q136 0 335 95l-35 -262q-148 -59 -214 -74q-378 -82 -524 88q-101 128 -33 362l190 681q103 363 541 363zM544 709q12 -26 51 -26
t64 27t45 98l85 302q41 130 -39 130q-45 0 -68 -25t-47 -107l-89 -319q-18 -55 -2 -80z" />
    <glyph glyph-name="numero" unicode="&#x2116;" 
d="M761 320q12 90 -79 90t-101 -90l-8 -61q-11 -101 79.5 -101t101.5 101zM630 -19q-165 0 -259.5 65.5t-78.5 195.5l11 95q17 134 128 200t277 66t258 -66t75 -200l-11 -95q-17 -130 -126 -195.5t-274 -65.5zM486 1112l-48 -399h-300l95 776h352l244 -446l54 446h299
l-95 -776h-380z" />
    <glyph glyph-name="uni2117" unicode="&#x2117;" 
d="M635 689q82 0 82 119v76q0 74 -25 101.5t-57 27.5h-47v-324h47zM964 808q0 -315 -329 -315h-47v-312h-268v1031h317q327 0 327 -328v-76zM616 -88q218 0 314 141.5t96 462.5v339q0 326 -96 468t-314 142t-313.5 -142.5t-95.5 -467.5v-339q0 -320 95.5 -462t313.5 -142z
M1145 478q0 -683 -528.5 -683t-528.5 683v414q0 691 528 691t529 -691v-414z" />
    <glyph glyph-name="trademark" unicode="&#x2122;" 
d="M549 653v836h224l83 -452l82 452h229v-836h-178l35 691l-97 -435h-145l-91 435l37 -691h-179zM136 653v671h-119v165h430v-165h-101v-671h-210z" />
    <glyph glyph-name="Ohm" unicode="&#x2126;" 
d="M710 1508q260 0 381 -135t89 -390l-28 -218q-32 -271 -229 -380l-20 -167h182l-26 -218h-486l53 428q131 46 167 337l30 231q15 132 -22 185t-125 53t-138 -53t-65 -185l-30 -231q-36 -290 86 -337l-52 -428h-486l26 218h184l21 167q-172 110 -138 380l28 218
q32 255 184 390q154 135 414 135z" />
    <glyph glyph-name="estimated" unicode="&#x212e;" 
d="M604 1387q-148 0 -224 -97v-489h460v484q-88 102 -236 102zM67 750q0 316 146 541.5t401 225.5t397.5 -256.5t150.5 -608.5h-782v-447q93 -97 228 -97t226 62.5t155 172.5l82 -112q-153 -253 -462 -253q-246 0 -394 228t-148 544z" />
    <glyph glyph-name="oneeighth" unicode="&#x215b;" 
d="M510.5 -238q73.5 0 104.5 16t35 53l3 28q4 37 -23 55q-27 17 -128 17t-109 -72l-4 -28q-4 -36 22 -53q26 -16 99.5 -16zM667 140l5 39q5 46 -36.5 52.5t-109 6.5t-74.5 -59l-5 -39q-7 -60 103 -60t117 60zM493 -398q-219 0 -302 53.5t-72 167.5l4 26q12 101 84 128
t115 30l6 34q-76 9 -110 41q-42 32 -36 86l6 37q12 103 114 147q100 46 337.5 46t274 -70.5t30.5 -122.5l-6 -37q-17 -109 -175 -127l-5 -34q88 -8 128 -50q43 -39 36 -108l-4 -26q-18 -167 -165 -194t-260 -27zM665 493l18 162l525 38l-29 -237zM-17 456l30 237l538 -38
l-19 -162zM290 767l19 162h233l44 359h-37q-39 -117 -115.5 -145t-115.5 -31l15 189q135 22 198 90.5t85 112.5h265l-71 -575h212l-18 -162h-714z" />
    <glyph glyph-name="threeeighths" unicode="&#x215c;" 
d="M510.5 -238q73.5 0 104.5 16t35 53l3 28q4 37 -23 55q-27 17 -128 17t-109 -72l-4 -28q-4 -36 22 -53q26 -16 99.5 -16zM667 140l5 39q5 46 -36.5 52.5t-109 6.5t-74.5 -59l-5 -39q-7 -60 103 -60t117 60zM493 -398q-219 0 -302 53.5t-72 167.5l4 26q12 101 84 128
t115 30l6 34q-76 9 -110 41q-42 32 -36 86l6 37q12 103 114 147q100 46 337.5 46t274 -70.5t30.5 -122.5l-6 -37q-17 -109 -175 -127l-5 -34q88 -8 128 -50q43 -39 36 -108l-4 -26q-18 -167 -165 -194t-260 -27zM665 493l18 162l525 38l-29 -237zM-17 456l30 237l538 -38
l-19 -162zM622 752q-294 0 -341.5 93t-44.5 155l272 11q0 -58 30 -80q40 -19 107 -19t96 14q28 14 32 46l3 30q4 37 -28 52t-95 15h-202l20 158h203q87 0 101 20t17 44q7 53 -35 57t-89 4t-67 -8t-26.5 -19t-12.5 -29l-268 11q22 115 130 160q94 45 276 45q183 0 280 -39
t86 -129t-61 -126q-40 -35 -109 -49l-4 -33q62 -9 97 -37q64 -51 54 -126q-17 -132 -131 -178q-97 -43 -290 -43z" />
    <glyph glyph-name="fiveeighths" unicode="&#x215d;" 
d="M510.5 -238q73.5 0 104.5 16t35 53l3 28q4 37 -23 55q-27 17 -128 17t-109 -72l-4 -28q-4 -36 22 -53q26 -16 99.5 -16zM667 140l5 39q5 46 -36.5 52.5t-109 6.5t-74.5 -59l-5 -39q-7 -60 103 -60t117 60zM493 -398q-219 0 -302 53.5t-72 167.5l4 26q12 101 84 128
t115 30l6 34q-76 9 -113.5 43.5t-32.5 84.5l6 38q12 101 114 145q100 46 337.5 46t274 -70.5t30.5 -120.5l-6 -38q-12 -81 -75.5 -102.5t-99.5 -25.5l-5 -34q88 -8 128 -50q43 -39 36 -108l-4 -26q-18 -167 -165 -194t-260 -27zM665 493l18 162l525 38l-29 -237zM-17 456
l30 237l538 -38l-19 -162zM933 804q-108 -65 -317 -65t-299.5 58t-80.5 199l270 11q0 -58 31 -81t110 -23t96 14q18 14 23 30t9 43l3 25q2 22 -1.5 34t-30.5 24t-152 12h-315l51 419h752l-21 -163h-484l-11 -95h164q171 0 255 -53q80 -58 65 -163l-7 -64q-12 -100 -110 -162
z" />
    <glyph glyph-name="seveneighths" unicode="&#x215e;" 
d="M510.5 -238q73.5 0 104.5 16t35 53l3 28q4 37 -23 55q-27 17 -128 17t-109 -72l-4 -28q-4 -36 22 -53q26 -16 99.5 -16zM667 140l5 39q5 46 -36.5 52.5t-109 6.5t-74.5 -59l-5 -39q-7 -60 103 -60t117 60zM493 -398q-219 0 -302 53.5t-72 167.5l4 26q12 101 84 128
t115 30l6 34q-76 9 -110 41q-42 32 -36 86l6 37q12 103 114 147q100 46 337.5 46t274 -70.5t30.5 -122.5l-6 -37q-17 -109 -175 -127l-5 -34q88 -8 128 -50q43 -39 36 -108l-4 -26q-18 -167 -165 -194t-260 -27zM665 493l18 162l525 38l-29 -237zM-17 456l30 237l538 -38
l-19 -162zM486 767q98 236 208 358t177 188h-530l22 191h799l-23 -191q-272 -281 -374 -546h-279z" />
    <glyph glyph-name="arrowleft" unicode="&#x2190;" 
d="M711 1434v-512h503v-354h-503v-512h-33l-659 670v37l659 671h33z" />
    <glyph glyph-name="arrowup" unicode="&#x2191;" 
d="M436 -84v838h-438v37l602 782h33l601 -782v-37h-437v-838h-361z" />
    <glyph glyph-name="arrowright" unicode="&#x2192;" 
d="M521 56v512h-502v354h502v512h36l657 -671v-37l-657 -670h-36z" />
    <glyph glyph-name="arrowdown" unicode="&#x2193;" 
d="M-34 674h470v838h361v-838h469v-37l-633 -784h-33l-634 784v37z" />
    <glyph glyph-name="arrowboth" unicode="&#x2194;" 
d="M478 568v-512h-35l-424 670v37l424 671h35v-512h278v512h33l425 -671v-37l-425 -670h-33v512h-278z" />
    <glyph glyph-name="arrowupdn" unicode="&#x2195;" 
d="M-2 465h438v559h-438v37l602 698h33l601 -698v-37h-437v-559h437v-37l-601 -698h-33l-602 698v37z" />
    <glyph glyph-name="arrowupdnbse" unicode="&#x21a8;" 
d="M-2 465h438v559h-438v37l602 698h33l601 -698v-37h-437v-559h437v-37l-529 -614h414l-34 -287h-994l34 287h402l-529 614v37z" />
    <glyph glyph-name="partialdiff" unicode="&#x2202;" 
d="M738 630q-38 46 -116 46t-108 -28t-42 -56t-20 -69l-22 -117q-7 -45 0 -109t126 -64q80 0 116 43q38 38 52 130l23 117q14 79 -9 107zM509 -19q-239 0 -349 110q-120 115 -84 335l13 101q30 183 151 294q125 108 292 108q100 0 159 -41q56 -36 76 -97h35q14 206 -89 309
q-56 58 -153.5 103.5t-252.5 92.5l274 231q341 -103 475 -304q127 -200 76 -540l-37 -245q-56 -344 -263 -400.5t-323 -56.5z" />
    <glyph glyph-name="Delta#1" unicode="&#x2206;" 
d="M782 268l-102 994l-360 -994h462zM-22 0l33 268l447 1221h521l129 -1221l-34 -268h-1096z" />
    <glyph glyph-name="product" unicode="&#x220f;" 
d="M-43 -372l229 1861h1043l-229 -1861h-360l198 1593h-324l-197 -1593h-360z" />
    <glyph glyph-name="summation" unicode="&#x2211;" 
d="M1005 -104l-33 -268h-1004l34 268l655 679l-491 646l31 268h1004l-32 -268h-659l387 -527l-26 -212l-545 -586h679z" />
    <glyph glyph-name="minus" unicode="&#x2212;" 
d="M91 508l34 287h994l-34 -287h-994z" />
    <glyph glyph-name="radical" unicode="&#x221a;" 
d="M410 0l-168 650l-246 -34l32 259l426 56l147 -639l451 1384h333l-573 -1676h-402z" />
    <glyph glyph-name="infinity" unicode="&#x221e;" 
d="M358 438q74 0 173 215q-17 229 -33 296q-15 66 -30.5 84.5t-64.5 18.5t-90 -317q-15 -167 -6.5 -216.5t20 -65t31.5 -15.5zM807.5 438q27.5 0 60.5 72q33 93 52 249t5 225q-14 68 -48 68q-80 0 -175 -220q17 -231 33 -295q15 -64 30 -81.5t42.5 -17.5zM280 207
q-48 0 -95 35t-79 104q-70 141 -38 398q32 256 146 401q104 138 242 138t175 -106t49 -173q67 140 111 189q81 90 164 90q112 0 173 -140q69 -144 39 -397q-30 -252 -147 -402q-111 -137 -249 -137q-97 0 -145 74q-51 69 -73 199q-61 -132 -124 -202q-62 -71 -149 -71z" />
    <glyph glyph-name="orthogonal" unicode="&#x221f;" 
d="M99 0l160 1303h359l-125 -1018h529l-35 -285h-888z" />
    <glyph glyph-name="intersection" unicode="&#x2229;" 
d="M1026 1197.5q113 -124.5 87 -352.5l-104 -845h-359l100 821q14 122 0 163q-25 70 -93 70t-106 -60q-34 -61 -48 -177l-101 -817h-361l104 845q26 222 172.5 349.5t371 127.5t337.5 -124.5z" />
    <glyph glyph-name="integral" unicode="&#x222b;" 
d="M1182 1287q-93 35 -166 35q-72 0 -115 -45q-45 -54 -56 -143l-139 -1127q-21 -188 -166 -289q-145 -100 -346 -100q-127 0 -244 43l61 227q93 -35 168 -35q74 0 117 48t54 140l138 1126q21 189 163.5 289t348.5 100q131 0 246 -42z" />
    <glyph glyph-name="approxequal" unicode="&#x2248;" 
d="M357 627q168 0 259 -197q18 -39 71 -140q33 -57 69 -57q53 0 69.5 68t23.5 120l17 138h223l-18 -151q-26 -211 -113 -327t-192 -116q-104 0 -166.5 47.5t-109.5 149.5q-18 39 -71 140q-33 57 -70 57t-58 -42q-20 -42 -36 -144l-17 -139h-223l19 150q26 213 113 328
t210 115zM448 1104q-77 0 -100 -186l-18 -140h-224l19 151q26 213 113 328t211 115q167 0 258 -197q13 -22 34.5 -69t34.5 -73q17 -24 31.5 -40t34.5 -16q39 0 61 43q27 46 37 145l17 138h223l-18 -151q-26 -210 -112 -326q-86 -117 -201 -117q-177 0 -268 198
q-13 24 -51 110.5t-82 86.5z" />
    <glyph glyph-name="notequal" unicode="&#x2260;" 
d="M1061 313h-473l-111 -313h-246l110 313h-274l32 270h337l115 326h-411l33 270h475l108 310h246l-108 -310h273l-33 -270h-337l-114 -326h410z" />
    <glyph glyph-name="equivalence" unicode="&#x2261;" 
d="M30 19l35 286h994l-35 -286h-994zM88 492l35 286h994l-35 -286h-994zM147 964l35 287h995l-36 -287h-994z" />
    <glyph glyph-name="lessequal" unicode="&#x2264;" 
d="M80 0l30 244h892l-30 -244h-892zM1018 372l-845 382l43 354l938 381l-33 -277l-691 -281l622 -281z" />
    <glyph glyph-name="greaterequal" unicode="&#x2265;" 
d="M972 0h-892l30 244h892zM127 372l33 278l687 281l-618 281l34 277l845 -381l-43 -354z" />
    <glyph glyph-name="logicalnotreversed" unicode="&#x2310;" 
d="M-86 0l97 795h1222l-34 -287h-936l-64 -508h-285z" />
    <glyph glyph-name="integralbt" unicode="&#x2321;" 
d="M445 41l177 1448h361l-182 -1482q-21 -185 -172 -292q-143 -97 -340 -97q-129 0 -246 43l63 227q86 -35 160 -35q155 0 179 188z" />
    <glyph glyph-name="uni23af" unicode="&#x23af;" 
d="M-19 568v354h1270v-354h-1270z" />
    <glyph glyph-name="lighthorzbxd" unicode="&#x2500;" 
d="M-37 652h1307v-187h-1307v187z" />
    <glyph glyph-name="heavyhorzbxd" unicode="&#x2501;" 
d="M-37 745h1307v-373h-1307v373z" />
    <glyph glyph-name="lightvertbxd" unicode="&#x2502;" 
d="M523 1955h186v-2793h-186v2793z" />
    <glyph glyph-name="heavyvertbxd" unicode="&#x2503;" 
d="M430 1955h372v-2793h-372v2793z" />
    <glyph glyph-name="lighttrpldashhorzbxd" unicode="&#x2504;" 
d="M886 652h274v-187h-274v187zM477 652h273v-187h-273v187zM67 652h274v-187h-274v187z" />
    <glyph glyph-name="heavytrpldashhorzbxd" unicode="&#x2505;" 
d="M886 745h274v-373h-274v373zM477 745h273v-373h-273v373zM67 745h274v-373h-274v373z" />
    <glyph glyph-name="lighttrpldashvertbxd" unicode="&#x2506;" 
d="M523 2147h186v-455h-186v455zM523 1465h186v-454h-186v454zM523 784h186v-454h-186v454zM523 102h186v-454h-186v454z" />
    <glyph glyph-name="heavytrpldashvertbxd" unicode="&#x2507;" 
d="M430 2147h372v-455h-372v455zM430 1465h372v-454h-372v454zM430 784h372v-454h-372v454zM430 102h372v-454h-372v454z" />
    <glyph glyph-name="lightquaddashhorzbxd" unicode="&#x2508;" 
d="M959 652h231v-187h-231v187zM652 652h231v-187h-231v187zM344 652h231v-187h-231v187zM37 652h231v-187h-231v187z" />
    <glyph glyph-name="heavyquaddashhorzbxd" unicode="&#x2509;" 
d="M959 745h231v-373h-231v373zM652 745h231v-373h-231v373zM344 745h231v-373h-231v373zM37 745h231v-373h-231v373z" />
    <glyph glyph-name="lightquaddashvertbxd" unicode="&#x250a;" 
d="M523 1519h186v-385h-186v385zM523 1007h186v-385h-186v385zM523 495h186v-385h-186v385zM523 -17h186v-385h-186v385z" />
    <glyph glyph-name="heavyquaddashvertbxd" unicode="&#x250b;" 
d="M430 1519h372v-385h-372v385zM430 1007h372v-385h-372v385zM430 495h372v-385h-372v385zM430 -17h372v-385h-372v385z" />
    <glyph glyph-name="lightdnrightbxd" unicode="&#x250c;" 
d="M523 652h747v-187h-561v-1303h-186v1490z" />
    <glyph glyph-name="dnlightrightheavybxd" unicode="&#x250d;" 
d="M523 745h747v-373h-561v-1210h-186v1583z" />
    <glyph glyph-name="dnheavyrightlightbxd" unicode="&#x250e;" 
d="M430 652h840v-187h-468v-1303h-372v1490z" />
    <glyph glyph-name="heavydnrightbxd" unicode="&#x250f;" 
d="M430 745h840v-373h-468v-1210h-372v1583z" />
    <glyph glyph-name="lightdnleftbxd" unicode="&#x2510;" 
d="M-37 652h746v-1490h-186v1303h-560v187z" />
    <glyph glyph-name="dnlightleftheavybxd" unicode="&#x2511;" 
d="M-37 745h746v-1583h-186v1210h-560v373z" />
    <glyph glyph-name="dnheavyleftlightbxd" unicode="&#x2512;" 
d="M-37 652h839v-1490h-372v1303h-467v187z" />
    <glyph glyph-name="heavydnleftbxd" unicode="&#x2513;" 
d="M-37 745h839v-1583h-372v1210h-467v373z" />
    <glyph glyph-name="lightuprightbxd" unicode="&#x2514;" 
d="M523 1955h186v-1303h561v-187h-747v1490z" />
    <glyph glyph-name="uplightrightheavybxd" unicode="&#x2515;" 
d="M523 1955h186v-1210h561v-373h-747v1583z" />
    <glyph glyph-name="upheavyrightlightbxd" unicode="&#x2516;" 
d="M430 1955h372v-1303h468v-187h-840v1490z" />
    <glyph glyph-name="heavyuprightbxd" unicode="&#x2517;" 
d="M430 1955h372v-1210h468v-373h-840v1583z" />
    <glyph glyph-name="lightupleftbxd" unicode="&#x2518;" 
d="M-37 652h560v1303h186v-1490h-746v187z" />
    <glyph glyph-name="uplightleftheavybxd" unicode="&#x2519;" 
d="M-37 745h560v1210h186v-1583h-746v373z" />
    <glyph glyph-name="upheavyleftlightbxd" unicode="&#x251a;" 
d="M-37 652h467v1303h372v-1490h-839v187z" />
    <glyph glyph-name="heavyupleftbxd" unicode="&#x251b;" 
d="M-37 745h467v1210h372v-1583h-839v373z" />
    <glyph glyph-name="lightvertrightbxd" unicode="&#x251c;" 
d="M523 1955h186v-1303h561v-187h-561v-1303h-186v2793z" />
    <glyph glyph-name="vertlightrightheavybxd" unicode="&#x251d;" 
d="M523 1955h186v-1210h561v-373h-561v-1210h-186v2793z" />
    <glyph glyph-name="upheavyrightdnlightbxd" unicode="&#x251e;" 
d="M430 1955h372v-1303h468v-187h-561v-1303h-186v1303h-93v1490z" />
    <glyph glyph-name="dnheavyrightuplightbxd" unicode="&#x251f;" 
d="M430 652h93v1303h186v-1303h561v-187h-468v-1303h-372v1490z" />
    <glyph glyph-name="vertheavyrightlightbxd" unicode="&#x2520;" 
d="M430 1955h372v-1303h468v-187h-468v-1303h-372v2793z" />
    <glyph glyph-name="dnlightrightupheavybxd" unicode="&#x2521;" 
d="M430 1955h372v-1210h468v-373h-561v-1210h-186v1210h-93v1583z" />
    <glyph glyph-name="uplightrightdnheavybxd" unicode="&#x2522;" 
d="M430 745h93v1210h186v-1210h561v-373h-468v-1210h-372v1583z" />
    <glyph glyph-name="heavyvertrightbxd" unicode="&#x2523;" 
d="M430 1955h372v-1210h468v-373h-468v-1210h-372v2793z" />
    <glyph glyph-name="lightvertleftbxd" unicode="&#x2524;" 
d="M-37 652h560v1303h186v-2793h-186v1303h-560v187z" />
    <glyph glyph-name="vertlightleftheavybxd" unicode="&#x2525;" 
d="M-37 745h560v1210h186v-2793h-186v1210h-560v373z" />
    <glyph glyph-name="upheavyleftdnlightbxd" unicode="&#x2526;" 
d="M-37 652h467v1303h372v-1490h-93v-1303h-186v1303h-560v187z" />
    <glyph glyph-name="dnheavyleftuplightbxd" unicode="&#x2527;" 
d="M-37 652h560v1303h186v-1303h93v-1490h-372v1303h-467v187z" />
    <glyph glyph-name="vertheavyleftlightbxd" unicode="&#x2528;" 
d="M-37 652h467v1303h372v-2793h-372v1303h-467v187z" />
    <glyph glyph-name="dnlightleftupheavybxd" unicode="&#x2529;" 
d="M-37 745h467v1210h372v-1583h-93v-1210h-186v1210h-560v373z" />
    <glyph glyph-name="uplightleftdnheavybxd" unicode="&#x252a;" 
d="M-37 745h560v1210h186v-1210h93v-1583h-372v1210h-467v373z" />
    <glyph glyph-name="heavyvertleftbxd" unicode="&#x252b;" 
d="M-37 745h467v1210h372v-2793h-372v1210h-467v373z" />
    <glyph glyph-name="lightdnhorzbxd" unicode="&#x252c;" 
d="M-37 652h1307v-187h-561v-1303h-186v1303h-560v187z" />
    <glyph glyph-name="leftheavyrightdnlightbxd" unicode="&#x252d;" 
d="M-37 745h746v-93h561v-187h-561v-1303h-186v1210h-560v373z" />
    <glyph glyph-name="rightheavyleftdnlightbxd" unicode="&#x252e;" 
d="M-37 652h560v93h747v-373h-561v-1210h-186v1303h-560v187z" />
    <glyph glyph-name="dnlighthorzheavybxd" unicode="&#x252f;" 
d="M-37 745h1307v-373h-561v-1210h-186v1210h-560v373z" />
    <glyph glyph-name="dnheavyhorzlightbxd" unicode="&#x2530;" 
d="M-37 652h1307v-187h-468v-1303h-372v1303h-467v187z" />
    <glyph glyph-name="rightlightleftdnheavybxd" unicode="&#x2531;" 
d="M-37 745h839v-93h468v-187h-468v-1303h-372v1210h-467v373z" />
    <glyph glyph-name="leftlightrightdnheavybxd" unicode="&#x2532;" 
d="M-37 652h467v93h840v-373h-468v-1210h-372v1303h-467v187z" />
    <glyph glyph-name="heavydnhorzbxd" unicode="&#x2533;" 
d="M-37 745h1307v-373h-468v-1210h-372v1210h-467v373z" />
    <glyph glyph-name="lightuphorzbxd" unicode="&#x2534;" 
d="M-37 652h560v1303h186v-1303h561v-187h-1307v187z" />
    <glyph glyph-name="leftheavyrightuplightbxd" unicode="&#x2535;" 
d="M-37 745h560v1210h186v-1303h561v-187h-561v-93h-746v373z" />
    <glyph glyph-name="rightheavyleftuplightbxd" unicode="&#x2536;" 
d="M-37 652h560v1303h186v-1210h561v-373h-747v93h-560v187z" />
    <glyph glyph-name="uplighthorzheavybxd" unicode="&#x2537;" 
d="M-37 745h560v1210h186v-1210h561v-373h-1307v373z" />
    <glyph glyph-name="upheavyhorzlightbxd" unicode="&#x2538;" 
d="M-37 652h467v1303h372v-1303h468v-187h-1307v187z" />
    <glyph glyph-name="rightlightleftupheavybxd" unicode="&#x2539;" 
d="M-37 745h467v1210h372v-1303h468v-187h-468v-93h-839v373z" />
    <glyph glyph-name="leftlightrightupheavybxd" unicode="&#x253a;" 
d="M-37 652h467v1303h372v-1210h468v-373h-840v93h-467v187z" />
    <glyph glyph-name="heavyuphorzbxd" unicode="&#x253b;" 
d="M-37 745h467v1210h372v-1210h468v-373h-1307v373z" />
    <glyph glyph-name="lightverthorzbxd" unicode="&#x253c;" 
d="M-37 652h560v1303h186v-1303h561v-187h-561v-1303h-186v1303h-560v187z" />
    <glyph glyph-name="leftheavyrightvertlightbxd" unicode="&#x253d;" 
d="M-37 745h560v1210h186v-1303h561v-187h-561v-1303h-186v1210h-560v373z" />
    <glyph glyph-name="rightheavyleftvertlightbxd" unicode="&#x253e;" 
d="M-37 652h560v1303h186v-1210h561v-373h-561v-1210h-186v1303h-560v187z" />
    <glyph glyph-name="vertlighthorzheavybxd" unicode="&#x253f;" 
d="M-37 745h560v1210h186v-1210h561v-373h-561v-1210h-186v1210h-560v373z" />
    <glyph glyph-name="upheavydnhorzlightbxd" unicode="&#x2540;" 
d="M-37 652h467v1303h372v-1303h468v-187h-561v-1303h-186v1303h-560v187z" />
    <glyph glyph-name="dnheavyuphorzlightbxd" unicode="&#x2541;" 
d="M-37 652h560v1303h186v-1303h561v-187h-468v-1303h-372v1303h-467v187z" />
    <glyph glyph-name="vertheavyhorzlightbxd" unicode="&#x2542;" 
d="M-37 652h467v1303h372v-1303h468v-187h-468v-1303h-372v1303h-467v187z" />
    <glyph glyph-name="leftupheavyrightdnlightbxd" unicode="&#x2543;" 
d="M-37 745h467v1210h372v-1303h468v-187h-468v-93h-93v-1210h-186v1210h-560v373z" />
    <glyph glyph-name="rightupheavyleftdnlightbxd" unicode="&#x2544;" 
d="M-37 652h467v1303h372v-1210h468v-373h-561v-1210h-186v1210h-93v93h-467v187z" />
    <glyph glyph-name="leftdnheavyrightuplightbxd" unicode="&#x2545;" 
d="M-37 745h560v1210h186v-1210h93v-93h468v-187h-468v-1303h-372v1210h-467v373z" />
    <glyph glyph-name="rightdnheavyleftuplightbxd" unicode="&#x2546;" 
d="M-37 652h467v93h93v1210h186v-1210h561v-373h-468v-1210h-372v1303h-467v187z" />
    <glyph glyph-name="dnlightuphorzheavybxd" unicode="&#x2547;" 
d="M-37 745h467v1210h372v-1210h468v-373h-561v-1210h-186v1210h-560v373z" />
    <glyph glyph-name="uplightdnhorzheavybxd" unicode="&#x2548;" 
d="M-37 745h560v1210h186v-1210h561v-373h-468v-1210h-372v1210h-467v373z" />
    <glyph glyph-name="rightlightleftvertheavybxd" unicode="&#x2549;" 
d="M-37 745h467v1210h372v-1303h468v-187h-468v-1303h-372v1210h-467v373z" />
    <glyph glyph-name="leftlightrightvertheavybxd" unicode="&#x254a;" 
d="M-37 652h467v1303h372v-1210h468v-373h-468v-1210h-372v1303h-467v187z" />
    <glyph glyph-name="heavyverthorzbxd" unicode="&#x254b;" 
d="M-37 745h467v1210h372v-1210h468v-373h-468v-1210h-372v1210h-467v373z" />
    <glyph glyph-name="lightdbldashhorzbxd" unicode="&#x254c;" 
d="M769 652h309v-187h-309v187zM153 652h309v-187h-309v187z" />
    <glyph glyph-name="heavydbldashhorzbxd" unicode="&#x254d;" 
d="M769 745h309v-373h-309v373zM153 745h309v-373h-309v373z" />
    <glyph glyph-name="lightdbldashvertbxd" unicode="&#x254e;" 
d="M523 1326h186v-512h-186v512zM523 302h186v-512h-186v512z" />
    <glyph glyph-name="heavydbldashvertbxd" unicode="&#x254f;" 
d="M430 1326h372v-512h-372v512zM430 302h372v-512h-372v512z" />
    <glyph glyph-name="dblhorzbxd" unicode="&#x2550;" 
d="M-37 465h1307v-186h-1307v186zM-37 838h1307v-186h-1307v186z" />
    <glyph glyph-name="dblvertbxd" unicode="&#x2551;" 
d="M709 1955h187v-2793h-187v2793zM337 1955h186v-2793h-186v2793z" />
    <glyph glyph-name="dnsngrightdblbxd" unicode="&#x2552;" 
d="M523 838h747v-186h-561v-187h561v-186h-561v-1117h-186v1676z" />
    <glyph glyph-name="dndblrightsngbxd" unicode="&#x2553;" 
d="M337 652h933v-187h-374v-1303h-187v1303h-186v-1303h-186v1490z" />
    <glyph glyph-name="dbldnrightbxd" unicode="&#x2554;" 
d="M709 465h561v-186h-374v-1117h-187v1303zM337 838h933v-186h-747v-1490h-186v1676z" />
    <glyph glyph-name="dnsngleftdblbxd" unicode="&#x2555;" 
d="M-37 838h746v-1676h-186v1117h-560v186h560v187h-560v186z" />
    <glyph glyph-name="dndblleftsngbxd" unicode="&#x2556;" 
d="M-37 652h933v-1490h-187v1303h-186v-1303h-186v1303h-374v187z" />
    <glyph glyph-name="dbldnleftbxd" unicode="&#x2557;" 
d="M-37 465h560v-1303h-186v1117h-374v186zM-37 838h933v-1676h-187v1490h-746v186z" />
    <glyph glyph-name="upsngrightdblbxd" unicode="&#x2558;" 
d="M523 1955h186v-1117h561v-186h-561v-187h561v-186h-747v1676z" />
    <glyph glyph-name="updblrightsngbxd" unicode="&#x2559;" 
d="M337 1955h186v-1303h186v1303h187v-1303h374v-187h-933v1490z" />
    <glyph glyph-name="dbluprightbxd" unicode="&#x255a;" 
d="M709 1955h187v-1117h374v-186h-561v1303zM337 1955h186v-1490h747v-186h-933v1676z" />
    <glyph glyph-name="upsngleftdblbxd" unicode="&#x255b;" 
d="M-37 838h560v1117h186v-1676h-746v186h560v187h-560v186z" />
    <glyph glyph-name="updblleftsngbxd" unicode="&#x255c;" 
d="M-37 652h374v1303h186v-1303h186v1303h187v-1490h-933v187z" />
    <glyph glyph-name="dblupleftbxd" unicode="&#x255d;" 
d="M-37 838h374v1117h186v-1303h-560v186zM-37 465h746v1490h187v-1676h-933v186z" />
    <glyph glyph-name="vertsngrightdblbxd" unicode="&#x255e;" 
d="M523 1955h186v-1117h561v-186h-561v-187h561v-186h-561v-1117h-186v2793z" />
    <glyph glyph-name="vertdblrightsngbxd" unicode="&#x255f;" 
d="M337 1955h186v-2793h-186v2793zM709 1955h187v-1303h374v-187h-374v-1303h-187v2793z" />
    <glyph glyph-name="dblvertrightbxd" unicode="&#x2560;" 
d="M709 465h561v-186h-374v-1117h-187v1303zM709 1955h187v-1117h374v-186h-561v1303zM337 1955h186v-2793h-186v2793z" />
    <glyph glyph-name="vertsngleftdblbxd" unicode="&#x2561;" 
d="M-37 838h560v1117h186v-2793h-186v1117h-560v186h560v187h-560v186z" />
    <glyph glyph-name="vertdblleftsngbxd" unicode="&#x2562;" 
d="M709 1955h187v-2793h-187v2793zM-37 652h374v1303h186v-2793h-186v1303h-374v187z" />
    <glyph glyph-name="dblvertleftbxd" unicode="&#x2563;" 
d="M-37 838h374v1117h186v-1303h-560v186zM-37 465h560v-1303h-186v1117h-374v186zM709 1955h187v-2793h-187v2793z" />
    <glyph glyph-name="dnsnghorzdblbxd" unicode="&#x2564;" 
d="M-37 838h1307v-186h-1307v186zM-37 465h1307v-186h-561v-1117h-186v1117h-560v186z" />
    <glyph glyph-name="dndblhorzsngbxd" unicode="&#x2565;" 
d="M-37 652h1307v-187h-374v-1303h-187v1303h-186v-1303h-186v1303h-374v187z" />
    <glyph glyph-name="dbldnhorzbxd" unicode="&#x2566;" 
d="M-37 838h1307v-186h-1307v186zM709 465h561v-186h-374v-1117h-187v1303zM-37 465h560v-1303h-186v1117h-374v186z" />
    <glyph glyph-name="upsnghorzdblbxd" unicode="&#x2567;" 
d="M-37 465h1307v-186h-1307v186zM-37 838h560v1117h186v-1117h561v-186h-1307v186z" />
    <glyph glyph-name="updblhorzsngbxd" unicode="&#x2568;" 
d="M-37 652h374v1303h186v-1303h186v1303h187v-1303h374v-187h-1307v187z" />
    <glyph glyph-name="dbluphorzbxd" unicode="&#x2569;" 
d="M-37 465h1307v-186h-1307v186zM709 1955h187v-1117h374v-186h-561v1303zM-37 838h374v1117h186v-1303h-560v186z" />
    <glyph glyph-name="vertsnghorzdblbxd" unicode="&#x256a;" 
d="M-37 838h560v1117h186v-1117h561v-186h-561v-187h561v-186h-561v-1117h-186v1117h-560v186h560v187h-560v186z" />
    <glyph glyph-name="vertdblhorzsngbxd" unicode="&#x256b;" 
d="M-37 652h374v1303h186v-1303h186v1303h187v-1303h374v-187h-374v-1303h-187v1303h-186v-1303h-186v1303h-374v187z" />
    <glyph glyph-name="dblverthorzbxd" unicode="&#x256c;" 
d="M709 465h561v-186h-374v-1117h-187v1303zM709 1955h187v-1117h374v-186h-561v1303zM-37 465h560v-1303h-186v1117h-374v186zM-37 838h374v1117h186v-1303h-560v186z" />
    <glyph glyph-name="lightarcdnrightbxd" unicode="&#x256d;" 
d="M523 -58q0 147 56 275.5t152 225.5t225 153t277 56h37v-187h-37q-217 0 -370.5 -153.5t-153.5 -369.5v-780h-186v780z" />
    <glyph glyph-name="lightarcdnleftbxd" unicode="&#x256e;" 
d="M709 -838h-186v780q0 215 -152.5 369t-370.5 154h-37v187h37q147 0 275.5 -56t225.5 -153t152.5 -225.5t55.5 -275.5v-780z" />
    <glyph glyph-name="lightarcupleftbxd" unicode="&#x256f;" 
d="M709 1175q0 -147 -55.5 -276.5t-152.5 -225.5t-225.5 -152t-275.5 -56h-37v187h37q216 0 369.5 153.5t153.5 369.5v780h186v-780z" />
    <glyph glyph-name="lightarcuprightbxd" unicode="&#x2570;" 
d="M523 1955h186v-780q0 -217 154.5 -370t369.5 -153h37v-187h-37q-147 0 -276.5 56t-225.5 152t-152 225.5t-56 276.5v780z" />
    <glyph glyph-name="lightdiaguprightdnleftbxd" unicode="&#x2571;" 
d="M1233 1583v-181l-1125 -1867h-108v180l1125 1868h108z" />
    <glyph glyph-name="lightdiagupleftdnrightbxd" unicode="&#x2572;" 
d="M1233 -465h-108l-1125 1867v181h108l1125 -1868v-180z" />
    <glyph glyph-name="lightdiagcrossbxd" unicode="&#x2573;" 
d="M0 1583h108l508 -846l509 846h108v-181l-509 -843l509 -844v-180h-108l-509 843l-508 -843h-108v180l508 844l-508 843v181z" />
    <glyph glyph-name="lightleftbxd" unicode="&#x2574;" 
d="M-37 652h746v-187h-746v187z" />
    <glyph glyph-name="lightupbxd" unicode="&#x2575;" 
d="M523 1955h186v-1490h-186v1490z" />
    <glyph glyph-name="lightrightbxd" unicode="&#x2576;" 
d="M523 652h747v-187h-747v187z" />
    <glyph glyph-name="lightdnbxd" unicode="&#x2577;" 
d="M523 652h186v-1490h-186v1490z" />
    <glyph glyph-name="heavyleftbxd" unicode="&#x2578;" 
d="M-37 745h746v-373h-746v373z" />
    <glyph glyph-name="heavyupbxd" unicode="&#x2579;" 
d="M430 1955h372v-1490h-372v1490z" />
    <glyph glyph-name="heavyrightbxd" unicode="&#x257a;" 
d="M523 745h747v-373h-747v373z" />
    <glyph glyph-name="heavydnbxd" unicode="&#x257b;" 
d="M430 652h372v-1490h-372v1490z" />
    <glyph glyph-name="lightleftheavyrightbxd" unicode="&#x257c;" 
d="M-37 652h560v93h747v-373h-747v93h-560v187z" />
    <glyph glyph-name="lightupheavydnbxd" unicode="&#x257d;" 
d="M430 652h93v1303h186v-1303h93v-1490h-372v1490z" />
    <glyph glyph-name="heavyleftlightrightbxd" unicode="&#x257e;" 
d="M-37 745h746v-93h561v-187h-561v-93h-746v373z" />
    <glyph glyph-name="heavyuplightdnbxd" unicode="&#x257f;" 
d="M430 1955h372v-1490h-93v-1303h-186v1303h-93v1490z" />
    <glyph glyph-name="uphalfblock" unicode="&#x2580;" 
d="M0 1583h1233v-1024h-1233v1024z" />
    <glyph glyph-name="dneighthblock" unicode="&#x2581;" 
d="M0 -210h1233v-255h-1233v255z" />
    <glyph glyph-name="dnquarterblock" unicode="&#x2582;" 
d="M0 47h1233v-512h-1233v512z" />
    <glyph glyph-name="dnthreeeighthsblock" unicode="&#x2583;" 
d="M0 302h1233v-767h-1233v767z" />
    <glyph glyph-name="dnhalfblock" unicode="&#x2584;" 
d="M0 559h1233v-1024h-1233v1024z" />
    <glyph glyph-name="dnfiveeighthsblock" unicode="&#x2585;" 
d="M0 814h1233v-1279h-1233v1279z" />
    <glyph glyph-name="dnthreequartersblock" unicode="&#x2586;" 
d="M0 1071h1233v-1536h-1233v1536z" />
    <glyph glyph-name="dnseveneighthsblock" unicode="&#x2587;" 
d="M0 1326h1233v-1791h-1233v1791z" />
    <glyph glyph-name="fullblock" unicode="&#x2588;" 
d="M0 1583h1233v-2048h-1233v2048z" />
    <glyph glyph-name="leftseveneighthsblock" unicode="&#x2589;" 
d="M0 1583h1078v-2048h-1078v2048z" />
    <glyph glyph-name="leftthreequartersblock" unicode="&#x258a;" 
d="M0 1583h923v-2048h-923v2048z" />
    <glyph glyph-name="leftfiveeighthsblock" unicode="&#x258b;" 
d="M0 1583h769v-2048h-769v2048z" />
    <glyph glyph-name="lefthalfblock" unicode="&#x258c;" 
d="M0 1583h616v-2048h-616v2048z" />
    <glyph glyph-name="leftthreeeighthsblock" unicode="&#x258d;" 
d="M0 1583h462v-2048h-462v2048z" />
    <glyph glyph-name="leftquarterblock" unicode="&#x258e;" 
d="M0 1583h307v-2048h-307v2048z" />
    <glyph glyph-name="lefteighthblock" unicode="&#x258f;" 
d="M0 1583h153v-2048h-153v2048z" />
    <glyph glyph-name="righthalfblock" unicode="&#x2590;" 
d="M616 1583h617v-2048h-617v2048z" />
    <glyph glyph-name="lightshade" unicode="&#x2591;" 
d="M1210 1545h37v-56h-37v56zM1117 1452h37v-56h-37v56zM1210 1359h37v-56h-37v56zM1117 1266h37v-56h-37v56zM1210 1173h37v-56h-37v56zM1117 1080h37v-56h-37v56zM1210 987h37v-56h-37v56zM1117 894h37v-56h-37v56zM1210 801h37v-56h-37v56zM1117 707h37v-55h-37v55z
M1210 614h37v-55h-37v55zM1117 521h37v-56h-37v56zM1210 428h37v-56h-37v56zM1117 335h37v-56h-37v56zM1210 242h37v-56h-37v56zM1117 149h37v-56h-37v56zM1210 56h37v-56h-37v56zM1117 -37h37v-56h-37v56zM1210 -130h37v-56h-37v56zM1117 -223h37v-56h-37v56zM1210 -317h37
v-55h-37v55zM1117 -410h37v-55h-37v55zM1024 1545h37v-56h-37v56zM931 1452h37v-56h-37v56zM1024 1359h37v-56h-37v56zM931 1266h37v-56h-37v56zM1024 1173h37v-56h-37v56zM931 1080h37v-56h-37v56zM1024 987h37v-56h-37v56zM931 894h37v-56h-37v56zM1024 801h37v-56h-37v56
zM931 707h37v-55h-37v55zM1024 614h37v-55h-37v55zM931 521h37v-56h-37v56zM1024 428h37v-56h-37v56zM931 335h37v-56h-37v56zM1024 242h37v-56h-37v56zM931 149h37v-56h-37v56zM1024 56h37v-56h-37v56zM931 -37h37v-56h-37v56zM1024 -130h37v-56h-37v56zM931 -223h37v-56
h-37v56zM1024 -317h37v-55h-37v55zM931 -410h37v-55h-37v55zM838 1545h37v-56h-37v56zM745 1452h37v-56h-37v56zM838 1359h37v-56h-37v56zM745 1266h37v-56h-37v56zM838 1173h37v-56h-37v56zM745 1080h37v-56h-37v56zM838 987h37v-56h-37v56zM745 894h37v-56h-37v56z
M838 801h37v-56h-37v56zM745 707h37v-55h-37v55zM838 614h37v-55h-37v55zM745 521h37v-56h-37v56zM838 428h37v-56h-37v56zM745 335h37v-56h-37v56zM838 242h37v-56h-37v56zM745 149h37v-56h-37v56zM838 56h37v-56h-37v56zM745 -37h37v-56h-37v56zM838 -130h37v-56h-37v56z
M745 -223h37v-56h-37v56zM838 -317h37v-55h-37v55zM745 -410h37v-55h-37v55zM652 1545h37v-56h-37v56zM559 1452h37v-56h-37v56zM652 1359h37v-56h-37v56zM559 1266h37v-56h-37v56zM652 1173h37v-56h-37v56zM559 1080h37v-56h-37v56zM652 987h37v-56h-37v56zM559 894h37v-56
h-37v56zM652 801h37v-56h-37v56zM559 707h37v-55h-37v55zM652 614h37v-55h-37v55zM559 521h37v-56h-37v56zM652 428h37v-56h-37v56zM559 335h37v-56h-37v56zM652 242h37v-56h-37v56zM559 149h37v-56h-37v56zM652 56h37v-56h-37v56zM559 -37h37v-56h-37v56zM652 -130h37v-56
h-37v56zM559 -223h37v-56h-37v56zM652 -317h37v-55h-37v55zM559 -410h37v-55h-37v55zM465 1545h38v-56h-38v56zM372 1452h38v-56h-38v56zM465 1359h38v-56h-38v56zM372 1266h38v-56h-38v56zM465 1173h38v-56h-38v56zM372 1080h38v-56h-38v56zM465 987h38v-56h-38v56z
M372 894h38v-56h-38v56zM465 801h38v-56h-38v56zM372 707h38v-55h-38v55zM465 614h38v-55h-38v55zM372 521h38v-56h-38v56zM465 428h38v-56h-38v56zM372 335h38v-56h-38v56zM465 242h38v-56h-38v56zM372 149h38v-56h-38v56zM465 56h38v-56h-38v56zM372 -37h38v-56h-38v56z
M465 -130h38v-56h-38v56zM372 -223h38v-56h-38v56zM465 -317h38v-55h-38v55zM372 -410h38v-55h-38v55zM279 1545h38v-56h-38v56zM186 1452h37v-56h-37v56zM279 1359h38v-56h-38v56zM186 1266h37v-56h-37v56zM279 1173h38v-56h-38v56zM186 1080h37v-56h-37v56zM279 987h38
v-56h-38v56zM186 894h37v-56h-37v56zM279 801h38v-56h-38v56zM186 707h37v-55h-37v55zM279 614h38v-55h-38v55zM186 521h37v-56h-37v56zM279 428h38v-56h-38v56zM186 335h37v-56h-37v56zM279 242h38v-56h-38v56zM186 149h37v-56h-37v56zM279 56h38v-56h-38v56zM186 -37h37
v-56h-37v56zM279 -130h38v-56h-38v56zM186 -223h37v-56h-37v56zM279 -317h38v-55h-38v55zM186 -410h37v-55h-37v55zM93 1545h37v-56h-37v56zM0 1452h37v-56h-37v56zM93 1359h37v-56h-37v56zM0 1266h37v-56h-37v56zM93 1173h37v-56h-37v56zM0 1080h37v-56h-37v56zM93 987h37
v-56h-37v56zM0 894h37v-56h-37v56zM93 801h37v-56h-37v56zM0 707h37v-55h-37v55zM93 614h37v-55h-37v55zM0 521h37v-56h-37v56zM93 428h37v-56h-37v56zM0 335h37v-56h-37v56zM93 242h37v-56h-37v56zM0 149h37v-56h-37v56zM93 56h37v-56h-37v56zM0 -37h37v-56h-37v56z
M93 -130h37v-56h-37v56zM0 -223h37v-56h-37v56zM93 -317h37v-55h-37v55zM0 -410h37v-55h-37v55z" />
    <glyph glyph-name="mediumshade" unicode="&#x2592;" 
d="M1210 1583h75v-94h-75v94zM1117 1489h75v-93h-75v93zM1210 1396h75v-93h-75v93zM1117 1303h75v-93h-75v93zM1210 1210h75v-93h-75v93zM1117 1117h75v-93h-75v93zM1210 1024h75v-93h-75v93zM1117 931h75v-93h-75v93zM1210 838h75v-93h-75v93zM1117 745h75v-93h-75v93z
M1210 652h75v-93h-75v93zM1117 559h75v-94h-75v94zM1210 465h75v-93h-75v93zM1117 372h75v-93h-75v93zM1210 279h75v-93h-75v93zM1117 186h75v-93h-75v93zM1210 93h75v-93h-75v93zM1117 0h75v-93h-75v93zM1210 -93h75v-93h-75v93zM1117 -186h75v-93h-75v93zM1210 -279h75
v-93h-75v93zM1117 -372h75v-93h-75v93zM1024 1583h74v-94h-74v94zM931 1489h74v-93h-74v93zM1024 1396h74v-93h-74v93zM931 1303h74v-93h-74v93zM1024 1210h74v-93h-74v93zM931 1117h74v-93h-74v93zM1024 1024h74v-93h-74v93zM931 931h74v-93h-74v93zM1024 838h74v-93h-74
v93zM931 745h74v-93h-74v93zM1024 652h74v-93h-74v93zM931 559h74v-94h-74v94zM1024 465h74v-93h-74v93zM931 372h74v-93h-74v93zM1024 279h74v-93h-74v93zM931 186h74v-93h-74v93zM1024 93h74v-93h-74v93zM931 0h74v-93h-74v93zM1024 -93h74v-93h-74v93zM931 -186h74v-93
h-74v93zM1024 -279h74v-93h-74v93zM931 -372h74v-93h-74v93zM838 1583h74v-94h-74v94zM745 1489h74v-93h-74v93zM838 1396h74v-93h-74v93zM745 1303h74v-93h-74v93zM838 1210h74v-93h-74v93zM745 1117h74v-93h-74v93zM838 1024h74v-93h-74v93zM745 931h74v-93h-74v93z
M838 838h74v-93h-74v93zM745 745h74v-93h-74v93zM838 652h74v-93h-74v93zM745 559h74v-94h-74v94zM838 465h74v-93h-74v93zM745 372h74v-93h-74v93zM838 279h74v-93h-74v93zM745 186h74v-93h-74v93zM838 93h74v-93h-74v93zM745 0h74v-93h-74v93zM838 -93h74v-93h-74v93z
M745 -186h74v-93h-74v93zM838 -279h74v-93h-74v93zM745 -372h74v-93h-74v93zM652 1583h74v-94h-74v94zM559 1489h74v-93h-74v93zM652 1396h74v-93h-74v93zM559 1303h74v-93h-74v93zM652 1210h74v-93h-74v93zM559 1117h74v-93h-74v93zM652 1024h74v-93h-74v93zM559 931h74
v-93h-74v93zM652 838h74v-93h-74v93zM559 745h74v-93h-74v93zM652 652h74v-93h-74v93zM559 559h74v-94h-74v94zM652 465h74v-93h-74v93zM559 372h74v-93h-74v93zM652 279h74v-93h-74v93zM559 186h74v-93h-74v93zM652 93h74v-93h-74v93zM559 0h74v-93h-74v93zM652 -93h74v-93
h-74v93zM559 -186h74v-93h-74v93zM652 -279h74v-93h-74v93zM559 -372h74v-93h-74v93zM465 1583h75v-94h-75v94zM372 1489h75v-93h-75v93zM465 1396h75v-93h-75v93zM372 1303h75v-93h-75v93zM465 1210h75v-93h-75v93zM372 1117h75v-93h-75v93zM465 1024h75v-93h-75v93z
M372 931h75v-93h-75v93zM465 838h75v-93h-75v93zM372 745h75v-93h-75v93zM465 652h75v-93h-75v93zM372 559h75v-94h-75v94zM465 465h75v-93h-75v93zM372 372h75v-93h-75v93zM465 279h75v-93h-75v93zM372 186h75v-93h-75v93zM465 93h75v-93h-75v93zM372 0h75v-93h-75v93z
M465 -93h75v-93h-75v93zM372 -186h75v-93h-75v93zM465 -279h75v-93h-75v93zM372 -372h75v-93h-75v93zM279 1583h75v-94h-75v94zM186 1489h75v-93h-75v93zM279 1396h75v-93h-75v93zM186 1303h75v-93h-75v93zM279 1210h75v-93h-75v93zM186 1117h75v-93h-75v93zM279 1024h75
v-93h-75v93zM186 931h75v-93h-75v93zM279 838h75v-93h-75v93zM186 745h75v-93h-75v93zM279 652h75v-93h-75v93zM186 559h75v-94h-75v94zM279 465h75v-93h-75v93zM186 372h75v-93h-75v93zM279 279h75v-93h-75v93zM186 186h75v-93h-75v93zM279 93h75v-93h-75v93zM186 0h75v-93
h-75v93zM279 -93h75v-93h-75v93zM186 -186h75v-93h-75v93zM279 -279h75v-93h-75v93zM186 -372h75v-93h-75v93zM93 1583h75v-94h-75v94zM0 1489h74v-93h-74v93zM93 1396h75v-93h-75v93zM0 1303h74v-93h-74v93zM93 1210h75v-93h-75v93zM0 1117h74v-93h-74v93zM93 1024h75v-93
h-75v93zM0 931h74v-93h-74v93zM93 838h75v-93h-75v93zM0 745h74v-93h-74v93zM93 652h75v-93h-75v93zM0 559h74v-94h-74v94zM93 465h75v-93h-75v93zM0 372h74v-93h-74v93zM93 279h75v-93h-75v93zM0 186h74v-93h-74v93zM93 93h75v-93h-75v93zM0 0h74v-93h-74v93zM93 -93h75
v-93h-75v93zM0 -186h74v-93h-74v93zM93 -279h75v-93h-75v93zM0 -372h74v-93h-74v93z" />
    </font>
</defs>
</svg>
