<?xml version="1.0" standalone="no"?>
<!DOCTYPE svg PUBLIC "-//W3C//DTD SVG 1.1//EN" "http://www.w3.org/Graphics/SVG/1.1/DTD/svg11.dtd" >
<svg xmlns="http://www.w3.org/2000/svg">
<metadata>
Created by FontPrep 20130207 at Mon Aug 15 19:30:17 2016
 By Damien Criado
(c) Copyright The Font Bureau, Inc. 2014. All rights reserved.
</metadata>
<defs>
<font id="dc291c681384136c7ea9ec1ae7770965" horiz-adv-x='1024' >
  <font-face 
    font-family="InputMonoNarrow-Italic"
    font-weight="400"
    font-style="italic"
    font-stretch="semi-condensed"
    units-per-em="2048"
    panose-1="2 0 5 9 2 0 0 9 0 4"
    ascent="1583"
    descent="-465"
    x-height="1117"
    cap-height="1489"
    bbox="-439.486 -838 1694 2607"
    underline-thickness="0"
    underline-position="0"
    slope="-7"
    unicode-range="U+000D-1F41B"
  />
<missing-glyph 
d="M279 -279h674v1675h-674v-1675zM93 -465v2048h1046v-2048h-1046z" />
    <glyph glyph-name=".notdef" 
d="M279 -279h674v1675h-674v-1675zM93 -465v2048h1046v-2048h-1046z" />
    <glyph glyph-name=".null" horiz-adv-x="0" 
 />
    <glyph glyph-name="nonmarkingreturn" unicode="&#xd;" horiz-adv-x="0" 
 />
    <glyph glyph-name="NULL" horiz-adv-x="0" 
 />
    <glyph glyph-name="space" unicode="&#xa0;" 
 />
    <glyph glyph-name="space" unicode=" " 
 />
    <glyph glyph-name="exclam" unicode="!" 
d="M574 350q88 0 124 -39t26 -121l-7 -52q-17 -157 -187 -157q-88 0 -124.5 38.5t-27.5 118.5l7 52q9 82 55 121t134 39zM525 559l61 930h250l-164 -930h-147z" />
    <glyph glyph-name="quotedbl" unicode="&#x22;" 
d="M266 750l39 739h281l-143 -739h-177zM789 750l40 739h281l-144 -739h-177z" />
    <glyph glyph-name="numbersign" unicode="#" 
d="M609 0l65 376h-238l-64 -376h-160l65 376h-223l19 162h230l71 413h-249l18 162h257l64 376h160l-65 -376h238l63 376h160l-65 -376h224l-19 -162h-229l-71 -413h248l-19 -162h-257l-63 -376h-160zM700 538l71 413h-237l-70 -413h236z" />
    <glyph glyph-name="dollar" unicode="$" 
d="M585 -93h-142l22 181q-228 20 -357 126l71 147q132 -103 324 -125l54 440q-205 60 -278 146t-55 240t119.5 241.5t282.5 98.5l22 181h141l-22 -183q202 -20 313 -104l-69 -151q-125 80 -279 95l-52 -425q209 -63 283.5 -148.5t56.5 -236.5t-126 -242t-287 -104z
M777 282.5q68 47.5 78 135.5t-31.5 135.5t-166.5 90.5l-50 -413q102 4 170 51.5zM626 1246q-220 -8 -240 -172q-11 -88 30.5 -135t160.5 -90z" />
    <glyph glyph-name="percent" unicode="%" 
d="M824.5 104q81.5 0 98.5 134l15 119q14 138 -66.5 138t-116.5 -33.5t-44 -104.5l-15 -119q-9 -71 19 -102.5t109.5 -31.5zM776 -41q-123 0 -191.5 69t-50.5 214l13 112q19 145 104.5 215t208.5 70t190 -70t48 -215l-13 -112q-19 -145 -102.5 -214t-206.5 -69zM24 372
l1119 857l75 -108l-1123 -857zM391 990q52 0 87.5 34t44.5 108l13 112q17 137 -66 137t-118 -33.5t-45 -103.5l-13 -112q-9 -74 18 -108t79 -34zM374 847q-123 0 -191 71t-49 218l13 104q17 145 102.5 216t208.5 71t189 -71t49 -216l-13 -104q-19 -147 -102.5 -218
t-206.5 -71z" />
    <glyph glyph-name="ampersand" unicode="&#x26;" 
d="M353 140q135 0 276 145q-97 105 -184 249q-20 39 -40.5 78.5t-35.5 78.5q-133 -119 -159 -319q-12 -99 27 -165.5t116 -66.5zM620 1352q-139 0 -166 -235q-15 -122 19 -251q254 118 274 294q10 88 -24 140t-103 52zM314 -19q-133 0 -214.5 98.5t-61.5 270.5t104.5 280.5
t187.5 168.5q-59 192 -40 350t110.5 258.5t233.5 100.5t215 -91t56 -231t-109 -235.5t-293 -181.5q68 -199 218 -371q107 148 221 395l142 -72q-61 -114 -137 -212t-161 -204l329 -149l-48 -165q-183 60 -345 203q-89 -97 -182 -155t-226 -58z" />
    <glyph glyph-name="quotesingle" unicode="'" 
d="M529 750l37 739h283l-143 -739h-177z" />
    <glyph glyph-name="parenleft" unicode="(" 
d="M821 -391q-268 69 -402.5 316t-86.5 633t242.5 633.5t479.5 316.5l2 -140q-233 -69 -369 -284.5t-174 -525.5t44.5 -526t298.5 -283z" />
    <glyph glyph-name="parenright" unicode=")" 
d="M132 -391l-2 140q236 67 370.5 283t172.5 526t-43 526t-300 284l35 140q270 -69 403 -316.5t86 -632.5t-241 -633t-481 -317z" />
    <glyph glyph-name="asterisk" unicode="*" 
d="M985 559l-302 288l-5 -437h-209l104 435l-370 -286l-84 184l425 208l-375 209l131 184l300 -288l1 433h209l-101 -433l373 288l80 -184l-423 -209l373 -208z" />
    <glyph glyph-name="plus" unicode="+" 
d="M447 76l59 486h-391l23 179h391l59 486h177l-59 -486h389l-23 -179h-389l-59 -486h-177z" />
    <glyph glyph-name="comma" unicode="," 
d="M220 -378l244 741h348l-445 -741h-147z" />
    <glyph glyph-name="hyphen" unicode="&#x2011;" 
d="M115 562l23 179h957l-23 -179h-957z" />
    <glyph glyph-name="hyphen" unicode="&#x2010;" 
d="M115 562l23 179h957l-23 -179h-957z" />
    <glyph glyph-name="hyphen" unicode="&#xad;" 
d="M115 562l23 179h957l-23 -179h-957z" />
    <glyph glyph-name="hyphen" unicode="-" 
d="M115 562l23 179h957l-23 -179h-957z" />
    <glyph glyph-name="period" unicode="." 
d="M524 -19q-87 0 -136 41t-38 131l6 50q11 91 70.5 133t147 42t135 -42t36.5 -133l-6 -50q-11 -89 -69.5 -130.5t-145.5 -41.5z" />
    <glyph glyph-name="slash" unicode="/" 
d="M48 -372l913 1861h177l-913 -1861h-177z" />
    <glyph glyph-name="zero.salt_slash" unicode="&#xe05c;" 
d="M542 143q168 0 243 134t107 390l18 148q31 272 -14 393l-496 -1024q60 -41 142 -41zM691 1346q-168 0 -243.5 -137.5t-106.5 -393.5l-19 -148q-27 -235 2 -350l486 1001q-52 28 -119 28zM524 -19q-239 0 -330.5 177t-52.5 492l23 182q39 317 173 496.5t373 179.5
t329.5 -179.5t51.5 -496.5l-22 -182q-39 -315 -172.5 -492t-372.5 -177z" />
    <glyph glyph-name="zero.salt_slash" unicode="0" 
d="M542 143q168 0 243 134t107 390l18 148q31 272 -14 393l-496 -1024q60 -41 142 -41zM691 1346q-168 0 -243.5 -137.5t-106.5 -393.5l-19 -148q-27 -235 2 -350l486 1001q-52 28 -119 28zM524 -19q-239 0 -330.5 177t-52.5 492l23 182q39 317 173 496.5t373 179.5
t329.5 -179.5t51.5 -496.5l-22 -182q-39 -315 -172.5 -492t-372.5 -177z" />
    <glyph glyph-name="one" unicode="1" 
d="M145 0l21 162h372l136 1110h-48q-65 -102 -165 -149t-215 -28l5 177q127 -13 245 43.5t210 173.5h175l-162 -1327h339l-21 -162h-892z" />
    <glyph glyph-name="two" unicode="2" 
d="M695 1346q-147 0 -210.5 -65t-100.5 -259l-177 19q43 255 157 361t342 106t328 -94t76 -286l-15 -126q-17 -140 -100 -221t-261 -137l-237 -74q-93 -28 -147 -80t-69 -170l-18 -158h746l-20 -162h-928l40 317q20 173 105.5 268t268.5 152l238 75q97 30 145.5 77t59.5 141
l9 78q17 128 -34 183t-198 55z" />
    <glyph glyph-name="three" unicode="3" 
d="M506 -19q-264 0 -344 105.5t-67 315.5l182 19q-6 -169 44 -225t211 -56t234.5 59.5t91.5 204.5l6 50q17 143 -38 200t-213 57h-172l21 162h171q140 0 199.5 45t74.5 156l7 60q15 119 -38.5 167.5t-191.5 48.5t-199 -54t-92 -199l-177 18q37 210 153.5 301.5t322.5 91.5
t316.5 -88.5t86.5 -287.5l-8 -61q-15 -112 -94 -176.5t-204 -73.5l-5 -54q147 -13 211 -102.5t49 -210.5l-5 -50q-24 -199 -146.5 -311t-386.5 -112z" />
    <glyph glyph-name="four" unicode="4" 
d="M1123 393h-205l-49 -393h-180l48 393h-644l21 162l681 934h257l-114 -934h205zM307 555h451l89 730z" />
    <glyph glyph-name="five" unicode="5" 
d="M502 -19q-248 0 -336 89.5t-71 337.5l182 18q-9 -177 40 -230t213 -53t238 64.5t88 190.5l12 92q17 132 -29 194.5t-169 62.5h-484l91 742h827l-19 -162h-646l-50 -409h311q401 0 350 -413l-15 -123q-22 -184 -153.5 -292.5t-379.5 -108.5z" />
    <glyph glyph-name="six" unicode="6" 
d="M540 143q145 0 222.5 73t95.5 227l4 24q19 155 -41 226.5t-205 71.5t-221.5 -71.5t-94.5 -226.5l-4 -24q-19 -155 40 -227.5t204 -72.5zM516 -19q-232 0 -327.5 141.5t-63.5 391.5l57 465q32 259 168 394t353 135t309 -79t105 -260l-201 -43q-9 119 -50.5 169.5
t-185.5 50.5t-218.5 -84.5t-98.5 -282.5l-24 -193h32q54 69 128 106t190 37q209 0 296 -123t63 -318l-5 -41q-28 -227 -161.5 -346.5t-365.5 -119.5z" />
    <glyph glyph-name="seven" unicode="7" 
d="M350 0q155 484 271 743t347 566h-746l22 180h927l-22 -180q-236 -348 -362 -625.5t-240 -683.5h-197z" />
    <glyph glyph-name="eight" unicode="8" 
d="M542 140q158 0 228 57.5t88 204.5l4 32q19 151 -37 208.5t-214.5 57.5t-227 -57.5t-87.5 -208.5l-4 -32q-19 -147 36.5 -204.5t213.5 -57.5zM631.5 864q139.5 0 200 48.5t75.5 171.5l7 50q15 121 -34.5 168.5t-189 47.5t-200 -47.5t-75.5 -168.5l-7 -50
q-15 -123 34.5 -171.5t189 -48.5zM523 -19q-244 0 -342.5 96t-72.5 307l6 40q17 141 98.5 231t210.5 103l7 54q-101 9 -158.5 83.5t-42.5 197.5l7 59q22 186 135 271t339 85t317.5 -84.5t69.5 -271.5l-8 -59q-15 -123 -91 -197.5t-177 -83.5l-7 -54q125 -13 184.5 -103.5
t42.5 -230.5l-6 -40q-26 -210 -147 -306.5t-365 -96.5z" />
    <glyph glyph-name="nine" unicode="9" 
d="M716 1508q232 0 327.5 -141.5t64.5 -390.5l-56 -466q-32 -248 -162 -388.5t-354 -140.5t-316 80t-105 259l202 43q9 -128 56.5 -174t184.5 -46t213 86t100 281l23 194h-32q-105 -144 -315 -144t-298.5 119.5t-64.5 322.5l6 41q28 227 161 346t365 119zM616.5 724
q143.5 0 220.5 72.5t96 225.5l3 24q19 153 -40.5 226.5t-203 73.5t-221.5 -73.5t-97 -226.5l-3 -24q-19 -153 41.5 -225.5t204 -72.5z" />
    <glyph glyph-name="colon" unicode=":" 
d="M524 -19q-85 0 -134 37.5t-40 117.5l9 84q11 82 70 120t144.5 38t134 -38t37.5 -120l-10 -84q-9 -80 -67.5 -117.5t-143.5 -37.5zM615 732q-85 0 -134 37t-40 117l11 84q9 82 68 120t144.5 38t134 -38t39.5 -120l-11 -84q-9 -80 -68 -117t-144 -37z" />
    <glyph glyph-name="semicolon" unicode=";" 
d="M222 -380l242 745h346l-443 -745h-145zM615 732q-85 0 -134 37t-40 117l11 84q9 82 68 120t144.5 38t134 -38t39.5 -120l-11 -84q-9 -80 -68 -117t-144 -37z" />
    <glyph glyph-name="less" unicode="&#x3c;" 
d="M959 39l-793 523l22 179l920 523l-21 -171l-776 -441l668 -442z" />
    <glyph glyph-name="equal" unicode="=" 
d="M86 315l22 180h957l-22 -180h-957zM145 808l23 181h957l-23 -181h-957z" />
    <glyph glyph-name="greater" unicode="&#x3e;" 
d="M102 39l21 171l774 442l-666 441l20 171l793 -523l-22 -179z" />
    <glyph glyph-name="question" unicode="?" 
d="M454 350q129 0 166 -39t28 -121l-8 -52q-18 -157 -190 -157q-87 0 -123.5 38.5t-26.5 118.5l7 52q18 160 147 160zM688 1346q-200 0 -266 -70t-104 -254l-177 19q45 261 168 364t399 103t378 -110.5t79 -289.5l-11 -88q-24 -195 -186.5 -285.5t-505.5 -146.5l-19 146
q305 52 412.5 117t121.5 177l8 57q13 119 -42 190t-255 71z" />
    <glyph glyph-name="at" unicode="@" 
d="M732 354q67 0 109 32.5t55 138.5l26 222q13 97 -22.5 140.5t-97.5 43.5q-133 0 -158 -186l-26 -209q-11 -99 18 -140.5t96 -41.5zM766 1080q101 0 143 -97h48q40 387 -251 387q-173 0 -261 -107t-112 -300l-72 -592q-24 -207 58.5 -321.5t304.5 -114.5q170 0 326 52
l-17 -142q-171 -50 -328 -50q-281 0 -405 154.5t-92 421.5l73 592q32 248 168.5 396.5t363.5 148.5t326 -149t67 -396l-54 -455q-52 -303 -337 -303q-153 0 -215 83t-44 231l30 239q19 145 99 233.5t181 88.5z" />
    <glyph glyph-name="A" unicode="A" 
d="M869 0l-63 434h-460l-171 -434h-182l620 1489h191l255 -1489h-190zM782 594l-99 689l-273 -689h372z" />
    <glyph glyph-name="B" unicode="B" 
d="M588 162q128 0 194.5 57t81.5 181l7 58q15 125 -37 180.5t-181 55.5h-294l-65 -532h294zM640 855q119 0 181 49t75 161l7 50q13 112 -35.5 162t-167.5 50h-262l-60 -472h262zM706 1489q212 0 305 -86.5t71 -263.5l-11 -85q-11 -93 -70 -157.5t-152 -81.5l-7 -54
q112 -11 169.5 -92t40.5 -207l-9 -82q-48 -380 -509 -380h-441l183 1489h430z" />
    <glyph glyph-name="C" unicode="C" 
d="M539 -19q-480 0 -416 524l58 472q68 531 549 531q235 0 335 -121t82 -382l-183 -18q11 205 -44.5 282t-217.5 77t-238.5 -83t-100.5 -284l-60 -476q-22 -192 36.5 -276t217.5 -84t233 76.5t115 275.5l177 -18q-45 -257 -174.5 -376.5t-368.5 -119.5z" />
    <glyph glyph-name="D" unicode="D" 
d="M495 162q168 0 262 97t114 260l54 444q20 166 -49.5 265t-236.5 99h-201l-144 -1165h201zM661 1489q238 0 356.5 -144t88.5 -384l-54 -440q-28 -238 -182.5 -379.5t-392.5 -141.5h-384l183 1489h385z" />
    <glyph glyph-name="E" unicode="E" 
d="M93 0l183 1489h895l-19 -162h-714l-54 -435h629l-21 -162h-629l-69 -568h715l-20 -162h-896z" />
    <glyph glyph-name="F" unicode="F" 
d="M99 0l182 1489h892l-19 -162h-711l-72 -588h592l-21 -160h-592l-71 -579h-180z" />
    <glyph glyph-name="G" unicode="G" 
d="M546 -19q-234 0 -343.5 138t-79.5 386l58 472q32 257 172.5 394t364.5 137t319 -114.5t80 -352.5l-184 -19q9 177 -43 250.5t-199 73.5t-225.5 -83.5t-102.5 -283.5l-60 -476q-24 -194 38.5 -277t224.5 -83t239.5 95t104.5 321h-316l19 160h497l-23 -196
q-34 -261 -170.5 -401.5t-370.5 -140.5z" />
    <glyph glyph-name="H" unicode="H" 
d="M93 0l183 1489h180l-72 -599h502l73 599h180l-182 -1489h-181l90 728h-503l-89 -728h-181z" />
    <glyph glyph-name="I" unicode="I" 
d="M93 0l21 162h342l144 1165h-343l19 162h863l-18 -162h-341l-143 -1165h340l-20 -162h-864z" />
    <glyph glyph-name="J" unicode="J" 
d="M488 -19q-229 0 -326 118.5t-78 375.5l184 20q-13 -210 36.5 -281t197.5 -71t229 80t101 246l106 858h-344l19 162h525l-125 -1018q-30 -238 -163 -364t-362 -126z" />
    <glyph glyph-name="K" unicode="K" 
d="M361 711l-87 -711h-181l183 1489h180l-74 -616h57l592 616h207l-666 -685l478 -804h-212l-414 711h-63z" />
    <glyph glyph-name="L" unicode="L" 
d="M179 0l182 1489h181l-162 -1327h597l-20 -162h-778z" />
    <glyph glyph-name="M" unicode="M" 
d="M486 367l-140 836l-143 -1203h-162l182 1489h235l145 -901l363 901h226l-183 -1489h-162l151 1203l-345 -836h-167z" />
    <glyph glyph-name="N" unicode="N" 
d="M704 0l-294 1266l-155 -1266h-162l183 1489h242l303 -1284l156 1284h162l-182 -1489h-253z" />
    <glyph glyph-name="O" unicode="O" 
d="M541.5 143q154.5 0 229 82t98.5 280l58 472q26 201 -28 285t-208.5 84t-229 -83.5t-100.5 -285.5l-58 -472q-24 -197 30 -279.5t208.5 -82.5zM523 -19q-227 0 -328.5 135t-71.5 390l58 470q34 261 168.5 396.5t360.5 135.5t328.5 -136t69.5 -396l-58 -470
q-30 -255 -165 -390t-362 -135z" />
    <glyph glyph-name="P" unicode="P" 
d="M655 683q136 0 201.5 54t81.5 183l21 171q15 128 -36.5 182t-187.5 54h-297l-81 -644h298zM760 1489q218 0 311 -96.5t68 -295.5l-20 -177q-26 -201 -143.5 -298t-335.5 -97h-301l-65 -525h-181l183 1489h484z" />
    <glyph glyph-name="Q" unicode="Q" 
d="M543.5 155q152.5 0 228 79t97.5 263l60 484q22 190 -32.5 272t-207.5 82t-228.5 -82t-97.5 -272l-60 -484q-22 -184 33 -263t207.5 -79zM711 1508q227 0 328.5 -136t68.5 -396l-58 -473q-26 -210 -122 -339t-254 -168q-13 -143 71 -181t238 -9l7 -160q-249 -54 -383 22.5
t-110 311.5q-214 7 -309 141t-65 382l58 473q34 261 168.5 396.5t361.5 135.5z" />
    <glyph glyph-name="R" unicode="R" 
d="M793 1489q426 0 378 -391l-13 -115q-44 -355 -380 -397l276 -586h-205l-272 581h-233l-70 -581h-181l183 1489h517zM696 737q134 0 199.5 58t81.5 188l13 115q17 123 -35 176t-186 53h-331l-73 -590h331z" />
    <glyph glyph-name="S" unicode="S" 
d="M674 1497q312 0 464 -220l-118 -134q-65 95 -162.5 143.5t-207.5 48.5t-181 -50.5t-83 -154.5t52 -161t280 -130t293.5 -163.5t57.5 -251.5q-26 -210 -179.5 -323.5t-347.5 -113.5q-331 0 -494 222l121 130q138 -190 403 -190q128 0 213.5 65t99.5 174t-47.5 165.5
t-277.5 132.5t-297.5 168t-60.5 267t154.5 275.5t317.5 100.5z" />
    <glyph glyph-name="T" unicode="T" 
d="M436 0l164 1327h-423l18 162h1024l-18 -162h-421l-164 -1327h-180z" />
    <glyph glyph-name="U" unicode="U" 
d="M523 -19q-218 0 -309 129.5t-59 392.5l121 986h180l-121 -990q-24 -195 22.5 -276.5t184.5 -81.5t205 81t91 277l121 990h180l-121 -986q-32 -263 -154.5 -392.5t-340.5 -129.5z" />
    <glyph glyph-name="V" unicode="V" 
d="M624 0h-196l-253 1489h194l190 -1249l495 1249h188z" />
    <glyph glyph-name="W" unicode="W" 
d="M722 0l-87 894l-305 -894h-179l-2 1489h177l-30 -1212l279 840h183l71 -840l269 1212h168l-367 -1489h-177z" />
    <glyph glyph-name="X" unicode="X" 
d="M883 0l-282 601l-432 -601h-206l564 760l-341 729h207l268 -569l408 569h204l-541 -728l353 -761h-202z" />
    <glyph glyph-name="Y" unicode="Y" 
d="M616 0h-180l69 559l-371 930h199l291 -761l460 761h195l-594 -930z" />
    <glyph glyph-name="Z" unicode="Z" 
d="M989 0h-928l21 162l860 1165h-717l19 162h927l-19 -162l-860 -1165h717z" />
    <glyph glyph-name="bracketleft" unicode="[" 
d="M218 -372l229 1861h607l-19 -162h-426l-192 -1560h426l-18 -139h-607z" />
    <glyph glyph-name="backslash" unicode="\" 
d="M732 -372l-455 1861h177l455 -1861h-177z" />
    <glyph glyph-name="bracketright" unicode="]" 
d="M132 -372l19 139h426l192 1560h-426l18 162h607l-229 -1861h-607z" />
    <glyph glyph-name="asciicircum" unicode="^" 
d="M931 372l-248 903l-454 -903h-173l562 1117h181l303 -1117h-171z" />
    <glyph glyph-name="underscore" unicode="_" 
d="M0 -372l22 178h957l-22 -178h-957z" />
    <glyph glyph-name="grave" unicode="`" 
d="M693 750l-296 739h350l95 -739h-149z" />
    <glyph glyph-name="a" unicode="a" 
d="M613 1136q171 0 274 -81t83 -249l-63 -517q-11 -95 35.5 -121.5t150.5 -7.5l-21 -166q-121 -19 -204.5 17.5t-76.5 169.5h-35q-58 -86 -161 -143t-231 -57t-215.5 78.5t-68.5 232.5t119.5 238t230.5 84h337l21 168q9 86 -38.5 138t-157.5 52t-168.5 -38t-105.5 -161
l-150 44q97 319 445 319zM456 477q-175 0 -195 -166q-23 -173 155 -173q197 0 310 154l22 185h-292z" />
    <glyph glyph-name="b" unicode="b" 
d="M527 140q136 0 208.5 62t89.5 196l41 324q28 242 -164 242q-94 0 -173.5 -46.5t-159.5 -141.5l-69 -571q91 -65 227 -65zM765 1136q156 0 230 -108t49 -307l-40 -326q-24 -197 -154 -305.5t-349 -108.5t-393 125l169 1383h179l-67 -545h52q52 91 138 141.5t186 50.5z" />
    <glyph glyph-name="c" unicode="c" 
d="M674 1136q212 0 307 -95t86 -287l-179 -9q7 123 -46.5 176t-183.5 53q-266 0 -295 -253l-41 -332q-34 -246 234 -246q130 0 196.5 44t85.5 148l175 -9q-64 -345 -466 -345q-227 0 -327.5 105.5t-76.5 304.5l39 328q26 205 153 311t339 106z" />
    <glyph glyph-name="d" unicode="d" 
d="M674 1136q118 0 235 -52l50 405h179l-183 -1489h-179l21 173h-52q-52 -91 -137 -141.5t-185 -50.5q-156 0 -230 110t-50 306l41 325q24 195 152.5 304.5t337.5 109.5zM659 977q-136 0 -208.5 -63t-89.5 -195l-39 -326q-29 -240 171 -240q166 0 324 188l71 564
q-93 72 -229 72z" />
    <glyph glyph-name="e" unicode="e" 
d="M582.5 981q-188.5 0 -221.5 -264l-5 -56h502l4 39q19 147 -36 214t-243.5 67zM522 -19q-200 0 -301.5 104.5t-77.5 307.5l39 326q26 209 159.5 313t326.5 104t297 -106.5t76 -325.5l-21 -181h-681l-17 -130q-17 -138 38 -197.5t180 -59.5t184.5 38t100.5 122l165 -52
q-63 -138 -165.5 -200.5t-302.5 -62.5z" />
    <glyph glyph-name="f" unicode="f" 
d="M913 1342q-108 0 -166 -34.5t-67 -112.5l-10 -78h423l-21 -162h-422l-164 -1327h-181l164 1327h-290l20 162h291l9 75q17 149 135 230.5t276 81.5q69 0 141 -15.5t114 -36.5l-52 -152q-92 42 -200 42z" />
    <glyph glyph-name="g" unicode="g" 
d="M678 -246q170 0 186 145q9 74 -28 107t-106 33h-535l-16 -128q-18 -157 154 -157h345zM562.5 570q102.5 0 160 41t68.5 132l8 58q11 89 -37.5 129t-151 40t-160 -40t-68.5 -129l-8 -58q-11 -91 37.5 -132t151 -41zM639 -391h-321q-156 0 -247 66t-75 208q11 89 62.5 142
t135.5 61l3 39q-133 25 -113 186q9 80 64 143.5t165 72.5l4 35q-78 30 -101.5 91.5t-16.5 115.5l6 52q17 128 127.5 212t294.5 84h511l-21 -166l-261 45l-5 -35q65 -20 94 -78t23 -116l-7 -50q-15 -128 -118.5 -207.5t-304.5 -79.5h-203q-47 0 -73 -25t-34 -85
q-15 -117 116 -117h384q145 0 232 -68.5t68 -222.5t-129.5 -228.5t-259.5 -74.5z" />
    <glyph glyph-name="h" unicode="h" 
d="M767 1136q151 0 227.5 -100.5t53.5 -270.5l-93 -765h-179l90 730q15 115 -29.5 174.5t-130.5 59.5q-172 0 -337 -184l-95 -780h-179l182 1489h179l-67 -545h52q47 88 134.5 140t191.5 52z" />
    <glyph glyph-name="i.salt_serifs" unicode="&#xe023;" 
d="M637 162h370l-20 -162h-551l117 955h-372l20 162h553zM686 1322q-66 0 -105 23t-30 89t53 90t111 23q67 0 106 -24t30 -90q-9 -67 -54 -89t-111 -22z" />
    <glyph glyph-name="i.salt_serifs" unicode="i" 
d="M637 162h370l-20 -162h-551l117 955h-372l20 162h553zM686 1322q-66 0 -105 23t-30 89t53 90t111 23q67 0 106 -24t30 -90q-9 -67 -54 -89t-111 -22z" />
    <glyph glyph-name="j" unicode="j" 
d="M327 -212q252 0 280 225l115 942h-476l20 162h657l-139 -1128q-22 -192 -155 -284t-295 -92t-282 41l56 175q103 -41 219 -41zM850 1324q-66 0 -105 23t-30 89t53 90t111 23q67 0 106 -24t30 -90q-9 -67 -54 -89t-111 -22z" />
    <glyph glyph-name="k" unicode="k" 
d="M419 510l-63 -510h-181l182 1489h181l-100 -826h85l382 454h216l-466 -519l322 -598h-204l-268 510h-86z" />
    <glyph glyph-name="l.salt_serifs_round" unicode="&#xe056;" 
d="M990 34q-92 -43 -235 -43q-142 0 -220.5 95t-57.5 262l121 979h-371l19 162h551l-140 -1146q-26 -188 144 -188q101 0 175 35z" />
    <glyph glyph-name="l.salt_serifs_round" unicode="l" 
d="M990 34q-92 -43 -235 -43q-142 0 -220.5 95t-57.5 262l121 979h-371l19 162h551l-140 -1146q-26 -188 144 -188q101 0 175 35z" />
    <glyph glyph-name="m" unicode="m" 
d="M752 974q88 162 238 162q76 0 114.5 -73t23.5 -201l-106 -862h-164l103 836q18 160 -58 160q-35 0 -87.5 -49.5t-109.5 -138.5l-99 -808h-164l103 836q18 160 -60 160q-72 0 -196 -188l-98 -808h-164l138 1117h164l-19 -143h35q39 76 97 119t117 43q136 0 155 -162h37z
" />
    <glyph glyph-name="n" unicode="n" 
d="M769 1136q151 0 226.5 -100t52.5 -273l-93 -763h-179l90 728q15 117 -29.5 176.5t-130.5 59.5q-170 0 -337 -186l-95 -778h-179l138 1117h178l-22 -173h52q52 89 139.5 140.5t188.5 51.5z" />
    <glyph glyph-name="o" unicode="o" 
d="M541.5 143q126.5 0 196.5 60t87 188l39 328q33 255 -218.5 255t-284.5 -255l-39 -328q-17 -128 38 -188t181.5 -60zM523.5 -19q-206.5 0 -305.5 106.5t-75 303.5l39 328q26 199 151 308t332 109t305.5 -109t72.5 -308l-39 -326q-24 -199 -149 -305.5t-331.5 -106.5z" />
    <glyph glyph-name="p" unicode="p" 
d="M514 -19q-118 0 -237 53l-50 -406h-179l185 1489h178l-22 -173h52q52 89 139 140.5t185 51.5q155 0 228.5 -111t50.5 -304l-40 -326q-24 -192 -154.5 -303t-335.5 -111zM702 964q-94 0 -172 -45.5t-161 -142.5l-69 -564q99 -72 232 -72t204.5 62t88.5 196l41 328
q29 238 -164 238z" />
    <glyph glyph-name="q" unicode="q" 
d="M888 912q-96 65 -221 65t-207 -64t-99 -194l-37 -308q-30 -258 169 -258q166 0 324 188zM423 -19q-158 0 -231 108t-49 308l41 325q24 199 162 306.5t350 107.5t386 -110l-173 -1398h-179l67 545h-52q-56 -93 -140 -142.5t-182 -49.5z" />
    <glyph glyph-name="r" unicode="r" 
d="M836 1136q117 0 183 -81t48 -230l-21 -172h-171l13 107q13 106 -22.5 155t-119.5 49q-166 0 -292 -173l-97 -791h-180l138 1117h180l-22 -179h50q93 198 313 198z" />
    <glyph glyph-name="s" unicode="s" 
d="M609 974q-89 0 -155.5 -35.5t-76.5 -118.5t48.5 -118t241.5 -65t269 -108t69 -216q-20 -168 -156.5 -250t-288.5 -82q-304 0 -480 159l95 143q74 -65 175.5 -102.5t203.5 -37.5t181 31.5t89 119.5t-50 122t-242 64t-268.5 104t-67.5 228t143.5 239t266.5 85
q262 0 444 -160l-93 -144q-165 142 -348 142z" />
    <glyph glyph-name="t" unicode="t" 
d="M730 155q128 0 233 37l14 -166q-131 -43 -290 -43q-158 0 -244 93t-63 272l74 607h-286l20 162h287l44 372h181l-45 -372h440l-21 -162h-439l-73 -588q-26 -212 168 -212z" />
    <glyph glyph-name="u" unicode="u" 
d="M421 -19q-149 0 -226.5 102.5t-56.5 270.5l95 763h178l-89 -730q-30 -234 168 -234q163 0 327 184l97 780h179l-138 -1117h-179l21 173h-52q-43 -86 -132.5 -139t-191.5 -53z" />
    <glyph glyph-name="v" unicode="v" 
d="M639 0h-228l-223 1117h194l164 -966l402 966h188z" />
    <glyph glyph-name="w" unicode="w" 
d="M674 0l-60 730l-232 -730h-200l-54 1117h172l5 -974l231 790h201l51 -760l238 944h171l-329 -1117h-194z" />
    <glyph glyph-name="x" unicode="x" 
d="M776 0l-210 419l-300 -419h-199l428 560l-277 557h201l199 -402l302 402h199l-428 -547l285 -570h-200z" />
    <glyph glyph-name="y" unicode="y" 
d="M225 -223q171 0 257 219h-74l-222 1121h196l165 -966l403 966h188l-511 -1156q-80 -186 -192.5 -265.5t-252.5 -79.5q-66 0 -171 21l50 162q89 -22 164 -22z" />
    <glyph glyph-name="z" unicode="z" 
d="M923 0h-796l20 162l682 793h-585l20 162h797l-20 -162l-676 -793h579z" />
    <glyph glyph-name="braceleft" unicode="{" 
d="M823 -391q-367 -7 -520.5 70t-133.5 239q11 93 53 156.5t90 110.5t87.5 88.5t45.5 87.5q11 88 -71 124t-301 42l13 108q222 6 312 41t101 121q6 47 -58.5 113.5t-95 133t-19.5 161.5q20 156 192.5 233.5t537.5 69.5l-19 -162q-285 6 -403 -33.5t-129 -128.5
q-6 -43 16.5 -83t72.5 -95.5t70.5 -102.5t15.5 -104q-26 -202 -365 -216v-10q166 -19 243 -78t64 -167q-7 -52 -41 -96t-97 -99t-94 -97t-38 -97q-11 -95 97 -136t394 -36z" />
    <glyph glyph-name="bar" unicode="|" 
d="M398 -372l229 1861h161l-229 -1861h-161z" />
    <glyph glyph-name="braceright" unicode="}" 
d="M877 583q-334 14 -309 216q6 58 39 104.5t97 102.5t95 95.5t37 82.5q11 89 -98 128.5t-394 33.5l19 162q369 7 522.5 -70t132.5 -233q-11 -95 -52.5 -154t-87.5 -100t-85 -74.5t-45 -79.5q-11 -86 70 -121.5t303 -40.5l-13 -108q-223 -6 -312.5 -42t-101.5 -124
q-6 -47 23.5 -87.5t65.5 -88.5t63 -111t16 -156q-20 -162 -192.5 -239t-539.5 -70l21 158q283 -6 402 35.5t130 136.5q7 56 -14 97.5t-71 96.5t-72.5 99t-15.5 96q25 209 367 245v10z" />
    <glyph glyph-name="asciitilde" unicode="~" 
d="M810 402q-108 0 -165 60t-97 208t-68 195t-76 47q-105 0 -132 -210l-34 -281h-158l35 292q22 177 112.5 275.5t198.5 98.5t163 -58.5t95 -208.5t67 -197.5t75 -47.5t84 51.5t49 166.5l35 278h158l-37 -291q-20 -179 -108.5 -278.5t-196.5 -99.5z" />
    <glyph glyph-name="exclamdown" unicode="&#xa1;" 
d="M715 931l-63 -931h-250l166 931h147zM521 1352q18 156 189 156q87 0 124 -38t28 -118l-6 -52q-22 -161 -150.5 -161t-164.5 39.5t-25 121.5z" />
    <glyph glyph-name="cent" unicode="&#xa2;" 
d="M460 -93l32 264q-197 17 -273 128.5t-51 309.5l35 279q22 194 125.5 303.5t304.5 126.5l32 265h139l-31 -263q177 -13 250.5 -111.5t63.5 -286.5l-169 -12q9 134 -33.5 188t-149.5 60l-100 -827q108 4 162 52.5t78 176.5l166 -11q-34 -184 -131.5 -275.5t-278.5 -104.5
l-31 -262h-140zM344 588q-15 -123 30 -183.5t155 -73.5l100 827q-112 -9 -171.5 -70.5t-75.5 -186.5z" />
    <glyph glyph-name="sterling" unicode="&#xa3;" 
d="M694 156q86 0 130 56t73 205l175 -19q-35 -205 -140 -311t-262 -106q-58 0 -111.5 28.5t-114.5 62.5t-105.5 44.5t-94.5 -21.5l-170 -112l-81 134l152 92q65 41 147 178.5t28 333.5h-236l18 165h151q-38 99 -20 229q20 177 141.5 285t331.5 108t306 -97.5t81 -308.5
l-183 -18q7 151 -42 206.5t-180 55.5t-195.5 -57.5t-75.5 -151.5t2 -148t32 -103h340l-18 -165h-263q57 -300 -186 -472l17 -29q52 32 94.5 29t88.5 -23t84 -45t86 -25z" />
    <glyph glyph-name="currency" unicode="&#xa4;" 
d="M691.5 1322q176.5 0 258.5 -104l165 156l95 -115l-195 -188q9 -81 0 -166l-41 -328q-13 -97 -39 -158l149 -188l-123 -116l-125 155q-114 -102 -291.5 -102t-259.5 100l-168 -162l-95 116l196 191q-10 87 0 164l41 328q12 94 43 171l-151 192l123 115l126 -164
q115 103 291.5 103zM566 330q101 0 157.5 57.5t73.5 189.5l41 328q29 255 -172 255t-230 -255l-41 -328q-17 -132 26.5 -189.5t144.5 -57.5z" />
    <glyph glyph-name="yen" unicode="&#xa5;" 
d="M979 186h-340l-23 -186h-180l22 186h-343l21 166h342l27 207h-343l20 165h256l-310 765h196l287 -802l482 802h192l-494 -765h255l-20 -165h-341l-26 -207h341z" />
    <glyph glyph-name="brokenbar" unicode="&#xa6;" 
d="M398 -372l94 744h160l-93 -744h-161zM536 745l91 744h161l-92 -744h-160z" />
    <glyph glyph-name="section" unicode="&#xa7;" 
d="M510 -385q-123 0 -231 45.5t-180 129.5l102 145q78 -80 156.5 -119t176.5 -39t174 40t88 145t-71 156t-213 83q-194 41 -285 116.5t-75 203.5t86.5 195.5t169.5 97.5q-101 50 -148.5 127t-32.5 195q22 186 156.5 273.5t280.5 87.5q280 0 433 -175l-105 -145
q-78 80 -155 119t-177.5 39t-174.5 -45.5t-85 -129.5q-13 -115 70 -166.5t245 -87.5t252.5 -111.5t73.5 -221.5q-15 -112 -86 -178.5t-169 -96.5q208 -101 180 -322q-22 -181 -149.5 -271t-306.5 -90zM389 434.5q63 -38.5 121 -51.5t74.5 -17.5t31.5 -8.5q86 2 156.5 45.5
t82.5 139.5t-49 134.5t-127 52.5t-98 25q-86 -2 -158.5 -45.5t-84.5 -139.5t51 -134.5z" />
    <glyph glyph-name="dieresis" unicode="&#xa8;" 
d="M883 1324q-51 0 -80 22t-19 89q9 67 43 91q33 24 85 23q52 0 82 -24t19 -97q-12 -104 -130 -104zM489 1324q-51 0 -81 23t-21 89t43 90t88 23q52 0 80 -23t18 -91t-43 -90q-33 -21 -84 -21z" />
    <glyph glyph-name="copyright" unicode="&#xa9;" 
d="M361 849q0 339 260 339q133 0 189 -79t67 -243l-147 -11q-7 112 -28 149t-76 37t-81 -41t-26 -136v-350q0 -95 27 -136t82 -41t74.5 32.5t27.5 138.5l147 -11q-11 -160 -67 -233.5t-190 -73.5q-259 0 -259 342v317zM616.5 -88q238.5 0 338 142.5t99.5 435.5v389
q0 292 -99.5 439t-338 147t-338 -147t-99.5 -439v-387q0 -292 99.5 -436t338 -144zM616 -205q-294 0 -429 178t-135 505v414q0 331 136 511t430 180t428 -180t134 -511v-414q0 -328 -135 -505.5t-429 -177.5z" />
    <glyph glyph-name="ordfeminine" unicode="&#xaa;" 
d="M454 601q-106 0 -179.5 60.5t-59.5 180.5t98 185.5t190 65.5h273l15 113q7 73 -28 120.5t-122.5 47.5t-137 -28t-88.5 -128l-130 39q39 123 125.5 187t235.5 64t233.5 -70t68.5 -213l-45 -361q-11 -84 22.5 -103.5t126.5 -6.5l-19 -143q-106 -7 -170 20.5t-57 141.5h-30
q-48 -73 -132 -122.5t-190 -49.5zM531 972q-144 0 -160 -116q-12 -119 136 -119q149 0 241 131l13 104h-230z" />
    <glyph glyph-name="guillemotleft" unicode="&#xab;" 
d="M516 192l-402 370l22 175l491 371l-20 -170l-384 -288l313 -289zM1033 192l-402 370l22 175l492 371l-20 -170l-384 -288l313 -289z" />
    <glyph glyph-name="logicalnot" unicode="&#xac;" 
d="M829 0l68 562h-782l23 179h957l-91 -741h-175z" />
    <glyph glyph-name="registered" unicode="&#xae;" 
d="M832 1011q0 -136 -111 -173l124 -233h-134l-113 220h-69v-220h-119v661h225q95 0 146 -53t51 -150v-52zM713 1063q0 97 -80 97h-104v-227h104q39 0 59.5 16.5t20.5 61.5v52zM616 361q199 0 285 106t86 319v283q0 214 -86 323t-285 109t-284.5 -109t-85.5 -323v-283
q0 -212 85.5 -318.5t284.5 -106.5zM616.5 259q-251.5 0 -366 138.5t-114.5 369.5v322q0 233 114.5 372.5t365.5 139.5t366 -139.5t115 -372.5v-322q0 -231 -114.5 -369.5t-366 -138.5z" />
    <glyph glyph-name="macron" unicode="&#x2c9;" 
d="M354 1409l20 161h689l-20 -161h-689z" />
    <glyph glyph-name="macron" unicode="&#xaf;" 
d="M354 1409l20 161h689l-20 -161h-689z" />
    <glyph glyph-name="degree" unicode="&#xb0;" 
d="M616 1342q-177 0 -177 -178v-187q0 -93 44.5 -133t132.5 -40t132.5 40t44.5 133v187q0 178 -177 178zM616.5 648q-154.5 0 -249.5 82t-95 249v183q0 171 95 255t250 84t249.5 -84t94.5 -255v-183q0 -168 -95 -249.5t-249.5 -81.5z" />
    <glyph glyph-name="plusminus" unicode="&#xb1;" 
d="M447 263l59 485h-391l23 179h391l59 486h177l-59 -486h389l-23 -179h-389l-59 -485h-177zM115 0l23 179h957l-23 -179h-957z" />
    <glyph glyph-name="two.sups" unicode="&#xb2;" 
d="M694.5 1374q-102.5 0 -140.5 -40t-55 -135l-160 13q26 145 109 217t263 72t248.5 -68t53.5 -184l-8 -65q-25 -193 -223 -233l-214 -46q-54 -11 -89.5 -39t-44.5 -106l-8 -62h531l-17 -132h-691l25 192q28 228 232 273l215 47q61 13 91 42t37 86l4 38q7 58 -24.5 94
t-134 36z" />
    <glyph glyph-name="three.sups" unicode="&#xb3;" 
d="M586 555q-182 0 -252.5 68t-63.5 202l162 11q-2 -84 28 -118.5t144 -34.5t156 36.5t50 101.5l4 30q9 69 -23.5 102.5t-138.5 33.5h-149l16 130h149q88 0 125 20.5t45 81.5l5 40q7 63 -36.5 88t-126.5 25t-122.5 -30.5t-52.5 -101.5l-161 11q24 134 109 192t241 58
t241 -51.5t70 -181.5l-3 -30q-9 -74 -59.5 -116t-121.5 -50l-4 -33q78 -7 123 -60.5t36 -135.5l-4 -26q-17 -134 -110.5 -198t-275.5 -64z" />
    <glyph glyph-name="acute" unicode="&#xb4;" 
d="M488 1303l277 373h265l-382 -373h-160z" />
    <glyph glyph-name="mu1" unicode="&#xb5;" 
d="M436 -19q-108 0 -168 90l-5 -34l-34 -409h-214l67 409l134 1080h181l-94 -756q-15 -112 37 -160t129 -48q137 0 257 141l103 823h180l-102 -825q-11 -98 26 -124t126 -8l-20 -166q-254 -40 -246 194h-35q-54 -89 -134 -148t-188 -59z" />
    <glyph glyph-name="paragraph" unicode="&#xb6;" 
d="M611 1489h534l-229 -1861h-181l125 1005h-171l-125 -1005h-180l124 1005q-162 0 -267 88.5t-81 278.5l11 97q24 197 151 294.5t289 97.5z" />
    <glyph glyph-name="periodcentered" unicode="&#x2219;" 
d="M593 544q-87 0 -136 41.5t-38 131.5l5 46q11 91 71 134t147.5 43t135 -42.5t36.5 -134.5l-6 -46q-11 -89 -69.5 -131t-145.5 -42z" />
    <glyph glyph-name="periodcentered" unicode="&#xb7;" 
d="M593 544q-87 0 -136 41.5t-38 131.5l5 46q11 91 71 134t147.5 43t135 -42.5t36.5 -134.5l-6 -46q-11 -89 -69.5 -131t-145.5 -42z" />
    <glyph glyph-name="cedilla" unicode="&#xb8;" 
d="M414 -400q-106 0 -175 43q-68 44 -62 150l162 19q-5 -35 17 -49t73 -14t80 23q29 24 37 88t-8 94t-65 46l45 78q84 -16 142 -74t45 -175q-14 -117 -100 -173q-85 -56 -191 -56z" />
    <glyph glyph-name="one.sups" unicode="&#xb9;" 
d="M335 566l17 132h233l72 598h-26q-28 -74 -95 -119t-143 -47l5 136q88 4 170 59.5t117 163.5h157l-97 -791h212l-17 -132h-605z" />
    <glyph glyph-name="ordmasculine" unicode="&#xba;" 
d="M616 741q108 0 167 45.5t72 151.5l28 224q13 106 -34.5 155.5t-209.5 49.5t-187 -205l-28 -224q-13 -106 35.5 -151.5t156.5 -45.5zM600 601q-168 0 -259.5 85t-70.5 252l28 224q20 171 131 258.5t280.5 87.5t259 -87.5t68.5 -258.5l-28 -224q-20 -168 -130.5 -252.5
t-278.5 -84.5z" />
    <glyph glyph-name="guillemotright" unicode="&#xbb;" 
d="M585 194l20 169l385 289l-314 288l20 170l402 -371l-22 -175zM67 194l21 169l385 289l-315 288l21 170l404 -371l-23 -175z" />
    <glyph glyph-name="onequarter" unicode="&#xbc;" 
d="M298 -86h296l46 367zM897 -212h-158l-22 -179h-160l22 179h-436l15 126l449 488h208l-61 -488h158zM665 503l13 110l525 37l-23 -185zM-15 465l22 185l539 -37l-14 -110zM326 763l17 134h232l51 410h-26q-26 -73 -94 -119q-69 -47 -145 -47l8 136q147 7 208.5 89
t75.5 135h159l-75 -604h213l-17 -134h-607z" />
    <glyph glyph-name="onehalf" unicode="&#xbd;" 
d="M311 331q86 64 262 64t248 -56t62 -160l-8 -64q-11 -80 -71 -134q-56 -41 -149 -63l-214 -46q-64 -13 -94 -36t-38 -95h531l-17 -132h-691l19 155q26 194 229 234l214 47q59 13 89 32t34 59l4 37q17 93 -163 93q-98 0 -129 -23t-42 -48.5t-20 -66.5l-160 13
q28 139 104 190zM665 503l13 110l525 37l-23 -185zM-15 465l22 185l539 -37l-14 -110zM326 763l17 134h232l51 410h-26q-26 -73 -94 -119q-69 -47 -145 -47l8 136q144 7 205 87.5t79 136.5h159l-75 -604h213l-17 -134h-607z" />
    <glyph glyph-name="threequarters" unicode="&#xbe;" 
d="M298 -86h296l46 367zM897 -212h-158l-22 -179h-160l22 179h-436l15 126l449 488h208l-61 -488h158zM665 503l13 110l525 37l-23 -185zM-15 465l22 185l539 -37l-14 -110zM613 752q-187 0 -259 58q-70 53 -64 175l162 11q-4 -65 30 -89t142 -24q109 0 160 20q39 22 43 60
l3 29q8 40 -29 60q-40 19 -144 19h-95l15 132h95q95 1 123 13t38 29t14 42l4 39q6 45 -58.5 50t-125 5t-107.5 -20q-38 -21 -50 -73l-160 12q31 165 150.5 188.5t240.5 23.5t195 -37q87 -40 77 -140l-4 -30q-8 -68 -58 -102q-43 -37 -121 -45l-3 -33q76 -8 112 -35
q61 -46 53 -105l-3 -26q-18 -159 -151 -183t-225 -24z" />
    <glyph glyph-name="questiondown" unicode="&#xbf;" 
d="M544 143q200 0 267.5 70t102.5 254l179 -18q-47 -261 -169.5 -364.5t-399.5 -103.5t-378 111t-79 290l11 87q24 195 187 285.5t506 146.5l18 -145q-305 -52 -412 -117.5t-122 -176.5l-6 -58q-15 -121 40 -191t255 -70zM694.5 1139q-130.5 0 -108.5 161l6 52
q18 156 191 156q87 0 123 -38t27 -118l-6 -52q-11 -82 -56.5 -121.5t-176 -39.5z" />
    <glyph glyph-name="Agrave" unicode="&#xc0;" 
d="M869 0l-63 434h-460l-171 -434h-182l620 1489h191l255 -1489h-190zM782 594l-99 689l-273 -689h372zM728 1676l-290 372h266l182 -372h-158z" />
    <glyph glyph-name="Aacute" unicode="&#xc1;" 
d="M869 0l-63 434h-460l-171 -434h-182l620 1489h191l255 -1489h-190zM782 594l-99 689l-273 -689h372zM531 1676l277 372h264l-381 -372h-160z" />
    <glyph glyph-name="Acircumflex" unicode="&#xc2;" 
d="M869 0l-63 434h-460l-171 -434h-182l620 1489h191l255 -1489h-190zM782 594l-99 689l-273 -689h372zM432 1691l-60 111l337 276h131l273 -276l-85 -111l-274 212z" />
    <glyph glyph-name="Atilde" unicode="&#xc3;" 
d="M869 0l-63 434h-460l-171 -434h-182l620 1489h191l255 -1489h-190zM782 594l-99 689l-273 -689h372zM866 1694q-63 0 -99 34q-35 34 -60 74t-47 75q-22 33 -54 33q-33 0 -60 -38t-36 -139l-4 -20h-137l3 28q17 140 88 232t180 92q70 0 106 -34q36 -35 61 -75t43 -74
t47 -33q83 0 103 197h136l-2 -28q-18 -140 -88 -232t-180 -92z" />
    <glyph glyph-name="Adieresis" unicode="&#xc4;" 
d="M869 0l-63 434h-460l-171 -434h-182l620 1489h191l255 -1489h-190zM782 594l-99 689l-273 -689h372zM955 1921q52 0 82 -24t19 -97q-12 -104 -130 -104q-51 0 -80 22t-19 89q9 67 42 91q34 23 86 23zM531 1696q-51 0 -81 22t-20 89t44 91t86 23q52 0 81 -24t20 -90
q-9 -67 -44 -89t-86 -22z" />
    <glyph glyph-name="Aring" unicode="&#xc5;" 
d="M869 0l-63 434h-460l-171 -434h-182l620 1489h191l255 -1489h-190zM782 594l-99 689l-273 -689h372zM897 1918l8 59q18 145 -122 145t-157 -145l-8 -59q-17 -140 122 -140q140 0 157 140zM724 1650q-124 0 -192 65t-52 203l8 59q17 140 101 207q85 67 210 67t193 -67
t51 -207l-8 -59q-17 -138 -101 -203t-210 -65z" />
    <glyph glyph-name="AE" unicode="&#xc6;" 
d="M594 434h-346l-168 -434h-151l592 1489h766l-17 -143h-404l-60 -475h387l-16 -141h-388l-72 -587h404l-17 -143h-564zM600 1346l-298 -771h309l95 771h-106z" />
    <glyph glyph-name="Ccedilla" unicode="&#xc7;" 
d="M726 1508q240 0 340 -121t81 -382l-183 -18q11 205 -44 282q-56 77 -218 77t-238 -83t-101 -284l-60 -476q-22 -192 37 -276q60 -84 218 -84q158 1 232 77t115 275l177 -18q-45 -257 -174 -376q-86 -80 -221 -106q49 -57 35 -170t-98 -169q-86 -56 -192 -56t-174 44
t-63 149l162 19q-5 -35 17 -49t74 -14t80 23q29 24 37 88t-4 87t-29 34q-473 6 -409 524l58 472q69 531 545 531z" />
    <glyph glyph-name="Egrave" unicode="&#xc8;" 
d="M93 0l183 1489h895l-19 -162h-714l-54 -435h629l-21 -162h-629l-69 -568h715l-20 -162h-896zM745 1676l-291 372h267l182 -372h-158z" />
    <glyph glyph-name="Eacute" unicode="&#xc9;" 
d="M93 0l183 1489h895l-19 -162h-714l-54 -435h629l-21 -162h-629l-69 -568h715l-20 -162h-896zM581 1676l277 372h265l-382 -372h-160z" />
    <glyph glyph-name="Ecircumflex" unicode="&#xca;" 
d="M93 0l183 1489h895l-19 -162h-714l-54 -435h629l-21 -162h-629l-69 -568h715l-20 -162h-896zM464 1691l-60 111l337 276h130l274 -276l-86 -111l-273 212z" />
    <glyph glyph-name="Edieresis" unicode="&#xcb;" 
d="M93 0l183 1489h895l-19 -162h-714l-54 -435h629l-21 -162h-629l-69 -568h715l-20 -162h-896zM958 1696q-51 0 -80 23t-20 89t43 90t86 23q52 0 81 -23t19 -91t-44 -90q-34 -21 -85 -21zM563 1696q-51 0 -81 22t-20 89q9 67 43 91q35 24 87 23q52 0 81 -24t20 -90
q-9 -67 -44 -89t-86 -22z" />
    <glyph glyph-name="Igrave" unicode="&#xcc;" 
d="M93 0l21 162h342l144 1165h-343l19 162h863l-18 -162h-341l-143 -1165h340l-20 -162h-864zM726 1676l-290 372h266l182 -372h-158z" />
    <glyph glyph-name="Iacute" unicode="&#xcd;" 
d="M93 0l21 162h342l144 1165h-343l19 162h863l-18 -162h-341l-143 -1165h340l-20 -162h-864zM529 1676l277 372h265l-382 -372h-160z" />
    <glyph glyph-name="Icircumflex" unicode="&#xce;" 
d="M93 0l21 162h342l144 1165h-343l19 162h863l-18 -162h-341l-143 -1165h340l-20 -162h-864zM430 1691l-59 111l336 276h131l274 -276l-86 -111l-274 212z" />
    <glyph glyph-name="Idieresis" unicode="&#xcf;" 
d="M93 0l21 162h342l144 1165h-343l19 162h863l-18 -162h-341l-143 -1165h340l-20 -162h-864zM954 1921q52 0 81 -24q30 -24 19 -97q-12 -104 -130 -104q-51 0 -80 22t-19 89q9 67 43 91t86 23zM530 1696q-51 0 -81 23t-21 89q10 66 44 90t86 23q52 0 81 -23q28 -23 18 -91
t-43 -90q-33 -21 -84 -21z" />
    <glyph glyph-name="Eth" unicode="&#xd0;" 
d="M495 162q168 0 262 97t114 260l54 444q20 166 -49.5 265t-236.5 99h-201l-54 -426h251l-19 -164h-251l-71 -575h201zM661 1489q238 0 356.5 -144t88.5 -384l-54 -440q-28 -238 -182.5 -379.5t-392.5 -141.5h-384l91 737h-165l18 164h166l73 588h385z" />
    <glyph glyph-name="Ntilde" unicode="&#xd1;" 
d="M704 0l-294 1266l-155 -1266h-162l183 1489h242l303 -1284l156 1284h162l-182 -1489h-253zM896 1694q-63 0 -99 34q-35 34 -61 74t-46 75q-21 33 -54 33t-60 -38t-36 -139l-4 -20h-138l4 28q17 140 88 232t180 92q69 0 105 -34q35 -35 61 -75t44 -74t47 -33q83 0 103 197
h135l-1 -28q-18 -140 -88 -232t-180 -92z" />
    <glyph glyph-name="Ograve" unicode="&#xd2;" 
d="M542 143q155 0 229 82t98 280l58 472q26 201 -28 285q-55 84 -209 84t-228 -84t-101 -285l-58 -472q-24 -197 30 -279t209 -83zM523 -19q-227 0 -328 135t-72 390l58 470q35 260 169 396t360 136t328 -136t70 -396l-58 -470q-30 -255 -165 -390t-362 -135zM726 1676
l-290 372h266l182 -372h-158z" />
    <glyph glyph-name="Oacute" unicode="&#xd3;" 
d="M542 143q155 0 229 82t98 280l58 472q26 201 -28 285q-55 84 -209 84t-228 -84t-101 -285l-58 -472q-24 -197 30 -279t209 -83zM523 -19q-227 0 -328 135t-72 390l58 470q35 260 169 396t360 136t328 -136t70 -396l-58 -470q-30 -255 -165 -390t-362 -135zM596 1676
l277 372h265l-382 -372h-160z" />
    <glyph glyph-name="Ocircumflex" unicode="&#xd4;" 
d="M542 143q155 0 229 82t98 280l58 472q26 201 -28 285q-55 84 -209 84t-228 -84t-101 -285l-58 -472q-24 -197 30 -279t209 -83zM523 -19q-227 0 -328 135t-72 390l58 470q35 260 169 396t360 136t328 -136t70 -396l-58 -470q-30 -255 -165 -390t-362 -135zM430 1691
l-59 111l336 276h131l274 -276l-86 -111l-274 212z" />
    <glyph glyph-name="Otilde" unicode="&#xd5;" 
d="M542 143q155 0 229 82t98 280l58 472q26 201 -28 285q-55 84 -209 84t-228 -84t-101 -285l-58 -472q-24 -197 30 -279t209 -83zM523 -19q-227 0 -328 135t-72 390l58 470q35 260 169 396t360 136t328 -136t70 -396l-58 -470q-30 -255 -165 -390t-362 -135zM864 1694
q-63 0 -99 34q-35 34 -60 74t-47 75q-22 33 -54 33q-79 -1 -96 -177l-3 -20h-138l4 28q17 140 87 232q71 92 181 92q69 0 105 -34q36 -35 61 -75t43 -74t48 -33q82 0 102 197h136l-2 -28q-19 -141 -88 -233q-70 -91 -180 -91z" />
    <glyph glyph-name="Odieresis" unicode="&#xd6;" 
d="M542 143q155 0 229 82t98 280l58 472q26 201 -28 285q-55 84 -209 84t-228 -84t-101 -285l-58 -472q-24 -197 30 -279t209 -83zM523 -19q-227 0 -328 135t-72 390l58 470q35 260 169 396t360 136t328 -136t70 -396l-58 -470q-30 -255 -165 -390t-362 -135zM954 1921
q52 0 81 -24q30 -24 19 -97q-12 -104 -130 -104q-51 0 -80 22t-19 89q9 67 43 91t86 23zM530 1696q-51 0 -81 23t-21 89q10 66 44 90t86 23q52 0 81 -23q28 -23 18 -91t-43 -90q-33 -21 -84 -21z" />
    <glyph glyph-name="multiply" unicode="&#xd7;" 
d="M175 93l-102 108l420 451l-309 450l129 108l305 -445l415 436l103 -108l-419 -441l311 -442l-129 -108l-309 436z" />
    <glyph glyph-name="Oslash" unicode="&#xd8;" 
d="M711 1508q94 0 164 -22l95 190h175l-136 -270q135 -135 99 -429l-58 -472q-30 -253 -166 -388.5t-361 -135.5q-112 0 -192 34l-98 -201h-175l143 292q-109 126 -78 399l58 472q32 257 167.5 394t362.5 137zM542 143q156 0 230.5 82t98.5 278l60 476q19 186 -19 263
l-519 -1071q60 -28 149 -28zM691 1346q-156 0 -231 -83.5t-99 -283.5l-59 -476q-19 -147 5 -222l508 1048q-63 17 -124 17z" />
    <glyph glyph-name="Ugrave" unicode="&#xd9;" 
d="M523 -19q-218 -1 -309 129t-59 393l121 986h180l-121 -990q-24 -195 22 -277q47 -81 185 -81t205 81t91 277l121 990h180l-121 -986q-32 -263 -154 -393t-341 -129zM726 1676l-290 372h266l182 -372h-158z" />
    <glyph glyph-name="Uacute" unicode="&#xda;" 
d="M523 -19q-218 -1 -309 129t-59 393l121 986h180l-121 -990q-24 -195 22 -277q47 -81 185 -81t205 81t91 277l121 990h180l-121 -986q-32 -263 -154 -393t-341 -129zM529 1676l277 372h265l-382 -372h-160z" />
    <glyph glyph-name="Ucircumflex" unicode="&#xdb;" 
d="M523 -19q-218 -1 -309 129t-59 393l121 986h180l-121 -990q-24 -195 22 -277q47 -81 185 -81t205 81t91 277l121 990h180l-121 -986q-32 -263 -154 -393t-341 -129zM430 1691l-59 111l336 276h131l274 -276l-86 -111l-274 212z" />
    <glyph glyph-name="Udieresis" unicode="&#xdc;" 
d="M523 -19q-218 -1 -309 129t-59 393l121 986h180l-121 -990q-24 -195 22 -277q47 -81 185 -81t205 81t91 277l121 990h180l-121 -986q-32 -263 -154 -393t-341 -129zM954 1921q52 0 81 -24q30 -24 19 -97q-12 -104 -130 -104q-51 0 -80 22t-19 89q9 67 43 91t86 23z
M530 1696q-51 0 -81 23t-21 89q10 66 44 90t86 23q52 0 81 -23q28 -23 18 -91t-43 -90q-33 -21 -84 -21z" />
    <glyph glyph-name="Yacute" unicode="&#xdd;" 
d="M616 0h-180l69 559l-371 930h199l291 -761l460 761h195l-594 -930zM529 1676l277 372h265l-382 -372h-160z" />
    <glyph glyph-name="Thorn" unicode="&#xde;" 
d="M626 439q138 0 202 56t81 190l20 171q17 123 -34.5 176t-188.5 53h-298l-80 -646h298zM730 1246q210 0 307 -100t73 -293l-21 -164q-24 -199 -146 -303.5t-332 -104.5h-302l-35 -281h-181l183 1489h180l-30 -243h304z" />
    <glyph glyph-name="germandbls" unicode="&#xdf;" 
d="M614.5 1335q-106.5 0 -191 -67t-101.5 -212l-177 -1428h-180l178 1452q26 209 167.5 316.5t333.5 107.5t299 -117t83 -307l-9 -84q-171 0 -274 -37t-114 -127t48.5 -120t183.5 -60t205.5 -98t61.5 -234t-143 -248.5t-279 -82.5q-106 0 -200.5 42t-153.5 122l112 145
q123 -143 275 -143q80 0 140.5 34t70.5 118t-36 120.5t-168 64.5t-220 89t-78 215t133 240.5t270 91.5q0 110 -65 158.5t-171.5 48.5z" />
    <glyph glyph-name="agrave" unicode="&#xe0;" 
d="M613 1136q171 0 274 -81t83 -249l-63 -517q-11 -95 35 -121t151 -8l-21 -166q-120 -18 -204 18t-77 169h-35q-58 -86 -160 -143t-232 -57q-128 1 -216 79t-68 232q19 154 119 238q101 85 231 84h337l21 168q10 86 -38 138t-158 52t-168 -38t-106 -161l-150 44
q97 319 445 319zM456 477q-175 0 -195 -166q-23 -173 155 -173q196 0 310 154l22 185h-292zM652 1303l-291 373h266l183 -373h-158z" />
    <glyph glyph-name="aacute" unicode="&#xe1;" 
d="M613 1136q171 0 274 -81t83 -249l-63 -517q-11 -95 35 -121t151 -8l-21 -166q-120 -18 -204 18t-77 169h-35q-58 -86 -160 -143t-232 -57q-128 1 -216 79t-68 232q19 154 119 238q101 85 231 84h337l21 168q10 86 -38 138t-158 52t-168 -38t-106 -161l-150 44
q97 319 445 319zM456 477q-175 0 -195 -166q-23 -173 155 -173q196 0 310 154l22 185h-292zM454 1303l278 373h264l-382 -373h-160z" />
    <glyph glyph-name="acircumflex" unicode="&#xe2;" 
d="M613 1136q171 0 274 -81t83 -249l-63 -517q-11 -95 35 -121t151 -8l-21 -166q-120 -18 -204 18t-77 169h-35q-58 -86 -160 -143t-232 -57q-128 1 -216 79t-68 232q19 154 119 238q101 85 231 84h337l21 168q10 86 -38 138t-158 52t-168 -38t-106 -161l-150 44
q97 319 445 319zM456 477q-175 0 -195 -166q-23 -173 155 -173q196 0 310 154l22 185h-292zM372 1318l-59 112l337 275h130l274 -275l-86 -112l-274 212z" />
    <glyph glyph-name="atilde" unicode="&#xe3;" 
d="M613 1136q171 0 274 -81t83 -249l-63 -517q-11 -95 35 -121t151 -8l-21 -166q-120 -18 -204 18t-77 169h-35q-58 -86 -160 -143t-232 -57q-128 1 -216 79t-68 232q19 154 119 238q101 85 231 84h337l21 168q10 86 -38 138t-158 52t-168 -38t-106 -161l-150 44
q97 319 445 319zM456 477q-175 0 -195 -166q-23 -173 155 -173q196 0 310 154l22 185h-292zM789 1322q-63 0 -98 34t-62 74q-24 40 -45 74t-54 34t-60 -38t-36 -139l-4 -20h-138l4 27q17 140 88 232t180 92q69 0 111 -39t99 -143q18 -34 50 -34q75 0 98 177l1 21h136l-1 -28
q-19 -140 -89 -232t-180 -92z" />
    <glyph glyph-name="adieresis" unicode="&#xe4;" 
d="M613 1136q171 0 274 -81t83 -249l-63 -517q-11 -95 35 -121t151 -8l-21 -166q-120 -18 -204 18t-77 169h-35q-58 -86 -160 -143t-232 -57q-128 1 -216 79t-68 232q19 154 119 238q101 85 231 84h337l21 168q10 86 -38 138t-158 52t-168 -38t-106 -161l-150 44
q97 319 445 319zM456 477q-175 0 -195 -166q-23 -173 155 -173q196 0 310 154l22 185h-292zM850 1324q-51 0 -80 23t-20 89t43 90t86 23q52 0 81 -23t19 -91t-44 -90q-34 -21 -85 -21zM455 1324q-51 0 -81 22t-20 89q9 67 43 91q35 24 87 23q52 0 81 -24t20 -90
q-9 -67 -44 -89t-86 -22z" />
    <glyph glyph-name="aring" unicode="&#xe5;" 
d="M613 1136q171 0 274 -81t83 -249l-63 -517q-11 -95 35 -121t151 -8l-21 -166q-120 -18 -204 18t-77 169h-35q-58 -86 -160 -143t-232 -57q-128 1 -216 79t-68 232q19 154 119 238q101 85 231 84h337l21 168q10 86 -38 138t-158 52t-168 -38t-106 -161l-150 44
q97 319 445 319zM456 477q-175 0 -195 -166q-23 -173 155 -173q196 0 310 154l22 185h-292zM665 1406q69 0 108 32t48 107l8 60q18 145 -122 145q-139 0 -158 -145l-7 -60q-9 -74 22 -107q32 -32 101 -32zM648 1277q-125 0 -193 65t-51 203l7 60q17 140 102 207t209 67
t193 -67q68 -67 51 -207l-7 -60q-17 -138 -101 -203t-210 -65z" />
    <glyph glyph-name="ae" unicode="&#xe6;" 
d="M357 495q-159 1 -181 -177q-24 -199 100 -199q64 0 113 38.5t97 101.5l30 236h-159zM881 1000q-159 0 -188 -227l-17 -133h316l15 116q15 128 -16.5 186t-109.5 58zM892 1136q148 0 223 -91.5t50 -283.5l-27 -238h-475l-24 -186q-15 -117 18.5 -169.5t113.5 -52.5
t118 34.5t64 131.5l155 -13q-37 -147 -116.5 -217t-218.5 -70q-203 0 -246 168h-28q-48 -74 -111.5 -121t-159.5 -47t-165 78.5t-50 232.5t110 238t201 84h207l18 164q13 97 -19 155.5t-106 58.5t-107.5 -33.5t-76.5 -146.5l-136 44q43 138 123 209t226 71t202 -125
q89 125 237 125z" />
    <glyph glyph-name="ccedilla" unicode="&#xe7;" 
d="M412 -400q-106 0 -175 43q-68 44 -62 150l162 19q-5 -35 17 -49t73 -14t80 23q29 24 37 88t-4 87q-13 23 -30 35q-198 8 -294 109t-73 300l39 328q26 205 153 311t339 106t307 -95t86 -287l-179 -9q7 123 -46 176q-54 53 -184 53q-266 0 -295 -253l-41 -332
q-33 -246 242 -246q123 0 189 44t85 148l175 -9q-54 -290 -343 -335q45 -57 32 -168t-99 -167q-85 -56 -191 -56z" />
    <glyph glyph-name="egrave" unicode="&#xe8;" 
d="M646 981q-252 0 -285 -264l-5 -56h502l4 39q19 147 -36 214t-180 67zM990 244q-63 -138 -166 -200q-102 -62 -302 -62t-301 104t-78 307l39 326q26 209 160 313t326 104t296 -106t77 -326l-21 -181h-681l-17 -130q-17 -138 38 -198q55 -59 180 -59q124 0 184 38t101 122z
M687 1303l-290 373h266l182 -373h-158z" />
    <glyph glyph-name="eacute" unicode="&#xe9;" 
d="M646 981q-252 0 -285 -264l-5 -56h502l4 39q19 147 -36 214t-180 67zM990 244q-63 -138 -166 -200q-102 -62 -302 -62t-301 104t-78 307l39 326q26 209 160 313t326 104t296 -106t77 -326l-21 -181h-681l-17 -130q-17 -138 38 -198q55 -59 180 -59q124 0 184 38t101 122z
M492 1303l277 373h264l-381 -373h-160z" />
    <glyph glyph-name="ecircumflex" unicode="&#xea;" 
d="M646 981q-252 0 -285 -264l-5 -56h502l4 39q19 147 -36 214t-180 67zM990 244q-63 -138 -166 -200q-102 -62 -302 -62t-301 104t-78 307l39 326q26 209 160 313t326 104t296 -106t77 -326l-21 -181h-681l-17 -130q-17 -138 38 -198q55 -59 180 -59q124 0 184 38t101 122z
M391 1318l-60 112l337 275h131l273 -275l-85 -112l-274 212z" />
    <glyph glyph-name="edieresis" unicode="&#xeb;" 
d="M646 981q-252 0 -285 -264l-5 -56h502l4 39q19 147 -36 214t-180 67zM990 244q-63 -138 -166 -200q-102 -62 -302 -62t-301 104t-78 307l39 326q26 209 160 313t326 104t296 -106t77 -326l-21 -181h-681l-17 -130q-17 -138 38 -198q55 -59 180 -59q124 0 184 38t101 122z
M885 1324q-51 0 -80 22t-19 89q9 67 43 91q33 24 85 23q52 0 82 -24t19 -97q-12 -104 -130 -104zM519 1549q53 0 81 -23t18 -91t-43 -90q-33 -21 -84 -21t-81 23t-21 89t43 90t87 23z" />
    <glyph glyph-name="igrave.salt_serifs" unicode="&#xe025;" 
d="M637 162h370l-20 -162h-551l117 955h-372l20 162h553zM644 1303l-290 373h266l182 -373h-158z" />
    <glyph glyph-name="igrave.salt_serifs" unicode="&#xec;" 
d="M637 162h370l-20 -162h-551l117 955h-372l20 162h553zM644 1303l-290 373h266l182 -373h-158z" />
    <glyph glyph-name="iacute.salt_serifs" unicode="&#xe026;" 
d="M637 162h370l-20 -162h-551l117 955h-372l20 162h553zM447 1303l277 373h265l-382 -373h-160z" />
    <glyph glyph-name="iacute.salt_serifs" unicode="&#xed;" 
d="M637 162h370l-20 -162h-551l117 955h-372l20 162h553zM447 1303l277 373h265l-382 -373h-160z" />
    <glyph glyph-name="icircumflex.salt_serifs" unicode="&#xe027;" 
d="M637 162h370l-20 -162h-551l117 955h-372l20 162h553zM348 1318l-59 112l337 275h130l274 -275l-86 -112l-274 212z" />
    <glyph glyph-name="icircumflex.salt_serifs" unicode="&#xee;" 
d="M637 162h370l-20 -162h-551l117 955h-372l20 162h553zM348 1318l-59 112l337 275h130l274 -275l-86 -112l-274 212z" />
    <glyph glyph-name="idieresis.salt_serifs" unicode="&#xe028;" 
d="M637 162h370l-20 -162h-551l117 955h-372l20 162h553zM872 1549q52 0 81 -24q30 -24 19 -97q-12 -104 -130 -104q-51 0 -80 22t-19 89q9 67 43 91t86 23zM448 1324q-51 0 -81 23t-21 89q10 66 44 90t86 23q52 0 81 -23q28 -23 18 -91t-43 -90q-33 -21 -84 -21z" />
    <glyph glyph-name="idieresis.salt_serifs" unicode="&#xef;" 
d="M637 162h370l-20 -162h-551l117 955h-372l20 162h553zM872 1549q52 0 81 -24q30 -24 19 -97q-12 -104 -130 -104q-51 0 -80 22t-19 89q9 67 43 91t86 23zM448 1324q-51 0 -81 23t-21 89q10 66 44 90t86 23q52 0 81 -23q28 -23 18 -91t-43 -90q-33 -21 -84 -21z" />
    <glyph glyph-name="eth" unicode="&#xf0;" 
d="M544 143q136 0 201 64.5t80 192.5l17 129q15 119 -34.5 178.5t-185.5 59.5t-200.5 -59.5t-78.5 -178.5l-17 -129q-15 -128 33.5 -192.5t184.5 -64.5zM523.5 -19q-193.5 0 -300 104.5t-80.5 316.5l17 149q22 175 142.5 277.5t293.5 102.5q106 0 171 -41t84 -97h37
q15 243 -67 374l-348 -160l19 145l242 114q-101 87 -285 140l69 123q242 -74 368 -192l330 151l-17 -146l-229 -106q117 -194 73 -532l-36 -291q-28 -225 -159 -328.5t-324.5 -103.5z" />
    <glyph glyph-name="ntilde" unicode="&#xf1;" 
d="M769 1136q151 0 226 -100t53 -273l-93 -763h-179l90 728q15 117 -29 177q-45 59 -131 59q-174 -1 -337 -186l-95 -778h-179l138 1117h178l-22 -173h52q52 88 140 140t188 52zM858 1322q-63 0 -98 34t-62 74q-24 40 -45 74t-54 34t-60 -38t-36 -139l-4 -20h-138l4 27
q17 140 87 232q71 92 181 92q69 0 113 -41t96 -141q18 -34 50 -34q75 0 98 177l2 21h136l-2 -28q-19 -141 -88 -233q-70 -91 -180 -91z" />
    <glyph glyph-name="ograve" unicode="&#xf2;" 
d="M542 143q126 0 196 60t87 188l39 328q33 253 -220 255q-126 0 -196 -62t-87 -193l-39 -328q-17 -128 38 -188t182 -60zM523 -19q-207 1 -305 107t-75 303l39 328q26 199 151 308t332 109t305 -109t73 -308l-39 -326q-24 -199 -149 -305t-332 -107zM685 1303l-290 373h266
l182 -373h-158z" />
    <glyph glyph-name="oacute" unicode="&#xf3;" 
d="M542 143q126 0 196 60t87 188l39 328q33 253 -220 255q-126 0 -196 -62t-87 -193l-39 -328q-17 -128 38 -188t182 -60zM523 -19q-207 1 -305 107t-75 303l39 328q26 199 151 308t332 109t305 -109t73 -308l-39 -326q-24 -199 -149 -305t-332 -107zM488 1303l277 373h265
l-382 -373h-160z" />
    <glyph glyph-name="ocircumflex" unicode="&#xf4;" 
d="M542 143q126 0 196 60t87 188l39 328q33 253 -220 255q-126 0 -196 -62t-87 -193l-39 -328q-17 -128 38 -188t182 -60zM523 -19q-207 1 -305 107t-75 303l39 328q26 199 151 308t332 109t305 -109t73 -308l-39 -326q-24 -199 -149 -305t-332 -107zM389 1318l-59 112
l337 275h130l274 -275l-86 -112l-274 212z" />
    <glyph glyph-name="otilde" unicode="&#xf5;" 
d="M542 143q126 0 196 60t87 188l39 328q33 253 -220 255q-126 0 -196 -62t-87 -193l-39 -328q-17 -128 38 -188t182 -60zM523 -19q-207 1 -305 107t-75 303l39 328q26 199 151 308t332 109t305 -109t73 -308l-39 -326q-24 -199 -149 -305t-332 -107zM823 1322q-63 0 -99 33
q-35 34 -61 75q-23 40 -45 74t-55 34q-78 0 -96 -177l-3 -20h-138l4 27q17 140 87 232q71 92 181 92q69 0 110 -38t99 -144q18 -34 50 -34q75 0 98 177l2 21h136l-2 -28q-19 -141 -88 -233q-70 -91 -180 -91z" />
    <glyph glyph-name="odieresis" unicode="&#xf6;" 
d="M542 143q126 0 196 60t87 188l39 328q33 253 -220 255q-126 0 -196 -62t-87 -193l-39 -328q-17 -128 38 -188t182 -60zM523 -19q-207 1 -305 107t-75 303l39 328q26 199 151 308t332 109t305 -109t73 -308l-39 -326q-24 -199 -149 -305t-332 -107zM883 1324q-51 0 -80 22
t-19 89q9 67 43 91q33 24 85 23q52 0 82 -24t19 -97q-12 -104 -130 -104zM489 1324q-51 0 -81 23t-21 89t43 90t88 23q52 0 80 -23t18 -91t-43 -90q-33 -21 -84 -21z" />
    <glyph glyph-name="divide" unicode="&#xf7;" 
d="M530.5 50q-65.5 0 -103.5 29t-30 89l3 31q7 61 53 91t111 30t102.5 -29.5t29.5 -91.5l-3 -31q-7 -60 -52 -89t-110.5 -29zM115 560l23 183h957l-23 -183h-957zM646 981q-65 0 -103 29t-33 88l6 32q7 61 52.5 91t111 30t102.5 -29.5t30 -91.5l-6 -32q-6 -60 -50.5 -88.5
t-109.5 -28.5z" />
    <glyph glyph-name="oslash" unicode="&#xf8;" 
d="M667 1136q93 0 162 -23l111 190h173l-154 -262q113 -113 85 -322l-39 -328q-26 -209 -157 -309.5t-325 -100.5q-82 0 -166 23l-109 -190h-174l155 260q-114 105 -88 317l40 328q26 210 159 313.5t327 103.5zM544 145q130 0 198 59t85 187l39 328q13 98 -19 162l-415 -721
q47 -15 112 -15zM644 972q-130 0 -199 -60.5t-86 -192.5l-39 -328q-13 -96 19 -160l417 726q-47 15 -112 15z" />
    <glyph glyph-name="ugrave" unicode="&#xf9;" 
d="M421 -19q-149 1 -226 103t-57 270l95 763h178l-89 -730q-30 -236 168 -234q163 0 327 184l97 780h179l-138 -1117h-179l21 173h-52q-43 -86 -133 -139t-191 -53zM637 1303l-291 373h267l182 -373h-158z" />
    <glyph glyph-name="uacute" unicode="&#xfa;" 
d="M421 -19q-149 1 -226 103t-57 270l95 763h178l-89 -730q-30 -236 168 -234q163 0 327 184l97 780h179l-138 -1117h-179l21 173h-52q-43 -86 -133 -139t-191 -53zM557 1303l277 373h264l-381 -373h-160z" />
    <glyph glyph-name="ucircumflex" unicode="&#xfb;" 
d="M421 -19q-149 1 -226 103t-57 270l95 763h178l-89 -730q-30 -236 168 -234q163 0 327 184l97 780h179l-138 -1117h-179l21 173h-52q-43 -86 -133 -139t-191 -53zM391 1318l-60 112l337 275h131l273 -275l-85 -112l-274 212z" />
    <glyph glyph-name="udieresis" unicode="&#xfc;" 
d="M421 -19q-149 1 -226 103t-57 270l95 763h178l-89 -730q-30 -236 168 -234q163 0 327 184l97 780h179l-138 -1117h-179l21 173h-52q-43 -86 -133 -139t-191 -53zM885 1324q-51 0 -80 22t-19 89q9 67 43 91q33 24 85 23q52 0 82 -24t19 -97q-12 -104 -130 -104zM519 1549
q53 0 81 -23t18 -91t-43 -90q-33 -21 -84 -21t-81 23t-21 89t43 90t87 23z" />
    <glyph glyph-name="yacute" unicode="&#xfd;" 
d="M182 -384q-66 0 -171 21l50 162q97 -24 168 -23q168 2 253 220h-74l-222 1121h196l165 -966l403 966h188l-511 -1156q-81 -185 -193 -265t-252 -80zM488 1303l277 373h265l-382 -373h-160z" />
    <glyph glyph-name="thorn" unicode="&#xfe;" 
d="M514 -19q-129 0 -237 53l-50 -406h-179l229 1861h179l-67 -545h52q52 91 139 141.5t185 50.5q155 0 228.5 -111t50.5 -304l-40 -326q-24 -194 -154.5 -304t-335.5 -110zM533 140q132 0 203.5 62t88.5 196l41 328q30 238 -162 238q-96 0 -174.5 -45.5t-160.5 -142.5
l-69 -564q101 -72 233 -72z" />
    <glyph glyph-name="ydieresis" unicode="&#xff;" 
d="M182 -384q-66 0 -171 21l50 162q97 -24 168 -23q168 2 253 220h-74l-222 1121h196l165 -966l403 966h188l-511 -1156q-81 -185 -193 -265t-252 -80zM883 1324q-51 0 -80 22t-19 89q9 67 43 91q33 24 85 23q52 0 82 -24t19 -97q-12 -104 -130 -104zM489 1324q-51 0 -81 23
t-21 89t43 90t88 23q52 0 80 -23t18 -91t-43 -90q-33 -21 -84 -21z" />
    <glyph glyph-name="Amacron" unicode="&#x100;" 
d="M869 0l-63 434h-460l-171 -434h-182l620 1489h191l255 -1489h-190zM782 594l-99 689l-273 -689h372zM397 1782l20 160h689l-21 -160h-688z" />
    <glyph glyph-name="amacron" unicode="&#x101;" 
d="M613 1136q171 0 274 -81t83 -249l-63 -517q-11 -95 35 -121t151 -8l-21 -166q-120 -18 -204 18t-77 169h-35q-58 -86 -160 -143t-232 -57q-128 1 -216 79t-68 232q19 154 119 238q101 85 231 84h337l21 168q10 86 -38 138t-158 52t-168 -38t-106 -161l-150 44
q97 319 445 319zM456 477q-175 0 -195 -166q-23 -173 155 -173q196 0 310 154l22 185h-292zM320 1409l21 161h689l-21 -161h-689z" />
    <glyph glyph-name="Abreve" unicode="&#x102;" 
d="M869 0l-63 434h-460l-171 -434h-182l620 1489h191l255 -1489h-190zM782 594l-99 689l-273 -689h372zM726 1663q-176 0 -276 91t-76 296h177q-15 -134 33 -189t161 -55q112 0 173 55t80 189h177q-28 -205 -151 -296t-298 -91z" />
    <glyph glyph-name="abreve" unicode="&#x103;" 
d="M613 1136q171 0 274 -81t83 -249l-63 -517q-11 -95 35 -121t151 -8l-21 -166q-120 -18 -204 18t-77 169h-35q-58 -86 -160 -143t-232 -57q-128 1 -216 79t-68 232q19 154 119 238q101 85 231 84h337l21 168q10 86 -38 138t-158 52t-168 -38t-106 -161l-150 44
q97 319 445 319zM456 477q-175 0 -195 -166q-23 -173 155 -173q196 0 310 154l22 185h-292zM650 1290q-175 0 -276 91t-76 296h177q-15 -135 33 -189t160 -54t174 55q61 55 80 188h176q-28 -205 -150 -296t-298 -91z" />
    <glyph glyph-name="Aogonek" unicode="&#x104;" 
d="M782 594l-99 689l-273 -689h372zM753 -340q-68 60 -56 154q16 130 166 229l-57 391h-460l-171 -434h-182l620 1489h191l255 -1489h-130q-57 -57 -65 -119q-14 -116 110 -116q70 0 154 19l-20 -166q-95 -18 -191 -18t-164 60z" />
    <glyph glyph-name="aogonek" unicode="&#x105;" 
d="M613 1136q171 0 274 -81t83 -249l-63 -517q-11 -95 35 -121t151 -8l-21 -166q-99 -15 -172 7q-58 -55 -66 -118q-14 -118 110 -118q70 0 154 19l-20 -166q-104 -20 -177 -18q-110 0 -178 60t-56 154q16 129 161 225q-43 45 -37 142h-35q-58 -86 -160 -143t-232 -57
q-128 1 -216 79t-68 232q19 154 119 238q101 85 231 84h337l21 168q10 86 -38 138t-158 52t-168 -38t-106 -161l-150 44q97 319 445 319zM456 477q-175 0 -195 -166q-23 -173 155 -173q196 0 310 154l22 185h-292z" />
    <glyph glyph-name="Cacute" unicode="&#x106;" 
d="M539 -19q-480 0 -416 524l58 472q34 264 169 398q136 133 376 133t340 -121t81 -382l-183 -18q11 205 -44 282q-56 77 -218 77t-238 -83t-101 -284l-60 -476q-22 -192 37 -276q60 -84 218 -84q158 1 232 77t115 275l177 -18q-44 -257 -174 -377t-369 -119zM613 1676
l277 372h264l-381 -372h-160z" />
    <glyph glyph-name="cacute" unicode="&#x107;" 
d="M674 1136q212 0 307 -95t86 -287l-179 -9q7 123 -46 176q-54 53 -184 53q-266 0 -295 -253l-41 -332q-33 -246 242 -246q123 0 189 44t85 148l175 -9q-64 -345 -466 -345q-227 -1 -327 105t-77 305l39 328q26 205 153 311t339 106zM503 1303l277 373h264l-381 -373h-160z
" />
    <glyph glyph-name="Ccircumflex" unicode="&#x108;" 
d="M539 -19q-480 0 -416 524l58 472q34 264 169 398q136 133 376 133t340 -121t81 -382l-183 -18q11 205 -44 282q-56 77 -218 77t-238 -83t-101 -284l-60 -476q-22 -192 37 -276q60 -84 218 -84q158 1 232 77t115 275l177 -18q-44 -257 -174 -377t-369 -119zM449 1691
l-60 111l337 276h130l274 -276l-86 -111l-273 212z" />
    <glyph glyph-name="ccircumflex" unicode="&#x109;" 
d="M674 1136q212 0 307 -95t86 -287l-179 -9q7 123 -46 176q-54 53 -184 53q-266 0 -295 -253l-41 -332q-33 -246 242 -246q123 0 189 44t85 148l175 -9q-64 -345 -466 -345q-227 -1 -327 105t-77 305l39 328q26 205 153 311t339 106zM415 1318l-59 112l337 275h130
l274 -275l-86 -112l-274 212z" />
    <glyph glyph-name="Cdotaccent" unicode="&#x10a;" 
d="M539 -19q-480 0 -416 524l58 472q34 264 169 398q136 133 376 133t340 -121t81 -382l-183 -18q11 205 -44 282q-56 77 -218 77t-238 -83t-101 -284l-60 -476q-22 -192 37 -276q60 -84 218 -84q158 1 232 77t115 275l177 -18q-44 -257 -174 -377t-369 -119zM746 1696
q-66 0 -105 22t-30 89t53 91t111 23q67 0 105 -23t31 -90t-53 -89q-46 -23 -112 -23z" />
    <glyph glyph-name="cdotaccent" unicode="&#x10b;" 
d="M674 1136q212 0 307 -95t86 -287l-179 -9q7 123 -46 176q-54 53 -184 53q-266 0 -295 -253l-41 -332q-33 -246 242 -246q123 0 189 44t85 148l175 -9q-64 -345 -466 -345q-227 -1 -327 105t-77 305l39 328q26 205 153 311t339 106zM697 1324q-66 0 -105 23t-30 89t53 90
t111 23q67 0 106 -24t30 -90q-9 -67 -54 -89t-111 -22z" />
    <glyph glyph-name="Ccaron" unicode="&#x10c;" 
d="M539 -19q-480 0 -416 524l58 472q34 264 169 398q136 133 376 133t340 -121t81 -382l-183 -18q11 205 -44 282q-56 77 -218 77t-238 -83t-101 -284l-60 -476q-22 -192 37 -276q60 -84 218 -84q158 1 232 77t115 275l177 -18q-44 -257 -174 -377t-369 -119zM681 1683
l-271 276l85 111l274 -210l322 210l60 -111l-339 -276h-131z" />
    <glyph glyph-name="ccaron" unicode="&#x10d;" 
d="M674 1136q212 0 307 -95t86 -287l-179 -9q7 123 -46 176q-54 53 -184 53q-266 0 -295 -253l-41 -332q-33 -246 242 -246q123 0 189 44t85 148l175 -9q-64 -345 -466 -345q-227 -1 -327 105t-77 305l39 328q26 205 153 311t339 106zM633 1311l-272 275l86 112l274 -210
l322 210l59 -112l-339 -275h-130z" />
    <glyph glyph-name="Dcaron" unicode="&#x10e;" 
d="M495 162q168 0 262 97t114 260l54 444q21 165 -49 265t-237 99h-201l-144 -1165h201zM661 1489q238 0 356 -144t89 -384l-54 -440q-28 -237 -183 -379t-392 -142h-384l183 1489h385zM663 1683l-272 276l86 111l273 -210l322 210l60 -111l-339 -276h-130z" />
    <glyph glyph-name="dcaron" unicode="&#x10f;" 
d="M674 1136q118 0 235 -52l50 405h179l-183 -1489h-179l21 173h-52q-52 -91 -137 -141t-185 -51q-156 0 -230 110t-50 306l41 325q24 194 152 304t338 110zM888 905q-96 74 -230 73q-136 -1 -208 -64t-89 -195l-39 -326q-29 -240 171 -240q166 0 324 188zM1231 1313
l203 549h260l-335 -549h-128z" />
    <glyph glyph-name="Dcroat" unicode="&#x110;" 
d="M495 162q168 0 262 97t114 260l54 444q20 166 -49.5 265t-236.5 99h-201l-54 -426h251l-19 -164h-251l-71 -575h201zM661 1489q238 0 356.5 -144t88.5 -384l-54 -440q-28 -238 -182.5 -379.5t-392.5 -141.5h-384l91 737h-165l18 164h166l73 588h385z" />
    <glyph glyph-name="dcroat" unicode="&#x111;" 
d="M663 1044q117 0 234 -54l25 187h-339l17 147h338l21 165h179l-21 -165h171l-16 -147h-172l-145 -1177h-179l21 173h-52q-52 -91 -138 -141.5t-184 -50.5q-155 0 -229.5 111t-50.5 305l30 234q22 194 153.5 303.5t336.5 109.5zM486 153q94 0 172.5 46.5t158.5 141.5
l60 473q-99 72 -232 72t-203.5 -63t-87.5 -196l-26 -216q-33 -258 158 -258z" />
    <glyph glyph-name="Emacron" unicode="&#x112;" 
d="M93 0l183 1489h895l-19 -162h-714l-54 -435h629l-21 -162h-629l-69 -568h715l-20 -162h-896zM428 1782l21 160h689l-21 -160h-689z" />
    <glyph glyph-name="emacron" unicode="&#x113;" 
d="M646 981q-252 0 -285 -264l-5 -56h502l4 39q19 147 -36 214t-180 67zM990 244q-63 -138 -166 -200q-102 -62 -302 -62t-301 104t-78 307l39 326q26 209 160 313t326 104t296 -106t77 -326l-21 -181h-681l-17 -130q-17 -138 38 -198q55 -59 180 -59q124 0 184 38t101 122z
M356 1409l20 161h689l-21 -161h-688z" />
    <glyph glyph-name="Ebreve" unicode="&#x114;" 
d="M93 0l183 1489h895l-19 -162h-714l-54 -435h629l-21 -162h-629l-69 -568h715l-20 -162h-896zM758 1663q-175 0 -276 91t-76 296h177q-15 -134 33 -189t160 -55t174 55q61 55 80 189h176q-28 -205 -150 -296t-298 -91z" />
    <glyph glyph-name="ebreve" unicode="&#x115;" 
d="M646 981q-252 0 -285 -264l-5 -56h502l4 39q19 147 -36 214t-180 67zM990 244q-63 -138 -166 -200q-102 -62 -302 -62t-301 104t-78 307l39 326q26 209 160 313t326 104t296 -106t77 -326l-21 -181h-681l-17 -130q-17 -138 38 -198q55 -59 180 -59q124 0 184 38t101 122z
M685 1290q-175 0 -275 91t-77 296h177q-14 -135 34 -189t160 -54t173 55t80 188h177q-28 -205 -151 -296t-298 -91z" />
    <glyph glyph-name="Edotaccent" unicode="&#x116;" 
d="M93 0l183 1489h895l-19 -162h-714l-54 -435h629l-21 -162h-629l-69 -568h715l-20 -162h-896zM760 1696q-66 0 -104 22t-31 88t52 91q47 24 113 24t105 -23t30 -91q-9 -67 -54 -89t-111 -22z" />
    <glyph glyph-name="edotaccent" unicode="&#x117;" 
d="M646 981q-252 0 -285 -264l-5 -56h502l4 39q19 147 -36 214t-180 67zM990 244q-63 -138 -166 -200q-102 -62 -302 -62t-301 104t-78 307l39 326q26 209 160 313t326 104t296 -106t77 -326l-21 -181h-681l-17 -130q-17 -138 38 -198q55 -59 180 -59q124 0 184 38t101 122z
M688 1324q-66 0 -105 23t-30 89t53 90t111 23q67 0 106 -24t30 -90q-9 -67 -54 -89t-111 -22z" />
    <glyph glyph-name="Eogonek" unicode="&#x118;" 
d="M753 -400q-96 0 -164 60t-56 154q12 96 87 166l22 20h-549l183 1489h895l-19 -162h-714l-54 -435h629l-21 -162h-629l-69 -568h715l-20 -162h-224q-57 -57 -65 -119q-14 -116 110 -116q70 0 154 19l-20 -166q-95 -18 -191 -18z" />
    <glyph glyph-name="eogonek" unicode="&#x119;" 
d="M525 -19q-203 1 -304 105t-78 307l39 326q26 209 160 313t326 104t296 -106t77 -326l-21 -181h-681l-17 -130q-17 -138 38 -198q55 -59 180 -59q124 0 184 38t101 122l165 -52q-91 -200 -276 -243q-58 -55 -66 -118q-14 -118 110 -118q70 0 154 19l-20 -166
q-95 -18 -191 -18t-164 60t-56 152q12 93 89 170q-22 -1 -45 -1zM646 981q-252 0 -285 -264l-5 -56h502l4 39q19 147 -36 214t-180 67z" />
    <glyph glyph-name="Ecaron" unicode="&#x11a;" 
d="M93 0l183 1489h895l-19 -162h-714l-54 -435h629l-21 -162h-629l-69 -568h715l-20 -162h-896zM713 1683l-272 276l86 111l274 -210l322 210l59 -111l-339 -276h-130z" />
    <glyph glyph-name="ecaron" unicode="&#x11b;" 
d="M646 981q-252 0 -285 -264l-5 -56h502l4 39q19 147 -36 214t-180 67zM990 244q-63 -138 -166 -200q-102 -62 -302 -62t-301 104t-78 307l39 326q26 209 160 313t326 104t296 -106t77 -326l-21 -181h-681l-17 -130q-17 -138 38 -198q55 -59 180 -59q124 0 184 38t101 122z
M624 1311l-272 275l86 112l273 -210l322 210l60 -112l-339 -275h-130z" />
    <glyph glyph-name="Gcircumflex" unicode="&#x11c;" 
d="M546 -19q-234 0 -343 138q-110 138 -80 386l58 472q32 257 173 394q140 137 364 137t319 -114t80 -353l-184 -19q9 177 -43 251q-52 73 -199 73t-225 -84t-103 -283l-60 -476q-23 -194 39 -277t224 -83t239 95t105 321h-316l19 160h497l-23 -196q-35 -261 -171 -401
t-370 -141zM462 1691l-60 111l337 276h130l274 -276l-85 -111l-274 212z" />
    <glyph glyph-name="gcircumflex" unicode="&#x11d;" 
d="M678 -246q168 0 186 145q9 73 -28 107t-106 33h-535l-16 -128q-18 -157 154 -157h345zM562 570q208 0 229 173l8 58q11 89 -37 129t-151 40q-208 0 -229 -169l-8 -58q-10 -91 38 -132t150 -41zM639 -391h-321q-156 0 -247 66t-75 208q10 89 62 142t136 61l3 39
q-57 11 -91 54t-24 127t66 148q55 63 165 73l4 35q-78 30 -102 91q-23 61 -16 116l6 52q17 128 127 212q111 84 295 84h511l-21 -166l-261 45l-5 -35q65 -20 94 -78t23 -116l-7 -50q-15 -127 -119 -207t-304 -80h-203q-47 0 -73 -25t-34 -85q-15 -117 116 -117h384
q145 0 232 -69q87 -68 68 -222t-130 -228t-259 -75zM374 1318l-59 112l337 275h130l274 -275l-86 -112l-274 212z" />
    <glyph glyph-name="Gbreve" unicode="&#x11e;" 
d="M546 -19q-234 0 -343 138q-110 138 -80 386l58 472q32 257 173 394q140 137 364 137t319 -114t80 -353l-184 -19q9 177 -43 251q-52 73 -199 73t-225 -84t-103 -283l-60 -476q-23 -194 39 -277t224 -83t239 95t105 321h-316l19 160h497l-23 -196q-35 -261 -171 -401
t-370 -141zM756 1663q-175 0 -276 91t-76 296h177q-15 -134 33 -189t160 -55t174 55q61 55 80 189h177q-28 -205 -151 -296t-298 -91z" />
    <glyph glyph-name="gbreve" unicode="&#x11f;" 
d="M678 -246q168 0 186 145q9 73 -28 107t-106 33h-535l-16 -128q-18 -157 154 -157h345zM562 570q208 0 229 173l8 58q11 89 -37 129t-151 40q-208 0 -229 -169l-8 -58q-10 -91 38 -132t150 -41zM639 -391h-321q-156 0 -247 66t-75 208q10 89 62 142t136 61l3 39
q-57 11 -91 54t-24 127t66 148q55 63 165 73l4 35q-78 30 -102 91q-23 61 -16 116l6 52q17 128 127 212q111 84 295 84h511l-21 -166l-261 45l-5 -35q65 -20 94 -78t23 -116l-7 -50q-15 -127 -119 -207t-304 -80h-203q-47 0 -73 -25t-34 -85q-15 -117 116 -117h384
q145 0 232 -69q87 -68 68 -222t-130 -228t-259 -75zM683 1290q-175 0 -275 91t-77 296h177q-14 -135 34 -189t160 -54t173 55t80 188h177q-28 -205 -151 -296t-298 -91z" />
    <glyph glyph-name="Gdotaccent" unicode="&#x120;" 
d="M546 -19q-234 0 -343 138q-110 138 -80 386l58 472q32 257 173 394q140 137 364 137t319 -114t80 -353l-184 -19q9 177 -43 251q-52 73 -199 73t-225 -84t-103 -283l-60 -476q-23 -194 39 -277t224 -83t239 95t105 321h-316l19 160h497l-23 -196q-35 -261 -171 -401
t-370 -141zM744 1696q-66 0 -105 23t-30 89t53 90t111 23q67 0 106 -24t30 -90q-9 -67 -54 -89t-111 -22z" />
    <glyph glyph-name="gdotaccent" unicode="&#x121;" 
d="M678 -246q168 0 186 145q9 73 -28 107t-106 33h-535l-16 -128q-18 -157 154 -157h345zM562 570q208 0 229 173l8 58q11 89 -37 129t-151 40q-208 0 -229 -169l-8 -58q-10 -91 38 -132t150 -41zM639 -391h-321q-156 0 -247 66t-75 208q10 89 62 142t136 61l3 39
q-57 11 -91 54t-24 127t66 148q55 63 165 73l4 35q-78 30 -102 91q-23 61 -16 116l6 52q17 128 127 212q111 84 295 84h511l-21 -166l-261 45l-5 -35q65 -20 94 -78t23 -116l-7 -50q-15 -127 -119 -207t-304 -80h-203q-47 0 -73 -25t-34 -85q-15 -117 116 -117h384
q145 0 232 -69q87 -68 68 -222t-130 -228t-259 -75zM686 1324q-66 0 -105 23t-30 89t53 90t111 23q67 0 106 -24t30 -90q-9 -67 -54 -89t-111 -22z" />
    <glyph glyph-name="Gcommaaccent" unicode="&#x122;" 
d="M240 -559l209 373h266l-315 -373h-160zM546 -19q-234 0 -343 138q-110 138 -80 386l58 472q32 257 173 394q140 137 364 137t319 -114t80 -353l-184 -19q9 177 -43 251q-52 73 -199 73t-225 -84t-103 -283l-60 -476q-23 -194 39 -277t224 -83t239 95t105 321h-316l19 160
h497l-23 -196q-35 -261 -171 -401t-370 -141z" />
    <glyph glyph-name="gcommaaccent" unicode="&#x123;" 
d="M678 -246q168 0 186 145q9 73 -28 107t-106 33h-535l-16 -128q-18 -157 154 -157h345zM562 570q208 0 229 173l8 58q11 89 -37 129t-151 40q-208 0 -229 -169l-8 -58q-10 -91 38 -132t150 -41zM639 -391h-321q-156 0 -247 66t-75 208q10 89 62 142t136 61l3 39
q-57 11 -91 54t-24 127t66 148q55 63 165 73l4 35q-78 30 -102 91q-23 61 -16 116l6 52q17 128 127 212q111 84 295 84h511l-21 -166l-261 45l-5 -35q65 -20 94 -78t23 -116l-7 -50q-15 -127 -119 -207t-304 -80h-203q-47 0 -73 -25t-34 -85q-15 -117 116 -117h384
q145 0 232 -69q87 -68 68 -222t-130 -228t-259 -75zM521 1303l315 373h158l-206 -373h-267z" />
    <glyph glyph-name="Hcircumflex" unicode="&#x124;" 
d="M93 0l183 1489h180l-72 -599h502l73 599h180l-182 -1489h-181l90 728h-503l-89 -728h-181zM430 1691l-59 111l336 276h131l274 -276l-86 -111l-274 212z" />
    <glyph glyph-name="hcircumflex" unicode="&#x125;" 
d="M767 1136q151 0 227 -101t54 -270l-93 -765h-179l90 730q15 115 -29 175q-45 59 -131 59q-174 -1 -337 -184l-95 -780h-179l182 1489h179l-67 -545h52q47 88 134 140q88 52 192 52zM99 1691l-60 111l337 276h130l274 -276l-86 -111l-273 212z" />
    <glyph glyph-name="Hbar" unicode="&#x126;" 
d="M352 640l-78 -640h-181l129 1044h-172l21 164h171l34 281h180l-33 -281h502l34 281h180l-33 -281h171l-20 -164h-172l-128 -1044h-181l79 640h-503zM372 802h503l30 242h-503z" />
    <glyph glyph-name="hbar" unicode="&#x127;" 
d="M769 1044q145 0 218.5 -90t55.5 -243l-88 -711h-179l82 670q26 203 -171 203q-160 0 -330 -192l-83 -681h-179l145 1177h-171l17 147h171l20 165h179l-20 -165h339l-17 -147h-339l-41 -330h52q47 91 139 144t200 53z" />
    <glyph glyph-name="Itilde" unicode="&#x128;" 
d="M93 0l21 162h342l144 1165h-343l19 162h863l-18 -162h-341l-143 -1165h340l-20 -162h-864zM864 1694q-63 0 -99 34q-35 34 -60 74t-47 75q-22 33 -54 33q-79 -1 -96 -177l-3 -20h-138l4 28q17 140 87 232q71 92 181 92q69 0 105 -34q36 -35 61 -75t43 -74t48 -33
q82 0 102 197h136l-2 -28q-19 -141 -88 -233q-70 -91 -180 -91z" />
    <glyph glyph-name="itilde.salt_serifs" unicode="&#xe029;" 
d="M637 162h370l-20 -162h-551l117 955h-372l20 162h553zM782 1322q-63 0 -99 33q-35 34 -61 75q-24 40 -46 74t-54 34q-78 0 -96 -177l-3 -20h-138l4 27q17 140 87 232q71 92 181 92q69 0 110 -38t99 -144q18 -34 50 -34q75 0 98 177l2 21h136l-2 -28q-19 -141 -88 -233
q-70 -91 -180 -91z" />
    <glyph glyph-name="itilde.salt_serifs" unicode="&#x129;" 
d="M637 162h370l-20 -162h-551l117 955h-372l20 162h553zM782 1322q-63 0 -99 33q-35 34 -61 75q-24 40 -46 74t-54 34q-78 0 -96 -177l-3 -20h-138l4 27q17 140 87 232q71 92 181 92q69 0 110 -38t99 -144q18 -34 50 -34q75 0 98 177l2 21h136l-2 -28q-19 -141 -88 -233
q-70 -91 -180 -91z" />
    <glyph glyph-name="Imacron" unicode="&#x12a;" 
d="M93 0l21 162h342l144 1165h-343l19 162h863l-18 -162h-341l-143 -1165h340l-20 -162h-864zM395 1782l20 160h689l-20 -160h-689z" />
    <glyph glyph-name="imacron.salt_serifs" unicode="&#xe02a;" 
d="M637 162h370l-20 -162h-551l117 955h-372l20 162h553zM313 1409l20 161h689l-20 -161h-689z" />
    <glyph glyph-name="imacron.salt_serifs" unicode="&#x12b;" 
d="M637 162h370l-20 -162h-551l117 955h-372l20 162h553zM313 1409l20 161h689l-20 -161h-689z" />
    <glyph glyph-name="Ibreve" unicode="&#x12c;" 
d="M93 0l21 162h342l144 1165h-343l19 162h863l-18 -162h-341l-143 -1165h340l-20 -162h-864zM724 1663q-176 0 -276 91t-76 296h177q-15 -134 33 -189t161 -55q112 0 173 55t80 189h177q-28 -205 -151 -296t-298 -91z" />
    <glyph glyph-name="ibreve.salt_serifs" unicode="&#xe02b;" 
d="M637 162h370l-20 -162h-551l117 955h-372l20 162h553zM642 1290q-176 0 -276 91t-76 296h177q-15 -135 33 -189t161 -54q112 0 173 55t80 188h177q-28 -205 -151 -296t-298 -91z" />
    <glyph glyph-name="ibreve.salt_serifs" unicode="&#x12d;" 
d="M637 162h370l-20 -162h-551l117 955h-372l20 162h553zM642 1290q-176 0 -276 91t-76 296h177q-15 -135 33 -189t161 -54q112 0 173 55t80 188h177q-28 -205 -151 -296t-298 -91z" />
    <glyph glyph-name="Iogonek" unicode="&#x12e;" 
d="M559 -208q30 -28 93 -27q63 0 149 19l-21 -166q-104 -20 -177 -18q-110 0 -178 60q-67 60 -55 154q12 96 86 166l22 20h-385l21 162h342l144 1165h-343l19 162h863l-18 -162h-341l-143 -1165h340l-20 -162h-356q-21 -21 -34 -44q-64 -112 -8 -164z" />
    <glyph glyph-name="iogonek.salt_serifs" unicode="&#xe02c;" 
d="M360 -340q-68 60 -55 165q13 106 133 195l115 935h-372l20 162h553l-117 -955h370l-20 -162h-451q-57 -57 -65 -119q-14 -116 110 -116q70 0 154 19l-20 -166q-95 -18 -191 -18t-164 60zM686 1322q-66 0 -105 23t-30 89t53 90t111 23q67 0 106 -24t30 -90q-9 -67 -54 -89
t-111 -22z" />
    <glyph glyph-name="iogonek.salt_serifs" unicode="&#x12f;" 
d="M360 -340q-68 60 -55 165q13 106 133 195l115 935h-372l20 162h553l-117 -955h370l-20 -162h-451q-57 -57 -65 -119q-14 -116 110 -116q70 0 154 19l-20 -166q-95 -18 -191 -18t-164 60zM686 1322q-66 0 -105 23t-30 89t53 90t111 23q67 0 106 -24t30 -90q-9 -67 -54 -89
t-111 -22z" />
    <glyph glyph-name="Idotaccent" unicode="&#x130;" 
d="M93 0l21 162h342l144 1165h-343l19 162h863l-18 -162h-341l-143 -1165h340l-20 -162h-864zM727 1696q-66 0 -105 23t-30 89t53 90t111 23q67 0 106 -24t30 -90q-9 -67 -54 -89t-111 -22z" />
    <glyph glyph-name="dotlessi.salt_serifs" unicode="&#xe024;" 
d="M637 162h370l-20 -162h-551l117 955h-372l20 162h553z" />
    <glyph glyph-name="dotlessi.salt_serifs" unicode="&#x131;" 
d="M637 162h370l-20 -162h-551l117 955h-372l20 162h553z" />
    <glyph glyph-name="IJ" unicode="&#x132;" 
d="M690 -19q-166 0 -239 109t-53 387l179 20q-13 -210 10.5 -281t115.5 -71t138.5 84t61.5 218l110 880h-319l19 162h493l-126 -1038q-28 -220 -126 -345t-264 -125zM203 0h-175l182 1489h175z" />
    <glyph glyph-name="ij.salt_serifs" unicode="&#xe02d;" 
d="M543 -212q209 0 237 225l116 942h-222l20 162h401l-140 -1128q-22 -192 -144 -284t-284 -92q-119 0 -231 41l56 175q97 -41 191 -41zM305 0h-178l137 1117h179zM1023 1324q-66 0 -105 23t-30 89t53 90t111 23q67 0 106 -24t30 -90q-9 -67 -54 -89t-111 -22zM377 1324
q-66 0 -105 23t-30 89t53 90t111 23q67 0 105 -24t29 -90q-9 -67 -53 -89t-110 -22z" />
    <glyph glyph-name="ij.salt_serifs" unicode="&#x133;" 
d="M543 -212q209 0 237 225l116 942h-222l20 162h401l-140 -1128q-22 -192 -144 -284t-284 -92q-119 0 -231 41l56 175q97 -41 191 -41zM305 0h-178l137 1117h179zM1023 1324q-66 0 -105 23t-30 89t53 90t111 23q67 0 106 -24t30 -90q-9 -67 -54 -89t-111 -22zM377 1324
q-66 0 -105 23t-30 89t53 90t111 23q67 0 105 -24t29 -90q-9 -67 -53 -89t-110 -22z" />
    <glyph glyph-name="Jcircumflex" unicode="&#x134;" 
d="M488 -19q-229 1 -326 119t-78 375l184 20q-13 -210 36 -281t198 -71t230 80q80 80 100 246l106 858h-344l19 162h525l-125 -1018q-30 -238 -163 -364t-362 -126zM581 1691l-60 111l337 276h131l273 -276l-85 -111l-274 212z" />
    <glyph glyph-name="jcircumflex" unicode="&#x135;" 
d="M327 -212q252 0 280 225l115 942h-476l20 162h657l-139 -1128q-22 -192 -155 -284t-295 -92t-282 41l56 175q103 -41 219 -41zM501 1318l-60 112l337 275h131l273 -275l-85 -112l-274 212z" />
    <glyph glyph-name="Kcommaaccent" unicode="&#x136;" 
d="M361 711l-87 -711h-181l183 1489h180l-74 -616h57l592 616h207l-666 -685l478 -804h-212l-414 711h-63zM225 -559l209 373h266l-315 -373h-160z" />
    <glyph glyph-name="kcommaaccent" unicode="&#x137;" 
d="M419 510l-63 -510h-181l182 1489h181l-100 -826h85l382 454h216l-466 -519l322 -598h-204l-268 510h-86zM214 -559l209 373h266l-315 -373h-160z" />
    <glyph glyph-name="kgreenlandic" unicode="&#x138;" 
d="M419 510l-63 -510h-181l138 1117h180l-55 -454h85l382 454h216l-466 -519l322 -598h-204l-268 510h-86z" />
    <glyph glyph-name="Lacute" unicode="&#x139;" 
d="M179 0l182 1489h181l-162 -1327h597l-20 -162h-778zM438 1676l277 372h264l-381 -372h-160z" />
    <glyph glyph-name="lacute.salt_serifs_round" unicode="&#xe057;" 
d="M990 34q-92 -43 -235 -43q-142 0 -221 95q-78 95 -57 262l121 979h-371l19 162h551l-140 -1146q-26 -188 144 -188q101 0 175 35zM382 1676l277 372h264l-381 -372h-160z" />
    <glyph glyph-name="lacute.salt_serifs_round" unicode="&#x13a;" 
d="M990 34q-92 -43 -235 -43q-142 0 -221 95q-78 95 -57 262l121 979h-371l19 162h551l-140 -1146q-26 -188 144 -188q101 0 175 35zM382 1676l277 372h264l-381 -372h-160z" />
    <glyph glyph-name="Lcommaaccent" unicode="&#x13b;" 
d="M179 0l182 1489h181l-162 -1327h597l-20 -162h-778zM251 -559l209 373h266l-315 -373h-160z" />
    <glyph glyph-name="lcommaaccent.salt_serifs_round" unicode="&#xe058;" 
d="M990 34q-92 -43 -235 -43q-142 0 -221 95q-78 95 -57 262l121 979h-371l19 162h551l-140 -1146q-26 -188 144 -188q101 0 175 35zM292 -559l209 373h266l-315 -373h-160z" />
    <glyph glyph-name="lcommaaccent.salt_serifs_round" unicode="&#x13c;" 
d="M990 34q-92 -43 -235 -43q-142 0 -221 95q-78 95 -57 262l121 979h-371l19 162h551l-140 -1146q-26 -188 144 -188q101 0 175 35zM292 -559l209 373h266l-315 -373h-160z" />
    <glyph glyph-name="Lcaron" unicode="&#x13d;" 
d="M179 0l182 1489h181l-162 -1327h597l-20 -162h-778zM743 940l203 549h260l-335 -549h-128z" />
    <glyph glyph-name="lcaron.salt_serifs_round" unicode="&#xe059;" 
d="M990 34q-92 -43 -235 -43q-142 0 -221 95q-78 95 -57 262l121 979h-371l19 162h551l-140 -1146q-26 -188 144 -188q101 0 175 35zM935 1313l203 549h260l-335 -549h-128z" />
    <glyph glyph-name="lcaron.salt_serifs_round" unicode="&#x13e;" 
d="M990 34q-92 -43 -235 -43q-142 0 -221 95q-78 95 -57 262l121 979h-371l19 162h551l-140 -1146q-26 -188 144 -188q101 0 175 35zM935 1313l203 549h260l-335 -549h-128z" />
    <glyph glyph-name="Ldot" unicode="&#x13f;" 
d="M179 0l182 1489h181l-162 -1327h597l-20 -162h-778zM1096 767q-66 0 -105 22t-30 89q9 66 53 90t111 24t105 -23t31 -90t-53 -89q-46 -23 -112 -23z" />
    <glyph glyph-name="ldot.salt_serifs_round" unicode="&#xe05a;" 
d="M990 34q-92 -43 -235 -43q-142 0 -221 95q-78 95 -57 262l121 979h-371l19 162h551l-140 -1146q-26 -188 144 -188q101 0 175 35zM1196 575q-66 0 -105 23t-30 90q9 66 53 89t111 23t106 -23q39 -24 28 -97q-12 -105 -163 -105z" />
    <glyph glyph-name="ldot.salt_serifs_round" unicode="&#x140;" 
d="M990 34q-92 -43 -235 -43q-142 0 -221 95q-78 95 -57 262l121 979h-371l19 162h551l-140 -1146q-26 -188 144 -188q101 0 175 35zM1196 575q-66 0 -105 23t-30 90q9 66 53 89t111 23t106 -23q39 -24 28 -97q-12 -105 -163 -105z" />
    <glyph glyph-name="Lslash" unicode="&#x141;" 
d="M179 0l82 674l-173 -56l16 143l175 56l82 672h181l-75 -612l442 143l-17 -143l-443 -143l-69 -572h597l-20 -162h-778z" />
    <glyph glyph-name="lslash.salt_serifs_round" unicode="&#xe05b;" 
d="M990 34q-92 -43 -235 -43q-142 0 -220.5 95t-57.5 262l37 307l-265 -74l19 143l264 75l66 528h-371l19 162h551l-78 -636l262 76l-17 -145l-262 -75l-45 -366q-26 -188 144 -188q101 0 175 35z" />
    <glyph glyph-name="lslash.salt_serifs_round" unicode="&#x142;" 
d="M990 34q-92 -43 -235 -43q-142 0 -220.5 95t-57.5 262l37 307l-265 -74l19 143l264 75l66 528h-371l19 162h551l-78 -636l262 76l-17 -145l-262 -75l-45 -366q-26 -188 144 -188q101 0 175 35z" />
    <glyph glyph-name="Nacute" unicode="&#x143;" 
d="M704 0l-294 1266l-155 -1266h-162l183 1489h242l303 -1284l156 1284h162l-182 -1489h-253zM564 1676l278 372h264l-382 -372h-160z" />
    <glyph glyph-name="nacute" unicode="&#x144;" 
d="M769 1136q151 0 226 -100t53 -273l-93 -763h-179l90 728q15 117 -29 177q-45 59 -131 59q-174 -1 -337 -186l-95 -778h-179l138 1117h178l-22 -173h52q52 88 140 140t188 52zM523 1303l278 373h264l-382 -373h-160z" />
    <glyph glyph-name="Ncommaaccent" unicode="&#x145;" 
d="M192 -559l208 373h267l-315 -373h-160zM704 0l-294 1266l-155 -1266h-162l183 1489h242l303 -1284l156 1284h162l-182 -1489h-253z" />
    <glyph glyph-name="ncommaaccent" unicode="&#x146;" 
d="M223 -559l209 373h266l-314 -373h-161zM769 1136q151 0 226 -100t53 -273l-93 -763h-179l90 728q15 117 -29 177q-45 59 -131 59q-174 -1 -337 -186l-95 -778h-179l138 1117h178l-22 -173h52q52 88 140 140t188 52z" />
    <glyph glyph-name="Ncaron" unicode="&#x147;" 
d="M704 0l-294 1266l-155 -1266h-162l183 1489h242l303 -1284l156 1284h162l-182 -1489h-253zM694 1683l-271 276l85 111l274 -210l322 210l60 -111l-339 -276h-131z" />
    <glyph glyph-name="ncaron" unicode="&#x148;" 
d="M769 1136q151 0 226 -100t53 -273l-93 -763h-179l90 728q15 117 -29 177q-45 59 -131 59q-174 -1 -337 -186l-95 -778h-179l138 1117h178l-22 -173h52q52 88 140 140t188 52zM657 1311l-272 275l86 112l274 -210l322 210l59 -112l-338 -275h-131z" />
    <glyph glyph-name="napostrophe" unicode="&#x149;" 
d="M769 1136q151 0 226 -100t53 -273l-93 -763h-179l90 728q15 117 -29 177q-45 59 -131 59q-174 -1 -337 -186l-95 -778h-179l138 1117h178l-22 -173h52q52 88 140 140t188 52zM61 1303l278 373h264l-381 -373h-161z" />
    <glyph glyph-name="Eng" unicode="&#x14a;" 
d="M533 -212q93 0 163.5 70.5t91.5 232.5l122 998q15 130 -32.5 189t-137.5 59t-163.5 -58t-165.5 -158l-137 -1121h-181l183 1489h180l-24 -202h50q54 102 146.5 161.5t196.5 59.5q145 0 218.5 -101.5t53.5 -276.5l-133 -1063q-26 -225 -152.5 -339.5t-301.5 -114.5
q-90 0 -257 61l54 175q133 -61 226 -61z" />
    <glyph glyph-name="eng" unicode="&#x14b;" 
d="M698 964q-159 0 -329 -186l-95 -778h-179l138 1117h178l-22 -173h52q52 89 142.5 140.5t194.5 51.5q147 0 220.5 -92.5t53.5 -250.5l-101 -817q-22 -184 -132.5 -273.5t-259.5 -89.5q-92 0 -213 41l56 175q97 -41 174 -41t132 49t68 163l93 752q26 212 -171 212z" />
    <glyph glyph-name="Omacron" unicode="&#x14c;" 
d="M542 143q155 0 229 82t98 280l58 472q26 201 -28 285q-55 84 -209 84t-228 -84t-101 -285l-58 -472q-24 -197 30 -279t209 -83zM523 -19q-227 0 -328 135t-72 390l58 470q35 260 169 396t360 136t328 -136t70 -396l-58 -470q-30 -255 -165 -390t-362 -135zM395 1782
l20 160h689l-20 -160h-689z" />
    <glyph glyph-name="omacron" unicode="&#x14d;" 
d="M542 143q126 0 196 60t87 188l39 328q33 253 -220 255q-126 0 -196 -62t-87 -193l-39 -328q-17 -128 38 -188t182 -60zM523 -19q-207 1 -305 107t-75 303l39 328q26 199 151 308t332 109t305 -109t73 -308l-39 -326q-24 -199 -149 -305t-332 -107zM354 1409l20 161h689
l-20 -161h-689z" />
    <glyph glyph-name="Obreve" unicode="&#x14e;" 
d="M542 143q155 0 229 82t98 280l58 472q26 201 -28 285q-55 84 -209 84t-228 -84t-101 -285l-58 -472q-24 -197 30 -279t209 -83zM523 -19q-227 0 -328 135t-72 390l58 470q35 260 169 396t360 136t328 -136t70 -396l-58 -470q-30 -255 -165 -390t-362 -135zM724 1663
q-176 0 -276 91t-76 296h177q-15 -134 33 -189t161 -55q112 0 173 55t80 189h177q-28 -205 -151 -296t-298 -91z" />
    <glyph glyph-name="obreve" unicode="&#x14f;" 
d="M542 143q126 0 196 60t87 188l39 328q33 253 -220 255q-126 0 -196 -62t-87 -193l-39 -328q-17 -128 38 -188t182 -60zM523 -19q-207 1 -305 107t-75 303l39 328q26 199 151 308t332 109t305 -109t73 -308l-39 -326q-24 -199 -149 -305t-332 -107zM685 1290
q-175 0 -275 91t-77 296h177q-14 -135 34 -189t160 -54t173 55t80 188h177q-28 -205 -151 -296t-298 -91z" />
    <glyph glyph-name="Ohungarumlaut" unicode="&#x150;" 
d="M542 143q155 0 229 82t98 280l58 472q26 201 -28 285q-55 84 -209 84t-228 -84t-101 -285l-58 -472q-24 -197 30 -279t209 -83zM523 -19q-227 0 -328 135t-72 390l58 470q35 260 169 396t360 136t328 -136t70 -396l-58 -470q-30 -255 -165 -390t-362 -135zM430 1676
l140 372h245l-262 -372h-123zM823 1676l141 372h244l-262 -372h-123z" />
    <glyph glyph-name="ohungarumlaut" unicode="&#x151;" 
d="M542 143q126 0 196 60t87 188l39 328q33 253 -220 255q-126 0 -196 -62t-87 -193l-39 -328q-17 -128 38 -188t182 -60zM523 -19q-207 1 -305 107t-75 303l39 328q26 199 151 308t332 109t305 -109t73 -308l-39 -326q-24 -199 -149 -305t-332 -107zM387 1303l140 373h246
l-263 -373h-123zM780 1303l142 373h243l-262 -373h-123z" />
    <glyph glyph-name="OE" unicode="&#x152;" 
d="M408 141h149l149 1207h-149q-143 0 -226 -104.5t-104 -275.5l-56 -454q-20 -171 37 -272t200 -101zM389 0q-209 0 -308.5 140.5t-71.5 375.5l56 450q28 238 163 380.5t342 142.5h733l-16 -143h-421l-56 -454h417l-19 -144h-417l-74 -605h421l-17 -143h-732z" />
    <glyph glyph-name="oe" unicode="&#x153;" 
d="M312 125q79 0 124.5 62t64.5 208l39 320q37 277 -123 277q-78 0 -124.5 -67t-65.5 -210l-39 -320q-19 -145 13 -207.5t111 -62.5zM878 1000q-156 0 -185 -220l-17 -140h313l15 123q15 123 -16 180t-110 57zM897 1136q141 0 216 -89.5t52 -277.5l-29 -246h-473l-24 -195
q-15 -112 17.5 -162.5t113.5 -50.5t119 30t61 116l152 -13q-34 -136 -111 -201.5t-218 -65.5q-188 0 -239 140q-99 -140 -245 -140q-147 0 -217 101.5t-44 312.5l39 320q26 212 122 316.5t230 104.5q164 0 221 -140q85 140 257 140z" />
    <glyph glyph-name="Racute" unicode="&#x154;" 
d="M793 1489q426 0 378 -391l-13 -115q-44 -355 -380 -397l276 -586h-205l-272 581h-233l-70 -581h-181l183 1489h517zM696 737q134 0 200 58q65 58 81 188l13 115q17 123 -35 176t-186 53h-331l-73 -590h331zM652 1676l277 372h264l-381 -372h-160z" />
    <glyph glyph-name="racute" unicode="&#x155;" 
d="M746 964q-168 0 -292 -173l-97 -791h-180l138 1117h180l-22 -179h50q92 196 313 198q117 0 183 -81t48 -230l-21 -172h-171l13 107q13 106 -22 155t-120 49zM555 1303l277 373h265l-382 -373h-160z" />
    <glyph glyph-name="Rcommaaccent" unicode="&#x156;" 
d="M793 1489q426 0 378 -391l-13 -115q-44 -355 -380 -397l276 -586h-205l-272 581h-233l-70 -581h-181l183 1489h517zM696 737q134 0 200 58q65 58 81 188l13 115q17 123 -35 176t-186 53h-331l-73 -590h331zM197 -559l209 373h266l-315 -373h-160z" />
    <glyph glyph-name="rcommaaccent" unicode="&#x157;" 
d="M746 964q-168 0 -292 -173l-97 -791h-180l138 1117h180l-22 -179h50q92 196 313 198q117 0 183 -81t48 -230l-21 -172h-171l13 107q13 106 -22 155t-120 49zM-20 -559l208 373h266l-314 -373h-160z" />
    <glyph glyph-name="Rcaron" unicode="&#x158;" 
d="M793 1489q426 0 378 -391l-13 -115q-44 -355 -380 -397l276 -586h-205l-272 581h-233l-70 -581h-181l183 1489h517zM696 737q134 0 200 58q65 58 81 188l13 115q17 123 -35 176t-186 53h-331l-73 -590h331zM670 1683l-272 276l86 111l274 -210l322 210l59 -111l-338 -276
h-131z" />
    <glyph glyph-name="rcaron" unicode="&#x159;" 
d="M746 964q-168 0 -292 -173l-97 -791h-180l138 1117h180l-22 -179h50q92 196 313 198q117 0 183 -81t48 -230l-21 -172h-171l13 107q13 106 -22 155t-120 49zM689 1311l-272 275l86 112l273 -210l322 210l60 -112l-339 -275h-130z" />
    <glyph glyph-name="Sacute" unicode="&#x15a;" 
d="M674 1497q312 0 464 -220l-118 -134q-65 95 -163 143t-207 49q-108 0 -180 -51q-72 -50 -84 -154t52 -161t280 -130t294 -163t57 -252q-25 -210 -179 -324t-348 -113q-333 0 -494 222l121 130q138 -190 403 -190q128 0 214 65t100 174t-48 166q-61 56 -277 132t-298 168
t-61 267q20 175 154 275t318 101zM531 1676l277 372h264l-381 -372h-160z" />
    <glyph glyph-name="sacute" unicode="&#x15b;" 
d="M609 974q-89 0 -155 -36t-77 -118q-9 -83 49 -118t241 -65t269 -108t69 -216q-20 -168 -156 -250q-137 -82 -289 -82q-304 0 -480 159l95 143q74 -65 175 -102q102 -37 204 -37t180 31t90 119q10 88 -50 122t-242 64t-269 104t-67 228t144 239q126 85 267 85
q261 0 443 -160l-93 -144q-165 142 -348 142zM486 1303l277 373h265l-382 -373h-160z" />
    <glyph glyph-name="Scircumflex" unicode="&#x15c;" 
d="M674 1497q312 0 464 -220l-118 -134q-65 95 -163 143t-207 49q-108 0 -180 -51q-72 -50 -84 -154t52 -161t280 -130t294 -163t57 -252q-25 -210 -179 -324t-348 -113q-333 0 -494 222l121 130q138 -190 403 -190q128 0 214 65t100 174t-48 166q-61 56 -277 132t-298 168
t-61 267q20 175 154 275t318 101zM432 1691l-60 111l337 276h131l273 -276l-85 -111l-274 212z" />
    <glyph glyph-name="scircumflex" unicode="&#x15d;" 
d="M609 974q-89 0 -155 -36t-77 -118q-9 -83 49 -118t241 -65t269 -108t69 -216q-20 -168 -156 -250q-137 -82 -289 -82q-304 0 -480 159l95 143q74 -65 175 -102q102 -37 204 -37t180 31t90 119q10 88 -50 122t-242 64t-269 104t-67 228t144 239q126 85 267 85
q261 0 443 -160l-93 -144q-165 142 -348 142zM385 1318l-59 112l337 275h130l274 -275l-86 -112l-274 212z" />
    <glyph glyph-name="Scedilla" unicode="&#x15e;" 
d="M674 1497q312 0 464 -220l-118 -134q-65 95 -163 143t-207 49q-108 0 -180 -51q-72 -50 -84 -154t52 -161t280 -130t294 -163t57 -252q-26 -210 -180 -323q-103 -76 -223 -102q54 -59 40 -173t-100 -170t-191 -56q-106 0 -174 44t-62 149l162 19q-4 -35 17 -49
q20 -14 72 -14t81 23q29 24 37 88t-6 90t-37 38q-129 6 -249 54t-208 167l121 130q138 -190 403 -190q128 0 214 65t100 174t-48 166q-61 56 -277 132t-298 168t-61 267q20 175 154 275t318 101z" />
    <glyph glyph-name="scedilla" unicode="&#x15f;" 
d="M609 974q-89 0 -155 -36t-77 -118q-9 -83 49 -118t241 -65t269 -108t69 -216q-20 -168 -156 -250q-84 -51 -183 -70q48 -57 34 -169t-99 -168t-191 -56t-174 44t-63 149l162 19q-5 -35 17 -49t73 -14t80 23q29 24 37 88t-4 87t-29 35q-264 9 -429 158l95 143
q74 -65 175 -102q102 -37 204 -37t180 31t90 119q10 88 -50 122t-242 64t-269 104t-67 228t144 239q126 85 267 85q261 0 443 -160l-93 -144q-165 142 -348 142z" />
    <glyph glyph-name="Scaron" unicode="&#x160;" 
d="M674 1497q312 0 464 -220l-118 -134q-65 95 -163 143t-207 49q-108 0 -180 -51q-72 -50 -84 -154t52 -161t280 -130t294 -163t57 -252q-25 -210 -179 -324t-348 -113q-333 0 -494 222l121 130q138 -190 403 -190q128 0 214 65t100 174t-48 166q-61 56 -277 132t-298 168
t-61 267q20 175 154 275t318 101zM665 1683l-272 276l85 111l274 -210l322 210l60 -111l-339 -276h-130z" />
    <glyph glyph-name="scaron" unicode="&#x161;" 
d="M609 974q-89 0 -155 -36t-77 -118q-9 -83 49 -118t241 -65t269 -108t69 -216q-20 -168 -156 -250q-137 -82 -289 -82q-304 0 -480 159l95 143q74 -65 175 -102q102 -37 204 -37t180 31t90 119q10 88 -50 122t-242 64t-269 104t-67 228t144 239q126 85 267 85
q261 0 443 -160l-93 -144q-165 142 -348 142zM618 1311l-272 275l86 112l274 -210l322 210l59 -112l-339 -275h-130z" />
    <glyph glyph-name="Tcedilla" unicode="&#x162;" 
d="M391 -400q-106 0 -174 44t-62 149l162 19q-4 -35 17 -49q20 -14 72 -14t81 23q29 24 37 88t-8 94t-65 46h-15l164 1327h-423l18 162h1024l-18 -162h-421l-161 -1306q79 -64 64 -186q-15 -123 -101 -179t-191 -56z" />
    <glyph glyph-name="tcedilla" unicode="&#x163;" 
d="M746 155q111 0 217 37l14 -166q-103 -34 -192 -39q43 -57 29 -166t-100 -165t-191 -56q-106 0 -174 44t-62 149l162 19q-4 -35 17 -49q20 -14 72 -14t81 23q29 24 37 88t-6 91t-46 41q-102 20 -161 84q-86 93 -63 272l74 607h-286l20 162h287l44 372h181l-45 -372h440
l-21 -162h-439l-73 -588q-13 -106 30 -159t154 -53z" />
    <glyph glyph-name="Tcaron" unicode="&#x164;" 
d="M436 0l164 1327h-423l18 162h1024l-18 -162h-421l-164 -1327h-180zM663 1683l-272 276l86 111l273 -210l322 210l60 -111l-339 -276h-130z" />
    <glyph glyph-name="tcaron" unicode="&#x165;" 
d="M730 155q128 0 233 37l14 -166q-131 -43 -290 -43q-158 0 -244 93t-63 272l74 607h-286l20 162h287l44 372h181l-45 -372h440l-21 -162h-439l-73 -588q-26 -212 168 -212zM793 1313l203 549h261l-335 -549h-129z" />
    <glyph glyph-name="Tbar" unicode="&#x166;" 
d="M436 0l70 579h-338l20 164h339l73 584h-423l18 162h1024l-18 -162h-421l-73 -584h337l-20 -164h-337l-71 -579h-180z" />
    <glyph glyph-name="tbar" unicode="&#x167;" 
d="M730 155q128 0 233 37l14 -166q-131 -43 -290 -43q-158 0 -244 93t-63 272l22 177h-225l18 164h226l33 266h-286l20 162h287l44 372h181l-45 -372h440l-21 -162h-439l-34 -266h386l-19 -164h-385l-21 -158q-26 -212 168 -212z" />
    <glyph glyph-name="Utilde" unicode="&#x168;" 
d="M523 -19q-218 -1 -309 129t-59 393l121 986h180l-121 -990q-24 -195 22 -277q47 -81 185 -81t205 81t91 277l121 990h180l-121 -986q-32 -263 -154 -393t-341 -129zM864 1694q-63 0 -99 34q-35 34 -60 74t-47 75q-22 33 -54 33q-79 -1 -96 -177l-3 -20h-138l4 28
q17 140 87 232q71 92 181 92q69 0 105 -34q36 -35 61 -75t43 -74t48 -33q82 0 102 197h136l-2 -28q-19 -141 -88 -233q-70 -91 -180 -91z" />
    <glyph glyph-name="utilde" unicode="&#x169;" 
d="M421 -19q-149 1 -226 103t-57 270l95 763h178l-89 -730q-30 -236 168 -234q163 0 327 184l97 780h179l-138 -1117h-179l21 173h-52q-43 -86 -133 -139t-191 -53zM823 1322q-63 0 -99 33q-35 34 -61 75q-23 40 -45 74t-55 34q-78 0 -96 -177l-3 -20h-138l4 27
q17 140 87 232q71 92 181 92q69 0 110 -38t99 -144q18 -34 50 -34q75 0 98 177l2 21h136l-2 -28q-19 -141 -88 -233q-70 -91 -180 -91z" />
    <glyph glyph-name="Umacron" unicode="&#x16a;" 
d="M523 -19q-218 -1 -309 129t-59 393l121 986h180l-121 -990q-24 -195 22 -277q47 -81 185 -81t205 81t91 277l121 990h180l-121 -986q-32 -263 -154 -393t-341 -129zM395 1782l20 160h689l-20 -160h-689z" />
    <glyph glyph-name="umacron" unicode="&#x16b;" 
d="M421 -19q-149 1 -226 103t-57 270l95 763h178l-89 -730q-30 -236 168 -234q163 0 327 184l97 780h179l-138 -1117h-179l21 173h-52q-43 -86 -133 -139t-191 -53zM354 1409l20 161h689l-20 -161h-689z" />
    <glyph glyph-name="Ubreve" unicode="&#x16c;" 
d="M523 -19q-218 -1 -309 129t-59 393l121 986h180l-121 -990q-24 -195 22 -277q47 -81 185 -81t205 81t91 277l121 990h180l-121 -986q-32 -263 -154 -393t-341 -129zM724 1663q-176 0 -276 91t-76 296h177q-15 -134 33 -189t161 -55q112 0 173 55t80 189h177
q-28 -205 -151 -296t-298 -91z" />
    <glyph glyph-name="ubreve" unicode="&#x16d;" 
d="M421 -19q-149 1 -226 103t-57 270l95 763h178l-89 -730q-30 -236 168 -234q163 0 327 184l97 780h179l-138 -1117h-179l21 173h-52q-43 -86 -133 -139t-191 -53zM685 1290q-175 0 -275 91t-77 296h177q-14 -135 34 -189t160 -54t173 55t80 188h177q-28 -205 -151 -296
t-298 -91z" />
    <glyph glyph-name="Uring" unicode="&#x16e;" 
d="M523 -19q-218 -1 -309 129t-59 393l121 986h180l-121 -990q-24 -195 22 -277q47 -81 185 -81t205 81t91 277l121 990h180l-121 -986q-32 -263 -154 -393t-341 -129zM739 1778q69 0 108 33t49 107l7 59q18 145 -122 145t-157 -145l-8 -59q-17 -140 123 -140zM722 1650
q-124 0 -192 65t-52 203l8 59q17 140 101 207q85 67 210 67t193 -67t51 -207l-8 -59q-17 -138 -101 -203t-210 -65z" />
    <glyph glyph-name="uring" unicode="&#x16f;" 
d="M421 -19q-149 1 -226 103t-57 270l95 763h178l-89 -730q-30 -236 168 -234q163 0 327 184l97 780h179l-138 -1117h-179l21 173h-52q-43 -86 -133 -139t-191 -53zM700 1406q69 0 108 32t48 107l8 60q18 145 -122 145t-157 -145l-8 -60q-17 -139 123 -139zM683 1277
q-125 0 -193 65t-51 203l8 60q17 140 101 207q85 67 210 67q124 0 192 -67t52 -207l-8 -60q-18 -138 -102 -203t-209 -65z" />
    <glyph glyph-name="Uhungarumlaut" unicode="&#x170;" 
d="M523 -19q-218 -1 -309 129t-59 393l121 986h180l-121 -990q-24 -195 22 -277q47 -81 185 -81t205 81t91 277l121 990h180l-121 -986q-32 -263 -154 -393t-341 -129zM447 1676l139 372h246l-262 -372h-123zM840 1676l141 372h244l-262 -372h-123z" />
    <glyph glyph-name="uhungarumlaut" unicode="&#x171;" 
d="M421 -19q-149 1 -226 103t-57 270l95 763h178l-89 -730q-30 -236 168 -234q163 0 327 184l97 780h179l-138 -1117h-179l21 173h-52q-43 -86 -133 -139t-191 -53zM421 1303l139 373h246l-262 -373h-123zM814 1303l141 373h244l-263 -373h-122z" />
    <glyph glyph-name="Uogonek" unicode="&#x172;" 
d="M542 141q138 0 205 81t91 277l121 990h180l-121 -986q-32 -263 -148 -385t-297 -135q-44 -51 -50 -107q-7 -56 23 -84t93 -27q63 0 149 19l-21 -166q-95 -18 -191 -18t-164 60t-56 154q12 96 87 166l6 6q-352 42 -294 517l121 986h180l-121 -990q-24 -195 22 -277
q47 -81 185 -81z" />
    <glyph glyph-name="uogonek" unicode="&#x173;" 
d="M421 -19q-149 1 -226 103t-57 270l95 763h178l-89 -730q-30 -236 168 -234q163 0 327 184l97 780h179l-138 -1117h-84q-57 -57 -65 -119q-14 -116 110 -116q68 0 155 19l-21 -166q-95 -18 -191 -18t-164 60t-56 154q12 96 87 166q26 24 53 45l18 148h-52
q-43 -86 -132 -139t-192 -53z" />
    <glyph glyph-name="Wcircumflex" unicode="&#x174;" 
d="M722 0l-87 894l-305 -894h-179l-2 1489h177l-30 -1212l279 840h183l71 -840l269 1212h168l-367 -1489h-177zM430 1691l-59 111l336 276h131l274 -276l-86 -111l-274 212z" />
    <glyph glyph-name="wcircumflex" unicode="&#x175;" 
d="M674 0l-60 730l-232 -730h-200l-54 1117h172l5 -974l231 790h201l51 -760l238 944h171l-329 -1117h-194zM391 1318l-60 112l337 275h131l273 -275l-85 -112l-274 212z" />
    <glyph glyph-name="Ycircumflex" unicode="&#x176;" 
d="M616 0h-180l69 559l-371 930h199l291 -761l460 761h195l-594 -930zM430 1691l-59 111l336 276h131l274 -276l-86 -111l-274 212z" />
    <glyph glyph-name="ycircumflex" unicode="&#x177;" 
d="M182 -384q-66 0 -171 21l50 162q97 -24 168 -23q168 2 253 220h-74l-222 1121h196l165 -966l403 966h188l-511 -1156q-81 -185 -193 -265t-252 -80zM389 1318l-59 112l337 275h130l274 -275l-86 -112l-274 212z" />
    <glyph glyph-name="Ydieresis" unicode="&#x178;" 
d="M616 0h-180l69 559l-371 930h199l291 -761l460 761h195l-594 -930zM954 1921q52 0 81 -24q30 -24 19 -97q-12 -104 -130 -104q-51 0 -80 22t-19 89q9 67 43 91t86 23zM530 1696q-51 0 -81 23t-21 89q10 66 44 90t86 23q52 0 81 -23q28 -23 18 -91t-43 -90
q-33 -21 -84 -21z" />
    <glyph glyph-name="Zacute" unicode="&#x179;" 
d="M989 0h-928l21 162l860 1165h-717l19 162h927l-19 -162l-860 -1165h717zM581 1676l277 372h265l-382 -372h-160z" />
    <glyph glyph-name="zacute" unicode="&#x17a;" 
d="M923 0h-796l20 162l682 793h-585l20 162h797l-20 -162l-676 -793h579zM493 1303l278 373h264l-382 -373h-160z" />
    <glyph glyph-name="Zdotaccent" unicode="&#x17b;" 
d="M989 0h-928l21 162l860 1165h-717l19 162h927l-19 -162l-860 -1165h717zM727 1696q-66 0 -105 23t-30 89t53 90t111 23q67 0 106 -24t30 -90q-9 -67 -54 -89t-111 -22z" />
    <glyph glyph-name="zdotaccent" unicode="&#x17c;" 
d="M923 0h-796l20 162l682 793h-585l20 162h797l-20 -162l-676 -793h579zM692 1324q-66 0 -105 22t-30 89t53 91t111 23q67 0 105 -23t31 -90t-53 -89q-46 -23 -112 -23z" />
    <glyph glyph-name="Zcaron" unicode="&#x17d;" 
d="M989 0h-928l21 162l860 1165h-717l19 162h927l-19 -162l-860 -1165h717zM663 1683l-272 276l86 111l273 -210l322 210l60 -111l-339 -276h-130z" />
    <glyph glyph-name="zcaron" unicode="&#x17e;" 
d="M923 0h-796l20 162l682 793h-585l20 162h797l-20 -162l-676 -793h579zM620 1311l-272 275l86 112l273 -210l323 210l59 -112l-339 -275h-130z" />
    <glyph glyph-name="longs" unicode="&#x17f;" 
d="M933 1342q-151 0 -170 -147l-193 -1567h-181l164 1327h-207l21 162h206l10 75q17 147 119 229.5t226 82.5t223 -48l-53 -151q-97 37 -165 37z" />
    <glyph glyph-name="florin" unicode="&#x192;" 
d="M1130 1305q-90 37 -183 37t-135 -44t-56 -155l-26 -216h372l-20 -162h-373l-56 -463q-18 -145 -115 -229q-98 -84 -251 -84t-239 45l56 156q90 -37 181 -37q90 0 138 42q41 45 55 155l51 415h-360l21 162h359l34 265q13 134 115 229q95 83 238 83q98 0 162 -16.5
t84 -27.5z" />
    <glyph glyph-name="Aringacute" unicode="&#x1fa;" 
d="M869 0l-63 434h-460l-171 -434h-182l620 1489h191l255 -1489h-190zM782 594l-99 689l-273 -689h372zM897 1918l8 59q18 145 -122 145t-157 -145l-8 -59q-17 -140 122 -140q140 0 157 140zM724 1650q-124 0 -192 65t-52 203l8 59q25 205 196 257h-51l277 373h265
l-365 -356q116 -3 182 -69t51 -205l-8 -59q-17 -138 -101 -203t-210 -65z" />
    <glyph glyph-name="aringacute" unicode="&#x1fb;" 
d="M613 1136q171 0 274 -81t83 -249l-63 -517q-11 -95 35 -121t151 -8l-21 -166q-120 -18 -204 18t-77 169h-35q-58 -86 -160 -143t-232 -57q-128 1 -216 79t-68 232q19 154 119 238q101 85 231 84h337l21 168q10 86 -38 138t-158 52t-168 -38t-106 -161l-150 44
q97 319 445 319zM456 477q-175 0 -195 -166q-23 -173 155 -173q196 0 310 154l22 185h-292zM665 1406q69 0 108 32t48 107l8 60q18 145 -122 145q-139 0 -158 -145l-7 -60q-9 -74 22 -107q32 -32 101 -32zM648 1277q-125 0 -193 65t-51 203l7 60q25 205 197 257h-53l277 372
h265l-365 -356q118 -3 184 -68t50 -205l-7 -60q-17 -138 -101 -203t-210 -65z" />
    <glyph glyph-name="AEacute" unicode="&#x1fc;" 
d="M594 434h-346l-168 -434h-151l592 1489h766l-17 -143h-404l-60 -475h387l-16 -141h-388l-72 -587h404l-17 -143h-564zM600 1346l-298 -771h309l95 771h-106zM750 1676l278 372h264l-382 -372h-160z" />
    <glyph glyph-name="aeacute" unicode="&#x1fd;" 
d="M357 495q-159 1 -181 -177q-24 -199 100 -199q64 1 114 39q48 38 96 101l30 236h-159zM1007 756q29 244 -128 244t-186 -227l-17 -133h316zM892 1136q148 0 222 -92t51 -283l-27 -238h-475l-24 -186q-15 -117 19 -169t113 -52q80 0 118 34t64 131l155 -13
q-36 -147 -116 -217t-219 -70q-203 0 -246 168h-28q-47 -74 -111 -121t-160 -47q-96 1 -165 79t-50 232t110 239q91 84 201 83h207l18 164q13 97 -19 156q-32 58 -106 58t-108 -34t-76 -146l-136 44q43 138 123 209t226 71t202 -125q89 125 237 125zM579 1303l277 373h265
l-382 -373h-160z" />
    <glyph glyph-name="Oslashacute" unicode="&#x1fe;" 
d="M711 1508q87 0 164 -22l95 190h175l-136 -270q135 -135 99 -429l-58 -472q-30 -253 -166 -389t-361 -135q-112 0 -192 34l-98 -201h-175l143 292q-109 126 -78 399l58 472q32 257 167 394q136 137 363 137zM542 143q156 0 231 82q74 82 98 278l60 476q18 182 -19 263
l-519 -1071q60 -28 149 -28zM691 1346q-157 0 -231 -84t-99 -283l-59 -476q-19 -147 5 -222l508 1048q-63 17 -124 17zM596 1676l277 372h265l-382 -372h-160z" />
    <glyph glyph-name="oslashacute" unicode="&#x1ff;" 
d="M523 -19q-82 0 -166 23l-109 -190h-174l155 260q-112 104 -88 317l40 328q26 210 159 313t327 104q87 0 162 -23l111 190h173l-154 -262q113 -113 85 -322l-39 -328q-26 -209 -157 -309t-325 -101zM544 145q130 0 198 59t85 187l39 328q13 98 -19 162l-415 -721
q47 -15 112 -15zM644 972q-130 0 -199 -61t-86 -192l-39 -328q-13 -96 19 -160l417 726q-47 15 -112 15zM493 1303l278 373h264l-382 -373h-160z" />
    <glyph glyph-name="Scommaaccent" unicode="&#x218;" 
d="M674 1497q312 0 464 -220l-118 -134q-65 95 -163 143t-207 49q-108 0 -180 -51q-72 -50 -84 -154t52 -161t280 -130t294 -163t57 -252q-25 -210 -179 -324t-348 -113q-333 0 -494 222l121 130q138 -190 403 -190q128 0 214 65t100 174t-48 166q-61 56 -277 132t-298 168
t-61 267q20 175 154 275t318 101zM190 -559l208 373h267l-315 -373h-160z" />
    <glyph glyph-name="scommaaccent" unicode="&#x219;" 
d="M609 974q-89 0 -155 -36t-77 -118q-9 -83 49 -118t241 -65t269 -108t69 -216q-20 -168 -156 -250q-137 -82 -289 -82q-304 0 -480 159l95 143q74 -65 175 -102q102 -37 204 -37t180 31t90 119q10 88 -50 122t-242 64t-269 104t-67 228t144 239q126 85 267 85
q261 0 443 -160l-93 -144q-165 142 -348 142zM190 -559l208 373h267l-315 -373h-160z" />
    <glyph glyph-name="Tcommaaccent" unicode="&#x21a;" 
d="M436 0l164 1327h-423l18 162h1024l-18 -162h-421l-164 -1327h-180zM188 -559l209 373h266l-315 -373h-160z" />
    <glyph glyph-name="tcommaaccent" unicode="&#x21b;" 
d="M730 155q128 0 233 37l14 -166q-131 -43 -290 -43q-158 0 -244 93t-63 272l74 607h-286l20 162h287l44 372h181l-45 -372h440l-21 -162h-439l-73 -588q-26 -212 168 -212zM227 -559l209 373h266l-315 -373h-160z" />
    <glyph glyph-name="dotlessj" unicode="&#xf6be;" 
d="M327 -212q252 0 280 225l115 942h-476l20 162h657l-139 -1128q-22 -192 -155 -284t-295 -92t-282 41l56 175q103 -41 219 -41z" />
    <glyph glyph-name="dotlessj" unicode="&#x237;" 
d="M327 -212q252 0 280 225l115 942h-476l20 162h657l-139 -1128q-22 -192 -155 -284t-295 -92t-282 41l56 175q103 -41 219 -41z" />
    <glyph glyph-name="quoteleft" unicode="&#x2018;" 
d="M357 750l479 739h147l-277 -739h-349z" />
    <glyph glyph-name="quoteleft" unicode="&#x2bb;" 
d="M357 750l479 739h147l-277 -739h-349z" />
    <glyph glyph-name="circumflex" unicode="&#x2c6;" 
d="M389 1318l-59 112l337 275h130l274 -275l-86 -112l-274 212z" />
    <glyph glyph-name="caron" unicode="&#x2c7;" 
d="M622 1311l-272 275l86 112l273 -210l322 210l60 -112l-339 -275h-130z" />
    <glyph glyph-name="breve" unicode="&#x2d8;" 
d="M683 1290q-175 0 -275 91t-77 296h177q-14 -135 34 -189t160 -54t173 55t80 188h177q-28 -205 -151 -296t-298 -91z" />
    <glyph glyph-name="dotaccent" unicode="&#x2d9;" 
d="M686 1324q-66 0 -105 23t-30 89t53 90t111 23q67 0 106 -24t30 -90q-9 -67 -54 -89t-111 -22z" />
    <glyph glyph-name="ring" unicode="&#x2da;" 
d="M698 1406q69 0 108 32t49 107l7 60q18 145 -122 145t-157 -145l-8 -60q-17 -139 123 -139zM681 1277q-125 0 -193 65t-50 203l7 60q17 140 101 207q85 67 210 67t193 -67t51 -207l-8 -60q-18 -138 -102 -203t-209 -65z" />
    <glyph glyph-name="ogonek" unicode="&#x2db;" 
d="M521 -208q30 -27 94 -27t148 19l-20 -166q-95 -18 -191 -18t-164 60t-56 154q12 96 86 166t161 104l41 -41q-63 -39 -90 -87q-64 -112 -9 -164z" />
    <glyph glyph-name="tilde" unicode="&#x2dc;" 
d="M823 1322q-63 0 -99 33q-35 34 -61 75q-23 40 -45 74t-55 34q-78 0 -96 -177l-3 -20h-138l4 27q17 140 87 232q71 92 181 92q69 0 110 -38t99 -144q18 -34 50 -34q75 0 98 177l2 21h136l-2 -28q-19 -141 -88 -233q-70 -91 -180 -91z" />
    <glyph glyph-name="hungarumlaut" unicode="&#x2dd;" 
d="M419 1303l140 373h245l-262 -373h-123zM812 1303l141 373h244l-262 -373h-123z" />
    <glyph glyph-name="gravecmb" unicode="&#x300;" horiz-adv-x="0" 
d="M69 1303l-291 373h267l182 -373h-158z" />
    <glyph glyph-name="acutecmb" unicode="&#x301;" horiz-adv-x="0" 
d="M-128 1303l277 373h264l-381 -373h-160z" />
    <glyph glyph-name="circumflexcmb" unicode="&#x302;" horiz-adv-x="0" 
d="M-227 1318l-60 112l337 275h131l273 -275l-85 -112l-274 212z" />
    <glyph glyph-name="tildecmb" unicode="&#x303;" horiz-adv-x="0" 
d="M207 1322q-63 0 -98.5 33.5t-61.5 74.5q-24 41 -45.5 74.5t-54.5 33.5t-60 -38t-36 -139l-4 -20h-137l3 27q17 140 88 232t180 92q69 0 105.5 -33.5t61.5 -74.5t42.5 -74.5t49.5 -33.5q75 0 99 177l2 21h136l-2 -28q-19 -141 -88.5 -232.5t-179.5 -91.5z" />
    <glyph glyph-name="macroncmb" unicode="&#x304;" horiz-adv-x="0" 
d="M-263 1409l21 161h689l-21 -161h-689z" />
    <glyph glyph-name="brevecmb" unicode="&#x306;" horiz-adv-x="0" 
d="M67 1290q-175 0 -275.5 91.5t-76.5 295.5h177q-15 -134 33.5 -188.5t160 -54.5t173 54.5t80.5 188.5h177q-28 -205 -151 -296t-298 -91z" />
    <glyph glyph-name="dotaccentcmb" unicode="&#x307;" horiz-adv-x="0" 
d="M70 1324q-66 0 -105 22.5t-30 88.5q9 67 53 90.5t111 23.5t106 -24t30 -91q-9 -66 -54 -88t-111 -22z" />
    <glyph glyph-name="dieresiscmb" unicode="&#x308;" horiz-adv-x="0" 
d="M328 1549q84 0 70 -108q-5 -71 -42.5 -94t-88.5 -23t-79 22t-21 88t42 90.5t119 24.5zM-128 1324q-51 0 -80.5 23t-20.5 89t43.5 89.5t119.5 23.5t66 -121q-7 -60 -42 -82t-86 -22z" />
    <glyph glyph-name="ringcmb" unicode="&#x30a;" horiz-adv-x="0" 
d="M46.5 1406q104.5 0 143.5 32.5t48 106.5l8 60q18 145 -121 145t-159 -145l-7 -60q-17 -139 87.5 -139zM65 1277q-125 0 -192.5 65.5t-51.5 202.5l8 60q17 140 101.5 207t209 67t192.5 -67t52 -207l-8 -60q-17 -138 -101.5 -203t-209.5 -65z" />
    <glyph glyph-name="hungarumlautcmb" unicode="&#x30b;" horiz-adv-x="0" 
d="M-197 1303l139 373h246l-262 -373h-123zM195 1303l142 373h244l-263 -373h-123z" />
    <glyph glyph-name="caroncmb" unicode="&#x30c;" horiz-adv-x="0" 
d="M6 1311l-272 275l85 112l274 -210l322 210l60 -112l-339 -275h-130z" />
    <glyph glyph-name="commaturnedabovecmb" unicode="&#x312;" horiz-adv-x="0" 
d="M-162 1303l315 373h158l-207 -373h-266z" />
    <glyph glyph-name="commaaccentcmb" unicode="&#x326;" horiz-adv-x="0" 
d="M-393 -559l209 373h266l-315 -373h-160z" />
    <glyph glyph-name="cedillacmb" unicode="&#x327;" horiz-adv-x="0" 
d="M-203 -400q-106 0 -174 43.5t-62 149.5l162 19q-4 -35 17.5 -49t72.5 -14t80 23.5t37 87.5t-8.5 94.5t-64.5 45.5l44 78q84 -17 142.5 -74.5t44.5 -174.5t-99.5 -173t-191.5 -56z" />
    <glyph glyph-name="ogonekcmb" unicode="&#x328;" horiz-adv-x="0" 
d="M-94.5 -207.5q29.5 -27.5 92.5 -27.5t149 19l-20 -166q-95 -18 -191 -18t-164 59t-56 155t86.5 166t160.5 104l41 -41q-111 -69 -123 -179q-5 -44 24.5 -71.5z" />
    <glyph glyph-name="tonos" unicode="&#x384;" 
d="M557 1303l173 373h249l-281 -373h-141z" />
    <glyph glyph-name="dieresistonos" unicode="&#x385;" 
d="M988 1305q-42 0 -67 23t-16 88q9 66 39 89t73 23q101 1 81 -119q-8 -61 -38 -83t-72 -21zM381 1305q-42 0 -67 23t-16 88q9 66 39 89t73 24q97 0 83 -108q-6 -72 -38 -94t-74 -22zM573 1303l125 373h211l-226 -373h-110z" />
    <glyph glyph-name="Alphatonos" unicode="&#x386;" 
d="M869 0l-63 434h-460l-171 -434h-182l620 1489h191l255 -1489h-190zM782 594l-99 689l-273 -689h372zM127 1303l173 373h249l-281 -373h-141z" />
    <glyph glyph-name="anoteleia" unicode="&#x387;" 
d="M602 544q-87 0 -136 42t-38 131l6 46q11 91 71 134q59 43 147 43t135 -43t36 -134l-6 -46q-11 -89 -69 -131t-146 -42z" />
    <glyph glyph-name="Epsilontonos" unicode="&#x388;" 
d="M93 0l183 1489h895l-19 -162h-714l-54 -435h629l-21 -162h-629l-69 -568h715l-20 -162h-896zM-112 1303l173 373h250l-281 -373h-142z" />
    <glyph glyph-name="Etatonos" unicode="&#x389;" 
d="M93 0l183 1489h180l-72 -599h502l73 599h180l-182 -1489h-181l90 728h-503l-89 -728h-181zM-130 1303l173 373h249l-281 -373h-141z" />
    <glyph glyph-name="Iotatonos" unicode="&#x38a;" 
d="M93 0l21 162h342l144 1165h-343l19 162h863l-18 -162h-341l-143 -1165h340l-20 -162h-864zM-130 1303l173 373h249l-281 -373h-141z" />
    <glyph glyph-name="Omicrontonos" unicode="&#x38c;" 
d="M549 143q155 0 229 82t99 280l58 472q26 201 -28 285t-209 84t-229 -84t-100 -285l-58 -472q-25 -197 29 -279t209 -83zM531 -19q-227 0 -329 135q-101 135 -72 390l58 470q34 260 169 396t361 136t328 -136t69 -396l-57 -470q-30 -255 -165 -390t-362 -135zM19 1303
l173 373h249l-281 -373h-141z" />
    <glyph glyph-name="Upsilontonos" unicode="&#x38e;" 
d="M616 0h-180l69 559l-371 930h199l291 -761l460 761h195l-594 -930zM-179 1303l173 373h250l-281 -373h-142z" />
    <glyph glyph-name="Omegatonos" unicode="&#x38f;" 
d="M709 1508q237 0 343 -135t73 -396l-27 -225q-44 -337 -271 -413l-21 -175h220l-21 -164h-396l52 428q128 24 184 105t73 219l26 225q26 201 -32 285t-222 84t-241 -84q-78 -84 -105 -285l-26 -225q-18 -138 18 -219t157 -105l-52 -428h-396l20 164h220l20 175
q-213 78 -167 413l26 225q69 531 545 531zM-26 1303l173 373h250l-282 -373h-141z" />
    <glyph glyph-name="iotadieresistonos" unicode="&#x390;" 
d="M990 34q-92 -43 -235 -43q-142 0 -221 95q-78 95 -57 262l74 607h-370l20 162h551l-95 -774q-26 -188 144 -188q101 0 175 35zM971 1305q-42 0 -67 23t-16 88q9 66 39 89t73 23q102 1 82 -119q-7 -61 -38 -83t-73 -21zM364 1305q-42 0 -67 23t-16 88q9 66 39 89t73 23
q102 1 82 -119q-7 -61 -38 -83t-73 -21zM557 1303l124 373h211l-225 -373h-110z" />
    <glyph glyph-name="Alpha" unicode="&#x391;" 
d="M869 0l-63 434h-460l-171 -434h-182l620 1489h191l255 -1489h-190zM782 594l-99 689l-273 -689h372z" />
    <glyph glyph-name="Beta" unicode="&#x392;" 
d="M588 162q128 0 195 57q66 57 81 181l7 58q15 125 -37 181t-181 55h-294l-65 -532h294zM640 855q119 0 181 49q61 49 75 161l7 50q13 112 -35 162t-168 50h-262l-60 -472h262zM706 1489q212 -1 305 -87t71 -263l-11 -85q-11 -94 -70 -158t-152 -81l-7 -54q112 -11 170 -92
t40 -207l-9 -82q-48 -380 -509 -380h-441l183 1489h430z" />
    <glyph glyph-name="Gamma" unicode="&#x393;" 
d="M99 0l182 1489h892l-19 -162h-711l-164 -1327h-180z" />
    <glyph glyph-name="Delta" unicode="&#x394;" 
d="M896 162l-213 1138l-495 -1138h708zM-6 0l21 162l588 1327h196l277 -1327l-20 -162h-1062z" />
    <glyph glyph-name="Epsilon" unicode="&#x395;" 
d="M93 0l183 1489h895l-19 -162h-714l-54 -435h629l-21 -162h-629l-69 -568h715l-20 -162h-896z" />
    <glyph glyph-name="Zeta" unicode="&#x396;" 
d="M989 0h-928l21 162l860 1165h-717l19 162h927l-19 -162l-860 -1165h717z" />
    <glyph glyph-name="Eta" unicode="&#x397;" 
d="M93 0l183 1489h180l-72 -599h502l73 599h180l-182 -1489h-181l90 728h-503l-89 -728h-181z" />
    <glyph glyph-name="Theta" unicode="&#x398;" 
d="M443 672l21 164h333l-21 -164h-333zM542 143q177 0 260.5 82t107.5 278l60 476q24 199 -39 283t-240 84t-261 -83.5t-108 -283.5l-59 -476q-24 -195 39 -277.5t240 -82.5zM523 -19q-246 0 -357.5 134t-79.5 390l57 472q34 261 178 396t389 135t357.5 -135t79.5 -396
l-58 -472q-32 -255 -176 -389.5t-390 -134.5z" />
    <glyph glyph-name="Iota" unicode="&#x399;" 
d="M93 0l21 162h342l144 1165h-343l19 162h863l-18 -162h-341l-143 -1165h340l-20 -162h-864z" />
    <glyph glyph-name="Kappa" unicode="&#x39a;" 
d="M361 711l-87 -711h-181l183 1489h180l-74 -616h57l592 616h207l-666 -685l478 -804h-212l-414 711h-63z" />
    <glyph glyph-name="Lambda" unicode="&#x39b;" 
d="M869 0l-186 1283l-508 -1283h-182l620 1489h191l255 -1489h-190z" />
    <glyph glyph-name="Mu" unicode="&#x39c;" 
d="M486 367l-140 836l-143 -1203h-162l182 1489h235l145 -901l363 901h226l-183 -1489h-162l151 1203l-345 -836h-167z" />
    <glyph glyph-name="Nu" unicode="&#x39d;" 
d="M704 0l-294 1266l-155 -1266h-162l183 1489h242l303 -1284l156 1284h162l-182 -1489h-253z" />
    <glyph glyph-name="Xi" unicode="&#x39e;" 
d="M61 0l21 162h927l-20 -162h-928zM194 730l20 162h842l-21 -162h-841zM225 1327l19 162h927l-19 -162h-927z" />
    <glyph glyph-name="Omicron" unicode="&#x39f;" 
d="M542 143q155 0 229 82t98 280l58 472q26 201 -28 285q-55 84 -209 84t-228 -84t-101 -285l-58 -472q-24 -197 30 -279t209 -83zM523 -19q-227 0 -328 135t-72 390l58 470q35 260 169 396t360 136t328 -136t70 -396l-58 -470q-30 -255 -165 -390t-362 -135z" />
    <glyph glyph-name="Pi" unicode="&#x3a0;" 
d="M93 0l183 1489h863l-182 -1489h-181l164 1327h-502l-164 -1327h-181z" />
    <glyph glyph-name="Rho" unicode="&#x3a1;" 
d="M655 683q136 0 201 54t82 183l21 171q15 128 -36 182t-188 54h-297l-81 -644h298zM760 1489q218 -1 311 -97t68 -295l-20 -177q-26 -201 -143 -298t-336 -97h-301l-65 -525h-181l183 1489h484z" />
    <glyph glyph-name="Sigma" unicode="&#x3a3;" 
d="M987 0h-940l20 162l674 605l-531 560l19 162h940l-18 -162h-708l443 -482l-18 -141l-589 -542h728z" />
    <glyph glyph-name="Tau" unicode="&#x3a4;" 
d="M436 0l164 1327h-423l18 162h1024l-18 -162h-421l-164 -1327h-180z" />
    <glyph glyph-name="Upsilon" unicode="&#x3a5;" 
d="M616 0h-180l69 559l-371 930h199l291 -761l460 761h195l-594 -930z" />
    <glyph glyph-name="Phi" unicode="&#x3a6;" 
d="M426 330h60l100 830h-59q-106 0 -161 -76t-76 -254l-22 -178q-20 -174 16 -248t142 -74zM808 1160h-61l-101 -830h61q104 0 160 74q55 74 75 248l22 178q20 177 -15 254q-37 76 -141 76zM687 168h-52l-22 -187h-177l22 187h-52q-192 0 -267 130t-48 354l23 178
q28 228 135 360t298 132h53l22 186h177l-23 -186h53q192 0 266 -132t46 -360l-22 -178q-28 -224 -134 -354t-298 -130z" />
    <glyph glyph-name="Chi" unicode="&#x3a7;" 
d="M883 0l-282 601l-432 -601h-206l564 760l-341 729h207l268 -569l408 569h204l-541 -728l353 -761h-202z" />
    <glyph glyph-name="Psi" unicode="&#x3a8;" 
d="M614 0h-176l44 361q-192 22 -268 148t-52 329l80 651h169l-80 -653q-17 -145 22.5 -218.5t149.5 -90.5l117 962h177l-117 -962q114 15 170.5 89.5t72.5 219.5l81 653h169l-80 -651q-24 -203 -132 -328.5t-302 -148.5z" />
    <glyph glyph-name="Omega" unicode="&#x3a9;" 
d="M709.5 1508q238.5 0 343.5 -135t72 -396l-27 -225q-44 -337 -271 -413l-21 -175h220l-21 -164h-396l52 428q128 24 184 105t73 219l26 225q26 201 -31.5 285t-221.5 84t-242 -83.5t-105 -285.5l-26 -225q-17 -138 18.5 -219t156.5 -105l-52 -428h-396l20 164h220l20 175
q-213 78 -167 413l26 225q34 261 170.5 396t375 135z" />
    <glyph glyph-name="Iotadieresis" unicode="&#x3aa;" 
d="M93 0l21 162h342l144 1165h-343l19 162h863l-18 -162h-341l-143 -1165h340l-20 -162h-864zM954 1921q52 0 81 -24q30 -24 19 -97q-12 -104 -130 -104q-51 0 -80 22t-19 89q9 67 43 91t86 23zM530 1696q-51 0 -81 23t-21 89q10 66 44 90t86 23q52 0 81 -23q28 -23 18 -91
t-43 -90q-33 -21 -84 -21z" />
    <glyph glyph-name="Upsilondieresis" unicode="&#x3ab;" 
d="M616 0h-180l69 559l-371 930h199l291 -761l460 761h195l-594 -930zM954 1921q52 0 81 -24q30 -24 19 -97q-12 -104 -130 -104q-51 0 -80 22t-19 89q9 67 43 91t86 23zM530 1696q-51 0 -81 23t-21 89q10 66 44 90t86 23q52 0 81 -23q28 -23 18 -91t-43 -90
q-33 -21 -84 -21z" />
    <glyph glyph-name="alphatonos" unicode="&#x3ac;" 
d="M391 -19q-143 0 -216 108t-48 308l41 325q24 197 123 306q100 108 241 108q94 0 160 -50t96 -142h50l22 173h181l-103 -825q-11 -97 27 -123t128 -9l-21 -166q-144 -19 -218 26t-68 170h-51q-58 -101 -147 -155t-197 -54zM456 153q84 1 157 47t150 141l54 435
q-56 95 -116 142q-61 46 -147 46q-174 -1 -204 -258l-37 -293q-29 -260 143 -260zM644 1303l173 373h250l-281 -373h-142z" />
    <glyph glyph-name="epsilontonos" unicode="&#x3ad;" 
d="M524 -19q-232 0 -338 81t-84 251q13 112 88 184q74 71 210 80l6 41q-110 6 -166 58t-45 141l2 25q19 150 135 222t330 72t308 -80q93 -80 86 -254l-179 -14q2 106 -50 148q-51 42 -183 42t-194 -34t-72 -112l-4 -26q-7 -69 45 -99t184 -29h97l-19 -147h-96
q-149 0 -218 -42q-69 -41 -82 -151t47 -155q61 -43 209 -43t217 46t97 164l175 -13q-34 -188 -154 -272t-352 -84zM559 1303l173 373h249l-281 -373h-141z" />
    <glyph glyph-name="etatonos" unicode="&#x3ae;" 
d="M708 964q-168 0 -339 -186l-95 -778h-179l138 1117h178l-22 -173h52q53 88 143 140t194 52q146 0 220 -93t54 -250l-143 -1165h-179l139 1124q13 106 -29 159t-132 53zM564 1303l173 373h250l-281 -373h-142z" />
    <glyph glyph-name="iotatonos" unicode="&#x3af;" 
d="M990 34q-92 -43 -235 -43q-142 0 -221 95q-78 95 -57 262l74 607h-370l20 162h551l-95 -774q-26 -188 144 -188q101 0 175 35zM549 1303l173 373h250l-281 -373h-142z" />
    <glyph glyph-name="upsilondieresistonos" unicode="&#x3b0;" 
d="M523 -19q-209 -1 -307 105t-73 303l90 728h178l-89 -730q-17 -130 35 -187q53 -57 185 -57t199 57t84 187l89 730h179l-89 -728q-24 -197 -148 -303t-333 -105zM988 1305q-42 0 -67 23t-16 88q9 66 39 89t73 23q101 1 81 -119q-8 -61 -38 -83t-72 -21zM381 1305
q-42 0 -67 23t-16 88q9 66 39 89t73 24q97 0 83 -108q-6 -72 -38 -94t-74 -22zM573 1303l125 373h211l-226 -373h-110z" />
    <glyph glyph-name="alpha" unicode="&#x3b1;" 
d="M391 -19q-143 0 -216 108t-48 308l41 325q24 197 123.5 305.5t240.5 108.5q95 0 160.5 -50.5t95.5 -141.5h50l22 173h181l-103 -825q-11 -97 27.5 -123t127.5 -9l-21 -166q-143 -19 -217.5 26t-68.5 170h-51q-58 -101 -147 -155t-197 -54zM456 153q84 0 156.5 46.5
t150.5 141.5l54 435q-56 95 -116.5 141.5t-146.5 46.5q-174 0 -204 -258l-37 -293q-29 -260 143 -260z" />
    <glyph glyph-name="beta" unicode="&#x3b2;" 
d="M514 -19q-122 0 -237 54l-50 -407h-179l179 1452q28 218 152.5 323t302.5 105t279.5 -96t79.5 -271l-6 -50q-29 -221 -221 -257l-8 -54q114 -13 168 -90t43 -184l-12 -96q-28 -222 -173 -325.5t-318 -103.5zM528 140q132 0 205 65t90 205l9 80q15 114 -41.5 168.5
t-185.5 54.5h-84l21 160h72q216 0 242 203l4 34q29 236 -197 236t-255 -259l-108 -877q96 -70 228 -70z" />
    <glyph glyph-name="gamma" unicode="&#x3b3;" 
d="M586 -372h-215l68 409l-253 1080h198l180 -849l386 849h188l-518 -1080z" />
    <glyph glyph-name="delta" unicode="&#x3b4;" 
d="M542 143q125 0 195.5 60t87.5 195l26 203q11 101 -51.5 156t-240.5 107q-190 -83 -215 -283l-22 -183q-17 -136 39 -195.5t181 -59.5zM523.5 -19q-193.5 0 -301 102.5t-81.5 314.5l23 183q15 114 90.5 197.5t192.5 133.5q-97 50 -132.5 112.5t-24.5 159.5q37 305 412 305
h318l-18 -162h-319q-106 0 -160 -27.5t-63 -101.5t38.5 -110t235.5 -101t252 -150t45 -236l-26 -203q-26 -212 -157 -314.5t-324.5 -102.5z" />
    <glyph glyph-name="epsilon" unicode="&#x3b5;" 
d="M524 -19q-232 0 -338 81t-84 251q13 112 87.5 183.5t210.5 80.5l6 41q-110 7 -166 58.5t-45 140.5l2 25q19 151 135.5 222.5t330.5 71.5t307 -80t86 -254l-179 -14q2 106 -49.5 147.5t-183.5 41.5t-194.5 -33.5t-71.5 -111.5l-4 -26q-7 -69 45 -98.5t184 -29.5h97
l-19 -147h-96q-149 0 -218 -41.5t-82 -151.5t47.5 -154t208.5 -44t217 46.5t97 163.5l175 -13q-35 -188 -154.5 -272t-351.5 -84z" />
    <glyph glyph-name="zeta" unicode="&#x3b6;" 
d="M579 -372h-192l21 163h216q63 0 102 23.5t48.5 98t-24 98.5t-97.5 24h-143q-210 0 -300.5 124t-69.5 297q28 221 208 410l292 303l-7 26q-186 -19 -280 71.5t-111 239.5l156 30q9 -123 112 -169.5t265 -1.5l353 164l47 -202l-279 -87l-406 -441q-149 -163 -168 -330
q-15 -123 36.5 -196.5t172.5 -73.5h145q140 0 214 -68.5t56 -212.5t-117 -217t-250 -73z" />
    <glyph glyph-name="eta" unicode="&#x3b7;" 
d="M708 964q-168 0 -339 -186l-95 -778h-179l138 1117h178l-22 -173h52q52 88 142.5 140t194.5 52q145 0 219.5 -93t54.5 -250l-143 -1165h-179l139 1124q13 106 -29 159t-132 53z" />
    <glyph glyph-name="theta" unicode="&#x3b8;" 
d="M541.5 143q128.5 0 198.5 62.5t87 196.5l31 270h-502l-32 -270q-17 -134 36 -196.5t181.5 -62.5zM690.5 1346q-128.5 0 -198 -65t-86.5 -203l-30 -242h503l30 242q17 136 -36.5 202t-182 66zM523.5 -19q-197.5 0 -301 105.5t-77.5 317.5l82 674q26 216 155.5 323
t327.5 107t300.5 -107t76.5 -323l-82 -674q-26 -212 -155 -317.5t-326.5 -105.5z" />
    <glyph glyph-name="iota" unicode="&#x3b9;" 
d="M990 34q-92 -43 -235 -43q-142 0 -221 95q-78 95 -57 262l74 607h-370l20 162h551l-95 -774q-26 -188 144 -188q101 0 175 35z" />
    <glyph glyph-name="kappa" unicode="&#x3ba;" 
d="M419 510l-63 -510h-181l138 1117h180l-55 -454h85l382 454h216l-466 -519l322 -598h-204l-268 510h-86z" />
    <glyph glyph-name="lambda" unicode="&#x3bb;" 
d="M417 1499q285 0 337 -266l246 -1233h-196l-164 964l-402 -964h-190l496 1126h67l-6 39q-27 176 -178 176q-76 0 -178 -23l-11 160q112 21 179 21z" />
    <glyph glyph-name="mu" unicode="&#x3bc;" 
d="M452 -19q-108 0 -167 90l-6 -34l-33 -409h-214l67 409l134 1080h180l-93 -756q-15 -112 36.5 -160t129.5 -48t138.5 37t118.5 104l102 823h181l-103 -825q-11 -99 26.5 -125t126.5 -7l-20 -166q-254 -40 -246 194h-35q-54 -89 -134.5 -148t-188.5 -59z" />
    <glyph glyph-name="nu" unicode="&#x3bd;" 
d="M1138 1117q-125 -557 -520 -1117h-188l-244 1117h188l190 -981q292 477 397 981h177z" />
    <glyph glyph-name="xi" unicode="&#x3be;" 
d="M611 -372h-188l20 163h212q63 0 102.5 23.5t48.5 98t-24.5 98.5t-96.5 24h-177q-188 0 -286.5 94t-80.5 255l8 50q13 115 99.5 201.5t237.5 99.5l6 43q-97 0 -141.5 57t-34.5 134q19 155 170 217l6 43q-151 9 -232 82.5t-96 194.5l156 30q13 -91 126 -134t271 -21
l363 148l46 -202l-381 -100l-93 -54q-141 -86 -153 -194q-11 -80 22.5 -111.5t91.5 -31.5h323l-20 -164h-322q-125 0 -188 -61.5t-75 -148.5l-5 -51q-11 -95 38 -153.5t172 -58.5h171q140 0 214.5 -68.5t56.5 -212.5t-116.5 -217t-250.5 -73z" />
    <glyph glyph-name="omicron" unicode="&#x3bf;" 
d="M542 143q126 0 196 60t87 188l39 328q33 253 -220 255q-126 0 -196 -62t-87 -193l-39 -328q-17 -128 38 -188t182 -60zM523 -19q-207 1 -305 107t-75 303l39 328q26 199 151 308t332 109t305 -109t73 -308l-39 -326q-24 -199 -149 -305t-332 -107z" />
    <glyph glyph-name="pi" unicode="&#x3c0;" 
d="M1143 1117l-20 -162h-201l-82 -663q-11 -95 27 -122t161 -10l-21 -166q-201 -19 -285.5 35.5t-69.5 188.5l91 737h-287l-117 -955h-179l117 955h-167l20 162h1013z" />
    <glyph glyph-name="rho" unicode="&#x3c1;" 
d="M666 1136q196 0 299.5 -104.5t77.5 -312.5l-39 -324q-24 -199 -128.5 -306.5t-255.5 -107.5q-101 0 -172.5 50.5t-101.5 141.5h-52l-67 -545h-179l134 1091q26 209 157 313t327 104zM864 719q34 255 -217.5 255t-285.5 -255l-46 -378q115 -188 279 -188q203 0 233 258z
" />
    <glyph glyph-name="sigma1" unicode="&#x3c2;" 
d="M629 -210q63 0 102.5 24t48.5 98.5t-24.5 98.5t-96.5 24h-145q-220 0 -303.5 109t-57.5 320l29 251q53 421 475 421q216 0 301 -98t72 -303l-168 -11q9 136 -41.5 193t-178.5 57t-196 -59t-83 -187l-35 -285q-15 -128 35 -187t177 -59h145q140 0 212.5 -68.5t54.5 -212.5
t-117.5 -216t-251.5 -72h-188l20 162h214z" />
    <glyph glyph-name="sigma" unicode="&#x3c3;" 
d="M489 -19q-178 0 -275 100.5t-71 309.5l38 307q24 203 147.5 311t302.5 108h629l-22 -181l-365 32q123 -95 97 -303l-34 -274q-26 -209 -147.5 -309.5t-299.5 -100.5zM508 143q108 0 169.5 58t78.5 190l32 268q37 294 -179.5 294t-249.5 -253l-37 -309q-17 -132 30.5 -190
t155.5 -58z" />
    <glyph glyph-name="tau" unicode="&#x3c4;" 
d="M821 -6q-210 -19 -293 32.5t-66 191.5l91 737h-343l21 162h881l-21 -162h-357l-82 -674q-11 -84 29 -110t161 -11z" />
    <glyph glyph-name="upsilon" unicode="&#x3c5;" 
d="M523.5 -19q-208.5 0 -306.5 105.5t-74 302.5l90 728h178l-89 -730q-17 -130 35.5 -187t184.5 -57t199 57t84 187l89 730h179l-89 -728q-24 -197 -148 -302.5t-332.5 -105.5z" />
    <glyph glyph-name="phi" unicode="&#x3c6;" 
d="M724 974l-102 -844q258 38 296 347l15 119q47 378 -209 378zM747 1117q186 0 283.5 -127.5t64.5 -393.5l-15 -119q-26 -222 -155.5 -346t-319.5 -146l-45 -357h-163l44 357q-190 22 -285.5 146t-69.5 340l22 177q36 294 181 503l149 -60q-135 -196 -166 -443l-23 -177
q-38 -303 213 -341l121 987h164z" />
    <glyph glyph-name="chi" unicode="&#x3c7;" 
d="M715 -372l-183 567l-335 -567h-175l456 737l-242 752h179l188 -575l341 575h175l-462 -745l240 -744h-182z" />
    <glyph glyph-name="psi" unicode="&#x3c8;" 
d="M441 -13q-408 37 -361 439l86 691h164l-86 -693q-17 -130 35 -196t185 -79l119 968h162l-119 -968q134 13 201 79t83 196l86 693h164l-86 -691q-22 -190 -138.5 -305t-330.5 -134l-45 -359h-163z" />
    <glyph glyph-name="omega" unicode="&#x3c9;" 
d="M281 -19q-114 0 -170.5 112t-30.5 326l22 188q20 168 70.5 317.5t101.5 224.5l147 -60q-35 -63 -85.5 -198t-69.5 -284l-22 -188q-34 -276 93 -276q63 0 100.5 51.5t52.5 170.5l61 493h162l-61 -493q-15 -119 8 -170.5t120.5 -51.5t129.5 276l23 188q19 149 2 284
t-38 198l162 60q32 -74 45 -224t-7 -318l-23 -188q-26 -214 -110.5 -326t-198.5 -112q-80 0 -135 56t-68 183h-22q-41 -127 -110 -183t-149 -56z" />
    <glyph glyph-name="iotadieresis" unicode="&#x3ca;" 
d="M990 34q-92 -43 -235 -43q-142 0 -221 95q-78 95 -57 262l74 607h-370l20 162h551l-95 -774q-26 -188 144 -188q101 0 175 35zM876 1324q-51 0 -80 23t-20 89t43 90t86 23q52 0 81 -23t19 -91t-44 -90q-34 -21 -85 -21zM481 1324q-51 0 -81 22t-20 89t44 91t86 23
q52 0 81 -24t20 -90q-9 -67 -44 -89t-86 -22z" />
    <glyph glyph-name="upsilondieresis" unicode="&#x3cb;" 
d="M523 -19q-209 -1 -307 105t-73 303l90 728h178l-89 -730q-17 -130 35 -187q53 -57 185 -57t199 57t84 187l89 730h179l-89 -728q-24 -197 -148 -303t-333 -105zM883 1324q-51 0 -80 22t-19 89q9 67 43 91q33 24 85 23q52 0 82 -24t19 -97q-12 -104 -130 -104zM489 1324
q-51 0 -81 23t-21 89t43 90t88 23q52 0 80 -23t18 -91t-43 -90q-33 -21 -84 -21z" />
    <glyph glyph-name="omicrontonos" unicode="&#x3cc;" 
d="M542 143q126 0 196 60t87 188l39 328q33 253 -220 255q-126 0 -196 -62t-87 -193l-39 -328q-17 -128 38 -188t182 -60zM523 -19q-207 1 -305 107t-75 303l39 328q26 199 151 308t332 109t305 -109t73 -308l-39 -326q-24 -199 -149 -305t-332 -107zM557 1303l173 373h249
l-281 -373h-141z" />
    <glyph glyph-name="upsilontonos" unicode="&#x3cd;" 
d="M523 -19q-209 -1 -307 105t-73 303l90 728h178l-89 -730q-17 -130 35 -187q53 -57 185 -57t199 57t84 187l89 730h179l-89 -728q-24 -197 -148 -303t-333 -105zM557 1303l173 373h249l-281 -373h-141z" />
    <glyph glyph-name="omegatonos" unicode="&#x3ce;" 
d="M281 -19q-115 0 -171 112t-30 326l22 188q20 167 70 317t102 225l147 -60q-35 -63 -85 -198t-70 -284l-22 -188q-34 -276 93 -276q63 -1 101 51t52 171l61 493h162l-61 -493q-15 -119 8 -170q22 -51 86 -51q131 -1 164 275l23 188q19 149 2 284t-38 198l162 60
q32 -75 45 -225t-7 -317l-23 -188q-26 -214 -111 -326t-198 -112q-80 0 -135 56t-68 183h-22q-41 -127 -110 -183t-149 -56zM573 1303l174 373h249l-281 -373h-142z" />
    <glyph glyph-name="IEgravecyrillic" unicode="&#x400;" 
d="M93 0l183 1489h895l-19 -162h-714l-54 -435h629l-21 -162h-629l-69 -568h715l-20 -162h-896zM773 1676l-291 372h266l183 -372h-158z" />
    <glyph glyph-name="Iocyrillic" unicode="&#x401;" 
d="M93 0l183 1489h895l-19 -162h-714l-54 -435h629l-21 -162h-629l-69 -568h715l-20 -162h-896zM975 1696q-51 0 -80 23t-20 89t43 90t86 23q52 0 81 -23t19 -91t-44 -90q-34 -21 -85 -21zM580 1696q-51 0 -81 23t-21 89q10 66 44 90t86 23q52 0 81 -23q28 -23 18 -91
t-43 -90q-33 -21 -84 -21z" />
    <glyph glyph-name="Djecyrillic" unicode="&#x402;" 
d="M745 968q396 0 348 -389l-22 -188q-48 -391 -445 -391l18 158q104 0 167.5 52.5t80.5 184.5l22 180q17 130 -34 182.5t-156 52.5h-216l-98 -810h-181l164 1327h-253l18 162h851l-19 -162h-417l-44 -359h216z" />
    <glyph glyph-name="Gjecyrillic" unicode="&#x403;" 
d="M99 0l182 1489h892l-19 -162h-711l-164 -1327h-180zM605 1676l278 372h264l-382 -372h-160z" />
    <glyph glyph-name="Ecyrillic" unicode="&#x404;" 
d="M730 1508q453 0 417 -503l-183 -18q9 197 -48.5 278t-215.5 81t-235.5 -83t-101.5 -284l-11 -87h380l-21 -162h-380l-28 -227q-24 -197 34 -278.5t216 -81.5t236.5 79.5t115.5 272.5l177 -18q-87 -496 -540 -496q-238 0 -344.5 132.5t-74.5 391.5l58 472q69 531 549 531z
" />
    <glyph glyph-name="Dzecyrillic" unicode="&#x405;" 
d="M674 1497q312 0 464 -220l-118 -134q-65 95 -163 143t-207 49q-108 0 -180 -51q-72 -50 -84 -154t52 -161t280 -130t294 -163t57 -252q-25 -210 -179 -324t-348 -113q-333 0 -494 222l121 130q138 -190 403 -190q128 0 214 65t100 174t-48 166q-61 56 -277 132t-298 168
t-61 267q20 175 154 275t318 101z" />
    <glyph glyph-name="Icyrillic" unicode="&#x406;" 
d="M93 0l21 162h342l144 1165h-343l19 162h863l-18 -162h-341l-143 -1165h340l-20 -162h-864z" />
    <glyph glyph-name="Yicyrillic" unicode="&#x407;" 
d="M93 0l21 162h342l144 1165h-343l19 162h863l-18 -162h-341l-143 -1165h340l-20 -162h-864zM954 1921q52 0 81 -24q30 -24 19 -97q-12 -104 -130 -104q-51 0 -80 22t-19 89q9 67 43 91t86 23zM530 1696q-51 0 -81 23t-21 89q10 66 44 90t86 23q52 0 81 -23q28 -23 18 -91
t-43 -90q-33 -21 -84 -21z" />
    <glyph glyph-name="Jecyrillic" unicode="&#x408;" 
d="M488 -19q-229 1 -326 119t-78 375l184 20q-13 -210 36 -281t198 -71t230 80q80 80 100 246l106 858h-344l19 162h525l-125 -1018q-30 -238 -163 -364t-362 -126z" />
    <glyph glyph-name="Ljecyrillic" unicode="&#x409;" 
d="M707 164q82 0 134.5 53t67.5 183l20 166q17 132 -22 185t-121 53h-79l-78 -640h78zM810 964q329 0 281 -396l-20 -173q-48 -395 -378 -395h-248l162 1326h-199l-142 -1017q-22 -168 -94.5 -244t-169.5 -76q-40 -3 -106 18l54 164q38 -15 65 -16t53.5 33.5t39.5 129.5
l164 1171h519l-63 -525h82z" />
    <glyph glyph-name="Njecyrillic" unicode="&#x40a;" 
d="M819 964q320 0 272 -396l-20 -173q-48 -395 -369 -395h-257l89 728h-255l-89 -728h-162l182 1489h162l-72 -599h255l72 599h164l-63 -525h91zM719 164q163 0 190 236l20 166q17 132 -19.5 185t-112.5 53h-90l-78 -640h90z" />
    <glyph glyph-name="Tshecyrillic" unicode="&#x40b;" 
d="M737 910q398 0 348 -389l-63 -521h-180l63 518q15 127 -27 181.5t-159 54.5h-233l-93 -754h-181l164 1327h-251l18 162h851l-18 -162h-419l-52 -417h232z" />
    <glyph glyph-name="Kjecyrillic" unicode="&#x40c;" 
d="M361 711l-87 -711h-181l183 1489h180l-74 -616h57l592 616h207l-666 -685l478 -804h-212l-414 711h-63zM646 1676l277 372h265l-382 -372h-160z" />
    <glyph glyph-name="Igravecyrillic" unicode="&#x40d;" 
d="M795 0l155 1266l-604 -1266h-253l183 1489h162l-157 -1284l616 1284h242l-182 -1489h-162zM707 1676l-290 372h266l183 -372h-159z" />
    <glyph glyph-name="Ushortcyrillic" unicode="&#x40e;" 
d="M303 160q133 0 218 207h-65l-274 1122h181l227 -979l468 979h173l-587 -1200q-82 -167 -180 -229t-211 -62q-38 0 -147 19l49 162q82 -19 148 -19zM724 1663q-152 1 -248 83t-74 285l181 19q-15 -132 19 -188t140 -56t154 56q47 56 67 188l173 -19q-26 -203 -144 -285
t-268 -83z" />
    <glyph glyph-name="Dzhecyrillic" unicode="&#x40f;" 
d="M402 -279l34 279h-343l183 1489h180l-162 -1327h503l162 1327h180l-182 -1489h-341l-33 -279h-181z" />
    <glyph glyph-name="Acyrillic" unicode="&#x410;" 
d="M869 0l-63 434h-460l-171 -434h-182l620 1489h191l255 -1489h-190zM782 594l-99 689l-273 -689h372z" />
    <glyph glyph-name="Becyrillic" unicode="&#x411;" 
d="M570 162q136 0 200 55t79 183l9 71q15 127 -35 181t-186 54h-276l-67 -544h276zM689 864q192 0 283 -95t71 -270l-13 -108q-24 -188 -139.5 -289.5t-305.5 -101.5h-492l183 1489h819l-19 -162h-638l-58 -463h309z" />
    <glyph glyph-name="Vecyrillic" unicode="&#x412;" 
d="M588 162q128 0 195 57q66 57 81 181l7 58q15 125 -37 181t-181 55h-294l-65 -532h294zM640 855q119 0 181 49q61 49 75 161l7 50q13 112 -35 162t-168 50h-262l-60 -472h262zM706 1489q212 -1 305 -87t71 -263l-11 -85q-11 -94 -70 -158t-152 -81l-7 -54q112 -11 170 -92
t40 -207l-9 -82q-48 -380 -509 -380h-441l183 1489h430z" />
    <glyph glyph-name="Gecyrillic" unicode="&#x413;" 
d="M99 0l182 1489h892l-19 -162h-711l-164 -1327h-180z" />
    <glyph glyph-name="Decyrillic" unicode="&#x414;" 
d="M123 0l-34 -279h-178l54 441h104q122 91 166 413l117 914h750l-162 -1327h170l-54 -441h-179l33 279h-787zM274 209l-6 -47h493l144 1165h-400l-99 -763q-17 -128 -42 -212.5t-90 -142.5z" />
    <glyph glyph-name="Iecyrillic" unicode="&#x415;" 
d="M93 0l183 1489h895l-19 -162h-714l-54 -435h629l-21 -162h-629l-69 -568h715l-20 -162h-896z" />
    <glyph glyph-name="Zhecyrillic" unicode="&#x416;" 
d="M465 721l-353 -721h-177l411 804l-225 685h168l193 -625h71l76 625h160l-76 -625h71l344 625h168l-393 -685l212 -804h-175l-173 721h-71l-89 -721h-160l89 721h-71z" />
    <glyph glyph-name="Zecyrillic" unicode="&#x417;" 
d="M523 -19q-244 0 -343.5 101.5t-84.5 319.5l182 19q-7 -156 50.5 -218.5t209.5 -62.5t227.5 60.5t93.5 203.5l6 50q17 143 -38 200t-213 57h-172l21 162h171q140 0 199.5 45t74.5 156l7 60q15 117 -40 166.5t-190 49.5t-197.5 -57t-93.5 -196l-177 18q37 205 152.5 299
t325.5 94t316.5 -91t84.5 -285l-8 -61q-15 -112 -94 -176.5t-204 -73.5l-5 -54q147 -13 211 -100.5t49 -212.5l-5 -50q-26 -205 -149 -314t-367 -109z" />
    <glyph glyph-name="Iicyrillic" unicode="&#x418;" 
d="M795 0l155 1266l-604 -1266h-253l183 1489h162l-157 -1284l616 1284h242l-182 -1489h-162z" />
    <glyph glyph-name="Iishortcyrillic" unicode="&#x419;" 
d="M795 0l155 1266l-604 -1266h-253l183 1489h162l-157 -1284l616 1284h242l-182 -1489h-162zM741 1663q-151 1 -248 83t-74 285l181 19q-15 -132 19 -188q35 -56 141 -56t153 56t66 188l173 -19q-26 -203 -143 -285t-268 -83z" />
    <glyph glyph-name="Kacyrillic" unicode="&#x41a;" 
d="M361 711l-87 -711h-181l183 1489h180l-74 -616h57l592 616h207l-666 -685l478 -804h-212l-414 711h-63z" />
    <glyph glyph-name="Elcyrillic" unicode="&#x41b;" 
d="M63 141q78 0 123 76.5t67 244.5l132 1027h754l-182 -1489h-181l164 1327h-400l-116 -889q-30 -233 -123.5 -345t-237.5 -112q-72 0 -141 23l50 158q61 -21 91 -21z" />
    <glyph glyph-name="Emcyrillic" unicode="&#x41c;" 
d="M486 367l-140 836l-143 -1203h-162l182 1489h235l145 -901l363 901h226l-183 -1489h-162l151 1203l-345 -836h-167z" />
    <glyph glyph-name="Encyrillic" unicode="&#x41d;" 
d="M93 0l183 1489h180l-72 -599h502l73 599h180l-182 -1489h-181l90 728h-503l-89 -728h-181z" />
    <glyph glyph-name="Ocyrillic" unicode="&#x41e;" 
d="M542 143q155 0 229 82t98 280l58 472q26 201 -28 285q-55 84 -209 84t-228 -84t-101 -285l-58 -472q-24 -197 30 -279t209 -83zM523 -19q-227 0 -328 135t-72 390l58 470q35 260 169 396t360 136t328 -136t70 -396l-58 -470q-30 -255 -165 -390t-362 -135z" />
    <glyph glyph-name="Pecyrillic" unicode="&#x41f;" 
d="M93 0l183 1489h863l-182 -1489h-181l164 1327h-502l-164 -1327h-181z" />
    <glyph glyph-name="Ercyrillic" unicode="&#x420;" 
d="M655 683q136 0 201 54t82 183l21 171q15 128 -36 182t-188 54h-297l-81 -644h298zM760 1489q218 -1 311 -97t68 -295l-20 -177q-26 -201 -143 -298t-336 -97h-301l-65 -525h-181l183 1489h484z" />
    <glyph glyph-name="Escyrillic" unicode="&#x421;" 
d="M539 -19q-480 0 -416 524l58 472q34 264 169 398q136 133 376 133t340 -121t81 -382l-183 -18q11 205 -44 282q-56 77 -218 77t-238 -83t-101 -284l-60 -476q-22 -192 37 -276q60 -84 218 -84q158 1 232 77t115 275l177 -18q-44 -257 -174 -377t-369 -119z" />
    <glyph glyph-name="Tecyrillic" unicode="&#x422;" 
d="M436 0l164 1327h-423l18 162h1024l-18 -162h-421l-164 -1327h-180z" />
    <glyph glyph-name="Ucyrillic" unicode="&#x423;" 
d="M303 160q133 0 218 207h-65l-274 1122h181l227 -979l468 979h173l-587 -1200q-82 -166 -180.5 -228.5t-210.5 -62.5q-54 0 -147 19l49 162q82 -19 148 -19z" />
    <glyph glyph-name="Efcyrillic" unicode="&#x424;" 
d="M426 330h60l100 830h-59q-106 0 -161 -76.5t-76 -253.5l-22 -178q-20 -173 16 -247.5t142 -74.5zM808 1160h-61l-101 -830h61q104 0 159.5 74t75.5 248l22 178q20 177 -16 253.5t-140 76.5zM687 168h-52l-22 -187h-177l22 187h-52q-192 0 -267.5 130t-47.5 354l23 178
q28 227 135 359.5t298 132.5h53l22 186h177l-23 -186h53q192 0 266 -132t46 -360l-22 -178q-28 -223 -134 -353.5t-298 -130.5z" />
    <glyph glyph-name="Khacyrillic" unicode="&#x425;" 
d="M883 0l-282 601l-432 -601h-206l564 760l-341 729h207l268 -569l408 569h204l-541 -728l353 -761h-202z" />
    <glyph glyph-name="Tsecyrillic" unicode="&#x426;" 
d="M829 -279l33 279h-769l183 1489h180l-162 -1327h419l162 1327h181l-162 -1327h169l-54 -441h-180z" />
    <glyph glyph-name="Checyrillic" unicode="&#x427;" 
d="M590 525q-231 0 -320 90.5t-65 296.5l71 577h180l-71 -573q-15 -125 37.5 -180t186.5 -55h251l99 808h180l-182 -1489h-181l66 525h-252z" />
    <glyph glyph-name="Shacyrillic" unicode="&#x428;" 
d="M28 0l182 1489h164l-164 -1334h252l164 1334h163l-163 -1334h251l164 1334h164l-183 -1489h-994z" />
    <glyph glyph-name="Shchacyrillic" unicode="&#x429;" 
d="M1065 -274h-171l33 274h-899l182 1489h164l-164 -1334h252l164 1334h163l-163 -1334h251l164 1334h164l-164 -1334h76z" />
    <glyph glyph-name="Hardsigncyrillic" unicode="&#x42a;" 
d="M661 162q117 0 174 55t72 181l22 172q15 127 -29 181.5t-161 54.5h-199l-78 -644h199zM644 0h-381l163 1327h-318l19 162h497l-64 -525h201q205 0 289 -94.5t60 -297.5l-23 -181q-24 -201 -131 -296t-312 -95z" />
    <glyph glyph-name="Yericyrillic" unicode="&#x42b;" 
d="M337 155q86 0 140 54.5t70 188.5l23 172q15 134 -25 189t-126 55h-95l-82 -659h95zM827 0l182 1489h164l-183 -1489h-163zM438 964q179 0 249.5 -95.5t46.5 -298.5l-23 -177q-24 -201 -119 -297t-272 -96h-260l182 1489h164l-63 -525h95z" />
    <glyph glyph-name="Softsigncyrillic" unicode="&#x42c;" 
d="M596 162q117 0 191.5 53t89.5 183l22 172q15 130 -45.5 183t-179.5 53h-302l-78 -644h302zM696 964q222 0 314 -95.5t68 -298.5l-22 -177q-24 -201 -139.5 -297t-337.5 -96h-486l183 1489h180l-63 -525h303z" />
    <glyph glyph-name="Ereversedcyrillic" unicode="&#x42d;" 
d="M724 1508q251 0 352 -134t67 -397l-58 -472q-65 -524 -532 -524q-236 0 -343.5 121t-90.5 375l183 18q-9 -192 47.5 -272t216.5 -80t238.5 87.5t100.5 272.5l28 227h-445l20 162h445l11 87q24 199 -34 283t-216 84t-236 -82t-117 -277l-177 18q88 503 540 503z" />
    <glyph glyph-name="IUcyrillic" unicode="&#x42e;" 
d="M705.5 136q91.5 0 139 70.5t67.5 238.5l73 586q20 173 -9.5 247t-121 74t-139.5 -73.5t-69 -247.5l-73 -586q-20 -168 10.5 -238.5t122 -70.5zM688 -19q-172 0 -238 124t-40 340l37 292h-164l-91 -737h-164l182 1489h164l-74 -605h164l18 147q28 223 125 350t268 127
t236.5 -126.5t37.5 -350.5l-73 -586q-26 -216 -121 -340t-267 -124z" />
    <glyph glyph-name="IAcyrillic" unicode="&#x42f;" 
d="M622 1489h517l-182 -1489h-181l71 581h-238l-399 -581h-214l419 586q-166 20 -234.5 118t-46.5 279l13 115q26 199 141.5 295t333.5 96zM536 737h332l72 590h-331q-134 0 -199.5 -53t-81.5 -176l-13 -115q-17 -130 35 -188t186 -58z" />
    <glyph glyph-name="acyrillic" unicode="&#x430;" 
d="M613 1136q171 0 274 -81t83 -249l-63 -517q-11 -95 35 -121t151 -8l-21 -166q-120 -18 -204 18t-77 169h-35q-58 -86 -160 -143t-232 -57q-128 1 -216 79t-68 232q19 154 119 238q101 85 231 84h337l21 168q10 86 -38 138t-158 52t-168 -38t-106 -161l-150 44
q97 319 445 319zM456 477q-175 0 -195 -166q-23 -173 155 -173q196 0 310 154l22 185h-292z" />
    <glyph glyph-name="becyrillic" unicode="&#x431;" 
d="M541 143q137 0 202 64.5t80 192.5l26 203q15 119 -35.5 179t-187.5 60t-200 -60t-78 -179l-26 -203q-15 -128 33.5 -192.5t185.5 -64.5zM523.5 -19q-193.5 0 -301 103.5t-79.5 326.5l69 561q26 214 156.5 325.5t322.5 147.5l376 71l7 -153l-374 -71q-149 -30 -228 -110
t-101 -253l-8 -58h39q35 52 113.5 93t195.5 41q179 0 262 -103t60 -278l-26 -222q-26 -212 -158 -316.5t-325.5 -104.5z" />
    <glyph glyph-name="vecyrillic" unicode="&#x432;" 
d="M538 158q166 0 233 37t79 142q12 104 -42 139.5t-212 35.5h-259l-45 -354h246zM613 659q140 0 196.5 27t65.5 102l4 26q9 84 -42 114.5t-200 30.5h-246l-37 -300h259zM655 1117q223 0 322 -70t82 -215l-3 -24q-11 -89 -79 -140.5t-180 -58.5l-6 -41q134 -9 192 -77
t47 -161q-18 -173 -146 -251.5t-366 -78.5h-423l138 1117h422z" />
    <glyph glyph-name="gecyrillic" unicode="&#x433;" 
d="M179 0l138 1117h791l-21 -162h-610l-118 -955h-180z" />
    <glyph glyph-name="decyrillic" unicode="&#x434;" 
d="M171 0l-33 -279h-177l54 441h121q102 80 134 315l86 640h670l-117 -955h167l-54 -441h-177l34 279h-708zM343 209l-6 -47h393l97 793h-321l-63 -490q-27 -171 -100 -256z" />
    <glyph glyph-name="iecyrillic" unicode="&#x435;" 
d="M646 981q-252 0 -285 -264l-5 -56h502l4 39q19 147 -36 214t-180 67zM990 244q-63 -138 -166 -200q-102 -62 -302 -62t-301 104t-78 307l39 326q26 209 160 313t326 104t296 -106t77 -326l-21 -181h-681l-17 -130q-17 -138 38 -198q55 -59 180 -59q124 0 184 38t101 122z
" />
    <glyph glyph-name="zhecyrillic" unicode="&#x436;" 
d="M456 534l-303 -534h-181l371 613l-239 504h181l192 -437h54l54 437h158l-54 -437h52l300 437h178l-361 -503l220 -614h-181l-173 534h-54l-65 -534h-158l65 534h-56z" />
    <glyph glyph-name="zecyrillic" unicode="&#x437;" 
d="M529 -19q-244 0 -340 81t-85 275l179 13q-2 -125 54.5 -167.5t206.5 -42.5t221.5 41t84.5 157q14 116 -44 154.5t-208 38.5h-97l18 147h97q134 0 192 27t67 101l4 26q9 84 -46 114.5t-187 30.5t-192.5 -38t-86.5 -151l-175 14q35 179 145.5 256.5t320.5 77.5t316 -69
t85 -225l-1 -25q-11 -89 -81 -140t-178 -59l-6 -41q132 -9 190 -81t45 -183q-20 -162 -137.5 -247t-361.5 -85z" />
    <glyph glyph-name="iicyrillic" unicode="&#x438;" 
d="M786 0l110 894l-568 -894h-233l138 1117h169l-112 -910l581 910h222l-138 -1117h-169z" />
    <glyph glyph-name="iishortcyrillic" unicode="&#x439;" 
d="M786 0l110 894l-568 -894h-233l138 1117h169l-112 -910l581 910h222l-138 -1117h-169zM683 1290q-151 0 -247 83t-75 286l181 18q-15 -132 19 -188q35 -55 141 -55t154 55q47 56 66 188l173 -18q-25 -203 -143 -286t-269 -83z" />
    <glyph glyph-name="kacyrillic" unicode="&#x43a;" 
d="M419 510l-63 -510h-181l138 1117h180l-55 -454h85l382 454h216l-466 -519l322 -598h-204l-268 510h-86z" />
    <glyph glyph-name="elcyrillic" unicode="&#x43b;" 
d="M95 143q84 0 126 71t64 248l87 655h723l-138 -1117h-181l118 955h-369l-69 -517q-30 -233 -124 -345t-237 -112q-44 0 -125 23l50 158q55 -19 75 -19z" />
    <glyph glyph-name="emcyrillic" unicode="&#x43c;" 
d="M467 279l-113 674l-116 -953h-162l138 1117h268l104 -665l267 665h259l-138 -1117h-162l113 944l-275 -665h-183z" />
    <glyph glyph-name="encyrillic" unicode="&#x43d;" 
d="M95 0l138 1117h178l-48 -393h503l48 393h179l-138 -1117h-179l69 564h-502l-69 -564h-179z" />
    <glyph glyph-name="ocyrillic" unicode="&#x43e;" 
d="M542 143q126 0 196 60t87 188l39 328q33 253 -220 255q-126 0 -196 -62t-87 -193l-39 -328q-17 -128 38 -188t182 -60zM523 -19q-207 1 -305 107t-75 303l39 328q26 199 151 308t332 109t305 -109t73 -308l-39 -326q-24 -199 -149 -305t-332 -107z" />
    <glyph glyph-name="pecyrillic" unicode="&#x43f;" 
d="M95 0l138 1117h860l-138 -1117h-179l118 955h-503l-117 -955h-179z" />
    <glyph glyph-name="ercyrillic" unicode="&#x440;" 
d="M514 -19q-116 0 -237 53l-50 -406h-179l185 1489h178l-22 -173h52q52 88 139 140t185 52q155 0 229 -111t50 -304l-40 -326q-24 -192 -154 -303t-336 -111zM300 212q99 -72 232 -72q132 0 204 62t89 196l41 328q28 240 -164 238q-94 0 -172 -46t-161 -142z" />
    <glyph glyph-name="escyrillic" unicode="&#x441;" 
d="M674 1136q212 0 307 -95t86 -287l-179 -9q7 123 -46 176q-54 53 -184 53q-266 0 -295 -253l-41 -332q-33 -246 242 -246q123 0 189 44t85 148l175 -9q-64 -345 -466 -345q-227 -1 -327 105t-77 305l39 328q26 205 153 311t339 106z" />
    <glyph glyph-name="tecyrillic" unicode="&#x442;" 
d="M436 0l117 955h-391l20 162h961l-20 -162h-389l-118 -955h-180z" />
    <glyph glyph-name="ucyrillic" unicode="&#x443;" 
d="M182 -384q-66 0 -171 21l50 162q97 -24 168 -23q168 2 253 220h-74l-222 1121h196l165 -966l403 966h188l-511 -1156q-81 -185 -193 -265t-252 -80z" />
    <glyph glyph-name="efcyrillic" unicode="&#x444;" 
d="M760 963h-45l-99 -808h45q217 0 253 297l26 209q38 302 -180 302zM525 963q-215 0 -251 -302l-26 -209q-38 -297 178 -297h45l99 808h-45zM663 0h-56l-47 -372h-163l46 372h-56q-169 0 -249 119t-54 330l26 219q26 210 136 329.5t279 119.5h56l45 372h163l-44 -372h56
q169 0 249 -119t54 -330l-26 -219q-26 -210 -136 -329.5t-279 -119.5z" />
    <glyph glyph-name="khacyrillic" unicode="&#x445;" 
d="M776 0l-210 419l-300 -419h-199l428 560l-277 557h201l199 -402l302 402h199l-428 -547l285 -570h-200z" />
    <glyph glyph-name="tsecyrillic" unicode="&#x446;" 
d="M836 -279l33 279h-774l138 1117h178l-117 -955h421l117 955h179l-117 -955h169l-54 -441h-173z" />
    <glyph glyph-name="checyrillic" unicode="&#x447;" 
d="M514 361q-409 0 -359 393l44 363h181l-45 -359q-17 -132 39 -184.5t172 -55.5t217 46l69 553h181l-138 -1117h-181l49 397q-95 -36 -229 -36z" />
    <glyph glyph-name="shacyrillic" unicode="&#x448;" 
d="M28 0l138 1117h164l-120 -970h252l119 970h164l-119 -970h251l119 970h164l-138 -1117h-994z" />
    <glyph glyph-name="shchacyrillic" unicode="&#x449;" 
d="M1082 -279h-164l33 279h-923l138 1117h164l-120 -970h252l119 970h164l-119 -970h251l119 970h164l-117 -955h93z" />
    <glyph glyph-name="hardsigncyrillic" unicode="&#x44a;" 
d="M631 162q112 0 169.5 41t68.5 132l10 78q11 89 -37.5 129.5t-160.5 40.5h-247l-50 -421h247zM648 0h-464l118 955h-257l20 162h436l-47 -376h283q169 0 254 -87.5t67 -240.5l-10 -78q-19 -156 -125.5 -245.5t-274.5 -89.5z" />
    <glyph glyph-name="yericyrillic" unicode="&#x44b;" 
d="M354 156q95 0 143.5 42t59.5 137l9 76q11 91 -26 133t-132 42h-112l-54 -430h112zM827 0l137 1117h164l-138 -1117h-163zM458 739q147 0 218.5 -87.5t53.5 -243.5l-9 -71q-19 -158 -112 -247.5t-240 -89.5h-309l137 1117h164l-46 -378h143z" />
    <glyph glyph-name="softsigncyrillic" unicode="&#x44c;" 
d="M626 162q115 0 172 41t68 132l9 78q11 89 -36.5 129.5t-162.5 40.5h-332l-50 -421h332zM732 741q173 0 257.5 -86.5t66.5 -241.5l-10 -78q-19 -156 -125.5 -245.5t-278.5 -89.5h-549l138 1117h180l-46 -376h367z" />
    <glyph glyph-name="ereversedcyrillic" unicode="&#x44d;" 
d="M642 1136q227 0 327 -107t74 -312l-39 -319q-49 -417 -505 -417q-205 0 -299 87t-85 265l177 11q-7 -106 46 -153.5t187 -47.5q267 0 300 248l13 114h-382l19 145h381l10 71q15 130 -43.5 191.5t-192.5 61.5t-200.5 -55t-88.5 -180l-175 11q74 386 476 386z" />
    <glyph glyph-name="iucyrillic" unicode="&#x44e;" 
d="M708 145q92 0 138 50.5t61 165.5l46 387q15 119 -18.5 171.5t-125.5 52.5t-139.5 -52t-62.5 -172l-47 -387q-15 -115 20.5 -165.5t127.5 -50.5zM689 -19q-173 0 -242 100.5t-47 279.5l23 183h-151l-67 -544h-177l138 1117h177l-51 -411h151l4 42q22 181 117 284.5
t267 103.5t238.5 -105.5t43.5 -282.5l-46 -387q-22 -173 -113.5 -276.5t-264.5 -103.5z" />
    <glyph glyph-name="iacyrillic" unicode="&#x44f;" 
d="M575 1117h518l-138 -1117h-179l49 395h-160l-367 -395h-220l369 397q-145 9 -212 94.5t-49 242.5l6 39q20 168 119 256t264 88zM510 553h333l51 400h-334q-88 0 -131.5 -40t-54.5 -131l-5 -41q-13 -97 20 -142.5t121 -45.5z" />
    <glyph glyph-name="iegravecyrillic" unicode="&#x450;" 
d="M646 981q-252 0 -285 -264l-5 -56h502l4 39q19 147 -36 214t-180 67zM990 244q-63 -138 -166 -200q-102 -62 -302 -62t-301 104t-78 307l39 326q26 209 160 313t326 104t296 -106t77 -326l-21 -181h-681l-17 -130q-17 -138 38 -198q55 -59 180 -59q124 0 184 38t101 122z
M687 1303l-290 373h266l182 -373h-158z" />
    <glyph glyph-name="iocyrillic" unicode="&#x451;" 
d="M646 981q-252 0 -285 -264l-5 -56h502l4 39q19 147 -36 214t-180 67zM990 244q-63 -138 -166 -200q-102 -62 -302 -62t-301 104t-78 307l39 326q26 209 160 313t326 104t296 -106t77 -326l-21 -181h-681l-17 -130q-17 -138 38 -198q55 -59 180 -59q124 0 184 38t101 122z
M885 1324q-51 0 -80 22t-19 89q9 67 43 91q33 24 85 23q52 0 82 -24t19 -97q-12 -104 -130 -104zM519 1549q53 0 81 -23t18 -91t-43 -90q-33 -21 -84 -21t-81 23t-21 89t43 90t87 23z" />
    <glyph glyph-name="djecyrillic" unicode="&#x452;" 
d="M430 853q108 191 356 191q128 0 201.5 -88t55.5 -237l-90 -730q-22 -192 -133.5 -284t-260.5 -92q-94 0 -215 41l58 175q97 -41 174 -41t132 52t70 173l82 663q11 99 -34.5 148t-131.5 49q-165 0 -337 -184l-83 -689h-179l145 1177h-171l17 147h171l20 165h179l-20 -165
h339l-17 -147h-339l-41 -324h52z" />
    <glyph glyph-name="gjecyrillic" unicode="&#x453;" 
d="M179 0l138 1117h791l-21 -162h-610l-118 -955h-180zM609 1303l277 373h265l-382 -373h-160z" />
    <glyph glyph-name="ecyrillic" unicode="&#x454;" 
d="M535 -19q-215 0 -315.5 106.5t-76.5 310.5l39 319q26 205 153 312t340 107t308 -96t84 -290l-177 -11q7 123 -46 178t-184 55q-268 0 -297 -251l-9 -71h383l-18 -145h-384l-13 -114q-32 -246 238 -246q132 0 197.5 46.5t84.5 152.5l175 -11q-35 -179 -151 -265.5
t-331 -86.5z" />
    <glyph glyph-name="dzecyrillic" unicode="&#x455;" 
d="M609 974q-89 0 -155 -36t-77 -118q-9 -83 49 -118t241 -65t269 -108t69 -216q-20 -168 -156 -250q-137 -82 -289 -82q-304 0 -480 159l95 143q74 -65 175 -102q102 -37 204 -37t180 31t90 119q10 88 -50 122t-242 64t-269 104t-67 228t144 239q126 85 267 85
q261 0 443 -160l-93 -144q-165 142 -348 142z" />
    <glyph glyph-name="icyrillic.salt_serifs" unicode="&#xe02e;" 
d="M637 162h370l-20 -162h-551l117 955h-372l20 162h553zM686 1322q-66 0 -105 23t-30 89t53 90t111 23q67 0 106 -24t30 -90q-9 -67 -54 -89t-111 -22z" />
    <glyph glyph-name="icyrillic.salt_serifs" unicode="&#x456;" 
d="M637 162h370l-20 -162h-551l117 955h-372l20 162h553zM686 1322q-66 0 -105 23t-30 89t53 90t111 23q67 0 106 -24t30 -90q-9 -67 -54 -89t-111 -22z" />
    <glyph glyph-name="yicyrillic.salt_serifs" unicode="&#xe02f;" 
d="M637 162h370l-20 -162h-551l117 955h-372l20 162h553zM872 1549q52 0 81 -24q30 -24 19 -97q-12 -104 -130 -104q-51 0 -80 22t-19 89q9 67 43 91t86 23zM448 1324q-51 0 -81 23t-21 89q10 66 44 90t86 23q52 0 81 -23q28 -23 18 -91t-43 -90q-33 -21 -84 -21z" />
    <glyph glyph-name="yicyrillic.salt_serifs" unicode="&#x457;" 
d="M637 162h370l-20 -162h-551l117 955h-372l20 162h553zM872 1549q52 0 81 -24q30 -24 19 -97q-12 -104 -130 -104q-51 0 -80 22t-19 89q9 67 43 91t86 23zM448 1324q-51 0 -81 23t-21 89q10 66 44 90t86 23q52 0 81 -23q28 -23 18 -91t-43 -90q-33 -21 -84 -21z" />
    <glyph glyph-name="jecyrillic" unicode="&#x458;" 
d="M327 -212q252 0 280 225l115 942h-476l20 162h657l-139 -1128q-22 -192 -155 -284t-295 -92t-282 41l56 175q103 -41 219 -41zM850 1324q-66 0 -105 23t-30 89t53 90t111 23q67 0 106 -24t30 -90q-9 -67 -54 -89t-111 -22z" />
    <glyph glyph-name="ljecyrillic" unicode="&#x459;" 
d="M802 588h-106l-54 -432h106q147 4 168 172l11 93q9 86 -20.5 126.5t-104.5 40.5zM49 164q76 0 96 126l123 827h493l-46 -376h141q128 0 191 -85.5t44 -234.5l-15 -114q-17 -145 -99.5 -226t-209.5 -81h-305l117 953h-173l-99 -683q-22 -145 -98.5 -215t-176.5 -70
q-63 0 -121 22l57 175q48 -18 81 -18z" />
    <glyph glyph-name="njecyrillic" unicode="&#x45a;" 
d="M840 739q128 0 189.5 -85.5t44.5 -236.5l-15 -108q-17 -145 -99.5 -227t-209.5 -82h-305l69 568h-255l-69 -568h-162l138 1117h162l-49 -393h255l49 393h164l-47 -378h140zM732 156q147 0 165 151l15 114q18 165 -126 165h-105l-54 -430h105z" />
    <glyph glyph-name="tshecyrillic" unicode="&#x45b;" 
d="M769 1044q145 0 219 -90t55 -243l-88 -711h-179l82 670q26 203 -171 203q-160 0 -330 -192l-83 -681h-179l145 1177h-171l17 147h171l20 165h179l-20 -165h339l-17 -147h-339l-41 -330h52q47 91 139 144t200 53z" />
    <glyph glyph-name="kjecyrillic" unicode="&#x45c;" 
d="M419 510l-63 -510h-181l138 1117h180l-55 -454h85l382 454h216l-466 -519l322 -598h-204l-268 510h-86zM596 1303l277 373h265l-382 -373h-160z" />
    <glyph glyph-name="igravecyrillic" unicode="&#x45d;" 
d="M786 0l110 894l-568 -894h-233l138 1117h169l-112 -910l581 910h222l-138 -1117h-169zM687 1303l-290 373h266l182 -373h-158z" />
    <glyph glyph-name="ushortcyrillic" unicode="&#x45e;" 
d="M182 -384q-66 0 -171 21l50 162q97 -24 168 -23q168 2 253 220h-74l-222 1121h196l165 -966l403 966h188l-511 -1156q-81 -185 -193 -265t-252 -80zM683 1290q-151 0 -247 83t-75 286l181 18q-15 -132 19 -188q35 -55 141 -55t154 55q47 56 66 188l173 -18
q-25 -203 -143 -286t-269 -83z" />
    <glyph glyph-name="dzhecyrillic" unicode="&#x45f;" 
d="M406 -279l33 279h-344l138 1117h178l-117 -955h503l117 955h179l-138 -1117h-342l-34 -279h-173z" />
    <glyph glyph-name="Gheupturncyrillic" unicode="&#x490;" 
d="M99 0l182 1489h711l36 280h180l-54 -442h-711l-164 -1327h-180z" />
    <glyph glyph-name="gheupturncyrillic" unicode="&#x491;" 
d="M179 0l138 1117h619l34 279h171l-54 -441h-610l-118 -955h-180z" />
    <glyph glyph-name="Wgrave" unicode="&#x1e80;" 
d="M722 0l-87 894l-305 -894h-179l-2 1489h177l-30 -1212l279 840h183l71 -840l269 1212h168l-367 -1489h-177zM743 1676l-291 372h267l182 -372h-158z" />
    <glyph glyph-name="wgrave" unicode="&#x1e81;" 
d="M674 0l-60 730l-232 -730h-200l-54 1117h172l5 -974l231 790h201l51 -760l238 944h171l-329 -1117h-194zM685 1303l-290 373h266l182 -373h-158z" />
    <glyph glyph-name="Wacute" unicode="&#x1e82;" 
d="M722 0l-87 894l-305 -894h-179l-2 1489h177l-30 -1212l279 840h183l71 -840l269 1212h168l-367 -1489h-177zM546 1676l277 372h264l-381 -372h-160z" />
    <glyph glyph-name="wacute" unicode="&#x1e83;" 
d="M674 0l-60 730l-232 -730h-200l-54 1117h172l5 -974l231 790h201l51 -760l238 944h171l-329 -1117h-194zM493 1303l278 373h264l-382 -373h-160z" />
    <glyph glyph-name="Wdieresis" unicode="&#x1e84;" 
d="M722 0l-87 894l-305 -894h-179l-2 1489h177l-30 -1212l279 840h183l71 -840l269 1212h168l-367 -1489h-177zM955 1921q52 0 82 -24t19 -97q-12 -104 -130 -104q-51 0 -80 22t-19 89q9 67 42 91q34 23 86 23zM531 1696q-51 0 -81 22t-20 89t44 91t86 23q52 0 81 -24
t20 -90q-9 -67 -44 -89t-86 -22z" />
    <glyph glyph-name="wdieresis" unicode="&#x1e85;" 
d="M674 0l-60 730l-232 -730h-200l-54 1117h172l5 -974l231 790h201l51 -760l238 944h171l-329 -1117h-194zM885 1324q-51 0 -80 22t-19 89q9 67 43 91q33 24 85 23q52 0 82 -24t19 -97q-12 -104 -130 -104zM519 1549q53 0 81 -23t18 -91t-43 -90q-33 -21 -84 -21t-81 23
t-21 89t43 90t87 23z" />
    <glyph glyph-name="Ygrave" unicode="&#x1ef2;" 
d="M616 0h-180l69 559l-371 930h199l291 -761l460 761h195l-594 -930zM726 1676l-290 372h266l182 -372h-158z" />
    <glyph glyph-name="ygrave" unicode="&#x1ef3;" 
d="M182 -384q-66 0 -171 21l50 162q97 -24 168 -23q168 2 253 220h-74l-222 1121h196l165 -966l403 966h188l-511 -1156q-81 -185 -193 -265t-252 -80zM685 1303l-290 373h266l182 -373h-158z" />
    <glyph glyph-name="uni2000" unicode="&#x2000;" 
 />
    <glyph glyph-name="uni2001" unicode="&#x2001;" 
 />
    <glyph glyph-name="uni2002" unicode="&#x2002;" 
 />
    <glyph glyph-name="uni2003" unicode="&#x2003;" 
 />
    <glyph glyph-name="uni2004" unicode="&#x2004;" 
 />
    <glyph glyph-name="uni2005" unicode="&#x2005;" 
 />
    <glyph glyph-name="uni2007" unicode="&#x2007;" 
 />
    <glyph glyph-name="uni2009" unicode="&#x2009;" 
 />
    <glyph glyph-name="uni200A" unicode="&#x200a;" 
 />
    <glyph glyph-name="uni200B" unicode="&#x200b;" horiz-adv-x="0" 
 />
    <glyph glyph-name="endash" unicode="&#x2013;" 
d="M162 562l22 179h864l-22 -179h-864z" />
    <glyph glyph-name="emdash" unicode="&#x2014;" 
d="M-4 562l23 179h1195l-22 -179h-1196z" />
    <glyph glyph-name="horizontalbar" unicode="&#x2015;" 
d="M-4 562l23 179h1195l-22 -179h-1196z" />
    <glyph glyph-name="underscoredbl" unicode="&#x2017;" 
d="M0 0l22 179h957l-22 -179h-957zM0 -363l22 179h957l-22 -179h-957z" />
    <glyph glyph-name="quoteright" unicode="&#x2019;" 
d="M341 750l277 739h348l-478 -739h-147z" />
    <glyph glyph-name="quotesinglbase" unicode="&#x201a;" 
d="M229 -378l244 741h348l-445 -741h-147z" />
    <glyph glyph-name="quotereversed" unicode="&#x201b;" 
d="M702 750l-296 739h350l95 -739h-149z" />
    <glyph glyph-name="quotedblleft" unicode="&#x201c;" 
d="M97 750l478 739h132l-277 -739h-333zM618 750l479 739h132l-278 -739h-333z" />
    <glyph glyph-name="quotedblright" unicode="&#x201d;" 
d="M95 750l277 739h334l-479 -739h-132zM616 750l278 739h331l-477 -739h-132z" />
    <glyph glyph-name="quotedblbase" unicode="&#x201e;" 
d="M-28 -376l277 739h334l-479 -739h-132zM493 -376l278 739h331l-476 -739h-133z" />
    <glyph glyph-name="dagger" unicode="&#x2020;" 
d="M389 -372l164 1327h-168l-115 -391h-142l120 553h322l33 372h209l-56 -372h322l-19 -553h-141l-19 391h-167l-164 -1327h-179z" />
    <glyph glyph-name="daggerdbl" unicode="&#x2021;" 
d="M110 0v424h141l38 -262h167l97 793h-168l-100 -262h-142l105 424h322l33 372h209l-56 -372h322v-424h-142l-37 262h-167l-97 -793h167l101 262h141l-104 -424h-322l-35 -372h-209l58 372h-322z" />
    <glyph glyph-name="bullet" unicode="&#x2022;" 
d="M580 439q-126 0 -199.5 57t-58.5 178l17 134q15 123 101.5 181.5t215 58.5t199 -58.5t55.5 -181.5l-16 -134q-15 -121 -101.5 -178t-212.5 -57z" />
    <glyph glyph-name="ellipsis" unicode="&#x2026;" 
d="M115 -17q-54 0 -83.5 38.5t-20.5 118.5l9 80q11 82 50.5 121t94.5 39t83 -39t16 -121l-9 -80q-9 -80 -47.5 -118.5t-92.5 -38.5zM522 -17q-53 0 -82.5 38.5t-20.5 118.5l9 80q11 82 50.5 121t94.5 39t83.5 -39t17.5 -121l-9 -80q-9 -80 -49.5 -118.5t-93.5 -38.5z
M930 -17q-53 0 -82 38.5t-19 118.5l9 80q11 82 49 121t93 39t84 -39t18 -121l-10 -80q-9 -80 -49 -118.5t-93 -38.5z" />
    <glyph glyph-name="perthousand" unicode="&#x2030;" 
d="M895.5 89q61.5 0 80.5 116l22 195q17 121 -44.5 121t-80.5 -121l-22 -195q-17 -116 44.5 -116zM625.5 89q61.5 0 80.5 116l22 195q17 121 -44.5 121t-80.5 -121l-22 -195q-17 -116 44.5 -116zM977 650q94 0 137.5 -67t26.5 -205l-18 -151q-17 -136 -78.5 -202t-155.5 -66
t-131 93q-59 -93 -154 -93q-94 0 -138.5 66t-27.5 202l18 151q17 138 78.5 205t155.5 67t133 -93q60 93 154 93zM1180 1126l-1119 -830l-70 108l1117 832zM438 1381q-64 0 -92.5 -30.5t-36.5 -93.5l-17 -138q-17 -129 72.5 -129t106.5 129l17 138q14 124 -50 124zM350 847
q-112 0 -173.5 68t-44.5 208l17 130q17 140 95 207t190 67t172.5 -67t43.5 -207l-17 -130q-17 -140 -94 -208t-189 -68z" />
    <glyph glyph-name="minute" unicode="&#x2032;" 
d="M350 750l277 739h349l-479 -739h-147z" />
    <glyph glyph-name="second" unicode="&#x2033;" 
d="M-76 750l277 739h333l-478 -739h-132zM445 750l277 739h332l-477 -739h-132z" />
    <glyph glyph-name="guilsinglleft" unicode="&#x2039;" 
d="M810 194l-477 370l23 175l566 371l-21 -170l-443 -288l372 -289z" />
    <glyph glyph-name="guilsinglright" unicode="&#x203a;" 
d="M289 194l20 169l443 289l-372 288l20 170l477 -371l-22 -175z" />
    <glyph glyph-name="exclamdbl" unicode="&#x203c;" 
d="M348 350q110 0 120 -59.5t7 -100.5l-8 -52q-12 -84 -56 -121q-44 -36 -129.5 -36t-123.5 38q-35 42 -26 119l8 52q8 84 55 121q43 39 153 39zM683 311q43 39 130.5 39t121.5 -38t28 -122l-8 -52q-18 -120 -80.5 -138.5t-126.5 -18.5t-102 38q-37 44 -26 119l7 52
q8 83 56 121zM279 559l64 930h243l-163 -930h-144zM767 559l62 930h245l-165 -930h-142z" />
    <glyph glyph-name="overline" unicode="&#x203e;" 
d="M0 1683l22 179h957l-22 -179h-957z" />
    <glyph glyph-name="fraction" unicode="&#x2215;" 
d="M95 0l866 1489h177l-866 -1489h-177z" />
    <glyph glyph-name="fraction" unicode="&#x2044;" 
d="M95 0l866 1489h177l-866 -1489h-177z" />
    <glyph glyph-name="zero.sups" unicode="&#x2070;" 
d="M608 681q103 0 155 66.5t71 224.5l13 106q20 162 -14.5 229t-138.5 67t-155 -67t-72 -229l-13 -106q-19 -158 16 -224.5t138 -66.5zM595 555q-176 0 -250.5 107t-52.5 295l17 136q24 192 125.5 300t276.5 108t248.5 -108t49.5 -300l-17 -136q-22 -188 -121.5 -295
t-275.5 -107z" />
    <glyph glyph-name="four.sups" unicode="&#x2074;" 
d="M1022 801h-158l-30 -235h-160l30 235h-436l15 128l456 560h209l-69 -560h158zM423 929h296l52 423z" />
    <glyph glyph-name="five.sups" unicode="&#x2075;" 
d="M588 555q-182 0 -255.5 59.5t-60.5 221.5l162 11q-6 -101 29.5 -133.5t142.5 -32.5t151 33.5t55 114.5l5 48q9 78 -27 109.5t-137 31.5h-327l58 471h633l-15 -126h-473l-26 -209h206q145 0 217 -62t55 -193l-11 -89q-13 -112 -106.5 -183.5t-275.5 -71.5z" />
    <glyph glyph-name="six.sups" unicode="&#x2076;" 
d="M608 683q107 0 151 47t54 125t-24.5 124.5t-178 46.5t-163.5 -166q-12 -88 21 -132.5t140 -44.5zM715 1145q298 0 262 -276l-1 -24q-17 -130 -109 -209t-272 -79q-346 0 -306 329l35 279q19 158 112 247.5t266 89.5t241 -55.5t74 -169.5l-174 -28q-4 73 -35.5 99
t-129.5 26t-140.5 -54t-53.5 -155l-13 -106h9q77 86 235 86z" />
    <glyph glyph-name="seven.sups" unicode="&#x2077;" 
d="M462 566q88 266 171.5 416t241.5 370h-529l17 137h691l-17 -137q-171 -261 -256 -409t-148 -377h-171z" />
    <glyph glyph-name="eight.sups" unicode="&#x2078;" 
d="M609 685q117 0 155 35.5t48 106.5v15q9 67 -19 105t-147 38t-156.5 -38t-46.5 -105v-15q-9 -71 20 -106.5t146 -35.5zM664 1115q87 0 127.5 26t48.5 90l3 26q7 63 -28 88t-121 25t-128.5 -25t-49.5 -88l-4 -26q-7 -63 29 -89.5t123 -26.5zM595 555q-193 0 -262 66
t-54 189l4 26q11 86 63 139t132 60l4 34q-61 7 -99.5 51t-28.5 116l3 37q29 228 270 228t317 -53t61 -175l-3 -37q-9 -73 -58.5 -116.5t-114.5 -50.5l-4 -34q82 -7 121 -62t28 -137l-4 -26q-15 -125 -98.5 -190t-276.5 -65z" />
    <glyph glyph-name="nine.sups" unicode="&#x2079;" 
d="M590 912q-158 0 -218.5 73t-45.5 203l4 24q15 128 108 208.5t271.5 80.5t252 -87t53.5 -243l-34 -279q-43 -337 -389 -337q-162 0 -231 55t-76 170l175 28q4 -73 37 -100t131 -27t138 54t53 157l13 104h-9q-75 -84 -233 -84zM652 1031q103 0 148.5 46.5t56.5 127.5
q10 81 -22.5 125t-138.5 44t-150 -45t-55 -125q-10 -80 24 -126.5t137 -46.5z" />
    <glyph glyph-name="nsuperior" unicode="&#x207f;" 
d="M782 1508q127 0 188 -80q67 -73 50 -220l-80 -644h-149l75 611q13 90 -22 141t-102 51t-142 -41q-43 -29 -122 -110l-80 -652h-150l113 929h151l-17 -141h43q45 83 132 131q47 25 112 25z" />
    <glyph glyph-name="zero.sinf" unicode="&#x2080;" 
d="M608 115q103 1 155 67t71 224l13 106q20 162 -15 229q-34 67 -138 67t-155 -67t-72 -229l-13 -106q-19 -158 16 -224t138 -67zM595 -11q-176 0 -251 107q-74 107 -52 295l17 136q23 192 125 300t277 108t249 -108t49 -300l-17 -136q-22 -188 -122 -295t-275 -107z" />
    <glyph glyph-name="one.sinf" unicode="&#x2081;" 
d="M335 0l17 132h233l72 598h-26q-28 -74 -95 -119t-143 -47l5 136q88 4 170 60t117 163h157l-97 -791h212l-17 -132h-605z" />
    <glyph glyph-name="two.sinf" unicode="&#x2082;" 
d="M694 808q-102 0 -140 -40t-55 -135l-160 13q26 145 109 217t263 72q181 0 249 -68t53 -184l-8 -65q-25 -193 -223 -233l-214 -46q-54 -11 -90 -39t-44 -106l-8 -62h531l-17 -132h-691l25 192q28 230 232 273l215 47q61 13 91 42t37 86l4 38q7 58 -24 94q-33 36 -135 36z
" />
    <glyph glyph-name="three.sinf" unicode="&#x2083;" 
d="M586 -11q-182 0 -253 68t-63 202l162 11q-2 -84 28 -118t144 -34t157 36q42 36 49 101l4 30q9 69 -24 103t-138 33h-149l16 130h149q88 1 125 21t45 81l5 40q7 63 -36 88q-44 25 -127 25q-82 0 -122 -31t-53 -101l-161 11q24 134 109 192t241 58q156 1 242 -51
q85 -52 69 -182l-3 -30q-10 -74 -60 -116t-121 -50l-4 -33q78 -7 123 -61t36 -135l-4 -26q-17 -134 -110 -198q-94 -64 -276 -64z" />
    <glyph glyph-name="four.sinf" unicode="&#x2084;" 
d="M1022 235h-158l-30 -235h-160l30 235h-436l15 128l456 560h209l-69 -560h158zM423 363h296l52 423z" />
    <glyph glyph-name="five.sinf" unicode="&#x2085;" 
d="M588 -11q-182 -1 -256 59t-60 222l162 11q-6 -101 30 -133t142 -33q107 0 151 34t55 114l5 48q9 78 -27 110t-137 31h-327l58 471h633l-15 -126h-473l-26 -209h206q145 0 217 -62t55 -193l-11 -89q-13 -112 -106 -184q-94 -72 -276 -71z" />
    <glyph glyph-name="six.sinf" unicode="&#x2086;" 
d="M608 117q107 0 151 47t54 125q9 79 -25 125t-136 46t-149 -47t-57 -127t22 -125q33 -44 140 -44zM711 579q305 0 266 -276l-1 -24q-17 -130 -109 -209t-272 -79q-346 0 -306 329l35 280q40 336 389 336q162 0 230 -56t74 -169l-174 -28q-4 73 -35 99q-32 26 -130 26
t-141 -54q-42 -54 -53 -154l-13 -107h9q77 86 231 86z" />
    <glyph glyph-name="seven.sinf" unicode="&#x2087;" 
d="M462 0q88 266 171 416q84 150 242 370h-529l17 137h691l-17 -137q-171 -261 -256 -409t-148 -377h-171z" />
    <glyph glyph-name="eight.sinf" unicode="&#x2088;" 
d="M609 119q117 -1 155 35t48 107v15q9 67 -19 105t-147 38t-156 -38t-47 -105v-15q-9 -71 20 -107t146 -35zM664 549q88 0 128 26t48 90l3 26q7 63 -28 88t-121 25t-129 -25q-42 -25 -49 -88l-4 -26q-7 -63 29 -89t123 -27zM595 -11q-193 0 -262 66t-54 189l4 26
q11 86 63 139t132 60l4 34q-61 7 -99 51t-29 116l3 37q29 228 352 228q159 0 235 -53t61 -175l-3 -37q-8 -72 -58 -116t-115 -51l-4 -34q82 -7 121 -62t28 -137l-4 -26q-14 -125 -98 -190t-277 -65z" />
    <glyph glyph-name="nine.sinf" unicode="&#x2089;" 
d="M710 935q178 0 252 -87t53 -243l-34 -279q-43 -337 -389 -337q-162 0 -231 55t-76 170l175 28q4 -73 36 -100t132 -27q98 0 138 54t53 157l13 104h-9q-74 -82 -232 -83q-159 -1 -220 72t-45 203l4 24q15 128 108 208q94 80 272 81zM696 808q-106 0 -152 -47t-54 -125
q-9 -78 25 -124q34 -47 137 -47t149 46t56 128q10 81 -22 125q-33 44 -139 44z" />
    <glyph glyph-name="franc" unicode="&#x20a3;" 
d="M655 369h-337l-44 -369h-181l45 369h-172l21 165h171l118 955h897l-19 -162h-716l-51 -400h598l-19 -160h-597l-30 -233h337z" />
    <glyph glyph-name="lira" unicode="&#x20a4;" 
d="M177 1064v20q0 17 4 31q18 181 160 287t378 106t339 -97t89 -309l-184 -18q8 144 -52.5 200.5t-219.5 56.5t-237 -58q-76 -52 -93 -171l-1 -19q-1 -19 -1 -26.5t-2 -14.5h464l-17 -147h-411q2 -9 5.5 -17t6.5 -16t7 -20t10 -24q25 -52 42 -130h314l-18 -147h-293v-4
q-20 -173 -197 -298l19 -29q62 37 119 35t131 -34.5t113 -48.5t86 -16q93 0 138 59.5t74 201.5l176 -19q-33 -200 -143 -310q-111 -107 -272 -107q-75 0 -141 32q-19 7 -107.5 52t-151.5 56q-64 11 -119 -26l-170 -112l-83 134l154 92q65 41 121 133t67 190l-272 19l19 147
h242q-5 23 -11 35q-6 11 -10.5 24.5t-8.5 20.5l-26 64q-6 15 -10.5 30.5t-9.5 32.5h-140l17 147h104q2 11 2 12z" />
    <glyph glyph-name="peseta" unicode="&#x20a7;" 
d="M640 176.5q0 -44.5 31 -44.5t74 17l26 37q61 -58 92 -58q53 0 85 32q25 32 33 86q15 101 -23 168.5t-77 130.5t-54 107q-43 126 -18 214.5t31 103.5h-108l-88 -719q-4 -30 -4 -74.5zM652 -17q-178 0 -144 291l86 696h-102l-19 -149q-34 -300 -242 -300h-50l-64 -521h-137
l182 1489h190q100 0 143 -68q44 -77 23 -231l-8 -73h103l44 372h138l-45 -372h140l-9 -73q23 33 72 69q42 23 88 23q92 0 178 -78l-94 -127q-48 48 -65 53t-32 5q-69 0 -80 -140q-14 -89 22.5 -149t78.5 -122q94 -140 77 -287t-93 -233q-77 -77 -178 -77q-59 0 -101 23
q-53 -21 -102 -21zM248 665q36 0 54 35q23 36 33 125l45 357q12 91 -4 125q-11 35 -45 35h-48l-84 -677h49z" />
    <glyph glyph-name="Euro" unicode="&#x20ac;" 
d="M576 -19q-230 0 -324 133.5t-64 371.5l2 7h-170l17 147h170l26 205h-170l17 147h169l2 6q30 240 156.5 375t356.5 135t318.5 -102.5t75.5 -301.5l-181 -19q6 134 -36 197.5t-197 63.5t-225 -87.5t-91 -256.5l-2 -10h339l-17 -147h-338l-26 -205h338l-16 -147h-339l-2 -9
q-20 -171 27 -256t203 -85t214.5 61.5t82.5 192.5l177 -19q-35 -197 -149 -297t-344 -100z" />
    <glyph glyph-name="careof" unicode="&#x2105;" 
d="M923 238l15 119q8 71 -18 105q-17 33 -72 33t-94 -33q-35 -35 -43 -105l-15 -119q-11 -63 16 -98.5t84 -35.5t87 32t40 102zM650 568q87 71 213 71t187 -71q68 -74 48 -214l-13 -112q-18 -140 -99 -212q-82 -71 -211 -71t-190 69q-69 71 -51 214l13 112q18 139 103 214z
M24 372l1119 857l75 -108l-1123 -857zM419 990q84 0 99 105l158 -15q-21 -174 -130.5 -203.5t-171.5 -29.5q-127 0 -192.5 72.5t-47.5 216.5l13 104q26 213 138 250t174 37q129 0 193 -58t50 -173l-162 -15q8 49 -19 76q-33 24 -115.5 24t-98.5 -137l-13 -112
q-11 -69 19 -108q22 -34 106 -34z" />
    <glyph glyph-name="lsquare" unicode="&#x2113;" 
d="M553 1434q108 74 271 74t229 -90t23 -249l-115 -411q-65 -217 -194.5 -255t-198.5 -38q-127 0 -181 79l-46 -159q-27 -111 20 -167q46 -56 159 -56t266 63l-15 -173q-152 -65 -273 -65q-327 0 -346.5 147t4.5 235l239 839q40 149 158 226zM458 670q31 -41 114 -41
t135.5 30.5t70.5 94.5l118 421q23 81 1 123q-30 48 -114 48t-136 -33t-72 -99l-123 -428q-21 -72 6 -116z" />
    <glyph glyph-name="numero" unicode="&#x2116;" 
d="M721.5 112q95.5 0 112.5 145l13 100q18 153 -108 153t-143 -153l-13 -100q-9 -78 17 -111.5t121.5 -33.5zM673 -26q-126 0 -191 71.5t-48 211.5l13 100q17 143 101 216t210 73t190.5 -72.5t47.5 -216.5l-13 -100q-17 -140 -100.5 -211.5t-209.5 -71.5zM421 1329l-69 -562
h-162l87 722h220l412 -547l67 547h162l-88 -722h-220z" />
    <glyph glyph-name="uni2117" unicode="&#x2117;" 
d="M547 657h90q65 0 93 31t28 103v69q0 82 -28 118.5t-93 36.5h-90v-358zM387 229v935h252q136 0 206.5 -77.5t70.5 -226.5v-69q0 -136 -70.5 -206.5t-208.5 -70.5h-90v-285h-160zM616.5 -88q232.5 0 330 142.5t97.5 435.5v389q0 292 -97.5 439t-330 147t-330.5 -147
t-98 -439v-387q0 -292 98 -436t330.5 -144zM616.5 -205q-288.5 0 -422 178t-133.5 505v414q0 331 133.5 511t423.5 180t421.5 -180t131.5 -511v-414q0 -328 -133 -505.5t-421.5 -177.5z" />
    <glyph glyph-name="trademark" unicode="&#x2122;" 
d="M549 653v836h196l98 -381l112 381h175v-836h-123l4 686l-125 -430h-91l-127 441l6 -697h-125zM190 653v706h-155v130h430v-130h-137v-706h-138z" />
    <glyph glyph-name="Ohm" unicode="&#x2126;" 
d="M709 1508q237 0 343 -135t73 -396l-27 -225q-44 -337 -271 -413l-21 -175h220l-21 -164h-396l52 428q128 24 184 105t73 219l26 225q26 201 -32 285t-222 84t-241 -84q-78 -84 -105 -285l-26 -225q-18 -138 18 -219t157 -105l-52 -428h-396l20 164h220l20 175
q-213 78 -167 413l26 225q69 531 545 531z" />
    <glyph glyph-name="estimated" unicode="&#x212e;" 
d="M611 1374q-136 0 -231 -97v-476h460v471q-48 45 -101.5 73.5t-127.5 28.5zM609 -22q-238 0 -390 216t-152 557t150.5 553.5t392.5 212.5t393 -239t159 -626h-782v-434q103 -97 230 -97t224 57.5t155 158.5l82 -106q-73 -117 -189.5 -185t-272.5 -68z" />
    <glyph glyph-name="oneeighth" unicode="&#x215b;" 
d="M336 -232q10 -38 146 -38t173 28q37 22 45 85t-26 88q-35 26 -144 26t-158 -28q-38 -25 -42 -95q-4 -28 6 -66zM722 190q4 42 -33 59q-36 17 -123.5 17t-116.5 -13q-50 -23 -54 -63l-4 -26q-7 -41 32 -62q43 -16 146.5 -16t124.5 27.5t25 50.5zM583 397q242 0 274.5 -70
t26.5 -120l-5 -38q-16 -111 -166 -130l-6 -33q126 -12 142.5 -70.5t12.5 -91.5l-4 -26q-14 -111 -100 -165q-85 -53 -273 -53t-258 55q-71 55 -59 163l3 26q12 105 80.5 131.5t109.5 30.5l6 33q-106 13 -123 57.5t-13 72.5l5 38q11 95 101 145q92 45 246 45zM665 503l13 110
l525 37l-23 -185zM-15 465l22 185l539 -37l-14 -110zM326 763l17 134h232l51 410h-26q-26 -73 -94 -119q-69 -47 -145 -47l8 136q144 7 205 87.5t79 136.5h159l-75 -604h213l-17 -134h-607z" />
    <glyph glyph-name="threeeighths" unicode="&#x215c;" 
d="M336 -232q10 -38 146 -38t173 28q37 22 45 85t-26 88q-35 26 -144 26t-158 -28q-38 -25 -42 -95q-4 -28 6 -66zM722 190q4 42 -33 59q-36 17 -123.5 17t-116.5 -13q-50 -23 -54 -63l-4 -26q-7 -41 32 -62q43 -16 146.5 -16t124.5 27.5t25 50.5zM583 397q242 0 274.5 -70
t26.5 -120l-5 -38q-16 -111 -166 -130l-6 -33q126 -12 142.5 -70.5t12.5 -91.5l-4 -26q-14 -111 -100 -165q-85 -53 -273 -53t-258 55q-71 55 -59 163l3 26q12 105 80.5 131.5t109.5 30.5l6 33q-106 13 -123 57.5t-13 72.5l5 38q11 95 101 145q92 45 246 45zM665 503l13 110
l525 37l-23 -185zM-15 465l22 185l539 -37l-14 -110zM613 752q-187 0 -259 58q-70 53 -64 175l162 11q-4 -65 30 -89t142 -24q109 0 160 20q39 22 43 60l3 29q8 40 -29 60q-40 19 -144 19h-95l15 132h95q95 1 123 13t38 28t14 43l4 39q6 45 -58.5 50t-149 5t-105 -33.5
t-28.5 -59.5l-160 12q21 112 105 162t246 50q161 0 235 -37q87 -40 77 -140l-4 -30q-8 -68 -58 -102q-43 -37 -121 -45l-3 -33q76 -8 112 -35q61 -46 53 -105l-3 -26q-18 -159 -151 -183t-225 -24z" />
    <glyph glyph-name="fiveeighths" unicode="&#x215d;" 
d="M336 -232q10 -38 146 -38t173 28q37 22 45 85t-26 88q-35 26 -144 26t-158 -28q-38 -25 -42 -95q-4 -28 6 -66zM722 190q4 42 -33 59q-36 17 -123.5 17t-116.5 -13q-50 -23 -54 -63l-4 -26q-7 -41 32 -62q43 -16 146.5 -16t124.5 27.5t25 50.5zM583 397q242 0 274.5 -70
t26.5 -120l-5 -38q-16 -111 -166 -130l-6 -33q126 -12 142.5 -70.5t12.5 -91.5l-4 -26q-14 -111 -100 -165q-85 -53 -273 -53t-258 55q-71 55 -59 163l3 26q12 105 80.5 131.5t109.5 30.5l6 33q-106 13 -123 57.5t-13 72.5l5 38q11 95 101 145q92 45 246 45zM665 503l13 110
l525 37l-23 -185zM-15 465l22 185l539 -37l-14 -110zM886 812q-101 -60 -279 -60t-252 48t-66 177l162 12q0 -69 36 -88.5t143 -19.5q108 0 149 20t50 69l5 48q8 44 -30 66q-42 20 -139 20h-328l48 397h633l-16 -129h-473l-15 -130h207q147 0 217 -52q75 -48 60 -157l-8 -63
q-12 -97 -104 -158z" />
    <glyph glyph-name="seveneighths" unicode="&#x215e;" 
d="M336 -232q10 -38 146 -38t173 28q37 22 45 85t-26 88q-35 26 -144 26t-158 -28q-38 -25 -42 -95q-4 -28 6 -66zM722 190q4 42 -33 59q-36 17 -123.5 17t-116.5 -13q-50 -23 -54 -63l-4 -26q-7 -41 32 -62q43 -16 146.5 -16t124.5 27.5t25 50.5zM583 397q242 0 274.5 -70
t26.5 -120l-5 -38q-16 -111 -166 -130l-6 -33q126 -12 142.5 -70.5t12.5 -91.5l-4 -26q-14 -111 -100 -165q-85 -53 -273 -53t-258 55q-71 55 -59 163l3 26q12 105 80.5 131.5t109.5 30.5l6 33q-106 13 -123 57.5t-13 72.5l5 38q11 95 101 145q92 45 246 45zM665 503l13 110
l525 37l-23 -185zM-15 465l22 185l539 -37l-14 -110zM488 763q74 201 158 334q100 147 235 264h-531l17 140h691l-17 -140q-143 -139 -236 -285t-146 -313h-171z" />
    <glyph glyph-name="arrowleft" unicode="&#x2190;" 
d="M622 1344v-512h592v-175h-592v-512h-36l-567 581v37l567 581h36z" />
    <glyph glyph-name="arrowup" unicode="&#x2191;" 
d="M527 6v837h-471v38l544 603h33l544 -603v-38h-470v-837h-180z" />
    <glyph glyph-name="arrowright" unicode="&#x2192;" 
d="M613 145v512h-594v175h594v512h33l568 -581v-37l-568 -581h-33z" />
    <glyph glyph-name="arrowdown" unicode="&#x2193;" 
d="M56 646h471v838h180v-838h470v-37l-544 -603h-33l-544 603v37z" />
    <glyph glyph-name="arrowboth" unicode="&#x2194;" 
d="M495 657v-512h-33l-443 581v37l443 581h33v-512h242v512h34l443 -581v-37l-443 -581h-34v512h-242z" />
    <glyph glyph-name="arrowupdn" unicode="&#x2195;" 
d="M56 465h471v559h-471v37l544 609h33l544 -609v-37h-470v-559h470v-37l-544 -609h-33l-544 609v37z" />
    <glyph glyph-name="arrowupdnbse" unicode="&#x21a8;" 
d="M115 -365l23 179h957l-23 -179h-957zM56 465h471v559h-471v37l544 609h33l544 -609v-37h-470v-559h470v-37l-544 -609h-33l-544 609v37z" />
    <glyph glyph-name="partialdiff" unicode="&#x2202;" 
d="M587 752q-135 0 -177.5 -88.5t-53.5 -149.5l-23 -116q-26 -132 22 -195t184.5 -63t207.5 63q70 68 95 195l22 116q33 181 -54.5 209.5t-222.5 28.5zM171 534q34 178 157 279t290 101q168 0 215.5 -54t56.5 -82h39q30 237 -58 363q-96 141 -372 220l99 140
q331 -98 441 -289q105 -179 41 -523l-52 -278q-39 -216 -175 -325q-126 -105 -332 -105t-309.5 107.5t-64.5 311.5z" />
    <glyph glyph-name="Delta#1" unicode="&#x2206;" 
d="M896 162l-213 1138l-495 -1138h708zM-6 0l21 162l588 1327h196l277 -1327l-20 -162h-1062z" />
    <glyph glyph-name="product" unicode="&#x220f;" 
d="M47 -372l229 1861h863l-229 -1861h-180l210 1699h-502l-211 -1699h-180z" />
    <glyph glyph-name="summation" unicode="&#x2211;" 
d="M964 -210l-20 -162h-948l21 162l722 793l-532 744l18 162h948l-19 -162h-750l479 -668l-17 -141l-672 -728h770z" />
    <glyph glyph-name="minus" unicode="&#x2212;" 
d="M115 562l23 179h957l-23 -179h-957z" />
    <glyph glyph-name="radical" unicode="&#x221a;" 
d="M499 0l-201 760l-199 -38l18 153l307 56l194 -808l510 1553h168l-575 -1676h-222z" />
    <glyph glyph-name="infinity" unicode="&#x221e;" 
d="M334 367q66 0 109 96t106 244q-15 127 -31.5 271.5t-91.5 144.5q-83 0 -130.5 -189t-45 -378t83.5 -189zM717 508.5q19 -141.5 88 -141.5q83 0 131.5 186t45.5 378t-83 192q-72 0 -119.5 -116.5t-96.5 -231.5q15 -125 34 -266.5zM441 1264q91 0 145 -93q51 -100 66 -244
q70 164 119.5 227.5t87 86.5t85.5 23q104 0 160 -134q56 -143 26 -385q-29 -242 -126 -386q-96 -134 -220 -134q-87 0 -132 92q-47 85 -69 238q-70 -160 -132 -242q-73 -88 -159 -88q-46 0 -113 51t-79 198.5t2 271.5q29 246 126 382t213 136z" />
    <glyph glyph-name="orthogonal" unicode="&#x221f;" 
d="M99 0l160 1303h180l-139 -1143h707l-20 -160h-888z" />
    <glyph glyph-name="intersection" unicode="&#x2229;" 
d="M687 1322q199 0 300 -127q99 -130 69 -378l-101 -817h-180l100 819q32 267 -56.5 304t-184 37t-165.5 -78q-72 -86 -93 -263l-100 -819h-181l100 817q29 245 161 375t331 130z" />
    <glyph glyph-name="integral" unicode="&#x222b;" 
d="M974 1342q-73 0 -107.5 -14.5t-58.5 -46.5q-44 -68 -61 -223l-129 -1043q-22 -181 -126 -291q-108 -108 -253 -108t-235 45l54 157q93 -38 161 -38q69 0 103 14t58 47q46 63 63 222l129 1043q23 187 125 292.5t250 105.5q147 0 235 -44l-52 -155q-83 37 -156 37z" />
    <glyph glyph-name="approxequal" unicode="&#x2248;" 
d="M345 395q-112 0 -138 -222l-21 -175h-158l22 186q22 187 114 288t219 101t171 -74.5t80 -170.5t64 -131t77 -35t83 52q35 52 51 171l22 174h158l-22 -187q-27 -190 -116 -290q-89 -99 -195 -99t-162 50q-57 50 -93 157q-56 137 -75 163q-32 42 -81 42zM479.5 1131.5
q-17.5 7.5 -55.5 7.5t-64 -38q-50 -71 -60 -183l-23 -175h-158l22 186q22 187 114 288t218 101t171 -74.5t80 -168.5t62 -131q32 -37 80 -37t84 50q36 55 52 173l20 173h158l-22 -186q-22 -185 -113 -287t-199 -102q-107 0 -161 49t-93 158q-56 137 -75 163
q-20 26 -37.5 33.5z" />
    <glyph glyph-name="notequal" unicode="&#x2260;" 
d="M1046 356h-480l-125 -356h-175l125 356h-302l23 182h344l147 413h-439l22 183h482l123 355h175l-124 -355h301l-22 -183h-343l-147 -413h438z" />
    <glyph glyph-name="equivalence" unicode="&#x2261;" 
d="M71 195l22 181h957l-22 -181h-957zM115 562l23 181h957l-23 -181h-957zM160 929l22 181h957l-22 -181h-957z" />
    <glyph glyph-name="lessequal" unicode="&#x2264;" 
d="M97 0l20 164h857l-21 -164h-856zM1000 372l-801 470l23 178l914 469l-21 -171l-754 -387l659 -387z" />
    <glyph glyph-name="greaterequal" unicode="&#x2265;" 
d="M953 0h-856l20 164h857zM143 372l21 172l752 387l-657 387l20 171l799 -469l-20 -177z" />
    <glyph glyph-name="logicalnotreversed" unicode="&#x2310;" 
d="M39 0l91 741h972l-22 -179h-795l-69 -562h-177z" />
    <glyph glyph-name="integralbt" unicode="&#x2321;" 
d="M61 -182q93 -38 164 -38t105.5 17t56.5 51q42 66 62 228l173 1413h180l-178 -1461q-26 -192 -129 -304q-104 -108 -249 -108q-82 0 -149 17t-88 28z" />
    <glyph glyph-name="uni23af" unicode="&#x23af;" 
d="M-19 657v175h1270v-175h-1270z" />
    <glyph glyph-name="lighthorzbxd" unicode="&#x2500;" 
d="M-37 652h1307v-187h-1307v187z" />
    <glyph glyph-name="heavyhorzbxd" unicode="&#x2501;" 
d="M-37 745h1307v-373h-1307v373z" />
    <glyph glyph-name="lightvertbxd" unicode="&#x2502;" 
d="M523 1955h186v-2793h-186v2793z" />
    <glyph glyph-name="heavyvertbxd" unicode="&#x2503;" 
d="M430 1955h372v-2793h-372v2793z" />
    <glyph glyph-name="lighttrpldashhorzbxd" unicode="&#x2504;" 
d="M886 652h274v-187h-274v187zM477 652h273v-187h-273v187zM67 652h274v-187h-274v187z" />
    <glyph glyph-name="heavytrpldashhorzbxd" unicode="&#x2505;" 
d="M886 745h274v-373h-274v373zM477 745h273v-373h-273v373zM67 745h274v-373h-274v373z" />
    <glyph glyph-name="lighttrpldashvertbxd" unicode="&#x2506;" 
d="M523 2147h186v-455h-186v455zM523 1465h186v-454h-186v454zM523 784h186v-454h-186v454zM523 102h186v-454h-186v454z" />
    <glyph glyph-name="heavytrpldashvertbxd" unicode="&#x2507;" 
d="M430 2147h372v-455h-372v455zM430 1465h372v-454h-372v454zM430 784h372v-454h-372v454zM430 102h372v-454h-372v454z" />
    <glyph glyph-name="lightquaddashhorzbxd" unicode="&#x2508;" 
d="M959 652h231v-187h-231v187zM652 652h231v-187h-231v187zM344 652h231v-187h-231v187zM37 652h231v-187h-231v187z" />
    <glyph glyph-name="heavyquaddashhorzbxd" unicode="&#x2509;" 
d="M959 745h231v-373h-231v373zM652 745h231v-373h-231v373zM344 745h231v-373h-231v373zM37 745h231v-373h-231v373z" />
    <glyph glyph-name="lightquaddashvertbxd" unicode="&#x250a;" 
d="M523 1519h186v-385h-186v385zM523 1007h186v-385h-186v385zM523 495h186v-385h-186v385zM523 -17h186v-385h-186v385z" />
    <glyph glyph-name="heavyquaddashvertbxd" unicode="&#x250b;" 
d="M430 1519h372v-385h-372v385zM430 1007h372v-385h-372v385zM430 495h372v-385h-372v385zM430 -17h372v-385h-372v385z" />
    <glyph glyph-name="lightdnrightbxd" unicode="&#x250c;" 
d="M523 652h747v-187h-561v-1303h-186v1490z" />
    <glyph glyph-name="dnlightrightheavybxd" unicode="&#x250d;" 
d="M523 745h747v-373h-561v-1210h-186v1583z" />
    <glyph glyph-name="dnheavyrightlightbxd" unicode="&#x250e;" 
d="M430 652h840v-187h-468v-1303h-372v1490z" />
    <glyph glyph-name="heavydnrightbxd" unicode="&#x250f;" 
d="M430 745h840v-373h-468v-1210h-372v1583z" />
    <glyph glyph-name="lightdnleftbxd" unicode="&#x2510;" 
d="M-37 652h746v-1490h-186v1303h-560v187z" />
    <glyph glyph-name="dnlightleftheavybxd" unicode="&#x2511;" 
d="M-37 745h746v-1583h-186v1210h-560v373z" />
    <glyph glyph-name="dnheavyleftlightbxd" unicode="&#x2512;" 
d="M-37 652h839v-1490h-372v1303h-467v187z" />
    <glyph glyph-name="heavydnleftbxd" unicode="&#x2513;" 
d="M-37 745h839v-1583h-372v1210h-467v373z" />
    <glyph glyph-name="lightuprightbxd" unicode="&#x2514;" 
d="M523 1955h186v-1303h561v-187h-747v1490z" />
    <glyph glyph-name="uplightrightheavybxd" unicode="&#x2515;" 
d="M523 1955h186v-1210h561v-373h-747v1583z" />
    <glyph glyph-name="upheavyrightlightbxd" unicode="&#x2516;" 
d="M430 1955h372v-1303h468v-187h-840v1490z" />
    <glyph glyph-name="heavyuprightbxd" unicode="&#x2517;" 
d="M430 1955h372v-1210h468v-373h-840v1583z" />
    <glyph glyph-name="lightupleftbxd" unicode="&#x2518;" 
d="M-37 652h560v1303h186v-1490h-746v187z" />
    <glyph glyph-name="uplightleftheavybxd" unicode="&#x2519;" 
d="M-37 745h560v1210h186v-1583h-746v373z" />
    <glyph glyph-name="upheavyleftlightbxd" unicode="&#x251a;" 
d="M-37 652h467v1303h372v-1490h-839v187z" />
    <glyph glyph-name="heavyupleftbxd" unicode="&#x251b;" 
d="M-37 745h467v1210h372v-1583h-839v373z" />
    <glyph glyph-name="lightvertrightbxd" unicode="&#x251c;" 
d="M523 1955h186v-1303h561v-187h-561v-1303h-186v2793z" />
    <glyph glyph-name="vertlightrightheavybxd" unicode="&#x251d;" 
d="M523 1955h186v-1210h561v-373h-561v-1210h-186v2793z" />
    <glyph glyph-name="upheavyrightdnlightbxd" unicode="&#x251e;" 
d="M430 1955h372v-1303h468v-187h-561v-1303h-186v1303h-93v1490z" />
    <glyph glyph-name="dnheavyrightuplightbxd" unicode="&#x251f;" 
d="M430 652h93v1303h186v-1303h561v-187h-468v-1303h-372v1490z" />
    <glyph glyph-name="vertheavyrightlightbxd" unicode="&#x2520;" 
d="M430 1955h372v-1303h468v-187h-468v-1303h-372v2793z" />
    <glyph glyph-name="dnlightrightupheavybxd" unicode="&#x2521;" 
d="M430 1955h372v-1210h468v-373h-561v-1210h-186v1210h-93v1583z" />
    <glyph glyph-name="uplightrightdnheavybxd" unicode="&#x2522;" 
d="M430 745h93v1210h186v-1210h561v-373h-468v-1210h-372v1583z" />
    <glyph glyph-name="heavyvertrightbxd" unicode="&#x2523;" 
d="M430 1955h372v-1210h468v-373h-468v-1210h-372v2793z" />
    <glyph glyph-name="lightvertleftbxd" unicode="&#x2524;" 
d="M-37 652h560v1303h186v-2793h-186v1303h-560v187z" />
    <glyph glyph-name="vertlightleftheavybxd" unicode="&#x2525;" 
d="M-37 745h560v1210h186v-2793h-186v1210h-560v373z" />
    <glyph glyph-name="upheavyleftdnlightbxd" unicode="&#x2526;" 
d="M-37 652h467v1303h372v-1490h-93v-1303h-186v1303h-560v187z" />
    <glyph glyph-name="dnheavyleftuplightbxd" unicode="&#x2527;" 
d="M-37 652h560v1303h186v-1303h93v-1490h-372v1303h-467v187z" />
    <glyph glyph-name="vertheavyleftlightbxd" unicode="&#x2528;" 
d="M-37 652h467v1303h372v-2793h-372v1303h-467v187z" />
    <glyph glyph-name="dnlightleftupheavybxd" unicode="&#x2529;" 
d="M-37 745h467v1210h372v-1583h-93v-1210h-186v1210h-560v373z" />
    <glyph glyph-name="uplightleftdnheavybxd" unicode="&#x252a;" 
d="M-37 745h560v1210h186v-1210h93v-1583h-372v1210h-467v373z" />
    <glyph glyph-name="heavyvertleftbxd" unicode="&#x252b;" 
d="M-37 745h467v1210h372v-2793h-372v1210h-467v373z" />
    <glyph glyph-name="lightdnhorzbxd" unicode="&#x252c;" 
d="M-37 652h1307v-187h-561v-1303h-186v1303h-560v187z" />
    <glyph glyph-name="leftheavyrightdnlightbxd" unicode="&#x252d;" 
d="M-37 745h746v-93h561v-187h-561v-1303h-186v1210h-560v373z" />
    <glyph glyph-name="rightheavyleftdnlightbxd" unicode="&#x252e;" 
d="M-37 652h560v93h747v-373h-561v-1210h-186v1303h-560v187z" />
    <glyph glyph-name="dnlighthorzheavybxd" unicode="&#x252f;" 
d="M-37 745h1307v-373h-561v-1210h-186v1210h-560v373z" />
    <glyph glyph-name="dnheavyhorzlightbxd" unicode="&#x2530;" 
d="M-37 652h1307v-187h-468v-1303h-372v1303h-467v187z" />
    <glyph glyph-name="rightlightleftdnheavybxd" unicode="&#x2531;" 
d="M-37 745h839v-93h468v-187h-468v-1303h-372v1210h-467v373z" />
    <glyph glyph-name="leftlightrightdnheavybxd" unicode="&#x2532;" 
d="M-37 652h467v93h840v-373h-468v-1210h-372v1303h-467v187z" />
    <glyph glyph-name="heavydnhorzbxd" unicode="&#x2533;" 
d="M-37 745h1307v-373h-468v-1210h-372v1210h-467v373z" />
    <glyph glyph-name="lightuphorzbxd" unicode="&#x2534;" 
d="M-37 652h560v1303h186v-1303h561v-187h-1307v187z" />
    <glyph glyph-name="leftheavyrightuplightbxd" unicode="&#x2535;" 
d="M-37 745h560v1210h186v-1303h561v-187h-561v-93h-746v373z" />
    <glyph glyph-name="rightheavyleftuplightbxd" unicode="&#x2536;" 
d="M-37 652h560v1303h186v-1210h561v-373h-747v93h-560v187z" />
    <glyph glyph-name="uplighthorzheavybxd" unicode="&#x2537;" 
d="M-37 745h560v1210h186v-1210h561v-373h-1307v373z" />
    <glyph glyph-name="upheavyhorzlightbxd" unicode="&#x2538;" 
d="M-37 652h467v1303h372v-1303h468v-187h-1307v187z" />
    <glyph glyph-name="rightlightleftupheavybxd" unicode="&#x2539;" 
d="M-37 745h467v1210h372v-1303h468v-187h-468v-93h-839v373z" />
    <glyph glyph-name="leftlightrightupheavybxd" unicode="&#x253a;" 
d="M-37 652h467v1303h372v-1210h468v-373h-840v93h-467v187z" />
    <glyph glyph-name="heavyuphorzbxd" unicode="&#x253b;" 
d="M-37 745h467v1210h372v-1210h468v-373h-1307v373z" />
    <glyph glyph-name="lightverthorzbxd" unicode="&#x253c;" 
d="M-37 652h560v1303h186v-1303h561v-187h-561v-1303h-186v1303h-560v187z" />
    <glyph glyph-name="leftheavyrightvertlightbxd" unicode="&#x253d;" 
d="M-37 745h560v1210h186v-1303h561v-187h-561v-1303h-186v1210h-560v373z" />
    <glyph glyph-name="rightheavyleftvertlightbxd" unicode="&#x253e;" 
d="M-37 652h560v1303h186v-1210h561v-373h-561v-1210h-186v1303h-560v187z" />
    <glyph glyph-name="vertlighthorzheavybxd" unicode="&#x253f;" 
d="M-37 745h560v1210h186v-1210h561v-373h-561v-1210h-186v1210h-560v373z" />
    <glyph glyph-name="upheavydnhorzlightbxd" unicode="&#x2540;" 
d="M-37 652h467v1303h372v-1303h468v-187h-561v-1303h-186v1303h-560v187z" />
    <glyph glyph-name="dnheavyuphorzlightbxd" unicode="&#x2541;" 
d="M-37 652h560v1303h186v-1303h561v-187h-468v-1303h-372v1303h-467v187z" />
    <glyph glyph-name="vertheavyhorzlightbxd" unicode="&#x2542;" 
d="M-37 652h467v1303h372v-1303h468v-187h-468v-1303h-372v1303h-467v187z" />
    <glyph glyph-name="leftupheavyrightdnlightbxd" unicode="&#x2543;" 
d="M-37 745h467v1210h372v-1303h468v-187h-468v-93h-93v-1210h-186v1210h-560v373z" />
    <glyph glyph-name="rightupheavyleftdnlightbxd" unicode="&#x2544;" 
d="M-37 652h467v1303h372v-1210h468v-373h-561v-1210h-186v1210h-93v93h-467v187z" />
    <glyph glyph-name="leftdnheavyrightuplightbxd" unicode="&#x2545;" 
d="M-37 745h560v1210h186v-1210h93v-93h468v-187h-468v-1303h-372v1210h-467v373z" />
    <glyph glyph-name="rightdnheavyleftuplightbxd" unicode="&#x2546;" 
d="M-37 652h467v93h93v1210h186v-1210h561v-373h-468v-1210h-372v1303h-467v187z" />
    <glyph glyph-name="dnlightuphorzheavybxd" unicode="&#x2547;" 
d="M-37 745h467v1210h372v-1210h468v-373h-561v-1210h-186v1210h-560v373z" />
    <glyph glyph-name="uplightdnhorzheavybxd" unicode="&#x2548;" 
d="M-37 745h560v1210h186v-1210h561v-373h-468v-1210h-372v1210h-467v373z" />
    <glyph glyph-name="rightlightleftvertheavybxd" unicode="&#x2549;" 
d="M-37 745h467v1210h372v-1303h468v-187h-468v-1303h-372v1210h-467v373z" />
    <glyph glyph-name="leftlightrightvertheavybxd" unicode="&#x254a;" 
d="M-37 652h467v1303h372v-1210h468v-373h-468v-1210h-372v1303h-467v187z" />
    <glyph glyph-name="heavyverthorzbxd" unicode="&#x254b;" 
d="M-37 745h467v1210h372v-1210h468v-373h-468v-1210h-372v1210h-467v373z" />
    <glyph glyph-name="lightdbldashhorzbxd" unicode="&#x254c;" 
d="M769 652h309v-187h-309v187zM153 652h309v-187h-309v187z" />
    <glyph glyph-name="heavydbldashhorzbxd" unicode="&#x254d;" 
d="M769 745h309v-373h-309v373zM153 745h309v-373h-309v373z" />
    <glyph glyph-name="lightdbldashvertbxd" unicode="&#x254e;" 
d="M523 1326h186v-512h-186v512zM523 302h186v-512h-186v512z" />
    <glyph glyph-name="heavydbldashvertbxd" unicode="&#x254f;" 
d="M430 1326h372v-512h-372v512zM430 302h372v-512h-372v512z" />
    <glyph glyph-name="dblhorzbxd" unicode="&#x2550;" 
d="M-37 465h1307v-186h-1307v186zM-37 838h1307v-186h-1307v186z" />
    <glyph glyph-name="dblvertbxd" unicode="&#x2551;" 
d="M709 1955h187v-2793h-187v2793zM337 1955h186v-2793h-186v2793z" />
    <glyph glyph-name="dnsngrightdblbxd" unicode="&#x2552;" 
d="M523 838h747v-186h-561v-187h561v-186h-561v-1117h-186v1676z" />
    <glyph glyph-name="dndblrightsngbxd" unicode="&#x2553;" 
d="M337 652h933v-187h-374v-1303h-187v1303h-186v-1303h-186v1490z" />
    <glyph glyph-name="dbldnrightbxd" unicode="&#x2554;" 
d="M709 465h561v-186h-374v-1117h-187v1303zM337 838h933v-186h-747v-1490h-186v1676z" />
    <glyph glyph-name="dnsngleftdblbxd" unicode="&#x2555;" 
d="M-37 838h746v-1676h-186v1117h-560v186h560v187h-560v186z" />
    <glyph glyph-name="dndblleftsngbxd" unicode="&#x2556;" 
d="M-37 652h933v-1490h-187v1303h-186v-1303h-186v1303h-374v187z" />
    <glyph glyph-name="dbldnleftbxd" unicode="&#x2557;" 
d="M-37 465h560v-1303h-186v1117h-374v186zM-37 838h933v-1676h-187v1490h-746v186z" />
    <glyph glyph-name="upsngrightdblbxd" unicode="&#x2558;" 
d="M523 1955h186v-1117h561v-186h-561v-187h561v-186h-747v1676z" />
    <glyph glyph-name="updblrightsngbxd" unicode="&#x2559;" 
d="M337 1955h186v-1303h186v1303h187v-1303h374v-187h-933v1490z" />
    <glyph glyph-name="dbluprightbxd" unicode="&#x255a;" 
d="M709 1955h187v-1117h374v-186h-561v1303zM337 1955h186v-1490h747v-186h-933v1676z" />
    <glyph glyph-name="upsngleftdblbxd" unicode="&#x255b;" 
d="M-37 838h560v1117h186v-1676h-746v186h560v187h-560v186z" />
    <glyph glyph-name="updblleftsngbxd" unicode="&#x255c;" 
d="M-37 652h374v1303h186v-1303h186v1303h187v-1490h-933v187z" />
    <glyph glyph-name="dblupleftbxd" unicode="&#x255d;" 
d="M-37 838h374v1117h186v-1303h-560v186zM-37 465h746v1490h187v-1676h-933v186z" />
    <glyph glyph-name="vertsngrightdblbxd" unicode="&#x255e;" 
d="M523 1955h186v-1117h561v-186h-561v-187h561v-186h-561v-1117h-186v2793z" />
    <glyph glyph-name="vertdblrightsngbxd" unicode="&#x255f;" 
d="M337 1955h186v-2793h-186v2793zM709 1955h187v-1303h374v-187h-374v-1303h-187v2793z" />
    <glyph glyph-name="dblvertrightbxd" unicode="&#x2560;" 
d="M709 465h561v-186h-374v-1117h-187v1303zM709 1955h187v-1117h374v-186h-561v1303zM337 1955h186v-2793h-186v2793z" />
    <glyph glyph-name="vertsngleftdblbxd" unicode="&#x2561;" 
d="M-37 838h560v1117h186v-2793h-186v1117h-560v186h560v187h-560v186z" />
    <glyph glyph-name="vertdblleftsngbxd" unicode="&#x2562;" 
d="M709 1955h187v-2793h-187v2793zM-37 652h374v1303h186v-2793h-186v1303h-374v187z" />
    <glyph glyph-name="dblvertleftbxd" unicode="&#x2563;" 
d="M-37 838h374v1117h186v-1303h-560v186zM-37 465h560v-1303h-186v1117h-374v186zM709 1955h187v-2793h-187v2793z" />
    <glyph glyph-name="dnsnghorzdblbxd" unicode="&#x2564;" 
d="M-37 838h1307v-186h-1307v186zM-37 465h1307v-186h-561v-1117h-186v1117h-560v186z" />
    <glyph glyph-name="dndblhorzsngbxd" unicode="&#x2565;" 
d="M-37 652h1307v-187h-374v-1303h-187v1303h-186v-1303h-186v1303h-374v187z" />
    <glyph glyph-name="dbldnhorzbxd" unicode="&#x2566;" 
d="M-37 838h1307v-186h-1307v186zM709 465h561v-186h-374v-1117h-187v1303zM-37 465h560v-1303h-186v1117h-374v186z" />
    <glyph glyph-name="upsnghorzdblbxd" unicode="&#x2567;" 
d="M-37 465h1307v-186h-1307v186zM-37 838h560v1117h186v-1117h561v-186h-1307v186z" />
    <glyph glyph-name="updblhorzsngbxd" unicode="&#x2568;" 
d="M-37 652h374v1303h186v-1303h186v1303h187v-1303h374v-187h-1307v187z" />
    <glyph glyph-name="dbluphorzbxd" unicode="&#x2569;" 
d="M-37 465h1307v-186h-1307v186zM709 1955h187v-1117h374v-186h-561v1303zM-37 838h374v1117h186v-1303h-560v186z" />
    <glyph glyph-name="vertsnghorzdblbxd" unicode="&#x256a;" 
d="M-37 838h560v1117h186v-1117h561v-186h-561v-187h561v-186h-561v-1117h-186v1117h-560v186h560v187h-560v186z" />
    <glyph glyph-name="vertdblhorzsngbxd" unicode="&#x256b;" 
d="M-37 652h374v1303h186v-1303h186v1303h187v-1303h374v-187h-374v-1303h-187v1303h-186v-1303h-186v1303h-374v187z" />
    <glyph glyph-name="dblverthorzbxd" unicode="&#x256c;" 
d="M709 465h561v-186h-374v-1117h-187v1303zM709 1955h187v-1117h374v-186h-561v1303zM-37 465h560v-1303h-186v1117h-374v186zM-37 838h374v1117h186v-1303h-560v186z" />
    <glyph glyph-name="lightarcdnrightbxd" unicode="&#x256d;" 
d="M523 -58q0 148 56 276t152 225t225 153t277 56h37v-187h-37q-215 0 -370 -153q-154 -154 -154 -370v-780h-186v780z" />
    <glyph glyph-name="lightarcdnleftbxd" unicode="&#x256e;" 
d="M709 -838h-186v780q0 215 -153 369t-370 154h-37v187h37q148 0 276 -56t225 -153q208 -208 208 -501v-780z" />
    <glyph glyph-name="lightarcupleftbxd" unicode="&#x256f;" 
d="M709 1175q0 -147 -56 -277q-57 -130 -153 -225q-96 -96 -224 -152t-276 -56h-37v187h37q215 0 370 153q153 153 153 370v780h186v-780z" />
    <glyph glyph-name="lightarcuprightbxd" unicode="&#x2570;" 
d="M523 1955h186v-780q-1 -215 153 -369t371 -154h37v-187h-37q-147 0 -277 56t-225 152q-96 96 -152 225t-56 277v780z" />
    <glyph glyph-name="lightdiaguprightdnleftbxd" unicode="&#x2571;" 
d="M1233 1583v-181l-1125 -1867h-108v180l1125 1868h108z" />
    <glyph glyph-name="lightdiagupleftdnrightbxd" unicode="&#x2572;" 
d="M1233 -465h-108l-1125 1867v181h108l1125 -1868v-180z" />
    <glyph glyph-name="lightdiagcrossbxd" unicode="&#x2573;" 
d="M0 1583h108l508 -846l509 846h108v-181l-509 -843l509 -844v-180h-108l-509 843l-508 -843h-108v180l508 844l-508 843v181z" />
    <glyph glyph-name="lightleftbxd" unicode="&#x2574;" 
d="M-37 652h746v-187h-746v187z" />
    <glyph glyph-name="lightupbxd" unicode="&#x2575;" 
d="M523 1955h186v-1490h-186v1490z" />
    <glyph glyph-name="lightrightbxd" unicode="&#x2576;" 
d="M523 652h747v-187h-747v187z" />
    <glyph glyph-name="lightdnbxd" unicode="&#x2577;" 
d="M523 652h186v-1490h-186v1490z" />
    <glyph glyph-name="heavyleftbxd" unicode="&#x2578;" 
d="M-37 745h746v-373h-746v373z" />
    <glyph glyph-name="heavyupbxd" unicode="&#x2579;" 
d="M430 1955h372v-1490h-372v1490z" />
    <glyph glyph-name="heavyrightbxd" unicode="&#x257a;" 
d="M523 745h747v-373h-747v373z" />
    <glyph glyph-name="heavydnbxd" unicode="&#x257b;" 
d="M430 652h372v-1490h-372v1490z" />
    <glyph glyph-name="lightleftheavyrightbxd" unicode="&#x257c;" 
d="M-37 652h560v93h747v-373h-747v93h-560v187z" />
    <glyph glyph-name="lightupheavydnbxd" unicode="&#x257d;" 
d="M430 652h93v1303h186v-1303h93v-1490h-372v1490z" />
    <glyph glyph-name="heavyleftlightrightbxd" unicode="&#x257e;" 
d="M-37 745h746v-93h561v-187h-561v-93h-746v373z" />
    <glyph glyph-name="heavyuplightdnbxd" unicode="&#x257f;" 
d="M430 1955h372v-1490h-93v-1303h-186v1303h-93v1490z" />
    <glyph glyph-name="uphalfblock" unicode="&#x2580;" 
d="M0 1583h1233v-1024h-1233v1024z" />
    <glyph glyph-name="dneighthblock" unicode="&#x2581;" 
d="M0 -210h1233v-255h-1233v255z" />
    <glyph glyph-name="dnquarterblock" unicode="&#x2582;" 
d="M0 47h1233v-512h-1233v512z" />
    <glyph glyph-name="dnthreeeighthsblock" unicode="&#x2583;" 
d="M0 302h1233v-767h-1233v767z" />
    <glyph glyph-name="dnhalfblock" unicode="&#x2584;" 
d="M0 559h1233v-1024h-1233v1024z" />
    <glyph glyph-name="dnfiveeighthsblock" unicode="&#x2585;" 
d="M0 814h1233v-1279h-1233v1279z" />
    <glyph glyph-name="dnthreequartersblock" unicode="&#x2586;" 
d="M0 1071h1233v-1536h-1233v1536z" />
    <glyph glyph-name="dnseveneighthsblock" unicode="&#x2587;" 
d="M0 1326h1233v-1791h-1233v1791z" />
    <glyph glyph-name="fullblock" unicode="&#x2588;" 
d="M0 1583h1233v-2048h-1233v2048z" />
    <glyph glyph-name="leftseveneighthsblock" unicode="&#x2589;" 
d="M0 1583h1078v-2048h-1078v2048z" />
    <glyph glyph-name="leftthreequartersblock" unicode="&#x258a;" 
d="M0 1583h923v-2048h-923v2048z" />
    <glyph glyph-name="leftfiveeighthsblock" unicode="&#x258b;" 
d="M0 1583h769v-2048h-769v2048z" />
    <glyph glyph-name="lefthalfblock" unicode="&#x258c;" 
d="M0 1583h616v-2048h-616v2048z" />
    <glyph glyph-name="leftthreeeighthsblock" unicode="&#x258d;" 
d="M0 1583h462v-2048h-462v2048z" />
    <glyph glyph-name="leftquarterblock" unicode="&#x258e;" 
d="M0 1583h307v-2048h-307v2048z" />
    <glyph glyph-name="lefteighthblock" unicode="&#x258f;" 
d="M0 1583h153v-2048h-153v2048z" />
    <glyph glyph-name="righthalfblock" unicode="&#x2590;" 
d="M616 1583h617v-2048h-617v2048z" />
    <glyph glyph-name="lightshade" unicode="&#x2591;" 
d="M1210 1545h37v-56h-37v56zM1117 1452h37v-56h-37v56zM1210 1359h37v-56h-37v56zM1117 1266h37v-56h-37v56zM1210 1173h37v-56h-37v56zM1117 1080h37v-56h-37v56zM1210 987h37v-56h-37v56zM1117 894h37v-56h-37v56zM1210 801h37v-56h-37v56zM1117 707h37v-55h-37v55z
M1210 614h37v-55h-37v55zM1117 521h37v-56h-37v56zM1210 428h37v-56h-37v56zM1117 335h37v-56h-37v56zM1210 242h37v-56h-37v56zM1117 149h37v-56h-37v56zM1210 56h37v-56h-37v56zM1117 -37h37v-56h-37v56zM1210 -130h37v-56h-37v56zM1117 -223h37v-56h-37v56zM1210 -317h37
v-55h-37v55zM1117 -410h37v-55h-37v55zM1024 1545h37v-56h-37v56zM931 1452h37v-56h-37v56zM1024 1359h37v-56h-37v56zM931 1266h37v-56h-37v56zM1024 1173h37v-56h-37v56zM931 1080h37v-56h-37v56zM1024 987h37v-56h-37v56zM931 894h37v-56h-37v56zM1024 801h37v-56h-37v56
zM931 707h37v-55h-37v55zM1024 614h37v-55h-37v55zM931 521h37v-56h-37v56zM1024 428h37v-56h-37v56zM931 335h37v-56h-37v56zM1024 242h37v-56h-37v56zM931 149h37v-56h-37v56zM1024 56h37v-56h-37v56zM931 -37h37v-56h-37v56zM1024 -130h37v-56h-37v56zM931 -223h37v-56
h-37v56zM1024 -317h37v-55h-37v55zM931 -410h37v-55h-37v55zM838 1545h37v-56h-37v56zM745 1452h37v-56h-37v56zM838 1359h37v-56h-37v56zM745 1266h37v-56h-37v56zM838 1173h37v-56h-37v56zM745 1080h37v-56h-37v56zM838 987h37v-56h-37v56zM745 894h37v-56h-37v56z
M838 801h37v-56h-37v56zM745 707h37v-55h-37v55zM838 614h37v-55h-37v55zM745 521h37v-56h-37v56zM838 428h37v-56h-37v56zM745 335h37v-56h-37v56zM838 242h37v-56h-37v56zM745 149h37v-56h-37v56zM838 56h37v-56h-37v56zM745 -37h37v-56h-37v56zM838 -130h37v-56h-37v56z
M745 -223h37v-56h-37v56zM838 -317h37v-55h-37v55zM745 -410h37v-55h-37v55zM652 1545h37v-56h-37v56zM559 1452h37v-56h-37v56zM652 1359h37v-56h-37v56zM559 1266h37v-56h-37v56zM652 1173h37v-56h-37v56zM559 1080h37v-56h-37v56zM652 987h37v-56h-37v56zM559 894h37v-56
h-37v56zM652 801h37v-56h-37v56zM559 707h37v-55h-37v55zM652 614h37v-55h-37v55zM559 521h37v-56h-37v56zM652 428h37v-56h-37v56zM559 335h37v-56h-37v56zM652 242h37v-56h-37v56zM559 149h37v-56h-37v56zM652 56h37v-56h-37v56zM559 -37h37v-56h-37v56zM652 -130h37v-56
h-37v56zM559 -223h37v-56h-37v56zM652 -317h37v-55h-37v55zM559 -410h37v-55h-37v55zM465 1545h38v-56h-38v56zM372 1452h38v-56h-38v56zM465 1359h38v-56h-38v56zM372 1266h38v-56h-38v56zM465 1173h38v-56h-38v56zM372 1080h38v-56h-38v56zM465 987h38v-56h-38v56z
M372 894h38v-56h-38v56zM465 801h38v-56h-38v56zM372 707h38v-55h-38v55zM465 614h38v-55h-38v55zM372 521h38v-56h-38v56zM465 428h38v-56h-38v56zM372 335h38v-56h-38v56zM465 242h38v-56h-38v56zM372 149h38v-56h-38v56zM465 56h38v-56h-38v56zM372 -37h38v-56h-38v56z
M465 -130h38v-56h-38v56zM372 -223h38v-56h-38v56zM465 -317h38v-55h-38v55zM372 -410h38v-55h-38v55zM279 1545h38v-56h-38v56zM186 1452h37v-56h-37v56zM279 1359h38v-56h-38v56zM186 1266h37v-56h-37v56zM279 1173h38v-56h-38v56zM186 1080h37v-56h-37v56zM279 987h38
v-56h-38v56zM186 894h37v-56h-37v56zM279 801h38v-56h-38v56zM186 707h37v-55h-37v55zM279 614h38v-55h-38v55zM186 521h37v-56h-37v56zM279 428h38v-56h-38v56zM186 335h37v-56h-37v56zM279 242h38v-56h-38v56zM186 149h37v-56h-37v56zM279 56h38v-56h-38v56zM186 -37h37
v-56h-37v56zM279 -130h38v-56h-38v56zM186 -223h37v-56h-37v56zM279 -317h38v-55h-38v55zM186 -410h37v-55h-37v55zM93 1545h37v-56h-37v56zM0 1452h37v-56h-37v56zM93 1359h37v-56h-37v56zM0 1266h37v-56h-37v56zM93 1173h37v-56h-37v56zM0 1080h37v-56h-37v56zM93 987h37
v-56h-37v56zM0 894h37v-56h-37v56zM93 801h37v-56h-37v56zM0 707h37v-55h-37v55zM93 614h37v-55h-37v55zM0 521h37v-56h-37v56zM93 428h37v-56h-37v56zM0 335h37v-56h-37v56zM93 242h37v-56h-37v56zM0 149h37v-56h-37v56zM93 56h37v-56h-37v56zM0 -37h37v-56h-37v56z
M93 -130h37v-56h-37v56zM0 -223h37v-56h-37v56zM93 -317h37v-55h-37v55zM0 -410h37v-55h-37v55z" />
    </font>
</defs>
</svg>
