<?xml version="1.0" standalone="no"?>
<!DOCTYPE svg PUBLIC "-//W3C//DTD SVG 1.1//EN" "http://www.w3.org/Graphics/SVG/1.1/DTD/svg11.dtd" >
<svg xmlns="http://www.w3.org/2000/svg">
<metadata>
Created by FontPrep 20130207 at Mon Aug 15 19:30:24 2016
 By Damien Criado
(c) Copyright The Font Bureau, Inc. 2014. All rights reserved.
</metadata>
<defs>
<font id="ca4023ef3429c3932ed4c4f378eceefb" horiz-adv-x='1024' >
  <font-face 
    font-family="InputMonoNarrow-Medium"
    font-weight="500"
    font-stretch="semi-condensed"
    units-per-em="2048"
    panose-1="2 0 6 9 3 0 0 9 0 4"
    ascent="1583"
    descent="-465"
    x-height="1117"
    cap-height="1489"
    bbox="-475 -838 1666 2607"
    underline-thickness="0"
    underline-position="0"
    unicode-range="U+000D-1F41B"
  />
<missing-glyph 
d="M279 -279h674v1675h-674v-1675zM93 -465v2048h1046v-2048h-1046z" />
    <glyph glyph-name=".notdef" 
d="M279 -279h674v1675h-674v-1675zM93 -465v2048h1046v-2048h-1046z" />
    <glyph glyph-name=".null" horiz-adv-x="0" 
 />
    <glyph glyph-name="nonmarkingreturn" unicode="&#xd;" horiz-adv-x="0" 
 />
    <glyph glyph-name="NULL" horiz-adv-x="0" 
 />
    <glyph glyph-name="space" unicode="&#xa0;" 
 />
    <glyph glyph-name="space" unicode=" " 
 />
    <glyph glyph-name="exclam" unicode="!" 
d="M834 138q0 -157 -214 -157t-214 157v52q0 160 214 160t214 -160v-52zM495 559l-50 930h339l-52 -930h-237z" />
    <glyph glyph-name="quotedbl" unicode="&#x22;" 
d="M229 706l-58 783h341l-58 -783h-225zM778 706l-57 783h340l-57 -783h-226z" />
    <glyph glyph-name="numbersign" unicode="#" 
d="M54 348v199h231l18 395h-249v199h257l17 348h214l-17 -348h220l15 348h214l-17 -348h222v-199h-231l-17 -395h248v-199h-257l-17 -348h-212l14 348h-217l-17 -348h-214l17 348h-222zM717 547l18 395h-219l-17 -395h218z" />
    <glyph glyph-name="dollar" unicode="$" 
d="M706 -93h-177v177q-249 21 -419 143l63 190q168 -118 373 -140v373q-229 50 -322.5 135t-93.5 245t100 258.5t299 115.5v179h177v-179q224 -20 357 -117l-54 -189q-166 96 -322 108v-361q242 -54 340.5 -140.5t98.5 -248.5t-110.5 -260.5t-309.5 -113.5v-175zM879 439
q0 63 -42 103.5t-150 73.5v-344q192 12 192 167zM374 1060q0 -70 38.5 -109t133.5 -70v325q-86 -7 -129 -41.5t-43 -104.5z" />
    <glyph glyph-name="percent" unicode="%" 
d="M784 229q0 -114 92 -114t92 114v115q0 60 -25 88t-66 28q-93 0 -93 -116v-115zM876 -41q-129 0 -209.5 69t-80.5 214v99q0 145 81 215.5t209.5 70.5t208.5 -70.5t80 -215.5v-99q0 -145 -80 -214t-209 -69zM54 382l1022 860l110 -136l-1028 -862zM264 1134
q0 -116 92.5 -116t92.5 116v113q0 116 -67 116t-92.5 -28t-25.5 -88v-113zM356 858q-129 0 -209 71t-80 216v95q0 145 81 216t210 71t208.5 -71t79.5 -216v-95q0 -145 -80.5 -216t-209.5 -71z" />
    <glyph glyph-name="ampersand" unicode="&#x26;" 
d="M313 407q0 -238 179 -238q103 0 188 103q-173 167 -289 368q-78 -105 -78 -233zM492 901q188 107 188 259q0 80 -29 120t-78 40q-117 0 -117 -184q0 -136 36 -235zM416 -19q-142 0 -245.5 98.5t-103.5 262.5t63.5 268.5t180.5 184.5q-82 187 -82 315q0 188 90.5 294
t247.5 106t240 -94t83 -225t-73.5 -222.5t-276.5 -197.5q79 -182 236 -339q81 164 149 363l207 -65q-74 -180 -246 -427l322 -124l-48 -203q-184 58 -352 186q-74 -84 -162 -132.5t-230 -48.5z" />
    <glyph glyph-name="quotesingle" unicode="'" 
d="M497 706l-58 783h354l-58 -783h-238z" />
    <glyph glyph-name="parenleft" unicode="(" 
d="M311 556q0 374 164.5 628.5t513.5 323.5l26 -186q-236 -67 -335 -263.5t-99 -500t98.5 -496t335.5 -261.5l-26 -192q-348 69 -513 321t-165 626z" />
    <glyph glyph-name="parenright" unicode=")" 
d="M652 556q0 297 -99 498t-335 268l28 186q348 -69 512 -324t164 -628t-164 -625.5t-512 -321.5l-28 192q236 67 335 262.5t99 492.5z" />
    <glyph glyph-name="asterisk" unicode="*" 
d="M998 532l-328 304l67 -445h-245l68 443l-325 -302l-123 220l406 190l-406 190l123 220l325 -306l-68 443h245l-67 -443l328 306l123 -220l-408 -190l408 -190z" />
    <glyph glyph-name="plus" unicode="+" 
d="M501 67v467h-373v235h373v467h231v-467h372v-235h-372v-467h-231z" />
    <glyph glyph-name="comma" unicode="," 
d="M333 -333l138 784h425l-377 -784h-186z" />
    <glyph glyph-name="hyphen" unicode="&#x2011;" 
d="M128 534v242h976v-242h-976z" />
    <glyph glyph-name="hyphen" unicode="&#x2010;" 
d="M128 534v242h976v-242h-976z" />
    <glyph glyph-name="hyphen" unicode="&#xad;" 
d="M128 534v242h976v-242h-976z" />
    <glyph glyph-name="hyphen" unicode="-" 
d="M128 534v242h976v-242h-976z" />
    <glyph glyph-name="period" unicode="." 
d="M616 -19q-100 0 -164.5 47.5t-64.5 140.5v101q0 95 64.5 142.5t167 47.5t164.5 -47.5t62 -142.5v-101q0 -93 -64.5 -140.5t-164.5 -47.5z" />
    <glyph glyph-name="slash" unicode="/" 
d="M160 -372l683 1861h231l-683 -1861h-231z" />
    <glyph glyph-name="zero.salt_slash" unicode="&#xe05c;" 
d="M616 188q140 0 190 111t50 349v186q0 172 -33 255l-317 -875q48 -26 110 -26zM616 1301q-138 0 -189 -114.5t-51 -352.5v-186q0 -155 24 -244l315 877q-44 20 -99 20zM616.5 -19q-245.5 0 -368.5 170.5t-123 470.5v238q0 303 123.5 475.5t369.5 172.5t368 -172t122 -476
v-238q0 -300 -123 -470.5t-368.5 -170.5z" />
    <glyph glyph-name="zero.salt_slash" unicode="0" 
d="M616 188q140 0 190 111t50 349v186q0 172 -33 255l-317 -875q48 -26 110 -26zM616 1301q-138 0 -189 -114.5t-51 -352.5v-186q0 -155 24 -244l315 877q-44 20 -99 20zM616.5 -19q-245.5 0 -368.5 170.5t-123 470.5v238q0 303 123.5 475.5t369.5 172.5t368 -172t122 -476
v-238q0 -300 -123 -470.5t-368.5 -170.5z" />
    <glyph glyph-name="one" unicode="1" 
d="M192 0v214h355v1005h-50q-39 -112 -128.5 -171t-200.5 -52l-19 222q132 -2 239 72.5t163 198.5h266v-1275h311v-214h-936z" />
    <glyph glyph-name="two" unicode="2" 
d="M614 1508q477 0 477 -402v-102q0 -149 -79 -232t-237 -148l-194 -75q-108 -45 -146 -87.5t-38 -144.5v-103h711v-214h-983v313q0 175 70.5 271t253.5 170l191 75q99 41 139 80t40 130v58q0 112 -45.5 158t-154.5 46t-152 -55.5t-54 -223.5l-272 19q13 251 123 359
t350 108z" />
    <glyph glyph-name="three" unicode="3" 
d="M606 -19q-260 0 -372.5 109t-125.5 327l270 19q15 -149 62.5 -196.5t171.5 -47.5t175 49t51 163v61q0 117 -53 166t-171 49h-178v212h178q106 0 147 34.5t41 127.5v69q0 95 -44 135t-146 40t-145 -46.5t-54 -164.5l-272 19q13 212 123 307t340 95t350 -87.5t120 -281.5
v-54q0 -117 -71.5 -186t-187.5 -82v-54q130 -13 211.5 -100.5t81.5 -215.5v-47q0 -212 -121 -315.5t-381 -103.5z" />
    <glyph glyph-name="four" unicode="4" 
d="M1193 380h-204v-380h-272v380h-609v206l532 903h349v-903h204v-206zM717 586v600l-361 -600h361z" />
    <glyph glyph-name="five" unicode="5" 
d="M685 950q423 0 423 -408v-151q0 -186 -122 -298t-384 -112t-371.5 99t-122.5 356l270 18q15 -164 61.5 -215t174.5 -51t176 56t48 175v86q0 117 -47.5 170t-176.5 53h-454v761h888v-206h-618v-333h255z" />
    <glyph glyph-name="six" unicode="6" 
d="M614.5 188q117.5 0 168.5 63.5t51 187.5v38q0 132 -51 196t-168.5 64t-167.5 -64t-50 -196v-38q0 -130 50 -190.5t167.5 -60.5zM614 -19q-246 0 -367.5 136t-121.5 391v469q0 263 124.5 397t358.5 134t342 -85.5t143 -281.5l-287 -43q-20 117 -60 160t-148 43
t-154.5 -72.5t-46.5 -245.5v-188h22q47 63 116.5 99.5t186.5 36.5q190 0 288 -116.5t98 -321.5v-52q0 -227 -124 -343.5t-370 -116.5z" />
    <glyph glyph-name="seven" unicode="7" 
d="M125 1264v225h983v-225q-184 -335 -272.5 -602t-146.5 -662h-292q91 473 173 719.5t268 544.5h-713z" />
    <glyph glyph-name="eight" unicode="8" 
d="M616.5 192q126.5 0 174 52t47.5 169v41q0 119 -47.5 171.5t-174 52.5t-173 -52.5t-46.5 -171.5v-41q0 -117 46.5 -169t173 -52zM616.5 886q100.5 0 143 39t42.5 138v60q0 97 -42.5 136t-143 39t-143.5 -39.5t-43 -135.5v-60q0 -99 43 -138t143.5 -39zM617 -19
q-252 0 -372 98t-120 305v46q0 140 74.5 227.5t204.5 100.5v54q-104 11 -174 83.5t-70 191.5v65q0 182 112 269t346 87t345 -86.5t111 -269.5v-65q0 -119 -70.5 -191.5t-174.5 -83.5v-54q132 -13 205.5 -102.5t73.5 -225.5v-46q0 -207 -119.5 -305t-371.5 -98z" />
    <glyph glyph-name="nine" unicode="9" 
d="M125 996v52q0 227 123.5 343.5t369.5 116.5t368 -136t122 -391v-469q0 -257 -122 -394t-358 -137t-344.5 87t-143.5 280l286 43q22 -121 63.5 -162t147.5 -41t153.5 74.5t47.5 247.5v184h-24q-100 -134 -296 -134t-294.5 113t-98.5 323zM618 752q117 0 168.5 65.5
t51.5 195.5v37q0 128 -51.5 189.5t-168.5 61.5t-168.5 -63t-51.5 -188v-37q0 -130 51.5 -195.5t168.5 -65.5z" />
    <glyph glyph-name="colon" unicode=":" 
d="M616 -13q-95 0 -154.5 42t-59.5 126v94q0 86 59.5 130t155.5 44t154.5 -44t58.5 -130v-94q0 -84 -59.5 -126t-154.5 -42zM616 724q-95 0 -154.5 43t-59.5 127v95q0 86 59.5 129.5t155.5 43.5t154.5 -44t58.5 -129v-95q0 -84 -59.5 -127t-154.5 -43z" />
    <glyph glyph-name="semicolon" unicode=";" 
d="M352 -317l130 751h395l-352 -751h-173zM616 724q-95 0 -154.5 43t-59.5 127v95q0 86 59.5 129.5t155.5 43.5t154.5 -44t58.5 -129v-95q0 -84 -59.5 -127t-154.5 -43z" />
    <glyph glyph-name="less" unicode="&#x3c;" 
d="M1054 20l-875 499v265l875 499v-225l-711 -406l711 -406v-226z" />
    <glyph glyph-name="equal" unicode="=" 
d="M128 264v233h976v-233h-976zM128 806v233h976v-233h-976z" />
    <glyph glyph-name="greater" unicode="&#x3e;" 
d="M179 20v218l726 414l-726 413v218l875 -497v-268z" />
    <glyph glyph-name="question" unicode="?" 
d="M752 138q0 -157 -215 -157t-215 157v52q0 160 215 160t215 -160v-52zM862 1028v48q0 106 -50.5 165.5t-198.5 59.5t-195 -60.5t-61 -218.5l-269 19q13 249 134.5 358t387.5 109t394 -117.5t128 -295.5v-75q0 -210 -164 -313t-536 -163l-34 190q276 48 370 115t94 179z
" />
    <glyph glyph-name="at" unicode="@" 
d="M667 553q0 -162 115 -162q56 0 87.5 29t31.5 120v190q0 86 -32.5 125t-84.5 39q-117 0 -117 -168v-173zM715 -205q-302 0 -452.5 165t-150.5 442v548q0 253 129.5 405.5t380.5 152.5t376 -151t125 -413v-415q-8 -315 -345 -315q-169 0 -249 85t-80 235v209
q0 149 70.5 238.5t184.5 89.5q152 0 208 -118h52q-4 197 -78 298t-258 101t-263.5 -105.5t-79.5 -296.5v-539q0 -216 99.5 -336t330.5 -120q163 0 331 51v-161q-171 -50 -331 -50z" />
    <glyph glyph-name="A" unicode="A" 
d="M914 0l-91 389h-417l-97 -389h-251l400 1489h318l401 -1489h-263zM773 603l-153 648l-160 -648h313z" />
    <glyph glyph-name="B" unicode="B" 
d="M410 207h216q114 0 164 46.5t50 152.5v74q0 104 -50.5 150t-163.5 46h-216v-469zM410 873h203q99 0 142.5 40t43.5 131v68q0 91 -44 131t-142 40h-203v-410zM1110 385q0 -385 -479 -385h-491v1489h489q222 0 329 -86.5t107 -263.5v-74q0 -212 -201 -250v-54
q117 -13 181.5 -90t64.5 -196v-90z" />
    <glyph glyph-name="C" unicode="C" 
d="M125 992q0 516 384.5 516t503.5 -124t132 -397l-270 -19q-13 190 -62.5 258t-178.5 68t-183 -71.5t-54 -246.5v-471q0 -166 53.5 -238t183.5 -72t179 65.5t62 253.5l270 -19q-13 -272 -133 -393t-503.5 -121t-383.5 509v502z" />
    <glyph glyph-name="D" unicode="D" 
d="M410 214h165q138 0 200.5 81t62.5 249v394q0 171 -62.5 254t-200.5 83h-165v-1061zM140 0v1489h456q238 0 375 -146t137 -390v-424q0 -240 -137 -384.5t-375 -144.5h-456z" />
    <glyph glyph-name="E" unicode="E" 
d="M140 0v1489h968v-214h-698v-365h612v-216h-612v-480h698v-214h-968z" />
    <glyph glyph-name="F" unicode="F" 
d="M190 0v1489h938v-214h-668v-491h547v-214h-547v-570h-270z" />
    <glyph glyph-name="G" unicode="G" 
d="M628 -19q-241 0 -372 136t-131 382v486q0 251 129.5 387t367.5 136t355.5 -117.5t130.5 -349.5l-270 -19q-13 151 -59.5 211.5t-163.5 60.5t-167.5 -76.5t-50.5 -249.5v-454q0 -171 51.5 -245t179.5 -74t177.5 80.5t47.5 264.5h-235v214h507v-244q0 -255 -128 -392
t-369 -137z" />
    <glyph glyph-name="H" unicode="H" 
d="M140 0v1489h270v-564h413v564h270v-1489h-270v709h-413v-709h-270z" />
    <glyph glyph-name="I" unicode="I" 
d="M140 0v214h342v1061h-342v214h953v-214h-341v-1061h341v-214h-953z" />
    <glyph glyph-name="J" unicode="J" 
d="M586 -19q-248 0 -365 122t-130 400l270 20q13 -197 59 -262.5t162 -65.5t168 66.5t52 215.5v798h-370v214h642v-1014q0 -235 -120 -364.5t-368 -129.5z" />
    <glyph glyph-name="K" unicode="K" 
d="M410 672v-672h-270v1489h270v-601h63l410 601h286l-491 -687l487 -802h-286l-401 672h-68z" />
    <glyph glyph-name="L" unicode="L" 
d="M225 0v1489h270v-1275h598v-214h-868z" />
    <glyph glyph-name="M" unicode="M" 
d="M108 0v1489h279l235 -791l231 791h272v-1489h-239l23 1071l-194 -660h-196l-195 671l22 -1082h-238z" />
    <glyph glyph-name="N" unicode="N" 
d="M372 0h-232v1489h312l408 -1174v1174h233v-1489h-333l-388 1134v-1134z" />
    <glyph glyph-name="O" unicode="O" 
d="M617 195q120 0 170.5 69t50.5 239v476q0 173 -50.5 244t-170.5 71t-170 -71t-50 -244v-476q0 -169 50 -238.5t170 -69.5zM617 -19q-239 0 -365.5 131.5t-126.5 373.5v510q0 244 127.5 378t365.5 134t364 -134t126 -378v-510q0 -242 -126 -373.5t-365 -131.5z" />
    <glyph glyph-name="P" unicode="P" 
d="M410 702h227q110 0 159 44.5t49 156.5v168q0 114 -49 159t-159 45h-227v-573zM650 1489q465 0 465 -404v-199q0 -205 -119 -299.5t-346 -94.5h-240v-492h-270v1489h510z" />
    <glyph glyph-name="Q" unicode="Q" 
d="M616 220q119 0 170.5 69.5t51.5 233.5v458q0 168 -51.5 237t-170.5 69t-169 -69t-50 -237v-458q0 -164 50 -233.5t169 -69.5zM125 510v486q0 244 126.5 378t365.5 134t365 -134t126 -378v-486q0 -209 -95 -336t-278 -157q6 -127 86 -161.5t237 -4.5l31 -223
q-287 -52 -430 38t-143 351q-192 24 -291.5 150.5t-99.5 342.5z" />
    <glyph glyph-name="R" unicode="R" 
d="M1119 964q0 -327 -279 -391l314 -573h-288l-304 553h-152v-553h-270v1489h543q436 0 436 -400v-125zM410 767h242q112 0 159 44.5t47 158.5v110q0 108 -47.5 151.5t-158.5 43.5h-242v-508z" />
    <glyph glyph-name="S" unicode="S" 
d="M607 1285q-201 0 -201 -179q0 -86 61 -133.5t269 -112.5t298.5 -162t90.5 -270q0 -210 -142.5 -326.5t-369.5 -116.5q-313 0 -514 181l89 201q191 -168 432 -168q114 0 174.5 54t60.5 147t-61.5 139.5t-266.5 110.5t-298 160t-93 278t124 298t343 116q130 0 256 -47
t212 -129l-77 -196q-186 155 -387 155z" />
    <glyph glyph-name="T" unicode="T" 
d="M482 0v1275h-400v214h1069v-214h-399v-1275h-270z" />
    <glyph glyph-name="U" unicode="U" 
d="M617 -19q-243 0 -360 130.5t-117 398.5v979h270v-975q0 -173 47.5 -241t159 -68t159 68t47.5 241v975h270v-979q0 -268 -116.5 -398.5t-359.5 -130.5z" />
    <glyph glyph-name="V" unicode="V" 
d="M786 0h-337l-391 1489h273l287 -1234l296 1234h263z" />
    <glyph glyph-name="W" unicode="W" 
d="M769 0l-151 776l-149 -776h-246l-178 1489h238l89 -1156l140 784h209l145 -767l87 1139h235l-179 -1489h-240z" />
    <glyph glyph-name="X" unicode="X" 
d="M897 0l-284 519l-283 -519h-274l432 763l-389 726h286l259 -474l261 474h272l-410 -724l406 -765h-276z" />
    <glyph glyph-name="Y" unicode="Y" 
d="M752 0h-270v559l-439 930h277l300 -688l292 688h276l-436 -930v-559z" />
    <glyph glyph-name="Z" unicode="Z" 
d="M1108 0h-983v214l698 1061h-698v214h983v-214l-691 -1061h691v-214z" />
    <glyph glyph-name="bracketleft" unicode="[" 
d="M311 -372v1861h696v-206h-426v-1462h426v-193h-696z" />
    <glyph glyph-name="backslash" unicode="\" 
d="M843 -371l-683 1862l231 -2l683 -1861z" />
    <glyph glyph-name="bracketright" unicode="]" 
d="M225 -372v193h427v1462h-427v206h697v-1861h-697z" />
    <glyph glyph-name="asciicircum" unicode="^" 
d="M910 372l-294 782l-286 -782h-256l408 1117h270l413 -1117h-255z" />
    <glyph glyph-name="underscore" unicode="_" 
d="M128 -372v242h976v-242h-976z" />
    <glyph glyph-name="grave" unicode="`" 
d="M693 706l-412 783h425l173 -783h-186z" />
    <glyph glyph-name="a" unicode="a" 
d="M426 -19q-130 0 -224 84.5t-94 236.5t96 235t250 83h283v153q0 160 -178 160q-91 0 -135 -36.5t-68 -142.5l-224 47q35 177 137 256t301 79t313.5 -86t114.5 -264v-468q0 -86 44.5 -107t130.5 -6v-203q-286 -62 -331 169h-43q-52 -80 -147.5 -135t-225.5 -55zM493 460
q-134 0 -134 -139q0 -77 33 -114.5t109 -37.5q147 0 236 105v186h-244z" />
    <glyph glyph-name="b" unicode="b" 
d="M616 188q99 0 148.5 49.5t49.5 160.5v315q0 203 -157 203q-124 0 -238 -140v-534q98 -54 197 -54zM591 -15q-245 0 -442 129v1375h270v-554h52q39 97 117.5 149t184.5 52q147 0 229 -105.5t82 -283.5v-352q0 -197 -124 -303.5t-369 -106.5z" />
    <glyph glyph-name="c" unicode="c" 
d="M632 -19q-236 0 -359.5 108t-123.5 311v317q0 203 124.5 311t350.5 108t337 -101.5t132 -299.5l-263 -18q-7 117 -54.5 163.5t-151.5 46.5t-154.5 -51t-50.5 -170v-298q0 -117 50.5 -168.5t156.5 -51.5t152.5 39t51.5 136l263 -19q-13 -181 -119 -272t-342 -91z" />
    <glyph glyph-name="d" unicode="d" 
d="M581 1132q127 0 233 -48v405h270v-1489h-270v182h-53q-37 -93 -114 -147t-183 -54q-151 0 -233 108t-82 282v351q0 194 114.5 302t317.5 108zM419 402q0 -201 156 -201q121 0 239 140v527q-96 61 -196 61q-101 0 -150 -51t-49 -159v-317z" />
    <glyph glyph-name="e" unicode="e" 
d="M419 737v-72h395v57q0 123 -46 175.5t-152 52.5t-151.5 -50.5t-45.5 -162.5zM419 384q1 -213 203 -213q102 0 156 32.5t86 114.5l231 -65q-54 -149 -157.5 -210.5t-314.5 -61.5t-342.5 105.5t-131.5 308.5v326q0 201 127.5 308t341.5 107t340 -109t126 -318v-204h-665
v-121z" />
    <glyph glyph-name="f" unicode="f" 
d="M858 1331q-171 0 -171 -160v-54h397v-207h-397v-910h-272v910h-279v207h279v67q0 162 116.5 254t282.5 92t292 -48l-34 -188q-101 37 -214 37z" />
    <glyph glyph-name="g" unicode="g" 
d="M343 -88q0 -130 134 -130h301q63 0 105 25t42 95t-39 95t-100 25h-443v-110zM423 730q0 -147 163.5 -147t163.5 147v72q0 144 -164 144t-163 -144v-72zM432 430q-110 0 -110 -102t125 -101h339q162 0 262.5 -71.5t100.5 -225.5t-105.5 -237.5t-272.5 -83.5h-306
q-182 0 -281.5 71t-99.5 197q0 91 50 146t130 65v37q-61 17 -102 60t-41 133t58.5 153t161.5 75v35q-86 28 -127 85.5t-41 126.5v30q0 134 110 214t289 80h558v-184l-274 41v-38q65 -19 104.5 -73.5t39.5 -115.5v-30q0 -134 -107 -210.5t-293 -76.5h-168z" />
    <glyph glyph-name="h" unicode="h" 
d="M667 916q-130 0 -248 -164v-752h-270v1489h270v-554h52q37 93 118 147t187 54q140 0 224 -94t84 -256v-786h-270v724q0 93 -38.5 142.5t-108.5 49.5z" />
    <glyph glyph-name="i.salt_serifs" unicode="&#xe023;" 
d="M752 207h335v-207h-605v910h-337v207h607v-910zM804 1426q0 -123 -188 -123q-84 0 -136 27t-52 96v19q0 128 188 127t188 -127v-19z" />
    <glyph glyph-name="i.salt_serifs" unicode="i" 
d="M752 207h335v-207h-605v910h-337v207h607v-910zM804 1426q0 -123 -188 -123q-84 0 -136 27t-52 96v19q0 128 188 127t188 -127v-19z" />
    <glyph glyph-name="j" unicode="j" 
d="M642 20v890h-447v207h717v-1124q0 -184 -132 -283t-324 -99t-315 41l34 203q110 -39 226 -38t179 47q62 47 62 156zM953 1428q0 -123 -188 -123q-84 0 -136 27t-52 96v19q0 126 188 126t188 -126v-19z" />
    <glyph glyph-name="k" unicode="k" 
d="M465 486v-486h-270v1489h270v-809h73l291 437h290l-361 -510l355 -607h-292l-283 486h-73z" />
    <glyph glyph-name="l.salt_serifs_round" unicode="&#xe056;" 
d="M462 359v924h-317v206h587v-1100q0 -186 160 -186q92 0 169 35l45 -199q-127 -50 -251 -50q-181 0 -287 101.5t-106 268.5z" />
    <glyph glyph-name="l.salt_serifs_round" unicode="l" 
d="M462 359v924h-317v206h587v-1100q0 -186 160 -186q92 0 169 35l45 -199q-127 -50 -251 -50q-181 0 -287 101.5t-106 268.5z" />
    <glyph glyph-name="m" unicode="m" 
d="M506 825q0 125 -58 125t-128 -146v-804h-227v1117h225v-145h45q62 160 191 160t163 -160h43q62 160 204 160q82 0 128.5 -70t46.5 -196v-866h-227v825q0 125 -59 125t-127 -146v-804h-220v825z" />
    <glyph glyph-name="n" unicode="n" 
d="M149 0v1117h270v-182h52q39 95 122 148t189 53q141 0 221.5 -93t80.5 -257v-786h-270v735q0 88 -39 134.5t-105 46.5q-141 0 -251 -153v-763h-270z" />
    <glyph glyph-name="o" unicode="o" 
d="M616.5 188q100.5 0 149 50.5t48.5 161.5v311q0 112 -48.5 165t-149 53t-148 -52t-47.5 -164v-309q0 -112 47.5 -164t148 -52zM616.5 -19q-221.5 0 -344.5 108t-123 302v328q0 197 124.5 307t344.5 110t343 -111t123 -310v-328q0 -192 -123 -299t-344.5 -107z" />
    <glyph glyph-name="p" unicode="p" 
d="M652 -15q-131 0 -233 49v-406h-270v1489h270v-182h52q35 93 116 147t186 54q145 0 228 -102.5t83 -281.5v-357q0 -188 -116.5 -299t-315.5 -111zM814 398v324q0 194 -157 194q-124 0 -238 -140v-527q96 -61 196 -61t149.5 49.5t49.5 160.5z" />
    <glyph glyph-name="q" unicode="q" 
d="M419 413q0 -212 156 -212q125 0 239 140v534q-92 54 -190 54q-205 0 -205 -210v-306zM814 -372v554h-53q-37 -89 -113 -145t-188 -56q-149 0 -230 107t-81 283v351q0 197 129.5 303.5t350.5 106.5q115 0 242 -28t213 -80v-1396h-270z" />
    <glyph glyph-name="r" unicode="r" 
d="M706 916q-147 0 -231 -155v-761h-270v1117h270v-192h52q66 211 302 211q125 0 196.5 -81t71.5 -232v-188h-246v104q0 89 -33.5 133t-111.5 44z" />
    <glyph glyph-name="s" unicode="s" 
d="M436 819q0 -69 56.5 -98t233.5 -61t269 -109.5t92 -231.5t-129.5 -244t-339.5 -90q-134 0 -262.5 38t-223.5 107l78 179q91 -63 201 -97.5t211 -34.5q195 0 195 128q0 69 -49.5 100t-223.5 61t-275 102t-101 228t119 248t307 92q117 0 232.5 -37.5t206.5 -100.5l-67 -173
q-190 119 -360 119t-170 -125z" />
    <glyph glyph-name="t" unicode="t" 
d="M389 363v547h-261v207h261v372h270v-372h406v-207h-406v-517q0 -199 175 -199q115 0 212 37l34 -205q-107 -45 -290 -45q-184 0 -292.5 99t-108.5 283z" />
    <glyph glyph-name="u" unicode="u" 
d="M564 201q130 0 250 170v746h270v-1117h-270v182h-53q-37 -97 -124.5 -149t-182.5 -52q-134 0 -219.5 94t-85.5 256v786h270v-720q0 -196 145 -196z" />
    <glyph glyph-name="v" unicode="v" 
d="M791 0h-352l-324 1117h265l242 -899l240 899h253z" />
    <glyph glyph-name="w" unicode="w" 
d="M756 0l-140 627l-134 -627h-253l-173 1117h236l99 -834l123 640h197l134 -625l95 819h237l-172 -1117h-249z" />
    <glyph glyph-name="x" unicode="x" 
d="M832 0l-229 369l-212 -369h-276l365 566l-344 551h279l211 -335l197 335h275l-346 -540l361 -577h-281z" />
    <glyph glyph-name="y" unicode="y" 
d="M338 -186q84 0 137.5 45.5t84.5 155.5l6 17h-156l-315 1085h279l244 -897l250 897h268l-339 -1126q-61 -205 -171 -292.5t-289 -87.5q-101 0 -227 22l22 207q122 -26 206 -26z" />
    <glyph glyph-name="z" unicode="z" 
d="M1059 0h-886v207l594 703h-594v207h886v-207l-582 -703h582v-207z" />
    <glyph glyph-name="braceleft" unicode="{" 
d="M225 -82q0 88 31 147.5t81 113.5t80 90t30 77q0 86 -85 121.5t-308 40.5v145q223 6 308 40.5t85 118.5q0 39 -29 69.5t-81 77.5q-50 41 -81 95t-31 141q0 171 182.5 246t599.5 67v-207q-287 6 -399.5 -27.5t-112.5 -117.5q0 -41 27 -78t84 -85t84 -90.5t27 -100.5
q0 -110 -99 -161t-328 -58v-10q229 -19 328 -74.5t99 -163.5q0 -58 -28 -99.5t-85 -89.5t-83 -87t-26 -93q0 -89 113 -124.5t399 -29.5v-203q-417 -7 -599.5 66.5t-182.5 242.5z" />
    <glyph glyph-name="bar" unicode="|" 
d="M505 -372v1861h223v-1861h-223z" />
    <glyph glyph-name="braceright" unicode="}" 
d="M1007 -82q0 -169 -181.5 -242.5t-600.5 -66.5v203q287 -6 399.5 29.5t112.5 124.5q0 54 -26 93.5t-83 87.5t-84.5 89t-27.5 99q0 110 98.5 165t327.5 73v10q-229 7 -327.5 58.5t-98.5 160.5q0 58 27 101t85 90t83.5 84.5t25.5 78.5q0 84 -112.5 117.5t-399.5 27.5v207
q419 7 600.5 -67t181.5 -246q0 -88 -30.5 -141.5t-80.5 -94.5q-52 -47 -81 -77.5t-29 -69.5q0 -84 84.5 -118.5t308.5 -40.5v-145q-223 -6 -308 -41t-85 -121q0 -41 29.5 -77t79.5 -90t81 -113.5t31 -147.5z" />
    <glyph glyph-name="asciitilde" unicode="~" 
d="M840 613q87 0 87 197v253h185v-266q0 -194 -76.5 -299t-197.5 -105q-91 0 -157.5 56.5t-124.5 181.5t-92 184.5t-79 59.5q-89 0 -89 -225v-240h-184v251q0 209 76 322.5t196 113.5q93 0 158.5 -57t123.5 -183t92.5 -185t81.5 -59z" />
    <glyph glyph-name="exclamdown" unicode="&#xa1;" 
d="M741 931l52 -931h-339l52 931h235zM402 1352q0 156 215 156t215 -156v-52q0 -161 -215 -161t-215 161v52z" />
    <glyph glyph-name="cent" unicode="&#xa2;" 
d="M140 609v279q0 192 101.5 301t294.5 127v267h175v-265q184 -19 273.5 -120t108.5 -286l-250 -20q-7 112 -41.5 161t-112.5 62v-743q80 9 113.5 55t40.5 152l250 -20q-13 -179 -98 -276t-284 -112v-264h-175v266q-396 38 -396 436zM400 603q0 -108 36.5 -163t120.5 -68
v745q-84 -13 -120.5 -68t-36.5 -163v-283z" />
    <glyph glyph-name="sterling" unicode="&#xa3;" 
d="M588 566q0 -158 -177 -264l28 -49q83 47 162 19q39 -13 73.5 -32.5t75.5 -19.5q80 0 110 55.5t41 193.5l250 -18q-13 -229 -107 -349.5t-258 -120.5q-69 0 -134.5 31.5t-129.5 61.5t-111.5 42t-93.5 -21l-159 -112l-121 175l164 103q60 41 105.5 124.5t45.5 163.5
t-28 144h-248v175h155q-54 110 -54 212q0 192 117 310t344 118t334.5 -114.5t120.5 -343.5l-250 -19q-11 134 -53 194t-159 60q-193 0 -193 -209q0 -94 57 -208h281v-175h-204q16 -64 16 -127z" />
    <glyph glyph-name="currency" unicode="&#xa4;" 
d="M619 168q-177 0 -280 89l-153 -169l-128 134l177 193q-25 80 -25 171v315q0 99 26 173l-178 194l128 134l153 -169q103 89 277.5 89t279.5 -91l150 162l129 -134l-177 -190q24 -76 24 -168v-315q0 -64 -18 -154l171 -201l-129 -134l-149 162q-101 -91 -278 -91zM771 901
q0 207 -154.5 207t-154.5 -207v-315q0 -108 38 -156t116 -48t116.5 48t38.5 156v315z" />
    <glyph glyph-name="yen" unicode="&#xa5;" 
d="M1093 186h-341v-186h-270v186h-342v175h342v198h-342v175h257l-369 755h281l311 -716l309 716h274l-367 -755h257v-175h-341v-198h341v-175z" />
    <glyph glyph-name="brokenbar" unicode="&#xa6;" 
d="M505 -372v744h223v-744h-223zM505 745v744h223v-744h-223z" />
    <glyph glyph-name="section" unicode="&#xa7;" 
d="M594 1283q-214 1 -214 -159q0 -80 88 -120t264 -78t282.5 -118t106.5 -238q0 -104 -57 -172t-146 -104q203 -109 203 -318q0 -173 -131.5 -267t-341.5 -94q-140 0 -271 48t-221 127l86 197q206 -158 394 -158q224 0 224 143q0 91 -78 131t-203 70q-229 47 -343.5 128
t-114.5 237q0 106 62.5 171.5t159.5 96.5q-222 109 -222 330q0 177 134 269t339 92q140 0 267.5 -49.5t222.5 -125.5l-95 -190q-101 71 -194 111t-201 40zM851 538q0 80 -57 115.5t-113 48.5t-71.5 16.5t-32.5 7.5q-74 -2 -130 -37.5t-56 -115.5t60 -117.5t128.5 -52
t83.5 -18.5q74 2 131 37.5t57 115.5z" />
    <glyph glyph-name="dieresis" unicode="&#xa8;" 
d="M972 1428q0 -123 -144 -123t-145 123v19q1 126 145 126t144 -126v-19zM549 1428q0 -123 -144 -123t-144 123v19q0 126 144 126t144 -126v-19z" />
    <glyph glyph-name="copyright" unicode="&#xa9;" 
d="M328 858q0 358 292 358q149 0 213 -88.5t76 -271.5l-190 -11q-7 117 -26 157.5t-67 40.5t-71 -44t-23 -144v-332q0 -101 24 -143.5t72 -42.5t65.5 33.5t25.5 145.5l190 -11q-11 -179 -75.5 -261t-213.5 -82q-292 0 -292 363v333zM616.5 -88q238.5 0 340 142.5
t101.5 448.5v365q0 309 -101.5 453t-340 144t-340 -145t-101.5 -454v-363q0 -305 101.5 -448t340 -143zM52 892q0 691 564 691t564 -691v-414q0 -335 -137.5 -509t-564 -174t-426.5 683v414z" />
    <glyph glyph-name="ordfeminine" unicode="&#xaa;" 
d="M570 1508q380 0 380 -315v-324q0 -84 40 -103t129 -8v-175q-117 -19 -196.5 9t-105.5 134h-37q-41 -67 -127.5 -112.5t-196.5 -45.5t-202 63t-92 191t85.5 195.5t225.5 67.5h248v95q0 159 -155 159q-74 0 -113.5 -27t-63.5 -119l-207 41q28 141 118.5 207.5t269.5 66.5z
M384 836q0 -108 129 -108t208 93v127h-216q-58 0 -89.5 -23.5t-31.5 -88.5z" />
    <glyph glyph-name="guillemotleft" unicode="&#xab;" 
d="M577 123l-484 395v266l484 395v-239l-350 -288l350 -289v-240zM1139 123l-484 395v266l484 395v-239l-351 -288l351 -289v-240z" />
    <glyph glyph-name="logicalnot" unicode="&#xac;" 
d="M875 0v534h-747v235h976v-769h-229z" />
    <glyph glyph-name="registered" unicode="&#xae;" 
d="M890 1011q0 -131 -121 -173l147 -268h-194l-122 249h-51v-249h-178v715h273q121 0 183.5 -57t62.5 -163v-54zM709 1067q0 91 -80 91h-80v-222h80q34 0 57 15t23 62v54zM616.5 344q210.5 0 300.5 101.5t90 321.5v302q0 222 -90 327t-300.5 105t-301 -105.5t-90.5 -326.5
v-302q0 -220 90.5 -321.5t301 -101.5zM616 240q-255 0 -377 135t-122 383v322q0 249 123 385t378 136t376 -136t121 -385v-322q0 -248 -122 -383t-377 -135z" />
    <glyph glyph-name="macron" unicode="&#x2c9;" 
d="M249 1381v216h734v-216h-734z" />
    <glyph glyph-name="macron" unicode="&#xaf;" 
d="M249 1381v216h734v-216h-734z" />
    <glyph glyph-name="degree" unicode="&#xb0;" 
d="M765 1143q0 164 -149 164t-149 -164v-171q0 -86 37.5 -122t112 -36t111.5 36t37 122v171zM616.5 620q-167.5 0 -269 83t-101.5 254v203q0 171 101.5 256t269.5 85t270 -85t102 -256v-203q0 -171 -102.5 -254t-270 -83z" />
    <glyph glyph-name="plusminus" unicode="&#xb1;" 
d="M501 253v468h-373v234h373v467h231v-467h372v-234h-372v-468h-231zM128 0v235h976v-235h-976z" />
    <glyph glyph-name="two.sups" unicode="&#xb2;" 
d="M614 1501q363 0 363 -268v-51q0 -104 -53 -164.5t-142 -79.5l-209 -46q-61 -13 -88 -36.5t-27 -80.5v-45h531v-164h-745v207q0 221 199 266l209 46q60 13 85.5 39.5t25.5 83.5v25q0 61 -34.5 87t-112.5 26t-109.5 -29.5t-37.5 -117.5l-216 13q7 145 91 217t270 72z" />
    <glyph glyph-name="three.sups" unicode="&#xb3;" 
d="M612 555q-365 0 -379 277l216 11q7 -73 41.5 -99.5t125.5 -26.5t124 27t33 83v28q0 60 -34.5 86.5t-120.5 26.5h-173v162h173q73 0 103.5 17.5t30.5 70.5v26q0 56 -36 75.5t-110.5 19.5t-102.5 -23.5t-34 -81.5l-216 12q9 140 97.5 197.5t253.5 57.5t263.5 -51.5
t98.5 -179.5v-24q0 -78 -44.5 -122t-115.5 -53v-34q73 -7 128 -58.5t55 -138.5v-21q0 -143 -95.5 -203.5t-281.5 -60.5z" />
    <glyph glyph-name="acute" unicode="&#xb4;" 
d="M402 1303l201 373h358l-363 -373h-196z" />
    <glyph glyph-name="mu1" unicode="&#xb5;" 
d="M153 1117h270v-735q0 -95 42 -136t99 -41q100 0 183 110v802h271v-786q0 -91 30 -115t101 -11v-203q-123 -26 -192 13t-95 149h-45q-81 -181 -238 -181q-94 0 -156 78v-24l16 -409h-305l19 409v1080z" />
    <glyph glyph-name="paragraph" unicode="&#xb6;" 
d="M866 633h-159v-1005h-238v1005q-156 4 -265 91.5t-109 275.5v97q0 199 114.5 295.5t276.5 96.5h620v-1861h-240v1005z" />
    <glyph glyph-name="periodcentered" unicode="&#x2219;" 
d="M616 505q-100 0 -164.5 47.5t-64.5 140.5v98q0 95 64.5 143.5t167 48.5t164.5 -48.5t62 -143.5v-98q0 -93 -64.5 -140.5t-164.5 -47.5z" />
    <glyph glyph-name="periodcentered" unicode="&#xb7;" 
d="M616 505q-100 0 -164.5 47.5t-64.5 140.5v98q0 95 64.5 143.5t167 48.5t164.5 -48.5t62 -143.5v-98q0 -93 -64.5 -140.5t-164.5 -47.5z" />
    <glyph glyph-name="cedilla" unicode="&#xb8;" 
d="M881 -172q0 -122 -96 -180t-232 -58t-225 52t-97 170l229 19q4 -35 23 -50q20 -14 67 -14q46 -1 72 21t26 82t-18 88q-18 27 -66 42l36 78q123 -16 202 -72t79 -178z" />
    <glyph glyph-name="one.sups" unicode="&#xb9;" 
d="M330 566v164h232v555h-31q-17 -76 -78.5 -122t-135.5 -50l-10 164q80 7 155.5 60.5t103.5 151.5h210v-759h213v-164h-659z" />
    <glyph glyph-name="ordmasculine" unicode="&#xba;" 
d="M616 745q93 0 134 42.5t41 137.5v224q0 91 -41 136.5t-134 45.5t-135 -45.5t-42 -136.5v-224q0 -95 42 -137.5t135 -42.5zM616.5 568q-180.5 0 -294 87.5t-113.5 260.5v236q0 175 113.5 265.5t293.5 90.5t293 -90.5t113 -265.5v-236q0 -173 -112.5 -260.5t-293 -87.5z
" />
    <glyph glyph-name="guillemotright" unicode="&#xbb;" 
d="M655 123v240l350 289l-350 288v239l484 -395v-266zM93 123v240l352 289l-352 288v239l484 -395v-266z" />
    <glyph glyph-name="onequarter" unicode="&#xbc;" 
d="M665 -58v309l-263 -309h263zM1039 -212h-160v-179h-214v179h-434v154l385 460h263v-460h160v-154zM694 497v136l520 37v-210zM19 460v210l543 -37v-136zM309 765v149h233v384h-32q-14 -76 -75 -122q-60 -46 -139 -50l-9 164q87 8 139 48q93 71 120 164h210v-588h212v-149
h-659z" />
    <glyph glyph-name="onehalf" unicode="&#xbd;" 
d="M701.5 395q275.5 0 275.5 -224v-50q0 -117 -75 -153.5t-120 -45.5l-209 -47q-66 -14 -89.5 -35t-23.5 -67h529v-164h-745v168q0 140 73.5 183.5t125.5 54.5l209 46q86 18 98.5 42.5t12.5 45.5v22q0 77 -112.5 77t-145.5 -24t-36 -86l-216 13q8 125 90 182q83 62 358.5 62
zM694 497v136l520 37v-210zM19 460v210l543 -37v-136zM309 765v149h233v384h-32q-14 -76 -75 -122q-60 -46 -139 -50l-9 164q80 8 135 47q95 68 124 165h210v-588h212v-149h-659z" />
    <glyph glyph-name="threequarters" unicode="&#xbe;" 
d="M668 -58v309l-264 -309h264zM1041 -212h-158v-179h-215v179h-435v154l387 460h263v-460h158v-154zM694 497v136l520 37v-210zM19 460v210l543 -37v-136zM989 961q0 -209 -369 -209q-191 0 -286 59t-101 181l216 12q8 -65 43.5 -86t120.5 -21t115 13t37.5 26.5t7.5 31.5
v28q0 39 -36 58q-46 17 -123 17h-147v145h147q79 0 108.5 13.5t29.5 55.5v26q0 34 -36 45t-111 11q-74 0 -101 -15t-35 -60l-216 11q8 107 95 160q92 49 309.5 49t263 -63.5t45.5 -111.5v-24q0 -126 -154 -149v-34q73 -9 110 -36q67 -50 67 -113v-20z" />
    <glyph glyph-name="questiondown" unicode="&#xbf;" 
d="M369 462v-49q0 -106 48.5 -165.5t198.5 -59.5t197 60.5t60 218.5l270 -18q-13 -249 -135 -358.5t-388 -109.5t-393.5 117.5t-127.5 296.5v74q0 209 164.5 314t535.5 163l35 -190q-279 -48 -372 -115.5t-93 -178.5zM478 1352q0 156 215.5 156t215.5 -156v-52
q1 -161 -215 -161t-216 161v52z" />
    <glyph glyph-name="Agrave" unicode="&#xc0;" 
d="M914 0l-91 389h-417l-97 -389h-251l400 1489h318l401 -1489h-263zM773 603l-153 648l-160 -648h313zM598 1676l-363 372h355l203 -372h-195z" />
    <glyph glyph-name="Aacute" unicode="&#xc1;" 
d="M914 0l-91 389h-417l-97 -389h-251l400 1489h318l401 -1489h-263zM773 603l-153 648l-160 -648h313zM402 1676l201 372h358l-363 -372h-196z" />
    <glyph glyph-name="Acircumflex" unicode="&#xc2;" 
d="M914 0l-91 389h-417l-97 -389h-251l400 1489h318l401 -1489h-263zM773 603l-153 648l-160 -648h313zM294 1670l-91 132l311 285h201l315 -285l-92 -130l-324 203z" />
    <glyph glyph-name="Atilde" unicode="&#xc3;" 
d="M914 0l-91 389h-417l-97 -389h-251l400 1489h318l401 -1489h-263zM773 603l-153 648l-160 -648h313zM763 1884q75 0 73 155v24h182v-28q0 -149 -67 -245t-184 -96q-112 0 -187 98q-29 38 -53 69t-56 31q-77 0 -74 -155v-24h-181v28q0 147 66 245t187 97q73 1 116 -29
t73 -68t52 -70q23 -32 53 -32z" />
    <glyph glyph-name="Adieresis" unicode="&#xc4;" 
d="M914 0l-91 389h-417l-97 -389h-251l400 1489h318l401 -1489h-263zM773 603l-153 648l-160 -648h313zM972 1800q0 -123 -144 -123t-145 123v19q1 127 145 127t144 -127v-19zM549 1800q0 -123 -144 -123t-144 123v19q0 127 144 127t144 -127v-19z" />
    <glyph glyph-name="Aring" unicode="&#xc5;" 
d="M914 0l-91 389h-417l-97 -389h-251l400 1489h318l401 -1489h-263zM773 603l-153 648l-160 -648h313zM486 1977v-59q0 -71 32 -101t98 -30q131 0 131 131v59q0 138 -131 136q-130 0 -130 -136zM616 1640q-145 0 -234 68t-90 210v59q0 143 90 213t234 70t234 -70t90 -213
v-59q0 -141 -89 -210q-90 -68 -235 -68z" />
    <glyph glyph-name="AE" unicode="&#xc6;" 
d="M603 389h-281l-93 -389h-201l376 1489h784v-195h-352v-395h324v-197h-324v-507h352v-195h-585v389zM603 585v709h-67l-167 -709h234z" />
    <glyph glyph-name="Ccedilla" unicode="&#xc7;" 
d="M125 992q0 516 514 516q255 0 374 -124t132 -397l-270 -19q-13 190 -62 258t-179 68t-183 -72q-54 -72 -54 -246v-471q0 -166 54 -238q53 -72 183 -72q130 -1 179 65t62 254l270 -19q-13 -272 -133 -393q-70 -70 -184 -99q75 -56 75 -177q0 -120 -96 -178
q-95 -58 -231 -58t-226 52t-97 170l229 19q4 -35 23 -50q19 -14 67 -14q48 -1 73 21t25 82t-14 81q-14 20 -29 30q-502 4 -502 509v502z" />
    <glyph glyph-name="Egrave" unicode="&#xc8;" 
d="M140 0v1489h968v-214h-698v-365h612v-216h-612v-480h698v-214h-968zM635 1676l-363 372h355l203 -372h-195z" />
    <glyph glyph-name="Eacute" unicode="&#xc9;" 
d="M140 0v1489h968v-214h-698v-365h612v-216h-612v-480h698v-214h-968zM454 1674l201 372h358l-363 -372h-196z" />
    <glyph glyph-name="Ecircumflex" unicode="&#xca;" 
d="M140 0v1489h968v-214h-698v-365h612v-216h-612v-480h698v-214h-968zM318 1670l-91 132l311 285h201l315 -285l-91 -130l-324 203z" />
    <glyph glyph-name="Edieresis" unicode="&#xcb;" 
d="M140 0v1489h968v-214h-698v-365h612v-216h-612v-480h698v-214h-968zM1004 1800q0 -123 -144 -123t-145 123v19q0 127 144 127t145 -127v-19zM581 1800q0 -123 -145 -123q-63 0 -104 27q-40 27 -40 96v19q0 127 144 127t145 -127v-19z" />
    <glyph glyph-name="Igrave" unicode="&#xcc;" 
d="M140 0v214h342v1061h-342v214h953v-214h-341v-1061h341v-214h-953zM598 1676l-363 372h355l203 -372h-195z" />
    <glyph glyph-name="Iacute" unicode="&#xcd;" 
d="M140 0v214h342v1061h-342v214h953v-214h-341v-1061h341v-214h-953zM402 1676l201 372h358l-363 -372h-196z" />
    <glyph glyph-name="Icircumflex" unicode="&#xce;" 
d="M140 0v214h342v1061h-342v214h953v-214h-341v-1061h341v-214h-953zM294 1670l-91 132l311 285h201l315 -285l-92 -130l-324 203z" />
    <glyph glyph-name="Idieresis" unicode="&#xcf;" 
d="M140 0v214h342v1061h-342v214h953v-214h-341v-1061h341v-214h-953zM972 1800q0 -123 -144 -123t-145 123v19q1 127 145 127t144 -127v-19zM549 1800q0 -123 -144 -123t-144 123v19q0 127 144 127t144 -127v-19z" />
    <glyph glyph-name="Eth" unicode="&#xd0;" 
d="M410 214h165q138 0 200.5 81t62.5 249v394q0 171 -62.5 254t-200.5 83h-165v-359h206v-192h-206v-510zM140 0v724h-127v192h127v573h456q238 0 375 -146t137 -390v-424q0 -240 -137 -384.5t-375 -144.5h-456z" />
    <glyph glyph-name="Ntilde" unicode="&#xd1;" 
d="M372 0h-232v1489h312l408 -1174v1174h233v-1489h-333l-388 1134v-1134zM778 1884q75 0 73 155v24h182v-28q0 -149 -67 -245t-183 -96t-189 99q-28 37 -52 68t-56 31q-77 0 -75 -155v-24h-180v28q0 147 66 245t187 97q73 1 116 -29q42 -30 72 -68t53 -70t53 -32z" />
    <glyph glyph-name="Ograve" unicode="&#xd2;" 
d="M397 503q0 -169 50 -239t170 -69q120 0 171 69q50 69 50 239v476q0 173 -50 244t-170 71t-171 -71q-50 -71 -50 -244v-476zM1108 486q0 -242 -126 -374t-365 -131q-239 -1 -366 131t-126 374v510q0 244 127 378q128 134 366 134t364 -134t126 -378v-510zM598 1676
l-363 372h355l203 -372h-195z" />
    <glyph glyph-name="Oacute" unicode="&#xd3;" 
d="M397 503q0 -169 50 -239t170 -69q120 0 171 69q50 69 50 239v476q0 173 -50 244t-170 71t-171 -71q-50 -71 -50 -244v-476zM1108 486q0 -242 -126 -374t-365 -131q-239 -1 -366 131t-126 374v510q0 244 127 378q128 134 366 134t364 -134t126 -378v-510zM460 1676
l201 372h357l-363 -372h-195z" />
    <glyph glyph-name="Ocircumflex" unicode="&#xd4;" 
d="M397 503q0 -169 50 -239t170 -69q120 0 171 69q50 69 50 239v476q0 173 -50 244t-170 71t-171 -71q-50 -71 -50 -244v-476zM1108 486q0 -242 -126 -374t-365 -131q-239 -1 -366 131t-126 374v510q0 244 127 378q128 134 366 134t364 -134t126 -378v-510zM294 1670
l-91 132l311 285h201l315 -285l-92 -130l-324 203z" />
    <glyph glyph-name="Otilde" unicode="&#xd5;" 
d="M397 503q0 -169 50 -239t170 -69q120 0 171 69q50 69 50 239v476q0 173 -50 244t-170 71t-171 -71q-50 -71 -50 -244v-476zM1108 486q0 -242 -126 -374t-365 -131q-239 -1 -366 131t-126 374v510q0 244 127 378q128 134 366 134t364 -134t126 -378v-510zM763 1884
q75 0 73 155v24h182v-28q0 -149 -67 -245t-184 -96q-112 0 -187 98q-29 38 -53 69t-56 31q-77 0 -74 -155v-24h-181v28q0 147 66 245t187 97q73 1 116 -29t73 -68t52 -70q23 -32 53 -32z" />
    <glyph glyph-name="Odieresis" unicode="&#xd6;" 
d="M397 503q0 -169 50 -239t170 -69q120 0 171 69q50 69 50 239v476q0 173 -50 244t-170 71t-171 -71q-50 -71 -50 -244v-476zM1108 486q0 -242 -126 -374t-365 -131q-239 -1 -366 131t-126 374v510q0 244 127 378q128 134 366 134t364 -134t126 -378v-510zM972 1800
q0 -123 -144 -123t-145 123v19q1 127 145 127t144 -127v-19zM549 1800q0 -123 -144 -123t-144 123v19q0 127 144 127t144 -127v-19z" />
    <glyph glyph-name="multiply" unicode="&#xd7;" 
d="M289 76l-153 140l333 436l-331 432l151 143l327 -426l328 420l153 -139l-334 -430l334 -430l-153 -140l-328 421z" />
    <glyph glyph-name="Oslash" unicode="&#xd8;" 
d="M1108 979v-476q0 -249 -127 -385.5t-365 -136.5q-100 0 -171 25l-73 -192h-210l108 285q-145 133 -145 404v476q0 253 127.5 391t365.5 138q89 0 157 -19l70 187h211l-103 -278q155 -133 155 -419zM616 195q134 0 187 72t53 251v432q0 100 -26 160l-324 -896
q46 -19 110 -19zM616 1294q-134 0 -187 -74.5t-53 -255.5v-446q0 -73 17 -136l322 899q-37 13 -99 13z" />
    <glyph glyph-name="Ugrave" unicode="&#xd9;" 
d="M1093 510q-1 -268 -117 -398t-359 -131q-243 1 -360 131t-117 398v979h270v-975q0 -173 47 -241t159 -68t159 68t48 241v975h270v-979zM598 1676l-363 372h355l203 -372h-195z" />
    <glyph glyph-name="Uacute" unicode="&#xda;" 
d="M1093 510q-1 -268 -117 -398t-359 -131q-243 1 -360 131t-117 398v979h270v-975q0 -173 47 -241t159 -68t159 68t48 241v975h270v-979zM402 1676l201 372h358l-363 -372h-196z" />
    <glyph glyph-name="Ucircumflex" unicode="&#xdb;" 
d="M1093 510q-1 -268 -117 -398t-359 -131q-243 1 -360 131t-117 398v979h270v-975q0 -173 47 -241t159 -68t159 68t48 241v975h270v-979zM294 1670l-91 132l311 285h201l315 -285l-92 -130l-324 203z" />
    <glyph glyph-name="Udieresis" unicode="&#xdc;" 
d="M1093 510q-1 -268 -117 -398t-359 -131q-243 1 -360 131t-117 398v979h270v-975q0 -173 47 -241t159 -68t159 68t48 241v975h270v-979zM972 1800q0 -123 -144 -123t-145 123v19q1 127 145 127t144 -127v-19zM549 1800q0 -123 -144 -123t-144 123v19q0 127 144 127
t144 -127v-19z" />
    <glyph glyph-name="Yacute" unicode="&#xdd;" 
d="M752 0h-270v559l-439 930h277l300 -688l292 688h276l-436 -930v-559zM402 1676l201 372h358l-363 -372h-196z" />
    <glyph glyph-name="Thorn" unicode="&#xde;" 
d="M410 469h214q119 0 170 45t51 153v180q0 106 -51 150t-170 44h-214v-572zM140 0v1489h270v-234h240q227 0 346 -103.5t119 -302.5v-192q0 -195 -119 -297.5t-346 -102.5h-240v-257h-270z" />
    <glyph glyph-name="germandbls" unicode="&#xdf;" 
d="M1020 944q-309 -4 -309 -140q0 -68 50.5 -99t170.5 -72t179.5 -114.5t59.5 -192.5q0 -162 -106.5 -249.5t-262.5 -87.5q-95 0 -189 36t-157 100l80 171q137 -123 253 -123q142 0 142 127q0 63 -42 93.5t-155 70.5q-134 41 -198.5 113.5t-64.5 196.5t82 208.5t214 101.5
q-7 115 -65 164.5t-142 49.5t-145 -59t-61 -189v-1050h-261v1074q0 214 131.5 322t337.5 108t332 -126.5t126 -325.5v-108z" />
    <glyph glyph-name="agrave" unicode="&#xe0;" 
d="M426 -19q-130 0 -224 84q-94 85 -94 237t96 235t250 83h283v153q0 160 -178 160q-91 -1 -135 -37t-68 -142l-224 47q34 177 136 256t302 79t314 -86t114 -264v-468q0 -86 45 -107t130 -6v-203q-286 -62 -331 169h-43q-51 -80 -147 -135t-226 -55zM503 169q144 0 234 105
v186h-244q-63 0 -98 -31t-36 -116q0 -144 144 -144zM573 1303l-363 373h356l203 -373h-196z" />
    <glyph glyph-name="aacute" unicode="&#xe1;" 
d="M426 -19q-130 0 -224 84q-94 85 -94 237t96 235t250 83h283v153q0 160 -178 160q-91 -1 -135 -37t-68 -142l-224 47q34 177 136 256t302 79t314 -86t114 -264v-468q0 -86 45 -107t130 -6v-203q-286 -62 -331 169h-43q-51 -80 -147 -135t-226 -55zM503 169q144 0 234 105
v186h-244q-63 0 -98 -31t-36 -116q0 -144 144 -144zM378 1303l201 373h357l-363 -373h-195z" />
    <glyph glyph-name="acircumflex" unicode="&#xe2;" 
d="M426 -19q-130 0 -224 84q-94 85 -94 237t96 235t250 83h283v153q0 160 -178 160q-91 -1 -135 -37t-68 -142l-224 47q34 177 136 256t302 79t314 -86t114 -264v-468q0 -86 45 -107t130 -6v-203q-286 -62 -331 169h-43q-51 -80 -147 -135t-226 -55zM503 169q144 0 234 105
v186h-244q-63 0 -98 -31t-36 -116q0 -144 144 -144zM277 1298l-91 132l311 285h201l315 -285l-91 -130l-324 202z" />
    <glyph glyph-name="atilde" unicode="&#xe3;" 
d="M426 -19q-130 0 -224 84q-94 85 -94 237t96 235t250 83h283v153q0 160 -178 160q-91 -1 -135 -37t-68 -142l-224 47q34 177 136 256t302 79t314 -86t114 -264v-468q0 -86 45 -107t130 -6v-203q-286 -62 -331 169h-43q-51 -80 -147 -135t-226 -55zM503 169q144 0 234 105
v186h-244q-63 0 -98 -31t-36 -116q0 -144 144 -144zM812 1691h182v-28q0 -149 -67 -245t-183 -96t-189 99q-28 37 -52 68t-56 30q-77 0 -75 -154v-24h-180v27q0 147 66 245t187 98q73 0 115 -30t73 -68q30 -38 53 -70t53 -31q75 0 73 154v25z" />
    <glyph glyph-name="adieresis" unicode="&#xe4;" 
d="M426 -19q-130 0 -224 84q-94 85 -94 237t96 235t250 83h283v153q0 160 -178 160q-91 -1 -135 -37t-68 -142l-224 47q34 177 136 256t302 79t314 -86t114 -264v-468q0 -86 45 -107t130 -6v-203q-286 -62 -331 169h-43q-51 -80 -147 -135t-226 -55zM503 169q144 0 234 105
v186h-244q-63 0 -98 -31t-36 -116q0 -144 144 -144zM948 1428q0 -123 -144 -123t-145 123v19q1 126 145 126t144 -126v-19zM525 1428q0 -123 -145 -123q-63 0 -104 27q-40 27 -40 96v19q0 126 144 126t145 -126v-19z" />
    <glyph glyph-name="aring" unicode="&#xe5;" 
d="M426 -19q-130 0 -224 84q-94 85 -94 237t96 235t250 83h283v153q0 160 -178 160q-91 -1 -135 -37t-68 -142l-224 47q34 177 136 256t302 79t314 -86t114 -264v-468q0 -86 45 -107t130 -6v-203q-286 -62 -331 169h-43q-51 -80 -147 -135t-226 -55zM503 169q144 0 234 105
v186h-244q-63 0 -98 -31t-36 -116q0 -144 144 -144zM713 1605q-1 136 -131 136t-130 -136v-60q0 -71 33 -101t98 -29q132 0 130 130v60zM583 1268q-145 0 -235 68q-89 68 -89 209v60q0 143 89 213q88 70 234 70t235 -70t90 -213v-60q1 -141 -89 -209t-235 -68z" />
    <glyph glyph-name="ae" unicode="&#xe6;" 
d="M382 158q73 0 147 95v218h-118q-60 0 -94 -34.5t-34 -123.5q0 -155 99 -155zM852 961q-118 0 -118 -196v-110h236v101q0 205 -118 205zM562 143q-68 -162 -248 -162q-100 0 -177 79.5t-77 236.5t82.5 240t213.5 83h173v141q0 183 -118 183q-54 0 -78 -33.5t-54 -134.5
l-195 45q32 160 107 237.5t209 77.5q160 0 226 -132q81 132 229 132q149 0 233.5 -98t84.5 -297v-236h-439v-162q0 -183 113 -183q56 0 84 31.5t43 111.5l199 -27q-30 -149 -107 -222t-208 -73q-184 0 -253 162h-43z" />
    <glyph glyph-name="ccedilla" unicode="&#xe7;" 
d="M593 -233q47 -1 73 21t25 94q0 72 -44 99h-12q-238 0 -362 108t-124 311v317q0 203 125 311t351 108t337 -102t131 -299l-263 -18q-6 117 -54 164t-152 47t-155 -52q-50 -51 -50 -170v-298q0 -116 50 -168q51 -52 157 -52t152 39t52 136l263 -19q-19 -271 -249 -338
q79 -56 79 -178q1 -122 -95 -180t-232 -58t-225 52t-97 170l229 19q4 -35 23 -50q20 -14 67 -14z" />
    <glyph glyph-name="egrave" unicode="&#xe8;" 
d="M419 737v-72h395v57q0 123 -46 175q-46 53 -152 53t-152 -50t-45 -163zM419 384q1 -213 203 -213q102 0 156 33t86 114l231 -65q-53 -149 -157 -210t-315 -61t-343 104q-132 106 -131 309v326q0 201 127 308q128 107 342 107t340 -109t126 -318v-204h-665v-121zM603 1303
l-363 373h356l203 -373h-196z" />
    <glyph glyph-name="eacute" unicode="&#xe9;" 
d="M419 737v-72h395v57q0 123 -46 175q-46 53 -152 53t-152 -50t-45 -163zM419 384q1 -213 203 -213q102 0 156 33t86 114l231 -65q-53 -149 -157 -210t-315 -61t-343 104q-132 106 -131 309v326q0 201 127 308q128 107 342 107t340 -109t126 -318v-204h-665v-121zM428 1303
l201 373h358l-363 -373h-196z" />
    <glyph glyph-name="ecircumflex" unicode="&#xea;" 
d="M419 737v-72h395v57q0 123 -46 175q-46 53 -152 53t-152 -50t-45 -163zM419 384q1 -213 203 -213q102 0 156 33t86 114l231 -65q-53 -149 -157 -210t-315 -61t-343 104q-132 106 -131 309v326q0 201 127 308q128 107 342 107t340 -109t126 -318v-204h-665v-121zM300 1298
l-91 132l310 285h202l314 -285l-91 -130l-324 202z" />
    <glyph glyph-name="edieresis" unicode="&#xeb;" 
d="M419 737v-72h395v57q0 123 -46 175q-46 53 -152 53t-152 -50t-45 -163zM419 384q1 -213 203 -213q102 0 156 33t86 114l231 -65q-53 -149 -157 -210t-315 -61t-343 104q-132 106 -131 309v326q0 201 127 308q128 107 342 107t340 -109t126 -318v-204h-665v-121zM977 1428
q0 -123 -144 -123t-144 123v19q0 126 144 126t144 -126v-19zM555 1428q0 -123 -145 -123q-63 0 -104 27q-40 27 -40 96v19q0 126 144 126t145 -126v-19z" />
    <glyph glyph-name="igrave.salt_serifs" unicode="&#xe025;" 
d="M752 207h335v-207h-605v910h-337v207h607v-910zM579 1303l-363 373h356l203 -373h-196z" />
    <glyph glyph-name="igrave.salt_serifs" unicode="&#xec;" 
d="M752 207h335v-207h-605v910h-337v207h607v-910zM579 1303l-363 373h356l203 -373h-196z" />
    <glyph glyph-name="iacute.salt_serifs" unicode="&#xe026;" 
d="M752 207h335v-207h-605v910h-337v207h607v-910zM384 1303l201 373h357l-363 -373h-195z" />
    <glyph glyph-name="iacute.salt_serifs" unicode="&#xed;" 
d="M752 207h335v-207h-605v910h-337v207h607v-910zM384 1303l201 373h357l-363 -373h-195z" />
    <glyph glyph-name="icircumflex.salt_serifs" unicode="&#xe027;" 
d="M752 207h335v-207h-605v910h-337v207h607v-910zM276 1298l-92 132l311 285h201l315 -285l-91 -130l-324 202z" />
    <glyph glyph-name="icircumflex.salt_serifs" unicode="&#xee;" 
d="M752 207h335v-207h-605v910h-337v207h607v-910zM276 1298l-92 132l311 285h201l315 -285l-91 -130l-324 202z" />
    <glyph glyph-name="idieresis.salt_serifs" unicode="&#xe028;" 
d="M752 207h335v-207h-605v910h-337v207h607v-910zM953 1428q0 -123 -144 -123t-144 123v19q0 126 144 126t144 -126v-19zM531 1428q-1 -123 -145 -123t-144 123v19q0 126 144 126t145 -126v-19z" />
    <glyph glyph-name="idieresis.salt_serifs" unicode="&#xef;" 
d="M752 207h335v-207h-605v910h-337v207h607v-910zM953 1428q0 -123 -144 -123t-144 123v19q0 126 144 126t144 -126v-19zM531 1428q-1 -123 -145 -123t-144 123v19q0 126 144 126t145 -126v-19z" />
    <glyph glyph-name="eth" unicode="&#xf0;" 
d="M618 188q112 0 158.5 54t46.5 160v125q0 97 -46.5 146t-158.5 49t-158.5 -49t-46.5 -146v-125q0 -106 46.5 -160t158.5 -54zM1093 694v-268q0 -233 -131.5 -339t-345.5 -106t-345 107t-131 327v123q0 181 108 287t281 106q106 0 176 -41t96 -97h37q-18 230 -142 352
l-299 -147v164l162 80q-85 54 -272 112l143 175q242 -72 369 -168l281 136v-164l-160 -78q173 -194 173 -561z" />
    <glyph glyph-name="ntilde" unicode="&#xf1;" 
d="M667 916q-138 0 -248 -153v-763h-270v1117h270v-182h52q39 95 122 148t189 53q142 0 222 -93t80 -257v-786h-270v735q0 89 -38 135t-109 46zM871 1691h183v-28q0 -149 -68 -245t-184 -96q-112 0 -187 98q-29 38 -53 69t-56 30q-77 0 -74 -154v-24h-181v27q0 147 66 245
t188 98q73 0 115 -30t73 -68q30 -38 53 -70t53 -31q75 0 72 154v25z" />
    <glyph glyph-name="ograve" unicode="&#xf2;" 
d="M616 188q101 0 149 50t49 162v311q0 112 -48 165t-150 53q-101 0 -148 -52t-47 -164v-309q0 -112 47 -164t148 -52zM616 -19q-222 0 -344 108t-123 302v328q0 197 124 307q125 110 345 110t343 -111t123 -310v-328q0 -192 -123 -299t-345 -107zM598 1303l-363 373h355
l203 -373h-195z" />
    <glyph glyph-name="oacute" unicode="&#xf3;" 
d="M616 188q101 0 149 50t49 162v311q0 112 -48 165t-150 53q-101 0 -148 -52t-47 -164v-309q0 -112 47 -164t148 -52zM616 -19q-222 0 -344 108t-123 302v328q0 197 124 307q125 110 345 110t343 -111t123 -310v-328q0 -192 -123 -299t-345 -107zM402 1303l201 373h358
l-363 -373h-196z" />
    <glyph glyph-name="ocircumflex" unicode="&#xf4;" 
d="M616 188q101 0 149 50t49 162v311q0 112 -48 165t-150 53q-101 0 -148 -52t-47 -164v-309q0 -112 47 -164t148 -52zM616 -19q-222 0 -344 108t-123 302v328q0 197 124 307q125 110 345 110t343 -111t123 -310v-328q0 -192 -123 -299t-345 -107zM294 1298l-91 132l311 285
h201l315 -285l-92 -130l-324 202z" />
    <glyph glyph-name="otilde" unicode="&#xf5;" 
d="M616 188q101 0 149 50t49 162v311q0 112 -48 165t-150 53q-101 0 -148 -52t-47 -164v-309q0 -112 47 -164t148 -52zM616 -19q-222 0 -344 108t-123 302v328q0 197 124 307q125 110 345 110t343 -111t123 -310v-328q0 -192 -123 -299t-345 -107zM836 1691h182v-28
q0 -149 -67 -245t-184 -96q-112 0 -187 98q-29 38 -53 69t-56 30q-77 0 -74 -154v-24h-181v27q0 147 66 245t187 98q73 0 116 -30t73 -68t52 -70q23 -32 53 -31q75 0 73 154v25z" />
    <glyph glyph-name="odieresis" unicode="&#xf6;" 
d="M616 188q101 0 149 50t49 162v311q0 112 -48 165t-150 53q-101 0 -148 -52t-47 -164v-309q0 -112 47 -164t148 -52zM616 -19q-222 0 -344 108t-123 302v328q0 197 124 307q125 110 345 110t343 -111t123 -310v-328q0 -192 -123 -299t-345 -107zM972 1428
q0 -123 -144 -123t-145 123v19q1 126 145 126t144 -126v-19zM549 1428q0 -123 -144 -123t-144 123v19q0 126 144 126t144 -126v-19z" />
    <glyph glyph-name="divide" unicode="&#xf7;" 
d="M661 335q119 0 119 -134v-35q0 -67 -45.5 -98t-118.5 -31q-165 0 -165 129v35q0 69 45.5 101.5t164.5 32.5zM128 542v219h976v-219h-976zM661 1266q119 0 119 -134v-35q0 -67 -45.5 -98t-118.5 -31q-165 0 -165 129v35q0 69 45.5 101.5t164.5 32.5z" />
    <glyph glyph-name="oslash" unicode="&#xf8;" 
d="M618 1136q84 0 158 -19l86 186h192l-119 -253q74 -52 116 -139.5t42 -199.5v-313q0 -203 -129.5 -310t-347.5 -107q-84 0 -158 19l-87 -186h-192l119 253q-74 50 -116 136.5t-42 194.5v313q0 205 130 315t348 110zM616 181q121 0 174 54t53 175v299q0 86 -29 136
l-295 -653q37 -11 97 -11zM391 706v-296q0 -95 28 -140l294 653q-43 13 -97 13q-121 0 -173 -56.5t-52 -173.5z" />
    <glyph glyph-name="ugrave" unicode="&#xf9;" 
d="M564 201q130 0 250 170v746h270v-1117h-270v182h-53q-37 -97 -125 -149t-182 -52q-134 0 -220 94t-85 256v786h270v-720q0 -196 145 -196zM586 1303l-363 373h356l203 -373h-196z" />
    <glyph glyph-name="uacute" unicode="&#xfa;" 
d="M564 201q130 0 250 170v746h270v-1117h-270v182h-53q-37 -97 -125 -149t-182 -52q-134 0 -220 94t-85 256v786h270v-720q0 -196 145 -196zM480 1303l201 373h358l-363 -373h-196z" />
    <glyph glyph-name="ucircumflex" unicode="&#xfb;" 
d="M564 201q130 0 250 170v746h270v-1117h-270v182h-53q-37 -97 -125 -149t-182 -52q-134 0 -220 94t-85 256v786h270v-720q0 -196 145 -196zM303 1298l-91 132l311 285h201l315 -285l-91 -130l-324 202z" />
    <glyph glyph-name="udieresis" unicode="&#xfc;" 
d="M564 201q130 0 250 170v746h270v-1117h-270v182h-53q-37 -97 -125 -149t-182 -52q-134 0 -220 94t-85 256v786h270v-720q0 -196 145 -196zM981 1428q0 -123 -144 -123t-144 123v19q0 126 144 126t144 -126v-19zM559 1428q-1 -123 -145 -123t-144 123v19q0 126 144 126
t145 -126v-19z" />
    <glyph glyph-name="yacute" unicode="&#xfd;" 
d="M337 -389q-101 0 -227 22l22 207q130 -28 210 -27q79 1 133 47t85 155l6 17h-156l-315 1085h279l244 -897l250 897h268l-339 -1126q-61 -205 -171 -293t-289 -87zM408 1303l201 373h357l-363 -373h-195z" />
    <glyph glyph-name="thorn" unicode="&#xfe;" 
d="M652 -15q-131 0 -233 49v-406h-270v1861h270v-554h52q37 95 116.5 148t185.5 53q143 0 227 -102.5t84 -281.5v-357q0 -190 -116.5 -300t-315.5 -110zM616 188q99 0 148.5 49.5t49.5 160.5v324q0 194 -157 194q-124 0 -238 -140v-527q98 -61 197 -61z" />
    <glyph glyph-name="ydieresis" unicode="&#xff;" 
d="M337 -389q-101 0 -227 22l22 207q130 -28 210 -27q79 1 133 47t85 155l6 17h-156l-315 1085h279l244 -897l250 897h268l-339 -1126q-61 -205 -171 -293t-289 -87zM972 1428q0 -123 -144 -123t-145 123v19q1 126 145 126t144 -126v-19zM549 1428q0 -123 -144 -123
t-144 123v19q0 126 144 126t144 -126v-19z" />
    <glyph glyph-name="Amacron" unicode="&#x100;" 
d="M914 0l-91 389h-417l-97 -389h-251l400 1489h318l401 -1489h-263zM773 603l-153 648l-160 -648h313zM249 1754v216h734v-216h-734z" />
    <glyph glyph-name="amacron" unicode="&#x101;" 
d="M426 -19q-130 0 -224 84q-94 85 -94 237t96 235t250 83h283v153q0 160 -178 160q-91 -1 -135 -37t-68 -142l-224 47q34 177 136 256t302 79t314 -86t114 -264v-468q0 -86 45 -107t130 -6v-203q-286 -62 -331 169h-43q-51 -80 -147 -135t-226 -55zM503 169q144 0 234 105
v186h-244q-63 0 -98 -31t-36 -116q0 -144 144 -144zM216 1381v216h734v-216h-734z" />
    <glyph glyph-name="Abreve" unicode="&#x102;" 
d="M914 0l-91 389h-417l-97 -389h-251l400 1489h318l401 -1489h-263zM773 603l-153 648l-160 -648h313zM616 1663q-428 0 -432 415h231q2 -132 49 -184q46 -52 152 -53q106 0 153 52t48 185h231q-2 -216 -114 -316q-113 -99 -318 -99z" />
    <glyph glyph-name="abreve" unicode="&#x103;" 
d="M426 -19q-130 0 -224 84q-94 85 -94 237t96 235t250 83h283v153q0 160 -178 160q-91 -1 -135 -37t-68 -142l-224 47q34 177 136 256t302 79t314 -86t114 -264v-468q0 -86 45 -107t130 -6v-203q-286 -62 -331 169h-43q-51 -80 -147 -135t-226 -55zM503 169q144 0 234 105
v186h-244q-63 0 -98 -31t-36 -116q0 -144 144 -144zM583 1469q107 0 153 52t48 184h231q-4 -415 -433 -415t-431 415h231q2 -132 48 -184t153 -52z" />
    <glyph glyph-name="Aogonek" unicode="&#x104;" 
d="M773 603l-153 648l-160 -648h313zM1060 -408q-114 0 -193 60t-79 165t77 183q20 20 40 37l-82 352h-417l-97 -389h-251l400 1489h318l401 -1489h-145q-40 -45 -40 -115q0 -101 125 -101q49 0 158 19v-188q-101 -23 -215 -23z" />
    <glyph glyph-name="aogonek" unicode="&#x105;" 
d="M754 -168q0 120 140 222q-38 43 -52 117h-43q-51 -80 -147 -135t-226 -55t-224 84q-94 85 -94 237t96 235t250 83h283v153q0 160 -178 160q-91 -1 -135 -37t-68 -142l-224 47q34 177 136 256t302 79t314 -86t114 -264v-468q0 -86 45 -107t130 -6v-203q-101 -22 -177 -4
q-37 -42 -37 -113q0 -101 125 -101q47 0 158 19v-188q-100 -23 -215 -23q-114 0 -194 60q-79 60 -79 180zM503 169q144 0 234 105v186h-244q-63 0 -98 -31t-36 -116q0 -144 144 -144z" />
    <glyph glyph-name="Cacute" unicode="&#x106;" 
d="M125 992q0 516 514 516q255 0 374 -124t132 -397l-270 -19q-13 190 -62 258t-179 68t-183 -72q-54 -72 -54 -246v-471q0 -166 54 -238q53 -72 183 -72q130 -1 179 65t62 254l270 -19q-13 -272 -133 -393t-375 -121q-512 0 -512 509v502zM473 1676l201 372h357l-363 -372
h-195z" />
    <glyph glyph-name="cacute" unicode="&#x107;" 
d="M632 -19q-236 0 -359 108q-124 108 -124 311v317q0 203 125 311t351 108t337 -102t131 -299l-263 -18q-6 117 -54 164t-152 47t-155 -52q-50 -51 -50 -170v-298q0 -116 50 -168q51 -52 157 -52t152 39t52 136l263 -19q-13 -181 -119 -272t-342 -91zM452 1303l201 373h358
l-363 -373h-196z" />
    <glyph glyph-name="Ccircumflex" unicode="&#x108;" 
d="M125 992q0 516 514 516q255 0 374 -124t132 -397l-270 -19q-13 190 -62 258t-179 68t-183 -72q-54 -72 -54 -246v-471q0 -166 54 -238q53 -72 183 -72q130 -1 179 65t62 254l270 -19q-13 -272 -133 -393t-375 -121q-512 0 -512 509v502zM317 1670l-92 132l311 285h201
l315 -285l-91 -130l-324 203z" />
    <glyph glyph-name="ccircumflex" unicode="&#x109;" 
d="M632 -19q-236 0 -359 108q-124 108 -124 311v317q0 203 125 311t351 108t337 -102t131 -299l-263 -18q-6 117 -54 164t-152 47t-155 -52q-50 -51 -50 -170v-298q0 -116 50 -168q51 -52 157 -52t152 39t52 136l263 -19q-13 -181 -119 -272t-342 -91zM311 1298l-91 132
l311 285h201l314 -285l-91 -130l-324 202z" />
    <glyph glyph-name="Cdotaccent" unicode="&#x10a;" 
d="M125 992q0 516 514 516q255 0 374 -124t132 -397l-270 -19q-13 190 -62 258t-179 68t-183 -72q-54 -72 -54 -246v-471q0 -166 54 -238q53 -72 183 -72q130 -1 179 65t62 254l270 -19q-13 -272 -133 -393t-375 -121q-512 0 -512 509v502zM827 1800q0 -123 -188 -123
q-84 0 -136 27t-52 96v19q0 127 187 127t189 -127v-19z" />
    <glyph glyph-name="cdotaccent" unicode="&#x10b;" 
d="M632 -19q-236 0 -359 108q-124 108 -124 311v317q0 203 125 311t351 108t337 -102t131 -299l-263 -18q-6 117 -54 164t-152 47t-155 -52q-50 -51 -50 -170v-298q0 -116 50 -168q51 -52 157 -52t152 39t52 136l263 -19q-13 -181 -119 -272t-342 -91zM815 1428
q0 -123 -188 -123q-83 0 -135 27t-53 96v19q0 126 188 126t188 -126v-19z" />
    <glyph glyph-name="Ccaron" unicode="&#x10c;" 
d="M125 992q0 516 514 516q255 0 374 -124t132 -397l-270 -19q-13 190 -62 258t-179 68t-183 -72q-54 -72 -54 -246v-471q0 -166 54 -238q53 -72 183 -72q130 -1 179 65t62 254l270 -19q-13 -272 -133 -393t-375 -121q-512 0 -512 509v502zM540 1683l-315 285l92 132
l323 -205l321 205l91 -132l-311 -285h-201z" />
    <glyph glyph-name="ccaron" unicode="&#x10d;" 
d="M632 -19q-236 0 -359 108q-124 108 -124 311v317q0 203 125 311t351 108t337 -102t131 -299l-263 -18q-6 117 -54 164t-152 47t-155 -52q-50 -51 -50 -170v-298q0 -116 50 -168q51 -52 157 -52t152 39t52 136l263 -19q-13 -181 -119 -272t-342 -91zM529 1311l-315 285
l91 132l324 -205l321 205l91 -132l-311 -285h-201z" />
    <glyph glyph-name="Dcaron" unicode="&#x10e;" 
d="M410 214h165q138 0 200 81t63 249v394q0 171 -62 254t-201 83h-165v-1061zM140 0v1489h456q238 0 375 -146t137 -390v-424q0 -241 -137 -385t-375 -144h-456zM518 1683l-315 285l91 132l324 -205l320 205l92 -132l-311 -285h-201z" />
    <glyph glyph-name="dcaron" unicode="&#x10f;" 
d="M581 1132q129 0 233 -48v405h270v-1489h-270v182h-53q-37 -93 -114 -147t-183 -54q-151 0 -233 108t-82 282v351q0 194 114 302q115 108 318 108zM419 402q0 -201 156 -201q123 0 239 140v527q-96 61 -196 61q-101 0 -150 -51t-49 -159v-317zM1208 1313l108 549h350
l-296 -549h-162z" />
    <glyph glyph-name="Dcroat" unicode="&#x110;" 
d="M410 214h165q138 0 200.5 81t62.5 249v394q0 171 -62.5 254t-200.5 83h-165v-359h206v-192h-206v-510zM140 0v724h-127v192h127v573h456q238 0 375 -146t137 -390v-424q0 -240 -137 -384.5t-375 -144.5h-456z" />
    <glyph glyph-name="dcroat" unicode="&#x111;" 
d="M575 1024q124 0 239 -52v177h-304v165h304v175h270v-175h169v-165h-169v-1149h-270v182h-53q-35 -89 -113 -145t-190 -56q-147 0 -228 107t-81 283v242q0 192 113.5 301.5t312.5 109.5zM421 411q0 -210 154 -210q125 0 239 140v420q-91 58 -203 58q-190 0 -190 -208v-200
z" />
    <glyph glyph-name="Emacron" unicode="&#x112;" 
d="M140 0v1489h968v-214h-698v-365h612v-216h-612v-480h698v-214h-968zM274 1754v216h733v-216h-733z" />
    <glyph glyph-name="emacron" unicode="&#x113;" 
d="M419 737v-72h395v57q0 123 -46 175q-46 53 -152 53t-152 -50t-45 -163zM419 384q1 -213 203 -213q102 0 156 33t86 114l231 -65q-53 -149 -157 -210t-315 -61t-343 104q-132 106 -131 309v326q0 201 127 308q128 107 342 107t340 -109t126 -318v-204h-665v-121zM255 1381
v216h734v-216h-734z" />
    <glyph glyph-name="Ebreve" unicode="&#x114;" 
d="M140 0v1489h968v-214h-698v-365h612v-216h-612v-480h698v-214h-968zM640 1663q-429 0 -431 415h230q2 -132 49 -184q46 -52 152 -53q106 0 153 52t49 185h230q-2 -216 -114 -316q-113 -99 -318 -99z" />
    <glyph glyph-name="ebreve" unicode="&#x115;" 
d="M419 737v-72h395v57q0 123 -46 175q-46 53 -152 53t-152 -50t-45 -163zM419 384q1 -213 203 -213q102 0 156 33t86 114l231 -65q-53 -149 -157 -210t-315 -61t-343 104q-132 106 -131 309v326q0 201 127 308q128 107 342 107t340 -109t126 -318v-204h-665v-121zM613 1469
q107 0 153 52t48 184h230q-4 -415 -432 -415q-429 0 -431 415h230q2 -132 49 -184t153 -52z" />
    <glyph glyph-name="Edotaccent" unicode="&#x116;" 
d="M140 0v1489h968v-214h-698v-365h612v-216h-612v-480h698v-214h-968zM829 1800q0 -123 -189 -123q-84 0 -136 27t-52 96v19q0 127 188 127t189 -127v-19z" />
    <glyph glyph-name="edotaccent" unicode="&#x117;" 
d="M419 737v-72h395v57q0 123 -46 175q-46 53 -152 53t-152 -50t-45 -163zM419 384q1 -213 203 -213q102 0 156 33t86 114l231 -65q-53 -149 -157 -210t-315 -61t-343 104q-132 106 -131 309v326q0 201 127 308q128 107 342 107t340 -109t126 -318v-204h-665v-121zM810 1428
q0 -123 -188 -123q-84 0 -136 27t-52 96v19q0 126 188 126t188 -126v-19z" />
    <glyph glyph-name="Eogonek" unicode="&#x118;" 
d="M893 -408q-114 0 -194 60q-79 60 -79 165t77 183h-557v1489h968v-214h-698v-365h612v-216h-612v-480h698v-214h-244q-39 -44 -39 -115q0 -101 125 -101q47 0 158 19v-188q-101 -23 -215 -23z" />
    <glyph glyph-name="eogonek" unicode="&#x119;" 
d="M419 384q1 -213 203 -213q102 0 156 33t86 114l231 -65q-54 -149 -158 -210q-49 -29 -123 -45q-38 -43 -38 -113q0 -101 125 -101q49 0 158 19v-188q-100 -23 -215 -23q-114 0 -193 60t-79 159t60 170h-8q-212 -1 -344 105t-131 309v326q0 201 127 308q128 107 342 107
t340 -109t126 -318v-204h-665v-121zM419 737v-72h395v57q0 123 -46 175q-46 53 -152 53t-152 -50t-45 -163z" />
    <glyph glyph-name="Ecaron" unicode="&#x11a;" 
d="M140 0v1489h968v-214h-698v-365h612v-216h-612v-480h698v-214h-968zM549 1683l-314 285l91 132l324 -205l320 205l91 -132l-311 -285h-201z" />
    <glyph glyph-name="ecaron" unicode="&#x11b;" 
d="M419 737v-72h395v57q0 123 -46 175q-46 53 -152 53t-152 -50t-45 -163zM419 384q1 -213 203 -213q102 0 156 33t86 114l231 -65q-53 -149 -157 -210t-315 -61t-343 104q-132 106 -131 309v326q0 201 127 308q128 107 342 107t340 -109t126 -318v-204h-665v-121zM523 1311
l-314 285l91 132l324 -205l320 205l91 -132l-311 -285h-201z" />
    <glyph glyph-name="Gcircumflex" unicode="&#x11c;" 
d="M628 -19q-241 0 -372 136t-131 382v486q0 251 129 387t367 136t356 -117t131 -350l-270 -19q-13 152 -60 212q-48 60 -164 60t-166 -76t-51 -250v-454q0 -171 51 -245q52 -74 180 -74q128 1 177 81t48 264h-235v214h507v-244q0 -255 -128 -392t-369 -137zM309 1670
l-91 132l311 285h201l314 -285l-91 -130l-324 203z" />
    <glyph glyph-name="gcircumflex" unicode="&#x11d;" 
d="M343 -88q0 -130 134 -130h301q63 0 105 25t42 95t-39 95t-100 25h-443v-110zM423 730q-1 -147 163 -147t164 147v72q0 142 -164 143t-163 -143v-72zM432 430q-110 0 -110 -102t125 -101h339q162 0 262 -72q100 -71 101 -225q0 -154 -105 -238t-273 -83h-306
q-182 0 -282 71t-99 197q0 91 50 146t130 65v37q-61 17 -102 59t-41 134q0 90 59 153t161 75v35q-86 28 -127 86t-41 126v30q0 134 110 214t289 80h558v-184l-274 41v-38q65 -19 105 -73q39 -55 39 -116v-30q0 -135 -107 -211t-293 -76h-168zM298 1298l-91 132l311 285h201
l314 -285l-91 -130l-324 202z" />
    <glyph glyph-name="Gbreve" unicode="&#x11e;" 
d="M628 -19q-241 0 -372 136t-131 382v486q0 251 129 387t367 136t356 -117t131 -350l-270 -19q-13 152 -60 212q-48 60 -164 60t-166 -76t-51 -250v-454q0 -171 51 -245q52 -74 180 -74q128 1 177 81t48 264h-235v214h507v-244q0 -255 -128 -392t-369 -137zM631 1663
q-428 0 -432 415h231q2 -132 48 -185q47 -52 153 -52t153 52t48 185h231q-2 -216 -114 -316q-113 -99 -318 -99z" />
    <glyph glyph-name="gbreve" unicode="&#x11f;" 
d="M343 -88q0 -130 134 -130h301q63 0 105 25t42 95t-39 95t-100 25h-443v-110zM423 730q-1 -147 163 -147t164 147v72q0 142 -164 143t-163 -143v-72zM432 430q-110 0 -110 -102t125 -101h339q162 0 262 -72q100 -71 101 -225q0 -154 -105 -238t-273 -83h-306
q-182 0 -282 71t-99 197q0 91 50 146t130 65v37q-61 17 -102 59t-41 134q0 90 59 153t161 75v35q-86 28 -127 86t-41 126v30q0 134 110 214t289 80h558v-184l-274 41v-38q65 -19 105 -73q39 -55 39 -116v-30q0 -135 -107 -211t-293 -76h-168zM616 1469q106 0 153 52t48 184
h231q-4 -415 -432 -415t-432 415h231q2 -132 49 -184q46 -52 152 -52z" />
    <glyph glyph-name="Gdotaccent" unicode="&#x120;" 
d="M628 -19q-241 0 -372 136t-131 382v486q0 251 129 387t367 136t356 -117t131 -350l-270 -19q-13 152 -60 212q-48 60 -164 60t-166 -76t-51 -250v-454q0 -171 51 -245q52 -74 180 -74q128 1 177 81t48 264h-235v214h507v-244q0 -255 -128 -392t-369 -137zM821 1800
q0 -123 -188 -123q-84 0 -136 27t-52 96v19q0 127 188 127t188 -127v-19z" />
    <glyph glyph-name="gdotaccent" unicode="&#x121;" 
d="M343 -88q0 -130 134 -130h301q63 0 105 25t42 95t-39 95t-100 25h-443v-110zM423 730q-1 -147 163 -147t164 147v72q0 142 -164 143t-163 -143v-72zM432 430q-110 0 -110 -102t125 -101h339q162 0 262 -72q100 -71 101 -225q0 -154 -105 -238t-273 -83h-306
q-182 0 -282 71t-99 197q0 91 50 146t130 65v37q-61 17 -102 59t-41 134q0 90 59 153t161 75v35q-86 28 -127 86t-41 126v30q0 134 110 214t289 80h558v-184l-274 41v-38q65 -19 105 -73q39 -55 39 -116v-30q0 -135 -107 -211t-293 -76h-168zM804 1428q0 -123 -188 -123
q-84 0 -136 27t-52 96v19q0 126 188 126t188 -126v-19z" />
    <glyph glyph-name="Gcommaaccent" unicode="&#x122;" 
d="M365 -559l134 373h356l-295 -373h-195zM628 -19q-241 0 -372 136t-131 382v486q0 251 129 387t367 136t356 -117t131 -350l-270 -19q-13 152 -60 212q-48 60 -164 60t-166 -76t-51 -250v-454q0 -171 51 -245q52 -74 180 -74q128 1 177 81t48 264h-235v214h507v-244
q0 -255 -128 -392t-369 -137z" />
    <glyph glyph-name="gcommaaccent" unicode="&#x123;" 
d="M343 -88q0 -130 134 -130h301q63 0 105 25t42 95t-39 95t-100 25h-443v-110zM423 730q-1 -147 163 -147t164 147v72q0 142 -164 143t-163 -143v-72zM432 430q-110 0 -110 -102t125 -101h339q162 0 262 -72q100 -71 101 -225q0 -154 -105 -238t-273 -83h-306
q-182 0 -282 71t-99 197q0 91 50 146t130 65v37q-61 17 -102 59t-41 134q0 90 59 153t161 75v35q-86 28 -127 86t-41 126v30q0 134 110 214t289 80h558v-184l-274 41v-38q65 -19 105 -73q39 -55 39 -116v-30q0 -135 -107 -211t-293 -76h-168zM415 1303l296 373h194
l-134 -373h-356z" />
    <glyph glyph-name="Hcircumflex" unicode="&#x124;" 
d="M140 0v1489h270v-564h413v564h270v-1489h-270v709h-413v-709h-270zM294 1670l-91 132l311 285h201l315 -285l-92 -130l-324 203z" />
    <glyph glyph-name="hcircumflex" unicode="&#x125;" 
d="M667 916q-130 0 -248 -164v-752h-270v1489h270v-554h52q37 93 118 147t187 54q140 0 224 -94t84 -256v-786h-270v724q0 92 -38 142t-109 50zM-41 1670l-91 132l311 285h201l314 -285l-91 -130l-324 203z" />
    <glyph glyph-name="Hbar" unicode="&#x126;" 
d="M417 577v-577h-272v1035h-145v192h145v262h272v-262h400v262h270v-262h146v-192h-146v-1035h-270v577h-400zM417 793h400v242h-400v-242z" />
    <glyph glyph-name="hbar" unicode="&#x127;" 
d="M668 806q-127 0 -249 -171v-635h-270v1149h-169v165h169v175h270v-175h303v-165h-303v-326h52q37 95 121 149t206 54t204 -88.5t82 -239.5v-698h-270v629q0 177 -146 177z" />
    <glyph glyph-name="Itilde" unicode="&#x128;" 
d="M140 0v214h342v1061h-342v214h953v-214h-341v-1061h341v-214h-953zM763 1884q75 0 73 155v24h182v-28q0 -149 -67 -245t-184 -96q-112 0 -187 98q-29 38 -53 69t-56 31q-77 0 -74 -155v-24h-181v28q0 147 66 245t187 97q73 1 116 -29t73 -68t52 -70q23 -32 53 -32z" />
    <glyph glyph-name="itilde.salt_serifs" unicode="&#xe029;" 
d="M752 207h335v-207h-605v910h-337v207h607v-910zM817 1691h183v-28q0 -149 -68 -245t-184 -96q-112 0 -187 98q-29 38 -53 69t-56 30q-77 0 -74 -154v-24h-181v27q0 147 66 245t188 98q73 0 115 -30t73 -68q30 -38 53 -70t53 -31q75 0 72 154v25z" />
    <glyph glyph-name="itilde.salt_serifs" unicode="&#x129;" 
d="M752 207h335v-207h-605v910h-337v207h607v-910zM817 1691h183v-28q0 -149 -68 -245t-184 -96q-112 0 -187 98q-29 38 -53 69t-56 30q-77 0 -74 -154v-24h-181v27q0 147 66 245t188 98q73 0 115 -30t73 -68q30 -38 53 -70t53 -31q75 0 72 154v25z" />
    <glyph glyph-name="Imacron" unicode="&#x12a;" 
d="M140 0v214h342v1061h-342v214h953v-214h-341v-1061h341v-214h-953zM249 1754v216h734v-216h-734z" />
    <glyph glyph-name="imacron.salt_serifs" unicode="&#xe02a;" 
d="M752 207h335v-207h-605v910h-337v207h607v-910zM231 1381v216h733v-216h-733z" />
    <glyph glyph-name="imacron.salt_serifs" unicode="&#x12b;" 
d="M752 207h335v-207h-605v910h-337v207h607v-910zM231 1381v216h733v-216h-733z" />
    <glyph glyph-name="Ibreve" unicode="&#x12c;" 
d="M140 0v214h342v1061h-342v214h953v-214h-341v-1061h341v-214h-953zM616 1663q-428 0 -432 415h231q2 -132 49 -184q46 -52 152 -53q106 0 153 52t48 185h231q-2 -216 -114 -316q-113 -99 -318 -99z" />
    <glyph glyph-name="ibreve.salt_serifs" unicode="&#xe02b;" 
d="M752 207h335v-207h-605v910h-337v207h607v-910zM598 1469q106 0 152 52t49 184h231q-4 -415 -433 -415t-431 415h231q3 -132 49 -184t152 -52z" />
    <glyph glyph-name="ibreve.salt_serifs" unicode="&#x12d;" 
d="M752 207h335v-207h-605v910h-337v207h607v-910zM598 1469q106 0 152 52t49 184h231q-4 -415 -433 -415t-431 415h231q3 -132 49 -184t152 -52z" />
    <glyph glyph-name="Iogonek" unicode="&#x12e;" 
d="M746 -408q-115 0 -194 60t-79 165t77 183h-410v214h342v1061h-342v214h953v-214h-341v-1061h341v-214h-376q-41 -46 -39 -115q0 -101 124 -101q48 0 159 19v-188q-100 -23 -215 -23z" />
    <glyph glyph-name="iogonek.salt_serifs" unicode="&#xe02c;" 
d="M658 -408q-114 0 -193 60t-79 165t77 183l19 19v891h-337v207h607v-910h335v-207h-457q-40 -45 -40 -115q0 -101 125 -101q47 0 158 19v-188q-101 -23 -215 -23zM804 1426q0 -123 -188 -123q-84 0 -136 27t-52 96v19q0 128 188 127t188 -127v-19z" />
    <glyph glyph-name="iogonek.salt_serifs" unicode="&#x12f;" 
d="M658 -408q-114 0 -193 60t-79 165t77 183l19 19v891h-337v207h607v-910h335v-207h-457q-40 -45 -40 -115q0 -101 125 -101q47 0 158 19v-188q-101 -23 -215 -23zM804 1426q0 -123 -188 -123q-84 0 -136 27t-52 96v19q0 128 188 127t188 -127v-19z" />
    <glyph glyph-name="Idotaccent" unicode="&#x130;" 
d="M140 0v214h342v1061h-342v214h953v-214h-341v-1061h341v-214h-953zM804 1800q0 -123 -188 -123q-84 0 -136 27t-52 96v19q0 127 188 127t188 -127v-19z" />
    <glyph glyph-name="dotlessi.salt_serifs" unicode="&#xe024;" 
d="M752 207h335v-207h-605v910h-337v207h607v-910z" />
    <glyph glyph-name="dotlessi.salt_serifs" unicode="&#x131;" 
d="M752 207h335v-207h-605v910h-337v207h607v-910z" />
    <glyph glyph-name="IJ" unicode="&#x132;" 
d="M800 -19q-170 0 -258 114t-93 391l221 20q6 -195 28 -260t92 -65t96 63t26 184v864h-264v197h484v-1066q0 -205 -81 -323.5t-251 -118.5zM322 0h-221v1489h221v-1489z" />
    <glyph glyph-name="ij.salt_serifs" unicode="&#xe02d;" 
d="M650 -182q186 0 186 202v890h-222v207h471v-1124q0 -188 -115 -285t-275 -97t-272 41l35 203q105 -37 192 -37zM419 0h-251v1117h251v-1117zM771 1447q-1 126 177 126t178 -126v-19q0 -69 -49 -96t-128 -27t-129 27q-49 27 -49 96v19zM462 1428q0 -123 -177 -123
q-80 0 -130 27q-49 27 -49 96v19q0 126 177 126t179 -126v-19z" />
    <glyph glyph-name="ij.salt_serifs" unicode="&#x133;" 
d="M650 -182q186 0 186 202v890h-222v207h471v-1124q0 -188 -115 -285t-275 -97t-272 41l35 203q105 -37 192 -37zM419 0h-251v1117h251v-1117zM771 1447q-1 126 177 126t178 -126v-19q0 -69 -49 -96t-128 -27t-129 27q-49 27 -49 96v19zM462 1428q0 -123 -177 -123
q-80 0 -130 27q-49 27 -49 96v19q0 126 177 126t179 -126v-19z" />
    <glyph glyph-name="Jcircumflex" unicode="&#x134;" 
d="M1074 475q0 -235 -120 -365t-368 -129q-248 0 -365 122q-116 122 -130 400l270 20q13 -197 60 -262t162 -65t167 66t52 215v798h-370v214h642v-1014zM419 1670l-91 132l311 285h201l314 -285l-91 -130l-324 203z" />
    <glyph glyph-name="jcircumflex" unicode="&#x135;" 
d="M642 20v890h-447v207h717v-1124q0 -184 -132 -283t-324 -99t-315 41l34 203q110 -39 226 -38t179 47q62 47 62 156zM397 1298l-92 132l311 285h201l315 -285l-91 -130l-324 202z" />
    <glyph glyph-name="Kcommaaccent" unicode="&#x136;" 
d="M410 672v-672h-270v1489h270v-601h63l410 601h286l-491 -687l487 -802h-286l-401 672h-68zM380 -559l134 373h355l-294 -373h-195z" />
    <glyph glyph-name="kcommaaccent" unicode="&#x137;" 
d="M465 486v-486h-270v1489h270v-809h73l291 437h290l-361 -510l355 -607h-292l-283 486h-73zM376 -559l134 373h356l-294 -373h-196z" />
    <glyph glyph-name="kgreenlandic" unicode="&#x138;" 
d="M465 486v-486h-270v1117h270v-437h73l291 437h290l-361 -510l355 -607h-292l-283 486h-73z" />
    <glyph glyph-name="Lacute" unicode="&#x139;" 
d="M225 0v1489h270v-1275h598v-214h-868zM253 1676l201 372h358l-363 -372h-196z" />
    <glyph glyph-name="lacute.salt_serifs_round" unicode="&#xe057;" 
d="M462 359v924h-317v206h587v-1100q0 -186 160 -186q92 0 169 35l45 -199q-127 -50 -251 -50q-181 0 -287 101t-106 269zM255 1676l201 372h358l-363 -372h-196z" />
    <glyph glyph-name="lacute.salt_serifs_round" unicode="&#x13a;" 
d="M462 359v924h-317v206h587v-1100q0 -186 160 -186q92 0 169 35l45 -199q-127 -50 -251 -50q-181 0 -287 101t-106 269zM255 1676l201 372h358l-363 -372h-196z" />
    <glyph glyph-name="Lcommaaccent" unicode="&#x13b;" 
d="M225 0v1489h270v-1275h598v-214h-868zM413 -559l134 373h356l-294 -373h-196z" />
    <glyph glyph-name="lcommaaccent.salt_serifs_round" unicode="&#xe058;" 
d="M462 359v924h-317v206h587v-1100q0 -186 160 -186q92 0 169 35l45 -199q-127 -50 -251 -50q-181 0 -287 101t-106 269zM421 -559l134 373h355l-294 -373h-195z" />
    <glyph glyph-name="lcommaaccent.salt_serifs_round" unicode="&#x13c;" 
d="M462 359v924h-317v206h587v-1100q0 -186 160 -186q92 0 169 35l45 -199q-127 -50 -251 -50q-181 0 -287 101t-106 269zM421 -559l134 373h355l-294 -373h-195z" />
    <glyph glyph-name="Lcaron" unicode="&#x13d;" 
d="M225 0v1489h270v-1275h598v-214h-868zM689 940l108 549h350l-296 -549h-162z" />
    <glyph glyph-name="lcaron.salt_serifs_round" unicode="&#xe059;" 
d="M462 359v924h-317v206h587v-1100q0 -186 160 -186q92 0 169 35l45 -199q-127 -50 -251 -50q-181 0 -287 101t-106 269zM935 1313l108 549h350l-296 -549h-162z" />
    <glyph glyph-name="lcaron.salt_serifs_round" unicode="&#x13e;" 
d="M462 359v924h-317v206h587v-1100q0 -186 160 -186q92 0 169 35l45 -199q-127 -50 -251 -50q-181 0 -287 101t-106 269zM935 1313l108 549h350l-296 -549h-162z" />
    <glyph glyph-name="Ldot" unicode="&#x13f;" 
d="M225 0v1489h270v-1275h598v-214h-868zM1214 862q0 -123 -188 -123q-84 0 -136 27t-52 96v19q0 126 188 126t188 -126v-19z" />
    <glyph glyph-name="ldot.salt_serifs_round" unicode="&#xe05a;" 
d="M462 359v924h-317v206h587v-1100q0 -186 160 -186q92 0 169 35l45 -199q-127 -50 -251 -50q-181 0 -287 101t-106 269zM1368 715q0 -123 -188 -123q-84 0 -136 27t-52 96v19q0 126 188 126t188 -126v-19z" />
    <glyph glyph-name="ldot.salt_serifs_round" unicode="&#x140;" 
d="M462 359v924h-317v206h587v-1100q0 -186 160 -186q92 0 169 35l45 -199q-127 -50 -251 -50q-181 0 -287 101t-106 269zM1368 715q0 -123 -188 -123q-84 0 -136 27t-52 96v19q0 126 188 126t188 -126v-19z" />
    <glyph glyph-name="Lslash" unicode="&#x141;" 
d="M225 0v637l-141 -47v181l141 46v672h270v-580l408 139v-180l-408 -140v-514h598v-214h-868z" />
    <glyph glyph-name="lslash.salt_serifs_round" unicode="&#xe05b;" 
d="M462 359v259l-227 -65v181l227 65v484h-317v206h587v-610l236 69v-183l-236 -69v-307q0 -186 160 -186q92 0 169 35l45 -199q-127 -50 -251 -50q-181 0 -287 101.5t-106 268.5z" />
    <glyph glyph-name="lslash.salt_serifs_round" unicode="&#x142;" 
d="M462 359v259l-227 -65v181l227 65v484h-317v206h587v-610l236 69v-183l-236 -69v-307q0 -186 160 -186q92 0 169 35l45 -199q-127 -50 -251 -50q-181 0 -287 101.5t-106 268.5z" />
    <glyph glyph-name="Nacute" unicode="&#x143;" 
d="M372 0h-232v1489h312l408 -1174v1174h233v-1489h-333l-388 1134v-1134zM447 1676l201 372h357l-363 -372h-195z" />
    <glyph glyph-name="nacute" unicode="&#x144;" 
d="M667 916q-138 0 -248 -153v-763h-270v1117h270v-182h52q39 95 122 148t189 53q142 0 222 -93t80 -257v-786h-270v735q0 89 -38 135t-109 46zM438 1303l201 373h357l-363 -373h-195z" />
    <glyph glyph-name="Ncommaaccent" unicode="&#x145;" 
d="M344 -559l134 373h356l-294 -373h-196zM372 0h-232v1489h312l408 -1174v1174h233v-1489h-333l-388 1134v-1134z" />
    <glyph glyph-name="ncommaaccent" unicode="&#x146;" 
d="M357 -559l135 373h355l-294 -373h-196zM667 916q-138 0 -248 -153v-763h-270v1117h270v-182h52q39 95 122 148t189 53q142 0 222 -93t80 -257v-786h-270v735q0 89 -38 135t-109 46z" />
    <glyph glyph-name="Ncaron" unicode="&#x147;" 
d="M372 0h-232v1489h312l408 -1174v1174h233v-1489h-333l-388 1134v-1134zM532 1683l-314 285l91 132l324 -205l320 205l91 -132l-310 -285h-202z" />
    <glyph glyph-name="ncaron" unicode="&#x148;" 
d="M667 916q-138 0 -248 -153v-763h-270v1117h270v-182h52q39 95 122 148t189 53q142 0 222 -93t80 -257v-786h-270v735q0 89 -38 135t-109 46zM553 1311l-315 285l92 132l323 -205l321 205l91 -132l-311 -285h-201z" />
    <glyph glyph-name="napostrophe" unicode="&#x149;" 
d="M667 916q-138 0 -248 -153v-763h-270v1117h270v-182h52q39 95 122 148t189 53q142 0 222 -93t80 -257v-786h-270v735q0 89 -38 135t-109 46zM-24 1303l201 373h357l-363 -373h-195z" />
    <glyph glyph-name="Eng" unicode="&#x14a;" 
d="M823 58v1011q0 112 -42 165.5t-113 53.5t-129.5 -52t-128.5 -151v-1085h-270v1489h270v-216h52q45 112 130.5 173.5t205.5 61.5t207.5 -97t87.5 -273v-1108q0 -210 -119 -314.5t-296 -104.5q-99 0 -250 52l36 203q118 -48 186 -48q173 0 173 240z" />
    <glyph glyph-name="eng" unicode="&#x14b;" 
d="M667 916q-138 0 -248 -153v-763h-270v1117h270v-182h52q41 99 127.5 150t187.5 51q138 0 218 -88.5t80 -248.5v-814q0 -194 -115 -284t-271 -90q-102 0 -227 41l34 203q102 -37 165 -37q144 0 144 195v735q0 168 -147 168z" />
    <glyph glyph-name="Omacron" unicode="&#x14c;" 
d="M397 503q0 -169 50 -239t170 -69q120 0 171 69q50 69 50 239v476q0 173 -50 244t-170 71t-171 -71q-50 -71 -50 -244v-476zM1108 486q0 -242 -126 -374t-365 -131q-239 -1 -366 131t-126 374v510q0 244 127 378q128 134 366 134t364 -134t126 -378v-510zM249 1754v216
h734v-216h-734z" />
    <glyph glyph-name="omacron" unicode="&#x14d;" 
d="M616 188q101 0 149 50t49 162v311q0 112 -48 165t-150 53q-101 0 -148 -52t-47 -164v-309q0 -112 47 -164t148 -52zM616 -19q-222 0 -344 108t-123 302v328q0 197 124 307q125 110 345 110t343 -111t123 -310v-328q0 -192 -123 -299t-345 -107zM249 1381v216h734v-216
h-734z" />
    <glyph glyph-name="Obreve" unicode="&#x14e;" 
d="M397 503q0 -169 50 -239t170 -69q120 0 171 69q50 69 50 239v476q0 173 -50 244t-170 71t-171 -71q-50 -71 -50 -244v-476zM1108 486q0 -242 -126 -374t-365 -131q-239 -1 -366 131t-126 374v510q0 244 127 378q128 134 366 134t364 -134t126 -378v-510zM616 1663
q-428 0 -432 415h231q2 -132 49 -184q46 -52 152 -53q106 0 153 52t48 185h231q-2 -216 -114 -316q-113 -99 -318 -99z" />
    <glyph glyph-name="obreve" unicode="&#x14f;" 
d="M616 188q101 0 149 50t49 162v311q0 112 -48 165t-150 53q-101 0 -148 -52t-47 -164v-309q0 -112 47 -164t148 -52zM616 -19q-222 0 -344 108t-123 302v328q0 197 124 307q125 110 345 110t343 -111t123 -310v-328q0 -192 -123 -299t-345 -107zM626 1469q106 0 152 52
t49 184h231q-4 -415 -433 -415t-431 415h230q2 -132 49 -184t153 -52z" />
    <glyph glyph-name="Ohungarumlaut" unicode="&#x150;" 
d="M397 503q0 -169 50 -239t170 -69q120 0 171 69q50 69 50 239v476q0 173 -50 244t-170 71t-171 -71q-50 -71 -50 -244v-476zM1108 486q0 -242 -126 -374t-365 -131q-239 -1 -366 131t-126 374v510q0 244 127 378q128 134 366 134t364 -134t126 -378v-510zM318 1676l86 372
h290l-223 -372h-153zM711 1676l86 372h290l-223 -372h-153z" />
    <glyph glyph-name="ohungarumlaut" unicode="&#x151;" 
d="M616 188q101 0 149 50t49 162v311q0 112 -48 165t-150 53q-101 0 -148 -52t-47 -164v-309q0 -112 47 -164t148 -52zM616 -19q-222 0 -344 108t-123 302v328q0 197 124 307q125 110 345 110t343 -111t123 -310v-328q0 -192 -123 -299t-345 -107zM309 1303l86 373h290
l-223 -373h-153zM702 1303l86 373h290l-223 -373h-153z" />
    <glyph glyph-name="OE" unicode="&#x152;" 
d="M506 205h97v1080h-97q-117 0 -167 -84t-50 -246v-423q0 -160 50 -243.5t167 -83.5zM488 0q-203 0 -317.5 142.5t-114.5 378.5v445q0 238 114.5 380.5t317.5 142.5h705v-195h-357v-384h309v-197h-309v-518h357v-195h-705z" />
    <glyph glyph-name="oe" unicode="&#x153;" 
d="M406 177q56 0 81 45.5t25 149.5v375q0 97 -25 145t-81 48t-81 -48.5t-25 -146.5v-373q0 -104 25 -149.5t81 -45.5zM721 801v-146h212v131q0 91 -24.5 131t-80.5 40t-81.5 -37t-25.5 -119zM847 1136q136 0 222.5 -89.5t86.5 -275.5v-266h-435v-190q0 -80 27 -117.5
t88 -37.5t94 26t44 106l191 -28q-24 -155 -98.5 -219t-208.5 -64q-176 0 -253 133q-69 -133 -227 -133q-130 0 -216 95t-86 291v376q0 199 86.5 296t228.5 97t214 -132q73 132 242 132z" />
    <glyph glyph-name="Racute" unicode="&#x154;" 
d="M1119 964q0 -327 -279 -391l314 -573h-288l-304 553h-152v-553h-270v1489h543q436 0 436 -400v-125zM410 767h242q112 0 159 45t47 158v110q0 108 -47 152t-159 43h-242v-508zM480 1676l201 372h358l-363 -372h-196z" />
    <glyph glyph-name="racute" unicode="&#x155;" 
d="M706 916q-147 0 -231 -155v-761h-270v1117h270v-192h52q65 209 302 211q125 0 197 -81t71 -232v-188h-246v104q0 89 -34 133t-111 44zM456 1303l201 373h358l-363 -373h-196z" />
    <glyph glyph-name="Rcommaaccent" unicode="&#x156;" 
d="M1119 964q0 -327 -279 -391l314 -573h-288l-304 553h-152v-553h-270v1489h543q436 0 436 -400v-125zM410 767h242q112 0 159 45t47 158v110q0 108 -47 152t-159 43h-242v-508zM322 -559l134 373h356l-294 -373h-196z" />
    <glyph glyph-name="rcommaaccent" unicode="&#x157;" 
d="M706 916q-147 0 -231 -155v-761h-270v1117h270v-192h52q65 209 302 211q125 0 197 -81t71 -232v-188h-246v104q0 89 -34 133t-111 44zM74 -559l135 373h355l-294 -373h-196z" />
    <glyph glyph-name="Rcaron" unicode="&#x158;" 
d="M1119 964q0 -327 -279 -391l314 -573h-288l-304 553h-152v-553h-270v1489h543q436 0 436 -400v-125zM410 767h242q112 0 159 45t47 158v110q0 108 -47 152t-159 43h-242v-508zM506 1683l-314 285l91 132l324 -205l320 205l91 -132l-311 -285h-201z" />
    <glyph glyph-name="rcaron" unicode="&#x159;" 
d="M706 916q-147 0 -231 -155v-761h-270v1117h270v-192h52q65 209 302 211q125 0 197 -81t71 -232v-188h-246v104q0 89 -34 133t-111 44zM572 1311l-315 285l91 132l324 -205l320 205l92 -132l-311 -285h-201z" />
    <glyph glyph-name="Sacute" unicode="&#x15a;" 
d="M607 1285q-201 0 -201 -179q0 -86 61 -133t269 -113t298 -162q90 -97 91 -270q-1 -210 -143 -326t-369 -117q-311 0 -514 181l89 201q191 -168 432 -168q114 0 174 54t61 147t-61 140q-62 46 -267 110t-298 160t-93 278t124 298t343 116q130 0 256 -47t212 -129l-77 -196
q-186 155 -387 155zM400 1676l201 372h358l-363 -372h-196z" />
    <glyph glyph-name="sacute" unicode="&#x15b;" 
d="M436 819q0 -69 56 -98t234 -61q177 -32 269 -110t92 -231q1 -154 -129 -244t-340 -90q-134 0 -262 38t-224 107l78 179q191 -132 412 -132q195 0 195 128q0 69 -50 100q-49 31 -223 61t-275 102q-101 73 -101 229t119 247t307 92q116 0 232 -38t207 -100l-67 -173
q-190 119 -360 119t-170 -125zM410 1303l201 373h357l-363 -373h-195z" />
    <glyph glyph-name="Scircumflex" unicode="&#x15c;" 
d="M607 1285q-201 0 -201 -179q0 -86 61 -133t269 -113t298 -162q90 -97 91 -270q-1 -210 -143 -326t-369 -117q-311 0 -514 181l89 201q191 -168 432 -168q114 0 174 54t61 147t-61 140q-62 46 -267 110t-298 160t-93 278t124 298t343 116q130 0 256 -47t212 -129l-77 -196
q-186 155 -387 155zM292 1670l-91 132l311 285h201l315 -285l-92 -130l-323 203z" />
    <glyph glyph-name="scircumflex" unicode="&#x15d;" 
d="M436 819q0 -69 56 -98t234 -61q177 -32 269 -110t92 -231q1 -154 -129 -244t-340 -90q-134 0 -262 38t-224 107l78 179q191 -132 412 -132q195 0 195 128q0 69 -50 100q-49 31 -223 61t-275 102q-101 73 -101 229t119 247t307 92q116 0 232 -38t207 -100l-67 -173
q-190 119 -360 119t-170 -125zM290 1298l-91 132l311 285h201l315 -285l-91 -130l-324 202z" />
    <glyph glyph-name="Scedilla" unicode="&#x15e;" 
d="M855 400q1 93 -61 140q-62 46 -267 110t-298 160t-93 278t124 298t343 116q130 0 256 -47t212 -129l-77 -196q-186 155 -387 155t-201 -179q0 -86 61 -133t269 -113t298 -162q90 -97 91 -270q0 -210 -143 -327q-80 -65 -185 -93q2 -1 3 -2q79 -56 79 -178t-96 -180
t-232 -58t-225 52t-97 170l229 19q4 -35 23 -50q20 -14 67 -14q46 -1 72 21t26 82t-14 82q-14 21 -35 33q-300 4 -498 181l89 201q191 -168 432 -168q114 0 174 54t61 147z" />
    <glyph glyph-name="scedilla" unicode="&#x15f;" 
d="M817 305q0 69 -50 100q-49 31 -223 61t-275 102q-101 73 -101 229t119 247t307 92q116 0 232 -38t207 -100l-67 -173q-190 119 -360 119t-170 -125q0 -69 56 -98t234 -61q177 -32 269 -110t92 -231q0 -154 -129 -244q-71 -50 -167 -72q77 -56 77 -177q0 -120 -96 -178
t-232 -58t-225 52t-97 170l229 19q4 -35 23 -50q20 -14 67 -14q47 -1 73 21t25 82t-15 82t-35 34q-265 9 -453 144l78 179q191 -132 412 -132q195 0 195 128z" />
    <glyph glyph-name="Scaron" unicode="&#x160;" 
d="M607 1285q-201 0 -201 -179q0 -86 61 -133t269 -113t298 -162q90 -97 91 -270q-1 -210 -143 -326t-369 -117q-311 0 -514 181l89 201q191 -168 432 -168q114 0 174 54t61 147t-61 140q-62 46 -267 110t-298 160t-93 278t124 298t343 116q130 0 256 -47t212 -129l-77 -196
q-186 155 -387 155zM516 1683l-315 285l91 132l324 -205l320 205l92 -132l-311 -285h-201z" />
    <glyph glyph-name="scaron" unicode="&#x161;" 
d="M436 819q0 -69 56 -98t234 -61q177 -32 269 -110t92 -231q1 -154 -129 -244t-340 -90q-134 0 -262 38t-224 107l78 179q191 -132 412 -132q195 0 195 128q0 69 -50 100q-49 31 -223 61t-275 102q-101 73 -101 229t119 247t307 92q116 0 232 -38t207 -100l-67 -173
q-190 119 -360 119t-170 -125zM514 1311l-315 285l91 132l324 -205l321 205l91 -132l-311 -285h-201z" />
    <glyph glyph-name="Tcedilla" unicode="&#x162;" 
d="M482 0v1275h-400v214h1069v-214h-399v-1250q16 -9 31 -19q79 -56 79 -178t-96 -180t-232 -58t-224 52q-90 52 -98 170l229 19q4 -35 24 -49t67 -15t72 21t25 82t-18 88q-19 27 -65 42h-64z" />
    <glyph glyph-name="tcedilla" unicode="&#x163;" 
d="M834 194q115 0 212 37l34 -205q-72 -30 -167 -38q57 -55 57 -169q0 -113 -96 -171t-232 -58t-224 52q-90 52 -98 170l229 19q4 -35 24 -49t67 -15t72 21t25 82t-17 86q-17 25 -52 39q-103 23 -171 85q-108 99 -108 283v547h-261v207h261v372h270v-372h406v-207h-406v-517
q0 -199 175 -199z" />
    <glyph glyph-name="Tcaron" unicode="&#x164;" 
d="M482 0v1275h-400v214h1069v-214h-399v-1275h-270zM518 1683l-315 285l91 132l324 -205l320 205l92 -132l-311 -285h-201z" />
    <glyph glyph-name="tcaron" unicode="&#x165;" 
d="M389 363v547h-261v207h261v372h270v-372h406v-207h-406v-517q0 -199 175 -199q115 0 212 37l34 -205q-107 -45 -290 -45q-184 0 -293 99q-108 99 -108 283zM823 1313l108 549h350l-296 -549h-162z" />
    <glyph glyph-name="Tbar" unicode="&#x166;" 
d="M482 0v560h-303v192h303v523h-400v214h1069v-214h-399v-523h302v-192h-302v-560h-270z" />
    <glyph glyph-name="tbar" unicode="&#x167;" 
d="M389 363v134h-212v192h212v221h-261v207h261v372h270v-372h406v-207h-406v-221h363v-192h-363v-104q0 -199 175 -199q115 0 212 37l34 -205q-107 -45 -290 -45q-184 0 -292.5 99t-108.5 283z" />
    <glyph glyph-name="Utilde" unicode="&#x168;" 
d="M1093 510q-1 -268 -117 -398t-359 -131q-243 1 -360 131t-117 398v979h270v-975q0 -173 47 -241t159 -68t159 68t48 241v975h270v-979zM763 1884q75 0 73 155v24h182v-28q0 -149 -67 -245t-184 -96q-112 0 -187 98q-29 38 -53 69t-56 31q-77 0 -74 -155v-24h-181v28
q0 147 66 245t187 97q73 1 116 -29t73 -68t52 -70q23 -32 53 -32z" />
    <glyph glyph-name="utilde" unicode="&#x169;" 
d="M564 201q130 0 250 170v746h270v-1117h-270v182h-53q-37 -97 -125 -149t-182 -52q-134 0 -220 94t-85 256v786h270v-720q0 -196 145 -196zM836 1691h182v-28q0 -149 -67 -245t-184 -96q-112 0 -187 98q-29 38 -53 69t-56 30q-77 0 -74 -154v-24h-181v27q0 147 66 245
t187 98q73 0 116 -30t73 -68t52 -70q23 -32 53 -31q75 0 73 154v25z" />
    <glyph glyph-name="Umacron" unicode="&#x16a;" 
d="M1093 510q-1 -268 -117 -398t-359 -131q-243 1 -360 131t-117 398v979h270v-975q0 -173 47 -241t159 -68t159 68t48 241v975h270v-979zM249 1754v216h734v-216h-734z" />
    <glyph glyph-name="umacron" unicode="&#x16b;" 
d="M564 201q130 0 250 170v746h270v-1117h-270v182h-53q-37 -97 -125 -149t-182 -52q-134 0 -220 94t-85 256v786h270v-720q0 -196 145 -196zM249 1381v216h734v-216h-734z" />
    <glyph glyph-name="Ubreve" unicode="&#x16c;" 
d="M1093 510q-1 -268 -117 -398t-359 -131q-243 1 -360 131t-117 398v979h270v-975q0 -173 47 -241t159 -68t159 68t48 241v975h270v-979zM616 1663q-428 0 -432 415h231q2 -132 49 -184q46 -52 152 -53q106 0 153 52t48 185h231q-2 -216 -114 -316q-113 -99 -318 -99z" />
    <glyph glyph-name="ubreve" unicode="&#x16d;" 
d="M564 201q130 0 250 170v746h270v-1117h-270v182h-53q-37 -97 -125 -149t-182 -52q-134 0 -220 94t-85 256v786h270v-720q0 -196 145 -196zM626 1469q106 0 152 52t49 184h231q-4 -415 -433 -415t-431 415h230q2 -132 49 -184t153 -52z" />
    <glyph glyph-name="Uring" unicode="&#x16e;" 
d="M1093 510q-1 -268 -117 -398t-359 -131q-243 1 -360 131t-117 398v979h270v-975q0 -173 47 -241t159 -68t159 68t48 241v975h270v-979zM486 1977v-59q0 -71 32 -101t98 -30q131 0 131 131v59q0 138 -131 136q-130 0 -130 -136zM616 1640q-145 0 -234 68t-90 210v59
q0 143 90 213t234 70t234 -70t90 -213v-59q0 -141 -89 -210q-90 -68 -235 -68z" />
    <glyph glyph-name="uring" unicode="&#x16f;" 
d="M564 201q130 0 250 170v746h270v-1117h-270v182h-53q-37 -97 -125 -149t-182 -52q-134 0 -220 94t-85 256v786h270v-720q0 -196 145 -196zM756 1605q0 136 -130 136t-131 -136v-60q0 -71 33 -101t98 -29q130 0 130 130v60zM626 1268q-145 0 -235 68q-89 68 -89 209v60
q0 143 89 213t235 70t234 -70q89 -70 90 -213v-60q0 -141 -90 -209t-234 -68z" />
    <glyph glyph-name="Uhungarumlaut" unicode="&#x170;" 
d="M1093 510q-1 -268 -117 -398t-359 -131q-243 1 -360 131t-117 398v979h270v-975q0 -173 47 -241t159 -68t159 68t48 241v975h270v-979zM335 1676l86 372h290l-223 -372h-153zM728 1676l86 372h290l-223 -372h-153z" />
    <glyph glyph-name="uhungarumlaut" unicode="&#x171;" 
d="M564 201q130 0 250 170v746h270v-1117h-270v182h-53q-37 -97 -125 -149t-182 -52q-134 0 -220 94t-85 256v786h270v-720q0 -196 145 -196zM322 1303l86 373h290l-223 -373h-153zM715 1303l86 373h290l-223 -373h-153z" />
    <glyph glyph-name="Uogonek" unicode="&#x172;" 
d="M718 -408q-114 0 -194 60q-79 60 -79 161t66 175q-371 52 -371 522v979h270v-975q0 -173 47 -241t159 -68t159 68t48 241v975h270v-979q-1 -268 -109 -390t-307 -136q-27 -40 -27 -99q0 -101 125 -101q47 0 158 19v-188q-101 -23 -215 -23z" />
    <glyph glyph-name="uogonek" unicode="&#x173;" 
d="M982 -408q-114 0 -194 60q-79 60 -79 172t105 201v157h-53q-37 -96 -125 -148t-182 -53q-134 0 -220 94t-85 256v786h270v-720q0 -196 145 -196q130 0 250 170v746h270v-1117h-130q-40 -45 -40 -115q0 -101 125 -101q47 0 158 19v-188q-101 -23 -215 -23z" />
    <glyph glyph-name="Wcircumflex" unicode="&#x174;" 
d="M769 0l-151 776l-149 -776h-246l-178 1489h238l89 -1156l140 784h209l145 -767l87 1139h235l-179 -1489h-240zM294 1670l-91 132l311 285h201l315 -285l-92 -130l-324 203z" />
    <glyph glyph-name="wcircumflex" unicode="&#x175;" 
d="M756 0l-140 627l-134 -627h-253l-173 1117h236l99 -834l123 640h197l134 -625l95 819h237l-172 -1117h-249zM303 1298l-91 132l311 285h201l315 -285l-91 -130l-324 202z" />
    <glyph glyph-name="Ycircumflex" unicode="&#x176;" 
d="M752 0h-270v559l-439 930h277l300 -688l292 688h276l-436 -930v-559zM294 1670l-91 132l311 285h201l315 -285l-92 -130l-324 203z" />
    <glyph glyph-name="ycircumflex" unicode="&#x177;" 
d="M337 -389q-101 0 -227 22l22 207q130 -28 210 -27q79 1 133 47t85 155l6 17h-156l-315 1085h279l244 -897l250 897h268l-339 -1126q-61 -205 -171 -293t-289 -87zM294 1298l-91 132l311 285h201l315 -285l-92 -130l-324 202z" />
    <glyph glyph-name="Ydieresis" unicode="&#x178;" 
d="M752 0h-270v559l-439 930h277l300 -688l292 688h276l-436 -930v-559zM972 1800q0 -123 -144 -123t-145 123v19q1 127 145 127t144 -127v-19zM549 1800q0 -123 -144 -123t-144 123v19q0 127 144 127t144 -127v-19z" />
    <glyph glyph-name="Zacute" unicode="&#x179;" 
d="M1108 0h-983v214l698 1061h-698v214h983v-214l-691 -1061h691v-214zM454 1676l201 372h358l-363 -372h-196z" />
    <glyph glyph-name="zacute" unicode="&#x17a;" 
d="M1059 0h-886v207l594 703h-594v207h886v-207l-582 -703h582v-207zM445 1303l201 373h358l-364 -373h-195z" />
    <glyph glyph-name="Zdotaccent" unicode="&#x17b;" 
d="M1108 0h-983v214l698 1061h-698v214h983v-214l-691 -1061h691v-214zM804 1800q0 -123 -188 -123q-84 0 -136 27t-52 96v19q0 127 188 127t188 -127v-19z" />
    <glyph glyph-name="zdotaccent" unicode="&#x17c;" 
d="M1059 0h-886v207l594 703h-594v207h886v-207l-582 -703h582v-207zM801 1428q0 -123 -188 -123q-84 0 -136 27t-53 96v19q0 126 188 126t189 -126v-19z" />
    <glyph glyph-name="Zcaron" unicode="&#x17d;" 
d="M1108 0h-983v214l698 1061h-698v214h983v-214l-691 -1061h691v-214zM518 1683l-315 285l91 132l324 -205l320 205l92 -132l-311 -285h-201z" />
    <glyph glyph-name="zcaron" unicode="&#x17e;" 
d="M1059 0h-886v207l594 703h-594v207h886v-207l-582 -703h582v-207zM514 1311l-315 285l91 132l324 -205l321 205l91 -132l-311 -285h-201z" />
    <glyph glyph-name="longs" unicode="&#x17f;" 
d="M752 1171v-1171h-270v910h-206v207h206v67q0 168 110 257t279 89q105 0 237 -44l-34 -190q-97 35 -169 35q-153 0 -153 -160z" />
    <glyph glyph-name="florin" unicode="&#x192;" 
d="M931 1331q-64 0 -121.5 -19.5t-57.5 -168.5v-188h356v-208h-356v-410q0 -163 -106.5 -255.5t-269.5 -92.5t-268 45l35 191q99 -37 182 -37t119 44t36 146v369h-348v208h350v229q0 161 106 254q106 92 283 92q153 0 252 -42l-34 -192q-94 35 -158 35z" />
    <glyph glyph-name="Aringacute" unicode="&#x1fa;" 
d="M914 0l-91 389h-417l-97 -389h-251l400 1489h318l401 -1489h-263zM773 603l-153 648l-160 -648h313zM486 1977v-59q0 -71 32 -101t98 -30q131 0 131 131v59q0 138 -131 136q-130 0 -130 -136zM940 1977v-59q0 -141 -89 -210q-90 -68 -235 -68t-234 68t-90 210v59
q0 143 90 213q59 46 142 62l191 355h357l-348 -358q216 -50 216 -272z" />
    <glyph glyph-name="aringacute" unicode="&#x1fb;" 
d="M426 -19q-130 0 -224 84q-94 85 -94 237t96 235t250 83h283v153q0 160 -178 160q-91 -1 -135 -37t-68 -142l-224 47q34 177 136 256t302 79t314 -86t114 -264v-468q0 -86 45 -107t130 -6v-203q-286 -62 -331 169h-43q-51 -80 -147 -135t-226 -55zM503 169q144 0 234 105
v186h-244q-63 0 -98 -31t-36 -116q0 -144 144 -144zM713 1605q-1 136 -131 136t-130 -136v-60q0 -71 33 -101t98 -29q132 0 130 130v60zM583 1268q-145 0 -235 68q-89 68 -89 209v60q0 216 208 270l194 359h357l-345 -354q84 -16 144 -62q89 -70 90 -213v-60
q1 -141 -89 -209t-235 -68z" />
    <glyph glyph-name="AEacute" unicode="&#x1fc;" 
d="M614 1676l201 372h358l-363 -372h-196zM603 389h-281l-93 -389h-201l376 1489h784v-195h-352v-395h324v-197h-324v-507h352v-195h-585v389zM603 585v709h-67l-167 -709h234z" />
    <glyph glyph-name="aeacute" unicode="&#x1fd;" 
d="M382 158q73 0 147 95v218h-118q-60 0 -94 -34t-34 -124q0 -155 99 -155zM734 765v-110h236v101q0 203 -115 205q-121 0 -121 -196zM562 143q-68 -162 -248 -162q-100 -1 -177 79t-77 237t82 240q83 83 214 83h173v141q0 183 -118 183q-54 0 -78 -34t-54 -134l-195 45
q32 160 107 237q75 78 222 78t213 -132q81 132 229 132q149 0 233 -98t85 -297v-236h-439v-162q0 -183 113 -183q56 0 84 32t43 111l199 -27q-30 -149 -107 -222t-208 -73q-182 0 -253 162h-43zM529 1303l201 373h357l-363 -373h-195z" />
    <glyph glyph-name="Oslashacute" unicode="&#x1fe;" 
d="M1108 979v-476q0 -249 -127 -385t-365 -137q-100 0 -171 25l-73 -192h-210l108 285q-145 133 -145 404v476q0 253 127 391q128 138 366 138q81 0 157 -19l70 187h211l-103 -278q155 -133 155 -419zM616 195q134 0 187 72t53 251v432q0 100 -26 160l-324 -896
q46 -19 110 -19zM616 1294q-134 0 -187 -74t-53 -256v-446q0 -73 17 -136l322 899q-37 13 -99 13zM460 1676l201 372h357l-363 -372h-195z" />
    <glyph glyph-name="oslashacute" unicode="&#x1ff;" 
d="M618 1136q84 0 158 -19l86 186h192l-119 -253q74 -52 116 -140t42 -199v-313q1 -203 -129 -310t-348 -107q-84 0 -158 19l-87 -186h-192l119 253q-74 50 -116 137t-42 194v313q0 205 130 315t348 110zM616 181q121 0 174 54t53 175v299q0 88 -29 136l-295 -653
q37 -11 97 -11zM391 706v-296q0 -93 28 -140l294 653q-49 15 -97 13q-121 0 -173 -56t-52 -174zM452 1303l201 373h358l-363 -373h-196z" />
    <glyph glyph-name="Scommaaccent" unicode="&#x218;" 
d="M607 1285q-201 0 -201 -179q0 -86 61 -133t269 -113t298 -162q90 -97 91 -270q-1 -210 -143 -326t-369 -117q-311 0 -514 181l89 201q191 -168 432 -168q114 0 174 54t61 147t-61 140q-62 46 -267 110t-298 160t-93 278t124 298t343 116q130 0 256 -47t212 -129l-77 -196
q-186 155 -387 155zM324 -559l134 373h356l-295 -373h-195z" />
    <glyph glyph-name="scommaaccent" unicode="&#x219;" 
d="M436 819q0 -69 56 -98t234 -61q177 -32 269 -110t92 -231q1 -154 -129 -244t-340 -90q-134 0 -262 38t-224 107l78 179q191 -132 412 -132q195 0 195 128q0 69 -50 100q-49 31 -223 61t-275 102q-101 73 -101 229t119 247t307 92q116 0 232 -38t207 -100l-67 -173
q-190 119 -360 119t-170 -125zM333 -559l134 373h356l-294 -373h-196z" />
    <glyph glyph-name="Tcommaaccent" unicode="&#x21a;" 
d="M482 0v1275h-400v214h1069v-214h-399v-1275h-270zM333 -559l134 373h356l-294 -373h-196z" />
    <glyph glyph-name="tcommaaccent" unicode="&#x21b;" 
d="M389 363v547h-261v207h261v372h270v-372h406v-207h-406v-517q0 -199 175 -199q115 0 212 37l34 -205q-107 -45 -290 -45q-184 0 -293 99q-108 99 -108 283zM387 -559l134 373h356l-294 -373h-196z" />
    <glyph glyph-name="dotlessj" unicode="&#xf6be;" 
d="M411 -182q231 0 231 202v890h-447v207h717v-1124q0 -184 -131.5 -283t-321.5 -99t-318 41l34 203q103 -37 236 -37z" />
    <glyph glyph-name="dotlessj" unicode="&#x237;" 
d="M411 -182q231 0 231 202v890h-447v207h717v-1124q0 -184 -131.5 -283t-321.5 -99t-318 41l34 203q103 -37 236 -37z" />
    <glyph glyph-name="quoteleft" unicode="&#x2018;" 
d="M320 706l410 783h186l-173 -783h-423z" />
    <glyph glyph-name="quoteleft" unicode="&#x2bb;" 
d="M320 706l410 783h186l-173 -783h-423z" />
    <glyph glyph-name="circumflex" unicode="&#x2c6;" 
d="M294 1298l-91 132l311 285h201l315 -285l-92 -130l-324 202z" />
    <glyph glyph-name="caron" unicode="&#x2c7;" 
d="M518 1311l-315 285l91 132l324 -205l320 205l92 -132l-311 -285h-201z" />
    <glyph glyph-name="breve" unicode="&#x2d8;" 
d="M616 1469q106 0 153 52t48 184h231q-4 -415 -432 -415t-432 415h231q2 -132 49 -184q46 -52 152 -52z" />
    <glyph glyph-name="dotaccent" unicode="&#x2d9;" 
d="M804 1428q0 -123 -188 -123q-84 0 -136 27t-52 96v19q0 126 188 126t188 -126v-19z" />
    <glyph glyph-name="ring" unicode="&#x2da;" 
d="M747 1605q-1 136 -131 136t-130 -136v-60q0 -71 32 -101t97 -29q64 0 98 30t34 100v60zM616 1268q-145 0 -234 68t-90 209v60q0 143 90 213t234 70t234 -70t90 -213v-60q0 -141 -90 -209t-234 -68z" />
    <glyph glyph-name="ogonek" unicode="&#x2db;" 
d="M656 -408q-114 0 -193 60t-79 165t77 183t172 112l47 -69q-92 -59 -92 -159t125 -100q49 0 158 19v-188q-101 -23 -215 -23z" />
    <glyph glyph-name="tilde" unicode="&#x2dc;" 
d="M836 1691h182v-28q0 -149 -67 -245t-184 -96q-112 0 -187 98q-29 38 -53 69t-56 30q-77 0 -74 -154v-24h-181v27q0 147 66 245t187 98q73 0 116 -30t73 -68t52 -70q23 -32 53 -31q75 0 73 154v25z" />
    <glyph glyph-name="hungarumlaut" unicode="&#x2dd;" 
d="M313 1303l85 373h291l-224 -373h-152zM706 1303l85 373h291l-224 -373h-152z" />
    <glyph glyph-name="gravecmb" unicode="&#x300;" horiz-adv-x="0" 
d="M-19 1303l-363 373h356l203 -373h-196z" />
    <glyph glyph-name="acutecmb" unicode="&#x301;" horiz-adv-x="0" 
d="M-214 1303l201 373h357l-363 -373h-195z" />
    <glyph glyph-name="circumflexcmb" unicode="&#x302;" horiz-adv-x="0" 
d="M-322 1298l-91 132l311 285h201l314 -285l-91 -130l-324 202z" />
    <glyph glyph-name="tildecmb" unicode="&#x303;" horiz-adv-x="0" 
d="M-168.5 1519q-54.5 0 -51.5 -154v-24h-180v27q0 147 66 245t187 98q73 0 115.5 -30t72.5 -68t53 -69.5t53 -31.5t52.5 31.5t20.5 122.5v25h182v-28q0 -149 -67 -245t-182 -96t-190 99q-28 37 -52.5 67.5t-79 30.5z" />
    <glyph glyph-name="macroncmb" unicode="&#x304;" horiz-adv-x="0" 
d="M-367 1381v216h734v-216h-734z" />
    <glyph glyph-name="brevecmb" unicode="&#x306;" horiz-adv-x="0" 
d="M0 1469q106 0 152.5 52t48.5 184h231q-4 -415 -432 -415t-432 415h231q2 -132 48.5 -184t152.5 -52z" />
    <glyph glyph-name="dotaccentcmb" unicode="&#x307;" horiz-adv-x="0" 
d="M188 1428q0 -123 -188 -123q-84 0 -136 27t-52 96v19q0 126 188 126t188 -126v-19z" />
    <glyph glyph-name="dieresiscmb" unicode="&#x308;" horiz-adv-x="0" 
d="M356 1428q0 -123 -144 -123t-145 123v19q0 126 144.5 126t144.5 -126v-19zM-67 1428q0 -123 -104.5 -123t-144.5 27t-40 96v19q0 126 144 126t145 -126v-19z" />
    <glyph glyph-name="ringcmb" unicode="&#x30a;" horiz-adv-x="0" 
d="M0 1741q-130 0 -130 -136v-60q0 -71 32.5 -100.5t97.5 -29.5q130 0 130 130v60q0 136 -130 136zM0 1268q-145 0 -234.5 68t-89.5 209v60q0 143 89.5 213t234.5 70t234.5 -70t89.5 -213v-60q0 -141 -89.5 -209t-234.5 -68z" />
    <glyph glyph-name="hungarumlautcmb" unicode="&#x30b;" horiz-adv-x="0" 
d="M-303 1303l85 373h291l-224 -373h-152zM89 1303l86 373h290l-223 -373h-153z" />
    <glyph glyph-name="caroncmb" unicode="&#x30c;" horiz-adv-x="0" 
d="M-99 1311l-314 285l91 132l324 -205l320 205l91 -132l-311 -285h-201z" />
    <glyph glyph-name="commaturnedabovecmb" unicode="&#x312;" horiz-adv-x="0" 
d="M-249 1303l296 373h193l-134 -373h-355z" />
    <glyph glyph-name="commaaccentcmb" unicode="&#x326;" horiz-adv-x="0" 
d="M-259 -559l134 373h356l-294 -373h-196z" />
    <glyph glyph-name="cedillacmb" unicode="&#x327;" horiz-adv-x="0" 
d="M264 -172q0 -122 -95.5 -180t-231.5 -58t-225.5 52.5t-96.5 169.5l229 19q4 -35 23 -49.5t67 -14.5t73 21.5t25 81.5t-18.5 87.5t-65.5 42.5l35 78q123 -17 202 -72.5t79 -177.5z" />
    <glyph glyph-name="ogonekcmb" unicode="&#x328;" horiz-adv-x="0" 
d="M40 -408q-114 0 -193.5 59t-79.5 165t77.5 184t172.5 112l46 -69q-58 -37 -74.5 -78t-16.5 -80q0 -101 125 -101q61 0 158 19v-188q-101 -23 -215 -23z" />
    <glyph glyph-name="tonos" unicode="&#x384;" 
d="M469 1303l101 373h339l-261 -373h-179z" />
    <glyph glyph-name="dieresistonos" unicode="&#x385;" 
d="M964 1562q127 0 127 -127v-18q1 -69 -35 -95t-92 -26t-91 26t-35 95v18q0 69 35 98t91 29zM395 1417q0 -121 -127 -121q-58 0 -92 26t-35 95v18q0 127 126 127t128 -127v-18zM482 1303l78 373h255l-178 -373h-155z" />
    <glyph glyph-name="Alphatonos" unicode="&#x386;" 
d="M914 0l-91 389h-417l-97 -389h-251l400 1489h318l401 -1489h-263zM773 603l-153 648l-160 -648h313zM4 1303l100 373h339l-261 -373h-178z" />
    <glyph glyph-name="anoteleia" unicode="&#x387;" 
d="M855 693q-1 -93 -65 -141t-164 -47q-100 0 -165 47q-64 47 -64 141v98q0 95 64 143t166 49q103 0 165 -48t63 -144v-98z" />
    <glyph glyph-name="Epsilontonos" unicode="&#x388;" 
d="M140 0v1489h968v-214h-698v-365h612v-216h-612v-480h698v-214h-968zM-246 1303l101 373h339l-261 -373h-179z" />
    <glyph glyph-name="Etatonos" unicode="&#x389;" 
d="M140 0v1489h270v-564h413v564h270v-1489h-270v709h-413v-709h-270zM-272 1303l101 373h339l-261 -373h-179z" />
    <glyph glyph-name="Iotatonos" unicode="&#x38a;" 
d="M140 0v214h342v1061h-342v214h953v-214h-341v-1061h341v-214h-953zM-272 1303l101 373h339l-261 -373h-179z" />
    <glyph glyph-name="Omicrontonos" unicode="&#x38c;" 
d="M400 503q0 -169 50 -239t171 -69q120 0 170 69t51 239v476q0 173 -50 244t-171 71q-120 0 -170 -71t-51 -244v-476zM1112 486q0 -242 -126 -374t-365 -131q-239 -1 -366 131t-127 374v510q0 244 128 378t366 134t364 -134t126 -378v-510zM-91 1303l100 373h339l-260 -373
h-179z" />
    <glyph glyph-name="Upsilontonos" unicode="&#x38e;" 
d="M752 0h-270v559l-439 930h277l300 -688l292 688h276l-436 -930v-559zM-294 1303l100 373h339l-260 -373h-179z" />
    <glyph glyph-name="Omegatonos" unicode="&#x38f;" 
d="M1125 760q0 -305 -203 -399v-169h203v-192h-444v428q95 24 134 109t40 223v227q0 167 -57 235t-182 68q-126 0 -182 -68t-56 -235v-227q0 -138 39 -223t134 -109v-428h-443v192h203v169q-203 92 -203 399v219q0 259 129 394t379 135t378 -135q130 -135 131 -394v-219z
M-149 1303l101 373h338l-260 -373h-179z" />
    <glyph glyph-name="iotadieresistonos" unicode="&#x390;" 
d="M462 359v551h-317v207h587v-728q0 -186 160 -186q97 0 169 37l45 -201q-127 -50 -251 -50q-181 0 -287 101t-106 269zM821 1435q1 127 127 127t126 -127v-18q0 -69 -35 -95t-91 -26t-92 26q-35 26 -35 95v18zM125 1435q1 127 127 127t126 -127v-18q0 -69 -36 -95t-93 -26
q-56 0 -90 26t-34 95v18zM465 1303l79 373h255l-179 -373h-155z" />
    <glyph glyph-name="Alpha" unicode="&#x391;" 
d="M914 0l-91 389h-417l-97 -389h-251l400 1489h318l401 -1489h-263zM773 603l-153 648l-160 -648h313z" />
    <glyph glyph-name="Beta" unicode="&#x392;" 
d="M410 207h216q114 1 164 47t50 152v74q0 104 -50 150t-164 46h-216v-469zM410 873h203q99 0 143 40t43 131v68q0 91 -44 131t-142 40h-203v-410zM1110 385q0 -385 -479 -385h-491v1489h489q222 -1 329 -87t107 -263v-74q0 -212 -201 -250v-54q117 -13 181 -90t65 -196v-90
z" />
    <glyph glyph-name="Gamma" unicode="&#x393;" 
d="M190 0v1489h938v-214h-668v-1275h-270z" />
    <glyph glyph-name="Delta" unicode="&#x394;" 
d="M901 214l-285 1065l-296 -1065h581zM76 0v214l363 1275h360l357 -1275v-214h-1080z" />
    <glyph glyph-name="Epsilon" unicode="&#x395;" 
d="M140 0v1489h968v-214h-698v-365h612v-216h-612v-480h698v-214h-968z" />
    <glyph glyph-name="Zeta" unicode="&#x396;" 
d="M1108 0h-983v214l698 1061h-698v214h983v-214l-691 -1061h691v-214z" />
    <glyph glyph-name="Eta" unicode="&#x397;" 
d="M140 0v1489h270v-564h413v564h270v-1489h-270v709h-413v-709h-270z" />
    <glyph glyph-name="Theta" unicode="&#x398;" 
d="M467 653v202h300v-202h-300zM616.5 195q141.5 0 204 74t62.5 249v446q0 179 -62.5 254.5t-204 75.5t-204 -75.5t-62.5 -254.5v-446q0 -175 62.5 -249t204 -74zM616.5 -19q-247.5 0 -379 135t-131.5 387v476q0 255 133 392t379 137t377 -137t131 -392v-476
q0 -251 -131 -386.5t-378.5 -135.5z" />
    <glyph glyph-name="Iota" unicode="&#x399;" 
d="M140 0v214h342v1061h-342v214h953v-214h-341v-1061h341v-214h-953z" />
    <glyph glyph-name="Kappa" unicode="&#x39a;" 
d="M410 672v-672h-270v1489h270v-601h63l410 601h286l-491 -687l487 -802h-286l-401 672h-68z" />
    <glyph glyph-name="Lambda" unicode="&#x39b;" 
d="M914 0l-294 1251l-311 -1251h-251l400 1489h318l401 -1489h-263z" />
    <glyph glyph-name="Mu" unicode="&#x39c;" 
d="M108 0v1489h279l235 -791l231 791h272v-1489h-239l23 1071l-194 -660h-196l-195 671l22 -1082h-238z" />
    <glyph glyph-name="Nu" unicode="&#x39d;" 
d="M372 0h-232v1489h312l408 -1174v1174h233v-1489h-333l-388 1134v-1134z" />
    <glyph glyph-name="Xi" unicode="&#x39e;" 
d="M125 0v214h983v-214h-983zM168 694v216h897v-216h-897zM125 1275v214h983v-214h-983z" />
    <glyph glyph-name="Omicron" unicode="&#x39f;" 
d="M397 503q0 -169 50 -239t170 -69q120 0 171 69q50 69 50 239v476q0 173 -50 244t-170 71t-171 -71q-50 -71 -50 -244v-476zM1108 486q0 -242 -126 -374t-365 -131q-239 -1 -366 131t-126 374v510q0 244 127 378q128 134 366 134t364 -134t126 -378v-510z" />
    <glyph glyph-name="Pi" unicode="&#x3a0;" 
d="M140 0v1489h953v-1489h-270v1275h-413v-1275h-270z" />
    <glyph glyph-name="Rho" unicode="&#x3a1;" 
d="M410 702h227q110 0 159 45t49 156v168q0 113 -49 159t-159 45h-227v-573zM650 1489q465 0 465 -404v-199q0 -205 -119 -300t-346 -94h-240v-492h-270v1489h510z" />
    <glyph glyph-name="Sigma" unicode="&#x3a3;" 
d="M1078 0h-940v214l549 551l-549 510v214h940v-214h-644l439 -411v-179l-460 -471h665v-214z" />
    <glyph glyph-name="Tau" unicode="&#x3a4;" 
d="M482 0v1275h-400v214h1069v-214h-399v-1275h-270z" />
    <glyph glyph-name="Upsilon" unicode="&#x3a5;" 
d="M752 0h-270v559l-439 930h277l300 -688l292 688h276l-436 -930v-559z" />
    <glyph glyph-name="Phi" unicode="&#x3a6;" 
d="M467 374h43v741h-43q-79 0 -113 -70t-34 -209v-190q0 -138 34 -205t113 -67zM769 1115h-47v-741h47q76 0 110 67t33 205v190q0 140 -34 210t-109 69zM763 168h-33v-187h-229v187h-32q-188 0 -285 128t-96 350v190q0 225 96 356q97 130 287 130h30v186h229v-186h33
q190 0 286 -130t96 -356v-190q0 -222 -96 -350t-286 -128z" />
    <glyph glyph-name="Chi" unicode="&#x3a7;" 
d="M897 0l-284 519l-283 -519h-274l432 763l-389 726h286l259 -474l261 474h272l-410 -724l406 -765h-276z" />
    <glyph glyph-name="Psi" unicode="&#x3a8;" 
d="M732 0h-231v354q-194 30 -290.5 157.5t-96.5 333.5v644h229v-636q0 -128 36 -196.5t122 -84.5v917h231v-917q86 15 122 83.5t36 197.5v636h229v-644q0 -207 -97 -334t-290 -157v-354z" />
    <glyph glyph-name="Omega" unicode="&#x3a9;" 
d="M1125 760q0 -305 -203 -399v-169h203v-192h-444v428q95 24 134.5 109t39.5 223v227q0 168 -57 235.5t-181.5 67.5t-181.5 -68t-57 -235v-227q0 -138 39 -223t134 -109v-428h-443v192h203v169q-203 92 -203 399v219q0 259 129.5 394t379 135t379 -135t129.5 -394v-219z
" />
    <glyph glyph-name="Iotadieresis" unicode="&#x3aa;" 
d="M140 0v214h342v1061h-342v214h953v-214h-341v-1061h341v-214h-953zM972 1800q0 -123 -144 -123t-145 123v19q1 127 145 127t144 -127v-19zM549 1800q0 -123 -144 -123t-144 123v19q0 127 144 127t144 -127v-19z" />
    <glyph glyph-name="Upsilondieresis" unicode="&#x3ab;" 
d="M752 0h-270v559l-439 930h277l300 -688l292 688h276l-436 -930v-559zM972 1800q0 -123 -144 -123t-145 123v19q1 127 145 127t144 -127v-19zM549 1800q0 -123 -144 -123t-144 123v19q0 127 144 127t144 -127v-19z" />
    <glyph glyph-name="alphatonos" unicode="&#x3ac;" 
d="M784 209q-98 -228 -346 -228q-126 -1 -212 101q-85 102 -85 285v368q0 183 82 293t213 110q184 0 264 -196h52v175h270v-786q0 -89 34 -114t108 -12v-203q-143 -28 -226 21q-82 50 -102 186h-52zM413 402q0 -199 136 -199q109 0 203 134v447q-103 134 -206 132
q-131 0 -133 -205v-309zM559 1303l100 373h339l-261 -373h-178z" />
    <glyph glyph-name="epsilontonos" unicode="&#x3ad;" 
d="M166 840q0 296 467 296q216 0 327 -84t124 -268l-248 -15q-11 99 -56 140t-149 41t-149 -30t-44 -99v-26q0 -69 44 -95t145 -26h97v-166h-97q-130 0 -176 -36t-45 -116v-19q0 -86 49 -124t177 -38t176 46q47 46 58 148l249 -13q-13 -192 -119 -284t-361 -91
q-255 -1 -377 79t-122 242v26q0 91 66 159t200 77v41q-110 7 -173 59t-63 142v34zM490 1303l100 373h339l-261 -373h-178z" />
    <glyph glyph-name="etatonos" unicode="&#x3ae;" 
d="M667 916q-138 0 -248 -153v-763h-270v1117h270v-182h52q39 93 124 147t208 54t201 -90t80 -247v-1171h-270v1120q0 168 -147 168zM527 1303l100 373h339l-260 -373h-179z" />
    <glyph glyph-name="iotatonos" unicode="&#x3af;" 
d="M462 359v551h-317v207h587v-728q0 -186 160 -186q97 0 169 37l45 -201q-127 -50 -251 -50q-181 0 -287 101t-106 269zM471 1303l101 373h338l-260 -373h-179z" />
    <glyph glyph-name="upsilondieresistonos" unicode="&#x3b0;" 
d="M1084 413q0 -205 -122 -319t-344 -113q-222 0 -346 114q-123 114 -123 318v704h270v-700q1 -117 47 -169t150 -52t151 52t47 165v704h270v-704zM964 1562q127 0 127 -127v-18q1 -69 -35 -95t-92 -26t-91 26t-35 95v18q0 69 35 98t91 29zM395 1417q0 -121 -127 -121
q-58 0 -92 26t-35 95v18q0 127 126 127t128 -127v-18zM482 1303l78 373h255l-178 -373h-155z" />
    <glyph glyph-name="alpha" unicode="&#x3b1;" 
d="M784 209q-98 -228 -346 -228q-126 0 -211.5 101.5t-85.5 284.5v368q0 184 82 293.5t213 109.5q184 0 264 -196h52v175h270v-786q0 -89 33.5 -114t108.5 -12v-203q-289 -57 -328 207h-52zM413 402q0 -199 136 -199q111 0 203 134v447q-50 65 -98.5 98.5t-107.5 33.5
q-133 0 -133 -205v-309z" />
    <glyph glyph-name="beta" unicode="&#x3b2;" 
d="M1028 1098q0 -221 -235 -264v-54q138 -13 213.5 -92t77.5 -202v-91q0 -203 -124 -308.5t-308 -105.5q-122 0 -233 47v-400h-270v1452q0 210 119 319t318 109t320.5 -95t121.5 -262v-53zM810 421v74q0 114 -51.5 161.5t-153.5 47.5h-71v179h60q86 0 126.5 40.5t40.5 128.5
v52q0 101 -41.5 145.5t-131.5 44.5t-129.5 -53t-39.5 -167v-821q83 -61 183 -61t154 53t54 176z" />
    <glyph glyph-name="gamma" unicode="&#x3b3;" 
d="M778 -372h-324l28 409l-387 1080h277l246 -817l244 817h274l-384 -1080z" />
    <glyph glyph-name="delta" unicode="&#x3b4;" 
d="M419 585v-190q0 -110 50 -158.5t148 -48.5t147.5 48.5t49.5 158.5v191q0 95 -55 145.5t-202 98.5q-138 -77 -138 -245zM201 1165q0 324 410 324h337v-206h-328q-82 0 -122 -23.5t-40 -85.5t54 -94t232 -94t259 -150t81 -250v-191q0 -205 -126 -309.5t-342 -104.5
t-341.5 104.5t-125.5 309.5v182q0 216 238 322q-101 48 -143.5 110t-42.5 156z" />
    <glyph glyph-name="epsilon" unicode="&#x3b5;" 
d="M166 840q0 296 460 296q222 0 333.5 -84t124.5 -268l-248 -15q-11 99 -56 140t-149 41t-148.5 -30t-44.5 -99v-26q0 -69 43.5 -95t145.5 -26h97v-166h-97q-130 0 -175.5 -36t-45.5 -116v-19q0 -86 49.5 -124t177.5 -38t175 45.5t58 148.5l249 -13q-13 -192 -119 -283.5
t-361 -91.5t-377 79.5t-122 241.5v26q0 91 66 159t200 77v41q-110 7 -173 58.5t-63 142.5v34z" />
    <glyph glyph-name="zeta" unicode="&#x3b6;" 
d="M415 492q0 -235 186 -235h153q155 0 242.5 -75.5t87.5 -233.5t-101 -239t-274 -81h-219v199h225q58 0 92.5 22.5t34.5 91t-34.5 93t-92.5 24.5h-127q-222 0 -332.5 109t-110.5 289q0 138 53 243t156 226l199 239l-11 26q-173 -26 -288.5 56.5t-173.5 241.5l168 76
q58 -140 169.5 -181.5t291.5 2.5l335 153l60 -259l-302 -71l-249 -352q-63 -101 -100.5 -182.5t-37.5 -181.5z" />
    <glyph glyph-name="eta" unicode="&#x3b7;" 
d="M667 916q-138 0 -248 -153v-763h-270v1117h270v-182h52q39 93 124 147t208 54t202 -90.5t79 -246.5v-1171h-270v1120q0 168 -147 168z" />
    <glyph glyph-name="theta" unicode="&#x3b8;" 
d="M616 188q110 0 158.5 55t48.5 174v242h-413v-242q0 -119 48 -174t158 -55zM410 1072v-221h413v223q0 114 -48.5 170.5t-158.5 56.5t-158 -57.5t-48 -171.5zM616 -19q-216 0 -341.5 109t-125.5 314v674q0 207 126.5 318.5t341.5 111.5t341 -111.5t126 -318.5v-674
q0 -205 -126 -314t-342 -109z" />
    <glyph glyph-name="iota" unicode="&#x3b9;" 
d="M462 359v551h-317v207h587v-728q0 -186 160 -186q97 0 169 37l45 -201q-127 -50 -251 -50q-181 0 -287 101t-106 269z" />
    <glyph glyph-name="kappa" unicode="&#x3ba;" 
d="M465 486v-486h-270v1117h270v-437h73l291 437h290l-361 -510l355 -607h-292l-283 486h-73z" />
    <glyph glyph-name="lambda" unicode="&#x3bb;" 
d="M326 1501q182 0 292 -74.5t162 -247.5l356 -1179h-276l-251 907l-240 -907h-274l296 1046h179l-13 43q-30 110 -83 157.5t-157 47.5q-55 0 -155 -17l-32 207q126 17 196 17z" />
    <glyph glyph-name="mu" unicode="&#x3bc;" 
d="M160 1117h270v-735q0 -95 42 -136t121 -41t161 110v802h272v-786q0 -91 29.5 -115t100.5 -11v-203q-123 -26 -191.5 13t-95.5 149h-44q-81 -181 -239 -181q-96 0 -156 78v-24l17 -409h-306l19 409v1080z" />
    <glyph glyph-name="nu" unicode="&#x3bd;" 
d="M1136 1117q-57 -560 -382 -1117h-277l-382 1117h274l277 -882q95 218 152 449.5t71 432.5h267z" />
    <glyph glyph-name="xi" unicode="&#x3be;" 
d="M747 257q350 0 350 -311q0 -156 -100 -237t-284 -81h-197v199h203q63 0 100 22.5t37 91t-37 93t-100 24.5h-149q-190 0 -300 92t-110 252v41q0 112 75.5 195.5t226.5 96.5v43q-99 0 -149 55t-50 133q0 154 178 201v43q-300 4 -398 278l162 76q61 -119 172 -160t284 -9
l354 143l54 -259l-373 -78l-67 -43q-97 -65 -97 -179q0 -69 32 -96.5t80 -27.5h300v-202h-307q-110 0 -158.5 -53t-48.5 -129v-41q0 -78 47.5 -125.5t151.5 -47.5h118z" />
    <glyph glyph-name="omicron" unicode="&#x3bf;" 
d="M616 188q101 0 149 50t49 162v311q0 112 -48 165t-150 53q-101 0 -148 -52t-47 -164v-309q0 -112 47 -164t148 -52zM616 -19q-222 0 -344 108t-123 302v328q0 197 124 307q125 110 345 110t343 -111t123 -310v-328q0 -192 -123 -299t-345 -107z" />
    <glyph glyph-name="pi" unicode="&#x3c0;" 
d="M1115 1117v-207h-165v-573q0 -91 39 -119t145 -13v-203q-436 -71 -436 268v640h-249v-910h-252v910h-139v207h1057z" />
    <glyph glyph-name="rho" unicode="&#x3c1;" 
d="M149 -372v1091q0 205 121.5 309t343.5 104t346 -104.5t124 -308.5v-339q0 -184 -91.5 -291.5t-245.5 -107.5q-102 0 -174 53.5t-102 147.5h-52v-554h-270zM814 413v306q0 206 -194 206q-201 0 -201 -206v-378q114 -140 238 -140q157 0 157 212z" />
    <glyph glyph-name="sigma1" unicode="&#x3c2;" 
d="M484 -372v206h223q58 0 92.5 21.5t34.5 89.5t-34.5 90.5t-92.5 22.5h-147q-205 0 -308 111.5t-103 316.5v229q0 201 118.5 311t344.5 110t331 -102.5t126 -307.5l-259 -20q-7 125 -50.5 173t-147.5 48t-148.5 -50t-44.5 -168v-225q0 -117 44.5 -168.5t152.5 -51.5h149
q151 0 235.5 -77t84.5 -234t-109.5 -241t-303.5 -84h-188z" />
    <glyph glyph-name="sigma" unicode="&#x3c3;" 
d="M1015 646v-255q0 -199 -117.5 -304.5t-315 -105.5t-315.5 105.5t-118 304.5v316q0 194 118 302t318 108h629v-225l-298 24q99 -99 99 -270zM582.5 188q85.5 0 124 49.5t38.5 160.5v291q0 115 -38.5 172t-124 57t-124.5 -52t-39 -159v-309q0 -112 39 -161t124.5 -49z" />
    <glyph glyph-name="tau" unicode="&#x3c4;" 
d="M482 270v633h-342v214h970v-214h-358v-572q0 -86 44 -113.5t161 -12.5v-203q-475 -74 -475 268z" />
    <glyph glyph-name="upsilon" unicode="&#x3c5;" 
d="M618 -19q-222 0 -345.5 114t-123.5 318v704h270v-700q0 -117 46.5 -169.5t151 -52.5t151 52.5t46.5 165.5v704h270v-704q0 -205 -122 -318.5t-344 -113.5z" />
    <glyph glyph-name="phi" unicode="&#x3c6;" 
d="M715 922v-736q112 19 162 92.5t50 207.5v110q0 326 -212 326zM324 674v-149q0 -151 47.5 -233t151.5 -106v931h162q205 0 327 -133t122 -388v-110q0 -212 -109 -339.5t-297 -155.5v-363h-218v363q-194 28 -302.5 164.5t-108.5 369.5v149q0 299 93 467l218 -59
q-86 -182 -86 -408z" />
    <glyph glyph-name="chi" unicode="&#x3c7;" 
d="M808 -372l-210 467l-216 -467h-267l365 737l-335 752h268l214 -477l226 477h264l-370 -745l333 -744h-272z" />
    <glyph glyph-name="psi" unicode="&#x3c8;" 
d="M728 -372h-223v353q-205 24 -305.5 144.5t-100.5 319.5v672h227v-657q0 -123 43.5 -188t144.5 -82v927h205v-927q101 17 144.5 82t43.5 188v657h227v-672q0 -199 -100.5 -319t-305.5 -146v-352z" />
    <glyph glyph-name="omega" unicode="&#x3c9;" 
d="M873 -19q-182 0 -240 239h-37q-24 -130 -89 -184.5t-151 -54.5q-117 0 -187 117.5t-70 340.5v228q0 298 85 482l220 -60q-78 -218 -78 -422v-237q0 -235 91 -235q50 0 73.5 43t23.5 138v464h205v-464q0 -181 94 -181t94 235v237q0 196 -78 422l219 60q86 -186 86 -482
v-228q0 -223 -71 -340.5t-190 -117.5z" />
    <glyph glyph-name="iotadieresis" unicode="&#x3ca;" 
d="M462 359v551h-317v207h587v-728q0 -186 160 -186q97 0 169 37l45 -201q-127 -50 -251 -50q-181 0 -287 101t-106 269zM964 1428q0 -123 -144 -123t-144 123v19q0 126 144 126t144 -126v-19zM542 1428q0 -123 -145 -123q-63 0 -104 27q-40 27 -40 96v19q1 126 145 126
t144 -126v-19z" />
    <glyph glyph-name="upsilondieresis" unicode="&#x3cb;" 
d="M1084 413q0 -205 -122 -319t-344 -113q-222 0 -346 114q-123 114 -123 318v704h270v-700q1 -117 47 -169t150 -52t151 52t47 165v704h270v-704zM972 1428q0 -123 -144 -123t-145 123v19q1 126 145 126t144 -126v-19zM549 1428q0 -123 -144 -123t-144 123v19
q0 126 144 126t144 -126v-19z" />
    <glyph glyph-name="omicrontonos" unicode="&#x3cc;" 
d="M616 188q101 0 149 50t49 162v311q0 112 -48 165t-150 53q-101 0 -148 -52t-47 -164v-309q0 -112 47 -164t148 -52zM616 -19q-222 0 -344 108t-123 302v328q0 197 124 307q125 110 345 110t343 -111t123 -310v-328q0 -192 -123 -299t-345 -107zM469 1303l101 373h339
l-261 -373h-179z" />
    <glyph glyph-name="upsilontonos" unicode="&#x3cd;" 
d="M1084 413q0 -205 -122 -319t-344 -113q-222 0 -346 114q-123 114 -123 318v704h270v-700q1 -117 47 -169t150 -52t151 52t47 165v704h270v-704zM460 1303l100 373h339l-260 -373h-179z" />
    <glyph glyph-name="omegatonos" unicode="&#x3ce;" 
d="M356 -19q-118 -1 -188 117t-69 341v228q0 298 85 482l220 -60q-78 -218 -78 -422v-237q0 -235 91 -235q50 0 74 43q23 43 23 138v464h205v-464q0 -181 96 -181q90 0 92 235v237q0 206 -78 422l219 60q86 -186 86 -482v-228q0 -223 -71 -340t-190 -118q-182 0 -240 239
h-37q-24 -130 -89 -184t-151 -55zM482 1303l101 373h339l-261 -373h-179z" />
    <glyph glyph-name="IEgravecyrillic" unicode="&#x400;" 
d="M140 0v1489h968v-214h-698v-365h612v-216h-612v-480h698v-214h-968zM600 1676l-364 372h356l203 -372h-195z" />
    <glyph glyph-name="Iocyrillic" unicode="&#x401;" 
d="M140 0v1489h968v-214h-698v-365h612v-216h-612v-480h698v-214h-968zM1004 1800q0 -123 -144 -123t-145 123v19q0 127 144 127t145 -127v-19zM581 1800q0 -123 -145 -123q-63 0 -104 27q-40 27 -40 96v19q0 127 144 127t145 -127v-19z" />
    <glyph glyph-name="Djecyrillic" unicode="&#x402;" 
d="M698 968q434 0 434 -417v-136q0 -415 -434 -415v210q84 0 128.5 46.5t44.5 162.5v128q0 117 -44.5 164t-128.5 47h-162v-758h-270v1275h-216v214h814v-214h-328v-307h162z" />
    <glyph glyph-name="Gjecyrillic" unicode="&#x403;" 
d="M190 0v1489h938v-214h-668v-1275h-270zM469 1676l201 372h358l-363 -372h-196z" />
    <glyph glyph-name="Ecyrillic" unicode="&#x404;" 
d="M635 -19q-251 0 -380.5 128.5t-129.5 380.5v502q0 255 129.5 385.5t379.5 130.5t374 -124t137 -397l-270 -19q-13 186 -63.5 256t-179.5 70t-182 -70t-53 -248v-66h310v-216h-310v-189q0 -173 52.5 -241.5t182.5 -68.5t180 67.5t63 251.5l270 -19q-13 -264 -136 -389
t-374 -125z" />
    <glyph glyph-name="Dzecyrillic" unicode="&#x405;" 
d="M607 1285q-201 0 -201 -179q0 -86 61 -133t269 -113t298 -162q90 -97 91 -270q-1 -210 -143 -326t-369 -117q-311 0 -514 181l89 201q191 -168 432 -168q114 0 174 54t61 147t-61 140q-62 46 -267 110t-298 160t-93 278t124 298t343 116q130 0 256 -47t212 -129l-77 -196
q-186 155 -387 155z" />
    <glyph glyph-name="Icyrillic" unicode="&#x406;" 
d="M140 0v214h342v1061h-342v214h953v-214h-341v-1061h341v-214h-953z" />
    <glyph glyph-name="Yicyrillic" unicode="&#x407;" 
d="M140 0v214h342v1061h-342v214h953v-214h-341v-1061h341v-214h-953zM972 1800q0 -123 -144 -123t-145 123v19q1 127 145 127t144 -127v-19zM549 1800q0 -123 -144 -123t-144 123v19q0 127 144 127t144 -127v-19z" />
    <glyph glyph-name="Jecyrillic" unicode="&#x408;" 
d="M1074 475q0 -235 -120 -365t-368 -129q-248 0 -365 122q-116 122 -130 400l270 20q13 -197 60 -262t162 -65t167 66t52 215v798h-370v214h642v-1014z" />
    <glyph glyph-name="Ljecyrillic" unicode="&#x409;" 
d="M920 609q0 193 -123 193h-60v-603h60q60 0 91.5 45t31.5 153v212zM80 205q22 0 41 28t20 104l15 1152h581v-491h90q151 0 229 -93t78 -274v-255q0 -184 -79 -280t-230 -96h-304v1290h-156l-11 -1009q-2 -147 -68 -219.5t-178 -72.5q-59 0 -119 18l33 209q36 -11 58 -11z
" />
    <glyph glyph-name="Njecyrillic" unicode="&#x40a;" 
d="M1134 376q0 -376 -305 -376h-308v709h-206v-709h-216v1489h216v-564h206v564h216v-491h93q304 0 304 -367v-255zM920 609q0 193 -119 193h-64v-603h64q58 0 88.5 45t30.5 153v212z" />
    <glyph glyph-name="Tshecyrillic" unicode="&#x40b;" 
d="M706 920q426 0 426 -397v-523h-270v514q0 104 -39 149.5t-125 45.5h-169v-709h-270v1275h-216v214h825v-214h-339v-355h177z" />
    <glyph glyph-name="Kjecyrillic" unicode="&#x40c;" 
d="M410 672v-672h-270v1489h270v-601h63l410 601h286l-491 -687l487 -802h-286l-401 672h-68zM521 1676l201 372h358l-363 -372h-196z" />
    <glyph glyph-name="Igravecyrillic" unicode="&#x40d;" 
d="M855 0v1126l-382 -1126h-333v1489h238v-1172l402 1172h313v-1489h-238zM572 1676l-363 372h355l203 -372h-195z" />
    <glyph glyph-name="Ushortcyrillic" unicode="&#x40e;" 
d="M328 -7q-92 0 -205 24l30 214q108 -24 178 -23q71 1 120 41q48 40 78 133l9 29h-99l-365 1078h265l275 -832l280 832h262l-404 -1176q-58 -171 -164 -245t-260 -75zM616 1663q-173 0 -293 91t-118 305l240 19q0 -128 36 -182t135 -55q99 0 135 54t37 183l240 -19
q2 -214 -118 -305t-294 -91z" />
    <glyph glyph-name="Dzhecyrillic" unicode="&#x40f;" 
d="M482 -279v279h-342v1489h270v-1275h413v1275h270v-1489h-341v-279h-270z" />
    <glyph glyph-name="Acyrillic" unicode="&#x410;" 
d="M914 0l-91 389h-417l-97 -389h-251l400 1489h318l401 -1489h-263zM773 603l-153 648l-160 -648h313z" />
    <glyph glyph-name="Becyrillic" unicode="&#x411;" 
d="M410 214h230q112 0 159.5 49.5t47.5 159.5v65q0 108 -47.5 155.5t-159.5 47.5h-230v-477zM140 0v1489h895v-214h-625v-372h264q212 0 327.5 -100.5t115.5 -286.5v-105q0 -197 -115.5 -304t-325.5 -107h-536z" />
    <glyph glyph-name="Vecyrillic" unicode="&#x412;" 
d="M410 207h216q114 1 164 47t50 152v74q0 104 -50 150t-164 46h-216v-469zM410 873h203q99 0 143 40t43 131v68q0 91 -44 131t-142 40h-203v-410zM1110 385q0 -385 -479 -385h-491v1489h489q222 -1 329 -87t107 -263v-74q0 -212 -201 -250v-54q117 -13 181 -90t65 -196v-90
z" />
    <glyph glyph-name="Gecyrillic" unicode="&#x413;" 
d="M190 0v1489h938v-214h-668v-1275h-270z" />
    <glyph glyph-name="Decyrillic" unicode="&#x414;" 
d="M276 0v-279h-250v493h115q47 39 69.5 122t24.5 239l9 914h786v-1275h150v-493h-251v279h-653zM406 214h372v1061h-292l-4 -709q-2 -110 -17.5 -186t-58.5 -123v-43z" />
    <glyph glyph-name="Iecyrillic" unicode="&#x415;" 
d="M140 0v1489h968v-214h-698v-365h612v-216h-612v-480h698v-214h-968z" />
    <glyph glyph-name="Zhecyrillic" unicode="&#x416;" 
d="M516 873v616h203v-616h65l190 616h221l-232 -672l230 -817h-221l-181 685h-72v-685h-203v685h-73l-182 -685h-222l238 825l-240 664h222l190 -616h67z" />
    <glyph glyph-name="Zecyrillic" unicode="&#x417;" 
d="M619 -19q-255 0 -376.5 106.5t-134.5 329.5l270 19q13 -140 66.5 -192t171.5 -52t170 50t52 162v61q0 117 -54 166t-173 49h-175v212h175q104 0 147.5 35.5t43.5 126.5v69q0 95 -45 135t-145 40t-144 -46.5t-55 -164.5l-272 19q13 207 127 304.5t341 97.5q465 0 465 -369
v-54q0 -117 -70.5 -186t-188.5 -82v-54q134 -13 213.5 -99.5t79.5 -216.5v-47q0 -210 -117 -314.5t-372 -104.5z" />
    <glyph glyph-name="Iicyrillic" unicode="&#x418;" 
d="M855 0v1126l-382 -1126h-333v1489h238v-1172l402 1172h313v-1489h-238z" />
    <glyph glyph-name="Iishortcyrillic" unicode="&#x419;" 
d="M855 0v1126l-382 -1126h-333v1489h238v-1172l402 1172h313v-1489h-238zM624 1663q-173 0 -294 91q-120 91 -118 305l240 19q0 -128 36 -182t136 -55q99 0 135 54t36 183l240 -19q2 -214 -118 -305t-293 -91z" />
    <glyph glyph-name="Kacyrillic" unicode="&#x41a;" 
d="M410 672v-672h-270v1489h270v-601h63l410 601h286l-491 -687l487 -802h-286l-401 672h-68z" />
    <glyph glyph-name="Elcyrillic" unicode="&#x41b;" 
d="M138 201q58 0 87.5 58.5t31.5 204.5l6 1025h830v-1489h-270v1275h-296l-4 -836q-2 -233 -89.5 -347t-251.5 -114q-77 0 -165 28l33 214q65 -19 88 -19z" />
    <glyph glyph-name="Emcyrillic" unicode="&#x41c;" 
d="M108 0v1489h279l235 -791l231 791h272v-1489h-239l23 1071l-194 -660h-196l-195 671l22 -1082h-238z" />
    <glyph glyph-name="Encyrillic" unicode="&#x41d;" 
d="M140 0v1489h270v-564h413v564h270v-1489h-270v709h-413v-709h-270z" />
    <glyph glyph-name="Ocyrillic" unicode="&#x41e;" 
d="M397 503q0 -169 50 -239t170 -69q120 0 171 69q50 69 50 239v476q0 173 -50 244t-170 71t-171 -71q-50 -71 -50 -244v-476zM1108 486q0 -242 -126 -374t-365 -131q-239 -1 -366 131t-126 374v510q0 244 127 378q128 134 366 134t364 -134t126 -378v-510z" />
    <glyph glyph-name="Pecyrillic" unicode="&#x41f;" 
d="M140 0v1489h953v-1489h-270v1275h-413v-1275h-270z" />
    <glyph glyph-name="Ercyrillic" unicode="&#x420;" 
d="M410 702h227q110 0 159 45t49 156v168q0 113 -49 159t-159 45h-227v-573zM650 1489q465 0 465 -404v-199q0 -205 -119 -300t-346 -94h-240v-492h-270v1489h510z" />
    <glyph glyph-name="Escyrillic" unicode="&#x421;" 
d="M125 992q0 516 514 516q255 0 374 -124t132 -397l-270 -19q-13 190 -62 258t-179 68t-183 -72q-54 -72 -54 -246v-471q0 -166 54 -238q53 -72 183 -72q130 -1 179 65t62 254l270 -19q-13 -272 -133 -393t-375 -121q-512 0 -512 509v502z" />
    <glyph glyph-name="Tecyrillic" unicode="&#x422;" 
d="M482 0v1275h-400v214h1069v-214h-399v-1275h-270z" />
    <glyph glyph-name="Ucyrillic" unicode="&#x423;" 
d="M328 -7q-92 0 -205 24l30 214q100 -22 175 -22q74 0 122.5 40t78.5 133l9 29h-99l-365 1078h265l275 -832l280 832h262l-404 -1176q-58 -171 -164.5 -245.5t-259.5 -74.5z" />
    <glyph glyph-name="Efcyrillic" unicode="&#x424;" 
d="M467 374h43v741h-43q-80 0 -113.5 -69.5t-33.5 -209.5v-190q0 -138 33.5 -205t113.5 -67zM769 1115h-47v-741h47q76 0 109.5 67t33.5 205v190q0 140 -33.5 209.5t-109.5 69.5zM763 168h-33v-187h-229v187h-32q-188 0 -284.5 128t-96.5 350v190q0 225 96.5 355.5
t286.5 130.5h30v186h229v-186h33q190 0 286 -130.5t96 -355.5v-190q0 -222 -96 -350t-286 -128z" />
    <glyph glyph-name="Khacyrillic" unicode="&#x425;" 
d="M897 0l-284 519l-283 -519h-274l432 763l-389 726h286l259 -474l261 474h272l-410 -724l406 -765h-276z" />
    <glyph glyph-name="Tsecyrillic" unicode="&#x426;" 
d="M909 -279v279h-769v1489h270v-1275h348v1275h270v-1275h151v-493h-270z" />
    <glyph glyph-name="Checyrillic" unicode="&#x427;" 
d="M1087 1489v-1489h-270v497h-206q-248 0 -362.5 102.5t-114.5 323.5v566h270v-562q0 -115 50.5 -166.5t156.5 -51.5h206v780h270z" />
    <glyph glyph-name="Shacyrillic" unicode="&#x428;" 
d="M95 0v1489h227v-1286h183v1286h221v-1286h184v1286h228v-1489h-1043z" />
    <glyph glyph-name="Shchacyrillic" unicode="&#x429;" 
d="M1212 -318h-236v318h-881v1489h227v-1286h183v1286h221v-1286h184v1286h228v-1286h74v-521z" />
    <glyph glyph-name="Hardsigncyrillic" unicode="&#x42a;" 
d="M555 214h136q99 0 140.5 47.5t41.5 159.5v164q0 110 -42 156.5t-140 46.5h-136v-574zM719 0h-429v1275h-264v214h529v-491h164q214 0 317 -95t103 -294v-209q0 -203 -103 -301.5t-317 -98.5z" />
    <glyph glyph-name="Yericyrillic" unicode="&#x42b;" 
d="M341 203h61q69 0 103.5 46.5t34.5 163.5v181q0 112 -34.5 158.5t-103.5 46.5h-61v-596zM894 0v1489h227v-1489h-227zM112 0v1489h229v-491h63q182 0 269.5 -94t87.5 -288v-223q0 -199 -87.5 -296t-269.5 -97h-292z" />
    <glyph glyph-name="Softsigncyrillic" unicode="&#x42c;" 
d="M410 214h238q112 0 169.5 46.5t57.5 158.5v167q0 110 -57.5 156t-169.5 46h-238v-574zM1145 398q0 -398 -465 -398h-540v1489h270v-491h271q464 0 464 -387v-213z" />
    <glyph glyph-name="Ereversedcyrillic" unicode="&#x42d;" 
d="M1132 490q0 -509 -512 -509q-244 0 -369.5 124t-136.5 390l270 19q13 -182 62.5 -250.5t183.5 -68.5t183 74.5t49 235.5v189h-343v216h343v66q0 175 -53 246.5t-183 71.5t-179.5 -71t-62.5 -255l-270 19q11 270 136.5 395.5t377.5 125.5q504 0 504 -516v-502z" />
    <glyph glyph-name="IUcyrillic" unicode="&#x42e;" 
d="M798.5 192q63.5 0 87.5 53t24 174v640q0 125 -24 181t-87.5 56t-87.5 -56t-24 -181v-640q0 -121 24 -174t87.5 -53zM800 -19q-170 0 -254 116.5t-84 321.5v279h-140v-698h-227v1489h227v-584h140v154q0 210 86 329.5t254 119.5t252 -119t84 -330v-640q0 -205 -84 -321.5
t-254 -116.5z" />
    <glyph glyph-name="IAcyrillic" unicode="&#x42f;" 
d="M114 1089q0 400 435 400h544v-1489h-270v553h-164l-287 -553h-294l307 577q-271 68 -271 387v125zM581 767h242v508h-242q-112 0 -159.5 -44.5t-47.5 -150.5v-110q0 -112 47.5 -157.5t159.5 -45.5z" />
    <glyph glyph-name="acyrillic" unicode="&#x430;" 
d="M426 -19q-130 0 -224 84q-94 85 -94 237t96 235t250 83h283v153q0 160 -178 160q-91 -1 -135 -37t-68 -142l-224 47q34 177 136 256t302 79t314 -86t114 -264v-468q0 -86 45 -107t130 -6v-203q-286 -62 -331 169h-43q-51 -80 -147 -135t-226 -55zM503 169q144 0 234 105
v186h-244q-63 0 -98 -31t-36 -116q0 -144 144 -144z" />
    <glyph glyph-name="becyrillic" unicode="&#x431;" 
d="M614.5 188q106.5 0 151 52t44.5 157v210q0 95 -44.5 142.5t-151 47.5t-151 -47.5t-44.5 -142.5v-210q0 -104 44.5 -156.5t151 -52.5zM732 1005q162 0 257 -100.5t95 -269.5v-227q0 -212 -125 -319.5t-342 -107.5t-342.5 111t-125.5 344v465q0 263 118 396t344 165l389 55
l26 -214l-374 -57q-125 -19 -185.5 -90.5t-62.5 -219.5l-2 -85h39q78 154 291 154z" />
    <glyph glyph-name="vecyrillic" unicode="&#x432;" 
d="M410 194h216q128 0 178.5 34.5t50.5 112.5v18q0 74 -47.5 107t-180.5 33h-217v-305zM410 663h217q110 0 153 24t43 93v26q0 71 -42 98t-155 27h-216v-268zM614 1117q470 0 470 -279v-36q0 -91 -62.5 -143t-174.5 -59v-41q134 -9 201 -75.5t67 -157.5v-26
q0 -149 -117 -224.5t-384 -75.5h-465v1117h465z" />
    <glyph glyph-name="gecyrillic" unicode="&#x433;" 
d="M225 0v1117h846v-214h-576v-903h-270z" />
    <glyph glyph-name="decyrillic" unicode="&#x434;" 
d="M317 0v-279h-250v493h112q80 69 84 307l7 596h745v-903h150v-493h-249v279h-599zM438 214h327v689h-253l-6 -391q-4 -153 -68 -253v-45z" />
    <glyph glyph-name="iecyrillic" unicode="&#x435;" 
d="M419 737v-72h395v57q0 123 -46 175q-46 53 -152 53t-152 -50t-45 -163zM419 384q1 -213 203 -213q102 0 156 33t86 114l231 -65q-53 -149 -157 -210t-315 -61t-343 104q-132 106 -131 309v326q0 201 127 308q128 107 342 107t340 -109t126 -318v-204h-665v-121z" />
    <glyph glyph-name="zhecyrillic" unicode="&#x436;" 
d="M514 683v434h205v-434h46l194 434h238l-253 -499l249 -618h-232l-181 503h-61v-503h-205v503h-65l-181 -503h-229l248 618l-253 499h230l200 -434h50z" />
    <glyph glyph-name="zecyrillic" unicode="&#x437;" 
d="M628 -19q-252 0 -365.5 87.5t-126.5 287.5l248 13q15 -121 64.5 -161t175.5 -40t172.5 39t46.5 130v19q0 84 -44.5 118t-176.5 34h-86v166h86q104 0 148 25t44 96v26q0 73 -44 101t-150 28t-150 -36.5t-55 -144.5l-249 15q13 186 121 269t336 83t344.5 -70t116.5 -226
v-34q0 -91 -63.5 -142t-173.5 -59v-41q134 -9 201 -77t67 -159v-26q0 -162 -117.5 -241.5t-369.5 -79.5z" />
    <glyph glyph-name="iicyrillic" unicode="&#x438;" 
d="M847 0v797l-400 -797h-298v1117h238v-830l419 830h278v-1117h-237z" />
    <glyph glyph-name="iishortcyrillic" unicode="&#x439;" 
d="M847 0v797l-400 -797h-298v1117h238v-830l419 830h278v-1117h-237zM616 1290q-173 0 -293 91t-118 306l240 18q0 -128 36 -182t135 -54t135 54t37 182l240 -18q2 -213 -118 -305t-294 -92z" />
    <glyph glyph-name="kacyrillic" unicode="&#x43a;" 
d="M465 486v-486h-270v1117h270v-437h73l291 437h290l-361 -510l355 -607h-292l-283 486h-73z" />
    <glyph glyph-name="elcyrillic" unicode="&#x43b;" 
d="M153 194q61 0 89 57.5t30 202.5l5 663h816v-1117h-270v910h-292l-4 -480q-4 -452 -330 -452q-67 0 -158 28l32 204q55 -16 82 -16z" />
    <glyph glyph-name="emcyrillic" unicode="&#x43c;" 
d="M132 0v1117h294l196 -594l192 594h286v-1117h-232l18 795l-167 -516h-203l-172 527l21 -806h-233z" />
    <glyph glyph-name="encyrillic" unicode="&#x43d;" 
d="M149 0v1117h270v-383h395v383h270v-1117h-270v519h-395v-519h-270z" />
    <glyph glyph-name="ocyrillic" unicode="&#x43e;" 
d="M616 188q101 0 149 50t49 162v311q0 112 -48 165t-150 53q-101 0 -148 -52t-47 -164v-309q0 -112 47 -164t148 -52zM616 -19q-222 0 -344 108t-123 302v328q0 197 124 307q125 110 345 110t343 -111t123 -310v-328q0 -192 -123 -299t-345 -107z" />
    <glyph glyph-name="pecyrillic" unicode="&#x43f;" 
d="M149 0v1117h935v-1117h-270v903h-395v-903h-270z" />
    <glyph glyph-name="ercyrillic" unicode="&#x440;" 
d="M652 -15q-131 0 -233 49v-406h-270v1489h270v-182h52q35 93 116 147t186 54q145 0 228 -102t83 -282v-357q0 -188 -116 -299t-316 -111zM814 722q0 194 -157 194q-127 0 -238 -140v-527q96 -61 196 -61t149 49t50 161v324z" />
    <glyph glyph-name="escyrillic" unicode="&#x441;" 
d="M632 -19q-236 0 -359 108q-124 108 -124 311v317q0 203 125 311t351 108t337 -102t131 -299l-263 -18q-6 117 -54 164t-152 47t-155 -52q-50 -51 -50 -170v-298q0 -116 50 -168q51 -52 157 -52t152 39t52 136l263 -19q-13 -181 -119 -272t-342 -91z" />
    <glyph glyph-name="tecyrillic" unicode="&#x442;" 
d="M482 0v903h-365v214h998v-214h-363v-903h-270z" />
    <glyph glyph-name="ucyrillic" unicode="&#x443;" 
d="M337 -389q-101 0 -227 22l22 207q130 -28 210 -27q79 1 133 47t85 155l6 17h-156l-315 1085h279l244 -897l250 897h268l-339 -1126q-61 -205 -171 -293t-289 -87z" />
    <glyph glyph-name="efcyrillic" unicode="&#x444;" 
d="M750 931h-41v-747h41q74 0 118 55t44 172v293q0 117 -44 172t-118 55zM482 184h41v747h-41q-74 0 -118 -55t-44 -172v-293q0 -117 44 -172t118 -55zM776 0h-48v-372h-223v372h-49q-168 0 -262.5 108t-94.5 300v303q0 190 95 298t262 108h49v372h223v-372h48
q168 0 263 -108t95 -298v-303q0 -192 -95 -300t-263 -108z" />
    <glyph glyph-name="khacyrillic" unicode="&#x445;" 
d="M832 0l-229 369l-212 -369h-276l365 566l-344 551h279l211 -335l197 335h275l-346 -540l361 -577h-281z" />
    <glyph glyph-name="tsecyrillic" unicode="&#x446;" 
d="M916 -279v279h-767v1117h270v-903h342v903h272v-903h140v-493h-257z" />
    <glyph glyph-name="checyrillic" unicode="&#x447;" 
d="M767 1117h270v-1117h-270v363q-90 -30 -208 -30q-434 0 -434 423v361h272v-357q0 -119 50 -166.5t149 -48.5t171 36v536z" />
    <glyph glyph-name="shacyrillic" unicode="&#x448;" 
d="M99 0v1117h221v-918h186v918h220v-918h186v918h222v-1117h-1035z" />
    <glyph glyph-name="shchacyrillic" unicode="&#x449;" 
d="M1210 -279h-221v279h-890v1117h221v-918h186v918h220v-918h186v918h222v-910h76v-486z" />
    <glyph glyph-name="hardsigncyrillic" unicode="&#x44a;" 
d="M546 207h160q88 0 128.5 34.5t40.5 112.5v76q0 76 -41 109t-128 33h-160v-365zM748 0h-472v903h-257v214h527v-342h202q186 0 291.5 -90.5t105.5 -252.5v-89q0 -162 -105.5 -252.5t-291.5 -90.5z" />
    <glyph glyph-name="yericyrillic" unicode="&#x44b;" 
d="M341 195h70q74 0 110 34.5t36 120.5v101q0 82 -35.5 115.5t-110.5 33.5h-70v-405zM894 0v1117h227v-1117h-227zM112 0v1117h229v-326h87q162 0 251.5 -83.5t89.5 -234.5v-140q0 -156 -89.5 -244.5t-251.5 -88.5h-316z" />
    <glyph glyph-name="softsigncyrillic" unicode="&#x44c;" 
d="M413 207h242q99 0 145.5 33.5t46.5 113.5v70q0 78 -46.5 113t-145.5 35h-242v-365zM143 0v1117h270v-342h289q197 0 306 -91.5t109 -253.5v-86q0 -162 -109 -253t-306 -91h-559z" />
    <glyph glyph-name="ereversedcyrillic" unicode="&#x44d;" 
d="M602 -19q-232 0 -345.5 88.5t-126.5 274.5l263 19q6 -102 49.5 -144t157.5 -42t164 51t50 169v95h-319v173h319v57q0 115 -49.5 166.5t-159.5 51.5t-157.5 -42.5t-54.5 -149.5l-263 21q19 186 132.5 276.5t341.5 90.5t354 -107t126 -314v-311q0 -205 -125 -314t-357 -109
z" />
    <glyph glyph-name="iucyrillic" unicode="&#x44e;" 
d="M798.5 181q63.5 0 88.5 40t25 129v410q0 91 -25 133.5t-88.5 42.5t-88.5 -42.5t-25 -133.5v-410q0 -89 25 -129t88.5 -40zM800 -19q-170 0 -254 98t-84 271v166h-134v-516h-233v1117h233v-402h134v45q0 175 85 275.5t255 100.5t253 -101.5t83 -274.5v-410
q0 -171 -84 -270t-254 -99z" />
    <glyph glyph-name="iacyrillic" unicode="&#x44f;" 
d="M814 367h-127l-255 -367h-298l270 389q-114 26 -174.5 111t-60.5 219v48q0 169 91.5 259.5t262.5 90.5h561v-1117h-270v367zM573 564h241v354h-241q-69 0 -101.5 -33.5t-32.5 -119.5v-41q0 -91 32.5 -125.5t101.5 -34.5z" />
    <glyph glyph-name="iegravecyrillic" unicode="&#x450;" 
d="M419 737v-72h395v57q0 123 -46 175q-46 53 -152 53t-152 -50t-45 -163zM419 384q1 -213 203 -213q102 0 156 33t86 114l231 -65q-53 -149 -157 -210t-315 -61t-343 104q-132 106 -131 309v326q0 201 127 308q128 107 342 107t340 -109t126 -318v-204h-665v-121zM603 1303
l-363 373h356l203 -373h-196z" />
    <glyph glyph-name="iocyrillic" unicode="&#x451;" 
d="M419 737v-72h395v57q0 123 -46 175q-46 53 -152 53t-152 -50t-45 -163zM419 384q1 -213 203 -213q102 0 156 33t86 114l231 -65q-53 -149 -157 -210t-315 -61t-343 104q-132 106 -131 309v326q0 201 127 308q128 107 342 107t340 -109t126 -318v-204h-665v-121zM972 1428
q0 -123 -144 -123t-145 123v19q1 126 145 126t144 -126v-19zM549 1428q0 -123 -144 -123t-144 123v19q0 126 144 126t144 -126v-19z" />
    <glyph glyph-name="djecyrillic" unicode="&#x452;" 
d="M471 827q86 199 325 199q120 0 204 -86.5t84 -237.5v-717q0 -188 -115.5 -281t-279.5 -93q-104 0 -227 41l33 203q102 -37 169 -37q66 0 108 44.5t42 150.5v622q0 86 -38.5 128.5t-107.5 42.5q-133 0 -249 -164v-642h-270v1149h-169v165h169v175h270v-175h303v-165h-303
v-322h52z" />
    <glyph glyph-name="gjecyrillic" unicode="&#x453;" 
d="M225 0v1117h846v-214h-576v-903h-270zM460 1303l201 373h357l-363 -373h-195z" />
    <glyph glyph-name="ecyrillic" unicode="&#x454;" 
d="M632 -19q-232 0 -357.5 109t-125.5 314v311q0 207 128.5 314t354.5 107t339 -90.5t131 -276.5l-262 -21q-7 104 -55 148t-157 44t-159 -51t-50 -167v-63h342v-164h-342v-98q0 -117 51 -168.5t162 -51.5t156.5 43t51.5 143l262 -19q-13 -186 -125.5 -274.5t-344.5 -88.5z
" />
    <glyph glyph-name="dzecyrillic" unicode="&#x455;" 
d="M436 819q0 -69 56 -98t234 -61q177 -32 269 -110t92 -231q1 -154 -129 -244t-340 -90q-134 0 -262 38t-224 107l78 179q191 -132 412 -132q195 0 195 128q0 69 -50 100q-49 31 -223 61t-275 102q-101 73 -101 229t119 247t307 92q116 0 232 -38t207 -100l-67 -173
q-190 119 -360 119t-170 -125z" />
    <glyph glyph-name="icyrillic.salt_serifs" unicode="&#xe02e;" 
d="M752 207h335v-207h-605v910h-337v207h607v-910zM804 1426q0 -123 -188 -123q-84 0 -136 27t-52 96v19q0 128 188 127t188 -127v-19z" />
    <glyph glyph-name="icyrillic.salt_serifs" unicode="&#x456;" 
d="M752 207h335v-207h-605v910h-337v207h607v-910zM804 1426q0 -123 -188 -123q-84 0 -136 27t-52 96v19q0 128 188 127t188 -127v-19z" />
    <glyph glyph-name="yicyrillic.salt_serifs" unicode="&#xe02f;" 
d="M752 207h335v-207h-605v910h-337v207h607v-910zM953 1428q0 -123 -144 -123t-144 123v19q0 126 144 126t144 -126v-19zM531 1428q-1 -123 -145 -123t-144 123v19q0 126 144 126t145 -126v-19z" />
    <glyph glyph-name="yicyrillic.salt_serifs" unicode="&#x457;" 
d="M752 207h335v-207h-605v910h-337v207h607v-910zM953 1428q0 -123 -144 -123t-144 123v19q0 126 144 126t144 -126v-19zM531 1428q-1 -123 -145 -123t-144 123v19q0 126 144 126t145 -126v-19z" />
    <glyph glyph-name="jecyrillic" unicode="&#x458;" 
d="M642 20v890h-447v207h717v-1124q0 -184 -132 -283t-324 -99t-315 41l34 203q110 -39 226 -38t179 47q62 47 62 156zM953 1428q0 -123 -188 -123q-84 0 -136 27t-52 96v19q0 126 188 126t188 -126v-19z" />
    <glyph glyph-name="ljecyrillic" unicode="&#x459;" 
d="M745 188h70q58 0 85 36.5t27 121.5v101q0 76 -27 110.5t-85 34.5h-70v-404zM91 201q66 0 69 104l13 812h572v-342h115q134 0 207.5 -83t73.5 -230v-136q0 -155 -73.5 -240.5t-207.5 -85.5h-331v925h-147l-10 -670q-2 -132 -70.5 -200t-180.5 -68q-54 0 -125 20l34 207
q33 -13 61 -13z" />
    <glyph glyph-name="njecyrillic" unicode="&#x45a;" 
d="M315 547v-547h-216v1117h216v-374h206v374h216v-326h118q132 0 205.5 -82t73.5 -227v-169q0 -147 -73.5 -230t-205.5 -83h-334v547h-206zM737 188h71q58 0 85 33.5t27 108.5v132q0 76 -27 110.5t-85 34.5h-71v-419z" />
    <glyph glyph-name="tshecyrillic" unicode="&#x45b;" 
d="M668 806q-127 0 -249 -171v-635h-270v1149h-169v165h169v175h270v-175h303v-165h-303v-326h52q37 95 121 149t206 54t204 -88t82 -240v-698h-270v629q0 177 -146 177z" />
    <glyph glyph-name="kjecyrillic" unicode="&#x45c;" 
d="M465 486v-486h-270v1117h270v-437h73l291 437h290l-361 -510l355 -607h-292l-283 486h-73zM510 1303l201 373h358l-363 -373h-196z" />
    <glyph glyph-name="igravecyrillic" unicode="&#x45d;" 
d="M847 0v797l-400 -797h-298v1117h238v-830l419 830h278v-1117h-237zM618 1303l-363 373h356l203 -373h-196z" />
    <glyph glyph-name="ushortcyrillic" unicode="&#x45e;" 
d="M337 -389q-101 0 -227 22l22 207q130 -28 210 -27q79 1 133 47t85 155l6 17h-156l-315 1085h279l244 -897l250 897h268l-339 -1126q-61 -205 -171 -293t-289 -87zM616 1290q-173 0 -293 91t-118 306l240 18q0 -128 36 -182t135 -54t135 54t37 182l240 -18
q2 -213 -118 -305t-294 -92z" />
    <glyph glyph-name="dzhecyrillic" unicode="&#x45f;" 
d="M488 -279v279h-339v1117h270v-903h395v903h270v-1117h-339v-279h-257z" />
    <glyph glyph-name="Gheupturncyrillic" unicode="&#x490;" 
d="M190 0v1489h666v280h272v-494h-668v-1275h-270z" />
    <glyph glyph-name="gheupturncyrillic" unicode="&#x491;" 
d="M225 0v1117h589v279h257v-493h-576v-903h-270z" />
    <glyph glyph-name="Wgrave" unicode="&#x1e80;" 
d="M769 0l-151 776l-149 -776h-246l-178 1489h238l89 -1156l140 784h209l145 -767l87 1139h235l-179 -1489h-240zM605 1676l-363 372h356l203 -372h-196z" />
    <glyph glyph-name="wgrave" unicode="&#x1e81;" 
d="M756 0l-140 627l-134 -627h-253l-173 1117h236l99 -834l123 640h197l134 -625l95 819h237l-172 -1117h-249zM598 1303l-363 373h355l203 -373h-195z" />
    <glyph glyph-name="Wacute" unicode="&#x1e82;" 
d="M769 0l-151 776l-149 -776h-246l-178 1489h238l89 -1156l140 784h209l145 -767l87 1139h235l-179 -1489h-240zM410 1676l201 372h357l-363 -372h-195z" />
    <glyph glyph-name="wacute" unicode="&#x1e83;" 
d="M756 0l-140 627l-134 -627h-253l-173 1117h236l99 -834l123 640h197l134 -625l95 819h237l-172 -1117h-249zM452 1303l201 373h358l-363 -373h-196z" />
    <glyph glyph-name="Wdieresis" unicode="&#x1e84;" 
d="M769 0l-151 776l-149 -776h-246l-178 1489h238l89 -1156l140 784h209l145 -767l87 1139h235l-179 -1489h-240zM981 1800q0 -123 -144 -123t-144 123v19q0 127 144 127t144 -127v-19zM559 1800q-1 -123 -145 -123t-144 123v19q0 127 144 127t145 -127v-19z" />
    <glyph glyph-name="wdieresis" unicode="&#x1e85;" 
d="M756 0l-140 627l-134 -627h-253l-173 1117h236l99 -834l123 640h197l134 -625l95 819h237l-172 -1117h-249zM981 1428q0 -123 -144 -123t-144 123v19q0 126 144 126t144 -126v-19zM559 1428q-1 -123 -145 -123t-144 123v19q0 126 144 126t145 -126v-19z" />
    <glyph glyph-name="Ygrave" unicode="&#x1ef2;" 
d="M752 0h-270v559l-439 930h277l300 -688l292 688h276l-436 -930v-559zM598 1676l-363 372h355l203 -372h-195z" />
    <glyph glyph-name="ygrave" unicode="&#x1ef3;" 
d="M337 -389q-101 0 -227 22l22 207q130 -28 210 -27q79 1 133 47t85 155l6 17h-156l-315 1085h279l244 -897l250 897h268l-339 -1126q-61 -205 -171 -293t-289 -87zM598 1303l-363 373h355l203 -373h-195z" />
    <glyph glyph-name="uni2000" unicode="&#x2000;" 
 />
    <glyph glyph-name="uni2001" unicode="&#x2001;" 
 />
    <glyph glyph-name="uni2002" unicode="&#x2002;" 
 />
    <glyph glyph-name="uni2003" unicode="&#x2003;" 
 />
    <glyph glyph-name="uni2004" unicode="&#x2004;" 
 />
    <glyph glyph-name="uni2005" unicode="&#x2005;" 
 />
    <glyph glyph-name="uni2007" unicode="&#x2007;" 
 />
    <glyph glyph-name="uni2009" unicode="&#x2009;" 
 />
    <glyph glyph-name="uni200A" unicode="&#x200a;" 
 />
    <glyph glyph-name="uni200B" unicode="&#x200b;" horiz-adv-x="0" 
 />
    <glyph glyph-name="endash" unicode="&#x2013;" 
d="M130 534v242h972v-242h-972z" />
    <glyph glyph-name="emdash" unicode="&#x2014;" 
d="M19 534v242h1195v-242h-1195z" />
    <glyph glyph-name="horizontalbar" unicode="&#x2015;" 
d="M19 534v242h1195v-242h-1195z" />
    <glyph glyph-name="underscoredbl" unicode="&#x2017;" 
d="M128 0v242h976v-242h-976zM128 -445v242h976v-242h-976z" />
    <glyph glyph-name="quoteright" unicode="&#x2019;" 
d="M317 706l173 783h422l-409 -783h-186z" />
    <glyph glyph-name="quotesinglbase" unicode="&#x201a;" 
d="M343 -333l137 784h425l-376 -784h-186z" />
    <glyph glyph-name="quotereversed" unicode="&#x201b;" 
d="M702 706l-412 783h425l173 -783h-186z" />
    <glyph glyph-name="quotedblleft" unicode="&#x201c;" 
d="M67 706l398 783h166l-166 -783h-398zM613 706l392 783h166l-160 -783h-398z" />
    <glyph glyph-name="quotedblright" unicode="&#x201d;" 
d="M61 706l161 783h396l-391 -783h-166zM601 706l166 783h398l-398 -783h-166z" />
    <glyph glyph-name="quotedblbase" unicode="&#x201e;" 
d="M-50 -333l160 784h396l-391 -784h-165zM490 -333l165 784h399l-399 -784h-165z" />
    <glyph glyph-name="dagger" unicode="&#x2020;" 
d="M495 -372v1282h-136l-61 -398h-192l50 605h337l-13 372h272l-13 -372h337l52 -605h-193l-62 398h-136v-1282h-242z" />
    <glyph glyph-name="daggerdbl" unicode="&#x2021;" 
d="M495 182v753h-139l-69 -244h-186l52 452h339l-12 346h272l-11 -346h341l50 -452h-186l-69 244h-140v-753h140l69 244h186l-50 -452h-341l11 -346h-272l12 346h-339l-52 452h186l69 -244h139z" />
    <glyph glyph-name="bullet" unicode="&#x2022;" 
d="M616 439q-126 0 -205.5 57t-79.5 178v134q0 123 79.5 181.5t208 58.5t206.5 -58.5t78 -181.5v-134q0 -121 -80.5 -178t-206.5 -57z" />
    <glyph glyph-name="ellipsis" unicode="&#x2026;" 
d="M208 -17q-58 0 -95 38.5t-37 118.5v162q0 82 38 121t96 39t93.5 -39t35.5 -121v-162q0 -80 -36.5 -118.5t-94.5 -38.5zM616.5 -17q-57.5 0 -94 38.5t-36.5 118.5v162q0 82 37 121t95 39t93.5 -39t35.5 -121v-162q0 -80 -36.5 -118.5t-94 -38.5zM1024 -17q-58 0 -94 38.5
t-36 118.5v162q0 82 36 121t95 39t95 -39t36 -121v-162q0 -80 -37 -118.5t-95 -38.5z" />
    <glyph glyph-name="perthousand" unicode="&#x2030;" 
d="M1024 357q0 110 -57 110t-57 -110v-139q0 -106 57 -106t57 106v139zM739 357q0 110 -56.5 110t-56.5 -110v-139q0 -106 56.5 -106t56.5 106v139zM1192 341v-103q0 -141 -59 -210t-160 -69t-148 99q-51 -99 -154 -99q-213 0 -213 279v103q0 143 58.5 213t159.5 70t149 -99
q48 99 149 99q102 0 160 -70t58 -213zM1171 1098l-1052 -755l-87 128l1048 756zM408 1251q0 112 -78 112q-35 0 -58 -27t-23 -85v-119q-1 -114 79 -114t80 114v119zM329 858q-120 0 -194 69t-74 214v103q0 145 74.5 214t194.5 69t193 -69t73 -214v-103q0 -145 -73.5 -214
t-193.5 -69z" />
    <glyph glyph-name="minute" unicode="&#x2032;" 
d="M326 706l173 783h423l-410 -783h-186z" />
    <glyph glyph-name="second" unicode="&#x2033;" 
d="M-74 706l160 783h396l-391 -783h-165zM465 706l166 783h399l-399 -783h-166z" />
    <glyph glyph-name="guilsinglleft" unicode="&#x2039;" 
d="M922 123l-611 396v265l611 396v-240l-442 -288l442 -289v-240z" />
    <glyph glyph-name="guilsinglright" unicode="&#x203a;" 
d="M311 123v240l443 289l-443 288v240l611 -396v-265z" />
    <glyph glyph-name="exclamdbl" unicode="&#x203c;" 
d="M540 138q0 -157 -194 -157t-195 157v52q1 160 195 160t194 -160v-52zM1097 138q0 -157 -195 -157t-195 157v52q0 160 195 160t195 -160v-52zM240 559l-50 930h298l-50 -930h-198zM799 559l-52 930h299l-52 -930h-195z" />
    <glyph glyph-name="overline" unicode="&#x203e;" 
d="M128 1620v242h976v-242h-976z" />
    <glyph glyph-name="fraction" unicode="&#x2215;" 
d="M160 0l683 1489h231l-683 -1489h-231z" />
    <glyph glyph-name="fraction" unicode="&#x2044;" 
d="M160 0l683 1489h231l-683 -1489h-231z" />
    <glyph glyph-name="zero.sups" unicode="&#x2070;" 
d="M615 709q92 0 125 60t33 197v118q0 140 -33 201t-125 61t-123.5 -61.5t-31.5 -200.5v-118q0 -138 31.5 -197.5t123.5 -59.5zM616 555q-182 0 -277 103t-95 288v158q0 188 96 292.5t277 104.5t276.5 -104.5t95.5 -292.5v-158q0 -184 -95.5 -287.5t-277.5 -103.5z" />
    <glyph glyph-name="four.sups" unicode="&#x2074;" 
d="M1041 793h-158v-227h-215v227h-435v155l387 541h263v-541h158v-155zM668 948v346l-251 -346h251z" />
    <glyph glyph-name="five.sups" unicode="&#x2075;" 
d="M665 1173q324 0 324 -255v-103q0 -114 -88.5 -187t-286.5 -73t-286 66t-95 232l216 11q7 -93 43 -124t126 -31t122.5 30t32.5 106v38q0 71 -39.5 97.5t-139.5 26.5h-330v482h693v-154h-479v-162h187z" />
    <glyph glyph-name="six.sups" unicode="&#x2076;" 
d="M614.5 709q91.5 0 124 36.5t32.5 99.5v15q0 71 -32.5 110t-124 39t-124 -39t-32.5 -110v-15q0 -69 32.5 -102.5t124 -33.5zM694 1143q162 0 228.5 -71.5t66.5 -203.5v-25q0 -125 -90.5 -206.5t-284.5 -81.5t-282 86.5t-88 242.5v280q0 160 88 248.5t278 88.5t268.5 -62.5
t98.5 -179.5l-223 -26q-13 69 -45.5 92t-117.5 23t-109 -46.5t-24 -137.5v-99h11q63 78 225 78z" />
    <glyph glyph-name="seven.sups" unicode="&#x2077;" 
d="M244 1324v165h745v-165q-117 -222 -190 -384t-118 -374h-225q63 251 132 407.5t185 350.5h-529z" />
    <glyph glyph-name="eight.sups" unicode="&#x2078;" 
d="M615 709q96 0 127 32t31 91v23q0 58 -30 92t-127 34t-127.5 -34.5t-30.5 -91.5v-23q0 -60 30.5 -91.5t126.5 -31.5zM616 1121q67 0 101.5 21.5t34.5 75.5v31q0 56 -34.5 76.5t-101.5 20.5t-102.5 -20.5t-35.5 -76.5v-31q0 -54 35.5 -75.5t102.5 -21.5zM614 555
q-210 0 -290 69t-80 191v27q0 82 46.5 134t130.5 59v34q-65 7 -111 50t-46 112v37q0 123 90.5 178t260.5 55t260.5 -54t90.5 -179v-37q0 -69 -44.5 -112t-109.5 -50v-34q82 -7 129.5 -60t47.5 -133v-27q0 -127 -82.5 -193.5t-292.5 -66.5z" />
    <glyph glyph-name="nine.sups" unicode="&#x2079;" 
d="M989 894q-1 -339 -367 -339q-192 0 -269 62.5t-100 179.5l225 28q13 -71 45.5 -93.5t116.5 -22.5t108.5 46.5t24.5 138.5v96h-12q-63 -78 -222 -78t-227 69t-68 207v24q0 127 88.5 208t282.5 81t284 -87t90 -243v-277zM616 1048q91 0 124 39t33 108v15q0 69 -33 102.5
t-124 33.5t-123.5 -36.5t-32.5 -99.5v-15q0 -69 32.5 -108t123.5 -39z" />
    <glyph glyph-name="nsuperior" unicode="&#x207f;" 
d="M225 562v929h229v-147h47q30 76 102 125q66 39 136 39q131 0 197 -89q71 -90 71 -248v-609h-227v587q0 85 -31 128t-88 43t-95 -30q-71 -58 -112 -119v-609h-229z" />
    <glyph glyph-name="zero.sinf" unicode="&#x2080;" 
d="M460 400q0 -138 32 -198t123 -59q92 0 125 60t33 197v118q0 140 -33 201t-125 61q-91 0 -123 -61t-32 -201v-118zM616 -11q-182 0 -278 103q-94 103 -94 288v158q0 188 96 292t277 104t277 -104t95 -292v-158q0 -184 -95 -288q-96 -103 -278 -103z" />
    <glyph glyph-name="one.sinf" unicode="&#x2081;" 
d="M330 0v164h232v555h-31q-17 -76 -79 -122t-135 -50l-10 164q79 7 155 61t104 151h210v-759h213v-164h-659z" />
    <glyph glyph-name="two.sinf" unicode="&#x2082;" 
d="M614 935q365 0 363 -268v-51q0 -104 -53 -165t-142 -79l-209 -46q-61 -13 -88 -36t-27 -81v-45h531v-164h-745v207q0 221 199 266l209 46q60 13 86 39t25 84v25q0 61 -35 87q-34 26 -112 26t-110 -30t-37 -117l-216 13q7 145 91 217t270 72z" />
    <glyph glyph-name="three.sinf" unicode="&#x2083;" 
d="M989 253q0 -143 -96 -203q-95 -60 -281 -61q-365 0 -379 277l216 11q7 -73 41 -99t126 -27q91 0 124 27t33 83v28q-1 61 -35 87t-120 26h-173v162h173q74 0 104 18t30 70v26q0 56 -36 76t-110 19q-74 1 -103 -23q-28 -24 -34 -82l-216 12q9 140 97 198t254 57
q165 1 264 -51t98 -180v-24q0 -78 -44 -122t-116 -53v-34q73 -7 128 -59t55 -138v-21z" />
    <glyph glyph-name="four.sinf" unicode="&#x2084;" 
d="M1041 227h-158v-227h-215v227h-435v155l387 541h263v-541h158v-155zM668 382v346l-251 -346h251z" />
    <glyph glyph-name="five.sinf" unicode="&#x2085;" 
d="M665 607q324 0 324 -255v-103q-1 -114 -89 -187t-286 -73t-285 66q-88 66 -96 232l216 11q7 -93 43 -124t126 -31t122 30t33 106v38q0 71 -39 97t-140 27h-330v482h693v-154h-479v-162h187z" />
    <glyph glyph-name="six.sinf" unicode="&#x2086;" 
d="M614 143q91 1 124 37t33 99v15q0 71 -33 110t-124 39q-92 0 -124 -39t-32 -110v-15q0 -69 32 -103t124 -33zM694 577q162 0 228 -72t67 -203v-25q0 -125 -90 -207q-91 -82 -285 -81t-282 87t-88 242v280q0 336 366 336q190 0 268 -62t99 -179l-223 -26q-13 69 -46 92
q-34 23 -118 23t-108 -47t-24 -137v-99h11q63 78 225 78z" />
    <glyph glyph-name="seven.sinf" unicode="&#x2087;" 
d="M244 758v165h745v-165q-117 -222 -190 -384t-118 -374h-225q63 252 132 408t185 350h-529z" />
    <glyph glyph-name="eight.sinf" unicode="&#x2088;" 
d="M458 266q0 -60 30 -92t127 -31q96 0 127 32t31 91v23q0 58 -30 92t-127 34q-98 0 -128 -34t-30 -92v-23zM478 652q0 -54 36 -76t102 -21q67 0 102 21q34 21 34 76v31q0 57 -34 77t-102 20t-102 -20q-35 -20 -36 -77v-31zM989 249q-1 -127 -83 -193t-292 -67
q-210 0 -290 69t-80 191v27q0 82 46 134q47 52 131 59v34q-65 7 -111 50t-46 112v37q0 123 90 178t261 55t261 -54t90 -179v-37q0 -69 -44 -112t-110 -50v-34q82 -7 129 -60t48 -133v-27z" />
    <glyph glyph-name="nine.sinf" unicode="&#x2089;" 
d="M989 328q-1 -339 -367 -339q-192 0 -269 62t-100 180l225 28q13 -71 46 -93q32 -22 116 -22t108 46q24 47 25 138v96h-12q-62 -76 -221 -77q-160 -1 -228 68t-68 207v24q0 127 88 208t282 81t284 -87t91 -243v-277zM616 482q91 0 124 39t33 108v15q0 69 -33 103
q-33 33 -124 33t-124 -36t-32 -100v-15q0 -69 32 -108t124 -39z" />
    <glyph glyph-name="franc" unicode="&#x20a3;" 
d="M721 311h-293v-311h-270v311h-171v192h171v986h957v-214h-687v-320h568v-216h-568v-236h293v-192z" />
    <glyph glyph-name="lira" unicode="&#x20a4;" 
d="M37 532v166h239q-8 18 -14 32t-10 22t-19 29t-23 42q-8 20 -16 34t-13 29h-144v166h101q0 220 126 338t373 118t367 -112q118 -112 130 -346l-259 -19q-12 141 -61 195q-49 55 -174 55q-124 0 -177 -55t-53 -155l348 -19v-166h-306q4 -6 14 -29t24 -50q26 -53 42 -109
h226v-166h-211q-28 -139 -175 -230l28 -49q55 35 109 36q54 2 84 -10q47 -17 94.5 -38t90.5 -21q83 0 114 55.5t43 193.5l257 -18q-12 -227 -114 -348.5t-283 -121.5q-67 0 -143 30q-33 14 -3 -1l-139 68q-155 75 -234 17l-157 -112l-121 175l164 103q51 35 101 115
q44 82 48 156h-274zM649 10l5 -3q-3 2 -5 3z" />
    <glyph glyph-name="peseta" unicode="&#x20a7;" 
d="M1026 268q0 57 -26 108t-87 141q-61 91 -89 155q-27 64 -27 136t11 143h-86v-690q0 -120 43 -120l23 2q18 6 26 8l26 44q66 -57 108 -57q78 0 78 130zM279 1489q203 0 203 -299v-73h84v372h156v-372h166v-20q48 39 91 39q63 0 105.5 -17t95.5 -61l-78 -136
q-51 46 -70 51.5t-32 5.5q-49 0 -49 -130q0 -68 29 -124t85 -132t86 -144q29 -67 29 -155q0 -160 -65 -236.5t-167 -76.5q-60 0 -95 19q-42 -17 -99 -17t-122.5 35t-65.5 256v677h-84v-130q0 -300 -205 -300h-41v-521h-165v1489h208zM326 1182q0 142 -69 142h-30v-641h30
q69 0 69 142v357z" />
    <glyph glyph-name="Euro" unicode="&#x20ac;" 
d="M653 -19q-237 0 -353 128.5t-116 361.5v6h-150v163h150v205h-150v164h150v4q0 235 119 365t355 130t344 -114.5t121 -352.5l-242 -19q-9 149 -55 210.5t-174.5 61.5t-177 -70t-48.5 -209v-6h300v-164h-302v-205h302v-163h-300v-6q0 -138 48 -207t182 -69t174.5 62.5
t50.5 202.5l242 -19q-13 -235 -123 -347.5t-347 -112.5z" />
    <glyph glyph-name="careof" unicode="&#x2105;" 
d="M784 229q0 -114 92 -114t92 114v115q0 116 -92 116t-92 -116v-115zM586 242v99q0 143 78 215q78 71 211.5 71t211.5 -72t78 -214v-99q0 -144 -80 -214q-73 -69 -208 -69t-213 72t-78 211zM54 382l1022 860l110 -136l-1028 -862zM264 1132q0 -115 92.5 -115t92.5 80
l188 -15q-16 -224 -280 -224q-133 0 -212 71q-78 74 -78 216v95q0 144 78 216q78 71 212 71q264 0 280 -227l-188 -21q0 82 -66 82t-94 -28q-25 -34 -25 -89v-112z" />
    <glyph glyph-name="lsquare" unicode="&#x2113;" 
d="M287 1177q25 168 141 249q116 82 305 82t274 -87q90 -86 60 -265l-63 -398q-26 -145 -129 -222q-101 -71 -229 -71q-127 0 -194 51l-16 -103q-21 -151 50 -177.5t115 -26.5q125 0 298 80l2 -218q-189 -84 -374 -84t-290 111t-71 319zM773 1275q-41 19 -91 19t-74 -20
q-44 -37 -53 -112l-62 -374q-6 -32 2 -81.5t100 -49.5q59 0 94 24q35 31 48 101l58 359q19 115 -22 134z" />
    <glyph glyph-name="numero" unicode="&#x2116;" 
d="M745 460q-108 0 -108 -121v-80q0 -67 27 -95t81 -28q108 0 108 123v80q0 121 -108 121zM745 -22q-145 0 -233.5 68t-88.5 203v97q0 140 88.5 209t234.5 69t233.5 -69t87.5 -209v-97q0 -136 -88.5 -203.5t-233.5 -67.5zM395 739h-231v750h287l387 -497v497h231v-750h-300
l-374 480v-480z" />
    <glyph glyph-name="uni2117" unicode="&#x2117;" 
d="M737 873q0 142 -102 142h-67v-341h67q48 0 75 27t27 98v74zM637 1188q303 0 303 -315v-74q0 -145 -77 -220.5t-228 -75.5h-67v-298h-214v983h283zM616.5 -88q225.5 0 322 142.5t96.5 448.5v365q0 309 -96.5 453t-322 144t-322.5 -145t-97 -454v-363q0 -305 97 -448
t322.5 -143zM74 892q0 691 411 691t542 -176t131 -515v-414q0 -335 -132 -509t-542 -174t-410 683v414z" />
    <glyph glyph-name="trademark" unicode="&#x2122;" 
d="M549 653v836h211l91 -417l97 417h201v-836h-151l20 688l-111 -432h-118l-109 439l20 -695h-151zM162 653v688h-136v148h430v-148h-119v-688h-175z" />
    <glyph glyph-name="Ohm" unicode="&#x2126;" 
d="M1125 760q0 -305 -203 -399v-169h203v-192h-444v428q95 24 134 109t40 223v227q0 167 -57 235t-182 68q-126 0 -182 -68t-56 -235v-227q0 -138 39 -223t134 -109v-428h-443v192h203v169q-203 92 -203 399v219q0 259 129 394t379 135t378 -135q130 -135 131 -394v-219z
" />
    <glyph glyph-name="estimated" unicode="&#x212e;" 
d="M604 1381q-141 0 -224 -98v-482h460v476q-95 104 -236 104zM67 751q0 328 149.5 547t397.5 219t394 -247.5t154 -617.5h-782v-442q96 -96 229 -96q246 0 380 225l82 -108q-155 -253 -462 -253q-242 0 -392 222.5t-150 550.5z" />
    <glyph glyph-name="oneeighth" unicode="&#x215b;" 
d="M754 -232.5q32 20.5 32 64.5v23q0 46 -30 65q-31 24 -127.5 24t-127.5 -24q-30 -19 -30 -65v-23q0 -44 32 -64.5t125.5 -20.5t125.5 20.5zM492 151q0 -67 120 -67t136.5 24t16.5 43v33q-1 67 -137 67t-136 -67v-33zM277 207q0 191 350 191q268 0 310 -70.5t42 -120.5v-38
q0 -57 -44 -87q-38 -32 -112 -41v-34q89 -9 130 -52q49 -41 49 -110v-26q0 -112 -84 -166q-84 -53 -291 -53q-295 0 -332.5 83.5t-37.5 135.5v26q0 106 68 132.5t109 29.5v34q-72 8 -112 41q-45 31 -45 87v38zM694 497v136l520 37v-210zM19 460v210l543 -37v-136zM305 765
v149h233v384h-32q-14 -74 -76 -121t-136 -51l-11 164q137 14 191.5 88t67.5 124h212v-588h210v-149h-659z" />
    <glyph glyph-name="threeeighths" unicode="&#x215c;" 
d="M754 -232.5q32 20.5 32 64.5v23q0 46 -30 65q-31 24 -127.5 24t-127.5 -24q-30 -19 -30 -65v-23q0 -44 32 -64.5t125.5 -20.5t125.5 20.5zM492 151q0 -67 120 -67t136.5 24t16.5 43v33q-1 67 -137 67t-136 -67v-33zM277 207q0 191 350 191q268 0 310 -70.5t42 -120.5v-38
q0 -57 -44 -87q-38 -32 -112 -41v-34q89 -9 130 -52q49 -41 49 -110v-26q0 -112 -84 -166q-84 -53 -291 -53q-295 0 -332.5 83.5t-37.5 135.5v26q0 106 68 132.5t109 29.5v34q-72 8 -112 41q-45 31 -45 87v38zM694 497v136l520 37v-210zM19 460v210l543 -37v-136zM492.5 918
q35.5 -21 120.5 -21t115 13t37.5 26.5t7.5 31.5v28q0 39 -36 58q-46 17 -123 17h-147v145h147q79 0 108.5 13.5t29.5 55.5v26q0 34 -36 45t-109.5 11t-103.5 -15t-34 -60l-216 11q8 112 96 161q89 48 259.5 48t257.5 -37q100 -40 100 -138v-24q0 -126 -154 -149v-34
q73 -9 110 -36q67 -50 67 -113v-20q0 -58 -48 -133.5t-325 -75.5q-371 0 -383 240l216 12q8 -65 43.5 -86z" />
    <glyph glyph-name="fiveeighths" unicode="&#x215d;" 
d="M754 -232.5q32 20.5 32 64.5v23q0 46 -30 65q-31 24 -127.5 24t-127.5 -24q-30 -19 -30 -65v-23q0 -44 32 -64.5t125.5 -20.5t125.5 20.5zM492 151q0 -67 120 -67t136.5 24t16.5 43v33q-1 67 -137 67t-136 -67v-33zM277 207q0 191 350 191q268 0 310 -70.5t42 -120.5v-38
q0 -57 -44 -87q-38 -32 -112 -41v-34q89 -9 130 -52q49 -41 49 -110v-26q0 -112 -84 -166q-84 -53 -291 -53q-295 0 -332.5 83.5t-37.5 135.5v26q0 106 68 132.5t109 29.5v34q-72 8 -112 41q-45 31 -45 87v38zM694 497v136l520 37v-210zM19 460v210l543 -37v-136zM665 1244
q324 0 324 -213v-63q0 -158 -135.5 -190.5t-235.5 -32.5q-204 0 -292 54q-87 54 -93 188l216 11q8 -66 43 -84q32 -22 127 -22t118 16t29.5 31.5t6.5 41.5v36q0 43 -27 55q-49 23 -160 23h-322v407h693v-147h-479v-111h187z" />
    <glyph glyph-name="seveneighths" unicode="&#x215e;" 
d="M754 -232.5q32 20.5 32 64.5v23q0 46 -30 65q-31 24 -127.5 24t-127.5 -24q-30 -19 -30 -65v-23q0 -44 32 -64.5t125.5 -20.5t125.5 20.5zM492 151q0 -67 120 -67t136.5 24t16.5 43v33q-1 67 -137 67t-136 -67v-33zM277 207q0 191 350 191q268 0 310 -70.5t42 -120.5v-38
q0 -57 -44 -87q-38 -32 -112 -41v-34q89 -9 130 -52q49 -41 49 -110v-26q0 -112 -84 -166q-84 -53 -291 -53q-295 0 -332.5 83.5t-37.5 135.5v26q0 106 68 132.5t109 29.5v34q-72 8 -112 41q-45 31 -45 87v38zM694 497v136l520 37v-210zM19 460v210l543 -37v-136zM272 1337
v165h745v-165q-234 -269 -308 -572h-225q45 172 121 313q75 129 197 259h-530z" />
    <glyph glyph-name="arrowleft" unicode="&#x2190;" 
d="M667 1389v-512h547v-264h-547v-512h-36l-612 625v37l612 626h36z" />
    <glyph glyph-name="arrowup" unicode="&#x2191;" 
d="M480 -39v838h-454v37l574 693h33l572 -693v-37h-453v-838h-272z" />
    <glyph glyph-name="arrowright" unicode="&#x2192;" 
d="M566 101v512h-547v264h547v512h35l613 -626v-37l-613 -625h-35z" />
    <glyph glyph-name="arrowdown" unicode="&#x2193;" 
d="M11 659h469v838h272v-838h469v-37l-588 -693h-33l-589 693v37z" />
    <glyph glyph-name="arrowboth" unicode="&#x2194;" 
d="M486 613v-512h-34l-433 625v37l433 626h34v-512h261v512h33l434 -626v-37l-434 -625h-33v512h-261z" />
    <glyph glyph-name="arrowupdn" unicode="&#x2195;" 
d="M26 465h456v559h-456v37l574 654h33l573 -654v-37h-454v-559h454v-37l-573 -653h-33l-574 653v37z" />
    <glyph glyph-name="arrowupdnbse" unicode="&#x21a8;" 
d="M128 -421v235h437l-539 614v37h456v559h-456v37l574 654h33l573 -654v-37h-454v-559h454v-37l-539 -614h437v-235h-976z" />
    <glyph glyph-name="partialdiff" unicode="&#x2202;" 
d="M638 715q-108 0 -162 -47t-72 -150l-22 -116q-18 -115 21.5 -165.5t146.5 -50.5t161 54t71 162l22 116q27 151 -42 174t-124 23zM459 -19q-165 0 -274.5 109.5t-72.5 322.5l18 118q35 184 155 284q119 107 282 107q213 0 262 -136h37q22 218 -75 335q-98 123 -387 206
l186 187q341 -104 458 -296q117 -193 58 -531l-45 -263q-58 -331 -247.5 -387t-354.5 -56z" />
    <glyph glyph-name="Delta#1" unicode="&#x2206;" 
d="M901 214l-285 1065l-296 -1065h581zM76 0v214l363 1275h360l357 -1275v-214h-1080z" />
    <glyph glyph-name="product" unicode="&#x220f;" 
d="M140 -372v1861h953v-1861h-270v1647h-413v-1647h-270z" />
    <glyph glyph-name="summation" unicode="&#x2211;" 
d="M1097 -158v-214h-978v214l600 737l-600 696v214h978v-214h-708l510 -597v-179l-530 -657h728z" />
    <glyph glyph-name="minus" unicode="&#x2212;" 
d="M128 534v235h976v-235h-976z" />
    <glyph glyph-name="radical" unicode="&#x221a;" 
d="M546 0l-270 706l-220 -36v205l361 56l259 -724l298 1469h251l-367 -1676h-312z" />
    <glyph glyph-name="infinity" unicode="&#x221e;" 
d="M389 1087q-100 -1 -100 -343t99 -342q46 0 78 63t81 216q-56 251 -76 305q-21 54 -39.5 77.5t-42.5 23.5zM946 752q-8 335 -99 335q-51 0 -89 -82q-31 -60 -73 -203q50 -224 78 -307q38 -93 80 -93q103 0 103 350zM350 216q-106 0 -186 143t-80 392q0 248 89 387
q83 135 212 135q95 0 157 -85q56 -72 97 -224q53 162 91 215q70 94 153 94q111 0 188 -141q78 -141 78 -390t-88 -387.5t-219 -138.5q-90 0 -149 82q-52 67 -99 220q-68 -227 -132 -264.5t-112 -37.5z" />
    <glyph glyph-name="orthogonal" unicode="&#x221f;" 
d="M190 0v1303h270v-1080h618v-223h-888z" />
    <glyph glyph-name="intersection" unicode="&#x2229;" 
d="M160 0v830q0 235 121.5 363.5t336.5 128.5t335.5 -128.5t120.5 -363.5v-830h-272v819q0 222 -68.5 255.5t-141.5 33.5t-117.5 -69t-44.5 -222v-817h-270z" />
    <glyph glyph-name="integral" unicode="&#x222b;" 
d="M931 1331q-64 0 -93.5 -13t-49.5 -40q-36 -51 -36 -181v-1086q0 -187 -112 -291t-290 -104q-127 0 -242 45l35 192q99 -37 160 -37q62 0 120.5 26t58.5 210v1086q0 188 112 292q112 100 267 100t262 -42l-34 -192q-94 35 -158 35z" />
    <glyph glyph-name="approxequal" unicode="&#x2248;" 
d="M832 197q90 0 90 207v155h190v-168q0 -198 -74 -307q-74 -110 -202 -110q-84 0 -132 35q-79 57 -127 143q-82 149 -112 186q-30 38 -74 38q-89 0 -89 -203v-156h-190v167q0 305 107 361t180 56t135 -45q61 -45 127 -156q85 -162 117 -182.5t54 -20.5zM922 1149v154h190
v-167q0 -198 -74 -307q-74 -110 -202 -110q-84 0 -132 35q-79 57 -127 144q-81 147 -112 185t-97 38t-66 -203v-157h-190v168q0 305 107 361t180 56t135 -45q61 -45 127 -156q68 -126 97 -164.5t72 -38.5q92 0 92 207z" />
    <glyph glyph-name="notequal" unicode="&#x2260;" 
d="M1104 333h-477l-76 -333h-210l76 333h-289v227h341l84 369h-425v227h479l74 333h211l-75 -333h287v-227h-341l-83 -369h424v-227z" />
    <glyph glyph-name="equivalence" unicode="&#x2261;" 
d="M128 108v233h976v-233h-976zM128 527v234h976v-234h-976zM128 948v232h976v-232h-976z" />
    <glyph glyph-name="lessequal" unicode="&#x2264;" 
d="M179 0v203h875v-203h-875zM1054 372l-875 427v264l875 426v-223l-680 -335l680 -335v-224z" />
    <glyph glyph-name="greaterequal" unicode="&#x2265;" 
d="M1054 0h-875v203h875v-203zM179 372v224l681 335l-681 335v223l875 -426v-264z" />
    <glyph glyph-name="logicalnotreversed" unicode="&#x2310;" 
d="M69 0v769h1095v-235h-864v-534h-231z" />
    <glyph glyph-name="integralbt" unicode="&#x2321;" 
d="M356 -184q101 0 138 58t37 184v1431h270v-1472q0 -192 -112.5 -296.5t-268.5 -104.5t-262 45l34 192q106 -37 164 -37z" />
    <glyph glyph-name="uni23af" unicode="&#x23af;" 
d="M-19 613v264h1270v-264h-1270z" />
    <glyph glyph-name="lighthorzbxd" unicode="&#x2500;" 
d="M-37 652h1307v-187h-1307v187z" />
    <glyph glyph-name="heavyhorzbxd" unicode="&#x2501;" 
d="M-37 745h1307v-373h-1307v373z" />
    <glyph glyph-name="lightvertbxd" unicode="&#x2502;" 
d="M523 1955h186v-2793h-186v2793z" />
    <glyph glyph-name="heavyvertbxd" unicode="&#x2503;" 
d="M430 1955h372v-2793h-372v2793z" />
    <glyph glyph-name="lighttrpldashhorzbxd" unicode="&#x2504;" 
d="M886 652h274v-187h-274v187zM477 652h273v-187h-273v187zM67 652h274v-187h-274v187z" />
    <glyph glyph-name="heavytrpldashhorzbxd" unicode="&#x2505;" 
d="M886 745h274v-373h-274v373zM477 745h273v-373h-273v373zM67 745h274v-373h-274v373z" />
    <glyph glyph-name="lighttrpldashvertbxd" unicode="&#x2506;" 
d="M523 2147h186v-455h-186v455zM523 1465h186v-454h-186v454zM523 784h186v-454h-186v454zM523 102h186v-454h-186v454z" />
    <glyph glyph-name="heavytrpldashvertbxd" unicode="&#x2507;" 
d="M430 2147h372v-455h-372v455zM430 1465h372v-454h-372v454zM430 784h372v-454h-372v454zM430 102h372v-454h-372v454z" />
    <glyph glyph-name="lightquaddashhorzbxd" unicode="&#x2508;" 
d="M959 652h231v-187h-231v187zM652 652h231v-187h-231v187zM344 652h231v-187h-231v187zM37 652h231v-187h-231v187z" />
    <glyph glyph-name="heavyquaddashhorzbxd" unicode="&#x2509;" 
d="M959 745h231v-373h-231v373zM652 745h231v-373h-231v373zM344 745h231v-373h-231v373zM37 745h231v-373h-231v373z" />
    <glyph glyph-name="lightquaddashvertbxd" unicode="&#x250a;" 
d="M523 1519h186v-385h-186v385zM523 1007h186v-385h-186v385zM523 495h186v-385h-186v385zM523 -17h186v-385h-186v385z" />
    <glyph glyph-name="heavyquaddashvertbxd" unicode="&#x250b;" 
d="M430 1519h372v-385h-372v385zM430 1007h372v-385h-372v385zM430 495h372v-385h-372v385zM430 -17h372v-385h-372v385z" />
    <glyph glyph-name="lightdnrightbxd" unicode="&#x250c;" 
d="M523 652h747v-187h-561v-1303h-186v1490z" />
    <glyph glyph-name="dnlightrightheavybxd" unicode="&#x250d;" 
d="M523 745h747v-373h-561v-1210h-186v1583z" />
    <glyph glyph-name="dnheavyrightlightbxd" unicode="&#x250e;" 
d="M430 652h840v-187h-468v-1303h-372v1490z" />
    <glyph glyph-name="heavydnrightbxd" unicode="&#x250f;" 
d="M430 745h840v-373h-468v-1210h-372v1583z" />
    <glyph glyph-name="lightdnleftbxd" unicode="&#x2510;" 
d="M-37 652h746v-1490h-186v1303h-560v187z" />
    <glyph glyph-name="dnlightleftheavybxd" unicode="&#x2511;" 
d="M-37 745h746v-1583h-186v1210h-560v373z" />
    <glyph glyph-name="dnheavyleftlightbxd" unicode="&#x2512;" 
d="M-37 652h839v-1490h-372v1303h-467v187z" />
    <glyph glyph-name="heavydnleftbxd" unicode="&#x2513;" 
d="M-37 745h839v-1583h-372v1210h-467v373z" />
    <glyph glyph-name="lightuprightbxd" unicode="&#x2514;" 
d="M523 1955h186v-1303h561v-187h-747v1490z" />
    <glyph glyph-name="uplightrightheavybxd" unicode="&#x2515;" 
d="M523 1955h186v-1210h561v-373h-747v1583z" />
    <glyph glyph-name="upheavyrightlightbxd" unicode="&#x2516;" 
d="M430 1955h372v-1303h468v-187h-840v1490z" />
    <glyph glyph-name="heavyuprightbxd" unicode="&#x2517;" 
d="M430 1955h372v-1210h468v-373h-840v1583z" />
    <glyph glyph-name="lightupleftbxd" unicode="&#x2518;" 
d="M-37 652h560v1303h186v-1490h-746v187z" />
    <glyph glyph-name="uplightleftheavybxd" unicode="&#x2519;" 
d="M-37 745h560v1210h186v-1583h-746v373z" />
    <glyph glyph-name="upheavyleftlightbxd" unicode="&#x251a;" 
d="M-37 652h467v1303h372v-1490h-839v187z" />
    <glyph glyph-name="heavyupleftbxd" unicode="&#x251b;" 
d="M-37 745h467v1210h372v-1583h-839v373z" />
    <glyph glyph-name="lightvertrightbxd" unicode="&#x251c;" 
d="M523 1955h186v-1303h561v-187h-561v-1303h-186v2793z" />
    <glyph glyph-name="vertlightrightheavybxd" unicode="&#x251d;" 
d="M523 1955h186v-1210h561v-373h-561v-1210h-186v2793z" />
    <glyph glyph-name="upheavyrightdnlightbxd" unicode="&#x251e;" 
d="M430 1955h372v-1303h468v-187h-561v-1303h-186v1303h-93v1490z" />
    <glyph glyph-name="dnheavyrightuplightbxd" unicode="&#x251f;" 
d="M430 652h93v1303h186v-1303h561v-187h-468v-1303h-372v1490z" />
    <glyph glyph-name="vertheavyrightlightbxd" unicode="&#x2520;" 
d="M430 1955h372v-1303h468v-187h-468v-1303h-372v2793z" />
    <glyph glyph-name="dnlightrightupheavybxd" unicode="&#x2521;" 
d="M430 1955h372v-1210h468v-373h-561v-1210h-186v1210h-93v1583z" />
    <glyph glyph-name="uplightrightdnheavybxd" unicode="&#x2522;" 
d="M430 745h93v1210h186v-1210h561v-373h-468v-1210h-372v1583z" />
    <glyph glyph-name="heavyvertrightbxd" unicode="&#x2523;" 
d="M430 1955h372v-1210h468v-373h-468v-1210h-372v2793z" />
    <glyph glyph-name="lightvertleftbxd" unicode="&#x2524;" 
d="M-37 652h560v1303h186v-2793h-186v1303h-560v187z" />
    <glyph glyph-name="vertlightleftheavybxd" unicode="&#x2525;" 
d="M-37 745h560v1210h186v-2793h-186v1210h-560v373z" />
    <glyph glyph-name="upheavyleftdnlightbxd" unicode="&#x2526;" 
d="M-37 652h467v1303h372v-1490h-93v-1303h-186v1303h-560v187z" />
    <glyph glyph-name="dnheavyleftuplightbxd" unicode="&#x2527;" 
d="M-37 652h560v1303h186v-1303h93v-1490h-372v1303h-467v187z" />
    <glyph glyph-name="vertheavyleftlightbxd" unicode="&#x2528;" 
d="M-37 652h467v1303h372v-2793h-372v1303h-467v187z" />
    <glyph glyph-name="dnlightleftupheavybxd" unicode="&#x2529;" 
d="M-37 745h467v1210h372v-1583h-93v-1210h-186v1210h-560v373z" />
    <glyph glyph-name="uplightleftdnheavybxd" unicode="&#x252a;" 
d="M-37 745h560v1210h186v-1210h93v-1583h-372v1210h-467v373z" />
    <glyph glyph-name="heavyvertleftbxd" unicode="&#x252b;" 
d="M-37 745h467v1210h372v-2793h-372v1210h-467v373z" />
    <glyph glyph-name="lightdnhorzbxd" unicode="&#x252c;" 
d="M-37 652h1307v-187h-561v-1303h-186v1303h-560v187z" />
    <glyph glyph-name="leftheavyrightdnlightbxd" unicode="&#x252d;" 
d="M-37 745h746v-93h561v-187h-561v-1303h-186v1210h-560v373z" />
    <glyph glyph-name="rightheavyleftdnlightbxd" unicode="&#x252e;" 
d="M-37 652h560v93h747v-373h-561v-1210h-186v1303h-560v187z" />
    <glyph glyph-name="dnlighthorzheavybxd" unicode="&#x252f;" 
d="M-37 745h1307v-373h-561v-1210h-186v1210h-560v373z" />
    <glyph glyph-name="dnheavyhorzlightbxd" unicode="&#x2530;" 
d="M-37 652h1307v-187h-468v-1303h-372v1303h-467v187z" />
    <glyph glyph-name="rightlightleftdnheavybxd" unicode="&#x2531;" 
d="M-37 745h839v-93h468v-187h-468v-1303h-372v1210h-467v373z" />
    <glyph glyph-name="leftlightrightdnheavybxd" unicode="&#x2532;" 
d="M-37 652h467v93h840v-373h-468v-1210h-372v1303h-467v187z" />
    <glyph glyph-name="heavydnhorzbxd" unicode="&#x2533;" 
d="M-37 745h1307v-373h-468v-1210h-372v1210h-467v373z" />
    <glyph glyph-name="lightuphorzbxd" unicode="&#x2534;" 
d="M-37 652h560v1303h186v-1303h561v-187h-1307v187z" />
    <glyph glyph-name="leftheavyrightuplightbxd" unicode="&#x2535;" 
d="M-37 745h560v1210h186v-1303h561v-187h-561v-93h-746v373z" />
    <glyph glyph-name="rightheavyleftuplightbxd" unicode="&#x2536;" 
d="M-37 652h560v1303h186v-1210h561v-373h-747v93h-560v187z" />
    <glyph glyph-name="uplighthorzheavybxd" unicode="&#x2537;" 
d="M-37 745h560v1210h186v-1210h561v-373h-1307v373z" />
    <glyph glyph-name="upheavyhorzlightbxd" unicode="&#x2538;" 
d="M-37 652h467v1303h372v-1303h468v-187h-1307v187z" />
    <glyph glyph-name="rightlightleftupheavybxd" unicode="&#x2539;" 
d="M-37 745h467v1210h372v-1303h468v-187h-468v-93h-839v373z" />
    <glyph glyph-name="leftlightrightupheavybxd" unicode="&#x253a;" 
d="M-37 652h467v1303h372v-1210h468v-373h-840v93h-467v187z" />
    <glyph glyph-name="heavyuphorzbxd" unicode="&#x253b;" 
d="M-37 745h467v1210h372v-1210h468v-373h-1307v373z" />
    <glyph glyph-name="lightverthorzbxd" unicode="&#x253c;" 
d="M-37 652h560v1303h186v-1303h561v-187h-561v-1303h-186v1303h-560v187z" />
    <glyph glyph-name="leftheavyrightvertlightbxd" unicode="&#x253d;" 
d="M-37 745h560v1210h186v-1303h561v-187h-561v-1303h-186v1210h-560v373z" />
    <glyph glyph-name="rightheavyleftvertlightbxd" unicode="&#x253e;" 
d="M-37 652h560v1303h186v-1210h561v-373h-561v-1210h-186v1303h-560v187z" />
    <glyph glyph-name="vertlighthorzheavybxd" unicode="&#x253f;" 
d="M-37 745h560v1210h186v-1210h561v-373h-561v-1210h-186v1210h-560v373z" />
    <glyph glyph-name="upheavydnhorzlightbxd" unicode="&#x2540;" 
d="M-37 652h467v1303h372v-1303h468v-187h-561v-1303h-186v1303h-560v187z" />
    <glyph glyph-name="dnheavyuphorzlightbxd" unicode="&#x2541;" 
d="M-37 652h560v1303h186v-1303h561v-187h-468v-1303h-372v1303h-467v187z" />
    <glyph glyph-name="vertheavyhorzlightbxd" unicode="&#x2542;" 
d="M-37 652h467v1303h372v-1303h468v-187h-468v-1303h-372v1303h-467v187z" />
    <glyph glyph-name="leftupheavyrightdnlightbxd" unicode="&#x2543;" 
d="M-37 745h467v1210h372v-1303h468v-187h-468v-93h-93v-1210h-186v1210h-560v373z" />
    <glyph glyph-name="rightupheavyleftdnlightbxd" unicode="&#x2544;" 
d="M-37 652h467v1303h372v-1210h468v-373h-561v-1210h-186v1210h-93v93h-467v187z" />
    <glyph glyph-name="leftdnheavyrightuplightbxd" unicode="&#x2545;" 
d="M-37 745h560v1210h186v-1210h93v-93h468v-187h-468v-1303h-372v1210h-467v373z" />
    <glyph glyph-name="rightdnheavyleftuplightbxd" unicode="&#x2546;" 
d="M-37 652h467v93h93v1210h186v-1210h561v-373h-468v-1210h-372v1303h-467v187z" />
    <glyph glyph-name="dnlightuphorzheavybxd" unicode="&#x2547;" 
d="M-37 745h467v1210h372v-1210h468v-373h-561v-1210h-186v1210h-560v373z" />
    <glyph glyph-name="uplightdnhorzheavybxd" unicode="&#x2548;" 
d="M-37 745h560v1210h186v-1210h561v-373h-468v-1210h-372v1210h-467v373z" />
    <glyph glyph-name="rightlightleftvertheavybxd" unicode="&#x2549;" 
d="M-37 745h467v1210h372v-1303h468v-187h-468v-1303h-372v1210h-467v373z" />
    <glyph glyph-name="leftlightrightvertheavybxd" unicode="&#x254a;" 
d="M-37 652h467v1303h372v-1210h468v-373h-468v-1210h-372v1303h-467v187z" />
    <glyph glyph-name="heavyverthorzbxd" unicode="&#x254b;" 
d="M-37 745h467v1210h372v-1210h468v-373h-468v-1210h-372v1210h-467v373z" />
    <glyph glyph-name="lightdbldashhorzbxd" unicode="&#x254c;" 
d="M769 652h309v-187h-309v187zM153 652h309v-187h-309v187z" />
    <glyph glyph-name="heavydbldashhorzbxd" unicode="&#x254d;" 
d="M769 745h309v-373h-309v373zM153 745h309v-373h-309v373z" />
    <glyph glyph-name="lightdbldashvertbxd" unicode="&#x254e;" 
d="M523 1326h186v-512h-186v512zM523 302h186v-512h-186v512z" />
    <glyph glyph-name="heavydbldashvertbxd" unicode="&#x254f;" 
d="M430 1326h372v-512h-372v512zM430 302h372v-512h-372v512z" />
    <glyph glyph-name="dblhorzbxd" unicode="&#x2550;" 
d="M-37 465h1307v-186h-1307v186zM-37 838h1307v-186h-1307v186z" />
    <glyph glyph-name="dblvertbxd" unicode="&#x2551;" 
d="M709 1955h187v-2793h-187v2793zM337 1955h186v-2793h-186v2793z" />
    <glyph glyph-name="dnsngrightdblbxd" unicode="&#x2552;" 
d="M523 838h747v-186h-561v-187h561v-186h-561v-1117h-186v1676z" />
    <glyph glyph-name="dndblrightsngbxd" unicode="&#x2553;" 
d="M337 652h933v-187h-374v-1303h-187v1303h-186v-1303h-186v1490z" />
    <glyph glyph-name="dbldnrightbxd" unicode="&#x2554;" 
d="M709 465h561v-186h-374v-1117h-187v1303zM337 838h933v-186h-747v-1490h-186v1676z" />
    <glyph glyph-name="dnsngleftdblbxd" unicode="&#x2555;" 
d="M-37 838h746v-1676h-186v1117h-560v186h560v187h-560v186z" />
    <glyph glyph-name="dndblleftsngbxd" unicode="&#x2556;" 
d="M-37 652h933v-1490h-187v1303h-186v-1303h-186v1303h-374v187z" />
    <glyph glyph-name="dbldnleftbxd" unicode="&#x2557;" 
d="M-37 465h560v-1303h-186v1117h-374v186zM-37 838h933v-1676h-187v1490h-746v186z" />
    <glyph glyph-name="upsngrightdblbxd" unicode="&#x2558;" 
d="M523 1955h186v-1117h561v-186h-561v-187h561v-186h-747v1676z" />
    <glyph glyph-name="updblrightsngbxd" unicode="&#x2559;" 
d="M337 1955h186v-1303h186v1303h187v-1303h374v-187h-933v1490z" />
    <glyph glyph-name="dbluprightbxd" unicode="&#x255a;" 
d="M709 1955h187v-1117h374v-186h-561v1303zM337 1955h186v-1490h747v-186h-933v1676z" />
    <glyph glyph-name="upsngleftdblbxd" unicode="&#x255b;" 
d="M-37 838h560v1117h186v-1676h-746v186h560v187h-560v186z" />
    <glyph glyph-name="updblleftsngbxd" unicode="&#x255c;" 
d="M-37 652h374v1303h186v-1303h186v1303h187v-1490h-933v187z" />
    <glyph glyph-name="dblupleftbxd" unicode="&#x255d;" 
d="M-37 838h374v1117h186v-1303h-560v186zM-37 465h746v1490h187v-1676h-933v186z" />
    <glyph glyph-name="vertsngrightdblbxd" unicode="&#x255e;" 
d="M523 1955h186v-1117h561v-186h-561v-187h561v-186h-561v-1117h-186v2793z" />
    <glyph glyph-name="vertdblrightsngbxd" unicode="&#x255f;" 
d="M337 1955h186v-2793h-186v2793zM709 1955h187v-1303h374v-187h-374v-1303h-187v2793z" />
    <glyph glyph-name="dblvertrightbxd" unicode="&#x2560;" 
d="M709 465h561v-186h-374v-1117h-187v1303zM709 1955h187v-1117h374v-186h-561v1303zM337 1955h186v-2793h-186v2793z" />
    <glyph glyph-name="vertsngleftdblbxd" unicode="&#x2561;" 
d="M-37 838h560v1117h186v-2793h-186v1117h-560v186h560v187h-560v186z" />
    <glyph glyph-name="vertdblleftsngbxd" unicode="&#x2562;" 
d="M709 1955h187v-2793h-187v2793zM-37 652h374v1303h186v-2793h-186v1303h-374v187z" />
    <glyph glyph-name="dblvertleftbxd" unicode="&#x2563;" 
d="M-37 838h374v1117h186v-1303h-560v186zM-37 465h560v-1303h-186v1117h-374v186zM709 1955h187v-2793h-187v2793z" />
    <glyph glyph-name="dnsnghorzdblbxd" unicode="&#x2564;" 
d="M-37 838h1307v-186h-1307v186zM-37 465h1307v-186h-561v-1117h-186v1117h-560v186z" />
    <glyph glyph-name="dndblhorzsngbxd" unicode="&#x2565;" 
d="M-37 652h1307v-187h-374v-1303h-187v1303h-186v-1303h-186v1303h-374v187z" />
    <glyph glyph-name="dbldnhorzbxd" unicode="&#x2566;" 
d="M-37 838h1307v-186h-1307v186zM709 465h561v-186h-374v-1117h-187v1303zM-37 465h560v-1303h-186v1117h-374v186z" />
    <glyph glyph-name="upsnghorzdblbxd" unicode="&#x2567;" 
d="M-37 465h1307v-186h-1307v186zM-37 838h560v1117h186v-1117h561v-186h-1307v186z" />
    <glyph glyph-name="updblhorzsngbxd" unicode="&#x2568;" 
d="M-37 652h374v1303h186v-1303h186v1303h187v-1303h374v-187h-1307v187z" />
    <glyph glyph-name="dbluphorzbxd" unicode="&#x2569;" 
d="M-37 465h1307v-186h-1307v186zM709 1955h187v-1117h374v-186h-561v1303zM-37 838h374v1117h186v-1303h-560v186z" />
    <glyph glyph-name="vertsnghorzdblbxd" unicode="&#x256a;" 
d="M-37 838h560v1117h186v-1117h561v-186h-561v-187h561v-186h-561v-1117h-186v1117h-560v186h560v187h-560v186z" />
    <glyph glyph-name="vertdblhorzsngbxd" unicode="&#x256b;" 
d="M-37 652h374v1303h186v-1303h186v1303h187v-1303h374v-187h-374v-1303h-187v1303h-186v-1303h-186v1303h-374v187z" />
    <glyph glyph-name="dblverthorzbxd" unicode="&#x256c;" 
d="M709 465h561v-186h-374v-1117h-187v1303zM709 1955h187v-1117h374v-186h-561v1303zM-37 465h560v-1303h-186v1117h-374v186zM-37 838h374v1117h186v-1303h-560v186z" />
    <glyph glyph-name="lightarcdnrightbxd" unicode="&#x256d;" 
d="M523 -58q0 148 56 276t152 225t225 153t277 56h37v-187h-37q-215 0 -370 -153q-154 -154 -154 -370v-780h-186v780z" />
    <glyph glyph-name="lightarcdnleftbxd" unicode="&#x256e;" 
d="M709 -838h-186v780q0 215 -153 369t-370 154h-37v187h37q148 0 276 -56t225 -153q208 -208 208 -501v-780z" />
    <glyph glyph-name="lightarcupleftbxd" unicode="&#x256f;" 
d="M709 1175q0 -147 -56 -277q-57 -130 -153 -225q-96 -96 -224 -152t-276 -56h-37v187h37q215 0 370 153q153 153 153 370v780h186v-780z" />
    <glyph glyph-name="lightarcuprightbxd" unicode="&#x2570;" 
d="M523 1955h186v-780q-1 -215 153 -369t371 -154h37v-187h-37q-147 0 -277 56t-225 152q-96 96 -152 225t-56 277v780z" />
    <glyph glyph-name="lightdiaguprightdnleftbxd" unicode="&#x2571;" 
d="M1233 1583v-181l-1125 -1867h-108v180l1125 1868h108z" />
    <glyph glyph-name="lightdiagupleftdnrightbxd" unicode="&#x2572;" 
d="M1233 -465h-108l-1125 1867v181h108l1125 -1868v-180z" />
    <glyph glyph-name="lightdiagcrossbxd" unicode="&#x2573;" 
d="M0 1583h108l508 -846l509 846h108v-181l-509 -843l509 -844v-180h-108l-509 843l-508 -843h-108v180l508 844l-508 843v181z" />
    <glyph glyph-name="lightleftbxd" unicode="&#x2574;" 
d="M-37 652h746v-187h-746v187z" />
    <glyph glyph-name="lightupbxd" unicode="&#x2575;" 
d="M523 1955h186v-1490h-186v1490z" />
    <glyph glyph-name="lightrightbxd" unicode="&#x2576;" 
d="M523 652h747v-187h-747v187z" />
    <glyph glyph-name="lightdnbxd" unicode="&#x2577;" 
d="M523 652h186v-1490h-186v1490z" />
    <glyph glyph-name="heavyleftbxd" unicode="&#x2578;" 
d="M-37 745h746v-373h-746v373z" />
    <glyph glyph-name="heavyupbxd" unicode="&#x2579;" 
d="M430 1955h372v-1490h-372v1490z" />
    <glyph glyph-name="heavyrightbxd" unicode="&#x257a;" 
d="M523 745h747v-373h-747v373z" />
    <glyph glyph-name="heavydnbxd" unicode="&#x257b;" 
d="M430 652h372v-1490h-372v1490z" />
    <glyph glyph-name="lightleftheavyrightbxd" unicode="&#x257c;" 
d="M-37 652h560v93h747v-373h-747v93h-560v187z" />
    <glyph glyph-name="lightupheavydnbxd" unicode="&#x257d;" 
d="M430 652h93v1303h186v-1303h93v-1490h-372v1490z" />
    <glyph glyph-name="heavyleftlightrightbxd" unicode="&#x257e;" 
d="M-37 745h746v-93h561v-187h-561v-93h-746v373z" />
    <glyph glyph-name="heavyuplightdnbxd" unicode="&#x257f;" 
d="M430 1955h372v-1490h-93v-1303h-186v1303h-93v1490z" />
    <glyph glyph-name="uphalfblock" unicode="&#x2580;" 
d="M0 1583h1233v-1024h-1233v1024z" />
    <glyph glyph-name="dneighthblock" unicode="&#x2581;" 
d="M0 -210h1233v-255h-1233v255z" />
    <glyph glyph-name="dnquarterblock" unicode="&#x2582;" 
d="M0 47h1233v-512h-1233v512z" />
    <glyph glyph-name="dnthreeeighthsblock" unicode="&#x2583;" 
d="M0 302h1233v-767h-1233v767z" />
    <glyph glyph-name="dnhalfblock" unicode="&#x2584;" 
d="M0 559h1233v-1024h-1233v1024z" />
    <glyph glyph-name="dnfiveeighthsblock" unicode="&#x2585;" 
d="M0 814h1233v-1279h-1233v1279z" />
    <glyph glyph-name="dnthreequartersblock" unicode="&#x2586;" 
d="M0 1071h1233v-1536h-1233v1536z" />
    <glyph glyph-name="dnseveneighthsblock" unicode="&#x2587;" 
d="M0 1326h1233v-1791h-1233v1791z" />
    <glyph glyph-name="fullblock" unicode="&#x2588;" 
d="M0 1583h1233v-2048h-1233v2048z" />
    <glyph glyph-name="leftseveneighthsblock" unicode="&#x2589;" 
d="M0 1583h1078v-2048h-1078v2048z" />
    <glyph glyph-name="leftthreequartersblock" unicode="&#x258a;" 
d="M0 1583h923v-2048h-923v2048z" />
    <glyph glyph-name="leftfiveeighthsblock" unicode="&#x258b;" 
d="M0 1583h769v-2048h-769v2048z" />
    <glyph glyph-name="lefthalfblock" unicode="&#x258c;" 
d="M0 1583h616v-2048h-616v2048z" />
    <glyph glyph-name="leftthreeeighthsblock" unicode="&#x258d;" 
d="M0 1583h462v-2048h-462v2048z" />
    <glyph glyph-name="leftquarterblock" unicode="&#x258e;" 
d="M0 1583h307v-2048h-307v2048z" />
    <glyph glyph-name="lefteighthblock" unicode="&#x258f;" 
d="M0 1583h153v-2048h-153v2048z" />
    <glyph glyph-name="righthalfblock" unicode="&#x2590;" 
d="M616 1583h617v-2048h-617v2048z" />
    <glyph glyph-name="lightshade" unicode="&#x2591;" 
d="M1210 1545h37v-56h-37v56zM1117 1452h37v-56h-37v56zM1210 1359h37v-56h-37v56zM1117 1266h37v-56h-37v56zM1210 1173h37v-56h-37v56zM1117 1080h37v-56h-37v56zM1210 987h37v-56h-37v56zM1117 894h37v-56h-37v56zM1210 801h37v-56h-37v56zM1117 707h37v-55h-37v55z
M1210 614h37v-55h-37v55zM1117 521h37v-56h-37v56zM1210 428h37v-56h-37v56zM1117 335h37v-56h-37v56zM1210 242h37v-56h-37v56zM1117 149h37v-56h-37v56zM1210 56h37v-56h-37v56zM1117 -37h37v-56h-37v56zM1210 -130h37v-56h-37v56zM1117 -223h37v-56h-37v56zM1210 -317h37
v-55h-37v55zM1117 -410h37v-55h-37v55zM1024 1545h37v-56h-37v56zM931 1452h37v-56h-37v56zM1024 1359h37v-56h-37v56zM931 1266h37v-56h-37v56zM1024 1173h37v-56h-37v56zM931 1080h37v-56h-37v56zM1024 987h37v-56h-37v56zM931 894h37v-56h-37v56zM1024 801h37v-56h-37v56
zM931 707h37v-55h-37v55zM1024 614h37v-55h-37v55zM931 521h37v-56h-37v56zM1024 428h37v-56h-37v56zM931 335h37v-56h-37v56zM1024 242h37v-56h-37v56zM931 149h37v-56h-37v56zM1024 56h37v-56h-37v56zM931 -37h37v-56h-37v56zM1024 -130h37v-56h-37v56zM931 -223h37v-56
h-37v56zM1024 -317h37v-55h-37v55zM931 -410h37v-55h-37v55zM838 1545h37v-56h-37v56zM745 1452h37v-56h-37v56zM838 1359h37v-56h-37v56zM745 1266h37v-56h-37v56zM838 1173h37v-56h-37v56zM745 1080h37v-56h-37v56zM838 987h37v-56h-37v56zM745 894h37v-56h-37v56z
M838 801h37v-56h-37v56zM745 707h37v-55h-37v55zM838 614h37v-55h-37v55zM745 521h37v-56h-37v56zM838 428h37v-56h-37v56zM745 335h37v-56h-37v56zM838 242h37v-56h-37v56zM745 149h37v-56h-37v56zM838 56h37v-56h-37v56zM745 -37h37v-56h-37v56zM838 -130h37v-56h-37v56z
M745 -223h37v-56h-37v56zM838 -317h37v-55h-37v55zM745 -410h37v-55h-37v55zM652 1545h37v-56h-37v56zM559 1452h37v-56h-37v56zM652 1359h37v-56h-37v56zM559 1266h37v-56h-37v56zM652 1173h37v-56h-37v56zM559 1080h37v-56h-37v56zM652 987h37v-56h-37v56zM559 894h37v-56
h-37v56zM652 801h37v-56h-37v56zM559 707h37v-55h-37v55zM652 614h37v-55h-37v55zM559 521h37v-56h-37v56zM652 428h37v-56h-37v56zM559 335h37v-56h-37v56zM652 242h37v-56h-37v56zM559 149h37v-56h-37v56zM652 56h37v-56h-37v56zM559 -37h37v-56h-37v56zM652 -130h37v-56
h-37v56zM559 -223h37v-56h-37v56zM652 -317h37v-55h-37v55zM559 -410h37v-55h-37v55zM465 1545h38v-56h-38v56zM372 1452h38v-56h-38v56zM465 1359h38v-56h-38v56zM372 1266h38v-56h-38v56zM465 1173h38v-56h-38v56zM372 1080h38v-56h-38v56zM465 987h38v-56h-38v56z
M372 894h38v-56h-38v56zM465 801h38v-56h-38v56zM372 707h38v-55h-38v55zM465 614h38v-55h-38v55zM372 521h38v-56h-38v56zM465 428h38v-56h-38v56zM372 335h38v-56h-38v56zM465 242h38v-56h-38v56zM372 149h38v-56h-38v56zM465 56h38v-56h-38v56zM372 -37h38v-56h-38v56z
M465 -130h38v-56h-38v56zM372 -223h38v-56h-38v56zM465 -317h38v-55h-38v55zM372 -410h38v-55h-38v55zM279 1545h38v-56h-38v56zM186 1452h37v-56h-37v56zM279 1359h38v-56h-38v56zM186 1266h37v-56h-37v56zM279 1173h38v-56h-38v56zM186 1080h37v-56h-37v56zM279 987h38
v-56h-38v56zM186 894h37v-56h-37v56zM279 801h38v-56h-38v56zM186 707h37v-55h-37v55zM279 614h38v-55h-38v55zM186 521h37v-56h-37v56zM279 428h38v-56h-38v56zM186 335h37v-56h-37v56zM279 242h38v-56h-38v56zM186 149h37v-56h-37v56zM279 56h38v-56h-38v56zM186 -37h37
v-56h-37v56zM279 -130h38v-56h-38v56zM186 -223h37v-56h-37v56zM279 -317h38v-55h-38v55zM186 -410h37v-55h-37v55zM93 1545h37v-56h-37v56zM0 1452h37v-56h-37v56zM93 1359h37v-56h-37v56zM0 1266h37v-56h-37v56zM93 1173h37v-56h-37v56zM0 1080h37v-56h-37v56zM93 987h37
v-56h-37v56zM0 894h37v-56h-37v56zM93 801h37v-56h-37v56zM0 707h37v-55h-37v55zM93 614h37v-55h-37v55zM0 521h37v-56h-37v56zM93 428h37v-56h-37v56zM0 335h37v-56h-37v56zM93 242h37v-56h-37v56zM0 149h37v-56h-37v56zM93 56h37v-56h-37v56zM0 -37h37v-56h-37v56z
M93 -130h37v-56h-37v56zM0 -223h37v-56h-37v56zM93 -317h37v-55h-37v55zM0 -410h37v-55h-37v55z" />
    <glyph glyph-name="mediumshade" unicode="&#x2592;" 
d="M1210 1583h75v-94h-75v94zM1117 1489h75v-93h-75v93zM1210 1396h75v-93h-75v93zM1117 1303h75v-93h-75v93zM1210 1210h75v-93h-75v93zM1117 1117h75v-93h-75v93zM1210 1024h75v-93h-75v93zM1117 931h75v-93h-75v93zM1210 838h75v-93h-75v93zM1117 745h75v-93h-75v93z
M1210 652h75v-93h-75v93zM1117 559h75v-94h-75v94zM1210 465h75v-93h-75v93zM1117 372h75v-93h-75v93zM1210 279h75v-93h-75v93zM1117 186h75v-93h-75v93zM1210 93h75v-93h-75v93zM1117 0h75v-93h-75v93zM1210 -93h75v-93h-75v93zM1117 -186h75v-93h-75v93zM1210 -279h75
v-93h-75v93zM1117 -372h75v-93h-75v93zM1024 1583h74v-94h-74v94zM931 1489h74v-93h-74v93zM1024 1396h74v-93h-74v93zM931 1303h74v-93h-74v93zM1024 1210h74v-93h-74v93zM931 1117h74v-93h-74v93zM1024 1024h74v-93h-74v93zM931 931h74v-93h-74v93zM1024 838h74v-93h-74
v93zM931 745h74v-93h-74v93zM1024 652h74v-93h-74v93zM931 559h74v-94h-74v94zM1024 465h74v-93h-74v93zM931 372h74v-93h-74v93zM1024 279h74v-93h-74v93zM931 186h74v-93h-74v93zM1024 93h74v-93h-74v93zM931 0h74v-93h-74v93zM1024 -93h74v-93h-74v93zM931 -186h74v-93
h-74v93zM1024 -279h74v-93h-74v93zM931 -372h74v-93h-74v93zM838 1583h74v-94h-74v94zM745 1489h74v-93h-74v93zM838 1396h74v-93h-74v93zM745 1303h74v-93h-74v93zM838 1210h74v-93h-74v93zM745 1117h74v-93h-74v93zM838 1024h74v-93h-74v93zM745 931h74v-93h-74v93z
M838 838h74v-93h-74v93zM745 745h74v-93h-74v93zM838 652h74v-93h-74v93zM745 559h74v-94h-74v94zM838 465h74v-93h-74v93zM745 372h74v-93h-74v93zM838 279h74v-93h-74v93zM745 186h74v-93h-74v93zM838 93h74v-93h-74v93zM745 0h74v-93h-74v93zM838 -93h74v-93h-74v93z
M745 -186h74v-93h-74v93zM838 -279h74v-93h-74v93zM745 -372h74v-93h-74v93zM652 1583h74v-94h-74v94zM559 1489h74v-93h-74v93zM652 1396h74v-93h-74v93zM559 1303h74v-93h-74v93zM652 1210h74v-93h-74v93zM559 1117h74v-93h-74v93zM652 1024h74v-93h-74v93zM559 931h74
v-93h-74v93zM652 838h74v-93h-74v93zM559 745h74v-93h-74v93zM652 652h74v-93h-74v93zM559 559h74v-94h-74v94zM652 465h74v-93h-74v93zM559 372h74v-93h-74v93zM652 279h74v-93h-74v93zM559 186h74v-93h-74v93zM652 93h74v-93h-74v93zM559 0h74v-93h-74v93zM652 -93h74v-93
h-74v93zM559 -186h74v-93h-74v93zM652 -279h74v-93h-74v93zM559 -372h74v-93h-74v93zM465 1583h75v-94h-75v94zM372 1489h75v-93h-75v93zM465 1396h75v-93h-75v93zM372 1303h75v-93h-75v93zM465 1210h75v-93h-75v93zM372 1117h75v-93h-75v93zM465 1024h75v-93h-75v93z
M372 931h75v-93h-75v93zM465 838h75v-93h-75v93zM372 745h75v-93h-75v93zM465 652h75v-93h-75v93zM372 559h75v-94h-75v94zM465 465h75v-93h-75v93zM372 372h75v-93h-75v93zM465 279h75v-93h-75v93zM372 186h75v-93h-75v93zM465 93h75v-93h-75v93zM372 0h75v-93h-75v93z
M465 -93h75v-93h-75v93zM372 -186h75v-93h-75v93zM465 -279h75v-93h-75v93zM372 -372h75v-93h-75v93zM279 1583h75v-94h-75v94zM186 1489h75v-93h-75v93zM279 1396h75v-93h-75v93zM186 1303h75v-93h-75v93zM279 1210h75v-93h-75v93zM186 1117h75v-93h-75v93zM279 1024h75
v-93h-75v93zM186 931h75v-93h-75v93zM279 838h75v-93h-75v93zM186 745h75v-93h-75v93zM279 652h75v-93h-75v93zM186 559h75v-94h-75v94zM279 465h75v-93h-75v93zM186 372h75v-93h-75v93zM279 279h75v-93h-75v93zM186 186h75v-93h-75v93zM279 93h75v-93h-75v93zM186 0h75v-93
h-75v93zM279 -93h75v-93h-75v93zM186 -186h75v-93h-75v93zM279 -279h75v-93h-75v93zM186 -372h75v-93h-75v93zM93 1583h75v-94h-75v94zM0 1489h74v-93h-74v93zM93 1396h75v-93h-75v93zM0 1303h74v-93h-74v93zM93 1210h75v-93h-75v93zM0 1117h74v-93h-74v93zM93 1024h75v-93
h-75v93zM0 931h74v-93h-74v93zM93 838h75v-93h-75v93zM0 745h74v-93h-74v93zM93 652h75v-93h-75v93zM0 559h74v-94h-74v94zM93 465h75v-93h-75v93zM0 372h74v-93h-74v93zM93 279h75v-93h-75v93zM0 186h74v-93h-74v93zM93 93h75v-93h-75v93zM0 0h74v-93h-74v93zM93 -93h75
v-93h-75v93zM0 -186h74v-93h-74v93zM93 -279h75v-93h-75v93zM0 -372h74v-93h-74v93z" />
    <glyph glyph-name="darkshade" unicode="&#x2593;" 
d="M1210 1610h84v-121h-84v121zM1117 1517h84v-121h-84v121zM1210 1424h84v-121h-84v121zM1117 1331h84v-121h-84v121zM1210 1238h84v-121h-84v121zM1117 1145h84v-121h-84v121zM1210 1052h84v-121h-84v121zM1117 959h84v-121h-84v121zM1210 866h84v-121h-84v121zM1117 773
h84v-121h-84v121zM1210 680h84v-121h-84v121zM1117 586h84v-121h-84v121zM1210 493h84v-121h-84v121zM1117 400h84v-121h-84v121zM1210 307h84v-121h-84v121zM1117 214h84v-121h-84v121zM1210 121h84v-121h-84v121zM1117 28h84v-121h-84v121zM1210 -65h84v-121h-84v121z
M1117 -158h84v-121h-84v121zM1210 -251h84v-121h-84v121zM1117 -344h84v-121h-84v121zM1024 1610h84v-121h-84v121zM931 1517h84v-121h-84v121zM1024 1424h84v-121h-84v121zM931 1331h84v-121h-84v121zM1024 1238h84v-121h-84v121zM931 1145h84v-121h-84v121zM1024 1052h84
v-121h-84v121zM931 959h84v-121h-84v121zM1024 866h84v-121h-84v121zM931 773h84v-121h-84v121zM1024 680h84v-121h-84v121zM931 586h84v-121h-84v121zM1024 493h84v-121h-84v121zM931 400h84v-121h-84v121zM1024 307h84v-121h-84v121zM931 214h84v-121h-84v121zM1024 121
h84v-121h-84v121zM931 28h84v-121h-84v121zM1024 -65h84v-121h-84v121zM931 -158h84v-121h-84v121zM1024 -251h84v-121h-84v121zM931 -344h84v-121h-84v121zM838 1610h84v-121h-84v121zM745 1517h84v-121h-84v121zM838 1424h84v-121h-84v121zM745 1331h84v-121h-84v121z
M838 1238h84v-121h-84v121zM745 1145h84v-121h-84v121zM838 1052h84v-121h-84v121zM745 959h84v-121h-84v121zM838 866h84v-121h-84v121zM745 773h84v-121h-84v121zM838 680h84v-121h-84v121zM745 586h84v-121h-84v121zM838 493h84v-121h-84v121zM745 400h84v-121h-84v121z
M838 307h84v-121h-84v121zM745 214h84v-121h-84v121zM838 121h84v-121h-84v121zM745 28h84v-121h-84v121zM838 -65h84v-121h-84v121zM745 -158h84v-121h-84v121zM838 -251h84v-121h-84v121zM745 -344h84v-121h-84v121zM652 1610h83v-121h-83v121zM559 1517h83v-121h-83v121z
M652 1424h83v-121h-83v121zM559 1331h83v-121h-83v121zM652 1238h83v-121h-83v121zM559 1145h83v-121h-83v121zM652 1052h83v-121h-83v121zM559 959h83v-121h-83v121zM652 866h83v-121h-83v121zM559 773h83v-121h-83v121zM652 680h83v-121h-83v121zM559 586h83v-121h-83v121
zM652 493h83v-121h-83v121zM559 400h83v-121h-83v121zM652 307h83v-121h-83v121zM559 214h83v-121h-83v121zM652 121h83v-121h-83v121zM559 28h83v-121h-83v121zM652 -65h83v-121h-83v121zM559 -158h83v-121h-83v121zM652 -251h83v-121h-83v121zM559 -344h83v-121h-83v121z
M465 1610h84v-121h-84v121zM372 1517h84v-121h-84v121zM465 1424h84v-121h-84v121zM372 1331h84v-121h-84v121zM465 1238h84v-121h-84v121zM372 1145h84v-121h-84v121zM465 1052h84v-121h-84v121zM372 959h84v-121h-84v121zM465 866h84v-121h-84v121zM372 773h84v-121h-84
v121zM465 680h84v-121h-84v121zM372 586h84v-121h-84v121zM465 493h84v-121h-84v121zM372 400h84v-121h-84v121zM465 307h84v-121h-84v121zM372 214h84v-121h-84v121zM465 121h84v-121h-84v121zM372 28h84v-121h-84v121zM465 -65h84v-121h-84v121zM372 -158h84v-121h-84v121
zM465 -251h84v-121h-84v121zM372 -344h84v-121h-84v121zM279 1610h84v-121h-84v121zM186 1517h84v-121h-84v121zM279 1424h84v-121h-84v121zM186 1331h84v-121h-84v121zM279 1238h84v-121h-84v121zM186 1145h84v-121h-84v121zM279 1052h84v-121h-84v121zM186 959h84v-121
h-84v121zM279 866h84v-121h-84v121zM186 773h84v-121h-84v121zM279 680h84v-121h-84v121zM186 586h84v-121h-84v121zM279 493h84v-121h-84v121zM186 400h84v-121h-84v121zM279 307h84v-121h-84v121zM186 214h84v-121h-84v121zM279 121h84v-121h-84v121zM186 28h84v-121h-84
v121zM279 -65h84v-121h-84v121zM186 -158h84v-121h-84v121zM279 -251h84v-121h-84v121zM186 -344h84v-121h-84v121zM93 1610h84v-121h-84v121zM0 1517h84v-121h-84v121zM93 1424h84v-121h-84v121zM0 1331h84v-121h-84v121zM93 1238h84v-121h-84v121zM0 1145h84v-121h-84v121
zM93 1052h84v-121h-84v121zM0 959h84v-121h-84v121zM93 866h84v-121h-84v121zM0 773h84v-121h-84v121zM93 680h84v-121h-84v121zM0 586h84v-121h-84v121zM93 493h84v-121h-84v121zM0 400h84v-121h-84v121zM93 307h84v-121h-84v121zM0 214h84v-121h-84v121zM93 121h84v-121
h-84v121zM0 28h84v-121h-84v121zM93 -65h84v-121h-84v121zM0 -158h84v-121h-84v121zM93 -251h84v-121h-84v121zM0 -344h84v-121h-84v121z" />
    <glyph glyph-name="upeighthblock" unicode="&#x2594;" 
d="M0 1583h1233v-257h-1233v257z" />
    <glyph glyph-name="righteighthblock" unicode="&#x2595;" 
d="M1078 1583h155v-2048h-155v2048z" />
    <glyph glyph-name="dnleftquadrant" unicode="&#x2596;" 
d="M0 559h616v-1024h-616v1024z" />
    <glyph glyph-name="dnrightquadrant" unicode="&#x2597;" 
d="M616 559h617v-1024h-617v1024z" />
    <glyph glyph-name="upleftquadrant" unicode="&#x2598;" 
d="M0 1583h616v-1024h-616v1024z" />
    <glyph glyph-name="upleftdnleftdnrightquadrant" unicode="&#x2599;" 
d="M0 1583h616v-1024h617v-1024h-1233v2048z" />
    <glyph glyph-name="upleftdnrightquadrant" unicode="&#x259a;" 
d="M0 1583h616v-1024h-616v1024zM616 559h617v-1024h-617v1024z" />
    <glyph glyph-name="upleftuprightdnleftquadrant" unicode="&#x259b;" 
d="M0 1583h1233v-1024h-617v-1024h-616v2048z" />
    <glyph glyph-name="upleftuprightdnrightquadrant" unicode="&#x259c;" 
d="M0 1583h1233v-2048h-617v1024h-616v1024z" />
    <glyph glyph-name="uprightquadrant" unicode="&#x259d;" 
d="M616 1583h617v-1024h-617v1024z" />
    <glyph glyph-name="uprightdnleftquadrant" unicode="&#x259e;" 
d="M616 1583h617v-1024h-617v1024zM616 559v-1024h-616v1024h616z" />
    <glyph glyph-name="uprightdnleftdnrightquadrant" unicode="&#x259f;" 
d="M0 559h616v1024h617v-2048h-1233v1024z" />
    <glyph glyph-name="blacksquare" unicode="&#x25a0;" 
d="M104 1303h1024v-1117h-1024v1117z" />
    <glyph glyph-name="H22073" unicode="&#x25a1;" 
d="M285 350h663v789h-663v-789zM104 186v1117h1024v-1117h-1024z" />
    <glyph glyph-name="blacksmallsquare" unicode="&#x25aa;" 
d="M367 1017h499v-544h-499v544z" />
    <glyph glyph-name="whitesmallsquare" unicode="&#x25ab;" 
d="M786 946h-339v-402h339v402zM935 398h-637v693h637v-693z" />
    <glyph glyph-name="triagup" unicode="&#x25b2;" 
d="M1056 372h-879v38l423 893h33l423 -893v-38z" />
    <glyph glyph-name="blackrightpointingpointer" unicode="&#x25ba;" 
d="M190 385v905h33l820 -434v-37l-820 -434h-33z" />
    <glyph glyph-name="blackdownpointingtriangle" unicode="&#x25bc;" 
d="M177 1210h879v-37l-423 -894h-33l-423 894v37z" />
    <glyph glyph-name="triaglf" unicode="&#x25c4;" 
d="M1043 1290v-905h-34l-819 434v37l819 434h34z" />
    <glyph glyph-name="lozenge" unicode="&#x25ca;" 
d="M614 112l371 633l-371 633l-357 -633zM519 0l-431 745l431 744h181l447 -744l-447 -745h-181z" />
    <glyph glyph-name="circle" unicode="&#x25cb;" 
d="M985 746.5q0 189.5 -100 307.5q-100 119 -265 119t-265 -119.5t-100 -307t100.5 -307t263 -119.5t264.5 119q102 118 102 307.5zM233 326q-153 163 -153 419t151.5 423t386.5 167t388 -166q152 -166 152 -425t-153 -418q-151 -166 -387 -166t-385 166z" />
    <glyph glyph-name="H18533" unicode="&#x25cf;" 
d="M233 326q-153 163 -153 419t151.5 423t386.5 167t388 -166q152 -166 152 -425t-153 -418q-151 -166 -387 -166t-385 166z" />
    <glyph glyph-name="whitebullet" unicode="&#x25e6;" 
d="M827 808q1 169 -209 169t-210 -169v-134q0 -164 179.5 -164t209.5 59.5t30 104.5v134zM972 674q0 -148 -95 -229q-88 -80 -260 -80t-261 80q-93 77 -93 229v134q0 230 135.5 272.5t263 42.5t217.5 -82q93 -77 93 -233v-134z" />
    <glyph glyph-name="uni2619" unicode="&#x2619;" 
d="M138 534q0 306 229 306h22l177 -499h58v471h74q125 0 185.5 -61.5t60.5 -203.5v-350q0 -265 -140 -434t-355 -169t-318 114t-99 299l149 -9q0 -170 57.5 -198.5t91.5 -28.5q108 0 108 121v71l-300 400v171zM380 957q-317 0 -300 391l145 -4q-8 -112 15 -154.5t53.5 -59.5
t77.5 -17h119v146q0 240 147 287.5t240 47.5l19 -157q-128 0 -183.5 -41.5t-55.5 -164.5v-118h205q149 0 236 -108.5t73 -310.5l-145 4q8 120 -39 189.5t-127 69.5h-480z" />
    <glyph glyph-name="female" unicode="&#x2640;" 
d="M925 987q0 164 -85 264.5t-224 100.5t-224 -99t-85 -264t85.5 -266t224 -101t223.5 100.5t85 264.5zM694 -372h-156v376h-348v160h348v307q-176 26 -288 168t-112 359q0 216 134 363t344.5 147t344.5 -145q134 -146 134 -364q0 -217 -111 -360q-111 -142 -290 -168v-307
h350v-160h-350v-376z" />
    <glyph glyph-name="male" unicode="&#x2642;" 
d="M806 484q0 162 -84.5 263.5t-224 101.5t-224.5 -99t-85 -264t85.5 -266t224.5 -101t223.5 101.5t84.5 263.5zM585 1346v143h672v-742h-140v517l-287 -395q72 -74 106 -169q40 -96 40 -213q0 -230 -134 -377t-344 -147t-345 147q-134 147 -134 375.5t134 373.5
q134 146 354 146q114 0 210 -52l305 393h-437z" />
    <glyph glyph-name="spade" unicode="&#x2660;" 
d="M907 168v-168h-581v168h205l22 484h-47l-95 -280h-91q-115 0 -182 83t-67 208v171l482 655h127l484 -655v-171q0 -123 -67 -207t-185 -84h-91l-95 280h-46l22 -484h205z" />
    <glyph glyph-name="club" unicode="&#x2663;" 
d="M374 1123q0 161 65.5 273t176.5 112t176.5 -110.5t65.5 -274.5l-117 -198l45 -52q39 60 89 99q37 35 85 35q97 0 163.5 -77.5t66.5 -223.5q0 -145 -99 -252q-98 -113 -255 -113l-82 320h-71l19 -497h208v-164h-588v164h209l18 497h-69l-83 -320q-156 0 -255 104t-99 274
q0 126 71 204q69 71 163 71t170 -121l45 52z" />
    <glyph glyph-name="heart" unicode="&#x2665;" 
d="M378 1489q187 0 214 -428h48q18 216 100 322t195.5 106t178.5 -113t50 -270l-36 -320l-415 -786h-194l-415 786l-33 320q-15 165 52 268q68 115 255 115z" />
    <glyph glyph-name="diamond" unicode="&#x2666;" 
d="M518 0l-432 745l432 744h180l447 -744l-447 -745h-180z" />
    <glyph glyph-name="musicalnote" unicode="&#x266a;" 
d="M942 820q0 52 -29 97.5t-137 118t-141 118.5v-871q0 -130 -89.5 -216t-212.5 -86q-124 0 -181 57t-57 148.5t77 164.5t204 73h117v1084h120q6 -73 52 -111t178.5 -125.5t195.5 -171t63 -212.5q0 -184 -78 -276.5t-121 -133.5l-86 107q92 85 108.5 134t16.5 101z" />
    <glyph glyph-name="uni26A1" unicode="&#x26a1;" 
d="M564 748l464 105l67 -119l-724 -1062l-118 56l408 807l-475 -107l-63 108l687 1058l110 -58z" />
    <glyph glyph-name="checkmark" unicode="&#x2713;" 
d="M1233 1489q-401 -665 -598 -1489h-313l-329 905h270l214 -609q194 706 489 1193h267z" />
    <glyph glyph-name="uni2767" unicode="&#x2767;" 
d="M782 -108q0 -121 108 -121q149 0 149 227l149 9q4 -181 -99 -297t-318 -116q-216 0 -356 169q-139 169 -139 434v350q0 208 138 251q46 14 107 14h75v-471h57l179 499h23q227 0 227 -306v-171l-300 -400v-71zM359 957q-80 0 -126 -71t-39 -188l-144 -4q-14 202 74 311
q88 108 233 108h207v118q0 123 -57 165t-183 41l19 157q183 0 286 -88t103 -247v-146h117q131 0 144 135q5 42 1 96l145 4q17 -391 -299 -391h-481z" />
    <glyph glyph-name="a.salt_ss" unicode="&#xe000;" 
d="M761 220q-86 -239 -326 -239q-126 0 -206 111t-80 316v193q0 244 140.5 387.5t383.5 143.5t411 -86v-1046h-270v220h-53zM421 424q0 -223 147 -223q115 0 246 177v523q-77 28 -161 28q-232 0 -232 -329v-176z" />
    <glyph glyph-name="agrave.salt_ss" unicode="&#xe001;" 
d="M761 220q-86 -239 -326 -239q-126 0 -206 111t-80 316v193q0 243 141 387t386 144t408 -86v-1046h-270v220h-53zM421 424q0 -223 147 -223q115 0 246 177v523q-82 30 -161 28q-234 0 -232 -329v-176zM575 1303l-363 373h356l203 -373h-196z" />
    <glyph glyph-name="aacute.salt_ss" unicode="&#xe002;" 
d="M761 220q-86 -239 -326 -239q-126 0 -206 111t-80 316v193q0 243 141 387t386 144t408 -86v-1046h-270v220h-53zM421 424q0 -223 147 -223q115 0 246 177v523q-82 30 -161 28q-234 0 -232 -329v-176zM514 1303l201 373h357l-363 -373h-195z" />
    <glyph glyph-name="acircumflex.salt_ss" unicode="&#xe003;" 
d="M761 220q-86 -239 -326 -239q-126 0 -206 111t-80 316v193q0 243 141 387t386 144t408 -86v-1046h-270v220h-53zM421 424q0 -223 147 -223q115 0 246 177v523q-82 30 -161 28q-234 0 -232 -329v-176zM322 1298l-91 132l311 285h201l315 -285l-92 -130l-324 202z" />
    <glyph glyph-name="atilde.salt_ss" unicode="&#xe004;" 
d="M761 220q-86 -239 -326 -239q-126 0 -206 111t-80 316v193q0 243 141 387t386 144t408 -86v-1046h-270v220h-53zM421 424q0 -223 147 -223q115 0 246 177v523q-82 30 -161 28q-234 0 -232 -329v-176zM864 1691h182v-28q0 -149 -67 -245t-183 -96t-189 99q-28 37 -52 68
t-56 30q-77 0 -75 -154v-24h-180v27q0 147 66 245t187 98q73 0 116 -30t73 -68t52 -70q23 -32 53 -31q75 0 73 154v25z" />
    <glyph glyph-name="adieresis.salt_ss" unicode="&#xe005;" 
d="M761 220q-86 -239 -326 -239q-126 0 -206 111t-80 316v193q0 243 141 387t386 144t408 -86v-1046h-270v220h-53zM421 424q0 -223 147 -223q115 0 246 177v523q-82 30 -161 28q-234 0 -232 -329v-176zM1000 1428q0 -123 -144 -123t-145 123v19q1 126 145 126t144 -126v-19
zM577 1428q0 -123 -144 -123t-144 123v19q0 126 144 126t144 -126v-19z" />
    <glyph glyph-name="aring.salt_ss" unicode="&#xe006;" 
d="M761 220q-86 -239 -326 -239q-126 0 -206 111t-80 316v193q0 243 141 387t386 144t408 -86v-1046h-270v220h-53zM421 424q0 -223 147 -223q115 0 246 177v523q-82 30 -161 28q-234 0 -232 -329v-176zM775 1605q1 136 -131 136t-130 -136v-60q0 -71 32 -101t97 -29
q64 0 98 30t34 100v60zM644 1268q-145 0 -234 68t-90 209v60q0 143 90 213t234 70t234 -70t90 -213v-60q0 -141 -90 -209t-234 -68z" />
    </font>
</defs>
</svg>
