<?xml version="1.0" standalone="no"?>
<!DOCTYPE svg PUBLIC "-//W3C//DTD SVG 1.1//EN" "http://www.w3.org/Graphics/SVG/1.1/DTD/svg11.dtd" >
<svg xmlns="http://www.w3.org/2000/svg">
<metadata>
Created by FontPrep 20130207 at Mon Aug 15 19:30:32 2016
 By Damien Criado
(c) Copyright The Font Bureau, Inc. 2014. All rights reserved.
</metadata>
<defs>
<font id="1d48c17a8d923538580edfaac5d6fa34" horiz-adv-x='1024' >
  <font-face 
    font-family="InputMonoNarrow-ThinItalic"
    font-weight="250"
    font-style="italic"
    font-stretch="semi-condensed"
    units-per-em="2048"
    panose-1="2 0 4 9 2 0 0 9 0 4"
    ascent="1583"
    descent="-465"
    x-height="1117"
    cap-height="1489"
    bbox="-398.59 -838 1609 2607"
    underline-thickness="0"
    underline-position="0"
    slope="-7"
    unicode-range="U+000D-1F41B"
  />
<missing-glyph 
d="M186 -372h860v1861h-860v-1861zM93 -465v2048h1046v-2048h-1046z" />
    <glyph glyph-name=".notdef" 
d="M186 -372h860v1861h-860v-1861zM93 -465v2048h1046v-2048h-1046z" />
    <glyph glyph-name=".null" horiz-adv-x="0" 
 />
    <glyph glyph-name="nonmarkingreturn" unicode="&#xd;" horiz-adv-x="0" 
 />
    <glyph glyph-name="NULL" horiz-adv-x="0" 
 />
    <glyph glyph-name="space" unicode="&#xa0;" 
 />
    <glyph glyph-name="space" unicode=" " 
 />
    <glyph glyph-name="exclam" unicode="!" 
d="M524 -19q-51 0 -80 24.5t-23 74.5l7 52q11 103 125.5 103t103.5 -103l-7 -52q-6 -50 -40.5 -74.5t-85.5 -24.5zM559 559l93 930h111l-132 -930h-72z" />
    <glyph glyph-name="quotedbl" unicode="&#x22;" 
d="M333 840l45 649h145l-115 -649h-75zM847 840l45 649h145l-115 -649h-75z" />
    <glyph glyph-name="numbersign" unicode="#" 
d="M646 0l71 421h-311l-71 -421h-82l71 421h-220l10 80h225l82 497h-246l9 80h250l69 411h82l-69 -411h313l68 411h80l-68 -411h221l-9 -80h-225l-82 -497h245l-9 -80h-251l-71 -421h-82zM732 501l83 497h-312l-84 -497h313z" />
    <glyph glyph-name="dollar" unicode="$" 
d="M551 -93h-73l23 179q-199 14 -337 145l50 74q127 -125 296 -139l69 555q-181 69 -251.5 156t-54.5 222t120 220t270 87l20 177h73l-22 -181q158 -17 294 -123l-52 -74q-131 99 -254 117l-65 -540q182 -73 255 -160.5t56 -223.5t-122 -221.5t-273 -92.5zM795 228
q78 60 91 164t-44.5 174.5t-195.5 127.5l-65 -530q136 4 214 64zM445.5 1265q-76.5 -59 -89.5 -161t42.5 -170t189.5 -126l64 518q-130 -2 -206.5 -61z" />
    <glyph glyph-name="percent" unicode="%" 
d="M966 238l15 131q26 208 -119 208t-171 -208l-15 -131q-25 -204 120 -204t170 204zM786 -41q-102 0 -157.5 69t-36.5 214l15 123q19 145 91.5 216t173.5 71t155.5 -71t35.5 -216l-15 -123q-19 -145 -89.5 -214t-172.5 -69zM58 292l1076 985l52 -67l-1080 -985zM438 1452
q-68 0 -113.5 -51t-58.5 -157l-17 -131q-25 -204 121 -204t170 204l17 131q13 106 -19 157t-100 51zM362 834q-102 0 -156.5 69t-36.5 214l15 123q17 145 90.5 216t175.5 71t154.5 -71t35.5 -216l-14 -123q-19 -145 -90.5 -214t-173.5 -69z" />
    <glyph glyph-name="ampersand" unicode="&#x26;" 
d="M341 63q74 0 167 53t170 150q-117 121 -194 278t-97 199q-205 -131 -237 -385q-16 -128 34.5 -211.5t156.5 -83.5zM640 1426q-90 0 -152.5 -71t-75.5 -172q-22 -170 26 -349q339 163 368 374q11 95 -32.5 156.5t-133.5 61.5zM315 -19q-140 0 -207 104.5t-45 288.5
q15 128 95 240t207 187q-64 194 -44 354q19 159 113 257t222 98t186.5 -85t42.5 -217t-124 -232.5t-303 -197.5q82 -192 150 -289.5t126 -160.5q113 159 234 393l65 -38q-146 -255 -258 -402l310 -214l-27 -78q-86 58 -172.5 113.5t-159.5 124.5q-82 -112 -191 -179
t-220 -67z" />
    <glyph glyph-name="quotesingle" unicode="'" 
d="M590 840l45 649h145l-115 -649h-75z" />
    <glyph glyph-name="parenleft" unicode="(" 
d="M778 -391q-233 63 -340 316.5t-60.5 633t216 633t417.5 316.5l2 -76q-220 -63 -360.5 -287.5t-185 -586t41 -585.5t292.5 -288z" />
    <glyph glyph-name="parenright" unicode=")" 
d="M175 -391l-4 76q223 63 364 287.5t185.5 586t-41 585.5t-292.5 288l21 76q233 -63 340.5 -316.5t61 -633t-216.5 -633t-418 -316.5z" />
    <glyph glyph-name="asterisk" unicode="*" 
d="M983 665l-318 279l-32 -456h-99l79 454l-384 -277l-41 83l412 242l-352 243l61 83l315 -279l33 452h99l-80 -454l387 281l39 -83l-411 -243l352 -242z" />
    <glyph glyph-name="plus" unicode="+" 
d="M490 74l65 533h-434l11 89h434l65 533h90l-66 -533h434l-11 -89h-434l-65 -533h-89z" />
    <glyph glyph-name="comma" unicode="," 
d="M255 -372l281 649h181l-384 -649h-78z" />
    <glyph glyph-name="hyphen" unicode="&#x2011;" 
d="M121 607l11 89h957l-11 -89h-957z" />
    <glyph glyph-name="hyphen" unicode="&#x2010;" 
d="M121 607l11 89h957l-11 -89h-957z" />
    <glyph glyph-name="hyphen" unicode="&#xad;" 
d="M121 607l11 89h957l-11 -89h-957z" />
    <glyph glyph-name="hyphen" unicode="-" 
d="M121 607l11 89h957l-11 -89h-957z" />
    <glyph glyph-name="period" unicode="." 
d="M524 -19q-49 0 -77 24.5t-23 74.5l8 52q12 103 92.5 103t107.5 -25.5t21 -77.5l-7 -52q-6 -50 -39.5 -74.5t-82.5 -24.5z" />
    <glyph glyph-name="slash" unicode="/" 
d="M91 -372l913 1861h91l-913 -1861h-91z" />
    <glyph glyph-name="zero.salt_slash" unicode="&#xe05c;" 
d="M532 63q173 0 269 140t134 449l22 178q40 350 -37 486l-574 -1184q63 -69 186 -69zM700 1426q-173 0 -270 -142.5t-134 -453.5l-22 -178q-38 -304 22 -447l568 1171q-67 50 -164 50zM209 849q82 659 503 659q420 0 338 -659l-26 -216q-83 -652 -504 -652t-338 652z" />
    <glyph glyph-name="zero.salt_slash" unicode="0" 
d="M532 63q173 0 269 140t134 449l22 178q40 350 -37 486l-574 -1184q63 -69 186 -69zM700 1426q-173 0 -270 -142.5t-134 -453.5l-22 -178q-38 -304 22 -447l568 1171q-67 50 -164 50zM209 849q82 659 503 659q420 0 338 -659l-26 -216q-83 -652 -504 -652t-338 652z" />
    <glyph glyph-name="one" unicode="1" 
d="M190 0l9 82h376l147 1195h-15q-52 -112 -164.5 -185.5t-244.5 -73.5l-4 97q166 0 291.5 103.5t168.5 270.5h84l-173 -1407h342l-9 -82h-808z" />
    <glyph glyph-name="two" unicode="2" 
d="M707 1508q406 0 362 -378l-17 -134q-33 -247 -307 -313l-281 -69q-104 -24 -159.5 -94.5t-71.5 -199.5l-30 -238h752l-9 -82h-842l39 317q37 315 296 374l302 74q108 24 158.5 85.5t64.5 173.5l10 88q20 168 -44 241t-228 73t-242 -77t-117 -269l-88 9q74 419 452 419z
" />
    <glyph glyph-name="three" unicode="3" 
d="M516 -19q-222 0 -309.5 88.5t-76.5 286.5l92 11q-2 -173 60 -240t242 -67t268.5 76t110.5 262l7 62q20 162 -45.5 229t-246.5 67h-140l10 80h139q162 0 235.5 53t88.5 178l10 71q20 162 -42.5 227t-226.5 65t-236 -60.5t-104 -218.5l-88 11q34 182 134.5 264t302.5 82
t288.5 -88.5t62.5 -281.5l-9 -71q-13 -117 -83 -186t-178 -79l-2 -16q123 -11 181.5 -95t40.5 -231l-8 -62q-26 -220 -141 -318.5t-337 -98.5z" />
    <glyph glyph-name="four" unicode="4" 
d="M1085 439h-204l-54 -439h-92l54 439h-648l10 80l726 970h132l-119 -970h205zM251 519h548l108 872z" />
    <glyph glyph-name="five" unicode="5" 
d="M512 -19q-206 0 -295.5 94t-84.5 294l91 9q0 -173 64.5 -244t234.5 -71q341 0 381 334l13 100q19 151 -39 223.5t-196 72.5h-446l85 696h739l-9 -81h-648l-65 -535h356q177 0 257 -92t59 -267l-17 -136q-24 -194 -149 -295.5t-331 -101.5z" />
    <glyph glyph-name="six" unicode="6" 
d="M530.5 63q167.5 0 260 91.5t116.5 283.5l3 35q20 168 -50.5 248t-238 80t-258.5 -80.5t-112 -247.5l-3 -35q-24 -192 45.5 -283.5t237 -91.5zM653 881q203 0 289 -107t65 -281l-7 -52q-26 -220 -151 -340t-329 -120t-296 123t-56 404l55 464q67 536 490 536
q181 0 263.5 -71.5t92.5 -235.5l-92 -19q-9 145 -68.5 194.5t-223.5 49.5t-253 -105t-119 -349l-30 -251h19q104 160 351 160z" />
    <glyph glyph-name="seven" unicode="7" 
d="M395 0q145 449 256.5 749.5t379.5 659.5h-754l10 80h841l-9 -80q-289 -430 -404 -743.5t-212 -665.5h-108z" />
    <glyph glyph-name="eight" unicode="8" 
d="M532 60q182 0 265.5 76t105.5 262l6 43q20 162 -45.5 229t-247.5 67t-265 -67t-103 -229l-6 -43q-22 -186 43 -262t247 -76zM625 817q163 0 237 59t91 200l8 62q20 162 -39.5 227t-222.5 65t-236.5 -65t-93.5 -227l-8 -62q-17 -141 42 -200t222 -59zM523 -19
q-214 0 -305 99t-67 300l5 52q20 162 96 247.5t191 96.5l2 17q-93 9 -142.5 82t-30.5 210l7 71q22 179 128.5 265.5t302 86.5t281 -86.5t63.5 -265.5l-8 -71q-19 -138 -84.5 -210.5t-162.5 -81.5l-2 -17q110 -11 165.5 -96.5t35.5 -247.5l-6 -52q-24 -201 -139.5 -300
t-329.5 -99z" />
    <glyph glyph-name="nine" unicode="9" 
d="M579 609q-192 0 -283 101.5t-69 285.5l6 52q28 220 151.5 340t329.5 120t296 -123t57 -404l-58 -463q-32 -264 -156 -400.5t-320 -136.5t-279 72t-92 236l95 22q9 -141 67 -194.5t222 -53.5t253 105.5t119 349.5l32 249h-17q-124 -158 -354 -158zM610.5 689
q167.5 0 258 80t110.5 248l4 35q24 192 -45 283t-236.5 91t-259.5 -91t-116 -283l-4 -35q-20 -168 50.5 -248t238 -80z" />
    <glyph glyph-name="colon" unicode=":" 
d="M524 -19q-49 0 -77 24.5t-23 74.5l8 50q12 105 92.5 105t107.5 -25.5t21 -79.5l-7 -50q-6 -50 -39.5 -74.5t-82.5 -24.5zM756 976q-11 -99 -121 -99t-101 99l8 50q11 102 121.5 102t99.5 -102z" />
    <glyph glyph-name="semicolon" unicode=";" 
d="M255 -372l281 649h181l-384 -649h-78zM756 976q-11 -99 -121 -99t-101 99l8 50q11 102 121.5 102t99.5 -102z" />
    <glyph glyph-name="less" unicode="&#x3c;" 
d="M957 47l-769 560l11 89l907 561l-11 -82l-838 -523l709 -524z" />
    <glyph glyph-name="equal" unicode="=" 
d="M88 331l11 90h957l-12 -90h-956zM155 883l11 89h957l-11 -89h-957z" />
    <glyph glyph-name="greater" unicode="&#x3e;" 
d="M119 47l9 81l842 524l-713 523l11 82l769 -561l-11 -89z" />
    <glyph glyph-name="question" unicode="?" 
d="M438 -19q-51 0 -79 24.5t-22 74.5l7 52q11 103 124.5 103t103.5 -103l-8 -52q-6 -50 -40.5 -74.5t-85.5 -24.5zM692 1426q-204 0 -289 -70.5t-127 -275.5l-90 9q39 235 153.5 327t355.5 92t342.5 -100.5t77.5 -301.5l-11 -86q-22 -186 -167.5 -283.5t-478.5 -153.5l-7 72
q285 48 416 134t150 239l5 56q24 186 -51 264t-279 78z" />
    <glyph glyph-name="at" unicode="@" 
d="M575 527q-30 -246 139 -246t198 235l28 234q34 254 -139 254q-166 0 -200 -256zM609 -134q132 0 290 50l-7 -71q-158 -50 -292 -50q-249 0 -364 143.5t-80 426.5l75 603q32 263 158.5 401.5t323.5 138.5t282 -137t53 -395l-58 -475q-52 -296 -294 -296q-121 0 -171 81
t-32 226l30 251q19 145 96 231t178 86q67 0 105 -30t51 -74h15q64 467 -255 467q-182 0 -280 -114.5t-128 -360.5l-74 -603q-32 -251 60.5 -375t317.5 -124z" />
    <glyph glyph-name="A" unicode="A" 
d="M920 0l-80 467h-512l-196 -467h-97l639 1489h67l276 -1489h-97zM827 547l-136 790l-330 -790h466z" />
    <glyph glyph-name="B" unicode="B" 
d="M583 82q155 0 230 69t96 231l7 59q20 158 -38.5 228t-212.5 70h-345l-82 -657h345zM639 819q145 0 216.5 61.5t88.5 201.5l7 52q17 147 -39 210.5t-201 63.5h-309l-72 -589h309zM721 1489q175 0 256 -90t60 -260l-9 -83q-13 -101 -72 -171.5t-146 -87.5l-4 -17
q108 -11 164 -97.5t41 -218.5l-11 -84q-22 -184 -133 -282t-297 -98h-432l182 1489h401z" />
    <glyph glyph-name="C" unicode="C" 
d="M538 -19q-212 0 -308 130.5t-64 385.5l59 488q32 257 159.5 390t335.5 133t304.5 -110.5t79.5 -345.5l-91 -9q7 214 -58 298.5t-243 84.5t-273.5 -106t-125.5 -348l-56 -462q-30 -238 39.5 -342.5t251.5 -104.5t273 88.5t117 287.5l90 -9q-28 -218 -153 -333.5
t-337 -115.5z" />
    <glyph glyph-name="D" unicode="D" 
d="M484 82q192 0 302 124t134 323l52 424q24 197 -54 326t-270 129h-246l-164 -1326h246zM657 1489q222 0 329 -146t77 -390l-52 -424q-30 -240 -173.5 -384.5t-362.5 -144.5h-337l182 1489h337z" />
    <glyph glyph-name="E" unicode="E" 
d="M138 0l182 1489h808l-9 -81h-717l-69 -553h631l-9 -80h-631l-86 -693h717l-9 -82h-808z" />
    <glyph glyph-name="F" unicode="F" 
d="M138 0l182 1489h808l-9 -81h-717l-87 -712h597l-9 -80h-598l-76 -616h-91z" />
    <glyph glyph-name="G" unicode="G" 
d="M554.5 -19q-221.5 0 -321 133.5t-65.5 395.5l55 462q34 266 161.5 401t337.5 135t292.5 -97.5t65.5 -325.5l-93 -11q11 209 -46 280.5t-231 71.5t-270.5 -108t-126.5 -346l-56 -462q-30 -235 44.5 -341t259.5 -106t276.5 125t128.5 428h-365l10 80h454l-9 -78
q-41 -333 -160.5 -485t-341 -152z" />
    <glyph glyph-name="H" unicode="H" 
d="M138 0l182 1489h91l-78 -634h592l79 634h91l-183 -1489h-91l95 775h-592l-95 -775h-91z" />
    <glyph glyph-name="I" unicode="I" 
d="M138 0l9 82h343l163 1326h-342l9 81h775l-10 -81h-342l-164 -1326h343l-10 -82h-774z" />
    <glyph glyph-name="J" unicode="J" 
d="M498 63q174 0 264.5 99t118.5 320l113 926h-381l9 81h473l-123 -1005q-64 -503 -482 -503q-208 0 -297 110t-68 345l89 11q-13 -212 48.5 -298t235.5 -86z" />
    <glyph glyph-name="K" unicode="K" 
d="M320 747l-91 -747h-91l182 1489h91l-80 -662h136l611 662h117l-644 -690l456 -799h-110l-422 747h-155z" />
    <glyph glyph-name="L" unicode="L" 
d="M223 0l183 1489h89l-173 -1407h600l-10 -82h-689z" />
    <glyph glyph-name="M" unicode="M" 
d="M525 372l-194 967l-163 -1339h-90l183 1489h119l201 -1016l450 1016h123l-182 -1489h-89l163 1331l-428 -959h-93z" />
    <glyph glyph-name="N" unicode="N" 
d="M808 0l-424 1303l-161 -1303h-85l182 1489h93l432 -1327l162 1327h88l-183 -1489h-104z" />
    <glyph glyph-name="O" unicode="O" 
d="M531 63q176 0 266.5 107t120.5 340l56 462q30 238 -34.5 346t-240.5 108t-266 -108t-120 -346l-56 -462q-30 -233 34 -340t240 -107zM417.5 -19q-316.5 0 -249.5 529l55 462q67 536 487 536t355 -536l-56 -462q-34 -268 -154.5 -398.5t-437 -130.5z" />
    <glyph glyph-name="P" unicode="P" 
d="M652 603q156 0 234 73.5t101 241.5l20 171q20 169 -40 244t-217 75h-348l-99 -805h349zM761 1489q188 0 274 -100.5t62 -291.5l-23 -183q-22 -192 -133.5 -292.5t-300.5 -100.5h-348l-63 -521h-91l182 1489h441z" />
    <glyph glyph-name="Q" unicode="Q" 
d="M531 63q176 0 266.5 107t120.5 340l56 462q30 238 -34.5 347t-240.5 109t-266 -109t-120 -347l-56 -462q-30 -233 34 -340t240 -107zM711 1508q207 0 297 -135t57 -401l-56 -462q-60 -486 -413 -525q-20 -197 69 -249.5t275 -11.5l6 -80q-235 -52 -349.5 32t-90.5 305
q-402 12 -338 529l55 462q69 536 488 536z" />
    <glyph glyph-name="R" unicode="R" 
d="M795 1489q384 0 335 -392l-15 -120q-41 -363 -374 -391l279 -586h-100l-276 585h-342l-73 -585h-91l182 1489h475zM693 667q158 0 236 73.5t99 240.5l13 108q20 169 -39.5 244t-217.5 75h-382l-91 -741h382z" />
    <glyph glyph-name="S" unicode="S" 
d="M560 -11q-168 0 -271 55t-179 155l65 62q76 -95 165.5 -142.5t225.5 -47.5t239 83.5t119 222.5t-51 214.5t-261 136.5t-279 151.5t-65 251.5t141.5 263.5t294.5 102.5q132 0 223 -53t160 -143l-63 -63q-71 86 -146.5 131.5t-199.5 45.5t-215.5 -75.5t-107.5 -203.5
t53.5 -197.5t263.5 -133.5t276 -158t62 -267t-151 -282t-299 -109z" />
    <glyph glyph-name="T" unicode="T" 
d="M480 0l173 1408h-428l10 81h945l-9 -81h-428l-173 -1408h-90z" />
    <glyph glyph-name="U" unicode="U" 
d="M523.5 -19q-197.5 0 -276.5 130.5t-48 391.5l121 986h91l-121 -986q-28 -231 28 -335.5t214.5 -104.5t240.5 104.5t110 335.5l121 986h91l-121 -986q-32 -261 -142.5 -391.5t-308 -130.5z" />
    <glyph glyph-name="V" unicode="V" 
d="M559 0h-67l-274 1489h99l229 -1327l552 1327h101z" />
    <glyph glyph-name="W" unicode="W" 
d="M760 0l-108 1011l-362 -1011h-89l6 1489h80l-10 -1323l341 970h95l101 -954l303 1307h91l-359 -1489h-89z" />
    <glyph glyph-name="X" unicode="X" 
d="M942 0l-328 687l-504 -687h-103l568 769l-342 720h97l312 -655l483 655h100l-544 -733l358 -756h-97z" />
    <glyph glyph-name="Y" unicode="Y" 
d="M570 0h-90l69 559l-376 930h99l333 -837l531 837h104l-601 -930z" />
    <glyph glyph-name="Z" unicode="Z" 
d="M963 0h-859l10 82l917 1326h-754l10 81h858l-9 -81l-920 -1326h756z" />
    <glyph glyph-name="bracketleft" unicode="[" 
d="M263 -372l229 1861h517l-9 -81h-428l-209 -1698h428l-11 -82h-517z" />
    <glyph glyph-name="backslash" unicode="\" 
d="M775 -372l-455 1861h91l455 -1861h-91z" />
    <glyph glyph-name="bracketright" unicode="]" 
d="M177 -372l11 82h428l209 1698h-428l9 81h517l-229 -1861h-517z" />
    <glyph glyph-name="asciicircum" unicode="^" 
d="M963 372l-265 1043l-517 -1043h-82l564 1117h89l292 -1117h-81z" />
    <glyph glyph-name="underscore" unicode="_" 
d="M7 -324l12 89h957l-12 -89h-957z" />
    <glyph glyph-name="grave" unicode="`" 
d="M721 840l-226 649h181l125 -649h-80z" />
    <glyph glyph-name="a" unicode="a" 
d="M449 590h363l26 218q13 106 -45.5 176t-188.5 70t-194 -45.5t-114 -168.5l-78 24q60 145 151 208.5t250 63.5t244 -86.5t66 -239.5l-63 -518q-17 -145 21 -188.5t157 -21.5l-9 -86q-244 -39 -240 177h-17q-134 -192 -388 -192q-134 0 -212 85.5t-60 227.5t103.5 219
t227.5 77zM408 58q114 0 198.5 42.5t160.5 134.5l35 279h-361q-97 0 -161 -45t-78 -162t39 -183t167 -66z" />
    <glyph glyph-name="b" unicode="b" 
d="M510 60q318 0 359 338l41 330q39 326 -204 326q-101 0 -189.5 -45.5t-183.5 -152.5l-87 -722q104 -74 264 -74zM746 1136q132 0 206 -106.5t50 -299.5l-41 -335q-22 -188 -146 -301t-318 -113t-348 112l171 1396h91l-65 -532h17q56 76 153.5 127.5t229.5 51.5z" />
    <glyph glyph-name="c" unicode="c" 
d="M540 -19q-194 0 -286 105.5t-68 304.5l39 328q26 203 144.5 310t312.5 107t274.5 -82t73.5 -253l-90 -8q6 145 -53 203t-217 58t-244.5 -81t-108.5 -254l-40 -328q-20 -168 47.5 -249t227.5 -81t231.5 49.5t95.5 176.5l85 -8q-28 -155 -129 -226.5t-295 -71.5z" />
    <glyph glyph-name="d" unicode="d" 
d="M680 1136q131 0 273 -65l51 418h91l-183 -1489h-91l21 162h-17q-58 -80 -154 -130.5t-207 -50.5q-158 0 -230 106.5t-48 305.5l41 329q22 190 144 302t309 112zM668 1058q-151 0 -241 -86t-110 -253l-40 -326q-43 -330 195 -330q114 0 201 46t180 146l89 724
q-123 79 -274 79z" />
    <glyph glyph-name="e" unicode="e" 
d="M653.5 1054q-147.5 0 -231 -82t-105.5 -253l-12 -92h592l10 75q22 184 -42 268t-211.5 84zM515 -19q-172 0 -262.5 104.5t-66.5 307.5l39 326q26 209 147.5 313t295.5 104t266 -106.5t66 -323.5l-21 -157h-683l-19 -158q-22 -173 42.5 -250.5t206.5 -77.5t207.5 43
t111.5 143l86 -27q-58 -127 -151 -184t-265 -57z" />
    <glyph glyph-name="f" unicode="f" 
d="M892 1424q-233 0 -261 -231l-9 -76h443l-11 -82h-443l-173 -1407h-90l173 1407h-307l11 82h307l10 75q19 151 118.5 231.5t226.5 80.5t221 -39l-26 -76q-80 35 -190 35z" />
    <glyph glyph-name="g" unicode="g" 
d="M331 -309h330q209 -1 234 199q12 98 -27 142t-131 44h-584l-15 -126q-17 -127 33 -193t160 -66zM625.5 553q189.5 0 210.5 194l9 67q13 117 -45.5 169t-181.5 52t-194.5 -52t-84.5 -169l-9 -67q-11 -101 47.5 -147.5t248 -46.5zM633 -391h-309q-141 0 -219.5 78
t-59.5 235q11 93 57.5 149t122.5 63v9q-117 19 -97 183q10 84 65.5 144.5t143.5 67.5l2 6q-120 39 -101 204l10 77q17 128 116.5 210t264.5 82h464l-11 -82l-246 21l-2 -12q63 -19 87.5 -85.5t16.5 -131.5l-9 -75q-15 -123 -108 -198.5t-277 -75.5h-207q-110 0 -129 -156
t129 -156h395q134 0 202 -66t51 -203t-115.5 -212.5t-236.5 -75.5z" />
    <glyph glyph-name="h" unicode="h" 
d="M740 1136q135 0 211.5 -96t57.5 -252l-97 -788h-91l95 767q15 134 -38.5 210.5t-161.5 76.5t-195 -45t-188 -156l-104 -853h-91l182 1489h91l-67 -545h17q73 91 158.5 141.5t220.5 50.5z" />
    <glyph glyph-name="i.salt_serifs" unicode="&#xe023;" 
d="M579 82h376l-9 -82h-466l127 1035h-376l11 82h465zM711 1510q41 0 64 -15t14 -69q-7 -67 -97 -67q-40 0 -63 15t-17 60q6 46 32 61t67 15z" />
    <glyph glyph-name="i.salt_serifs" unicode="i" 
d="M579 82h376l-9 -82h-466l127 1035h-376l11 82h465zM711 1510q41 0 64 -15t14 -69q-7 -67 -97 -67q-40 0 -63 15t-17 60q6 46 32 61t67 15z" />
    <glyph glyph-name="j" unicode="j" 
d="M358 -303q123 0 200 80t95 243l125 1015h-478l11 82h568l-136 -1108q-25 -188 -133 -292t-277 -104q-117 0 -238 41l32 83q108 -40 231 -40zM875 1512q41 0 64 -15t14 -69q-7 -67 -98 -67q-40 0 -62 14t-16 60q5 47 31 62t67 15z" />
    <glyph glyph-name="k" unicode="k" 
d="M380 547l-67 -547h-90l183 1489h89l-106 -862h168l411 490h106l-445 -521l304 -596h-99l-279 547h-175z" />
    <glyph glyph-name="l.salt_serifs_round" unicode="&#xe056;" 
d="M944 37q-99 -46 -215 -46q-115 0 -170.5 94t-35.5 261l130 1062h-376l10 81h465l-139 -1143q-35 -272 137 -272q90 0 183 43z" />
    <glyph glyph-name="l.salt_serifs_round" unicode="l" 
d="M944 37q-99 -46 -215 -46q-115 0 -170.5 94t-35.5 261l130 1062h-376l10 81h465l-139 -1143q-35 -272 137 -272q90 0 183 43z" />
    <glyph glyph-name="m" unicode="m" 
d="M691 977q85 159 247 159q86 0 131.5 -80t28.5 -222l-102 -834h-89l100 814q29 238 -101 238q-62 0 -112.5 -36.5t-112.5 -110.5l-111 -905h-90l101 814q29 238 -101 238q-62 0 -114.5 -37t-110.5 -110l-112 -905h-89l138 1117h89l-18 -140h18q85 159 216 159
q73 0 117.5 -42t57.5 -117h19z" />
    <glyph glyph-name="n" unicode="n" 
d="M726 1136q149 0 225.5 -94t57.5 -256l-97 -786h-91l95 767q17 140 -38 212.5t-161 72.5q-210 0 -382 -190l-106 -862h-91l138 1117h91l-23 -173h17q60 89 159.5 140.5t205.5 51.5z" />
    <glyph glyph-name="o" unicode="o" 
d="M532.5 63q150.5 0 233.5 80t103 248l40 328q22 171 -41.5 253t-214 82t-232.5 -82t-104 -253l-40 -328q-20 -168 42.5 -248t213 -80zM523 -19q-186 0 -273.5 106.5t-63.5 303.5l39 328q26 201 140.5 309t300.5 108t273 -108t61 -309l-39 -328q-24 -197 -138 -303.5
t-300 -106.5z" />
    <glyph glyph-name="p" unicode="p" 
d="M510 -19q-145 0 -275 66l-53 -419h-91l185 1489h91l-23 -173h17q60 95 156 143.5t204 48.5q155 0 230 -109t51 -303l-41 -329q-24 -194 -143.5 -304t-307.5 -110zM714 1054q-113 0 -200.5 -45.5t-178.5 -146.5l-89 -721q121 -81 275 -81q155 0 241.5 82.5t106.5 255.5
l41 328q39 328 -196 328z" />
    <glyph glyph-name="q" unicode="q" 
d="M472 63q114 0 201.5 46t179.5 146l89 734q-103 69 -266 69q-164 0 -250.5 -84t-108.5 -255l-38 -313q-44 -343 193 -343zM370.5 1026q121.5 110 321.5 110t347 -99l-173 -1409h-91l67 545h-17q-146 -192 -369 -192q-151 0 -222.5 108t-47.5 298l41 335q22 194 143.5 304z
" />
    <glyph glyph-name="r" unicode="r" 
d="M780 1136q134 0 201 -79.5t50 -224.5l-16 -132h-92l17 129q11 102 -31.5 163.5t-142.5 61.5t-183.5 -48.5t-165.5 -152.5l-104 -853h-90l138 1117h90l-23 -173h19q137 192 333 192z" />
    <glyph glyph-name="s" unicode="s" 
d="M544 -19q-254 0 -425 151l56 73q156 -142 378 -142q132 0 216 58.5t96 158.5t-48.5 148.5t-248.5 88.5t-266.5 112.5t-61.5 204.5t121.5 217t234.5 85q230 0 396 -142l-52 -71q-151 131 -335 131q-115 0 -188.5 -56t-86.5 -159t46.5 -153t248.5 -88t266 -110t61 -204
t-129 -217.5t-279 -85.5z" />
    <glyph glyph-name="t" unicode="t" 
d="M707 -17q-156 0 -232.5 97t-55.5 268l84 687h-289l11 82h289l45 372h91l-45 -372h445l-11 -82h-445l-82 -670q-37 -298 216 -298q101 0 199 47l9 -80q-119 -51 -229 -51z" />
    <glyph glyph-name="u" unicode="u" 
d="M466 63q208 0 387 192l106 862h91l-138 -1117h-91l21 173h-17q-148 -192 -363 -192q-147 0 -224.5 99t-56.5 264l95 773h91l-91 -743q-19 -153 33 -232t157 -79z" />
    <glyph glyph-name="v" unicode="v" 
d="M575 0h-102l-242 1117h91l212 -1024l464 1024h95z" />
    <glyph glyph-name="w" unicode="w" 
d="M724 0l-102 795l-289 -795h-98l-88 1117h91l64 -983l279 797h106l97 -775l300 961h95l-364 -1117h-91z" />
    <glyph glyph-name="x" unicode="x" 
d="M832 0l-244 499l-370 -499h-95l426 568l-268 549h90l238 -486l361 486h95l-417 -558l274 -559h-90z" />
    <glyph glyph-name="y" unicode="y" 
d="M216 -303q74 0 131 47t120 182l34 74h-23l-245 1117h89l220 -1020l458 1020h93l-551 -1214q-73 -156 -156.5 -221.5t-206.5 -65.5q-51 0 -123 13l22 82q64 -14 138 -14z" />
    <glyph glyph-name="z" unicode="z" 
d="M877 0h-704l9 82l721 953h-603l11 82h704l-11 -82l-725 -953h607z" />
    <glyph glyph-name="braceleft" unicode="{" 
d="M778 -391q-318 -6 -451 70.5t-113 238.5q7 69 41.5 127.5t104.5 130.5t98 110t34 73q11 97 -71 138t-302 47l9 74q220 6 312 45t104 132q6 35 -14 70t-74 95t-73.5 115t-11.5 128q20 162 176.5 236.5t463.5 68.5l-9 -82q-277 6 -400.5 -45.5t-139.5 -179.5
q-6 -50 12.5 -94t73.5 -105t73.5 -105t13.5 -96q-25 -199 -315 -211l-2 -9q138 -15 205 -74.5t56 -160.5q-7 -52 -38 -99.5t-101 -113.5t-99.5 -112.5t-35.5 -100.5q-17 -132 94 -185t389 -48z" />
    <glyph glyph-name="bar" unicode="|" 
d="M441 -372l229 1861h75l-229 -1861h-75z" />
    <glyph glyph-name="braceright" unicode="}" 
d="M817 -82q-20 -162 -172 -238.5t-470 -70.5l9 78q277 -6 401 47.5t141 185.5q6 54 -12 100.5t-66 109.5q-58 69 -78.5 116.5t-12.5 99.5q11 101 93 160.5t223 74.5l2 9q-140 6 -207.5 56t-54.5 155q6 52 35.5 95.5t99.5 105.5t99.5 105.5t35.5 93.5q17 128 -95 179.5
t-390 45.5l10 82q311 6 448.5 -68.5t117.5 -236.5q-7 -73 -42 -128t-103 -115t-95 -95t-30 -66q-13 -95 69 -135t301 -46l-9 -74q-223 -6 -313.5 -47t-101.5 -138q-6 -35 13 -73t71 -110t71 -130.5t12 -127.5z" />
    <glyph glyph-name="asciitilde" unicode="~" 
d="M823 391q-94 0 -145.5 75.5t-97.5 245.5t-79.5 234.5t-97.5 64.5q-132 0 -168 -302l-38 -299h-85l39 311q20 179 93.5 278t169.5 99t148 -78t96 -248t75.5 -233.5t129.5 -63.5t137 307l35 298h86l-37 -311q-22 -179 -94.5 -278.5t-166.5 -99.5z" />
    <glyph glyph-name="exclamdown" unicode="&#xa1;" 
d="M678 931l-95 -931h-112l134 931h73zM814 1404l-8 -52q-11 -99 -125 -99t-104 99l8 52q12 102 125.5 102t103.5 -102z" />
    <glyph glyph-name="cent" unicode="&#xa2;" 
d="M495 -93l32 262q-175 9 -259 112t-58 309l38 302q24 205 134 312t286 116l32 263h73l-32 -261q173 -7 245.5 -88.5t65.5 -246.5l-88 -8q4 147 -51 202t-183 59l-123 -992q128 2 198 48.5t96 176.5l88 -8q-28 -151 -122 -221.5t-267 -75.5l-32 -261h-73zM302 590
q-20 -171 40 -252t194 -89l123 989q-136 -7 -217 -87t-103 -259z" />
    <glyph glyph-name="sterling" unicode="&#xa3;" 
d="M712 1508q189 0 271 -86.5t71 -276.5l-95 -11q7 166 -50 229t-213 63t-235 -76.5t-100 -241.5q-10 -92 41 -263h373l-12 -80h-333q45 -155 34 -270q-30 -219 -187 -329l4 -10q58 34 106.5 26.5t108.5 -35.5t108.5 -57t102.5 -29q95 0 143.5 66.5t84.5 239.5l87 -11
q-65 -375 -322 -375q-50 0 -104 24.5t-136 66.5t-126 46.5t-88 -23.5l-170 -112l-44 65l143 80q69 39 125 146.5t68 196.5t-1 157t-36 137h-203l12 80h163q-44 147 -31 267q22 182 136.5 289t303.5 107z" />
    <glyph glyph-name="currency" unicode="&#xa4;" 
d="M240 486.5q0 47.5 8 103.5l37 302q11 99 50 192l-158 193l67 60l143 -172q116 157 293 157t251 -157l177 164l52 -59l-201 -186q12 -68 0 -192l-37 -302q-13 -106 -47 -180l155 -190l-66 -60l-139 166q-111 -158 -296 -158t-253 149l-177 -164l-52 59l199 186
q-6 41 -6 88.5zM542 249q123 0 195.5 79.5t94.5 261.5l37 302q43 348 -203.5 348t-289.5 -348l-37 -302q-22 -182 29 -261.5t174 -79.5z" />
    <glyph glyph-name="yen" unicode="&#xa5;" 
d="M940 225h-340l-28 -225h-92l28 225h-342l9 80h343l35 293h-343l12 80h297l-344 811h102l336 -793l528 793h99l-542 -811h298l-11 -80h-341l-35 -293h341z" />
    <glyph glyph-name="brokenbar" unicode="&#xa6;" 
d="M441 -372l93 744h75l-93 -744h-75zM579 745l91 744h75l-92 -744h-74z" />
    <glyph glyph-name="section" unicode="&#xa7;" 
d="M510 -385q-108 0 -204 39t-163 110l58 74q74 -74 149.5 -107.5t189.5 -33.5t196.5 65t96.5 183t-56.5 186t-254.5 113t-257 119.5t-59 189.5q26 210 263 289q-215 106 -188 325q19 147 132.5 238.5t277.5 91.5q106 0 200 -38t159 -105l-56 -71q-74 67 -150 99.5
t-188 32.5t-195 -64.5t-98 -182.5t56 -187t255 -113t257 -118t58 -190q-28 -216 -265 -294q101 -50 153 -122.5t37 -186.5q-19 -156 -129.5 -249t-274.5 -93zM549 328q17 -6 34.5 -10.5t34.5 -10.5q252 22 279 240q11 95 -43.5 148t-205.5 89q-25 8 -71 20
q-252 -22 -279 -240q-11 -93 43.5 -147t207.5 -89z" />
    <glyph glyph-name="dieresis" unicode="&#xa8;" 
d="M873 1361q-35 0 -57 13q-21 13 -16 60t31 62q25 16 61 16q80 0 69 -71q-8 -54 -31 -67q-22 -13 -57 -13zM531 1512q79 0 70 -71q-4 -52 -29 -66t-60 -14t-56 13t-14 61q7 47 30 62t59 15z" />
    <glyph glyph-name="copyright" unicode="&#xa9;" 
d="M393 829q0 363 236 363q110 0 158.5 -77.5t57.5 -207.5l-78 -6q-7 117 -37 166.5t-104 49.5t-109 -63.5t-35 -213.5v-302q0 -151 35 -214t109 -63t104 45.5t37 153.5l78 -6q-9 -123 -58 -195.5t-163 -72.5q-232 0 -231 369v274zM616.5 -136q249.5 0 358.5 149t109 492
v361q0 344 -109 496t-358.5 152t-359.5 -151t-110 -497v-361q0 -343 110 -492t359.5 -149zM616.5 -205q-273.5 0 -407 166t-133.5 504v440q0 343 134 510.5t408 167.5t406 -168t132 -510v-440q0 -339 -133 -504.5t-406.5 -165.5z" />
    <glyph glyph-name="ordfeminine" unicode="&#xaa;" 
d="M477 598q-117 0 -178 66t-48 174t86 167.5t162 59.5h309l17 132q13 114 -35 174.5t-150 60.5t-148.5 -33.5t-87.5 -130.5l-71 26q41 112 118 163t207 51t197.5 -76.5t51.5 -215.5l-49 -391q-9 -88 21 -115t126 -14l-11 -89q-108 -9 -150.5 23.5t-35.5 119.5h-13
q-123 -152 -318 -152zM532 998q-180 0 -197 -143q-21 -181 165 -181q178 0 275 117l26 207h-269z" />
    <glyph glyph-name="guillemotleft" unicode="&#xab;" 
d="M525 225l-411 410l3 33l512 410l-11 -99l-415 -327l333 -328zM1039 225l-413 410l3 33l514 410l-11 -99l-417 -327l335 -328z" />
    <glyph glyph-name="logicalnot" unicode="&#xac;" 
d="M873 0l75 607h-827l11 89h916l-85 -696h-90z" />
    <glyph glyph-name="registered" unicode="&#xae;" 
d="M817 1005q0 -149 -137 -175l154 -229h-86l-148 224h-92v-224h-70v667h193q186 0 186 -199v-64zM747 1069q0 134 -116 134h-123v-313h123q116 0 116 115v64zM616.5 324q210.5 0 302.5 104t92 343v311q0 244 -92 349t-302.5 105t-302.5 -105t-92 -349v-311
q0 -238 92 -342.5t302.5 -104.5zM616.5 257q-232.5 0 -345.5 121t-113 374v348q0 255 113.5 378t346.5 123t343.5 -123t110.5 -378v-348q0 -253 -111.5 -374t-344 -121z" />
    <glyph glyph-name="macron" unicode="&#x2c9;" 
d="M402 1454l9 80h604l-10 -80h-603z" />
    <glyph glyph-name="macron" unicode="&#xaf;" 
d="M402 1454l9 80h604l-10 -80h-603z" />
    <glyph glyph-name="degree" unicode="&#xb0;" 
d="M836 1156q0 268 -220 268q-112 0 -165.5 -65t-53.5 -203v-169q0 -143 53.5 -204t162.5 -61t166 60.5t57 204.5v169zM616 648q-134 0 -217.5 83t-83.5 256v169q0 173 83.5 259t219.5 86t218 -86t82 -259v-169q0 -173 -84 -256t-218 -83z" />
    <glyph glyph-name="plusminus" unicode="&#xb1;" 
d="M490 261l65 532h-434l11 90h434l65 532h90l-66 -532h434l-11 -90h-434l-65 -532h-89zM121 45l11 89h957l-11 -89h-957z" />
    <glyph glyph-name="two.sups" unicode="&#xb2;" 
d="M700 1428q-117 0 -165.5 -36.5t-67.5 -138.5l-83 7q20 127 97 184t229 57t215.5 -61.5t46.5 -192.5l-8 -63q-9 -84 -60 -138t-159 -78l-179 -37q-88 -19 -125 -54t-46 -116l-15 -122h529l-10 -73h-610l24 194q13 104 64 163.5t165 83.5l179 36q88 20 123 54.5t44 108.5
l4 36q13 101 -31 143.5t-161 42.5z" />
    <glyph glyph-name="three.sups" unicode="&#xb3;" 
d="M570 555q-164 0 -226.5 56.5t-56.5 168.5l85 8q-2 -88 35 -123.5t169 -35.5t188.5 44t69.5 148l4 30q11 88 -35.5 126t-169.5 38h-102l9 74h102q110 0 161.5 31t58.5 99l6 38q11 91 -34.5 130t-153.5 39t-158.5 -31.5t-65.5 -107.5l-85 7q22 110 96.5 158.5t220.5 48.5
t211 -56t51 -177l-4 -30q-11 -78 -50.5 -122.5t-94.5 -52.5l-2 -15q63 -6 96.5 -62.5t24.5 -142.5l-4 -26q-17 -136 -99.5 -199t-246.5 -63z" />
    <glyph glyph-name="acute" unicode="&#xb4;" 
d="M566 1303l294 373h144l-364 -373h-74z" />
    <glyph glyph-name="mu1" unicode="&#xb5;" 
d="M447 -19q-152 0 -220 146l-52 -499h-110l60 409l134 1080h91l-93 -756q-19 -141 34 -219t157 -77q104 0 178 36q73 36 137 108l112 908h89l-102 -823q-17 -147 13 -190t132 -24l-9 -86q-108 -14 -159 26t-48 144h-15q-52 -69 -140 -126t-189 -57z" />
    <glyph glyph-name="paragraph" unicode="&#xb6;" 
d="M661 1489h434l-229 -1861h-91l124 1005h-251l-125 -1005h-89l125 1005q-205 0 -307.5 97t-82.5 270l12 97q24 186 150.5 289t329.5 103z" />
    <glyph glyph-name="periodcentered" unicode="&#x2219;" 
d="M602 616q-49 0 -77 24.5t-22 74.5l7 52q12 102 92.5 102t107.5 -25t22 -77l-8 -52q-6 -50 -39.5 -74.5t-82.5 -24.5z" />
    <glyph glyph-name="periodcentered" unicode="&#xb7;" 
d="M602 616q-49 0 -77 24.5t-22 74.5l7 52q12 102 92.5 102t107.5 -25t22 -77l-8 -52q-6 -50 -39.5 -74.5t-82.5 -24.5z" />
    <glyph glyph-name="cedilla" unicode="&#xb8;" 
d="M426 -402q-104 0 -159 47t-49 160l87 7q-2 -74 25 -106t102 -32t113 32t47 109t-19 119q-29 42 -100 66l24 39q97 -20 145 -80t37 -154q-11 -95 -81 -151q-68 -56 -172 -56z" />
    <glyph glyph-name="one.sups" unicode="&#xb9;" 
d="M374 566l10 73h232l90 718h-10q-30 -74 -101.5 -119t-153.5 -46l-2 76q80 4 165 57t120 164h78l-104 -850h211l-10 -73h-525z" />
    <glyph glyph-name="ordmasculine" unicode="&#xba;" 
d="M608.5 680q128.5 0 195.5 63t84 199l26 212q17 141 -34 206.5t-179.5 65.5t-197.5 -65t-86 -207l-26 -212q-17 -136 36 -199t181.5 -63zM598 598q-162 0 -239.5 89t-56.5 255l26 212q20 171 119.5 262.5t261.5 91.5t238.5 -91t56.5 -263l-27 -212q-20 -166 -118.5 -255
t-260.5 -89z" />
    <glyph glyph-name="guillemotright" unicode="&#xbb;" 
d="M575 225l11 99l416 328l-334 327l12 99l413 -410l-4 -33zM63 225l11 99l416 328l-334 327l12 99l411 -410l-4 -33z" />
    <glyph glyph-name="onequarter" unicode="&#xbc;" 
d="M279 -110h356l52 425zM680 -391h-80l26 207h-451l9 74l490 512h104l-63 -512h160l-9 -74h-160zM1186 510l-518 15l8 69l521 13zM-9 510l11 97l542 -13l-8 -69zM365 763l9 73h233l65 532h-11q-28 -74 -99.5 -118.5t-155.5 -46.5v76q82 4 166.5 57t118.5 165h78l-82 -665
h212l-9 -73h-525z" />
    <glyph glyph-name="onehalf" unicode="&#xbd;" 
d="M564 320q-117 0 -164.5 -28.5t-64.5 -109.5l-82 8q17 106 93 154.5t228 48.5t216.5 -52t51.5 -164l-10 -63q-7 -69 -57.5 -112t-156.5 -67l-179 -37q-88 -19 -125 -56t-51 -162h528l-9 -73h-611l19 157q11 89 61.5 137.5t163.5 72.5l179 35q88 20 121 44.5t41 82.5l4 35
q11 80 -34 114.5t-162 34.5zM1186 510l-518 15l8 69l521 13zM-9 510l11 97l542 -13l-8 -69zM365 763l9 73h233l65 532h-11q-28 -74 -99.5 -118.5t-155.5 -46.5v76q82 4 166.5 57t118.5 165h78l-82 -665h212l-9 -73h-525z" />
    <glyph glyph-name="threequarters" unicode="&#xbe;" 
d="M279 -110h356l52 425zM680 -391h-80l26 207h-451l9 74l490 512h104l-63 -512h160l-9 -74h-160zM1186 510l-518 15l8 69l521 13zM-9 510l11 97l542 -13l-8 -69zM610 750q-165 0 -228.5 47.5t-57.5 140.5l82 8q0 -69 38 -95t170 -26t189 32.5t66 112.5l4 30q7 63 -40 91
t-170 28h-101l10 73h100q110 0 159.5 19.5t54.5 63.5l6 38q7 67 -39.5 94.5t-154.5 27.5t-159 -22t-62 -80l-84 8q17 91 91.5 130t221.5 39t213 -44.5t53 -141.5l-4 -30q-6 -58 -45.5 -89.5t-93.5 -39.5l-2 -14q65 -6 99.5 -49.5t24.5 -109.5l-1 -26q-15 -112 -95 -164
t-245 -52z" />
    <glyph glyph-name="questiondown" unicode="&#xbf;" 
d="M538 63q204 0 291 71t128 276l87 -10q-39 -235 -152.5 -327t-354.5 -92t-343.5 100.5t-78.5 302.5l12 85q22 188 167.5 285t478.5 153l9 -73q-287 -48 -416.5 -134t-149.5 -238l-6 -56q-24 -186 50 -264.5t278 -78.5zM824.5 1508q81.5 0 71.5 -99l-6 -52
q-13 -102 -127 -102q-52 0 -80 24t-20 78l5 52q6 50 40.5 74.5t116 24.5z" />
    <glyph glyph-name="Agrave" unicode="&#xc0;" 
d="M920 0l-80 467h-512l-196 -467h-97l639 1489h67l276 -1489h-97zM827 547l-136 790l-330 -790h466zM769 1676l-270 372h145l201 -372h-76z" />
    <glyph glyph-name="Aacute" unicode="&#xc1;" 
d="M920 0l-80 467h-512l-196 -467h-97l639 1489h67l276 -1489h-97zM827 547l-136 790l-330 -790h466zM609 1676l294 372h143l-363 -372h-74z" />
    <glyph glyph-name="Acircumflex" unicode="&#xc2;" 
d="M920 0l-80 467h-512l-196 -467h-97l639 1489h67l276 -1489h-97zM827 547l-136 790l-330 -790h466zM445 1718l-32 47l334 315h59l257 -315l-43 -47l-255 276z" />
    <glyph glyph-name="Atilde" unicode="&#xc3;" 
d="M920 0l-80 467h-512l-196 -467h-97l639 1489h67l276 -1489h-97zM827 547l-136 790l-330 -790h466zM618 1994q-99 0 -126 -261l-4 -20h-75l4 28q40 326 212 326q58 -1 92 -35t65 -125q32 -80 53 -110t49 -30q94 0 127 261l3 20h75l-4 -28q-40 -326 -212 -326q-56 0 -91 36
t-66 124q-32 86 -52 113t-50 27z" />
    <glyph glyph-name="Adieresis" unicode="&#xc4;" 
d="M920 0l-80 467h-512l-196 -467h-97l639 1489h67l276 -1489h-97zM827 547l-136 790l-330 -790h466zM916 1733q-35 0 -57 13t-15 61q7 47 31 62q23 15 59 15q80 0 70 -71q-8 -54 -31 -67q-22 -13 -57 -13zM555 1733q-35 0 -56 13t-14 61q7 47 30 62t58 15q80 0 71 -71
q-8 -54 -31 -67t-58 -13z" />
    <glyph glyph-name="Aring" unicode="&#xc5;" 
d="M920 0l-80 467h-512l-196 -467h-97l639 1489h67l276 -1489h-97zM827 547l-136 790l-330 -790h466zM734 1722q82 0 124 45t56 145l8 71q13 102 -19 149q-32 46 -114 46q-83 0 -125 -46t-55 -149l-8 -71q-13 -102 19 -146t114 -44zM724 1648q-117 0 -170 68t-36 196l7 71
q17 130 87 200t187 70t170 -70t36 -200l-7 -71q-17 -128 -87 -196t-187 -68z" />
    <glyph glyph-name="AE" unicode="&#xc6;" 
d="M631 467h-406l-184 -467h-82l588 1489h700l-9 -81h-402l-71 -568h386l-10 -82h-385l-84 -676h402l-9 -82h-492zM594 1408l-335 -859h381l107 859h-153z" />
    <glyph glyph-name="Ccedilla" unicode="&#xc7;" 
d="M720 1508q208 0 305 -111q96 -111 79 -345l-91 -9q7 215 -58 299t-243 84t-274 -106q-95 -106 -125 -348l-56 -462q-30 -238 39 -342q70 -104 252 -104t273 88t117 287l90 -9q-28 -218 -153 -333q-96 -89 -243 -109q80 -65 67 -171q-12 -107 -82 -163q-69 -56 -173 -56
t-158 47t-50 160l88 7q-2 -74 25 -106t101 -32t113 32q37 32 47 109t-14 111t-61 55q-209 1 -305 131t-64 385l59 488q32 257 159 390q128 133 336 133z" />
    <glyph glyph-name="Egrave" unicode="&#xc8;" 
d="M138 0l182 1489h808l-9 -81h-717l-69 -553h631l-9 -80h-631l-86 -693h717l-9 -82h-808zM786 1676l-270 372h145l201 -372h-76z" />
    <glyph glyph-name="Eacute" unicode="&#xc9;" 
d="M138 0l182 1489h808l-9 -81h-717l-69 -553h631l-9 -80h-631l-86 -693h717l-9 -82h-808zM659 1676l294 372h144l-363 -372h-75z" />
    <glyph glyph-name="Ecircumflex" unicode="&#xca;" 
d="M138 0l182 1489h808l-9 -81h-717l-69 -553h631l-9 -80h-631l-86 -693h717l-9 -82h-808zM477 1718l-32 47l333 315h60l257 -315l-43 -47l-255 276z" />
    <glyph glyph-name="Edieresis" unicode="&#xcb;" 
d="M138 0l182 1489h808l-9 -81h-717l-69 -553h631l-9 -80h-631l-86 -693h717l-9 -82h-808zM948 1733q-35 0 -57 13t-15 61q7 47 31 62t59 15q79 0 69 -71q-8 -54 -30 -67t-57 -13zM586 1733q-35 0 -56 13t-13 61q7 47 29 62t58 15t57 -15t14 -63q-7 -47 -30 -60
q-24 -13 -59 -13z" />
    <glyph glyph-name="Igrave" unicode="&#xcc;" 
d="M138 0l9 82h343l163 1326h-342l9 81h775l-10 -81h-342l-164 -1326h343l-10 -82h-774zM767 1676l-270 372h145l201 -372h-76z" />
    <glyph glyph-name="Iacute" unicode="&#xcd;" 
d="M138 0l9 82h343l163 1326h-342l9 81h775l-10 -81h-342l-164 -1326h343l-10 -82h-774zM607 1676l294 372h143l-363 -372h-74z" />
    <glyph glyph-name="Icircumflex" unicode="&#xce;" 
d="M138 0l9 82h343l163 1326h-342l9 81h775l-10 -81h-342l-164 -1326h343l-10 -82h-774zM443 1718l-32 47l334 315h59l257 -315l-43 -47l-255 276z" />
    <glyph glyph-name="Idieresis" unicode="&#xcf;" 
d="M138 0l9 82h343l163 1326h-342l9 81h775l-10 -81h-342l-164 -1326h343l-10 -82h-774zM914 1733q-35 0 -57 13q-21 13 -16 60t31 62q24 16 60 16q80 0 70 -71q-8 -54 -31 -67q-22 -13 -57 -13zM553 1733q-35 0 -56 13t-14 61q7 47 30 62t59 15q79 0 70 -71q-8 -54 -31 -67
t-58 -13z" />
    <glyph glyph-name="Eth" unicode="&#xd0;" 
d="M484 82q192 0 302 124t134 323l52 424q24 197 -54 326t-270 129h-246l-68 -553h254l-9 -80h-255l-86 -693h246zM657 1489q222 0 329 -146t77 -390l-52 -424q-30 -240 -173.5 -384.5t-362.5 -144.5h-337l95 775h-172l10 80h171l78 634h337z" />
    <glyph glyph-name="Ntilde" unicode="&#xd1;" 
d="M808 0l-424 1303l-161 -1303h-85l182 1489h93l432 -1327l162 1327h88l-183 -1489h-104zM648 1994q-98 0 -127 -261l-3 -20h-75l4 28q40 326 212 326q57 -1 91 -35t65 -125q31 -80 53 -110t50 -30q95 0 126 261l4 20h75l-4 -28q-40 -326 -212 -326q-55 0 -91 36t-66 124
q-30 86 -52 113q-20 27 -50 27z" />
    <glyph glyph-name="Ograve" unicode="&#xd2;" 
d="M531 63q176 0 267 107q90 107 120 340l56 462q30 238 -34 346t-241 108q-176 0 -266 -108t-120 -346l-56 -462q-30 -233 34 -340t240 -107zM223 972q67 536 487 536t355 -536l-56 -462q-67 -529 -486 -529q-422 0 -355 529zM767 1676l-270 372h145l201 -372h-76z" />
    <glyph glyph-name="Oacute" unicode="&#xd3;" 
d="M531 63q176 0 267 107q90 107 120 340l56 462q30 238 -34 346t-241 108q-176 0 -266 -108t-120 -346l-56 -462q-30 -233 34 -340t240 -107zM223 972q67 536 487 536t355 -536l-56 -462q-67 -529 -486 -529q-422 0 -355 529zM674 1676l294 372h144l-364 -372h-74z" />
    <glyph glyph-name="Ocircumflex" unicode="&#xd4;" 
d="M531 63q176 0 267 107q90 107 120 340l56 462q30 238 -34 346t-241 108q-176 0 -266 -108t-120 -346l-56 -462q-30 -233 34 -340t240 -107zM223 972q67 536 487 536t355 -536l-56 -462q-67 -529 -486 -529q-422 0 -355 529zM443 1718l-32 47l334 315h59l257 -315l-43 -47
l-255 276z" />
    <glyph glyph-name="Otilde" unicode="&#xd5;" 
d="M531 63q176 0 267 107q90 107 120 340l56 462q30 238 -34 346t-241 108q-176 0 -266 -108t-120 -346l-56 -462q-30 -233 34 -340t240 -107zM223 972q67 536 487 536t355 -536l-56 -462q-67 -529 -486 -529q-422 0 -355 529zM616 1994q-99 0 -126 -261l-4 -20h-75l4 28
q40 326 212 326q58 -1 92 -35t65 -125q32 -80 53 -110t49 -30q94 0 127 261l4 20h74l-4 -28q-40 -326 -212 -326q-56 0 -91 36t-66 124q-31 86 -51 113t-51 27z" />
    <glyph glyph-name="Odieresis" unicode="&#xd6;" 
d="M531 63q176 0 267 107q90 107 120 340l56 462q30 238 -34 346t-241 108q-176 0 -266 -108t-120 -346l-56 -462q-30 -233 34 -340t240 -107zM223 972q67 536 487 536t355 -536l-56 -462q-67 -529 -486 -529q-422 0 -355 529zM914 1733q-35 0 -57 13q-21 13 -16 60t31 62
q24 16 60 16q80 0 70 -71q-8 -54 -31 -67q-22 -13 -57 -13zM553 1733q-35 0 -56 13t-14 61q7 47 30 62t59 15q79 0 70 -71q-8 -54 -31 -67t-58 -13z" />
    <glyph glyph-name="multiply" unicode="&#xd7;" 
d="M149 117l-54 58l451 477l-336 476l69 58l334 -475l448 468l54 -60l-450 -467l335 -468l-69 -57l-333 465z" />
    <glyph glyph-name="Oslash" unicode="&#xd8;" 
d="M523 -19q-142 0 -225 58l-88 -177h-91l116 231q-105 131 -67 423l55 450q67 542 488 542q123 0 198 -43l78 162h91l-102 -208q127 -127 89 -453l-56 -450q-34 -274 -155.5 -404.5t-330.5 -130.5zM532 63q179 0 267.5 104.5t118.5 348.5l56 450q34 271 -43 373l-594 -1224
q68 -52 195 -52zM869 1391q-63 35 -169 35q-179 0 -268 -106t-119 -354l-56 -450q-30 -229 24 -337z" />
    <glyph glyph-name="Ugrave" unicode="&#xd9;" 
d="M523 -19q-197 1 -276 131t-48 391l121 986h91l-121 -986q-28 -231 28 -335t214 -104t240 104t111 335l121 986h91l-121 -986q-32 -261 -143 -391t-308 -131zM767 1676l-270 372h145l201 -372h-76z" />
    <glyph glyph-name="Uacute" unicode="&#xda;" 
d="M523 -19q-197 1 -276 131t-48 391l121 986h91l-121 -986q-28 -231 28 -335t214 -104t240 104t111 335l121 986h91l-121 -986q-32 -261 -143 -391t-308 -131zM607 1676l294 372h143l-363 -372h-74z" />
    <glyph glyph-name="Ucircumflex" unicode="&#xdb;" 
d="M523 -19q-197 1 -276 131t-48 391l121 986h91l-121 -986q-28 -231 28 -335t214 -104t240 104t111 335l121 986h91l-121 -986q-32 -261 -143 -391t-308 -131zM443 1718l-32 47l334 315h59l257 -315l-43 -47l-255 276z" />
    <glyph glyph-name="Udieresis" unicode="&#xdc;" 
d="M523 -19q-197 1 -276 131t-48 391l121 986h91l-121 -986q-28 -231 28 -335t214 -104t240 104t111 335l121 986h91l-121 -986q-32 -261 -143 -391t-308 -131zM914 1733q-35 0 -57 13q-21 13 -16 60t31 62q24 16 60 16q80 0 70 -71q-8 -54 -31 -67q-22 -13 -57 -13z
M553 1733q-35 0 -56 13t-14 61q7 47 30 62t59 15q79 0 70 -71q-8 -54 -31 -67t-58 -13z" />
    <glyph glyph-name="Yacute" unicode="&#xdd;" 
d="M570 0h-90l69 559l-376 930h99l333 -837l531 837h104l-601 -930zM607 1676l294 372h143l-363 -372h-74z" />
    <glyph glyph-name="Thorn" unicode="&#xde;" 
d="M622 361q156 0 235 74.5t100 247.5l20 172q20 168 -40 239t-216 71h-349l-98 -804h348zM732 1247q188 0 273.5 -100.5t61.5 -291.5l-21 -172q-24 -195 -135.5 -299.5t-299.5 -104.5h-348l-34 -279h-91l182 1489h91l-29 -242h350z" />
    <glyph glyph-name="germandbls" unicode="&#xdf;" 
d="M892 1093q38 329 -268 329t-350 -361l-177 -1433h-91l180 1457q22 195 142.5 307t305.5 112t279 -108.5t70 -298.5l-9 -79q-372 0 -396 -197q-12 -97 38.5 -142.5t206.5 -87.5t218.5 -111.5t46.5 -199.5t-116.5 -210.5t-249.5 -80.5q-97 0 -181.5 34.5t-140.5 95.5l56 71
q115 -119 276 -119q240 0 266 210q11 95 -35.5 142.5t-202.5 90.5t-221.5 110t-50.5 188t128.5 197t275.5 84z" />
    <glyph glyph-name="agrave" unicode="&#xe0;" 
d="M449 590h363l26 218q13 106 -46 176t-188 70t-193 -46t-115 -168l-78 24q60 145 151 208q91 64 250 64t244 -87t66 -239l-63 -518q-17 -145 21 -189t157 -21l-9 -86q-242 -39 -240 177h-17q-134 -192 -388 -192q-134 0 -211 85q-79 86 -61 228t104 219t227 77zM408 58
q114 0 199 43q84 43 160 134l35 279h-361q-97 0 -161 -45t-78 -162t39 -183t167 -66zM693 1303l-270 373h145l201 -373h-76z" />
    <glyph glyph-name="aacute" unicode="&#xe1;" 
d="M449 590h363l26 218q13 106 -46 176t-188 70t-193 -46t-115 -168l-78 24q60 145 151 208q91 64 250 64t244 -87t66 -239l-63 -518q-17 -145 21 -189t157 -21l-9 -86q-242 -39 -240 177h-17q-134 -192 -388 -192q-134 0 -211 85q-79 86 -61 228t104 219t227 77zM408 58
q114 0 199 43q84 43 160 134l35 279h-361q-97 0 -161 -45t-78 -162t39 -183t167 -66zM532 1303l295 373h143l-363 -373h-75z" />
    <glyph glyph-name="acircumflex" unicode="&#xe2;" 
d="M449 590h363l26 218q13 106 -46 176t-188 70t-193 -46t-115 -168l-78 24q60 145 151 208q91 64 250 64t244 -87t66 -239l-63 -518q-17 -145 21 -189t157 -21l-9 -86q-242 -39 -240 177h-17q-134 -192 -388 -192q-134 0 -211 85q-79 86 -61 228t104 219t227 77zM408 58
q114 0 199 43q84 43 160 134l35 279h-361q-97 0 -161 -45t-78 -162t39 -183t167 -66zM385 1346l-31 47l333 314h60l257 -314l-43 -47l-255 276z" />
    <glyph glyph-name="atilde" unicode="&#xe3;" 
d="M449 590h363l26 218q13 106 -46 176t-188 70t-193 -46t-115 -168l-78 24q60 145 151 208q91 64 250 64t244 -87t66 -239l-63 -518q-17 -145 21 -189t157 -21l-9 -86q-242 -39 -240 177h-17q-134 -192 -388 -192q-134 0 -211 85q-79 86 -61 228t104 219t227 77zM408 58
q114 0 199 43q84 43 160 134l35 279h-361q-97 0 -161 -45t-78 -162t39 -183t167 -66zM542 1622q-98 0 -127 -261l-4 -20h-74l4 27q40 326 212 326q57 0 91 -34t65 -126q32 -80 53 -110t50 -29q95 0 126 260l4 21h75l-4 -28q-40 -326 -212 -326q-56 0 -92 36q-35 36 -65 122
t-52 114q-20 28 -50 28z" />
    <glyph glyph-name="adieresis" unicode="&#xe4;" 
d="M449 590h363l26 218q13 106 -46 176t-188 70t-193 -46t-115 -168l-78 24q60 145 151 208q91 64 250 64t244 -87t66 -239l-63 -518q-17 -145 21 -189t157 -21l-9 -86q-242 -39 -240 177h-17q-134 -192 -388 -192q-134 0 -211 85q-79 86 -61 228t104 219t227 77zM408 58
q114 0 199 43q84 43 160 134l35 279h-361q-97 0 -161 -45t-78 -162t39 -183t167 -66zM840 1361q-35 0 -57 13t-15 61q7 47 31 62t59 15q79 0 69 -71q-8 -54 -30 -67t-57 -13zM478 1361q-35 0 -56 13t-13 61q7 47 29 62t58 15t57 -15t14 -63q-7 -47 -30 -60q-24 -13 -59 -13z
" />
    <glyph glyph-name="aring" unicode="&#xe5;" 
d="M449 590h363l26 218q13 106 -46 176t-188 70t-193 -46t-115 -168l-78 24q60 145 151 208q91 64 250 64t244 -87t66 -239l-63 -518q-17 -145 21 -189t157 -21l-9 -86q-242 -39 -240 177h-17q-134 -192 -388 -192q-134 0 -211 85q-79 86 -61 228t104 219t227 77zM408 58
q114 0 199 43q84 43 160 134l35 279h-361q-97 0 -161 -45t-78 -162t39 -183t167 -66zM657 1350q82 0 125 45t56 145l7 70q13 102 -18 149q-32 47 -114 47t-125 -47t-56 -149l-7 -70q-13 -102 19 -146t113 -44zM648 1275q-117 0 -170 68t-37 197l8 70q17 130 86 201
q70 69 187 69t171 -69q53 -70 36 -201l-7 -70q-17 -128 -87 -196t-187 -69z" />
    <glyph glyph-name="ae" unicode="&#xe6;" 
d="M350 512q-186 0 -213 -216q-29 -239 144 -238q125 0 231 124l41 330h-203zM893 1054q-184 0 -221 -278l-19 -149h373l17 133q19 155 -19.5 224.5t-130.5 69.5zM441 1136q88 0 147.5 -46.5t66.5 -130.5q35 80 105 128.5t145 48.5q125 0 188 -91.5t39 -281.5l-26 -214h-462
l-26 -216q-17 -143 20.5 -206.5t129.5 -63.5t136 39t77 146l78 -21q-39 -125 -107 -185.5t-187 -60.5q-162 0 -210 162h-11q-128 -162 -287 -162q-114 0 -170.5 83.5t-40.5 223.5t94 219t184 79h238l23 194q17 127 -21 200.5t-128 73.5t-131 -40t-80 -139l-74 26
q73 235 290 235z" />
    <glyph glyph-name="ccedilla" unicode="&#xe7;" 
d="M682 1136q194 0 274 -82q81 -82 74 -253l-90 -8q6 145 -54 203t-217 58t-244 -81t-108 -254l-40 -328q-20 -168 48 -249q67 -81 227 -81q160 -1 232 49t95 177l85 -8q-28 -155 -129 -226q-82 -58 -219 -69q74 -63 63 -168q-12 -106 -82 -162q-69 -56 -173 -56t-159 47
t-49 160l87 7q-3 -74 25 -106t102 -32t113 32q38 32 47 109t-15 112t-62 55q-175 8 -263 109t-64 300l39 328q27 203 145 310t312 107z" />
    <glyph glyph-name="egrave" unicode="&#xe8;" 
d="M654 1054q-148 0 -232 -82t-105 -253l-12 -92h592l10 75q22 184 -42 268q-63 84 -211 84zM515 -19q-173 1 -263 105t-66 307l39 326q26 209 147 313q122 104 296 104t266 -106t66 -324l-21 -157h-683l-19 -158q-22 -173 43 -250q64 -77 206 -77t208 42q65 43 111 143
l86 -27q-58 -127 -151 -184t-265 -57zM728 1303l-270 373h145l201 -373h-76z" />
    <glyph glyph-name="eacute" unicode="&#xe9;" 
d="M654 1054q-148 0 -232 -82t-105 -253l-12 -92h592l10 75q22 184 -42 268q-63 84 -211 84zM515 -19q-173 1 -263 105t-66 307l39 326q26 209 147 313q122 104 296 104t266 -106t66 -324l-21 -157h-683l-19 -158q-22 -173 43 -250q64 -77 206 -77t208 42q65 43 111 143
l86 -27q-58 -127 -151 -184t-265 -57zM570 1303l294 373h143l-363 -373h-74z" />
    <glyph glyph-name="ecircumflex" unicode="&#xea;" 
d="M654 1054q-148 0 -232 -82t-105 -253l-12 -92h592l10 75q22 184 -42 268q-63 84 -211 84zM515 -19q-173 1 -263 105t-66 307l39 326q26 209 147 313q122 104 296 104t266 -106t66 -324l-21 -157h-683l-19 -158q-22 -173 43 -250q64 -77 206 -77t208 42q65 43 111 143
l86 -27q-58 -127 -151 -184t-265 -57zM404 1346l-32 47l334 314h59l257 -314l-43 -47l-255 276z" />
    <glyph glyph-name="edieresis" unicode="&#xeb;" 
d="M654 1054q-148 0 -232 -82t-105 -253l-12 -92h592l10 75q22 184 -42 268q-63 84 -211 84zM515 -19q-173 1 -263 105t-66 307l39 326q26 209 147 313q122 104 296 104t266 -106t66 -324l-21 -157h-683l-19 -158q-22 -173 43 -250q64 -77 206 -77t208 42q65 43 111 143
l86 -27q-58 -127 -151 -184t-265 -57zM875 1361q-35 0 -57 13t-15 61q7 47 31 62t60 15q80 0 69 -71q-8 -54 -31 -67q-22 -13 -57 -13zM514 1361q-35 0 -56 13t-14 61q7 47 30 62t58 15q80 0 71 -71q-8 -54 -31 -67t-58 -13z" />
    <glyph glyph-name="igrave.salt_serifs" unicode="&#xe025;" 
d="M579 82h376l-9 -82h-466l127 1035h-376l11 82h465zM685 1303l-270 373h145l201 -373h-76z" />
    <glyph glyph-name="igrave.salt_serifs" unicode="&#xec;" 
d="M579 82h376l-9 -82h-466l127 1035h-376l11 82h465zM685 1303l-270 373h145l201 -373h-76z" />
    <glyph glyph-name="iacute.salt_serifs" unicode="&#xe026;" 
d="M579 82h376l-9 -82h-466l127 1035h-376l11 82h465zM525 1303l294 373h144l-363 -373h-75z" />
    <glyph glyph-name="iacute.salt_serifs" unicode="&#xed;" 
d="M579 82h376l-9 -82h-466l127 1035h-376l11 82h465zM525 1303l294 373h144l-363 -373h-75z" />
    <glyph glyph-name="icircumflex.salt_serifs" unicode="&#xe027;" 
d="M579 82h376l-9 -82h-466l127 1035h-376l11 82h465zM361 1346l-31 47l333 314h59l257 -314l-43 -47l-255 276z" />
    <glyph glyph-name="icircumflex.salt_serifs" unicode="&#xee;" 
d="M579 82h376l-9 -82h-466l127 1035h-376l11 82h465zM361 1346l-31 47l333 314h59l257 -314l-43 -47l-255 276z" />
    <glyph glyph-name="idieresis.salt_serifs" unicode="&#xe028;" 
d="M579 82h376l-9 -82h-466l127 1035h-376l11 82h465zM832 1361q-35 0 -57 13q-21 13 -16 60t31 62q24 16 60 16q80 0 70 -71q-8 -54 -31 -67q-22 -13 -57 -13zM490 1512q80 0 70 -71q-4 -52 -29 -66t-60 -14t-56 13t-14 61q7 47 30 62t59 15z" />
    <glyph glyph-name="idieresis.salt_serifs" unicode="&#xef;" 
d="M579 82h376l-9 -82h-466l127 1035h-376l11 82h465zM832 1361q-35 0 -57 13q-21 13 -16 60t31 62q24 16 60 16q80 0 70 -71q-8 -54 -31 -67q-22 -13 -57 -13zM490 1512q80 0 70 -71q-4 -52 -29 -66t-60 -14t-56 13t-14 61q7 47 30 62t59 15z" />
    <glyph glyph-name="eth" unicode="&#xf0;" 
d="M534.5 63q154.5 0 234.5 80t100 257l17 129q20 168 -40 243t-214.5 75t-234 -75.5t-99.5 -242.5l-17 -129q-20 -177 39.5 -257t214 -80zM523 -19q-179 0 -270 105.5t-65 317.5l17 145q22 175 140.5 278.5t287.5 103.5q119 0 191.5 -46.5t95.5 -109.5h11q22 264 -84 439
l-322 -151l9 73l274 128q-105 134 -328 196l36 69q249 -72 367 -229l288 135l-9 -72l-246 -116q126 -204 82 -545l-35 -287q-26 -222 -143.5 -328t-296.5 -106z" />
    <glyph glyph-name="ntilde" unicode="&#xf1;" 
d="M726 1136q149 0 225 -94t58 -256l-97 -786h-91l95 767q17 141 -38 213t-161 72q-210 0 -382 -190l-106 -862h-91l138 1117h91l-23 -173h17q59 88 159 140t206 52zM611 1622q-98 0 -127 -261l-4 -20h-74l4 27q40 326 212 326q58 0 92 -34t64 -126q32 -80 53 -110t50 -29
q95 0 126 260l4 21h74l-3 -28q-40 -326 -213 -326q-56 0 -91 36t-66 122t-51 114t-50 28z" />
    <glyph glyph-name="ograve" unicode="&#xf2;" 
d="M532 63q151 0 234 80t103 248l40 328q22 171 -41 253q-62 82 -214 82t-234 -82t-103 -253l-40 -328q-20 -168 42 -248t213 -80zM523 -19q-186 1 -274 107t-63 303l39 328q26 201 141 309t300 108q184 0 272 -108t62 -309l-39 -328q-24 -197 -138 -303t-300 -107z
M726 1303l-270 373h145l201 -373h-76z" />
    <glyph glyph-name="oacute" unicode="&#xf3;" 
d="M532 63q151 0 234 80t103 248l40 328q22 171 -41 253q-62 82 -214 82t-234 -82t-103 -253l-40 -328q-20 -168 42 -248t213 -80zM523 -19q-186 1 -274 107t-63 303l39 328q26 201 141 309t300 108q184 0 272 -108t62 -309l-39 -328q-24 -197 -138 -303t-300 -107z
M566 1303l294 373h144l-364 -373h-74z" />
    <glyph glyph-name="ocircumflex" unicode="&#xf4;" 
d="M532 63q151 0 234 80t103 248l40 328q22 171 -41 253q-62 82 -214 82t-234 -82t-103 -253l-40 -328q-20 -168 42 -248t213 -80zM523 -19q-186 1 -274 107t-63 303l39 328q26 201 141 309t300 108q184 0 272 -108t62 -309l-39 -328q-24 -197 -138 -303t-300 -107z
M402 1346l-31 47l333 314h59l257 -314l-43 -47l-255 276z" />
    <glyph glyph-name="otilde" unicode="&#xf5;" 
d="M532 63q151 0 234 80t103 248l40 328q22 171 -41 253q-62 82 -214 82t-234 -82t-103 -253l-40 -328q-20 -168 42 -248t213 -80zM523 -19q-186 1 -274 107t-63 303l39 328q26 201 141 309t300 108q184 0 272 -108t62 -309l-39 -328q-24 -197 -138 -303t-300 -107z
M575 1622q-99 0 -126 -261l-4 -20h-74l3 27q40 326 212 326q58 0 92 -34t65 -126q32 -80 53 -110t49 -29q94 0 127 260l4 21h74l-4 -28q-40 -326 -212 -326q-56 0 -91 36t-66 122t-51 114t-51 28z" />
    <glyph glyph-name="odieresis" unicode="&#xf6;" 
d="M532 63q151 0 234 80t103 248l40 328q22 171 -41 253q-62 82 -214 82t-234 -82t-103 -253l-40 -328q-20 -168 42 -248t213 -80zM523 -19q-186 1 -274 107t-63 303l39 328q26 201 141 309t300 108q184 0 272 -108t62 -309l-39 -328q-24 -197 -138 -303t-300 -107z
M873 1361q-35 0 -57 13q-21 13 -16 60t31 62q25 16 61 16q80 0 69 -71q-8 -54 -31 -67q-22 -13 -57 -13zM531 1512q79 0 70 -71q-4 -52 -29 -66t-60 -14t-56 13t-14 61q7 47 30 62t59 15z" />
    <glyph glyph-name="divide" unicode="&#xf7;" 
d="M566.5 88q-80.5 0 -111.5 19.5t-25 60.5l4 31q12 84 125 84q114 0 104 -84l-4 -31q-12 -80 -92.5 -80zM121 607l11 89h957l-11 -89h-957zM675 1214q111 0 103 -84l-5 -32q-8 -80 -90.5 -80t-112.5 20t-26 60l5 32q4 43 39.5 63.5t86.5 20.5z" />
    <glyph glyph-name="oslash" unicode="&#xf8;" 
d="M667 1136q115 0 195 -45l99 164h83l-122 -207q107 -111 78 -329l-39 -328q-26 -209 -142.5 -309.5t-295.5 -100.5q-117 0 -197 45l-97 -164h-84l121 205q-109 109 -80 324l39 328q26 210 144.5 313.5t297.5 103.5zM372 99q53 -36 180 -36t211 76.5t106 251.5l40 328
q21 162 -38 249zM653 1054q-147 0 -230.5 -81t-105.5 -254l-40 -328q-21 -166 40 -246l500 870q-66 39 -164 39z" />
    <glyph glyph-name="ugrave" unicode="&#xf9;" 
d="M466 63q208 0 387 192l106 862h91l-138 -1117h-91l21 173h-17q-148 -192 -363 -192q-147 0 -225 99q-77 99 -56 264l95 773h91l-91 -743q-19 -153 33 -232t157 -79zM678 1303l-270 373h145l201 -373h-76z" />
    <glyph glyph-name="uacute" unicode="&#xfa;" 
d="M466 63q208 0 387 192l106 862h91l-138 -1117h-91l21 173h-17q-148 -192 -363 -192q-147 0 -225 99q-77 99 -56 264l95 773h91l-91 -743q-19 -153 33 -232t157 -79zM635 1303l294 373h143l-363 -373h-74z" />
    <glyph glyph-name="ucircumflex" unicode="&#xfb;" 
d="M466 63q208 0 387 192l106 862h91l-138 -1117h-91l21 173h-17q-148 -192 -363 -192q-147 0 -225 99q-77 99 -56 264l95 773h91l-91 -743q-19 -153 33 -232t157 -79zM404 1346l-32 47l334 314h59l257 -314l-43 -47l-255 276z" />
    <glyph glyph-name="udieresis" unicode="&#xfc;" 
d="M466 63q208 0 387 192l106 862h91l-138 -1117h-91l21 173h-17q-148 -192 -363 -192q-147 0 -225 99q-77 99 -56 264l95 773h91l-91 -743q-19 -153 33 -232t157 -79zM875 1361q-35 0 -57 13t-15 61q7 47 31 62t60 15q80 0 69 -71q-8 -54 -31 -67q-22 -13 -57 -13z
M514 1361q-35 0 -56 13t-14 61q7 47 30 62t58 15q80 0 71 -71q-8 -54 -31 -67t-58 -13z" />
    <glyph glyph-name="yacute" unicode="&#xfd;" 
d="M179 -384q-51 0 -123 13l22 82q71 -15 142 -15q72 1 128 48t119 182l34 74h-23l-245 1117h89l220 -1020l458 1020h93l-551 -1214q-72 -155 -156 -221t-207 -66zM566 1303l294 373h144l-364 -373h-74z" />
    <glyph glyph-name="thorn" unicode="&#xfe;" 
d="M510 -19q-145 0 -275 66l-53 -419h-91l229 1861h91l-67 -545h17q60 95 156 143.5t204 48.5q155 0 230 -109t51 -303l-41 -329q-24 -194 -143.5 -304t-307.5 -110zM714 1054q-113 0 -200.5 -45.5t-178.5 -146.5l-89 -721q121 -81 275 -81q155 0 241.5 82.5t106.5 255.5
l41 328q39 328 -196 328z" />
    <glyph glyph-name="ydieresis" unicode="&#xff;" 
d="M179 -384q-51 0 -123 13l22 82q71 -15 142 -15q72 1 128 48t119 182l34 74h-23l-245 1117h89l220 -1020l458 1020h93l-551 -1214q-72 -155 -156 -221t-207 -66zM873 1361q-35 0 -57 13q-21 13 -16 60t31 62q25 16 61 16q80 0 69 -71q-8 -54 -31 -67q-22 -13 -57 -13z
M531 1512q79 0 70 -71q-4 -52 -29 -66t-60 -14t-56 13t-14 61q7 47 30 62t59 15z" />
    <glyph glyph-name="Amacron" unicode="&#x100;" 
d="M920 0l-80 467h-512l-196 -467h-97l639 1489h67l276 -1489h-97zM827 547l-136 790l-330 -790h466zM445 1826l9 81h604l-10 -81h-603z" />
    <glyph glyph-name="amacron" unicode="&#x101;" 
d="M449 590h363l26 218q13 106 -46 176t-188 70t-193 -46t-115 -168l-78 24q60 145 151 208q91 64 250 64t244 -87t66 -239l-63 -518q-17 -145 21 -189t157 -21l-9 -86q-242 -39 -240 177h-17q-134 -192 -388 -192q-134 0 -211 85q-79 86 -61 228t104 219t227 77zM408 58
q114 0 199 43q84 43 160 134l35 279h-361q-97 0 -161 -45t-78 -162t39 -183t167 -66zM369 1454l9 80h603l-9 -80h-603z" />
    <glyph glyph-name="Abreve" unicode="&#x102;" 
d="M920 0l-80 467h-512l-196 -467h-97l639 1489h67l276 -1489h-97zM827 547l-136 790l-330 -790h466zM726 1663q-168 -1 -245 99t-55 288h92q-19 -162 33 -234t184 -72t203 72t93 234h92q-25 -188 -127 -288t-270 -99z" />
    <glyph glyph-name="abreve" unicode="&#x103;" 
d="M449 590h363l26 218q13 106 -46 176t-188 70t-193 -46t-115 -168l-78 24q60 145 151 208q91 64 250 64t244 -87t66 -239l-63 -518q-17 -145 21 -189t157 -21l-9 -86q-242 -39 -240 177h-17q-134 -192 -388 -192q-134 0 -211 85q-79 86 -61 228t104 219t227 77zM408 58
q114 0 199 43q84 43 160 134l35 279h-361q-97 0 -161 -45t-78 -162t39 -183t167 -66zM650 1290q-168 0 -245 100t-55 287h91q-19 -161 33 -233t185 -72q132 0 203 72t93 233h91q-26 -187 -127 -287t-269 -100z" />
    <glyph glyph-name="Aogonek" unicode="&#x104;" 
d="M827 547l-136 790l-330 -790h466zM862 -284q30 -34 103 -34t135 15l-9 -82q-73 -15 -157 -15q-85 0 -141 56t-46 142q16 138 168 230l-75 439h-512l-196 -467h-97l639 1489h67l276 -1489h-73q-90 -74 -101 -161q-10 -88 19 -123z" />
    <glyph glyph-name="aogonek" unicode="&#x105;" 
d="M449 590h363l26 218q13 106 -46 176t-188 70t-193 -46t-115 -168l-78 24q60 145 151 208q91 64 250 64t244 -87t66 -239l-63 -518q-17 -145 21 -189t157 -21l-9 -86q-82 -13 -136 4q-31 -28 -63 -68t-40 -110t21 -106q30 -34 103 -34t136 15l-10 -82q-82 -17 -141 -15
q-101 0 -157 56t-46 142q16 133 154 221l-1 1q-61 43 -60 153h-17q-134 -192 -388 -192q-134 0 -211 85q-79 86 -61 228t104 219t227 77zM408 58q114 0 199 43q84 43 160 134l35 279h-361q-97 0 -161 -45t-78 -162t39 -183t167 -66z" />
    <glyph glyph-name="Cacute" unicode="&#x106;" 
d="M538 -19q-212 1 -308 131t-64 385l59 488q32 257 159 390q128 133 336 133t305 -111q96 -111 79 -345l-91 -9q7 215 -58 299t-243 84t-274 -106q-95 -106 -125 -348l-56 -462q-30 -238 39 -342q70 -104 252 -104t273 88t117 287l90 -9q-28 -218 -153 -334t-337 -115z
M691 1676l294 372h143l-363 -372h-74z" />
    <glyph glyph-name="cacute" unicode="&#x107;" 
d="M540 -19q-194 -1 -286 105t-68 305l39 328q27 203 145 310t312 107t274 -82q81 -82 74 -253l-90 -8q6 145 -54 203t-217 58t-244 -81t-108 -254l-40 -328q-20 -168 48 -249q67 -81 227 -81q160 -1 232 49t95 177l85 -8q-28 -155 -130 -227q-100 -72 -294 -71zM581 1303
l294 373h143l-363 -373h-74z" />
    <glyph glyph-name="Ccircumflex" unicode="&#x108;" 
d="M538 -19q-212 1 -308 131t-64 385l59 488q32 257 159 390q128 133 336 133t305 -111q96 -111 79 -345l-91 -9q7 215 -58 299t-243 84t-274 -106q-95 -106 -125 -348l-56 -462q-30 -238 39 -342q70 -104 252 -104t273 88t117 287l90 -9q-28 -218 -153 -334t-337 -115z
M462 1718l-32 47l333 315h60l257 -315l-43 -47l-255 276z" />
    <glyph glyph-name="ccircumflex" unicode="&#x109;" 
d="M540 -19q-194 -1 -286 105t-68 305l39 328q27 203 145 310t312 107t274 -82q81 -82 74 -253l-90 -8q6 145 -54 203t-217 58t-244 -81t-108 -254l-40 -328q-20 -168 48 -249q67 -81 227 -81q160 -1 232 49t95 177l85 -8q-28 -155 -130 -227q-100 -72 -294 -71zM428 1346
l-31 47l333 314h59l257 -314l-42 -47l-256 276z" />
    <glyph glyph-name="Cdotaccent" unicode="&#x10a;" 
d="M538 -19q-212 1 -308 131t-64 385l59 488q32 257 159 390q128 133 336 133t305 -111q96 -111 79 -345l-91 -9q7 215 -58 299t-243 84t-274 -106q-95 -106 -125 -348l-56 -462q-30 -238 39 -342q70 -104 252 -104t273 88t117 287l90 -9q-28 -218 -153 -334t-337 -115z
M771 1884q41 0 64 -15t14 -69q-7 -67 -98 -67q-40 0 -63 15t-17 60q7 46 33 61t67 15z" />
    <glyph glyph-name="cdotaccent" unicode="&#x10b;" 
d="M540 -19q-194 -1 -286 105t-68 305l39 328q27 203 145 310t312 107t274 -82q81 -82 74 -253l-90 -8q6 145 -54 203t-217 58t-244 -81t-108 -254l-40 -328q-20 -168 48 -249q67 -81 227 -81q160 -1 232 49t95 177l85 -8q-28 -155 -130 -227q-100 -72 -294 -71zM722 1512
q42 0 64 -15t16 -56l-1 -13q-7 -67 -98 -67q-40 0 -63 15t-17 60q7 46 33 61t66 15z" />
    <glyph glyph-name="Ccaron" unicode="&#x10c;" 
d="M538 -19q-212 1 -308 131t-64 385l59 488q32 257 159 390q128 133 336 133t305 -111q96 -111 79 -345l-91 -9q7 215 -58 299t-243 84t-274 -106q-95 -106 -125 -348l-56 -462q-30 -238 39 -342q70 -104 252 -104t273 88t117 287l90 -9q-28 -218 -153 -334t-337 -115z
M715 1683l-257 315l43 46l255 -275l320 275l32 -46l-333 -315h-60z" />
    <glyph glyph-name="ccaron" unicode="&#x10d;" 
d="M540 -19q-194 -1 -286 105t-68 305l39 328q27 203 145 310t312 107t274 -82q81 -82 74 -253l-90 -8q6 145 -54 203t-217 58t-244 -81t-108 -254l-40 -328q-20 -168 48 -249q67 -81 227 -81q160 -1 232 49t95 177l85 -8q-28 -155 -130 -227q-100 -72 -294 -71zM667 1311
l-257 314l42 47l255 -276l321 276l31 -47l-333 -314h-59z" />
    <glyph glyph-name="Dcaron" unicode="&#x10e;" 
d="M484 82q192 0 302 124t134 323l52 424q24 197 -54 325t-270 130h-246l-164 -1326h246zM657 1489q222 0 329 -146t77 -390l-52 -424q-30 -241 -173 -385t-363 -144h-337l182 1489h337zM696 1683l-257 315l43 46l255 -275l321 275l31 -46l-333 -315h-60z" />
    <glyph glyph-name="dcaron" unicode="&#x10f;" 
d="M680 1136q131 0 273 -65l51 418h91l-183 -1489h-91l21 162h-17q-58 -80 -154 -130t-207 -51q-158 1 -230 107t-48 305l41 329q22 190 144 302t309 112zM668 1058q-151 0 -241 -86t-110 -253l-40 -326q-22 -173 29 -252q52 -78 166 -78t202 46q86 46 179 146l89 724
q-123 79 -274 79zM1292 1408l196 454h121l-242 -454h-75z" />
    <glyph glyph-name="Dcroat" unicode="&#x110;" 
d="M484 82q192 0 302 124t134 323l52 424q24 197 -54 326t-270 129h-246l-68 -553h254l-9 -80h-255l-86 -693h246zM657 1489q222 0 329 -146t77 -390l-52 -424q-30 -240 -173.5 -384.5t-362.5 -144.5h-337l95 775h-172l10 80h171l78 634h337z" />
    <glyph glyph-name="dcroat" unicode="&#x111;" 
d="M668 1043q136 0 272 -67l30 234h-341l10 82h340l25 197h91l-24 -197h169l-9 -82h-170l-149 -1210h-91l21 160h-17q-144 -179 -367 -179q-155 0 -226.5 98t-49.5 282l38 300q20 181 137.5 281.5t310.5 100.5zM472 63q114 0 201 46t180 146l76 629q-123 80 -277 80
q-155 0 -238.5 -75t-104.5 -232l-35 -296q-37 -298 198 -298z" />
    <glyph glyph-name="Emacron" unicode="&#x112;" 
d="M138 0l182 1489h808l-9 -81h-717l-69 -553h631l-9 -80h-631l-86 -693h717l-9 -82h-808zM477 1826l9 81h603l-9 -81h-603z" />
    <glyph glyph-name="emacron" unicode="&#x113;" 
d="M654 1054q-148 0 -232 -82t-105 -253l-12 -92h592l10 75q22 184 -42 268q-63 84 -211 84zM515 -19q-173 1 -263 105t-66 307l39 326q26 209 147 313q122 104 296 104t266 -106t66 -324l-21 -157h-683l-19 -158q-22 -173 43 -250q64 -77 206 -77t208 42q65 43 111 143
l86 -27q-58 -127 -151 -184t-265 -57zM404 1454l9 80h604l-10 -80h-603z" />
    <glyph glyph-name="Ebreve" unicode="&#x114;" 
d="M138 0l182 1489h808l-9 -81h-717l-69 -553h631l-9 -80h-631l-86 -693h717l-9 -82h-808zM758 1663q-168 -1 -245 99t-55 288h91q-19 -162 33 -234t185 -72q132 0 203 72t93 234h91q-26 -188 -127 -288t-269 -99z" />
    <glyph glyph-name="ebreve" unicode="&#x115;" 
d="M654 1054q-148 0 -232 -82t-105 -253l-12 -92h592l10 75q22 184 -42 268q-63 84 -211 84zM515 -19q-173 1 -263 105t-66 307l39 326q26 209 147 313q122 104 296 104t266 -106t66 -324l-21 -157h-683l-19 -158q-22 -173 43 -250q64 -77 206 -77t208 42q65 43 111 143
l86 -27q-58 -127 -151 -184t-265 -57zM685 1290q-168 0 -245 100t-55 287h92q-19 -161 33 -233t184 -72t203 72t93 233h92q-26 -187 -128 -287t-269 -100z" />
    <glyph glyph-name="Edotaccent" unicode="&#x116;" 
d="M138 0l182 1489h808l-9 -81h-717l-69 -553h631l-9 -80h-631l-86 -693h717l-9 -82h-808zM786 1884q41 0 64 -15t14 -69q-7 -67 -98 -67q-40 0 -63 15t-17 60q7 46 33 61t67 15z" />
    <glyph glyph-name="edotaccent" unicode="&#x117;" 
d="M654 1054q-148 0 -232 -82t-105 -253l-12 -92h592l10 75q22 184 -42 268q-63 84 -211 84zM515 -19q-173 1 -263 105t-66 307l39 326q26 209 147 313q122 104 296 104t266 -106t66 -324l-21 -157h-683l-19 -158q-22 -173 43 -250q64 -77 206 -77t208 42q65 43 111 143
l86 -27q-58 -127 -151 -184t-265 -57zM713 1512q41 0 64 -15t14 -69q-7 -67 -98 -67q-40 0 -62 14t-16 60q5 47 31 62t67 15z" />
    <glyph glyph-name="Eogonek" unicode="&#x118;" 
d="M683 -284q30 -34 103 -34t136 15l-10 -82q-73 -15 -157 -15q-85 0 -141 56t-46 142q14 117 127 202h-557l182 1489h808l-9 -81h-717l-69 -553h631l-9 -80h-631l-86 -693h717l-9 -82h-181q-90 -74 -101 -161q-10 -88 19 -123z" />
    <glyph glyph-name="eogonek" unicode="&#x119;" 
d="M631 -284q30 -34 103 -34t135 15l-9 -82q-73 -15 -157 -15q-85 0 -141 56t-44 152t110 180q-46 -6 -99 -7q-187 1 -277 105t-66 307l39 326q26 209 147 313q122 104 296 104t266 -106t66 -324l-21 -157h-683l-19 -158q-22 -173 43 -250q64 -77 206 -77t208 42
q65 43 111 143l86 -27q-71 -156 -201 -209q-106 -80 -121 -188q-7 -74 22 -109zM654 1054q-148 0 -232 -82t-105 -253l-12 -92h592l10 75q22 184 -42 268q-63 84 -211 84z" />
    <glyph glyph-name="Ecaron" unicode="&#x11a;" 
d="M138 0l182 1489h808l-9 -81h-717l-69 -553h631l-9 -80h-631l-86 -693h717l-9 -82h-808zM747 1683l-257 315l42 46l256 -275l320 275l31 -46l-333 -315h-59z" />
    <glyph glyph-name="ecaron" unicode="&#x11b;" 
d="M654 1054q-148 0 -232 -82t-105 -253l-12 -92h592l10 75q22 184 -42 268q-63 84 -211 84zM515 -19q-173 1 -263 105t-66 307l39 326q26 209 147 313q122 104 296 104t266 -106t66 -324l-21 -157h-683l-19 -158q-22 -173 43 -250q64 -77 206 -77t208 42q65 43 111 143
l86 -27q-58 -127 -151 -184t-265 -57zM657 1311l-257 314l43 47l255 -276l320 276l32 -47l-333 -314h-60z" />
    <glyph glyph-name="Gcircumflex" unicode="&#x11c;" 
d="M555 -19q-221 -1 -321 133t-66 396l55 462q69 536 505 536q203 0 286 -98t66 -325l-93 -11q11 208 -46 280t-231 72t-272 -108q-96 -108 -125 -346l-56 -462q-29 -235 45 -341t259 -106t277 125q91 125 128 428h-365l10 80h454l-9 -78q-41 -333 -160 -485t-341 -152z
M475 1718l-32 47l333 315h60l257 -315l-43 -47l-255 276z" />
    <glyph glyph-name="gcircumflex" unicode="&#x11d;" 
d="M331 -309h330q209 -1 234 199q12 98 -27 142t-131 44h-584l-15 -126q-17 -127 33 -193t160 -66zM559 553q256 0 277 194l9 67q13 117 -45 169q-59 52 -182 52q-122 0 -194 -52t-85 -169l-9 -67q-10 -101 48 -147t181 -47zM633 -391h-309q-141 0 -220 78q-78 78 -59 235
q11 93 57 149q47 56 123 63v9q-117 19 -97 183q10 84 66 144t143 68l2 6q-120 39 -101 204l10 77q17 128 116 210q100 82 265 82h464l-11 -82l-246 21l-2 -12q63 -19 88 -85q24 -67 16 -132l-9 -75q-15 -123 -108 -198t-277 -76h-207q-112 0 -130 -156t130 -156h395
q134 0 202 -66t51 -203t-116 -213t-236 -75zM387 1346l-31 47l333 314h59l257 -314l-42 -47l-256 276z" />
    <glyph glyph-name="Gbreve" unicode="&#x11e;" 
d="M555 -19q-221 -1 -321 133t-66 396l55 462q69 536 505 536q203 0 286 -98t66 -325l-93 -11q11 208 -46 280t-231 72t-272 -108q-96 -108 -125 -346l-56 -462q-29 -235 45 -341t259 -106t277 125q91 125 128 428h-365l10 80h454l-9 -78q-41 -333 -160 -485t-341 -152z
M756 1663q-168 -1 -245 99t-55 288h91q-19 -162 33 -234t185 -72q132 0 203 72t93 234h91q-26 -188 -127 -288t-269 -99z" />
    <glyph glyph-name="gbreve" unicode="&#x11f;" 
d="M331 -309h330q209 -1 234 199q12 98 -27 142t-131 44h-584l-15 -126q-17 -127 33 -193t160 -66zM559 553q256 0 277 194l9 67q13 117 -45 169q-59 52 -182 52q-122 0 -194 -52t-85 -169l-9 -67q-10 -101 48 -147t181 -47zM633 -391h-309q-141 0 -220 78q-78 78 -59 235
q11 93 57 149q47 56 123 63v9q-117 19 -97 183q10 84 66 144t143 68l2 6q-120 39 -101 204l10 77q17 128 116 210q100 82 265 82h464l-11 -82l-246 21l-2 -12q63 -19 88 -85q24 -67 16 -132l-9 -75q-15 -123 -108 -198t-277 -76h-207q-112 0 -130 -156t130 -156h395
q134 0 202 -66t51 -203t-116 -213t-236 -75zM683 1290q-168 0 -245 100t-54 287h91q-19 -161 33 -233t184 -72t204 72q71 72 93 233h91q-26 -187 -128 -287t-269 -100z" />
    <glyph glyph-name="Gdotaccent" unicode="&#x120;" 
d="M555 -19q-221 -1 -321 133t-66 396l55 462q69 536 505 536q203 0 286 -98t66 -325l-93 -11q11 208 -46 280t-231 72t-272 -108q-96 -108 -125 -346l-56 -462q-29 -235 45 -341t259 -106t277 125q91 125 128 428h-365l10 80h454l-9 -78q-41 -333 -160 -485t-341 -152z
M769 1884q41 0 64 -15t14 -69q-7 -67 -98 -67q-40 0 -63 15t-17 60q7 46 33 61t67 15z" />
    <glyph glyph-name="gdotaccent" unicode="&#x121;" 
d="M331 -309h330q209 -1 234 199q12 98 -27 142t-131 44h-584l-15 -126q-17 -127 33 -193t160 -66zM559 553q256 0 277 194l9 67q13 117 -45 169q-59 52 -182 52q-122 0 -194 -52t-85 -169l-9 -67q-10 -101 48 -147t181 -47zM633 -391h-309q-141 0 -220 78q-78 78 -59 235
q11 93 57 149q47 56 123 63v9q-117 19 -97 183q10 84 66 144t143 68l2 6q-120 39 -101 204l10 77q17 128 116 210q100 82 265 82h464l-11 -82l-246 21l-2 -12q63 -19 88 -85q24 -67 16 -132l-9 -75q-15 -123 -108 -198t-277 -76h-207q-112 0 -130 -156t130 -156h395
q134 0 202 -66t51 -203t-116 -213t-236 -75zM711 1512q41 0 64 -15t14 -69q-7 -67 -97 -67q-40 0 -63 15t-17 60q6 46 32 61t67 15z" />
    <glyph glyph-name="Gcommaaccent" unicode="&#x122;" 
d="M276 -559l210 373h145l-279 -373h-76zM555 -19q-221 -1 -321 133t-66 396l55 462q69 536 505 536q203 0 286 -98t66 -325l-93 -11q11 208 -46 280t-231 72t-272 -108q-96 -108 -125 -346l-56 -462q-29 -235 45 -341t259 -106t277 125q91 125 128 428h-365l10 80h454
l-9 -78q-41 -333 -160 -485t-341 -152z" />
    <glyph glyph-name="gcommaaccent" unicode="&#x123;" 
d="M331 -309h330q209 -1 234 199q12 98 -27 142t-131 44h-584l-15 -126q-17 -127 33 -193t160 -66zM559 553q256 0 277 194l9 67q13 117 -45 169q-59 52 -182 52q-122 0 -194 -52t-85 -169l-9 -67q-10 -101 48 -147t181 -47zM633 -391h-309q-141 0 -220 78q-78 78 -59 235
q11 93 57 149q47 56 123 63v9q-117 19 -97 183q10 84 66 144t143 68l2 6q-120 39 -101 204l10 77q17 128 116 210q100 82 265 82h464l-11 -82l-246 21l-2 -12q63 -19 88 -85q24 -67 16 -132l-9 -75q-15 -123 -108 -198t-277 -76h-207q-112 0 -130 -156t130 -156h395
q134 0 202 -66t51 -203t-116 -213t-236 -75zM603 1303l280 373h74l-210 -373h-144z" />
    <glyph glyph-name="Hcircumflex" unicode="&#x124;" 
d="M138 0l182 1489h91l-78 -634h592l79 634h91l-183 -1489h-91l95 775h-592l-95 -775h-91zM443 1718l-32 47l334 315h59l257 -315l-43 -47l-255 276z" />
    <glyph glyph-name="hcircumflex" unicode="&#x125;" 
d="M138 0l182 1489h91l-67 -545h17q73 91 159 141q86 51 220 51q135 0 211 -96t58 -252l-97 -788h-91l95 767q15 134 -39 210q-53 77 -161 77t-196 -45t-187 -156l-104 -853h-91zM112 1718l-32 47l333 315h60l257 -315l-43 -47l-255 276z" />
    <glyph glyph-name="Hbar" unicode="&#x126;" 
d="M307 642l-78 -642h-91l134 1091h-171l9 80h171l39 318h91l-39 -318h592l40 318h91l-39 -318h169l-9 -80h-170l-134 -1091h-91l78 642h-592zM318 724h592l45 367h-592z" />
    <glyph glyph-name="hbar" unicode="&#x127;" 
d="M715 1043q140 0 221.5 -92.5t61.5 -257.5l-86 -693h-91l82 674q19 143 -40 215t-161 72t-191.5 -47t-188.5 -151l-93 -763h-91l149 1210h-170l10 82h169l24 197h91l-24 -197h341l-9 -82h-341l-45 -359h17q150 192 365 192z" />
    <glyph glyph-name="Itilde" unicode="&#x128;" 
d="M138 0l9 82h343l163 1326h-342l9 81h775l-10 -81h-342l-164 -1326h343l-10 -82h-774zM616 1994q-99 0 -126 -261l-4 -20h-75l4 28q40 326 212 326q58 -1 92 -35t65 -125q32 -80 53 -110t49 -30q94 0 127 261l4 20h74l-4 -28q-40 -326 -212 -326q-56 0 -91 36t-66 124
q-31 86 -51 113t-51 27z" />
    <glyph glyph-name="itilde.salt_serifs" unicode="&#xe029;" 
d="M579 82h376l-9 -82h-466l127 1035h-376l11 82h465zM534 1622q-99 0 -126 -261l-4 -20h-74l3 27q40 326 213 326q58 0 92 -34t64 -126q32 -80 53 -110t49 -29q94 0 127 260l4 21h74l-4 -28q-40 -326 -212 -326q-56 0 -91 36t-66 122t-51 114t-51 28z" />
    <glyph glyph-name="itilde.salt_serifs" unicode="&#x129;" 
d="M579 82h376l-9 -82h-466l127 1035h-376l11 82h465zM534 1622q-99 0 -126 -261l-4 -20h-74l3 27q40 326 213 326q58 0 92 -34t64 -126q32 -80 53 -110t49 -29q94 0 127 260l4 21h74l-4 -28q-40 -326 -212 -326q-56 0 -91 36t-66 122t-51 114t-51 28z" />
    <glyph glyph-name="Imacron" unicode="&#x12a;" 
d="M138 0l9 82h343l163 1326h-342l9 81h775l-10 -81h-342l-164 -1326h343l-10 -82h-774zM443 1826l9 81h604l-10 -81h-603z" />
    <glyph glyph-name="imacron.salt_serifs" unicode="&#xe02a;" 
d="M579 82h376l-9 -82h-466l127 1035h-376l11 82h465zM361 1454l10 80h603l-10 -80h-603z" />
    <glyph glyph-name="imacron.salt_serifs" unicode="&#x12b;" 
d="M579 82h376l-9 -82h-466l127 1035h-376l11 82h465zM361 1454l10 80h603l-10 -80h-603z" />
    <glyph glyph-name="Ibreve" unicode="&#x12c;" 
d="M138 0l9 82h343l163 1326h-342l9 81h775l-10 -81h-342l-164 -1326h343l-10 -82h-774zM724 1663q-168 -1 -245 99t-55 288h92q-19 -162 33 -234q53 -72 185 -72t202 72t94 234h91q-25 -188 -127 -288t-270 -99z" />
    <glyph glyph-name="ibreve.salt_serifs" unicode="&#xe02b;" 
d="M579 82h376l-9 -82h-466l127 1035h-376l11 82h465zM642 1290q-168 0 -245 100t-54 287h91q-19 -161 33 -233q53 -72 185 -72t203 72t93 233h91q-25 -187 -127 -287t-270 -100z" />
    <glyph glyph-name="ibreve.salt_serifs" unicode="&#x12d;" 
d="M579 82h376l-9 -82h-466l127 1035h-376l11 82h465zM642 1290q-168 0 -245 100t-54 287h91q-19 -161 33 -233q53 -72 185 -72t203 72t93 233h91q-25 -187 -127 -287t-270 -100z" />
    <glyph glyph-name="Iogonek" unicode="&#x12e;" 
d="M497 -175q-13 -143 109 -143q91 0 152 15l-10 -82q-82 -17 -141 -15q-101 0 -157 56t-45 142q14 117 126 202h-393l9 82h343l163 1326h-342l9 81h775l-10 -81h-342l-164 -1326h343l-10 -82h-311q-90 -74 -104 -175z" />
    <glyph glyph-name="iogonek.salt_serifs" unicode="&#xe02c;" 
d="M454 -284q30 -34 103 -34t136 15l-10 -82q-73 -15 -157 -15q-85 0 -141 56q-55 56 -45 142q16 129 142 213l125 1024h-376l11 82h465l-128 -1035h376l-9 -82h-410q-90 -74 -101 -161q-10 -88 19 -123zM711 1510q41 0 64 -15t14 -69q-7 -67 -97 -67q-40 0 -63 15t-17 60
q6 46 32 61t67 15z" />
    <glyph glyph-name="iogonek.salt_serifs" unicode="&#x12f;" 
d="M454 -284q30 -34 103 -34t136 15l-10 -82q-73 -15 -157 -15q-85 0 -141 56q-55 56 -45 142q16 129 142 213l125 1024h-376l11 82h465l-128 -1035h376l-9 -82h-410q-90 -74 -101 -161q-10 -88 19 -123zM711 1510q41 0 64 -15t14 -69q-7 -67 -97 -67q-40 0 -63 15t-17 60
q6 46 32 61t67 15z" />
    <glyph glyph-name="Idotaccent" unicode="&#x130;" 
d="M138 0l9 82h343l163 1326h-342l9 81h775l-10 -81h-342l-164 -1326h343l-10 -82h-774zM752 1884q41 0 64 -15t14 -69q-7 -67 -97 -67q-40 0 -62 14t-17 60q5 47 31 62t67 15z" />
    <glyph glyph-name="dotlessi.salt_serifs" unicode="&#xe024;" 
d="M579 82h376l-9 -82h-466l127 1035h-376l11 82h465z" />
    <glyph glyph-name="dotlessi.salt_serifs" unicode="&#x131;" 
d="M579 82h376l-9 -82h-466l127 1035h-376l11 82h465z" />
    <glyph glyph-name="IJ" unicode="&#x132;" 
d="M684 -19q-154 0 -212.5 105.5t-41.5 343.5l93 11q-11 -203 27 -290.5t146 -87.5t167 87.5t83 294.5l119 963h-365l9 81h455l-129 -1042q-30 -249 -113.5 -357.5t-237.5 -108.5zM160 0h-91l182 1489h92z" />
    <glyph glyph-name="ij.salt_serifs" unicode="&#xe02d;" 
d="M555 -387q-98 0 -186 37l28 80q72 -35 175 -34q102 0 167 74t82 221l129 1044h-224l11 82h315l-142 -1141q-20 -171 -115 -267t-240 -96zM263 0h-92l138 1117h91zM1044 1512q41 0 64 -15t15 -69q-7 -67 -98 -67q-40 0 -63 15t-17 60q7 46 33 61t66 15zM383 1361
q-39 0 -62 15t-17 60q7 46 33 61t66 15t63 -15t14 -69q-7 -67 -97 -67z" />
    <glyph glyph-name="ij.salt_serifs" unicode="&#x133;" 
d="M555 -387q-98 0 -186 37l28 80q72 -35 175 -34q102 0 167 74t82 221l129 1044h-224l11 82h315l-142 -1141q-20 -171 -115 -267t-240 -96zM263 0h-92l138 1117h91zM1044 1512q41 0 64 -15t15 -69q-7 -67 -98 -67q-40 0 -63 15t-17 60q7 46 33 61t66 15zM383 1361
q-39 0 -62 15t-17 60q7 46 33 61t66 15t63 -15t14 -69q-7 -67 -97 -67z" />
    <glyph glyph-name="Jcircumflex" unicode="&#x134;" 
d="M498 63q174 0 264 99t119 320l113 926h-381l9 81h473l-123 -1005q-64 -503 -482 -503q-208 0 -297 110q-88 110 -68 345l89 11q-14 -212 48 -298t236 -86zM594 1718l-32 47l334 315h59l257 -315l-43 -47l-255 276z" />
    <glyph glyph-name="jcircumflex" unicode="&#x135;" 
d="M358 -303q123 0 200 80t95 243l125 1015h-478l11 82h568l-136 -1108q-25 -188 -133 -292t-277 -104q-117 0 -238 41l32 83q108 -40 231 -40zM514 1346l-32 47l333 314h60l257 -314l-43 -47l-255 276z" />
    <glyph glyph-name="Kcommaaccent" unicode="&#x136;" 
d="M320 747l-91 -747h-91l182 1489h91l-80 -662h136l611 662h117l-644 -690l456 -799h-110l-422 747h-155zM261 -559l210 373h145l-279 -373h-76z" />
    <glyph glyph-name="kcommaaccent" unicode="&#x137;" 
d="M380 547l-67 -547h-90l183 1489h89l-106 -862h168l411 490h106l-445 -521l304 -596h-99l-279 547h-175zM249 -559l211 373h145l-279 -373h-77z" />
    <glyph glyph-name="kgreenlandic" unicode="&#x138;" 
d="M382 546l-67 -546h-92l138 1117h91l-61 -490h166l411 490h106l-447 -521l306 -596h-99l-277 546h-175z" />
    <glyph glyph-name="Lacute" unicode="&#x139;" 
d="M223 0l183 1489h89l-173 -1407h600l-10 -82h-689zM516 1676l294 372h143l-363 -372h-74z" />
    <glyph glyph-name="lacute.salt_serifs_round" unicode="&#xe057;" 
d="M944 37q-99 -46 -215 -46q-115 0 -171 94t-35 261l130 1062h-376l10 81h465l-139 -1143q-35 -272 137 -272q87 0 183 43zM460 1676l294 372h143l-363 -372h-74z" />
    <glyph glyph-name="lacute.salt_serifs_round" unicode="&#x13a;" 
d="M944 37q-99 -46 -215 -46q-115 0 -171 94t-35 261l130 1062h-376l10 81h465l-139 -1143q-35 -272 137 -272q87 0 183 43zM460 1676l294 372h143l-363 -372h-74z" />
    <glyph glyph-name="Lcommaaccent" unicode="&#x13b;" 
d="M223 0l183 1489h89l-173 -1407h600l-10 -82h-689zM287 -559l210 373h145l-279 -373h-76z" />
    <glyph glyph-name="lcommaaccent.salt_serifs_round" unicode="&#xe058;" 
d="M944 37q-99 -46 -215 -46q-115 0 -171 94t-35 261l130 1062h-376l10 81h465l-139 -1143q-35 -272 137 -272q87 0 183 43zM328 -559l210 373h145l-279 -373h-76z" />
    <glyph glyph-name="lcommaaccent.salt_serifs_round" unicode="&#x13c;" 
d="M944 37q-99 -46 -215 -46q-115 0 -171 94t-35 261l130 1062h-376l10 81h465l-139 -1143q-35 -272 137 -272q87 0 183 43zM328 -559l210 373h145l-279 -373h-76z" />
    <glyph glyph-name="Lcaron" unicode="&#x13d;" 
d="M223 0l183 1489h89l-173 -1407h600l-10 -82h-689zM804 1035l196 454h121l-242 -454h-75z" />
    <glyph glyph-name="lcaron.salt_serifs_round" unicode="&#xe059;" 
d="M944 37q-99 -46 -215 -46q-115 0 -171 94t-35 261l130 1062h-376l10 81h465l-139 -1143q-35 -272 137 -272q87 0 183 43zM996 1408l196 454h121l-242 -454h-75z" />
    <glyph glyph-name="lcaron.salt_serifs_round" unicode="&#x13e;" 
d="M944 37q-99 -46 -215 -46q-115 0 -171 94t-35 261l130 1062h-376l10 81h465l-139 -1143q-35 -272 137 -272q87 0 183 43zM996 1408l196 454h121l-242 -454h-75z" />
    <glyph glyph-name="Ldot" unicode="&#x13f;" 
d="M223 0l183 1489h89l-173 -1407h600l-10 -82h-689zM1121 955q41 0 64 -15t14 -69q-7 -67 -98 -67q-40 0 -63 15t-17 60q7 46 33 61t67 15z" />
    <glyph glyph-name="ldot.salt_serifs_round" unicode="&#xe05a;" 
d="M944 37q-99 -46 -215 -46q-115 0 -171 94t-35 261l130 1062h-376l10 81h465l-139 -1143q-35 -272 137 -272q87 0 183 43zM1221 763q41 0 63 -15t17 -55l-1 -13q-7 -67 -98 -67q-40 0 -63 15t-17 60q6 46 32 60t67 15z" />
    <glyph glyph-name="ldot.salt_serifs_round" unicode="&#x140;" 
d="M944 37q-99 -46 -215 -46q-115 0 -171 94t-35 261l130 1062h-376l10 81h465l-139 -1143q-35 -272 137 -272q87 0 183 43zM1221 763q41 0 63 -15t17 -55l-1 -13q-7 -67 -98 -67q-40 0 -63 15t-17 60q6 46 32 60t67 15z" />
    <glyph glyph-name="Lslash" unicode="&#x141;" 
d="M130 642l11 82l179 65l86 700h89l-82 -666l449 162l-9 -82l-450 -162l-81 -659h600l-10 -82h-689l87 707z" />
    <glyph glyph-name="lslash.salt_serifs_round" unicode="&#xe05b;" 
d="M944 37q-99 -46 -215 -46q-115 0 -170.5 94t-35.5 261l44 360l-308 -90l9 82l309 89l76 621h-376l10 81h465l-82 -675l307 89l-11 -82l-306 -89l-47 -386q-35 -272 137 -272q90 0 183 43z" />
    <glyph glyph-name="lslash.salt_serifs_round" unicode="&#x142;" 
d="M944 37q-99 -46 -215 -46q-115 0 -170.5 94t-35.5 261l44 360l-308 -90l9 82l309 89l76 621h-376l10 81h465l-82 -675l307 89l-11 -82l-306 -89l-47 -386q-35 -272 137 -272q90 0 183 43z" />
    <glyph glyph-name="Nacute" unicode="&#x143;" 
d="M808 0l-424 1303l-161 -1303h-85l182 1489h93l432 -1327l162 1327h88l-183 -1489h-104zM642 1676l294 372h144l-363 -372h-75z" />
    <glyph glyph-name="nacute" unicode="&#x144;" 
d="M726 1136q149 0 225 -94t58 -256l-97 -786h-91l95 767q17 141 -38 213t-161 72q-210 0 -382 -190l-106 -862h-91l138 1117h91l-23 -173h17q59 88 159 140t206 52zM601 1303l295 373h143l-363 -373h-75z" />
    <glyph glyph-name="Ncommaaccent" unicode="&#x145;" 
d="M227 -559l211 373h145l-280 -373h-76zM808 0l-424 1303l-161 -1303h-85l182 1489h93l432 -1327l162 1327h88l-183 -1489h-104z" />
    <glyph glyph-name="ncommaaccent" unicode="&#x146;" 
d="M259 -559l210 373h145l-279 -373h-76zM726 1136q149 0 225 -94t58 -256l-97 -786h-91l95 767q17 141 -38 213t-161 72q-210 0 -382 -190l-106 -862h-91l138 1117h91l-23 -173h17q59 88 159 140t206 52z" />
    <glyph glyph-name="Ncaron" unicode="&#x147;" 
d="M808 0l-424 1303l-161 -1303h-85l182 1489h93l432 -1327l162 1327h88l-183 -1489h-104zM728 1683l-257 315l43 46l255 -275l320 275l32 -46l-333 -315h-60z" />
    <glyph glyph-name="ncaron" unicode="&#x148;" 
d="M726 1136q149 0 225 -94t58 -256l-97 -786h-91l95 767q17 141 -38 213t-161 72q-210 0 -382 -190l-106 -862h-91l138 1117h91l-23 -173h17q59 88 159 140t206 52zM691 1311l-257 314l43 47l255 -276l320 276l32 -47l-334 -314h-59z" />
    <glyph glyph-name="napostrophe" unicode="&#x149;" 
d="M726 1136q149 0 225 -94t58 -256l-97 -786h-91l95 767q17 141 -38 213t-161 72q-210 0 -382 -190l-106 -862h-91l138 1117h91l-23 -173h17q59 88 159 140t206 52zM140 1303l294 373h143l-363 -373h-74z" />
    <glyph glyph-name="Eng" unicode="&#x14a;" 
d="M508 -387q-128 0 -221 41l33 80q99 -39 194 -39q269 0 315 372l122 1002q44 348 -199 348q-101 0 -189 -56t-189 -177l-145 -1184h-91l182 1489h91l-27 -223h18q174 242 384 242q143 0 214.5 -105t47.5 -290l-130 -1070q-24 -199 -134 -314.5t-276 -115.5z" />
    <glyph glyph-name="eng" unicode="&#x14b;" 
d="M361 944q122 192 387 192q134 0 207 -97t52 -270l-98 -804q-22 -179 -120 -265.5t-232 -86.5q-77 0 -170 31l32 84q70 -31 162 -31q91 0 155.5 69.5t82.5 222.5l97 778q17 140 -37 213.5t-164 73.5t-200.5 -45.5t-179.5 -146.5l-106 -862h-91l138 1117h91l-23 -173h17z
" />
    <glyph glyph-name="Omacron" unicode="&#x14c;" 
d="M531 63q176 0 267 107q90 107 120 340l56 462q30 238 -34 346t-241 108q-176 0 -266 -108t-120 -346l-56 -462q-30 -233 34 -340t240 -107zM223 972q67 536 487 536t355 -536l-56 -462q-67 -529 -486 -529q-422 0 -355 529zM443 1826l9 81h604l-10 -81h-603z" />
    <glyph glyph-name="omacron" unicode="&#x14d;" 
d="M532 63q151 0 234 80t103 248l40 328q22 171 -41 253q-62 82 -214 82t-234 -82t-103 -253l-40 -328q-20 -168 42 -248t213 -80zM523 -19q-186 1 -274 107t-63 303l39 328q26 201 141 309t300 108q184 0 272 -108t62 -309l-39 -328q-24 -197 -138 -303t-300 -107z
M402 1454l9 80h604l-10 -80h-603z" />
    <glyph glyph-name="Obreve" unicode="&#x14e;" 
d="M531 63q176 0 267 107q90 107 120 340l56 462q30 238 -34 346t-241 108q-176 0 -266 -108t-120 -346l-56 -462q-30 -233 34 -340t240 -107zM223 972q67 536 487 536t355 -536l-56 -462q-67 -529 -486 -529q-422 0 -355 529zM724 1663q-168 -1 -245 99t-55 288h92
q-19 -162 33 -234q53 -72 185 -72t202 72t94 234h91q-25 -188 -127 -288t-270 -99z" />
    <glyph glyph-name="obreve" unicode="&#x14f;" 
d="M532 63q151 0 234 80t103 248l40 328q22 171 -41 253q-62 82 -214 82t-234 -82t-103 -253l-40 -328q-20 -168 42 -248t213 -80zM523 -19q-186 1 -274 107t-63 303l39 328q26 201 141 309t300 108q184 0 272 -108t62 -309l-39 -328q-24 -197 -138 -303t-300 -107z
M685 1290q-168 0 -245 100t-55 287h92q-19 -161 33 -233t184 -72t203 72t93 233h92q-26 -187 -128 -287t-269 -100z" />
    <glyph glyph-name="Ohungarumlaut" unicode="&#x150;" 
d="M531 63q176 0 267 107q90 107 120 340l56 462q30 238 -34 346t-241 108q-176 0 -266 -108t-120 -346l-56 -462q-30 -233 34 -340t240 -107zM223 972q67 536 487 536t355 -536l-56 -462q-67 -529 -486 -529q-422 0 -355 529zM497 1676l143 372h159l-227 -372h-75z
M827 1676l141 372h158l-227 -372h-72z" />
    <glyph glyph-name="ohungarumlaut" unicode="&#x151;" 
d="M532 63q151 0 234 80t103 248l40 328q22 171 -41 253q-62 82 -214 82t-234 -82t-103 -253l-40 -328q-20 -168 42 -248t213 -80zM523 -19q-186 1 -274 107t-63 303l39 328q26 201 141 309t300 108q184 0 272 -108t62 -309l-39 -328q-24 -197 -138 -303t-300 -107z
M454 1303l144 373h158l-227 -373h-75zM784 1303l141 373h159l-228 -373h-72z" />
    <glyph glyph-name="OE" unicode="&#x152;" 
d="M406 82h177l164 1326h-177q-162 0 -261.5 -117.5t-127.5 -342.5l-51 -414q-26 -222 44 -337t232 -115zM397 0q-195 0 -290.5 142.5t-65.5 391.5l50 414q32 253 161.5 397t324.5 144h687l-9 -81h-419l-69 -553h419l-9 -82h-419l-86 -691h419l-9 -82h-685z" />
    <glyph glyph-name="oe" unicode="&#x153;" 
d="M294 63q95 0 153.5 76.5t81.5 251.5l39 328q43 335 -102.5 335t-200.5 -81t-77 -254l-39 -328q-22 -175 14 -251.5t131 -76.5zM1035 700q42 352 -149 352q-95 0 -151 -82t-78 -253l-11 -90h380zM283 -19q-132 0 -190 105.5t-33 304.5l39 328q26 203 109.5 310t217.5 107
q82 0 142.5 -49.5t73.5 -138.5q39 89 109 138.5t146 49.5q136 0 195 -111t33 -321l-19 -155h-469l-19 -156q-42 -330 138 -330q88 0 133.5 43t89.5 143l79 -27q-107 -241 -291 -241q-95 0 -153.5 52.5t-66.5 145.5q-37 -93 -109.5 -145.5t-154.5 -52.5z" />
    <glyph glyph-name="Racute" unicode="&#x154;" 
d="M795 1489q384 0 335 -392l-15 -120q-41 -365 -374 -391l279 -586h-100l-276 585h-342l-73 -585h-91l182 1489h475zM693 667q158 -1 236 73t99 241l13 108q20 169 -39 244q-60 74 -218 75h-382l-91 -741h382zM730 1676l294 372h143l-363 -372h-74z" />
    <glyph glyph-name="racute" unicode="&#x155;" 
d="M780 1136q134 0 201 -79t50 -225l-16 -132h-92l17 129q24 223 -184 225q-181 0 -339 -201l-104 -853h-90l138 1117h90l-23 -173h19q137 192 333 192zM633 1303l294 373h144l-364 -373h-74z" />
    <glyph glyph-name="Rcommaaccent" unicode="&#x156;" 
d="M795 1489q384 0 335 -392l-15 -120q-41 -365 -374 -391l279 -586h-100l-276 585h-342l-73 -585h-91l182 1489h475zM693 667q158 -1 236 73t99 241l13 108q20 169 -39 244q-60 74 -218 75h-382l-91 -741h382zM233 -559l210 373h145l-279 -373h-76z" />
    <glyph glyph-name="rcommaaccent" unicode="&#x157;" 
d="M780 1136q134 0 201 -79t50 -225l-16 -132h-92l17 129q24 223 -184 225q-181 0 -339 -201l-104 -853h-90l138 1117h90l-23 -173h19q137 192 333 192zM15 -559l210 373h146l-280 -373h-76z" />
    <glyph glyph-name="Rcaron" unicode="&#x158;" 
d="M795 1489q384 0 335 -392l-15 -120q-41 -365 -374 -391l279 -586h-100l-276 585h-342l-73 -585h-91l182 1489h475zM693 667q158 -1 236 73t99 241l13 108q20 169 -39 244q-60 74 -218 75h-382l-91 -741h382zM704 1683l-257 315l43 46l255 -275l320 275l32 -46l-334 -315
h-59z" />
    <glyph glyph-name="rcaron" unicode="&#x159;" 
d="M780 1136q134 0 201 -79t50 -225l-16 -132h-92l17 129q24 223 -184 225q-181 0 -339 -201l-104 -853h-90l138 1117h90l-23 -173h19q137 192 333 192zM722 1311l-257 314l43 47l255 -276l321 276l31 -47l-333 -314h-60z" />
    <glyph glyph-name="Sacute" unicode="&#x15a;" 
d="M560 -11q-168 0 -270 55q-103 55 -180 155l65 62q75 -95 165 -143t226 -47q136 0 238 84q102 85 119 223t-50 213t-261 137t-280 152q-85 90 -65 251t142 263t295 103q132 0 223 -53t160 -143l-63 -63q-71 86 -146 132t-200 45q-125 0 -216 -75t-107 -204t54 -198
q69 -69 263 -133t276 -158t62 -267t-152 -282q-130 -109 -298 -109zM609 1676l294 372h143l-363 -372h-74z" />
    <glyph glyph-name="sacute" unicode="&#x15b;" 
d="M544 -19q-254 0 -425 151l56 73q154 -140 378 -142q132 0 216 59q84 58 96 158t-49 148t-248 88q-188 40 -266 114q-78 72 -62 204t121 216q105 86 235 86q233 0 396 -142l-52 -71q-149 129 -335 131q-115 0 -189 -56t-86 -159t46 -153q60 -50 249 -88t266 -110t61 -204
t-129 -218t-279 -85zM564 1303l294 373h144l-363 -373h-75z" />
    <glyph glyph-name="Scircumflex" unicode="&#x15c;" 
d="M560 -11q-168 0 -270 55q-103 55 -180 155l65 62q75 -95 165 -143t226 -47q136 0 238 84q102 85 119 223t-50 213t-261 137t-280 152q-85 90 -65 251t142 263t295 103q132 0 223 -53t160 -143l-63 -63q-71 86 -146 132t-200 45q-125 0 -216 -75t-107 -204t54 -198
q69 -69 263 -133t276 -158t62 -267t-152 -282q-130 -109 -298 -109zM445 1718l-32 47l334 315h59l257 -315l-43 -47l-255 276z" />
    <glyph glyph-name="scircumflex" unicode="&#x15d;" 
d="M544 -19q-254 0 -425 151l56 73q154 -140 378 -142q132 0 216 59q84 58 96 158t-49 148t-248 88q-188 40 -266 114q-78 72 -62 204t121 216q105 86 235 86q233 0 396 -142l-52 -71q-149 129 -335 131q-115 0 -189 -56t-86 -159t46 -153q60 -50 249 -88t266 -110t61 -204
t-129 -218t-279 -85zM398 1346l-31 47l333 314h60l257 -314l-43 -47l-255 276z" />
    <glyph glyph-name="Scedilla" unicode="&#x15e;" 
d="M566 71q136 0 238 84q102 85 119 223t-50 213t-261 137t-280 152q-85 90 -65 251t142 263t295 103q132 0 223 -53t160 -143l-63 -63q-71 86 -146 132t-200 45q-125 0 -216 -75t-107 -204t54 -198q69 -69 263 -133t276 -158t62 -267t-152 -282q-107 -89 -249 -106
q86 -64 73 -173q-12 -109 -82 -165t-173 -56t-158 47t-49 160l87 7q-2 -74 25 -106q28 -32 102 -32t112 32t48 109t-17 115q-26 38 -77 60q-240 14 -390 209l65 62q75 -95 165 -143t226 -47z" />
    <glyph glyph-name="scedilla" unicode="&#x15f;" 
d="M596 1136q233 0 396 -142l-52 -71q-149 129 -335 131q-115 0 -189 -56t-86 -159t46 -153q60 -50 249 -88t266 -110t61 -204t-129 -217q-89 -67 -210 -82q76 -65 64 -170t-82 -161q-69 -56 -173 -56t-159 47t-49 160l88 7q-2 -74 25 -106t101 -32t113 32q38 32 47 109
t-15 112t-62 55q-233 9 -392 150l56 73q154 -140 378 -142q132 0 216 59q84 58 96 158t-49 148t-248 88q-188 40 -266 114q-78 72 -62 204t121 216q105 86 235 86z" />
    <glyph glyph-name="Scaron" unicode="&#x160;" 
d="M560 -11q-168 0 -270 55q-103 55 -180 155l65 62q75 -95 165 -143t226 -47q136 0 238 84q102 85 119 223t-50 213t-261 137t-280 152q-85 90 -65 251t142 263t295 103q132 0 223 -53t160 -143l-63 -63q-71 86 -146 132t-200 45q-125 0 -216 -75t-107 -204t54 -198
q69 -69 263 -133t276 -158t62 -267t-152 -282q-130 -109 -298 -109zM698 1683l-257 315l43 46l255 -275l320 275l32 -46l-333 -315h-60z" />
    <glyph glyph-name="scaron" unicode="&#x161;" 
d="M544 -19q-254 0 -425 151l56 73q154 -140 378 -142q132 0 216 59q84 58 96 158t-49 148t-248 88q-188 40 -266 114q-78 72 -62 204t121 216q105 86 235 86q233 0 396 -142l-52 -71q-149 129 -335 131q-115 0 -189 -56t-86 -159t46 -153q60 -50 249 -88t266 -110t61 -204
t-129 -218t-279 -85zM652 1311l-257 314l43 47l255 -276l320 276l31 -47l-333 -314h-59z" />
    <glyph glyph-name="Tcedilla" unicode="&#x162;" 
d="M440 -402q-103 0 -158 47t-49 160l87 7q-2 -74 25 -106t102 -32t113 32t46 109q10 77 -19 119t-99 66h-8l173 1408h-428l10 81h945l-9 -81h-428l-171 -1387q53 -22 93 -72t29 -144q-11 -95 -81 -151t-173 -56z" />
    <glyph glyph-name="tcedilla" unicode="&#x163;" 
d="M714 67q115 0 213 47l9 -80q-106 -45 -208 -50q74 -63 62 -168q-12 -106 -82 -162t-173 -56t-158 47t-49 160l87 7q-2 -74 25 -106q28 -32 102 -32t112 32t48 109t-20 119q-29 42 -99 66l1 2q-67 24 -109 78q-76 97 -56 268l84 687h-289l11 82h289l45 372h91l-45 -372
h445l-11 -82h-445l-82 -670q-19 -151 34 -225t168 -73z" />
    <glyph glyph-name="Tcaron" unicode="&#x164;" 
d="M480 0l173 1408h-428l10 81h945l-9 -81h-428l-173 -1408h-90zM696 1683l-257 315l43 46l255 -275l321 275l31 -46l-333 -315h-60z" />
    <glyph glyph-name="tcaron" unicode="&#x165;" 
d="M707 -17q-156 0 -232 97t-56 268l84 687h-289l11 82h289l45 372h91l-45 -372h445l-11 -82h-445l-82 -670q-19 -151 34 -225t168 -73q115 0 213 47l9 -80q-119 -51 -229 -51zM855 1408l195 454h121l-242 -454h-74z" />
    <glyph glyph-name="Tbar" unicode="&#x166;" 
d="M214 626l11 80h342l86 702h-428l10 81h945l-9 -81h-428l-86 -702h343l-11 -80h-342l-77 -626h-90l77 626h-343z" />
    <glyph glyph-name="tbar" unicode="&#x167;" 
d="M707 -17q-156 0 -232.5 97t-55.5 268l27 222h-288l10 80h288l47 385h-289l11 82h289l45 372h91l-45 -372h445l-11 -82h-445l-47 -385h438l-9 -80h-439l-25 -205q-37 -298 216 -298q101 0 199 47l9 -80q-119 -51 -229 -51z" />
    <glyph glyph-name="Utilde" unicode="&#x168;" 
d="M523 -19q-197 1 -276 131t-48 391l121 986h91l-121 -986q-28 -231 28 -335t214 -104t240 104t111 335l121 986h91l-121 -986q-32 -261 -143 -391t-308 -131zM616 1994q-99 0 -126 -261l-4 -20h-75l4 28q40 326 212 326q58 -1 92 -35t65 -125q32 -80 53 -110t49 -30
q94 0 127 261l4 20h74l-4 -28q-40 -326 -212 -326q-56 0 -91 36t-66 124q-31 86 -51 113t-51 27z" />
    <glyph glyph-name="utilde" unicode="&#x169;" 
d="M466 63q208 0 387 192l106 862h91l-138 -1117h-91l21 173h-17q-148 -192 -363 -192q-147 0 -225 99q-77 99 -56 264l95 773h91l-91 -743q-19 -153 33 -232t157 -79zM575 1622q-99 0 -126 -261l-4 -20h-74l3 27q40 326 212 326q58 0 92 -34t65 -126q32 -80 53 -110t49 -29
q94 0 127 260l4 21h74l-4 -28q-40 -326 -212 -326q-56 0 -91 36t-66 122t-51 114t-51 28z" />
    <glyph glyph-name="Umacron" unicode="&#x16a;" 
d="M523 -19q-197 1 -276 131t-48 391l121 986h91l-121 -986q-28 -231 28 -335t214 -104t240 104t111 335l121 986h91l-121 -986q-32 -261 -143 -391t-308 -131zM443 1826l9 81h604l-10 -81h-603z" />
    <glyph glyph-name="umacron" unicode="&#x16b;" 
d="M466 63q208 0 387 192l106 862h91l-138 -1117h-91l21 173h-17q-148 -192 -363 -192q-147 0 -225 99q-77 99 -56 264l95 773h91l-91 -743q-19 -153 33 -232t157 -79zM402 1454l9 80h604l-10 -80h-603z" />
    <glyph glyph-name="Ubreve" unicode="&#x16c;" 
d="M523 -19q-197 1 -276 131t-48 391l121 986h91l-121 -986q-28 -231 28 -335t214 -104t240 104t111 335l121 986h91l-121 -986q-32 -261 -143 -391t-308 -131zM724 1663q-168 -1 -245 99t-55 288h92q-19 -162 33 -234q53 -72 185 -72t202 72t94 234h91q-25 -188 -127 -288
t-270 -99z" />
    <glyph glyph-name="ubreve" unicode="&#x16d;" 
d="M466 63q208 0 387 192l106 862h91l-138 -1117h-91l21 173h-17q-148 -192 -363 -192q-147 0 -225 99q-77 99 -56 264l95 773h91l-91 -743q-19 -153 33 -232t157 -79zM685 1290q-168 0 -245 100t-55 287h92q-19 -161 33 -233t184 -72t203 72t93 233h92q-26 -187 -128 -287
t-269 -100z" />
    <glyph glyph-name="Uring" unicode="&#x16e;" 
d="M523 -19q-197 1 -276 131t-48 391l121 986h91l-121 -986q-28 -231 28 -335t214 -104t240 104t111 335l121 986h91l-121 -986q-32 -261 -143 -391t-308 -131zM732 1722q82 0 124 45t56 145l8 71q13 102 -19 149q-31 46 -113 46t-125 -46t-56 -149l-7 -71q-14 -102 18 -146
t114 -44zM722 1648q-117 0 -170 68t-36 196l7 71q17 130 87 200t187 70t170 -70t37 -200l-8 -71q-17 -128 -87 -196t-187 -68z" />
    <glyph glyph-name="uring" unicode="&#x16f;" 
d="M466 63q208 0 387 192l106 862h91l-138 -1117h-91l21 173h-17q-148 -192 -363 -192q-147 0 -225 99q-77 99 -56 264l95 773h91l-91 -743q-19 -153 33 -232t157 -79zM693 1350q83 0 125 45t55 145l8 70q13 102 -19 149t-114 47t-124 -47t-56 -149l-8 -70q-13 -102 19 -146
t114 -44zM683 1275q-117 0 -170 68t-36 197l7 70q17 130 87 200t187 70t170 -70t36 -200l-7 -70q-17 -128 -87 -196t-187 -69z" />
    <glyph glyph-name="Uhungarumlaut" unicode="&#x170;" 
d="M523 -19q-197 1 -276 131t-48 391l121 986h91l-121 -986q-28 -231 28 -335t214 -104t240 104t111 335l121 986h91l-121 -986q-32 -261 -143 -391t-308 -131zM514 1676l143 372h158l-227 -372h-74zM843 1676l142 372h158l-227 -372h-73z" />
    <glyph glyph-name="uhungarumlaut" unicode="&#x171;" 
d="M466 63q208 0 387 192l106 862h91l-138 -1117h-91l21 173h-17q-148 -192 -363 -192q-147 0 -225 99q-77 99 -56 264l95 773h91l-91 -743q-19 -153 33 -232t157 -79zM488 1303l143 373h158l-227 -373h-74zM817 1303l142 373h158l-227 -373h-73z" />
    <glyph glyph-name="Uogonek" unicode="&#x172;" 
d="M506 -284q30 -34 103 -34t136 15l-10 -82q-73 -15 -157 -15t-140 56t-45 153t104 173q-358 16 -298 521l121 986h91l-121 -986q-28 -231 28 -335t214 -104t240 104t111 335l121 986h91l-121 -986q-32 -261 -136 -383t-269 -137q-20 -19 -48 -55t-36 -106t21 -106z" />
    <glyph glyph-name="uogonek" unicode="&#x173;" 
d="M466 63q208 0 387 192l106 862h91l-131 -1062l12 -12q-7 -5 -15 -10l-4 -33h-41q-90 -74 -101 -161q-10 -88 19 -123q30 -34 103 -34t136 15l-10 -82q-73 -15 -157 -15q-85 0 -141 56t-45 142q15 127 148 218l19 157h-17q-146 -190 -363 -192q-147 0 -225 99
q-77 99 -56 264l95 773h91l-91 -743q-19 -153 33 -232t157 -79z" />
    <glyph glyph-name="Wcircumflex" unicode="&#x174;" 
d="M760 0l-108 1011l-362 -1011h-89l6 1489h80l-10 -1323l341 970h95l101 -954l303 1307h91l-359 -1489h-89zM443 1718l-32 47l334 315h59l257 -315l-43 -47l-255 276z" />
    <glyph glyph-name="wcircumflex" unicode="&#x175;" 
d="M724 0l-102 795l-289 -795h-98l-88 1117h91l64 -983l279 797h106l97 -775l300 961h95l-364 -1117h-91zM404 1346l-32 47l334 314h59l257 -314l-43 -47l-255 276z" />
    <glyph glyph-name="Ycircumflex" unicode="&#x176;" 
d="M570 0h-90l69 559l-376 930h99l333 -837l531 837h104l-601 -930zM443 1718l-32 47l334 315h59l257 -315l-43 -47l-255 276z" />
    <glyph glyph-name="ycircumflex" unicode="&#x177;" 
d="M179 -384q-51 0 -123 13l22 82q71 -15 142 -15q72 1 128 48t119 182l34 74h-23l-245 1117h89l220 -1020l458 1020h93l-551 -1214q-72 -155 -156 -221t-207 -66zM402 1346l-31 47l333 314h59l257 -314l-43 -47l-255 276z" />
    <glyph glyph-name="Ydieresis" unicode="&#x178;" 
d="M570 0h-90l69 559l-376 930h99l333 -837l531 837h104l-601 -930zM914 1733q-35 0 -57 13q-21 13 -16 60t31 62q24 16 60 16q80 0 70 -71q-8 -54 -31 -67q-22 -13 -57 -13zM553 1733q-35 0 -56 13t-14 61q7 47 30 62t59 15q79 0 70 -71q-8 -54 -31 -67t-58 -13z" />
    <glyph glyph-name="Zacute" unicode="&#x179;" 
d="M963 0h-859l10 82l917 1326h-754l10 81h858l-9 -81l-920 -1326h756zM659 1676l294 372h144l-363 -372h-75z" />
    <glyph glyph-name="zacute" unicode="&#x17a;" 
d="M877 0h-704l9 82l721 953h-603l11 82h704l-11 -82l-725 -953h607zM572 1303l294 373h143l-363 -373h-74z" />
    <glyph glyph-name="Zdotaccent" unicode="&#x17b;" 
d="M963 0h-859l10 82l917 1326h-754l10 81h858l-9 -81l-920 -1326h756zM752 1884q41 0 64 -15t14 -69q-7 -67 -97 -67q-40 0 -62 14t-17 60q5 47 31 62t67 15z" />
    <glyph glyph-name="zdotaccent" unicode="&#x17c;" 
d="M877 0h-704l9 82l721 953h-603l11 82h704l-11 -82l-725 -953h607zM717 1512q41 0 64 -15t14 -69q-7 -67 -98 -67q-40 0 -63 15t-17 60q7 46 33 61t67 15z" />
    <glyph glyph-name="Zcaron" unicode="&#x17d;" 
d="M963 0h-859l10 82l917 1326h-754l10 81h858l-9 -81l-920 -1326h756zM696 1683l-257 315l43 46l255 -275l321 275l31 -46l-333 -315h-60z" />
    <glyph glyph-name="zcaron" unicode="&#x17e;" 
d="M877 0h-704l9 82l721 953h-603l11 82h704l-11 -82l-725 -953h607zM653 1311l-256 314l42 47l255 -276l321 276l31 -47l-333 -314h-60z" />
    <glyph glyph-name="longs" unicode="&#x17f;" 
d="M905 1424q-159 0 -188 -221l-194 -1575h-89l173 1407h-205l11 82h205l9 84q19 145 99 224t186 79t181 -41l-30 -76q-83 37 -158 37z" />
    <glyph glyph-name="florin" unicode="&#x192;" 
d="M914 1426q-91 0 -137.5 -57.5t-63.5 -201.5l-35 -283h376l-10 -74h-376l-63 -518q-17 -140 -99 -221.5t-195 -81.5t-205 41l30 78q92 -37 185 -37t137.5 57.5t62.5 202.5l58 479h-359l9 74h359l39 321q17 136 100 219.5t200 83.5t201 -41l-30 -78q-93 37 -184 37z" />
    <glyph glyph-name="Aringacute" unicode="&#x1fa;" 
d="M920 0l-80 467h-512l-196 -467h-97l639 1489h67l276 -1489h-97zM827 547l-136 790l-330 -790h466zM734 1722q82 0 124 45t56 145l8 71q13 102 -19 149q-32 46 -114 46q-83 0 -125 -46t-55 -149l-8 -71q-13 -102 19 -146t114 -44zM724 1648q-117 0 -170 68t-36 196l7 71
q28 218 193 260l287 364h144l-345 -354q114 -1 166 -71t35 -199l-7 -71q-17 -128 -87 -196t-187 -68z" />
    <glyph glyph-name="aringacute" unicode="&#x1fb;" 
d="M449 590h363l26 218q13 106 -46 176t-188 70t-193 -46t-115 -168l-78 24q60 145 151 208q91 64 250 64t244 -87t66 -239l-63 -518q-17 -145 21 -189t157 -21l-9 -86q-242 -39 -240 177h-17q-134 -192 -388 -192q-134 0 -211 85q-79 86 -61 228t104 219t227 77zM408 58
q114 0 199 43q84 43 160 134l35 279h-361q-97 0 -161 -45t-78 -162t39 -183t167 -66zM657 1350q82 0 125 45t56 145l7 70q13 102 -18 149q-32 47 -114 47t-125 -47t-56 -149l-7 -70q-13 -102 19 -146t113 -44zM648 1275q-117 0 -170 68t-37 197l8 70q29 218 191 260l287 364
h144l-345 -354q116 -1 168 -70t35 -200l-7 -70q-17 -128 -87 -196t-187 -69z" />
    <glyph glyph-name="AEacute" unicode="&#x1fc;" 
d="M631 467h-406l-184 -467h-82l588 1489h700l-9 -81h-402l-71 -568h386l-10 -82h-385l-84 -676h402l-9 -82h-492zM594 1408l-335 -859h381l107 859h-153zM829 1676l294 372h143l-363 -372h-74z" />
    <glyph glyph-name="aeacute" unicode="&#x1fd;" 
d="M350 512q-186 0 -213 -216q-29 -239 144 -238q125 0 231 124l41 330h-203zM893 1054q-184 0 -221 -278l-19 -149h373l17 133q19 154 -19 224t-131 70zM765 -19q-162 0 -210 162h-11q-56 -71 -130 -117t-157 -45q-115 0 -171 84q-56 83 -40 223t94 219t184 79h238l23 194
q17 126 -21 200t-128 74t-131 -40t-80 -139l-74 26q73 233 290 235q87 0 147 -47t67 -130q35 80 105 128t145 49q125 0 188 -92t39 -281l-26 -214h-462l-26 -216q-18 -143 20 -206t130 -63t136 38q44 39 77 146l78 -21q-39 -125 -107 -185t-187 -61zM657 1303l294 373h144
l-363 -373h-75z" />
    <glyph glyph-name="Oslashacute" unicode="&#x1fe;" 
d="M523 -19q-144 0 -225 58l-88 -177h-91l116 231q-105 131 -67 423l55 450q67 542 488 542q123 0 198 -43l78 162h91l-102 -208q125 -125 89 -453l-56 -450q-33 -274 -155 -404t-331 -131zM532 63q180 1 268 105t118 348l56 450q34 269 -43 373l-594 -1224q68 -52 195 -52z
M869 1391q-63 35 -169 35q-179 0 -268 -106t-119 -354l-56 -450q-30 -229 24 -337zM674 1676l294 372h144l-364 -372h-74z" />
    <glyph glyph-name="oslashacute" unicode="&#x1ff;" 
d="M523 -19q-117 0 -197 45l-97 -164h-84l121 205q-107 107 -80 324l39 328q27 210 145 313t297 104q119 0 195 -45l99 164h83l-122 -207q105 -109 78 -329l-39 -328q-27 -209 -143 -309t-295 -101zM372 99q53 -36 180 -36q127 1 211 77t106 251l40 328q21 162 -38 249z
M653 1054q-147 0 -231 -81t-105 -254l-40 -328q-22 -169 40 -246l500 870q-66 39 -164 39zM572 1303l294 373h143l-363 -373h-74z" />
    <glyph glyph-name="Scommaaccent" unicode="&#x218;" 
d="M560 -11q-168 0 -270 55q-103 55 -180 155l65 62q75 -95 165 -143t226 -47q136 0 238 84q102 85 119 223t-50 213t-261 137t-280 152q-85 90 -65 251t142 263t295 103q132 0 223 -53t160 -143l-63 -63q-71 86 -146 132t-200 45q-125 0 -216 -75t-107 -204t54 -198
q69 -69 263 -133t276 -158t62 -267t-152 -282q-130 -109 -298 -109zM225 -559l211 373h145l-279 -373h-77z" />
    <glyph glyph-name="scommaaccent" unicode="&#x219;" 
d="M544 -19q-254 0 -425 151l56 73q154 -140 378 -142q132 0 216 59q84 58 96 158t-49 148t-248 88q-188 40 -266 114q-78 72 -62 204t121 216q105 86 235 86q233 0 396 -142l-52 -71q-149 129 -335 131q-115 0 -189 -56t-86 -159t46 -153q60 -50 249 -88t266 -110t61 -204
t-129 -218t-279 -85zM225 -559l211 373h145l-279 -373h-77z" />
    <glyph glyph-name="Tcommaaccent" unicode="&#x21a;" 
d="M480 0l173 1408h-428l10 81h945l-9 -81h-428l-173 -1408h-90zM223 -559l211 373h145l-279 -373h-77z" />
    <glyph glyph-name="tcommaaccent" unicode="&#x21b;" 
d="M707 -17q-156 0 -232 97t-56 268l84 687h-289l11 82h289l45 372h91l-45 -372h445l-11 -82h-445l-82 -670q-19 -151 34 -225t168 -73q115 0 213 47l9 -80q-119 -51 -229 -51zM263 -559l210 373h145l-279 -373h-76z" />
    <glyph glyph-name="dotlessj" unicode="&#xf6be;" 
d="M358 -303q123 0 200 80t95 243l125 1015h-478l11 82h568l-136 -1108q-24 -188 -132.5 -292t-277.5 -104q-117 0 -238 41l32 83q108 -40 231 -40z" />
    <glyph glyph-name="dotlessj" unicode="&#x237;" 
d="M358 -303q123 0 200 80t95 243l125 1015h-478l11 82h568l-136 -1108q-24 -188 -132.5 -292t-277.5 -104q-117 0 -238 41l32 83q108 -40 231 -40z" />
    <glyph glyph-name="quoteleft" unicode="&#x2018;" 
d="M469 840l384 649h80l-283 -649h-181z" />
    <glyph glyph-name="quoteleft" unicode="&#x2bb;" 
d="M469 840l384 649h80l-283 -649h-181z" />
    <glyph glyph-name="circumflex" unicode="&#x2c6;" 
d="M402 1346l-31 47l333 314h59l257 -314l-43 -47l-255 276z" />
    <glyph glyph-name="caron" unicode="&#x2c7;" 
d="M655 1311l-257 314l43 47l255 -276l321 276l31 -47l-333 -314h-60z" />
    <glyph glyph-name="breve" unicode="&#x2d8;" 
d="M683 1290q-168 0 -245 100t-54 287h91q-19 -161 33 -233t184 -72t204 72q71 72 93 233h91q-26 -187 -128 -287t-269 -100z" />
    <glyph glyph-name="dotaccent" unicode="&#x2d9;" 
d="M711 1512q41 0 64 -15t14 -69q-7 -67 -97 -67q-40 0 -63 15t-17 60q6 46 32 61t67 15z" />
    <glyph glyph-name="ring" unicode="&#x2da;" 
d="M691 1350q83 0 125 45t55 145l8 70q13 102 -19 149t-114 47t-124 -47q-43 -47 -56 -149l-7 -70q-13 -102 19 -146t113 -44zM681 1275q-117 0 -170 68t-36 197l7 70q17 130 87 200t187 70t170 -70t37 -200l-8 -70q-17 -128 -86 -197q-71 -68 -188 -68z" />
    <glyph glyph-name="ogonek" unicode="&#x2db;" 
d="M482 -284q30 -34 103 -34t136 15l-10 -82q-73 -15 -157 -15q-85 0 -141 56q-55 56 -45 142t73 154q63 69 162 111l21 -20q-147 -94 -164 -218q-7 -74 22 -109z" />
    <glyph glyph-name="tilde" unicode="&#x2dc;" 
d="M575 1622q-99 0 -126 -261l-4 -20h-74l3 27q40 326 212 326q58 0 92 -34t65 -126q32 -80 53 -110t49 -29q94 0 127 260l4 21h74l-4 -28q-40 -326 -212 -326q-56 0 -91 36t-66 122t-51 114t-51 28z" />
    <glyph glyph-name="hungarumlaut" unicode="&#x2dd;" 
d="M486 1303l143 373h159l-228 -373h-74zM815 1303l142 373h158l-227 -373h-73z" />
    <glyph glyph-name="gravecmb" unicode="&#x300;" horiz-adv-x="0" 
d="M110 1303l-270 373h145l201 -373h-76z" />
    <glyph glyph-name="acutecmb" unicode="&#x301;" horiz-adv-x="0" 
d="M-50 1303l294 373h143l-363 -373h-74z" />
    <glyph glyph-name="circumflexcmb" unicode="&#x302;" horiz-adv-x="0" 
d="M-214 1346l-32 47l334 314h59l257 -314l-43 -47l-255 276z" />
    <glyph glyph-name="tildecmb" unicode="&#x303;" horiz-adv-x="0" 
d="M-41 1622q-98 0 -127 -261l-3 -20h-75l4 27q40 326 212 326q58 0 91.5 -34.5t65.5 -125.5q32 -80 53 -109.5t49 -29.5q94 0 127 260l3 21h75l-4 -28q-40 -326 -212 -326q-56 0 -92 36.5t-66 122.5t-50.5 113.5t-50.5 27.5z" />
    <glyph glyph-name="macroncmb" unicode="&#x304;" horiz-adv-x="0" 
d="M-214 1454l9 80h603l-9 -80h-603z" />
    <glyph glyph-name="brevecmb" unicode="&#x306;" horiz-adv-x="0" 
d="M67 1290q-168 0 -245 99.5t-55 287.5h92q-19 -162 33 -233.5t184.5 -71.5t203 72t92.5 233h92q-26 -188 -127.5 -287.5t-269.5 -99.5z" />
    <glyph glyph-name="dotaccentcmb" unicode="&#x307;" horiz-adv-x="0" 
d="M75 1361q-40 0 -63.5 15t-16.5 60q7 46 33 61t67 15t63.5 -15t14.5 -69q-7 -67 -98 -67z" />
    <glyph glyph-name="dieresiscmb" unicode="&#x308;" horiz-adv-x="0" 
d="M297 1512q57 0 47 -71q-4 -52 -28 -66t-59 -14t-57 13.5t-15 60.5t31 62t81 15zM-104.5 1361q-35.5 0 -56 13t-13.5 61q7 47 30 62t81 15t48 -71q-8 -54 -31 -67t-58.5 -13z" />
    <glyph glyph-name="ringcmb" unicode="&#x30a;" horiz-adv-x="0" 
d="M74.5 1350q81.5 0 124.5 44.5t56 145.5l8 70q13 102 -19 149t-114 47t-124.5 -46.5t-55.5 -149.5l-8 -70q-13 -101 19 -145.5t113.5 -44.5zM65 1275q-117 0 -170 68t-36 197l7 70q17 130 86.5 200t187 70t170.5 -69.5t36 -200.5l-7 -70q-17 -128 -87 -196.5t-187 -68.5z
" />
    <glyph glyph-name="hungarumlautcmb" unicode="&#x30b;" horiz-adv-x="0" 
d="M-130 1303l143 373h158l-227 -373h-74zM199 1303l142 373h158l-227 -373h-73z" />
    <glyph glyph-name="caroncmb" unicode="&#x30c;" horiz-adv-x="0" 
d="M39 1311l-257 314l43 47l255 -276l320 276l32 -47l-333 -314h-60z" />
    <glyph glyph-name="commaturnedabovecmb" unicode="&#x312;" horiz-adv-x="0" 
d="M-80 1303l279 373h75l-211 -373h-143z" />
    <glyph glyph-name="commaaccentcmb" unicode="&#x326;" horiz-adv-x="0" 
d="M-357 -559l210 373h145l-279 -373h-76z" />
    <glyph glyph-name="cedillacmb" unicode="&#x327;" horiz-adv-x="0" 
d="M-191 -402q-103 0 -158 47.5t-49 159.5l87 7q-2 -74 25.5 -106t101.5 -32t112 31t48 109t-19 120t-100 66l24 39q97 -20 145 -80t37 -154t-81 -150.5t-173 -56.5z" />
    <glyph glyph-name="ogonekcmb" unicode="&#x328;" horiz-adv-x="0" 
d="M-133.5 -283.5q29.5 -34.5 102.5 -34.5t135 15l-9 -82q-73 -15 -158 -15t-140.5 55.5t-45.5 141.5t73.5 154.5t162.5 111.5l20 -20q-146 -93 -163 -218q-7 -74 22.5 -108.5z" />
    <glyph glyph-name="tonos" unicode="&#x384;" 
d="M590 1303l194 373h141l-260 -373h-75z" />
    <glyph glyph-name="dieresistonos" unicode="&#x385;" 
d="M989 1342q-64 0 -54 67q6 84 71 84t55 -71q-8 -52 -27 -66t-45 -14zM392 1342q-65 0 -56 61t28 75q18 15 46 15q65 1 53 -75q-11 -76 -71 -76zM592 1303l156 373h110l-193 -373h-73z" />
    <glyph glyph-name="Alphatonos" unicode="&#x386;" 
d="M920 0l-80 467h-512l-196 -467h-97l639 1489h67l276 -1489h-97zM827 547l-136 790l-330 -790h466zM160 1303l194 373h141l-260 -373h-75z" />
    <glyph glyph-name="anoteleia" unicode="&#x387;" 
d="M612 616q-49 0 -78 24q-28 24 -22 75l7 52q6 52 40 77q33 25 83 25t78 -25t21 -77l-7 -52q-6 -51 -40 -75t-82 -24z" />
    <glyph glyph-name="Epsilontonos" unicode="&#x388;" 
d="M138 0l182 1489h808l-9 -81h-717l-69 -553h631l-9 -80h-631l-86 -693h717l-9 -82h-808zM-78 1303l193 373h142l-261 -373h-74z" />
    <glyph glyph-name="Etatonos" unicode="&#x389;" 
d="M138 0l182 1489h91l-78 -634h592l79 634h91l-183 -1489h-91l95 775h-592l-95 -775h-91zM-97 1303l194 373h141l-260 -373h-75z" />
    <glyph glyph-name="Iotatonos" unicode="&#x38a;" 
d="M138 0l9 82h343l163 1326h-342l9 81h775l-10 -81h-342l-164 -1326h343l-10 -82h-774zM-97 1303l194 373h141l-260 -373h-75z" />
    <glyph glyph-name="Omicrontonos" unicode="&#x38c;" 
d="M539 63q176 0 266 107t120 340l56 462q30 238 -34 346q-65 108 -241 108t-266 -108t-120 -346l-56 -462q-30 -233 34 -340t241 -107zM718 1508q421 0 354 -536l-55 -462q-67 -529 -486 -529q-421 0 -356 529l56 462q34 272 155 404q122 132 332 132zM52 1303l194 373h141
l-260 -373h-75z" />
    <glyph glyph-name="Upsilontonos" unicode="&#x38e;" 
d="M570 0h-90l69 559l-376 930h99l333 -837l531 837h104l-601 -930zM-145 1303l193 373h142l-261 -373h-74z" />
    <glyph glyph-name="Omegatonos" unicode="&#x38f;" 
d="M207 966q66 542 502 542t373 -542l-26 -201q-17 -149 -84 -261t-188 -150l-34 -272h222l-9 -82h-311l50 410q128 35 188 123t76 232l26 201q30 246 -38 353t-254 107t-280 -107t-124 -353l-26 -201q-17 -143 20 -231t159 -124l-51 -410h-310l9 82h221l34 272
q-110 39 -149 151t-22 260zM7 1303l194 373h142l-261 -373h-75z" />
    <glyph glyph-name="iotadieresistonos" unicode="&#x390;" 
d="M944 37q-99 -46 -215 -46q-115 0 -171 94t-35 261l84 689h-376l11 82h465l-94 -771q-35 -272 137 -272q87 0 183 43zM989 1493q65 0 55 -71q-6 -80 -71 -80t-56 61t27 75q17 15 45 15zM375 1342q-65 0 -56 61t28 75q18 15 46 15q64 0 54 -71l-2 -13q-10 -67 -70 -67z
M575 1303l157 373h110l-194 -373h-73z" />
    <glyph glyph-name="Alpha" unicode="&#x391;" 
d="M920 0l-80 467h-512l-196 -467h-97l639 1489h67l276 -1489h-97zM827 547l-136 790l-330 -790h466z" />
    <glyph glyph-name="Beta" unicode="&#x392;" 
d="M583 82q155 0 230 69t96 231l7 59q20 158 -38 228q-59 70 -213 70h-345l-82 -657h345zM639 819q145 -1 217 61t88 202l7 52q17 147 -39 210t-201 64h-309l-72 -589h309zM721 1489q175 0 256 -90t60 -260l-9 -83q-13 -101 -72 -172t-146 -87l-4 -17q108 -11 164 -98
t41 -218l-11 -84q-22 -184 -133 -282t-297 -98h-432l182 1489h401z" />
    <glyph glyph-name="Gamma" unicode="&#x393;" 
d="M138 0l182 1489h808l-9 -81h-717l-173 -1408h-91z" />
    <glyph glyph-name="Delta" unicode="&#x394;" 
d="M929 82l-242 1270l-559 -1270h801zM35 0l10 82l622 1407h67l290 -1407l-9 -82h-980z" />
    <glyph glyph-name="Epsilon" unicode="&#x395;" 
d="M138 0l182 1489h808l-9 -81h-717l-69 -553h631l-9 -80h-631l-86 -693h717l-9 -82h-808z" />
    <glyph glyph-name="Zeta" unicode="&#x396;" 
d="M963 0h-859l10 82l917 1326h-754l10 81h858l-9 -81l-920 -1326h756z" />
    <glyph glyph-name="Eta" unicode="&#x397;" 
d="M138 0l182 1489h91l-78 -634h592l79 634h91l-183 -1489h-91l95 775h-592l-95 -775h-91z" />
    <glyph glyph-name="Theta" unicode="&#x398;" 
d="M473 719l11 80h277l-11 -80h-277zM532.5 63q180.5 0 270 104.5t119.5 348.5l55 450q30 248 -33 354t-244 106t-270 -106t-119 -354l-56 -450q-30 -244 33.5 -348.5t244 -104.5zM629 -19q-316 0 -407.5 134t-57.5 401l56 450q68 542 491 542q209 0 300 -136t58 -406
l-56 -450q-68 -535 -384 -535z" />
    <glyph glyph-name="Iota" unicode="&#x399;" 
d="M138 0l9 82h343l163 1326h-342l9 81h775l-10 -81h-342l-164 -1326h343l-10 -82h-774z" />
    <glyph glyph-name="Kappa" unicode="&#x39a;" 
d="M320 747l-91 -747h-91l182 1489h91l-80 -662h136l611 662h117l-644 -690l456 -799h-110l-422 747h-155z" />
    <glyph glyph-name="Lambda" unicode="&#x39b;" 
d="M920 0l-229 1337l-559 -1337h-97l639 1489h67l276 -1489h-97z" />
    <glyph glyph-name="Mu" unicode="&#x39c;" 
d="M525 372l-194 967l-163 -1339h-90l183 1489h119l201 -1016l450 1016h123l-182 -1489h-89l163 1331l-428 -959h-93z" />
    <glyph glyph-name="Nu" unicode="&#x39d;" 
d="M808 0l-424 1303l-161 -1303h-85l182 1489h93l432 -1327l162 1327h88l-183 -1489h-104z" />
    <glyph glyph-name="Xi" unicode="&#x39e;" 
d="M104 0l10 82h841l-9 -82h-842zM242 775l9 80h756l-9 -80h-756zM277 1408l10 81h841l-9 -81h-842z" />
    <glyph glyph-name="Omicron" unicode="&#x39f;" 
d="M531 63q176 0 267 107q90 107 120 340l56 462q30 238 -34 346t-241 108q-176 0 -266 -108t-120 -346l-56 -462q-30 -233 34 -340t240 -107zM223 972q67 536 487 536t355 -536l-56 -462q-67 -529 -486 -529q-422 0 -355 529z" />
    <glyph glyph-name="Pi" unicode="&#x3a0;" 
d="M138 0l182 1489h775l-183 -1489h-91l173 1408h-592l-173 -1408h-91z" />
    <glyph glyph-name="Rho" unicode="&#x3a1;" 
d="M652 603q156 0 234 74t101 241l20 171q20 169 -40 244q-61 74 -217 75h-348l-99 -805h349zM761 1489q188 -1 274 -101t62 -291l-23 -183q-22 -192 -134 -292t-300 -101h-348l-63 -521h-91l182 1489h441z" />
    <glyph glyph-name="Sigma" unicode="&#x3a3;" 
d="M946 0h-858l9 82l672 685l-508 641l9 81h858l-9 -81h-741l464 -596l-12 -91l-618 -639h743z" />
    <glyph glyph-name="Tau" unicode="&#x3a4;" 
d="M480 0l173 1408h-428l10 81h945l-9 -81h-428l-173 -1408h-90z" />
    <glyph glyph-name="Upsilon" unicode="&#x3a5;" 
d="M570 0h-90l69 559l-376 930h99l333 -837l531 837h104l-601 -930z" />
    <glyph glyph-name="Phi" unicode="&#x3a6;" 
d="M415 249h95l123 991h-95q-128 0 -196 -88t-93 -284l-29 -254q-24 -192 22 -278t173 -87zM819 1240h-97l-122 -991h96q127 0 195 87t92 278l30 254q25 196 -21 284t-173 88zM687 168h-97l-24 -205h-89l24 205h-95q-162 0 -234 114t-44 332l30 254q28 222 128 338t261 116
h95l26 205h90l-26 -205h97q163 0 233 -116t42 -338l-30 -254q-28 -218 -126 -332t-261 -114z" />
    <glyph glyph-name="Chi" unicode="&#x3a7;" 
d="M942 0l-328 687l-504 -687h-103l568 769l-342 720h97l312 -655l483 655h100l-544 -733l358 -756h-97z" />
    <glyph glyph-name="Psi" unicode="&#x3a8;" 
d="M570 0h-90l49 397q-197 13 -274.5 136.5t-53.5 317.5l78 638h90l-79 -638q-20 -171 37.5 -258.5t214.5 -99.5l121 996h89l-121 -996q156 11 236.5 99t100.5 259l78 638h90l-78 -638q-24 -194 -131.5 -317.5t-308.5 -136.5z" />
    <glyph glyph-name="Omega" unicode="&#x3a9;" 
d="M700 1426q-186 0 -280 -107t-124 -353l-26 -201q-17 -143 20.5 -231.5t158.5 -123.5l-51 -410h-310l9 82h221l34 272q-110 39 -149 150.5t-22 260.5l26 201q66 542 502 542t373 -542l-26 -201q-17 -149 -84 -260.5t-188 -150.5l-34 -272h222l-9 -82h-311l50 410
q128 35 188 123.5t76 231.5l26 201q30 246 -38 353t-254 107z" />
    <glyph glyph-name="Iotadieresis" unicode="&#x3aa;" 
d="M138 0l9 82h343l163 1326h-342l9 81h775l-10 -81h-342l-164 -1326h343l-10 -82h-774zM914 1733q-35 0 -57 13q-21 13 -16 60t31 62q24 16 60 16q80 0 70 -71q-8 -54 -31 -67q-22 -13 -57 -13zM553 1733q-35 0 -56 13t-14 61q7 47 30 62t59 15q79 0 70 -71q-8 -54 -31 -67
t-58 -13z" />
    <glyph glyph-name="Upsilondieresis" unicode="&#x3ab;" 
d="M570 0h-90l69 559l-376 930h99l333 -837l531 837h104l-601 -930zM914 1733q-35 0 -57 13q-21 13 -16 60t31 62q24 16 60 16q80 0 70 -71q-8 -54 -31 -67q-22 -13 -57 -13zM553 1733q-35 0 -56 13t-14 61q7 47 30 62t59 15q79 0 70 -71q-8 -54 -31 -67t-58 -13z" />
    <glyph glyph-name="alphatonos" unicode="&#x3ac;" 
d="M590 1136q89 0 163 -50t116 -142h17l23 173h89l-101 -819q-19 -149 17 -194t149 -24l-9 -86q-125 -17 -182 30q-56 47 -49 168h-19q-151 -211 -355 -211q-153 0 -228 110t-52 302l41 331q22 192 124 302t256 110zM467 65q173 0 335 190l75 607q-119 188 -289 190
q-243 0 -285 -346l-37 -295q-40 -346 201 -346zM678 1303l193 373h142l-261 -373h-74z" />
    <glyph glyph-name="epsilontonos" unicode="&#x3ad;" 
d="M518 -19q-210 0 -302 80q-93 80 -71 250q13 122 80 204q67 81 181 88v8q-89 7 -135 65t-33 158l4 26q17 140 118 208t293 68t278 -71t78 -222l-89 -9q2 121 -62 170q-64 50 -218 50t-225 -46t-84 -159l-3 -26q-11 -95 50 -135t222 -40h94l-9 -78h-95q-188 0 -263 -48
t-92 -192q-19 -145 51 -206t241 -61t248 54t109 186l88 -9q-30 -162 -137 -238t-317 -75zM592 1303l194 373h141l-260 -373h-75z" />
    <glyph glyph-name="etatonos" unicode="&#x3ae;" 
d="M717 1052q-210 0 -382 -190l-106 -862h-91l138 1117h91l-23 -173h17q59 88 159 140t206 52q149 0 225 -94t58 -256l-143 -1158h-91l141 1139q17 141 -38 213t-161 72zM598 1303l193 373h142l-261 -373h-74z" />
    <glyph glyph-name="iotatonos" unicode="&#x3af;" 
d="M944 37q-99 -46 -215 -46q-115 0 -171 94t-35 261l84 689h-376l11 82h465l-94 -771q-35 -272 137 -272q87 0 183 43zM583 1303l193 373h142l-261 -373h-74z" />
    <glyph glyph-name="upsilondieresistonos" unicode="&#x3b0;" 
d="M523 -19q-189 1 -275 107t-62 303l90 726h91l-90 -726q-22 -175 43 -251t212 -76t231 76t106 251l90 726h91l-89 -726q-24 -197 -137 -303t-301 -107zM989 1342q-64 0 -54 67q6 84 71 84t55 -71q-8 -52 -27 -66t-45 -14zM392 1342q-65 0 -56 61t28 75q18 15 46 15
q65 1 53 -75q-11 -76 -71 -76zM592 1303l156 373h110l-193 -373h-73z" />
    <glyph glyph-name="alpha" unicode="&#x3b1;" 
d="M590 1136q89 0 163 -50.5t116 -141.5h17l23 173h89l-101 -819q-19 -149 17 -193.5t149 -24.5l-9 -86q-125 -17 -181.5 30t-49.5 168h-19q-151 -211 -355 -211q-153 0 -228.5 110t-51.5 302l41 331q22 192 125 302t255 110zM467 65q173 0 335 190l75 607
q-120 190 -289 190q-243 0 -285 -346l-37 -295q-40 -346 201 -346z" />
    <glyph glyph-name="beta" unicode="&#x3b2;" 
d="M522 -19q-174 0 -287 62l-53 -415h-91l179 1456q26 199 139 311.5t281 112.5t248 -96t60 -265l-8 -60q-15 -112 -76 -185t-160 -92l-2 -15q121 -13 178 -98.5t40 -219.5l-11 -93q-22 -188 -142.5 -295.5t-294.5 -107.5zM618 760h-87l9 76h78q132 0 201 61.5t86 189.5
l5 45q19 153 -35.5 223.5t-192.5 70.5t-218 -82t-101 -259l-117 -951q106 -74 268 -74t245.5 78t106.5 249l9 90q19 145 -43.5 214t-213.5 69z" />
    <glyph glyph-name="gamma" unicode="&#x3b3;" 
d="M529 -372h-101l56 394l-253 1095h97l212 -970l443 970h110l-523 -1095z" />
    <glyph glyph-name="delta" unicode="&#x3b4;" 
d="M532.5 63q156.5 0 235.5 78.5t101 256.5l25 196q15 123 -45 181.5t-272 131.5q-252 -123 -277 -332l-23 -177q-22 -179 38.5 -257t217 -78zM523 -19q-188 0 -274.5 106.5t-62.5 310.5l23 177q30 233 301 360q-201 93 -175 292q15 128 102.5 195t232.5 67h307l-9 -81h-307
q-214 0 -237 -177q-11 -101 39.5 -156t212.5 -109q199 -73 263.5 -149t45.5 -223l-24 -196q-24 -205 -137 -311t-301 -106z" />
    <glyph glyph-name="epsilon" unicode="&#x3b5;" 
d="M518 -19q-210 0 -302.5 80t-70.5 250q13 122 80 203.5t181 88.5v8q-89 6 -135 64.5t-33 158.5l4 26q17 141 118.5 208.5t293.5 67.5t277.5 -71t77.5 -222l-89 -9q2 121 -62 170.5t-218 49.5t-225 -45.5t-84 -159.5l-3 -26q-11 -95 50 -135t222 -40h94l-9 -78h-95
q-188 0 -263 -46.5t-92 -192.5q-18 -146 51.5 -207t240.5 -61t248.5 54t108.5 186l88 -9q-30 -162 -137 -237.5t-317 -75.5z" />
    <glyph glyph-name="zeta" unicode="&#x3b6;" 
d="M611 -372h-177l11 82h173q177 0 199 180q11 93 -26 138t-128 45h-145q-181 0 -267.5 103t-62.5 289q13 106 59.5 200.5t139.5 205.5l330 388l-4 11q-181 -19 -293.5 43.5t-127.5 190.5l84 21q9 -121 134 -167.5t302 7.5l283 141l28 -102l-291 -114l-389 -469
q-88 -106 -120.5 -176t-45.5 -170q-19 -151 46.5 -235.5t203.5 -84.5h143q123 0 183.5 -71t45.5 -194t-92 -192.5t-196 -69.5z" />
    <glyph glyph-name="eta" unicode="&#x3b7;" 
d="M717 1052q-210 0 -382 -190l-106 -862h-91l138 1117h91l-23 -173h17q60 89 159.5 140.5t205.5 51.5q149 0 225.5 -94t57.5 -256l-143 -1158h-91l141 1139q17 140 -38 212.5t-161 72.5z" />
    <glyph glyph-name="theta" unicode="&#x3b8;" 
d="M871 404l38 315h-592l-38 -315q-43 -341 253 -341t339 341zM700 1426q-296 0 -339 -348l-33 -279h592l33 279q43 348 -253 348zM523 -19q-184 0 -272.5 110t-62.5 313l82 674q26 207 140.5 318.5t299.5 111.5t273 -111.5t61 -318.5l-81 -674q-26 -203 -141 -313
t-299 -110z" />
    <glyph glyph-name="iota" unicode="&#x3b9;" 
d="M944 37q-99 -46 -215 -46q-115 0 -171 94t-35 261l84 689h-376l11 82h465l-94 -771q-35 -272 137 -272q87 0 183 43z" />
    <glyph glyph-name="kappa" unicode="&#x3ba;" 
d="M382 546l-67 -546h-92l138 1117h91l-61 -490h166l411 490h106l-447 -521l306 -596h-99l-277 546h-175z" />
    <glyph glyph-name="lambda" unicode="&#x3bb;" 
d="M408 1501q123 0 191 -66.5t101 -220.5l255 -1214h-89l-205 1024l-473 -1024h-95l523 1117h23l-15 75q-32 132 -76.5 180.5t-119.5 48.5t-141 -15l-4 80q73 15 125 15z" />
    <glyph glyph-name="mu" unicode="&#x3bc;" 
d="M464 -19q-152 0 -220 146l-52 -499h-110l59 409l135 1080h91l-93 -756q-19 -141 34 -218.5t157 -77.5t177 36.5t138 107.5l112 908h89l-102 -823q-17 -147 13 -190t132 -24l-9 -86q-108 -15 -159.5 25.5t-47.5 144.5h-15q-52 -69 -140.5 -126t-188.5 -57z" />
    <glyph glyph-name="nu" unicode="&#x3bd;" 
d="M546 84q358 563 461 1033h86q-61 -270 -191.5 -539t-342.5 -578h-67l-261 1117h93z" />
    <glyph glyph-name="xi" unicode="&#x3be;" 
d="M652 -290q93 0 139.5 42.5t58.5 138.5t-24.5 139.5t-129.5 43.5h-178q-168 0 -259 86t-75 225l8 51q17 134 110 222.5t232 99.5v7q-91 0 -137.5 63.5t-35.5 157.5t70 165.5t142 107.5v11q-147 -4 -241 59.5t-110 174.5l83 21q15 -115 127 -161t283 -9l378 151l26 -102
l-385 -119l-136 -67q-123 -60 -144 -220q-11 -95 28 -147t123 -52h287l-11 -80h-283q-136 0 -216 -66.5t-95 -188.5l-8 -51q-15 -125 48.5 -191.5t199.5 -66.5h177q259 0 229 -263q-35 -264 -293 -264h-212l11 82h213z" />
    <glyph glyph-name="omicron" unicode="&#x3bf;" 
d="M532 63q151 0 234 80t103 248l40 328q22 171 -41 253q-62 82 -214 82t-234 -82t-103 -253l-40 -328q-20 -168 42 -248t213 -80zM523 -19q-186 1 -274 107t-63 303l39 328q26 201 141 309t300 108q184 0 272 -108t62 -309l-39 -328q-24 -197 -138 -303t-300 -107z" />
    <glyph glyph-name="pi" unicode="&#x3c0;" 
d="M1100 1117l-11 -82h-205l-98 -806q-13 -104 28 -135t158 -14l-9 -86q-160 -20 -221.5 37t-43.5 207l97 797h-372l-127 -1035h-89l126 1035h-171l11 82h927z" />
    <glyph glyph-name="rho" unicode="&#x3c1;" 
d="M666.5 1136q184.5 0 272 -109t61.5 -308l-39 -326q-24 -195 -125.5 -303.5t-263.5 -108.5q-101 0 -181 50.5t-123 141.5h-19l-67 -545h-91l134 1091q26 199 141.5 308t300 109zM653.5 1054q-150.5 0 -232.5 -82t-104 -253l-56 -464q111 -182 318 -182q128 0 200 82.5
t92 255.5l38 308q22 171 -41.5 253t-214 82z" />
    <glyph glyph-name="sigma1" unicode="&#x3c2;" 
d="M626 -290q95 0 139.5 38t55.5 128t-25 125.5t-131 35.5h-146q-194 0 -272.5 106t-51.5 322l30 242q51 429 437 429q192 0 267 -81t65 -269l-82 -6q11 155 -44.5 214.5t-215.5 59.5t-236.5 -76.5t-98.5 -258.5l-34 -272q-20 -179 35.5 -252.5t212.5 -73.5h145
q257 0 227 -244q-29 -249 -283 -249h-220l11 82h215z" />
    <glyph glyph-name="sigma" unicode="&#x3c3;" 
d="M489 -19q-167 0 -247 108t-56 302l37 309q24 195 132.5 306t275.5 111h588l-13 -100l-372 22q123 -96 91 -376l-33 -272q-24 -194 -130 -302t-273 -108zM834 663q44 372 -218 372t-301 -335l-38 -309q-40 -328 221 -328t303 328z" />
    <glyph glyph-name="tau" unicode="&#x3c4;" 
d="M775 -6q-158 -17 -220.5 36.5t-46.5 192.5l99 812h-343l12 82h791l-11 -82h-360l-98 -808q-13 -106 24 -135t162 -12z" />
    <glyph glyph-name="upsilon" unicode="&#x3c5;" 
d="M523 -19q-188 0 -274.5 106.5t-62.5 303.5l90 726h91l-90 -726q-22 -175 43 -251.5t212.5 -76.5t231 76.5t105.5 251.5l90 726h91l-89 -726q-24 -197 -137 -303.5t-301 -106.5z" />
    <glyph glyph-name="phi" unicode="&#x3c6;" 
d="M696 1035l-119 -968q342 34 391 438l13 102q28 222 -44.5 325t-240.5 103zM707 1117q205 0 299 -133t65 -377l-13 -102q-28 -236 -161.5 -369.5t-328.5 -150.5l-45 -357h-89l44 357q-192 17 -291 150t-72 370l21 158q33 283 197 473l80 -32q-156 -192 -188 -441l-20 -158
q-50 -408 283 -438l130 1050h89z" />
    <glyph glyph-name="chi" unicode="&#x3c7;" 
d="M773 -372l-213 672l-366 -672h-110l434 756l-239 733h97l207 -650l365 650h111l-435 -737l244 -752h-95z" />
    <glyph glyph-name="psi" unicode="&#x3c8;" 
d="M523 -372h-89l44 357q-209 13 -301.5 137t-64.5 345l80 650h89l-80 -650q-24 -197 43 -292t244 -108l130 1050h89l-130 -1050q181 13 272 108t115 292l80 650h90l-80 -650q-28 -222 -151 -345.5t-335 -136.5z" />
    <glyph glyph-name="omega" unicode="&#x3c9;" 
d="M302 -19q-117 0 -168.5 123t-23.5 345l18 156q20 162 71.5 309t102.5 216l72 -32q-35 -63 -86.5 -201.5t-69.5 -291.5l-19 -156q-26 -201 4.5 -293.5t116.5 -92.5t137 82t74 261l54 450h89l-54 -450q-22 -179 8.5 -261t117.5 -82t138.5 92.5t78.5 293.5l18 156
q19 153 1 291.5t-38 201.5l84 32q32 -71 47.5 -217t-4.5 -308l-19 -156q-28 -222 -109 -345t-198 -123q-78 0 -129.5 60.5t-62.5 165.5h-6q-37 -104 -102 -165t-143 -61z" />
    <glyph glyph-name="iotadieresis" unicode="&#x3ca;" 
d="M944 37q-99 -46 -215 -46q-115 0 -171 94t-35 261l84 689h-376l11 82h465l-94 -771q-35 -272 137 -272q87 0 183 43zM866 1361q-35 0 -57 13t-15 61q7 47 31 62t59 15q79 0 69 -71q-8 -54 -30 -67t-57 -13zM505 1361q-35 0 -56 13t-14 61q7 47 30 62t58 15q80 0 71 -71
q-8 -54 -31 -67t-58 -13z" />
    <glyph glyph-name="upsilondieresis" unicode="&#x3cb;" 
d="M523 -19q-189 1 -275 107t-62 303l90 726h91l-90 -726q-22 -175 43 -251t212 -76t231 76t106 251l90 726h91l-89 -726q-24 -197 -137 -303t-301 -107zM873 1361q-35 0 -57 13q-21 13 -16 60t31 62q25 16 61 16q80 0 69 -71q-8 -54 -31 -67q-22 -13 -57 -13zM531 1512
q79 0 70 -71q-4 -52 -29 -66t-60 -14t-56 13t-14 61q7 47 30 62t59 15z" />
    <glyph glyph-name="omicrontonos" unicode="&#x3cc;" 
d="M532 63q151 0 234 80t103 248l40 328q22 171 -41 253q-62 82 -214 82t-234 -82t-103 -253l-40 -328q-20 -168 42 -248t213 -80zM523 -19q-186 1 -274 107t-63 303l39 328q26 201 141 309t300 108q184 0 272 -108t62 -309l-39 -328q-24 -197 -138 -303t-300 -107z
M590 1303l194 373h141l-260 -373h-75z" />
    <glyph glyph-name="upsilontonos" unicode="&#x3cd;" 
d="M523 -19q-189 1 -275 107t-62 303l90 726h91l-90 -726q-22 -175 43 -251t212 -76t231 76t106 251l90 726h91l-89 -726q-24 -197 -137 -303t-301 -107zM590 1303l194 373h141l-260 -373h-75z" />
    <glyph glyph-name="omegatonos" unicode="&#x3ce;" 
d="M302 -19q-117 0 -169 123q-51 123 -23 345l18 156q20 162 72 309q51 147 102 216l72 -32q-35 -63 -86 -202t-70 -291l-19 -156q-26 -201 4 -293q31 -92 117 -93q86 0 137 82t74 261l54 450h89l-54 -450q-22 -179 8 -261t118 -82q86 0 138 92t79 294l18 156q19 153 1 291
t-38 202l84 32q32 -71 48 -217t-5 -308l-19 -156q-28 -222 -109 -345t-198 -123q-78 0 -130 61q-51 61 -62 165h-6q-37 -104 -102 -165t-143 -61zM607 1303l194 373h141l-261 -373h-74z" />
    <glyph glyph-name="IEgravecyrillic" unicode="&#x400;" 
d="M138 0l182 1489h808l-9 -81h-717l-69 -553h631l-9 -80h-631l-86 -693h717l-9 -82h-808zM814 1676l-270 372h145l201 -372h-76z" />
    <glyph glyph-name="Iocyrillic" unicode="&#x401;" 
d="M138 0l182 1489h808l-9 -81h-717l-69 -553h631l-9 -80h-631l-86 -693h717l-9 -82h-808zM964 1733q-35 0 -57 13t-14 61q7 47 30 62t59 15q80 0 70 -71q-8 -54 -31 -67q-22 -13 -57 -13zM603 1733q-35 0 -56 13t-14 61q7 47 30 62t59 15t56 -15q21 -15 14 -63
q-7 -47 -30 -60q-24 -13 -59 -13z" />
    <glyph glyph-name="Djecyrillic" unicode="&#x402;" 
d="M709 929q188 0 275 -89.5t66 -258.5l-22 -194q-24 -188 -125.5 -287.5t-275.5 -99.5l10 78q140 0 210.5 72.5t90.5 240.5l23 186q19 147 -43 211.5t-218 64.5h-231l-104 -853h-89l173 1408h-257l9 81h775l-10 -81h-428l-60 -479h231z" />
    <glyph glyph-name="Gjecyrillic" unicode="&#x403;" 
d="M138 0l182 1489h808l-9 -81h-717l-173 -1408h-91zM683 1676l294 372h144l-363 -372h-75z" />
    <glyph glyph-name="Ecyrillic" unicode="&#x404;" 
d="M722 1508q412 0 382 -456l-91 -9q7 205 -61 294t-244 89t-270.5 -104t-122.5 -343l-17 -124h389l-9 -80h-389l-34 -272q-28 -235 39.5 -337.5t245.5 -102.5t267.5 88.5t130.5 287.5l90 -9q-80 -449 -488 -449q-214 0 -310 130.5t-64 391.5l59 476q32 264 159.5 396.5
t337.5 132.5z" />
    <glyph glyph-name="Dzecyrillic" unicode="&#x405;" 
d="M560 -11q-168 0 -270 55q-103 55 -180 155l65 62q75 -95 165 -143t226 -47q136 0 238 84q102 85 119 223t-50 213t-261 137t-280 152q-85 90 -65 251t142 263t295 103q132 0 223 -53t160 -143l-63 -63q-71 86 -146 132t-200 45q-125 0 -216 -75t-107 -204t54 -198
q69 -69 263 -133t276 -158t62 -267t-152 -282q-130 -109 -298 -109z" />
    <glyph glyph-name="Icyrillic" unicode="&#x406;" 
d="M138 0l9 82h343l163 1326h-342l9 81h775l-10 -81h-342l-164 -1326h343l-10 -82h-774z" />
    <glyph glyph-name="Yicyrillic" unicode="&#x407;" 
d="M138 0l9 82h343l163 1326h-342l9 81h775l-10 -81h-342l-164 -1326h343l-10 -82h-774zM914 1733q-35 0 -57 13q-21 13 -16 60t31 62q24 16 60 16q80 0 70 -71q-8 -54 -31 -67q-22 -13 -57 -13zM553 1733q-35 0 -56 13t-14 61q7 47 30 62t59 15q79 0 70 -71q-8 -54 -31 -67
t-58 -13z" />
    <glyph glyph-name="Jecyrillic" unicode="&#x408;" 
d="M498 63q174 0 264 99t119 320l113 926h-381l9 81h473l-123 -1005q-64 -503 -482 -503q-208 0 -297 110q-88 110 -68 345l89 11q-14 -212 48 -298t236 -86z" />
    <glyph glyph-name="Ljecyrillic" unicode="&#x409;" 
d="M704 82q93 0 156 67t86 246l20 171q22 175 -24 242t-140 67h-124l-99 -793h125zM812 955q290 0 246 -385l-23 -183q-48 -387 -339 -387h-216l173 1408h-271l-155 -1116q-20 -162 -79 -232.5t-129 -70.5q-27 -2 -97 18l35 94q33 -15 66 -16t66.5 41.5t51.5 180.5l166 1182
h445l-65 -534h125z" />
    <glyph glyph-name="Njecyrillic" unicode="&#x40a;" 
d="M814 955q288 0 244 -385l-23 -183q-48 -387 -337 -387h-218l101 812h-328l-100 -812h-90l183 1489h89l-72 -595h327l73 595h89l-65 -534h127zM706 82q91 0 154 67t86 246l20 171q22 175 -24 242t-138 67h-126l-99 -793h127z" />
    <glyph glyph-name="Tshecyrillic" unicode="&#x40b;" 
d="M737 899q175 0 252.5 -96t53.5 -284l-64 -519h-89l63 516q20 168 -31 235.5t-194 67.5h-279l-101 -819h-91l173 1408h-255l9 81h773l-9 -81h-427l-63 -509h279z" />
    <glyph glyph-name="Kjecyrillic" unicode="&#x40c;" 
d="M320 747l-91 -747h-91l182 1489h91l-80 -662h136l611 662h117l-644 -690l456 -799h-110l-422 747h-155zM724 1676l294 372h144l-363 -372h-75z" />
    <glyph glyph-name="Igravecyrillic" unicode="&#x40d;" 
d="M823 0l158 1296l-735 -1296h-108l182 1489h90l-162 -1323l756 1323h91l-183 -1489h-89zM748 1676l-270 372h146l201 -372h-77z" />
    <glyph glyph-name="Ushortcyrillic" unicode="&#x40e;" 
d="M300 69q67 0 124 50t116 186l11 28h-28l-296 1156h95l264 -1074l499 1074h101l-575 -1208q-81 -169 -157 -233t-178 -63q-46 0 -110 15l26 80q41 -11 108 -11zM724 1663q-143 -1 -233 83t-67 293l94 9q-19 -166 33 -236q53 -70 183 -70t201 70t93 236l89 -9
q-28 -209 -139 -293t-254 -83z" />
    <glyph glyph-name="Dzhecyrillic" unicode="&#x40f;" 
d="M447 -279l33 279h-342l182 1489h91l-173 -1407h592l174 1407h91l-183 -1489h-342l-34 -279h-89z" />
    <glyph glyph-name="Acyrillic" unicode="&#x410;" 
d="M920 0l-80 467h-512l-196 -467h-97l639 1489h67l276 -1489h-97zM827 547l-136 790l-330 -790h466z" />
    <glyph glyph-name="Becyrillic" unicode="&#x411;" 
d="M559 82q151 0 233.5 77t101.5 238l13 104q19 153 -44.5 226.5t-214.5 73.5h-320l-90 -719h321zM676 883q173 0 258.5 -95t63.5 -267l-15 -134q-22 -182 -132 -284.5t-283 -102.5h-430l182 1489h732l-9 -81h-641l-65 -525h339z" />
    <glyph glyph-name="Vecyrillic" unicode="&#x412;" 
d="M583 82q155 0 230 69t96 231l7 59q20 158 -38 228q-59 70 -213 70h-345l-82 -657h345zM639 819q145 -1 217 61t88 202l7 52q17 147 -39 210t-201 64h-309l-72 -589h309zM721 1489q175 0 256 -90t60 -260l-9 -83q-13 -101 -72 -172t-146 -87l-4 -17q108 -11 164 -98
t41 -218l-11 -84q-22 -184 -133 -282t-297 -98h-432l182 1489h401z" />
    <glyph glyph-name="Gecyrillic" unicode="&#x413;" 
d="M138 0l182 1489h808l-9 -81h-717l-173 -1408h-91z" />
    <glyph glyph-name="Decyrillic" unicode="&#x414;" 
d="M74 0l-33 -279h-89l42 361h95q71 52 115.5 167.5t71.5 312.5l119 927h668l-173 -1407h171l-43 -361h-91l34 279h-887zM195 97l-1 -15h607l163 1326h-495l-112 -857q-24 -190 -60.5 -293t-101.5 -161z" />
    <glyph glyph-name="Iecyrillic" unicode="&#x415;" 
d="M138 0l182 1489h808l-9 -81h-717l-69 -553h631l-9 -80h-631l-86 -693h717l-9 -82h-808z" />
    <glyph glyph-name="Zhecyrillic" unicode="&#x416;" 
d="M451 758l-386 -758h-91l408 797l-229 692h87l212 -653h134l81 653h83l-80 -653h127l380 653h87l-400 -687l214 -802h-91l-199 758h-127l-93 -758h-84l93 758h-126z" />
    <glyph glyph-name="Zecyrillic" unicode="&#x417;" 
d="M528 -19q-220 0 -314.5 92.5t-81.5 285.5l90 12q-4 -168 65.5 -239.5t251.5 -71.5t272 77t112 261l8 62q19 151 -39 214t-214 63h-192l9 82h192q128 0 188 56t76 192l10 71q19 158 -45 225t-222 67t-233.5 -65t-108.5 -218l-89 11q34 179 138.5 264.5t300.5 85.5
q394 0 350 -370l-9 -71q-15 -127 -73 -196t-145 -85l-2 -15q106 -9 160 -94t37 -217l-7 -62q-26 -212 -145.5 -314.5t-339.5 -102.5z" />
    <glyph glyph-name="Iicyrillic" unicode="&#x418;" 
d="M823 0l158 1296l-735 -1296h-108l182 1489h90l-162 -1323l756 1323h91l-183 -1489h-89z" />
    <glyph glyph-name="Iishortcyrillic" unicode="&#x419;" 
d="M823 0l158 1296l-735 -1296h-108l182 1489h90l-162 -1323l756 1323h91l-183 -1489h-89zM741 1663q-143 0 -234 83q-90 84 -66 293l93 9q-18 -166 34 -236t182 -70t201 70t93 236l90 -9q-28 -209 -139 -293t-254 -83z" />
    <glyph glyph-name="Kacyrillic" unicode="&#x41a;" 
d="M320 747l-91 -747h-91l182 1489h91l-80 -662h136l611 662h117l-644 -690l456 -799h-110l-422 747h-155z" />
    <glyph glyph-name="Elcyrillic" unicode="&#x41b;" 
d="M60 -19q-76 0 -114 19l28 78q43 -15 80 -15q101 0 157.5 90.5t84.5 295.5l132 1040h667l-183 -1489h-91l173 1408h-491l-127 -984q-30 -231 -112.5 -337t-203.5 -106z" />
    <glyph glyph-name="Emcyrillic" unicode="&#x41c;" 
d="M525 372l-194 967l-163 -1339h-90l183 1489h119l201 -1016l450 1016h123l-182 -1489h-89l163 1331l-428 -959h-93z" />
    <glyph glyph-name="Encyrillic" unicode="&#x41d;" 
d="M138 0l182 1489h91l-78 -634h592l79 634h91l-183 -1489h-91l95 775h-592l-95 -775h-91z" />
    <glyph glyph-name="Ocyrillic" unicode="&#x41e;" 
d="M531 63q176 0 267 107q90 107 120 340l56 462q30 238 -34 346t-241 108q-176 0 -266 -108t-120 -346l-56 -462q-30 -233 34 -340t240 -107zM223 972q67 536 487 536t355 -536l-56 -462q-67 -529 -486 -529q-422 0 -355 529z" />
    <glyph glyph-name="Pecyrillic" unicode="&#x41f;" 
d="M138 0l182 1489h775l-183 -1489h-91l173 1408h-592l-173 -1408h-91z" />
    <glyph glyph-name="Ercyrillic" unicode="&#x420;" 
d="M652 603q156 0 234 74t101 241l20 171q20 169 -40 244q-61 74 -217 75h-348l-99 -805h349zM761 1489q188 -1 274 -101t62 -291l-23 -183q-22 -192 -134 -292t-300 -101h-348l-63 -521h-91l182 1489h441z" />
    <glyph glyph-name="Escyrillic" unicode="&#x421;" 
d="M538 -19q-212 1 -308 131t-64 385l59 488q32 257 159 390q128 133 336 133t305 -111q96 -111 79 -345l-91 -9q7 215 -58 299t-243 84t-274 -106q-95 -106 -125 -348l-56 -462q-30 -238 39 -342q70 -104 252 -104t273 88t117 287l90 -9q-28 -218 -153 -334t-337 -115z" />
    <glyph glyph-name="Tecyrillic" unicode="&#x422;" 
d="M480 0l173 1408h-428l10 81h945l-9 -81h-428l-173 -1408h-90z" />
    <glyph glyph-name="Ucyrillic" unicode="&#x423;" 
d="M300 69q67 0 123.5 50t116.5 186l11 28h-28l-296 1156h95l264 -1074l499 1074h101l-575 -1208q-82 -169 -157.5 -232.5t-177.5 -63.5q-48 0 -110 15l26 80q41 -11 108 -11z" />
    <glyph glyph-name="Efcyrillic" unicode="&#x424;" 
d="M415 249h95l123 991h-95q-127 0 -195.5 -88.5t-93.5 -283.5l-29 -254q-24 -192 22 -278.5t173 -86.5zM819 1240h-97l-122 -991h96q127 0 195 87t92 278l30 254q24 195 -21.5 283.5t-172.5 88.5zM687 168h-97l-24 -205h-89l24 205h-95q-162 0 -233.5 114.5t-44.5 331.5
l30 254q28 222 127.5 338t261.5 116h95l26 205h90l-26 -205h97q162 0 232.5 -116.5t42.5 -337.5l-30 -254q-28 -218 -126.5 -332t-260.5 -114z" />
    <glyph glyph-name="Khacyrillic" unicode="&#x425;" 
d="M942 0l-328 687l-504 -687h-103l568 769l-342 720h97l312 -655l483 655h100l-544 -733l358 -756h-97z" />
    <glyph glyph-name="Tsecyrillic" unicode="&#x426;" 
d="M873 -279l34 279h-769l182 1489h91l-173 -1407h507l173 1407h91l-173 -1407h169l-42 -361h-90z" />
    <glyph glyph-name="Checyrillic" unicode="&#x427;" 
d="M590 527q-205 0 -285 90t-56 292l71 580h91l-70 -577q-20 -164 40 -234.5t219 -70.5h296l108 882h91l-183 -1489h-91l65 527h-296z" />
    <glyph glyph-name="Shacyrillic" unicode="&#x428;" 
d="M54 0l182 1489h90l-173 -1407h337l173 1407h89l-173 -1407h337l173 1407h90l-183 -1489h-942z" />
    <glyph glyph-name="Shchacyrillic" unicode="&#x429;" 
d="M1033 -279h-85l33 279h-927l182 1489h90l-173 -1407h337l173 1407h89l-173 -1407h339l173 1407h89l-173 -1407h69z" />
    <glyph glyph-name="Hardsigncyrillic" unicode="&#x42a;" 
d="M670 82q130 0 197.5 72.5t87.5 240.5l21 171q20 168 -28.5 240.5t-178.5 72.5h-263l-98 -797h262zM778 955q333 0 289 -385l-23 -183q-48 -387 -381 -387h-354l173 1408h-341l10 81h430l-65 -534h262z" />
    <glyph glyph-name="Yericyrillic" unicode="&#x42b;" 
d="M354 82q106 0 163.5 72.5t78.5 240.5l20 171q20 168 -18.5 240.5t-145.5 72.5h-158l-99 -797h159zM864 0l182 1489h90l-183 -1489h-89zM462 955q156 0 213 -98.5t34 -286.5l-22 -183q-24 -188 -105 -287.5t-236 -99.5h-249l182 1489h90l-66 -534h159z" />
    <glyph glyph-name="Softsigncyrillic" unicode="&#x42c;" 
d="M586 82q156 0 235.5 72.5t100.5 240.5l20 171q20 168 -40 240.5t-217 72.5h-348l-99 -797h348zM694 957q188 0 275 -99.5t64 -287.5l-22 -183q-24 -188 -134 -287.5t-298 -99.5h-441l182 1489h91l-65 -532h348z" />
    <glyph glyph-name="Ereversedcyrillic" unicode="&#x42d;" 
d="M233 1048q80 460 499 460q214 0 307 -136t61 -393l-59 -476q-32 -253 -156.5 -387.5t-338.5 -134.5q-423 0 -388 453l90 11q-7 -205 60.5 -293.5t247.5 -88.5t273.5 102.5t121.5 337.5l34 272h-466l10 80h465l17 124q28 238 -39.5 342.5t-245.5 104.5t-270.5 -90
t-135.5 -299z" />
    <glyph glyph-name="IUcyrillic" unicode="&#x42e;" 
d="M690 63q112 0 173.5 86t86.5 279l76 626q26 199 -15 285.5t-153 86.5t-170.5 -86.5t-84.5 -285.5l-76 -626q-24 -194 13.5 -279.5t149.5 -85.5zM869 1508q306 0 248 -454l-76 -626q-55 -447 -359 -447q-152 0 -212 109t-32 338l42 347h-234l-95 -775h-90l183 1489h89
l-78 -633h235l24 198q30 233 116.5 343.5t238.5 110.5z" />
    <glyph glyph-name="IAcyrillic" unicode="&#x42f;" 
d="M618 1489h475l-183 -1489h-91l73 585h-343l-421 -585h-100l423 586q-323 26 -282 386l17 130q22 188 130 287.5t302 99.5zM519 667h382l91 741h-381q-158 0 -236.5 -73t-98.5 -240l-15 -119q-20 -166 40 -237.5t218 -71.5z" />
    <glyph glyph-name="acyrillic" unicode="&#x430;" 
d="M449 590h363l26 218q13 106 -46 176t-188 70t-193 -46t-115 -168l-78 24q60 145 151 208q91 64 250 64t244 -87t66 -239l-63 -518q-17 -145 21 -189t157 -21l-9 -86q-242 -39 -240 177h-17q-134 -192 -388 -192q-134 0 -211 85q-79 86 -61 228t104 219t227 77zM408 58
q114 0 199 43q84 43 160 134l35 279h-361q-97 0 -161 -45t-78 -162t39 -183t167 -66z" />
    <glyph glyph-name="becyrillic" unicode="&#x431;" 
d="M530.5 63q154.5 0 233.5 78.5t102 251.5l26 218q20 162 -40.5 236.5t-215 74.5t-233.5 -74.5t-100 -236.5l-26 -218q-22 -173 38.5 -251.5t215 -78.5zM523 -19q-184 0 -272.5 108t-62.5 313l69 574q26 203 131 318t303 153l329 61l6 -78l-319 -58q-184 -32 -269.5 -131.5
t-109.5 -298.5l-11 -93h9q47 74 137 115t207 41q173 0 257 -97.5t63 -276.5l-29 -240q-24 -199 -139 -304.5t-299 -105.5z" />
    <glyph glyph-name="vecyrillic" unicode="&#x432;" 
d="M529 80q190 0 268 46.5t95 173.5l4 31q15 125 -48.5 172.5t-247.5 47.5h-304l-58 -471h291zM611 629q168 0 233.5 39t77.5 142l5 39q13 108 -47.5 148t-233.5 40h-290l-49 -408h304zM657 1117q205 0 291.5 -62.5t71.5 -196.5l-5 -39q-13 -108 -68 -161t-163 -60v-12
q119 -7 167.5 -68.5t33.5 -186.5l-4 -26q-19 -158 -129.5 -231.5t-332.5 -73.5h-381l138 1117h381z" />
    <glyph glyph-name="gecyrillic" unicode="&#x433;" 
d="M223 0l138 1117h706l-11 -82h-615l-126 -1035h-92z" />
    <glyph glyph-name="decyrillic" unicode="&#x434;" 
d="M127 0l-34 -279h-91l43 361h95q76 56 115 150t63 269l82 616h598l-129 -1035h155l-43 -361h-91l33 279h-796zM248 97l-2 -15h532l118 953h-423l-73 -545q-22 -164 -54.5 -248.5t-97.5 -144.5z" />
    <glyph glyph-name="iecyrillic" unicode="&#x435;" 
d="M654 1054q-148 0 -232 -82t-105 -253l-12 -92h592l10 75q22 184 -42 268q-63 84 -211 84zM515 -19q-173 1 -263 105t-66 307l39 326q26 209 147 313q122 104 296 104t266 -106t66 -324l-21 -157h-683l-19 -158q-22 -173 43 -250q64 -77 206 -77t208 42q65 43 111 143
l86 -27q-58 -127 -151 -184t-265 -57z" />
    <glyph glyph-name="zhecyrillic" unicode="&#x436;" 
d="M460 555l-354 -555h-97l382 590l-253 527h95l229 -490h102l62 490h76l-62 -490h95l356 490h97l-387 -521l238 -596h-95l-216 555h-95l-69 -555h-76l69 555h-97z" />
    <glyph glyph-name="zecyrillic" unicode="&#x437;" 
d="M528 -19q-210 0 -300 84t-81 274l89 13q0 -162 63.5 -224.5t237.5 -62.5t257.5 55t99.5 206q15 119 -47.5 169.5t-230.5 50.5h-78l9 78h79q151 0 217.5 45.5t79.5 155.5l4 26q13 112 -49.5 156.5t-221.5 44.5t-229 -58t-105 -208l-87 15q35 179 138 257t297 78
q382 0 348 -287l-3 -26q-26 -219 -224 -231l-2 -11q224 -14 194 -261q-20 -176 -132.5 -257.5t-322.5 -81.5z" />
    <glyph glyph-name="iicyrillic" unicode="&#x438;" 
d="M821 0l117 955l-709 -955h-91l138 1117h91l-119 -959l713 959h89l-138 -1117h-91z" />
    <glyph glyph-name="iishortcyrillic" unicode="&#x439;" 
d="M821 0l117 955l-709 -955h-91l138 1117h91l-119 -959l713 959h89l-138 -1117h-91zM683 1290q-143 0 -233 84t-66 292l93 10q-19 -166 33 -236t182 -70t202 70q71 70 93 236l89 -10q-28 -208 -139 -292t-254 -84z" />
    <glyph glyph-name="kacyrillic" unicode="&#x43a;" 
d="M380 547l-67 -547h-90l138 1117h90l-62 -490h166l411 490h108l-445 -521l304 -596h-99l-279 547h-175z" />
    <glyph glyph-name="elcyrillic" unicode="&#x43b;" 
d="M101 63q97 0 149.5 88.5t80.5 297.5l86 668h633l-138 -1117h-91l127 1035h-458l-80 -611q-57 -443 -315 -443q-65 0 -114 19l28 78q47 -15 92 -15z" />
    <glyph glyph-name="emcyrillic" unicode="&#x43c;" 
d="M512 279l-199 698l-119 -977h-90l138 1117h123l208 -745l390 745h119l-138 -1117h-89l119 977l-369 -698h-93z" />
    <glyph glyph-name="encyrillic" unicode="&#x43d;" 
d="M138 0l138 1117h91l-54 -430h592l54 430h91l-138 -1117h-91l75 607h-593l-74 -607h-91z" />
    <glyph glyph-name="ocyrillic" unicode="&#x43e;" 
d="M532 63q151 0 234 80t103 248l40 328q22 171 -41 253q-62 82 -214 82t-234 -82t-103 -253l-40 -328q-20 -168 42 -248t213 -80zM523 -19q-186 1 -274 107t-63 303l39 328q26 201 141 309t300 108q184 0 272 -108t62 -309l-39 -328q-24 -197 -138 -303t-300 -107z" />
    <glyph glyph-name="pecyrillic" unicode="&#x43f;" 
d="M138 0l138 1117h774l-138 -1117h-91l127 1035h-592l-127 -1035h-91z" />
    <glyph glyph-name="ercyrillic" unicode="&#x440;" 
d="M510 -19q-145 0 -275 66l-53 -419h-91l185 1489h91l-23 -173h17q60 95 156 143t204 49q155 0 229 -109t52 -303l-41 -329q-23 -194 -143 -304t-308 -110zM714 1054q-112 0 -200 -46t-179 -146l-89 -721q121 -81 275 -81q155 0 241 82t107 256l41 328q39 328 -196 328z
" />
    <glyph glyph-name="escyrillic" unicode="&#x441;" 
d="M540 -19q-194 -1 -286 105t-68 305l39 328q27 203 145 310t312 107t274 -82q81 -82 74 -253l-90 -8q6 145 -54 203t-217 58t-244 -81t-108 -254l-40 -328q-20 -168 48 -249q67 -81 227 -81q160 -1 232 49t95 177l85 -8q-28 -155 -130 -227q-100 -72 -294 -71z" />
    <glyph glyph-name="tecyrillic" unicode="&#x442;" 
d="M480 0l127 1035h-393l11 82h875l-11 -82h-393l-126 -1035h-90z" />
    <glyph glyph-name="ucyrillic" unicode="&#x443;" 
d="M179 -384q-51 0 -123 13l22 82q71 -15 142 -15q72 1 128 48t119 182l34 74h-23l-245 1117h89l220 -1020l458 1020h93l-551 -1214q-72 -155 -156 -221t-207 -66z" />
    <glyph glyph-name="efcyrillic" unicode="&#x444;" 
d="M687 82q231 0 268 316l39 317q40 320 -190 320h-108l-117 -953h108zM382 82h108l117 953h-108q-228 0 -268 -320l-39 -317q-19 -162 28 -239t162 -77zM696 0h-126l-47 -372h-89l46 372h-126q-141 0 -207.5 103.5t-44.5 291.5l41 327q22 188 114.5 291.5t234.5 103.5h126
l45 372h89l-45 -372h127q141 0 207.5 -103.5t43.5 -291.5l-41 -327q-22 -188 -114.5 -291.5t-233.5 -103.5z" />
    <glyph glyph-name="khacyrillic" unicode="&#x445;" 
d="M832 0l-244 499l-370 -499h-95l426 568l-268 549h90l238 -486l361 486h95l-417 -558l274 -559h-90z" />
    <glyph glyph-name="tsecyrillic" unicode="&#x446;" 
d="M883 -279l33 279h-778l138 1117h91l-129 -1035h507l128 1035h91l-128 -1035h171l-43 -361h-81z" />
    <glyph glyph-name="checyrillic" unicode="&#x447;" 
d="M788 413q-140 -56 -261 -56q-382 0 -330 395l45 365h89l-44 -361q-20 -168 38.5 -243t207.5 -78t266 68l76 614h89l-137 -1117h-90z" />
    <glyph glyph-name="shacyrillic" unicode="&#x448;" 
d="M54 0l138 1117h89l-128 -1035h337l128 1035h89l-128 -1035h337l128 1035h90l-138 -1117h-942z" />
    <glyph glyph-name="shchacyrillic" unicode="&#x449;" 
d="M1048 -279h-76l33 279h-951l138 1117h89l-128 -1035h337l128 1035h89l-128 -1035h337l128 1035h90l-129 -1035h86z" />
    <glyph glyph-name="hardsigncyrillic" unicode="&#x44a;" 
d="M620 82q140 0 208 49.5t81 160.5l14 118q13 110 -42.5 156.5t-195.5 46.5h-298l-65 -531h298zM646 0h-423l127 1035h-257l11 82h347l-53 -423h332q149 0 224.5 -73.5t58.5 -210.5l-15 -118q-17 -140 -111 -216t-241 -76z" />
    <glyph glyph-name="yericyrillic" unicode="&#x44b;" 
d="M354 82q114 0 169.5 49.5t70.5 166.5l13 117q15 114 -29 162.5t-157 48.5h-158l-68 -544h159zM864 0l138 1117h89l-138 -1117h-89zM467 706q123 0 185.5 -75.5t43.5 -215.5l-13 -117q-19 -141 -98.5 -219.5t-202.5 -78.5h-285l138 1117h89l-50 -411h193z" />
    <glyph glyph-name="softsigncyrillic" unicode="&#x44c;" 
d="M620 82q140 0 208 50t82 166l13 115q15 115 -40.5 163t-195.5 48h-382l-67 -542h382zM728 706q149 0 225.5 -76.5t59.5 -216.5l-13 -115q-19 -140 -115 -219t-243 -79h-504l138 1117h91l-50 -411h411z" />
    <glyph glyph-name="ereversedcyrillic" unicode="&#x44d;" 
d="M514 63q160 0 246.5 76.5t108.5 251.5l19 151h-428l9 82h428l13 102q22 179 -46.5 253.5t-228.5 74.5t-230 -55t-102 -206l-85 8q32 175 133 255t304 80q398 0 345 -421l-37 -305q-53 -429 -448 -429q-204 0 -287 71t-75 227l89 6q-2 -128 55 -175t217 -47z" />
    <glyph glyph-name="iucyrillic" unicode="&#x44e;" 
d="M687 63q112 0 170.5 77.5t80.5 252.5l39 324q22 179 -17.5 258t-151.5 79t-171.5 -79t-81.5 -258l-39 -324q-22 -175 18.5 -252.5t152.5 -77.5zM679 -19q-146 0 -211.5 105.5t-41.5 306.5l21 175h-218l-69 -568h-89l138 1117h89l-58 -467h218l7 69q26 205 117.5 311
t237.5 106t209.5 -107t37.5 -312l-39 -324q-24 -201 -113.5 -306.5t-235.5 -105.5z" />
    <glyph glyph-name="iacyrillic" unicode="&#x44f;" 
d="M575 1117h475l-138 -1117h-91l50 404h-264l-378 -404h-106l374 404q-155 -2 -221.5 83.5t-48.5 244.5l8 54q39 331 340 331zM499 480h382l67 555h-382q-112 0 -167.5 -56.5t-72.5 -185.5l-6 -54q-17 -138 25 -198.5t154 -60.5z" />
    <glyph glyph-name="iegravecyrillic" unicode="&#x450;" 
d="M654 1054q-148 0 -232 -82t-105 -253l-12 -92h592l10 75q22 184 -42 268q-63 84 -211 84zM515 -19q-173 1 -263 105t-66 307l39 326q26 209 147 313q122 104 296 104t266 -106t66 -324l-21 -157h-683l-19 -158q-22 -173 43 -250q64 -77 206 -77t208 42q65 43 111 143
l86 -27q-58 -127 -151 -184t-265 -57zM728 1303l-270 373h145l201 -373h-76z" />
    <glyph glyph-name="iocyrillic" unicode="&#x451;" 
d="M654 1054q-148 0 -232 -82t-105 -253l-12 -92h592l10 75q22 184 -42 268q-63 84 -211 84zM515 -19q-173 1 -263 105t-66 307l39 326q26 209 147 313q122 104 296 104t266 -106t66 -324l-21 -157h-683l-19 -158q-22 -173 43 -250q64 -77 206 -77t208 42q65 43 111 143
l86 -27q-58 -127 -151 -184t-265 -57zM875 1361q-35 0 -57 13t-15 61q7 47 31 62t60 15q80 0 69 -71q-8 -54 -31 -67q-22 -13 -57 -13zM514 1361q-35 0 -56 13t-14 61q7 47 30 62t58 15q80 0 71 -71q-8 -54 -31 -67t-58 -13z" />
    <glyph glyph-name="djecyrillic" unicode="&#x452;" 
d="M587 -303q95 0 155 73.5t77 220.5l84 683q17 134 -39 210.5t-158 76.5q-203 0 -384 -201l-93 -760h-91l149 1210h-170l10 82h169l24 197h91l-24 -197h341l-9 -82h-341l-45 -359h19q69 88 171.5 140t197.5 52q145 0 220.5 -97t56.5 -253l-89 -717q-20 -171 -109 -267
t-225 -96q-93 0 -173 37l30 80q60 -33 155 -33z" />
    <glyph glyph-name="gjecyrillic" unicode="&#x453;" 
d="M223 0l138 1117h706l-11 -82h-615l-126 -1035h-92zM687 1303l294 373h144l-364 -373h-74z" />
    <glyph glyph-name="ecyrillic" unicode="&#x454;" 
d="M533 -19q-396 0 -345 429l37 297q26 220 139 324.5t310 104.5t281 -82t75 -253l-90 -8q4 149 -54 205t-220 56t-245.5 -78.5t-105.5 -256.5l-12 -95h429l-10 -82h-428l-18 -144q-22 -179 44 -257t226 -78t228.5 47.5t104.5 174.5l84 -6q-28 -151 -130.5 -224.5
t-299.5 -73.5z" />
    <glyph glyph-name="dzecyrillic" unicode="&#x455;" 
d="M544 -19q-254 0 -425 151l56 73q154 -140 378 -142q132 0 216 59q84 58 96 158t-49 148t-248 88q-188 40 -266 114q-78 72 -62 204t121 216q105 86 235 86q233 0 396 -142l-52 -71q-149 129 -335 131q-115 0 -189 -56t-86 -159t46 -153q60 -50 249 -88t266 -110t61 -204
t-129 -218t-279 -85z" />
    <glyph glyph-name="icyrillic.salt_serifs" unicode="&#xe02e;" 
d="M579 82h376l-9 -82h-466l127 1035h-376l11 82h465zM711 1510q41 0 64 -15t14 -69q-7 -67 -97 -67q-40 0 -63 15t-17 60q6 46 32 61t67 15z" />
    <glyph glyph-name="icyrillic.salt_serifs" unicode="&#x456;" 
d="M579 82h376l-9 -82h-466l127 1035h-376l11 82h465zM711 1510q41 0 64 -15t14 -69q-7 -67 -97 -67q-40 0 -63 15t-17 60q6 46 32 61t67 15z" />
    <glyph glyph-name="yicyrillic.salt_serifs" unicode="&#xe02f;" 
d="M579 82h376l-9 -82h-466l127 1035h-376l11 82h465zM832 1361q-35 0 -57 13q-21 13 -16 60t31 62q24 16 60 16q80 0 70 -71q-8 -54 -31 -67q-22 -13 -57 -13zM490 1512q80 0 70 -71q-4 -52 -29 -66t-60 -14t-56 13t-14 61q7 47 30 62t59 15z" />
    <glyph glyph-name="yicyrillic.salt_serifs" unicode="&#x457;" 
d="M579 82h376l-9 -82h-466l127 1035h-376l11 82h465zM832 1361q-35 0 -57 13q-21 13 -16 60t31 62q24 16 60 16q80 0 70 -71q-8 -54 -31 -67q-22 -13 -57 -13zM490 1512q80 0 70 -71q-4 -52 -29 -66t-60 -14t-56 13t-14 61q7 47 30 62t59 15z" />
    <glyph glyph-name="jecyrillic" unicode="&#x458;" 
d="M358 -303q123 0 200 80t95 243l125 1015h-478l11 82h568l-136 -1108q-25 -188 -133 -292t-277 -104q-117 0 -238 41l32 83q108 -40 231 -40zM875 1512q41 0 64 -15t14 -69q-7 -67 -98 -67q-40 0 -62 14t-16 60q5 47 31 62t67 15z" />
    <glyph glyph-name="ljecyrillic" unicode="&#x459;" 
d="M707 82q91 0 152 47.5t76 170.5l16 136q15 123 -33.5 168.5t-139.5 45.5h-111l-71 -568h111zM789 732q141 0 206.5 -73.5t47.5 -219.5l-19 -145q-17 -145 -99.5 -219.5t-222.5 -74.5h-205l127 1035h-253l-99 -741q-20 -164 -82.5 -234.5t-137.5 -70.5q-24 -2 -47.5 4.5
t-49.5 13.5l36 94q38 -15 71 -16t69.5 41.5t54.5 182.5l112 808h426l-48 -385h113z" />
    <glyph glyph-name="njecyrillic" unicode="&#x45a;" 
d="M788 717q141 0 205.5 -72t45.5 -215l-17 -147q-38 -283 -322 -283h-220l77 616h-328l-76 -616h-90l138 1117h89l-52 -419h328l52 419h89l-50 -400h131zM706 82q91 0 151.5 45.5t75.5 162.5l17 136q15 117 -34.5 163t-140.5 46h-127l-69 -553h127z" />
    <glyph glyph-name="tshecyrillic" unicode="&#x45b;" 
d="M702 961q-102 0 -192 -47q-89 -47 -188 -151l-93 -763h-91l149 1210h-170l10 82h169l24 197h91l-24 -197h341l-9 -82h-341l-45 -359h17q148 190 365 192q139 -1 221 -93t62 -257l-86 -693h-91l82 674q19 143 -40 215t-161 72z" />
    <glyph glyph-name="kjecyrillic" unicode="&#x45c;" 
d="M380 547l-67 -547h-90l138 1117h90l-62 -490h166l411 490h108l-445 -521l304 -596h-99l-279 547h-175zM674 1303l294 373h144l-364 -373h-74z" />
    <glyph glyph-name="igravecyrillic" unicode="&#x45d;" 
d="M821 0l117 955l-709 -955h-91l138 1117h91l-119 -959l713 959h89l-138 -1117h-91zM728 1303l-270 373h145l201 -373h-76z" />
    <glyph glyph-name="ushortcyrillic" unicode="&#x45e;" 
d="M179 -384q-51 0 -123 13l22 82q71 -15 142 -15q72 1 128 48t119 182l34 74h-23l-245 1117h89l220 -1020l458 1020h93l-551 -1214q-72 -155 -156 -221t-207 -66zM683 1290q-143 0 -233 84t-66 292l93 10q-19 -166 33 -236t182 -70t202 70q71 70 93 236l89 -10
q-28 -208 -139 -292t-254 -84z" />
    <glyph glyph-name="dzhecyrillic" unicode="&#x45f;" 
d="M447 -279l33 279h-342l138 1117h91l-129 -1035h592l129 1035h91l-138 -1117h-342l-34 -279h-89z" />
    <glyph glyph-name="Gheupturncyrillic" unicode="&#x490;" 
d="M138 0l182 1489h717l35 280h92l-45 -361h-717l-173 -1408h-91z" />
    <glyph glyph-name="gheupturncyrillic" unicode="&#x491;" 
d="M223 0l138 1117h624l28 231h82l-39 -313h-615l-126 -1035h-92z" />
    <glyph glyph-name="Wgrave" unicode="&#x1e80;" 
d="M760 0l-108 1011l-362 -1011h-89l6 1489h80l-10 -1323l341 970h95l101 -954l303 1307h91l-359 -1489h-89zM784 1676l-270 372h145l201 -372h-76z" />
    <glyph glyph-name="wgrave" unicode="&#x1e81;" 
d="M724 0l-102 795l-289 -795h-98l-88 1117h91l64 -983l279 797h106l97 -775l300 961h95l-364 -1117h-91zM726 1303l-270 373h145l201 -373h-76z" />
    <glyph glyph-name="Wacute" unicode="&#x1e82;" 
d="M760 0l-108 1011l-362 -1011h-89l6 1489h80l-10 -1323l341 970h95l101 -954l303 1307h91l-359 -1489h-89zM624 1676l294 372h143l-363 -372h-74z" />
    <glyph glyph-name="wacute" unicode="&#x1e83;" 
d="M724 0l-102 795l-289 -795h-98l-88 1117h91l64 -983l279 797h106l97 -775l300 961h95l-364 -1117h-91zM572 1303l294 373h143l-363 -373h-74z" />
    <glyph glyph-name="Wdieresis" unicode="&#x1e84;" 
d="M760 0l-108 1011l-362 -1011h-89l6 1489h80l-10 -1323l341 970h95l101 -954l303 1307h91l-359 -1489h-89zM916 1733q-35 0 -57 13t-15 61q7 47 31 62q23 15 59 15q80 0 70 -71q-8 -54 -31 -67q-22 -13 -57 -13zM555 1733q-35 0 -56 13t-14 61q7 47 30 62t58 15
q80 0 71 -71q-8 -54 -31 -67t-58 -13z" />
    <glyph glyph-name="wdieresis" unicode="&#x1e85;" 
d="M724 0l-102 795l-289 -795h-98l-88 1117h91l64 -983l279 797h106l97 -775l300 961h95l-364 -1117h-91zM875 1361q-35 0 -57 13t-15 61q7 47 31 62t60 15q80 0 69 -71q-8 -54 -31 -67q-22 -13 -57 -13zM514 1361q-35 0 -56 13t-14 61q7 47 30 62t58 15q80 0 71 -71
q-8 -54 -31 -67t-58 -13z" />
    <glyph glyph-name="Ygrave" unicode="&#x1ef2;" 
d="M570 0h-90l69 559l-376 930h99l333 -837l531 837h104l-601 -930zM767 1676l-270 372h145l201 -372h-76z" />
    <glyph glyph-name="ygrave" unicode="&#x1ef3;" 
d="M179 -384q-51 0 -123 13l22 82q71 -15 142 -15q72 1 128 48t119 182l34 74h-23l-245 1117h89l220 -1020l458 1020h93l-551 -1214q-72 -155 -156 -221t-207 -66zM726 1303l-270 373h145l201 -373h-76z" />
    <glyph glyph-name="uni2000" unicode="&#x2000;" 
 />
    <glyph glyph-name="uni2001" unicode="&#x2001;" 
 />
    <glyph glyph-name="uni2002" unicode="&#x2002;" 
 />
    <glyph glyph-name="uni2003" unicode="&#x2003;" 
 />
    <glyph glyph-name="uni2004" unicode="&#x2004;" 
 />
    <glyph glyph-name="uni2005" unicode="&#x2005;" 
 />
    <glyph glyph-name="uni2007" unicode="&#x2007;" 
 />
    <glyph glyph-name="uni2009" unicode="&#x2009;" 
 />
    <glyph glyph-name="uni200A" unicode="&#x200a;" 
 />
    <glyph glyph-name="uni200B" unicode="&#x200b;" horiz-adv-x="0" 
 />
    <glyph glyph-name="endash" unicode="&#x2013;" 
d="M173 607l11 89h853l-11 -89h-853z" />
    <glyph glyph-name="emdash" unicode="&#x2014;" 
d="M2 607l11 89h1195l-11 -89h-1195z" />
    <glyph glyph-name="horizontalbar" unicode="&#x2015;" 
d="M2 607l11 89h1195l-11 -89h-1195z" />
    <glyph glyph-name="underscoredbl" unicode="&#x2017;" 
d="M7 48l12 90h957l-12 -90h-957zM7 -315l12 90h957l-12 -90h-957z" />
    <glyph glyph-name="quoteright" unicode="&#x2019;" 
d="M402 840l285 649h179l-384 -649h-80z" />
    <glyph glyph-name="quotesinglbase" unicode="&#x201a;" 
d="M264 -372l282 649h180l-383 -649h-79z" />
    <glyph glyph-name="quotereversed" unicode="&#x201b;" 
d="M730 840l-225 649h180l125 -649h-80z" />
    <glyph glyph-name="quotedblleft" unicode="&#x201c;" 
d="M212 840l369 649h78l-283 -649h-164zM726 840l367 649h78l-283 -649h-162z" />
    <glyph glyph-name="quotedblright" unicode="&#x201d;" 
d="M164 840l283 649h162l-367 -649h-78zM676 840l283 649h164l-369 -649h-78z" />
    <glyph glyph-name="quotedblbase" unicode="&#x201e;" 
d="M41 -350l283 650h162l-367 -650h-78zM553 -350l283 650h164l-369 -650h-78z" />
    <glyph glyph-name="dagger" unicode="&#x2020;" 
d="M434 -372l173 1407h-251l-110 -476h-73l119 558h328l33 372h108l-55 -372h325l-16 -558h-73l6 476h-252l-173 -1407h-89z" />
    <glyph glyph-name="daggerdbl" unicode="&#x2021;" 
d="M417 -372l58 372h-320l1 428h73l9 -346h252l117 953h-251l-95 -346h-73l104 428h328l33 372h108l-55 -372h325l-1 -428h-73l-9 346h-252l-117 -953h251l95 346h73l-104 -428h-319l-35 -372h-123z" />
    <glyph glyph-name="bullet" unicode="&#x2022;" 
d="M589 516q-98 0 -155.5 39t-48.5 119l17 134q11 84 78 124t167 40t155.5 -40t44.5 -124l-17 -134q-9 -80 -76 -119t-165 -39z" />
    <glyph glyph-name="ellipsis" unicode="&#x2026;" 
d="M168 235q64 0 54 -103l-8 -52q-12 -99 -100 -99q-40 0 -62 24.5t-17 74.5l8 52q6 52 33.5 77.5t91.5 25.5zM524 -19q-40 0 -62.5 24.5t-16.5 74.5l7 52q6 52 34 77.5t69 25.5t62.5 -25.5t15.5 -77.5l-7 -52q-6 -50 -34 -74.5t-68 -24.5zM986.5 235q64.5 0 54.5 -103
l-8 -52q-12 -99 -101 -99q-40 0 -62.5 24.5t-16.5 74.5l7 52q6 52 34 77.5t92.5 25.5z" />
    <glyph glyph-name="perthousand" unicode="&#x2030;" 
d="M840 220q-21 -186 71 -186q90 0 111 186l22 167q21 190 -68 190q-41 0 -72 -45.5t-42 -144.5zM568 220q-21 -186 71 -186q90 0 111 186l23 167q21 190 -69 190q-41 0 -72 -45.5t-42 -144.5zM978 652q90 0 129.5 -66.5t22.5 -201.5l-18 -161q-17 -134 -74 -199t-145 -65
t-117 106q-51 -106 -140 -106t-130.5 65t-25.5 199l19 161q17 136 76 202t145 66t116 -108q52 108 142 108zM1134 1210l-1078 -985l-50 67l1078 985zM251 1095q-21 -186 87 -186t129 186l21 167q25 190 -83 190t-133 -190zM328 834q-88 0 -134.5 65t-31.5 199l20 161
q17 136 80.5 202t151.5 66t134 -66t29 -202l-20 -161q-15 -134 -78 -199t-151 -65z" />
    <glyph glyph-name="minute" unicode="&#x2032;" 
d="M411 840l285 649h179l-383 -649h-81z" />
    <glyph glyph-name="second" unicode="&#x2033;" 
d="M164 840l283 649h162l-367 -649h-78zM676 840l283 649h164l-369 -649h-78z" />
    <glyph glyph-name="guilsinglleft" unicode="&#x2039;" 
d="M810 225l-464 410l4 33l564 410l-11 -99l-454 -327l372 -328z" />
    <glyph glyph-name="guilsinglright" unicode="&#x203a;" 
d="M296 225l11 99l454 328l-372 327l11 99l464 -410l-4 -33z" />
    <glyph glyph-name="exclamdbl" unicode="&#x203c;" 
d="M319 -19q-90 0 -121.5 24.5t-26.5 74.5l8 52q11 103 136 103q124 0 113 -103l-7 -52q-12 -99 -102 -99zM797 -19q-90 0 -121.5 24.5t-25.5 74.5l7 52q11 103 135 103t115 -103l-8 -52q-12 -99 -102 -99zM318 559l95 930h110l-132 -930h-73zM797 559l95 930h110l-133 -930
h-72z" />
    <glyph glyph-name="overline" unicode="&#x203e;" 
d="M7 1731l12 90h957l-12 -90h-957z" />
    <glyph glyph-name="fraction" unicode="&#x2215;" 
d="M138 0l866 1489h91l-866 -1489h-91z" />
    <glyph glyph-name="fraction" unicode="&#x2044;" 
d="M138 0l866 1489h91l-866 -1489h-91z" />
    <glyph glyph-name="zero.sups" unicode="&#x2070;" 
d="M601 627q123 0 186.5 77.5t85.5 261.5l13 118q24 186 -19.5 265t-166.5 79t-185.5 -79t-86.5 -265l-13 -118q-22 -184 20.5 -261.5t165.5 -77.5zM331 950l19 150q48 401 360 401t264 -401l-19 -150q-49 -395 -360.5 -395t-263.5 395z" />
    <glyph glyph-name="four.sups" unicode="&#x2074;" 
d="M1005 819h-193l-32 -253h-86l32 253h-434l10 73l500 597h92l-73 -597h194zM382 892h353l60 486z" />
    <glyph glyph-name="five.sups" unicode="&#x2075;" 
d="M584 555q-158 0 -222 55t-53 191l82 11q-4 -110 38.5 -147.5t168.5 -37.5t184 47t71 156l5 47q11 97 -33.5 139.5t-161.5 42.5h-294l52 430h556l-9 -72h-471l-33 -283h212q141 0 211 -60.5t55 -172.5l-11 -91q-15 -123 -102 -189t-245 -66z" />
    <glyph glyph-name="six.sups" unicode="&#x2076;" 
d="M601.5 627q115.5 0 175 52.5t74.5 173.5q15 120 -31.5 173.5t-162 53.5t-173.5 -52t-75 -174q-16 -123 30.5 -175t162 -52zM677 1143q159 0 217.5 -75.5t43.5 -199.5l-2 -25q-15 -123 -97.5 -205.5t-244.5 -82.5t-224.5 89.5t-43.5 239.5l35 280q40 337 352 337
q132 0 193.5 -48.5t67.5 -160.5l-95 -17q-6 89 -42.5 121t-150.5 32t-168 -58.5t-71 -205.5l-13 -105h9q75 84 234 84z" />
    <glyph glyph-name="seven.sups" unicode="&#x2077;" 
d="M499 566q102 309 182 473t242 380h-530l7 70h615l-8 -70q-162 -238 -250.5 -412.5t-162.5 -440.5h-95z" />
    <glyph glyph-name="eight.sups" unicode="&#x2078;" 
d="M603 631q123 0 178.5 45t69.5 154q13 110 -32.5 147.5t-168.5 37.5t-176.5 -37t-67.5 -147q-13 -110 30.5 -155t166.5 -45zM660 1089q111 0 160 31.5t59 110.5l4 28q11 93 -30 131t-152 38t-161 -38t-62 -131l-3 -28q-9 -78 32.5 -110t152.5 -32zM595 557
q-176 0 -234.5 71.5t-40.5 209.5q11 89 55 146t107 62l2 15q-111 15 -89 212q13 112 95.5 170.5t219.5 58.5t204 -56.5t50 -188.5q-5 -89 -47 -138.5t-90 -57.5l-2 -15q63 -6 92 -65t15 -172q-14 -114 -87.5 -183t-249.5 -69z" />
    <glyph glyph-name="nine.sups" unicode="&#x2079;" 
d="M710 1501q146 0 216 -87t50 -243l-34 -279q-39 -337 -350 -337q-132 0 -193.5 48.5t-70.5 159.5l95 17q7 -89 44 -121t149 -32t168 60.5t74 204.5l13 104h-11q-80 -84 -229 -84t-216 72t-52 204l4 24q17 136 107 212.5t236 76.5zM706.5 976q174.5 0 190.5 236
q13 112 -34.5 164t-161.5 52t-173 -51t-75 -173t31.5 -175t222 -53z" />
    <glyph glyph-name="nsuperior" unicode="&#x207f;" 
d="M754 1508q121 0 182.5 -84.5t44.5 -218.5l-78 -641h-76l78 628q30 245 -164 245q-152 0 -289 -149l-89 -724h-78l113 929h79l-17 -141h15q50 74 124.5 115t154.5 41z" />
    <glyph glyph-name="zero.sinf" unicode="&#x2080;" 
d="M601 61q123 -1 187 77t85 262l13 118q24 186 -19 265q-44 79 -167 79t-185 -79t-87 -265l-13 -118q-21 -184 21 -262t165 -77zM331 384l19 150q48 401 361 401q311 0 263 -401l-19 -150q-49 -395 -360 -395q-312 0 -264 395z" />
    <glyph glyph-name="one.sinf" unicode="&#x2081;" 
d="M374 0l10 73h232l90 718h-10q-30 -74 -102 -119t-153 -46l-2 76q80 4 165 57t120 164h78l-104 -850h211l-10 -73h-525z" />
    <glyph glyph-name="two.sinf" unicode="&#x2082;" 
d="M700 862q-118 0 -166 -36t-67 -139l-83 7q20 127 97 184t229 57q152 1 215 -61t47 -193l-8 -63q-9 -84 -60 -138t-159 -78l-179 -37q-88 -19 -125 -54t-46 -116l-15 -122h529l-10 -73h-610l24 194q13 104 64 164t165 83l179 36q89 21 123 55t44 108l4 36q13 102 -31 144
t-161 42z" />
    <glyph glyph-name="three.sinf" unicode="&#x2083;" 
d="M570 -11q-164 0 -226 57t-57 168l85 8q-2 -88 34 -123t170 -35q132 0 188 43q56 44 70 148l4 30q11 88 -36 126t-169 38h-102l9 74h102q110 0 161 31t59 99l6 38q11 91 -34 130q-46 39 -154 39t-159 -31q-50 -32 -65 -108l-85 7q22 110 96 158q75 48 221 48t211 -55
q65 -56 51 -177l-4 -30q-11 -78 -50 -123t-95 -52l-2 -15q63 -6 97 -62t24 -143l-4 -26q-17 -136 -99 -199q-83 -63 -247 -63z" />
    <glyph glyph-name="four.sinf" unicode="&#x2084;" 
d="M1005 253h-193l-32 -253h-86l32 253h-434l10 73l500 597h92l-73 -597h194zM382 326h353l60 486z" />
    <glyph glyph-name="five.sinf" unicode="&#x2085;" 
d="M584 -11q-158 0 -222 55t-53 191l82 11q-4 -110 39 -147q42 -37 168 -37t184 46q58 47 71 156l5 47q11 97 -33 140q-45 43 -162 42h-294l52 430h556l-9 -72h-471l-33 -283h212q141 0 211 -61t55 -172l-11 -91q-15 -123 -101 -189q-88 -66 -246 -66z" />
    <glyph glyph-name="six.sinf" unicode="&#x2086;" 
d="M601 61q115 0 175 53t75 173q15 119 -32 173t-162 54t-175 -53t-74 -175t32 -173q46 -52 161 -52zM594 -11q-162 0 -224 89t-44 240l35 280q40 337 352 337q131 -1 193 -49t68 -160l-95 -17q-6 89 -43 121q-36 32 -150 32t-168 -59t-71 -205l-13 -105h9q75 84 234 84
q296 0 261 -275l-2 -25q-16 -123 -98 -205t-244 -83z" />
    <glyph glyph-name="seven.sinf" unicode="&#x2087;" 
d="M499 0q102 309 182 473t242 380h-530l7 70h615l-8 -70q-162 -239 -250 -413t-163 -440h-95z" />
    <glyph glyph-name="eight.sinf" unicode="&#x2088;" 
d="M603 65q123 0 179 45t69 154q13 110 -33 147t-168 37t-177 -36q-54 -37 -67 -147q-14 -110 30 -155t167 -45zM660 523q111 0 160 32t59 110l4 28q11 93 -30 131t-152 38t-161 -38t-62 -131l-3 -28q-9 -78 33 -110t152 -32zM595 -9q-176 0 -235 71t-40 210q11 89 55 146
t107 62l2 15q-111 15 -89 212q13 112 96 171q83 58 219 58t204 -56q67 -56 50 -189q-5 -89 -47 -139t-90 -57l-2 -15q63 -6 92 -64t18 -144q-19 -145 -92 -213q-72 -68 -248 -68z" />
    <glyph glyph-name="nine.sinf" unicode="&#x2089;" 
d="M616 61q112 0 168 61t74 204l13 104h-11q-78 -82 -228 -83t-217 71t-52 204l4 24q17 136 107 212t236 76t216 -86q70 -87 50 -243l-34 -279q-39 -337 -350 -337q-132 0 -194 48q-61 48 -70 160l95 17q7 -89 44 -121t149 -32zM646 410q235 0 251 236q13 112 -34 164
t-161 52t-174 -51q-59 -51 -75 -173q-17 -122 31 -175t162 -53z" />
    <glyph glyph-name="franc" unicode="&#x20a3;" 
d="M620 411h-341l-50 -411h-91l50 411h-169l9 81h169l123 997h808l-9 -81h-717l-63 -516h597l-9 -80h-597l-41 -320h340z" />
    <glyph glyph-name="lira" unicode="&#x20a4;" 
d="M711 -19q-76 0 -144 33.5t-131 63.5t-123 43t-118 -26l-171 -112l-43 65l144 80q69 37 134.5 167t63 200.5t-5.5 102.5h-300l9 72h277q-15 68 -40 149q-26 81 -30 132h-172l10 73h152q-6 38 -1 88q22 179 148.5 287.5t341.5 108.5t310 -86.5t82 -276.5l-93 -11
q7 166 -60 229t-251 63t-275.5 -76.5t-111.5 -241.5q-2 -19 -2 -39.5t4 -44.5h508l-9 -73h-486q17 -73 39 -144t33 -137h378l-9 -72h-358q8 -59 4 -103q-30 -223 -190 -329l6 -10q63 35 121.5 29t126.5 -37t126 -59t116 -28q130 0 182 77.5t84 228.5l87 -11
q-32 -184 -120 -279.5t-243 -95.5z" />
    <glyph glyph-name="peseta" unicode="&#x20a7;" 
d="M236 583q47 0 80.5 52t50.5 190l44 357q17 140 -3.5 192t-66.5 52h-84l-104 -843h83zM1040 1072q-54 0 -82.5 -46t-39.5 -132t18.5 -163t72.5 -159q95 -183 78 -314q-17 -132 -78 -204.5t-154 -72.5q-56 0 -108 26q-65 -24 -115 -24t-82 53t-18 180l103 838h-168
l-28 -233q-38 -300 -210 -300h-84l-63 -521h-71l183 1489h156q172 0 134 -299l-7 -73h167l45 372h72l-44 -372h184l-9 -63h-185l-104 -859q-9 -74 7 -110.5t42 -36.5q53 0 72 15l28 36q46 -54 111 -54q130 0 152 204q11 86 -15 151.5t-64 143.5t-70 163t-19 187t60.5 172
t144.5 70q67 0 128 -47l-37 -59q-49 42 -103 42z" />
    <glyph glyph-name="Euro" unicode="&#x20ac;" 
d="M590 -19q-207 0 -298 128.5t-61 378.5l5 43h-169l9 82h170l33 260h-169l9 82h170l5 43q30 251 153 380.5t331 129.5q341 0 337 -363l-85 -13q-9 162 -65.5 228t-214.5 66t-247.5 -96.5t-117.5 -331.5l-5 -43h342l-9 -82h-342l-34 -260h343l-10 -82h-342l-6 -43
q-28 -231 37 -328t223 -97t230 65.5t121 221.5l82 -13q-39 -175 -146.5 -265.5t-278.5 -90.5z" />
    <glyph glyph-name="careof" unicode="&#x2105;" 
d="M966 238l15 131q25 208 -120 208t-170 -208l-15 -131q-25 -204 120 -204t170 204zM786 -41q-102 0 -157.5 69t-36.5 214l15 123q19 145 91.5 216t173.5 71t155.5 -71t35.5 -216l-15 -123q-19 -145 -89.5 -214t-172.5 -69zM58 292l1076 985l52 -67l-1080 -985zM356 834
q-96 0 -150.5 69t-36.5 214l15 123q17 145 90.5 216t169.5 71t151 -55t53 -171l-86 -7q0 82 -28 120t-96 38t-113.5 -50t-58.5 -158l-17 -131q-25 -204 123 -204q67 0 104.5 36t57.5 118l82 -13q-24 -110 -94 -163t-166 -53z" />
    <glyph glyph-name="lsquare" unicode="&#x2113;" 
d="M479 82q114 0 251 56l-6 -93q-135 -58 -253 -58q-168 0 -244 102.5t-24 282.5l236 836q43 153 145.5 226.5t239.5 73.5t192.5 -91t13.5 -246l-116 -413q-41 -151 -137 -222t-213 -71q-154 0 -220 103l-46 -179q-41 -151 13 -229t168 -78zM552 547q107 0 173 46.5
t100 164.5l115 413q32 112 4 183.5t-155 71.5q-201 0 -258 -218l-121 -426q-30 -102 2.5 -168.5t139.5 -66.5z" />
    <glyph glyph-name="numero" unicode="&#x2116;" 
d="M682 52q162 0 186 199l13 110q26 205 -132 205q-157 0 -183 -205l-13 -110q-13 -106 19.5 -152.5t109.5 -46.5zM675 -26q-107 0 -165.5 69t-40.5 208l13 110q17 141 92.5 212t184.5 71t165.5 -70.5t39.5 -212.5l-13 -110q-19 -140 -94 -208.5t-182 -68.5zM391 1393
l-78 -630h-90l90 726h119l504 -623l77 623h89l-89 -726h-114z" />
    <glyph glyph-name="uni2117" unicode="&#x2117;" 
d="M505 594h128q97 0 132.5 47.5t35.5 149.5v84q0 112 -35.5 163t-132.5 51h-128v-495zM633 1164q257 0 257 -289v-84q0 -132 -61.5 -201t-195.5 -69h-128v-292h-90v935h218zM615 -136q245 0 357 154.5t112 499.5v335q0 348 -112 504.5t-357 156.5t-356.5 -156.5
t-111.5 -504.5v-335q0 -344 111.5 -499t356.5 -155zM616.5 -205q-275.5 0 -408 167.5t-132.5 515.5v414q0 352 134 521.5t408 169.5t406 -169.5t132 -521.5v-414q0 -348 -132 -515.5t-407.5 -167.5z" />
    <glyph glyph-name="trademark" unicode="&#x2122;" 
d="M644 653h-71v836h75l192 -485l190 485h74v-836h-69l-4 674l-163 -418h-56l-168 413v-669zM216 653v768h-156v68h381v-68h-154v-768h-71z" />
    <glyph glyph-name="Ohm" unicode="&#x2126;" 
d="M207 966q66 542 502 542t373 -542l-26 -201q-17 -149 -84 -261t-188 -150l-34 -272h222l-9 -82h-311l50 410q128 35 188 123t76 232l26 201q30 246 -38 353t-254 107t-280 -107t-124 -353l-26 -201q-17 -143 20 -231t159 -124l-51 -410h-310l9 82h221l34 272
q-110 39 -149 151t-22 260z" />
    <glyph glyph-name="estimated" unicode="&#x212e;" 
d="M611 1368q-135 0 -231 -96v-471h460v465q-52 45 -104.5 73.5t-124.5 28.5zM67 752q0 339 152.5 552t392.5 213t391 -240t157 -625h-780v-429q106 -96 227 -96q256 0 382 216l82 -112q-153 -253 -464 -253q-235 0 -387.5 217.5t-152.5 556.5z" />
    <glyph glyph-name="oneeighth" unicode="&#x215b;" 
d="M484 -328q123 0 178.5 37t65.5 125q11 88 -35.5 117.5t-169.5 29.5t-176 -29.5t-64 -118.5t33.5 -125t167.5 -36zM533 56q111 0 159.5 23t55.5 81l2 28q9 73 -32.5 102.5t-152.5 29.5t-160 -29.5t-59 -102.5l-2 -28q-7 -58 35.5 -81t153.5 -23zM476 -402
q-176 0 -233.5 62t-41.5 182q7 74 48 119.5t107 51.5l1 15q-48 7 -75.5 42.5t-15.5 130.5t92 144.5t216 49.5t205.5 -48.5t54.5 -160.5q-9 -78 -47.5 -114.5t-86.5 -43.5l-2 -15q63 -6 94 -53.5t23 -117.5q-8 -118 -85.5 -181t-253.5 -63zM1186 510l-518 15l8 69l521 13z
M-9 510l11 97l542 -13l-8 -69zM365 763l9 73h233l65 532h-11q-28 -74 -99.5 -118.5t-155.5 -46.5v76q82 4 166.5 57t118.5 165h78l-82 -665h212l-9 -73h-525z" />
    <glyph glyph-name="threeeighths" unicode="&#x215c;" 
d="M484 -328q123 0 178.5 37t65.5 125q11 88 -35.5 117.5t-169.5 29.5t-176 -29.5t-64 -118.5t33.5 -125t167.5 -36zM533 56q111 0 159.5 23t55.5 81l2 28q9 73 -32.5 102.5t-152.5 29.5t-160 -29.5t-59 -102.5l-2 -28q-7 -58 35.5 -81t153.5 -23zM476 -402
q-176 0 -233.5 62t-41.5 182q7 74 48 119.5t107 51.5l1 15q-48 7 -75.5 42.5t-15.5 130.5t92 144.5t216 49.5t205.5 -48.5t54.5 -160.5q-9 -78 -47.5 -114.5t-86.5 -43.5l-2 -15q63 -6 94 -53.5t23 -117.5q-8 -118 -85.5 -181t-253.5 -63zM1186 510l-518 15l8 69l521 13z
M-9 510l11 97l542 -13l-8 -69zM610 750q-165 0 -228.5 47.5t-57.5 140.5l82 8q0 -69 38 -95t170 -26t189 32.5t66 112.5l4 30q7 63 -40 91t-170 28h-101l10 73h100q110 0 159.5 19.5t54.5 63.5l6 38q7 67 -39.5 94.5t-154.5 27.5t-159 -22t-62 -80l-84 8q17 91 91.5 130
t221.5 39t213 -44.5t53 -141.5l-4 -30q-6 -58 -45.5 -89.5t-93.5 -39.5l-2 -14q65 -6 99.5 -49.5t24.5 -109.5l-1 -26q-15 -112 -95 -164t-245 -52z" />
    <glyph glyph-name="fiveeighths" unicode="&#x215d;" 
d="M484 -328q123 0 178.5 37t65.5 125q11 88 -35.5 117.5t-169.5 29.5t-176 -29.5t-64 -118.5t33.5 -125t167.5 -36zM533 56q111 0 159.5 23t55.5 81l2 28q9 73 -32.5 102.5t-152.5 29.5t-160 -29.5t-59 -102.5l-2 -28q-7 -58 35.5 -81t153.5 -23zM476 -402
q-176 0 -233.5 62t-41.5 182q7 74 48 119.5t107 51.5l1 15q-48 7 -75.5 42.5t-15.5 130.5t92 144.5t216 49.5t205.5 -48.5t54.5 -160.5q-9 -78 -47.5 -114.5t-86.5 -43.5l-2 -15q63 -6 94 -53.5t23 -117.5q-8 -118 -85.5 -181t-253.5 -63zM1186 510l-518 15l8 69l521 13z
M-9 510l11 97l542 -13l-8 -69zM623 823q126 0 181.5 32.5t64.5 110.5l6 47q7 69 -39.5 99.5t-163.5 30.5h-294l45 356h556l-9 -73h-471l-26 -208h212q141 0 213 -49.5t59 -146.5l-7 -61q-26 -211 -344 -211q-158 0 -222 46.5t-56 164.5l82 11q-4 -89 41.5 -119t171.5 -30z
" />
    <glyph glyph-name="seveneighths" unicode="&#x215e;" 
d="M484 -328q123 0 178.5 37t65.5 125q11 88 -35.5 117.5t-169.5 29.5t-176 -29.5t-64 -118.5t33.5 -125t167.5 -36zM533 56q111 0 159.5 23t55.5 81l2 28q9 73 -32.5 102.5t-152.5 29.5t-160 -29.5t-59 -102.5l-2 -28q-7 -58 35.5 -81t153.5 -23zM476 -402
q-176 0 -233.5 62t-41.5 182q7 74 48 119.5t107 51.5l1 15q-48 7 -75.5 42.5t-15.5 130.5t92 144.5t216 49.5t205.5 -48.5t54.5 -160.5q-9 -78 -47.5 -114.5t-86.5 -43.5l-2 -15q63 -6 94 -53.5t23 -117.5q-8 -118 -85.5 -181t-253.5 -63zM1186 510l-518 15l8 69l521 13z
M-9 510l11 97l542 -13l-8 -69zM532 763q73 207 154 341.5t237 325.5h-530l9 71h615l-10 -71q-141 -188 -237 -336t-152 -331h-86z" />
    <glyph glyph-name="arrowleft" unicode="&#x2190;" 
d="M616 1350v-561h598v-89h-598v-560h-33l-564 586v37l564 587h33z" />
    <glyph glyph-name="arrowup" unicode="&#x2191;" 
d="M572 0v838h-511v37l539 614h33l538 -614v-37h-510v-838h-89z" />
    <glyph glyph-name="arrowright" unicode="&#x2192;" 
d="M616 140v560h-597v89h597v561h36l562 -587v-37l-562 -586h-36z" />
    <glyph glyph-name="arrowdown" unicode="&#x2193;" 
d="M61 652h511v837h89v-837h510v-38l-538 -614h-33l-539 614v38z" />
    <glyph glyph-name="arrowboth" unicode="&#x2194;" 
d="M497 700v-560h-35l-443 586v37l443 587h35v-561h238v561h36l443 -587v-37l-443 -586h-36v560h-238z" />
    <glyph glyph-name="arrowupdn" unicode="&#x2195;" 
d="M61 465h511v559h-511v37l539 615h33l538 -615v-37h-510v-559h510v-37l-538 -614h-33l-539 614v37z" />
    <glyph glyph-name="arrowupdnbse" unicode="&#x21a8;" 
d="M61 465h511v559h-511v37l539 615h33l538 -615v-37h-510v-559h510v-37l-538 -614h-33l-539 614v37zM121 -320l11 89h957l-11 -89h-957z" />
    <glyph glyph-name="partialdiff" unicode="&#x2202;" 
d="M658 834q-165 0 -241 -79t-106 -241l-22 -116q-30 -169 25.5 -252.5t219.5 -84.5t241.5 83.5t110.5 253.5l24 116q34 160 -26.5 240t-225.5 80zM525 -19q-177 0 -275.5 105.5t-57.5 315.5l26 132q35 175 143.5 277.5t264.5 102.5t238 -57.5t104 -137.5h8
q52 317 -36.5 476t-369.5 246l30 61q302 -91 402 -278t33 -535l-52 -276q-43 -223 -162 -327.5t-296 -104.5z" />
    <glyph glyph-name="Delta#1" unicode="&#x2206;" 
d="M929 82l-242 1270l-559 -1270h801zM35 0l10 82l622 1407h67l290 -1407l-9 -82h-980z" />
    <glyph glyph-name="product" unicode="&#x220f;" 
d="M91 -372l229 1861h775l-229 -1861h-91l219 1780h-592l-220 -1780h-91z" />
    <glyph glyph-name="summation" unicode="&#x2211;" 
d="M910 -290l-11 -82h-858l11 82l682 873l-473 825l9 81h858l-9 -81h-750l450 -801l-5 -52l-656 -845h752z" />
    <glyph glyph-name="minus" unicode="&#x2212;" 
d="M121 607l11 89h957l-11 -89h-957z" />
    <glyph glyph-name="radical" unicode="&#x221a;" 
d="M575 0l-255 843l-167 -41l9 73l218 56l238 -808l559 1553h72l-605 -1676h-69z" />
    <glyph glyph-name="infinity" unicode="&#x221e;" 
d="M335 344q56 0 107 83t128 303q-28 238 -62 326.5t-96 88.5t-112.5 -105t-72.5 -295t6 -295.5t102 -105.5zM820 344q64 0 114.5 105.5t73 295.5t-5.5 295t-103 105q-63 0 -114 -82t-126 -303q28 -238 62.5 -327t98.5 -89zM313 263q-106 0 -154.5 133t-22.5 349t106 349
t182 133q82 0 131.5 -80t84.5 -296q65 210 133.5 293t142.5 83q106 0 156.5 -133t24.5 -348t-108 -349t-188 -134q-76 0 -123 81.5t-82 303.5q-67 -216 -138 -300.5t-145 -84.5z" />
    <glyph glyph-name="orthogonal" unicode="&#x221f;" 
d="M138 0l160 1303h91l-151 -1221h717l-9 -82h-808z" />
    <glyph glyph-name="intersection" unicode="&#x2229;" 
d="M687 1322q186 0 271 -130.5t55 -372.5l-101 -819h-91l101 819q26 216 -33.5 318.5t-211.5 102.5t-236.5 -102.5t-110.5 -318.5l-101 -819h-91l100 819q30 242 146.5 372.5t302.5 130.5z" />
    <glyph glyph-name="integral" unicode="&#x222b;" 
d="M961 1508q75 0 165 -41l-28 -78q-91 37 -148 37q-95 0 -157.5 -60.5t-79.5 -194.5l-149 -1216q-20 -160 -114.5 -247.5t-222.5 -89.5q-79 4 -164 41l28 78q78 -34 147 -37q205 4 237 255l149 1214q20 162 114 250.5t223 88.5z" />
    <glyph glyph-name="approxequal" unicode="&#x2248;" 
d="M776 -19q-88 0 -139 62.5t-107 203.5t-90 193.5t-100 52.5q-128 0 -161 -262l-28 -231h-90l30 242q20 162 93.5 246.5t161.5 84.5t141 -62t110 -202t90 -194.5t91 -54.5q129 0 162 270l28 225h90l-30 -238q-20 -162 -92 -249t-160 -87zM868 726q-88 0 -139 63t-108 203
t-91 193t-100 53q-126 0 -160 -262l-28 -231h-89l29 242q20 162 93 246.5t161 84.5t141.5 -62t110.5 -202t90.5 -195t91.5 -55q129 0 161 270l28 226h90l-30 -239q-20 -162 -91.5 -248.5t-159.5 -86.5z" />
    <glyph glyph-name="notequal" unicode="&#x2260;" 
d="M1054 402h-512l-144 -402h-89l142 402h-354l9 90h376l179 506h-492l12 89h512l141 402h89l-139 -402h354l-12 -89h-376l-177 -506h490z" />
    <glyph glyph-name="equivalence" unicode="&#x2261;" 
d="M74 235l12 89h957l-12 -89h-957zM121 607l11 89h957l-11 -89h-957zM168 979l9 90h957l-9 -90h-957z" />
    <glyph glyph-name="lessequal" unicode="&#x2264;" 
d="M99 0l9 73h853l-10 -73h-852zM998 372l-797 466l11 91l911 466l-10 -82l-821 -430l715 -429z" />
    <glyph glyph-name="greaterequal" unicode="&#x2265;" 
d="M951 0h-852l9 73h853zM145 372l10 82l819 429l-713 430l9 82l795 -466l-11 -91z" />
    <glyph glyph-name="logicalnotreversed" unicode="&#x2310;" 
d="M88 0l85 696h916l-11 -89h-827l-74 -607h-89z" />
    <glyph glyph-name="integralbt" unicode="&#x2321;" 
d="M91 -263q78 -34 147 -37q205 4 237 255l188 1534h89l-188 -1534q-20 -160 -114.5 -247.5t-222.5 -89.5q-79 4 -164 41z" />
    <glyph glyph-name="uni23af" unicode="&#x23af;" 
d="M-19 700v89h1270v-89h-1270z" />
    <glyph glyph-name="lighthorzbxd" unicode="&#x2500;" 
d="M-37 605h1307v-93h-1307v93z" />
    <glyph glyph-name="heavyhorzbxd" unicode="&#x2501;" 
d="M-37 652h1307v-187h-1307v187z" />
    <glyph glyph-name="lightvertbxd" unicode="&#x2502;" 
d="M570 1955h93v-2793h-93v2793z" />
    <glyph glyph-name="heavyvertbxd" unicode="&#x2503;" 
d="M523 1955h186v-2793h-186v2793z" />
    <glyph glyph-name="lighttrpldashhorzbxd" unicode="&#x2504;" 
d="M886 605h274v-93h-274v93zM477 605h273v-93h-273v93zM67 605h274v-93h-274v93z" />
    <glyph glyph-name="heavytrpldashhorzbxd" unicode="&#x2505;" 
d="M886 652h274v-187h-274v187zM477 652h273v-187h-273v187zM67 652h274v-187h-274v187z" />
    <glyph glyph-name="lighttrpldashvertbxd" unicode="&#x2506;" 
d="M570 2147h93v-455h-93v455zM570 1465h93v-454h-93v454zM570 784h93v-454h-93v454zM570 102h93v-454h-93v454z" />
    <glyph glyph-name="heavytrpldashvertbxd" unicode="&#x2507;" 
d="M523 2147h186v-455h-186v455zM523 1465h186v-454h-186v454zM523 784h186v-454h-186v454zM523 102h186v-454h-186v454z" />
    <glyph glyph-name="lightquaddashhorzbxd" unicode="&#x2508;" 
d="M959 605h231v-93h-231v93zM652 605h231v-93h-231v93zM344 605h231v-93h-231v93zM37 605h231v-93h-231v93z" />
    <glyph glyph-name="heavyquaddashhorzbxd" unicode="&#x2509;" 
d="M959 652h231v-187h-231v187zM652 652h231v-187h-231v187zM344 652h231v-187h-231v187zM37 652h231v-187h-231v187z" />
    <glyph glyph-name="lightquaddashvertbxd" unicode="&#x250a;" 
d="M570 1519h93v-385h-93v385zM570 1007h93v-385h-93v385zM570 495h93v-385h-93v385zM570 -17h93v-385h-93v385z" />
    <glyph glyph-name="heavyquaddashvertbxd" unicode="&#x250b;" 
d="M523 1519h186v-385h-186v385zM523 1007h186v-385h-186v385zM523 495h186v-385h-186v385zM523 -17h186v-385h-186v385z" />
    <glyph glyph-name="lightdnrightbxd" unicode="&#x250c;" 
d="M570 605h700v-93h-607v-1350h-93v1443z" />
    <glyph glyph-name="dnlightrightheavybxd" unicode="&#x250d;" 
d="M570 652h700v-187h-607v-1303h-93v1490z" />
    <glyph glyph-name="dnheavyrightlightbxd" unicode="&#x250e;" 
d="M523 605h747v-93h-561v-1350h-186v1443z" />
    <glyph glyph-name="heavydnrightbxd" unicode="&#x250f;" 
d="M523 652h747v-187h-561v-1303h-186v1490z" />
    <glyph glyph-name="lightdnleftbxd" unicode="&#x2510;" 
d="M-37 605h700v-1443h-93v1350h-607v93z" />
    <glyph glyph-name="dnlightleftheavybxd" unicode="&#x2511;" 
d="M-37 652h700v-1490h-93v1303h-607v187z" />
    <glyph glyph-name="dnheavyleftlightbxd" unicode="&#x2512;" 
d="M-37 605h746v-1443h-186v1350h-560v93z" />
    <glyph glyph-name="heavydnleftbxd" unicode="&#x2513;" 
d="M-37 652h746v-1490h-186v1303h-560v187z" />
    <glyph glyph-name="lightuprightbxd" unicode="&#x2514;" 
d="M570 1955h93v-1350h607v-93h-700v1443z" />
    <glyph glyph-name="uplightrightheavybxd" unicode="&#x2515;" 
d="M570 1955h93v-1303h607v-187h-700v1490z" />
    <glyph glyph-name="upheavyrightlightbxd" unicode="&#x2516;" 
d="M523 1955h186v-1350h561v-93h-747v1443z" />
    <glyph glyph-name="heavyuprightbxd" unicode="&#x2517;" 
d="M523 1955h186v-1303h561v-187h-747v1490z" />
    <glyph glyph-name="lightupleftbxd" unicode="&#x2518;" 
d="M-37 605h607v1350h93v-1443h-700v93z" />
    <glyph glyph-name="uplightleftheavybxd" unicode="&#x2519;" 
d="M-37 652h607v1303h93v-1490h-700v187z" />
    <glyph glyph-name="upheavyleftlightbxd" unicode="&#x251a;" 
d="M-37 605h560v1350h186v-1443h-746v93z" />
    <glyph glyph-name="heavyupleftbxd" unicode="&#x251b;" 
d="M-37 652h560v1303h186v-1490h-746v187z" />
    <glyph glyph-name="lightvertrightbxd" unicode="&#x251c;" 
d="M570 1955h93v-1350h607v-93h-607v-1350h-93v2793z" />
    <glyph glyph-name="vertlightrightheavybxd" unicode="&#x251d;" 
d="M570 1955h93v-1303h607v-187h-607v-1303h-93v2793z" />
    <glyph glyph-name="upheavyrightdnlightbxd" unicode="&#x251e;" 
d="M523 1955h186v-1350h561v-93h-607v-1350h-93v1350h-47v1443z" />
    <glyph glyph-name="dnheavyrightuplightbxd" unicode="&#x251f;" 
d="M523 605h47v1350h93v-1350h607v-93h-561v-1350h-186v1443z" />
    <glyph glyph-name="vertheavyrightlightbxd" unicode="&#x2520;" 
d="M523 1955h186v-1350h561v-93h-561v-1350h-186v2793z" />
    <glyph glyph-name="dnlightrightupheavybxd" unicode="&#x2521;" 
d="M523 1955h186v-1303h561v-187h-607v-1303h-93v1303h-47v1490z" />
    <glyph glyph-name="uplightrightdnheavybxd" unicode="&#x2522;" 
d="M523 652h47v1303h93v-1303h607v-187h-561v-1303h-186v1490z" />
    <glyph glyph-name="heavyvertrightbxd" unicode="&#x2523;" 
d="M523 1955h186v-1303h561v-187h-561v-1303h-186v2793z" />
    <glyph glyph-name="lightvertleftbxd" unicode="&#x2524;" 
d="M-37 605h607v1350h93v-2793h-93v1350h-607v93z" />
    <glyph glyph-name="vertlightleftheavybxd" unicode="&#x2525;" 
d="M-37 652h607v1303h93v-2793h-93v1303h-607v187z" />
    <glyph glyph-name="upheavyleftdnlightbxd" unicode="&#x2526;" 
d="M-37 605h560v1350h186v-1443h-46v-1350h-93v1350h-607v93z" />
    <glyph glyph-name="dnheavyleftuplightbxd" unicode="&#x2527;" 
d="M-37 605h607v1350h93v-1350h46v-1443h-186v1350h-560v93z" />
    <glyph glyph-name="vertheavyleftlightbxd" unicode="&#x2528;" 
d="M-37 605h560v1350h186v-2793h-186v1350h-560v93z" />
    <glyph glyph-name="dnlightleftupheavybxd" unicode="&#x2529;" 
d="M-37 652h560v1303h186v-1490h-46v-1303h-93v1303h-607v187z" />
    <glyph glyph-name="uplightleftdnheavybxd" unicode="&#x252a;" 
d="M-37 652h607v1303h93v-1303h46v-1490h-186v1303h-560v187z" />
    <glyph glyph-name="heavyvertleftbxd" unicode="&#x252b;" 
d="M-37 652h560v1303h186v-2793h-186v1303h-560v187z" />
    <glyph glyph-name="lightdnhorzbxd" unicode="&#x252c;" 
d="M-37 605h1307v-93h-607v-1350h-93v1350h-607v93z" />
    <glyph glyph-name="leftheavyrightdnlightbxd" unicode="&#x252d;" 
d="M-37 652h700v-47h607v-93h-607v-1350h-93v1303h-607v187z" />
    <glyph glyph-name="rightheavyleftdnlightbxd" unicode="&#x252e;" 
d="M-37 605h607v47h700v-187h-607v-1303h-93v1350h-607v93z" />
    <glyph glyph-name="dnlighthorzheavybxd" unicode="&#x252f;" 
d="M-37 652h1307v-187h-607v-1303h-93v1303h-607v187z" />
    <glyph glyph-name="dnheavyhorzlightbxd" unicode="&#x2530;" 
d="M-37 605h1307v-93h-561v-1350h-186v1350h-560v93z" />
    <glyph glyph-name="rightlightleftdnheavybxd" unicode="&#x2531;" 
d="M-37 652h746v-47h561v-93h-561v-1350h-186v1303h-560v187z" />
    <glyph glyph-name="leftlightrightdnheavybxd" unicode="&#x2532;" 
d="M-37 605h560v47h747v-187h-561v-1303h-186v1350h-560v93z" />
    <glyph glyph-name="heavydnhorzbxd" unicode="&#x2533;" 
d="M-37 652h1307v-187h-561v-1303h-186v1303h-560v187z" />
    <glyph glyph-name="lightuphorzbxd" unicode="&#x2534;" 
d="M-37 605h607v1350h93v-1350h607v-93h-1307v93z" />
    <glyph glyph-name="leftheavyrightuplightbxd" unicode="&#x2535;" 
d="M-37 652h607v1303h93v-1350h607v-93h-607v-47h-700v187z" />
    <glyph glyph-name="rightheavyleftuplightbxd" unicode="&#x2536;" 
d="M-37 605h607v1350h93v-1303h607v-187h-700v47h-607v93z" />
    <glyph glyph-name="uplighthorzheavybxd" unicode="&#x2537;" 
d="M-37 652h607v1303h93v-1303h607v-187h-1307v187z" />
    <glyph glyph-name="upheavyhorzlightbxd" unicode="&#x2538;" 
d="M-37 605h560v1350h186v-1350h561v-93h-1307v93z" />
    <glyph glyph-name="rightlightleftupheavybxd" unicode="&#x2539;" 
d="M-37 652h560v1303h186v-1350h561v-93h-561v-47h-746v187z" />
    <glyph glyph-name="leftlightrightupheavybxd" unicode="&#x253a;" 
d="M-37 605h560v1350h186v-1303h561v-187h-747v47h-560v93z" />
    <glyph glyph-name="heavyuphorzbxd" unicode="&#x253b;" 
d="M-37 652h560v1303h186v-1303h561v-187h-1307v187z" />
    <glyph glyph-name="lightverthorzbxd" unicode="&#x253c;" 
d="M-37 605h607v1350h93v-1350h607v-93h-607v-1350h-93v1350h-607v93z" />
    <glyph glyph-name="leftheavyrightvertlightbxd" unicode="&#x253d;" 
d="M-37 652h607v1303h93v-1350h607v-93h-607v-1350h-93v1303h-607v187z" />
    <glyph glyph-name="rightheavyleftvertlightbxd" unicode="&#x253e;" 
d="M-37 605h607v1350h93v-1303h607v-187h-607v-1303h-93v1350h-607v93z" />
    <glyph glyph-name="vertlighthorzheavybxd" unicode="&#x253f;" 
d="M-37 652h607v1303h93v-1303h607v-187h-607v-1303h-93v1303h-607v187z" />
    <glyph glyph-name="upheavydnhorzlightbxd" unicode="&#x2540;" 
d="M-37 605h560v1350h186v-1350h561v-93h-607v-1350h-93v1350h-607v93z" />
    <glyph glyph-name="dnheavyuphorzlightbxd" unicode="&#x2541;" 
d="M-37 605h607v1350h93v-1350h607v-93h-561v-1350h-186v1350h-560v93z" />
    <glyph glyph-name="vertheavyhorzlightbxd" unicode="&#x2542;" 
d="M-37 605h560v1350h186v-1350h561v-93h-561v-1350h-186v1350h-560v93z" />
    <glyph glyph-name="leftupheavyrightdnlightbxd" unicode="&#x2543;" 
d="M-37 652h560v1303h186v-1350h561v-93h-561v-47h-46v-1303h-93v1303h-607v187z" />
    <glyph glyph-name="rightupheavyleftdnlightbxd" unicode="&#x2544;" 
d="M-37 605h560v1350h186v-1303h561v-187h-607v-1303h-93v1303h-47v47h-560v93z" />
    <glyph glyph-name="leftdnheavyrightuplightbxd" unicode="&#x2545;" 
d="M-37 652h607v1303h93v-1303h46v-47h561v-93h-561v-1350h-186v1303h-560v187z" />
    <glyph glyph-name="rightdnheavyleftuplightbxd" unicode="&#x2546;" 
d="M-37 605h560v47h47v1303h93v-1303h607v-187h-561v-1303h-186v1350h-560v93z" />
    <glyph glyph-name="dnlightuphorzheavybxd" unicode="&#x2547;" 
d="M-37 652h560v1303h186v-1303h561v-187h-607v-1303h-93v1303h-607v187z" />
    <glyph glyph-name="uplightdnhorzheavybxd" unicode="&#x2548;" 
d="M-37 652h607v1303h93v-1303h607v-187h-561v-1303h-186v1303h-560v187z" />
    <glyph glyph-name="rightlightleftvertheavybxd" unicode="&#x2549;" 
d="M-37 652h560v1303h186v-1350h561v-93h-561v-1350h-186v1303h-560v187z" />
    <glyph glyph-name="leftlightrightvertheavybxd" unicode="&#x254a;" 
d="M-37 605h560v1350h186v-1303h561v-187h-561v-1303h-186v1350h-560v93z" />
    <glyph glyph-name="heavyverthorzbxd" unicode="&#x254b;" 
d="M-37 652h560v1303h186v-1303h561v-187h-561v-1303h-186v1303h-560v187z" />
    <glyph glyph-name="lightdbldashhorzbxd" unicode="&#x254c;" 
d="M769 605h309v-93h-309v93zM153 605h309v-93h-309v93z" />
    <glyph glyph-name="heavydbldashhorzbxd" unicode="&#x254d;" 
d="M769 652h309v-187h-309v187zM153 652h309v-187h-309v187z" />
    <glyph glyph-name="lightdbldashvertbxd" unicode="&#x254e;" 
d="M570 1326h93v-512h-93v512zM570 302h93v-512h-93v512z" />
    <glyph glyph-name="heavydbldashvertbxd" unicode="&#x254f;" 
d="M523 1326h186v-512h-186v512zM523 302h186v-512h-186v512z" />
    <glyph glyph-name="dblhorzbxd" unicode="&#x2550;" 
d="M-37 512h1307v-93h-1307v93zM-37 698h1307v-93h-1307v93z" />
    <glyph glyph-name="dblvertbxd" unicode="&#x2551;" 
d="M663 1955h93v-2793h-93v2793zM477 1955h93v-2793h-93v2793z" />
    <glyph glyph-name="dnsngrightdblbxd" unicode="&#x2552;" 
d="M570 698h700v-93h-607v-93h607v-93h-607v-1257h-93v1536z" />
    <glyph glyph-name="dndblrightsngbxd" unicode="&#x2553;" 
d="M477 605h793v-93h-514v-1350h-93v1350h-93v-1350h-93v1443z" />
    <glyph glyph-name="dbldnrightbxd" unicode="&#x2554;" 
d="M663 512h607v-93h-514v-1257h-93v1350zM477 698h793v-93h-700v-1443h-93v1536z" />
    <glyph glyph-name="dnsngleftdblbxd" unicode="&#x2555;" 
d="M-37 698h700v-1536h-93v1257h-607v93h607v93h-607v93z" />
    <glyph glyph-name="dndblleftsngbxd" unicode="&#x2556;" 
d="M-37 605h793v-1443h-93v1350h-93v-1350h-93v1350h-514v93z" />
    <glyph glyph-name="dbldnleftbxd" unicode="&#x2557;" 
d="M-37 512h607v-1350h-93v1257h-514v93zM-37 698h793v-1536h-93v1443h-700v93z" />
    <glyph glyph-name="upsngrightdblbxd" unicode="&#x2558;" 
d="M570 1955h93v-1257h607v-93h-607v-93h607v-93h-700v1536z" />
    <glyph glyph-name="updblrightsngbxd" unicode="&#x2559;" 
d="M477 1955h93v-1350h93v1350h93v-1350h514v-93h-793v1443z" />
    <glyph glyph-name="dbluprightbxd" unicode="&#x255a;" 
d="M663 1955h93v-1257h514v-93h-607v1350zM477 1955h93v-1443h700v-93h-793v1536z" />
    <glyph glyph-name="upsngleftdblbxd" unicode="&#x255b;" 
d="M-37 698h607v1257h93v-1536h-700v93h607v93h-607v93z" />
    <glyph glyph-name="updblleftsngbxd" unicode="&#x255c;" 
d="M-37 605h514v1350h93v-1350h93v1350h93v-1443h-793v93z" />
    <glyph glyph-name="dblupleftbxd" unicode="&#x255d;" 
d="M-37 698h514v1257h93v-1350h-607v93zM-37 512h700v1443h93v-1536h-793v93z" />
    <glyph glyph-name="vertsngrightdblbxd" unicode="&#x255e;" 
d="M570 1955h93v-1257h607v-93h-607v-93h607v-93h-607v-1257h-93v2793z" />
    <glyph glyph-name="vertdblrightsngbxd" unicode="&#x255f;" 
d="M477 1955h93v-2793h-93v2793zM663 1955h93v-1350h514v-93h-514v-1350h-93v2793z" />
    <glyph glyph-name="dblvertrightbxd" unicode="&#x2560;" 
d="M663 512h607v-93h-514v-1257h-93v1350zM663 1955h93v-1257h514v-93h-607v1350zM477 1955h93v-2793h-93v2793z" />
    <glyph glyph-name="vertsngleftdblbxd" unicode="&#x2561;" 
d="M-37 698h607v1257h93v-2793h-93v1257h-607v93h607v93h-607v93z" />
    <glyph glyph-name="vertdblleftsngbxd" unicode="&#x2562;" 
d="M663 1955h93v-2793h-93v2793zM-37 605h514v1350h93v-2793h-93v1350h-514v93z" />
    <glyph glyph-name="dblvertleftbxd" unicode="&#x2563;" 
d="M-37 698h514v1257h93v-1350h-607v93zM-37 512h607v-1350h-93v1257h-514v93zM663 1955h93v-2793h-93v2793z" />
    <glyph glyph-name="dnsnghorzdblbxd" unicode="&#x2564;" 
d="M-37 698h1307v-93h-1307v93zM-37 512h1307v-93h-607v-1257h-93v1257h-607v93z" />
    <glyph glyph-name="dndblhorzsngbxd" unicode="&#x2565;" 
d="M-37 605h1307v-93h-514v-1350h-93v1350h-93v-1350h-93v1350h-514v93z" />
    <glyph glyph-name="dbldnhorzbxd" unicode="&#x2566;" 
d="M-37 698h1307v-93h-1307v93zM663 512h607v-93h-514v-1257h-93v1350zM-37 512h607v-1350h-93v1257h-514v93z" />
    <glyph glyph-name="upsnghorzdblbxd" unicode="&#x2567;" 
d="M-37 512h1307v-93h-1307v93zM-37 698h607v1257h93v-1257h607v-93h-1307v93z" />
    <glyph glyph-name="updblhorzsngbxd" unicode="&#x2568;" 
d="M-37 605h514v1350h93v-1350h93v1350h93v-1350h514v-93h-1307v93z" />
    <glyph glyph-name="dbluphorzbxd" unicode="&#x2569;" 
d="M-37 512h1307v-93h-1307v93zM663 1955h93v-1257h514v-93h-607v1350zM-37 698h514v1257h93v-1350h-607v93z" />
    <glyph glyph-name="vertsnghorzdblbxd" unicode="&#x256a;" 
d="M-37 698h607v1257h93v-1257h607v-93h-607v-93h607v-93h-607v-1257h-93v1257h-607v93h607v93h-607v93z" />
    <glyph glyph-name="vertdblhorzsngbxd" unicode="&#x256b;" 
d="M-37 605h514v1350h93v-1350h93v1350h93v-1350h514v-93h-514v-1350h-93v1350h-93v-1350h-93v1350h-514v93z" />
    <glyph glyph-name="dblverthorzbxd" unicode="&#x256c;" 
d="M663 512h607v-93h-514v-1257h-93v1350zM663 1955h93v-1257h514v-93h-607v1350zM-37 512h607v-1350h-93v1257h-514v93zM-37 698h514v1257h93v-1350h-607v93z" />
    <glyph glyph-name="lightarcdnrightbxd" unicode="&#x256d;" 
d="M570 -58q0 138 52 259t141.5 210.5t210.5 141.5t259 52h37v-93h-37q-117 0 -221.5 -44.5t-226.5 -166.5t-122 -359v-780h-93v780z" />
    <glyph glyph-name="lightarcdnleftbxd" unicode="&#x256e;" 
d="M663 -838h-93v780q0 117 -45 221.5t-122 182t-181.5 122t-221.5 44.5h-37v93h37q138 0 259 -52t210.5 -141.5t141.5 -210.5t52 -259v-780z" />
    <glyph glyph-name="lightarcupleftbxd" unicode="&#x256f;" 
d="M663 1175q0 -138 -52 -259t-141.5 -210.5t-210.5 -141.5t-259 -52h-37v93h37q117 0 221.5 44.5t181.5 122t122 182t45 221.5v780h93v-780z" />
    <glyph glyph-name="lightarcuprightbxd" unicode="&#x2570;" 
d="M570 1955h93v-780q0 -117 44.5 -221.5t166.5 -226.5t359 -122h37v-93h-37q-138 0 -259 52t-210.5 141.5t-141.5 210.5t-52 259v780z" />
    <glyph glyph-name="lightdiaguprightdnleftbxd" unicode="&#x2571;" 
d="M1233 1583v-90l-1179 -1958h-54v89l1179 1959h54z" />
    <glyph glyph-name="lightdiagupleftdnrightbxd" unicode="&#x2572;" 
d="M1233 -465h-54l-1179 1958v90h54l1179 -1959v-89z" />
    <glyph glyph-name="lightdiagcrossbxd" unicode="&#x2573;" 
d="M0 1583h54l562 -935l563 935h54v-90l-563 -934l563 -935v-89h-54l-563 934l-562 -934h-54v89l562 935l-562 934v90z" />
    <glyph glyph-name="lightleftbxd" unicode="&#x2574;" 
d="M-37 605h700v-93h-700v93z" />
    <glyph glyph-name="lightupbxd" unicode="&#x2575;" 
d="M570 1955h93v-1443h-93v1443z" />
    <glyph glyph-name="lightrightbxd" unicode="&#x2576;" 
d="M570 605h700v-93h-700v93z" />
    <glyph glyph-name="lightdnbxd" unicode="&#x2577;" 
d="M570 605h93v-1443h-93v1443z" />
    <glyph glyph-name="heavyleftbxd" unicode="&#x2578;" 
d="M-37 652h700v-187h-700v187z" />
    <glyph glyph-name="heavyupbxd" unicode="&#x2579;" 
d="M523 1955h186v-1443h-186v1443z" />
    <glyph glyph-name="heavyrightbxd" unicode="&#x257a;" 
d="M570 652h700v-187h-700v187z" />
    <glyph glyph-name="heavydnbxd" unicode="&#x257b;" 
d="M523 605h186v-1443h-186v1443z" />
    <glyph glyph-name="lightleftheavyrightbxd" unicode="&#x257c;" 
d="M-37 605h607v47h700v-187h-700v47h-607v93z" />
    <glyph glyph-name="lightupheavydnbxd" unicode="&#x257d;" 
d="M523 605h47v1350h93v-1350h46v-1443h-186v1443z" />
    <glyph glyph-name="heavyleftlightrightbxd" unicode="&#x257e;" 
d="M-37 652h700v-47h607v-93h-607v-47h-700v187z" />
    <glyph glyph-name="heavyuplightdnbxd" unicode="&#x257f;" 
d="M523 1955h186v-1443h-46v-1350h-93v1350h-47v1443z" />
    <glyph glyph-name="uphalfblock" unicode="&#x2580;" 
d="M0 1583h1233v-1024h-1233v1024z" />
    <glyph glyph-name="dneighthblock" unicode="&#x2581;" 
d="M0 -210h1233v-255h-1233v255z" />
    <glyph glyph-name="dnquarterblock" unicode="&#x2582;" 
d="M0 47h1233v-512h-1233v512z" />
    <glyph glyph-name="dnthreeeighthsblock" unicode="&#x2583;" 
d="M0 302h1233v-767h-1233v767z" />
    <glyph glyph-name="dnhalfblock" unicode="&#x2584;" 
d="M0 559h1233v-1024h-1233v1024z" />
    <glyph glyph-name="dnfiveeighthsblock" unicode="&#x2585;" 
d="M0 814h1233v-1279h-1233v1279z" />
    <glyph glyph-name="dnthreequartersblock" unicode="&#x2586;" 
d="M0 1071h1233v-1536h-1233v1536z" />
    <glyph glyph-name="dnseveneighthsblock" unicode="&#x2587;" 
d="M0 1326h1233v-1791h-1233v1791z" />
    <glyph glyph-name="fullblock" unicode="&#x2588;" 
d="M0 1583h1233v-2048h-1233v2048z" />
    <glyph glyph-name="leftseveneighthsblock" unicode="&#x2589;" 
d="M0 1583h1078v-2048h-1078v2048z" />
    <glyph glyph-name="leftthreequartersblock" unicode="&#x258a;" 
d="M0 1583h923v-2048h-923v2048z" />
    <glyph glyph-name="leftfiveeighthsblock" unicode="&#x258b;" 
d="M0 1583h769v-2048h-769v2048z" />
    <glyph glyph-name="lefthalfblock" unicode="&#x258c;" 
d="M0 1583h616v-2048h-616v2048z" />
    <glyph glyph-name="leftthreeeighthsblock" unicode="&#x258d;" 
d="M0 1583h462v-2048h-462v2048z" />
    <glyph glyph-name="leftquarterblock" unicode="&#x258e;" 
d="M0 1583h307v-2048h-307v2048z" />
    <glyph glyph-name="lefteighthblock" unicode="&#x258f;" 
d="M0 1583h153v-2048h-153v2048z" />
    <glyph glyph-name="righthalfblock" unicode="&#x2590;" 
d="M616 1583h617v-2048h-617v2048z" />
    <glyph glyph-name="lightshade" unicode="&#x2591;" 
d="M1210 1545h37v-56h-37v56zM1117 1452h37v-56h-37v56zM1210 1359h37v-56h-37v56zM1117 1266h37v-56h-37v56zM1210 1173h37v-56h-37v56zM1117 1080h37v-56h-37v56zM1210 987h37v-56h-37v56zM1117 894h37v-56h-37v56zM1210 801h37v-56h-37v56zM1117 707h37v-55h-37v55z
M1210 614h37v-55h-37v55zM1117 521h37v-56h-37v56zM1210 428h37v-56h-37v56zM1117 335h37v-56h-37v56zM1210 242h37v-56h-37v56zM1117 149h37v-56h-37v56zM1210 56h37v-56h-37v56zM1117 -37h37v-56h-37v56zM1210 -130h37v-56h-37v56zM1117 -223h37v-56h-37v56zM1210 -317h37
v-55h-37v55zM1117 -410h37v-55h-37v55zM1024 1545h37v-56h-37v56zM931 1452h37v-56h-37v56zM1024 1359h37v-56h-37v56zM931 1266h37v-56h-37v56zM1024 1173h37v-56h-37v56zM931 1080h37v-56h-37v56zM1024 987h37v-56h-37v56zM931 894h37v-56h-37v56zM1024 801h37v-56h-37v56
zM931 707h37v-55h-37v55zM1024 614h37v-55h-37v55zM931 521h37v-56h-37v56zM1024 428h37v-56h-37v56zM931 335h37v-56h-37v56zM1024 242h37v-56h-37v56zM931 149h37v-56h-37v56zM1024 56h37v-56h-37v56zM931 -37h37v-56h-37v56zM1024 -130h37v-56h-37v56zM931 -223h37v-56
h-37v56zM1024 -317h37v-55h-37v55zM931 -410h37v-55h-37v55zM838 1545h37v-56h-37v56zM745 1452h37v-56h-37v56zM838 1359h37v-56h-37v56zM745 1266h37v-56h-37v56zM838 1173h37v-56h-37v56zM745 1080h37v-56h-37v56zM838 987h37v-56h-37v56zM745 894h37v-56h-37v56z
M838 801h37v-56h-37v56zM745 707h37v-55h-37v55zM838 614h37v-55h-37v55zM745 521h37v-56h-37v56zM838 428h37v-56h-37v56zM745 335h37v-56h-37v56zM838 242h37v-56h-37v56zM745 149h37v-56h-37v56zM838 56h37v-56h-37v56zM745 -37h37v-56h-37v56zM838 -130h37v-56h-37v56z
M745 -223h37v-56h-37v56zM838 -317h37v-55h-37v55zM745 -410h37v-55h-37v55zM652 1545h37v-56h-37v56zM559 1452h37v-56h-37v56zM652 1359h37v-56h-37v56zM559 1266h37v-56h-37v56zM652 1173h37v-56h-37v56zM559 1080h37v-56h-37v56zM652 987h37v-56h-37v56zM559 894h37v-56
h-37v56zM652 801h37v-56h-37v56zM559 707h37v-55h-37v55zM652 614h37v-55h-37v55zM559 521h37v-56h-37v56zM652 428h37v-56h-37v56zM559 335h37v-56h-37v56zM652 242h37v-56h-37v56zM559 149h37v-56h-37v56zM652 56h37v-56h-37v56zM559 -37h37v-56h-37v56zM652 -130h37v-56
h-37v56zM559 -223h37v-56h-37v56zM652 -317h37v-55h-37v55zM559 -410h37v-55h-37v55zM465 1545h38v-56h-38v56zM372 1452h38v-56h-38v56zM465 1359h38v-56h-38v56zM372 1266h38v-56h-38v56zM465 1173h38v-56h-38v56zM372 1080h38v-56h-38v56zM465 987h38v-56h-38v56z
M372 894h38v-56h-38v56zM465 801h38v-56h-38v56zM372 707h38v-55h-38v55zM465 614h38v-55h-38v55zM372 521h38v-56h-38v56zM465 428h38v-56h-38v56zM372 335h38v-56h-38v56zM465 242h38v-56h-38v56zM372 149h38v-56h-38v56zM465 56h38v-56h-38v56zM372 -37h38v-56h-38v56z
M465 -130h38v-56h-38v56zM372 -223h38v-56h-38v56zM465 -317h38v-55h-38v55zM372 -410h38v-55h-38v55zM279 1545h38v-56h-38v56zM186 1452h37v-56h-37v56zM279 1359h38v-56h-38v56zM186 1266h37v-56h-37v56zM279 1173h38v-56h-38v56zM186 1080h37v-56h-37v56zM279 987h38
v-56h-38v56zM186 894h37v-56h-37v56zM279 801h38v-56h-38v56zM186 707h37v-55h-37v55zM279 614h38v-55h-38v55zM186 521h37v-56h-37v56zM279 428h38v-56h-38v56zM186 335h37v-56h-37v56zM279 242h38v-56h-38v56zM186 149h37v-56h-37v56zM279 56h38v-56h-38v56zM186 -37h37
v-56h-37v56zM279 -130h38v-56h-38v56zM186 -223h37v-56h-37v56zM279 -317h38v-55h-38v55zM186 -410h37v-55h-37v55zM93 1545h37v-56h-37v56zM0 1452h37v-56h-37v56zM93 1359h37v-56h-37v56zM0 1266h37v-56h-37v56zM93 1173h37v-56h-37v56zM0 1080h37v-56h-37v56zM93 987h37
v-56h-37v56zM0 894h37v-56h-37v56zM93 801h37v-56h-37v56zM0 707h37v-55h-37v55zM93 614h37v-55h-37v55zM0 521h37v-56h-37v56zM93 428h37v-56h-37v56zM0 335h37v-56h-37v56zM93 242h37v-56h-37v56zM0 149h37v-56h-37v56zM93 56h37v-56h-37v56zM0 -37h37v-56h-37v56z
M93 -130h37v-56h-37v56zM0 -223h37v-56h-37v56zM93 -317h37v-55h-37v55zM0 -410h37v-55h-37v55z" />
    <glyph glyph-name="mediumshade" unicode="&#x2592;" 
d="M1210 1583h75v-94h-75v94zM1117 1489h75v-93h-75v93zM1210 1396h75v-93h-75v93zM1117 1303h75v-93h-75v93zM1210 1210h75v-93h-75v93zM1117 1117h75v-93h-75v93zM1210 1024h75v-93h-75v93zM1117 931h75v-93h-75v93zM1210 838h75v-93h-75v93zM1117 745h75v-93h-75v93z
M1210 652h75v-93h-75v93zM1117 559h75v-94h-75v94zM1210 465h75v-93h-75v93zM1117 372h75v-93h-75v93zM1210 279h75v-93h-75v93zM1117 186h75v-93h-75v93zM1210 93h75v-93h-75v93zM1117 0h75v-93h-75v93zM1210 -93h75v-93h-75v93zM1117 -186h75v-93h-75v93zM1210 -279h75
v-93h-75v93zM1117 -372h75v-93h-75v93zM1024 1583h74v-94h-74v94zM931 1489h74v-93h-74v93zM1024 1396h74v-93h-74v93zM931 1303h74v-93h-74v93zM1024 1210h74v-93h-74v93zM931 1117h74v-93h-74v93zM1024 1024h74v-93h-74v93zM931 931h74v-93h-74v93zM1024 838h74v-93h-74
v93zM931 745h74v-93h-74v93zM1024 652h74v-93h-74v93zM931 559h74v-94h-74v94zM1024 465h74v-93h-74v93zM931 372h74v-93h-74v93zM1024 279h74v-93h-74v93zM931 186h74v-93h-74v93zM1024 93h74v-93h-74v93zM931 0h74v-93h-74v93zM1024 -93h74v-93h-74v93zM931 -186h74v-93
h-74v93zM1024 -279h74v-93h-74v93zM931 -372h74v-93h-74v93zM838 1583h74v-94h-74v94zM745 1489h74v-93h-74v93zM838 1396h74v-93h-74v93zM745 1303h74v-93h-74v93zM838 1210h74v-93h-74v93zM745 1117h74v-93h-74v93zM838 1024h74v-93h-74v93zM745 931h74v-93h-74v93z
M838 838h74v-93h-74v93zM745 745h74v-93h-74v93zM838 652h74v-93h-74v93zM745 559h74v-94h-74v94zM838 465h74v-93h-74v93zM745 372h74v-93h-74v93zM838 279h74v-93h-74v93zM745 186h74v-93h-74v93zM838 93h74v-93h-74v93zM745 0h74v-93h-74v93zM838 -93h74v-93h-74v93z
M745 -186h74v-93h-74v93zM838 -279h74v-93h-74v93zM745 -372h74v-93h-74v93zM652 1583h74v-94h-74v94zM559 1489h74v-93h-74v93zM652 1396h74v-93h-74v93zM559 1303h74v-93h-74v93zM652 1210h74v-93h-74v93zM559 1117h74v-93h-74v93zM652 1024h74v-93h-74v93zM559 931h74
v-93h-74v93zM652 838h74v-93h-74v93zM559 745h74v-93h-74v93zM652 652h74v-93h-74v93zM559 559h74v-94h-74v94zM652 465h74v-93h-74v93zM559 372h74v-93h-74v93zM652 279h74v-93h-74v93zM559 186h74v-93h-74v93zM652 93h74v-93h-74v93zM559 0h74v-93h-74v93zM652 -93h74v-93
h-74v93zM559 -186h74v-93h-74v93zM652 -279h74v-93h-74v93zM559 -372h74v-93h-74v93zM465 1583h75v-94h-75v94zM372 1489h75v-93h-75v93zM465 1396h75v-93h-75v93zM372 1303h75v-93h-75v93zM465 1210h75v-93h-75v93zM372 1117h75v-93h-75v93zM465 1024h75v-93h-75v93z
M372 931h75v-93h-75v93zM465 838h75v-93h-75v93zM372 745h75v-93h-75v93zM465 652h75v-93h-75v93zM372 559h75v-94h-75v94zM465 465h75v-93h-75v93zM372 372h75v-93h-75v93zM465 279h75v-93h-75v93zM372 186h75v-93h-75v93zM465 93h75v-93h-75v93zM372 0h75v-93h-75v93z
M465 -93h75v-93h-75v93zM372 -186h75v-93h-75v93zM465 -279h75v-93h-75v93zM372 -372h75v-93h-75v93zM279 1583h75v-94h-75v94zM186 1489h75v-93h-75v93zM279 1396h75v-93h-75v93zM186 1303h75v-93h-75v93zM279 1210h75v-93h-75v93zM186 1117h75v-93h-75v93zM279 1024h75
v-93h-75v93zM186 931h75v-93h-75v93zM279 838h75v-93h-75v93zM186 745h75v-93h-75v93zM279 652h75v-93h-75v93zM186 559h75v-94h-75v94zM279 465h75v-93h-75v93zM186 372h75v-93h-75v93zM279 279h75v-93h-75v93zM186 186h75v-93h-75v93zM279 93h75v-93h-75v93zM186 0h75v-93
h-75v93zM279 -93h75v-93h-75v93zM186 -186h75v-93h-75v93zM279 -279h75v-93h-75v93zM186 -372h75v-93h-75v93zM93 1583h75v-94h-75v94zM0 1489h74v-93h-74v93zM93 1396h75v-93h-75v93zM0 1303h74v-93h-74v93zM93 1210h75v-93h-75v93zM0 1117h74v-93h-74v93zM93 1024h75v-93
h-75v93zM0 931h74v-93h-74v93zM93 838h75v-93h-75v93zM0 745h74v-93h-74v93zM93 652h75v-93h-75v93zM0 559h74v-94h-74v94zM93 465h75v-93h-75v93zM0 372h74v-93h-74v93zM93 279h75v-93h-75v93zM0 186h74v-93h-74v93zM93 93h75v-93h-75v93zM0 0h74v-93h-74v93zM93 -93h75
v-93h-75v93zM0 -186h74v-93h-74v93zM93 -279h75v-93h-75v93zM0 -372h74v-93h-74v93z" />
    </font>
</defs>
</svg>
