<?xml version="1.0" standalone="no"?>
<!DOCTYPE svg PUBLIC "-//W3C//DTD SVG 1.1//EN" "http://www.w3.org/Graphics/SVG/1.1/DTD/svg11.dtd" >
<svg xmlns="http://www.w3.org/2000/svg">
<metadata>
Created by FontPrep 20130207 at Mon Aug 15 19:30:30 2016
 By Damien Criado
(c) Copyright The Font Bureau, Inc. 2014. All rights reserved.
</metadata>
<defs>
<font id="7ecafc771735f70f46ff3af44d6b22d4" horiz-adv-x='1024' >
  <font-face 
    font-family="InputMonoNarrow-Thin"
    font-weight="250"
    font-stretch="semi-condensed"
    units-per-em="2048"
    panose-1="2 0 4 9 2 0 0 9 0 4"
    ascent="1583"
    descent="-465"
    x-height="1117"
    cap-height="1489"
    bbox="-361 -838 1517 2607"
    underline-thickness="0"
    underline-position="0"
    unicode-range="U+000D-1F41B"
  />
<missing-glyph 
d="M186 -372h860v1861h-860v-1861zM93 -465v2048h1046v-2048h-1046z" />
    <glyph glyph-name=".notdef" 
d="M186 -372h860v1861h-860v-1861zM93 -465v2048h1046v-2048h-1046z" />
    <glyph glyph-name=".null" horiz-adv-x="0" 
 />
    <glyph glyph-name="nonmarkingreturn" unicode="&#xd;" horiz-adv-x="0" 
 />
    <glyph glyph-name="NULL" horiz-adv-x="0" 
 />
    <glyph glyph-name="space" unicode="&#xa0;" 
 />
    <glyph glyph-name="space" unicode=" " 
 />
    <glyph glyph-name="exclam" unicode="!" 
d="M492 132q0 103 125.5 103t125.5 -103v-52q0 -50 -34.5 -74.5t-90.5 -24.5q-126 0 -126 99v52zM581 559l-21 930h112l-19 -930h-72z" />
    <glyph glyph-name="quotedbl" unicode="&#x22;" 
d="M322 840l-35 649h145l-35 -649h-75zM836 840l-35 649h145l-36 -649h-74z" />
    <glyph glyph-name="numbersign" unicode="#" 
d="M143 421v80h226l20 497h-246v80h250l18 411h82l-18 -411h313l18 411h80l-18 -411h221v-80h-225l-21 -497h246v-80h-251l-19 -421h-82l19 421h-311l-19 -421h-82l19 421h-220zM761 501l23 497h-313l-22 -497h312z" />
    <glyph glyph-name="dollar" unicode="$" 
d="M653 -93h-72v179q-202 15 -354 145l41 74q144 -125 313 -139v555q-188 69 -270 156t-82 222t93 220t259 87v177h72v-181q161 -17 310 -123l-43 -74q-147 99 -268 117v-540q192 -73 275.5 -160.5t83.5 -223.5t-95 -221.5t-263 -92.5v-177zM929 392q0 104 -66 174.5
t-211 127.5v-530q136 4 206.5 64t70.5 164zM311 1104q0 -102 64 -170t206 -126v518q-130 -2 -200 -61t-70 -161z" />
    <glyph glyph-name="percent" unicode="%" 
d="M737 238q0 -204 145.5 -204t145.5 204v131q0 106 -38.5 157t-107 51t-107 -51t-38.5 -157v-131zM882 -41q-102 0 -165.5 69t-63.5 214v123q0 145 64.5 216t166.5 71t164 -71t62 -216v-123q0 -145 -63 -214t-165 -69zM114 292l955 985l59 -67l-959 -985zM495 1244
q0 208 -144 208q-68 0 -107 -51t-39 -157v-131q0 -204 145 -204t145 204v131zM352 834q-102 0 -165.5 69t-63.5 214v123q0 145 63.5 216t165.5 71t164.5 -71t62.5 -216v-123q0 -145 -62.5 -214t-164.5 -69z" />
    <glyph glyph-name="ampersand" unicode="&#x26;" 
d="M387 743q-190 -131 -190 -385q0 -128 60.5 -211.5t166.5 -83.5q74 0 161 53t150 150q-133 127 -249 315q-54 85 -99 162zM748 1208q0 95 -51 156.5t-141 61.5t-144.5 -71t-54.5 -206t69 -315q322 164 322 374zM394 -19q-126 0 -206 104.5t-80 288.5q0 128 66 240t183 187
q-87 193 -87 353t81 258t209 98t198.5 -85t70.5 -217t-96 -232.5t-279 -197.5q149 -275 330 -450q96 159 186 393l71 -38q-112 -251 -211 -402l339 -214l-18 -78q-93 58 -186.5 113.5t-175.5 124.5q-69 -112 -169 -179t-226 -67z" />
    <glyph glyph-name="quotesingle" unicode="'" 
d="M579 840l-35 649h145l-36 -649h-74z" />
    <glyph glyph-name="parenleft" unicode="(" 
d="M400 558.5q0 379.5 139 633t379 316.5l11 -76q-212 -63 -325.5 -287.5t-113.5 -586t113.5 -585.5t327.5 -288l-13 -76q-240 63 -379 316.5t-139 633z" />
    <glyph glyph-name="parenright" unicode=")" 
d="M743 558.5q0 361.5 -112.5 585.5t-327.5 288l12 76q240 -63 378.5 -316.5t138.5 -633t-138.5 -633t-378.5 -316.5l-13 76q216 63 328.5 287.5t112.5 586z" />
    <glyph glyph-name="asterisk" unicode="*" 
d="M992 665l-352 279l25 -456h-99l22 454l-350 -277l-50 83l382 242l-382 243l50 83l350 -279l-22 452h99l-25 -454l352 281l51 -83l-382 -243l382 -242z" />
    <glyph glyph-name="plus" unicode="+" 
d="M572 74v533h-434v89h434v533h89v-533h434v-89h-434v-533h-89z" />
    <glyph glyph-name="comma" unicode="," 
d="M393 -372l201 649h181l-304 -649h-78z" />
    <glyph glyph-name="hyphen" unicode="&#x2011;" 
d="M138 607v89h957v-89h-957z" />
    <glyph glyph-name="hyphen" unicode="&#x2010;" 
d="M138 607v89h957v-89h-957z" />
    <glyph glyph-name="hyphen" unicode="&#xad;" 
d="M138 607v89h957v-89h-957z" />
    <glyph glyph-name="hyphen" unicode="-" 
d="M138 607v89h957v-89h-957z" />
    <glyph glyph-name="period" unicode="." 
d="M648 235q80 0 80 -103v-52q0 -50 -31 -74.5t-80 -24.5t-80 24.5t-31 74.5v52q0 52 31 77.5t111 25.5z" />
    <glyph glyph-name="slash" unicode="/" 
d="M229 -372l683 1861h92l-684 -1861h-91z" />
    <glyph glyph-name="zero.salt_slash" unicode="&#xe05c;" 
d="M946 652v178q0 346 -97 486l-428 -1184q73 -69 195 -69q173 0 251.5 140t78.5 449zM285 830v-178q0 -299 76 -447l425 1171q-71 50 -170 50q-173 0 -252 -142.5t-79 -453.5zM1037 633q0 -652 -421 -652t-421 652v216q0 659 421 659t421 -659v-216z" />
    <glyph glyph-name="zero.salt_slash" unicode="0" 
d="M946 652v178q0 346 -97 486l-428 -1184q73 -69 195 -69q173 0 251.5 140t78.5 449zM285 830v-178q0 -299 76 -447l425 1171q-71 50 -170 50q-173 0 -252 -142.5t-79 -453.5zM1037 633q0 -652 -421 -652t-421 652v216q0 659 421 659t421 -659v-216z" />
    <glyph glyph-name="one" unicode="1" 
d="M281 0v82h376v1195h-15q-39 -112 -142 -185.5t-236 -73.5l-16 97q166 0 279 103.5t136 270.5h84v-1407h342v-82h-808z" />
    <glyph glyph-name="two" unicode="2" 
d="M614 1508q406 0 406 -378v-134q0 -247 -268 -313l-274 -69q-101 -24 -147 -94.5t-46 -199.5v-238h752v-82h-842v317q0 160 61 252t189 122l294 74q104 24 147 85.5t43 173.5v88q0 168 -73.5 241t-237.5 73t-232.5 -77t-83.5 -269l-90 9q11 210 110 314.5t292 104.5z" />
    <glyph glyph-name="three" unicode="3" 
d="M610 -19q-222 0 -320 88.5t-111 286.5l89 11q19 -173 89.5 -240t250.5 -67t259 76t79 262v62q0 162 -74.5 229t-255.5 67h-139v80h139q162 0 229 53t67 178v71q0 162 -69.5 227t-233.5 65t-229 -60.5t-78 -218.5l-90 11q11 182 102.5 264t293.5 82t299 -88.5t97 -281.5
v-71q0 -117 -61.5 -186t-167.5 -79v-16q125 -11 193.5 -95t68.5 -231v-62q0 -220 -102.5 -318.5t-324.5 -98.5z" />
    <glyph glyph-name="four" unicode="4" 
d="M1123 439h-205v-439h-91v439h-648v80l607 970h132v-970h205v-80zM827 519v872l-548 -872h548z" />
    <glyph glyph-name="five" unicode="5" 
d="M606 -19q-206 0 -307.5 94t-119.5 294l89 9q20 -173 94 -244t244 -71t255 82t85 252v100q0 151 -66 223.5t-204 72.5h-447v696h739v-81h-648v-535h356q177 0 269 -92t92 -267v-136q0 -194 -112.5 -295.5t-318.5 -101.5z" />
    <glyph glyph-name="six" unicode="6" 
d="M614.5 63q167.5 0 248.5 91.5t81 283.5v35q0 168 -81 248t-248.5 80t-248.5 -80.5t-81 -247.5v-35q0 -192 81 -283.5t248.5 -91.5zM637 881q203 0 301.5 -107t98.5 -281v-52q0 -220 -110 -340t-314 -120t-311 123t-107 404v464q0 536 425 536q181 0 272 -71.5t121 -235.5
l-90 -19q-28 145 -93 194.5t-229 49.5t-240 -105t-76 -349v-251h18q89 160 334 160z" />
    <glyph glyph-name="seven" unicode="7" 
d="M195 1409v80h842v-80q-236 -430 -312.5 -743.5t-130.5 -665.5h-108q89 449 164.5 749.5t299.5 659.5h-755z" />
    <glyph glyph-name="eight" unicode="8" 
d="M616 60q182 0 256 76t74 262v43q0 162 -74 229t-256 67t-256.5 -67t-74.5 -229v-43q0 -186 74.5 -262t256.5 -76zM615 817q163 0 230 59t67 200v62q0 162 -67 227t-230 65t-229 -65t-66 -227v-62q0 -141 66 -200t229 -59zM616 -19q-214 0 -317.5 99t-103.5 300v52
q0 162 65.5 247.5t178.5 96.5v17q-95 9 -152.5 82t-57.5 210v71q0 179 96 265.5t291.5 86.5t291.5 -86.5t96 -265.5v-71q0 -138 -58 -210.5t-153 -81.5v-17q112 -11 178 -96.5t66 -247.5v-52q0 -201 -103.5 -300t-317.5 -99z" />
    <glyph glyph-name="nine" unicode="9" 
d="M596 609q-192 0 -296.5 101.5t-104.5 285.5v52q0 220 109.5 340t315.5 120t311.5 -123t105.5 -404v-463q0 -264 -107 -400.5t-303 -136.5t-287.5 72t-121.5 236l91 22q28 -141 92 -194.5t228 -53.5t240.5 105.5t76.5 349.5v249h-17q-102 -158 -333 -158zM618.5 689
q167.5 0 247.5 80t80 248v35q0 192 -80 283t-247.5 91t-248.5 -91t-81 -283v-35q0 -168 81 -248t248.5 -80z" />
    <glyph glyph-name="colon" unicode=":" 
d="M506 130q0 105 111 105t111 -105v-50q0 -50 -31 -74.5t-80 -24.5t-80 24.5t-31 74.5v50zM728 976q0 -99 -111 -99t-111 99v50q0 102 111 102t111 -102v-50z" />
    <glyph glyph-name="semicolon" unicode=";" 
d="M393 -372l201 649h181l-304 -649h-78zM728 976q0 -99 -111 -99t-111 99v50q0 102 111 102t111 -102v-50z" />
    <glyph glyph-name="less" unicode="&#x3c;" 
d="M1043 47l-838 560v89l838 561v-82l-775 -523l775 -524v-81z" />
    <glyph glyph-name="equal" unicode="=" 
d="M138 331v90h957v-90h-957zM138 883v89h957v-89h-957z" />
    <glyph glyph-name="greater" unicode="&#x3e;" 
d="M205 47v81l776 524l-776 523v82l838 -561v-89z" />
    <glyph glyph-name="question" unicode="?" 
d="M532.5 235q111.5 0 111.5 -103v-52q0 -50 -32 -74.5t-81 -24.5t-79.5 24.5t-30.5 74.5v52q0 103 111.5 103zM614 1508q457 0 457 -402v-86q0 -186 -133.5 -283.5t-459.5 -153.5l-16 72q279 48 399 134t120 239v56q0 186 -83.5 264t-288.5 78t-281.5 -70.5t-92.5 -275.5
l-92 9q11 235 114.5 327t356.5 92z" />
    <glyph glyph-name="at" unicode="@" 
d="M601 527q-1 -246 169 -246t170 235v234q0 254 -170 254t-169 -256v-221zM717 -205q-249 0 -381.5 143.5t-132.5 426.5v603q0 263 110 401.5t307 138.5t298.5 -137t101.5 -395v-475q-14 -296 -259 -296q-121 0 -180.5 81t-59.5 226v251q0 145 67 231t168 86q67 0 109 -30
t60 -74h15q4 467 -313 467q-182 0 -266 -114.5t-84 -360.5v-603q0 -251 107.5 -375t332.5 -124q130 0 285 50v-71q-152 -50 -285 -50z" />
    <glyph glyph-name="A" unicode="A" 
d="M1007 0l-138 467h-512l-137 -467h-93l456 1489h67l458 -1489h-101zM847 547l-233 790l-232 -790h465z" />
    <glyph glyph-name="B" unicode="B" 
d="M320 82h345q155 0 221.5 69t66.5 231v59q0 158 -67 228t-221 70h-345v-657zM320 819h309q145 0 209.5 61.5t64.5 201.5v52q0 147 -64 210.5t-210 63.5h-309v-589zM229 0v1489h400q175 0 267.5 -90t92.5 -260v-83q0 -101 -50.5 -171.5t-136.5 -87.5v-17q108 -11 175 -97.5
t67 -218.5v-84q0 -184 -98.5 -282t-284.5 -98h-432z" />
    <glyph glyph-name="C" unicode="C" 
d="M631 -19q-212 0 -324 130.5t-112 385.5v488q0 257 112.5 390t320.5 133t317 -110.5t122 -345.5l-91 -9q-19 214 -94.5 298.5t-253.5 84.5t-260.5 -106t-82.5 -348v-462q0 -238 82.5 -342.5t264.5 -104.5t262 88.5t82 287.5l91 -9q-2 -218 -113 -333.5t-323 -115.5z" />
    <glyph glyph-name="D" unicode="D" 
d="M320 82h246q192 0 286 124t94 323v424q0 197 -94 326t-286 129h-246v-1326zM229 0v1489h337q222 0 346.5 -146t124.5 -390v-424q0 -240 -125.5 -384.5t-345.5 -144.5h-337z" />
    <glyph glyph-name="E" unicode="E" 
d="M229 0v1489h808v-81h-717v-553h631v-80h-631v-693h717v-82h-808z" />
    <glyph glyph-name="F" unicode="F" 
d="M229 0v1489h808v-81h-717v-712h598v-80h-598v-616h-91z" />
    <glyph glyph-name="G" unicode="G" 
d="M647.5 -19q-221.5 0 -337 133.5t-115.5 395.5v462q0 266 111.5 401t321.5 135t304 -97.5t105 -325.5l-91 -11q-15 209 -80 280.5t-240 71.5t-258 -108t-83 -346v-462q0 -235 87.5 -341t272.5 -106t260.5 125t75.5 428h-365v80h455v-78q0 -333 -101 -485t-322.5 -152z" />
    <glyph glyph-name="H" unicode="H" 
d="M229 0v1489h91v-634h592v634h92v-1489h-92v775h-592v-775h-91z" />
    <glyph glyph-name="I" unicode="I" 
d="M229 0v82h343v1326h-343v81h775v-81h-343v-1326h343v-82h-775z" />
    <glyph glyph-name="J" unicode="J" 
d="M1004 484q0 -503 -423 -503q-207 0 -308.5 110t-110.5 345l89 11q13 -212 85 -298t245 -86t252 99t79 320v926h-381v81h473v-1005z" />
    <glyph glyph-name="K" unicode="K" 
d="M320 747v-747h-91v1489h91v-662h138l531 662h115l-560 -690l554 -799h-113l-514 747h-151z" />
    <glyph glyph-name="L" unicode="L" 
d="M315 0v1489h89v-1407h600v-82h-689z" />
    <glyph glyph-name="M" unicode="M" 
d="M259 0h-90v1489h123l326 -1016l326 1016h119v-1489h-89v1331l-311 -959h-93l-311 967v-1339z" />
    <glyph glyph-name="N" unicode="N" 
d="M315 0h-86v1489h97l590 -1327v1327h88v-1489h-108l-581 1303v-1303z" />
    <glyph glyph-name="O" unicode="O" 
d="M615 63q176 0 253.5 107t77.5 340v462q0 238 -77.5 346t-253.5 108t-253 -108t-77 -346v-462q0 -233 77 -340t253 -107zM1037 510q0 -529 -421 -529t-421 529v462q0 536 421 536t421 -536v-462z" />
    <glyph glyph-name="P" unicode="P" 
d="M320 603h348q156 0 226 73.5t70 241.5v171q0 169 -69.5 244t-226.5 75h-348v-805zM229 0v1489h441q188 0 286 -100.5t98 -291.5v-183q0 -192 -99 -292.5t-287 -100.5h-348v-521h-91z" />
    <glyph glyph-name="Q" unicode="Q" 
d="M615 63q176 0 253.5 107t77.5 340v462q0 238 -77.5 347t-253.5 109t-253 -109t-77 -347v-462q0 -233 77 -340t253 -107zM1037 510q0 -486 -348 -525q4 -197 99.5 -249.5t276.5 -11.5l15 -80q-227 -52 -352 32t-128 305q-405 12 -405 529v462q0 536 423 536
q207 0 313 -135t106 -401v-462z" />
    <glyph glyph-name="R" unicode="R" 
d="M1087 977q0 -363 -327 -391l352 -586h-101l-348 585h-343v-585h-91v1489h475q383 0 383 -392v-120zM320 667h382q158 0 227 73.5t69 240.5v108q0 169 -69 244t-227 75h-382v-741z" />
    <glyph glyph-name="S" unicode="S" 
d="M654 -11q-168 0 -279 55t-198 155l58 62q88 -95 182.5 -142.5t230.5 -47.5t228 83.5t92 222.5t-76 214.5t-278 136.5t-298 151.5t-96 251.5t109 263.5t282 102.5q132 0 229.5 -53t177.5 -143l-55 -63q-80 86 -161 131.5t-206 45.5t-207 -75.5t-82 -203.5t78.5 -197.5
t278.5 -133.5t295 -158t95 -267t-116 -282t-284 -109z" />
    <glyph glyph-name="T" unicode="T" 
d="M572 0v1408h-429v81h946v-81h-428v-1408h-89z" />
    <glyph glyph-name="U" unicode="U" 
d="M616.5 -19q-197.5 0 -292.5 130.5t-95 391.5v986h91v-986q0 -231 69 -335.5t227.5 -104.5t227 104.5t68.5 335.5v986h92v-986q0 -261 -95 -391.5t-292.5 -130.5z" />
    <glyph glyph-name="V" unicode="V" 
d="M650 0h-67l-456 1489h102l391 -1327l391 1327h97z" />
    <glyph glyph-name="W" unicode="W" 
d="M851 0l-233 1011l-236 -1011h-90l-177 1489h84l153 -1323l221 970h95l218 -954l144 1307h87l-177 -1489h-89z" />
    <glyph glyph-name="X" unicode="X" 
d="M1030 0l-412 687l-421 -687h-98l473 769l-431 720h101l393 -655l402 655h97l-454 -733l450 -756h-100z" />
    <glyph glyph-name="Y" unicode="Y" 
d="M661 0h-89v559l-490 930h102l436 -837l428 837h101l-488 -930v-559z" />
    <glyph glyph-name="Z" unicode="Z" 
d="M1054 0h-859v82l755 1326h-755v81h859v-81l-756 -1326h756v-82z" />
    <glyph glyph-name="bracketleft" unicode="[" 
d="M400 -372v1861h518v-81h-428v-1698h428v-82h-518z" />
    <glyph glyph-name="backslash" unicode="\" 
d="M912 -372l-683 1861h91l684 -1861h-92z" />
    <glyph glyph-name="bracketright" unicode="]" 
d="M315 -372v82h428v1698h-428v81h517v-1861h-517z" />
    <glyph glyph-name="asciicircum" unicode="^" 
d="M1007 372l-391 1043l-391 -1043h-82l429 1117h89l428 -1117h-82z" />
    <glyph glyph-name="underscore" unicode="_" 
d="M138 -324v89h957v-89h-957z" />
    <glyph glyph-name="grave" unicode="`" 
d="M709 840l-305 649h181l204 -649h-80z" />
    <glyph glyph-name="a" unicode="a" 
d="M849 173q-113 -192 -365 -192q-134 0 -222.5 85.5t-88.5 227.5t76.5 219t217.5 77h363v218q0 106 -67 176t-196 70t-188 -45.5t-94 -168.5l-82 24q41 145 124 208.5t243 63.5t256 -86.5t96 -239.5v-518q0 -145 43.5 -188.5t160.5 -21.5v-86q-238 -39 -260 177h-17z
M255 311q0 -253 255 -253q195 0 320 177v279h-361q-97 0 -155.5 -45t-58.5 -158z" />
    <glyph glyph-name="b" unicode="b" 
d="M595 60q317 0 317 338v330q0 326 -244 326q-101 0 -183.5 -45.5t-164.5 -152.5v-722q116 -74 275 -74zM589 -19q-195 0 -360 112v1396h91v-532h17q47 76 138 127.5t222 51.5t219 -106.5t88 -299.5v-335q0 -188 -110 -301t-305 -113z" />
    <glyph glyph-name="c" unicode="c" 
d="M320 391q0 -330 316 -330q159 0 224 49.5t75 176.5l87 -8q-9 -155 -102.5 -226.5t-287.5 -71.5t-298.5 105.5t-104.5 304.5v328q0 203 105 310t299 107t285 -82t104 -253l-87 -8q-13 145 -79.5 203t-223.5 58t-234.5 -81t-77.5 -254v-328z" />
    <glyph glyph-name="d" unicode="d" 
d="M631 1136q134 0 281 -65v418h92v-1489h-92v162h-16q-47 -80 -137.5 -130.5t-201.5 -50.5q-158 0 -243 106.5t-85 305.5v329q0 190 108 302t294 112zM320 393q0 -330 236 -330q114 0 195 46t161 146v724q-132 79 -283 79t-230 -86t-79 -253v-326z" />
    <glyph glyph-name="e" unicode="e" 
d="M541.5 1054q-221.5 0 -221.5 -335v-92h592v75q0 184 -74.5 268t-296 84zM608 -19q-172 0 -275.5 104.5t-103.5 307.5v326q0 209 108 313t282 104t279.5 -106.5t105.5 -323.5v-157h-684v-158q0 -173 74 -250.5t216 -77.5t201.5 43t95.5 143l87 -27q-41 -127 -127.5 -184
t-258.5 -57z" />
    <glyph glyph-name="f" unicode="f" 
d="M808 1424q-110 0 -171.5 -54t-61.5 -177v-76h443v-82h-443v-1035h-89v1035h-307v82h307v75q0 151 90.5 231.5t217.5 80.5t224 -39l-16 -76q-84 35 -194 35z" />
    <glyph glyph-name="g" unicode="g" 
d="M1000 -101q0 177 -181 177h-584v-126q0 -127 57.5 -193t167.5 -66h329q108 0 159.5 51t51.5 157zM330 747q0 -194 253 -194t253 194v67q0 117 -65 169t-188 52t-188 -52t-65 -169v-67zM300 143q-121 19 -121 183q0 84 48.5 144.5t135.5 67.5v6q-125 40 -125 204v77
q0 128 89.5 210t255.5 82h463v-82l-249 21v-12q65 -19 97.5 -85.5t32.5 -131.5v-75q0 -123 -83.5 -198.5t-268.5 -75.5h-206q-54 0 -82 -36t-28 -122q0 -154 149 -154h394q134 0 210.5 -66t76.5 -203t-89.5 -212.5t-226.5 -75.5h-309q-141 0 -230 78t-89 235q0 93 40 149
t115 63v9z" />
    <glyph glyph-name="h" unicode="h" 
d="M229 0v1489h91v-545h17q61 91 140.5 141.5t214.5 50.5t223.5 -96t88.5 -252v-788h-92v767q0 134 -63 210.5t-171 76.5t-190 -45t-168 -156v-853h-91z" />
    <glyph glyph-name="i.salt_serifs" unicode="&#xe023;" 
d="M661 82h376v-82h-465v1035h-377v82h466v-1035zM706 1426q0 -67 -90 -67q-41 0 -65 14t-24 53v13q0 41 24 56t65 15t65 -15t25 -56v-13z" />
    <glyph glyph-name="i.salt_serifs" unicode="i" 
d="M661 82h376v-82h-465v1035h-377v82h466v-1035zM706 1426q0 -67 -90 -67q-41 0 -65 14t-24 53v13q0 41 24 56t65 15t65 -15t25 -56v-13z" />
    <glyph glyph-name="j" unicode="j" 
d="M487 -303q122 0 189 80t67 243v1015h-479v82h568v-1108q0 -188 -95 -292t-264 -104q-119 0 -244 41l20 83q116 -40 238 -40zM869 1428q0 -67 -89 -67q-41 0 -65 14t-24 53v13q0 41 24 56t65 15t65 -15t24 -56v-13z" />
    <glyph glyph-name="k" unicode="k" 
d="M404 547v-547h-89v1489h89v-862h169l350 490h105l-380 -521l376 -596h-102l-347 547h-171z" />
    <glyph glyph-name="l.salt_serifs_round" unicode="&#xe056;" 
d="M572 346v1062h-377v81h466v-1143q0 -272 171 -272q89 0 177 43l22 -80q-94 -46 -209 -46t-182.5 94t-67.5 261z" />
    <glyph glyph-name="l.salt_serifs_round" unicode="l" 
d="M572 346v1062h-377v81h466v-1143q0 -272 171 -272q89 0 177 43l22 -80q-94 -46 -209 -46t-182.5 94t-67.5 261z" />
    <glyph glyph-name="m" unicode="m" 
d="M998 814q0 238 -130 238q-62 0 -108.5 -36.5t-98.5 -110.5v-905h-89v814q0 123 -33.5 180.5t-106.5 57.5q-96 0 -197 -147v-905h-90v1117h90v-140h18q65 159 196 159q73 0 123 -42t72 -117h19q65 159 216 159q97 0 152.5 -80t55.5 -222v-834h-89v814z" />
    <glyph glyph-name="n" unicode="n" 
d="M668 1052q-198 0 -348 -190v-862h-91v1117h91v-173h17q48 89 141.5 140.5t199.5 51.5q149 0 237.5 -94t88.5 -256v-786h-92v767q0 140 -63 212.5t-181 72.5z" />
    <glyph glyph-name="o" unicode="o" 
d="M616 63q151 0 223.5 80t72.5 248v328q0 171 -72.5 253t-223.5 82t-223.5 -82t-72.5 -253v-328q0 -168 72.5 -248t223.5 -80zM616 -19q-186 0 -286.5 106.5t-100.5 303.5v328q0 201 101.5 309t286.5 108t286 -108t101 -309v-328q0 -197 -101 -303.5t-287 -106.5z" />
    <glyph glyph-name="p" unicode="p" 
d="M603 -19q-145 0 -283 66v-419h-91v1489h91v-173h17q47 95 137 143.5t198 48.5q155 0 243.5 -109t88.5 -303v-329q0 -194 -106.5 -304t-294.5 -110zM912 398v328q0 168 -62 248t-174 80t-194 -45.5t-162 -146.5v-721q128 -81 284 -81q155 0 231.5 82.5t76.5 255.5z" />
    <glyph glyph-name="q" unicode="q" 
d="M320 406q0 -343 236 -343q114 0 196 46t160 146v734q-114 69 -277 69q-162 0 -238.5 -84t-76.5 -255v-313zM643 1136q200 0 361 -99v-1409h-92v545h-16q-58 -91 -147.5 -141.5t-199.5 -50.5q-151 0 -235.5 108t-84.5 298v335q0 194 107 304t307 110z" />
    <glyph glyph-name="r" unicode="r" 
d="M719 1054q-182 0 -315 -201v-853h-89v1117h89v-173h19q113 192 309 192q134 0 211 -79.5t77 -224.5v-132h-91v129q0 102 -50 163.5t-160 61.5z" />
    <glyph glyph-name="s" unicode="s" 
d="M568 1054q-115 0 -182.5 -56t-67.5 -159t65 -153t259 -88t280.5 -110t86.5 -204t-103 -217.5t-269 -85.5q-254 0 -443 151l46 73q177 -142 397 -142q132 0 208.5 58.5t76.5 158.5t-67 148.5t-259 88.5t-279.5 112.5t-87.5 204.5t94 217t245 85q209 0 393 -142l-43 -71
q-167 131 -350 131z" />
    <glyph glyph-name="t" unicode="t" 
d="M801 -17q-156 0 -245 97t-89 268v687h-288v82h288v372h92v-372h445v-82h-445v-670q0 -151 62 -224.5t176 -73.5t208 47l19 -80q-115 -51 -223 -51z" />
    <glyph glyph-name="u" unicode="u" 
d="M229 344v773h91v-743q0 -153 62.5 -232t181.5 -79q194 0 348 192v862h92v-1117h-92v173h-16q-123 -192 -341 -192q-147 0 -236.5 99t-89.5 264z" />
    <glyph glyph-name="v" unicode="v" 
d="M667 0h-103l-380 1117h95l339 -1024l337 1024h91z" />
    <glyph glyph-name="w" unicode="w" 
d="M815 0l-199 795l-192 -795h-98l-225 1117h93l184 -983l182 797h107l191 -775l181 961h93l-225 -1117h-92z" />
    <glyph glyph-name="x" unicode="x" 
d="M920 0l-306 499l-309 -499h-91l358 568l-337 549h93l298 -486l301 486h91l-348 -558l343 -559h-93z" />
    <glyph glyph-name="y" unicode="y" 
d="M346 -303q73 0 124 47t98 182l24 74h-22l-384 1117h93l347 -1020l331 1020h89l-402 -1214q-52 -156 -128 -221.5t-199 -65.5q-49 0 -125 13l13 82q68 -14 141 -14z" />
    <glyph glyph-name="z" unicode="z" 
d="M968 0h-704v82l604 953h-604v82h704v-82l-607 -953h607v-82z" />
    <glyph glyph-name="braceleft" unicode="{" 
d="M627 346q0 -52 -25.5 -99.5t-87.5 -113.5t-85 -112.5t-23 -100.5q0 -132 117 -185t395 -48v-78q-318 -6 -460.5 70.5t-142.5 238.5q0 69 26.5 127.5t88.5 130.5t85 110t23 73q0 97 -86.5 138t-308.5 47v74q220 6 307.5 45t87.5 132q0 35 -23 70t-85 95t-88.5 115
t-26.5 128q0 162 147 236.5t456 68.5v-82q-277 6 -394.5 -45.5t-117.5 -179.5q0 -50 24 -94t86 -105t86.5 -105t24.5 -96q0 -199 -288 -211v-9q288 -31 288 -235z" />
    <glyph glyph-name="bar" unicode="|" 
d="M579 -372v1861h74v-1861h-74z" />
    <glyph glyph-name="braceright" unicode="}" 
d="M918 -82q0 -162 -142.5 -238.5t-460.5 -70.5v78q277 -6 394.5 47.5t117.5 185.5q0 54 -23.5 100.5t-85.5 112.5t-87.5 113.5t-25.5 99.5q0 101 74.5 160.5t214.5 74.5v9q-140 6 -214.5 56t-74.5 155q0 52 24.5 95.5t86.5 105.5t86.5 105.5t24.5 93.5q0 128 -117.5 179.5
t-394.5 45.5v82q309 6 456 -68.5t147 -236.5q0 -73 -27 -128t-87 -115t-84 -95t-24 -66q0 -95 86.5 -135t306.5 -46v-74q-222 -6 -307.5 -47t-85.5 -138q0 -35 24 -73t84 -110t87 -130.5t27 -127.5z" />
    <glyph glyph-name="asciitilde" unicode="~" 
d="M896.5 475q97.5 0 97.5 307v298h86v-311q0 -179 -60 -278.5t-154 -99.5t-154 75.5t-127 245.5t-109 234.5t-105 64.5q-133 0 -133 -302v-299h-85v311q0 179 61.5 278t157.5 99t156 -78t125 -248t105.5 -233.5t138 -63.5z" />
    <glyph glyph-name="exclamdown" unicode="&#xa1;" 
d="M655 931l19 -931h-112l21 931h72zM505 1404q0 102 112.5 102t112.5 -102v-52q0 -99 -112 -99t-113 99v52z" />
    <glyph glyph-name="cent" unicode="&#xa2;" 
d="M598 -93v262q-177 9 -273 112t-96 309v302q0 205 97 312t272 116v263h72v-261q173 -7 256 -88.5t96 -246.5l-87 -8q-13 147 -75.5 202t-191.5 59v-992q128 2 191.5 48.5t75.5 176.5l87 -8q-9 -151 -94 -221.5t-258 -75.5v-261h-72zM320 590q0 -171 71 -252t207 -89v989
q-134 -7 -206 -87t-72 -259v-302z" />
    <glyph glyph-name="sterling" unicode="&#xa3;" 
d="M493 495q0 -216 -145 -329l6 -10q52 34 101.5 26.5t112.5 -35.5t116 -57t107 -29q95 0 135 66.5t55 239.5l90 -11q-9 -186 -80 -280.5t-198 -94.5q-50 0 -106.5 24.5t-144.5 66.5t-131.5 46.5t-84.5 -23.5l-157 -112l-52 65l134 80q63 39 107 146.5t44 196.5t-21.5 157
t-50.5 137h-203v80h163q-63 153 -63 267q0 182 101.5 289t290.5 107t281 -86.5t104 -276.5l-94 -11q-13 166 -77.5 229t-220.5 63t-225.5 -76.5t-69.5 -241.5q0 -65 22 -130.5t50 -132.5h372v-80h-333q65 -162 65 -270z" />
    <glyph glyph-name="currency" unicode="&#xa4;" 
d="M266 590v302q0 104 28 192l-182 193l59 60l164 -172q97 157 274 157t270 -157l156 164l60 -59l-177 -186q22 -82 22 -192v-302q0 -104 -24 -180l179 -190l-60 -60l-158 166q-96 -158 -280 -158t-269 149l-157 -164l-59 59l177 186q-23 86 -23 192zM851 892
q0 348 -247 348t-247 -348v-302q0 -182 61.5 -261.5t184.5 -79.5t185.5 79.5t62.5 261.5v302z" />
    <glyph glyph-name="yen" unicode="&#xa5;" 
d="M1004 225h-341v-225h-91v225h-343v80h343v293h-343v80h298l-443 811h102l432 -793l432 793h99l-443 -811h298v-80h-341v-293h341v-80z" />
    <glyph glyph-name="brokenbar" unicode="&#xa6;" 
d="M579 -372v744h74v-744h-74zM579 745v744h74v-744h-74z" />
    <glyph glyph-name="section" unicode="&#xa7;" 
d="M1011 555q0 -211 -229 -289q108 -50 168.5 -122.5t60.5 -186.5q0 -156 -99.5 -249t-263.5 -93q-108 0 -208.5 39t-175.5 110l49 74q84 -74 163 -107.5t192 -33.5t188 65t75 183t-79 186t-268 113t-272 119.5t-83 196.5q0 203 229 282q-229 106 -229 325
q0 147 102.5 238.5t266.5 91.5q218 0 378 -143l-49 -71q-82 67 -161.5 99.5t-191.5 32.5t-187.5 -64.5t-75.5 -182.5t79 -187t268 -113t271 -118t82 -195zM922 542q0 100 -61.5 153t-218.5 89q-19 6 -36.5 10.5t-35.5 9.5q-123 -11 -186.5 -72.5t-63.5 -161.5t62 -153.5
t218 -88.5q19 -6 36 -10.5t36 -10.5q123 11 186.5 73t63.5 162z" />
    <glyph glyph-name="dieresis" unicode="&#xa8;" 
d="M797 1361q-35 0 -58 13q-22 13 -22 54v13q0 41 22 56q21 15 57 15t58 -15t21 -56v-13q1 -41 -21 -54t-57 -13zM357 1441q0 71 79 71t80 -71v-13q0 -41 -22 -54t-58 -13q-35 0 -57 13q-21 13 -22 54v13z" />
    <glyph glyph-name="copyright" unicode="&#xa9;" 
d="M393 829q0 363 236 363q110 0 158.5 -77.5t57.5 -207.5l-78 -6q-7 117 -37 166.5t-104 49.5t-109 -63.5t-35 -213.5v-302q0 -151 35 -214t109 -63t104 45.5t37 153.5l78 -6q-9 -123 -58 -195.5t-163 -72.5q-232 0 -231 369v274zM616.5 -136q249.5 0 358.5 149t109 492
v361q0 344 -109 496t-358.5 152t-359.5 -151t-110 -497v-361q0 -343 110 -492t359.5 -149zM616.5 -205q-273.5 0 -407 166t-133.5 504v440q0 343 134 510.5t408 167.5t406 -168t132 -510v-440q0 -339 -133 -504.5t-406.5 -165.5z" />
    <glyph glyph-name="ordfeminine" unicode="&#xaa;" 
d="M495 598q-117 0 -186 66t-69 174t65.5 167.5t154.5 59.5h309v132q0 114 -55.5 174.5t-157.5 60.5t-144.5 -33.5t-72.5 -130.5l-73 26q26 112 97 163t201 51t207.5 -76.5t77.5 -215.5v-391q0 -88 33.5 -115t128.5 -14v-89q-106 -9 -153.5 23.5t-49.5 119.5h-13
q-106 -152 -300 -152zM514 674q172 0 255 117v207h-268q-91 0 -135 -34t-44 -118q0 -172 192 -172z" />
    <glyph glyph-name="guillemotleft" unicode="&#xab;" 
d="M588 225l-461 410v33l461 410v-99l-374 -327l374 -328v-99zM1102 225l-463 410v33l463 410v-99l-376 -327l376 -328v-99z" />
    <glyph glyph-name="logicalnot" unicode="&#xac;" 
d="M964 0v607h-826v89h916v-696h-90z" />
    <glyph glyph-name="registered" unicode="&#xae;" 
d="M817 1005q0 -149 -137 -175l154 -229h-86l-148 224h-92v-224h-70v667h193q186 0 186 -199v-64zM747 1069q0 134 -116 134h-123v-313h123q116 0 116 115v64zM616.5 324q210.5 0 302.5 104t92 343v311q0 244 -92 349t-302.5 105t-302.5 -105t-92 -349v-311
q0 -238 92 -342.5t302.5 -104.5zM616.5 257q-232.5 0 -345.5 121t-113 374v348q0 255 113.5 378t346.5 123t343.5 -123t110.5 -378v-348q0 -253 -111.5 -374t-344 -121z" />
    <glyph glyph-name="macron" unicode="&#x2c9;" 
d="M315 1454v80h603v-80h-603z" />
    <glyph glyph-name="macron" unicode="&#xaf;" 
d="M315 1454v80h603v-80h-603z" />
    <glyph glyph-name="degree" unicode="&#xb0;" 
d="M836 1156q0 268 -220 268q-112 0 -165.5 -65t-53.5 -203v-169q0 -143 53.5 -204t162.5 -61t166 60.5t57 204.5v169zM616 648q-134 0 -217.5 83t-83.5 256v169q0 173 83.5 259t219.5 86t218 -86t82 -259v-169q0 -173 -84 -256t-218 -83z" />
    <glyph glyph-name="plusminus" unicode="&#xb1;" 
d="M572 261v532h-434v90h434v532h89v-532h434v-90h-434v-532h-89zM138 45v89h957v-89h-957z" />
    <glyph glyph-name="two.sups" unicode="&#xb2;" 
d="M311 566v194q0 104 43.5 163.5t155.5 83.5l173 36q86 20 116.5 54.5t30.5 108.5v36q0 101 -48 143.5t-165.5 42.5t-161.5 -36.5t-51 -138.5l-84 7q6 127 75.5 184t221.5 57t222.5 -61.5t70.5 -192.5v-63q0 -84 -43.5 -138t-149.5 -78l-173 -37q-86 -19 -118.5 -54
t-32.5 -116v-122h529v-73h-611z" />
    <glyph glyph-name="three.sups" unicode="&#xb3;" 
d="M594 555q-164 0 -234 56.5t-77 168.5l84 8q9 -88 49 -123.5t172 -35.5t184.5 44t52.5 148v30q0 88 -51.5 126t-173.5 38h-103v74h103q110 0 157 31t47 99v38q0 91 -49 130t-158 39t-155.5 -31.5t-52.5 -107.5l-86 7q7 110 76.5 158.5t215.5 48.5t217.5 -56t71.5 -177v-30
q0 -78 -34.5 -122.5t-88.5 -52.5v-15q63 -6 104.5 -62.5t41.5 -142.5v-26q0 -136 -74.5 -199t-238.5 -63z" />
    <glyph glyph-name="acute" unicode="&#xb4;" 
d="M497 1303l248 373h143l-316 -373h-75z" />
    <glyph glyph-name="mu1" unicode="&#xb5;" 
d="M540 -19q-154 0 -237 146v-90l10 -409h-110l9 409v1080h91v-756q1 -141 63 -219t180 -77q171 0 283 144v908h89v-823q0 -147 35 -190t136 -24v-86q-106 -14 -162 26t-65 144h-15q-43 -69 -125 -126t-182 -57z" />
    <glyph glyph-name="paragraph" unicode="&#xb6;" 
d="M912 633h-251v-1005h-89v1005q-205 0 -319.5 97t-114.5 270v97q0 186 114.5 289t317.5 103h434v-1861h-92v1005z" />
    <glyph glyph-name="periodcentered" unicode="&#x2219;" 
d="M648 869q80 0 80 -102v-52q0 -50 -31 -74.5t-80 -24.5t-80 24.5t-31 74.5v52q0 52 31 77t111 25z" />
    <glyph glyph-name="periodcentered" unicode="&#xb7;" 
d="M648 869q80 0 80 -102v-52q0 -50 -31 -74.5t-80 -24.5t-80 24.5t-31 74.5v52q0 52 31 77t111 25z" />
    <glyph glyph-name="cedilla" unicode="&#xb8;" 
d="M795 -195q0 -95 -62 -151t-166 -56t-165 47t-69 160l86 7q7 -74 38 -106t105 -32t109 32t35 109t-34 119t-108 66l19 39q101 -20 157 -80t55 -154z" />
    <glyph glyph-name="one.sups" unicode="&#xb9;" 
d="M397 566v73h232v718h-9q-20 -74 -86.5 -119t-148.5 -46l-11 76q80 4 158.5 57t100.5 164h78v-850h211v-73h-525z" />
    <glyph glyph-name="ordmasculine" unicode="&#xba;" 
d="M616.5 680q128.5 0 188 63t59.5 199v212q0 141 -59.5 206.5t-188 65.5t-189 -65t-60.5 -207v-212q0 -136 60.5 -199t189 -63zM616 598q-162 0 -250.5 89t-88.5 255v212q0 171 88.5 262.5t250.5 91.5t249.5 -91t87.5 -263v-212q0 -166 -87.5 -255t-249.5 -89z" />
    <glyph glyph-name="guillemotright" unicode="&#xbb;" 
d="M639 225v99l374 328l-374 327v99l463 -410v-33zM127 225v99l374 328l-374 327v99l461 -410v-33z" />
    <glyph glyph-name="onequarter" unicode="&#xbc;" 
d="M739 -110v425l-355 -425h355zM819 -391h-80v207h-450v74l426 512h104v-512h160v-74h-160v-207zM1214 510l-520 15v69l520 13v-97zM19 510v97l543 -13v-69zM363 763v73h233v532h-11q-19 -74 -85 -118.5t-150 -46.5l-9 76q80 4 158 57t99 165h78v-665h212v-73h-525z" />
    <glyph glyph-name="onehalf" unicode="&#xbd;" 
d="M922 -393h-611v157q0 89 43.5 137.5t155.5 72.5l173 35q86 20 116.5 44.5t30.5 82.5v35q0 80 -48 114.5t-165.5 34.5t-161.5 -28.5t-51 -109.5l-84 8q4 106 74.5 154.5t222.5 48.5t222.5 -52t70.5 -164v-63q0 -69 -44.5 -112t-148.5 -67l-173 -37q-86 -19 -118.5 -56
t-32.5 -162h529v-73zM1214 510l-520 15v69l520 13v-97zM19 510v97l543 -13v-69zM363 763v73h233v532h-11q-19 -74 -85 -118.5t-150 -46.5l-9 76q80 4 158 57t99 165h78v-665h212v-73h-525z" />
    <glyph glyph-name="threequarters" unicode="&#xbe;" 
d="M739 -110v425l-355 -425h355zM819 -391h-80v207h-450v74l426 512h104v-512h160v-74h-160v-207zM1214 510l-520 15v69l520 13v-97zM19 510v97l543 -13v-69zM610 750q-165 0 -235 47.5t-75 140.5l82 8q7 -69 48.5 -95t173.5 -26t185 32.5t53 112.5v30q0 63 -51.5 91
t-174.5 28h-100v73h100q110 0 157.5 19.5t47.5 63.5v38q0 67 -50 94.5t-158 27.5t-156.5 -22t-52.5 -80l-84 8q6 91 75 130t216 39t218.5 -44.5t71.5 -141.5v-30q0 -58 -35.5 -89.5t-89.5 -39.5v-14q65 -6 105.5 -49.5t40.5 -109.5v-26q0 -112 -73.5 -164t-238.5 -52z" />
    <glyph glyph-name="questiondown" unicode="&#xbf;" 
d="M618 -19q-458 0 -458 403v85q0 188 133 285t459 153l19 -73q-281 -48 -400.5 -134t-119.5 -238v-56q0 -186 83.5 -264.5t287.5 -78.5t281.5 71t94.5 276l89 -10q-11 -235 -113.5 -327t-355.5 -92zM700 1255q-112 0 -112 102v52q0 50 31 74.5t112 24.5t81 -99v-52
q0 -102 -112 -102z" />
    <glyph glyph-name="Agrave" unicode="&#xc0;" 
d="M1007 0l-138 467h-512l-137 -467h-93l456 1489h67l458 -1489h-101zM847 547l-233 790l-232 -790h465zM659 1676l-316 372h145l247 -372h-76z" />
    <glyph glyph-name="Aacute" unicode="&#xc1;" 
d="M1007 0l-138 467h-512l-137 -467h-93l456 1489h67l458 -1489h-101zM847 547l-233 790l-232 -790h465zM499 1676l248 372h143l-317 -372h-74z" />
    <glyph glyph-name="Acircumflex" unicode="&#xc2;" 
d="M1007 0l-138 467h-512l-137 -467h-93l456 1489h67l458 -1489h-101zM847 547l-233 790l-232 -790h465zM330 1718l-38 47l294 315h60l296 -315l-37 -47l-289 276z" />
    <glyph glyph-name="Atilde" unicode="&#xc3;" 
d="M1007 0l-138 467h-512l-137 -467h-93l456 1489h67l458 -1489h-101zM847 547l-233 790l-232 -790h465zM936 2020q0 -326 -171 -326q-56 0 -96 36q-41 36 -81 124q-40 86 -64 113t-55 27q-97 0 -95 -261v-20h-74v28q0 326 171 326q58 -1 96 -35t80 -120t67 -115
q25 -30 53 -30q95 0 95 261v20h74v-28z" />
    <glyph glyph-name="Adieresis" unicode="&#xc4;" 
d="M1007 0l-138 467h-512l-137 -467h-93l456 1489h67l458 -1489h-101zM847 547l-233 790l-232 -790h465zM799 1733q-35 0 -58 13q-22 13 -22 54v13q0 41 22 56q21 15 57 15t58 -15t21 -56v-13q1 -41 -21 -54t-57 -13zM359 1813q0 71 79 71t80 -71v-13q0 -41 -22 -54t-58 -13
q-35 0 -57 13q-21 13 -22 54v13z" />
    <glyph glyph-name="Aring" unicode="&#xc5;" 
d="M1007 0l-138 467h-512l-137 -467h-93l456 1489h67l458 -1489h-101zM847 547l-233 790l-232 -790h465zM618 1722q82 0 119 45t38 145v71q1 102 -37 149q-38 46 -120 46t-119 -46t-37 -149v-71q0 -102 37 -146t119 -44zM618 1648q-117 0 -179 68q-61 68 -61 196v71
q0 130 61 200t179 70t178 -70q62 -70 62 -200v-71q0 -128 -62 -196t-178 -68z" />
    <glyph glyph-name="AE" unicode="&#xc6;" 
d="M665 467h-406l-127 -467h-82l406 1489h700v-81h-402v-568h385v-82h-385v-676h402v-82h-491v467zM665 549v859h-153l-229 -859h382z" />
    <glyph glyph-name="Ccedilla" unicode="&#xc7;" 
d="M814 -183q0 -107 -62 -163t-166 -56t-165 47t-69 160l86 7q7 -74 38 -106q32 -32 106 -32t108 32t34 109t-28 111t-67 55q-211 1 -323 131t-111 385v488q0 257 112 390q113 133 321 133t317 -111t122 -345l-91 -9q-19 215 -94 299t-254 84t-261 -106t-82 -348v-462
q0 -238 82 -342q83 -104 265 -104t262 88t82 287l91 -9q-2 -218 -113 -333q-85 -89 -229 -109q89 -65 89 -171z" />
    <glyph glyph-name="Egrave" unicode="&#xc8;" 
d="M229 0v1489h808v-81h-717v-553h631v-80h-631v-693h717v-82h-808zM676 1676l-317 372h146l247 -372h-76z" />
    <glyph glyph-name="Eacute" unicode="&#xc9;" 
d="M229 0v1489h808v-81h-717v-553h631v-80h-631v-693h717v-82h-808zM549 1676l248 372h143l-316 -372h-75z" />
    <glyph glyph-name="Ecircumflex" unicode="&#xca;" 
d="M229 0v1489h808v-81h-717v-553h631v-80h-631v-693h717v-82h-808zM361 1718l-37 47l294 315h60l296 -315l-38 -47l-288 276z" />
    <glyph glyph-name="Edieresis" unicode="&#xcb;" 
d="M229 0v1489h808v-81h-717v-553h631v-80h-631v-693h717v-82h-808zM750 1813q0 71 80 71q34 0 56 -15t23 -56v-13q0 -41 -22 -54t-57 -13t-57 13t-23 54v13zM469 1733q-35 0 -57 13q-21 13 -21 54v13q0 41 21 56q20 15 56 15q80 0 81 -71v-13q-1 -41 -23 -54t-57 -13z" />
    <glyph glyph-name="Igrave" unicode="&#xcc;" 
d="M229 0v82h343v1326h-343v81h775v-81h-343v-1326h343v-82h-775zM657 1676l-316 372h145l248 -372h-77z" />
    <glyph glyph-name="Iacute" unicode="&#xcd;" 
d="M229 0v82h343v1326h-343v81h775v-81h-343v-1326h343v-82h-775zM497 1676l248 372h143l-316 -372h-75z" />
    <glyph glyph-name="Icircumflex" unicode="&#xce;" 
d="M229 0v82h343v1326h-343v81h775v-81h-343v-1326h343v-82h-775zM328 1718l-38 47l295 315h59l296 -315l-37 -47l-289 276z" />
    <glyph glyph-name="Idieresis" unicode="&#xcf;" 
d="M229 0v82h343v1326h-343v81h775v-81h-343v-1326h343v-82h-775zM797 1733q-35 0 -58 13q-22 13 -22 54v13q0 41 22 56q21 15 57 15t58 -15t21 -56v-13q1 -41 -21 -54t-57 -13zM357 1813q0 71 79 71t80 -71v-13q0 -41 -22 -54t-58 -13q-35 0 -57 13q-21 13 -22 54v13z" />
    <glyph glyph-name="Eth" unicode="&#xd0;" 
d="M320 82h246q192 0 286 124t94 323v424q0 197 -94 326t-286 129h-246v-553h255v-80h-255v-693zM58 775v80h171v634h337q222 0 346.5 -146t124.5 -390v-424q0 -240 -125.5 -384.5t-345.5 -144.5h-337v775h-171z" />
    <glyph glyph-name="Ntilde" unicode="&#xd1;" 
d="M315 0h-86v1489h97l590 -1327v1327h88v-1489h-108l-581 1303v-1303zM966 2020q0 -326 -171 -326q-56 0 -96 36q-41 36 -81 124q-40 86 -64 113t-55 27q-99 0 -95 -261v-20h-74v28q0 326 171 326q58 -1 96 -35t80 -120t67 -115q25 -30 53 -30q95 0 95 261v20h74v-28z" />
    <glyph glyph-name="Ograve" unicode="&#xd2;" 
d="M615 63q176 0 254 107q77 107 77 340v462q0 238 -77 346t-253 108t-254 -108q-77 -108 -77 -346v-462q0 -233 77 -340t253 -107zM1037 510q0 -529 -420 -529t-422 529v462q0 536 421 536t421 -536v-462zM657 1676l-316 372h145l248 -372h-77z" />
    <glyph glyph-name="Oacute" unicode="&#xd3;" 
d="M615 63q176 0 254 107q77 107 77 340v462q0 238 -77 346t-253 108t-254 -108q-77 -108 -77 -346v-462q0 -233 77 -340t253 -107zM1037 510q0 -529 -420 -529t-422 529v462q0 536 421 536t421 -536v-462zM564 1676l248 372h143l-316 -372h-75z" />
    <glyph glyph-name="Ocircumflex" unicode="&#xd4;" 
d="M615 63q176 0 254 107q77 107 77 340v462q0 238 -77 346t-253 108t-254 -108q-77 -108 -77 -346v-462q0 -233 77 -340t253 -107zM1037 510q0 -529 -420 -529t-422 529v462q0 536 421 536t421 -536v-462zM328 1718l-38 47l295 315h59l296 -315l-37 -47l-289 276z" />
    <glyph glyph-name="Otilde" unicode="&#xd5;" 
d="M615 63q176 0 254 107q77 107 77 340v462q0 238 -77 346t-253 108t-254 -108q-77 -108 -77 -346v-462q0 -233 77 -340t253 -107zM1037 510q0 -529 -420 -529t-422 529v462q0 536 421 536t421 -536v-462zM935 2020q0 -326 -172 -326q-56 0 -96 36q-41 36 -81 124
q-40 86 -64 113t-55 27q-97 0 -95 -261v-20h-74v28q0 326 171 326q58 -1 96 -35t80 -120t67 -115q25 -30 53 -30q95 0 95 261v20h75v-28z" />
    <glyph glyph-name="Odieresis" unicode="&#xd6;" 
d="M615 63q176 0 254 107q77 107 77 340v462q0 238 -77 346t-253 108t-254 -108q-77 -108 -77 -346v-462q0 -233 77 -340t253 -107zM1037 510q0 -529 -420 -529t-422 529v462q0 536 421 536t421 -536v-462zM797 1733q-35 0 -58 13q-22 13 -22 54v13q0 41 22 56q21 15 57 15
t58 -15t21 -56v-13q1 -41 -21 -54t-57 -13zM357 1813q0 71 79 71t80 -71v-13q0 -41 -22 -54t-58 -13q-35 0 -57 13q-21 13 -22 54v13z" />
    <glyph glyph-name="multiply" unicode="&#xd7;" 
d="M225 117l-61 58l393 477l-393 476l61 58l391 -475l391 468l62 -60l-393 -467l393 -468l-62 -57l-391 465z" />
    <glyph glyph-name="Oslash" unicode="&#xd8;" 
d="M1037 516q0 -535 -421 -535q-143 0 -232 58l-66 -177h-91l88 231q-120 130 -120 423v450q0 542 423 542q124 0 201 -43l60 162h91l-78 -208q145 -125 145 -453v-450zM616 63q179 0 254.5 104.5t75.5 348.5v450q0 272 -88 373l-445 -1224q74 -52 203 -52zM616 1426
q-179 0 -255 -106t-76 -354v-450q0 -230 65 -337l439 1212q-64 35 -173 35z" />
    <glyph glyph-name="Ugrave" unicode="&#xd9;" 
d="M1004 503q0 -522 -388 -522t-387 522v986h91v-986q0 -231 69 -335t227 -104t227 104t69 335v986h92v-986zM657 1676l-316 372h145l248 -372h-77z" />
    <glyph glyph-name="Uacute" unicode="&#xda;" 
d="M1004 503q0 -522 -388 -522t-387 522v986h91v-986q0 -231 69 -335t227 -104t227 104t69 335v986h92v-986zM497 1676l248 372h143l-316 -372h-75z" />
    <glyph glyph-name="Ucircumflex" unicode="&#xdb;" 
d="M1004 503q0 -522 -388 -522t-387 522v986h91v-986q0 -231 69 -335t227 -104t227 104t69 335v986h92v-986zM328 1718l-38 47l295 315h59l296 -315l-37 -47l-289 276z" />
    <glyph glyph-name="Udieresis" unicode="&#xdc;" 
d="M1004 503q0 -522 -388 -522t-387 522v986h91v-986q0 -231 69 -335t227 -104t227 104t69 335v986h92v-986zM797 1733q-35 0 -58 13q-22 13 -22 54v13q0 41 22 56q21 15 57 15t58 -15t21 -56v-13q1 -41 -21 -54t-57 -13zM357 1813q0 71 79 71t80 -71v-13q0 -41 -22 -54
t-58 -13q-35 0 -57 13q-21 13 -22 54v13z" />
    <glyph glyph-name="Yacute" unicode="&#xdd;" 
d="M661 0h-89v559l-490 930h102l436 -837l428 837h101l-488 -930v-559zM497 1676l248 372h143l-316 -372h-75z" />
    <glyph glyph-name="Thorn" unicode="&#xde;" 
d="M320 361h348q156 0 226 74.5t70 247.5v172q0 168 -69.5 239t-226.5 71h-348v-804zM229 0v1489h91v-242h350q188 0 286 -100.5t98 -291.5v-172q0 -195 -99 -299.5t-287 -104.5h-348v-279h-91z" />
    <glyph glyph-name="germandbls" unicode="&#xdf;" 
d="M940 1018q-372 0 -372 -197q0 -97 56 -142.5t218 -87.5t232.5 -111.5t70.5 -199.5t-90.5 -210.5t-239.5 -80.5q-97 0 -186 34.5t-152 95.5l46 71q129 -119 291 -119q240 0 240 210q0 95 -52 142.5t-214 90.5t-236 110t-74 188t104.5 197t266.5 84q-4 329 -311 329
q-303 0 -303 -361v-1061h-92v1085q0 195 106.5 307t291.5 112t292 -108.5t107 -298.5v-79z" />
    <glyph glyph-name="agrave" unicode="&#xe0;" 
d="M849 173q-113 -192 -365 -192q-134 0 -222 85q-88 86 -88 228t75 219q76 77 218 77h363v218q0 106 -67 176t-196 70t-188 -46t-94 -168l-82 24q41 145 125 208q84 64 243 64t255 -87t96 -239v-518q0 -145 44 -189t160 -21v-86q-238 -39 -260 177h-17zM510 58
q194 0 320 177v279h-361q-97 0 -155 -45t-59 -162t61 -183t194 -66zM624 1303l-317 373h145l248 -373h-76z" />
    <glyph glyph-name="aacute" unicode="&#xe1;" 
d="M849 173q-113 -192 -365 -192q-134 0 -222 85q-88 86 -88 228t75 219q76 77 218 77h363v218q0 106 -67 176t-196 70t-188 -46t-94 -168l-82 24q41 145 125 208q84 64 243 64t255 -87t96 -239v-518q0 -145 44 -189t160 -21v-86q-238 -39 -260 177h-17zM510 58
q194 0 320 177v279h-361q-97 0 -155 -45t-59 -162t61 -183t194 -66zM464 1303l247 373h144l-317 -373h-74z" />
    <glyph glyph-name="acircumflex" unicode="&#xe2;" 
d="M849 173q-113 -192 -365 -192q-134 0 -222 85q-88 86 -88 228t75 219q76 77 218 77h363v218q0 106 -67 176t-196 70t-188 -46t-94 -168l-82 24q41 145 125 208q84 64 243 64t255 -87t96 -239v-518q0 -145 44 -189t160 -21v-86q-238 -39 -260 177h-17zM510 58
q194 0 320 177v279h-361q-97 0 -155 -45t-59 -162t61 -183t194 -66zM311 1346l-37 47l294 314h59l296 -314l-37 -47l-288 276z" />
    <glyph glyph-name="atilde" unicode="&#xe3;" 
d="M849 173q-113 -192 -365 -192q-134 0 -222 85q-88 86 -88 228t75 219q76 77 218 77h363v218q0 106 -67 176t-196 70t-188 -46t-94 -168l-82 24q41 145 125 208q84 64 243 64t255 -87t96 -239v-518q0 -145 44 -189t160 -21v-86q-238 -39 -260 177h-17zM510 58
q194 0 320 177v279h-361q-97 0 -155 -45t-59 -162t61 -183t194 -66zM901 1648q0 -326 -171 -326q-56 0 -96 36t-81 122t-65 114t-54 28q-99 0 -95 -261v-20h-75v27q0 326 172 326q58 0 96 -34t80 -120t67 -116t53 -29q93 0 95 260v21h74v-28z" />
    <glyph glyph-name="adieresis" unicode="&#xe4;" 
d="M849 173q-113 -192 -365 -192q-134 0 -222 85q-88 86 -88 228t75 219q76 77 218 77h363v218q0 106 -67 176t-196 70t-188 -46t-94 -168l-82 24q41 145 125 208q84 64 243 64t255 -87t96 -239v-518q0 -145 44 -189t160 -21v-86q-238 -39 -260 177h-17zM510 58
q194 0 320 177v279h-361q-97 0 -155 -45t-59 -162t61 -183t194 -66zM683 1441q0 71 80 71q35 0 57 -15t22 -56v-13q0 -41 -22 -54t-57 -13t-57 13t-23 54v13zM402 1361q-35 0 -57 13q-21 13 -21 54v13q0 41 21 56t57 15q80 0 80 -71v-13q0 -41 -22 -54t-58 -13z" />
    <glyph glyph-name="aring" unicode="&#xe5;" 
d="M849 173q-113 -192 -365 -192q-134 0 -222 85q-88 86 -88 228t75 219q76 77 218 77h363v218q0 106 -67 176t-196 70t-188 -46t-94 -168l-82 24q41 145 125 208q84 64 243 64t255 -87t96 -239v-518q0 -145 44 -189t160 -21v-86q-238 -39 -260 177h-17zM510 58
q194 0 320 177v279h-361q-97 0 -155 -45t-59 -162t61 -183t194 -66zM583 1350q82 0 119 45t37 145v70q0 102 -37 149t-119 47t-119 -47t-38 -149v-70q0 -102 38 -146t119 -44zM583 1275q-117 0 -179 68q-61 68 -61 197v70q0 130 61 200q60 70 178 70t179 -70t62 -200v-70
q1 -128 -61 -196t-179 -69z" />
    <glyph glyph-name="ae" unicode="&#xe6;" 
d="M365 58q125 0 216 124v330h-203q-186 0 -186 -201q0 -253 173 -253zM855 1054q-187 0 -187 -278v-149h373v133q0 155 -46.5 224.5t-139.5 69.5zM1123 227q-47 -246 -247 -246q-181 0 -247 162h-11q-110 -162 -268 -162q-114 0 -181 83.5t-67 223.5t67 219t174 79h238v194
q0 127 -45.5 200.5t-135.5 73.5t-127 -40t-64 -139l-77 26q20 112 85.5 173.5t164.5 61.5t164 -46.5t83 -130.5q24 80 88.5 128.5t138.5 48.5q125 0 199.5 -91.5t74.5 -281.5v-214h-462v-216q0 -143 46 -206.5t138 -63.5t131 39t60 146z" />
    <glyph glyph-name="ccedilla" unicode="&#xe7;" 
d="M793 -186q0 -104 -62 -160t-166 -56t-165 47t-69 160l86 7q7 -74 38 -106t105 -32t109 32t35 109t-28 112t-69 55q-176 8 -277 109t-101 300v328q0 203 105 310t299 107t285 -82t104 -253l-87 -8q-13 145 -79 203t-224 58t-234 -81q-78 -81 -78 -254v-328q0 -168 78 -249
t238 -81q160 -1 224 49q65 50 75 177l87 -8q-9 -155 -102 -226q-75 -58 -210 -69q83 -67 83 -170z" />
    <glyph glyph-name="egrave" unicode="&#xe8;" 
d="M616 1054q-296 0 -296 -335v-92h592v75q0 184 -74 268t-222 84zM608 -19q-172 1 -276 105t-103 307v326q0 209 108 313t282 104t279 -106t106 -324v-157h-684v-158q0 -173 74 -250t216 -77t202 42q60 43 95 143l87 -27q-42 -127 -128 -184t-258 -57zM659 1303l-316 373
h145l247 -373h-76z" />
    <glyph glyph-name="eacute" unicode="&#xe9;" 
d="M616 1054q-296 0 -296 -335v-92h592v75q0 184 -74 268t-222 84zM608 -19q-172 1 -276 105t-103 307v326q0 209 108 313t282 104t279 -106t106 -324v-157h-684v-158q0 -173 74 -250t216 -77t202 42q60 43 95 143l87 -27q-42 -127 -128 -184t-258 -57zM501 1303l247 373
h144l-317 -373h-74z" />
    <glyph glyph-name="ecircumflex" unicode="&#xea;" 
d="M616 1054q-296 0 -296 -335v-92h592v75q0 184 -74 268t-222 84zM608 -19q-172 1 -276 105t-103 307v326q0 209 108 313t282 104t279 -106t106 -324v-157h-684v-158q0 -173 74 -250t216 -77t202 42q60 43 95 143l87 -27q-42 -127 -128 -184t-258 -57zM330 1346l-38 47
l294 314h60l296 -314l-37 -47l-289 276z" />
    <glyph glyph-name="edieresis" unicode="&#xeb;" 
d="M616 1054q-296 0 -296 -335v-92h592v75q0 184 -74 268t-222 84zM608 -19q-172 1 -276 105t-103 307v326q0 209 108 313t282 104t279 -106t106 -324v-157h-684v-158q0 -173 74 -250t216 -77t202 42q60 43 95 143l87 -27q-42 -127 -128 -184t-258 -57zM799 1361
q-35 0 -58 13q-22 13 -22 54v13q0 41 22 56q21 15 57 15t58 -15t21 -56v-13q1 -41 -21 -54t-57 -13zM359 1441q0 71 79 71t80 -71v-13q0 -41 -22 -54t-58 -13q-35 0 -57 13q-21 13 -22 54v13z" />
    <glyph glyph-name="igrave.salt_serifs" unicode="&#xe025;" 
d="M661 82h376v-82h-465v1035h-377v82h466v-1035zM616 1303l-316 373h145l248 -373h-77z" />
    <glyph glyph-name="igrave.salt_serifs" unicode="&#xec;" 
d="M661 82h376v-82h-465v1035h-377v82h466v-1035zM616 1303l-316 373h145l248 -373h-77z" />
    <glyph glyph-name="iacute.salt_serifs" unicode="&#xe026;" 
d="M661 82h376v-82h-465v1035h-377v82h466v-1035zM456 1303l248 373h143l-316 -373h-75z" />
    <glyph glyph-name="iacute.salt_serifs" unicode="&#xed;" 
d="M661 82h376v-82h-465v1035h-377v82h466v-1035zM456 1303l248 373h143l-316 -373h-75z" />
    <glyph glyph-name="icircumflex.salt_serifs" unicode="&#xe027;" 
d="M661 82h376v-82h-465v1035h-377v82h466v-1035zM287 1346l-38 47l295 314h59l296 -314l-37 -47l-289 276z" />
    <glyph glyph-name="icircumflex.salt_serifs" unicode="&#xee;" 
d="M661 82h376v-82h-465v1035h-377v82h466v-1035zM287 1346l-38 47l295 314h59l296 -314l-37 -47l-289 276z" />
    <glyph glyph-name="idieresis.salt_serifs" unicode="&#xe028;" 
d="M661 82h376v-82h-465v1035h-377v82h466v-1035zM756 1361q-35 0 -58 13q-22 13 -22 54v13q0 41 22 56t58 15t56 -15q22 -15 22 -56v-13q0 -41 -22 -54t-56 -13zM395 1512q78 0 80 -71v-13q-1 -41 -23 -54t-57 -13t-57 13q-21 13 -21 54v13q0 41 21 56t57 15z" />
    <glyph glyph-name="idieresis.salt_serifs" unicode="&#xef;" 
d="M661 82h376v-82h-465v1035h-377v82h466v-1035zM756 1361q-35 0 -58 13q-22 13 -22 54v13q0 41 22 56t58 15t56 -15q22 -15 22 -56v-13q0 -41 -22 -54t-56 -13zM395 1512q78 0 80 -71v-13q-1 -41 -23 -54t-57 -13t-57 13q-21 13 -21 54v13q0 41 21 56t57 15z" />
    <glyph glyph-name="eth" unicode="&#xf0;" 
d="M618.5 63q154.5 0 224 80t69.5 257v129q0 168 -69.5 243t-224 75t-224.5 -75.5t-70 -242.5v-129q0 -177 70 -257t224.5 -80zM1004 702v-287q0 -222 -104.5 -328t-283 -106t-283 105.5t-104.5 317.5v145q0 175 106 278.5t276 103.5q119 0 197 -46.5t108 -109.5h11
q-12 270 -138 439l-303 -151v73l259 128q-123 135 -352 196l26 69q259 -71 395 -229l271 135v-72l-230 -116q149 -205 149 -545z" />
    <glyph glyph-name="ntilde" unicode="&#xf1;" 
d="M668 1052q-198 0 -348 -190v-862h-91v1117h91v-173h17q48 88 141 140t200 52q149 0 237 -94t89 -256v-786h-92v767q0 141 -63 213t-181 72zM970 1648q0 -326 -171 -326q-56 0 -96 36t-81 122t-65 114t-54 28q-99 0 -95 -261v-20h-75v27q0 326 172 326q57 0 95 -34
t80 -120t68 -116t53 -29q93 0 95 260v21h74v-28z" />
    <glyph glyph-name="ograve" unicode="&#xf2;" 
d="M616 63q151 0 224 80t72 248v328q0 171 -72 253q-73 82 -224 82q-152 0 -224 -82t-72 -253v-328q0 -168 72 -248t224 -80zM616 -19q-186 1 -286 107t-101 303v328q0 201 101 309q100 108 286 108t287 -108t101 -309v-328q0 -197 -101 -303t-287 -107zM657 1303l-316 373
h145l248 -373h-77z" />
    <glyph glyph-name="oacute" unicode="&#xf3;" 
d="M616 63q151 0 224 80t72 248v328q0 171 -72 253q-73 82 -224 82q-152 0 -224 -82t-72 -253v-328q0 -168 72 -248t224 -80zM616 -19q-186 1 -286 107t-101 303v328q0 201 101 309q100 108 286 108t287 -108t101 -309v-328q0 -197 -101 -303t-287 -107zM497 1303l248 373
h143l-316 -373h-75z" />
    <glyph glyph-name="ocircumflex" unicode="&#xf4;" 
d="M616 63q151 0 224 80t72 248v328q0 171 -72 253q-73 82 -224 82q-152 0 -224 -82t-72 -253v-328q0 -168 72 -248t224 -80zM616 -19q-186 1 -286 107t-101 303v328q0 201 101 309q100 108 286 108t287 -108t101 -309v-328q0 -197 -101 -303t-287 -107zM328 1346l-38 47
l295 314h59l296 -314l-37 -47l-289 276z" />
    <glyph glyph-name="otilde" unicode="&#xf5;" 
d="M616 63q151 0 224 80t72 248v328q0 171 -72 253q-73 82 -224 82q-152 0 -224 -82t-72 -253v-328q0 -168 72 -248t224 -80zM616 -19q-186 1 -286 107t-101 303v328q0 201 101 309q100 108 286 108t287 -108t101 -309v-328q0 -197 -101 -303t-287 -107zM935 1648
q0 -326 -172 -326q-56 0 -96 36q-41 36 -81 122t-64 114t-55 28q-97 0 -95 -261v-20h-74v27q0 326 171 326q58 0 96 -34t80 -120t67 -116t53 -29q95 0 95 260v21h75v-28z" />
    <glyph glyph-name="odieresis" unicode="&#xf6;" 
d="M616 63q151 0 224 80t72 248v328q0 171 -72 253q-73 82 -224 82q-152 0 -224 -82t-72 -253v-328q0 -168 72 -248t224 -80zM616 -19q-186 1 -286 107t-101 303v328q0 201 101 309q100 108 286 108t287 -108t101 -309v-328q0 -197 -101 -303t-287 -107zM797 1361
q-35 0 -58 13q-22 13 -22 54v13q0 41 22 56q21 15 57 15t58 -15t21 -56v-13q1 -41 -21 -54t-57 -13zM357 1441q0 71 79 71t80 -71v-13q0 -41 -22 -54t-58 -13q-35 0 -57 13q-21 13 -22 54v13z" />
    <glyph glyph-name="divide" unicode="&#xf7;" 
d="M730 168q0 -80 -114.5 -80t-114.5 80v31q0 43 32.5 63.5t82.5 20.5q114 0 114 -84v-31zM138 607v89h957v-89h-957zM730 1098q0 -80 -82 -80t-114.5 20t-32.5 60v32q0 43 32.5 63.5t82.5 20.5q114 0 114 -84v-32z" />
    <glyph glyph-name="oslash" unicode="&#xf8;" 
d="M1004 719v-328q0 -209 -104.5 -309.5t-283.5 -100.5q-115 0 -203 45l-76 -164h-84l97 205q-121 104 -121 324v328q0 210 105 313.5t284 103.5q117 0 201 -45l78 164h84l-97 -207q120 -111 120 -329zM912 391v328q0 166 -69 249l-392 -869q61 -36 165 -36
q147 0 221.5 76.5t74.5 251.5zM320 719v-328q0 -164 69 -246l395 870q-70 39 -168 39q-296 0 -296 -335z" />
    <glyph glyph-name="ugrave" unicode="&#xf9;" 
d="M229 344v773h91v-743q0 -153 62 -232t182 -79q194 0 348 192v862h92v-1117h-92v173h-16q-123 -192 -341 -192q-147 0 -237 99q-89 99 -89 264zM609 1303l-317 373h146l247 -373h-76z" />
    <glyph glyph-name="uacute" unicode="&#xfa;" 
d="M229 344v773h91v-743q0 -153 62 -232t182 -79q194 0 348 192v862h92v-1117h-92v173h-16q-123 -192 -341 -192q-147 0 -237 99q-89 99 -89 264zM566 1303l248 373h143l-317 -373h-74z" />
    <glyph glyph-name="ucircumflex" unicode="&#xfb;" 
d="M229 344v773h91v-743q0 -153 62 -232t182 -79q194 0 348 192v862h92v-1117h-92v173h-16q-123 -192 -341 -192q-147 0 -237 99q-89 99 -89 264zM330 1346l-38 47l294 314h60l296 -314l-37 -47l-289 276z" />
    <glyph glyph-name="udieresis" unicode="&#xfc;" 
d="M229 344v773h91v-743q0 -153 62 -232t182 -79q194 0 348 192v862h92v-1117h-92v173h-16q-123 -192 -341 -192q-147 0 -237 99q-89 99 -89 264zM799 1361q-35 0 -58 13q-22 13 -22 54v13q0 41 22 56q21 15 57 15t58 -15t21 -56v-13q1 -41 -21 -54t-57 -13zM359 1441
q0 71 79 71t80 -71v-13q0 -41 -22 -54t-58 -13q-35 0 -57 13q-21 13 -22 54v13z" />
    <glyph glyph-name="yacute" unicode="&#xfd;" 
d="M317 -384q-49 0 -125 13l13 82q75 -15 144 -15q70 1 121 48t98 182l24 74h-22l-384 1117h93l347 -1020l331 1020h89l-402 -1214q-52 -155 -128 -221t-199 -66zM497 1303l248 373h143l-316 -373h-75z" />
    <glyph glyph-name="thorn" unicode="&#xfe;" 
d="M603 -19q-145 0 -283 66v-419h-91v1861h91v-545h17q47 95 137 143.5t198 48.5q155 0 243.5 -109t88.5 -303v-329q0 -194 -106.5 -304t-294.5 -110zM912 398v328q0 168 -62 248t-174 80t-194 -45.5t-162 -146.5v-721q128 -81 284 -81q155 0 231.5 82.5t76.5 255.5z" />
    <glyph glyph-name="ydieresis" unicode="&#xff;" 
d="M317 -384q-49 0 -125 13l13 82q75 -15 144 -15q70 1 121 48t98 182l24 74h-22l-384 1117h93l347 -1020l331 1020h89l-402 -1214q-52 -155 -128 -221t-199 -66zM797 1361q-35 0 -58 13q-22 13 -22 54v13q0 41 22 56q21 15 57 15t58 -15t21 -56v-13q1 -41 -21 -54t-57 -13z
M357 1441q0 71 79 71t80 -71v-13q0 -41 -22 -54t-58 -13q-35 0 -57 13q-21 13 -22 54v13z" />
    <glyph glyph-name="Amacron" unicode="&#x100;" 
d="M1007 0l-138 467h-512l-137 -467h-93l456 1489h67l458 -1489h-101zM847 547l-233 790l-232 -790h465zM317 1826v81h603v-81h-603z" />
    <glyph glyph-name="amacron" unicode="&#x101;" 
d="M849 173q-113 -192 -365 -192q-134 0 -222 85q-88 86 -88 228t75 219q76 77 218 77h363v218q0 106 -67 176t-196 70t-188 -46t-94 -168l-82 24q41 145 125 208q84 64 243 64t255 -87t96 -239v-518q0 -145 44 -189t160 -21v-86q-238 -39 -260 177h-17zM510 58
q194 0 320 177v279h-361q-97 0 -155 -45t-59 -162t61 -183t194 -66zM281 1454v80h603v-80h-603z" />
    <glyph glyph-name="Abreve" unicode="&#x102;" 
d="M1007 0l-138 467h-512l-137 -467h-93l456 1489h67l458 -1489h-101zM847 547l-233 790l-232 -790h465zM618 1663q-168 -1 -257 99t-91 288h91q2 -162 63 -234q62 -72 194 -72t194 72q61 72 63 234h91q-2 -188 -91 -288t-257 -99z" />
    <glyph glyph-name="abreve" unicode="&#x103;" 
d="M849 173q-113 -192 -365 -192q-134 0 -222 85q-88 86 -88 228t75 219q76 77 218 77h363v218q0 106 -67 176t-196 70t-188 -46t-94 -168l-82 24q41 145 125 208q84 64 243 64t255 -87t96 -239v-518q0 -145 44 -189t160 -21v-86q-238 -39 -260 177h-17zM510 58
q194 0 320 177v279h-361q-97 0 -155 -45t-59 -162t61 -183t194 -66zM583 1290q-168 0 -257 100t-91 287h91q2 -161 63 -233t193 -72t194 72q61 72 64 233h91q-2 -187 -91 -287t-257 -100z" />
    <glyph glyph-name="Aogonek" unicode="&#x104;" 
d="M847 547l-233 790l-232 -790h465zM1059 -400q-86 0 -148 56t-62 147q0 137 148 231l-128 433h-512l-137 -467h-93l456 1489h67l458 -1489h-88q-82 -76 -82 -163t34 -121t109 -34q74 0 133 15v-82q-69 -15 -155 -15z" />
    <glyph glyph-name="aogonek" unicode="&#x105;" 
d="M849 173q-113 -192 -365 -192q-134 0 -222 85q-88 86 -88 228t75 219q76 77 218 77h363v218q0 106 -67 176t-196 70t-188 -46t-94 -168l-82 24q41 145 125 208q84 64 243 64t255 -87t96 -239v-518q0 -145 44 -189t160 -21v-86q-81 -13 -137 4q-81 -76 -81 -162
q1 -88 35 -122t108 -34t133 15v-82q-78 -17 -140 -15q-100 0 -162 56t-63 147q0 127 126 216q-1 1 -2 1q-66 43 -77 153h-17zM510 58q194 0 320 177v279h-361q-97 0 -155 -45t-59 -162t61 -183t194 -66z" />
    <glyph glyph-name="Cacute" unicode="&#x106;" 
d="M631 -19q-212 1 -324 131t-112 385v488q0 257 112 390q113 133 321 133t317 -111t122 -345l-91 -9q-19 215 -94 299t-254 84t-261 -106t-82 -348v-462q0 -238 82 -342q83 -104 265 -104t262 88t82 287l91 -9q-2 -218 -113 -334t-323 -115zM581 1676l248 372h143
l-317 -372h-74z" />
    <glyph glyph-name="cacute" unicode="&#x107;" 
d="M632 -19q-194 -1 -298 105q-105 106 -105 305v328q0 203 105 310t299 107t285 -82t104 -253l-87 -8q-13 145 -79 203t-224 58t-234 -81q-78 -81 -78 -254v-328q0 -168 78 -249t238 -81q160 -1 224 49q65 50 75 177l87 -8q-8 -155 -102 -227t-288 -71zM512 1303l248 373
h143l-317 -373h-74z" />
    <glyph glyph-name="Ccircumflex" unicode="&#x108;" 
d="M631 -19q-212 1 -324 131t-112 385v488q0 257 112 390q113 133 321 133t317 -111t122 -345l-91 -9q-19 215 -94 299t-254 84t-261 -106t-82 -348v-462q0 -238 82 -342q83 -104 265 -104t262 88t82 287l91 -9q-2 -218 -113 -334t-323 -115zM346 1718l-37 47l294 315h60
l296 -315l-37 -47l-289 276z" />
    <glyph glyph-name="ccircumflex" unicode="&#x109;" 
d="M632 -19q-194 -1 -298 105q-105 106 -105 305v328q0 203 105 310t299 107t285 -82t104 -253l-87 -8q-13 145 -79 203t-224 58t-234 -81q-78 -81 -78 -254v-328q0 -168 78 -249t238 -81q160 -1 224 49q65 50 75 177l87 -8q-8 -155 -102 -227t-288 -71zM354 1346l-37 47
l294 314h59l296 -314l-37 -47l-289 276z" />
    <glyph glyph-name="Cdotaccent" unicode="&#x10a;" 
d="M631 -19q-212 1 -324 131t-112 385v488q0 257 112 390q113 133 321 133t317 -111t122 -345l-91 -9q-19 215 -94 299t-254 84t-261 -106t-82 -348v-462q0 -238 82 -342q83 -104 265 -104t262 88t82 287l91 -9q-2 -218 -113 -334t-323 -115zM724 1800q0 -67 -89 -67
q-41 0 -65 14t-24 53v13q0 41 24 56t65 15t65 -15t24 -56v-13z" />
    <glyph glyph-name="cdotaccent" unicode="&#x10b;" 
d="M632 -19q-194 -1 -298 105q-105 106 -105 305v328q0 203 105 310t299 107t285 -82t104 -253l-87 -8q-13 145 -79 203t-224 58t-234 -81q-78 -81 -78 -254v-328q0 -168 78 -249t238 -81q160 -1 224 49q65 50 75 177l87 -8q-8 -155 -102 -227t-288 -71zM717 1428
q0 -67 -91 -67q-40 0 -64 14t-24 53v13q0 41 24 56t65 15t65 -15t25 -56v-13z" />
    <glyph glyph-name="Ccaron" unicode="&#x10c;" 
d="M631 -19q-212 1 -324 131t-112 385v488q0 257 112 390q113 133 321 133t317 -111t122 -345l-91 -9q-19 215 -94 299t-254 84t-261 -106t-82 -348v-462q0 -238 82 -342q83 -104 265 -104t262 88t82 287l91 -9q-2 -218 -113 -334t-323 -115zM605 1683l-296 315l37 46
l289 -275l287 275l37 -46l-294 -315h-60z" />
    <glyph glyph-name="ccaron" unicode="&#x10d;" 
d="M632 -19q-194 -1 -298 105q-105 106 -105 305v328q0 203 105 310t299 107t285 -82t104 -253l-87 -8q-13 145 -79 203t-224 58t-234 -81q-78 -81 -78 -254v-328q0 -168 78 -249t238 -81q160 -1 224 49q65 50 75 177l87 -8q-8 -155 -102 -227t-288 -71zM598 1311l-296 314
l37 47l288 -276l287 276l37 -47l-294 -314h-59z" />
    <glyph glyph-name="Dcaron" unicode="&#x10e;" 
d="M320 82h246q192 0 286 124t94 323v424q0 197 -94 325t-286 130h-246v-1326zM229 0v1489h337q222 0 346 -146t125 -390v-424q0 -241 -126 -385t-345 -144h-337zM586 1683l-296 315l38 46l288 -275l287 275l37 -46l-294 -315h-60z" />
    <glyph glyph-name="dcaron" unicode="&#x10f;" 
d="M631 1136q134 0 281 -65v418h92v-1489h-92v162h-16q-47 -80 -137 -130t-202 -51q-158 1 -243 107t-85 305v329q0 190 108 302t294 112zM320 393q0 -330 236 -330q114 0 196 46q80 46 160 146v724q-132 79 -283 79t-230 -86t-79 -253v-326zM1257 1408l139 454h121
l-186 -454h-74z" />
    <glyph glyph-name="Dcroat" unicode="&#x110;" 
d="M320 82h246q192 0 286 124t94 323v424q0 197 -94 326t-286 129h-246v-553h255v-80h-255v-693zM58 775v80h171v634h337q222 0 346.5 -146t124.5 -390v-424q0 -240 -125.5 -384.5t-345.5 -144.5h-337v775h-171z" />
    <glyph glyph-name="dcroat" unicode="&#x111;" 
d="M229 361v300q0 181 104.5 281.5t297.5 100.5q135 0 281 -67v234h-340v82h340v197h92v-197h169v-82h-169v-1210h-92v160h-16q-122 -179 -345 -179q-155 0 -238.5 98t-83.5 282zM320 361q0 -298 236 -298q114 0 195 46t161 146v629q-135 80 -289 80t-228.5 -75t-74.5 -232
v-296z" />
    <glyph glyph-name="Emacron" unicode="&#x112;" 
d="M229 0v1489h808v-81h-717v-553h631v-80h-631v-693h717v-82h-808zM348 1826v81h603v-81h-603z" />
    <glyph glyph-name="emacron" unicode="&#x113;" 
d="M616 1054q-296 0 -296 -335v-92h592v75q0 184 -74 268t-222 84zM608 -19q-172 1 -276 105t-103 307v326q0 209 108 313t282 104t279 -106t106 -324v-157h-684v-158q0 -173 74 -250t216 -77t202 42q60 43 95 143l87 -27q-42 -127 -128 -184t-258 -57zM317 1454v80h603v-80
h-603z" />
    <glyph glyph-name="Ebreve" unicode="&#x114;" 
d="M229 0v1489h808v-81h-717v-553h631v-80h-631v-693h717v-82h-808zM650 1663q-168 -1 -257 99t-91 288h91q2 -162 63 -234q62 -72 194 -72t193 72t64 234h91q-2 -188 -91 -288t-257 -99z" />
    <glyph glyph-name="ebreve" unicode="&#x115;" 
d="M616 1054q-296 0 -296 -335v-92h592v75q0 184 -74 268t-222 84zM608 -19q-172 1 -276 105t-103 307v326q0 209 108 313t282 104t279 -106t106 -324v-157h-684v-158q0 -173 74 -250t216 -77t202 42q60 43 95 143l87 -27q-42 -127 -128 -184t-258 -57zM618 1290
q-168 0 -257 100t-91 287h91q2 -161 63 -233q62 -72 194 -72t194 72q61 72 63 233h91q-2 -187 -91 -287t-257 -100z" />
    <glyph glyph-name="Edotaccent" unicode="&#x116;" 
d="M229 0v1489h808v-81h-717v-553h631v-80h-631v-693h717v-82h-808zM739 1800q0 -67 -89 -67q-41 0 -65 14t-25 53v13q0 71 90 71q41 0 65 -15t24 -56v-13z" />
    <glyph glyph-name="edotaccent" unicode="&#x117;" 
d="M616 1054q-296 0 -296 -335v-92h592v75q0 184 -74 268t-222 84zM608 -19q-172 1 -276 105t-103 307v326q0 209 108 313t282 104t279 -106t106 -324v-157h-684v-158q0 -173 74 -250t216 -77t202 42q60 43 95 143l87 -27q-42 -127 -128 -184t-258 -57zM707 1428
q0 -67 -89 -67q-41 0 -65 14t-24 53v13q0 41 24 56t65 15t65 -15t24 -56v-13z" />
    <glyph glyph-name="Eogonek" unicode="&#x118;" 
d="M229 0v1489h808v-81h-717v-553h631v-80h-631v-693h717v-82h-181q-82 -77 -82 -163q1 -87 35 -121t108 -34t133 15v-82q-78 -17 -140 -15q-100 0 -162 56t-62 157t101 187h-558z" />
    <glyph glyph-name="eogonek" unicode="&#x119;" 
d="M616 1054q-296 0 -296 -335v-92h592v75q0 184 -74 268t-222 84zM695 -344q-62 56 -62 154t89 178q-46 -7 -100 -7q-186 1 -290 105t-103 307v326q0 209 108 313t282 104t279 -106t106 -324v-157h-684v-158q0 -173 74 -250t216 -77t202 42q60 43 95 143l87 -27
q-50 -156 -175 -209q-97 -80 -97 -188q0 -75 34 -109t109 -34q74 0 133 15v-82q-78 -17 -140 -15q-101 0 -163 56z" />
    <glyph glyph-name="Ecaron" unicode="&#x11a;" 
d="M229 0v1489h808v-81h-717v-553h631v-80h-631v-693h717v-82h-808zM637 1683l-296 315l37 46l289 -275l286 275l37 -46l-294 -315h-59z" />
    <glyph glyph-name="ecaron" unicode="&#x11b;" 
d="M616 1054q-296 0 -296 -335v-92h592v75q0 184 -74 268t-222 84zM608 -19q-172 1 -276 105t-103 307v326q0 209 108 313t282 104t279 -106t106 -324v-157h-684v-158q0 -173 74 -250t216 -77t202 42q60 43 95 143l87 -27q-42 -127 -128 -184t-258 -57zM588 1311l-296 314
l38 47l288 -276l287 276l37 -47l-294 -314h-60z" />
    <glyph glyph-name="Gcircumflex" unicode="&#x11c;" 
d="M648 -19q-222 -1 -337 133t-116 396v462q0 266 112 401q111 135 321 135t304 -98t105 -325l-91 -11q-15 208 -80 280t-240 72t-258 -108t-83 -346v-462q-1 -235 87 -341t273 -106t261 125q75 125 75 428h-365v80h455v-78q-1 -333 -101 -485t-322 -152zM359 1718l-37 47
l294 315h60l296 -315l-37 -47l-289 276z" />
    <glyph glyph-name="gcircumflex" unicode="&#x11d;" 
d="M1000 -101q0 179 -181 177h-584v-126q-1 -127 57 -193t168 -66h329q108 0 160 51q51 51 51 157zM330 747q0 -194 253 -194t253 194v67q0 117 -65 169t-188 52t-188 -52t-65 -169v-67zM259 320q0 -154 149 -154h394q134 0 210 -66t77 -203q0 -137 -89 -213t-227 -75h-309
q-141 0 -230 78q-88 78 -89 235q0 93 40 149t115 63v9q-122 19 -122 183q0 84 49 144q48 60 136 68v6q-125 40 -125 204v77q0 128 90 210t255 82h463v-82l-249 21v-12q65 -20 98 -86t32 -131v-75q0 -123 -84 -198t-268 -76h-206q-54 0 -82 -36t-28 -122zM313 1346l-37 47
l294 314h59l296 -314l-37 -47l-288 276z" />
    <glyph glyph-name="Gbreve" unicode="&#x11e;" 
d="M648 -19q-222 -1 -337 133t-116 396v462q0 266 112 401q111 135 321 135t304 -98t105 -325l-91 -11q-15 208 -80 280t-240 72t-258 -108t-83 -346v-462q-1 -235 87 -341t273 -106t261 125q75 125 75 428h-365v80h455v-78q-1 -333 -101 -485t-322 -152zM648 1663
q-168 -1 -257 99t-91 288h91q2 -162 63 -234q62 -72 194 -72t194 72q61 72 63 234h91q-2 -188 -91 -288t-257 -99z" />
    <glyph glyph-name="gbreve" unicode="&#x11f;" 
d="M1000 -101q0 179 -181 177h-584v-126q-1 -127 57 -193t168 -66h329q108 0 160 51q51 51 51 157zM330 747q0 -194 253 -194t253 194v67q0 117 -65 169t-188 52t-188 -52t-65 -169v-67zM259 320q0 -154 149 -154h394q134 0 210 -66t77 -203q0 -137 -89 -213t-227 -75h-309
q-141 0 -230 78q-88 78 -89 235q0 93 40 149t115 63v9q-122 19 -122 183q0 84 49 144q48 60 136 68v6q-125 40 -125 204v77q0 128 90 210t255 82h463v-82l-249 21v-12q65 -20 98 -86t32 -131v-75q0 -123 -84 -198t-268 -76h-206q-54 0 -82 -36t-28 -122zM616 1290
q-168 0 -257 100t-91 287h91q1 -161 63 -233t194 -72t194 72q61 72 63 233h91q-2 -187 -91 -287t-257 -100z" />
    <glyph glyph-name="Gdotaccent" unicode="&#x120;" 
d="M648 -19q-222 -1 -337 133t-116 396v462q0 266 112 401q111 135 321 135t304 -98t105 -325l-91 -11q-15 208 -80 280t-240 72t-258 -108t-83 -346v-462q-1 -235 87 -341t273 -106t261 125q75 125 75 428h-365v80h455v-78q-1 -333 -101 -485t-322 -152zM722 1800
q0 -67 -89 -67q-41 0 -65 14t-24 53v13q0 41 24 56t65 15t65 -15t24 -56v-13z" />
    <glyph glyph-name="gdotaccent" unicode="&#x121;" 
d="M1000 -101q0 179 -181 177h-584v-126q-1 -127 57 -193t168 -66h329q108 0 160 51q51 51 51 157zM330 747q0 -194 253 -194t253 194v67q0 117 -65 169t-188 52t-188 -52t-65 -169v-67zM259 320q0 -154 149 -154h394q134 0 210 -66t77 -203q0 -137 -89 -213t-227 -75h-309
q-141 0 -230 78q-88 78 -89 235q0 93 40 149t115 63v9q-122 19 -122 183q0 84 49 144q48 60 136 68v6q-125 40 -125 204v77q0 128 90 210t255 82h463v-82l-249 21v-12q65 -20 98 -86t32 -131v-75q0 -123 -84 -198t-268 -76h-206q-54 0 -82 -36t-28 -122zM706 1428
q0 -67 -90 -67q-41 0 -65 14t-24 53v13q0 41 24 56t65 15t65 -15t25 -56v-13z" />
    <glyph glyph-name="Gcommaaccent" unicode="&#x122;" 
d="M648 -19q-222 -1 -337 133t-116 396v462q0 266 112 401q111 135 321 135t304 -98t105 -325l-91 -11q-15 208 -80 280t-240 72t-258 -108t-83 -346v-462q-1 -235 87 -341t273 -106t261 125q75 125 75 428h-365v80h455v-78q-1 -333 -101 -485t-322 -152zM436 -559l164 373
h145l-233 -373h-76z" />
    <glyph glyph-name="gcommaaccent" unicode="&#x123;" 
d="M1000 -101q0 179 -181 177h-584v-126q-1 -127 57 -193t168 -66h329q108 0 160 51q51 51 51 157zM330 747q0 -194 253 -194t253 194v67q0 117 -65 169t-188 52t-188 -52t-65 -169v-67zM259 320q0 -154 149 -154h394q134 0 210 -66t77 -203q0 -137 -89 -213t-227 -75h-309
q-141 0 -230 78q-88 78 -89 235q0 93 40 149t115 63v9q-122 19 -122 183q0 84 49 144q48 60 136 68v6q-125 40 -125 204v77q0 128 90 210t255 82h463v-82l-249 21v-12q65 -20 98 -86t32 -131v-75q0 -123 -84 -198t-268 -76h-206q-54 0 -82 -36t-28 -122zM534 1303l233 373
h75l-164 -373h-144z" />
    <glyph glyph-name="Hcircumflex" unicode="&#x124;" 
d="M229 0v1489h91v-634h592v634h92v-1489h-92v775h-592v-775h-91zM328 1718l-38 47l295 315h59l296 -315l-37 -47l-289 276z" />
    <glyph glyph-name="hcircumflex" unicode="&#x125;" 
d="M229 0v1489h91v-545h17q61 91 141 141q80 51 214 51q135 0 223 -96t89 -252v-788h-92v767q0 134 -63 210q-63 77 -171 77t-190 -45t-168 -156v-853h-91zM0 1718l-37 47l294 315h60l296 -315l-38 -47l-288 276z" />
    <glyph glyph-name="Hbar" unicode="&#x126;" 
d="M320 642v-642h-91v1091h-171v80h171v318h91v-318h592v318h92v-318h169v-80h-169v-1091h-92v642h-592zM320 724h592v367h-592v-367z" />
    <glyph glyph-name="hbar" unicode="&#x127;" 
d="M678 1043q140 0 233 -92.5t93 -257.5v-693h-92v674q0 143 -67 215t-169 72t-186 -47t-170 -151v-763h-91v1210h-169v82h169v197h91v-197h341v-82h-341v-359h17q127 192 341 192z" />
    <glyph glyph-name="Itilde" unicode="&#x128;" 
d="M229 0v82h343v1326h-343v81h775v-81h-343v-1326h343v-82h-775zM935 2020q0 -326 -172 -326q-56 0 -96 36q-41 36 -81 124q-40 86 -64 113t-55 27q-97 0 -95 -261v-20h-74v28q0 326 171 326q58 -1 96 -35t80 -120t67 -115q25 -30 53 -30q95 0 95 261v20h75v-28z" />
    <glyph glyph-name="itilde.salt_serifs" unicode="&#xe029;" 
d="M661 82h376v-82h-465v1035h-377v82h466v-1035zM894 1648q0 -326 -172 -326q-56 0 -96 36t-80 122q-42 86 -66 114t-54 28q-97 0 -95 -261v-20h-74v27q0 326 171 326q58 0 96 -34t80 -120t67 -116t53 -29q95 0 95 260v21h75v-28z" />
    <glyph glyph-name="itilde.salt_serifs" unicode="&#x129;" 
d="M661 82h376v-82h-465v1035h-377v82h466v-1035zM894 1648q0 -326 -172 -326q-56 0 -96 36t-80 122q-42 86 -66 114t-54 28q-97 0 -95 -261v-20h-74v27q0 326 171 326q58 0 96 -34t80 -120t67 -116t53 -29q95 0 95 260v21h75v-28z" />
    <glyph glyph-name="Imacron" unicode="&#x12a;" 
d="M229 0v82h343v1326h-343v81h775v-81h-343v-1326h343v-82h-775zM315 1826v81h603v-81h-603z" />
    <glyph glyph-name="imacron.salt_serifs" unicode="&#xe02a;" 
d="M661 82h376v-82h-465v1035h-377v82h466v-1035zM274 1454v80h603v-80h-603z" />
    <glyph glyph-name="imacron.salt_serifs" unicode="&#x12b;" 
d="M661 82h376v-82h-465v1035h-377v82h466v-1035zM274 1454v80h603v-80h-603z" />
    <glyph glyph-name="Ibreve" unicode="&#x12c;" 
d="M229 0v82h343v1326h-343v81h775v-81h-343v-1326h343v-82h-775zM616 1663q-168 -1 -257 99t-91 288h91q1 -162 63 -234t194 -72t194 72q61 72 63 234h91q-2 -188 -91 -288t-257 -99z" />
    <glyph glyph-name="ibreve.salt_serifs" unicode="&#xe02b;" 
d="M661 82h376v-82h-465v1035h-377v82h466v-1035zM575 1290q-168 0 -257 100t-91 287h91q2 -161 64 -233t193 -72q132 0 194 72q61 72 63 233h91q-2 -187 -91 -287t-257 -100z" />
    <glyph glyph-name="ibreve.salt_serifs" unicode="&#x12d;" 
d="M661 82h376v-82h-465v1035h-377v82h466v-1035zM575 1290q-168 0 -257 100t-91 287h91q2 -161 64 -233t193 -72q132 0 194 72q61 72 63 233h91q-2 -187 -91 -287t-257 -100z" />
    <glyph glyph-name="Iogonek" unicode="&#x12e;" 
d="M229 0v82h343v1326h-343v81h775v-81h-343v-1326h343v-82h-312q-82 -77 -82 -163q1 -87 35 -121t108 -34t133 15v-82q-78 -17 -139 -15q-101 0 -163 56t-62 157t101 187h-394z" />
    <glyph glyph-name="iogonek.salt_serifs" unicode="&#xe02c;" 
d="M572 1035h-377v82h466v-1035h376v-82h-410q-82 -77 -82 -163q1 -87 35 -121t108 -34t133 15v-82q-78 -17 -140 -15q-101 0 -163 56t-62 147q0 122 116 208v1024zM706 1426q0 -67 -90 -67q-41 0 -65 14t-24 53v13q0 41 24 56t65 15t65 -15t25 -56v-13z" />
    <glyph glyph-name="iogonek.salt_serifs" unicode="&#x12f;" 
d="M572 1035h-377v82h466v-1035h376v-82h-410q-82 -77 -82 -163q1 -87 35 -121t108 -34t133 15v-82q-78 -17 -140 -15q-101 0 -163 56t-62 147q0 122 116 208v1024zM706 1426q0 -67 -90 -67q-41 0 -65 14t-24 53v13q0 41 24 56t65 15t65 -15t25 -56v-13z" />
    <glyph glyph-name="Idotaccent" unicode="&#x130;" 
d="M229 0v82h343v1326h-343v81h775v-81h-343v-1326h343v-82h-775zM706 1800q0 -67 -90 -67q-41 0 -65 14t-24 53v13q0 41 24 56t65 15t65 -15t25 -56v-13z" />
    <glyph glyph-name="dotlessi.salt_serifs" unicode="&#xe024;" 
d="M661 82h376v-82h-465v1035h-377v82h466v-1035z" />
    <glyph glyph-name="dotlessi.salt_serifs" unicode="&#x131;" 
d="M661 82h376v-82h-465v1035h-377v82h466v-1035z" />
    <glyph glyph-name="IJ" unicode="&#x132;" 
d="M778 -19q-154 0 -226 105.5t-83 343.5l91 11q13 -203 62.5 -290.5t157.5 -87.5t155.5 87.5t47.5 294.5v963h-365v81h454v-1042q0 -249 -70 -357.5t-224 -108.5zM251 0h-91v1489h91v-1489z" />
    <glyph glyph-name="ij.salt_serifs" unicode="&#xe02d;" 
d="M914 -9v1044h-223v82h314v-1141q0 -171 -83 -267t-228 -96q-99 0 -191 37l18 80q76 -35 172 -33q221 0 221 294zM354 0h-91v1117h91v-1117zM1039 1428q0 -67 -89 -67q-41 0 -66 14q-24 14 -24 53v13q0 41 24 56t66 15t65 -15q24 -15 24 -56v-13zM397 1428q0 -67 -88 -67
q-41 0 -65 14t-24 53v13q0 41 24 56t64 15t64 -15t25 -56v-13z" />
    <glyph glyph-name="ij.salt_serifs" unicode="&#x133;" 
d="M914 -9v1044h-223v82h314v-1141q0 -171 -83 -267t-228 -96q-99 0 -191 37l18 80q76 -35 172 -33q221 0 221 294zM354 0h-91v1117h91v-1117zM1039 1428q0 -67 -89 -67q-41 0 -66 14q-24 14 -24 53v13q0 41 24 56t66 15t65 -15q24 -15 24 -56v-13zM397 1428q0 -67 -88 -67
q-41 0 -65 14t-24 53v13q0 41 24 56t64 15t64 -15t25 -56v-13z" />
    <glyph glyph-name="Jcircumflex" unicode="&#x134;" 
d="M1004 484q0 -503 -423 -503q-207 0 -308 110t-111 345l89 11q13 -212 85 -298t245 -86t252 99t79 320v926h-381v81h473v-1005zM478 1718l-37 47l294 315h60l296 -315l-37 -47l-289 276z" />
    <glyph glyph-name="jcircumflex" unicode="&#x135;" 
d="M487 -303q122 0 189 80t67 243v1015h-479v82h568v-1108q0 -188 -95 -292t-264 -104q-119 0 -244 41l20 83q116 -40 238 -40zM439 1346l-37 47l294 314h60l296 -314l-37 -47l-289 276z" />
    <glyph glyph-name="Kcommaaccent" unicode="&#x136;" 
d="M320 747v-747h-91v1489h91v-662h138l531 662h115l-560 -690l554 -799h-113l-514 747h-151zM421 -559l164 373h145l-233 -373h-76z" />
    <glyph glyph-name="kcommaaccent" unicode="&#x137;" 
d="M404 547v-547h-89v1489h89v-862h169l350 490h105l-380 -521l376 -596h-102l-347 547h-171zM410 -559l163 373h146l-233 -373h-76z" />
    <glyph glyph-name="kgreenlandic" unicode="&#x138;" 
d="M406 546v-546h-91v1117h91v-490h167l350 490h105l-382 -521l378 -596h-102l-345 546h-171z" />
    <glyph glyph-name="Lacute" unicode="&#x139;" 
d="M315 0v1489h89v-1407h600v-82h-689zM406 1676l247 372h144l-317 -372h-74z" />
    <glyph glyph-name="lacute.salt_serifs_round" unicode="&#xe057;" 
d="M572 346v1062h-377v81h466v-1143q0 -272 171 -272q89 0 177 43l22 -80q-94 -46 -209 -46q-114 0 -182 94t-68 261zM391 1676l248 372h143l-317 -372h-74z" />
    <glyph glyph-name="lacute.salt_serifs_round" unicode="&#x13a;" 
d="M572 346v1062h-377v81h466v-1143q0 -272 171 -272q89 0 177 43l22 -80q-94 -46 -209 -46q-114 0 -182 94t-68 261zM391 1676l248 372h143l-317 -372h-74z" />
    <glyph glyph-name="Lcommaaccent" unicode="&#x13b;" 
d="M315 0v1489h89v-1407h600v-82h-689zM447 -559l164 373h145l-233 -373h-76z" />
    <glyph glyph-name="lcommaaccent.salt_serifs_round" unicode="&#xe058;" 
d="M572 346v1062h-377v81h466v-1143q0 -272 171 -272q89 0 177 43l22 -80q-94 -46 -209 -46q-114 0 -182 94t-68 261zM488 -559l164 373h145l-233 -373h-76z" />
    <glyph glyph-name="lcommaaccent.salt_serifs_round" unicode="&#x13c;" 
d="M572 346v1062h-377v81h466v-1143q0 -272 171 -272q89 0 177 43l22 -80q-94 -46 -209 -46q-114 0 -182 94t-68 261zM488 -559l164 373h145l-233 -373h-76z" />
    <glyph glyph-name="Lcaron" unicode="&#x13d;" 
d="M315 0v1489h89v-1407h600v-82h-689zM728 1035l140 454h121l-187 -454h-74z" />
    <glyph glyph-name="lcaron.salt_serifs_round" unicode="&#xe059;" 
d="M572 346v1062h-377v81h466v-1143q0 -272 171 -272q89 0 177 43l22 -80q-94 -46 -209 -46q-114 0 -182 94t-68 261zM961 1408l139 454h121l-186 -454h-74z" />
    <glyph glyph-name="lcaron.salt_serifs_round" unicode="&#x13e;" 
d="M572 346v1062h-377v81h466v-1143q0 -272 171 -272q89 0 177 43l22 -80q-94 -46 -209 -46q-114 0 -182 94t-68 261zM961 1408l139 454h121l-186 -454h-74z" />
    <glyph glyph-name="Ldot" unicode="&#x13f;" 
d="M315 0v1489h89v-1407h600v-82h-689zM1115 871q0 -67 -89 -67q-41 0 -65 14t-25 53v13q0 71 90 71q41 0 65 -15t24 -56v-13z" />
    <glyph glyph-name="ldot.salt_serifs_round" unicode="&#xe05a;" 
d="M572 346v1062h-377v81h466v-1143q0 -272 171 -272q89 0 177 43l22 -80q-94 -46 -209 -46q-114 0 -182 94t-68 261zM1216 680q0 -67 -91 -67q-40 0 -64 14t-24 53v13q0 41 24 55t65 15q90 0 90 -70v-13z" />
    <glyph glyph-name="ldot.salt_serifs_round" unicode="&#x140;" 
d="M572 346v1062h-377v81h466v-1143q0 -272 171 -272q89 0 177 43l22 -80q-94 -46 -209 -46q-114 0 -182 94t-68 261zM1216 680q0 -67 -91 -67q-40 0 -64 14t-24 53v13q0 41 24 55t65 15q90 0 90 -70v-13z" />
    <glyph glyph-name="Lslash" unicode="&#x141;" 
d="M315 1489h89v-666l428 162v-82l-428 -162v-659h600v-82h-689v707l-172 -65v82l172 65v700z" />
    <glyph glyph-name="lslash.salt_serifs_round" unicode="&#xe05b;" 
d="M572 346v360l-298 -90v82l298 89v621h-377v81h466v-675l296 89v-82l-296 -89v-386q0 -272 171 -272q89 0 177 43l22 -80q-94 -46 -209 -46t-182.5 94t-67.5 261z" />
    <glyph glyph-name="lslash.salt_serifs_round" unicode="&#x142;" 
d="M572 346v360l-298 -90v82l298 89v621h-377v81h466v-675l296 89v-82l-296 -89v-386q0 -272 171 -272q89 0 177 43l22 -80q-94 -46 -209 -46t-182.5 94t-67.5 261z" />
    <glyph glyph-name="Nacute" unicode="&#x143;" 
d="M315 0h-86v1489h97l590 -1327v1327h88v-1489h-108l-581 1303v-1303zM532 1676l248 372h143l-316 -372h-75z" />
    <glyph glyph-name="nacute" unicode="&#x144;" 
d="M668 1052q-198 0 -348 -190v-862h-91v1117h91v-173h17q48 88 141 140t200 52q149 0 237 -94t89 -256v-786h-92v767q0 141 -63 213t-181 72zM532 1303l248 373h143l-316 -373h-75z" />
    <glyph glyph-name="Ncommaaccent" unicode="&#x145;" 
d="M315 0h-86v1489h97l590 -1327v1327h88v-1489h-108l-581 1303v-1303zM387 -559l164 373h145l-232 -373h-77z" />
    <glyph glyph-name="ncommaaccent" unicode="&#x146;" 
d="M668 1052q-198 0 -348 -190v-862h-91v1117h91v-173h17q48 88 141 140t200 52q149 0 237 -94t89 -256v-786h-92v767q0 141 -63 213t-181 72zM419 -559l164 373h145l-233 -373h-76z" />
    <glyph glyph-name="Ncaron" unicode="&#x147;" 
d="M315 0h-86v1489h97l590 -1327v1327h88v-1489h-108l-581 1303v-1303zM618 1683l-296 315l37 46l289 -275l287 275l37 -46l-294 -315h-60z" />
    <glyph glyph-name="ncaron" unicode="&#x148;" 
d="M668 1052q-198 0 -348 -190v-862h-91v1117h91v-173h17q48 88 141 140t200 52q149 0 237 -94t89 -256v-786h-92v767q0 141 -63 213t-181 72zM622 1311l-296 314l37 47l289 -276l286 276l38 -47l-295 -314h-59z" />
    <glyph glyph-name="napostrophe" unicode="&#x149;" 
d="M668 1052q-198 0 -348 -190v-862h-91v1117h91v-173h17q48 88 141 140t200 52q149 0 237 -94t89 -256v-786h-92v767q0 141 -63 213t-181 72zM71 1303l247 373h144l-317 -373h-74z" />
    <glyph glyph-name="Eng" unicode="&#x14a;" 
d="M693 1508q143 0 227 -105t84 -290v-1070q0 -199 -95 -314.5t-261 -115.5q-130 0 -227 41l24 80q103 -39 197 -39q270 0 270 372v1002q0 348 -242 348q-101 0 -182.5 -56t-167.5 -177v-1184h-91v1489h91v-223h19q143 242 354 242z" />
    <glyph glyph-name="eng" unicode="&#x14b;" 
d="M337 944q99 192 363 192q134 0 219 -97t85 -270v-804q0 -179 -87 -265.5t-221 -86.5q-78 0 -175 31l23 84q73 -31 165 -31t147.5 69.5t55.5 222.5v778q0 140 -62 213.5t-182 73.5q-200 0 -348 -192v-862h-91v1117h91v-173h17z" />
    <glyph glyph-name="Omacron" unicode="&#x14c;" 
d="M615 63q176 0 254 107q77 107 77 340v462q0 238 -77 346t-253 108t-254 -108q-77 -108 -77 -346v-462q0 -233 77 -340t253 -107zM1037 510q0 -529 -420 -529t-422 529v462q0 536 421 536t421 -536v-462zM315 1826v81h603v-81h-603z" />
    <glyph glyph-name="omacron" unicode="&#x14d;" 
d="M616 63q151 0 224 80t72 248v328q0 171 -72 253q-73 82 -224 82q-152 0 -224 -82t-72 -253v-328q0 -168 72 -248t224 -80zM616 -19q-186 1 -286 107t-101 303v328q0 201 101 309q100 108 286 108t287 -108t101 -309v-328q0 -197 -101 -303t-287 -107zM315 1454v80h603
v-80h-603z" />
    <glyph glyph-name="Obreve" unicode="&#x14e;" 
d="M615 63q176 0 254 107q77 107 77 340v462q0 238 -77 346t-253 108t-254 -108q-77 -108 -77 -346v-462q0 -233 77 -340t253 -107zM1037 510q0 -529 -420 -529t-422 529v462q0 536 421 536t421 -536v-462zM616 1663q-168 -1 -257 99t-91 288h91q1 -162 63 -234t194 -72
t194 72q61 72 63 234h91q-2 -188 -91 -288t-257 -99z" />
    <glyph glyph-name="obreve" unicode="&#x14f;" 
d="M616 63q151 0 224 80t72 248v328q0 171 -72 253q-73 82 -224 82q-152 0 -224 -82t-72 -253v-328q0 -168 72 -248t224 -80zM616 -19q-186 1 -286 107t-101 303v328q0 201 101 309q100 108 286 108t287 -108t101 -309v-328q0 -197 -101 -303t-287 -107zM618 1290
q-168 0 -257 100t-91 287h91q2 -161 63 -233q62 -72 194 -72t194 72q61 72 63 233h91q-2 -187 -91 -287t-257 -100z" />
    <glyph glyph-name="Ohungarumlaut" unicode="&#x150;" 
d="M615 63q176 0 254 107q77 107 77 340v462q0 238 -77 346t-253 108t-254 -108q-77 -108 -77 -346v-462q0 -233 77 -340t253 -107zM1037 510q0 -529 -420 -529t-422 529v462q0 536 421 536t421 -536v-462zM387 1676l97 372h158l-180 -372h-75zM717 1676l95 372h158
l-181 -372h-72z" />
    <glyph glyph-name="ohungarumlaut" unicode="&#x151;" 
d="M616 63q151 0 224 80t72 248v328q0 171 -72 253q-73 82 -224 82q-152 0 -224 -82t-72 -253v-328q0 -168 72 -248t224 -80zM616 -19q-186 1 -286 107t-101 303v328q0 201 101 309q100 108 286 108t287 -108t101 -309v-328q0 -197 -101 -303t-287 -107zM385 1303l97 373
h158l-180 -373h-75zM715 1303l95 373h158l-180 -373h-73z" />
    <glyph glyph-name="OE" unicode="&#x152;" 
d="M488 82h177v1326h-177q-162 0 -247 -117.5t-85 -342.5v-414q0 -222 85 -337t247 -115zM488 0q-195 0 -308 142.5t-113 391.5v414q0 253 111.5 397t307.5 144h687v-81h-419v-553h419v-82h-419v-691h419v-82h-685z" />
    <glyph glyph-name="oe" unicode="&#x153;" 
d="M572 719q0 335 -144.5 335t-190 -81t-45.5 -254v-328q0 -175 45.5 -251.5t140.5 -76.5t144.5 76.5t49.5 251.5v328zM847 1052q-186 0 -186 -335v-90h380v73q0 184 -48.5 268t-145.5 84zM661 393q1 -330 179 -330q88 0 127.5 43t73.5 143l80 -27q-76 -241 -261 -241
q-95 0 -160 52.5t-84 145.5q-26 -93 -92 -145.5t-148 -52.5q-132 0 -203 105.5t-71 304.5v328q0 203 71 310t205 107q82 0 149 -49.5t91 -138.5q28 89 91.5 138.5t139.5 49.5q136 0 208.5 -111t72.5 -321v-155h-469v-156z" />
    <glyph glyph-name="Racute" unicode="&#x154;" 
d="M1087 977q0 -365 -327 -391l352 -586h-101l-348 585h-343v-585h-91v1489h475q383 0 383 -392v-120zM320 667h382q158 -1 227 73t69 241v108q0 169 -69 243t-227 76h-382v-741zM620 1676l248 372h143l-317 -372h-74z" />
    <glyph glyph-name="racute" unicode="&#x155;" 
d="M404 0h-89v1117h89v-173h19q113 192 309 192q134 0 211 -79t77 -225v-132h-91v129q0 102 -50 163t-160 62q-182 0 -315 -201v-853zM564 1303l248 373h143l-316 -373h-75z" />
    <glyph glyph-name="Rcommaaccent" unicode="&#x156;" 
d="M1087 977q0 -365 -327 -391l352 -586h-101l-348 585h-343v-585h-91v1489h475q383 0 383 -392v-120zM320 667h382q158 -1 227 73t69 241v108q0 169 -69 243t-227 76h-382v-741zM393 -559l164 373h145l-233 -373h-76z" />
    <glyph glyph-name="rcommaaccent" unicode="&#x157;" 
d="M404 0h-89v1117h89v-173h19q113 192 309 192q134 0 211 -79t77 -225v-132h-91v129q0 102 -50 163t-160 62q-182 0 -315 -201v-853zM212 -559l164 373h145l-232 -373h-77z" />
    <glyph glyph-name="Rcaron" unicode="&#x158;" 
d="M1087 977q0 -365 -327 -391l352 -586h-101l-348 585h-343v-585h-91v1489h475q383 0 383 -392v-120zM320 667h382q158 -1 227 73t69 241v108q0 169 -69 243t-227 76h-382v-741zM594 1683l-296 315l37 46l289 -275l286 275l38 -46l-295 -315h-59z" />
    <glyph glyph-name="rcaron" unicode="&#x159;" 
d="M404 0h-89v1117h89v-173h19q113 192 309 192q134 0 211 -79t77 -225v-132h-91v129q0 102 -50 163t-160 62q-182 0 -315 -201v-853zM653 1311l-296 314l38 47l288 -276l287 276l37 -47l-294 -314h-60z" />
    <glyph glyph-name="Sacute" unicode="&#x15a;" 
d="M1054 380q0 -173 -116 -282t-284 -109t-279 55t-198 155l58 62q89 -95 183 -143t230 -47q136 0 228 84q92 85 92 223t-76 213t-278 137t-298 152t-96 251t109 263t282 103q235 0 407 -196l-55 -63q-80 86 -161 132t-206 45q-125 0 -207 -75t-82 -204t78 -198t279 -133
q202 -64 296 -158t94 -267zM499 1676l248 372h143l-317 -372h-74z" />
    <glyph glyph-name="sacute" unicode="&#x15b;" 
d="M318 839q0 -103 66 -153t258 -88q194 -38 281 -110t87 -204t-104 -218q-103 -86 -269 -85q-254 0 -443 151l46 73q174 -140 397 -142q132 0 208 59q77 58 77 158t-66 148t-259 88t-281 114q-88 72 -87 204q0 132 94 216q94 86 245 86q212 0 393 -142l-43 -71
q-165 129 -350 131q-114 0 -182 -56t-68 -159zM495 1303l248 373h143l-316 -373h-75z" />
    <glyph glyph-name="Scircumflex" unicode="&#x15c;" 
d="M1054 380q0 -173 -116 -282t-284 -109t-279 55t-198 155l58 62q89 -95 183 -143t230 -47q136 0 228 84q92 85 92 223t-76 213t-278 137t-298 152t-96 251t109 263t282 103q235 0 407 -196l-55 -63q-80 86 -161 132t-206 45q-125 0 -207 -75t-82 -204t78 -198t279 -133
q202 -64 296 -158t94 -267zM330 1718l-38 47l294 315h60l296 -315l-37 -47l-289 276z" />
    <glyph glyph-name="scircumflex" unicode="&#x15d;" 
d="M318 839q0 -103 66 -153t258 -88q194 -38 281 -110t87 -204t-104 -218q-103 -86 -269 -85q-254 0 -443 151l46 73q174 -140 397 -142q132 0 208 59q77 58 77 158t-66 148t-259 88t-281 114q-88 72 -87 204q0 132 94 216q94 86 245 86q212 0 393 -142l-43 -71
q-165 129 -350 131q-114 0 -182 -56t-68 -159zM324 1346l-37 47l294 314h59l296 -314l-37 -47l-288 276z" />
    <glyph glyph-name="Scedilla" unicode="&#x15e;" 
d="M797 -181q-1 -109 -63 -165t-166 -56t-164 47q-61 47 -69 160l86 7q7 -74 38 -106t105 -32t109 32q34 32 34 109t-30 115t-84 60q-246 14 -416 209l58 62q89 -95 183 -143t230 -47q136 0 228 84q92 85 92 223t-76 213t-278 137t-298 152t-96 251t109 263t282 103
q235 0 407 -196l-55 -63q-80 86 -161 132t-206 45q-125 0 -207 -75t-82 -204t78 -198t279 -133q202 -64 296 -158t94 -267t-117 -282q-95 -89 -235 -106q95 -65 95 -173z" />
    <glyph glyph-name="scedilla" unicode="&#x15f;" 
d="M229 834q0 132 94 216q94 86 245 86q212 0 393 -142l-43 -71q-165 129 -350 131q-114 0 -182 -56t-68 -159t66 -153t258 -88q194 -38 281 -110t87 -204t-104 -217q-81 -67 -200 -82q85 -64 85 -169q0 -106 -62 -162q-61 -56 -165 -56t-166 47q-61 47 -68 160l85 7
q7 -74 38 -106t105 -32t109 32t35 109t-28 112t-69 55q-235 9 -411 150l46 73q174 -140 397 -142q132 0 208 59q77 58 77 158t-66 148t-259 88t-281 114q-88 72 -87 204z" />
    <glyph glyph-name="Scaron" unicode="&#x160;" 
d="M1054 380q0 -173 -116 -282t-284 -109t-279 55t-198 155l58 62q89 -95 183 -143t230 -47q136 0 228 84q92 85 92 223t-76 213t-278 137t-298 152t-96 251t109 263t282 103q235 0 407 -196l-55 -63q-80 86 -161 132t-206 45q-125 0 -207 -75t-82 -204t78 -198t279 -133
q202 -64 296 -158t94 -267zM588 1683l-296 315l38 46l288 -275l287 275l37 -46l-294 -315h-60z" />
    <glyph glyph-name="scaron" unicode="&#x161;" 
d="M318 839q0 -103 66 -153t258 -88q194 -38 281 -110t87 -204t-104 -218q-103 -86 -269 -85q-254 0 -443 151l46 73q174 -140 397 -142q132 0 208 59q77 58 77 158t-66 148t-259 88t-281 114q-88 72 -87 204q0 132 94 216q94 86 245 86q212 0 393 -142l-43 -71
q-165 129 -350 131q-114 0 -182 -56t-68 -159zM583 1311l-296 314l37 47l289 -276l286 276l37 -47l-294 -314h-59z" />
    <glyph glyph-name="Tcedilla" unicode="&#x162;" 
d="M572 0v1408h-429v81h946v-81h-428v-1387q57 -22 103 -72t46 -144q0 -95 -62 -151t-166 -56t-165 47t-69 160l86 7q7 -74 38 -106q32 -32 106 -32t108 32t34 109t-33 119q-34 42 -108 66h-7z" />
    <glyph glyph-name="tcedilla" unicode="&#x163;" 
d="M905 -183q-1 -107 -63 -163t-166 -56t-164 47q-61 47 -69 160l86 7q7 -74 38 -106t105 -32t109 32q34 32 34 109t-33 119q-34 42 -108 66l1 2q-70 24 -119 78q-88 97 -89 268v687h-288v82h288v372h92v-372h445v-82h-445v-670q0 -298 253 -298q99 0 193 47l19 -80
q-102 -45 -202 -50q83 -61 83 -167z" />
    <glyph glyph-name="Tcaron" unicode="&#x164;" 
d="M572 0v1408h-429v81h946v-81h-428v-1408h-89zM586 1683l-296 315l38 46l288 -275l287 275l37 -46l-294 -315h-60z" />
    <glyph glyph-name="tcaron" unicode="&#x165;" 
d="M801 -17q-156 0 -245 97q-88 97 -89 268v687h-288v82h288v372h92v-372h445v-82h-445v-670q0 -298 253 -298q99 0 193 47l19 -80q-115 -51 -223 -51zM819 1408l140 454h121l-186 -454h-75z" />
    <glyph glyph-name="Tbar" unicode="&#x166;" 
d="M229 626v80h343v702h-429v81h946v-81h-428v-702h343v-80h-343v-626h-89v626h-343z" />
    <glyph glyph-name="tbar" unicode="&#x167;" 
d="M801 -17q-156 0 -245 97t-89 268v222h-288v80h288v385h-288v82h288v372h92v-372h445v-82h-445v-385h437v-80h-437v-205q0 -151 62 -224.5t176 -73.5t208 47l19 -80q-115 -51 -223 -51z" />
    <glyph glyph-name="Utilde" unicode="&#x168;" 
d="M1004 503q0 -522 -388 -522t-387 522v986h91v-986q0 -231 69 -335t227 -104t227 104t69 335v986h92v-986zM935 2020q0 -326 -172 -326q-56 0 -96 36q-41 36 -81 124q-40 86 -64 113t-55 27q-97 0 -95 -261v-20h-74v28q0 326 171 326q58 -1 96 -35t80 -120t67 -115
q25 -30 53 -30q95 0 95 261v20h75v-28z" />
    <glyph glyph-name="utilde" unicode="&#x169;" 
d="M229 344v773h91v-743q0 -153 62 -232t182 -79q194 0 348 192v862h92v-1117h-92v173h-16q-123 -192 -341 -192q-147 0 -237 99q-89 99 -89 264zM935 1648q0 -326 -172 -326q-56 0 -96 36q-41 36 -81 122t-64 114t-55 28q-97 0 -95 -261v-20h-74v27q0 326 171 326
q58 0 96 -34t80 -120t67 -116t53 -29q95 0 95 260v21h75v-28z" />
    <glyph glyph-name="Umacron" unicode="&#x16a;" 
d="M1004 503q0 -522 -388 -522t-387 522v986h91v-986q0 -231 69 -335t227 -104t227 104t69 335v986h92v-986zM315 1826v81h603v-81h-603z" />
    <glyph glyph-name="umacron" unicode="&#x16b;" 
d="M229 344v773h91v-743q0 -153 62 -232t182 -79q194 0 348 192v862h92v-1117h-92v173h-16q-123 -192 -341 -192q-147 0 -237 99q-89 99 -89 264zM315 1454v80h603v-80h-603z" />
    <glyph glyph-name="Ubreve" unicode="&#x16c;" 
d="M1004 503q0 -522 -388 -522t-387 522v986h91v-986q0 -231 69 -335t227 -104t227 104t69 335v986h92v-986zM616 1663q-168 -1 -257 99t-91 288h91q1 -162 63 -234t194 -72t194 72q61 72 63 234h91q-2 -188 -91 -288t-257 -99z" />
    <glyph glyph-name="ubreve" unicode="&#x16d;" 
d="M229 344v773h91v-743q0 -153 62 -232t182 -79q194 0 348 192v862h92v-1117h-92v173h-16q-123 -192 -341 -192q-147 0 -237 99q-89 99 -89 264zM618 1290q-168 0 -257 100t-91 287h91q2 -161 63 -233q62 -72 194 -72t194 72q61 72 63 233h91q-2 -187 -91 -287t-257 -100z
" />
    <glyph glyph-name="Uring" unicode="&#x16e;" 
d="M1004 503q0 -522 -388 -522t-387 522v986h91v-986q0 -231 69 -335t227 -104t227 104t69 335v986h92v-986zM616 1722q82 0 119 45t38 145v71q1 102 -37 149q-38 46 -120 46t-119 -46t-37 -149v-71q0 -102 37 -146t119 -44zM616 1648q-117 0 -178 68t-62 196v71
q0 130 62 200t178 70t178 -70t62 -200v-71q0 -128 -62 -196t-178 -68z" />
    <glyph glyph-name="uring" unicode="&#x16f;" 
d="M229 344v773h91v-743q0 -153 62 -232t182 -79q194 0 348 192v862h92v-1117h-92v173h-16q-123 -192 -341 -192q-147 0 -237 99q-89 99 -89 264zM618 1350q82 0 119 45t38 145v70q1 102 -37 149t-120 47t-119 -47t-37 -149v-70q0 -102 37 -146t119 -44zM618 1275
q-117 0 -179 68q-61 68 -61 197v70q0 130 61 200t179 70t179 -69q61 -70 61 -201v-70q0 -128 -61 -197q-62 -68 -179 -68z" />
    <glyph glyph-name="Uhungarumlaut" unicode="&#x170;" 
d="M1004 503q0 -522 -388 -522t-387 522v986h91v-986q0 -231 69 -335t227 -104t227 104t69 335v986h92v-986zM404 1676l97 372h158l-181 -372h-74zM734 1676l95 372h158l-181 -372h-72z" />
    <glyph glyph-name="uhungarumlaut" unicode="&#x171;" 
d="M229 344v773h91v-743q0 -153 62 -232t182 -79q194 0 348 192v862h92v-1117h-92v173h-16q-123 -192 -341 -192q-147 0 -237 99q-89 99 -89 264zM419 1303l97 373h158l-181 -373h-74zM748 1303l95 373h159l-181 -373h-73z" />
    <glyph glyph-name="Uogonek" unicode="&#x172;" 
d="M719 -400q-86 0 -148 56q-63 56 -63 152t83 174q-362 16 -362 521v986h91v-986q0 -231 69 -335t227 -104t227 104t69 335v986h92v-986q0 -261 -90 -383t-252 -137q-65 -69 -65 -150q1 -83 35 -117t108 -34t133 15v-82q-68 -15 -154 -15z" />
    <glyph glyph-name="uogonek" unicode="&#x173;" 
d="M229 344v773h91v-743q0 -153 62 -232t182 -79q194 0 348 192v862h92v-1062l13 -12q-7 -5 -13 -9v-34h-42q-82 -77 -82 -163q1 -87 35 -121t108 -34t133 15v-82q-78 -17 -139 -15q-101 0 -163 56t-63 147q0 123 121 212v158h-16q-123 -192 -341 -192q-147 0 -237 99
q-89 99 -89 264z" />
    <glyph glyph-name="Wcircumflex" unicode="&#x174;" 
d="M851 0l-233 1011l-236 -1011h-90l-177 1489h84l153 -1323l221 970h95l218 -954l144 1307h87l-177 -1489h-89zM328 1718l-38 47l295 315h59l296 -315l-37 -47l-289 276z" />
    <glyph glyph-name="wcircumflex" unicode="&#x175;" 
d="M815 0l-199 795l-192 -795h-98l-225 1117h93l184 -983l182 797h107l191 -775l181 961h93l-225 -1117h-92zM330 1346l-38 47l294 314h60l296 -314l-37 -47l-289 276z" />
    <glyph glyph-name="Ycircumflex" unicode="&#x176;" 
d="M661 0h-89v559l-490 930h102l436 -837l428 837h101l-488 -930v-559zM328 1718l-38 47l295 315h59l296 -315l-37 -47l-289 276z" />
    <glyph glyph-name="ycircumflex" unicode="&#x177;" 
d="M317 -384q-49 0 -125 13l13 82q75 -15 144 -15q70 1 121 48t98 182l24 74h-22l-384 1117h93l347 -1020l331 1020h89l-402 -1214q-52 -155 -128 -221t-199 -66zM328 1346l-38 47l295 314h59l296 -314l-37 -47l-289 276z" />
    <glyph glyph-name="Ydieresis" unicode="&#x178;" 
d="M661 0h-89v559l-490 930h102l436 -837l428 837h101l-488 -930v-559zM797 1733q-35 0 -58 13q-22 13 -22 54v13q0 41 22 56q21 15 57 15t58 -15t21 -56v-13q1 -41 -21 -54t-57 -13zM357 1813q0 71 79 71t80 -71v-13q0 -41 -22 -54t-58 -13q-35 0 -57 13q-21 13 -22 54v13z
" />
    <glyph glyph-name="Zacute" unicode="&#x179;" 
d="M1054 0h-859v82l755 1326h-755v81h859v-81l-756 -1326h756v-82zM549 1676l248 372h143l-316 -372h-75z" />
    <glyph glyph-name="zacute" unicode="&#x17a;" 
d="M968 0h-704v82l604 953h-604v82h704v-82l-607 -953h607v-82zM503 1303l247 373h144l-317 -373h-74z" />
    <glyph glyph-name="Zdotaccent" unicode="&#x17b;" 
d="M1054 0h-859v82l755 1326h-755v81h859v-81l-756 -1326h756v-82zM706 1800q0 -67 -90 -67q-41 0 -65 14t-24 53v13q0 41 24 56t65 15t65 -15t25 -56v-13z" />
    <glyph glyph-name="zdotaccent" unicode="&#x17c;" 
d="M968 0h-704v82l604 953h-604v82h704v-82l-607 -953h607v-82zM711 1428q0 -67 -89 -67q-41 0 -65 14t-25 53v13q0 71 90 71q41 0 65 -15t24 -56v-13z" />
    <glyph glyph-name="Zcaron" unicode="&#x17d;" 
d="M1054 0h-859v82l755 1326h-755v81h859v-81l-756 -1326h756v-82zM586 1683l-296 315l38 46l288 -275l287 275l37 -46l-294 -315h-60z" />
    <glyph glyph-name="zcaron" unicode="&#x17e;" 
d="M968 0h-704v82l604 953h-604v82h704v-82l-607 -953h607v-82zM585 1311l-296 314l37 47l288 -276l287 276l37 -47l-294 -314h-59z" />
    <glyph glyph-name="longs" unicode="&#x17f;" 
d="M822 1424q-161 0 -161 -221v-1203h-89v1035h-205v82h205v84q0 145 71 224t175 79t186 -41l-19 -76q-87 37 -163 37z" />
    <glyph glyph-name="florin" unicode="&#x192;" 
d="M830 1426q-91 0 -130 -57.5t-39 -201.5v-283h376v-74h-376v-518q0 -140 -72 -221.5t-186 -81.5t-209 41l20 78q96 -37 189 -37q92 0 130.5 57.5t38.5 202.5v479h-360v74h360v321q0 136 72.5 219.5t189.5 83.5t205 -41l-21 -78q-97 37 -188 37z" />
    <glyph glyph-name="Aringacute" unicode="&#x1fa;" 
d="M1007 0l-138 467h-512l-137 -467h-93l456 1489h67l458 -1489h-101zM847 547l-233 790l-232 -790h465zM618 1722q82 0 119 45t38 145v71q1 102 -37 149q-38 46 -120 46t-119 -46t-37 -149v-71q0 -102 37 -146t119 -44zM858 1983v-71q0 -128 -62 -196t-178 -68
q-117 0 -179 68q-61 68 -61 196v71q0 129 60 199t176 71l235 354h143l-306 -361q172 -37 172 -263z" />
    <glyph glyph-name="aringacute" unicode="&#x1fb;" 
d="M849 173q-113 -192 -365 -192q-134 0 -222 85q-88 86 -88 228t75 219q76 77 218 77h363v218q0 106 -67 176t-196 70t-188 -46t-94 -168l-82 24q41 145 125 208q84 64 243 64t255 -87t96 -239v-518q0 -145 44 -189t160 -21v-86q-238 -39 -260 177h-17zM510 58
q194 0 320 177v279h-361q-97 0 -155 -45t-59 -162t61 -183t194 -66zM583 1350q82 0 119 45t37 145v70q0 102 -37 149t-119 47t-119 -47t-38 -149v-70q0 -102 38 -146t119 -44zM823 1540q1 -128 -61 -196t-179 -69q-117 0 -179 68q-61 68 -61 197v70q1 130 61 200t172 70
l236 354h143l-306 -360q172 -37 174 -264v-70z" />
    <glyph glyph-name="AEacute" unicode="&#x1fc;" 
d="M665 467h-406l-127 -467h-82l406 1489h700v-81h-402v-568h385v-82h-385v-676h402v-82h-491v467zM665 549v859h-153l-229 -859h382zM719 1676l247 372h144l-317 -372h-74z" />
    <glyph glyph-name="aeacute" unicode="&#x1fd;" 
d="M365 58q125 0 216 124v330h-203q-186 0 -186 -201q0 -253 173 -253zM1041 760q-1 294 -187 294t-186 -278v-149h373v133zM102 288q0 140 67 219t174 79h238v194q0 126 -46 200t-136 74t-126 -40t-64 -139l-77 26q20 112 86 173q66 62 164 62q99 0 164 -47t83 -130
q25 80 89 128t138 49q126 0 200 -92t74 -281v-214h-462v-216q0 -143 46 -206t138 -63t131 38q39 39 60 146l80 -21q-47 -246 -247 -246q-181 0 -247 162h-11q-110 -162 -268 -162q-114 0 -181 84q-67 83 -67 223zM588 1303l248 373h143l-316 -373h-75z" />
    <glyph glyph-name="Oslashacute" unicode="&#x1fe;" 
d="M1037 516q0 -535 -421 -535q-143 0 -232 58l-66 -177h-91l88 231q-120 130 -120 423v450q0 542 423 542q124 0 201 -43l60 162h91l-78 -208q145 -125 145 -453v-450zM616 63q179 1 254 105t76 348v450q0 270 -88 373l-445 -1224q74 -52 203 -52zM616 1426
q-179 0 -255 -106t-76 -354v-450q0 -230 65 -337l439 1212q-64 35 -173 35zM564 1676l248 372h143l-316 -372h-75z" />
    <glyph glyph-name="oslashacute" unicode="&#x1ff;" 
d="M1004 719v-328q0 -209 -104 -309t-284 -101q-115 0 -203 45l-76 -164h-84l97 205q-121 104 -121 324v328q0 210 105 313t284 104q121 0 201 -45l78 164h84l-97 -207q120 -111 120 -329zM912 391v328q0 166 -69 249l-392 -869q61 -36 165 -36q148 1 222 77t74 251z
M320 391q0 -164 69 -246l395 870q-70 39 -168 39q-147 0 -221 -81t-75 -254v-328zM503 1303l247 373h144l-317 -373h-74z" />
    <glyph glyph-name="Scommaaccent" unicode="&#x218;" 
d="M1054 380q0 -173 -116 -282t-284 -109t-279 55t-198 155l58 62q89 -95 183 -143t230 -47q136 0 228 84q92 85 92 223t-76 213t-278 137t-298 152t-96 251t109 263t282 103q235 0 407 -196l-55 -63q-80 86 -161 132t-206 45q-125 0 -207 -75t-82 -204t78 -198t279 -133
q202 -64 296 -158t94 -267zM385 -559l164 373h145l-232 -373h-77z" />
    <glyph glyph-name="scommaaccent" unicode="&#x219;" 
d="M318 839q0 -103 66 -153t258 -88q194 -38 281 -110t87 -204t-104 -218q-103 -86 -269 -85q-254 0 -443 151l46 73q174 -140 397 -142q132 0 208 59q77 58 77 158t-66 148t-259 88t-281 114q-88 72 -87 204q0 132 94 216q94 86 245 86q212 0 393 -142l-43 -71
q-165 129 -350 131q-114 0 -182 -56t-68 -159zM385 -559l164 373h145l-232 -373h-77z" />
    <glyph glyph-name="Tcommaaccent" unicode="&#x21a;" 
d="M572 0v1408h-429v81h946v-81h-428v-1408h-89zM384 -559l163 373h146l-233 -373h-76z" />
    <glyph glyph-name="tcommaaccent" unicode="&#x21b;" 
d="M801 -17q-156 0 -245 97q-88 97 -89 268v687h-288v82h288v372h92v-372h445v-82h-445v-670q0 -298 253 -298q99 0 193 47l19 -80q-115 -51 -223 -51zM423 -559l163 373h146l-233 -373h-76z" />
    <glyph glyph-name="dotlessj" unicode="&#xf6be;" 
d="M487 -303q122 0 189 80t67 243v1015h-479v82h568v-1108q0 -188 -95 -292t-264 -104q-119 0 -244 41l20 83q116 -40 238 -40z" />
    <glyph glyph-name="dotlessj" unicode="&#x237;" 
d="M487 -303q122 0 189 80t67 243v1015h-479v82h568v-1108q0 -188 -95 -292t-264 -104q-119 0 -244 41l20 83q116 -40 238 -40z" />
    <glyph glyph-name="quoteleft" unicode="&#x2018;" 
d="M458 840l303 649h81l-203 -649h-181z" />
    <glyph glyph-name="quoteleft" unicode="&#x2bb;" 
d="M458 840l303 649h81l-203 -649h-181z" />
    <glyph glyph-name="circumflex" unicode="&#x2c6;" 
d="M328 1346l-38 47l295 314h59l296 -314l-37 -47l-289 276z" />
    <glyph glyph-name="caron" unicode="&#x2c7;" 
d="M586 1311l-296 314l38 47l288 -276l287 276l37 -47l-294 -314h-60z" />
    <glyph glyph-name="breve" unicode="&#x2d8;" 
d="M616 1290q-168 0 -257 100t-91 287h91q1 -161 63 -233t194 -72t194 72q61 72 63 233h91q-2 -187 -91 -287t-257 -100z" />
    <glyph glyph-name="dotaccent" unicode="&#x2d9;" 
d="M706 1428q0 -67 -90 -67q-41 0 -65 14t-24 53v13q0 41 24 56t65 15t65 -15t25 -56v-13z" />
    <glyph glyph-name="ring" unicode="&#x2da;" 
d="M616 1350q82 0 119 45t38 145v70q1 102 -37 149t-120 47t-119 -47t-37 -149v-70q0 -102 37 -146t119 -44zM616 1275q-117 0 -178 68t-62 197v70q0 130 62 200t178 70q117 0 179 -69q61 -70 61 -201v-70q0 -128 -61 -197q-62 -68 -179 -68z" />
    <glyph glyph-name="ogonek" unicode="&#x2db;" 
d="M694 -400q-86 0 -148 56t-62 142t55 154q55 69 148 111l22 -20q-136 -93 -136 -218q1 -75 35 -109t108 -34t133 15v-82q-69 -15 -155 -15z" />
    <glyph glyph-name="tilde" unicode="&#x2dc;" 
d="M935 1648q0 -326 -172 -326q-56 0 -96 36q-41 36 -81 122t-64 114t-55 28q-97 0 -95 -261v-20h-74v27q0 326 171 326q58 0 96 -34t80 -120t67 -116t53 -29q95 0 95 260v21h75v-28z" />
    <glyph glyph-name="hungarumlaut" unicode="&#x2dd;" 
d="M417 1303l97 373h158l-180 -373h-75zM747 1303l95 373h158l-181 -373h-72z" />
    <glyph glyph-name="gravecmb" unicode="&#x300;" horiz-adv-x="0" 
d="M41 1303l-317 373h146l247 -373h-76z" />
    <glyph glyph-name="acutecmb" unicode="&#x301;" horiz-adv-x="0" 
d="M-119 1303l247 373h144l-317 -373h-74z" />
    <glyph glyph-name="circumflexcmb" unicode="&#x302;" horiz-adv-x="0" 
d="M-289 1346l-37 47l294 314h60l296 -314l-37 -47l-289 276z" />
    <glyph glyph-name="tildecmb" unicode="&#x303;" horiz-adv-x="0" 
d="M318 1648q0 -326 -171 -326q-56 0 -96.5 36.5t-80.5 122.5t-64.5 113.5t-54.5 27.5q-99 0 -95 -261v-20h-74v27q0 326 171 326q58 0 96 -34t80 -120t67 -115.5t53 -29.5q95 0 95 260v21h74v-28z" />
    <glyph glyph-name="macroncmb" unicode="&#x304;" horiz-adv-x="0" 
d="M-302 1454v80h604v-80h-604z" />
    <glyph glyph-name="brevecmb" unicode="&#x306;" horiz-adv-x="0" 
d="M0 1290q-168 0 -257 99.5t-91 287.5h91q2 -162 63.5 -233.5t193.5 -71.5t193.5 72t63.5 233h91q-2 -188 -91 -287.5t-257 -99.5z" />
    <glyph glyph-name="dotaccentcmb" unicode="&#x307;" horiz-adv-x="0" 
d="M89 1428q0 -67 -89 -67q-41 0 -65 14t-24 53v13q0 41 24 56t65 15t65 -15t24 -56v-13z" />
    <glyph glyph-name="dieresiscmb" unicode="&#x308;" horiz-adv-x="0" 
d="M180.5 1361q-35.5 0 -57.5 13t-22 54v13q0 41 22 56t57.5 15t57 -15t21.5 -56v-13q0 -41 -21.5 -54t-57 -13zM-180.5 1361q-35.5 0 -57 13t-21.5 54v13q0 41 21.5 56t57 15t57.5 -15t22 -56v-13q0 -41 -22 -54t-57.5 -13z" />
    <glyph glyph-name="ringcmb" unicode="&#x30a;" horiz-adv-x="0" 
d="M0 1350q82 0 119 44.5t37 145.5v70q0 102 -37 149t-119 47t-119 -46.5t-37 -149.5v-70q0 -101 37 -145.5t119 -44.5zM0 1275q-117 0 -178.5 68t-61.5 197v70q0 130 61.5 200t178.5 70t178.5 -69.5t61.5 -200.5v-70q0 -128 -61.5 -196.5t-178.5 -68.5z" />
    <glyph glyph-name="hungarumlautcmb" unicode="&#x30b;" horiz-adv-x="0" 
d="M-199 1303l97 373h158l-181 -373h-74zM130 1303l95 373h159l-181 -373h-73z" />
    <glyph glyph-name="caroncmb" unicode="&#x30c;" horiz-adv-x="0" 
d="M-30 1311l-296 314l37 47l289 -276l287 276l37 -47l-294 -314h-60z" />
    <glyph glyph-name="commaturnedabovecmb" unicode="&#x312;" horiz-adv-x="0" 
d="M-149 1303l233 373h74l-164 -373h-143z" />
    <glyph glyph-name="commaaccentcmb" unicode="&#x326;" horiz-adv-x="0" 
d="M-197 -559l163 373h146l-233 -373h-76z" />
    <glyph glyph-name="cedillacmb" unicode="&#x327;" horiz-adv-x="0" 
d="M179 -195q0 -94 -62.5 -150.5t-166.5 -56.5t-165 47.5t-68 159.5l86 7q7 -74 38 -106t105 -32t108.5 31t34.5 109t-33.5 120t-107.5 66l18 39q101 -20 157 -80t56 -154z" />
    <glyph glyph-name="ogonekcmb" unicode="&#x328;" horiz-adv-x="0" 
d="M78 -400q-86 0 -148 55.5t-62 141.5t55 154.5t148 111.5l22 -20q-136 -93 -136 -218q0 -74 34.5 -108.5t108.5 -34.5t133 15v-82q-69 -15 -155 -15z" />
    <glyph glyph-name="tonos" unicode="&#x384;" 
d="M521 1303l147 373h142l-214 -373h-75z" />
    <glyph glyph-name="dieresistonos" unicode="&#x385;" 
d="M977 1409q0 -67 -63 -67t-61 67v13q0 71 63 71t61 -71v-13zM380 1409q0 -67 -62 -67t-63 67v13q1 71 63 71t62 -71v-13zM523 1303l110 373h110l-147 -373h-73z" />
    <glyph glyph-name="Alphatonos" unicode="&#x386;" 
d="M1007 0l-138 467h-512l-137 -467h-93l456 1489h67l458 -1489h-101zM847 547l-233 790l-232 -790h465zM91 1303l147 373h142l-214 -373h-75z" />
    <glyph glyph-name="anoteleia" unicode="&#x387;" 
d="M737 715q0 -99 -111 -99t-110 99v52q0 102 110 102t111 -102v-52z" />
    <glyph glyph-name="Epsilontonos" unicode="&#x388;" 
d="M229 0v1489h808v-81h-717v-553h631v-80h-631v-693h717v-82h-808zM-147 1303l147 373h141l-214 -373h-74z" />
    <glyph glyph-name="Etatonos" unicode="&#x389;" 
d="M229 0v1489h91v-634h592v634h92v-1489h-92v775h-592v-775h-91zM-166 1303l147 373h142l-214 -373h-75z" />
    <glyph glyph-name="Iotatonos" unicode="&#x38a;" 
d="M229 0v82h343v1326h-343v81h775v-81h-343v-1326h343v-82h-775zM-166 1303l147 373h142l-214 -373h-75z" />
    <glyph glyph-name="Omicrontonos" unicode="&#x38c;" 
d="M292 510q0 -233 78 -340t253 -107q176 0 253 107t77 340v462q0 238 -77 346t-253 108t-253 -108t-78 -346v-462zM1044 510q0 -529 -420 -529t-421 529v462q0 536 423 536q418 0 418 -536v-462zM-17 1303l147 373h142l-214 -373h-75z" />
    <glyph glyph-name="Upsilontonos" unicode="&#x38e;" 
d="M661 0h-89v559l-490 930h102l436 -837l428 837h101l-488 -930v-559zM-214 1303l147 373h141l-214 -373h-74z" />
    <glyph glyph-name="Omegatonos" unicode="&#x38f;" 
d="M179 966q-1 542 437 542t438 -542v-201q0 -149 -53 -261t-169 -150v-272h222v-82h-311v410q125 35 173 123t48 232v201q0 246 -81 353t-267 107t-267 -107t-81 -353v-201q0 -143 48 -231t174 -124v-410h-311v82h221v272q-115 39 -168 151t-53 260v201zM-61 1303l147 373
h141l-214 -373h-74z" />
    <glyph glyph-name="iotadieresistonos" unicode="&#x390;" 
d="M572 346v689h-377v82h466v-771q0 -272 171 -272q89 0 177 43l22 -80q-94 -46 -209 -46q-114 0 -182 94t-68 261zM961 1409q-1 -67 -63 -67t-62 67v13q0 71 62 71t63 -71v-13zM363 1409q-1 -67 -63 -67t-62 67v13q0 71 62 71t63 -71v-13zM506 1303l110 373h110l-147 -373
h-73z" />
    <glyph glyph-name="Alpha" unicode="&#x391;" 
d="M1007 0l-138 467h-512l-137 -467h-93l456 1489h67l458 -1489h-101zM847 547l-233 790l-232 -790h465z" />
    <glyph glyph-name="Beta" unicode="&#x392;" 
d="M320 82h345q155 0 221 69t67 231v59q0 158 -67 228t-221 70h-345v-657zM320 819h309q145 -1 209 61t65 202v52q0 147 -64 210t-210 64h-309v-589zM229 0v1489h400q175 0 267 -90t93 -260v-83q-1 -101 -51 -172t-136 -87v-17q108 -11 175 -98t67 -218v-84q0 -184 -98 -282
t-285 -98h-432z" />
    <glyph glyph-name="Gamma" unicode="&#x393;" 
d="M229 0v1489h808v-81h-717v-1408h-91z" />
    <glyph glyph-name="Delta" unicode="&#x394;" 
d="M1013 82l-399 1270l-402 -1270h801zM127 0v82l448 1407h67l464 -1407v-82h-979z" />
    <glyph glyph-name="Epsilon" unicode="&#x395;" 
d="M229 0v1489h808v-81h-717v-553h631v-80h-631v-693h717v-82h-808z" />
    <glyph glyph-name="Zeta" unicode="&#x396;" 
d="M1054 0h-859v82l755 1326h-755v81h859v-81l-756 -1326h756v-82z" />
    <glyph glyph-name="Eta" unicode="&#x397;" 
d="M229 0v1489h91v-634h592v634h92v-1489h-92v775h-592v-775h-91z" />
    <glyph glyph-name="Theta" unicode="&#x398;" 
d="M477 719v80h277v-80h-277zM616.5 63q180.5 0 257 104.5t76.5 348.5v450q0 248 -76.5 354t-257 106t-257 -106t-76.5 -354v-450q0 -244 76.5 -348.5t257 -104.5zM1041 516q0 -535 -424.5 -535t-424.5 535v450q0 270 108 406t318 136q423 0 423 -542v-450z" />
    <glyph glyph-name="Iota" unicode="&#x399;" 
d="M229 0v82h343v1326h-343v81h775v-81h-343v-1326h343v-82h-775z" />
    <glyph glyph-name="Kappa" unicode="&#x39a;" 
d="M320 747v-747h-91v1489h91v-662h138l531 662h115l-560 -690l554 -799h-113l-514 747h-151z" />
    <glyph glyph-name="Lambda" unicode="&#x39b;" 
d="M1007 0l-393 1337l-394 -1337h-93l456 1489h67l458 -1489h-101z" />
    <glyph glyph-name="Mu" unicode="&#x39c;" 
d="M259 0h-90v1489h123l326 -1016l326 1016h119v-1489h-89v1331l-311 -959h-93l-311 967v-1339z" />
    <glyph glyph-name="Nu" unicode="&#x39d;" 
d="M315 0h-86v1489h97l590 -1327v1327h88v-1489h-108l-581 1303v-1303z" />
    <glyph glyph-name="Xi" unicode="&#x39e;" 
d="M195 0v82h842v-82h-842zM238 775v80h756v-80h-756zM195 1408v81h842v-81h-842z" />
    <glyph glyph-name="Omicron" unicode="&#x39f;" 
d="M615 63q176 0 254 107q77 107 77 340v462q0 238 -77 346t-253 108t-254 -108q-77 -108 -77 -346v-462q0 -233 77 -340t253 -107zM1037 510q0 -529 -420 -529t-422 529v462q0 536 421 536t421 -536v-462z" />
    <glyph glyph-name="Pi" unicode="&#x3a0;" 
d="M229 0v1489h775v-1489h-92v1408h-592v-1408h-91z" />
    <glyph glyph-name="Rho" unicode="&#x3a1;" 
d="M320 603h348q156 0 227 74q70 74 69 241v171q0 169 -69 244q-70 74 -227 75h-348v-805zM229 0v1489h441q188 -1 286 -101t98 -291v-183q0 -192 -99 -292t-287 -101h-348v-521h-91z" />
    <glyph glyph-name="Sigma" unicode="&#x3a3;" 
d="M1037 0h-858v82l586 685l-586 641v81h858v-81h-741l536 -596v-91l-538 -639h743v-82z" />
    <glyph glyph-name="Tau" unicode="&#x3a4;" 
d="M572 0v1408h-429v81h946v-81h-428v-1408h-89z" />
    <glyph glyph-name="Upsilon" unicode="&#x3a5;" 
d="M661 0h-89v559l-490 930h102l436 -837l428 837h101l-488 -930v-559z" />
    <glyph glyph-name="Phi" unicode="&#x3a6;" 
d="M477 249h95v991h-95q-127 0 -185 -88t-57 -284v-254q-1 -192 57 -278t185 -87zM758 1240h-97v-991h97q128 0 184 87t56 278v254q0 196 -56 284t-184 88zM758 168h-97v-205h-89v205h-95q-162 0 -248 114t-86 332v254q0 222 86 338t248 116h95v205h89v-205h97
q162 0 246 -116t85 -338v-254q-1 -218 -85 -332t-246 -114z" />
    <glyph glyph-name="Chi" unicode="&#x3a7;" 
d="M1030 0l-412 687l-421 -687h-98l473 769l-431 720h101l393 -655l402 655h97l-454 -733l450 -756h-100z" />
    <glyph glyph-name="Psi" unicode="&#x3a8;" 
d="M661 0h-89v397q-199 13 -291.5 136.5t-92.5 317.5v638h89v-638q0 -171 69 -258.5t226 -99.5v996h89v-996q156 11 225 99t69 259v638h89v-638q0 -194 -92 -317.5t-291 -136.5v-397z" />
    <glyph glyph-name="Omega" unicode="&#x3a9;" 
d="M616.5 1508q437.5 0 437.5 -542v-201q0 -149 -53 -260.5t-169 -150.5v-272h222v-82h-311v410q125 35 173 123.5t48 231.5v201q0 246 -81 353t-267 107t-267 -107t-81 -353v-201q0 -143 48.5 -231.5t173.5 -123.5v-410h-311v82h221v272q-115 39 -168 150.5t-53 260.5v201
q0 542 437.5 542z" />
    <glyph glyph-name="Iotadieresis" unicode="&#x3aa;" 
d="M229 0v82h343v1326h-343v81h775v-81h-343v-1326h343v-82h-775zM797 1733q-35 0 -58 13q-22 13 -22 54v13q0 41 22 56q21 15 57 15t58 -15t21 -56v-13q1 -41 -21 -54t-57 -13zM357 1813q0 71 79 71t80 -71v-13q0 -41 -22 -54t-58 -13q-35 0 -57 13q-21 13 -22 54v13z" />
    <glyph glyph-name="Upsilondieresis" unicode="&#x3ab;" 
d="M661 0h-89v559l-490 930h102l436 -837l428 837h101l-488 -930v-559zM797 1733q-35 0 -58 13q-22 13 -22 54v13q0 41 22 56q21 15 57 15t58 -15t21 -56v-13q1 -41 -21 -54t-57 -13zM357 1813q0 71 79 71t80 -71v-13q0 -41 -22 -54t-58 -13q-35 0 -57 13q-21 13 -22 54v13z
" />
    <glyph glyph-name="alphatonos" unicode="&#x3ac;" 
d="M542 -19q-153 0 -241 110t-89 302v331q0 192 88 302t242 110q89 0 169 -50t134 -142h17v173h89v-819q0 -149 41 -194t153 -24v-86q-123 -17 -185 30t-70 168h-19q-60 -102 -138 -157q-79 -54 -191 -54zM307 411q0 -346 244 -346q169 0 311 190v607q-141 188 -311 190
q-244 0 -244 -346v-295zM609 1303l147 373h141l-214 -373h-74z" />
    <glyph glyph-name="epsilontonos" unicode="&#x3ad;" 
d="M612 -19q-210 0 -312 80t-103 250v19q0 106 57 186t169 87v8q-91 6 -144 64q-52 59 -52 159v26q0 140 93 208t285 68t286 -71t105 -222l-87 -9q-13 121 -82 170q-69 50 -223 50t-220 -46q-65 -46 -66 -159v-26q0 -95 66 -135t227 -40h95v-78h-95q-188 0 -256 -47
t-68 -175v-18q0 -145 76 -206q75 -61 247 -61t243 54t85 186l90 -9q-11 -162 -109 -238q-97 -76 -307 -75zM523 1303l147 373h142l-214 -373h-75z" />
    <glyph glyph-name="etatonos" unicode="&#x3ae;" 
d="M668 1052q-198 0 -348 -190v-862h-91v1117h91v-173h17q48 88 141 140t200 52q149 0 237 -94t89 -256v-1158h-92v1139q0 141 -63 213t-181 72zM529 1303l147 373h141l-214 -373h-74z" />
    <glyph glyph-name="iotatonos" unicode="&#x3af;" 
d="M572 346v689h-377v82h466v-771q0 -272 171 -272q89 0 177 43l22 -80q-94 -46 -209 -46q-114 0 -182 94t-68 261zM514 1303l147 373h141l-214 -373h-74z" />
    <glyph glyph-name="upsilondieresistonos" unicode="&#x3b0;" 
d="M616 -19q-188 1 -288 107t-99 303v726h91v-726q0 -175 74 -251t222 -76t222 76t74 251v726h92v-726q0 -197 -100 -303t-288 -107zM977 1409q0 -67 -63 -67t-61 67v13q0 71 63 71t61 -71v-13zM380 1409q0 -67 -62 -67t-63 67v13q1 71 63 71t62 -71v-13zM523 1303l110 373
h110l-147 -373h-73z" />
    <glyph glyph-name="alpha" unicode="&#x3b1;" 
d="M212 393v331q0 192 88.5 302t241.5 110q89 0 169 -50.5t134 -141.5h17v173h89v-819q0 -149 41 -193.5t153 -24.5v-86q-123 -17 -185.5 30t-69.5 168h-19q-124 -211 -329 -211q-153 0 -241.5 110t-88.5 302zM307 411q0 -346 244 -346q169 0 311 190v607q-142 190 -311 190
q-244 0 -244 -346v-295z" />
    <glyph glyph-name="beta" unicode="&#x3b2;" 
d="M616 -19q-172 0 -296 62v-415h-91v1456q0 199 100.5 311.5t268.5 112.5t259 -96t91 -265v-60q0 -112 -53 -185t-148 -92v-15q121 -13 189 -98.5t68 -219.5v-93q0 -188 -108 -295.5t-280 -107.5zM909 387v90q0 145 -71 214t-222 69h-87v76h78q132 0 193.5 61.5t61.5 189.5
v45q0 153 -63 223.5t-201 70.5t-208 -82t-70 -259v-951q116 -74 277 -74q162 0 237 78t75 249z" />
    <glyph glyph-name="gamma" unicode="&#x3b3;" 
d="M667 -372h-101l7 394l-389 1095h101l331 -970l324 970h106l-387 -1095z" />
    <glyph glyph-name="delta" unicode="&#x3b4;" 
d="M320 575v-177q0 -179 70 -257t226.5 -78t226 78.5t69.5 256.5v196q0 123 -67 181.5t-288 131.5q-237 -124 -237 -332zM579 1408q-214 0 -214 -177q0 -101 57.5 -156t225.5 -109q209 -73 282.5 -149t73.5 -223v-196q0 -205 -100 -311t-288 -106t-287.5 106.5t-99.5 310.5
v177q0 233 257 360q-110 48 -160 119.5t-50 185.5t79 181.5t224 67.5h307v-81h-307z" />
    <glyph glyph-name="epsilon" unicode="&#x3b5;" 
d="M612 -19q-210 0 -312.5 80t-102.5 250v19q0 106 57 186t169 87v8q-91 6 -143.5 64.5t-52.5 158.5v26q0 141 93 208.5t285 67.5t286 -71t105 -222l-87 -9q-13 121 -82 170.5t-223 49.5t-220 -45.5t-66 -159.5v-26q0 -95 66.5 -135t226.5 -40h95v-78h-95q-188 0 -256 -46.5
t-68 -175.5v-18q0 -145 75.5 -206t247.5 -61t242.5 54t85.5 186l90 -9q-11 -162 -108.5 -237.5t-307.5 -75.5z" />
    <glyph glyph-name="zeta" unicode="&#x3b6;" 
d="M748 -372h-176v82h173q91 0 134 44.5t43 136.5t-43 137t-134 45h-145q-181 0 -279.5 103t-98.5 289q0 106 35 200.5t115 205.5l281 388l-5 11q-179 -19 -299 43.5t-150 190.5l80 21q24 -121 155.5 -167.5t300.5 7.5l267 141l39 -102l-276 -114l-331 -469
q-74 -106 -98.5 -176t-24.5 -170q0 -151 75.5 -235.5t213.5 -84.5h143q123 0 192 -71t69 -194t-68.5 -192.5t-187.5 -69.5z" />
    <glyph glyph-name="eta" unicode="&#x3b7;" 
d="M668 1052q-198 0 -348 -190v-862h-91v1117h91v-173h17q48 89 141.5 140.5t199.5 51.5q149 0 237.5 -94t88.5 -256v-1158h-92v1139q0 140 -63 212.5t-181 72.5z" />
    <glyph glyph-name="theta" unicode="&#x3b8;" 
d="M320 404q0 -341 296 -341t296 341v315h-592v-315zM616 1426q-296 0 -296 -348v-279h592v279q0 348 -296 348zM616.5 -19q-184.5 0 -286 110t-101.5 313v674q0 207 101.5 318.5t286.5 111.5t286 -111.5t101 -318.5v-674q0 -203 -101.5 -313t-286 -110z" />
    <glyph glyph-name="iota" unicode="&#x3b9;" 
d="M572 346v689h-377v82h466v-771q0 -272 171 -272q89 0 177 43l22 -80q-94 -46 -209 -46q-114 0 -182 94t-68 261z" />
    <glyph glyph-name="kappa" unicode="&#x3ba;" 
d="M406 546v-546h-91v1117h91v-490h167l350 490h105l-382 -521l378 -596h-102l-345 546h-171z" />
    <glyph glyph-name="lambda" unicode="&#x3bb;" 
d="M315 1501q123 0 199 -66.5t128 -220.5l404 -1214h-91l-331 1024l-347 -1024h-93l386 1117h22l-24 75q-47 132 -98 180.5t-125 48.5t-140 -15l-13 80q73 15 123 15z" />
    <glyph glyph-name="mu" unicode="&#x3bc;" 
d="M557 -19q-154 0 -237 146v-90l10 -409h-110l9 409v1080h91v-756q0 -141 62.5 -218.5t179.5 -77.5q169 0 283 144v908h90v-823q0 -147 35 -190t136 -24v-86q-106 -15 -162 25.5t-65 144.5h-15q-43 -69 -125 -126t-182 -57z" />
    <glyph glyph-name="nu" unicode="&#x3bd;" 
d="M629 84q296 571 332 1033h85q-28 -270 -124.5 -539t-271.5 -578h-67l-399 1117h97z" />
    <glyph glyph-name="xi" unicode="&#x3be;" 
d="M1037 -175q0 -197 -259 -197h-212v82h212q93 0 135 42.5t42 138.5t-42 139.5t-135 43.5h-178q-168 0 -269.5 86t-101.5 225v51q0 134 83 222.5t220 99.5v7q-91 0 -146 63.5t-55 157.5t49.5 165.5t129.5 107.5l-2 11q-145 -4 -247.5 59.5t-132.5 174.5l81 21
q30 -115 147 -161t284 -9l360 151l37 -102l-370 -119l-127 -67q-117 -61 -117 -220q0 -95 45.5 -147t129.5 -52h286v-80h-283q-136 0 -208.5 -66.5t-72.5 -188.5v-51q0 -125 72 -191.5t208 -66.5h176q128 0 194.5 -66.5t66.5 -263.5z" />
    <glyph glyph-name="omicron" unicode="&#x3bf;" 
d="M616 63q151 0 224 80t72 248v328q0 171 -72 253q-73 82 -224 82q-152 0 -224 -82t-72 -253v-328q0 -168 72 -248t224 -80zM616 -19q-186 1 -286 107t-101 303v328q0 201 101 309q100 108 286 108t287 -108t101 -309v-328q0 -197 -101 -303t-287 -107z" />
    <glyph glyph-name="pi" unicode="&#x3c0;" 
d="M1054 1117v-82h-205v-806q0 -104 44.5 -135t160.5 -14v-86q-156 -20 -225 37t-69 207v797h-373v-1035h-89v1035h-171v82h927z" />
    <glyph glyph-name="rho" unicode="&#x3c1;" 
d="M229 -372v1091q0 199 102.5 308t286.5 109t285 -109t101 -308v-326q0 -195 -88.5 -303.5t-250.5 -108.5q-101 0 -186.5 50.5t-139.5 141.5h-19v-545h-91zM912 411v308q0 171 -72.5 253t-223.5 82t-223.5 -82t-72.5 -253v-464q132 -182 341 -182q128 0 189.5 82.5
t61.5 255.5z" />
    <glyph glyph-name="sigma1" unicode="&#x3c2;" 
d="M229 707q-1 429 385 429q192 0 277 -81t98 -269l-80 -6q-9 155 -71 214.5t-222 59.5t-228 -76.5t-68 -258.5v-272q0 -179 65.5 -252.5t221.5 -73.5h145q257 0 257 -244q0 -127 -61.5 -188t-189.5 -61h-220v82h214q95 0 135 38t40 128t-40 125.5t-135 35.5h-145
q-194 0 -286 106t-92 322v242z" />
    <glyph glyph-name="sigma" unicode="&#x3c3;" 
d="M582 -19q-167 0 -260 108t-93 302v309q0 195 94 306t262 111h588v-100l-376 22q67 -47 102.5 -145.5t35.5 -230.5v-272q0 -194 -93 -302t-260 -108zM320 391q0 -328 262 -328t261 328v272q1 372 -261 372t-262 -335v-309z" />
    <glyph glyph-name="tau" unicode="&#x3c4;" 
d="M572 223v812h-343v82h791v-82h-359v-808q0 -106 41 -135t164 -12v-86q-156 -17 -225 36.5t-69 192.5z" />
    <glyph glyph-name="upsilon" unicode="&#x3c5;" 
d="M616 -19q-188 0 -287.5 106.5t-99.5 303.5v726h91v-726q0 -175 74.5 -251.5t221.5 -76.5t221.5 76.5t74.5 251.5v726h92v-726q0 -197 -100 -303.5t-288 -106.5z" />
    <glyph glyph-name="phi" unicode="&#x3c6;" 
d="M998 505v102q0 222 -84.5 325t-252.5 103v-968q337 34 337 438zM235 663v-158q0 -408 337 -438v1050h89q205 0 315.5 -133t110.5 -377v-102q0 -236 -116 -369.5t-310 -150.5v-357h-89v357q-194 17 -310.5 150t-116.5 370v158q0 284 140 473l84 -32q-134 -194 -134 -441z
" />
    <glyph glyph-name="chi" unicode="&#x3c7;" 
d="M907 -372l-296 672l-283 -672h-106l340 756l-329 733h100l287 -650l285 650h108l-345 -737l337 -752h-98z" />
    <glyph glyph-name="psi" unicode="&#x3c8;" 
d="M661 -372h-89v357q-210 13 -318.5 137t-108.5 345v650h90v-650q0 -197 79 -292t258 -108v1050h89v-1050q179 13 258 108t79 292v650h89v-650q0 -222 -108 -345.5t-318 -136.5v-357z" />
    <glyph glyph-name="omega" unicode="&#x3c9;" 
d="M395 -19q-117 0 -183.5 123t-66.5 345v156q0 162 33.5 309t74.5 216l78 -32q-28 -63 -62 -201.5t-34 -291.5v-156q0 -201 41.5 -293.5t127.5 -92.5t127 82t41 261v450h89v-450q0 -179 41 -261t128 -82t127.5 92.5t40.5 293.5v156q0 153 -34.5 291.5t-62.5 201.5l78 32
q41 -71 74.5 -217t33.5 -308v-156q0 -222 -66 -345t-183 -123q-78 0 -137 60.5t-83 165.5h-5q-24 -104 -82 -165t-136 -61z" />
    <glyph glyph-name="iotadieresis" unicode="&#x3ca;" 
d="M572 346v689h-377v82h466v-771q0 -272 171 -272q89 0 177 43l22 -80q-94 -46 -209 -46q-114 0 -182 94t-68 261zM709 1441q0 71 80 71q35 0 57 -15t22 -56v-13q0 -41 -22 -54t-57 -13t-57 13t-23 54v13zM428 1361q-35 0 -57 13q-21 13 -21 54v13q0 41 21 56t57 15
q80 0 80 -71v-13q0 -41 -22 -54t-58 -13z" />
    <glyph glyph-name="upsilondieresis" unicode="&#x3cb;" 
d="M616 -19q-188 1 -288 107t-99 303v726h91v-726q0 -175 74 -251t222 -76t222 76t74 251v726h92v-726q0 -197 -100 -303t-288 -107zM797 1361q-35 0 -58 13q-22 13 -22 54v13q0 41 22 56q21 15 57 15t58 -15t21 -56v-13q1 -41 -21 -54t-57 -13zM357 1441q0 71 79 71t80 -71
v-13q0 -41 -22 -54t-58 -13q-35 0 -57 13q-21 13 -22 54v13z" />
    <glyph glyph-name="omicrontonos" unicode="&#x3cc;" 
d="M616 63q151 0 224 80t72 248v328q0 171 -72 253q-73 82 -224 82q-152 0 -224 -82t-72 -253v-328q0 -168 72 -248t224 -80zM616 -19q-186 1 -286 107t-101 303v328q0 201 101 309q100 108 286 108t287 -108t101 -309v-328q0 -197 -101 -303t-287 -107zM521 1303l147 373
h142l-214 -373h-75z" />
    <glyph glyph-name="upsilontonos" unicode="&#x3cd;" 
d="M616 -19q-188 1 -288 107t-99 303v726h91v-726q0 -175 74 -251t222 -76t222 76t74 251v726h92v-726q0 -197 -100 -303t-288 -107zM521 1303l147 373h142l-214 -373h-75z" />
    <glyph glyph-name="omegatonos" unicode="&#x3ce;" 
d="M395 -19q-117 0 -184 123q-66 123 -66 345v156q0 162 34 309t74 216l78 -32q-28 -63 -62 -202t-34 -291v-156q0 -201 41 -293q42 -92 128 -93q86 0 127 82t41 261v450h89v-450q0 -179 41 -261t128 -82q88 0 128 92t40 294v156q0 153 -34 291t-63 202l78 32
q41 -71 75 -217t33 -308v-156q0 -222 -66 -345t-183 -123q-78 0 -137 61t-83 165h-5q-24 -104 -82 -165t-136 -61zM538 1303l147 373h142l-214 -373h-75z" />
    <glyph glyph-name="IEgravecyrillic" unicode="&#x400;" 
d="M229 0v1489h808v-81h-717v-553h631v-80h-631v-693h717v-82h-808zM704 1676l-317 372h145l248 -372h-76z" />
    <glyph glyph-name="Iocyrillic" unicode="&#x401;" 
d="M229 0v1489h808v-81h-717v-553h631v-80h-631v-693h717v-82h-808zM847 1733q-35 0 -58 13q-22 13 -22 54v13q0 41 22 56q21 15 57 15t58 -15t21 -56v-13q1 -41 -21 -54t-57 -13zM486 1733q-35 0 -57 13q-21 13 -21 54v13q0 41 21 56t57 15q80 0 80 -71v-13q0 -41 -22 -54
t-58 -13z" />
    <glyph glyph-name="Djecyrillic" unicode="&#x402;" 
d="M367 0v1408h-257v81h774v-81h-428v-479h231q188 0 286 -89.5t98 -258.5v-194q0 -188 -89.5 -287.5t-262.5 -99.5v78q140 0 201 72.5t61 240.5v186q0 147 -69 211.5t-225 64.5h-231v-853h-89z" />
    <glyph glyph-name="Gjecyrillic" unicode="&#x403;" 
d="M229 0v1489h808v-81h-717v-1408h-91zM573 1676l248 372h143l-316 -372h-75z" />
    <glyph glyph-name="Ecyrillic" unicode="&#x404;" 
d="M195 503v476q0 264 112.5 396.5t322.5 132.5q411 0 437 -456l-91 -9q-17 205 -96 294t-256 89t-258 -104t-81 -343v-124h389v-80h-389v-272q0 -235 80.5 -337.5t258.5 -102.5t256.5 88.5t95.5 287.5l91 -9q-27 -449 -434 -449q-214 0 -326 130.5t-112 391.5z" />
    <glyph glyph-name="Dzecyrillic" unicode="&#x405;" 
d="M1054 380q0 -173 -116 -282t-284 -109t-279 55t-198 155l58 62q89 -95 183 -143t230 -47q136 0 228 84q92 85 92 223t-76 213t-278 137t-298 152t-96 251t109 263t282 103q235 0 407 -196l-55 -63q-80 86 -161 132t-206 45q-125 0 -207 -75t-82 -204t78 -198t279 -133
q202 -64 296 -158t94 -267z" />
    <glyph glyph-name="Icyrillic" unicode="&#x406;" 
d="M229 0v82h343v1326h-343v81h775v-81h-343v-1326h343v-82h-775z" />
    <glyph glyph-name="Yicyrillic" unicode="&#x407;" 
d="M229 0v82h343v1326h-343v81h775v-81h-343v-1326h343v-82h-775zM797 1733q-35 0 -58 13q-22 13 -22 54v13q0 41 22 56q21 15 57 15t58 -15t21 -56v-13q1 -41 -21 -54t-57 -13zM357 1813q0 71 79 71t80 -71v-13q0 -41 -22 -54t-58 -13q-35 0 -57 13q-21 13 -22 54v13z" />
    <glyph glyph-name="Jecyrillic" unicode="&#x408;" 
d="M1004 484q0 -503 -423 -503q-207 0 -308 110t-111 345l89 11q13 -212 85 -298t245 -86t252 99t79 320v926h-381v81h473v-1005z" />
    <glyph glyph-name="Ljecyrillic" unicode="&#x409;" 
d="M661 82h125q93 0 148 67t55 246v171q0 175 -55 242t-148 67h-125v-793zM661 1489v-534h125q292 0 292 -385v-183q0 -387 -290 -387h-216v1408h-272l-17 -1116q-2 -162 -51.5 -232.5t-119.5 -70.5q-29 -2 -99 18l22 94q38 -15 69 -16q32 -1 61 41.5t30 180.5l21 1182h445z
" />
    <glyph glyph-name="Njecyrillic" unicode="&#x40a;" 
d="M1078 387q0 -387 -289 -387h-217v812h-328v-812h-89v1489h89v-595h328v595h89v-534h127q290 0 290 -385v-183zM661 82h127q91 0 146 67t55 246v171q0 175 -55 242t-146 67h-127v-793z" />
    <glyph glyph-name="Tshecyrillic" unicode="&#x40b;" 
d="M719 899q352 0 352 -380v-519h-90v516q0 168 -59.5 235.5t-202.5 67.5h-280v-819h-91v1408h-255v81h773v-81h-427v-509h280z" />
    <glyph glyph-name="Kjecyrillic" unicode="&#x40c;" 
d="M320 747v-747h-91v1489h91v-662h138l531 662h115l-560 -690l554 -799h-113l-514 747h-151zM614 1676l248 372h143l-316 -372h-75z" />
    <glyph glyph-name="Igravecyrillic" unicode="&#x40d;" 
d="M914 0v1296l-577 -1296h-108v1489h89v-1323l594 1323h92v-1489h-90zM639 1676l-317 372h145l248 -372h-76z" />
    <glyph glyph-name="Ushortcyrillic" unicode="&#x40e;" 
d="M369 -15q-48 0 -112 15l17 80q41 -11 108 -11t120 50t96 186l7 28h-32l-437 1156h99l396 -1074l367 1074h97l-428 -1208q-60 -169 -128 -233t-170 -63zM616 1663q-143 -1 -244 83t-102 293l91 9q2 -166 63 -236q62 -70 192 -70t192 70q61 70 63 236l92 -9
q-2 -209 -103 -293t-244 -83z" />
    <glyph glyph-name="Dzhecyrillic" unicode="&#x40f;" 
d="M572 -279v279h-343v1489h91v-1407h592v1407h92v-1489h-343v-279h-89z" />
    <glyph glyph-name="Acyrillic" unicode="&#x410;" 
d="M1007 0l-138 467h-512l-137 -467h-93l456 1489h67l458 -1489h-101zM847 547l-233 790l-232 -790h465z" />
    <glyph glyph-name="Becyrillic" unicode="&#x411;" 
d="M320 82h320q151 0 223.5 77t72.5 238v104q0 153 -72.5 226.5t-223.5 73.5h-320v-719zM229 0v1489h732v-81h-641v-525h339q173 0 270 -95t97 -267v-134q0 -182 -97 -284.5t-270 -102.5h-430z" />
    <glyph glyph-name="Vecyrillic" unicode="&#x412;" 
d="M320 82h345q155 0 221 69t67 231v59q0 158 -67 228t-221 70h-345v-657zM320 819h309q145 -1 209 61t65 202v52q0 147 -64 210t-210 64h-309v-589zM229 0v1489h400q175 0 267 -90t93 -260v-83q-1 -101 -51 -172t-136 -87v-17q108 -11 175 -98t67 -218v-84q0 -184 -98 -282
t-285 -98h-432z" />
    <glyph glyph-name="Gecyrillic" unicode="&#x413;" 
d="M229 0v1489h808v-81h-717v-1408h-91z" />
    <glyph glyph-name="Decyrillic" unicode="&#x414;" 
d="M166 0v-279h-90v361h95q123 102 127 480l5 927h669v-1407h171v-361h-91v279h-886zM276 82h607v1326h-496l-5 -857q-2 -190 -25 -293t-81 -161v-15z" />
    <glyph glyph-name="Iecyrillic" unicode="&#x415;" 
d="M229 0v1489h808v-81h-717v-553h631v-80h-631v-693h717v-82h-808z" />
    <glyph glyph-name="Zhecyrillic" unicode="&#x416;" 
d="M575 836v653h84v-653h127l299 653h88l-317 -687l313 -802h-91l-292 758h-127v-758h-84v758h-126l-293 -758h-91l309 797l-313 692h88l292 -653h134z" />
    <glyph glyph-name="Zecyrillic" unicode="&#x417;" 
d="M622 -19q-220 0 -326 92.5t-117 285.5l89 12q17 -168 94.5 -239.5t259.5 -71.5t263 77t81 261v62q0 151 -66 214t-222 63h-192v82h192q128 0 181 56t53 192v71q0 158 -72.5 225t-229.5 67t-225 -65t-83 -218l-90 11q11 179 105 264.5t291 85.5q396 0 396 -370v-71
q0 -127 -49.5 -196t-135.5 -85v-15q108 -9 172.5 -94t64.5 -217v-62q0 -212 -107 -314.5t-327 -102.5z" />
    <glyph glyph-name="Iicyrillic" unicode="&#x418;" 
d="M914 0v1296l-577 -1296h-108v1489h89v-1323l594 1323h92v-1489h-90z" />
    <glyph glyph-name="Iishortcyrillic" unicode="&#x419;" 
d="M914 0v1296l-577 -1296h-108v1489h89v-1323l594 1323h92v-1489h-90zM633 1663q-143 -1 -244 83t-102 293l91 9q2 -166 63 -236t191 -70t193 70q61 70 63 236l91 -9q-2 -209 -102 -293q-101 -83 -244 -83z" />
    <glyph glyph-name="Kacyrillic" unicode="&#x41a;" 
d="M320 747v-747h-91v1489h91v-662h138l531 662h115l-560 -690l554 -799h-113l-514 747h-151z" />
    <glyph glyph-name="Elcyrillic" unicode="&#x41b;" 
d="M1004 1489v-1489h-92v1408h-491l-6 -984q-2 -231 -71.5 -337t-190.5 -106q-75 0 -116 19l19 78q43 -15 82 -15q101 0 146.5 90.5t46.5 295.5l6 1040h667z" />
    <glyph glyph-name="Emcyrillic" unicode="&#x41c;" 
d="M259 0h-90v1489h123l326 -1016l326 1016h119v-1489h-89v1331l-311 -959h-93l-311 967v-1339z" />
    <glyph glyph-name="Encyrillic" unicode="&#x41d;" 
d="M229 0v1489h91v-634h592v634h92v-1489h-92v775h-592v-775h-91z" />
    <glyph glyph-name="Ocyrillic" unicode="&#x41e;" 
d="M615 63q176 0 254 107q77 107 77 340v462q0 238 -77 346t-253 108t-254 -108q-77 -108 -77 -346v-462q0 -233 77 -340t253 -107zM1037 510q0 -529 -420 -529t-422 529v462q0 536 421 536t421 -536v-462z" />
    <glyph glyph-name="Pecyrillic" unicode="&#x41f;" 
d="M229 0v1489h775v-1489h-92v1408h-592v-1408h-91z" />
    <glyph glyph-name="Ercyrillic" unicode="&#x420;" 
d="M320 603h348q156 0 227 74q70 74 69 241v171q0 169 -69 244q-70 74 -227 75h-348v-805zM229 0v1489h441q188 -1 286 -101t98 -291v-183q0 -192 -99 -292t-287 -101h-348v-521h-91z" />
    <glyph glyph-name="Escyrillic" unicode="&#x421;" 
d="M631 -19q-212 1 -324 131t-112 385v488q0 257 112 390q113 133 321 133t317 -111t122 -345l-91 -9q-19 215 -94 299t-254 84t-261 -106t-82 -348v-462q0 -238 82 -342q83 -104 265 -104t262 88t82 287l91 -9q-2 -218 -113 -334t-323 -115z" />
    <glyph glyph-name="Tecyrillic" unicode="&#x422;" 
d="M572 0v1408h-429v81h946v-81h-428v-1408h-89z" />
    <glyph glyph-name="Ucyrillic" unicode="&#x423;" 
d="M369 -15q-48 0 -112 15l17 80q41 -11 108 -11t120 50t96 186l7 28h-32l-437 1156h99l396 -1074l367 1074h97l-428 -1208q-60 -169 -128 -232.5t-170 -63.5z" />
    <glyph glyph-name="Efcyrillic" unicode="&#x424;" 
d="M477 249h95v991h-95q-127 0 -184.5 -88.5t-57.5 -283.5v-254q0 -192 57.5 -278.5t184.5 -86.5zM758 1240h-97v-991h97q127 0 183.5 87t56.5 278v254q0 195 -56.5 283.5t-183.5 88.5zM758 168h-97v-205h-89v205h-95q-162 0 -248 114.5t-86 331.5v254q0 222 86 338t248 116
h95v205h89v-205h97q162 0 246.5 -116.5t84.5 -337.5v-254q0 -218 -84.5 -332t-246.5 -114z" />
    <glyph glyph-name="Khacyrillic" unicode="&#x425;" 
d="M1030 0l-412 687l-421 -687h-98l473 769l-431 720h101l393 -655l402 655h97l-454 -733l450 -756h-100z" />
    <glyph glyph-name="Tsecyrillic" unicode="&#x426;" 
d="M998 -279v279h-769v1489h91v-1407h507v1407h91v-1407h169v-361h-89z" />
    <glyph glyph-name="Checyrillic" unicode="&#x427;" 
d="M1004 1489v-1489h-92v527h-296q-205 0 -296 90t-91 292v580h91v-577q0 -164 69 -234.5t227 -70.5h296v882h92z" />
    <glyph glyph-name="Shacyrillic" unicode="&#x428;" 
d="M145 0v1489h90v-1407h337v1407h89v-1407h337v1407h89v-1489h-942z" />
    <glyph glyph-name="Shchacyrillic" unicode="&#x429;" 
d="M1158 -279h-86v279h-927v1489h90v-1407h337v1407h89v-1407h339v1407h89v-1407h69v-361z" />
    <glyph glyph-name="Hardsigncyrillic" unicode="&#x42a;" 
d="M490 82h262q130 0 188 72.5t58 240.5v171q0 168 -57.5 240.5t-188.5 72.5h-262v-797zM1087 387q0 -387 -333 -387h-354v1408h-340v81h430v-534h262q164 0 249.5 -96t85.5 -289v-183z" />
    <glyph glyph-name="Yericyrillic" unicode="&#x42b;" 
d="M277 82h159q106 0 154.5 72.5t48.5 240.5v171q0 168 -48.5 240.5t-154.5 72.5h-159v-797zM955 0v1489h89v-1489h-89zM188 0v1489h89v-534h159q156 0 225 -98.5t69 -286.5v-183q0 -188 -69 -287.5t-223 -99.5h-250z" />
    <glyph glyph-name="Softsigncyrillic" unicode="&#x42c;" 
d="M320 82h348q156 0 226 72.5t70 240.5v171q0 168 -69.5 240.5t-226.5 72.5h-348v-797zM229 0v1489h91v-532h348q188 0 287 -99.5t99 -287.5v-183q0 -188 -98 -287.5t-286 -99.5h-441z" />
    <glyph glyph-name="Ereversedcyrillic" unicode="&#x42d;" 
d="M195 1048q23 460 443 460q214 0 323.5 -136t109.5 -393v-476q0 -253 -109.5 -387.5t-323.5 -134.5q-419 0 -443 453l90 11q17 -205 96 -293.5t259 -88.5t260.5 102.5t80.5 337.5v272h-465v80h465v124q0 238 -80.5 342.5t-258.5 104.5t-259 -90t-98 -299z" />
    <glyph glyph-name="IUcyrillic" unicode="&#x42e;" 
d="M774 63q112 0 163.5 86t51.5 279v626q0 199 -51.5 285.5t-163.5 86.5t-160 -86.5t-48 -285.5v-626q0 -194 48 -279.5t160 -85.5zM1080 428q0 -447 -306 -447q-152 0 -224.5 109t-72.5 338v347h-235v-775h-89v1489h89v-633h235v198q0 233 73.5 343.5t225.5 110.5
q304 0 304 -454v-626z" />
    <glyph glyph-name="IAcyrillic" unicode="&#x42f;" 
d="M910 585h-342l-348 -585h-101l350 586q-164 13 -246 112t-82 274v130q0 188 96 287.5t290 99.5h475v-1489h-92v585zM529 667h381v741h-381q-158 0 -227 -73t-69 -240v-119q0 -166 69 -237.5t227 -71.5z" />
    <glyph glyph-name="acyrillic" unicode="&#x430;" 
d="M849 173q-113 -192 -365 -192q-134 0 -222 85q-88 86 -88 228t75 219q76 77 218 77h363v218q0 106 -67 176t-196 70t-188 -46t-94 -168l-82 24q41 145 125 208q84 64 243 64t255 -87t96 -239v-518q0 -145 44 -189t160 -21v-86q-238 -39 -260 177h-17zM510 58
q194 0 320 177v279h-361q-97 0 -155 -45t-59 -162t61 -183t194 -66z" />
    <glyph glyph-name="becyrillic" unicode="&#x431;" 
d="M614.5 63q154.5 0 224.5 78.5t70 251.5v218q0 162 -70 236.5t-224.5 74.5t-224.5 -74.5t-70 -236.5v-218q0 -173 70 -251.5t224.5 -78.5zM616.5 -19q-184.5 0 -286 108t-101.5 313v574q0 203 91 318t285 153l322 61l15 -78l-311 -58q-181 -32 -254.5 -131.5t-73.5 -298.5
v-93h10q37 74 122.5 115t203.5 41q173 0 269 -97.5t96 -276.5v-240q0 -199 -101.5 -304.5t-286 -105.5z" />
    <glyph glyph-name="vecyrillic" unicode="&#x432;" 
d="M320 80h291q190 0 262.5 46.5t72.5 173.5v31q0 125 -69 172.5t-253 47.5h-304v-471zM320 629h304q168 0 229 39t61 142v39q0 108 -65 148t-238 40h-291v-408zM229 0v1117h382q205 0 299.5 -62.5t94.5 -196.5v-39q0 -108 -48 -161t-155 -60v-12q121 -7 177 -68.5
t56 -186.5v-26q0 -158 -101.5 -231.5t-322.5 -73.5h-382z" />
    <glyph glyph-name="gecyrillic" unicode="&#x433;" 
d="M315 0v1117h705v-82h-614v-1035h-91z" />
    <glyph glyph-name="decyrillic" unicode="&#x434;" 
d="M218 0v-279h-91v361h95q69 56 96.5 150t29.5 269l6 616h597v-1035h155v-361h-91v279h-797zM328 82h532v953h-422l-6 -545q-2 -164 -24 -248.5t-80 -144.5v-15z" />
    <glyph glyph-name="iecyrillic" unicode="&#x435;" 
d="M616 1054q-296 0 -296 -335v-92h592v75q0 184 -74 268t-222 84zM608 -19q-172 1 -276 105t-103 307v326q0 209 108 313t282 104t279 -106t106 -324v-157h-684v-158q0 -173 74 -250t216 -77t202 42q60 43 95 143l87 -27q-42 -127 -128 -184t-258 -57z" />
    <glyph glyph-name="zhecyrillic" unicode="&#x436;" 
d="M579 627v490h76v-490h95l294 490h97l-322 -521l311 -596h-95l-285 555h-95v-555h-76v555h-97l-285 -555h-96l309 590l-319 527h95l291 -490h102z" />
    <glyph glyph-name="zecyrillic" unicode="&#x437;" 
d="M1035 302q0 -321 -408 -321q-216 0 -316.5 84t-113.5 274l88 13q19 -162 90.5 -224.5t245.5 -62.5t249.5 54t75.5 188v19q0 119 -69 169.5t-237 50.5h-78v78h78q151 0 212.5 45.5t61.5 155.5v26q0 112 -68 156.5t-227 44.5t-222.5 -58t-79.5 -208l-90 15q13 179 107 257
t293 78q378 0 378 -287v-26q0 -219 -195 -231v-11q225 -14 225 -261v-18z" />
    <glyph glyph-name="iicyrillic" unicode="&#x438;" 
d="M912 0v955l-592 -955h-91v1117h91v-959l594 959h90v-1117h-92z" />
    <glyph glyph-name="iishortcyrillic" unicode="&#x439;" 
d="M912 0v955l-592 -955h-91v1117h91v-959l594 959h90v-1117h-92zM616 1290q-143 0 -244 84t-102 292l91 10q2 -166 63 -236q62 -70 192 -70t192 70q61 70 63 236l92 -10q-2 -208 -103 -292t-244 -84z" />
    <glyph glyph-name="kacyrillic" unicode="&#x43a;" 
d="M404 547v-547h-89v1117h89v-490h169l350 490h105l-380 -521l376 -596h-102l-347 547h-171z" />
    <glyph glyph-name="elcyrillic" unicode="&#x43b;" 
d="M184 63q97 0 139 88.5t44 297.5l4 668h633v-1117h-92v1035h-458l-5 -611q-4 -443 -261 -443q-64 0 -115 19l18 78q47 -15 93 -15z" />
    <glyph glyph-name="emcyrillic" unicode="&#x43c;" 
d="M285 0h-90v1117h123l300 -745l298 745h119v-1117h-89v977l-283 -698h-93l-285 698v-977z" />
    <glyph glyph-name="encyrillic" unicode="&#x43d;" 
d="M229 0v1117h91v-430h592v430h92v-1117h-92v607h-592v-607h-91z" />
    <glyph glyph-name="ocyrillic" unicode="&#x43e;" 
d="M616 63q151 0 224 80t72 248v328q0 171 -72 253q-73 82 -224 82q-152 0 -224 -82t-72 -253v-328q0 -168 72 -248t224 -80zM616 -19q-186 1 -286 107t-101 303v328q0 201 101 309q100 108 286 108t287 -108t101 -309v-328q0 -197 -101 -303t-287 -107z" />
    <glyph glyph-name="pecyrillic" unicode="&#x43f;" 
d="M229 0v1117h775v-1117h-92v1035h-592v-1035h-91z" />
    <glyph glyph-name="ercyrillic" unicode="&#x440;" 
d="M603 -19q-145 0 -283 66v-419h-91v1489h91v-173h17q47 95 137 143t198 49q155 0 243 -109t89 -303v-329q0 -194 -106 -304t-295 -110zM912 398v328q0 168 -61 248t-190 80q-187 0 -341 -192v-721q128 -81 284 -81q155 0 232 82q76 83 76 256z" />
    <glyph glyph-name="escyrillic" unicode="&#x441;" 
d="M632 -19q-194 -1 -298 105q-105 106 -105 305v328q0 203 105 310t299 107t285 -82t104 -253l-87 -8q-13 145 -79 203t-224 58t-234 -81q-78 -81 -78 -254v-328q0 -168 78 -249t238 -81q160 -1 224 49q65 50 75 177l87 -8q-8 -155 -102 -227t-288 -71z" />
    <glyph glyph-name="tecyrillic" unicode="&#x442;" 
d="M572 0v1035h-393v82h875v-82h-393v-1035h-89z" />
    <glyph glyph-name="ucyrillic" unicode="&#x443;" 
d="M317 -384q-49 0 -125 13l13 82q75 -15 144 -15q70 1 121 48t98 182l24 74h-22l-384 1117h93l347 -1020l331 1020h89l-402 -1214q-52 -155 -128 -221t-199 -66z" />
    <glyph glyph-name="efcyrillic" unicode="&#x444;" 
d="M998 715q0 320 -229 320h-108v-953h108q229 0 229 316v317zM235 398q0 -316 229 -316h108v953h-108q-229 0 -229 -320v-317zM788 0h-127v-372h-89v372h-127q-141 0 -220.5 103.5t-79.5 291.5v327q0 188 79 291.5t221 103.5h127v372h89v-372h127q141 0 220 -103.5
t79 -291.5v-327q0 -188 -79 -291.5t-220 -103.5z" />
    <glyph glyph-name="khacyrillic" unicode="&#x445;" 
d="M920 0l-306 499l-309 -499h-91l358 568l-337 549h93l298 -486l301 486h91l-348 -558l343 -559h-93z" />
    <glyph glyph-name="tsecyrillic" unicode="&#x446;" 
d="M1007 -279v279h-778v1117h91v-1035h507v1035h91v-1035h171v-361h-82z" />
    <glyph glyph-name="checyrillic" unicode="&#x447;" 
d="M195 752v365h90v-361q0 -168 68 -243t217 -78t259 68v614h89v-1117h-89v413q-135 -56 -256 -56q-192 0 -285 98t-93 297z" />
    <glyph glyph-name="shacyrillic" unicode="&#x448;" 
d="M145 0v1117h90v-1035h337v1035h89v-1035h337v1035h89v-1117h-942z" />
    <glyph glyph-name="shchacyrillic" unicode="&#x449;" 
d="M1173 -279h-76v279h-952v1117h90v-1035h337v1035h89v-1035h337v1035h89v-1035h86v-361z" />
    <glyph glyph-name="hardsigncyrillic" unicode="&#x44a;" 
d="M404 82h298q140 0 201 49.5t61 160.5v118q0 110 -61 156.5t-201 46.5h-298v-531zM737 0h-422v1035h-257v82h346v-423h331q149 0 234 -73.5t85 -210.5v-118q0 -140 -85 -216t-232 -76z" />
    <glyph glyph-name="yericyrillic" unicode="&#x44b;" 
d="M277 82h159q114 0 163 49.5t49 166.5v117q0 114 -49.5 162.5t-162.5 48.5h-159v-544zM955 0v1117h89v-1117h-89zM188 0v1117h89v-411h194q123 0 194.5 -75.5t71.5 -215.5v-117q0 -141 -70.5 -219.5t-193.5 -78.5h-285z" />
    <glyph glyph-name="softsigncyrillic" unicode="&#x44c;" 
d="M320 82h382q140 0 201 50t61 166v115q0 115 -61 163t-201 48h-382v-542zM229 0v1117h91v-411h412q149 0 235.5 -76.5t86.5 -216.5v-115q0 -140 -86.5 -219t-233.5 -79h-505z" />
    <glyph glyph-name="ereversedcyrillic" unicode="&#x44d;" 
d="M1004 410q0 -429 -396 -429q-204 0 -295 71t-103 227l88 6q15 -128 77.5 -175t222.5 -47t237 76.5t77 251.5v151h-428v82h428v102q0 179 -77 253.5t-237 74.5t-223.5 -55t-76.5 -206l-88 8q11 175 102.5 255t294.5 80q397 0 397 -421v-305z" />
    <glyph glyph-name="iucyrillic" unicode="&#x44e;" 
d="M771 63q112 0 161 77.5t49 252.5v324q0 179 -49 258t-161 79t-162 -79t-50 -258v-324q0 -175 50 -252.5t162 -77.5zM772 -19q-146 0 -224.5 105.5t-78.5 306.5v175h-218v-568h-89v1117h89v-467h218v69q0 205 78.5 311t224.5 106t222.5 -107t76.5 -312v-324
q0 -201 -76.5 -306.5t-222.5 -105.5z" />
    <glyph glyph-name="iacyrillic" unicode="&#x44f;" 
d="M229 786q0 331 300 331h475v-1117h-92v404h-264l-328 -404h-106l324 404q-155 -2 -232 83.5t-77 244.5v54zM531 480h381v555h-381q-112 0 -161.5 -56.5t-49.5 -185.5v-54q0 -138 49.5 -198.5t161.5 -60.5z" />
    <glyph glyph-name="iegravecyrillic" unicode="&#x450;" 
d="M616 1054q-296 0 -296 -335v-92h592v75q0 184 -74 268t-222 84zM608 -19q-172 1 -276 105t-103 307v326q0 209 108 313t282 104t279 -106t106 -324v-157h-684v-158q0 -173 74 -250t216 -77t202 42q60 43 95 143l87 -27q-42 -127 -128 -184t-258 -57zM659 1303l-316 373
h145l247 -373h-76z" />
    <glyph glyph-name="iocyrillic" unicode="&#x451;" 
d="M616 1054q-296 0 -296 -335v-92h592v75q0 184 -74 268t-222 84zM608 -19q-172 1 -276 105t-103 307v326q0 209 108 313t282 104t279 -106t106 -324v-157h-684v-158q0 -173 74 -250t216 -77t202 42q60 43 95 143l87 -27q-42 -127 -128 -184t-258 -57zM799 1361
q-35 0 -58 13q-22 13 -22 54v13q0 41 22 56q21 15 57 15t58 -15t21 -56v-13q1 -41 -21 -54t-57 -13zM359 1441q0 71 79 71t80 -71v-13q0 -41 -22 -54t-58 -13q-35 0 -57 13q-21 13 -22 54v13z" />
    <glyph glyph-name="djecyrillic" unicode="&#x452;" 
d="M709 -303q203 0 203 294v683q0 134 -65 210.5t-167 76.5q-202 0 -360 -201v-760h-91v1210h-169v82h169v197h91v-197h341v-82h-341v-359h19q58 88 153.5 140t190.5 52q145 0 233 -97t88 -253v-717q0 -171 -76.5 -267t-212.5 -96q-95 0 -179 37l21 80q61 -33 152 -33z" />
    <glyph glyph-name="gjecyrillic" unicode="&#x453;" 
d="M315 0v1117h705v-82h-614v-1035h-91zM618 1303l248 373h143l-316 -373h-75z" />
    <glyph glyph-name="ecyrillic" unicode="&#x454;" 
d="M626 -19q-397 0 -397 429v297q0 220 99.5 324.5t297.5 104.5t291.5 -82t104.5 -253l-87 -8q-15 149 -80.5 205t-226.5 56t-235.5 -78.5t-74.5 -256.5v-95h429v-82h-429v-144q0 -179 76 -257t236 -78t223 47.5t82 174.5l85 -6q-9 -151 -103 -224.5t-291 -73.5z" />
    <glyph glyph-name="dzecyrillic" unicode="&#x455;" 
d="M318 839q0 -103 66 -153t258 -88q194 -38 281 -110t87 -204t-104 -218q-103 -86 -269 -85q-254 0 -443 151l46 73q174 -140 397 -142q132 0 208 59q77 58 77 158t-66 148t-259 88t-281 114q-88 72 -87 204q0 132 94 216q94 86 245 86q212 0 393 -142l-43 -71
q-165 129 -350 131q-114 0 -182 -56t-68 -159z" />
    <glyph glyph-name="icyrillic.salt_serifs" unicode="&#xe02e;" 
d="M661 82h376v-82h-465v1035h-377v82h466v-1035zM706 1426q0 -67 -90 -67q-41 0 -65 14t-24 53v13q0 41 24 56t65 15t65 -15t25 -56v-13z" />
    <glyph glyph-name="icyrillic.salt_serifs" unicode="&#x456;" 
d="M661 82h376v-82h-465v1035h-377v82h466v-1035zM706 1426q0 -67 -90 -67q-41 0 -65 14t-24 53v13q0 41 24 56t65 15t65 -15t25 -56v-13z" />
    <glyph glyph-name="yicyrillic.salt_serifs" unicode="&#xe02f;" 
d="M661 82h376v-82h-465v1035h-377v82h466v-1035zM756 1361q-35 0 -58 13q-22 13 -22 54v13q0 41 22 56t58 15t56 -15q22 -15 22 -56v-13q0 -41 -22 -54t-56 -13zM395 1512q78 0 80 -71v-13q-1 -41 -23 -54t-57 -13t-57 13q-21 13 -21 54v13q0 41 21 56t57 15z" />
    <glyph glyph-name="yicyrillic.salt_serifs" unicode="&#x457;" 
d="M661 82h376v-82h-465v1035h-377v82h466v-1035zM756 1361q-35 0 -58 13q-22 13 -22 54v13q0 41 22 56t58 15t56 -15q22 -15 22 -56v-13q0 -41 -22 -54t-56 -13zM395 1512q78 0 80 -71v-13q-1 -41 -23 -54t-57 -13t-57 13q-21 13 -21 54v13q0 41 21 56t57 15z" />
    <glyph glyph-name="jecyrillic" unicode="&#x458;" 
d="M487 -303q122 0 189 80t67 243v1015h-479v82h568v-1108q0 -188 -95 -292t-264 -104q-119 0 -244 41l20 83q116 -40 238 -40zM869 1428q0 -67 -89 -67q-41 0 -65 14t-24 53v13q0 41 24 56t65 15t65 -15t24 -56v-13z" />
    <glyph glyph-name="ljecyrillic" unicode="&#x459;" 
d="M678 82h111q91 0 145.5 47.5t54.5 170.5v136q0 123 -54 168.5t-146 45.5h-111v-568zM678 1117v-385h113q141 0 215 -73.5t74 -219.5v-145q0 -145 -73.5 -219.5t-213.5 -74.5h-205v1035h-253l-7 -741q-2 -164 -55 -234.5t-128 -70.5q-24 -2 -48 4.5t-50 13.5l22 94
q43 -15 63 -15q43 -2 74.5 40.5t33.5 182.5l11 808h427z" />
    <glyph glyph-name="njecyrillic" unicode="&#x45a;" 
d="M1078 283q0 -283 -287 -283h-219v616h-328v-616h-89v1117h89v-419h328v419h89v-400h130q287 0 287 -287v-147zM661 82h127q91 0 146 45.5t55 162.5v136q0 117 -55 163t-146 46h-127v-553z" />
    <glyph glyph-name="tshecyrillic" unicode="&#x45b;" 
d="M668 961q-184 0 -348 -198v-763h-91v1210h-169v82h169v197h91v-197h341v-82h-341v-359h17q126 190 341 192q140 -1 232 -93t94 -257v-693h-92v674q0 143 -67 215t-177 72z" />
    <glyph glyph-name="kjecyrillic" unicode="&#x45c;" 
d="M404 547v-547h-89v1117h89v-490h169l350 490h105l-380 -521l376 -596h-102l-347 547h-171zM605 1303l248 373h143l-316 -373h-75z" />
    <glyph glyph-name="igravecyrillic" unicode="&#x45d;" 
d="M912 0v955l-592 -955h-91v1117h91v-959l594 959h90v-1117h-92zM659 1303l-316 373h145l247 -373h-76z" />
    <glyph glyph-name="ushortcyrillic" unicode="&#x45e;" 
d="M317 -384q-49 0 -125 13l13 82q75 -15 144 -15q70 1 121 48t98 182l24 74h-22l-384 1117h93l347 -1020l331 1020h89l-402 -1214q-52 -155 -128 -221t-199 -66zM616 1290q-143 0 -244 84t-102 292l91 10q2 -166 63 -236q62 -70 192 -70t192 70q61 70 63 236l92 -10
q-2 -208 -103 -292t-244 -84z" />
    <glyph glyph-name="dzhecyrillic" unicode="&#x45f;" 
d="M572 -279v279h-343v1117h91v-1035h592v1035h92v-1117h-343v-279h-89z" />
    <glyph glyph-name="Gheupturncyrillic" unicode="&#x490;" 
d="M229 0v1489h717v280h91v-361h-717v-1408h-91z" />
    <glyph glyph-name="gheupturncyrillic" unicode="&#x491;" 
d="M315 0v1117h623v231h82v-313h-614v-1035h-91z" />
    <glyph glyph-name="Wgrave" unicode="&#x1e80;" 
d="M851 0l-233 1011l-236 -1011h-90l-177 1489h84l153 -1323l221 970h95l218 -954l144 1307h87l-177 -1489h-89zM674 1676l-317 372h146l247 -372h-76z" />
    <glyph glyph-name="wgrave" unicode="&#x1e81;" 
d="M815 0l-199 795l-192 -795h-98l-225 1117h93l184 -983l182 797h107l191 -775l181 961h93l-225 -1117h-92zM657 1303l-316 373h145l248 -373h-77z" />
    <glyph glyph-name="Wacute" unicode="&#x1e82;" 
d="M851 0l-233 1011l-236 -1011h-90l-177 1489h84l153 -1323l221 970h95l218 -954l144 1307h87l-177 -1489h-89zM514 1676l247 372h144l-317 -372h-74z" />
    <glyph glyph-name="wacute" unicode="&#x1e83;" 
d="M815 0l-199 795l-192 -795h-98l-225 1117h93l184 -983l182 797h107l191 -775l181 961h93l-225 -1117h-92zM503 1303l247 373h144l-317 -373h-74z" />
    <glyph glyph-name="Wdieresis" unicode="&#x1e84;" 
d="M851 0l-233 1011l-236 -1011h-90l-177 1489h84l153 -1323l221 970h95l218 -954l144 1307h87l-177 -1489h-89zM799 1733q-35 0 -58 13q-22 13 -22 54v13q0 41 22 56q21 15 57 15t58 -15t21 -56v-13q1 -41 -21 -54t-57 -13zM359 1813q0 71 79 71t80 -71v-13q0 -41 -22 -54
t-58 -13q-35 0 -57 13q-21 13 -22 54v13z" />
    <glyph glyph-name="wdieresis" unicode="&#x1e85;" 
d="M815 0l-199 795l-192 -795h-98l-225 1117h93l184 -983l182 797h107l191 -775l181 961h93l-225 -1117h-92zM799 1361q-35 0 -58 13q-22 13 -22 54v13q0 41 22 56q21 15 57 15t58 -15t21 -56v-13q1 -41 -21 -54t-57 -13zM359 1441q0 71 79 71t80 -71v-13q0 -41 -22 -54
t-58 -13q-35 0 -57 13q-21 13 -22 54v13z" />
    <glyph glyph-name="Ygrave" unicode="&#x1ef2;" 
d="M661 0h-89v559l-490 930h102l436 -837l428 837h101l-488 -930v-559zM657 1676l-316 372h145l248 -372h-77z" />
    <glyph glyph-name="ygrave" unicode="&#x1ef3;" 
d="M317 -384q-49 0 -125 13l13 82q75 -15 144 -15q70 1 121 48t98 182l24 74h-22l-384 1117h93l347 -1020l331 1020h89l-402 -1214q-52 -155 -128 -221t-199 -66zM657 1303l-316 373h145l248 -373h-77z" />
    <glyph glyph-name="uni2000" unicode="&#x2000;" 
 />
    <glyph glyph-name="uni2001" unicode="&#x2001;" 
 />
    <glyph glyph-name="uni2002" unicode="&#x2002;" 
 />
    <glyph glyph-name="uni2003" unicode="&#x2003;" 
 />
    <glyph glyph-name="uni2004" unicode="&#x2004;" 
 />
    <glyph glyph-name="uni2005" unicode="&#x2005;" 
 />
    <glyph glyph-name="uni2007" unicode="&#x2007;" 
 />
    <glyph glyph-name="uni2009" unicode="&#x2009;" 
 />
    <glyph glyph-name="uni200A" unicode="&#x200a;" 
 />
    <glyph glyph-name="uni200B" unicode="&#x200b;" horiz-adv-x="0" 
 />
    <glyph glyph-name="endash" unicode="&#x2013;" 
d="M190 607v89h853v-89h-853z" />
    <glyph glyph-name="emdash" unicode="&#x2014;" 
d="M19 607v89h1195v-89h-1195z" />
    <glyph glyph-name="horizontalbar" unicode="&#x2015;" 
d="M19 607v89h1195v-89h-1195z" />
    <glyph glyph-name="underscoredbl" unicode="&#x2017;" 
d="M138 48v90h957v-90h-957zM138 -315v90h957v-90h-957z" />
    <glyph glyph-name="quoteright" unicode="&#x2019;" 
d="M391 840l205 649h179l-304 -649h-80z" />
    <glyph glyph-name="quotesinglbase" unicode="&#x201a;" 
d="M402 -372l201 649h181l-304 -649h-78z" />
    <glyph glyph-name="quotereversed" unicode="&#x201b;" 
d="M719 840l-306 649h181l205 -649h-80z" />
    <glyph glyph-name="quotedblleft" unicode="&#x201c;" 
d="M201 840l289 649h78l-203 -649h-164zM715 840l287 649h78l-203 -649h-162z" />
    <glyph glyph-name="quotedblright" unicode="&#x201d;" 
d="M153 840l203 649h162l-287 -649h-78zM665 840l203 649h163l-288 -649h-78z" />
    <glyph glyph-name="quotedblbase" unicode="&#x201e;" 
d="M30 -350l203 650h162l-287 -650h-78zM542 -350l203 650h164l-289 -650h-78z" />
    <glyph glyph-name="dagger" unicode="&#x2020;" 
d="M572 -372v1407h-252l-52 -476h-73l51 558h327l-11 372h108l-11 -372h326l52 -558h-73l-52 476h-251v-1407h-89z" />
    <glyph glyph-name="daggerdbl" unicode="&#x2021;" 
d="M572 82v953h-252l-52 -346h-73l51 428h327l-11 372h108l-11 -372h326l52 -428h-73l-52 346h-251v-953h251l52 346h73l-52 -428h-318l11 -372h-123l11 372h-320l-51 428h73l52 -346h252z" />
    <glyph glyph-name="bullet" unicode="&#x2022;" 
d="M617 516q-98 0 -160 39t-62 119v134q0 84 62 124t162 40t160.5 -40t60.5 -124v-134q0 -80 -62.5 -119t-160.5 -39z" />
    <glyph glyph-name="ellipsis" unicode="&#x2026;" 
d="M232 235q64 0 64 -103v-52q0 -50 -24 -74.5t-64 -24.5t-65.5 24.5t-25.5 74.5v52q0 52 25.5 77.5t89.5 25.5zM617 -19q-40 0 -65 24.5t-25 74.5v52q0 52 25 77.5t66 25.5t65 -25.5t24 -77.5v-52q0 -50 -25 -74.5t-65 -24.5zM1025 -19q-40 0 -65 24.5t-25 74.5v52
q0 52 25 77.5t66 25.5t65 -25.5t24 -77.5v-52q0 -50 -25 -74.5t-65 -24.5z" />
    <glyph glyph-name="perthousand" unicode="&#x2030;" 
d="M1087 387q0 190 -91 190q-41 0 -66 -45.5t-25 -144.5v-167q0 -186 91 -186t91 186v167zM815 387q0 190 -91 190q-41 0 -66 -45.5t-25 -144.5v-167q0 -186 91 -186t91 186v167zM1175 384v-161q0 -134 -48.5 -199t-136.5 -65t-130 106q-39 -106 -128 -106q-88 0 -138 65
t-50 199v161q0 136 50 202t138 66t128 -108q40 108 129 108t137.5 -66.5t48.5 -201.5zM1076 1210l-957 -985l-58 67l957 985zM424 1262q0 190 -108 190t-107 -190v-167q-1 -186 107 -186t108 186v167zM316 834q-88 0 -142.5 65t-54.5 199v161q0 136 55.5 202t143.5 66
t142 -66t54 -202v-161q0 -134 -55 -199t-143 -65z" />
    <glyph glyph-name="minute" unicode="&#x2032;" 
d="M400 840l205 649h179l-304 -649h-80z" />
    <glyph glyph-name="second" unicode="&#x2033;" 
d="M153 840l203 649h162l-287 -649h-78zM665 840l203 649h163l-288 -649h-78z" />
    <glyph glyph-name="guilsinglleft" unicode="&#x2039;" 
d="M873 225l-514 410v33l514 410v-99l-413 -327l413 -328v-99z" />
    <glyph glyph-name="guilsinglright" unicode="&#x203a;" 
d="M359 225v99l414 328l-414 327v99l514 -410v-33z" />
    <glyph glyph-name="exclamdbl" unicode="&#x203c;" 
d="M378 235q112 0 112 -103v-52q0 -50 -31 -74.5t-81 -24.5t-81 24.5t-31 74.5v52q0 103 112 103zM968 80q0 -99 -111.5 -99t-111.5 99v52q-1 103 111 103t112 -103v-52zM341 559l-19 930h110l-19 -930h-72zM819 559l-18 930h109l-18 -930h-73z" />
    <glyph glyph-name="overline" unicode="&#x203e;" 
d="M138 1731v90h957v-90h-957z" />
    <glyph glyph-name="fraction" unicode="&#x2215;" 
d="M229 0l683 1489h92l-684 -1489h-91z" />
    <glyph glyph-name="fraction" unicode="&#x2044;" 
d="M229 0l683 1489h92l-684 -1489h-91z" />
    <glyph glyph-name="zero.sups" unicode="&#x2070;" 
d="M616 627q123 0 176 77.5t53 261.5v118q0 186 -53 265t-176 79t-176 -79t-53 -265v-118q0 -184 53 -261.5t176 -77.5zM929 950q0 -395 -312 -395t-312 395v150q0 401 312 401t312 -401v-150z" />
    <glyph glyph-name="four.sups" unicode="&#x2074;" 
d="M996 819h-194v-253h-85v253h-434v73l428 597h91v-597h194v-73zM717 892v486l-354 -486h354z" />
    <glyph glyph-name="five.sups" unicode="&#x2075;" 
d="M606 555q-158 0 -228.5 55t-75.5 191l80 11q11 -110 58.5 -147.5t173.5 -37.5t177 47t51 156v47q0 97 -50.5 139.5t-167.5 42.5h-294v430h556v-72h-471v-283h212q141 0 218.5 -60.5t77.5 -172.5v-91q0 -123 -79.5 -189t-237.5 -66z" />
    <glyph glyph-name="six.sups" unicode="&#x2076;" 
d="M616.5 627q115.5 0 168.5 52.5t53 163.5v15q0 115 -53 168.5t-168.5 53.5t-168.5 -53t-53 -169v-15q0 -112 53 -164t168.5 -52zM630 1143q157 0 225 -75.5t68 -199.5v-25q0 -123 -72.5 -205.5t-234.5 -82.5t-234.5 89.5t-72.5 239.5v280q0 337 311 337q132 0 199 -48.5
t88 -160.5l-93 -17q-17 89 -57.5 121t-154.5 32t-160.5 -58.5t-46.5 -205.5v-105h9q69 84 226 84z" />
    <glyph glyph-name="seven.sups" unicode="&#x2077;" 
d="M309 1419v70h614v-70q-132 -238 -199 -412.5t-108 -440.5h-95q63 309 124 473t195 380h-531z" />
    <glyph glyph-name="eight.sups" unicode="&#x2078;" 
d="M616 631q123 0 173.5 45t50.5 153v16q0 95 -50.5 132.5t-173.5 37.5t-172 -37.5t-49 -132.5v-16q0 -108 49 -153t172 -45zM617 1089q111 0 156.5 31.5t45.5 110.5v28q0 93 -45.5 131t-156.5 38t-156.5 -38t-45.5 -131v-28q0 -78 45.5 -110t156.5 -32zM330 1257
q0 245 286 245q138 0 211.5 -56.5t73.5 -188.5v-19q0 -76 -32.5 -122.5t-80.5 -54.5v-15q63 -6 99 -64.5t36 -143.5v-15q0 -128 -65 -197t-241 -69t-242 70.5t-66 195.5v15q0 89 36.5 146t99.5 62v15q-50 7 -82.5 54t-32.5 123v19z" />
    <glyph glyph-name="nine.sups" unicode="&#x2079;" 
d="M923 892q0 -337 -297 -337q-144 0 -211 48.5t-89 159.5l93 17q17 -89 58.5 -121t153.5 -32t160.5 60.5t48.5 204.5v104h-11q-70 -84 -218 -84q-149 0 -225.5 72t-76.5 204v24q0 136 81 212.5t227 76.5t226 -87t80 -243v-279zM618.5 976q113.5 0 167.5 53t54 168v15
q0 112 -54 164t-168 52t-167.5 -52t-53.5 -164v-15q0 -115 54 -168t167.5 -53z" />
    <glyph glyph-name="nsuperior" unicode="&#x207f;" 
d="M655 1437q-151 0 -270 -149v-724h-78v929h78v-141h15q41 74 111 115t150 41q121 0 192.5 -84.5t71.5 -218.5v-641h-76v628q0 245 -194 245z" />
    <glyph glyph-name="zero.sinf" unicode="&#x2080;" 
d="M616 61q123 -1 176 77t53 262v118q0 186 -53 265t-176 79t-176 -79t-53 -265v-118q0 -184 53 -262t176 -77zM929 384q0 -395 -311 -395t-313 395v150q0 401 312 401t312 -401v-150z" />
    <glyph glyph-name="one.sinf" unicode="&#x2081;" 
d="M397 0v73h232v718h-9q-20 -74 -86 -119t-149 -46l-11 76q80 4 158 57t101 164h78v-850h211v-73h-525z" />
    <glyph glyph-name="two.sinf" unicode="&#x2082;" 
d="M311 0v194q0 104 44 164t155 83l173 36q86 21 117 55t30 108v36q0 102 -48 144t-166 42t-161 -36q-44 -36 -51 -139l-84 7q6 127 76 184t222 57q152 1 222 -61q71 -62 70 -193v-63q0 -84 -44 -138t-149 -78l-173 -37q-86 -19 -119 -54t-32 -116v-122h529v-73h-611z" />
    <glyph glyph-name="three.sinf" unicode="&#x2083;" 
d="M907 251q-1 -136 -75 -199t-238 -63t-235 57q-69 57 -76 168l84 8q9 -88 49 -123t172 -35t185 43q52 44 52 148v30q0 88 -51 126t-174 38h-103v74h103q110 0 157 31t47 99v38q0 91 -49 130t-158 39t-156 -32t-52 -107l-86 7q7 110 77 158t215 48q146 0 218 -55
q72 -56 71 -177v-30q0 -78 -34 -123t-89 -52v-15q63 -6 105 -62q41 -57 41 -143v-26z" />
    <glyph glyph-name="four.sinf" unicode="&#x2084;" 
d="M996 253h-194v-253h-85v253h-434v73l428 597h91v-597h194v-73zM717 326v486l-354 -486h354z" />
    <glyph glyph-name="five.sinf" unicode="&#x2085;" 
d="M606 -11q-158 0 -228 55t-76 191l80 11q11 -110 58 -147t173 -37t177 46q51 47 52 156v47q0 97 -50 140t-168 42h-294v430h556v-72h-471v-283h212q141 0 219 -61t77 -172v-91q0 -123 -79 -189q-80 -66 -238 -66z" />
    <glyph glyph-name="six.sinf" unicode="&#x2086;" 
d="M616 61q114 1 168 53t54 163v15q0 114 -53 168t-169 54t-168 -53q-53 -53 -53 -169v-15q0 -112 53 -164t168 -52zM630 577q158 0 226 -75t67 -200v-25q-1 -123 -73 -205t-234 -83q-162 0 -234 89t-73 240v280q0 337 311 337q132 -1 199 -49t88 -160l-93 -17
q-17 89 -58 121q-40 32 -154 32t-161 -59t-46 -205v-105h9q69 84 226 84z" />
    <glyph glyph-name="seven.sinf" unicode="&#x2087;" 
d="M309 853v70h614v-70q-132 -239 -199 -413t-108 -440h-95q63 309 124 473t195 380h-531z" />
    <glyph glyph-name="eight.sinf" unicode="&#x2088;" 
d="M616 65q123 0 173 45t51 153v16q0 95 -50 132t-174 37q-123 0 -172 -36q-49 -38 -49 -133v-16q0 -108 49 -153t172 -45zM415 665q-1 -78 45 -110t157 -32t157 32t45 110v28q0 93 -45 131q-46 38 -157 38t-157 -38t-45 -131v-28zM330 691q0 247 286 245q138 0 212 -56
t73 -189v-19q-1 -76 -33 -123t-80 -54v-15q63 -6 99 -64t36 -144v-15q0 -128 -65 -197t-241 -69q-176 1 -242 71t-66 195v15q0 89 36 146t100 62v15q-50 7 -83 54t-32 123v19z" />
    <glyph glyph-name="nine.sinf" unicode="&#x2089;" 
d="M923 326q0 -337 -297 -337q-144 0 -211 48t-89 160l93 17q17 -89 59 -121t154 -32t159 61q48 61 49 204v104h-11q-68 -82 -217 -83q-150 -1 -227 71q-76 72 -76 204v24q0 136 81 212t227 76t226 -86q80 -87 80 -243v-279zM618 410q114 0 168 53t54 168v15q0 112 -54 164
t-168 52t-168 -52q-53 -52 -53 -164v-15q-1 -115 53 -168t168 -53z" />
    <glyph glyph-name="franc" unicode="&#x20a3;" 
d="M661 411h-341v-411h-91v411h-169v81h169v997h808v-81h-717v-516h598v-80h-598v-320h341v-81z" />
    <glyph glyph-name="lira" unicode="&#x20a4;" 
d="M350 462q0 76 -15 136h-300v72h278q-16 51 -53 134q-36 83 -53 147h-172v73h153q-11 44 -11 88q0 179 113.5 287.5t328.5 108.5t320 -86.5t115 -276.5l-91 -11q-13 166 -88 229t-259 63t-266 -76.5t-82 -241.5q0 -31 11 -84h509v-73h-486q22 -59 54.5 -135.5t53.5 -145.5
h378v-72h-358q15 -64 15 -103q0 -219 -149 -329l7 -10q58 35 117.5 29t131.5 -37t133.5 -59t118.5 -28q130 0 173 77.5t56 228.5l90 -11q-18 -375 -319 -375q-76 0 -147.5 33.5t-138.5 63.5t-128.5 43t-113.5 -26l-159 -112l-50 65l134 80q63 37 106 147.5t43 186.5z" />
    <glyph glyph-name="peseta" unicode="&#x20a7;" 
d="M173 583h84q47 0 73.5 52t26.5 190v357q0 140 -27 192t-73 52h-84v-843zM992 1072q-93 0 -93 -184q0 -80 38.5 -157t92.5 -159q116 -180 117 -313q0 -133 -53 -205.5t-146 -72.5q-58 0 -110 26q-65 -24 -114 -24q-48 0 -87 53t-39 180v838h-168v-233q0 -300 -173 -300
h-84v-521h-71v1489h157q171 0 171 -299v-73h168v372h72v-372h185v-63h-185v-859q0 -74 21 -110.5t47 -36.5q51 0 70 15l22 36q54 -54 118 -54q128 0 128 204q0 86 -35 151.5t-81 143.5t-88.5 163t-42.5 187t39 172t136 70q67 0 134 -47l-30 -59q-53 42 -116 42z" />
    <glyph glyph-name="Euro" unicode="&#x20ac;" 
d="M263 488v43h-170v82h170v260h-170v82h170v43q0 251 107 380.5t315 129.5q341 0 380 -363l-84 -13q-28 162 -92.5 228t-222.5 66t-235 -96.5t-77 -331.5v-43h342v-82h-342v-260h342v-82h-342v-43q0 -231 77 -328t235 -97t221.5 65.5t93.5 221.5l84 -13q-39 -356 -382 -356
q-207 0 -313.5 128.5t-106.5 378.5z" />
    <glyph glyph-name="careof" unicode="&#x2105;" 
d="M737 238q0 -204 145.5 -204t145.5 204v131q0 208 -145.5 208t-145.5 -208v-131zM882 -41q-102 0 -165.5 69t-63.5 214v123q0 145 64.5 216t166.5 71t164 -71t62 -216v-123q0 -145 -63 -214t-165 -69zM114 292l955 985l59 -67l-959 -985zM205 1113q0 -204 147 -204
q67 0 99.5 36t43.5 118l84 -13q-11 -110 -74 -163t-159 -53t-159.5 69t-63.5 214v123q0 145 64 216t160 71t158.5 -55t73.5 -171l-84 -7q-11 82 -43.5 120t-99.5 38q-147 0 -147 -208v-131z" />
    <glyph glyph-name="lsquare" unicode="&#x2113;" 
d="M731 1508q137 0 204 -91t42 -246l-65 -413q-22 -151 -109.5 -222t-204.5 -71q-155 0 -231 103l-26 -179q-22 -151 41.5 -229t177.5 -78t244 56l6 -93q-126 -58 -246 -58q-168 0 -257 102.5t-59 282.5l134 836q24 153 118 226.5t231 73.5zM576 547q107 0 167.5 46.5
t79.5 164.5l65 413q17 112 -19.5 183.5t-146.5 71.5t-170 -50t-79 -168l-69 -426q-17 -102 24 -168.5t148 -66.5z" />
    <glyph glyph-name="numero" unicode="&#x2116;" 
d="M927 361q0 205 -157 205t-157 -205v-110q0 -106 39 -152.5t119 -46.5q156 0 156 199v110zM770 -26q-107 0 -174 69t-67 208v110q0 141 67 212t176 71t174 -70.5t65 -212.5v-110q0 -140 -67 -208.5t-174 -68.5zM311 763h-89v726h119l581 -623v623h89v-726h-114l-586 630
v-630z" />
    <glyph glyph-name="uni2117" unicode="&#x2117;" 
d="M505 594h128q97 0 132.5 47.5t35.5 149.5v84q0 112 -35.5 163t-132.5 51h-128v-495zM633 1164q257 0 257 -289v-84q0 -132 -61.5 -201t-195.5 -69h-128v-292h-90v935h218zM615 -136q245 0 357 154.5t112 499.5v335q0 348 -112 504.5t-357 156.5t-356.5 -156.5
t-111.5 -504.5v-335q0 -344 111.5 -499t356.5 -155zM616.5 -205q-275.5 0 -408 167.5t-132.5 515.5v414q0 352 134 521.5t408 169.5t406 -169.5t132 -521.5v-414q0 -348 -132 -515.5t-407.5 -167.5z" />
    <glyph glyph-name="trademark" unicode="&#x2122;" 
d="M644 653h-71v836h75l192 -485l190 485h74v-836h-69l-4 674l-163 -418h-56l-168 413v-669zM216 653v768h-156v68h381v-68h-154v-768h-71z" />
    <glyph glyph-name="Ohm" unicode="&#x2126;" 
d="M179 966q-1 542 437 542t438 -542v-201q0 -149 -53 -261t-169 -150v-272h222v-82h-311v410q125 35 173 123t48 232v201q0 246 -81 353t-267 107t-267 -107t-81 -353v-201q0 -143 48 -231t174 -124v-410h-311v82h221v272q-115 39 -168 151t-53 260v201z" />
    <glyph glyph-name="estimated" unicode="&#x212e;" 
d="M611 1368q-135 0 -231 -96v-471h460v465q-52 45 -104.5 73.5t-124.5 28.5zM67 752q0 339 152.5 552t392.5 213t391 -240t157 -625h-780v-429q106 -96 227 -96q256 0 382 216l82 -112q-153 -253 -464 -253q-235 0 -387.5 217.5t-152.5 556.5z" />
    <glyph glyph-name="oneeighth" unicode="&#x215b;" 
d="M616 -328q123 0 173.5 36.5t50.5 123.5v17q0 73 -50.5 102.5t-173.5 29.5t-172 -29.5t-49 -102.5v-17q0 -88 49 -124t172 -36zM617 56q111 0 156.5 23t45.5 81v28q0 73 -45.5 102.5t-156.5 29.5t-156.5 -29.5t-45.5 -102.5v-28q0 -58 45.5 -81t156.5 -23zM331 186
q0 209 285 209q138 0 212.5 -48.5t74.5 -160.5v-18q0 -60 -33.5 -96.5t-81.5 -43.5v-15q65 -6 101 -53.5t36 -117.5v-15q0 -110 -66 -169.5t-242 -59.5t-241 61.5t-65 167.5v15q0 74 35.5 119.5t98.5 51.5v15q-48 7 -81 43.5t-33 96.5v18zM1214 510l-520 15v69l520 13v-97z
M19 510v97l543 -13v-69zM363 763v73h233v532h-11q-19 -74 -85 -118.5t-150 -46.5l-9 76q80 4 158 57t99 165h78v-665h212v-73h-525z" />
    <glyph glyph-name="threeeighths" unicode="&#x215c;" 
d="M616 -328q123 0 173.5 36.5t50.5 123.5v17q0 73 -50.5 102.5t-173.5 29.5t-172 -29.5t-49 -102.5v-17q0 -88 49 -124t172 -36zM617 56q111 0 156.5 23t45.5 81v28q0 73 -45.5 102.5t-156.5 29.5t-156.5 -29.5t-45.5 -102.5v-28q0 -58 45.5 -81t156.5 -23zM331 186
q0 209 285 209q138 0 212.5 -48.5t74.5 -160.5v-18q0 -60 -33.5 -96.5t-81.5 -43.5v-15q65 -6 101 -53.5t36 -117.5v-15q0 -110 -66 -169.5t-242 -59.5t-241 61.5t-65 167.5v15q0 74 35.5 119.5t98.5 51.5v15q-48 7 -81 43.5t-33 96.5v18zM1214 510l-520 15v69l520 13v-97z
M19 510v97l543 -13v-69zM610 750q-165 0 -235 47.5t-75 140.5l82 8q7 -69 48.5 -95t173.5 -26t185 32.5t53 112.5v30q0 63 -51.5 91t-174.5 28h-100v73h100q110 0 157.5 19.5t47.5 63.5v38q0 67 -50 94.5t-158 27.5t-156.5 -22t-52.5 -80l-84 8q6 91 75 130t216 39
t218.5 -44.5t71.5 -141.5v-30q0 -58 -35.5 -89.5t-89.5 -39.5v-14q65 -6 105.5 -49.5t40.5 -109.5v-26q0 -112 -73.5 -164t-238.5 -52z" />
    <glyph glyph-name="fiveeighths" unicode="&#x215d;" 
d="M616 -328q123 0 173.5 36.5t50.5 123.5v17q0 73 -50.5 102.5t-173.5 29.5t-172 -29.5t-49 -102.5v-17q0 -88 49 -124t172 -36zM617 56q111 0 156.5 23t45.5 81v28q0 73 -45.5 102.5t-156.5 29.5t-156.5 -29.5t-45.5 -102.5v-28q0 -58 45.5 -81t156.5 -23zM331 186
q0 209 285 209q138 0 212.5 -48.5t74.5 -160.5v-18q0 -60 -33.5 -96.5t-81.5 -43.5v-15q65 -6 101 -53.5t36 -117.5v-15q0 -110 -66 -169.5t-242 -59.5t-241 61.5t-65 167.5v15q0 74 35.5 119.5t98.5 51.5v15q-48 7 -81 43.5t-33 96.5v18zM1214 510l-520 15v69l520 13v-97z
M19 510v97l543 -13v-69zM923 961q0 -211 -307 -211q-168 0 -238.5 46.5t-75.5 164.5l80 11q7 -89 56.5 -119t175.5 -30t177 32.5t51 110.5v47q0 69 -50.5 99.5t-167.5 30.5h-294v356h556v-73h-471v-208h212q141 0 218.5 -49.5t77.5 -146.5v-61z" />
    <glyph glyph-name="seveneighths" unicode="&#x215e;" 
d="M616 -328q123 0 173.5 36.5t50.5 123.5v17q0 73 -50.5 102.5t-173.5 29.5t-172 -29.5t-49 -102.5v-17q0 -88 49 -124t172 -36zM617 56q111 0 156.5 23t45.5 81v28q0 73 -45.5 102.5t-156.5 29.5t-156.5 -29.5t-45.5 -102.5v-28q0 -58 45.5 -81t156.5 -23zM331 186
q0 209 285 209q138 0 212.5 -48.5t74.5 -160.5v-18q0 -60 -33.5 -96.5t-81.5 -43.5v-15q65 -6 101 -53.5t36 -117.5v-15q0 -110 -66 -169.5t-242 -59.5t-241 61.5t-65 167.5v15q0 74 35.5 119.5t98.5 51.5v15q-48 7 -81 43.5t-33 96.5v18zM1214 510l-520 15v69l520 13v-97z
M19 510v97l543 -13v-69zM309 1430v71h614v-71q-119 -188 -196 -336t-111 -331h-85q44 201 113 346t196 321h-531z" />
    <glyph glyph-name="arrowleft" unicode="&#x2190;" 
d="M616 1350v-561h598v-89h-598v-560h-33l-564 586v37l564 587h33z" />
    <glyph glyph-name="arrowup" unicode="&#x2191;" 
d="M572 0v838h-511v37l539 614h33l538 -614v-37h-510v-838h-89z" />
    <glyph glyph-name="arrowright" unicode="&#x2192;" 
d="M616 140v560h-597v89h597v561h36l562 -587v-37l-562 -586h-36z" />
    <glyph glyph-name="arrowdown" unicode="&#x2193;" 
d="M61 652h511v837h89v-837h510v-38l-538 -614h-33l-539 614v38z" />
    <glyph glyph-name="arrowboth" unicode="&#x2194;" 
d="M497 700v-560h-35l-443 586v37l443 587h35v-561h238v561h36l443 -587v-37l-443 -586h-36v560h-238z" />
    <glyph glyph-name="arrowupdn" unicode="&#x2195;" 
d="M61 465h511v559h-511v37l539 615h33l538 -615v-37h-510v-559h510v-37l-538 -614h-33l-539 614v37z" />
    <glyph glyph-name="arrowupdnbse" unicode="&#x21a8;" 
d="M61 465h511v559h-511v37l539 615h33l538 -615v-37h-510v-559h510v-37l-538 -614h-33l-539 614v37zM138 -320v89h957v-89h-957z" />
    <glyph glyph-name="partialdiff" unicode="&#x2202;" 
d="M658 834q-165 0 -241 -79t-106 -241l-22 -116q-30 -169 25.5 -252.5t219.5 -84.5t241.5 83.5t110.5 253.5l24 116q34 160 -26.5 240t-225.5 80zM525 -19q-177 0 -275.5 105.5t-57.5 315.5l26 132q35 175 143.5 277.5t264.5 102.5t238 -57.5t104 -137.5h8
q52 317 -36.5 476t-369.5 246l30 61q302 -91 402 -278t33 -535l-52 -276q-43 -223 -162 -327.5t-296 -104.5z" />
    <glyph glyph-name="Delta#1" unicode="&#x2206;" 
d="M1013 82l-399 1270l-402 -1270h801zM127 0v82l448 1407h67l464 -1407v-82h-979z" />
    <glyph glyph-name="product" unicode="&#x220f;" 
d="M229 -372v1861h775v-1861h-92v1780h-592v-1780h-91z" />
    <glyph glyph-name="summation" unicode="&#x2211;" 
d="M1037 -290v-82h-858v82l575 873l-575 825v81h858v-81h-750l549 -801v-52l-551 -845h752z" />
    <glyph glyph-name="minus" unicode="&#x2212;" 
d="M138 607v89h957v-89h-957z" />
    <glyph glyph-name="radical" unicode="&#x221a;" 
d="M667 0l-360 843l-162 -41v73l212 56l337 -808l367 1553h73l-399 -1676h-68z" />
    <glyph glyph-name="infinity" unicode="&#x221e;" 
d="M384 344q56 0 96.5 83t91.5 303q-58 238 -103 326.5t-102 88.5q-67 0 -104.5 -105t-36.5 -295t42.5 -295.5t115.5 -105.5zM866 344q67 0 104 105.5t37 295.5q-2 190 -43.5 295t-109.5 105t-109 -82t-88 -303q58 -238 103 -327t106 -89zM136 745q0 216 63.5 349t165.5 133
q82 0 141.5 -80t120.5 -296q39 210 97 293t132 83q106 0 173.5 -133t67.5 -348t-65.5 -349t-171.5 -134q-76 0 -133 81.5t-120 303.5q-70 -385 -235 -385q-106 0 -171 133t-65 349z" />
    <glyph glyph-name="orthogonal" unicode="&#x221f;" 
d="M229 0v1303h91v-1221h717v-82h-808z" />
    <glyph glyph-name="intersection" unicode="&#x2229;" 
d="M229 0v819q0 242 100.5 372.5t286.5 130.5t287 -130.5t101 -372.5v-819h-92v819q0 216 -72.5 318.5t-224.5 102.5t-223.5 -102.5t-71.5 -318.5v-819h-91z" />
    <glyph glyph-name="integral" unicode="&#x222b;" 
d="M572 -45v1214q0 162 83.5 250.5t212.5 88.5q73 0 169 -41l-19 -78q-91 37 -169 37t-133 -60.5t-55 -194.5v-1216q0 -160 -84 -247.5t-212 -89.5q-80 4 -170 41l19 78q83 -34 153 -37q205 4 205 255z" />
    <glyph glyph-name="approxequal" unicode="&#x2248;" 
d="M363 493q-121 0 -121 -262v-231h-89v242q0 162 62.5 246.5t150.5 84.5t149 -62t135 -202t114 -194.5t98 -54.5q128 0 128 270v225h90v-238q0 -162 -61 -249t-149 -87t-147 62.5t-133 203.5t-114 193.5t-113 52.5zM363 1238q-121 0 -121 -262v-231h-89v242
q0 162 62.5 246.5t150.5 84.5t149 -62t135 -202t114 -195t98 -55q128 0 128 270v226h90v-239q0 -162 -61 -248.5t-149 -86.5t-146.5 63.5t-133 203t-114.5 192.5t-113 53z" />
    <glyph glyph-name="notequal" unicode="&#x2260;" 
d="M1095 402h-512l-93 -402h-90l92 402h-354v90h376l115 506h-491v89h512l93 402h89l-91 -402h354v-89h-376l-114 -506h490v-90z" />
    <glyph glyph-name="equivalence" unicode="&#x2261;" 
d="M138 235v89h957v-89h-957zM138 607v89h957v-89h-957zM138 979v90h957v-90h-957z" />
    <glyph glyph-name="lessequal" unicode="&#x2264;" 
d="M190 0v73h853v-73h-853zM1043 372l-853 466v91l853 466v-82l-767 -430l767 -429v-82z" />
    <glyph glyph-name="greaterequal" unicode="&#x2265;" 
d="M1043 0h-853v73h853v-73zM190 372v82l767 429l-767 430v82l853 -466v-91z" />
    <glyph glyph-name="logicalnotreversed" unicode="&#x2310;" 
d="M179 0v696h916v-89h-827v-607h-89z" />
    <glyph glyph-name="integralbt" unicode="&#x2321;" 
d="M572 -45v1534h89v-1534q0 -160 -84 -247.5t-212 -89.5q-80 4 -170 41l19 78q83 -34 153 -37q205 4 205 255z" />
    <glyph glyph-name="uni23af" unicode="&#x23af;" 
d="M-19 700v89h1270v-89h-1270z" />
    <glyph glyph-name="lighthorzbxd" unicode="&#x2500;" 
d="M-37 605h1307v-93h-1307v93z" />
    <glyph glyph-name="heavyhorzbxd" unicode="&#x2501;" 
d="M-37 652h1307v-187h-1307v187z" />
    <glyph glyph-name="lightvertbxd" unicode="&#x2502;" 
d="M570 1955h93v-2793h-93v2793z" />
    <glyph glyph-name="heavyvertbxd" unicode="&#x2503;" 
d="M523 1955h186v-2793h-186v2793z" />
    <glyph glyph-name="lighttrpldashhorzbxd" unicode="&#x2504;" 
d="M886 605h274v-93h-274v93zM477 605h273v-93h-273v93zM67 605h274v-93h-274v93z" />
    <glyph glyph-name="heavytrpldashhorzbxd" unicode="&#x2505;" 
d="M886 652h274v-187h-274v187zM477 652h273v-187h-273v187zM67 652h274v-187h-274v187z" />
    <glyph glyph-name="lighttrpldashvertbxd" unicode="&#x2506;" 
d="M570 2147h93v-455h-93v455zM570 1465h93v-454h-93v454zM570 784h93v-454h-93v454zM570 102h93v-454h-93v454z" />
    <glyph glyph-name="heavytrpldashvertbxd" unicode="&#x2507;" 
d="M523 2147h186v-455h-186v455zM523 1465h186v-454h-186v454zM523 784h186v-454h-186v454zM523 102h186v-454h-186v454z" />
    <glyph glyph-name="lightquaddashhorzbxd" unicode="&#x2508;" 
d="M959 605h231v-93h-231v93zM652 605h231v-93h-231v93zM344 605h231v-93h-231v93zM37 605h231v-93h-231v93z" />
    <glyph glyph-name="heavyquaddashhorzbxd" unicode="&#x2509;" 
d="M959 652h231v-187h-231v187zM652 652h231v-187h-231v187zM344 652h231v-187h-231v187zM37 652h231v-187h-231v187z" />
    <glyph glyph-name="lightquaddashvertbxd" unicode="&#x250a;" 
d="M570 1519h93v-385h-93v385zM570 1007h93v-385h-93v385zM570 495h93v-385h-93v385zM570 -17h93v-385h-93v385z" />
    <glyph glyph-name="heavyquaddashvertbxd" unicode="&#x250b;" 
d="M523 1519h186v-385h-186v385zM523 1007h186v-385h-186v385zM523 495h186v-385h-186v385zM523 -17h186v-385h-186v385z" />
    <glyph glyph-name="lightdnrightbxd" unicode="&#x250c;" 
d="M570 605h700v-93h-607v-1350h-93v1443z" />
    <glyph glyph-name="dnlightrightheavybxd" unicode="&#x250d;" 
d="M570 652h700v-187h-607v-1303h-93v1490z" />
    <glyph glyph-name="dnheavyrightlightbxd" unicode="&#x250e;" 
d="M523 605h747v-93h-561v-1350h-186v1443z" />
    <glyph glyph-name="heavydnrightbxd" unicode="&#x250f;" 
d="M523 652h747v-187h-561v-1303h-186v1490z" />
    <glyph glyph-name="lightdnleftbxd" unicode="&#x2510;" 
d="M-37 605h700v-1443h-93v1350h-607v93z" />
    <glyph glyph-name="dnlightleftheavybxd" unicode="&#x2511;" 
d="M-37 652h700v-1490h-93v1303h-607v187z" />
    <glyph glyph-name="dnheavyleftlightbxd" unicode="&#x2512;" 
d="M-37 605h746v-1443h-186v1350h-560v93z" />
    <glyph glyph-name="heavydnleftbxd" unicode="&#x2513;" 
d="M-37 652h746v-1490h-186v1303h-560v187z" />
    <glyph glyph-name="lightuprightbxd" unicode="&#x2514;" 
d="M570 1955h93v-1350h607v-93h-700v1443z" />
    <glyph glyph-name="uplightrightheavybxd" unicode="&#x2515;" 
d="M570 1955h93v-1303h607v-187h-700v1490z" />
    <glyph glyph-name="upheavyrightlightbxd" unicode="&#x2516;" 
d="M523 1955h186v-1350h561v-93h-747v1443z" />
    <glyph glyph-name="heavyuprightbxd" unicode="&#x2517;" 
d="M523 1955h186v-1303h561v-187h-747v1490z" />
    <glyph glyph-name="lightupleftbxd" unicode="&#x2518;" 
d="M-37 605h607v1350h93v-1443h-700v93z" />
    <glyph glyph-name="uplightleftheavybxd" unicode="&#x2519;" 
d="M-37 652h607v1303h93v-1490h-700v187z" />
    <glyph glyph-name="upheavyleftlightbxd" unicode="&#x251a;" 
d="M-37 605h560v1350h186v-1443h-746v93z" />
    <glyph glyph-name="heavyupleftbxd" unicode="&#x251b;" 
d="M-37 652h560v1303h186v-1490h-746v187z" />
    <glyph glyph-name="lightvertrightbxd" unicode="&#x251c;" 
d="M570 1955h93v-1350h607v-93h-607v-1350h-93v2793z" />
    <glyph glyph-name="vertlightrightheavybxd" unicode="&#x251d;" 
d="M570 1955h93v-1303h607v-187h-607v-1303h-93v2793z" />
    <glyph glyph-name="upheavyrightdnlightbxd" unicode="&#x251e;" 
d="M523 1955h186v-1350h561v-93h-607v-1350h-93v1350h-47v1443z" />
    <glyph glyph-name="dnheavyrightuplightbxd" unicode="&#x251f;" 
d="M523 605h47v1350h93v-1350h607v-93h-561v-1350h-186v1443z" />
    <glyph glyph-name="vertheavyrightlightbxd" unicode="&#x2520;" 
d="M523 1955h186v-1350h561v-93h-561v-1350h-186v2793z" />
    <glyph glyph-name="dnlightrightupheavybxd" unicode="&#x2521;" 
d="M523 1955h186v-1303h561v-187h-607v-1303h-93v1303h-47v1490z" />
    <glyph glyph-name="uplightrightdnheavybxd" unicode="&#x2522;" 
d="M523 652h47v1303h93v-1303h607v-187h-561v-1303h-186v1490z" />
    <glyph glyph-name="heavyvertrightbxd" unicode="&#x2523;" 
d="M523 1955h186v-1303h561v-187h-561v-1303h-186v2793z" />
    <glyph glyph-name="lightvertleftbxd" unicode="&#x2524;" 
d="M-37 605h607v1350h93v-2793h-93v1350h-607v93z" />
    <glyph glyph-name="vertlightleftheavybxd" unicode="&#x2525;" 
d="M-37 652h607v1303h93v-2793h-93v1303h-607v187z" />
    <glyph glyph-name="upheavyleftdnlightbxd" unicode="&#x2526;" 
d="M-37 605h560v1350h186v-1443h-46v-1350h-93v1350h-607v93z" />
    <glyph glyph-name="dnheavyleftuplightbxd" unicode="&#x2527;" 
d="M-37 605h607v1350h93v-1350h46v-1443h-186v1350h-560v93z" />
    <glyph glyph-name="vertheavyleftlightbxd" unicode="&#x2528;" 
d="M-37 605h560v1350h186v-2793h-186v1350h-560v93z" />
    <glyph glyph-name="dnlightleftupheavybxd" unicode="&#x2529;" 
d="M-37 652h560v1303h186v-1490h-46v-1303h-93v1303h-607v187z" />
    <glyph glyph-name="uplightleftdnheavybxd" unicode="&#x252a;" 
d="M-37 652h607v1303h93v-1303h46v-1490h-186v1303h-560v187z" />
    <glyph glyph-name="heavyvertleftbxd" unicode="&#x252b;" 
d="M-37 652h560v1303h186v-2793h-186v1303h-560v187z" />
    <glyph glyph-name="lightdnhorzbxd" unicode="&#x252c;" 
d="M-37 605h1307v-93h-607v-1350h-93v1350h-607v93z" />
    <glyph glyph-name="leftheavyrightdnlightbxd" unicode="&#x252d;" 
d="M-37 652h700v-47h607v-93h-607v-1350h-93v1303h-607v187z" />
    <glyph glyph-name="rightheavyleftdnlightbxd" unicode="&#x252e;" 
d="M-37 605h607v47h700v-187h-607v-1303h-93v1350h-607v93z" />
    <glyph glyph-name="dnlighthorzheavybxd" unicode="&#x252f;" 
d="M-37 652h1307v-187h-607v-1303h-93v1303h-607v187z" />
    <glyph glyph-name="dnheavyhorzlightbxd" unicode="&#x2530;" 
d="M-37 605h1307v-93h-561v-1350h-186v1350h-560v93z" />
    <glyph glyph-name="rightlightleftdnheavybxd" unicode="&#x2531;" 
d="M-37 652h746v-47h561v-93h-561v-1350h-186v1303h-560v187z" />
    <glyph glyph-name="leftlightrightdnheavybxd" unicode="&#x2532;" 
d="M-37 605h560v47h747v-187h-561v-1303h-186v1350h-560v93z" />
    <glyph glyph-name="heavydnhorzbxd" unicode="&#x2533;" 
d="M-37 652h1307v-187h-561v-1303h-186v1303h-560v187z" />
    <glyph glyph-name="lightuphorzbxd" unicode="&#x2534;" 
d="M-37 605h607v1350h93v-1350h607v-93h-1307v93z" />
    <glyph glyph-name="leftheavyrightuplightbxd" unicode="&#x2535;" 
d="M-37 652h607v1303h93v-1350h607v-93h-607v-47h-700v187z" />
    <glyph glyph-name="rightheavyleftuplightbxd" unicode="&#x2536;" 
d="M-37 605h607v1350h93v-1303h607v-187h-700v47h-607v93z" />
    <glyph glyph-name="uplighthorzheavybxd" unicode="&#x2537;" 
d="M-37 652h607v1303h93v-1303h607v-187h-1307v187z" />
    <glyph glyph-name="upheavyhorzlightbxd" unicode="&#x2538;" 
d="M-37 605h560v1350h186v-1350h561v-93h-1307v93z" />
    <glyph glyph-name="rightlightleftupheavybxd" unicode="&#x2539;" 
d="M-37 652h560v1303h186v-1350h561v-93h-561v-47h-746v187z" />
    <glyph glyph-name="leftlightrightupheavybxd" unicode="&#x253a;" 
d="M-37 605h560v1350h186v-1303h561v-187h-747v47h-560v93z" />
    <glyph glyph-name="heavyuphorzbxd" unicode="&#x253b;" 
d="M-37 652h560v1303h186v-1303h561v-187h-1307v187z" />
    <glyph glyph-name="lightverthorzbxd" unicode="&#x253c;" 
d="M-37 605h607v1350h93v-1350h607v-93h-607v-1350h-93v1350h-607v93z" />
    <glyph glyph-name="leftheavyrightvertlightbxd" unicode="&#x253d;" 
d="M-37 652h607v1303h93v-1350h607v-93h-607v-1350h-93v1303h-607v187z" />
    <glyph glyph-name="rightheavyleftvertlightbxd" unicode="&#x253e;" 
d="M-37 605h607v1350h93v-1303h607v-187h-607v-1303h-93v1350h-607v93z" />
    <glyph glyph-name="vertlighthorzheavybxd" unicode="&#x253f;" 
d="M-37 652h607v1303h93v-1303h607v-187h-607v-1303h-93v1303h-607v187z" />
    <glyph glyph-name="upheavydnhorzlightbxd" unicode="&#x2540;" 
d="M-37 605h560v1350h186v-1350h561v-93h-607v-1350h-93v1350h-607v93z" />
    <glyph glyph-name="dnheavyuphorzlightbxd" unicode="&#x2541;" 
d="M-37 605h607v1350h93v-1350h607v-93h-561v-1350h-186v1350h-560v93z" />
    <glyph glyph-name="vertheavyhorzlightbxd" unicode="&#x2542;" 
d="M-37 605h560v1350h186v-1350h561v-93h-561v-1350h-186v1350h-560v93z" />
    <glyph glyph-name="leftupheavyrightdnlightbxd" unicode="&#x2543;" 
d="M-37 652h560v1303h186v-1350h561v-93h-561v-47h-46v-1303h-93v1303h-607v187z" />
    <glyph glyph-name="rightupheavyleftdnlightbxd" unicode="&#x2544;" 
d="M-37 605h560v1350h186v-1303h561v-187h-607v-1303h-93v1303h-47v47h-560v93z" />
    <glyph glyph-name="leftdnheavyrightuplightbxd" unicode="&#x2545;" 
d="M-37 652h607v1303h93v-1303h46v-47h561v-93h-561v-1350h-186v1303h-560v187z" />
    <glyph glyph-name="rightdnheavyleftuplightbxd" unicode="&#x2546;" 
d="M-37 605h560v47h47v1303h93v-1303h607v-187h-561v-1303h-186v1350h-560v93z" />
    <glyph glyph-name="dnlightuphorzheavybxd" unicode="&#x2547;" 
d="M-37 652h560v1303h186v-1303h561v-187h-607v-1303h-93v1303h-607v187z" />
    <glyph glyph-name="uplightdnhorzheavybxd" unicode="&#x2548;" 
d="M-37 652h607v1303h93v-1303h607v-187h-561v-1303h-186v1303h-560v187z" />
    <glyph glyph-name="rightlightleftvertheavybxd" unicode="&#x2549;" 
d="M-37 652h560v1303h186v-1350h561v-93h-561v-1350h-186v1303h-560v187z" />
    <glyph glyph-name="leftlightrightvertheavybxd" unicode="&#x254a;" 
d="M-37 605h560v1350h186v-1303h561v-187h-561v-1303h-186v1350h-560v93z" />
    <glyph glyph-name="heavyverthorzbxd" unicode="&#x254b;" 
d="M-37 652h560v1303h186v-1303h561v-187h-561v-1303h-186v1303h-560v187z" />
    <glyph glyph-name="lightdbldashhorzbxd" unicode="&#x254c;" 
d="M769 605h309v-93h-309v93zM153 605h309v-93h-309v93z" />
    <glyph glyph-name="heavydbldashhorzbxd" unicode="&#x254d;" 
d="M769 652h309v-187h-309v187zM153 652h309v-187h-309v187z" />
    <glyph glyph-name="lightdbldashvertbxd" unicode="&#x254e;" 
d="M570 1326h93v-512h-93v512zM570 302h93v-512h-93v512z" />
    <glyph glyph-name="heavydbldashvertbxd" unicode="&#x254f;" 
d="M523 1326h186v-512h-186v512zM523 302h186v-512h-186v512z" />
    <glyph glyph-name="dblhorzbxd" unicode="&#x2550;" 
d="M-37 512h1307v-93h-1307v93zM-37 698h1307v-93h-1307v93z" />
    <glyph glyph-name="dblvertbxd" unicode="&#x2551;" 
d="M663 1955h93v-2793h-93v2793zM477 1955h93v-2793h-93v2793z" />
    <glyph glyph-name="dnsngrightdblbxd" unicode="&#x2552;" 
d="M570 698h700v-93h-607v-93h607v-93h-607v-1257h-93v1536z" />
    <glyph glyph-name="dndblrightsngbxd" unicode="&#x2553;" 
d="M477 605h793v-93h-514v-1350h-93v1350h-93v-1350h-93v1443z" />
    <glyph glyph-name="dbldnrightbxd" unicode="&#x2554;" 
d="M663 512h607v-93h-514v-1257h-93v1350zM477 698h793v-93h-700v-1443h-93v1536z" />
    <glyph glyph-name="dnsngleftdblbxd" unicode="&#x2555;" 
d="M-37 698h700v-1536h-93v1257h-607v93h607v93h-607v93z" />
    <glyph glyph-name="dndblleftsngbxd" unicode="&#x2556;" 
d="M-37 605h793v-1443h-93v1350h-93v-1350h-93v1350h-514v93z" />
    <glyph glyph-name="dbldnleftbxd" unicode="&#x2557;" 
d="M-37 512h607v-1350h-93v1257h-514v93zM-37 698h793v-1536h-93v1443h-700v93z" />
    <glyph glyph-name="upsngrightdblbxd" unicode="&#x2558;" 
d="M570 1955h93v-1257h607v-93h-607v-93h607v-93h-700v1536z" />
    <glyph glyph-name="updblrightsngbxd" unicode="&#x2559;" 
d="M477 1955h93v-1350h93v1350h93v-1350h514v-93h-793v1443z" />
    <glyph glyph-name="dbluprightbxd" unicode="&#x255a;" 
d="M663 1955h93v-1257h514v-93h-607v1350zM477 1955h93v-1443h700v-93h-793v1536z" />
    <glyph glyph-name="upsngleftdblbxd" unicode="&#x255b;" 
d="M-37 698h607v1257h93v-1536h-700v93h607v93h-607v93z" />
    <glyph glyph-name="updblleftsngbxd" unicode="&#x255c;" 
d="M-37 605h514v1350h93v-1350h93v1350h93v-1443h-793v93z" />
    <glyph glyph-name="dblupleftbxd" unicode="&#x255d;" 
d="M-37 698h514v1257h93v-1350h-607v93zM-37 512h700v1443h93v-1536h-793v93z" />
    <glyph glyph-name="vertsngrightdblbxd" unicode="&#x255e;" 
d="M570 1955h93v-1257h607v-93h-607v-93h607v-93h-607v-1257h-93v2793z" />
    <glyph glyph-name="vertdblrightsngbxd" unicode="&#x255f;" 
d="M477 1955h93v-2793h-93v2793zM663 1955h93v-1350h514v-93h-514v-1350h-93v2793z" />
    <glyph glyph-name="dblvertrightbxd" unicode="&#x2560;" 
d="M663 512h607v-93h-514v-1257h-93v1350zM663 1955h93v-1257h514v-93h-607v1350zM477 1955h93v-2793h-93v2793z" />
    <glyph glyph-name="vertsngleftdblbxd" unicode="&#x2561;" 
d="M-37 698h607v1257h93v-2793h-93v1257h-607v93h607v93h-607v93z" />
    <glyph glyph-name="vertdblleftsngbxd" unicode="&#x2562;" 
d="M663 1955h93v-2793h-93v2793zM-37 605h514v1350h93v-2793h-93v1350h-514v93z" />
    <glyph glyph-name="dblvertleftbxd" unicode="&#x2563;" 
d="M-37 698h514v1257h93v-1350h-607v93zM-37 512h607v-1350h-93v1257h-514v93zM663 1955h93v-2793h-93v2793z" />
    <glyph glyph-name="dnsnghorzdblbxd" unicode="&#x2564;" 
d="M-37 698h1307v-93h-1307v93zM-37 512h1307v-93h-607v-1257h-93v1257h-607v93z" />
    <glyph glyph-name="dndblhorzsngbxd" unicode="&#x2565;" 
d="M-37 605h1307v-93h-514v-1350h-93v1350h-93v-1350h-93v1350h-514v93z" />
    <glyph glyph-name="dbldnhorzbxd" unicode="&#x2566;" 
d="M-37 698h1307v-93h-1307v93zM663 512h607v-93h-514v-1257h-93v1350zM-37 512h607v-1350h-93v1257h-514v93z" />
    <glyph glyph-name="upsnghorzdblbxd" unicode="&#x2567;" 
d="M-37 512h1307v-93h-1307v93zM-37 698h607v1257h93v-1257h607v-93h-1307v93z" />
    <glyph glyph-name="updblhorzsngbxd" unicode="&#x2568;" 
d="M-37 605h514v1350h93v-1350h93v1350h93v-1350h514v-93h-1307v93z" />
    <glyph glyph-name="dbluphorzbxd" unicode="&#x2569;" 
d="M-37 512h1307v-93h-1307v93zM663 1955h93v-1257h514v-93h-607v1350zM-37 698h514v1257h93v-1350h-607v93z" />
    <glyph glyph-name="vertsnghorzdblbxd" unicode="&#x256a;" 
d="M-37 698h607v1257h93v-1257h607v-93h-607v-93h607v-93h-607v-1257h-93v1257h-607v93h607v93h-607v93z" />
    <glyph glyph-name="vertdblhorzsngbxd" unicode="&#x256b;" 
d="M-37 605h514v1350h93v-1350h93v1350h93v-1350h514v-93h-514v-1350h-93v1350h-93v-1350h-93v1350h-514v93z" />
    <glyph glyph-name="dblverthorzbxd" unicode="&#x256c;" 
d="M663 512h607v-93h-514v-1257h-93v1350zM663 1955h93v-1257h514v-93h-607v1350zM-37 512h607v-1350h-93v1257h-514v93zM-37 698h514v1257h93v-1350h-607v93z" />
    <glyph glyph-name="lightarcdnrightbxd" unicode="&#x256d;" 
d="M570 -58q0 138 52 259t141.5 210.5t210.5 141.5t259 52h37v-93h-37q-117 0 -221.5 -44.5t-226.5 -166.5t-122 -359v-780h-93v780z" />
    <glyph glyph-name="lightarcdnleftbxd" unicode="&#x256e;" 
d="M663 -838h-93v780q0 117 -45 221.5t-122 182t-181.5 122t-221.5 44.5h-37v93h37q138 0 259 -52t210.5 -141.5t141.5 -210.5t52 -259v-780z" />
    <glyph glyph-name="lightarcupleftbxd" unicode="&#x256f;" 
d="M663 1175q0 -138 -52 -259t-141.5 -210.5t-210.5 -141.5t-259 -52h-37v93h37q117 0 221.5 44.5t181.5 122t122 182t45 221.5v780h93v-780z" />
    <glyph glyph-name="lightarcuprightbxd" unicode="&#x2570;" 
d="M570 1955h93v-780q0 -117 44.5 -221.5t166.5 -226.5t359 -122h37v-93h-37q-138 0 -259 52t-210.5 141.5t-141.5 210.5t-52 259v780z" />
    <glyph glyph-name="lightdiaguprightdnleftbxd" unicode="&#x2571;" 
d="M1233 1583v-90l-1179 -1958h-54v89l1179 1959h54z" />
    <glyph glyph-name="lightdiagupleftdnrightbxd" unicode="&#x2572;" 
d="M1233 -465h-54l-1179 1958v90h54l1179 -1959v-89z" />
    <glyph glyph-name="lightdiagcrossbxd" unicode="&#x2573;" 
d="M0 1583h54l562 -935l563 935h54v-90l-563 -934l563 -935v-89h-54l-563 934l-562 -934h-54v89l562 935l-562 934v90z" />
    <glyph glyph-name="lightleftbxd" unicode="&#x2574;" 
d="M-37 605h700v-93h-700v93z" />
    <glyph glyph-name="lightupbxd" unicode="&#x2575;" 
d="M570 1955h93v-1443h-93v1443z" />
    <glyph glyph-name="lightrightbxd" unicode="&#x2576;" 
d="M570 605h700v-93h-700v93z" />
    <glyph glyph-name="lightdnbxd" unicode="&#x2577;" 
d="M570 605h93v-1443h-93v1443z" />
    <glyph glyph-name="heavyleftbxd" unicode="&#x2578;" 
d="M-37 652h700v-187h-700v187z" />
    <glyph glyph-name="heavyupbxd" unicode="&#x2579;" 
d="M523 1955h186v-1443h-186v1443z" />
    <glyph glyph-name="heavyrightbxd" unicode="&#x257a;" 
d="M570 652h700v-187h-700v187z" />
    <glyph glyph-name="heavydnbxd" unicode="&#x257b;" 
d="M523 605h186v-1443h-186v1443z" />
    <glyph glyph-name="lightleftheavyrightbxd" unicode="&#x257c;" 
d="M-37 605h607v47h700v-187h-700v47h-607v93z" />
    <glyph glyph-name="lightupheavydnbxd" unicode="&#x257d;" 
d="M523 605h47v1350h93v-1350h46v-1443h-186v1443z" />
    <glyph glyph-name="heavyleftlightrightbxd" unicode="&#x257e;" 
d="M-37 652h700v-47h607v-93h-607v-47h-700v187z" />
    <glyph glyph-name="heavyuplightdnbxd" unicode="&#x257f;" 
d="M523 1955h186v-1443h-46v-1350h-93v1350h-47v1443z" />
    <glyph glyph-name="uphalfblock" unicode="&#x2580;" 
d="M0 1583h1233v-1024h-1233v1024z" />
    <glyph glyph-name="dneighthblock" unicode="&#x2581;" 
d="M0 -210h1233v-255h-1233v255z" />
    <glyph glyph-name="dnquarterblock" unicode="&#x2582;" 
d="M0 47h1233v-512h-1233v512z" />
    <glyph glyph-name="dnthreeeighthsblock" unicode="&#x2583;" 
d="M0 302h1233v-767h-1233v767z" />
    <glyph glyph-name="dnhalfblock" unicode="&#x2584;" 
d="M0 559h1233v-1024h-1233v1024z" />
    <glyph glyph-name="dnfiveeighthsblock" unicode="&#x2585;" 
d="M0 814h1233v-1279h-1233v1279z" />
    <glyph glyph-name="dnthreequartersblock" unicode="&#x2586;" 
d="M0 1071h1233v-1536h-1233v1536z" />
    <glyph glyph-name="dnseveneighthsblock" unicode="&#x2587;" 
d="M0 1326h1233v-1791h-1233v1791z" />
    <glyph glyph-name="fullblock" unicode="&#x2588;" 
d="M0 1583h1233v-2048h-1233v2048z" />
    <glyph glyph-name="leftseveneighthsblock" unicode="&#x2589;" 
d="M0 1583h1078v-2048h-1078v2048z" />
    <glyph glyph-name="leftthreequartersblock" unicode="&#x258a;" 
d="M0 1583h923v-2048h-923v2048z" />
    <glyph glyph-name="leftfiveeighthsblock" unicode="&#x258b;" 
d="M0 1583h769v-2048h-769v2048z" />
    <glyph glyph-name="lefthalfblock" unicode="&#x258c;" 
d="M0 1583h616v-2048h-616v2048z" />
    <glyph glyph-name="leftthreeeighthsblock" unicode="&#x258d;" 
d="M0 1583h462v-2048h-462v2048z" />
    <glyph glyph-name="leftquarterblock" unicode="&#x258e;" 
d="M0 1583h307v-2048h-307v2048z" />
    <glyph glyph-name="lefteighthblock" unicode="&#x258f;" 
d="M0 1583h153v-2048h-153v2048z" />
    <glyph glyph-name="righthalfblock" unicode="&#x2590;" 
d="M616 1583h617v-2048h-617v2048z" />
    <glyph glyph-name="lightshade" unicode="&#x2591;" 
d="M1210 1545h37v-56h-37v56zM1117 1452h37v-56h-37v56zM1210 1359h37v-56h-37v56zM1117 1266h37v-56h-37v56zM1210 1173h37v-56h-37v56zM1117 1080h37v-56h-37v56zM1210 987h37v-56h-37v56zM1117 894h37v-56h-37v56zM1210 801h37v-56h-37v56zM1117 707h37v-55h-37v55z
M1210 614h37v-55h-37v55zM1117 521h37v-56h-37v56zM1210 428h37v-56h-37v56zM1117 335h37v-56h-37v56zM1210 242h37v-56h-37v56zM1117 149h37v-56h-37v56zM1210 56h37v-56h-37v56zM1117 -37h37v-56h-37v56zM1210 -130h37v-56h-37v56zM1117 -223h37v-56h-37v56zM1210 -317h37
v-55h-37v55zM1117 -410h37v-55h-37v55zM1024 1545h37v-56h-37v56zM931 1452h37v-56h-37v56zM1024 1359h37v-56h-37v56zM931 1266h37v-56h-37v56zM1024 1173h37v-56h-37v56zM931 1080h37v-56h-37v56zM1024 987h37v-56h-37v56zM931 894h37v-56h-37v56zM1024 801h37v-56h-37v56
zM931 707h37v-55h-37v55zM1024 614h37v-55h-37v55zM931 521h37v-56h-37v56zM1024 428h37v-56h-37v56zM931 335h37v-56h-37v56zM1024 242h37v-56h-37v56zM931 149h37v-56h-37v56zM1024 56h37v-56h-37v56zM931 -37h37v-56h-37v56zM1024 -130h37v-56h-37v56zM931 -223h37v-56
h-37v56zM1024 -317h37v-55h-37v55zM931 -410h37v-55h-37v55zM838 1545h37v-56h-37v56zM745 1452h37v-56h-37v56zM838 1359h37v-56h-37v56zM745 1266h37v-56h-37v56zM838 1173h37v-56h-37v56zM745 1080h37v-56h-37v56zM838 987h37v-56h-37v56zM745 894h37v-56h-37v56z
M838 801h37v-56h-37v56zM745 707h37v-55h-37v55zM838 614h37v-55h-37v55zM745 521h37v-56h-37v56zM838 428h37v-56h-37v56zM745 335h37v-56h-37v56zM838 242h37v-56h-37v56zM745 149h37v-56h-37v56zM838 56h37v-56h-37v56zM745 -37h37v-56h-37v56zM838 -130h37v-56h-37v56z
M745 -223h37v-56h-37v56zM838 -317h37v-55h-37v55zM745 -410h37v-55h-37v55zM652 1545h37v-56h-37v56zM559 1452h37v-56h-37v56zM652 1359h37v-56h-37v56zM559 1266h37v-56h-37v56zM652 1173h37v-56h-37v56zM559 1080h37v-56h-37v56zM652 987h37v-56h-37v56zM559 894h37v-56
h-37v56zM652 801h37v-56h-37v56zM559 707h37v-55h-37v55zM652 614h37v-55h-37v55zM559 521h37v-56h-37v56zM652 428h37v-56h-37v56zM559 335h37v-56h-37v56zM652 242h37v-56h-37v56zM559 149h37v-56h-37v56zM652 56h37v-56h-37v56zM559 -37h37v-56h-37v56zM652 -130h37v-56
h-37v56zM559 -223h37v-56h-37v56zM652 -317h37v-55h-37v55zM559 -410h37v-55h-37v55zM465 1545h38v-56h-38v56zM372 1452h38v-56h-38v56zM465 1359h38v-56h-38v56zM372 1266h38v-56h-38v56zM465 1173h38v-56h-38v56zM372 1080h38v-56h-38v56zM465 987h38v-56h-38v56z
M372 894h38v-56h-38v56zM465 801h38v-56h-38v56zM372 707h38v-55h-38v55zM465 614h38v-55h-38v55zM372 521h38v-56h-38v56zM465 428h38v-56h-38v56zM372 335h38v-56h-38v56zM465 242h38v-56h-38v56zM372 149h38v-56h-38v56zM465 56h38v-56h-38v56zM372 -37h38v-56h-38v56z
M465 -130h38v-56h-38v56zM372 -223h38v-56h-38v56zM465 -317h38v-55h-38v55zM372 -410h38v-55h-38v55zM279 1545h38v-56h-38v56zM186 1452h37v-56h-37v56zM279 1359h38v-56h-38v56zM186 1266h37v-56h-37v56zM279 1173h38v-56h-38v56zM186 1080h37v-56h-37v56zM279 987h38
v-56h-38v56zM186 894h37v-56h-37v56zM279 801h38v-56h-38v56zM186 707h37v-55h-37v55zM279 614h38v-55h-38v55zM186 521h37v-56h-37v56zM279 428h38v-56h-38v56zM186 335h37v-56h-37v56zM279 242h38v-56h-38v56zM186 149h37v-56h-37v56zM279 56h38v-56h-38v56zM186 -37h37
v-56h-37v56zM279 -130h38v-56h-38v56zM186 -223h37v-56h-37v56zM279 -317h38v-55h-38v55zM186 -410h37v-55h-37v55zM93 1545h37v-56h-37v56zM0 1452h37v-56h-37v56zM93 1359h37v-56h-37v56zM0 1266h37v-56h-37v56zM93 1173h37v-56h-37v56zM0 1080h37v-56h-37v56zM93 987h37
v-56h-37v56zM0 894h37v-56h-37v56zM93 801h37v-56h-37v56zM0 707h37v-55h-37v55zM93 614h37v-55h-37v55zM0 521h37v-56h-37v56zM93 428h37v-56h-37v56zM0 335h37v-56h-37v56zM93 242h37v-56h-37v56zM0 149h37v-56h-37v56zM93 56h37v-56h-37v56zM0 -37h37v-56h-37v56z
M93 -130h37v-56h-37v56zM0 -223h37v-56h-37v56zM93 -317h37v-55h-37v55zM0 -410h37v-55h-37v55z" />
    <glyph glyph-name="mediumshade" unicode="&#x2592;" 
d="M1210 1583h75v-94h-75v94zM1117 1489h75v-93h-75v93zM1210 1396h75v-93h-75v93zM1117 1303h75v-93h-75v93zM1210 1210h75v-93h-75v93zM1117 1117h75v-93h-75v93zM1210 1024h75v-93h-75v93zM1117 931h75v-93h-75v93zM1210 838h75v-93h-75v93zM1117 745h75v-93h-75v93z
M1210 652h75v-93h-75v93zM1117 559h75v-94h-75v94zM1210 465h75v-93h-75v93zM1117 372h75v-93h-75v93zM1210 279h75v-93h-75v93zM1117 186h75v-93h-75v93zM1210 93h75v-93h-75v93zM1117 0h75v-93h-75v93zM1210 -93h75v-93h-75v93zM1117 -186h75v-93h-75v93zM1210 -279h75
v-93h-75v93zM1117 -372h75v-93h-75v93zM1024 1583h74v-94h-74v94zM931 1489h74v-93h-74v93zM1024 1396h74v-93h-74v93zM931 1303h74v-93h-74v93zM1024 1210h74v-93h-74v93zM931 1117h74v-93h-74v93zM1024 1024h74v-93h-74v93zM931 931h74v-93h-74v93zM1024 838h74v-93h-74
v93zM931 745h74v-93h-74v93zM1024 652h74v-93h-74v93zM931 559h74v-94h-74v94zM1024 465h74v-93h-74v93zM931 372h74v-93h-74v93zM1024 279h74v-93h-74v93zM931 186h74v-93h-74v93zM1024 93h74v-93h-74v93zM931 0h74v-93h-74v93zM1024 -93h74v-93h-74v93zM931 -186h74v-93
h-74v93zM1024 -279h74v-93h-74v93zM931 -372h74v-93h-74v93zM838 1583h74v-94h-74v94zM745 1489h74v-93h-74v93zM838 1396h74v-93h-74v93zM745 1303h74v-93h-74v93zM838 1210h74v-93h-74v93zM745 1117h74v-93h-74v93zM838 1024h74v-93h-74v93zM745 931h74v-93h-74v93z
M838 838h74v-93h-74v93zM745 745h74v-93h-74v93zM838 652h74v-93h-74v93zM745 559h74v-94h-74v94zM838 465h74v-93h-74v93zM745 372h74v-93h-74v93zM838 279h74v-93h-74v93zM745 186h74v-93h-74v93zM838 93h74v-93h-74v93zM745 0h74v-93h-74v93zM838 -93h74v-93h-74v93z
M745 -186h74v-93h-74v93zM838 -279h74v-93h-74v93zM745 -372h74v-93h-74v93zM652 1583h74v-94h-74v94zM559 1489h74v-93h-74v93zM652 1396h74v-93h-74v93zM559 1303h74v-93h-74v93zM652 1210h74v-93h-74v93zM559 1117h74v-93h-74v93zM652 1024h74v-93h-74v93zM559 931h74
v-93h-74v93zM652 838h74v-93h-74v93zM559 745h74v-93h-74v93zM652 652h74v-93h-74v93zM559 559h74v-94h-74v94zM652 465h74v-93h-74v93zM559 372h74v-93h-74v93zM652 279h74v-93h-74v93zM559 186h74v-93h-74v93zM652 93h74v-93h-74v93zM559 0h74v-93h-74v93zM652 -93h74v-93
h-74v93zM559 -186h74v-93h-74v93zM652 -279h74v-93h-74v93zM559 -372h74v-93h-74v93zM465 1583h75v-94h-75v94zM372 1489h75v-93h-75v93zM465 1396h75v-93h-75v93zM372 1303h75v-93h-75v93zM465 1210h75v-93h-75v93zM372 1117h75v-93h-75v93zM465 1024h75v-93h-75v93z
M372 931h75v-93h-75v93zM465 838h75v-93h-75v93zM372 745h75v-93h-75v93zM465 652h75v-93h-75v93zM372 559h75v-94h-75v94zM465 465h75v-93h-75v93zM372 372h75v-93h-75v93zM465 279h75v-93h-75v93zM372 186h75v-93h-75v93zM465 93h75v-93h-75v93zM372 0h75v-93h-75v93z
M465 -93h75v-93h-75v93zM372 -186h75v-93h-75v93zM465 -279h75v-93h-75v93zM372 -372h75v-93h-75v93zM279 1583h75v-94h-75v94zM186 1489h75v-93h-75v93zM279 1396h75v-93h-75v93zM186 1303h75v-93h-75v93zM279 1210h75v-93h-75v93zM186 1117h75v-93h-75v93zM279 1024h75
v-93h-75v93zM186 931h75v-93h-75v93zM279 838h75v-93h-75v93zM186 745h75v-93h-75v93zM279 652h75v-93h-75v93zM186 559h75v-94h-75v94zM279 465h75v-93h-75v93zM186 372h75v-93h-75v93zM279 279h75v-93h-75v93zM186 186h75v-93h-75v93zM279 93h75v-93h-75v93zM186 0h75v-93
h-75v93zM279 -93h75v-93h-75v93zM186 -186h75v-93h-75v93zM279 -279h75v-93h-75v93zM186 -372h75v-93h-75v93zM93 1583h75v-94h-75v94zM0 1489h74v-93h-74v93zM93 1396h75v-93h-75v93zM0 1303h74v-93h-74v93zM93 1210h75v-93h-75v93zM0 1117h74v-93h-74v93zM93 1024h75v-93
h-75v93zM0 931h74v-93h-74v93zM93 838h75v-93h-75v93zM0 745h74v-93h-74v93zM93 652h75v-93h-75v93zM0 559h74v-94h-74v94zM93 465h75v-93h-75v93zM0 372h74v-93h-74v93zM93 279h75v-93h-75v93zM0 186h74v-93h-74v93zM93 93h75v-93h-75v93zM0 0h74v-93h-74v93zM93 -93h75
v-93h-75v93zM0 -186h74v-93h-74v93zM93 -279h75v-93h-75v93zM0 -372h74v-93h-74v93z" />
    <glyph glyph-name="darkshade" unicode="&#x2593;" 
d="M1210 1610h84v-121h-84v121zM1117 1517h84v-121h-84v121zM1210 1424h84v-121h-84v121zM1117 1331h84v-121h-84v121zM1210 1238h84v-121h-84v121zM1117 1145h84v-121h-84v121zM1210 1052h84v-121h-84v121zM1117 959h84v-121h-84v121zM1210 866h84v-121h-84v121zM1117 773
h84v-121h-84v121zM1210 680h84v-121h-84v121zM1117 586h84v-121h-84v121zM1210 493h84v-121h-84v121zM1117 400h84v-121h-84v121zM1210 307h84v-121h-84v121zM1117 214h84v-121h-84v121zM1210 121h84v-121h-84v121zM1117 28h84v-121h-84v121zM1210 -65h84v-121h-84v121z
M1117 -158h84v-121h-84v121zM1210 -251h84v-121h-84v121zM1117 -344h84v-121h-84v121zM1024 1610h84v-121h-84v121zM931 1517h84v-121h-84v121zM1024 1424h84v-121h-84v121zM931 1331h84v-121h-84v121zM1024 1238h84v-121h-84v121zM931 1145h84v-121h-84v121zM1024 1052h84
v-121h-84v121zM931 959h84v-121h-84v121zM1024 866h84v-121h-84v121zM931 773h84v-121h-84v121zM1024 680h84v-121h-84v121zM931 586h84v-121h-84v121zM1024 493h84v-121h-84v121zM931 400h84v-121h-84v121zM1024 307h84v-121h-84v121zM931 214h84v-121h-84v121zM1024 121
h84v-121h-84v121zM931 28h84v-121h-84v121zM1024 -65h84v-121h-84v121zM931 -158h84v-121h-84v121zM1024 -251h84v-121h-84v121zM931 -344h84v-121h-84v121zM838 1610h84v-121h-84v121zM745 1517h84v-121h-84v121zM838 1424h84v-121h-84v121zM745 1331h84v-121h-84v121z
M838 1238h84v-121h-84v121zM745 1145h84v-121h-84v121zM838 1052h84v-121h-84v121zM745 959h84v-121h-84v121zM838 866h84v-121h-84v121zM745 773h84v-121h-84v121zM838 680h84v-121h-84v121zM745 586h84v-121h-84v121zM838 493h84v-121h-84v121zM745 400h84v-121h-84v121z
M838 307h84v-121h-84v121zM745 214h84v-121h-84v121zM838 121h84v-121h-84v121zM745 28h84v-121h-84v121zM838 -65h84v-121h-84v121zM745 -158h84v-121h-84v121zM838 -251h84v-121h-84v121zM745 -344h84v-121h-84v121zM652 1610h83v-121h-83v121zM559 1517h83v-121h-83v121z
M652 1424h83v-121h-83v121zM559 1331h83v-121h-83v121zM652 1238h83v-121h-83v121zM559 1145h83v-121h-83v121zM652 1052h83v-121h-83v121zM559 959h83v-121h-83v121zM652 866h83v-121h-83v121zM559 773h83v-121h-83v121zM652 680h83v-121h-83v121zM559 586h83v-121h-83v121
zM652 493h83v-121h-83v121zM559 400h83v-121h-83v121zM652 307h83v-121h-83v121zM559 214h83v-121h-83v121zM652 121h83v-121h-83v121zM559 28h83v-121h-83v121zM652 -65h83v-121h-83v121zM559 -158h83v-121h-83v121zM652 -251h83v-121h-83v121zM559 -344h83v-121h-83v121z
M465 1610h84v-121h-84v121zM372 1517h84v-121h-84v121zM465 1424h84v-121h-84v121zM372 1331h84v-121h-84v121zM465 1238h84v-121h-84v121zM372 1145h84v-121h-84v121zM465 1052h84v-121h-84v121zM372 959h84v-121h-84v121zM465 866h84v-121h-84v121zM372 773h84v-121h-84
v121zM465 680h84v-121h-84v121zM372 586h84v-121h-84v121zM465 493h84v-121h-84v121zM372 400h84v-121h-84v121zM465 307h84v-121h-84v121zM372 214h84v-121h-84v121zM465 121h84v-121h-84v121zM372 28h84v-121h-84v121zM465 -65h84v-121h-84v121zM372 -158h84v-121h-84v121
zM465 -251h84v-121h-84v121zM372 -344h84v-121h-84v121zM279 1610h84v-121h-84v121zM186 1517h84v-121h-84v121zM279 1424h84v-121h-84v121zM186 1331h84v-121h-84v121zM279 1238h84v-121h-84v121zM186 1145h84v-121h-84v121zM279 1052h84v-121h-84v121zM186 959h84v-121
h-84v121zM279 866h84v-121h-84v121zM186 773h84v-121h-84v121zM279 680h84v-121h-84v121zM186 586h84v-121h-84v121zM279 493h84v-121h-84v121zM186 400h84v-121h-84v121zM279 307h84v-121h-84v121zM186 214h84v-121h-84v121zM279 121h84v-121h-84v121zM186 28h84v-121h-84
v121zM279 -65h84v-121h-84v121zM186 -158h84v-121h-84v121zM279 -251h84v-121h-84v121zM186 -344h84v-121h-84v121zM93 1610h84v-121h-84v121zM0 1517h84v-121h-84v121zM93 1424h84v-121h-84v121zM0 1331h84v-121h-84v121zM93 1238h84v-121h-84v121zM0 1145h84v-121h-84v121
zM93 1052h84v-121h-84v121zM0 959h84v-121h-84v121zM93 866h84v-121h-84v121zM0 773h84v-121h-84v121zM93 680h84v-121h-84v121zM0 586h84v-121h-84v121zM93 493h84v-121h-84v121zM0 400h84v-121h-84v121zM93 307h84v-121h-84v121zM0 214h84v-121h-84v121zM93 121h84v-121
h-84v121zM0 28h84v-121h-84v121zM93 -65h84v-121h-84v121zM0 -158h84v-121h-84v121zM93 -251h84v-121h-84v121zM0 -344h84v-121h-84v121z" />
    <glyph glyph-name="upeighthblock" unicode="&#x2594;" 
d="M0 1583h1233v-257h-1233v257z" />
    <glyph glyph-name="righteighthblock" unicode="&#x2595;" 
d="M1078 1583h155v-2048h-155v2048z" />
    <glyph glyph-name="dnleftquadrant" unicode="&#x2596;" 
d="M0 559h616v-1024h-616v1024z" />
    <glyph glyph-name="dnrightquadrant" unicode="&#x2597;" 
d="M616 559h617v-1024h-617v1024z" />
    <glyph glyph-name="upleftquadrant" unicode="&#x2598;" 
d="M0 1583h616v-1024h-616v1024z" />
    <glyph glyph-name="upleftdnleftdnrightquadrant" unicode="&#x2599;" 
d="M0 1583h616v-1024h617v-1024h-1233v2048z" />
    <glyph glyph-name="upleftdnrightquadrant" unicode="&#x259a;" 
d="M0 1583h616v-1024h-616v1024zM616 559h617v-1024h-617v1024z" />
    <glyph glyph-name="upleftuprightdnleftquadrant" unicode="&#x259b;" 
d="M0 1583h1233v-1024h-617v-1024h-616v2048z" />
    <glyph glyph-name="upleftuprightdnrightquadrant" unicode="&#x259c;" 
d="M0 1583h1233v-2048h-617v1024h-616v1024z" />
    <glyph glyph-name="uprightquadrant" unicode="&#x259d;" 
d="M616 1583h617v-1024h-617v1024z" />
    <glyph glyph-name="uprightdnleftquadrant" unicode="&#x259e;" 
d="M616 1583h617v-1024h-617v1024zM616 559v-1024h-616v1024h616z" />
    <glyph glyph-name="uprightdnleftdnrightquadrant" unicode="&#x259f;" 
d="M0 559h616v1024h617v-2048h-1233v1024z" />
    <glyph glyph-name="blacksquare" unicode="&#x25a0;" 
d="M104 1303h1024v-1117h-1024v1117z" />
    <glyph glyph-name="H22073" unicode="&#x25a1;" 
d="M235 268h763v953h-763v-953zM145 186v1117h944v-1117h-944z" />
    <glyph glyph-name="blacksmallsquare" unicode="&#x25aa;" 
d="M367 1017h499v-544h-499v544z" />
    <glyph glyph-name="whitesmallsquare" unicode="&#x25ab;" 
d="M411 480h410v529h-410v-529zM910 398h-588v693h588v-693z" />
    <glyph glyph-name="triagup" unicode="&#x25b2;" 
d="M1043 372h-853v38l410 893h33l410 -893v-38z" />
    <glyph glyph-name="blackrightpointingpointer" unicode="&#x25ba;" 
d="M190 372v931h33l820 -447v-37l-820 -447h-33z" />
    <glyph glyph-name="blackdownpointingtriangle" unicode="&#x25bc;" 
d="M190 1210h853v-37l-410 -894h-33l-410 894v37z" />
    <glyph glyph-name="triaglf" unicode="&#x25c4;" 
d="M1043 1303v-931h-34l-819 447v37l819 447h34z" />
    <glyph glyph-name="lozenge" unicode="&#x25ca;" 
d="M613 76l413 669l-413 668l-395 -668zM575 0l-448 745l448 744h69l464 -744l-464 -745h-69z" />
    <glyph glyph-name="circle" unicode="&#x25cb;" 
d="M618 240q180 0 295 142t115 366t-115 365.5t-295 141.5t-294 -141.5t-114 -365.5t114 -366t294 -142zM620 160q-216 0 -357.5 166t-141.5 421t141.5 421.5t357.5 166.5t356.5 -166.5t140.5 -421.5t-140.5 -421t-356.5 -166z" />
    <glyph glyph-name="H18533" unicode="&#x25cf;" 
d="M619 160q-234 0 -386.5 166t-152.5 421t152.5 421.5t386.5 166.5t386.5 -166.5t152.5 -421.5t-152.5 -421t-386.5 -166z" />
    <glyph glyph-name="whitebullet" unicode="&#x25e6;" 
d="M617 447q100 0 175.5 47.5t75.5 173.5v146q0 128 -73.5 177.5t-175.5 49.5t-177 -49.5t-75 -177.5v-146q0 -127 75 -174t175 -47zM955 668q0 -147 -89.5 -225t-249.5 -78t-248.5 78t-88.5 225v146q0 149 89.5 229t250.5 80t248.5 -80t87.5 -229v-146z" />
    <glyph glyph-name="uni2619" unicode="&#x2619;" 
d="M141 534q0 306 228 306h20l211 -499h26v471h74q119 0 182.5 -58t63.5 -207v-350q0 -266 -140 -434.5t-352 -168.5t-302.5 103.5t-86.5 246.5l86 -4q0 -125 59.5 -185t154.5 -60q123 0 123 197v71l-347 400v171zM862 994h-480q-149 0 -212.5 85t-55.5 269l81 -4
q-7 -151 34 -210.5t143 -59.5h162v185q0 162 88.5 248.5t256.5 86.5l18 -80q-155 0 -218 -63.5t-63 -219.5v-157h248q127 0 209.5 -96t65.5 -284l-80 4q7 141 -44 218.5t-153 77.5z" />
    <glyph glyph-name="female" unicode="&#x2640;" 
d="M616 551q173 0 281 120.5t108 316.5t-108 317t-281 121t-278 -120t-105 -317t105 -317.5t278 -120.5zM661 -372h-89v420h-343v80h343v343q-192 20 -311.5 164.5t-119.5 361.5t134.5 364t342.5 147t342.5 -147t134.5 -364t-120 -361t-314 -165v-343h343v-80h-343v-420z
" />
    <glyph glyph-name="male" unicode="&#x2642;" 
d="M497 48q173 0 279.5 120.5t106.5 316t-106.5 315.5t-279.5 120t-279 -119.5t-106 -315.5t106 -316.5t279 -120.5zM976 492q0 -235 -134 -382t-344 -147t-344.5 147t-134.5 374t135 374t343 147q126 0 253 -67l363 470h-528v81h672v-742h-80v618l-362 -477
q161 -161 161 -396z" />
    <glyph glyph-name="spade" unicode="&#x2660;" 
d="M907 168v-168h-581v168h205l22 484h-47l-95 -280h-91q-125 0 -187 87.5t-62 203.5v171l482 655h127l484 -655v-171q0 -115 -62.5 -203t-189.5 -88h-91l-95 280h-46l22 -484h205z" />
    <glyph glyph-name="club" unicode="&#x2663;" 
d="M276 994q90 0 171 -121l45 52l-118 198q0 153 63.5 269t179 116t178.5 -116.5t63 -268.5l-117 -198l45 -52q96 134 181 134t154 -75.5t69 -219.5t-99 -257.5t-255 -113.5l-84 320h-69l19 -493h208v-168h-588v168h209l18 493h-71l-83 -320q-156 0 -254 106t-98 257
t71.5 220.5t161.5 69.5z" />
    <glyph glyph-name="heart" unicode="&#x2665;" 
d="M313 1489q243 0 279 -428h48q19 222 104.5 325t195.5 103t174.5 -115t47.5 -268l-34 -320l-415 -786h-195l-414 786l-35 320q-17 153 52 268t192 115z" />
    <glyph glyph-name="diamond" unicode="&#x2666;" 
d="M518 0l-432 745l432 744h180l447 -744l-447 -745h-180z" />
    <glyph glyph-name="musicalnote" unicode="&#x266a;" 
d="M942 806q0 72 -32.5 117t-80 77.5t-100.5 65t-94 88.5v-871q0 -134 -91.5 -218t-215.5 -84t-178.5 60t-54.5 145.5t74.5 161.5t206.5 76h121v1084h116q7 -82 85 -136t167.5 -113.5t163 -144t73.5 -226.5t-61.5 -239.5t-137.5 -170.5l-86 107q48 45 86.5 97t38.5 124z" />
    <glyph glyph-name="uni26A1" unicode="&#x26a1;" 
d="M389 637l544 123l37 -49l-620 -1035l-56 34l506 921l-545 -117l-37 48l573 1021l60 -28z" />
    <glyph glyph-name="checkmark" unicode="&#x2713;" 
d="M1152 1489q-438 -715 -623 -1489h-101l-344 905h89l304 -831q182 775 590 1415h85z" />
    <glyph glyph-name="uni2767" unicode="&#x2767;" 
d="M853 840q227 0 227 -306v-171l-346 -400v-71q0 -86 27.5 -134t108.5 -48t141 61t60 184l85 4q4 -145 -86.5 -247.5t-302.5 -102.5t-351.5 165t-139.5 423v350q0 149 63 207t182 58h75v-471h26l210 499h21zM357 1074h248v157q0 156 -63.5 219.5t-217.5 63.5l19 80
q168 0 256 -86.5t88 -248.5v-185h162q102 0 143 59.5t34 210.5l82 4q7 -184 -56 -269t-212 -85h-481q-102 0 -153 -77t-44 -219l-80 -4q-17 188 66 284t209 96z" />
    <glyph glyph-name="a.salt_ss" unicode="&#xe000;" 
d="M676 1136q157 0 328 -67v-1069h-92v210h-15q-63 -112 -157 -170.5t-204 -58.5q-143 0 -225 119.5t-82 329.5v181q0 246 119 385.5t328 139.5zM322 430q0 -367 233 -367q188 0 357 229v721q-130 45 -244 45q-177 0 -261.5 -111t-84.5 -340v-177z" />
    <glyph glyph-name="agrave.salt_ss" unicode="&#xe001;" 
d="M676 1136q159 0 328 -67v-1069h-92v210h-15q-63 -112 -157 -170t-204 -59q-143 -1 -225 119t-82 330v181q0 245 119 385t328 140zM322 430q0 -367 233 -367q188 0 357 229v721q-126 43 -244 45q-178 0 -262 -111t-84 -340v-177zM670 1303l-316 373h145l248 -373h-77z" />
    <glyph glyph-name="aacute.salt_ss" unicode="&#xe002;" 
d="M676 1136q159 0 328 -67v-1069h-92v210h-15q-63 -112 -157 -170t-204 -59q-143 -1 -225 119t-82 330v181q0 245 119 385t328 140zM322 430q0 -367 233 -367q188 0 357 229v721q-126 43 -244 45q-178 0 -262 -111t-84 -340v-177zM601 1303l248 373h143l-316 -373h-75z" />
    <glyph glyph-name="acircumflex.salt_ss" unicode="&#xe003;" 
d="M676 1136q159 0 328 -67v-1069h-92v210h-15q-63 -112 -157 -170t-204 -59q-143 -1 -225 119t-82 330v181q0 245 119 385t328 140zM322 430q0 -367 233 -367q188 0 357 229v721q-126 43 -244 45q-178 0 -262 -111t-84 -340v-177zM346 1346l-37 47l294 314h60l296 -314
l-37 -47l-289 276z" />
    <glyph glyph-name="atilde.salt_ss" unicode="&#xe004;" 
d="M676 1136q159 0 328 -67v-1069h-92v210h-15q-63 -112 -157 -170t-204 -59q-143 -1 -225 119t-82 330v181q0 245 119 385t328 140zM322 430q0 -367 233 -367q188 0 357 229v721q-126 43 -244 45q-178 0 -262 -111t-84 -340v-177zM953 1648q0 -326 -171 -326q-56 0 -96 36
t-80 122t-66 114q-24 28 -54 28q-99 0 -95 -261v-20h-74v27q0 326 171 326q58 0 96 -34t80 -120t67 -116t53 -29q95 0 95 260v21h74v-28z" />
    <glyph glyph-name="adieresis.salt_ss" unicode="&#xe005;" 
d="M676 1136q159 0 328 -67v-1069h-92v210h-15q-63 -112 -157 -170t-204 -59q-143 -1 -225 119t-82 330v181q0 245 119 385t328 140zM322 430q0 -367 233 -367q188 0 357 229v721q-126 43 -244 45q-178 0 -262 -111t-84 -340v-177zM735 1441q0 71 80 71q35 0 57 -15t22 -56
v-13q0 -41 -22 -54t-57 -13t-57 13t-23 54v13zM454 1361q-35 0 -57 13q-21 13 -21 54v13q0 41 21 56t57 15q80 0 80 -71v-13q0 -41 -22 -54t-58 -13z" />
    <glyph glyph-name="aring.salt_ss" unicode="&#xe006;" 
d="M676 1136q159 0 328 -67v-1069h-92v210h-15q-63 -112 -157 -170t-204 -59q-143 -1 -225 119t-82 330v181q0 245 119 385t328 140zM322 430q0 -367 233 -367q188 0 357 229v721q-126 43 -244 45q-178 0 -262 -111t-84 -340v-177zM635 1350q82 0 119 45t37 145v70
q0 102 -37 149t-119 47t-119 -47t-38 -149v-70q0 -102 38 -146t119 -44zM635 1275q-117 0 -179 68q-61 68 -61 197v70q0 130 61 200q60 70 178 70t180 -69q61 -70 61 -201v-70q0 -128 -61 -197q-62 -68 -179 -68z" />
    <glyph glyph-name="amacron.salt_ss" unicode="&#xe007;" 
d="M676 1136q159 0 328 -67v-1069h-92v210h-15q-63 -112 -157 -170t-204 -59q-143 -1 -225 119t-82 330v181q0 245 119 385t328 140zM322 430q0 -367 233 -367q188 0 357 229v721q-126 43 -244 45q-178 0 -262 -111t-84 -340v-177zM333 1454v80h603v-80h-603z" />
    </font>
</defs>
</svg>
