<?xml version="1.0" standalone="no"?>
<!DOCTYPE svg PUBLIC "-//W3C//DTD SVG 1.1//EN" "http://www.w3.org/Graphics/SVG/1.1/DTD/svg11.dtd" >
<svg xmlns="http://www.w3.org/2000/svg">
<metadata>
Created by FontPrep 20130207 at Mon Aug 15 19:30:05 2016
 By Damien Criado
(c) Copyright The Font Bureau, Inc. 2014. All rights reserved.
</metadata>
<defs>
<font id="725d3847245234b7b41f5a5a8931de06" horiz-adv-x='1024' >
  <font-face 
    font-family="InputMonoNarrow-Black"
    font-weight="800"
    font-stretch="semi-condensed"
    units-per-em="2048"
    panose-1="2 0 8 9 3 0 0 9 0 4"
    ascent="1583"
    descent="-465"
    x-height="1117"
    cap-height="1489"
    bbox="-551.006 -838 1730 2607"
    underline-thickness="0"
    underline-position="0"
    unicode-range="U+000D-1F41B"
  />
<missing-glyph 
d="M279 -279h674v1675h-674v-1675zM93 -465v2048h1046v-2048h-1046z" />
    <glyph glyph-name=".notdef" 
d="M279 -279h674v1675h-674v-1675zM93 -465v2048h1046v-2048h-1046z" />
    <glyph glyph-name=".null" horiz-adv-x="0" 
 />
    <glyph glyph-name="nonmarkingreturn" unicode="&#xd;" horiz-adv-x="0" 
 />
    <glyph glyph-name="NULL" horiz-adv-x="0" 
 />
    <glyph glyph-name="space" unicode="&#xa0;" 
 />
    <glyph glyph-name="space" unicode=" " 
 />
    <glyph glyph-name="exclam" unicode="!" 
d="M877 138q0 -157 -260 -157t-260 157v52q0 160 260 160t260 -160v-52zM443 559l-50 930h428l-52 -930h-326z" />
    <glyph glyph-name="quotedbl" unicode="&#x22;" 
d="M190 661l-62 828h401l-64 -828h-275zM767 661l-61 828h400l-63 -828h-276z" />
    <glyph glyph-name="numbersign" unicode="#" 
d="M9 322v235h231l17 376h-248v234h259l15 322h266l-13 -322h201l15 322h266l-14 -322h219v-234h-231l-16 -376h247v-235h-257l-16 -322h-267l15 322h-201l-15 -322h-268l15 322h-220zM709 557l17 376h-201l-19 -376h203z" />
    <glyph glyph-name="dollar" unicode="$" 
d="M722 -93h-212v173q-260 22 -463 158l74 235q88 -60 179 -101.5t229 -54.5v307q-248 41 -350.5 124.5t-102.5 248.5t109 274.5t325 134.5v177h212v-174q112 -11 219 -46.5t171 -85.5l-54 -225q-89 52 -169.5 82t-182.5 37v-296q266 -45 376 -133.5t110 -261.5t-124 -278
t-346 -124v-171zM862 444q0 58 -34.5 90t-121.5 54v-273q88 6 122 38.5t34 90.5zM404 1048q0 -50 28 -81.5t97 -52.5v255q-69 -11 -97 -41t-28 -80z" />
    <glyph glyph-name="percent" unicode="%" 
d="M810 220q0 -92 70 -92t70 92v111q0 95 -70 95t-70 -95v-111zM880 -41q-135 0 -219 69t-84 214v86q0 145 85 215.5t220 70.5t217.5 -70.5t82.5 -215.5v-86q0 -145 -83.5 -214t-218.5 -69zM41 391l1030 864l130 -164l-1037 -866zM283 1138q0 -92 70 -92t70 92v113
q0 93 -50.5 93t-70 -23t-19.5 -70v-113zM353 871q-135 0 -219 69t-84 214v86q0 145 85 216t220 71t217.5 -71t82.5 -216v-86q0 -145 -83.5 -214t-218.5 -69z" />
    <glyph glyph-name="ampersand" unicode="&#x26;" 
d="M371 399q0 -112 44.5 -156t126.5 -44t134 60q-112 108 -190 218q-20 28 -41 56.5t-39 56.5q-35 -79 -35 -191zM590 1290q-85 0 -85 -162q0 -116 18 -193q61 45 101.5 98.5t40.5 130.5q0 126 -75 126zM421 -19q-151 0 -262 100t-111 275q0 138 57 237.5t197 195.5
q-82 181 -82 304q0 197 98.5 307t272.5 110t257 -96t83 -218t-68 -208.5t-284 -216.5q85 -170 209 -306q45 110 126 330l265 -56q-101 -238 -246 -437l294 -101l-67 -238q-173 47 -333 169q-73 -69 -164 -110t-242 -41z" />
    <glyph glyph-name="quotesingle" unicode="'" 
d="M465 661l-61 828h425l-62 -828h-302z" />
    <glyph glyph-name="parenleft" unicode="(" 
d="M266 554q0 362 166 625.5t583 328.5l37 -233q-249 -65 -337.5 -241t-88.5 -474t88 -468t338 -237l-37 -246q-417 65 -583 324t-166 621z" />
    <glyph glyph-name="parenright" unicode=")" 
d="M607 554q0 286 -88.5 471t-336.5 250l36 233q417 -65 583.5 -328.5t166.5 -625.5t-166.5 -621t-583.5 -324l-36 246q248 65 336.5 239t88.5 460z" />
    <glyph glyph-name="asterisk" unicode="*" 
d="M989 508l-319 319l88 -455h-285l87 453l-316 -317l-142 253l416 172l-416 171l142 253l316 -318l-87 450h285l-88 -452l319 320l141 -253l-417 -171l417 -172z" />
    <glyph glyph-name="plus" unicode="+" 
d="M475 58v450h-356v287h356v451h285v-451h353v-287h-353v-450h-285z" />
    <glyph glyph-name="comma" unicode="," 
d="M309 -289l125 829h499l-399 -829h-225z" />
    <glyph glyph-name="hyphen" unicode="&#x2011;" 
d="M119 508v304h994v-304h-994z" />
    <glyph glyph-name="hyphen" unicode="&#x2010;" 
d="M119 508v304h994v-304h-994z" />
    <glyph glyph-name="hyphen" unicode="&#xad;" 
d="M119 508v304h994v-304h-994z" />
    <glyph glyph-name="hyphen" unicode="-" 
d="M119 508v304h994v-304h-994z" />
    <glyph glyph-name="period" unicode="." 
d="M616 -19q-116 0 -190 54t-74 149v151q0 99 73.5 154t191.5 55t190 -55t72 -154v-151q0 -95 -73.5 -149t-189.5 -54z" />
    <glyph glyph-name="slash" unicode="/" 
d="M132 -372l683 1861h285l-683 -1861h-285z" />
    <glyph glyph-name="zero.salt_slash" unicode="&#xe05c;" 
d="M616 233q110 0 153 88.5t43 309.5v220q0 65 -4 117l-264 -724q31 -11 72 -11zM616 1257q-108 0 -151.5 -89.5t-43.5 -316.5v-220q0 -48 3 -138l267 749q-32 15 -75 15zM616 -19q-253 0 -385 163t-132 452v290q0 290 133 456t385 166t384.5 -165.5t132.5 -456.5v-290
q0 -289 -132.5 -452t-385.5 -163z" />
    <glyph glyph-name="zero.salt_slash" unicode="0" 
d="M616 233q110 0 153 88.5t43 309.5v220q0 65 -4 117l-264 -724q31 -11 72 -11zM616 1257q-108 0 -151.5 -89.5t-43.5 -316.5v-220q0 -48 3 -138l267 749q-32 15 -75 15zM616 -19q-253 0 -385 163t-132 452v290q0 290 133 456t385 166t384.5 -165.5t132.5 -456.5v-290
q0 -289 -132.5 -452t-385.5 -163z" />
    <glyph glyph-name="one" unicode="1" 
d="M145 0v268h339v897h-50q-24 -121 -110 -193.5t-194 -75.5l-16 266q132 13 236 103t140 224h353v-1221h285v-268h-983z" />
    <glyph glyph-name="two" unicode="2" 
d="M614 1508q503 0 503 -423v-80q0 -158 -83.5 -241.5t-232.5 -158.5l-159 -74q-128 -63 -156 -97t-28 -121v-45h676v-268h-1035v309q0 179 68 275t254 187l156 74q101 50 141 83t40 122v35q0 93 -36.5 132.5t-106.5 39.5t-101.5 -47.5t-38.5 -187.5l-360 19
q13 246 131.5 356.5t367.5 110.5z" />
    <glyph glyph-name="three" unicode="3" 
d="M741 1112q0 132 -127 132q-65 0 -97.5 -37.5t-41.5 -128.5l-360 19q13 216 127 313.5t366 97.5t372 -87.5t120 -273.5v-49q0 -123 -71.5 -197t-177.5 -87v-54q112 -13 197.5 -97t85.5 -222v-46q0 -225 -133 -319.5t-390 -94.5t-386.5 112t-142.5 337l359 19
q13 -127 52 -165t127 -38t121.5 38t33.5 120v74q0 170 -164 170h-185v262h185q73 0 101.5 25.5t28.5 97.5v79z" />
    <glyph glyph-name="four" unicode="4" 
d="M1219 367h-204v-367h-360v367h-573v251l495 871h438v-871h204v-251zM655 618v467l-271 -467h271z" />
    <glyph glyph-name="five" unicode="5" 
d="M694 979q440 0 440 -398v-181q0 -188 -124 -303.5t-398 -115.5t-395.5 107t-134.5 374l359 18q15 -151 52.5 -199t128.5 -48t122 46.5t31 159.5v82q0 101 -42 145.5t-174 44.5h-427v778h953v-251h-592v-259h201z" />
    <glyph glyph-name="six" unicode="6" 
d="M615 233q90 0 123 54t33 151v48q0 110 -32.5 167.5t-122.5 57.5t-124 -57.5t-34 -167.5v-48q0 -106 33.5 -155.5t123.5 -49.5zM1134 434q0 -453 -517.5 -453t-517.5 520v475q0 268 129 400t377 132t363.5 -91t150.5 -302l-376 -43q-19 114 -48 149.5t-103 35.5
t-104 -60.5t-30 -209.5v-183h15q99 127 288 127q190 0 281.5 -107t91.5 -323v-67z" />
    <glyph glyph-name="seven" unicode="7" 
d="M99 1219v270h1035v-270q-177 -324 -259 -580.5t-134 -638.5h-391q89 464 167.5 698.5t257.5 520.5h-676z" />
    <glyph glyph-name="eight" unicode="8" 
d="M616 246q95 0 127 45.5t32 132.5v49q0 91 -32 137.5t-127 46.5t-126.5 -46.5t-31.5 -137.5v-49q0 -88 31.5 -133t126.5 -45zM617 909q62 0 93 29.5t31 105.5v68q0 74 -30.5 103t-92.5 29t-93.5 -29t-31.5 -103v-68q0 -76 31 -105.5t93 -29.5zM1134 384
q0 -403 -517.5 -403t-517.5 403v54q0 134 76 219.5t210 100.5v54q-108 11 -180.5 81.5t-72.5 186.5v72q0 356 484 356t484 -356v-72q0 -115 -72.5 -186t-180.5 -82v-54q134 -15 210.5 -102.5t76.5 -217.5v-54z" />
    <glyph glyph-name="nine" unicode="9" 
d="M616.5 1508q517.5 0 517.5 -519v-475q0 -268 -129 -400.5t-376 -132.5t-363.5 92.5t-151.5 300.5l376 43q19 -114 47.5 -149t103.5 -35t104.5 62t29.5 213v177h-17q-45 -58 -114 -92t-186 -34q-175 0 -267 107t-92 323v67q0 452 517.5 452zM618 778q91 0 124 58t33 168
v48q0 106 -33 155.5t-124 49.5t-123.5 -54t-32.5 -151v-48q0 -110 32.5 -168t123.5 -58z" />
    <glyph glyph-name="colon" unicode=":" 
d="M616 -9q-104 0 -169 47.5t-65 134.5v108q0 88 65 136t171 48t169.5 -48t63.5 -136v-108q0 -88 -65.5 -135t-169.5 -47zM616 719q-104 0 -169 47.5t-65 134.5v108q0 88 65 136t171 48t169.5 -48t63.5 -136v-108q0 -88 -65.5 -135t-169.5 -47z" />
    <glyph glyph-name="semicolon" unicode=";" 
d="M343 -251l109 754h447l-355 -754h-201zM616 719q-104 0 -169 47.5t-65 134.5v108q0 88 65 136t171 48t169.5 -48t63.5 -136v-108q0 -88 -65.5 -135t-169.5 -47z" />
    <glyph glyph-name="less" unicode="&#x3c;" 
d="M1063 4l-892 471v354l892 471v-278l-702 -370l702 -371v-277z" />
    <glyph glyph-name="equal" unicode="=" 
d="M119 214v287h994v-287h-994zM119 802v287h994v-287h-994z" />
    <glyph glyph-name="greater" unicode="&#x3e;" 
d="M171 4v260l732 388l-732 387v261l892 -471v-354z" />
    <glyph glyph-name="question" unicode="?" 
d="M789 138q1 -157 -259 -157t-260 157v52q0 160 259.5 160t259.5 -160v-52zM784 1028v39q0 93 -36.5 141.5t-134.5 48.5t-134 -51.5t-49 -183.5l-359 19q13 238 145 352.5t390 114.5t397.5 -122t139.5 -304v-62q0 -223 -175.5 -340.5t-583.5 -180.5l-34 235
q255 45 344.5 112.5t89.5 181.5z" />
    <glyph glyph-name="at" unicode="@" 
d="M691 568q0 -140 95 -140q45 0 70 25t25 100v160q0 76 -27 109.5t-68 33.5q-95 0 -95 -147v-141zM71 434v504q0 259 138.5 414.5t412.5 155.5t408 -152.5t134 -430.5v-374q0 -328 -386 -328q-188 0 -277.5 87t-89.5 239v179q0 151 73 242t188 91q214 0 276 -139h52
q-4 212 -81 312.5t-281 100.5t-289.5 -104.5t-85.5 -292.5v-486q0 -225 103 -350.5t340 -125.5q164 0 346 50v-181q-187 -50 -346 -50q-320 0 -477.5 174t-157.5 465z" />
    <glyph glyph-name="A" unicode="A" 
d="M868 0l-67 344h-373l-76 -344h-322l365 1489h445l365 -1489h-337zM747 613l-121 614l-136 -614h257z" />
    <glyph glyph-name="B" unicode="B" 
d="M454 251h138q99 0 140 36.5t41 122.5v93q0 86 -41 121t-140 35h-138v-408zM454 890h144q78 0 110.5 30.5t32.5 101.5v86q0 71 -32.5 100.5t-110.5 29.5h-144v-348zM1134 391q0 -391 -497 -391h-542v1489h549q454 0 454 -350v-65q0 -119 -50 -178.5t-162 -80.5v-54
q121 -13 184.5 -87t63.5 -186v-97z" />
    <glyph glyph-name="C" unicode="C" 
d="M99 1007q0 501 407.5 501t531.5 -126.5t137 -411.5l-360 -19q-9 177 -44 233t-133 56t-139 -60.5t-41 -207.5v-464q0 -140 40 -199.5t139 -59.5t133 54t45 228l360 -19q-11 -281 -137 -406t-532.5 -125t-406.5 494v532z" />
    <glyph glyph-name="D" unicode="D" 
d="M454 268h131q108 0 149 63.5t41 236.5v346q0 179 -41 243t-149 64h-131v-953zM95 0v1489h529q240 0 375 -148t135 -393v-414q0 -244 -136 -389t-376 -145h-527z" />
    <glyph glyph-name="E" unicode="E" 
d="M95 0v1489h1039v-268h-680v-294h594v-268h-594v-391h680v-268h-1039z" />
    <glyph glyph-name="F" unicode="F" 
d="M190 0v1489h983v-268h-624v-392h503v-269h-503v-560h-359z" />
    <glyph glyph-name="G" unicode="G" 
d="M618 -19q-248 0 -383.5 134t-135.5 378v499q0 246 134 381t386 135q492 0 515 -467l-359 -19q-9 127 -42 172.5t-121 45.5t-121 -66t-33 -215v-432q0 -147 31.5 -212.5t126.5 -65.5t127.5 64.5t31.5 205.5h-155v269h514v-293q0 -249 -134 -381.5t-382 -132.5z" />
    <glyph glyph-name="H" unicode="H" 
d="M95 0v1489h359v-528h324v528h360v-1489h-360v693h-324v-693h-359z" />
    <glyph glyph-name="I" unicode="I" 
d="M95 0v268h341v953h-341v268h1043v-268h-341v-953h341v-268h-1043z" />
    <glyph glyph-name="J" unicode="J" 
d="M591 -19q-270 0 -391.5 127t-134.5 421l359 20q13 -184 47.5 -242t115.5 -58t117.5 51.5t36.5 185.5v735h-398v268h757v-1011q0 -233 -119.5 -365t-389.5 -132z" />
    <glyph glyph-name="K" unicode="K" 
d="M454 633v-633h-359v1489h359v-588h69l304 588h366l-409 -687l404 -802h-359l-300 633h-75z" />
    <glyph glyph-name="L" unicode="L" 
d="M181 0v1489h359v-1221h598v-268h-957z" />
    <glyph glyph-name="M" unicode="M" 
d="M84 0v1489h324l214 -688l210 688h317v-1489h-315l39 946l-145 -490h-220l-151 508l41 -964h-314z" />
    <glyph glyph-name="N" unicode="N" 
d="M400 0h-305v1489h385l352 -1055v1055h306v-1489h-414l-324 996v-996z" />
    <glyph glyph-name="O" unicode="O" 
d="M617 249q87 0 122.5 54t35.5 196v484q0 143 -35.5 200t-122.5 57t-123 -57t-36 -200v-484q0 -141 36 -195.5t123 -54.5zM616 -19q-253 0 -385 128.5t-132 355.5v552q0 229 133 360t385 131t384.5 -131t132.5 -360v-552q0 -227 -132.5 -355.5t-385.5 -128.5z" />
    <glyph glyph-name="P" unicode="P" 
d="M454 722h159q80 0 121 33t41 131v162q0 101 -41 137t-121 36h-159v-499zM95 0v1489h538q233 0 366 -101t133 -314v-221q0 -207 -130.5 -301t-366.5 -94h-181v-458h-359z" />
    <glyph glyph-name="Q" unicode="Q" 
d="M617 285q87 0 122.5 60.5t35.5 203.5v434q0 141 -35.5 198t-122.5 57t-123 -56.5t-36 -198.5v-434q0 -143 36 -203.5t123 -60.5zM99 516v501q0 229 133 360t385 131t384.5 -131t132.5 -360v-501q0 -207 -109 -332.5t-318 -148.5q6 -108 76 -139.5t235 0.5l36 -285
q-331 -48 -475.5 55t-137.5 388q-168 41 -255 160t-87 302z" />
    <glyph glyph-name="R" unicode="R" 
d="M1110 948q0 -304 -227 -388l281 -560h-375l-260 527h-75v-527h-359v1489h572q225 0 334 -105t109 -304v-132zM454 795h153q89 0 125.5 32.5t36.5 127.5v106q0 93 -36.5 126.5t-125.5 33.5h-153v-426z" />
    <glyph glyph-name="S" unicode="S" 
d="M475 1126.5q0 -109.5 50 -150t201 -82.5q227 -67 321 -171.5t94 -302.5t-145 -318.5t-414 -120.5t-498 144l72 268q102 -63 205.5 -103.5t219.5 -40.5t158.5 44.5t42.5 122.5t-57 112t-194 75q-227 63 -321.5 164.5t-94.5 288.5t127 318.5t382 131.5q123 0 244.5 -42
t200.5 -90l-54 -255q-211 117 -376 117q-164 0 -164 -109.5z" />
    <glyph glyph-name="T" unicode="T" 
d="M436 0v1221h-375v268h1112v-268h-376v-1221h-361z" />
    <glyph glyph-name="U" unicode="U" 
d="M617 -19q-267 0 -394.5 130.5t-127.5 404.5v973h359v-960q0 -153 36.5 -208t126 -55t125.5 55t36 208v960h360v-973q0 -274 -127 -404.5t-394 -130.5z" />
    <glyph glyph-name="V" unicode="V" 
d="M858 0h-482l-346 1489h355l231 -1212l248 1212h341z" />
    <glyph glyph-name="W" unicode="W" 
d="M724 0l-104 640l-102 -640h-311l-175 1489h301l58 -1078l106 706h235l110 -670l57 1042h302l-175 -1489h-302z" />
    <glyph glyph-name="X" unicode="X" 
d="M821 0l-214 438l-207 -438h-340l391 769l-349 720h365l183 -379l182 379h339l-365 -718l361 -771h-346z" />
    <glyph glyph-name="Y" unicode="Y" 
d="M797 0h-361v559l-393 930h355l216 -603l220 603h354l-391 -930v-559z" />
    <glyph glyph-name="Z" unicode="Z" 
d="M1134 0h-1035v268l674 953h-674v268h1035v-268l-661 -953h661v-268z" />
    <glyph glyph-name="bracketleft" unicode="[" 
d="M266 -372v1861h788v-251h-428v-1361h428v-249h-788z" />
    <glyph glyph-name="backslash" unicode="\" 
d="M815 -369l-683 1862l285 -4l683 -1861z" />
    <glyph glyph-name="bracketright" unicode="]" 
d="M181 -372v249h426v1361h-426v251h787v-1861h-787z" />
    <glyph glyph-name="asciicircum" unicode="^" 
d="M845 372l-229 659l-231 -659h-338l389 1117h361l387 -1117h-339z" />
    <glyph glyph-name="underscore" unicode="_" 
d="M119 -372v303h994v-303h-994z" />
    <glyph glyph-name="grave" unicode="`" 
d="M691 661l-434 828h501l158 -828h-225z" />
    <glyph glyph-name="a" unicode="a" 
d="M394 -19q-132 0 -222 89.5t-90 241.5t101.5 233t280.5 81h229v135q0 78 -36.5 105.5t-106.5 27.5t-104.5 -32.5t-48.5 -124.5l-289 47q39 194 140.5 273t327.5 79t341.5 -89.5t115.5 -279.5v-419q0 -74 39.5 -92t109.5 -7v-242q-288 -70 -357 155h-54
q-54 -74 -149.5 -127.5t-227.5 -53.5zM404 315q0 -116 104 -116q92 0 185 58v188h-194q-50 0 -72.5 -26t-22.5 -104z" />
    <glyph glyph-name="b" unicode="b" 
d="M760 397v309q0 84 -31 123t-79 39q-87 0 -177 -92v-497q72 -41 147 -41t107.5 35.5t32.5 123.5zM525 927q72 209 317 209q125 0 201 -101.5t76 -263.5v-376q0 -199 -131.5 -302.5t-382.5 -103.5q-130 0 -260.5 35.5t-230.5 94.5v1370h359v-562h52z" />
    <glyph glyph-name="c" unicode="c" 
d="M637 -19q-255 0 -389 111t-134 316v307q0 199 135 310t374 111t353.5 -107t142.5 -310l-346 -28q-9 108 -43 150t-114 42t-111.5 -42t-31.5 -150v-267q0 -108 32.5 -149.5t113.5 -41.5t113.5 33.5t40.5 122.5l346 -28q-13 -186 -120 -283t-362 -97z" />
    <glyph glyph-name="d" unicode="d" 
d="M536 1128q124 0 224 -43v404h359v-1489h-359v190h-53q-35 -95 -110.5 -152t-186.5 -57q-147 0 -221.5 107t-74.5 258v376q0 190 112.5 298t309.5 108zM473 411q0 -160 112 -160q85 0 175 90v489q-83 51 -152 51q-70 0 -102.5 -38.5t-32.5 -121.5v-310z" />
    <glyph glyph-name="e" unicode="e" 
d="M473 758v-88h287v77q0 97 -29 135t-114.5 38t-114.5 -35.5t-29 -126.5zM473 372q0 -165 157 -165q83 0 133.5 26t83.5 108l292 -78q-61 -158 -173 -220t-336 -62t-370 106.5t-146 309.5v327q0 192 134 302t370.5 110t368.5 -112t132 -311v-225h-646v-116z" />
    <glyph glyph-name="f" unicode="f" 
d="M897 1322q-149 0 -149 -173v-32h371v-251h-371v-866h-359v866h-272v251h272v60q0 175 124 277t311 102t308 -42l-34 -227q-111 35 -201 35z" />
    <glyph glyph-name="g" unicode="g" 
d="M497 -192h261q54 0 88.5 18t34.5 81t-35.5 81t-87.5 18h-354v-90q0 -52 20.5 -80t72.5 -28zM592 596q119 0 119 121v89q0 52 -28 84t-91 32t-91 -32t-28 -84v-89q0 -56 26 -88.5t93 -32.5zM488 430q-125 0 -125 -90.5t121 -90.5h291q181 0 286.5 -74t105.5 -227
t-108 -246t-294 -93h-290q-210 0 -309 75.5t-99 177.5t56 159t132 67v37q-63 20 -107 62.5t-44 138.5t71 160.5t166 77.5v37q-89 24 -139.5 79t-50.5 135v10q0 141 118 216.5t291 75.5h611v-201l-281 34v-36q61 -19 103 -71t42 -117v-11q0 -136 -120 -210.5t-293 -74.5h-134
z" />
    <glyph glyph-name="h" unicode="h" 
d="M663 868q-99 0 -190 -144v-724h-359v1489h359v-562h52q39 99 120 154t200 55t196.5 -89.5t77.5 -240.5v-806h-359v719q0 71 -26.5 110t-70.5 39z" />
    <glyph glyph-name="i.salt_serifs" unicode="&#xe023;" 
d="M797 251h300v-251h-661v866h-300v251h661v-866zM843 1426q0 -138 -227 -138t-227 138v26q0 144 227 144t227 -144v-26z" />
    <glyph glyph-name="i.salt_serifs" unicode="i" 
d="M797 251h300v-251h-661v866h-300v251h661v-866zM843 1426q0 -138 -227 -138t-227 138v26q0 144 227 144t227 -144v-26z" />
    <glyph glyph-name="j" unicode="j" 
d="M358 -155q116 0 174 42q57 42 56 139v840h-419v251h779v-1121q0 -179 -142 -283t-366 -104q-225 0 -343 43l33 229q112 -36 228 -36zM977 1426q0 -138 -227 -138t-227 138v26q0 144 227 144t227 -144v-26z" />
    <glyph glyph-name="k" unicode="k" 
d="M484 462v-462h-361v1489h361v-795h60l255 423h365l-322 -504l316 -613h-380l-234 462h-60z" />
    <glyph glyph-name="l.salt_serifs_round" unicode="&#xe056;" 
d="M398 371v867h-262v251h624v-1053q0 -95 41.5 -140t114.5 -45t164 38l52 -246q-155 -58 -287 -58q-203 0 -325 108t-122 278z" />
    <glyph glyph-name="l.salt_serifs_round" unicode="l" 
d="M398 371v867h-262v251h624v-1053q0 -95 41.5 -140t114.5 -45t164 38l52 -246q-155 -58 -287 -58q-203 0 -325 108t-122 278z" />
    <glyph glyph-name="m" unicode="m" 
d="M439 905q-45 0 -82 -103v-802h-288v1117h285v-149h56q60 160 178 160q58 0 101 -38t58 -122h48q60 160 201 160q80 0 124 -67t44 -190v-871h-289v814q0 91 -37 91q-47 0 -84 -103v-802h-276v814q0 91 -39 91z" />
    <glyph glyph-name="n" unicode="n" 
d="M114 0v1117h359v-190h52q39 99 124 154t205 55t192.5 -86.5t72.5 -243.5v-806h-359v745q0 58 -26.5 90.5t-73.5 32.5t-99.5 -31t-87.5 -89v-748h-359z" />
    <glyph glyph-name="o" unicode="o" 
d="M617 233q75 0 109 41t34 134v296q0 95 -33 137.5t-109 42.5t-109.5 -41.5t-33.5 -136.5v-289q0 -99 33.5 -141.5t108.5 -42.5zM617 -19q-234 0 -368.5 109t-134.5 301v328q0 194 135 305.5t369.5 111.5t367.5 -113.5t133 -313.5v-325q0 -188 -134 -295.5t-368 -107.5z
" />
    <glyph glyph-name="p" unicode="p" 
d="M698 -11q-127 0 -225 43v-404h-359v1489h359v-190h52q34 97 115 153t203 56t199 -94t77 -258v-389q0 -188 -113.5 -297t-307.5 -109zM650 868q-87 0 -177 -92v-489q43 -24 76 -37.5t89 -13.5q122 0 122 161v322q0 76 -31 112.5t-79 36.5z" />
    <glyph glyph-name="q" unicode="q" 
d="M473 721v-308q0 -86 31 -124t81 -38q85 0 175 90v497q-76 43 -149 43t-105.5 -36.5t-32.5 -123.5zM760 -372v562h-53q-30 -86 -104.5 -147.5t-206.5 -61.5t-207 105.5t-75 259.5v376q0 197 132 301.5t381 104.5q119 0 262.5 -27t229.5 -79v-1394h-359z" />
    <glyph glyph-name="r" unicode="r" 
d="M553 914q69 222 327 222q122 0 189 -83t67 -234v-205h-322v103q0 74 -24.5 112.5t-91.5 38.5q-134 0 -195 -136v-732h-362v1117h362v-203h50z" />
    <glyph glyph-name="s" unicode="s" 
d="M631 914q-128 0 -128 -95q0 -54 51 -78t185 -54q199 -39 287.5 -116t88.5 -231t-132 -252.5t-378 -98.5q-138 0 -270 37t-223 95l76 214q101 -58 216 -92t207 -34q145 0 145 102q0 58 -36.5 84t-138.5 48q-220 39 -328 110t-108 229t125 256t349 98t424 -116l-58 -203
q-192 97 -354 97z" />
    <glyph glyph-name="t" unicode="t" 
d="M866 235q105 0 195 37l34 -246q-35 -19 -115.5 -32.5t-175.5 -13.5q-216 0 -335 105t-119 293v488h-233v251h233v372h361v-372h369v-251h-369v-449q0 -182 155 -182z" />
    <glyph glyph-name="u" unicode="u" 
d="M566 251q98 0 194 151v715h359v-1117h-359v190h-53q-41 -108 -132 -158.5t-195 -50.5t-185 85t-81 245v806h359v-711q0 -155 93 -155z" />
    <glyph glyph-name="v" unicode="v" 
d="M855 0h-479l-288 1117h336l200 -823l197 823h322z" />
    <glyph glyph-name="w" unicode="w" 
d="M748 0l-132 532l-124 -532h-308l-156 1117h302l78 -711l108 508h193l121 -501l73 704h302l-155 -1117h-302z" />
    <glyph glyph-name="x" unicode="x" 
d="M799 0l-198 317l-178 -317h-352l372 572l-341 545h356l169 -268l144 268h354l-334 -532l367 -585h-359z" />
    <glyph glyph-name="y" unicode="y" 
d="M336 -149q87 0 139 45t82 171h-239l-268 1050h363l201 -828l216 828h350l-309 -1098q-65 -222 -182 -317t-335 -95q-110 0 -280 21l15 251q160 -28 247 -28z" />
    <glyph glyph-name="z" unicode="z" 
d="M1104 0h-976v251l598 615h-598v251h976v-251l-586 -615h586v-251z" />
    <glyph glyph-name="braceleft" unicode="{" 
d="M181 -82q0 84 26.5 139t86.5 115t84 94t24 67q0 84 -83 118.5t-310 40.5v178q227 6 310 39.5t83 117.5q0 32 -23 60.5t-84 74.5t-87.5 95t-26.5 129q0 184 202 256t671 66v-251q-292 6 -403 -21.5t-111 -105.5q0 -43 27 -75.5t84 -73.5t84.5 -78t27.5 -99
q0 -115 -112.5 -164.5t-404.5 -56.5v-10q292 -19 404.5 -70t112.5 -159q0 -67 -27 -105t-84.5 -79t-84.5 -77t-27 -90q0 -84 110.5 -113t403.5 -23v-248q-469 -6 -671 62t-202 247z" />
    <glyph glyph-name="bar" unicode="|" 
d="M473 -372v1861h287v-1861h-287z" />
    <glyph glyph-name="braceright" unicode="}" 
d="M1052 -82q0 -179 -202 -247t-669 -62v248q290 -6 401 23t111 113q0 54 -26.5 90t-84 77t-84.5 79t-27 105q0 108 112.5 159.5t405.5 69.5v10q-292 7 -405 56.5t-113 164.5q0 61 27 98.5t84.5 78.5t84 73.5t26.5 75.5q0 78 -111 105t-401 22v251q467 6 669 -66t202 -256
q0 -80 -27 -129t-87 -95t-84 -75t-24 -60q0 -84 84 -117.5t309 -39.5v-178q-225 -6 -309 -40.5t-84 -118.5q0 -34 25 -67.5t85 -93.5t86 -115t26 -139z" />
    <glyph glyph-name="asciitilde" unicode="~" 
d="M832 652q69 0 69 175v229h211v-242q0 -209 -76.5 -319.5t-199.5 -110.5q-164 0 -280 211q-56 102 -93 172.5t-79 70.5q-71 0 -71 -240v-198h-211v209q0 240 75.5 368.5t200.5 128.5q162 0 280 -212q56 -102 93.5 -172t80.5 -70z" />
    <glyph glyph-name="exclamdown" unicode="&#xa1;" 
d="M791 931l51 -931h-429l52 931h326zM357 1352q0 156 260 156t260 -156v-52q0 -161 -260 -161t-260 161v52z" />
    <glyph glyph-name="cent" unicode="&#xa2;" 
d="M508 -93v266q-199 24 -306 136t-107 300v279q0 190 112.5 297t300.5 131v267h213v-267q190 -22 282 -128t116 -285l-330 -28q-7 88 -27.5 133.5t-67.5 62.5v-658q52 15 70 57t25 126l330 -28q-11 -173 -95 -275.5t-303 -121.5v-264h-213zM436 618q0 -93 21 -142.5
t79 -64.5v665q-58 -13 -79 -62.5t-21 -142.5v-253z" />
    <glyph glyph-name="sterling" unicode="&#xa3;" 
d="M637 583q0 -143 -198 -227l34 -69q91 42 132 33t68 -23t59 -14q76 0 99.5 56t34.5 184l322 -18q-15 -255 -113 -389.5t-267 -134.5q-80 0 -154 33.5t-138 61.5t-111.5 41t-97.5 -22l-156 -112l-144 214l185 118q58 39 104.5 110.5t46.5 125.5t-19 116h-255v184h154
q-54 101 -54 193q0 209 126 336.5t370 127.5t352 -131t121 -381l-323 -19q-7 117 -35 180.5t-116 63.5q-158 0 -158 -180q0 -84 53 -190h221v-184h-151q8 -76 8 -84z" />
    <glyph glyph-name="currency" unicode="&#xa4;" 
d="M619 168q-175 0 -284 76l-158 -173l-145 151l178 195q-26 74 -26 179v301q0 99 26 177l-178 194l145 151l158 -173q115 76 284.5 76t281.5 -78l155 165l145 -150l-177 -190q24 -68 24 -172v-301q0 -77 -17 -151l170 -214l-145 -151l-157 168q-105 -80 -280 -80zM616 1054
q-110 0 -110 -157v-301q0 -86 27 -123t83 -37t83 37t27 123v301q0 157 -110 157z" />
    <glyph glyph-name="yen" unicode="&#xa5;" 
d="M1138 186h-341v-186h-361v186h-341v185h341v188h-341v184h259l-335 746h365l236 -633l238 633h354l-333 -746h259v-184h-341v-188h341v-185z" />
    <glyph glyph-name="brokenbar" unicode="&#xa6;" 
d="M473 -372v744h287v-744h-287zM473 745v744h287v-744h-287z" />
    <glyph glyph-name="section" unicode="&#xa7;" 
d="M655 -117q175 -1 175 113q0 64 -68.5 93.5t-182.5 57.5q-261 52 -388.5 138t-127.5 260t224 254q-224 112 -224 337q0 168 143.5 264.5t387.5 96.5q156 0 298.5 -52t250.5 -123l-104 -235q-112 63 -217 102.5t-236 39.5q-175 0 -175 -123q0 -61 86 -91t273 -70t298 -123
t111 -263t-183 -269q183 -111 183 -314q0 -168 -143.5 -264.5t-387.5 -96.5q-156 0 -305 52t-244 123l85 251q236 -158 471 -158zM577 700q-154 -6 -154 -124q0 -66 45.5 -98t97.5 -44t67 -15.5t32 -7.5q154 5 154 125q0 66 -45.5 97.5t-97.5 43.5t-67 15.5t-32 7.5z" />
    <glyph glyph-name="dieresis" unicode="&#xa8;" 
d="M1015 1426q0 -138 -173 -138t-174 138v26q0 144 173 144t174 -144v-26zM564 1426q0 -138 -173 -138t-173 138v26q0 144 173 144t173 -144v-26z" />
    <glyph glyph-name="copyright" unicode="&#xa9;" 
d="M544 532q0 -197 82 -197q42 0 58 36.5t22 151.5l236 -11q-13 -194 -84.5 -285t-237.5 -91q-326 0 -326 382v350q0 374 326 374q166 0 237.5 -98t84.5 -297l-236 -11q-6 123 -22 165t-58 42t-62 -46t-20 -152v-313zM617 -88q237 0 340.5 141.5t103.5 462.5v339
q0 326 -102.5 468t-340.5 142t-341.5 -142.5t-103.5 -467.5v-339q0 -320 103.5 -462t340.5 -142zM1180 478q0 -683 -564 -683t-564 683v414q0 691 564 691t564 -691v-414z" />
    <glyph glyph-name="ordfeminine" unicode="&#xaa;" 
d="M440 534q-116 0 -218.5 66t-102.5 202t97 206t270 70h220v78q0 86 -34 116.5t-98 30.5t-99.5 -27t-55.5 -105l-278 41q34 162 135.5 229t307.5 67t316.5 -77t110.5 -271v-285q0 -84 44.5 -104.5t132.5 -7.5v-206q-273 -64 -356 124h-43q-45 -63 -139 -105t-210 -42z
M410 814q0 -95 105 -95t191 56v148h-201q-48 0 -71.5 -22t-23.5 -87z" />
    <glyph glyph-name="guillemotleft" unicode="&#xab;" 
d="M573 52l-521 423v354l521 422v-311l-355 -288l355 -289v-311zM1179 52l-520 423v354l520 422v-311l-354 -288l354 -289v-311z" />
    <glyph glyph-name="logicalnot" unicode="&#xac;" 
d="M829 0v508h-710v287h994v-795h-284z" />
    <glyph glyph-name="registered" unicode="&#xae;" 
d="M946 1011q0 -125 -129 -173l172 -304h-255l-133 280h-29v-280h-241v767h324q291 0 291 -232v-58zM572 942h52q30 0 56 13t26 60v56q0 50 -26.5 67.5t-55.5 17.5h-52v-214zM616.5 326q219.5 0 315.5 98.5t96 325.5v319q0 231 -96 331.5t-315.5 100.5t-315.5 -100.5
t-96 -331.5v-319q0 -227 96 -325.5t315.5 -98.5zM1132 748q0 -525 -515.5 -525t-515.5 525v323q0 266 128 398t389 132q514 0 514 -530v-323z" />
    <glyph glyph-name="macron" unicode="&#x2c9;" 
d="M227 1355v269h778v-269h-778z" />
    <glyph glyph-name="macron" unicode="&#xaf;" 
d="M227 1355v269h778v-269h-778z" />
    <glyph glyph-name="degree" unicode="&#xb0;" 
d="M616 1272q-123 0 -123 -149v-157q0 -76 29.5 -109.5t91.5 -33.5t93.5 32.5t31.5 110.5v157q0 149 -123 149zM616.5 594q-178.5 0 -288.5 83t-110 256v223q0 173 110 259t290 86t288.5 -86t108.5 -259v-223q0 -173 -110 -256t-288.5 -83z" />
    <glyph glyph-name="plusminus" unicode="&#xb1;" 
d="M119 0v287h356v407h-356v287h356v451h285v-451h353v-287h-353v-407h353v-287h-994z" />
    <glyph glyph-name="two.sups" unicode="&#xb2;" 
d="M614 1501q391 0 391 -285v-37q0 -106 -54.5 -170.5t-142.5 -83.5l-208 -46q-69 -15 -92.5 -33.5t-23.5 -57.5v-27h531v-195h-799v220q0 215 199 260l209 47q60 13 85.5 37t25.5 82v9q0 63 -34 81t-86.5 18t-84 -20.5t-35.5 -100.5l-270 13q7 145 99.5 217t289.5 72z" />
    <glyph glyph-name="three.sups" unicode="&#xb3;" 
d="M614 555q-189 0 -295.5 70.5t-113.5 214.5l270 11q6 -61 41 -82t103 -21t97 18t29 64v30q0 52 -33.5 71t-97.5 19h-197v191h197q58 0 84 15t26 60v15q0 47 -27 61.5t-93 14.5t-85.5 -15t-23.5 -61l-270 11q9 143 108 201t274 58t280 -50.5t105 -180.5v-17
q0 -82 -45.5 -128.5t-116.5 -57.5v-34q67 -6 126 -54t59 -143v-17q0 -151 -106 -207.5t-295 -56.5z" />
    <glyph glyph-name="acute" unicode="&#xb4;" 
d="M384 1303l175 373h446l-391 -373h-230z" />
    <glyph glyph-name="mu1" unicode="&#xb5;" 
d="M134 1117h361v-715q0 -76 26 -110q27 -34 65 -34q69 1 125 77v782h361v-748q0 -79 20 -103t75 -17v-242q-123 -30 -193 1t-112 132h-52q-56 -155 -183 -155q-90 0 -132 67v-15l17 -409h-395l17 409v1080z" />
    <glyph glyph-name="paragraph" unicode="&#xb6;" 
d="M860 633h-145v-1005h-298v1007q-153 7 -254.5 93.5t-101.5 271.5v97q0 199 114 295.5t277 96.5h706v-1861h-298v1005z" />
    <glyph glyph-name="periodcentered" unicode="&#x2219;" 
d="M616 465q-116 0 -190 53.5t-74 149.5v151q0 97 73.5 152t191.5 55t190 -55t72 -152v-151q0 -97 -73.5 -150t-189.5 -53z" />
    <glyph glyph-name="periodcentered" unicode="&#xb7;" 
d="M616 465q-116 0 -190 53.5t-74 149.5v151q0 97 73.5 152t191.5 55t190 -55t72 -152v-151q0 -97 -73.5 -150t-189.5 -53z" />
    <glyph glyph-name="cedilla" unicode="&#xb8;" 
d="M944 -172q0 -126 -113 -186t-277 -61q-164 0 -272 60q-107 60 -114 188l301 18q4 -35 22 -49q19 -14 61 -14t64 20t22 76t-14 82q-15 26 -60 38l36 78q160 -15 252 -69q92 -55 92 -181z" />
    <glyph glyph-name="one.sups" unicode="&#xb9;" 
d="M302 566v195h232v512h-37q-13 -80 -74.5 -124.5t-133.5 -51.5l-10 190q76 13 151 64t108 138h264v-728h213v-195h-713z" />
    <glyph glyph-name="ordmasculine" unicode="&#xba;" 
d="M616 748q80 0 109 38.5t29 127.5v224q0 76 -29 116t-109 40t-109 -41t-29 -119v-220q0 -89 29 -127.5t109 -38.5zM617 534q-193 0 -318.5 90.5t-125.5 267.5v253q0 179 125.5 271t318.5 92t317.5 -92t124.5 -271v-253q0 -177 -124.5 -267.5t-317.5 -90.5z" />
    <glyph glyph-name="guillemotright" unicode="&#xbb;" 
d="M657 52v311l356 289l-356 288v311l522 -422v-354zM52 52v311l354 289l-354 288v311l520 -422v-354z" />
    <glyph glyph-name="onequarter" unicode="&#xbc;" 
d="M633 -30v252l-231 -252h231zM1061 -210h-158v-181h-270v181h-434v180l387 432h317v-432h158v-180zM694 493v162l520 38v-237zM19 456v237l543 -38v-162zM292 767v162h233v359h-37q-12 -75 -70.5 -122.5t-136.5 -53.5l-11 189q84 14 149 62q76 52 110 141h266v-575h210
v-162h-713z" />
    <glyph glyph-name="onehalf" unicode="&#xbd;" 
d="M713 395q292 0 292 -231v-37q0 -79 -54 -133q-60 -51 -143 -68l-208 -47q-67 -14 -88 -30q-21 -12 -26 -44h529v-196h-799v181q0 98 47 154q48 64 152 88l209 46q53 11 82 28t29 54v9q0 62 -85.5 62t-107.5 -11q-43 -21 -47 -73l-270 13q8 119 99 177q97 58 389 58z
M694 493v162l520 38v-237zM19 456v237l543 -38v-162zM292 767v162h233v359h-37q-12 -75 -70.5 -122.5t-136.5 -53.5l-11 189q84 14 149 62q76 52 110 141h266v-575h210v-162h-713z" />
    <glyph glyph-name="threequarters" unicode="&#xbe;" 
d="M640 -30v252l-230 -252h230zM1067 -210h-158v-181h-269v181h-435v180l387 432h317v-432h158v-180zM694 493v162l520 38v-237zM19 456v237l543 -38v-162zM1015 961q0 -209 -389 -209q-198 0 -308 62q-105 62 -113 186l270 11q8 -59 41 -80q40 -19 107 -19t95 14
q27 14 27 46v30q0 67 -131 67h-203v158h203q87 0 98.5 19.5t11.5 36.5v15q0 30 -25 42t-88 12t-83 -8t-24.5 -19t-8.5 -29l-270 11q15 205 391 205t376 -175v-17q0 -92 -59.5 -118.5t-89.5 -32.5v-33q113 -16 142.5 -69.5t29.5 -89.5v-16z" />
    <glyph glyph-name="questiondown" unicode="&#xbf;" 
d="M447 462v-39q0 -93 36 -141.5t133 -48.5t133.5 51t49.5 183l361 -18q-13 -242 -147 -355t-391 -113t-396.5 124t-139.5 303v61q0 222 176.5 340t582.5 181l36 -234q-261 -47 -347.5 -115t-86.5 -179zM441 1352q0 156 259 156t259 -156v-52q0 -161 -259 -161t-259 161v52z
" />
    <glyph glyph-name="Agrave" unicode="&#xc0;" 
d="M868 0l-67 344h-373l-76 -344h-322l365 1489h445l365 -1489h-337zM747 613l-121 614l-136 -614h257zM581 1676l-391 372h445l177 -372h-231z" />
    <glyph glyph-name="Aacute" unicode="&#xc1;" 
d="M868 0l-67 344h-373l-76 -344h-322l365 1489h445l365 -1489h-337zM747 613l-121 614l-136 -614h257zM384 1676l175 372h446l-391 -372h-230z" />
    <glyph glyph-name="Acircumflex" unicode="&#xc2;" 
d="M868 0l-67 344h-373l-76 -344h-322l365 1489h445l365 -1489h-337zM747 613l-121 614l-136 -614h257zM272 1650l-110 152l315 294h275l319 -294l-108 -151l-349 198z" />
    <glyph glyph-name="Atilde" unicode="&#xc3;" 
d="M868 0l-67 344h-373l-76 -344h-322l365 1489h445l365 -1489h-337zM747 613l-121 614l-136 -614h257zM475 1873q-73 0 -71 -132v-28h-227v28q0 155 75 257t204 102q120 0 198 -88q32 -36 54 -64q23 -28 53 -28t51 26q20 26 18 106v28h228v-28q0 -156 -74 -257t-204 -101
t-199 90q-28 34 -51 62t-55 27z" />
    <glyph glyph-name="Adieresis" unicode="&#xc4;" 
d="M868 0l-67 344h-373l-76 -344h-322l365 1489h445l365 -1489h-337zM747 613l-121 614l-136 -614h257zM1015 1799q0 -138 -173 -138q-76 0 -125 30q-48 31 -49 108v26q0 143 173 143t174 -143v-26zM564 1799q0 -138 -173 -138q-76 0 -125 30q-48 31 -48 108v26
q0 143 173 143t173 -143v-26z" />
    <glyph glyph-name="Aring" unicode="&#xc5;" 
d="M868 0l-67 344h-373l-76 -344h-322l365 1489h445l365 -1489h-337zM747 613l-121 614l-136 -614h257zM616 2104q-121 0 -121 -127v-59q1 -67 31 -94t90 -27q123 0 121 121v59q0 127 -121 127zM616 1631q-166 0 -267 71t-101 216v59q0 147 101 220t267 73t267 -73t102 -220
v-59q1 -145 -101 -216t-268 -71z" />
    <glyph glyph-name="AE" unicode="&#xc6;" 
d="M577 344h-218l-72 -344h-250l339 1489h803v-249h-296v-315h258v-249h-258v-427h296v-249h-602v344zM577 594v646h-28l-136 -646h164z" />
    <glyph glyph-name="Ccedilla" unicode="&#xc7;" 
d="M873 12q97 -48 97 -179t-113 -191t-277 -61q-164 0 -272 60q-107 60 -114 188l301 18q4 -35 22 -49q19 -14 61 -14t64 20t22 76t-10 74q-11 18 -23 27q-532 4 -532 494v532q0 501 543 501q272 0 396 -127t137 -411l-360 -19q-9 177 -44 233t-133 56t-139 -61t-41 -207
v-464q0 -140 40 -200t139 -59q99 0 133 54t45 228l360 -19q-11 -281 -137 -406q-64 -63 -165 -94z" />
    <glyph glyph-name="Egrave" unicode="&#xc8;" 
d="M637 1676l-391 372h445l177 -372h-231zM95 0v1489h1039v-268h-680v-294h594v-268h-594v-391h680v-268h-1039z" />
    <glyph glyph-name="Eacute" unicode="&#xc9;" 
d="M436 1670l175 372h447l-391 -372h-231zM95 0v1489h1039v-268h-680v-294h594v-268h-594v-391h680v-268h-1039z" />
    <glyph glyph-name="Ecircumflex" unicode="&#xca;" 
d="M287 1650l-110 152l315 294h275l318 -294l-108 -151l-348 198zM95 0v1489h1039v-268h-680v-294h594v-268h-594v-391h680v-268h-1039z" />
    <glyph glyph-name="Edieresis" unicode="&#xcb;" 
d="M95 0v1489h1039v-268h-680v-294h594v-268h-594v-391h680v-268h-1039zM1043 1799q0 -138 -174 -138q-76 1 -124 31t-49 107v26q0 143 173 143t174 -143v-26zM592 1799q0 -138 -173 -138q-76 0 -125 30q-48 31 -48 108v26q0 143 173 143t173 -143v-26z" />
    <glyph glyph-name="Igrave" unicode="&#xcc;" 
d="M95 0v268h341v953h-341v268h1043v-268h-341v-953h341v-268h-1043zM581 1676l-391 372h445l177 -372h-231z" />
    <glyph glyph-name="Iacute" unicode="&#xcd;" 
d="M95 0v268h341v953h-341v268h1043v-268h-341v-953h341v-268h-1043zM384 1676l175 372h446l-391 -372h-230z" />
    <glyph glyph-name="Icircumflex" unicode="&#xce;" 
d="M95 0v268h341v953h-341v268h1043v-268h-341v-953h341v-268h-1043zM272 1650l-110 152l315 294h275l319 -294l-108 -151l-349 198z" />
    <glyph glyph-name="Idieresis" unicode="&#xcf;" 
d="M95 0v268h341v953h-341v268h1043v-268h-341v-953h341v-268h-1043zM1015 1799q0 -138 -173 -138q-76 0 -125 30q-48 31 -49 108v26q0 143 173 143t174 -143v-26zM564 1799q0 -138 -173 -138q-76 0 -125 30q-48 31 -48 108v26q0 143 173 143t173 -143v-26z" />
    <glyph glyph-name="Eth" unicode="&#xd0;" 
d="M454 268h131q108 0 149 63.5t41 236.5v346q0 179 -41 243t-149 64h-131v-292h162v-218h-162v-443zM95 0v711h-89v218h89v560h529q240 0 375 -148t135 -393v-414q0 -244 -136 -389t-376 -145h-527z" />
    <glyph glyph-name="Ntilde" unicode="&#xd1;" 
d="M827 2080h227v-28q0 -156 -74 -257t-203 -101t-200 90q-28 34 -51 62t-55 27q-73 0 -71 -132v-28h-227v28q-1 155 75 257t204 102q76 0 121 -26t77 -62t55 -64t53 -28q71 0 69 132v28zM400 0h-305v1489h385l352 -1055v1055h306v-1489h-414l-324 996v-996z" />
    <glyph glyph-name="Ograve" unicode="&#xd2;" 
d="M581 1676l-391 372h445l177 -372h-231zM458 499q0 -141 36 -195t123 -55q87 0 122 54t36 196v484q1 143 -35 200t-123 57t-123 -57t-36 -200v-484zM616 -19q-253 1 -385 129t-132 355v552q0 229 133 360t385 131q253 0 385 -131t132 -360v-552q0 -227 -132 -355
t-386 -129z" />
    <glyph glyph-name="Oacute" unicode="&#xd3;" 
d="M434 1676l175 372h447l-391 -372h-231zM458 499q0 -141 36 -195t123 -55q87 0 122 54t36 196v484q1 143 -35 200t-123 57t-123 -57t-36 -200v-484zM616 -19q-253 1 -385 129t-132 355v552q0 229 133 360t385 131q253 0 385 -131t132 -360v-552q0 -227 -132 -355
t-386 -129z" />
    <glyph glyph-name="Ocircumflex" unicode="&#xd4;" 
d="M272 1650l-110 152l315 294h275l319 -294l-108 -151l-349 198zM458 499q0 -141 36 -195t123 -55q87 0 122 54t36 196v484q1 143 -35 200t-123 57t-123 -57t-36 -200v-484zM616 -19q-253 1 -385 129t-132 355v552q0 229 133 360t385 131q253 0 385 -131t132 -360v-552
q0 -227 -132 -355t-386 -129z" />
    <glyph glyph-name="Otilde" unicode="&#xd5;" 
d="M475 1873q-73 0 -71 -132v-28h-227v28q0 155 75 257t204 102q120 0 198 -88q32 -36 54 -64q23 -28 53 -28t51 26q20 26 18 106v28h228v-28q0 -156 -74 -257t-204 -101t-199 90q-28 34 -51 62t-55 27zM458 499q0 -141 36 -195t123 -55q87 0 122 54t36 196v484
q1 143 -35 200t-123 57t-123 -57t-36 -200v-484zM616 -19q-253 1 -385 129t-132 355v552q0 229 133 360t385 131q253 0 385 -131t132 -360v-552q0 -227 -132 -355t-386 -129z" />
    <glyph glyph-name="Odieresis" unicode="&#xd6;" 
d="M1015 1799q0 -138 -173 -138q-76 0 -125 30q-48 31 -49 108v26q0 143 173 143t174 -143v-26zM564 1799q0 -138 -173 -138q-76 0 -125 30q-48 31 -48 108v26q0 143 173 143t173 -143v-26zM458 499q0 -141 36 -195t123 -55q87 0 122 54t36 196v484q1 143 -35 200t-123 57
t-123 -57t-36 -200v-484zM616 -19q-253 1 -385 129t-132 355v552q0 229 133 360t385 131q253 0 385 -131t132 -360v-552q0 -227 -132 -355t-386 -129z" />
    <glyph glyph-name="multiply" unicode="&#xd7;" 
d="M324 61l-192 170l300 421l-296 415l188 177l292 -408l294 406l190 -171l-299 -419l299 -419l-190 -172l-294 406z" />
    <glyph glyph-name="Oslash" unicode="&#xd8;" 
d="M1134 983v-484q0 -244 -132.5 -381t-385.5 -137q-55 0 -149 13l-67 -180h-247l106 277q-160 133 -160 408v484q0 246 133 385.5t386 139.5q87 0 149 -15l69 183h248l-105 -283q155 -137 155 -410zM812 532v444l-265 -719q34 -8 69 -8q112 0 154 61.5t42 221.5zM616 1240
q-112 0 -153.5 -64t-41.5 -226v-228q0 -227 2 -238l264 747q-23 9 -71 9z" />
    <glyph glyph-name="Ugrave" unicode="&#xd9;" 
d="M581 1676l-391 372h445l177 -372h-231zM1138 516q0 -274 -127 -404t-394 -131q-267 1 -395 131t-127 404v973h359v-960q0 -153 36 -208t126 -55q89 0 126 55q36 55 36 208v960h360v-973z" />
    <glyph glyph-name="Uacute" unicode="&#xda;" 
d="M384 1676l175 372h446l-391 -372h-230zM1138 516q0 -274 -127 -404t-394 -131q-267 1 -395 131t-127 404v973h359v-960q0 -153 36 -208t126 -55q89 0 126 55q36 55 36 208v960h360v-973z" />
    <glyph glyph-name="Ucircumflex" unicode="&#xdb;" 
d="M272 1650l-110 152l315 294h275l319 -294l-108 -151l-349 198zM1138 516q0 -274 -127 -404t-394 -131q-267 1 -395 131t-127 404v973h359v-960q0 -153 36 -208t126 -55q89 0 126 55q36 55 36 208v960h360v-973z" />
    <glyph glyph-name="Udieresis" unicode="&#xdc;" 
d="M1138 516q0 -274 -127 -404t-394 -131q-267 1 -395 131t-127 404v973h359v-960q0 -153 36 -208t126 -55q89 0 126 55q36 55 36 208v960h360v-973zM1015 1799q0 -138 -173 -138q-76 0 -125 30q-48 31 -49 108v26q0 143 173 143t174 -143v-26zM564 1799q0 -138 -173 -138
q-76 0 -125 30q-48 31 -48 108v26q0 143 173 143t173 -143v-26z" />
    <glyph glyph-name="Yacute" unicode="&#xdd;" 
d="M797 0h-361v559l-393 930h355l216 -603l220 603h354l-391 -930v-559zM384 1676l175 372h446l-391 -372h-230z" />
    <glyph glyph-name="Thorn" unicode="&#xde;" 
d="M454 497h132q101 0 144 33.5t43 117.5v190q0 88 -43 123t-144 35h-132v-499zM95 0v1489h359v-225h179q244 0 371.5 -107t127.5 -310v-221q0 -190 -127.5 -291.5t-369.5 -101.5h-181v-233h-359z" />
    <glyph glyph-name="germandbls" unicode="&#xdf;" 
d="M802 775q0 -50 38.5 -80.5t134.5 -78.5t140.5 -116t44.5 -170q0 -156 -98.5 -248.5t-260.5 -92.5q-78 0 -166.5 29t-146.5 77l67 201q122 -99 214 -99q91 0 91 97q0 43 -32.5 69t-144.5 75q-91 45 -136.5 112.5t-45.5 181.5t60.5 197.5t170.5 111.5q-2 121 -45 169.5
t-108 48.5t-109 -48.5t-44 -166.5v-1044h-340v1071q0 216 133 324.5t355 108.5t352 -134t130 -344v-136q-254 -4 -254 -115z" />
    <glyph glyph-name="agrave" unicode="&#xe0;" 
d="M394 -19q-132 -1 -222 89t-90 242t101 232q101 82 281 82h229v135q-1 77 -37 105t-106 28t-104 -33t-49 -124l-289 47q38 194 140 273t328 79t341 -90q116 -90 116 -279v-419q0 -74 39 -92t110 -7v-242q-286 -69 -357 155h-54q-53 -74 -149 -128t-228 -53zM404 315
q0 -116 104 -116q92 0 185 58v188h-194q-51 0 -73 -26t-22 -104zM566 1303l-391 373h445l177 -373h-231z" />
    <glyph glyph-name="aacute" unicode="&#xe1;" 
d="M394 -19q-132 -1 -222 89t-90 242t101 232q101 82 281 82h229v135q-1 77 -37 105t-106 28t-104 -33t-49 -124l-289 47q38 194 140 273t328 79t341 -90q116 -90 116 -279v-419q0 -74 39 -92t110 -7v-242q-286 -69 -357 155h-54q-53 -74 -149 -128t-228 -53zM404 315
q0 -116 104 -116q92 0 185 58v188h-194q-51 0 -73 -26t-22 -104zM369 1303l175 373h446l-390 -373h-231z" />
    <glyph glyph-name="acircumflex" unicode="&#xe2;" 
d="M394 -19q-132 -1 -222 89t-90 242t101 232q101 82 281 82h229v135q-1 77 -37 105t-106 28t-104 -33t-49 -124l-289 47q38 194 140 273t328 79t341 -90q116 -90 116 -279v-419q0 -74 39 -92t110 -7v-242q-286 -69 -357 155h-54q-53 -74 -149 -128t-228 -53zM404 315
q0 -116 104 -116q92 0 185 58v188h-194q-51 0 -73 -26t-22 -104zM255 1277l-110 153l315 294h275l319 -294l-108 -151l-348 197z" />
    <glyph glyph-name="atilde" unicode="&#xe3;" 
d="M394 -19q-132 -1 -222 89t-90 242t101 232q101 82 281 82h229v135q-1 77 -37 105t-106 28t-104 -33t-49 -124l-289 47q38 194 140 273t328 79t341 -90q116 -90 116 -279v-419q0 -74 39 -92t110 -7v-242q-286 -69 -357 155h-54q-53 -74 -149 -128t-228 -53zM404 315
q0 -116 104 -116q92 0 185 58v188h-194q-51 0 -73 -26t-22 -104zM747 1547q71 0 68 132v28h228v-28q0 -157 -74 -257t-204 -100t-199 89q-28 34 -51 62t-55 28q-73 0 -71 -133v-27h-227v27q0 156 75 258t204 102q121 0 197 -88q32 -36 56 -65q24 -28 53 -28z" />
    <glyph glyph-name="adieresis" unicode="&#xe4;" 
d="M394 -19q-132 -1 -222 89t-90 242t101 232q101 82 281 82h229v135q-1 77 -37 105t-106 28t-104 -33t-49 -124l-289 47q38 194 140 273t328 79t341 -90q116 -90 116 -279v-419q0 -74 39 -92t110 -7v-242q-286 -69 -357 155h-54q-53 -74 -149 -128t-228 -53zM404 315
q0 -116 104 -116q92 0 185 58v188h-194q-51 0 -73 -26t-22 -104zM1000 1426q0 -138 -173 -138t-174 138v26q0 144 173 144t174 -144v-26zM549 1426q0 -138 -173 -138t-173 138v26q0 144 173 144t173 -144v-26z" />
    <glyph glyph-name="aring" unicode="&#xe5;" 
d="M394 -19q-132 -1 -222 89t-90 242t101 232q101 82 281 82h229v135q-1 77 -37 105t-106 28t-104 -33t-49 -124l-289 47q38 194 140 273t328 79t341 -90q116 -90 116 -279v-419q0 -74 39 -92t110 -7v-242q-286 -69 -357 155h-54q-53 -74 -149 -128t-228 -53zM404 315
q0 -116 104 -116q92 0 185 58v188h-194q-51 0 -73 -26t-22 -104zM462 1545q0 -67 30 -94t91 -27q121 0 121 121v60q0 128 -121 126q-123 0 -121 -126v-60zM583 1259q-166 1 -267 71t-102 215v60q0 147 102 220t267 73q166 0 267 -74q101 -72 101 -219v-60q0 -145 -101 -215
t-267 -71z" />
    <glyph glyph-name="ae" unicode="&#xe6;" 
d="M404 197q49 0 106 49v201h-76q-50 0 -73.5 -29t-23.5 -103q0 -118 67 -118zM839.5 922q-59.5 0 -59.5 -164v-90h153v88q0 89 -17 127.5t-76.5 38.5zM780 350q0 -145 66 -145t90 121l244 -45q-39 -149 -123.5 -224.5t-203.5 -75.5q-169 0 -240 155h-60q-22 -69 -82.5 -112
t-146.5 -43q-123 0 -198.5 79.5t-75.5 239.5t86 243t236 83h138v121q0 86 -18.5 117.5t-58.5 31.5t-58.5 -32t-44.5 -123l-254 47q39 181 117.5 264.5t208.5 83.5q173 0 227 -140q87 140 252 140q134 0 217.5 -104.5t83.5 -310.5v-233h-402v-138z" />
    <glyph glyph-name="ccedilla" unicode="&#xe7;" 
d="M726 -109q0 67 -35 92q-29 -2 -60 -2q-249 0 -383 111t-134 316v307q0 199 135 310t374 111t354 -107t142 -310l-346 -28q-9 108 -43 150t-114 42t-112 -42t-31 -150v-267q1 -108 33 -150t113 -41q81 -1 114 33t40 123l346 -28q-18 -257 -208 -337q120 -56 120 -189
q-1 -133 -113 -193t-276 -61q-164 0 -272 60q-107 60 -115 188l302 18q3 -35 21 -49t61 -14t65 20t22 87z" />
    <glyph glyph-name="egrave" unicode="&#xe8;" 
d="M590 1303l-391 373h445l177 -373h-231zM473 758v-88h287v77q0 97 -29 135t-115 38t-114 -36t-29 -126zM473 372q0 -166 157 -166q83 0 133 27q50 26 84 108l292 -78q-61 -157 -173 -219t-336 -62t-370 106t-146 309v327q0 192 134 302t370 110t368 -112t133 -311v-225
h-646v-116z" />
    <glyph glyph-name="eacute" unicode="&#xe9;" 
d="M430 1303l175 373h447l-391 -373h-231zM473 758v-88h287v77q0 97 -29 135t-115 38t-114 -36t-29 -126zM473 372q0 -166 157 -166q83 0 133 27q50 26 84 108l292 -78q-61 -157 -173 -219t-336 -62t-370 106t-146 309v327q0 192 134 302t370 110t368 -112t133 -311v-225
h-646v-116z" />
    <glyph glyph-name="ecircumflex" unicode="&#xea;" 
d="M281 1277l-110 153l315 294h275l319 -294l-108 -151l-348 197zM473 758v-88h287v77q0 97 -29 135t-115 38t-114 -36t-29 -126zM473 372q0 -166 157 -166q83 0 133 27q50 26 84 108l292 -78q-61 -157 -173 -219t-336 -62t-370 106t-146 309v327q0 192 134 302t370 110
t368 -112t133 -311v-225h-646v-116z" />
    <glyph glyph-name="edieresis" unicode="&#xeb;" 
d="M473 758v-88h287v77q0 97 -29 135t-115 38t-114 -36t-29 -126zM473 372q0 -166 157 -166q83 0 133 27q50 26 84 108l292 -78q-61 -157 -173 -219t-336 -62t-370 106t-146 309v327q0 192 134 302t370 110t368 -112t133 -311v-225h-646v-116zM1024 1426q0 -138 -173 -138
t-173 138v26q0 144 173 144t173 -144v-26zM573 1426q0 -138 -172 -138t-174 138v26q0 144 173 144t173 -144v-26z" />
    <glyph glyph-name="igrave.salt_serifs" unicode="&#xe025;" 
d="M797 251h300v-251h-661v866h-300v251h661v-866zM586 1303l-391 373h445l177 -373h-231z" />
    <glyph glyph-name="igrave.salt_serifs" unicode="&#xec;" 
d="M797 251h300v-251h-661v866h-300v251h661v-866zM586 1303l-391 373h445l177 -373h-231z" />
    <glyph glyph-name="iacute.salt_serifs" unicode="&#xe026;" 
d="M797 251h300v-251h-661v866h-300v251h661v-866zM389 1303l175 373h447l-391 -373h-231z" />
    <glyph glyph-name="iacute.salt_serifs" unicode="&#xed;" 
d="M797 251h300v-251h-661v866h-300v251h661v-866zM389 1303l175 373h447l-391 -373h-231z" />
    <glyph glyph-name="icircumflex.salt_serifs" unicode="&#xe027;" 
d="M797 251h300v-251h-661v866h-300v251h661v-866zM277 1277l-109 153l314 294h276l318 -294l-108 -151l-348 197z" />
    <glyph glyph-name="icircumflex.salt_serifs" unicode="&#xee;" 
d="M797 251h300v-251h-661v866h-300v251h661v-866zM277 1277l-109 153l314 294h276l318 -294l-108 -151l-348 197z" />
    <glyph glyph-name="idieresis.salt_serifs" unicode="&#xe028;" 
d="M797 251h300v-251h-661v866h-300v251h661v-866zM1020 1426q0 -138 -173 -138t-173 138v26q0 144 173 144t173 -144v-26zM570 1426q0 -138 -173 -138t-174 138v26q0 144 173 144t174 -144v-26z" />
    <glyph glyph-name="idieresis.salt_serifs" unicode="&#xef;" 
d="M797 251h300v-251h-661v866h-300v251h661v-866zM1020 1426q0 -138 -173 -138t-173 138v26q0 144 173 144t173 -144v-26zM570 1426q0 -138 -173 -138t-174 138v26q0 144 173 144t174 -144v-26z" />
    <glyph glyph-name="eth" unicode="&#xf0;" 
d="M616 233q88 0 125 42.5t37 130.5v117q0 78 -37 116.5t-125 38.5t-123 -38.5t-35 -116.5v-117q0 -88 35 -130.5t123 -42.5zM1138 685v-247q0 -238 -144.5 -347.5t-377 -109.5t-377 110t-144.5 335v101q0 184 108 294t281 110q106 0 176 -41t96 -97h35q-21 215 -167 330
l-274 -134v182l95 47q-108 46 -240 82l234 229q214 -64 347 -144l247 121v-182l-102 -51q207 -203 207 -588z" />
    <glyph glyph-name="ntilde" unicode="&#xf1;" 
d="M797 1547q71 0 69 132v28h227v-28q0 -157 -74 -257t-202 -100t-201 89q-28 34 -51 62t-55 28q-73 0 -71 -133v-27h-227v27q0 156 76 258t204 102q122 0 198 -88q32 -36 54 -65q23 -28 53 -28zM114 0v1117h359v-190h52q39 99 124 154t205 55t192 -87q73 -87 73 -243v-806
h-359v745q0 59 -26 91t-74 32t-100 -31t-87 -89v-748h-359z" />
    <glyph glyph-name="ograve" unicode="&#xf2;" 
d="M581 1303l-391 373h445l177 -373h-231zM475 417q-1 -99 33 -141t109 -43q75 0 109 41t34 134v296q0 95 -34 138q-34 42 -109 42t-109 -42t-33 -136v-289zM1119 384q0 -188 -134 -296t-368 -107q-235 0 -369 109t-134 301v328q0 193 135 305t369 112t368 -114
q133 -114 133 -313v-325z" />
    <glyph glyph-name="oacute" unicode="&#xf3;" 
d="M384 1303l175 373h446l-391 -373h-230zM475 417q-1 -99 33 -141t109 -43q75 0 109 41t34 134v296q0 95 -34 138q-34 42 -109 42t-109 -42t-33 -136v-289zM1119 384q0 -188 -134 -296t-368 -107q-235 0 -369 109t-134 301v328q0 193 135 305t369 112t368 -114
q133 -114 133 -313v-325z" />
    <glyph glyph-name="ocircumflex" unicode="&#xf4;" 
d="M272 1277l-110 153l315 294h275l319 -294l-108 -151l-349 197zM475 417q-1 -99 33 -141t109 -43q75 0 109 41t34 134v296q0 95 -34 138q-34 42 -109 42t-109 -42t-33 -136v-289zM1119 384q0 -188 -134 -296t-368 -107q-235 0 -369 109t-134 301v328q0 193 135 305
t369 112t368 -114q133 -114 133 -313v-325z" />
    <glyph glyph-name="otilde" unicode="&#xf5;" 
d="M475 1501q-73 0 -71 -133v-27h-227v27q0 156 75 258t204 102q122 0 198 -88q32 -36 54 -65q23 -28 53 -28t51 26q20 26 18 106v28h228v-28q0 -157 -74 -257t-204 -100t-199 89q-28 34 -51 62t-55 28zM475 417q-1 -99 33 -141t109 -43q75 0 109 41t34 134v296
q0 95 -34 138q-34 42 -109 42t-109 -42t-33 -136v-289zM1119 384q0 -188 -134 -296t-368 -107q-235 0 -369 109t-134 301v328q0 193 135 305t369 112t368 -114q133 -114 133 -313v-325z" />
    <glyph glyph-name="odieresis" unicode="&#xf6;" 
d="M1015 1426q0 -138 -173 -138t-174 138v26q0 144 173 144t174 -144v-26zM564 1426q0 -138 -173 -138t-173 138v26q0 144 173 144t173 -144v-26zM475 417q-1 -99 33 -141t109 -43q75 0 109 41t34 134v296q0 95 -34 138q-34 42 -109 42t-109 -42t-33 -136v-289zM1119 384
q0 -188 -134 -296t-368 -107q-235 0 -369 109t-134 301v328q0 193 135 305t369 112t368 -114q133 -114 133 -313v-325z" />
    <glyph glyph-name="divide" unicode="&#xf7;" 
d="M616 24q-80 0 -130 33.5t-50 106.5v39q0 74 50 109.5t130 35.5t129.5 -35.5t49.5 -109.5v-39q0 -73 -49.5 -106.5t-129.5 -33.5zM119 525v253h994v-253h-994zM616 955q-80 0 -130 33.5t-50 106.5v39q0 74 50 109.5t130 35.5t129.5 -35.5t49.5 -109.5v-39
q0 -73 -49.5 -106.5t-129.5 -33.5z" />
    <glyph glyph-name="oslash" unicode="&#xf8;" 
d="M618 1136q60 0 151 -13l86 180h208l-115 -245q89 -52 139.5 -146.5t50.5 -205.5v-302q0 -197 -139 -310t-383 -113q-57 0 -151 13l-85 -180h-209l114 244q-88 52 -139 144t-51 202v302q0 199 139.5 314.5t383.5 115.5zM815 430v268q0 70 -18 110l-261 -585q33 -7 80 -7
q112 0 155.5 49.5t43.5 164.5zM417 694v-264q0 -79 19 -123l262 585q-43 9 -82 9q-112 0 -155.5 -52t-43.5 -155z" />
    <glyph glyph-name="ugrave" unicode="&#xf9;" 
d="M605 1303l-391 373h445l177 -373h-231zM566 251q98 0 194 151v715h359v-1117h-359v190h-53q-41 -108 -132 -158t-195 -51q-104 0 -185 85t-81 245v806h359v-711q0 -155 93 -155z" />
    <glyph glyph-name="uacute" unicode="&#xfa;" 
d="M471 1303l175 373h447l-391 -373h-231zM566 251q98 0 194 151v715h359v-1117h-359v190h-53q-41 -108 -132 -158t-195 -51q-104 0 -185 85t-81 245v806h359v-711q0 -155 93 -155z" />
    <glyph glyph-name="ucircumflex" unicode="&#xfb;" 
d="M290 1277l-109 153l314 294h276l318 -294l-108 -151l-348 197zM566 251q98 0 194 151v715h359v-1117h-359v190h-53q-41 -108 -132 -158t-195 -51q-104 0 -185 85t-81 245v806h359v-711q0 -155 93 -155z" />
    <glyph glyph-name="udieresis" unicode="&#xfc;" 
d="M566 251q98 0 194 151v715h359v-1117h-359v190h-53q-41 -108 -132 -158t-195 -51q-104 0 -185 85t-81 245v806h359v-711q0 -155 93 -155zM1033 1426q0 -138 -173 -138t-173 138v26q0 144 173 144t173 -144v-26zM583 1426q0 -138 -173 -138t-174 138v26q0 144 173 144
t174 -144v-26z" />
    <glyph glyph-name="yacute" unicode="&#xfd;" 
d="M354 -393q-93 0 -280 21l15 251q148 -26 241 -27t145 44t82 171h-239l-268 1050h363l201 -828l216 828h350l-309 -1098q-65 -222 -182 -317t-335 -95zM397 1303l175 373h446l-391 -373h-230z" />
    <glyph glyph-name="thorn" unicode="&#xfe;" 
d="M525 927q74 209 315 209q123 0 201 -95t78 -257v-389q0 -188 -113.5 -297t-307.5 -109q-127 0 -225 43v-404h-359v1861h359v-562h52zM760 397v322q0 76 -31 112.5t-79 36.5q-87 0 -177 -92v-489q84 -49 152 -49t101.5 36.5t33.5 122.5z" />
    <glyph glyph-name="ydieresis" unicode="&#xff;" 
d="M354 -393q-93 0 -280 21l15 251q148 -26 241 -27t145 44t82 171h-239l-268 1050h363l201 -828l216 828h350l-309 -1098q-65 -222 -182 -317t-335 -95zM1015 1426q0 -138 -173 -138t-174 138v26q0 144 173 144t174 -144v-26zM564 1426q0 -138 -173 -138t-173 138v26
q0 144 173 144t173 -144v-26z" />
    <glyph glyph-name="Amacron" unicode="&#x100;" 
d="M868 0l-67 344h-373l-76 -344h-322l365 1489h445l365 -1489h-337zM747 613l-121 614l-136 -614h257zM227 1728v268h778v-268h-778z" />
    <glyph glyph-name="amacron" unicode="&#x101;" 
d="M394 -19q-132 -1 -222 89t-90 242t101 232q101 82 281 82h229v135q-1 77 -37 105t-106 28t-104 -33t-49 -124l-289 47q38 194 140 273t328 79t341 -90q116 -90 116 -279v-419q0 -74 39 -92t110 -7v-242q-286 -69 -357 155h-54q-53 -74 -149 -128t-228 -53zM404 315
q0 -116 104 -116q92 0 185 58v188h-194q-51 0 -73 -26t-22 -104zM194 1355v269h778v-269h-778z" />
    <glyph glyph-name="Abreve" unicode="&#x102;" 
d="M868 0l-67 344h-373l-76 -344h-322l365 1489h445l365 -1489h-337zM747 613l-121 614l-136 -614h257zM616 1663q-234 0 -348 109t-115 332h285q2 -128 40 -178q39 -49 138 -49t138 49t41 178h285q-2 -223 -116 -332t-348 -109z" />
    <glyph glyph-name="abreve" unicode="&#x103;" 
d="M394 -19q-132 -1 -222 89t-90 242t101 232q101 82 281 82h229v135q-1 77 -37 105t-106 28t-104 -33t-49 -124l-289 47q38 194 140 273t328 79t341 -90q116 -90 116 -279v-419q0 -74 39 -92t110 -7v-242q-286 -69 -357 155h-54q-53 -74 -149 -128t-228 -53zM404 315
q0 -116 104 -116q92 0 185 58v188h-194q-51 0 -73 -26t-22 -104zM583 1290q-233 0 -347 109t-117 332h285q2 -128 41 -177q39 -50 138 -50t138 50t40 177h285q-2 -223 -116 -332t-347 -109z" />
    <glyph glyph-name="Aogonek" unicode="&#x104;" 
d="M747 613l-121 614l-136 -614h257zM765 -180q0 116 86 201q5 5 10 11l-60 312h-373l-76 -344h-322l365 1489h445l365 -1489h-161q-31 -36 -31 -93t30 -81t94 -23q64 0 168 18v-212q-116 -24 -245 -24q-129 -1 -212 59t-83 176z" />
    <glyph glyph-name="aogonek" unicode="&#x105;" 
d="M730 -179q0 149 142 248q-30 37 -47 93h-54q-53 -74 -149 -128t-228 -53q-132 -1 -222 89t-90 242t101 232q101 82 281 82h229v135q-1 77 -37 105t-106 28t-104 -33t-49 -124l-289 47q38 194 140 273t328 79t341 -90q116 -90 116 -279v-419q0 -74 39 -92t110 -7v-242
q-103 -25 -178 -13q-27 -37 -27 -91q0 -53 30 -77q31 -24 95 -23q64 0 168 18v-212q-126 -26 -226 -24q-150 -1 -232 59t-82 177zM404 315q0 -116 104 -116q92 0 185 58v188h-194q-51 0 -73 -26t-22 -104z" />
    <glyph glyph-name="Cacute" unicode="&#x106;" 
d="M99 1007q0 501 543 501q272 0 396 -127t137 -411l-360 -19q-9 177 -44 233t-133 56t-139 -61t-41 -207v-464q0 -140 40 -200t139 -59q99 0 133 54t45 228l360 -19q-11 -281 -137 -406t-398 -125q-541 0 -541 494v532zM441 1676l175 372h447l-391 -372h-231z" />
    <glyph glyph-name="cacute" unicode="&#x107;" 
d="M637 -19q-255 0 -389 111t-134 316v307q0 199 135 310t374 111t354 -107t142 -310l-346 -28q-9 108 -43 150t-114 42t-112 -42t-31 -150v-267q1 -108 33 -150t113 -41q81 -1 114 33t40 123l346 -28q-13 -186 -120 -283t-362 -97zM469 1303l175 373h447l-391 -373h-231z
" />
    <glyph glyph-name="Ccircumflex" unicode="&#x108;" 
d="M298 1650l-110 152l315 294h275l319 -294l-108 -151l-349 198zM99 1007q0 501 543 501q272 0 396 -127t137 -411l-360 -19q-9 177 -44 233t-133 56t-139 -61t-41 -207v-464q0 -140 40 -200t139 -59q99 0 133 54t45 228l360 -19q-11 -281 -137 -406t-398 -125
q-541 0 -541 494v532z" />
    <glyph glyph-name="ccircumflex" unicode="&#x109;" 
d="M281 1277l-110 153l315 294h275l319 -294l-108 -151l-348 197zM637 -19q-255 0 -389 111t-134 316v307q0 199 135 310t374 111t354 -107t142 -310l-346 -28q-9 108 -43 150t-114 42t-112 -42t-31 -150v-267q1 -108 33 -150t113 -41q81 -1 114 33t40 123l346 -28
q-13 -186 -120 -283t-362 -97z" />
    <glyph glyph-name="Cdotaccent" unicode="&#x10a;" 
d="M99 1007q0 501 543 501q272 0 396 -127t137 -411l-360 -19q-9 177 -44 233t-133 56t-139 -61t-41 -207v-464q0 -140 40 -200t139 -59q99 0 133 54t45 228l360 -19q-11 -281 -137 -406t-398 -125q-541 0 -541 494v532zM869 1799q0 -138 -227 -138q-101 1 -164 31t-63 107
v26q0 143 227 143t227 -143v-26z" />
    <glyph glyph-name="cdotaccent" unicode="&#x10b;" 
d="M637 -19q-255 0 -389 111t-134 316v307q0 199 135 310t374 111t354 -107t142 -310l-346 -28q-9 108 -43 150t-114 42t-112 -42t-31 -150v-267q1 -108 33 -150t113 -41q81 -1 114 33t40 123l346 -28q-13 -186 -120 -283t-362 -97zM855 1426q0 -138 -227 -138t-228 138v26
q0 144 227 144t228 -144v-26z" />
    <glyph glyph-name="Ccaron" unicode="&#x10c;" 
d="M506 1683l-318 294l108 151l348 -197l343 199l110 -153l-315 -294h-276zM99 1007q0 501 543 501q272 0 396 -127t137 -411l-360 -19q-9 177 -44 233t-133 56t-139 -61t-41 -207v-464q0 -140 40 -200t139 -59q99 0 133 54t45 228l360 -19q-11 -281 -137 -406t-398 -125
q-541 0 -541 494v532z" />
    <glyph glyph-name="ccaron" unicode="&#x10d;" 
d="M492 1311l-319 294l108 151l348 -198l343 200l110 -153l-315 -294h-275zM637 -19q-255 0 -389 111t-134 316v307q0 199 135 310t374 111t354 -107t142 -310l-346 -28q-9 108 -43 150t-114 42t-112 -42t-31 -150v-267q1 -108 33 -150t113 -41q81 -1 114 33t40 123l346 -28
q-13 -186 -120 -283t-362 -97z" />
    <glyph glyph-name="Dcaron" unicode="&#x10e;" 
d="M480 1683l-318 294l108 151l348 -197l343 199l110 -153l-315 -294h-276zM454 268h131q108 0 149 63t41 237v346q0 179 -41 243t-149 64h-131v-953zM95 0v1489h529q240 0 375 -148t135 -393v-414q0 -244 -136 -389t-376 -145h-527z" />
    <glyph glyph-name="dcaron" unicode="&#x10f;" 
d="M1208 1313l82 549h440l-322 -549h-200zM536 1128q124 0 224 -43v404h359v-1489h-359v190h-53q-35 -95 -110 -152t-187 -57q-147 0 -222 107q-74 107 -74 258v376q0 190 112 298q113 108 310 108zM473 411q0 -160 112 -160q85 0 175 90v489q-83 51 -153 51
q-136 0 -134 -160v-310z" />
    <glyph glyph-name="Dcroat" unicode="&#x110;" 
d="M454 268h131q108 0 149 63.5t41 236.5v346q0 179 -41 243t-149 64h-131v-292h162v-218h-162v-443zM95 0v711h-89v218h89v560h529q240 0 375 -148t135 -393v-414q0 -244 -136 -389t-376 -145h-527z" />
    <glyph glyph-name="dcroat" unicode="&#x111;" 
d="M523 1002q128 0 237 -49v170h-267v182h267v184h359v-184h171v-182h-171v-1123h-359v190h-53q-30 -86 -106 -147.5t-209 -61.5t-205.5 104.5t-72.5 260.5v250q0 190 108.5 298t300.5 108zM473 594v-184q0 -80 30 -119.5t82 -39.5q81 0 175 90v366q-88 47 -166 47
q-121 0 -121 -160z" />
    <glyph glyph-name="Emacron" unicode="&#x112;" 
d="M95 0v1489h1039v-268h-680v-294h594v-268h-594v-391h680v-268h-1039zM242 1728v268h778v-268h-778z" />
    <glyph glyph-name="emacron" unicode="&#x113;" 
d="M473 758v-88h287v77q0 97 -29 135t-115 38t-114 -36t-29 -126zM473 372q0 -166 157 -166q83 0 133 27q50 26 84 108l292 -78q-61 -157 -173 -219t-336 -62t-370 106t-146 309v327q0 192 134 302t370 110t368 -112t133 -311v-225h-646v-116zM236 1355v269h779v-269h-779z
" />
    <glyph glyph-name="Ebreve" unicode="&#x114;" 
d="M95 0v1489h1039v-268h-680v-294h594v-268h-594v-391h680v-268h-1039zM631 1663q-233 0 -347 109t-116 332h284q2 -128 41 -178t138 -49q99 0 138 49t41 178h285q-3 -223 -117 -332t-347 -109z" />
    <glyph glyph-name="ebreve" unicode="&#x115;" 
d="M473 758v-88h287v77q0 97 -29 135t-115 38t-114 -36t-29 -126zM473 372q0 -166 157 -166q83 0 133 27q50 26 84 108l292 -78q-61 -157 -173 -219t-336 -62t-370 106t-146 309v327q0 192 134 302t370 110t368 -112t133 -311v-225h-646v-116zM607 1290q-233 0 -347 109
t-117 332h285q2 -128 41 -177q39 -50 138 -50t138 50t41 177h285q-3 -223 -117 -332t-347 -109z" />
    <glyph glyph-name="Edotaccent" unicode="&#x116;" 
d="M858 1799q0 -138 -227 -138q-101 1 -164 31t-63 107v26q0 143 227 143t227 -143v-26zM95 0v1489h1039v-268h-680v-294h594v-268h-594v-391h680v-268h-1039z" />
    <glyph glyph-name="edotaccent" unicode="&#x117;" 
d="M853 1426q0 -138 -227 -138t-228 138v26q0 144 227 144t228 -144v-26zM473 758v-88h287v77q0 97 -29 135t-115 38t-114 -36t-29 -126zM473 372q0 -166 157 -166q83 0 133 27q50 26 84 108l292 -78q-61 -157 -173 -219t-336 -62t-370 106t-146 309v327q0 192 134 302
t370 110t368 -112t133 -311v-225h-646v-116z" />
    <glyph glyph-name="Eogonek" unicode="&#x118;" 
d="M887 -415q-129 -1 -212 59t-83 169t66 187h-563v1489h1039v-268h-680v-294h594v-268h-594v-391h680v-268h-263q-31 -36 -31 -93t29 -81q31 -23 95 -23t168 18v-212q-116 -24 -245 -24z" />
    <glyph glyph-name="eogonek" unicode="&#x119;" 
d="M473 372q0 -166 157 -166q83 0 133 27q50 26 84 108l292 -78q-61 -158 -173 -220q-56 -31 -141 -46q-28 -34 -28 -90q0 -57 30 -81t94 -23q64 0 168 18v-212q-116 -24 -245 -24q-129 -1 -212 59t-83 164t52 174q-203 6 -345 109t-142 306v327q0 192 134 302t370 110
t368 -112t133 -311v-225h-646v-116zM473 758v-88h287v77q0 97 -29 135t-115 38t-114 -36t-29 -126z" />
    <glyph glyph-name="Ecaron" unicode="&#x11a;" 
d="M493 1683l-318 294l108 151l348 -197l343 199l110 -153l-315 -294h-276zM95 0v1489h1039v-268h-680v-294h594v-268h-594v-391h680v-268h-1039z" />
    <glyph glyph-name="ecaron" unicode="&#x11b;" 
d="M490 1311l-319 294l108 151l348 -198l343 200l110 -153l-315 -294h-275zM473 758v-88h287v77q0 97 -29 135t-115 38t-114 -36t-29 -126zM473 372q0 -166 157 -166q83 0 133 27q50 26 84 108l292 -78q-61 -157 -173 -219t-336 -62t-370 106t-146 309v327q0 192 134 302
t370 110t368 -112t133 -311v-225h-646v-116z" />
    <glyph glyph-name="Gcircumflex" unicode="&#x11c;" 
d="M268 1650l-110 152l315 294h275l319 -294l-108 -151l-348 198zM1134 495q0 -249 -134 -381t-382 -133q-248 0 -384 134q-135 134 -135 378v499q0 246 134 381t386 135q492 0 515 -467l-359 -19q-9 126 -42 172t-121 46t-120 -66q-34 -66 -34 -215v-432q0 -147 32 -212
t126 -65t128 64q33 64 31 205h-155v269h514v-293z" />
    <glyph glyph-name="gcircumflex" unicode="&#x11d;" 
d="M292 1277l-110 153l315 294h276l318 -294l-108 -151l-348 197zM497 -192h261q54 0 88 18t35 81t-35 81t-88 18h-354v-90q0 -52 20 -80t73 -28zM473 717q0 -57 26 -89t92 -32t93 32t27 89v89q0 52 -28 84t-91 32t-91 -32t-28 -84v-89zM488 430q-125 0 -125 -89t121 -92
h291q181 0 287 -74t105 -227q0 -153 -108 -246t-294 -93h-290q-210 0 -309 75t-99 178q0 104 56 160t132 66v37q-63 20 -107 63q-44 42 -44 138t71 160t166 78v37q-89 24 -140 79q-50 55 -50 135v10q0 141 118 217t291 75h611v-201l-281 34v-36q61 -19 103 -71t42 -117v-11
q0 -136 -120 -210t-293 -75h-134z" />
    <glyph glyph-name="Gbreve" unicode="&#x11e;" 
d="M613 1663q-233 0 -348 109t-116 332h285q2 -128 41 -178t138 -49q99 0 137 49t41 178h285q-2 -223 -116 -332t-347 -109zM1134 495q0 -249 -134 -381t-382 -133q-248 0 -384 134q-135 134 -135 378v499q0 246 134 381t386 135q492 0 515 -467l-359 -19q-9 126 -42 172
t-121 46t-120 -66q-34 -66 -34 -215v-432q0 -147 32 -212t126 -65t128 64q33 64 31 205h-155v269h514v-293z" />
    <glyph glyph-name="gbreve" unicode="&#x11f;" 
d="M616 1290q-234 0 -348 109t-115 332h285q2 -128 40 -177q38 -50 138 -50q99 0 138 50t41 177h285q-2 -223 -116 -332t-348 -109zM497 -192h261q54 0 88 18t35 81t-35 81t-88 18h-354v-90q0 -52 20 -80t73 -28zM473 717q0 -57 26 -89t92 -32t93 32t27 89v89q0 52 -28 84
t-91 32t-91 -32t-28 -84v-89zM488 430q-125 0 -125 -89t121 -92h291q181 0 287 -74t105 -227q0 -153 -108 -246t-294 -93h-290q-210 0 -309 75t-99 178q0 104 56 160t132 66v37q-63 20 -107 63q-44 42 -44 138t71 160t166 78v37q-89 24 -140 79q-50 55 -50 135v10
q0 141 118 217t291 75h611v-201l-281 34v-36q61 -19 103 -71t42 -117v-11q0 -136 -120 -210t-293 -75h-134z" />
    <glyph glyph-name="Gdotaccent" unicode="&#x120;" 
d="M860 1799q0 -138 -227 -138q-101 1 -164 31t-63 107v26q0 143 227 143t227 -143v-26zM1134 495q0 -249 -134 -381t-382 -133q-248 0 -384 134q-135 134 -135 378v499q0 246 134 381t386 135q492 0 515 -467l-359 -19q-9 126 -42 172t-121 46t-120 -66q-34 -66 -34 -215
v-432q0 -147 32 -212t126 -65t128 64q33 64 31 205h-155v269h514v-293z" />
    <glyph glyph-name="gdotaccent" unicode="&#x121;" 
d="M843 1426q0 -138 -227 -138t-227 138v26q0 144 227 144t227 -144v-26zM497 -192h261q54 0 88 18t35 81t-35 81t-88 18h-354v-90q0 -52 20 -80t73 -28zM473 717q0 -57 26 -89t92 -32t93 32t27 89v89q0 52 -28 84t-91 32t-91 -32t-28 -84v-89zM488 430q-125 0 -125 -89
t121 -92h291q181 0 287 -74t105 -227q0 -153 -108 -246t-294 -93h-290q-210 0 -309 75t-99 178q0 104 56 160t132 66v37q-63 20 -107 63q-44 42 -44 138t71 160t166 78v37q-89 24 -140 79q-50 55 -50 135v10q0 141 118 217t291 75h611v-201l-281 34v-36q61 -19 103 -71
t42 -117v-11q0 -136 -120 -210t-293 -75h-134z" />
    <glyph glyph-name="Gcommaaccent" unicode="&#x122;" 
d="M330 -559l106 373h445l-321 -373h-230zM1134 495q0 -249 -134 -381t-382 -133q-248 0 -384 134q-135 134 -135 378v499q0 246 134 381t386 135q492 0 515 -467l-359 -19q-9 126 -42 172t-121 46t-120 -66q-34 -66 -34 -215v-432q0 -147 32 -212t126 -65t128 64
q33 64 31 205h-155v269h514v-293z" />
    <glyph glyph-name="gcommaaccent" unicode="&#x123;" 
d="M497 -192h261q54 0 88 18t35 81t-35 81t-88 18h-354v-90q0 -52 20 -80t73 -28zM473 717q0 -57 26 -89t92 -32t93 32t27 89v89q0 52 -28 84t-91 32t-91 -32t-28 -84v-89zM488 430q-125 0 -125 -89t121 -92h291q181 0 287 -74t105 -227q0 -153 -108 -246t-294 -93h-290
q-210 0 -309 75t-99 178q0 104 56 160t132 66v37q-63 20 -107 63q-44 42 -44 138t71 160t166 78v37q-89 24 -140 79q-50 55 -50 135v10q0 141 118 217t291 75h611v-201l-281 34v-36q61 -19 103 -71t42 -117v-11q0 -136 -120 -210t-293 -75h-134zM382 1303l320 373h233
l-108 -373h-445z" />
    <glyph glyph-name="Hcircumflex" unicode="&#x124;" 
d="M95 0v1489h359v-528h324v528h360v-1489h-360v693h-324v-693h-359zM272 1650l-110 152l315 294h275l319 -294l-108 -151l-349 198z" />
    <glyph glyph-name="hcircumflex" unicode="&#x125;" 
d="M663 868q-101 0 -190 -144v-724h-359v1489h359v-562h52q39 99 120 154t200 55t197 -90t77 -240v-806h-359v719q0 71 -26 110t-71 39zM-50 1650l-110 152l315 294h275l318 -294l-108 -151l-348 198z" />
    <glyph glyph-name="Hbar" unicode="&#x126;" 
d="M467 516v-516h-359v1026h-123v218h123v245h359v-245h298v245h361v-245h121v-218h-121v-1026h-361v516h-298zM467 784h298v242h-298v-242z" />
    <glyph glyph-name="hbar" unicode="&#x127;" 
d="M667 741q-97 0 -194 -153v-588h-359v1123h-172v182h172v184h359v-184h266v-182h-266v-322h52q39 99 120 153.5t198 54.5t196.5 -89.5t79.5 -234.5v-685h-359v588q0 74 -24.5 113.5t-68.5 39.5z" />
    <glyph glyph-name="Itilde" unicode="&#x128;" 
d="M95 0v268h341v953h-341v268h1043v-268h-341v-953h341v-268h-1043zM475 1873q-73 0 -71 -132v-28h-227v28q0 155 75 257t204 102q120 0 198 -88q32 -36 54 -64q23 -28 53 -28t51 26q20 26 18 106v28h228v-28q0 -156 -74 -257t-204 -101t-199 90q-28 34 -51 62t-55 27z" />
    <glyph glyph-name="itilde.salt_serifs" unicode="&#xe029;" 
d="M797 251h300v-251h-661v866h-300v251h661v-866zM767 1547q71 0 69 132v28h227v-28q0 -156 -73 -257q-74 -100 -203 -100t-201 89q-28 34 -51 62t-55 28q-73 0 -70 -133v-27h-228v27q0 156 76 258t204 102q122 0 198 -88q32 -36 54 -65q23 -28 53 -28z" />
    <glyph glyph-name="itilde.salt_serifs" unicode="&#x129;" 
d="M797 251h300v-251h-661v866h-300v251h661v-866zM767 1547q71 0 69 132v28h227v-28q0 -156 -73 -257q-74 -100 -203 -100t-201 89q-28 34 -51 62t-55 28q-73 0 -70 -133v-27h-228v27q0 156 76 258t204 102q122 0 198 -88q32 -36 54 -65q23 -28 53 -28z" />
    <glyph glyph-name="Imacron" unicode="&#x12a;" 
d="M95 0v268h341v953h-341v268h1043v-268h-341v-953h341v-268h-1043zM227 1728v268h778v-268h-778z" />
    <glyph glyph-name="imacron.salt_serifs" unicode="&#xe02a;" 
d="M797 251h300v-251h-661v866h-300v251h661v-866zM233 1355v269h778v-269h-778z" />
    <glyph glyph-name="imacron.salt_serifs" unicode="&#x12b;" 
d="M797 251h300v-251h-661v866h-300v251h661v-866zM233 1355v269h778v-269h-778z" />
    <glyph glyph-name="Ibreve" unicode="&#x12c;" 
d="M95 0v268h341v953h-341v268h1043v-268h-341v-953h341v-268h-1043zM616 1663q-234 0 -348 109t-115 332h285q2 -128 40 -178q39 -49 138 -49t138 49t41 178h285q-2 -223 -116 -332t-348 -109z" />
    <glyph glyph-name="ibreve.salt_serifs" unicode="&#xe02b;" 
d="M797 251h300v-251h-661v866h-300v251h661v-866zM622 1290q-234 0 -348 109t-116 332h285q2 -128 41 -177q39 -50 138 -50t138 50t41 177h284q-2 -223 -116 -332t-347 -109z" />
    <glyph glyph-name="ibreve.salt_serifs" unicode="&#x12d;" 
d="M797 251h300v-251h-661v866h-300v251h661v-866zM622 1290q-234 0 -348 109t-116 332h285q2 -128 41 -177q39 -50 138 -50t138 50t41 177h284q-2 -223 -116 -332t-347 -109z" />
    <glyph glyph-name="Iogonek" unicode="&#x12e;" 
d="M465 -187q0 109 66 187h-436v268h341v953h-341v268h1043v-268h-341v-953h341v-268h-394q-31 -36 -31 -93t30 -81t94 -23q64 0 168 18v-212q-126 -26 -225 -24q-149 -1 -232 59t-83 169z" />
    <glyph glyph-name="iogonek.salt_serifs" unicode="&#xe02c;" 
d="M648 -415q-130 -1 -212 59t-82 175t82 199v848h-300v251h661v-866h300v-251h-464q-32 -37 -32 -94q0 -56 30 -80q31 -24 95 -23q64 0 168 18v-212q-117 -24 -246 -24zM843 1426q0 -138 -227 -138t-227 138v26q0 144 227 144t227 -144v-26z" />
    <glyph glyph-name="iogonek.salt_serifs" unicode="&#x12f;" 
d="M648 -415q-130 -1 -212 59t-82 175t82 199v848h-300v251h661v-866h300v-251h-464q-32 -37 -32 -94q0 -56 30 -80q31 -24 95 -23q64 0 168 18v-212q-117 -24 -246 -24zM843 1426q0 -138 -227 -138t-227 138v26q0 144 227 144t227 -144v-26z" />
    <glyph glyph-name="Idotaccent" unicode="&#x130;" 
d="M95 0v268h341v953h-341v268h1043v-268h-341v-953h341v-268h-1043zM843 1799q0 -138 -227 -138q-101 1 -164 31t-63 107v26q0 143 227 143t227 -143v-26z" />
    <glyph glyph-name="dotlessi.salt_serifs" unicode="&#xe024;" 
d="M797 251h300v-251h-661v866h-300v251h661v-866z" />
    <glyph glyph-name="dotlessi.salt_serifs" unicode="&#x131;" 
d="M797 251h300v-251h-661v866h-300v251h661v-866z" />
    <glyph glyph-name="IJ" unicode="&#x132;" 
d="M816 -19q-173 0 -262.5 119.5t-88.5 394.5l267 21q-2 -184 13 -242t61 -58t62 43t16 151v845h-210v234h475v-1092q0 -194 -80 -305t-253 -111zM348 0h-264v1489h264v-1489z" />
    <glyph glyph-name="ij.salt_serifs" unicode="&#xe02d;" 
d="M801 26v840h-220v251h542v-1121q0 -188 -122 -288t-295 -99q-173 0 -291 43l36 229q96 -34 188 -36q162 0 162 181zM439 0h-322v1117h322v-1117zM1152 1426q0 -138 -208 -138t-207 138v26q0 144 208 144t207 -144v-26zM467 1426q1 -138 -207 -138t-208 138v26
q0 144 208 144t207 -144v-26z" />
    <glyph glyph-name="ij.salt_serifs" unicode="&#x133;" 
d="M801 26v840h-220v251h542v-1121q0 -188 -122 -288t-295 -99q-173 0 -291 43l36 229q96 -34 188 -36q162 0 162 181zM439 0h-322v1117h322v-1117zM1152 1426q0 -138 -208 -138t-207 138v26q0 144 208 144t207 -144v-26zM467 1426q1 -138 -207 -138t-208 138v26
q0 144 208 144t207 -144v-26z" />
    <glyph glyph-name="Jcircumflex" unicode="&#x134;" 
d="M369 1650l-110 152l314 294h276l318 -294l-108 -151l-348 198zM1100 478q0 -233 -120 -365t-389 -132q-270 0 -392 127q-121 127 -134 421l359 20q14 -184 48 -242t115 -58q81 -1 117 51t37 186v735h-398v268h757v-1011z" />
    <glyph glyph-name="jcircumflex" unicode="&#x135;" 
d="M358 -155q116 0 174 42q57 42 56 139v840h-419v251h779v-1121q0 -179 -142 -283t-366 -104q-225 0 -343 43l33 229q112 -36 228 -36zM363 1277l-110 153l315 294h275l319 -294l-108 -151l-348 197z" />
    <glyph glyph-name="Kcommaaccent" unicode="&#x136;" 
d="M454 633v-633h-359v1489h359v-588h69l304 588h366l-409 -687l404 -802h-359l-300 633h-75zM376 -559l106 373h445l-320 -373h-231z" />
    <glyph glyph-name="kcommaaccent" unicode="&#x137;" 
d="M484 462v-462h-361v1489h361v-795h60l255 423h365l-322 -504l316 -613h-380l-234 462h-60zM376 -559l106 373h445l-320 -373h-231z" />
    <glyph glyph-name="kgreenlandic" unicode="&#x138;" 
d="M484 462v-462h-361v1117h361v-423h60l255 423h365l-322 -504l316 -613h-380l-234 462h-60z" />
    <glyph glyph-name="Lacute" unicode="&#x139;" 
d="M175 1676l175 372h447l-391 -372h-231zM181 0v1489h359v-1221h598v-268h-957z" />
    <glyph glyph-name="lacute.salt_serifs_round" unicode="&#xe057;" 
d="M195 1676l176 372h446l-391 -372h-231zM398 371v867h-262v251h624v-1053q0 -95 42 -140t114 -45t164 38l52 -246q-155 -58 -287 -58q-203 0 -325 108t-122 278z" />
    <glyph glyph-name="lacute.salt_serifs_round" unicode="&#x13a;" 
d="M195 1676l176 372h446l-391 -372h-231zM398 371v867h-262v251h624v-1053q0 -95 42 -140t114 -45t164 38l52 -246q-155 -58 -287 -58q-203 0 -325 108t-122 278z" />
    <glyph glyph-name="Lcommaaccent" unicode="&#x13b;" 
d="M181 0v1489h359v-1221h598v-268h-957zM413 -559l106 373h445l-320 -373h-231z" />
    <glyph glyph-name="lcommaaccent.salt_serifs_round" unicode="&#xe058;" 
d="M398 371v867h-262v251h624v-1053q0 -95 42 -140t114 -45t164 38l52 -246q-155 -58 -287 -58q-203 0 -325 108t-122 278zM391 -559l106 373h445l-320 -373h-231z" />
    <glyph glyph-name="lcommaaccent.salt_serifs_round" unicode="&#x13c;" 
d="M398 371v867h-262v251h624v-1053q0 -95 42 -140t114 -45t164 38l52 -246q-155 -58 -287 -58q-203 0 -325 108t-122 278zM391 -559l106 373h445l-320 -373h-231z" />
    <glyph glyph-name="Lcaron" unicode="&#x13d;" 
d="M696 940l82 549h440l-322 -549h-200zM181 0v1489h359v-1221h598v-268h-957z" />
    <glyph glyph-name="lcaron.salt_serifs_round" unicode="&#xe059;" 
d="M955 1313l82 549h439l-322 -549h-199zM398 371v867h-262v251h624v-1053q0 -95 42 -140t114 -45t164 38l52 -246q-155 -58 -287 -58q-203 0 -325 108t-122 278z" />
    <glyph glyph-name="lcaron.salt_serifs_round" unicode="&#x13e;" 
d="M955 1313l82 549h439l-322 -549h-199zM398 371v867h-262v251h624v-1053q0 -95 42 -140t114 -45t164 38l52 -246q-155 -58 -287 -58q-203 0 -325 108t-122 278z" />
    <glyph glyph-name="Ldot" unicode="&#x13f;" 
d="M1253 851q0 -138 -227 -138t-227 138v26q0 145 227 144t227 -144v-26zM181 0v1489h359v-1221h598v-268h-957z" />
    <glyph glyph-name="ldot.salt_serifs_round" unicode="&#xe05a;" 
d="M1462 748q0 -137 -227 -137t-228 137v27q0 143 227 143t228 -143v-27zM398 371v867h-262v251h624v-1053q0 -95 42 -140t114 -45t164 38l52 -246q-155 -58 -287 -58q-203 0 -325 108t-122 278z" />
    <glyph glyph-name="ldot.salt_serifs_round" unicode="&#x140;" 
d="M1462 748q0 -137 -227 -137t-228 137v27q0 143 227 143t228 -143v-27zM398 371v867h-262v251h624v-1053q0 -95 42 -140t114 -45t164 38l52 -246q-155 -58 -287 -58q-203 0 -325 108t-122 278z" />
    <glyph glyph-name="Lslash" unicode="&#x141;" 
d="M181 0v603l-114 -39v216l114 39v670h359v-547l389 132v-216l-389 -132v-458h598v-268h-957z" />
    <glyph glyph-name="lslash.salt_serifs_round" unicode="&#xe05b;" 
d="M398 371v212l-199 -56v216l199 56v439h-262v251h624v-588l217 63v-216l-217 -63v-249q0 -95 41.5 -140t114.5 -45t164 38l52 -246q-155 -58 -287 -58q-203 0 -325 108t-122 278z" />
    <glyph glyph-name="lslash.salt_serifs_round" unicode="&#x142;" 
d="M398 371v212l-199 -56v216l199 56v439h-262v251h624v-588l217 63v-216l-217 -63v-249q0 -95 41.5 -140t114.5 -45t164 38l52 -246q-155 -58 -287 -58q-203 0 -325 108t-122 278z" />
    <glyph glyph-name="Nacute" unicode="&#x143;" 
d="M438 1676l175 372h446l-391 -372h-230zM400 0h-305v1489h385l352 -1055v1055h306v-1489h-414l-324 996v-996z" />
    <glyph glyph-name="nacute" unicode="&#x144;" 
d="M419 1303l175 373h447l-391 -373h-231zM114 0v1117h359v-190h52q39 99 124 154t205 55t192 -87q73 -87 73 -243v-806h-359v745q0 59 -26 91t-74 32t-100 -31t-87 -89v-748h-359z" />
    <glyph glyph-name="Ncommaaccent" unicode="&#x145;" 
d="M335 -559l106 373h445l-320 -373h-231zM400 0h-305v1489h385l352 -1055v1055h306v-1489h-414l-324 996v-996z" />
    <glyph glyph-name="ncommaaccent" unicode="&#x146;" 
d="M331 -559l107 373h445l-321 -373h-231zM114 0v1117h359v-190h52q39 99 124 154t205 55t192 -87q73 -87 73 -243v-806h-359v745q0 59 -26 91t-74 32t-100 -31t-87 -89v-748h-359z" />
    <glyph glyph-name="Ncaron" unicode="&#x147;" 
d="M477 1683l-319 294l108 151l348 -197l343 199l110 -153l-315 -294h-275zM400 0h-305v1489h385l352 -1055v1055h306v-1489h-414l-324 996v-996z" />
    <glyph glyph-name="ncaron" unicode="&#x148;" 
d="M516 1311l-319 294l108 151l348 -198l343 200l110 -153l-315 -294h-275zM114 0v1117h359v-190h52q39 99 124 154t205 55t192 -87q73 -87 73 -243v-806h-359v745q0 59 -26 91t-74 32t-100 -31t-87 -89v-748h-359z" />
    <glyph glyph-name="napostrophe" unicode="&#x149;" 
d="M-43 1303l175 373h447l-391 -373h-231zM114 0v1117h359v-190h52q39 99 124 154t205 55t192 -87q73 -87 73 -243v-806h-359v745q0 59 -26 91t-74 32t-100 -31t-87 -89v-748h-359z" />
    <glyph glyph-name="Eng" unicode="&#x14a;" 
d="M506 1262q96 246 338 246q118 0 206 -92t88 -271v-1152q0 -194 -127.5 -289t-306.5 -95q-103 0 -231 45l35 229q92 -38 147 -38q123 0 123 179v1024q0 93 -28.5 142.5t-81 49.5t-101.5 -47.5t-113 -142.5v-1050h-359v1489h359v-227h52z" />
    <glyph glyph-name="eng" unicode="&#x14b;" 
d="M650 -155q110 0 110 181v719q0 58 -26.5 90.5t-73.5 32.5t-99.5 -31t-87.5 -89v-748h-359v1117h359v-190h52q43 106 132.5 157.5t201.5 51.5t186 -84t74 -246v-810q0 -205 -129.5 -296t-291.5 -91q-107 0 -236 43l35 229q108 -36 153 -36z" />
    <glyph glyph-name="Omacron" unicode="&#x14c;" 
d="M227 1728v268h778v-268h-778zM458 499q0 -141 36 -195t123 -55q87 0 122 54t36 196v484q1 143 -35 200t-123 57t-123 -57t-36 -200v-484zM616 -19q-253 1 -385 129t-132 355v552q0 229 133 360t385 131q253 0 385 -131t132 -360v-552q0 -227 -132 -355t-386 -129z" />
    <glyph glyph-name="omacron" unicode="&#x14d;" 
d="M227 1355v269h778v-269h-778zM475 417q-1 -99 33 -141t109 -43q75 0 109 41t34 134v296q0 95 -34 138q-34 42 -109 42t-109 -42t-33 -136v-289zM1119 384q0 -188 -134 -296t-368 -107q-235 0 -369 109t-134 301v328q0 193 135 305t369 112t368 -114q133 -114 133 -313
v-325z" />
    <glyph glyph-name="Obreve" unicode="&#x14e;" 
d="M616 1663q-234 0 -348 109t-115 332h285q2 -128 40 -178q39 -49 138 -49t138 49t41 178h285q-2 -223 -116 -332t-348 -109zM458 499q0 -141 36 -195t123 -55q87 0 122 54t36 196v484q1 143 -35 200t-123 57t-123 -57t-36 -200v-484zM616 -19q-253 1 -385 129t-132 355
v552q0 229 133 360t385 131q253 0 385 -131t132 -360v-552q0 -227 -132 -355t-386 -129z" />
    <glyph glyph-name="obreve" unicode="&#x14f;" 
d="M635 1290q-233 0 -347 109t-117 332h285q2 -128 41 -177q39 -50 138 -50t138 50t41 177h284q-2 -223 -116 -332t-347 -109zM475 417q-1 -99 33 -141t109 -43q75 0 109 41t34 134v296q0 95 -34 138q-34 42 -109 42t-109 -42t-33 -136v-289zM1119 384q0 -188 -134 -296
t-368 -107q-235 0 -369 109t-134 301v328q0 193 135 305t369 112t368 -114q133 -114 133 -313v-325z" />
    <glyph glyph-name="Ohungarumlaut" unicode="&#x150;" 
d="M320 1676l77 372h335l-233 -372h-179zM713 1676l76 372h336l-233 -372h-179zM458 499q0 -141 36 -195t123 -55q87 0 122 54t36 196v484q1 143 -35 200t-123 57t-123 -57t-36 -200v-484zM616 -19q-253 1 -385 129t-132 355v552q0 229 133 360t385 131q253 0 385 -131
t132 -360v-552q0 -227 -132 -355t-386 -129z" />
    <glyph glyph-name="ohungarumlaut" unicode="&#x151;" 
d="M300 1303l76 373h335l-233 -373h-178zM693 1303l76 373h335l-233 -373h-178zM475 417q-1 -99 33 -141t109 -43q75 0 109 41t34 134v296q0 95 -34 138q-34 42 -109 42t-109 -42t-33 -136v-289zM1119 384q0 -188 -134 -296t-368 -107q-235 0 -369 109t-134 301v328
q0 193 135 305t369 112t368 -114q133 -114 133 -313v-325z" />
    <glyph glyph-name="OE" unicode="&#x152;" 
d="M531 266h46v957h-46q-93 0 -123 -64t-30 -215v-391q0 -151 30 -219t123 -68zM497 0q-199 0 -311 144.5t-112 384.5v437q0 238 113 380.5t312 142.5h678v-249h-294v-313h199v-249h-199v-429h294v-249h-680z" />
    <glyph glyph-name="oe" unicode="&#x153;" 
d="M478 778q0 108 -43.5 108t-54.5 -28.5t-11 -84.5v-423q0 -63 11 -91t42.5 -28t43.5 28t12 91v428zM752 819v-151h112v140q0 58 -11 82t-45 24t-45 -21.5t-11 -73.5zM752 300q0 -95 75 -95q39 0 70.5 21.5t38.5 97.5l229 -45q-30 -169 -109 -233.5t-205 -64.5
q-169 0 -250 125q-69 -125 -206 -125q-136 0 -223.5 87t-87.5 269v436q0 184 88.5 273.5t223.5 89.5t205 -125q81 125 246 125q128 0 215 -88.5t87 -272.5v-287h-397v-188z" />
    <glyph glyph-name="Racute" unicode="&#x154;" 
d="M417 1676l175 372h447l-391 -372h-231zM1110 948q0 -304 -227 -388l281 -560h-375l-260 527h-75v-527h-359v1489h572q225 0 334 -105t109 -304v-132zM454 795h153q89 0 126 33q36 33 36 127v106q0 93 -36 127t-126 33h-153v-426z" />
    <glyph glyph-name="racute" unicode="&#x155;" 
d="M424 1303l176 373h446l-391 -373h-231zM503 0h-362v1117h362v-203h50q70 222 316 222q135 0 201 -83t66 -234v-205h-322v103q0 74 -24 112t-92 39q-134 0 -195 -136v-732z" />
    <glyph glyph-name="Rcommaaccent" unicode="&#x156;" 
d="M1110 948q0 -304 -227 -388l281 -560h-375l-260 527h-75v-527h-359v1489h572q225 0 334 -105t109 -304v-132zM454 795h153q89 0 126 33q36 33 36 127v106q0 93 -36 127t-126 33h-153v-426zM287 -559l106 373h445l-320 -373h-231z" />
    <glyph glyph-name="rcommaaccent" unicode="&#x157;" 
d="M503 0h-362v1117h362v-203h50q70 222 316 222q135 0 201 -83t66 -234v-205h-322v103q0 74 -24 112t-92 39q-134 0 -195 -136v-732zM48 -559l107 373h445l-321 -373h-231z" />
    <glyph glyph-name="Rcaron" unicode="&#x158;" 
d="M451 1683l-319 294l108 151l348 -197l343 199l110 -153l-315 -294h-275zM1110 948q0 -304 -227 -388l281 -560h-375l-260 527h-75v-527h-359v1489h572q225 0 334 -105t109 -304v-132zM454 795h153q89 0 126 33q36 33 36 127v106q0 93 -36 127t-126 33h-153v-426z" />
    <glyph glyph-name="rcaron" unicode="&#x159;" 
d="M521 1311l-318 294l108 151l348 -198l343 200l110 -153l-315 -294h-276zM503 0h-362v1117h362v-203h50q70 222 316 222q135 0 201 -83t66 -234v-205h-322v103q0 74 -24 112t-92 39q-134 0 -195 -136v-732z" />
    <glyph glyph-name="Sacute" unicode="&#x15a;" 
d="M475 1089q0 -73 50 -113t201 -82q227 -68 321 -172t94 -302t-145 -318t-414 -121q-269 0 -498 144l72 268q231 -143 425 -143q117 0 159 43q42 45 42 123t-57 112t-194 75q-227 63 -321 165t-95 288q0 186 127 318t382 132q123 0 245 -42t200 -90l-54 -255
q-214 119 -377 118t-163 -148zM380 1676l175 372h447l-391 -372h-231z" />
    <glyph glyph-name="sacute" unicode="&#x15b;" 
d="M631 914q-130 0 -128 -95q0 -54 51 -78t185 -54q199 -39 287 -115t89 -231q0 -155 -132 -253t-378 -99q-138 0 -270 37t-223 95l76 214q101 -58 216 -92t207 -34q145 0 145 102q0 58 -36 84t-139 48q-220 39 -328 110t-108 229t125 256t349 98t424 -116l-58 -203
q-192 97 -354 97zM400 1303l175 373h447l-391 -373h-231z" />
    <glyph glyph-name="Scircumflex" unicode="&#x15c;" 
d="M268 1650l-110 152l315 294h275l319 -294l-108 -151l-348 198zM475 1089q0 -73 50 -113t201 -82q227 -68 321 -172t94 -302t-145 -318t-414 -121q-269 0 -498 144l72 268q231 -143 425 -143q117 0 159 43q42 45 42 123t-57 112t-194 75q-227 63 -321 165t-95 288
q0 186 127 318t382 132q123 0 245 -42t200 -90l-54 -255q-214 119 -377 118t-163 -148z" />
    <glyph glyph-name="scircumflex" unicode="&#x15d;" 
d="M268 1277l-110 153l315 294h275l319 -294l-108 -151l-348 197zM631 914q-130 0 -128 -95q0 -54 51 -78t185 -54q199 -39 287 -115t89 -231q0 -155 -132 -253t-378 -99q-138 0 -270 37t-223 95l76 214q101 -58 216 -92t207 -34q145 0 145 102q0 58 -36 84t-139 48
q-220 39 -328 110t-108 229t125 256t349 98t424 -116l-58 -203q-192 97 -354 97z" />
    <glyph glyph-name="Scedilla" unicode="&#x15e;" 
d="M635 -108q0 68 -34 89h-11q-276 0 -506 144l72 268q231 -143 425 -143q117 0 159 43q42 45 42 123t-57 112t-194 75q-227 63 -321 165t-95 288q0 186 127 318t382 132q123 0 245 -42t200 -90l-54 -255q-214 119 -377 118t-163 -148q0 -73 50 -113t201 -82
q227 -68 321 -172t94 -302t-145 -319q-67 -56 -160 -85q104 -52 104 -183t-112 -191t-278 -61q-164 0 -272 60q-107 60 -114 188l301 18q4 -35 22 -49t61 -14t65 20t22 88z" />
    <glyph glyph-name="scedilla" unicode="&#x15f;" 
d="M532 -419q-164 0 -272 60q-107 60 -115 188l302 18q3 -35 21 -49t61 -14t65 20t22 76t-12 77t-35 32q-119 4 -243 39t-214 93l76 214q101 -58 216 -92t207 -34q145 0 145 102q0 58 -36 84t-139 48q-220 39 -328 110t-108 229t125 256t349 98t424 -116l-58 -203
q-192 97 -354 97q-130 0 -128 -95q0 -54 51 -78t185 -54q199 -39 287 -115t89 -231q0 -155 -132 -253q-66 -49 -161 -75q99 -49 99 -180q1 -131 -112 -191t-277 -61z" />
    <glyph glyph-name="Scaron" unicode="&#x160;" 
d="M477 1683l-319 294l108 151l348 -197l343 199l110 -153l-315 -294h-275zM475 1089q0 -73 50 -113t201 -82q227 -68 321 -172t94 -302t-145 -318t-414 -121q-269 0 -498 144l72 268q231 -143 425 -143q117 0 159 43q42 45 42 123t-57 112t-194 75q-227 63 -321 165
t-95 288q0 186 127 318t382 132q123 0 245 -42t200 -90l-54 -255q-214 119 -377 118t-163 -148z" />
    <glyph glyph-name="scaron" unicode="&#x161;" 
d="M477 1311l-319 294l108 151l348 -198l343 200l110 -153l-315 -294h-275zM631 914q-130 0 -128 -95q0 -54 51 -78t185 -54q199 -39 287 -115t89 -231q0 -155 -132 -253t-378 -99q-138 0 -270 37t-223 95l76 214q101 -58 216 -92t207 -34q145 0 145 102q0 58 -36 84
t-139 48q-220 39 -328 110t-108 229t125 256t349 98t424 -116l-58 -203q-192 97 -354 97z" />
    <glyph glyph-name="Tcedilla" unicode="&#x162;" 
d="M436 0v1221h-375v268h1112v-268h-376v-1192q20 -9 38 -20q92 -55 92 -181q-1 -126 -113 -186t-276 -61q-164 0 -273 60q-107 60 -114 188l301 18q4 -35 22 -49t61 -14t65 20t22 76t-15 82t-60 38h-111z" />
    <glyph glyph-name="tcedilla" unicode="&#x163;" 
d="M1013 -164q0 -134 -113 -194q-114 -60 -278 -61q-164 0 -271 60t-115 188l302 18q4 -35 22 -49t60 -14q43 0 65 20t22 76t-14 82q-15 24 -57 37q-99 26 -167 86q-119 105 -119 293v488h-233v251h233v372h361v-372h369v-251h-369v-449q0 -184 155 -182q105 0 195 37
l34 -246q-57 -31 -145 -37q63 -54 63 -153z" />
    <glyph glyph-name="Tcaron" unicode="&#x164;" 
d="M480 1683l-318 294l108 151l348 -197l343 199l110 -153l-315 -294h-276zM436 0v1221h-375v268h1112v-268h-376v-1221h-361z" />
    <glyph glyph-name="tcaron" unicode="&#x165;" 
d="M877 1313l82 549h439l-322 -549h-199zM350 378v488h-233v251h233v372h361v-372h369v-251h-369v-449q0 -184 155 -182q105 0 195 37l34 -246q-85 -46 -296 -46t-330 105t-119 293z" />
    <glyph glyph-name="Tbar" unicode="&#x166;" 
d="M436 0v544h-265v217h265v460h-375v268h1112v-268h-376v-460h266v-217h-266v-544h-361z" />
    <glyph glyph-name="tbar" unicode="&#x167;" 
d="M866 235q105 0 195 37l34 -246q-35 -19 -115.5 -32.5t-175.5 -13.5q-216 0 -335 105t-119 293v93h-201v218h201v177h-233v251h233v372h361v-372h369v-251h-369v-177h337v-218h-337v-54q0 -182 155 -182z" />
    <glyph glyph-name="Utilde" unicode="&#x168;" 
d="M1138 516q0 -274 -127 -404t-394 -131q-267 1 -395 131t-127 404v973h359v-960q0 -153 36 -208t126 -55q89 0 126 55q36 55 36 208v960h360v-973zM475 1873q-73 0 -71 -132v-28h-227v28q0 155 75 257t204 102q120 0 198 -88q32 -36 54 -64q23 -28 53 -28t51 26
q20 26 18 106v28h228v-28q0 -156 -74 -257t-204 -101t-199 90q-28 34 -51 62t-55 27z" />
    <glyph glyph-name="utilde" unicode="&#x169;" 
d="M566 251q98 0 194 151v715h359v-1117h-359v190h-53q-41 -108 -132 -158t-195 -51q-104 0 -185 85t-81 245v806h359v-711q0 -155 93 -155zM475 1501q-73 0 -71 -133v-27h-227v27q0 156 75 258t204 102q122 0 198 -88q32 -36 54 -65q23 -28 53 -28t51 26q20 26 18 106v28
h228v-28q0 -157 -74 -257t-204 -100t-199 89q-28 34 -51 62t-55 28z" />
    <glyph glyph-name="Umacron" unicode="&#x16a;" 
d="M1138 516q0 -274 -127 -404t-394 -131q-267 1 -395 131t-127 404v973h359v-960q0 -153 36 -208t126 -55q89 0 126 55q36 55 36 208v960h360v-973zM227 1728v268h778v-268h-778z" />
    <glyph glyph-name="umacron" unicode="&#x16b;" 
d="M566 251q98 0 194 151v715h359v-1117h-359v190h-53q-41 -108 -132 -158t-195 -51q-104 0 -185 85t-81 245v806h359v-711q0 -155 93 -155zM227 1355v269h778v-269h-778z" />
    <glyph glyph-name="Ubreve" unicode="&#x16c;" 
d="M1138 516q0 -274 -127 -404t-394 -131q-267 1 -395 131t-127 404v973h359v-960q0 -153 36 -208t126 -55q89 0 126 55q36 55 36 208v960h360v-973zM616 1663q-234 0 -348 109t-115 332h285q2 -128 40 -178q39 -49 138 -49t138 49t41 178h285q-2 -223 -116 -332t-348 -109z
" />
    <glyph glyph-name="ubreve" unicode="&#x16d;" 
d="M566 251q98 0 194 151v715h359v-1117h-359v190h-53q-41 -108 -132 -158t-195 -51q-104 0 -185 85t-81 245v806h359v-711q0 -155 93 -155zM635 1290q-233 0 -347 109t-117 332h285q2 -128 41 -177q39 -50 138 -50t138 50t41 177h284q-2 -223 -116 -332t-347 -109z" />
    <glyph glyph-name="Uring" unicode="&#x16e;" 
d="M1138 516q0 -274 -127 -404t-394 -131q-267 1 -395 131t-127 404v973h359v-960q0 -153 36 -208t126 -55q89 0 126 55q36 55 36 208v960h360v-973zM616 2104q-121 0 -121 -127v-59q1 -67 31 -94t90 -27q123 0 121 121v59q0 127 -121 127zM616 1631q-166 0 -267 71
t-101 216v59q0 147 101 220t267 73t267 -73t102 -220v-59q1 -145 -101 -216t-268 -71z" />
    <glyph glyph-name="uring" unicode="&#x16f;" 
d="M566 251q98 0 194 151v715h359v-1117h-359v190h-53q-41 -108 -132 -158t-195 -51q-104 0 -185 85t-81 245v806h359v-711q0 -155 93 -155zM514 1605v-60q0 -67 30 -94t91 -27q121 0 121 121v60q0 128 -121 126q-121 0 -121 -126zM635 1259q-166 1 -267 71t-102 215v60
q0 147 102 220t267 73q166 0 267 -74q101 -72 102 -219v-60q0 -145 -102 -215t-267 -71z" />
    <glyph glyph-name="Uhungarumlaut" unicode="&#x170;" 
d="M337 1676l76 372h335l-232 -372h-179zM730 1676l76 372h335l-232 -372h-179zM1138 516q0 -274 -127 -404t-394 -131q-267 1 -395 131t-127 404v973h359v-960q0 -153 36 -208t126 -55q89 0 126 55q36 55 36 208v960h360v-973z" />
    <glyph glyph-name="uhungarumlaut" unicode="&#x171;" 
d="M296 1303l76 373h335l-232 -373h-179zM689 1303l76 373h335l-232 -373h-179zM566 251q98 0 194 151v715h359v-1117h-359v190h-53q-41 -108 -132 -158t-195 -51q-104 0 -185 85t-81 245v806h359v-711q0 -155 93 -155z" />
    <glyph glyph-name="Uogonek" unicode="&#x172;" 
d="M421 -190q0 106 58 181q-165 26 -257 121q-128 130 -127 404v973h359v-960q0 -153 36 -208t126 -55q89 0 126 55q36 55 36 208v960h360v-973q0 -274 -127 -404q-109 -112 -323 -128q-20 -40 -20 -87q0 -94 129 -94q60 0 164 18v-212q-116 -24 -246 -24q-129 -1 -211 59
t-83 166z" />
    <glyph glyph-name="uogonek" unicode="&#x173;" 
d="M668 -180q0 116 92 207v163h-53q-41 -108 -132 -158t-195 -50t-185 84q-81 85 -81 245v806h359v-711q0 -155 93 -155q98 0 194 151v715h359v-1117h-172q-31 -36 -31 -93t30 -81t94 -23q64 0 168 18v-212q-116 -24 -245 -24q-129 -1 -212 59t-83 176z" />
    <glyph glyph-name="Wcircumflex" unicode="&#x174;" 
d="M272 1650l-110 152l315 294h275l319 -294l-108 -151l-349 198zM724 0l-104 640l-102 -640h-311l-175 1489h301l58 -1078l106 706h235l110 -670l57 1042h302l-175 -1489h-302z" />
    <glyph glyph-name="wcircumflex" unicode="&#x175;" 
d="M290 1277l-109 153l314 294h276l318 -294l-108 -151l-348 197zM748 0l-132 532l-124 -532h-308l-156 1117h302l78 -711l108 508h193l121 -501l73 704h302l-155 -1117h-302z" />
    <glyph glyph-name="Ycircumflex" unicode="&#x176;" 
d="M797 0h-361v559l-393 930h355l216 -603l220 603h354l-391 -930v-559zM272 1650l-110 152l315 294h275l319 -294l-108 -151l-349 198z" />
    <glyph glyph-name="ycircumflex" unicode="&#x177;" 
d="M354 -393q-93 0 -280 21l15 251q148 -26 241 -27t145 44t82 171h-239l-268 1050h363l201 -828l216 828h350l-309 -1098q-65 -222 -182 -317t-335 -95zM272 1277l-110 153l315 294h275l319 -294l-108 -151l-349 197z" />
    <glyph glyph-name="Ydieresis" unicode="&#x178;" 
d="M797 0h-361v559l-393 930h355l216 -603l220 603h354l-391 -930v-559zM1015 1799q0 -138 -173 -138q-76 0 -125 30q-48 31 -49 108v26q0 143 173 143t174 -143v-26zM564 1799q0 -138 -173 -138q-76 0 -125 30q-48 31 -48 108v26q0 143 173 143t173 -143v-26z" />
    <glyph glyph-name="Zacute" unicode="&#x179;" 
d="M436 1676l175 372h447l-391 -372h-231zM1134 0h-1035v268l674 953h-674v268h1035v-268l-661 -953h661v-268z" />
    <glyph glyph-name="zacute" unicode="&#x17a;" 
d="M465 1303l175 373h447l-391 -373h-231zM1104 0h-976v251l598 615h-598v251h976v-251l-586 -615h586v-251z" />
    <glyph glyph-name="Zdotaccent" unicode="&#x17b;" 
d="M1134 0h-1035v268l674 953h-674v268h1035v-268l-661 -953h661v-268zM843 1799q0 -138 -227 -138q-101 1 -164 31t-63 107v26q0 143 227 143t227 -143v-26z" />
    <glyph glyph-name="zdotaccent" unicode="&#x17c;" 
d="M832 1426q0 -138 -227 -138t-227 138v26q0 144 227 144t227 -144v-26zM1104 0h-976v251l598 615h-598v251h976v-251l-586 -615h586v-251z" />
    <glyph glyph-name="Zcaron" unicode="&#x17d;" 
d="M480 1683l-318 294l108 151l348 -197l343 199l110 -153l-315 -294h-276zM1134 0h-1035v268l674 953h-674v268h1035v-268l-661 -953h661v-268z" />
    <glyph glyph-name="zcaron" unicode="&#x17e;" 
d="M477 1311l-319 294l108 151l348 -198l343 200l110 -153l-315 -294h-275zM1104 0h-976v251l598 615h-598v251h976v-251l-586 -615h586v-251z" />
    <glyph glyph-name="longs" unicode="&#x17f;" 
d="M946 1322q-149 0 -149 -173v-1149h-361v866h-205v251h205v60q0 184 128.5 281.5t334.5 97.5q125 0 253 -42l-33 -227q-107 35 -173 35z" />
    <glyph glyph-name="florin" unicode="&#x192;" 
d="M944 1322q-147 0 -147 -179v-162h337v-251h-337v-359q0 -179 -125 -280q-125 -100 -341 -100q-134 0 -249 43l33 227q104 -36 172 -36q147 0 147 179v326h-337v251h339v196q0 176 123 279q127 100 340 100q130 0 252 -42l-36 -227q-93 35 -171 35z" />
    <glyph glyph-name="Aringacute" unicode="&#x1fa;" 
d="M868 0l-67 344h-373l-76 -344h-322l365 1489h445l365 -1489h-337zM747 613l-121 614l-136 -614h257zM616 2104q-121 0 -121 -127v-59q1 -67 31 -94t90 -27q123 0 121 121v59q0 127 -121 127zM985 1918q1 -145 -101 -216t-268 -71t-267 71t-101 216v59q0 147 101 220
q69 50 169 65l162 345h446l-370 -353q227 -56 229 -277v-59z" />
    <glyph glyph-name="aringacute" unicode="&#x1fb;" 
d="M394 -19q-132 -1 -222 89t-90 242t101 232q101 82 281 82h229v135q-1 77 -37 105t-106 28t-104 -33t-49 -124l-289 47q38 194 140 273t328 79t341 -90q116 -90 116 -279v-419q0 -74 39 -92t110 -7v-242q-286 -69 -357 155h-54q-53 -74 -149 -128t-228 -53zM404 315
q0 -116 104 -116q92 0 185 58v188h-194q-51 0 -73 -26t-22 -104zM462 1545q0 -67 30 -94t91 -27q121 0 121 121v60q0 128 -121 126q-123 0 -121 -126v-60zM951 1605v-60q0 -145 -101 -215t-267 -71q-166 1 -267 71t-102 215v60q0 220 229 277l166 352h447l-364 -346
q259 -48 259 -283z" />
    <glyph glyph-name="AEacute" unicode="&#x1fc;" 
d="M586 1676l175 372h447l-391 -372h-231zM577 344h-218l-72 -344h-250l339 1489h803v-249h-296v-315h258v-249h-258v-427h296v-249h-602v344zM577 594v646h-28l-136 -646h164z" />
    <glyph glyph-name="aeacute" unicode="&#x1fd;" 
d="M546 1303l175 373h446l-391 -373h-230zM404 197q49 0 106 49v201h-76q-50 0 -74 -29t-23 -103q0 -118 67 -118zM780 758v-90h153v88q0 89 -17 127t-56 39q-80 0 -80 -164zM324 -19q-123 0 -198 80q-76 79 -76 239t86 243t236 83h138v121q0 85 -18 117t-59 32
q-40 0 -59 -32t-44 -123l-254 47q40 180 118 264t208 84q172 0 227 -140q86 138 252 140q133 0 217 -104t84 -311v-233h-402v-138q0 -145 66 -145t90 121l244 -45q-40 -149 -124 -224t-203 -76q-170 0 -240 155h-60q-22 -69 -83 -112t-146 -43z" />
    <glyph glyph-name="Oslashacute" unicode="&#x1fe;" 
d="M1134 983v-484q0 -244 -132 -381t-386 -137q-55 0 -149 13l-67 -180h-247l106 277q-160 133 -160 408v484q0 245 133 385t386 140q76 0 149 -15l69 183h248l-105 -283q155 -137 155 -410zM812 532v444l-265 -719q34 -8 69 -8q112 -1 154 61t42 222zM616 1240
q-112 0 -154 -64t-41 -226v-443q0 -12 2 -23l264 747q-23 9 -71 9zM434 1676l175 372h447l-391 -372h-231z" />
    <glyph glyph-name="oslashacute" unicode="&#x1ff;" 
d="M1138 404q0 -197 -139 -310t-383 -113q-57 0 -151 13l-85 -180h-209l114 244q-88 52 -139 144t-51 202v302q0 199 140 314t383 116q60 0 151 -13l86 180h208l-115 -245q89 -52 139 -146t51 -206v-302zM815 698q0 70 -18 110l-261 -585q33 -7 80 -7q112 0 156 49t43 165
v268zM417 694v-264q0 -77 19 -123l262 585q-43 9 -82 9q-112 0 -156 -52t-43 -155zM478 1303l175 373h447l-391 -373h-231z" />
    <glyph glyph-name="Scommaaccent" unicode="&#x218;" 
d="M475 1089q0 -73 50 -113t201 -82q227 -68 321 -172t94 -302t-145 -318t-414 -121q-269 0 -498 144l72 268q231 -143 425 -143q117 0 159 43q42 45 42 123t-57 112t-194 75q-227 63 -321 165t-95 288q0 186 127 318t382 132q123 0 245 -42t200 -90l-54 -255
q-214 119 -377 118t-163 -148zM298 -559l106 373h445l-320 -373h-231z" />
    <glyph glyph-name="scommaaccent" unicode="&#x219;" 
d="M631 914q-130 0 -128 -95q0 -54 51 -78t185 -54q199 -39 287 -115t89 -231q0 -155 -132 -253t-378 -99q-138 0 -270 37t-223 95l76 214q101 -58 216 -92t207 -34q145 0 145 102q0 58 -36 84t-139 48q-220 39 -328 110t-108 229t125 256t349 98t424 -116l-58 -203
q-192 97 -354 97zM317 -559l106 373h445l-321 -373h-230z" />
    <glyph glyph-name="Tcommaaccent" unicode="&#x21a;" 
d="M436 0v1221h-375v268h1112v-268h-376v-1221h-361zM317 -559l106 373h445l-321 -373h-230z" />
    <glyph glyph-name="tcommaaccent" unicode="&#x21b;" 
d="M350 378v488h-233v251h233v372h361v-372h369v-251h-369v-449q0 -184 155 -182q105 0 195 37l34 -246q-85 -46 -296 -46t-330 105t-119 293zM389 -559l106 373h445l-320 -373h-231z" />
    <glyph glyph-name="dotlessj" unicode="&#xf6be;" 
d="M358 -155q116 0 173 42t57 139v840h-419v251h779v-1121q0 -179 -141.5 -283t-364.5 -104t-345 43l33 229q112 -36 228 -36z" />
    <glyph glyph-name="dotlessj" unicode="&#x237;" 
d="M358 -155q116 0 173 42t57 139v840h-419v251h779v-1121q0 -179 -141.5 -283t-364.5 -104t-345 43l33 229q112 -36 228 -36z" />
    <glyph glyph-name="quoteleft" unicode="&#x2018;" 
d="M283 661l434 828h223l-158 -828h-499z" />
    <glyph glyph-name="quoteleft" unicode="&#x2bb;" 
d="M283 661l434 828h223l-158 -828h-499z" />
    <glyph glyph-name="circumflex" unicode="&#x2c6;" 
d="M272 1277l-110 153l315 294h275l319 -294l-108 -151l-349 197z" />
    <glyph glyph-name="caron" unicode="&#x2c7;" 
d="M480 1311l-318 294l108 151l348 -198l343 200l110 -153l-315 -294h-276z" />
    <glyph glyph-name="breve" unicode="&#x2d8;" 
d="M616 1290q-234 0 -348 109t-115 332h285q2 -128 40 -177q38 -50 138 -50q99 0 138 50t41 177h285q-2 -223 -116 -332t-348 -109z" />
    <glyph glyph-name="dotaccent" unicode="&#x2d9;" 
d="M843 1426q0 -138 -227 -138t-227 138v26q0 144 227 144t227 -144v-26z" />
    <glyph glyph-name="ring" unicode="&#x2da;" 
d="M495 1605v-60q1 -67 31 -94t90 -27q123 0 121 121v60q0 128 -121 126q-121 0 -121 -126zM616 1259q-166 1 -267 71t-101 215v60q0 147 101 220t267 73t267 -74q101 -72 102 -219v-60q1 -145 -101 -215t-268 -71z" />
    <glyph glyph-name="ogonek" unicode="&#x2db;" 
d="M322 -180q0 116 86 201t197 117l47 -95q-54 -35 -68 -71t-14 -78q0 -90 128 -91q60 0 164 18v-212q-116 -24 -245 -24q-129 -1 -212 59t-83 176z" />
    <glyph glyph-name="tilde" unicode="&#x2dc;" 
d="M475 1501q-73 0 -71 -133v-27h-227v27q0 156 75 258t204 102q122 0 198 -88q32 -36 54 -65q23 -28 53 -28t51 26q20 26 18 106v28h228v-28q0 -157 -74 -257t-204 -100t-199 89q-28 34 -51 62t-55 28z" />
    <glyph glyph-name="hungarumlaut" unicode="&#x2dd;" 
d="M277 1303l77 373h335l-233 -373h-179zM670 1303l77 373h335l-233 -373h-179z" />
    <glyph glyph-name="gravecmb" unicode="&#x300;" horiz-adv-x="0" 
d="M-35 1303l-391 373h445l176 -373h-230z" />
    <glyph glyph-name="acutecmb" unicode="&#x301;" horiz-adv-x="0" 
d="M-233 1303l175 373h447l-391 -373h-231z" />
    <glyph glyph-name="circumflexcmb" unicode="&#x302;" horiz-adv-x="0" 
d="M-344 1277l-110 153l314 294h276l318 -294l-108 -151l-348 197z" />
    <glyph glyph-name="tildecmb" unicode="&#x303;" horiz-adv-x="0" 
d="M166 1547q51 0 48 132v28h227v-28q0 -156 -73.5 -256.5t-203.5 -100.5t-199 89q-28 34 -51.5 62t-54.5 28q-74 0 -71 -133v-27h-227v27q0 156 75 258t204 102q122 0 198 -88q32 -36 54.5 -64.5t73.5 -28.5z" />
    <glyph glyph-name="macroncmb" unicode="&#x304;" horiz-adv-x="0" 
d="M-389 1355v269h778v-269h-778z" />
    <glyph glyph-name="brevecmb" unicode="&#x306;" horiz-adv-x="0" 
d="M0 1290q-233 0 -347.5 109t-116.5 332h285q2 -128 41 -177.5t138 -49.5t138 49.5t41 177.5h285q-2 -223 -116.5 -332t-347.5 -109z" />
    <glyph glyph-name="dotaccentcmb" unicode="&#x307;" horiz-adv-x="0" 
d="M227 1426q0 -138 -227 -138t-227 138v26q0 144 227 144t227 -144v-26z" />
    <glyph glyph-name="dieresiscmb" unicode="&#x308;" horiz-adv-x="0" 
d="M398 1426q0 -138 -173 -138t-173 138v26q0 144 173 144t173 -144v-26zM-52 1426q0 -138 -173 -138t-173 138v26q0 144 173 144t173 -144v-26z" />
    <glyph glyph-name="ringcmb" unicode="&#x30a;" horiz-adv-x="0" 
d="M0 1731q-121 0 -121 -126v-60q0 -67 30.5 -94t89.5 -27t90.5 27t31.5 94v60q0 126 -121 126zM0 1259q-166 0 -267.5 70.5t-101.5 215.5v60q0 147 101.5 219.5t267.5 72.5t267.5 -72.5t101.5 -219.5v-60q0 -145 -101.5 -215.5t-267.5 -70.5z" />
    <glyph glyph-name="hungarumlautcmb" unicode="&#x30b;" horiz-adv-x="0" 
d="M-339 1303l76 373h336l-233 -373h-179zM54 1303l76 373h335l-232 -373h-179z" />
    <glyph glyph-name="caroncmb" unicode="&#x30c;" horiz-adv-x="0" 
d="M-136 1311l-318 294l108 151l348 -198l342 200l110 -153l-314 -294h-276z" />
    <glyph glyph-name="commaturnedabovecmb" unicode="&#x312;" horiz-adv-x="0" 
d="M-266 1303l320 373h233l-108 -373h-445z" />
    <glyph glyph-name="commaaccentcmb" unicode="&#x326;" horiz-adv-x="0" 
d="M-285 -559l106 373h445l-320 -373h-231z" />
    <glyph glyph-name="cedillacmb" unicode="&#x327;" horiz-adv-x="0" 
d="M328 -172q0 -126 -113 -186.5t-277 -60.5t-271.5 59.5t-115.5 188.5l302 18q4 -35 21.5 -49t60.5 -14t65 20t22 76t-14.5 81.5t-59.5 38.5l35 78q160 -15 252.5 -69.5t92.5 -180.5z" />
    <glyph glyph-name="ogonekcmb" unicode="&#x328;" horiz-adv-x="0" 
d="M0 -415q-129 0 -211.5 59.5t-82.5 175.5t85.5 201t197.5 117l46 -95q-54 -35 -68 -70.5t-14 -74.5q0 -95 129 -95q60 0 164 18v-212q-117 -24 -246 -24z" />
    <glyph glyph-name="tonos" unicode="&#x384;" 
d="M452 1303l73 373h428l-286 -373h-215z" />
    <glyph glyph-name="dieresistonos" unicode="&#x385;" 
d="M1167 1424q0 -137 -158 -137t-156 137v26q0 144 158 144t156 -144v-26zM380 1424q0 -137 -158 -137t-157 137v26q-1 144 157 144t158 -144v-26zM460 1303l78 373h300l-179 -373h-199z" />
    <glyph glyph-name="Alphatonos" unicode="&#x386;" 
d="M868 0l-67 344h-373l-76 -344h-322l365 1489h445l365 -1489h-337zM747 613l-121 614l-136 -614h257zM-48 1303l72 373h428l-286 -373h-214z" />
    <glyph glyph-name="anoteleia" unicode="&#x387;" 
d="M888 668q0 -97 -74 -150t-190 -53q-116 -1 -190 53t-73 150v151q0 97 74 152q73 55 191 55t190 -55t72 -152v-151z" />
    <glyph glyph-name="Epsilontonos" unicode="&#x388;" 
d="M95 0v1489h1039v-268h-680v-294h594v-268h-594v-391h680v-268h-1039zM-307 1303l72 373h429l-287 -373h-214z" />
    <glyph glyph-name="Etatonos" unicode="&#x389;" 
d="M-343 1303l73 373h428l-286 -373h-215zM95 0v1489h359v-528h324v528h360v-1489h-360v693h-324v-693h-359z" />
    <glyph glyph-name="Iotatonos" unicode="&#x38a;" 
d="M-343 1303l73 373h428l-286 -373h-215zM95 0v268h341v953h-341v268h1043v-268h-341v-953h341v-268h-1043z" />
    <glyph glyph-name="Omicrontonos" unicode="&#x38c;" 
d="M-130 1303l72 373h429l-287 -373h-214zM458 499q0 -141 36 -195t123 -55q87 0 122 54t36 196v484q1 143 -35 200t-123 57t-123 -57t-36 -200v-484zM616 -19q-253 1 -385 129t-132 355v552q0 229 133 360t385 131q253 0 385 -131t132 -360v-552q0 -227 -132 -355
t-386 -129z" />
    <glyph glyph-name="Upsilontonos" unicode="&#x38e;" 
d="M797 0h-361v559l-393 930h355l216 -603l220 603h354l-391 -930v-559zM-337 1303l73 373h428l-287 -373h-214z" />
    <glyph glyph-name="Omegatonos" unicode="&#x38f;" 
d="M-203 1303l73 373h428l-287 -373h-214zM441 765q0 -290 127 -337v-428h-486v218h184v167q-184 108 -184 380v218q0 255 137 390t397 135t398 -135q137 -135 137 -390v-218q0 -270 -183 -380v-167h183v-218h-486v428q128 47 126 337v231q0 132 -43 185q-44 53 -132 53
t-132 -53t-43 -185v-231z" />
    <glyph glyph-name="iotadieresistonos" unicode="&#x390;" 
d="M1151 1424q1 -137 -157 -137t-158 137v26q0 144 158 144t157 -144v-26zM363 1424q1 -137 -157 -137t-158 137v26q0 144 158 144t157 -144v-26zM443 1303l78 373h300l-179 -373h-199zM845 -15q-203 0 -325 108t-122 278v495h-262v251h624v-681q0 -95 42 -140t114 -45
t164 38l52 -244q-160 -60 -287 -60z" />
    <glyph glyph-name="Alpha" unicode="&#x391;" 
d="M868 0l-67 344h-373l-76 -344h-322l365 1489h445l365 -1489h-337zM747 613l-121 614l-136 -614h257z" />
    <glyph glyph-name="Beta" unicode="&#x392;" 
d="M454 251h138q99 1 140 37t41 122v93q0 86 -41 121t-140 35h-138v-408zM454 890h144q78 0 110 31t33 101v86q0 70 -33 100t-110 30h-144v-348zM1134 391q0 -391 -497 -391h-542v1489h549q456 0 454 -350v-65q0 -118 -50 -178t-162 -81v-54q120 -13 184 -87t64 -186v-97z
" />
    <glyph glyph-name="Gamma" unicode="&#x393;" 
d="M190 0v1489h983v-268h-624v-1221h-359z" />
    <glyph glyph-name="Delta" unicode="&#x394;" 
d="M840 268l-224 994l-238 -994h462zM69 0v268l298 1221h521l277 -1221v-268h-1096z" />
    <glyph glyph-name="Epsilon" unicode="&#x395;" 
d="M95 0v1489h1039v-268h-680v-294h594v-268h-594v-391h680v-268h-1039z" />
    <glyph glyph-name="Zeta" unicode="&#x396;" 
d="M1134 0h-1035v268l674 953h-674v268h1035v-268l-661 -953h661v-268z" />
    <glyph glyph-name="Eta" unicode="&#x397;" 
d="M95 0v1489h359v-528h324v528h360v-1489h-360v693h-324v-693h-359z" />
    <glyph glyph-name="Theta" unicode="&#x398;" 
d="M484 637v234h266v-234h-266zM616 249q106 0 157.5 63.5t51.5 219.5v418q0 156 -50.5 223t-157.5 67t-158 -67t-51 -223v-418q0 -156 51 -219.5t157 -63.5zM616.5 -19q-249.5 0 -383.5 136t-134 382v484q0 249 135.5 387t383.5 138t383 -137.5t135 -387.5v-484
q0 -246 -135 -382t-384.5 -136z" />
    <glyph glyph-name="Iota" unicode="&#x399;" 
d="M95 0v268h341v953h-341v268h1043v-268h-341v-953h341v-268h-1043z" />
    <glyph glyph-name="Kappa" unicode="&#x39a;" 
d="M454 633v-633h-359v1489h359v-588h69l304 588h366l-409 -687l404 -802h-359l-300 633h-75z" />
    <glyph glyph-name="Lambda" unicode="&#x39b;" 
d="M868 0l-242 1227l-274 -1227h-322l365 1489h445l365 -1489h-337z" />
    <glyph glyph-name="Mu" unicode="&#x39c;" 
d="M84 0v1489h324l214 -688l210 688h317v-1489h-315l39 946l-145 -490h-220l-151 508l41 -964h-314z" />
    <glyph glyph-name="Nu" unicode="&#x39d;" 
d="M400 0h-305v1489h385l352 -1055v1055h306v-1489h-414l-324 996v-996z" />
    <glyph glyph-name="Xi" unicode="&#x39e;" 
d="M99 0v268h1035v-268h-1035zM141 659v268h950v-268h-950zM99 1221v268h1035v-268h-1035z" />
    <glyph glyph-name="Omicron" unicode="&#x39f;" 
d="M458 499q0 -141 36 -195t123 -55q87 0 122 54t36 196v484q1 143 -35 200t-123 57t-123 -57t-36 -200v-484zM616 -19q-253 1 -385 129t-132 355v552q0 229 133 360t385 131q253 0 385 -131t132 -360v-552q0 -227 -132 -355t-386 -129z" />
    <glyph glyph-name="Pi" unicode="&#x3a0;" 
d="M95 0v1489h1043v-1489h-360v1221h-324v-1221h-359z" />
    <glyph glyph-name="Rho" unicode="&#x3a1;" 
d="M454 722h159q80 0 121 33t41 131v162q0 101 -41 137t-121 36h-159v-499zM95 0v1489h538q233 0 366 -101t133 -314v-221q0 -207 -130 -301t-367 -94h-181v-458h-359z" />
    <glyph glyph-name="Sigma" unicode="&#x3a3;" 
d="M1078 0h-940v268l497 493l-497 460v268h940v-268h-583l378 -340v-213l-398 -400h603v-268z" />
    <glyph glyph-name="Tau" unicode="&#x3a4;" 
d="M436 0v1221h-375v268h1112v-268h-376v-1221h-361z" />
    <glyph glyph-name="Upsilon" unicode="&#x3a5;" 
d="M797 0h-361v559l-393 930h355l216 -603l220 603h354l-391 -930v-559z" />
    <glyph glyph-name="Phi" unicode="&#x3a6;" 
d="M361 640q0 -221 95 -221h26v652h-26q-93 0 -95 -229v-202zM869 842q0 229 -87 229h-34v-652h34q87 0 87 221v202zM769 168h-13v-187h-281v187h-13q-188 0 -289 126t-100 346v202q0 224 101 352t290 128h11v186h281v-186h13q188 0 289 -128t102 -352v-202
q0 -222 -102 -347t-289 -125z" />
    <glyph glyph-name="Chi" unicode="&#x3a7;" 
d="M821 0l-214 438l-207 -438h-340l391 769l-349 720h365l183 -379l182 379h339l-365 -718l361 -771h-346z" />
    <glyph glyph-name="Psi" unicode="&#x3a8;" 
d="M868 869v620h288v-638q0 -210 -100.5 -339.5t-295.5 -163.5v-348h-285v348q-197 34 -298 163t-101 340v638h289v-620q0 -219 110 -255v875h283v-875q110 36 110 255z" />
    <glyph glyph-name="Omega" unicode="&#x3a9;" 
d="M441 765q0 -290 127 -337v-428h-486v218h184v167q-184 108 -184 380v218q0 255 137 390t397.5 135t397.5 -135t137 -390v-218q0 -270 -183 -380v-167h183v-218h-486v428q126 47 126 337v231q0 132 -43.5 185t-131 53t-131.5 -53t-44 -185v-231z" />
    <glyph glyph-name="Iotadieresis" unicode="&#x3aa;" 
d="M95 0v268h341v953h-341v268h1043v-268h-341v-953h341v-268h-1043zM1015 1799q0 -138 -173 -138q-76 0 -125 30q-48 31 -49 108v26q0 143 173 143t174 -143v-26zM564 1799q0 -138 -173 -138q-76 0 -125 30q-48 31 -48 108v26q0 143 173 143t173 -143v-26z" />
    <glyph glyph-name="Upsilondieresis" unicode="&#x3ab;" 
d="M797 0h-361v559l-393 930h355l216 -603l220 603h354l-391 -930v-559zM1015 1799q0 -138 -173 -138q-76 0 -125 30q-48 31 -49 108v26q0 143 173 143t174 -143v-26zM564 1799q0 -138 -173 -138q-76 0 -125 30q-48 31 -48 108v26q0 143 173 143t173 -143v-26z" />
    <glyph glyph-name="alphatonos" unicode="&#x3ac;" 
d="M689 942v175h359v-748q0 -79 26 -103t90 -17v-242q-147 -35 -231 18t-116 202h-50q-99 -241 -357 -243q-128 0 -212 94q-83 95 -83 257v415q-1 170 75 280t195 109q178 0 254 -197h50zM475 389q0 -138 91 -138q67 0 123 80v460q-67 78 -129 78q-37 0 -61 -35t-24 -115
v-330zM546 1303l72 373h428l-286 -373h-214z" />
    <glyph glyph-name="epsilontonos" unicode="&#x3ad;" 
d="M147 838q0 298 493 298q230 0 348 -87t131 -282l-320 -15q-7 91 -41 131t-113 40t-108 -26t-29 -85v-26q0 -69 32 -92t106 -24h95v-182h-95q-112 0 -141 -33t-28 -94v-18q0 -63 31 -98q32 -35 140 -35t140 44q31 44 41 131l320 -13q-13 -194 -115 -292t-394 -99
q-521 0 -523 309v36q0 88 66 152t201 73v41q-110 8 -174 60t-63 143v43zM492 1303l72 373h428l-286 -373h-214z" />
    <glyph glyph-name="etatonos" unicode="&#x3ae;" 
d="M560 1303l73 373h428l-286 -373h-215zM760 -372v1117q0 59 -26 91t-74 32t-100 -31t-87 -89v-748h-359v1117h359v-190h52q39 99 124 154t205 55t192 -87q73 -87 73 -243v-1178h-359z" />
    <glyph glyph-name="iotatonos" unicode="&#x3af;" 
d="M464 1303l72 373h428l-286 -373h-214zM845 -15q-203 0 -325 108t-122 278v495h-262v251h624v-681q0 -95 42 -140t114 -45t164 38l52 -244q-160 -60 -287 -60z" />
    <glyph glyph-name="upsilondieresistonos" unicode="&#x3b0;" 
d="M1119 438q0 -214 -133 -336q-132 -122 -368 -121q-236 0 -370 121t-134 336v679h359v-670q0 -102 32 -150q33 -47 111 -47t111 45q33 46 33 146v676h359v-679zM1167 1424q0 -137 -158 -137t-156 137v26q0 144 158 144t156 -144v-26zM380 1424q0 -137 -158 -137t-157 137
v26q-1 144 157 144t158 -144v-26zM460 1303l78 373h300l-179 -373h-199z" />
    <glyph glyph-name="alpha" unicode="&#x3b1;" 
d="M385 1139q178 0 254 -197h50v175h359v-748q0 -80 26 -103.5t90 -16.5v-242q-147 -35 -231 18t-116 202h-50q-48 -117 -138.5 -180.5t-218.5 -63.5t-211.5 95t-83.5 257v415q0 171 75.5 280t194.5 109zM475 389q0 -138 91 -138q67 0 123 80v460q-67 78 -116.5 78
t-73.5 -35t-24 -115v-330z" />
    <glyph glyph-name="beta" unicode="&#x3b2;" 
d="M1065 1104q0 -219 -281 -270v-54q162 -17 248.5 -97t86.5 -218v-87q0 -184 -113.5 -290.5t-307.5 -106.5q-117 0 -225 39v-392h-359v1452q0 205 125 316.5t345 111.5t350.5 -93t130.5 -255v-56zM756 432v71q0 112 -39 151.5t-116 39.5h-59v198h50q58 0 86.5 30.5
t28.5 105.5v70q0 80 -27.5 111t-91.5 31t-89.5 -42t-25.5 -135v-767q67 -50 130 -50t108 39t45 147z" />
    <glyph glyph-name="gamma" unicode="&#x3b3;" 
d="M832 -372h-432l36 409l-386 1080h358l206 -780l207 780h359l-383 -1080z" />
    <glyph glyph-name="delta" unicode="&#x3b4;" 
d="M473 588v-197q0 -86 37 -122t107 -36t106.5 36t36.5 122v182q0 88 -40 133.5t-150 90.5q-97 -65 -97 -209zM114 573q0 214 234 313q-101 48 -141.5 109t-40.5 154q0 168 116 254t329 86h353v-251h-337q-56 0 -85.5 -18t-29.5 -68t56 -79t216 -87t247.5 -148t87.5 -265
v-182q0 -199 -133 -304.5t-369.5 -105.5t-369.5 105.5t-133 304.5v182z" />
    <glyph glyph-name="epsilon" unicode="&#x3b5;" 
d="M147 838q0 298 493 298q231 0 348.5 -86.5t130.5 -282.5l-320 -15q-7 91 -41 131t-113 40t-108 -26t-29 -85v-26q0 -69 32 -92.5t106 -23.5h95v-182h-95q-112 0 -140.5 -32.5t-28.5 -94.5v-18q0 -63 31.5 -98t139.5 -35t139.5 44t41.5 131l320 -13q-13 -194 -115 -292.5
t-394 -98.5q-523 0 -523 309v36q0 88 66 152t201 73v41q-110 7 -173.5 59.5t-63.5 143.5v43z" />
    <glyph glyph-name="zeta" unicode="&#x3b6;" 
d="M581 80q-466 0 -466 376q0 158 61.5 263.5t199.5 267.5l140 171l-10 28q-324 -68 -493 285l182 119q89 -151 206 -191t320 7l337 141l50 -316l-335 -54l-151 -263q-74 -128 -110.5 -213t-36.5 -189t30.5 -150.5t99.5 -46.5h162q168 0 260 -83t92 -256t-112.5 -260.5
t-306.5 -87.5h-246v234h233q54 0 86.5 20.5t32.5 85.5t-32.5 88.5t-86.5 23.5h-106z" />
    <glyph glyph-name="eta" unicode="&#x3b7;" 
d="M760 -372v1117q0 58 -26.5 90.5t-73.5 32.5t-99.5 -31t-87.5 -89v-748h-359v1117h359v-190h52q39 99 124 154t205 55t192.5 -86.5t72.5 -243.5v-1178h-359z" />
    <glyph glyph-name="theta" unicode="&#x3b8;" 
d="M617 233q92 0 126.5 45.5t34.5 151.5v216h-324v-216q0 -106 35.5 -151.5t127.5 -45.5zM454 1067v-203h324v207q0 91 -34.5 138.5t-126.5 47.5t-127.5 -49.5t-35.5 -140.5zM616.5 -19q-232.5 0 -367.5 114t-135 309v674q0 199 135.5 314.5t367.5 115.5t367 -115.5
t135 -314.5v-674q0 -195 -135 -309t-367.5 -114z" />
    <glyph glyph-name="iota" unicode="&#x3b9;" 
d="M845 -15q-203 0 -325 108t-122 278v495h-262v251h624v-681q0 -95 42 -140t114 -45t164 38l52 -244q-160 -60 -287 -60z" />
    <glyph glyph-name="kappa" unicode="&#x3ba;" 
d="M484 462v-462h-361v1117h361v-423h60l255 423h365l-322 -504l316 -613h-380l-234 462h-60z" />
    <glyph glyph-name="lambda" unicode="&#x3bb;" 
d="M328 1501q233 0 355.5 -87t180.5 -289l316 -1125h-357l-218 849l-199 -849h-356l233 966h290l-13 47q-35 134 -92.5 184t-158.5 50t-162 -9l-35 251q116 12 216 12z" />
    <glyph glyph-name="mu" unicode="&#x3bc;" 
d="M132 1117h361v-715q0 -76 26.5 -109.5t61.5 -33.5q71 0 128 76v782h362v-748q0 -80 19.5 -103.5t74.5 -16.5v-242q-123 -30 -192.5 1t-112.5 132h-52q-56 -155 -182 -155q-89 0 -133 67v-15l17 -409h-395l17 409v1080z" />
    <glyph glyph-name="nu" unicode="&#x3bd;" 
d="M1180 1117q-57 -566 -379 -1117h-371l-380 1117h360l243 -784q74 190 116.5 402.5t55.5 381.5h355z" />
    <glyph glyph-name="xi" unicode="&#x3be;" 
d="M721 315q394 0 394 -335q0 -175 -111.5 -263.5t-325.5 -88.5h-207v234h194q63 0 100 20.5t37 85.5t-37 88.5t-100 23.5h-121q-192 0 -302 90.5t-110 248.5v33q0 108 75.5 189t226.5 94v43q-97 0 -148 54t-51 126t54.5 125t161.5 68v42q-312 -12 -434 278l171 119
q95 -145 200 -184t295 2l361 139l38 -316l-376 -56l-45 -34q-65 -50 -65 -162q0 -58 25 -83t64 -25h278v-234h-293q-95 0 -136 -45t-41 -112v-33q0 -60 39.5 -96t124.5 -36h64z" />
    <glyph glyph-name="omicron" unicode="&#x3bf;" 
d="M475 417q-1 -99 33 -141t109 -43q75 0 109 41t34 134v296q0 95 -34 138q-34 42 -109 42t-109 -42t-33 -136v-289zM1119 384q0 -188 -134 -296t-368 -107q-235 0 -369 109t-134 301v328q0 193 135 305t369 112t368 -114q133 -114 133 -313v-325z" />
    <glyph glyph-name="pi" unicode="&#x3c0;" 
d="M1132 1117v-251h-128v-484q0 -86 37 -116t130 -17v-242q-236 -47 -363 33.5t-127 279.5v546h-216v-866h-322v866h-113v251h1102z" />
    <glyph glyph-name="rho" unicode="&#x3c1;" 
d="M114 -372v1093q0 199 124 303t372 104t378.5 -104t130.5 -303v-358q0 -169 -91.5 -275.5t-249.5 -106.5q-104 0 -170 55t-83 154h-52v-562h-359zM650 251q110 0 110 162v308q0 158 -138 158q-149 0 -149 -158v-380q90 -90 177 -90z" />
    <glyph glyph-name="sigma1" unicode="&#x3c2;" 
d="M436 -372v251h232q54 0 86 18.5t32 78.5t-32 82t-86 22h-150q-190 0 -297 112.5t-107 315.5v207q0 199 134 310t370 111t347 -107t139 -312l-348 -28q-9 112 -39 153t-108 41t-107 -43t-29 -147v-170q0 -104 31.5 -148t122.5 -44h153q160 0 249.5 -86.5t89.5 -256.5
t-131.5 -265t-363.5 -95h-188z" />
    <glyph glyph-name="sigma" unicode="&#x3c3;" 
d="M1050 629v-238q0 -190 -124.5 -300t-342.5 -110t-343.5 110t-125.5 300v326q0 186 125.5 293t345.5 107h629v-270l-227 15q63 -93 63 -233zM582.5 233q63.5 0 86 40t22.5 131v315q0 80 -22.5 122t-86 42t-86.5 -43t-23 -123v-313q0 -91 23 -131t86.5 -40z" />
    <glyph glyph-name="tau" unicode="&#x3c4;" 
d="M436 320v529h-341v268h1059v-268h-357v-467q0 -89 45.5 -118t159.5 -15v-242q-268 -52 -417 30t-149 283z" />
    <glyph glyph-name="upsilon" unicode="&#x3c5;" 
d="M618 -19q-236 0 -370 121t-134 336v679h359v-670q0 -102 32.5 -150t110.5 -48t111 46t33 146v676h359v-679q0 -214 -132.5 -335.5t-368.5 -121.5z" />
    <glyph glyph-name="phi" unicode="&#x3c6;" 
d="M734 868v-626q95 19 132 78.5t37 172.5v103q0 141 -41.5 206.5t-127.5 65.5zM367 702v-125q0 -151 30.5 -230t112.5 -103v873h162q223 0 352.5 -138.5t129.5 -382.5v-103q0 -205 -105 -334t-289 -165v-366h-274v366q-195 35 -301.5 186t-106.5 397v125q0 300 65 430
l281 -60q-57 -128 -57 -370z" />
    <glyph glyph-name="chi" unicode="&#x3c7;" 
d="M763 -372l-165 366l-172 -366h-355l363 737l-333 752h357l171 -378l177 378h356l-371 -745l334 -744h-362z" />
    <glyph glyph-name="psi" unicode="&#x3c8;" 
d="M760 -372h-287v348q-197 32 -296 156.5t-99 329.5v655h291v-622q0 -114 27.5 -180t95.5 -86v888h249v-888q67 20 95 86.5t28 179.5v622h290v-655q0 -205 -98.5 -330t-295.5 -158v-346z" />
    <glyph glyph-name="omega" unicode="&#x3c9;" 
d="M1154 726v-266q0 -233 -71.5 -356t-194.5 -123q-84 0 -148 52.5t-100 186.5h-55q-19 -136 -89 -187.5t-161 -51.5q-117 0 -187 123t-70 356v266q0 255 67 423l283 -60q-59 -205 -59 -363v-283q0 -194 55 -194q68 0 68 138v436h249v-436q0 -138 67 -138q56 0 56 194v283
q0 140 -60 363l283 60q67 -173 67 -423z" />
    <glyph glyph-name="iotadieresis" unicode="&#x3ca;" 
d="M845 -15q-203 0 -325 108t-122 278v495h-262v251h624v-681q0 -95 42 -140t114 -45t164 38l52 -244q-160 -60 -287 -60zM1007 1426q0 -138 -173 -138t-173 138v26q0 144 173 144t173 -144v-26zM557 1426q0 -138 -173 -138t-174 138v26q0 144 173 144t174 -144v-26z" />
    <glyph glyph-name="upsilondieresis" unicode="&#x3cb;" 
d="M1119 438q0 -214 -133 -336q-132 -122 -368 -121q-236 0 -370 121t-134 336v679h359v-670q0 -102 32 -150q33 -47 111 -47t111 45q33 46 33 146v676h359v-679zM1015 1426q0 -138 -173 -138t-174 138v26q0 144 173 144t174 -144v-26zM564 1426q0 -138 -173 -138t-173 138
v26q0 144 173 144t173 -144v-26z" />
    <glyph glyph-name="omicrontonos" unicode="&#x3cc;" 
d="M452 1303l73 373h428l-286 -373h-215zM475 417q-1 -99 33 -141t109 -43q75 0 109 41t34 134v296q0 95 -34 138q-34 42 -109 42t-109 -42t-33 -136v-289zM1119 384q0 -188 -134 -296t-368 -107q-235 0 -369 109t-134 301v328q0 193 135 305t369 112t368 -114
q133 -114 133 -313v-325z" />
    <glyph glyph-name="upsilontonos" unicode="&#x3cd;" 
d="M1119 438q0 -214 -133 -336q-132 -122 -368 -121q-236 0 -370 121t-134 336v679h359v-670q0 -102 32 -150q33 -47 111 -47t111 45q33 46 33 146v676h359v-679zM434 1303l72 373h429l-287 -373h-214z" />
    <glyph glyph-name="omegatonos" unicode="&#x3ce;" 
d="M460 1303l72 373h429l-287 -373h-214zM1154 460q0 -233 -72 -356t-194 -123q-84 1 -148 53t-100 186h-55q-19 -136 -89 -188t-161 -51q-117 0 -187 123t-70 356v266q0 255 67 423l283 -60q-59 -205 -59 -363v-283q0 -192 55 -194q35 0 52 32q16 32 16 106v436h249v-436
q0 -138 67 -138q56 0 56 194v283q0 140 -60 363l283 60q69 -178 67 -423v-266z" />
    <glyph glyph-name="IEgravecyrillic" unicode="&#x400;" 
d="M538 1676l-391 372h445l177 -372h-231zM95 0v1489h1039v-268h-680v-294h594v-268h-594v-391h680v-268h-1039z" />
    <glyph glyph-name="Iocyrillic" unicode="&#x401;" 
d="M95 0v1489h1039v-268h-680v-294h594v-268h-594v-391h680v-268h-1039zM1028 1799q0 -138 -173 -138q-76 0 -125 30q-48 31 -49 108v26q0 143 173 143t174 -143v-26zM577 1799q0 -138 -173 -138q-76 0 -125 30q-48 31 -48 108v26q0 143 173 143t173 -143v-26z" />
    <glyph glyph-name="Djecyrillic" unicode="&#x402;" 
d="M212 0v1221h-180v268h778v-268h-238v-253h109q227 0 347.5 -110.5t120.5 -332.5v-87q0 -220 -120 -329t-348 -109v264q61 0 94 39.5t33 137.5v80q0 101 -32.5 142t-94.5 41h-109v-704h-360z" />
    <glyph glyph-name="Gjecyrillic" unicode="&#x403;" 
d="M441 1676l175 372h447l-391 -372h-231zM190 0v1489h983v-268h-624v-1221h-359z" />
    <glyph glyph-name="Ecyrillic" unicode="&#x404;" 
d="M643 -19q-269 0 -406.5 125t-137.5 369v532q0 248 137.5 374.5t404.5 126.5t394 -122t140 -416l-360 -19q-11 175 -43 232t-134 57t-141 -56t-39 -212v-45h242v-268h-242v-151q0 -151 39 -205t141 -54t133 54t44 228l360 -19q-11 -279 -137 -405t-395 -126z" />
    <glyph glyph-name="Dzecyrillic" unicode="&#x405;" 
d="M475 1089q0 -73 50 -113t201 -82q227 -68 321 -172t94 -302t-145 -318t-414 -121q-269 0 -498 144l72 268q231 -143 425 -143q117 0 159 43q42 45 42 123t-57 112t-194 75q-227 63 -321 165t-95 288q0 186 127 318t382 132q123 0 245 -42t200 -90l-54 -255
q-214 119 -377 118t-163 -148z" />
    <glyph glyph-name="Icyrillic" unicode="&#x406;" 
d="M95 0v268h341v953h-341v268h1043v-268h-341v-953h341v-268h-1043z" />
    <glyph glyph-name="Yicyrillic" unicode="&#x407;" 
d="M1015 1799q0 -138 -173 -138q-76 0 -125 30q-48 31 -49 108v26q0 143 173 143t174 -143v-26zM564 1799q0 -138 -173 -138q-76 0 -125 30q-48 31 -48 108v26q0 143 173 143t173 -143v-26zM95 0v268h341v953h-341v268h1043v-268h-341v-953h341v-268h-1043z" />
    <glyph glyph-name="Jecyrillic" unicode="&#x408;" 
d="M1100 478q0 -233 -120 -365t-389 -132q-270 0 -392 127q-121 127 -134 421l359 20q14 -184 48 -242t115 -58q81 -1 117 51t37 186v735h-398v268h757v-1011z" />
    <glyph glyph-name="Ljecyrillic" unicode="&#x409;" 
d="M775 235h39q39 0 56.5 36t17.5 122v257q0 84 -17.5 117.5t-56.5 33.5h-39v-566zM119 -9q-55 0 -126 16l33 254q11 -2 22.5 -6t27.5 -2q44 6 47 101l11 1135h641v-458h94q138 0 211.5 -86.5t73.5 -248.5v-337q0 -173 -74.5 -266t-211.5 -93h-362v1255h-113l-8 -1000
q-2 -128 -69.5 -196t-196.5 -68z" />
    <glyph glyph-name="Njecyrillic" unicode="&#x40a;" 
d="M1154 359q0 -359 -288 -359h-360v693h-160v-693h-266v1489h266v-528h160v528h269v-458h93q286 0 286 -335v-337zM775 235h37q41 0 58.5 36t17.5 122v257q0 84 -17.5 117.5t-58.5 33.5h-37v-566z" />
    <glyph glyph-name="Tshecyrillic" unicode="&#x40b;" 
d="M789 512q0 153 -108 153h-108v-665h-359v1221h-180v268h796v-268h-257v-292h121q231 0 343 -98.5t112 -303.5v-527h-360v512z" />
    <glyph glyph-name="Kjecyrillic" unicode="&#x40c;" 
d="M505 1676l175 372h446l-391 -372h-230zM454 633v-633h-359v1489h359v-588h69l304 588h366l-409 -687l404 -802h-359l-300 633h-75z" />
    <glyph glyph-name="Igravecyrillic" unicode="&#x40d;" 
d="M546 1676l-391 372h445l176 -372h-230zM823 0v990l-315 -990h-413v1489h315v-1051l342 1051h386v-1489h-315z" />
    <glyph glyph-name="Ushortcyrillic" unicode="&#x40e;" 
d="M309 -11q-127 0 -257 28l28 268q128 -28 207 -27q78 0 131 32t77 121l13 45h-132l-320 1033h350l205 -687l210 687h354l-369 -1154q-58 -175 -180 -261q-123 -85 -317 -85zM616 1663q-195 -1 -328 99t-130 323l306 19q-2 -123 30 -175t122 -52q91 0 123 52t30 175
l305 -19q4 -223 -129 -323q-134 -99 -329 -99z" />
    <glyph glyph-name="Dzhecyrillic" unicode="&#x40f;" 
d="M436 -279v279h-341v1489h359v-1221h324v1221h360v-1489h-341v-279h-361z" />
    <glyph glyph-name="Acyrillic" unicode="&#x410;" 
d="M868 0l-67 344h-373l-76 -344h-322l365 1489h445l365 -1489h-337zM747 613l-121 614l-136 -614h257z" />
    <glyph glyph-name="Becyrillic" unicode="&#x411;" 
d="M454 268h186q86 0 124 43t38 134v60q0 89 -38 130t-124 41h-186v-408zM95 0v1489h972v-268h-613v-281h220q235 0 361.5 -106t126.5 -302v-100q0 -207 -126.5 -319.5t-359.5 -112.5h-581z" />
    <glyph glyph-name="Vecyrillic" unicode="&#x412;" 
d="M454 251h138q99 1 140 37t41 122v93q0 86 -41 121t-140 35h-138v-408zM454 890h144q78 0 110 31t33 101v86q0 70 -33 100t-110 30h-144v-348zM1134 391q0 -391 -497 -391h-542v1489h549q456 0 454 -350v-65q0 -118 -50 -178t-162 -81v-54q120 -13 184 -87t64 -186v-97z
" />
    <glyph glyph-name="Gecyrillic" unicode="&#x413;" 
d="M190 0v1489h983v-268h-624v-1221h-359z" />
    <glyph glyph-name="Decyrillic" unicode="&#x414;" 
d="M339 0v-279h-322v547h126q35 28 52 95t19 210l11 916h821v-1221h134v-547h-322v279h-519zM471 268h253v953h-184l-4 -653q-4 -194 -65 -263v-37z" />
    <glyph glyph-name="Iecyrillic" unicode="&#x415;" 
d="M95 0v1489h1039v-268h-680v-294h594v-268h-594v-391h680v-268h-1039z" />
    <glyph glyph-name="Zhecyrillic" unicode="&#x416;" 
d="M492 883v606h249v-606h60l109 606h276l-156 -646l150 -843h-270l-96 650h-73v-650h-249v650h-73l-99 -650h-268l168 851l-173 638h275l110 -606h60z" />
    <glyph glyph-name="Zecyrillic" unicode="&#x417;" 
d="M775 478q0 170 -170 170h-179v262h179q71 0 103.5 25.5t32.5 97.5v79q0 74 -30.5 103t-96.5 29t-98 -37.5t-41 -128.5l-360 19q13 209 135 310t366 101t364 -86.5t120 -274.5v-49q0 -121 -68.5 -195t-180.5 -89v-54q121 -13 202 -98t81 -221v-46q0 -214 -122 -314
t-389 -100t-397.5 110t-143.5 339l359 19q13 -123 55 -163t127 -40t118.5 39t33.5 119v74z" />
    <glyph glyph-name="Iicyrillic" unicode="&#x418;" 
d="M823 0v990l-315 -990h-413v1489h315v-1051l342 1051h386v-1489h-315z" />
    <glyph glyph-name="Iishortcyrillic" unicode="&#x419;" 
d="M823 0v990l-315 -990h-413v1489h315v-1051l342 1051h386v-1489h-315zM614 1663q-195 -1 -328 99t-130 323l306 19q-2 -123 30 -175t122 -52t123 52q32 52 30 175l305 -19q4 -223 -129 -323q-134 -99 -329 -99z" />
    <glyph glyph-name="Kacyrillic" unicode="&#x41a;" 
d="M454 633v-633h-359v1489h359v-588h69l304 588h366l-409 -687l404 -802h-359l-300 633h-75z" />
    <glyph glyph-name="Elcyrillic" unicode="&#x41b;" 
d="M145 259q77 0 80 205l8 1025h905v-1489h-360v1221h-192l-3 -780q-4 -467 -374 -467q-54 0 -189 33l36 270q57 -18 89 -18z" />
    <glyph glyph-name="Emcyrillic" unicode="&#x41c;" 
d="M84 0v1489h324l214 -688l210 688h317v-1489h-315l39 946l-145 -490h-220l-151 508l41 -964h-314z" />
    <glyph glyph-name="Encyrillic" unicode="&#x41d;" 
d="M95 0v1489h359v-528h324v528h360v-1489h-360v693h-324v-693h-359z" />
    <glyph glyph-name="Ocyrillic" unicode="&#x41e;" 
d="M458 499q0 -141 36 -195t123 -55q87 0 122 54t36 196v484q1 143 -35 200t-123 57t-123 -57t-36 -200v-484zM616 -19q-253 1 -385 129t-132 355v552q0 229 133 360t385 131q253 0 385 -131t132 -360v-552q0 -227 -132 -355t-386 -129z" />
    <glyph glyph-name="Pecyrillic" unicode="&#x41f;" 
d="M95 0v1489h1043v-1489h-360v1221h-324v-1221h-359z" />
    <glyph glyph-name="Ercyrillic" unicode="&#x420;" 
d="M454 722h159q80 0 121 33t41 131v162q0 101 -41 137t-121 36h-159v-499zM95 0v1489h538q233 0 366 -101t133 -314v-221q0 -207 -130 -301t-367 -94h-181v-458h-359z" />
    <glyph glyph-name="Escyrillic" unicode="&#x421;" 
d="M99 1007q0 501 543 501q272 0 396 -127t137 -411l-360 -19q-9 177 -44 233t-133 56t-139 -61t-41 -207v-464q0 -140 40 -200t139 -59q99 0 133 54t45 228l360 -19q-11 -281 -137 -406t-398 -125q-541 0 -541 494v532z" />
    <glyph glyph-name="Tecyrillic" unicode="&#x422;" 
d="M436 0v1221h-375v268h1112v-268h-376v-1221h-361z" />
    <glyph glyph-name="Ucyrillic" unicode="&#x423;" 
d="M282 259q83 0 136 31.5t77 120.5l13 45h-132l-320 1033h350l205 -687l210 687h354l-369 -1154q-115 -346 -497 -346q-117 0 -257 28l28 268q119 -26 202 -26z" />
    <glyph glyph-name="Efcyrillic" unicode="&#x424;" 
d="M361 640q0 -221 95 -221h26v652h-26q-95 0 -95 -229v-202zM869 842q0 229 -87 229h-34v-652h34q87 0 87 221v202zM769 168h-13v-187h-281v187h-13q-188 0 -288.5 125.5t-100.5 346.5v202q0 225 101.5 352.5t289.5 127.5h11v186h281v-186h13q188 0 289.5 -127.5
t101.5 -352.5v-202q0 -222 -101.5 -347t-289.5 -125z" />
    <glyph glyph-name="Khacyrillic" unicode="&#x425;" 
d="M821 0l-214 438l-207 -438h-340l391 769l-349 720h365l183 -379l182 379h339l-365 -718l361 -771h-346z" />
    <glyph glyph-name="Tsecyrillic" unicode="&#x426;" 
d="M864 -279v279h-769v1489h359v-1221h276v1221h361v-1221h132v-547h-359z" />
    <glyph glyph-name="Checyrillic" unicode="&#x427;" 
d="M445 938q0 -203 162 -203h162v754h359v-1489h-359v471h-162q-266 0 -393.5 113.5t-127.5 350.5v554h359v-551z" />
    <glyph glyph-name="Shacyrillic" unicode="&#x428;" 
d="M71 0v1489h292v-1238h112v1238h281v-1238h113v1238h293v-1489h-1091z" />
    <glyph glyph-name="Shchacyrillic" unicode="&#x429;" 
d="M1233 -363h-300v363h-862v1489h292v-1238h112v1238h281v-1238h113v1238h293v-1238h71v-614z" />
    <glyph glyph-name="Hardsigncyrillic" unicode="&#x42a;" 
d="M577 268h75q78 0 111.5 40t33.5 135v157q0 93 -33.5 130t-111.5 37h-75v-499zM1147 410q0 -410 -445 -410h-475v1221h-210v268h560v-458h127q443 0 443 -385v-236z" />
    <glyph glyph-name="Yericyrillic" unicode="&#x42b;" 
d="M365 251h28q52 0 74.5 39.5t22.5 135.5v190q0 93 -22.5 131.5t-74.5 38.5h-28v-535zM868 0v1489h290v-1489h-290zM771 393q0 -393 -374 -393h-323v1489h291v-458h33q373 0 373 -368v-270z" />
    <glyph glyph-name="Softsigncyrillic" unicode="&#x42c;" 
d="M454 268h175q106 0 153 39t47 132v166q0 89 -47 125.5t-153 36.5h-175v-499zM95 0v1489h359v-458h239q244 0 370.5 -96.5t126.5 -284.5v-244q0 -199 -127 -302.5t-372 -103.5h-596z" />
    <glyph glyph-name="Ereversedcyrillic" unicode="&#x42d;" 
d="M607 1508q544 0 544 -501v-532q0 -244 -137 -369t-405 -125t-395.5 127t-139.5 404l360 19q11 -171 43.5 -226.5t140.5 -55.5t139.5 62.5t31.5 196.5v151h-240v268h240v45q0 151 -38 209.5t-139 58.5t-135 -58.5t-43 -230.5l-360 19q11 279 139 408.5t394 129.5z" />
    <glyph glyph-name="IUcyrillic" unicode="&#x42e;" 
d="M816 249q34 0 43.5 34t9.5 110v696q0 78 -9.5 114.5t-43.5 36.5t-43.5 -36.5t-9.5 -114.5v-696q0 -76 9.5 -110t43.5 -34zM818 -19q-167 0 -254 109t-87 303v266h-116v-659h-290v1489h290v-562h116v162q0 195 88 307t255 112t254.5 -111.5t87.5 -307.5v-696
q0 -194 -88.5 -303t-255.5 -109z" />
    <glyph glyph-name="IAcyrillic" unicode="&#x42f;" 
d="M123 948v132q0 201 113.5 305t329.5 104h572v-1489h-360v527h-89l-246 -527h-374l270 568q-216 96 -216 380zM626 795h152v426h-152q-91 0 -126.5 -35t-35.5 -127v-102q0 -91 35.5 -126.5t126.5 -35.5z" />
    <glyph glyph-name="acyrillic" unicode="&#x430;" 
d="M394 -19q-132 -1 -222 89t-90 242t101 232q101 82 281 82h229v135q-1 77 -37 105t-106 28t-104 -33t-49 -124l-289 47q38 194 140 273t328 79t341 -90q116 -90 116 -279v-419q0 -74 39 -92t110 -7v-242q-286 -69 -357 155h-54q-53 -74 -149 -128t-228 -53zM404 315
q0 -116 104 -116q92 0 185 58v188h-194q-51 0 -73 -26t-22 -104z" />
    <glyph glyph-name="becyrillic" unicode="&#x431;" 
d="M614.5 233q78.5 0 110 40t31.5 120v218q0 71 -31.5 106t-110 35t-110 -35.5t-31.5 -105.5v-218q0 -80 31.5 -120t110 -40zM786 1005q143 0 238 -97.5t95 -259.5v-235q0 -214 -130.5 -323t-371.5 -109t-372 119.5t-131 357.5v372q0 309 120 464.5t380 181.5l414 43
l26 -275l-384 -43q-106 -13 -157 -73.5t-53 -183.5l-4 -114h39q92 175 291 175z" />
    <glyph glyph-name="vecyrillic" unicode="&#x432;" 
d="M454 229h185q95 0 132 32.5t37 90.5v19q0 56 -35.5 85.5t-139.5 29.5h-179v-257zM454 668h179q78 0 111.5 20.5t33.5 84.5v26q0 58 -29.5 82t-109.5 24h-185v-237zM114 0v1117h506q231 0 365 -63.5t134 -211.5v-43q0 -93 -63.5 -147t-172.5 -62v-41q134 -9 200 -74
t66 -153v-35q0 -138 -118.5 -212.5t-410.5 -74.5h-506z" />
    <glyph glyph-name="gecyrillic" unicode="&#x433;" 
d="M181 0v1117h899v-268h-540v-849h-359z" />
    <glyph glyph-name="decyrillic" unicode="&#x434;" 
d="M371 0v-279h-323v547h103q34 28 50.5 92t18.5 204l11 553h819v-849h134v-547h-322v279h-491zM467 268h261v581h-186l-6 -290q-3 -141 -69 -250v-41z" />
    <glyph glyph-name="iecyrillic" unicode="&#x435;" 
d="M473 758v-88h287v77q0 97 -29 135t-115 38t-114 -36t-29 -126zM473 372q0 -166 157 -166q83 0 133 27q50 26 84 108l292 -78q-61 -157 -173 -219t-336 -62t-370 106t-146 309v327q0 192 134 302t370 110t368 -112t133 -311v-225h-646v-116z" />
    <glyph glyph-name="zhecyrillic" unicode="&#x436;" 
d="M492 689v428h249v-428h43l141 428h294l-208 -499l208 -618h-288l-121 473h-69v-473h-249v473h-75l-125 -473h-279l205 620l-211 497h285l151 -428h49z" />
    <glyph glyph-name="zecyrillic" unicode="&#x437;" 
d="M636 -19q-262 0 -384 94t-135 297l321 13q13 -114 52 -152.5t139 -38.5t130 40t30 109v18q0 61 -27.5 94t-139.5 33h-78v182h78q74 0 106 23.5t32 92.5v26q0 61 -29 86t-109 25t-112 -35t-43 -136l-320 15q15 192 131 280.5t360 88.5t362.5 -71t118.5 -227v-43
q0 -91 -63.5 -143t-172.5 -60v-41q134 -9 200 -73.5t66 -151.5v-36q0 -160 -125.5 -234.5t-387.5 -74.5z" />
    <glyph glyph-name="iicyrillic" unicode="&#x438;" 
d="M815 0v691l-342 -691h-359v1117h303v-750l372 750h330v-1117h-304z" />
    <glyph glyph-name="iishortcyrillic" unicode="&#x439;" 
d="M815 0v691l-342 -691h-359v1117h303v-750l372 750h330v-1117h-304zM616 1290q-195 0 -328 100t-130 323l306 18q-2 -123 30 -175t122 -52q91 0 123 52t30 175l305 -18q4 -223 -130 -323t-328 -100z" />
    <glyph glyph-name="kacyrillic" unicode="&#x43a;" 
d="M484 462v-462h-361v1117h361v-423h60l255 423h365l-322 -504l316 -613h-380l-234 462h-60z" />
    <glyph glyph-name="elcyrillic" unicode="&#x43b;" 
d="M1138 1117v-1117h-360v866h-216l-2 -442q-2 -229 -89 -339.5t-266 -110.5q-58 0 -190 33l35 254q60 -19 92 -19q76 0 80 205l7 670h909z" />
    <glyph glyph-name="emcyrillic" unicode="&#x43c;" 
d="M97 0v1117h320l205 -534l201 534h313v-1117h-306l39 642l-141 -363h-220l-149 374l43 -653h-305z" />
    <glyph glyph-name="encyrillic" unicode="&#x43d;" 
d="M114 0v1117h359v-374h287v374h359v-1117h-359v475h-287v-475h-359z" />
    <glyph glyph-name="ocyrillic" unicode="&#x43e;" 
d="M475 417q-1 -99 33 -141t109 -43q75 0 109 41t34 134v296q0 95 -34 138q-34 42 -109 42t-109 -42t-33 -136v-289zM1119 384q0 -188 -134 -296t-368 -107q-235 0 -369 109t-134 301v328q0 193 135 305t369 112t368 -114q133 -114 133 -313v-325z" />
    <glyph glyph-name="pecyrillic" unicode="&#x43f;" 
d="M114 0v1117h1005v-1117h-359v849h-287v-849h-359z" />
    <glyph glyph-name="ercyrillic" unicode="&#x440;" 
d="M698 -11q-127 0 -225 43v-404h-359v1489h359v-190h52q34 97 115 153t203 56t199 -94t77 -258v-389q1 -188 -113 -297t-308 -109zM638 236q122 0 122 161v322q0 76 -31 112t-79 37q-87 0 -177 -92v-489q43 -23 76 -37t89 -14z" />
    <glyph glyph-name="escyrillic" unicode="&#x441;" 
d="M637 -19q-255 0 -389 111t-134 316v307q0 199 135 310t374 111t354 -107t142 -310l-346 -28q-9 108 -43 150t-114 42t-112 -42t-31 -150v-267q1 -108 33 -150t113 -41q81 -1 114 33t40 123l346 -28q-13 -186 -120 -283t-362 -97z" />
    <glyph glyph-name="tecyrillic" unicode="&#x442;" 
d="M436 0v849h-335v268h1031v-268h-335v-849h-361z" />
    <glyph glyph-name="ucyrillic" unicode="&#x443;" 
d="M354 -393q-93 0 -280 21l15 251q148 -26 241 -27t145 44t82 171h-239l-268 1050h363l201 -828l216 828h350l-309 -1098q-65 -222 -182 -317t-335 -95z" />
    <glyph glyph-name="efcyrillic" unicode="&#x444;" 
d="M767 901h-35v-687h35q41 0 73.5 34.5t32.5 120.5v378q0 84 -32.5 119t-73.5 35zM465 214h36v687h-36q-41 0 -73.5 -35.5t-32.5 -118.5v-378q0 -86 32.5 -120.5t73.5 -34.5zM799 0h-39v-372h-287v372h-39q-168 0 -262 97t-94 270v387q0 171 94 267t262 96h39v372h287v-372
h39q168 0 261.5 -96t93.5 -267v-389q0 -171 -93.5 -268t-261.5 -97z" />
    <glyph glyph-name="khacyrillic" unicode="&#x445;" 
d="M799 0l-198 317l-178 -317h-352l372 572l-341 545h356l169 -268l144 268h354l-334 -532l367 -585h-359z" />
    <glyph glyph-name="tsecyrillic" unicode="&#x446;" 
d="M871 -279v279h-757v1117h359v-849h266v849h361v-849h114v-547h-343z" />
    <glyph glyph-name="checyrillic" unicode="&#x447;" 
d="M612 570q76 0 138 26v521h360v-1117h-360v331q-101 -26 -195 -26q-225 0 -340.5 114.5t-115.5 338.5v359h359v-356q0 -106 39 -148.5t115 -42.5z" />
    <glyph glyph-name="shacyrillic" unicode="&#x448;" 
d="M78 0v1117h281v-868h118v868h279v-868h117v868h281v-1117h-1076z" />
    <glyph glyph-name="shchacyrillic" unicode="&#x449;" 
d="M1216 -279h-283v279h-855v1117h281v-868h118v868h279v-868h117v868h281v-868h62v-528z" />
    <glyph glyph-name="hardsigncyrillic" unicode="&#x44a;" 
d="M635 251h72q63 0 92.5 28t29.5 93v77q0 63 -29 87t-93 24h-72v-309zM758 0h-482v849h-257v268h616v-309h126q201 0 315 -94t114 -262v-104q0 -164 -114.5 -256t-317.5 -92z" />
    <glyph glyph-name="yericyrillic" unicode="&#x44b;" 
d="M365 235h32q56 0 82.5 27.5t26.5 102.5v125q0 73 -27 98t-82 25h-32v-378zM868 0v1117h290v-1117h-290zM74 0v1117h291v-275h33q175 0 273 -80.5t98 -225.5v-205q0 -156 -98 -243.5t-274 -87.5h-323z" />
    <glyph glyph-name="softsigncyrillic" unicode="&#x44c;" 
d="M462 251h152q84 0 124 25.5t40 94.5v63q0 69 -40 97.5t-124 28.5h-152v-309zM101 0v1117h361v-309h210q222 0 344.5 -95t122.5 -268v-91q0 -168 -122.5 -261t-346.5 -93h-569z" />
    <glyph glyph-name="ereversedcyrillic" unicode="&#x44d;" 
d="M599 -19q-250 0 -370.5 90.5t-133.5 284.5l348 28q7 -101 35 -138t122 -37t127 43.5t33 147.5v78h-257v200h257v48q0 101 -32 142t-120 41t-122.5 -32t-42.5 -119l-348 28q24 182 144.5 266t360.5 84t379.5 -106.5t139.5 -314.5v-305q0 -205 -135 -317t-385 -112z" />
    <glyph glyph-name="iucyrillic" unicode="&#x44e;" 
d="M816 216q33 0 43 30.5t10 90.5v436q0 63 -10 95.5t-43 32.5t-43 -32.5t-10 -95.5v-436q0 -60 10 -90.5t43 -30.5zM818 -19q-167 0 -254 94t-87 262v153h-118v-490h-288v1117h288v-393h118v49q0 169 88 266t255 97t254.5 -97t87.5 -266v-436q0 -168 -88.5 -262t-255.5 -94
z" />
    <glyph glyph-name="iacyrillic" unicode="&#x44f;" 
d="M151 706v57q0 169 96 261.5t269 92.5h603v-1117h-359v341h-92l-191 -341h-378l219 384q-167 84 -167 322zM613 575h147v308h-147q-50 0 -75.5 -26.5t-25.5 -106.5v-41q0 -86 25.5 -110t75.5 -24z" />
    <glyph glyph-name="iegravecyrillic" unicode="&#x450;" 
d="M473 758v-88h287v77q0 97 -29 135t-115 38t-114 -36t-29 -126zM473 372q0 -166 157 -166q83 0 133 27q50 26 84 108l292 -78q-61 -157 -173 -219t-336 -62t-370 106t-146 309v327q0 192 134 302t370 110t368 -112t133 -311v-225h-646v-116zM590 1303l-391 373h445
l177 -373h-231z" />
    <glyph glyph-name="iocyrillic" unicode="&#x451;" 
d="M473 758v-88h287v77q0 97 -29 135t-115 38t-114 -36t-29 -126zM473 372q0 -166 157 -166q83 0 133 27q50 26 84 108l292 -78q-61 -157 -173 -219t-336 -62t-370 106t-146 309v327q0 192 134 302t370 110t368 -112t133 -311v-225h-646v-116zM1015 1426q0 -138 -173 -138
t-174 138v26q0 144 173 144t174 -144v-26zM564 1426q0 -138 -173 -138t-173 138v26q0 144 173 144t173 -144v-26z" />
    <glyph glyph-name="djecyrillic" unicode="&#x452;" 
d="M760 594q0 147 -97 147t-190 -145v-596h-359v1123h-172v182h172v184h359v-184h266v-182h-266v-322h52q39 97 120 152.5t197 55.5t196.5 -85.5t80.5 -238.5v-702q0 -188 -130 -281t-309 -93q-106 0 -237 43l34 229q113 -36 154 -36q129 0 129 170v579z" />
    <glyph glyph-name="gjecyrillic" unicode="&#x453;" 
d="M380 1303l175 373h447l-391 -373h-231zM181 0v1117h899v-268h-540v-849h-359z" />
    <glyph glyph-name="ecyrillic" unicode="&#x454;" 
d="M636 -19q-248 0 -385 112t-137 317v305q0 207 141.5 314t380.5 107t358 -84t144 -266l-347 -28q-7 86 -42 118.5t-123 32.5t-120.5 -41t-32.5 -142v-58h300v-182h-300v-86q0 -106 33.5 -148.5t124.5 -42.5t122 37t38 138l347 -28q-13 -194 -133.5 -284.5t-368.5 -90.5z
" />
    <glyph glyph-name="dzecyrillic" unicode="&#x455;" 
d="M631 914q-130 0 -128 -95q0 -54 51 -78t185 -54q199 -39 287 -115t89 -231q0 -155 -132 -253t-378 -99q-138 0 -270 37t-223 95l76 214q101 -58 216 -92t207 -34q145 0 145 102q0 58 -36 84t-139 48q-220 39 -328 110t-108 229t125 256t349 98t424 -116l-58 -203
q-192 97 -354 97z" />
    <glyph glyph-name="icyrillic.salt_serifs" unicode="&#xe02e;" 
d="M797 251h300v-251h-661v866h-300v251h661v-866zM843 1426q0 -138 -227 -138t-227 138v26q0 144 227 144t227 -144v-26z" />
    <glyph glyph-name="icyrillic.salt_serifs" unicode="&#x456;" 
d="M797 251h300v-251h-661v866h-300v251h661v-866zM843 1426q0 -138 -227 -138t-227 138v26q0 144 227 144t227 -144v-26z" />
    <glyph glyph-name="yicyrillic.salt_serifs" unicode="&#xe02f;" 
d="M797 251h300v-251h-661v866h-300v251h661v-866zM1020 1426q0 -138 -173 -138t-173 138v26q0 144 173 144t173 -144v-26zM570 1426q0 -138 -173 -138t-174 138v26q0 144 173 144t174 -144v-26z" />
    <glyph glyph-name="yicyrillic.salt_serifs" unicode="&#x457;" 
d="M797 251h300v-251h-661v866h-300v251h661v-866zM1020 1426q0 -138 -173 -138t-173 138v26q0 144 173 144t173 -144v-26zM570 1426q0 -138 -173 -138t-174 138v26q0 144 173 144t174 -144v-26z" />
    <glyph glyph-name="jecyrillic" unicode="&#x458;" 
d="M358 -155q116 0 174 42q57 42 56 139v840h-419v251h779v-1121q0 -179 -142 -283t-366 -104q-225 0 -343 43l33 229q112 -36 228 -36zM977 1426q0 -138 -227 -138t-227 138v26q0 144 227 144t227 -144v-26z" />
    <glyph glyph-name="ljecyrillic" unicode="&#x459;" 
d="M773 218h39q41 0 57.5 32.5t16.5 112.5v112q0 67 -16.5 94t-57.5 27h-39v-378zM773 1117v-309h91q138 0 213 -80t75 -225v-159q0 -164 -75 -254t-215 -90h-356v899h-124l-2 -661q0 -117 -69 -182t-192 -65q-57 0 -128 16l33 239q18 -8 40 -8q50 0 53 84l6 795h650z" />
    <glyph glyph-name="njecyrillic" unicode="&#x45a;" 
d="M346 525v-525h-266v1117h266v-357h160v357h269v-275h94q136 0 210.5 -77.5t74.5 -217.5v-229q0 -151 -75 -234.5t-213 -83.5h-360v525h-160zM775 218h37q43 0 59.5 29.5t16.5 104.5v149q0 71 -16.5 99.5t-59.5 28.5h-37v-411z" />
    <glyph glyph-name="tshecyrillic" unicode="&#x45b;" 
d="M667 741q-97 0 -194 -153v-588h-359v1123h-172v182h172v184h359v-184h266v-182h-266v-322h52q39 99 120 153t198 55q117 0 197 -89t79 -235v-685h-359v588q0 74 -24 114t-69 39z" />
    <glyph glyph-name="kjecyrillic" unicode="&#x45c;" 
d="M492 1303l175 373h446l-391 -373h-230zM484 462v-462h-361v1117h361v-423h60l255 423h365l-322 -504l316 -613h-380l-234 462h-60z" />
    <glyph glyph-name="igravecyrillic" unicode="&#x45d;" 
d="M620 1303l-391 373h445l177 -373h-231zM815 0v691l-342 -691h-359v1117h303v-750l372 750h330v-1117h-304z" />
    <glyph glyph-name="ushortcyrillic" unicode="&#x45e;" 
d="M354 -393q-93 0 -280 21l15 251q148 -26 241 -27t145 44t82 171h-239l-268 1050h363l201 -828l216 828h350l-309 -1098q-65 -222 -182 -317t-335 -95zM616 1290q-195 0 -328 100t-130 323l306 18q-2 -123 30 -175t122 -52q91 0 123 52t30 175l305 -18q4 -223 -130 -323
t-328 -100z" />
    <glyph glyph-name="dzhecyrillic" unicode="&#x45f;" 
d="M445 -279v279h-331v1117h359v-849h287v849h359v-1117h-331v-279h-343z" />
    <glyph glyph-name="Gheupturncyrillic" unicode="&#x490;" 
d="M190 0v1489h622v280h361v-548h-624v-1221h-359z" />
    <glyph glyph-name="gheupturncyrillic" unicode="&#x491;" 
d="M181 0v1117h556v279h343v-547h-540v-849h-359z" />
    <glyph glyph-name="Wgrave" unicode="&#x1e80;" 
d="M579 1676l-391 372h445l177 -372h-231zM724 0l-104 640l-102 -640h-311l-175 1489h301l58 -1078l106 706h235l110 -670l57 1042h302l-175 -1489h-302z" />
    <glyph glyph-name="wgrave" unicode="&#x1e81;" 
d="M581 1303l-391 373h445l177 -373h-231zM748 0l-132 532l-124 -532h-308l-156 1117h302l78 -711l108 508h193l121 -501l73 704h302l-155 -1117h-302z" />
    <glyph glyph-name="Wacute" unicode="&#x1e82;" 
d="M382 1676l175 372h447l-391 -372h-231zM724 0l-104 640l-102 -640h-311l-175 1489h301l58 -1078l106 706h235l110 -670l57 1042h302l-175 -1489h-302z" />
    <glyph glyph-name="wacute" unicode="&#x1e83;" 
d="M478 1303l175 373h447l-391 -373h-231zM748 0l-132 532l-124 -532h-308l-156 1117h302l78 -711l108 508h193l121 -501l73 704h302l-155 -1117h-302z" />
    <glyph glyph-name="Wdieresis" unicode="&#x1e84;" 
d="M1033 1799q0 -138 -173 -138q-76 0 -125 30q-48 31 -48 108v26q0 143 173 143t173 -143v-26zM583 1799q0 -138 -173 -138q-76 0 -125 30q-48 31 -49 108v26q0 143 173 143t174 -143v-26zM724 0l-104 640l-102 -640h-311l-175 1489h301l58 -1078l106 706h235l110 -670
l57 1042h302l-175 -1489h-302z" />
    <glyph glyph-name="wdieresis" unicode="&#x1e85;" 
d="M1033 1426q0 -138 -173 -138t-173 138v26q0 144 173 144t173 -144v-26zM583 1426q0 -138 -173 -138t-174 138v26q0 144 173 144t174 -144v-26zM748 0l-132 532l-124 -532h-308l-156 1117h302l78 -711l108 508h193l121 -501l73 704h302l-155 -1117h-302z" />
    <glyph glyph-name="Ygrave" unicode="&#x1ef2;" 
d="M797 0h-361v559l-393 930h355l216 -603l220 603h354l-391 -930v-559zM581 1676l-391 372h445l177 -372h-231z" />
    <glyph glyph-name="ygrave" unicode="&#x1ef3;" 
d="M354 -393q-93 0 -280 21l15 251q148 -26 241 -27t145 44t82 171h-239l-268 1050h363l201 -828l216 828h350l-309 -1098q-65 -222 -182 -317t-335 -95zM581 1303l-391 373h445l177 -373h-231z" />
    <glyph glyph-name="uni2000" unicode="&#x2000;" 
 />
    <glyph glyph-name="uni2001" unicode="&#x2001;" 
 />
    <glyph glyph-name="uni2002" unicode="&#x2002;" 
 />
    <glyph glyph-name="uni2003" unicode="&#x2003;" 
 />
    <glyph glyph-name="uni2004" unicode="&#x2004;" 
 />
    <glyph glyph-name="uni2005" unicode="&#x2005;" 
 />
    <glyph glyph-name="uni2007" unicode="&#x2007;" 
 />
    <glyph glyph-name="uni2009" unicode="&#x2009;" 
 />
    <glyph glyph-name="uni200A" unicode="&#x200a;" 
 />
    <glyph glyph-name="uni200B" unicode="&#x200b;" horiz-adv-x="0" 
 />
    <glyph glyph-name="endash" unicode="&#x2013;" 
d="M76 508v304h1080v-304h-1080z" />
    <glyph glyph-name="emdash" unicode="&#x2014;" 
d="M19 508v304h1195v-304h-1195z" />
    <glyph glyph-name="horizontalbar" unicode="&#x2015;" 
d="M19 508v304h1195v-304h-1195z" />
    <glyph glyph-name="underscoredbl" unicode="&#x2017;" 
d="M119 0v303h994v-303h-994zM119 -529v304h994v-304h-994z" />
    <glyph glyph-name="quoteright" unicode="&#x2019;" 
d="M292 661l159 828h499l-434 -828h-224z" />
    <glyph glyph-name="quotesinglbase" unicode="&#x201a;" 
d="M318 -289l125 829h499l-398 -829h-226z" />
    <glyph glyph-name="quotereversed" unicode="&#x201b;" 
d="M700 661l-434 828h501l158 -828h-225z" />
    <glyph glyph-name="quotedblleft" unicode="&#x201c;" 
d="M37 661l410 828h201l-147 -828h-464zM609 661l396 828h201l-134 -828h-463z" />
    <glyph glyph-name="quotedblright" unicode="&#x201d;" 
d="M26 661l136 828h462l-395 -828h-203zM585 661l147 828h463l-409 -828h-201z" />
    <glyph glyph-name="quotedblbase" unicode="&#x201e;" 
d="M-74 -289l135 829h462l-395 -829h-202zM484 -289l147 829h464l-410 -829h-201z" />
    <glyph glyph-name="dagger" unicode="&#x2020;" 
d="M464 -372v1238h-105l-56 -408h-242l51 659h352l-17 372h339l-17 -372h352l52 -659h-244l-56 408h-104v-1238h-305z" />
    <glyph glyph-name="daggerdbl" unicode="&#x2021;" 
d="M464 201v715h-114l-67 -227h-233l52 478h358l-13 322h339l-13 -322h357l52 -478h-232l-67 227h-114v-715h114l67 227h232l-52 -478h-357l13 -322h-339l13 322h-358l-52 478h233l67 -227h114z" />
    <glyph glyph-name="bullet" unicode="&#x2022;" 
d="M616 439q-126 0 -205.5 57t-79.5 178v134q0 123 79.5 181.5t208 58.5t206.5 -58.5t78 -181.5v-134q0 -121 -80.5 -178t-206.5 -57z" />
    <glyph glyph-name="ellipsis" unicode="&#x2026;" 
d="M208 -17q-60 0 -99.5 38.5t-39.5 118.5v244q0 82 39 121t101 39t100.5 -39.5t38.5 -120.5v-244q0 -80 -40 -118.5t-100 -38.5zM615 -17q-62 0 -100 38.5t-38 118.5v244q0 82 38 121t101.5 39t101.5 -39.5t38 -120.5v-244q0 -80 -39.5 -118.5t-101.5 -38.5zM1024 -17
q-61 0 -100.5 38.5t-39.5 118.5v244q0 82 39.5 121t101.5 39t101 -39.5t39 -120.5v-244q0 -80 -40 -118.5t-101 -38.5z" />
    <glyph glyph-name="perthousand" unicode="&#x2030;" 
d="M1005 313q0 100 -51 100t-51 -100v-82q0 -97 51 -97t51 97v82zM707 313q0 100 -51 100t-51 -100v-82q0 -97 51 -97t51 97v82zM962 596q108 0 170.5 -72t62.5 -221v-55q0 -147 -62.5 -218t-170.5 -71t-158 104q-56 -104 -178 -104q-95 0 -153 71t-58 218v55
q0 149 64.5 221t172.5 72t154 -103q48 103 156 103zM1210 1072l-1087 -681l-89 147l1079 678zM322 1344q-69 0 -69 -100v-101q0 -97 69 -97t69 97v101q0 100 -69 100zM322 871q-128 0 -206.5 71t-78.5 218v74q0 149 78.5 221t206.5 72t206.5 -72t78.5 -221v-74
q0 -147 -78.5 -218t-206.5 -71z" />
    <glyph glyph-name="minute" unicode="&#x2032;" 
d="M302 661l158 828h499l-434 -828h-223z" />
    <glyph glyph-name="second" unicode="&#x2033;" 
d="M-74 661l135 828h462l-395 -828h-202zM484 661l147 828h464l-410 -828h-201z" />
    <glyph glyph-name="guilsinglleft" unicode="&#x2039;" 
d="M968 52l-702 423v354l702 422v-311l-478 -288l478 -289v-311z" />
    <glyph glyph-name="guilsinglright" unicode="&#x203a;" 
d="M266 52v311l479 289l-479 288v311l702 -422v-354z" />
    <glyph glyph-name="exclamdbl" unicode="&#x203c;" 
d="M536 138q0 -157 -221.5 -157t-221.5 157v52q-1 160 221 160t222 -160v-52zM1165 138q1 -157 -221 -157t-222 157v52q0 160 222 160t221 -160v-52zM179 559l-51 930h352l-52 -930h-249zM808 559l-50 930h352l-51 -930h-251z" />
    <glyph glyph-name="overline" unicode="&#x203e;" 
d="M119 1558v304h994v-304h-994z" />
    <glyph glyph-name="fraction" unicode="&#x2215;" 
d="M132 0l683 1489h285l-683 -1489h-285z" />
    <glyph glyph-name="fraction" unicode="&#x2044;" 
d="M132 0l683 1489h285l-683 -1489h-285z" />
    <glyph glyph-name="zero.sups" unicode="&#x2070;" 
d="M615 735q83 0 103.5 55t20.5 173v124q0 117 -20.5 175t-103.5 58t-103 -57.5t-20 -175.5v-124q0 -117 20 -172.5t103 -55.5zM614 555q-188 0 -290 99.5t-102 280.5v180q0 184 103 285t291 101t290.5 -100.5t102.5 -285.5v-180q0 -181 -103.5 -280.5t-291.5 -99.5z" />
    <glyph glyph-name="four.sups" unicode="&#x2074;" 
d="M1067 786h-158v-220h-269v220h-435v180l387 523h317v-523h158v-180zM640 966v278l-208 -278h208z" />
    <glyph glyph-name="five.sups" unicode="&#x2075;" 
d="M668 1190q347 0 347 -254v-117q0 -114 -92.5 -189t-304.5 -75t-309 71.5t-104 241.5l270 11q9 -82 41 -113t106 -31t98.5 26.5t24.5 100.5v24q0 63 -36.5 86.5t-138.5 23.5h-334v493h753v-180h-484v-119h163z" />
    <glyph glyph-name="six.sups" unicode="&#x2076;" 
d="M614.5 735q74.5 0 102.5 28t28 84v15q0 67 -26.5 98.5t-104.5 31.5t-104 -31.5t-26 -98.5v-15q0 -63 28 -87.5t102.5 -24.5zM723 1143q168 0 230 -70.5t62 -204.5v-25q0 -123 -95.5 -205.5t-305.5 -82.5t-304 86.5t-94 242.5v278q0 162 92 250.5t302 88.5t292.5 -71
t101.5 -188l-278 -26q-13 67 -40.5 85.5t-99.5 18.5t-87 -40t-15 -120v-91h11q60 74 228 74z" />
    <glyph glyph-name="seven.sups" unicode="&#x2077;" 
d="M216 1298v191h799v-191q-95 -184 -175 -360.5t-133 -371.5h-279q71 236 144.5 400t172.5 332h-529z" />
    <glyph glyph-name="eight.sups" unicode="&#x2078;" 
d="M484 838q0 -106 130 -106q76 0 103.5 28.5t27.5 77.5v30q0 50 -26.5 79.5t-102.5 29.5t-104 -29.5t-28 -79.5v-30zM505 1205q0 -80 109.5 -80t109.5 80v39q0 47 -31.5 63.5t-109.5 16.5t-78 -80v-39zM236 1264q0 237 280.5 237t378 -55t97.5 -182v-37q0 -69 -45.5 -110
t-114.5 -48v-34q86 -7 134.5 -58.5t48.5 -131.5v-26q0 -125 -86 -194.5t-314 -69.5t-313.5 70.5t-85.5 193.5v26q0 80 48.5 131.5t133.5 58.5v34q-69 7 -115.5 48t-46.5 110v37z" />
    <glyph glyph-name="nine.sups" unicode="&#x2079;" 
d="M614 1501q401 0 401 -330v-277q0 -164 -89.5 -251.5t-303.5 -87.5t-294 68t-103 191l278 26q13 -69 42.5 -87t100.5 -18t85 40t14 121v91h-13q-58 -75 -220 -75t-229 65.5t-67 210.5v24q0 123 95 206t303 83zM616 1063q78 0 103.5 31t25.5 99v15q0 63 -27 87.5
t-101.5 24.5t-102.5 -28t-28 -84v-15q0 -69 26 -99.5t104 -30.5z" />
    <glyph glyph-name="nsuperior" unicode="&#x207f;" 
d="M747 1125q0 150 -80 150q-86 0 -181 -147v-569h-305v930h305v-152h52q71 171 263 171q117 0 184 -98t67 -274v-577h-305v566z" />
    <glyph glyph-name="zero.sinf" unicode="&#x2080;" 
d="M492 397q0 -117 20 -173t103 -55q83 0 104 55q20 55 20 173v124q0 117 -20 175q-19 58 -103 58t-104 -58t-20 -175v-124zM614 -11q-188 -1 -290 99t-102 281v180q0 184 103 285t291 101t290 -101t103 -285v-180q0 -181 -103 -281q-104 -99 -292 -99z" />
    <glyph glyph-name="one.sinf" unicode="&#x2081;" 
d="M302 0v195h232v512h-37q-13 -81 -74 -125t-134 -51l-10 190q76 13 151 64q74 51 108 138h264v-728h213v-195h-713z" />
    <glyph glyph-name="two.sinf" unicode="&#x2082;" 
d="M1005 652v-38q0 -106 -55 -170t-142 -83l-208 -46q-68 -15 -92 -34t-24 -58v-26h531v-195h-799v220q0 215 199 260l209 47q60 13 86 37t25 82v9q0 63 -34 81q-35 18 -87 18t-84 -20t-35 -101l-270 13q7 145 99 217t290 71q391 0 391 -284z" />
    <glyph glyph-name="three.sinf" unicode="&#x2083;" 
d="M1015 253q0 -151 -106 -207t-295 -57q-189 0 -296 71q-106 71 -113 214l270 11q6 -61 41 -81t103 -22q68 0 97 18t29 64v30q0 52 -34 71t-97 19h-197v191h197q58 0 84 15t26 60v15q0 47 -27 61t-93 15q-66 0 -86 -15t-23 -61l-270 11q9 143 108 201t274 58
q175 -1 280 -51t105 -180v-17q0 -83 -46 -129t-116 -57v-34q67 -6 126 -54t59 -143v-17z" />
    <glyph glyph-name="four.sinf" unicode="&#x2084;" 
d="M1067 220h-158v-220h-269v220h-435v180l387 523h317v-523h158v-180zM640 400v278l-208 -278h208z" />
    <glyph glyph-name="five.sinf" unicode="&#x2085;" 
d="M618 -11q-212 0 -309 72t-104 241l270 11q9 -82 41 -113t106 -31t99 26q24 26 24 101v24q-1 62 -37 86t-138 24h-334v493h753v-180h-484v-119h163q347 0 347 -253v-118q0 -114 -92 -189q-93 -75 -305 -75z" />
    <glyph glyph-name="six.sinf" unicode="&#x2086;" 
d="M614 169q74 0 103 28q28 28 28 84v15q0 67 -27 99q-26 31 -104 31t-104 -32t-26 -98v-15q0 -63 28 -87t102 -25zM1015 277q1 -123 -95 -205t-306 -83q-210 1 -304 87t-94 242v278q0 162 92 250t302 88t292 -70q83 -71 102 -188l-278 -26q-13 68 -41 86q-27 18 -99 18
t-87 -40t-15 -120v-91h11q61 76 228 75t229 -72t63 -204v-25z" />
    <glyph glyph-name="seven.sinf" unicode="&#x2087;" 
d="M216 732v191h799v-191q-95 -184 -175 -360t-133 -372h-279q71 236 145 400t172 332h-529z" />
    <glyph glyph-name="eight.sinf" unicode="&#x2088;" 
d="M484 272q0 -106 130 -106q76 0 104 29q27 29 27 77v30q0 50 -27 80q-26 30 -102 30t-104 -30t-28 -80v-30zM505 639q0 -80 110 -80t109 80v39q0 48 -32 64t-78 16q-111 0 -109 -80v-39zM236 698q0 237 378 237q182 0 280 -55t98 -182v-37q0 -69 -46 -110t-114 -48v-34
q86 -7 134 -58t49 -132v-26q0 -125 -86 -195t-314 -69q-227 0 -313 71t-86 193v26q0 79 48 131t134 59v34q-70 7 -116 48t-46 110v37z" />
    <glyph glyph-name="nine.sinf" unicode="&#x2089;" 
d="M614 935q401 0 401 -330v-277q0 -164 -90 -252q-89 -88 -303 -87q-214 0 -294 68t-103 191l278 26q13 -69 43 -87t100 -18t85 40q14 40 14 121v91h-13q-58 -75 -220 -75t-229 65t-67 211v24q0 123 95 206t303 83zM616 497q78 0 104 31q25 31 25 99v15q0 64 -27 88
q-28 24 -102 24t-102 -28t-28 -84v-15q0 -69 26 -99t104 -31z" />
    <glyph glyph-name="franc" unicode="&#x20a3;" 
d="M739 255h-247v-255h-360v255h-171v218h171v1016h1015v-268h-655v-240h536v-268h-536v-240h247v-218z" />
    <glyph glyph-name="lira" unicode="&#x20a4;" 
d="M41 516v182h235l-90 171h-145v183h100q13 217 136 333q125 123 377 123t377 -127q120 -128 134 -385l-335 -19q-12 133 -36 174q-42 70 -126 70t-122 -46q-35 -49 -41 -123h225v-183h-196q5 -11 8.5 -20t5.5 -14.5t8 -19.5t11 -25.5t9 -27.5t10 -31.5t10 -32.5h134v-182
h-138q-49 -107 -179 -160l34 -69q108 58 182 33q43 -16 65 -26q22 -11 57 -11q69 0 94 54q22 44 34 186l335 -18q-14 -254 -123 -389q-110 -135 -305 -135q-64 0 -142 30l-136 67q-76 37 -128 44.5t-99 -27.5l-158 -112l-143 214l186 118q45 31 87 87t56 114h-268z" />
    <glyph glyph-name="peseta" unicode="&#x20a7;" 
d="M1007 268q0 57 -22 105t-73.5 124t-82.5 159q-32 83 -32 180l2 50q2 13 3.5 25t3.5 24h-67v-665q0 -63 13 -91t30 -28h6q5 0 9 2l17 2l26 50q67 -58 108 -58q59 0 59 121zM1000 970q-30 0 -30 -96t32 -161q14 -32 69 -115t82 -148t27 -155q0 -163 -68.5 -238.5
t-163.5 -75.5q-33 0 -88 15q-26 -6 -63 -11l-63 -2q-76 1 -122 69t-46 222v661h-65v-114q0 -300 -205 -300h-33v-521h-192v1489h227q203 0 203 -299v-73h65v372h173v-372h181q28 19 65 19q57 0 99.5 -17t95.5 -61l-78 -146q-53 48 -71 53t-31 5zM326 1182q0 125 -69 125h-13
v-607h13q69 0 69 125v357z" />
    <glyph glyph-name="Euro" unicode="&#x20ac;" 
d="M637 -19q-246 0 -367 124t-121 353v4h-134v178h132v205h-132v179h134v4q0 231 124.5 355.5t368.5 124.5t360.5 -126.5t127.5 -402.5l-303 -18q-11 162 -52 220.5t-142 58.5t-140 -53t-39 -159v-4h263v-179h-266v-205h266v-178h-263v-4q0 -106 40 -157.5t150 -51.5
t141.5 62.5t41.5 209.5l303 -18q-11 -272 -129 -397t-364 -125z" />
    <glyph glyph-name="careof" unicode="&#x2105;" 
d="M810 220q0 -92 70 -92t70 92v111q0 95 -70 95t-70 -95v-111zM577 242v86q0 213 117.5 249.5t223 36.5t185 -72.5t79.5 -213.5v-86q0 -140 -81 -212q-81 -71 -221 -71t-222 71q-81 72 -81 212zM41 391l1030 864l130 -164l-1037 -866zM50 1154v86q0 144 82 216
q82 71 222 71q193 0 234 -84t49 -140l-214 -28q0 28 -19 49q-19 15 -70 15t-51 -95v-112q0 -91 70 -91t70 59l214 -15q-28 -214 -283 -214q-141 0 -223 71q-81 72 -81 212z" />
    <glyph glyph-name="lsquare" unicode="&#x2113;" 
d="M645 465q-87 0 -152 23l-7 -49q-27 -184 140 -184q130 0 324 95l-4 -262q-136 -58 -203 -73q-370 -82 -536 87q-117 130 -79 362l107 681q62 363 487 363q232 0 326 -82t62 -283l-62 -385q-38 -216 -177 -254.5t-226 -38.5zM662.5 707.5q20.5 24.5 33.5 100.5l49 302
q22 130 -56 130q-44 0 -63.5 -23t-35.5 -109l-50 -319q-11 -53 7 -80q14 -26 54 -26q41 0 61.5 24.5z" />
    <glyph glyph-name="numero" unicode="&#x2116;" 
d="M633 259q0 -101 90.5 -101t90.5 101v61q0 90 -90.5 90t-90.5 -90v-61zM723 -19q-165 0 -267 65.5t-102 195.5v95q0 134 102 200t268 66t266.5 -66t100.5 -200v-95q0 -130 -101.5 -195.5t-266.5 -65.5zM441 713h-300v776h352l298 -446v446h300v-776h-380l-270 399v-399z
" />
    <glyph glyph-name="uni2117" unicode="&#x2117;" 
d="M635 689q82 0 82 119v76q0 74 -25 101.5t-57 27.5h-47v-324h47zM964 808q0 -315 -329 -315h-47v-312h-268v1031h317q327 0 327 -328v-76zM616 -88q218 0 314 141.5t96 462.5v339q0 326 -96 468t-314 142t-313.5 -142.5t-95.5 -467.5v-339q0 -320 95.5 -462t313.5 -142z
M1145 478q0 -683 -528.5 -683t-528.5 683v414q0 691 528 691t529 -691v-414z" />
    <glyph glyph-name="trademark" unicode="&#x2122;" 
d="M549 653v836h224l83 -452l82 452h229v-836h-178l35 691l-97 -435h-145l-91 435l37 -691h-179zM136 653v671h-119v165h430v-165h-101v-671h-210z" />
    <glyph glyph-name="Ohm" unicode="&#x2126;" 
d="M441 765q0 -290 127 -337v-428h-486v218h184v167q-184 108 -184 380v218q0 255 137 390t397 135t398 -135q137 -135 137 -390v-218q0 -270 -183 -380v-167h183v-218h-486v428q128 47 126 337v231q0 132 -43 185q-44 53 -132 53t-132 -53t-43 -185v-231z" />
    <glyph glyph-name="estimated" unicode="&#x212e;" 
d="M604 1387q-148 0 -224 -97v-489h460v484q-88 102 -236 102zM67 750q0 316 146 541.5t401 225.5t397.5 -256.5t150.5 -608.5h-782v-447q93 -97 228 -97t226 62.5t155 172.5l82 -112q-153 -253 -462 -253q-246 0 -394 228t-148 544z" />
    <glyph glyph-name="oneeighth" unicode="&#x215b;" 
d="M602.5 -238q101.5 0 129.5 16t29 53v28q0 56 -46.5 64t-101.5 8t-83.5 -18t-28.5 -54v-28q0 -69 101.5 -69zM521 140q0 -60 110 -60t110 60v39q0 59 -110 59t-110 -59v-39zM233 -177v26q0 68 48 108q48 44 132 50v34q-75 9 -113 41q-47 32 -47 86v37q0 103 97 147
q92 46 330 46t283.5 -70.5t45.5 -122.5v-37q0 -54 -44 -86t-116 -41v-34q133 -12 157.5 -69t24.5 -89v-26q0 -56 -42.5 -138.5t-356.5 -82.5q-218 0 -314 57q-85 53 -85 164zM694 493v162l520 38v-237zM19 456v237l543 -38v-162zM287 767v162h232v359h-37q-14 -80 -73 -125
t-135 -51l-10 189q84 14 149 62q76 52 110 141h265v-575h212v-162h-713z" />
    <glyph glyph-name="threeeighths" unicode="&#x215c;" 
d="M602.5 -238q101.5 0 129.5 16t29 53v28q0 56 -46.5 64t-101.5 8t-83.5 -18t-28.5 -54v-28q0 -69 101.5 -69zM521 140q0 -60 110 -60t110 60v39q0 59 -110 59t-110 -59v-39zM233 -177v26q0 68 48 108q48 44 132 50v34q-75 9 -113 41q-47 32 -47 86v37q0 103 97 147
q92 46 330 46t283.5 -70.5t45.5 -122.5v-37q0 -54 -44 -86t-116 -41v-34q133 -12 157.5 -69t24.5 -89v-26q0 -56 -42.5 -138.5t-356.5 -82.5q-218 0 -314 57q-85 53 -85 164zM694 493v162l520 38v-237zM19 456v237l543 -38v-162zM745 1002q0 67 -131 67h-203v158h203
q87 0 98.5 19.5t11.5 36.5v15q0 30 -25 42t-76 12q-79 0 -101.5 -10.5t-26.5 -45.5l-270 11q8 115 110 160q90 45 271 45t280 -36q106 -42 106 -139v-17q0 -92 -59.5 -118.5t-89.5 -32.5v-33q113 -16 142.5 -69.5t29.5 -89.5v-16q0 -118 -108 -166q-93 -43 -237 -43
q-243 0 -350 62q-107 63 -115 186l270 11q8 -59 41 -80q40 -19 107 -19t95 14q27 14 27 46v30z" />
    <glyph glyph-name="fiveeighths" unicode="&#x215d;" 
d="M602.5 -238q101.5 0 129.5 16t29 53v28q0 56 -46.5 64t-101.5 8t-83.5 -18t-28.5 -54v-28q0 -69 101.5 -69zM521 140q0 -60 110 -60t110 60v39q0 59 -110 59t-110 -59v-39zM253 207q0 191 332.5 191t378 -70.5t45.5 -120.5v-38q0 -51 -44 -85q-44 -35 -116 -43v-34
q133 -12 157.5 -69t24.5 -89v-26q0 -111 -89 -166t-309 -55q-219 0 -315 57q-85 53 -85 164v26q0 68 48 108q48 44 132 50v34q-75 9 -105 33q-55 45 -55 95v38zM694 493v162l520 38v-237zM19 456v237l543 -38v-162zM668 1246q347 0 347 -216v-64q0 -101 -90 -162
q-102 -65 -311 -65t-305 58t-104 199l270 11q8 -60 33 -76q42 -28 102 -28q97 0 116 16.5t19 70.5v25q0 22 -5.5 34t-33.5 24t-155 12h-315v419h753v-163h-484v-95h163z" />
    <glyph glyph-name="seveneighths" unicode="&#x215e;" 
d="M602.5 -238q101.5 0 129.5 16t29 53v28q0 56 -46.5 64t-101.5 8t-83.5 -18t-28.5 -54v-28q0 -69 101.5 -69zM521 140q0 -60 110 -60t110 60v39q0 59 -110 59t-110 -59v-39zM233 -177v26q0 68 48 108q48 44 132 50v34q-75 9 -113 41q-47 32 -47 86v37q0 103 97 147
q92 46 330 46t283.5 -70.5t45.5 -122.5v-37q0 -54 -44 -86t-116 -41v-34q133 -12 157.5 -69t24.5 -89v-26q0 -56 -42.5 -138.5t-356.5 -82.5q-218 0 -314 57q-85 53 -85 164zM694 493v162l520 38v-237zM19 456v237l543 -38v-162zM270 1313v191h799v-191q-230 -275 -308 -546
h-279q68 232 164.5 356t154.5 190h-531z" />
    <glyph glyph-name="arrowleft" unicode="&#x2190;" 
d="M711 1434v-512h503v-354h-503v-512h-33l-659 670v37l659 671h33z" />
    <glyph glyph-name="arrowup" unicode="&#x2191;" 
d="M436 -84v838h-438v37l602 782h33l601 -782v-37h-437v-838h-361z" />
    <glyph glyph-name="arrowright" unicode="&#x2192;" 
d="M521 56v512h-502v354h502v512h36l657 -671v-37l-657 -670h-36z" />
    <glyph glyph-name="arrowdown" unicode="&#x2193;" 
d="M-34 674h470v838h361v-838h469v-37l-633 -784h-33l-634 784v37z" />
    <glyph glyph-name="arrowboth" unicode="&#x2194;" 
d="M478 568v-512h-35l-424 670v37l424 671h35v-512h278v512h33l425 -671v-37l-425 -670h-33v512h-278z" />
    <glyph glyph-name="arrowupdn" unicode="&#x2195;" 
d="M-2 465h438v559h-438v37l602 698h33l601 -698v-37h-437v-559h437v-37l-601 -698h-33l-602 698v37z" />
    <glyph glyph-name="arrowupdnbse" unicode="&#x21a8;" 
d="M119 -473v287h408l-529 614v37h438v559h-438v37l602 698h33l601 -698v-37h-437v-559h437v-37l-529 -614h408v-287h-994z" />
    <glyph glyph-name="partialdiff" unicode="&#x2202;" 
d="M738 630q-38 46 -116 46t-108 -28t-42 -56t-20 -69l-22 -117q-7 -45 0 -109t126 -64q80 0 116 43q38 38 52 130l23 117q14 79 -9 107zM509 -19q-239 0 -349 110q-120 115 -84 335l13 101q30 183 151 294q125 108 292 108q100 0 159 -41q56 -36 76 -97h35q14 206 -89 309
q-56 58 -153.5 103.5t-252.5 92.5l274 231q341 -103 475 -304q127 -200 76 -540l-37 -245q-56 -344 -263 -400.5t-323 -56.5z" />
    <glyph glyph-name="Delta#1" unicode="&#x2206;" 
d="M840 268l-224 994l-238 -994h462zM69 0v268l298 1221h521l277 -1221v-268h-1096z" />
    <glyph glyph-name="product" unicode="&#x220f;" 
d="M95 -372v1861h1043v-1861h-360v1593h-324v-1593h-359z" />
    <glyph glyph-name="summation" unicode="&#x2211;" 
d="M1110 -104v-268h-1004v268l572 679l-572 646v268h1004v-268h-659l452 -527v-212l-473 -586h680z" />
    <glyph glyph-name="minus" unicode="&#x2212;" 
d="M119 508v287h994v-287h-994z" />
    <glyph glyph-name="radical" unicode="&#x221a;" 
d="M501 0l-248 650l-242 -34v259l421 56l225 -639l279 1384h334l-367 -1676h-402z" />
    <glyph glyph-name="infinity" unicode="&#x221e;" 
d="M365 1052q-50 0 -50 -317q7 -297 78 -297q43 0 82 61q29 43 67 154q-66 333 -96.5 366t-80.5 33zM918 754q0 155 -21 226q-21 72 -57 72q-45 0 -82 -62q-32 -48 -67 -158q47 -238 78 -314q27 -80 88 -80t61 316zM131 386q-64 109 -64 360t93.5 394t231.5 143t186.5 -106
t69.5 -173q42 129 101 204q58 75 139 75q113 0 196 -145t83 -397q0 -251 -96 -392.5t-235 -141.5q-95 0 -152 69t-99 204q-38 -124 -95 -201q-58 -72 -146 -72q-48 0 -98.5 35t-114.5 144z" />
    <glyph glyph-name="orthogonal" unicode="&#x221f;" 
d="M190 0v1303h359v-1018h529v-285h-888z" />
    <glyph glyph-name="intersection" unicode="&#x2229;" 
d="M132 0v845q0 224 130.5 350.5t355 126.5t353.5 -125.5t129 -351.5v-845h-359v821q0 177 -44.5 205t-96 28t-81.5 -60q-26 -60 -26 -177v-817h-361z" />
    <glyph glyph-name="integral" unicode="&#x222b;" 
d="M944 1322q-147 0 -147 -188v-1127q0 -189 -132 -289t-334 -100q-124 0 -249 43l33 227q101 -35 172 -35q149 0 149 188v1126q0 191 130 290t333 99q130 0 252 -42l-36 -227q-93 35 -171 35z" />
    <glyph glyph-name="approxequal" unicode="&#x2248;" 
d="M818 233q70 0 70 188v138h224v-151q0 -209 -73 -330q-71 -113 -176 -113t-172 47t-123 139q-55 92 -84 135q-50 73 -86 73q-72 0 -72 -186v-139h-224v150q0 209 73 330q71 113 197 113q84 0 134 -35q89 -61 140 -147t83 -134q33 -47 51 -62.5t38 -15.5zM888 1165v138h224
v-151q0 -208 -73 -329q-71 -114 -197 -114q-82 -1 -134 35q-84 58 -148 163q-15 24 -41.5 70.5t-55 86.5t-61.5 40q-76 0 -76 -186v-140h-224v151q0 209 73 330q71 113 197 113q84 0 134 -35q89 -61 149 -162q15 -22 65.5 -110t94.5 -88q73 0 73 188z" />
    <glyph glyph-name="notequal" unicode="&#x2260;" 
d="M1113 313h-473l-72 -313h-246l71 313h-274v270h337l75 326h-412v270h475l71 310h245l-70 -310h273v-270h-337l-72 -326h409v-270z" />
    <glyph glyph-name="equivalence" unicode="&#x2261;" 
d="M119 19v286h994v-286h-994zM119 492v286h994v-286h-994zM119 964v287h994v-287h-994z" />
    <glyph glyph-name="lessequal" unicode="&#x2264;" 
d="M171 0v244h892v-244h-892zM1063 372l-892 382v354l892 381v-277l-655 -281l655 -281v-278z" />
    <glyph glyph-name="greaterequal" unicode="&#x2265;" 
d="M1063 0h-892v244h892v-244zM171 372v278l654 281l-654 281v277l892 -381v-354z" />
    <glyph glyph-name="logicalnotreversed" unicode="&#x2310;" 
d="M6 0v795h1221v-287h-937v-508h-284z" />
    <glyph glyph-name="integralbt" unicode="&#x2321;" 
d="M360 -147q56 0 113.5 24t57.5 164v1448h361v-1482q0 -186 -136 -292q-131 -97 -330 -97q-126 0 -251 43l35 227q94 -35 150 -35z" />
    <glyph glyph-name="uni23af" unicode="&#x23af;" 
d="M-19 568v354h1270v-354h-1270z" />
    <glyph glyph-name="lighthorzbxd" unicode="&#x2500;" 
d="M-37 652h1307v-187h-1307v187z" />
    <glyph glyph-name="heavyhorzbxd" unicode="&#x2501;" 
d="M-37 745h1307v-373h-1307v373z" />
    <glyph glyph-name="lightvertbxd" unicode="&#x2502;" 
d="M523 1955h186v-2793h-186v2793z" />
    <glyph glyph-name="heavyvertbxd" unicode="&#x2503;" 
d="M430 1955h372v-2793h-372v2793z" />
    <glyph glyph-name="lighttrpldashhorzbxd" unicode="&#x2504;" 
d="M886 652h274v-187h-274v187zM477 652h273v-187h-273v187zM67 652h274v-187h-274v187z" />
    <glyph glyph-name="heavytrpldashhorzbxd" unicode="&#x2505;" 
d="M886 745h274v-373h-274v373zM477 745h273v-373h-273v373zM67 745h274v-373h-274v373z" />
    <glyph glyph-name="lighttrpldashvertbxd" unicode="&#x2506;" 
d="M523 2147h186v-455h-186v455zM523 1465h186v-454h-186v454zM523 784h186v-454h-186v454zM523 102h186v-454h-186v454z" />
    <glyph glyph-name="heavytrpldashvertbxd" unicode="&#x2507;" 
d="M430 2147h372v-455h-372v455zM430 1465h372v-454h-372v454zM430 784h372v-454h-372v454zM430 102h372v-454h-372v454z" />
    <glyph glyph-name="lightquaddashhorzbxd" unicode="&#x2508;" 
d="M959 652h231v-187h-231v187zM652 652h231v-187h-231v187zM344 652h231v-187h-231v187zM37 652h231v-187h-231v187z" />
    <glyph glyph-name="heavyquaddashhorzbxd" unicode="&#x2509;" 
d="M959 745h231v-373h-231v373zM652 745h231v-373h-231v373zM344 745h231v-373h-231v373zM37 745h231v-373h-231v373z" />
    <glyph glyph-name="lightquaddashvertbxd" unicode="&#x250a;" 
d="M523 1519h186v-385h-186v385zM523 1007h186v-385h-186v385zM523 495h186v-385h-186v385zM523 -17h186v-385h-186v385z" />
    <glyph glyph-name="heavyquaddashvertbxd" unicode="&#x250b;" 
d="M430 1519h372v-385h-372v385zM430 1007h372v-385h-372v385zM430 495h372v-385h-372v385zM430 -17h372v-385h-372v385z" />
    <glyph glyph-name="lightdnrightbxd" unicode="&#x250c;" 
d="M523 652h747v-187h-561v-1303h-186v1490z" />
    <glyph glyph-name="dnlightrightheavybxd" unicode="&#x250d;" 
d="M523 745h747v-373h-561v-1210h-186v1583z" />
    <glyph glyph-name="dnheavyrightlightbxd" unicode="&#x250e;" 
d="M430 652h840v-187h-468v-1303h-372v1490z" />
    <glyph glyph-name="heavydnrightbxd" unicode="&#x250f;" 
d="M430 745h840v-373h-468v-1210h-372v1583z" />
    <glyph glyph-name="lightdnleftbxd" unicode="&#x2510;" 
d="M-37 652h746v-1490h-186v1303h-560v187z" />
    <glyph glyph-name="dnlightleftheavybxd" unicode="&#x2511;" 
d="M-37 745h746v-1583h-186v1210h-560v373z" />
    <glyph glyph-name="dnheavyleftlightbxd" unicode="&#x2512;" 
d="M-37 652h839v-1490h-372v1303h-467v187z" />
    <glyph glyph-name="heavydnleftbxd" unicode="&#x2513;" 
d="M-37 745h839v-1583h-372v1210h-467v373z" />
    <glyph glyph-name="lightuprightbxd" unicode="&#x2514;" 
d="M523 1955h186v-1303h561v-187h-747v1490z" />
    <glyph glyph-name="uplightrightheavybxd" unicode="&#x2515;" 
d="M523 1955h186v-1210h561v-373h-747v1583z" />
    <glyph glyph-name="upheavyrightlightbxd" unicode="&#x2516;" 
d="M430 1955h372v-1303h468v-187h-840v1490z" />
    <glyph glyph-name="heavyuprightbxd" unicode="&#x2517;" 
d="M430 1955h372v-1210h468v-373h-840v1583z" />
    <glyph glyph-name="lightupleftbxd" unicode="&#x2518;" 
d="M-37 652h560v1303h186v-1490h-746v187z" />
    <glyph glyph-name="uplightleftheavybxd" unicode="&#x2519;" 
d="M-37 745h560v1210h186v-1583h-746v373z" />
    <glyph glyph-name="upheavyleftlightbxd" unicode="&#x251a;" 
d="M-37 652h467v1303h372v-1490h-839v187z" />
    <glyph glyph-name="heavyupleftbxd" unicode="&#x251b;" 
d="M-37 745h467v1210h372v-1583h-839v373z" />
    <glyph glyph-name="lightvertrightbxd" unicode="&#x251c;" 
d="M523 1955h186v-1303h561v-187h-561v-1303h-186v2793z" />
    <glyph glyph-name="vertlightrightheavybxd" unicode="&#x251d;" 
d="M523 1955h186v-1210h561v-373h-561v-1210h-186v2793z" />
    <glyph glyph-name="upheavyrightdnlightbxd" unicode="&#x251e;" 
d="M430 1955h372v-1303h468v-187h-561v-1303h-186v1303h-93v1490z" />
    <glyph glyph-name="dnheavyrightuplightbxd" unicode="&#x251f;" 
d="M430 652h93v1303h186v-1303h561v-187h-468v-1303h-372v1490z" />
    <glyph glyph-name="vertheavyrightlightbxd" unicode="&#x2520;" 
d="M430 1955h372v-1303h468v-187h-468v-1303h-372v2793z" />
    <glyph glyph-name="dnlightrightupheavybxd" unicode="&#x2521;" 
d="M430 1955h372v-1210h468v-373h-561v-1210h-186v1210h-93v1583z" />
    <glyph glyph-name="uplightrightdnheavybxd" unicode="&#x2522;" 
d="M430 745h93v1210h186v-1210h561v-373h-468v-1210h-372v1583z" />
    <glyph glyph-name="heavyvertrightbxd" unicode="&#x2523;" 
d="M430 1955h372v-1210h468v-373h-468v-1210h-372v2793z" />
    <glyph glyph-name="lightvertleftbxd" unicode="&#x2524;" 
d="M-37 652h560v1303h186v-2793h-186v1303h-560v187z" />
    <glyph glyph-name="vertlightleftheavybxd" unicode="&#x2525;" 
d="M-37 745h560v1210h186v-2793h-186v1210h-560v373z" />
    <glyph glyph-name="upheavyleftdnlightbxd" unicode="&#x2526;" 
d="M-37 652h467v1303h372v-1490h-93v-1303h-186v1303h-560v187z" />
    <glyph glyph-name="dnheavyleftuplightbxd" unicode="&#x2527;" 
d="M-37 652h560v1303h186v-1303h93v-1490h-372v1303h-467v187z" />
    <glyph glyph-name="vertheavyleftlightbxd" unicode="&#x2528;" 
d="M-37 652h467v1303h372v-2793h-372v1303h-467v187z" />
    <glyph glyph-name="dnlightleftupheavybxd" unicode="&#x2529;" 
d="M-37 745h467v1210h372v-1583h-93v-1210h-186v1210h-560v373z" />
    <glyph glyph-name="uplightleftdnheavybxd" unicode="&#x252a;" 
d="M-37 745h560v1210h186v-1210h93v-1583h-372v1210h-467v373z" />
    <glyph glyph-name="heavyvertleftbxd" unicode="&#x252b;" 
d="M-37 745h467v1210h372v-2793h-372v1210h-467v373z" />
    <glyph glyph-name="lightdnhorzbxd" unicode="&#x252c;" 
d="M-37 652h1307v-187h-561v-1303h-186v1303h-560v187z" />
    <glyph glyph-name="leftheavyrightdnlightbxd" unicode="&#x252d;" 
d="M-37 745h746v-93h561v-187h-561v-1303h-186v1210h-560v373z" />
    <glyph glyph-name="rightheavyleftdnlightbxd" unicode="&#x252e;" 
d="M-37 652h560v93h747v-373h-561v-1210h-186v1303h-560v187z" />
    <glyph glyph-name="dnlighthorzheavybxd" unicode="&#x252f;" 
d="M-37 745h1307v-373h-561v-1210h-186v1210h-560v373z" />
    <glyph glyph-name="dnheavyhorzlightbxd" unicode="&#x2530;" 
d="M-37 652h1307v-187h-468v-1303h-372v1303h-467v187z" />
    <glyph glyph-name="rightlightleftdnheavybxd" unicode="&#x2531;" 
d="M-37 745h839v-93h468v-187h-468v-1303h-372v1210h-467v373z" />
    <glyph glyph-name="leftlightrightdnheavybxd" unicode="&#x2532;" 
d="M-37 652h467v93h840v-373h-468v-1210h-372v1303h-467v187z" />
    <glyph glyph-name="heavydnhorzbxd" unicode="&#x2533;" 
d="M-37 745h1307v-373h-468v-1210h-372v1210h-467v373z" />
    <glyph glyph-name="lightuphorzbxd" unicode="&#x2534;" 
d="M-37 652h560v1303h186v-1303h561v-187h-1307v187z" />
    <glyph glyph-name="leftheavyrightuplightbxd" unicode="&#x2535;" 
d="M-37 745h560v1210h186v-1303h561v-187h-561v-93h-746v373z" />
    <glyph glyph-name="rightheavyleftuplightbxd" unicode="&#x2536;" 
d="M-37 652h560v1303h186v-1210h561v-373h-747v93h-560v187z" />
    <glyph glyph-name="uplighthorzheavybxd" unicode="&#x2537;" 
d="M-37 745h560v1210h186v-1210h561v-373h-1307v373z" />
    <glyph glyph-name="upheavyhorzlightbxd" unicode="&#x2538;" 
d="M-37 652h467v1303h372v-1303h468v-187h-1307v187z" />
    <glyph glyph-name="rightlightleftupheavybxd" unicode="&#x2539;" 
d="M-37 745h467v1210h372v-1303h468v-187h-468v-93h-839v373z" />
    <glyph glyph-name="leftlightrightupheavybxd" unicode="&#x253a;" 
d="M-37 652h467v1303h372v-1210h468v-373h-840v93h-467v187z" />
    <glyph glyph-name="heavyuphorzbxd" unicode="&#x253b;" 
d="M-37 745h467v1210h372v-1210h468v-373h-1307v373z" />
    <glyph glyph-name="lightverthorzbxd" unicode="&#x253c;" 
d="M-37 652h560v1303h186v-1303h561v-187h-561v-1303h-186v1303h-560v187z" />
    <glyph glyph-name="leftheavyrightvertlightbxd" unicode="&#x253d;" 
d="M-37 745h560v1210h186v-1303h561v-187h-561v-1303h-186v1210h-560v373z" />
    <glyph glyph-name="rightheavyleftvertlightbxd" unicode="&#x253e;" 
d="M-37 652h560v1303h186v-1210h561v-373h-561v-1210h-186v1303h-560v187z" />
    <glyph glyph-name="vertlighthorzheavybxd" unicode="&#x253f;" 
d="M-37 745h560v1210h186v-1210h561v-373h-561v-1210h-186v1210h-560v373z" />
    <glyph glyph-name="upheavydnhorzlightbxd" unicode="&#x2540;" 
d="M-37 652h467v1303h372v-1303h468v-187h-561v-1303h-186v1303h-560v187z" />
    <glyph glyph-name="dnheavyuphorzlightbxd" unicode="&#x2541;" 
d="M-37 652h560v1303h186v-1303h561v-187h-468v-1303h-372v1303h-467v187z" />
    <glyph glyph-name="vertheavyhorzlightbxd" unicode="&#x2542;" 
d="M-37 652h467v1303h372v-1303h468v-187h-468v-1303h-372v1303h-467v187z" />
    <glyph glyph-name="leftupheavyrightdnlightbxd" unicode="&#x2543;" 
d="M-37 745h467v1210h372v-1303h468v-187h-468v-93h-93v-1210h-186v1210h-560v373z" />
    <glyph glyph-name="rightupheavyleftdnlightbxd" unicode="&#x2544;" 
d="M-37 652h467v1303h372v-1210h468v-373h-561v-1210h-186v1210h-93v93h-467v187z" />
    <glyph glyph-name="leftdnheavyrightuplightbxd" unicode="&#x2545;" 
d="M-37 745h560v1210h186v-1210h93v-93h468v-187h-468v-1303h-372v1210h-467v373z" />
    <glyph glyph-name="rightdnheavyleftuplightbxd" unicode="&#x2546;" 
d="M-37 652h467v93h93v1210h186v-1210h561v-373h-468v-1210h-372v1303h-467v187z" />
    <glyph glyph-name="dnlightuphorzheavybxd" unicode="&#x2547;" 
d="M-37 745h467v1210h372v-1210h468v-373h-561v-1210h-186v1210h-560v373z" />
    <glyph glyph-name="uplightdnhorzheavybxd" unicode="&#x2548;" 
d="M-37 745h560v1210h186v-1210h561v-373h-468v-1210h-372v1210h-467v373z" />
    <glyph glyph-name="rightlightleftvertheavybxd" unicode="&#x2549;" 
d="M-37 745h467v1210h372v-1303h468v-187h-468v-1303h-372v1210h-467v373z" />
    <glyph glyph-name="leftlightrightvertheavybxd" unicode="&#x254a;" 
d="M-37 652h467v1303h372v-1210h468v-373h-468v-1210h-372v1303h-467v187z" />
    <glyph glyph-name="heavyverthorzbxd" unicode="&#x254b;" 
d="M-37 745h467v1210h372v-1210h468v-373h-468v-1210h-372v1210h-467v373z" />
    <glyph glyph-name="lightdbldashhorzbxd" unicode="&#x254c;" 
d="M769 652h309v-187h-309v187zM153 652h309v-187h-309v187z" />
    <glyph glyph-name="heavydbldashhorzbxd" unicode="&#x254d;" 
d="M769 745h309v-373h-309v373zM153 745h309v-373h-309v373z" />
    <glyph glyph-name="lightdbldashvertbxd" unicode="&#x254e;" 
d="M523 1326h186v-512h-186v512zM523 302h186v-512h-186v512z" />
    <glyph glyph-name="heavydbldashvertbxd" unicode="&#x254f;" 
d="M430 1326h372v-512h-372v512zM430 302h372v-512h-372v512z" />
    <glyph glyph-name="dblhorzbxd" unicode="&#x2550;" 
d="M-37 465h1307v-186h-1307v186zM-37 838h1307v-186h-1307v186z" />
    <glyph glyph-name="dblvertbxd" unicode="&#x2551;" 
d="M709 1955h187v-2793h-187v2793zM337 1955h186v-2793h-186v2793z" />
    <glyph glyph-name="dnsngrightdblbxd" unicode="&#x2552;" 
d="M523 838h747v-186h-561v-187h561v-186h-561v-1117h-186v1676z" />
    <glyph glyph-name="dndblrightsngbxd" unicode="&#x2553;" 
d="M337 652h933v-187h-374v-1303h-187v1303h-186v-1303h-186v1490z" />
    <glyph glyph-name="dbldnrightbxd" unicode="&#x2554;" 
d="M709 465h561v-186h-374v-1117h-187v1303zM337 838h933v-186h-747v-1490h-186v1676z" />
    <glyph glyph-name="dnsngleftdblbxd" unicode="&#x2555;" 
d="M-37 838h746v-1676h-186v1117h-560v186h560v187h-560v186z" />
    <glyph glyph-name="dndblleftsngbxd" unicode="&#x2556;" 
d="M-37 652h933v-1490h-187v1303h-186v-1303h-186v1303h-374v187z" />
    <glyph glyph-name="dbldnleftbxd" unicode="&#x2557;" 
d="M-37 465h560v-1303h-186v1117h-374v186zM-37 838h933v-1676h-187v1490h-746v186z" />
    <glyph glyph-name="upsngrightdblbxd" unicode="&#x2558;" 
d="M523 1955h186v-1117h561v-186h-561v-187h561v-186h-747v1676z" />
    <glyph glyph-name="updblrightsngbxd" unicode="&#x2559;" 
d="M337 1955h186v-1303h186v1303h187v-1303h374v-187h-933v1490z" />
    <glyph glyph-name="dbluprightbxd" unicode="&#x255a;" 
d="M709 1955h187v-1117h374v-186h-561v1303zM337 1955h186v-1490h747v-186h-933v1676z" />
    <glyph glyph-name="upsngleftdblbxd" unicode="&#x255b;" 
d="M-37 838h560v1117h186v-1676h-746v186h560v187h-560v186z" />
    <glyph glyph-name="updblleftsngbxd" unicode="&#x255c;" 
d="M-37 652h374v1303h186v-1303h186v1303h187v-1490h-933v187z" />
    <glyph glyph-name="dblupleftbxd" unicode="&#x255d;" 
d="M-37 838h374v1117h186v-1303h-560v186zM-37 465h746v1490h187v-1676h-933v186z" />
    <glyph glyph-name="vertsngrightdblbxd" unicode="&#x255e;" 
d="M523 1955h186v-1117h561v-186h-561v-187h561v-186h-561v-1117h-186v2793z" />
    <glyph glyph-name="vertdblrightsngbxd" unicode="&#x255f;" 
d="M337 1955h186v-2793h-186v2793zM709 1955h187v-1303h374v-187h-374v-1303h-187v2793z" />
    <glyph glyph-name="dblvertrightbxd" unicode="&#x2560;" 
d="M709 465h561v-186h-374v-1117h-187v1303zM709 1955h187v-1117h374v-186h-561v1303zM337 1955h186v-2793h-186v2793z" />
    <glyph glyph-name="vertsngleftdblbxd" unicode="&#x2561;" 
d="M-37 838h560v1117h186v-2793h-186v1117h-560v186h560v187h-560v186z" />
    <glyph glyph-name="vertdblleftsngbxd" unicode="&#x2562;" 
d="M709 1955h187v-2793h-187v2793zM-37 652h374v1303h186v-2793h-186v1303h-374v187z" />
    <glyph glyph-name="dblvertleftbxd" unicode="&#x2563;" 
d="M-37 838h374v1117h186v-1303h-560v186zM-37 465h560v-1303h-186v1117h-374v186zM709 1955h187v-2793h-187v2793z" />
    <glyph glyph-name="dnsnghorzdblbxd" unicode="&#x2564;" 
d="M-37 838h1307v-186h-1307v186zM-37 465h1307v-186h-561v-1117h-186v1117h-560v186z" />
    <glyph glyph-name="dndblhorzsngbxd" unicode="&#x2565;" 
d="M-37 652h1307v-187h-374v-1303h-187v1303h-186v-1303h-186v1303h-374v187z" />
    <glyph glyph-name="dbldnhorzbxd" unicode="&#x2566;" 
d="M-37 838h1307v-186h-1307v186zM709 465h561v-186h-374v-1117h-187v1303zM-37 465h560v-1303h-186v1117h-374v186z" />
    <glyph glyph-name="upsnghorzdblbxd" unicode="&#x2567;" 
d="M-37 465h1307v-186h-1307v186zM-37 838h560v1117h186v-1117h561v-186h-1307v186z" />
    <glyph glyph-name="updblhorzsngbxd" unicode="&#x2568;" 
d="M-37 652h374v1303h186v-1303h186v1303h187v-1303h374v-187h-1307v187z" />
    <glyph glyph-name="dbluphorzbxd" unicode="&#x2569;" 
d="M-37 465h1307v-186h-1307v186zM709 1955h187v-1117h374v-186h-561v1303zM-37 838h374v1117h186v-1303h-560v186z" />
    <glyph glyph-name="vertsnghorzdblbxd" unicode="&#x256a;" 
d="M-37 838h560v1117h186v-1117h561v-186h-561v-187h561v-186h-561v-1117h-186v1117h-560v186h560v187h-560v186z" />
    <glyph glyph-name="vertdblhorzsngbxd" unicode="&#x256b;" 
d="M-37 652h374v1303h186v-1303h186v1303h187v-1303h374v-187h-374v-1303h-187v1303h-186v-1303h-186v1303h-374v187z" />
    <glyph glyph-name="dblverthorzbxd" unicode="&#x256c;" 
d="M709 465h561v-186h-374v-1117h-187v1303zM709 1955h187v-1117h374v-186h-561v1303zM-37 465h560v-1303h-186v1117h-374v186zM-37 838h374v1117h186v-1303h-560v186z" />
    <glyph glyph-name="lightarcdnrightbxd" unicode="&#x256d;" 
d="M523 -58q0 147 56 275.5t152 225.5t225 153t277 56h37v-187h-37q-217 0 -370.5 -153.5t-153.5 -369.5v-780h-186v780z" />
    <glyph glyph-name="lightarcdnleftbxd" unicode="&#x256e;" 
d="M709 -838h-186v780q0 215 -152.5 369t-370.5 154h-37v187h37q147 0 275.5 -56t225.5 -153t152.5 -225.5t55.5 -275.5v-780z" />
    <glyph glyph-name="lightarcupleftbxd" unicode="&#x256f;" 
d="M709 1175q0 -147 -55.5 -276.5t-152.5 -225.5t-225.5 -152t-275.5 -56h-37v187h37q216 0 369.5 153.5t153.5 369.5v780h186v-780z" />
    <glyph glyph-name="lightarcuprightbxd" unicode="&#x2570;" 
d="M523 1955h186v-780q0 -217 154.5 -370t369.5 -153h37v-187h-37q-147 0 -276.5 56t-225.5 152t-152 225.5t-56 276.5v780z" />
    <glyph glyph-name="lightdiaguprightdnleftbxd" unicode="&#x2571;" 
d="M1233 1583v-181l-1125 -1867h-108v180l1125 1868h108z" />
    <glyph glyph-name="lightdiagupleftdnrightbxd" unicode="&#x2572;" 
d="M1233 -465h-108l-1125 1867v181h108l1125 -1868v-180z" />
    <glyph glyph-name="lightdiagcrossbxd" unicode="&#x2573;" 
d="M0 1583h108l508 -846l509 846h108v-181l-509 -843l509 -844v-180h-108l-509 843l-508 -843h-108v180l508 844l-508 843v181z" />
    <glyph glyph-name="lightleftbxd" unicode="&#x2574;" 
d="M-37 652h746v-187h-746v187z" />
    <glyph glyph-name="lightupbxd" unicode="&#x2575;" 
d="M523 1955h186v-1490h-186v1490z" />
    <glyph glyph-name="lightrightbxd" unicode="&#x2576;" 
d="M523 652h747v-187h-747v187z" />
    <glyph glyph-name="lightdnbxd" unicode="&#x2577;" 
d="M523 652h186v-1490h-186v1490z" />
    <glyph glyph-name="heavyleftbxd" unicode="&#x2578;" 
d="M-37 745h746v-373h-746v373z" />
    <glyph glyph-name="heavyupbxd" unicode="&#x2579;" 
d="M430 1955h372v-1490h-372v1490z" />
    <glyph glyph-name="heavyrightbxd" unicode="&#x257a;" 
d="M523 745h747v-373h-747v373z" />
    <glyph glyph-name="heavydnbxd" unicode="&#x257b;" 
d="M430 652h372v-1490h-372v1490z" />
    <glyph glyph-name="lightleftheavyrightbxd" unicode="&#x257c;" 
d="M-37 652h560v93h747v-373h-747v93h-560v187z" />
    <glyph glyph-name="lightupheavydnbxd" unicode="&#x257d;" 
d="M430 652h93v1303h186v-1303h93v-1490h-372v1490z" />
    <glyph glyph-name="heavyleftlightrightbxd" unicode="&#x257e;" 
d="M-37 745h746v-93h561v-187h-561v-93h-746v373z" />
    <glyph glyph-name="heavyuplightdnbxd" unicode="&#x257f;" 
d="M430 1955h372v-1490h-93v-1303h-186v1303h-93v1490z" />
    <glyph glyph-name="uphalfblock" unicode="&#x2580;" 
d="M0 1583h1233v-1024h-1233v1024z" />
    <glyph glyph-name="dneighthblock" unicode="&#x2581;" 
d="M0 -210h1233v-255h-1233v255z" />
    <glyph glyph-name="dnquarterblock" unicode="&#x2582;" 
d="M0 47h1233v-512h-1233v512z" />
    <glyph glyph-name="dnthreeeighthsblock" unicode="&#x2583;" 
d="M0 302h1233v-767h-1233v767z" />
    <glyph glyph-name="dnhalfblock" unicode="&#x2584;" 
d="M0 559h1233v-1024h-1233v1024z" />
    <glyph glyph-name="dnfiveeighthsblock" unicode="&#x2585;" 
d="M0 814h1233v-1279h-1233v1279z" />
    <glyph glyph-name="dnthreequartersblock" unicode="&#x2586;" 
d="M0 1071h1233v-1536h-1233v1536z" />
    <glyph glyph-name="dnseveneighthsblock" unicode="&#x2587;" 
d="M0 1326h1233v-1791h-1233v1791z" />
    <glyph glyph-name="fullblock" unicode="&#x2588;" 
d="M0 1583h1233v-2048h-1233v2048z" />
    <glyph glyph-name="leftseveneighthsblock" unicode="&#x2589;" 
d="M0 1583h1078v-2048h-1078v2048z" />
    <glyph glyph-name="leftthreequartersblock" unicode="&#x258a;" 
d="M0 1583h923v-2048h-923v2048z" />
    <glyph glyph-name="leftfiveeighthsblock" unicode="&#x258b;" 
d="M0 1583h769v-2048h-769v2048z" />
    <glyph glyph-name="lefthalfblock" unicode="&#x258c;" 
d="M0 1583h616v-2048h-616v2048z" />
    <glyph glyph-name="leftthreeeighthsblock" unicode="&#x258d;" 
d="M0 1583h462v-2048h-462v2048z" />
    <glyph glyph-name="leftquarterblock" unicode="&#x258e;" 
d="M0 1583h307v-2048h-307v2048z" />
    <glyph glyph-name="lefteighthblock" unicode="&#x258f;" 
d="M0 1583h153v-2048h-153v2048z" />
    <glyph glyph-name="righthalfblock" unicode="&#x2590;" 
d="M616 1583h617v-2048h-617v2048z" />
    <glyph glyph-name="lightshade" unicode="&#x2591;" 
d="M1210 1545h37v-56h-37v56zM1117 1452h37v-56h-37v56zM1210 1359h37v-56h-37v56zM1117 1266h37v-56h-37v56zM1210 1173h37v-56h-37v56zM1117 1080h37v-56h-37v56zM1210 987h37v-56h-37v56zM1117 894h37v-56h-37v56zM1210 801h37v-56h-37v56zM1117 707h37v-55h-37v55z
M1210 614h37v-55h-37v55zM1117 521h37v-56h-37v56zM1210 428h37v-56h-37v56zM1117 335h37v-56h-37v56zM1210 242h37v-56h-37v56zM1117 149h37v-56h-37v56zM1210 56h37v-56h-37v56zM1117 -37h37v-56h-37v56zM1210 -130h37v-56h-37v56zM1117 -223h37v-56h-37v56zM1210 -317h37
v-55h-37v55zM1117 -410h37v-55h-37v55zM1024 1545h37v-56h-37v56zM931 1452h37v-56h-37v56zM1024 1359h37v-56h-37v56zM931 1266h37v-56h-37v56zM1024 1173h37v-56h-37v56zM931 1080h37v-56h-37v56zM1024 987h37v-56h-37v56zM931 894h37v-56h-37v56zM1024 801h37v-56h-37v56
zM931 707h37v-55h-37v55zM1024 614h37v-55h-37v55zM931 521h37v-56h-37v56zM1024 428h37v-56h-37v56zM931 335h37v-56h-37v56zM1024 242h37v-56h-37v56zM931 149h37v-56h-37v56zM1024 56h37v-56h-37v56zM931 -37h37v-56h-37v56zM1024 -130h37v-56h-37v56zM931 -223h37v-56
h-37v56zM1024 -317h37v-55h-37v55zM931 -410h37v-55h-37v55zM838 1545h37v-56h-37v56zM745 1452h37v-56h-37v56zM838 1359h37v-56h-37v56zM745 1266h37v-56h-37v56zM838 1173h37v-56h-37v56zM745 1080h37v-56h-37v56zM838 987h37v-56h-37v56zM745 894h37v-56h-37v56z
M838 801h37v-56h-37v56zM745 707h37v-55h-37v55zM838 614h37v-55h-37v55zM745 521h37v-56h-37v56zM838 428h37v-56h-37v56zM745 335h37v-56h-37v56zM838 242h37v-56h-37v56zM745 149h37v-56h-37v56zM838 56h37v-56h-37v56zM745 -37h37v-56h-37v56zM838 -130h37v-56h-37v56z
M745 -223h37v-56h-37v56zM838 -317h37v-55h-37v55zM745 -410h37v-55h-37v55zM652 1545h37v-56h-37v56zM559 1452h37v-56h-37v56zM652 1359h37v-56h-37v56zM559 1266h37v-56h-37v56zM652 1173h37v-56h-37v56zM559 1080h37v-56h-37v56zM652 987h37v-56h-37v56zM559 894h37v-56
h-37v56zM652 801h37v-56h-37v56zM559 707h37v-55h-37v55zM652 614h37v-55h-37v55zM559 521h37v-56h-37v56zM652 428h37v-56h-37v56zM559 335h37v-56h-37v56zM652 242h37v-56h-37v56zM559 149h37v-56h-37v56zM652 56h37v-56h-37v56zM559 -37h37v-56h-37v56zM652 -130h37v-56
h-37v56zM559 -223h37v-56h-37v56zM652 -317h37v-55h-37v55zM559 -410h37v-55h-37v55zM465 1545h38v-56h-38v56zM372 1452h38v-56h-38v56zM465 1359h38v-56h-38v56zM372 1266h38v-56h-38v56zM465 1173h38v-56h-38v56zM372 1080h38v-56h-38v56zM465 987h38v-56h-38v56z
M372 894h38v-56h-38v56zM465 801h38v-56h-38v56zM372 707h38v-55h-38v55zM465 614h38v-55h-38v55zM372 521h38v-56h-38v56zM465 428h38v-56h-38v56zM372 335h38v-56h-38v56zM465 242h38v-56h-38v56zM372 149h38v-56h-38v56zM465 56h38v-56h-38v56zM372 -37h38v-56h-38v56z
M465 -130h38v-56h-38v56zM372 -223h38v-56h-38v56zM465 -317h38v-55h-38v55zM372 -410h38v-55h-38v55zM279 1545h38v-56h-38v56zM186 1452h37v-56h-37v56zM279 1359h38v-56h-38v56zM186 1266h37v-56h-37v56zM279 1173h38v-56h-38v56zM186 1080h37v-56h-37v56zM279 987h38
v-56h-38v56zM186 894h37v-56h-37v56zM279 801h38v-56h-38v56zM186 707h37v-55h-37v55zM279 614h38v-55h-38v55zM186 521h37v-56h-37v56zM279 428h38v-56h-38v56zM186 335h37v-56h-37v56zM279 242h38v-56h-38v56zM186 149h37v-56h-37v56zM279 56h38v-56h-38v56zM186 -37h37
v-56h-37v56zM279 -130h38v-56h-38v56zM186 -223h37v-56h-37v56zM279 -317h38v-55h-38v55zM186 -410h37v-55h-37v55zM93 1545h37v-56h-37v56zM0 1452h37v-56h-37v56zM93 1359h37v-56h-37v56zM0 1266h37v-56h-37v56zM93 1173h37v-56h-37v56zM0 1080h37v-56h-37v56zM93 987h37
v-56h-37v56zM0 894h37v-56h-37v56zM93 801h37v-56h-37v56zM0 707h37v-55h-37v55zM93 614h37v-55h-37v55zM0 521h37v-56h-37v56zM93 428h37v-56h-37v56zM0 335h37v-56h-37v56zM93 242h37v-56h-37v56zM0 149h37v-56h-37v56zM93 56h37v-56h-37v56zM0 -37h37v-56h-37v56z
M93 -130h37v-56h-37v56zM0 -223h37v-56h-37v56zM93 -317h37v-55h-37v55zM0 -410h37v-55h-37v55z" />
    <glyph glyph-name="mediumshade" unicode="&#x2592;" 
d="M1210 1583h75v-94h-75v94zM1117 1489h75v-93h-75v93zM1210 1396h75v-93h-75v93zM1117 1303h75v-93h-75v93zM1210 1210h75v-93h-75v93zM1117 1117h75v-93h-75v93zM1210 1024h75v-93h-75v93zM1117 931h75v-93h-75v93zM1210 838h75v-93h-75v93zM1117 745h75v-93h-75v93z
M1210 652h75v-93h-75v93zM1117 559h75v-94h-75v94zM1210 465h75v-93h-75v93zM1117 372h75v-93h-75v93zM1210 279h75v-93h-75v93zM1117 186h75v-93h-75v93zM1210 93h75v-93h-75v93zM1117 0h75v-93h-75v93zM1210 -93h75v-93h-75v93zM1117 -186h75v-93h-75v93zM1210 -279h75
v-93h-75v93zM1117 -372h75v-93h-75v93zM1024 1583h74v-94h-74v94zM931 1489h74v-93h-74v93zM1024 1396h74v-93h-74v93zM931 1303h74v-93h-74v93zM1024 1210h74v-93h-74v93zM931 1117h74v-93h-74v93zM1024 1024h74v-93h-74v93zM931 931h74v-93h-74v93zM1024 838h74v-93h-74
v93zM931 745h74v-93h-74v93zM1024 652h74v-93h-74v93zM931 559h74v-94h-74v94zM1024 465h74v-93h-74v93zM931 372h74v-93h-74v93zM1024 279h74v-93h-74v93zM931 186h74v-93h-74v93zM1024 93h74v-93h-74v93zM931 0h74v-93h-74v93zM1024 -93h74v-93h-74v93zM931 -186h74v-93
h-74v93zM1024 -279h74v-93h-74v93zM931 -372h74v-93h-74v93zM838 1583h74v-94h-74v94zM745 1489h74v-93h-74v93zM838 1396h74v-93h-74v93zM745 1303h74v-93h-74v93zM838 1210h74v-93h-74v93zM745 1117h74v-93h-74v93zM838 1024h74v-93h-74v93zM745 931h74v-93h-74v93z
M838 838h74v-93h-74v93zM745 745h74v-93h-74v93zM838 652h74v-93h-74v93zM745 559h74v-94h-74v94zM838 465h74v-93h-74v93zM745 372h74v-93h-74v93zM838 279h74v-93h-74v93zM745 186h74v-93h-74v93zM838 93h74v-93h-74v93zM745 0h74v-93h-74v93zM838 -93h74v-93h-74v93z
M745 -186h74v-93h-74v93zM838 -279h74v-93h-74v93zM745 -372h74v-93h-74v93zM652 1583h74v-94h-74v94zM559 1489h74v-93h-74v93zM652 1396h74v-93h-74v93zM559 1303h74v-93h-74v93zM652 1210h74v-93h-74v93zM559 1117h74v-93h-74v93zM652 1024h74v-93h-74v93zM559 931h74
v-93h-74v93zM652 838h74v-93h-74v93zM559 745h74v-93h-74v93zM652 652h74v-93h-74v93zM559 559h74v-94h-74v94zM652 465h74v-93h-74v93zM559 372h74v-93h-74v93zM652 279h74v-93h-74v93zM559 186h74v-93h-74v93zM652 93h74v-93h-74v93zM559 0h74v-93h-74v93zM652 -93h74v-93
h-74v93zM559 -186h74v-93h-74v93zM652 -279h74v-93h-74v93zM559 -372h74v-93h-74v93zM465 1583h75v-94h-75v94zM372 1489h75v-93h-75v93zM465 1396h75v-93h-75v93zM372 1303h75v-93h-75v93zM465 1210h75v-93h-75v93zM372 1117h75v-93h-75v93zM465 1024h75v-93h-75v93z
M372 931h75v-93h-75v93zM465 838h75v-93h-75v93zM372 745h75v-93h-75v93zM465 652h75v-93h-75v93zM372 559h75v-94h-75v94zM465 465h75v-93h-75v93zM372 372h75v-93h-75v93zM465 279h75v-93h-75v93zM372 186h75v-93h-75v93zM465 93h75v-93h-75v93zM372 0h75v-93h-75v93z
M465 -93h75v-93h-75v93zM372 -186h75v-93h-75v93zM465 -279h75v-93h-75v93zM372 -372h75v-93h-75v93zM279 1583h75v-94h-75v94zM186 1489h75v-93h-75v93zM279 1396h75v-93h-75v93zM186 1303h75v-93h-75v93zM279 1210h75v-93h-75v93zM186 1117h75v-93h-75v93zM279 1024h75
v-93h-75v93zM186 931h75v-93h-75v93zM279 838h75v-93h-75v93zM186 745h75v-93h-75v93zM279 652h75v-93h-75v93zM186 559h75v-94h-75v94zM279 465h75v-93h-75v93zM186 372h75v-93h-75v93zM279 279h75v-93h-75v93zM186 186h75v-93h-75v93zM279 93h75v-93h-75v93zM186 0h75v-93
h-75v93zM279 -93h75v-93h-75v93zM186 -186h75v-93h-75v93zM279 -279h75v-93h-75v93zM186 -372h75v-93h-75v93zM93 1583h75v-94h-75v94zM0 1489h74v-93h-74v93zM93 1396h75v-93h-75v93zM0 1303h74v-93h-74v93zM93 1210h75v-93h-75v93zM0 1117h74v-93h-74v93zM93 1024h75v-93
h-75v93zM0 931h74v-93h-74v93zM93 838h75v-93h-75v93zM0 745h74v-93h-74v93zM93 652h75v-93h-75v93zM0 559h74v-94h-74v94zM93 465h75v-93h-75v93zM0 372h74v-93h-74v93zM93 279h75v-93h-75v93zM0 186h74v-93h-74v93zM93 93h75v-93h-75v93zM0 0h74v-93h-74v93zM93 -93h75
v-93h-75v93zM0 -186h74v-93h-74v93zM93 -279h75v-93h-75v93zM0 -372h74v-93h-74v93z" />
    <glyph glyph-name="darkshade" unicode="&#x2593;" 
d="M1210 1610h84v-121h-84v121zM1117 1517h84v-121h-84v121zM1210 1424h84v-121h-84v121zM1117 1331h84v-121h-84v121zM1210 1238h84v-121h-84v121zM1117 1145h84v-121h-84v121zM1210 1052h84v-121h-84v121zM1117 959h84v-121h-84v121zM1210 866h84v-121h-84v121zM1117 773
h84v-121h-84v121zM1210 680h84v-121h-84v121zM1117 586h84v-121h-84v121zM1210 493h84v-121h-84v121zM1117 400h84v-121h-84v121zM1210 307h84v-121h-84v121zM1117 214h84v-121h-84v121zM1210 121h84v-121h-84v121zM1117 28h84v-121h-84v121zM1210 -65h84v-121h-84v121z
M1117 -158h84v-121h-84v121zM1210 -251h84v-121h-84v121zM1117 -344h84v-121h-84v121zM1024 1610h84v-121h-84v121zM931 1517h84v-121h-84v121zM1024 1424h84v-121h-84v121zM931 1331h84v-121h-84v121zM1024 1238h84v-121h-84v121zM931 1145h84v-121h-84v121zM1024 1052h84
v-121h-84v121zM931 959h84v-121h-84v121zM1024 866h84v-121h-84v121zM931 773h84v-121h-84v121zM1024 680h84v-121h-84v121zM931 586h84v-121h-84v121zM1024 493h84v-121h-84v121zM931 400h84v-121h-84v121zM1024 307h84v-121h-84v121zM931 214h84v-121h-84v121zM1024 121
h84v-121h-84v121zM931 28h84v-121h-84v121zM1024 -65h84v-121h-84v121zM931 -158h84v-121h-84v121zM1024 -251h84v-121h-84v121zM931 -344h84v-121h-84v121zM838 1610h84v-121h-84v121zM745 1517h84v-121h-84v121zM838 1424h84v-121h-84v121zM745 1331h84v-121h-84v121z
M838 1238h84v-121h-84v121zM745 1145h84v-121h-84v121zM838 1052h84v-121h-84v121zM745 959h84v-121h-84v121zM838 866h84v-121h-84v121zM745 773h84v-121h-84v121zM838 680h84v-121h-84v121zM745 586h84v-121h-84v121zM838 493h84v-121h-84v121zM745 400h84v-121h-84v121z
M838 307h84v-121h-84v121zM745 214h84v-121h-84v121zM838 121h84v-121h-84v121zM745 28h84v-121h-84v121zM838 -65h84v-121h-84v121zM745 -158h84v-121h-84v121zM838 -251h84v-121h-84v121zM745 -344h84v-121h-84v121zM652 1610h83v-121h-83v121zM559 1517h83v-121h-83v121z
M652 1424h83v-121h-83v121zM559 1331h83v-121h-83v121zM652 1238h83v-121h-83v121zM559 1145h83v-121h-83v121zM652 1052h83v-121h-83v121zM559 959h83v-121h-83v121zM652 866h83v-121h-83v121zM559 773h83v-121h-83v121zM652 680h83v-121h-83v121zM559 586h83v-121h-83v121
zM652 493h83v-121h-83v121zM559 400h83v-121h-83v121zM652 307h83v-121h-83v121zM559 214h83v-121h-83v121zM652 121h83v-121h-83v121zM559 28h83v-121h-83v121zM652 -65h83v-121h-83v121zM559 -158h83v-121h-83v121zM652 -251h83v-121h-83v121zM559 -344h83v-121h-83v121z
M465 1610h84v-121h-84v121zM372 1517h84v-121h-84v121zM465 1424h84v-121h-84v121zM372 1331h84v-121h-84v121zM465 1238h84v-121h-84v121zM372 1145h84v-121h-84v121zM465 1052h84v-121h-84v121zM372 959h84v-121h-84v121zM465 866h84v-121h-84v121zM372 773h84v-121h-84
v121zM465 680h84v-121h-84v121zM372 586h84v-121h-84v121zM465 493h84v-121h-84v121zM372 400h84v-121h-84v121zM465 307h84v-121h-84v121zM372 214h84v-121h-84v121zM465 121h84v-121h-84v121zM372 28h84v-121h-84v121zM465 -65h84v-121h-84v121zM372 -158h84v-121h-84v121
zM465 -251h84v-121h-84v121zM372 -344h84v-121h-84v121zM279 1610h84v-121h-84v121zM186 1517h84v-121h-84v121zM279 1424h84v-121h-84v121zM186 1331h84v-121h-84v121zM279 1238h84v-121h-84v121zM186 1145h84v-121h-84v121zM279 1052h84v-121h-84v121zM186 959h84v-121
h-84v121zM279 866h84v-121h-84v121zM186 773h84v-121h-84v121zM279 680h84v-121h-84v121zM186 586h84v-121h-84v121zM279 493h84v-121h-84v121zM186 400h84v-121h-84v121zM279 307h84v-121h-84v121zM186 214h84v-121h-84v121zM279 121h84v-121h-84v121zM186 28h84v-121h-84
v121zM279 -65h84v-121h-84v121zM186 -158h84v-121h-84v121zM279 -251h84v-121h-84v121zM186 -344h84v-121h-84v121zM93 1610h84v-121h-84v121zM0 1517h84v-121h-84v121zM93 1424h84v-121h-84v121zM0 1331h84v-121h-84v121zM93 1238h84v-121h-84v121zM0 1145h84v-121h-84v121
zM93 1052h84v-121h-84v121zM0 959h84v-121h-84v121zM93 866h84v-121h-84v121zM0 773h84v-121h-84v121zM93 680h84v-121h-84v121zM0 586h84v-121h-84v121zM93 493h84v-121h-84v121zM0 400h84v-121h-84v121zM93 307h84v-121h-84v121zM0 214h84v-121h-84v121zM93 121h84v-121
h-84v121zM0 28h84v-121h-84v121zM93 -65h84v-121h-84v121zM0 -158h84v-121h-84v121zM93 -251h84v-121h-84v121zM0 -344h84v-121h-84v121z" />
    <glyph glyph-name="upeighthblock" unicode="&#x2594;" 
d="M0 1583h1233v-257h-1233v257z" />
    <glyph glyph-name="righteighthblock" unicode="&#x2595;" 
d="M1078 1583h155v-2048h-155v2048z" />
    <glyph glyph-name="dnleftquadrant" unicode="&#x2596;" 
d="M0 559h616v-1024h-616v1024z" />
    <glyph glyph-name="dnrightquadrant" unicode="&#x2597;" 
d="M616 559h617v-1024h-617v1024z" />
    <glyph glyph-name="upleftquadrant" unicode="&#x2598;" 
d="M0 1583h616v-1024h-616v1024z" />
    <glyph glyph-name="upleftdnleftdnrightquadrant" unicode="&#x2599;" 
d="M0 1583h616v-1024h617v-1024h-1233v2048z" />
    <glyph glyph-name="upleftdnrightquadrant" unicode="&#x259a;" 
d="M0 1583h616v-1024h-616v1024zM616 559h617v-1024h-617v1024z" />
    <glyph glyph-name="upleftuprightdnleftquadrant" unicode="&#x259b;" 
d="M0 1583h1233v-1024h-617v-1024h-616v2048z" />
    <glyph glyph-name="upleftuprightdnrightquadrant" unicode="&#x259c;" 
d="M0 1583h1233v-2048h-617v1024h-616v1024z" />
    <glyph glyph-name="uprightquadrant" unicode="&#x259d;" 
d="M616 1583h617v-1024h-617v1024z" />
    <glyph glyph-name="uprightdnleftquadrant" unicode="&#x259e;" 
d="M616 1583h617v-1024h-617v1024zM616 559v-1024h-616v1024h616z" />
    <glyph glyph-name="uprightdnleftdnrightquadrant" unicode="&#x259f;" 
d="M0 559h616v1024h617v-2048h-1233v1024z" />
    <glyph glyph-name="blacksquare" unicode="&#x25a0;" 
d="M104 1303h1024v-1117h-1024v1117z" />
    <glyph glyph-name="H22073" unicode="&#x25a1;" 
d="M287 354h659v782h-659v-782zM104 186v1117h1024v-1117h-1024z" />
    <glyph glyph-name="blacksmallsquare" unicode="&#x25aa;" 
d="M367 1017h499v-544h-499v544z" />
    <glyph glyph-name="whitesmallsquare" unicode="&#x25ab;" 
d="M786 942h-339v-395h339v395zM935 398h-637v693h637v-693z" />
    <glyph glyph-name="triagup" unicode="&#x25b2;" 
d="M1056 372h-879v38l423 893h33l423 -893v-38z" />
    <glyph glyph-name="blackrightpointingpointer" unicode="&#x25ba;" 
d="M190 372v931h33l820 -447v-37l-820 -447h-33z" />
    <glyph glyph-name="blackdownpointingtriangle" unicode="&#x25bc;" 
d="M177 1210h879v-37l-423 -894h-33l-423 894v37z" />
    <glyph glyph-name="triaglf" unicode="&#x25c4;" 
d="M1043 1303v-931h-34l-819 447v37l819 447h34z" />
    <glyph glyph-name="lozenge" unicode="&#x25ca;" 
d="M614 112l371 633l-371 633l-357 -633zM519 0l-431 745l431 744h181l447 -744l-447 -745h-181z" />
    <glyph glyph-name="circle" unicode="&#x25cb;" 
d="M619 324q165 0 266 118q102 118 102 305.5t-102 304.5t-266 117q-165 0 -266 -118q-102 -118 -102 -305.5t102 -304.5q101 -117 266 -117zM233 326q-153 163 -153 419t151.5 423t386.5 167t388 -166q152 -166 152 -425t-153 -418q-151 -166 -387 -166t-385 166z" />
    <glyph glyph-name="H18533" unicode="&#x25cf;" 
d="M233 326q-153 163 -153 419t151.5 423t386.5 167t388 -166q152 -166 152 -425t-153 -418q-151 -166 -387 -166t-385 166z" />
    <glyph glyph-name="whitebullet" unicode="&#x25e6;" 
d="M823 808q0 166 -206 166t-206 -166v-134q0 -160 206 -160t206 160v134zM972 674q0 -148 -95 -229q-88 -80 -260 -80t-261 80q-93 77 -93 229v134q0 230 135.5 272.5t263 42.5t217.5 -82q93 -77 93 -233v-134z" />
    <glyph glyph-name="uni2619" unicode="&#x2619;" 
d="M141 534q0 306 228 306h22l177 -499h58v471h74q125 0 185.5 -61.5t60.5 -203.5v-350q0 -265 -140 -434t-355 -169t-318 114t-99 299l150 -9q0 -168 57 -197.5t90 -29.5q108 0 108 121v71l-298 400v171zM382 957q-315 0 -298 391l145 -4q-26 -231 143 -231h120v146
q0 240 147 287.5t240 47.5l18 -157q-128 0 -183 -42t-55 -164v-118h205q149 0 236 -108.5t73 -310.5l-145 4q8 120 -39 189.5t-127 69.5h-480z" />
    <glyph glyph-name="female" unicode="&#x2640;" 
d="M389 1253q-86 -101 -86 -265t85.5 -265t227.5 -101t227.5 101t85.5 264t-85.5 264t-226.5 101q-142 0 -228 -99zM694 -372h-154v378h-350v156h350v309q-182 27 -291 168q-111 138 -111 356q0 219 134 366t344.5 147t344.5 -145q134 -146 134 -364t-111 -360t-290 -168
v-309h350v-156h-350v-378z" />
    <glyph glyph-name="male" unicode="&#x2642;" 
d="M270 750q-86 -101 -86 -265t85.5 -265t227.5 -101t227.5 101t85.5 264t-85.5 264t-226.5 101q-142 0 -228 -99zM832 869q144 -148 144 -380t-134 -379t-344 -147t-345 147q-134 147 -134 375.5t134 373.5q134 146 344 146q124 0 220 -52l307 393h-439v143h672v-742h-136
v517z" />
    <glyph glyph-name="spade" unicode="&#x2660;" 
d="M907 168v-168h-581v168h205l22 484h-47l-95 -280h-91q-115 0 -182 83t-67 208v171l482 655h127l484 -655v-171q0 -123 -67 -207t-185 -84h-91l-95 280h-46l22 -484h205z" />
    <glyph glyph-name="club" unicode="&#x2663;" 
d="M374 1123q0 161 65.5 273t176.5 112t176.5 -110.5t65.5 -274.5l-117 -198l45 -52q39 60 89 99q37 35 85 35q97 0 163.5 -77.5t66.5 -223.5q0 -145 -99 -252q-98 -113 -255 -113l-82 320h-71l19 -493h208v-168h-588v168h209l18 493h-69l-83 -320q-156 0 -255 104t-99 274
q0 126 71 204q69 71 163 71t170 -121l45 52z" />
    <glyph glyph-name="heart" unicode="&#x2665;" 
d="M378 1489q187 0 214 -428h48q18 216 100 322t195.5 106t178.5 -113t50 -270l-36 -320l-415 -786h-194l-415 786l-33 320q-15 165 52 268q68 115 255 115z" />
    <glyph glyph-name="diamond" unicode="&#x2666;" 
d="M518 0l-432 745l432 744h180l447 -744l-447 -745h-180z" />
    <glyph glyph-name="musicalnote" unicode="&#x266a;" 
d="M942 820q0 52 -29 97.5t-137 118t-141 118.5v-871q0 -130 -89.5 -216t-212.5 -86q-124 0 -181 57t-57 148.5t77 164.5t204 73h121v1084h116q7 -73 52.5 -110t178 -125.5t195.5 -172t63 -212.5q0 -184 -78 -276.5t-121 -133.5l-86 107q92 85 108.5 134t16.5 101z" />
    <glyph glyph-name="uni26A1" unicode="&#x26a1;" 
d="M650 803l424 98l84 -154l-778 -1077l-147 69l360 746l-442 -101l-77 139l745 1076l134 -74z" />
    <glyph glyph-name="checkmark" unicode="&#x2713;" 
d="M473 438q184 583 439 1051h356q-387 -661 -587 -1489h-404l-329 905h361z" />
    <glyph glyph-name="uni2767" unicode="&#x2767;" 
d="M782 -108q0 -121 108 -121t128.5 84.5t20.5 142.5l149 9q4 -183 -98.5 -298t-318.5 -115t-355.5 168.5t-139.5 434.5v350q0 208 92 236.5t153 28.5h75v-471h57l179 499h23q227 0 227 -306v-171l-300 -400v-71zM359 957q-80 0 -126.5 -69t-38.5 -190l-144 -4
q-14 202 74 310.5t233 108.5h207v118q0 123 -56.5 164.5t-183.5 41.5l19 157q183 0 286 -87.5t103 -247.5v-146h117q130 0 139.5 88.5t5.5 142.5l145 4q17 -391 -299 -391h-481z" />
    <glyph glyph-name="a.salt_ss" unicode="&#xe000;" 
d="M676 1128q274 0 443 -100v-1028h-359v227h-53q-32 -117 -113.5 -181.5t-205.5 -64.5t-199 106.5t-75 296.5v210q0 253 144 393.5t418 140.5zM626 881q-78 0 -115.5 -68t-37.5 -221v-177q0 -88 26.5 -126t86.5 -38q78 0 174 127v475q-56 28 -134 28z" />
    <glyph glyph-name="agrave.salt_ss" unicode="&#xe001;" 
d="M523 1303l-391 373h445l177 -373h-231zM1119 0h-359v227h-53q-31 -117 -113 -181t-206 -65q-124 1 -199 107t-75 296v210q0 253 144 394q144 140 418 140t443 -100v-1028zM626 881q-78 0 -115 -68q-38 -68 -38 -221v-177q1 -88 27 -126t86 -38q80 0 174 127v475
q-56 28 -134 28z" />
    <glyph glyph-name="aacute.salt_ss" unicode="&#xe002;" 
d="M505 1303l175 373h446l-391 -373h-230zM1119 0h-359v227h-53q-31 -117 -113 -181t-206 -65q-124 1 -199 107t-75 296v210q0 253 144 394q144 140 418 140t443 -100v-1028zM626 881q-78 0 -115 -68q-38 -68 -38 -221v-177q1 -88 27 -126t86 -38q80 0 174 127v475
q-56 28 -134 28z" />
    <glyph glyph-name="acircumflex.salt_ss" unicode="&#xe003;" 
d="M309 1277l-110 153l315 294h275l319 -294l-108 -151l-348 197zM1119 0h-359v227h-53q-31 -117 -113 -181t-206 -65q-124 1 -199 107t-75 296v210q0 253 144 394q144 140 418 140t443 -100v-1028zM626 881q-78 0 -115 -68q-38 -68 -38 -221v-177q1 -88 27 -126t86 -38
q80 0 174 127v475q-56 28 -134 28z" />
    <glyph glyph-name="atilde.salt_ss" unicode="&#xe004;" 
d="M1119 0h-359v227h-53q-31 -117 -113 -181t-206 -65q-124 1 -199 107t-75 296v210q0 253 144 394q144 140 418 140t443 -100v-1028zM626 881q-78 0 -115 -68q-38 -68 -38 -221v-177q1 -88 27 -126t86 -38q80 0 174 127v475q-56 28 -134 28zM799 1547q71 0 69 132v28h227
v-28q0 -157 -74 -257t-202 -100t-201 89q-28 34 -51 62t-55 28q-73 0 -71 -133v-27h-227v27q0 156 76 258t203 102q76 0 121 -26t77 -62t55 -65q23 -28 53 -28z" />
    <glyph glyph-name="adieresis.salt_ss" unicode="&#xe005;" 
d="M1119 0h-359v227h-53q-31 -117 -113 -181t-206 -65q-124 1 -199 107t-75 296v210q0 253 144 394q144 140 418 140t443 -100v-1028zM626 881q-78 0 -115 -68q-38 -68 -38 -221v-177q1 -88 27 -126t86 -38q80 0 174 127v475q-56 28 -134 28zM1052 1426q0 -138 -173 -138
t-173 138v26q0 144 172 144t174 -144v-26zM601 1426q0 -138 -173 -138t-173 138v26q0 144 173 144t173 -144v-26z" />
    <glyph glyph-name="aring.salt_ss" unicode="&#xe006;" 
d="M1119 0h-359v227h-53q-31 -117 -113 -181t-206 -65q-124 1 -199 107t-75 296v210q0 253 144 394q144 140 418 140t443 -100v-1028zM626 881q-78 0 -115 -68q-38 -68 -38 -221v-177q1 -88 27 -126t86 -38q80 0 174 127v475q-56 28 -134 28zM532 1605v-60q0 -67 30 -94
t90 -27q59 0 91 27t32 94v60q0 128 -122 126q-121 0 -121 -126zM653 1259q-166 1 -267 71t-101 215v60q0 147 101 220t267 73t268 -73q101 -73 101 -220v-60q0 -145 -101 -216q-102 -70 -268 -70z" />
    <glyph glyph-name="amacron.salt_ss" unicode="&#xe007;" 
d="M1119 0h-359v227h-53q-31 -117 -113 -181t-206 -65q-124 1 -199 107t-75 296v210q0 253 144 394q144 140 418 140t443 -100v-1028zM626 881q-78 0 -115 -68q-38 -68 -38 -221v-177q1 -88 27 -126t86 -38q80 0 174 127v475q-56 28 -134 28zM264 1355v269h779v-269h-779z
" />
    <glyph glyph-name="abreve.salt_ss" unicode="&#xe008;" 
d="M1119 0h-359v227h-53q-31 -117 -113 -181t-206 -65q-124 1 -199 107t-75 296v210q0 253 144 394q144 140 418 140t443 -100v-1028zM626 881q-78 0 -115 -68q-38 -68 -38 -221v-177q1 -88 27 -126t86 -38q80 0 174 127v475q-56 28 -134 28zM653 1290q-233 0 -347 109
t-116 332h285q2 -128 41 -177q40 -50 138 -50t137 50t41 177h285q-3 -223 -117 -332t-347 -109z" />
    </font>
</defs>
</svg>
