<?xml version="1.0" standalone="no"?>
<!DOCTYPE svg PUBLIC "-//W3C//DTD SVG 1.1//EN" "http://www.w3.org/Graphics/SVG/1.1/DTD/svg11.dtd" >
<svg xmlns="http://www.w3.org/2000/svg">
<metadata>
Created by FontPrep 20130207 at Mon Aug 15 19:30:28 2016
 By Damien Criado
(c) Copyright The Font Bureau, Inc. 2014. All rights reserved.
</metadata>
<defs>
<font id="70b1d4caab43e2b0f24117473c62f5b8" horiz-adv-x='1024' >
  <font-face 
    font-family="InputMonoNarrow-Regular"
    font-weight="400"
    font-stretch="semi-condensed"
    units-per-em="2048"
    panose-1="2 0 5 9 2 0 0 9 0 4"
    ascent="1583"
    descent="-465"
    x-height="1117"
    cap-height="1489"
    bbox="-400 -838 1603 2607"
    underline-thickness="0"
    underline-position="0"
    unicode-range="U+000D-1F41B"
  />
<missing-glyph 
d="M279 -279h674v1675h-674v-1675zM93 -465v2048h1046v-2048h-1046z" />
    <glyph glyph-name=".notdef" 
d="M279 -279h674v1675h-674v-1675zM93 -465v2048h1046v-2048h-1046z" />
    <glyph glyph-name=".null" horiz-adv-x="0" 
 />
    <glyph glyph-name="nonmarkingreturn" unicode="&#xd;" horiz-adv-x="0" 
 />
    <glyph glyph-name="NULL" horiz-adv-x="0" 
 />
    <glyph glyph-name="space" unicode="&#xa0;" 
 />
    <glyph glyph-name="space" unicode=" " 
 />
    <glyph glyph-name="exclam" unicode="!" 
d="M622 -19q-170 0 -170 157v52q0 82 41 121t130 39t128.5 -39t39.5 -121v-52q0 -80 -40.5 -118.5t-128.5 -38.5zM547 559l-52 930h250l-51 -930h-147z" />
    <glyph glyph-name="quotedbl" unicode="&#x22;" 
d="M266 750l-52 739h281l-52 -739h-177zM789 750l-52 739h281l-52 -739h-177z" />
    <glyph glyph-name="numbersign" unicode="#" 
d="M99 376v162h231l18 413h-249v162h257l16 376h160l-18 -376h238l17 376h160l-19 -376h224v-162h-229l-19 -413h248v-162h-257l-17 -376h-160l19 376h-239l-16 -376h-161l19 376h-223zM726 538l19 413h-237l-18 -413h236z" />
    <glyph glyph-name="dollar" unicode="$" 
d="M184 1054q0 326 362 348v181h141v-183q202 -20 326 -104l-52 -151q-134 80 -291 95v-425q216 -63 302.5 -148.5t86.5 -236.5t-96.5 -242t-275.5 -104v-177h-141v181q-233 20 -373 126l52 147q146 -103 339 -125v440q-210 60 -295 146.5t-85 231.5zM896 418
q0 88 -48.5 135.5t-177.5 90.5v-413q102 4 164 51.5t62 135.5zM344 1074q0 -88 47.5 -135t172.5 -90v397q-104 -4 -162 -44t-58 -128z" />
    <glyph glyph-name="percent" unicode="%" 
d="M985 357q0 138 -82 138t-113.5 -33.5t-31.5 -104.5v-119q0 -71 31.5 -102.5t113.5 -31.5t82 134v119zM873 -41q-123 0 -200 69t-77 214v112q0 145 77 215t200 70t198.5 -70t75.5 -215v-112q0 -145 -75.5 -214t-198.5 -69zM69 372l1015 857l87 -108l-1016 -857zM361 990
q52 0 83 34t31 108v112q0 71 -31 104t-83 33t-83.5 -33.5t-31.5 -103.5v-112q0 -74 31.5 -108t83.5 -34zM361 847q-123 0 -199 71t-76 218v104q0 145 76 216t199 71t198.5 -71t75.5 -216v-104q0 -147 -75.5 -218t-198.5 -71z" />
    <glyph glyph-name="ampersand" unicode="&#x26;" 
d="M374 691q-119 -119 -119 -319q0 -99 47.5 -165.5t124.5 -66.5q136 0 258 145q-189 180 -311 406zM458 866q238 118 238 294q0 88 -41 140t-109 52t-103 -61.5t-35 -175.5t50 -249zM407 -19q-133 0 -227 98.5t-94 270.5t70.5 280.5t165.5 168.5q-82 191 -82 350
q0 158 80 258.5t222 100.5t225.5 -91t83.5 -231t-80 -235.5t-272 -181.5q57 -122 133.5 -219.5t130.5 -151.5q89 151 173 395l149 -72q-47 -114 -110 -212t-135 -204l348 -149l-28 -165q-189 60 -371 203q-76 -97 -162.5 -155t-219.5 -58z" />
    <glyph glyph-name="quotesingle" unicode="'" 
d="M529 750l-54 739h283l-52 -739h-177z" />
    <glyph glyph-name="parenleft" unicode="(" 
d="M356 558.5q0 385.5 163.5 633t441.5 316.5l18 -140q-225 -69 -334 -284.5t-109 -525.5t109 -526t334 -283l-18 -140q-277 69 -441 316.5t-164 633z" />
    <glyph glyph-name="parenright" unicode=")" 
d="M696 558.5q0 309.5 -108 525.5t-335 284l19 140q277 -69 441 -316.5t164 -633t-164 -633t-441 -316.5l-19 140q227 67 335 283.5t108 526z" />
    <glyph glyph-name="asterisk" unicode="*" 
d="M1007 559l-337 288l49 -437h-209l50 435l-335 -286l-106 184l399 208l-399 209l106 184l335 -288l-50 433h209l-49 -433l337 288l105 -184l-399 -209l399 -208z" />
    <glyph glyph-name="plus" unicode="+" 
d="M529 76v486h-391v179h391v486h177v-486h389v-179h-389v-486h-177z" />
    <glyph glyph-name="comma" unicode="," 
d="M357 -378l153 741h348l-353 -741h-148z" />
    <glyph glyph-name="hyphen" unicode="&#x2011;" 
d="M138 562v179h957v-179h-957z" />
    <glyph glyph-name="hyphen" unicode="&#x2010;" 
d="M138 562v179h957v-179h-957z" />
    <glyph glyph-name="hyphen" unicode="&#xad;" 
d="M138 562v179h957v-179h-957z" />
    <glyph glyph-name="hyphen" unicode="-" 
d="M138 562v179h957v-179h-957z" />
    <glyph glyph-name="period" unicode="." 
d="M617 -19q-87 0 -140.5 41t-53.5 131v50q0 91 54 133t141.5 42t140.5 -42t53 -133v-50q0 -89 -54 -130.5t-141 -41.5z" />
    <glyph glyph-name="slash" unicode="/" 
d="M186 -372l683 1861h177l-683 -1861h-177z" />
    <glyph glyph-name="zero.salt_slash" unicode="&#xe05c;" 
d="M901 667v148q0 269 -63 393l-369 -1024q65 -41 147 -41q168 0 226.5 134t58.5 390zM616 1346q-168 0 -226.5 -137.5t-58.5 -393.5v-148q0 -224 45 -350l363 1001q-56 28 -123 28zM617 -19q-239 0 -351.5 177t-112.5 492v182q0 317 112.5 496.5t351.5 179.5t351 -179.5
t112 -496.5v-182q0 -315 -112 -492t-351 -177z" />
    <glyph glyph-name="zero.salt_slash" unicode="0" 
d="M901 667v148q0 269 -63 393l-369 -1024q65 -41 147 -41q168 0 226.5 134t58.5 390zM616 1346q-168 0 -226.5 -137.5t-58.5 -393.5v-148q0 -224 45 -350l363 1001q-56 28 -123 28zM617 -19q-239 0 -351.5 177t-112.5 492v182q0 317 112.5 496.5t351.5 179.5t351 -179.5
t112 -496.5v-182q0 -315 -112 -492t-351 -177z" />
    <glyph glyph-name="one" unicode="1" 
d="M236 0v162h373v1110h-49q-52 -102 -146 -149t-211 -28l-17 177q128 -13 240 43.5t188 173.5h175v-1327h339v-162h-892z" />
    <glyph glyph-name="two" unicode="2" 
d="M153 0v317q0 173 73.5 268t248.5 152l229 75q95 30 137 77t42 141v78q0 128 -58 183t-205 55t-202 -65t-68 -259l-181 19q13 255 114.5 361t329.5 106t339 -94t111 -286v-126q0 -140 -72.5 -221t-243.5 -137l-229 -74q-89 -28 -137 -80t-48 -170v-158h747v-162h-927z" />
    <glyph glyph-name="three" unicode="3" 
d="M600 -19q-264 0 -357.5 105.5t-106.5 315.5l181 19q15 -169 71.5 -225t217.5 -56t227 59.5t66 204.5v50q0 143 -62 200t-221 57h-171v162h171q140 0 195 45t55 156v60q0 119 -59.5 167.5t-197.5 48.5t-192 -54t-67 -199l-181 18q13 210 118.5 301.5t311.5 91.5
t326.5 -88.5t120.5 -287.5v-61q0 -112 -71.5 -176.5t-194.5 -73.5v-54q149 -13 224.5 -102.5t75.5 -210.5v-50q0 -199 -108 -311t-372 -112z" />
    <glyph glyph-name="four" unicode="4" 
d="M1165 393h-204v-393h-181v393h-644v162l568 934h257v-934h204v-162zM780 555v730l-450 -730h450z" />
    <glyph glyph-name="five" unicode="5" 
d="M678 918q402 0 402 -413v-123q0 -184 -119 -292.5t-367 -108.5t-346.5 89.5t-111.5 337.5l181 18q13 -177 67.5 -230t219.5 -53t230 64.5t65 190.5v92q0 132 -53 194.5t-176 62.5h-484v742h827v-162h-646v-409h311z" />
    <glyph glyph-name="six" unicode="6" 
d="M614.5 143q145.5 0 213.5 73t68 227v24q0 155 -68 226.5t-213.5 71.5t-213.5 -71.5t-68 -226.5v-24q0 -155 68 -227.5t213.5 -72.5zM610 -19q-232 0 -344.5 141.5t-112.5 391.5v465q0 259 120 394t337 135t318.5 -79t136.5 -260l-196 -43q-24 119 -72.5 169.5
t-192.5 50.5t-207.5 -84.5t-63.5 -282.5v-193h32q47 69 116.5 106t185.5 37q209 0 311 -123t102 -318v-41q0 -227 -119 -346.5t-351 -119.5z" />
    <glyph glyph-name="seven" unicode="7" 
d="M153 1309v180h927v-180q-194 -348 -286 -625.5t-155 -683.5h-198q95 484 180 743t278 566h-746z" />
    <glyph glyph-name="eight" unicode="8" 
d="M616.5 140q158.5 0 220.5 57.5t62 204.5v32q0 151 -62 208.5t-220.5 57.5t-221 -57.5t-62.5 -208.5v-32q0 -147 62.5 -204.5t221 -57.5zM616.5 864q139.5 0 194.5 48.5t55 171.5v50q0 121 -55 168.5t-194.5 47.5t-194.5 -47.5t-55 -168.5v-50q0 -123 55 -171.5
t194.5 -48.5zM616 -19q-244 0 -353.5 96t-109.5 307v40q0 141 70.5 231t197.5 103v54q-101 9 -168 83.5t-67 197.5v59q0 186 102.5 271t328.5 85t327.5 -84.5t101.5 -271.5v-59q0 -123 -67 -197.5t-167 -83.5v-54q127 -13 197.5 -103.5t70.5 -230.5v-40q0 -210 -110 -306.5
t-354 -96.5z" />
    <glyph glyph-name="nine" unicode="9" 
d="M153 1002v41q0 227 118.5 346t350.5 119t345 -141.5t113 -390.5v-466q0 -248 -113 -388.5t-337 -140.5t-325.5 80t-136.5 259l195 43q26 -128 79 -174t190 -46t202 86t65 281v194h-31q-91 -144 -300 -144t-312 119.5t-103 322.5zM618 724q143 0 212 72.5t69 225.5v24
q0 153 -69 226.5t-212 73.5t-212 -73.5t-69 -226.5v-24q0 -153 69 -225.5t212 -72.5z" />
    <glyph glyph-name="colon" unicode=":" 
d="M617 -19q-85 0 -139 37.5t-54 117.5v84q0 82 54 120t140 38t139 -38t53 -120v-84q0 -80 -54 -117.5t-139 -37.5zM617 732q-85 0 -139 37t-54 117v84q0 82 54 120t140 38t139 -38t53 -120v-84q0 -80 -54 -117t-139 -37z" />
    <glyph glyph-name="semicolon" unicode=";" 
d="M359 -380l151 745h346l-351 -745h-146zM617 732q-85 0 -139 37t-54 117v84q0 82 54 120t140 38t139 -38t53 -120v-84q0 -80 -54 -117t-139 -37z" />
    <glyph glyph-name="less" unicode="&#x3c;" 
d="M1044 39l-856 523v179l856 523v-171l-722 -441l722 -442v-171z" />
    <glyph glyph-name="equal" unicode="=" 
d="M138 315v180h957v-180h-957zM138 808v181h957v-181h-957z" />
    <glyph glyph-name="greater" unicode="&#x3e;" 
d="M188 39v171l721 442l-721 441v171l856 -523v-179z" />
    <glyph glyph-name="question" unicode="?" 
d="M715 138q0 -157 -171 -157q-88 0 -129 38.5t-41 118.5v52q0 82 41 121t128.5 39t129.5 -39t42 -121v-52zM942 1028v57q0 119 -64 190t-264 71t-258 -70t-71 -254l-181 19q13 261 124.5 364t387.5 103t390.5 -110.5t114.5 -289.5v-88q0 -195 -152 -285.5t-489 -146.5
l-35 146q298 52 397.5 117t99.5 177z" />
    <glyph glyph-name="at" unicode="@" 
d="M782 931q-138 0 -138 -186v-209q0 -99 34.5 -140.5t101.5 -41.5t104.5 32.5t37.5 138.5v222q0 97 -40 140.5t-100 43.5zM722 -205q-281 0 -424 154.5t-143 421.5v592q0 248 119 396.5t346 148.5t343.5 -149t116.5 -396v-455q-14 -303 -300 -303q-296 0 -296 314v239
q0 145 70 233.5t171 88.5t154 -97h48q-8 387 -298 387q-173 0 -247.5 -107t-74.5 -300v-592q0 -207 97 -321.5t318 -114.5q170 0 321 52v-142q-166 -50 -321 -50z" />
    <glyph glyph-name="A" unicode="A" 
d="M961 0l-118 434h-459l-118 -434h-182l437 1489h192l438 -1489h-190zM801 594l-185 689l-188 -689h373z" />
    <glyph glyph-name="B" unicode="B" 
d="M365 162h294q128 0 188 57t60 181v58q0 125 -59.5 180.5t-188.5 55.5h-294v-532zM365 855h262q119 0 174 49t55 161v50q0 112 -54.5 162t-174.5 50h-262v-472zM1087 380q0 -380 -461 -380h-442v1489h430q212 0 315.5 -86.5t103.5 -263.5v-85q0 -93 -51 -157.5t-142 -81.5
v-54q114 -11 180.5 -92t66.5 -207v-82z" />
    <glyph glyph-name="C" unicode="C" 
d="M153 977q0 531 484 531q235 0 350 -121t128 -382l-180 -18q-15 205 -80.5 282t-226.5 77t-228 -83t-67 -284v-476q0 -192 70 -276t229 -84t222.5 76.5t80.5 275.5l180 -18q-13 -257 -128.5 -376.5t-351.5 -119.5q-482 0 -482 524v472z" />
    <glyph glyph-name="D" unicode="D" 
d="M365 162h201q168 0 250.5 97t82.5 260v444q0 166 -82.5 265t-250.5 99h-201v-1165zM184 0v1489h386q238 0 374 -144t136 -384v-440q0 -238 -137 -379.5t-375 -141.5h-384z" />
    <glyph glyph-name="E" unicode="E" 
d="M184 0v1489h896v-162h-715v-435h629v-162h-629v-568h715v-162h-896z" />
    <glyph glyph-name="F" unicode="F" 
d="M190 0v1489h892v-162h-711v-588h592v-160h-592v-579h-181z" />
    <glyph glyph-name="G" unicode="G" 
d="M640 -19q-234 0 -360.5 138t-126.5 386v472q0 257 124.5 394t348.5 137t332.5 -114.5t121.5 -352.5l-181 -19q-13 177 -74.5 250.5t-208.5 73.5t-215 -83.5t-68 -283.5v-476q0 -194 72.5 -277t234.5 -83t227.5 95t65.5 321h-317v160h497v-196q0 -261 -119.5 -401.5
t-353.5 -140.5z" />
    <glyph glyph-name="H" unicode="H" 
d="M184 0v1489h181v-599h503v599h180v-1489h-180v728h-503v-728h-181z" />
    <glyph glyph-name="I" unicode="I" 
d="M184 0v162h343v1165h-343v162h864v-162h-341v-1165h341v-162h-864z" />
    <glyph glyph-name="J" unicode="J" 
d="M585 143q281 0 281 326v858h-345v162h525v-1018q0 -238 -118 -364t-347 -126t-340 118.5t-124 375.5l181 20q13 -210 71.5 -281t215.5 -71z" />
    <glyph glyph-name="K" unicode="K" 
d="M365 711v-711h-181v1489h181v-616h58l517 616h207l-583 -685l577 -804h-212l-501 711h-63z" />
    <glyph glyph-name="L" unicode="L" 
d="M270 0v1489h181v-1327h597v-162h-778z" />
    <glyph glyph-name="M" unicode="M" 
d="M132 0v1489h235l255 -901l253 901h225v-1489h-162l4 1203l-242 -836h-168l-242 836l4 -1203h-162z" />
    <glyph glyph-name="N" unicode="N" 
d="M346 0h-162v1489h242l460 -1284v1284h162v-1489h-253l-449 1266v-1266z" />
    <glyph glyph-name="O" unicode="O" 
d="M616.5 143q154.5 0 218.5 82t64 280v472q0 201 -64 285t-218.5 84t-219 -83.5t-64.5 -285.5v-472q0 -197 64.5 -279.5t219 -82.5zM616 -19q-227 0 -345 135t-118 390v470q0 261 119 396.5t345 135.5t344.5 -136t118.5 -396v-470q0 -255 -118.5 -390t-345.5 -135z" />
    <glyph glyph-name="P" unicode="P" 
d="M365 683h298q136 0 194.5 54t58.5 183v171q0 128 -58.5 182t-194.5 54h-298v-644zM184 0v1489h484q218 0 323.5 -96.5t105.5 -295.5v-177q0 -201 -106.5 -298t-323.5 -97h-302v-525h-181z" />
    <glyph glyph-name="Q" unicode="Q" 
d="M616.5 155q152.5 0 217.5 79t65 263v484q0 190 -65 272t-217.5 82t-218 -82t-65.5 -272v-484q0 -184 65.5 -263t218 -79zM153 503v473q0 261 119 396.5t346 135.5t344.5 -136t117.5 -396v-473q0 -210 -80 -339t-235 -168q6 -143 94.5 -181t238.5 -9l27 -160
q-242 -54 -385.5 22.5t-149.5 311.5q-214 7 -325.5 141t-111.5 382z" />
    <glyph glyph-name="R" unicode="R" 
d="M1128 983q0 -355 -331 -397l348 -586h-205l-342 581h-233v-581h-181v1489h518q426 0 426 -391v-115zM365 737h331q134 0 193 58t59 188v115q0 123 -59 176t-193 53h-331v-590z" />
    <glyph glyph-name="S" unicode="S" 
d="M644 149q128 0 206.5 65t78.5 174t-67.5 165.5t-293.5 132.5t-319 168t-93 267t120.5 275.5t304.5 100.5q311 0 491 -220l-100 -134q-78 95 -181.5 143.5t-212.5 48.5t-174 -50.5t-65 -154.5t70.5 -161t296.5 -130t314 -163.5t88 -251.5q0 -210 -139.5 -323.5
t-333.5 -113.5q-332 0 -521 222l106 130q160 -190 424 -190z" />
    <glyph glyph-name="T" unicode="T" 
d="M527 0v1327h-423v162h1024v-162h-421v-1327h-180z" />
    <glyph glyph-name="U" unicode="U" 
d="M616 -19q-218 0 -325 129.5t-107 392.5v986h181v-990q0 -195 56.5 -276.5t194.5 -81.5t195 81t57 277v990h180v-986q0 -263 -107 -392.5t-325 -129.5z" />
    <glyph glyph-name="V" unicode="V" 
d="M715 0h-196l-435 1489h193l343 -1249l343 1249h188z" />
    <glyph glyph-name="W" unicode="W" 
d="M814 0l-198 894l-195 -894h-179l-184 1489h177l119 -1212l175 840h182l175 -840l121 1212h168l-185 -1489h-176z" />
    <glyph glyph-name="X" unicode="X" 
d="M974 0l-356 601l-357 -601h-207l471 760l-430 729h207l337 -569l338 569h205l-452 -728l447 -761h-203z" />
    <glyph glyph-name="Y" unicode="Y" 
d="M707 0h-180v559l-484 930h199l384 -761l366 761h196l-481 -930v-559z" />
    <glyph glyph-name="Z" unicode="Z" 
d="M1080 0h-927v162l716 1165h-716v162h927v-162l-717 -1165h717v-162z" />
    <glyph glyph-name="bracketleft" unicode="[" 
d="M356 -372v1861h607v-162h-427v-1560h427v-139h-607z" />
    <glyph glyph-name="backslash" unicode="\" 
d="M869 -372l-683 1861h177l683 -1861h-177z" />
    <glyph glyph-name="bracketright" unicode="]" 
d="M270 -372v139h426v1560h-426v162h607v-1861h-607z" />
    <glyph glyph-name="asciicircum" unicode="^" 
d="M976 372l-358 903l-344 -903h-173l426 1117h180l440 -1117h-171z" />
    <glyph glyph-name="underscore" unicode="_" 
d="M138 -372v178h957v-178h-957z" />
    <glyph glyph-name="grave" unicode="`" 
d="M693 750l-388 739h350l187 -739h-149z" />
    <glyph glyph-name="a" unicode="a" 
d="M564 1136q171 0 285 -81t114 -249v-517q0 -95 50 -121.5t151 -7.5v-166q-117 -19 -206 17.5t-98 169.5h-35q-47 -86 -143 -143t-224 -57t-225 78.5t-97 232.5t89.5 238t219.5 84h337v168q0 86 -54 138t-164 52t-164 -38t-85 -161l-157 44q61 319 406 319zM313 311
q0 -173 186 -173t283 154v185h-292q-80 0 -128.5 -37.5t-48.5 -128.5z" />
    <glyph glyph-name="b" unicode="b" 
d="M603 140q134 0 199.5 62t65.5 196v324q0 125 -49.5 183.5t-151.5 58.5q-165 0 -302 -188v-571q104 -65 238 -65zM595 -19q-218 0 -409 125v1383h179v-545h52q41 91 120 141.5t180 50.5q156 0 242.5 -108t86.5 -307v-326q0 -197 -116.5 -305.5t-334.5 -108.5z" />
    <glyph glyph-name="c" unicode="c" 
d="M365 389q1 -246 267 -246q130 0 190.5 44t65.5 148l177 -9q-22 -345 -425 -345q-227 0 -340.5 105.5t-113.5 304.5v328q0 205 114 311t326 106t319 -95t120 -287l-177 -9q-7 123 -67.5 176t-190.5 53q-266 0 -265 -253v-332z" />
    <glyph glyph-name="d" unicode="d" 
d="M626 1136q116 0 242 -52v405h178v-1489h-178v173h-53q-41 -91 -120 -141.5t-179 -50.5q-156 0 -243 110t-87 306v325q0 195 115.5 304.5t324.5 109.5zM365 393q0 -240 201 -240q165 0 302 188v564q-101 72 -237 72t-201 -63t-65 -195v-326z" />
    <glyph glyph-name="e" unicode="e" 
d="M553 981q-188 0 -188 -264v-56h503v39q0 147 -63.5 214t-251.5 67zM614 -19q-200 0 -314 104.5t-114 307.5v326q0 209 120 313t313 104t310 -106.5t117 -325.5v-181h-681v-130q0 -138 62.5 -197.5t186.5 -59.5t179.5 38t85.5 122l173 -52q-47 -138 -142.5 -200.5
t-295.5 -62.5z" />
    <glyph glyph-name="f" unicode="f" 
d="M819 1342q-195 0 -195 -147v-78h422v-162h-422v-955h-181v955h-290v162h290v75q0 149 108 230.5t253 81.5t274 -52l-34 -152q-99 42 -225 42z" />
    <glyph glyph-name="g" unicode="g" 
d="M281 -89q0 -157 173 -157h345q169 0 169 145q0 140 -153 140h-534v-128zM582.5 570q102.5 0 155.5 41t53 132v58q0 89 -53 129t-155.5 40t-155.5 -40t-53 -129v-58q0 -91 53 -132t155.5 -41zM279 318q0 -115 132 -115h384q145 0 240 -68.5t95 -222.5t-101.5 -228.5
t-250.5 -74.5h-320q-156 0 -256 66t-100 208q0 89 45 142t127 61v39q-138 25 -138 186q0 80 47.5 143.5t155.5 72.5v35q-82 30 -113 91.5t-31 115.5v52q0 128 101 212t285 84h510v-166l-266 45v-35q67 -20 103 -78t36 -116v-50q0 -128 -93 -207.5t-294 -79.5h-203
q-47 0 -71 -25t-24 -87z" />
    <glyph glyph-name="h" unicode="h" 
d="M670 964q-161 0 -305 -184v-780h-179v1489h179v-545h52q35 88 116 140t186 52q151 0 239 -100.5t88 -270.5v-765h-178v730q0 115 -51.5 174.5t-146.5 59.5z" />
    <glyph glyph-name="i.salt_serifs" unicode="&#xe023;" 
d="M707 162h371v-162h-551v955h-372v162h552v-955zM615 1322q-66 0 -107 22t-41 82v13q0 61 41 85t108 23q67 0 108 -23t41 -85v-13q0 -60 -42 -82t-108 -22z" />
    <glyph glyph-name="i.salt_serifs" unicode="i" 
d="M707 162h371v-162h-551v955h-372v162h552v-955zM615 1322q-66 0 -107 22t-41 82v13q0 61 41 85t108 23q67 0 108 -23t41 -85v-13q0 -60 -42 -82t-108 -22z" />
    <glyph glyph-name="j" unicode="j" 
d="M449 -212q247 0 247 225v942h-476v162h657v-1128q0 -192 -121 -284t-284 -92t-286 41l34 175q108 -41 229 -41zM779 1324q-66 0 -107 22t-41 82v13q0 61 41 85t108 23q67 0 108 -23t41 -85v-13q0 -60 -42 -82t-108 -22z" />
    <glyph glyph-name="k" unicode="k" 
d="M447 510v-510h-181v1489h181v-826h85l326 454h216l-400 -519l395 -598h-205l-332 510h-85z" />
    <glyph glyph-name="l.salt_serifs_round" unicode="&#xe056;" 
d="M525 348v979h-370v162h551v-1146q0 -188 167 -188q104 0 170 35l35 -156q-88 -43 -230 -43t-232.5 95t-90.5 262z" />
    <glyph glyph-name="l.salt_serifs_round" unicode="l" 
d="M525 348v979h-370v162h551v-1146q0 -188 167 -188q104 0 170 35l35 -156q-88 -43 -230 -43t-232.5 95t-90.5 262z" />
    <glyph glyph-name="m" unicode="m" 
d="M724 974q68 162 218 162q76 0 123.5 -73t47.5 -201v-862h-163v836q0 160 -79 160q-35 0 -80.5 -49.5t-92.5 -138.5v-808h-164v836q0 160 -80 160q-72 0 -171 -188v-808h-164v1117h164v-143h35q30 76 82 119t112 43q136 0 175 -162h37z" />
    <glyph glyph-name="n" unicode="n" 
d="M670 964q-160 0 -305 -186v-778h-179v1117h179v-173h52q41 89 122 140.5t182 51.5q151 0 238 -100t87 -273v-763h-178v728q0 117 -51.5 176.5t-146.5 59.5z" />
    <glyph glyph-name="o" unicode="o" 
d="M616.5 974q-251.5 0 -251.5 -255v-328q0 -128 62.5 -188t189 -60t189 60t62.5 188v328q0 255 -251.5 255zM616.5 -19q-206.5 0 -318.5 106.5t-112 303.5v328q0 199 112 308t318 109t318 -109t112 -308v-326q0 -199 -111.5 -305.5t-318 -106.5z" />
    <glyph glyph-name="p" unicode="p" 
d="M607 -19q-119 0 -242 53v-406h-179v1489h179v-173h52q41 89 121 140.5t179 51.5q155 0 242 -111t87 -304v-326q0 -192 -117 -303t-322 -111zM605 140q134 0 198.5 62t64.5 196v328q0 123 -49.5 180.5t-151.5 57.5q-164 0 -302 -188v-564q106 -72 240 -72z" />
    <glyph glyph-name="q" unicode="q" 
d="M365 411q0 -258 201 -258q165 0 302 188v571q-103 65 -229 65q-125 0 -199.5 -64t-74.5 -194v-308zM649 1136q213 0 397 -110v-1398h-178v545h-53q-45 -93 -123 -142.5t-176 -49.5q-158 0 -244 108t-86 308v325q0 199 125 306.5t338 107.5z" />
    <glyph glyph-name="r" unicode="r" 
d="M713 964q-162 0 -264 -173v-791h-181v1117h181v-179h50q68 198 289 198q117 0 193.5 -81t76.5 -230v-172h-172v107q0 106 -42 155t-131 49z" />
    <glyph glyph-name="s" unicode="s" 
d="M367 820q0 -83 63 -118t250 -65t282.5 -108t95.5 -216q0 -168 -126 -250t-278 -82q-304 0 -499 159l76 143q181 -140 402 -140q97 0 171.5 31.5t74.5 119.5t-65.5 122t-250.5 64t-280 104t-95 228t114 239t256 85q262 0 464 -160l-76 -144q-182 142 -365 142
q-89 0 -151.5 -35.5t-62.5 -118.5z" />
    <glyph glyph-name="t" unicode="t" 
d="M428 348v607h-287v162h287v372h181v-372h439v-162h-439v-588q0 -212 193 -212q129 0 228 37l35 -166q-122 -43 -283 -43q-160 0 -257 93t-97 272z" />
    <glyph glyph-name="u" unicode="u" 
d="M562 153q162 0 306 184v780h178v-1117h-178v173h-53q-34 -86 -116.5 -139t-184.5 -53q-149 0 -238.5 102.5t-89.5 270.5v763h179v-730q0 -234 197 -234z" />
    <glyph glyph-name="v" unicode="v" 
d="M730 0h-227l-362 1117h194l283 -966l283 966h188z" />
    <glyph glyph-name="w" unicode="w" 
d="M765 0l-149 730l-143 -730h-199l-192 1117h171l127 -974l132 790h201l145 -760l121 944h172l-192 -1117h-194z" />
    <glyph glyph-name="x" unicode="x" 
d="M868 0l-263 419l-248 -419h-199l360 560l-347 557h201l250 -402l251 402h199l-361 -547l356 -570h-199z" />
    <glyph glyph-name="y" unicode="y" 
d="M345 -223q167 0 228 219h-74l-359 1121h195l285 -966l283 966h188l-367 -1156q-58 -186 -161 -265.5t-243 -79.5q-63 0 -173 21l30 162q94 -22 168 -22z" />
    <glyph glyph-name="z" unicode="z" 
d="M1015 0h-797v162l584 793h-584v162h797v-162l-579 -793h579v-162z" />
    <glyph glyph-name="braceleft" unicode="{" 
d="M672 799q0 -202 -337 -216v-10q168 -19 252.5 -78t84.5 -167q0 -52 -28 -96t-84 -99t-82.5 -97t-26.5 -97q0 -95 113.5 -136t398.5 -36v-158q-367 -7 -530 70t-163 239q0 93 34.5 156.5t76.5 110.5t76.5 88.5t34.5 87.5q0 88 -86 124t-307 42v108q222 6 307.5 41
t85.5 121q0 47 -35.5 80t-76.5 74t-75.5 100t-34.5 154q0 156 163 233.5t530 69.5v-162q-285 6 -398.5 -33.5t-113.5 -128.5q0 -43 27.5 -83t83.5 -96t83 -102.5t27 -103.5z" />
    <glyph glyph-name="bar" unicode="|" 
d="M536 -372v1861h160v-1861h-160z" />
    <glyph glyph-name="braceright" unicode="}" 
d="M560 799q0 58 27 104.5t84 102.5t84 95.5t27 82.5q0 89 -113.5 128.5t-398.5 33.5v162q367 7 530 -70t163 -233q0 -95 -34.5 -154t-75.5 -100t-76.5 -74.5t-35.5 -79.5q0 -86 85.5 -121.5t307.5 -40.5v-108q-222 -6 -307.5 -42t-85.5 -124q0 -47 34.5 -87.5t76.5 -88.5
t76.5 -111t34.5 -156q0 -162 -163 -239t-530 -70v158q285 -6 398.5 35.5t113.5 136.5q0 56 -26 97.5t-82 96.5t-85 99t-29 96q0 209 337 245v10q-337 14 -337 216z" />
    <glyph glyph-name="asciitilde" unicode="~" 
d="M385 912q-108 0 -108 -210v-281h-158v292q0 177 78.5 275.5t185.5 98.5t170 -58.5t122 -208.5t91 -197.5t80 -47.5t77.5 51.5t29.5 166.5v278h159v-291q0 -179 -76.5 -278.5t-184.5 -99.5t-171.5 60t-123.5 208t-92 195t-79 47z" />
    <glyph glyph-name="exclamdown" unicode="&#xa1;" 
d="M693 931l50 -931h-250l53 931h147zM447 1352q0 156 169 156q88 0 130 -38t42 -118v-52q0 -161 -129.5 -161t-170.5 39.5t-41 121.5v52z" />
    <glyph glyph-name="cent" unicode="&#xa2;" 
d="M562 -93v264q-199 17 -288.5 128.5t-89.5 309.5v279q0 194 89.5 303.5t288.5 126.5v265h140v-263q179 -13 264.5 -111.5t98.5 -286.5l-168 -12q-7 134 -56.5 188t-155.5 60v-827q108 4 156.5 52.5t55.5 176.5l168 -11q-11 -184 -97.5 -275.5t-265.5 -104.5v-262h-140z
M363 588q0 -123 52 -183.5t164 -73.5v827q-112 -9 -164 -70.5t-52 -186.5v-313z" />
    <glyph glyph-name="sterling" unicode="&#xa3;" 
d="M540 547q0 -178 -155 -298l21 -29q47 32 90.5 29t91.5 -23t89.5 -45t89.5 -25q86 0 122 56t47 205l179 -19q-11 -205 -103 -311t-249 -106q-58 0 -115.5 28.5t-121.5 62.5t-109.5 44.5t-92.5 -21.5l-156 -112l-99 134l141 92q61 41 106 136.5t45 189.5t-39 186h-236v165
h150q-50 102 -50 229q0 177 108 285t318 108t317.5 -97.5t118.5 -308.5l-179 -18q-11 151 -67 206.5t-188 55.5t-188.5 -57.5t-56.5 -168.5t65 -234h341v-165h-263q28 -80 28 -174z" />
    <glyph glyph-name="currency" unicode="&#xa4;" 
d="M238 577v328q0 100 23 171l-175 192l109 115l148 -164q99 103 275 103t274 -104l145 156l110 -115l-173 -188q20 -78 20 -166v-328q0 -94 -20 -158l173 -188l-110 -116l-143 155q-98 -102 -276.5 -102t-274.5 100l-148 -162l-109 116l173 191q-21 82 -21 164zM817 905
q0 255 -201 255t-201 -255v-328q0 -132 50.5 -189.5t151 -57.5t150.5 57.5t50 189.5v328z" />
    <glyph glyph-name="yen" unicode="&#xa5;" 
d="M1048 186h-341v-186h-180v186h-343v166h343v207h-343v165h255l-402 765h196l385 -802l384 802h191l-400 -765h255v-165h-341v-207h341v-166z" />
    <glyph glyph-name="brokenbar" unicode="&#xa6;" 
d="M536 -372v744h160v-744h-160zM536 745v744h160v-744h-160z" />
    <glyph glyph-name="section" unicode="&#xa7;" 
d="M1061 -24q0 -181 -117 -271t-296 -90q-123 0 -236.5 45.5t-195.5 129.5l84 145q89 -80 171.5 -119t180.5 -39t169 40t71 145t-89.5 156t-223.5 83q-199 41 -299.5 116.5t-100.5 203.5t62 195.5t157 97.5q-106 50 -162.5 127t-56.5 195q0 186 123.5 273.5t269.5 87.5
q280 0 454 -175l-88 -145q-88 80 -169.5 119t-182 39t-168.5 -45.5t-68 -129.5q0 -115 90 -166.5t256 -87.5t265.5 -111.5t99.5 -221.5q0 -112 -63 -178.5t-158 -96.5q221 -100 221 -322zM881 542q0 96 -66.5 134.5t-126.5 51.5t-77 17.5t-32 8.5q-86 -2 -153 -45.5
t-67 -139.5t67.5 -134.5t127.5 -51.5t77 -17.5t32 -8.5q86 2 152 45.5t66 139.5z" />
    <glyph glyph-name="dieresis" unicode="&#xa8;" 
d="M929 1428q-1 -60 -33 -82t-83 -22t-82 22t-31 82v13q0 61 31 85t83 23q52 0 84 -23t31 -85v-13zM532 1428q0 -60 -32 -82t-82 -22q-51 0 -83 22t-32 82v13q0 61 32 85t84 23q52 0 83 -23t30 -85v-13z" />
    <glyph glyph-name="copyright" unicode="&#xa9;" 
d="M361 849q0 339 260 339q133 0 189 -79t67 -243l-147 -11q-7 112 -28 149t-76 37t-81 -41t-26 -136v-350q0 -95 27 -136t82 -41t74.5 32.5t27.5 138.5l147 -11q-11 -160 -67 -233.5t-190 -73.5q-259 0 -259 342v317zM616.5 -88q238.5 0 338 142.5t99.5 435.5v389
q0 292 -99.5 439t-338 147t-338 -147t-99.5 -439v-387q0 -292 99.5 -436t338 -144zM616 -205q-294 0 -429 178t-135 505v414q0 331 136 511t430 180t428 -180t134 -511v-414q0 -328 -135 -505.5t-429 -177.5z" />
    <glyph glyph-name="ordfeminine" unicode="&#xaa;" 
d="M470 601q-106 0 -186.5 60.5t-80.5 180.5t75.5 185.5t181.5 65.5h274v113q0 73 -42 120.5t-129.5 47.5t-133 -28t-72.5 -128l-135 39q24 123 103 187t228 64t242 -70t93 -213v-361q0 -84 35.5 -103.5t126.5 -6.5v-143q-106 -7 -173 20.5t-75 141.5h-29
q-39 -73 -118 -122.5t-185 -49.5zM503 972q-146 0 -146 -112q0 -62 35.5 -92.5t121.5 -30.5q141 0 220 131v104h-231z" />
    <glyph glyph-name="guillemotleft" unicode="&#xab;" 
d="M583 192l-447 370v175l447 371v-170l-348 -288l348 -289v-169zM1100 192l-447 370v175l447 371v-170l-348 -288l348 -289v-169z" />
    <glyph glyph-name="logicalnot" unicode="&#xac;" 
d="M920 0v562h-782v179h957v-741h-175z" />
    <glyph glyph-name="registered" unicode="&#xae;" 
d="M832 1011q0 -136 -111 -173l124 -233h-134l-113 220h-69v-220h-119v661h225q95 0 146 -53t51 -150v-52zM713 1063q0 97 -80 97h-104v-227h104q39 0 59.5 16.5t20.5 61.5v52zM987 786v283q0 214 -86 323t-285 109t-284.5 -109t-85.5 -323v-283q0 -212 85.5 -318.5
t284.5 -106.5t285 106t86 319zM616.5 259q-251.5 0 -366 138.5t-114.5 369.5v322q0 233 114.5 372.5t365.5 139.5t366 -139.5t115 -372.5v-322q0 -231 -114.5 -369.5t-366 -138.5z" />
    <glyph glyph-name="macron" unicode="&#x2c9;" 
d="M272 1409v161h689v-161h-689z" />
    <glyph glyph-name="macron" unicode="&#xaf;" 
d="M272 1409v161h689v-161h-689z" />
    <glyph glyph-name="degree" unicode="&#xb0;" 
d="M616 1342q-177 0 -177 -178v-187q0 -93 44.5 -133t132.5 -40t132.5 40t44.5 133v187q0 178 -177 178zM616.5 648q-154.5 0 -249.5 82t-95 249v183q0 171 95 255t250 84t249.5 -84t94.5 -255v-183q0 -168 -95 -249.5t-249.5 -81.5z" />
    <glyph glyph-name="plusminus" unicode="&#xb1;" 
d="M529 263v485h-391v179h391v486h177v-486h389v-179h-389v-485h-177zM138 0v179h957v-179h-957z" />
    <glyph glyph-name="two.sups" unicode="&#xb2;" 
d="M616 1501q335 0 335 -252v-65q0 -192 -195 -233l-209 -46q-52 -11 -83.5 -39t-31.5 -106v-62h531v-132h-691v192q0 228 199 273l209 47q60 13 85.5 42t25.5 86v38q0 58 -36 94t-138.5 36t-135 -40t-38.5 -135l-162 13q7 145 82 217t253 72z" />
    <glyph glyph-name="three.sups" unicode="&#xb3;" 
d="M608 555q-182 0 -261 68t-86 202l160 11q7 -84 42 -118.5t149 -34.5t151.5 36.5t37.5 101.5v30q0 69 -36.5 102.5t-142.5 33.5h-149v130h149q88 0 123 20.5t35 81.5v40q0 63 -46.5 88t-129.5 25t-119 -30.5t-42 -101.5l-162 11q9 134 87 192t234 58t247 -51.5t91 -181.5
v-30q0 -74 -44.5 -116t-115.5 -50v-33q80 -7 131.5 -60.5t51.5 -135.5v-26q0 -134 -86.5 -198t-268.5 -64z" />
    <glyph glyph-name="acute" unicode="&#xb4;" 
d="M419 1303l231 373h264l-335 -373h-160z" />
    <glyph glyph-name="mu1" unicode="&#xb5;" 
d="M169 1117h181v-756q0 -112 57 -160t139 -48q131 0 236 141v823h181v-825q0 -98 41 -124t126 -8v-166q-250 -40 -268 194h-35q-105 -207 -299 -207q-108 0 -178 90v-34l17 -409h-214l16 409v1080z" />
    <glyph glyph-name="paragraph" unicode="&#xb6;" 
d="M873 633h-171v-1005h-181v1005q-162 0 -277.5 88.5t-115.5 278.5v97q0 197 114.5 294.5t276.5 97.5h535v-1861h-181v1005z" />
    <glyph glyph-name="periodcentered" unicode="&#x2219;" 
d="M617 544q-87 0 -140.5 41.5t-53.5 131.5v46q0 91 54 134t141.5 43t140.5 -42.5t53 -134.5v-46q0 -89 -54 -131t-141 -42z" />
    <glyph glyph-name="periodcentered" unicode="&#xb7;" 
d="M617 544q-87 0 -140.5 41.5t-53.5 131.5v46q0 91 54 134t141.5 43t140.5 -42.5t53 -134.5v-46q0 -89 -54 -131t-141 -42z" />
    <glyph glyph-name="cedilla" unicode="&#xb8;" 
d="M817 -171q0 -117 -79 -173t-185 -56t-179 44t-80 149l158 19q2 -35 26 -49t74 -14q51 0 77 23q26 24 26 88q-1 64 -21 94t-70 46l36 78q86 -16 152 -74t65 -175z" />
    <glyph glyph-name="one.sups" unicode="&#xb9;" 
d="M357 566v132h233v598h-26q-20 -74 -81.5 -119t-138.5 -47l-9 136q86 4 161.5 59.5t97.5 163.5h156v-791h213v-132h-606z" />
    <glyph glyph-name="ordmasculine" unicode="&#xba;" 
d="M616 741q108 0 161 45.5t53 151.5v224q0 106 -53 155.5t-161 49.5t-162 -49.5t-54 -155.5v-224q0 -106 54 -151.5t162 -45.5zM616 601q-168 0 -269 85t-101 252v224q0 171 100.5 258.5t270 87.5t269 -87.5t99.5 -258.5v-224q0 -168 -100.5 -252.5t-268.5 -84.5z" />
    <glyph glyph-name="guillemotright" unicode="&#xbb;" 
d="M652 194v169l350 289l-350 288v170l446 -371v-175zM134 194v169l350 289l-350 288v170l449 -371v-175z" />
    <glyph glyph-name="onequarter" unicode="&#xbc;" 
d="M696 -86v367l-296 -367h296zM1015 -212h-159v-179h-160v179h-435v126l387 488h208v-488h159v-126zM694 503v110l520 37v-185zM19 465v185l543 -37v-110zM324 763v134h233v410h-26q-17 -71 -79 -118.5t-139 -47.5l-10 136q92 4 165.5 62.5t91.5 161.5h159v-604h212v-134
h-607z" />
    <glyph glyph-name="onehalf" unicode="&#xbd;" 
d="M616 395q335 0 335 -216v-64q0 -82 -54 -134q-48 -41 -141 -63l-209 -46q-61 -13 -88 -36.5t-27 -94.5h531v-132h-691v155q0 193 199 234l209 47q59 13 85 32t26 59v37q0 46 -28 63q-49 30 -148 30q-98 0 -131 -28t-41 -110l-162 13q8 137 80 190q78 64 255 64zM694 503
v110l520 37v-185zM19 465v185l543 -37v-110zM324 763v134h233v410h-26q-17 -71 -79 -118.5t-139 -47.5l-10 136q144 7 195 87.5t62 136.5h159v-604h212v-134h-607z" />
    <glyph glyph-name="threequarters" unicode="&#xbe;" 
d="M696 -86v367l-296 -367h296zM1015 -212h-159v-179h-160v179h-435v126l387 488h208v-488h159v-126zM694 503v110l520 37v-185zM19 465v185l543 -37v-110zM780 1326q0 55 -124.5 55t-171.5 -20q-37 -21 -41 -73l-162 12q11 165 127.5 188.5t195.5 23.5q161 0 248.5 -40
t87.5 -137v-30q0 -66 -44 -102q-38 -36 -116 -45v-33q79 -8 117 -35q66 -46 66 -105v-26q0 -159 -130 -183t-222 -24q-186 0 -265 58q-79 54 -85 175l160 11q8 -67 43 -90t145 -23q110 -1 142 15t41 30t9 35v29q0 40 -29 55q-49 24 -156 24h-95v132h95q93 1 120 13
q44 20 44 71v39z" />
    <glyph glyph-name="questiondown" unicode="&#xbf;" 
d="M290 462v-58q0 -121 64 -191t264 -70t258.5 70t71.5 254l180 -18q-13 -261 -123.5 -364.5t-386.5 -103.5t-391 111t-115 290v87q0 195 151.5 285.5t488.5 146.5l36 -145q-298 -52 -398 -117.5t-100 -176.5zM518 1352q0 156 171 156q88 0 128.5 -38t40.5 -118v-52
q0 -82 -41 -121.5t-170 -39.5t-129 161v52z" />
    <glyph glyph-name="Agrave" unicode="&#xc0;" 
d="M961 0l-118 434h-459l-118 -434h-182l437 1489h192l438 -1489h-190zM801 594l-185 689l-188 -689h373zM618 1676l-337 372h266l229 -372h-158z" />
    <glyph glyph-name="Aacute" unicode="&#xc1;" 
d="M961 0l-118 434h-459l-118 -434h-182l437 1489h192l438 -1489h-190zM801 594l-185 689l-188 -689h373zM421 1676l231 372h264l-335 -372h-160z" />
    <glyph glyph-name="Acircumflex" unicode="&#xc2;" 
d="M961 0l-118 434h-459l-118 -434h-182l437 1489h192l438 -1489h-190zM801 594l-185 689l-188 -689h373zM320 1691l-72 111l303 276h130l308 -276l-73 -111l-300 212z" />
    <glyph glyph-name="Atilde" unicode="&#xc3;" 
d="M961 0l-118 434h-459l-118 -434h-182l437 1489h192l438 -1489h-190zM801 594l-185 689l-188 -689h373zM845 2026v20h136v-28q0 -141 -58 -233q-59 -91 -169 -91q-63 0 -103 34t-70 74t-55 75q-25 34 -57 33q-80 0 -76 -177v-20h-138v28q0 140 59 232t168 92q69 0 110 -34
q41 -35 71 -75t52 -74t52 -33q78 0 78 177z" />
    <glyph glyph-name="Adieresis" unicode="&#xc4;" 
d="M961 0l-118 434h-459l-118 -434h-182l437 1489h192l438 -1489h-190zM801 594l-185 689l-188 -689h373zM814 1696q-52 0 -82 22t-30 82v13q0 61 31 85t83 23q52 0 83 -23q32 -23 32 -85v-13q0 -60 -33 -82t-84 -22zM534 1800q0 -60 -32 -82t-82 -22q-51 0 -83 22t-32 82
v13q0 61 32 85t84 23q52 0 83 -23t30 -85v-13z" />
    <glyph glyph-name="Aring" unicode="&#xc5;" 
d="M961 0l-118 434h-459l-118 -434h-182l437 1489h192l438 -1489h-190zM801 594l-185 689l-188 -689h373zM478 1918q0 -140 139 -140t141 140v59q0 145 -139 145t-141 -145v-59zM618 1650q-125 0 -201 65t-76 203v59q0 140 76 207t201 67t201 -67t77 -207v-59
q0 -138 -76 -203t-202 -65z" />
    <glyph glyph-name="AE" unicode="&#xc6;" 
d="M631 434h-346l-114 -434h-151l410 1489h765v-143h-404v-475h388v-141h-388v-587h404v-143h-564v434zM631 575v771h-106l-203 -771h309z" />
    <glyph glyph-name="Ccedilla" unicode="&#xc7;" 
d="M153 977q0 531 484 531q235 0 350 -121t128 -382l-180 -18q-15 205 -80 282t-227 77t-228 -83q-67 -83 -67 -284v-476q0 -192 70 -276t229 -84q158 1 222 77t81 275l180 -18q-13 -257 -128 -376q-77 -79 -208 -106q57 -57 57 -170t-79 -169t-185 -56t-179 44t-80 149
l158 19q2 -35 25 -49q22 -14 74 -14t78 23q26 24 26 88t-16 87t-33 34q-472 6 -472 524v472z" />
    <glyph glyph-name="Egrave" unicode="&#xc8;" 
d="M184 0v1489h896v-162h-715v-435h629v-162h-629v-568h715v-162h-896zM635 1676l-337 372h266l229 -372h-158z" />
    <glyph glyph-name="Eacute" unicode="&#xc9;" 
d="M184 0v1489h896v-162h-715v-435h629v-162h-629v-568h715v-162h-896zM471 1676l231 372h264l-335 -372h-160z" />
    <glyph glyph-name="Ecircumflex" unicode="&#xca;" 
d="M184 0v1489h896v-162h-715v-435h629v-162h-629v-568h715v-162h-896zM352 1691l-73 111l304 276h130l307 -276l-72 -111l-300 212z" />
    <glyph glyph-name="Edieresis" unicode="&#xcb;" 
d="M184 0v1489h896v-162h-715v-435h629v-162h-629v-568h715v-162h-896zM846 1696q-51 0 -82 22t-30 82v13q0 61 30 85q31 23 83 23t84 -23t32 -85v-13q0 -60 -33 -82t-84 -22zM451 1696q-51 0 -83 22t-31 82v13q0 61 32 85q31 24 83 23q52 0 83 -23t31 -85v-13
q0 -60 -32 -82t-83 -22z" />
    <glyph glyph-name="Igrave" unicode="&#xcc;" 
d="M184 0v162h343v1165h-343v162h864v-162h-341v-1165h341v-162h-864zM616 1676l-337 372h267l229 -372h-159z" />
    <glyph glyph-name="Iacute" unicode="&#xcd;" 
d="M184 0v162h343v1165h-343v162h864v-162h-341v-1165h341v-162h-864zM419 1676l231 372h264l-335 -372h-160z" />
    <glyph glyph-name="Icircumflex" unicode="&#xce;" 
d="M184 0v162h343v1165h-343v162h864v-162h-341v-1165h341v-162h-864zM318 1691l-72 111l303 276h131l307 -276l-73 -111l-300 212z" />
    <glyph glyph-name="Idieresis" unicode="&#xcf;" 
d="M184 0v162h343v1165h-343v162h864v-162h-341v-1165h341v-162h-864zM929 1800q-1 -60 -33 -82t-83 -22t-82 22t-31 82v13q0 61 31 85t83 23q52 0 84 -23t31 -85v-13zM532 1800q0 -60 -32 -82t-82 -22q-51 0 -83 22t-32 82v13q0 61 32 85t84 23q52 0 83 -23t30 -85v-13z
" />
    <glyph glyph-name="Eth" unicode="&#xd0;" 
d="M365 162h201q168 0 250.5 97t82.5 260v444q0 166 -82.5 265t-250.5 99h-201v-426h251v-164h-251v-575zM184 0v737h-165v164h165v588h386q238 0 374 -144t136 -384v-440q0 -238 -137 -379.5t-375 -141.5h-384z" />
    <glyph glyph-name="Ntilde" unicode="&#xd1;" 
d="M346 0h-162v1489h242l460 -1284v1284h162v-1489h-253l-449 1266v-1266zM875 2026v20h136v-28q-1 -140 -59 -232t-168 -92q-63 0 -104 34q-40 34 -70 74t-54 75q-25 34 -57 33q-80 0 -76 -177v-20h-138v28q0 140 59 232t168 92q69 0 110 -34q41 -35 71 -75t52 -74t52 -33
q78 0 78 177z" />
    <glyph glyph-name="Ograve" unicode="&#xd2;" 
d="M616 143q155 0 219 82t64 280v472q0 201 -64 285t-219 84t-219 -84t-64 -285v-472q0 -197 64 -279t219 -83zM616 -19q-227 0 -345 135t-118 390v470q0 260 119 396t345 136q227 0 345 -136t118 -396v-470q0 -255 -118 -390t-346 -135zM616 1676l-337 372h267l229 -372
h-159z" />
    <glyph glyph-name="Oacute" unicode="&#xd3;" 
d="M616 143q155 0 219 82t64 280v472q0 201 -64 285t-219 84t-219 -84t-64 -285v-472q0 -197 64 -279t219 -83zM616 -19q-227 0 -345 135t-118 390v470q0 260 119 396t345 136q227 0 345 -136t118 -396v-470q0 -255 -118 -390t-346 -135zM486 1676l231 372h264l-335 -372
h-160z" />
    <glyph glyph-name="Ocircumflex" unicode="&#xd4;" 
d="M616 143q155 0 219 82t64 280v472q0 201 -64 285t-219 84t-219 -84t-64 -285v-472q0 -197 64 -279t219 -83zM616 -19q-227 0 -345 135t-118 390v470q0 260 119 396t345 136q227 0 345 -136t118 -396v-470q0 -255 -118 -390t-346 -135zM318 1691l-72 111l303 276h131
l307 -276l-73 -111l-300 212z" />
    <glyph glyph-name="Otilde" unicode="&#xd5;" 
d="M616 143q155 0 219 82t64 280v472q0 201 -64 285t-219 84t-219 -84t-64 -285v-472q0 -197 64 -279t219 -83zM616 -19q-227 0 -345 135t-118 390v470q0 260 119 396t345 136q227 0 345 -136t118 -396v-470q0 -255 -118 -390t-346 -135zM843 2026v20h136v-28
q0 -141 -58 -233q-59 -91 -169 -91q-63 0 -103 34t-70 74t-55 75q-25 34 -57 33q-80 0 -76 -177v-20h-138v28q0 140 59 232t168 92q69 0 110 -34q41 -35 71 -75t52 -74t52 -33q78 0 78 177z" />
    <glyph glyph-name="Odieresis" unicode="&#xd6;" 
d="M616 143q155 0 219 82t64 280v472q0 201 -64 285t-219 84t-219 -84t-64 -285v-472q0 -197 64 -279t219 -83zM616 -19q-227 0 -345 135t-118 390v470q0 260 119 396t345 136q227 0 345 -136t118 -396v-470q0 -255 -118 -390t-346 -135zM929 1800q-1 -60 -33 -82t-83 -22
t-82 22t-31 82v13q0 61 31 85t83 23q52 0 84 -23t31 -85v-13zM532 1800q0 -60 -32 -82t-82 -22q-51 0 -83 22t-32 82v13q0 61 32 85t84 23q52 0 83 -23t30 -85v-13z" />
    <glyph glyph-name="multiply" unicode="&#xd7;" 
d="M255 93l-115 108l365 451l-365 450l115 108l361 -445l361 436l116 -108l-365 -441l365 -442l-116 -108l-361 436z" />
    <glyph glyph-name="Oslash" unicode="&#xd8;" 
d="M1080 977v-472q0 -253 -119.5 -388.5t-344.5 -135.5q-113 0 -195 34l-75 -201h-175l108 292q-126 130 -126 399v472q0 257 119 394t346 137q92 0 166 -22l71 190h175l-103 -270q153 -135 153 -429zM616 143q156 0 220.5 82t64.5 278v476q0 180 -50 263l-387 -1071
q65 -28 152 -28zM616 1346q-156 0 -220.5 -83.5t-64.5 -283.5v-476q0 -145 32 -222l380 1048q-63 17 -127 17z" />
    <glyph glyph-name="Ugrave" unicode="&#xd9;" 
d="M1048 503q0 -522 -432 -522t-432 522v986h181v-990q0 -195 57 -277q56 -82 194 -81q138 0 195 81t57 277v990h180v-986zM616 1676l-337 372h267l229 -372h-159z" />
    <glyph glyph-name="Uacute" unicode="&#xda;" 
d="M1048 503q0 -522 -432 -522t-432 522v986h181v-990q0 -195 57 -277q56 -82 194 -81q138 0 195 81t57 277v990h180v-986zM419 1676l231 372h264l-335 -372h-160z" />
    <glyph glyph-name="Ucircumflex" unicode="&#xdb;" 
d="M1048 503q0 -522 -432 -522t-432 522v986h181v-990q0 -195 57 -277q56 -82 194 -81q138 0 195 81t57 277v990h180v-986zM318 1691l-72 111l303 276h131l307 -276l-73 -111l-300 212z" />
    <glyph glyph-name="Udieresis" unicode="&#xdc;" 
d="M1048 503q0 -522 -432 -522t-432 522v986h181v-990q0 -195 57 -277q56 -82 194 -81q138 0 195 81t57 277v990h180v-986zM929 1800q-1 -60 -33 -82t-83 -22t-82 22t-31 82v13q0 61 31 85t83 23q52 0 84 -23t31 -85v-13zM532 1800q0 -60 -32 -82t-82 -22q-51 0 -83 22
t-32 82v13q0 61 32 85t84 23q52 0 83 -23t30 -85v-13z" />
    <glyph glyph-name="Yacute" unicode="&#xdd;" 
d="M707 0h-180v559l-484 930h199l384 -761l366 761h196l-481 -930v-559zM419 1676l231 372h264l-335 -372h-160z" />
    <glyph glyph-name="Thorn" unicode="&#xde;" 
d="M365 439h298q138 0 195.5 56t57.5 190v171q0 123 -57.5 176t-195.5 53h-298v-646zM184 0v1489h181v-243h303q210 0 319.5 -100t109.5 -293v-164q0 -199 -110 -303.5t-320 -104.5h-302v-281h-181z" />
    <glyph glyph-name="germandbls" unicode="&#xdf;" 
d="M283 1056v-1056h-181v1080q0 210 128.5 317t320.5 107t313 -118t121 -306v-84q-171 0 -269 -37t-98 -136q0 -78 63.5 -110t208.5 -64q290 -64 290 -327q0 -171 -111 -252t-243 -81q-260 0 -402 164l94 145q147 -147 294 -147q80 0 136 35.5t56 119.5t-51.5 120t-168.5 64
q-179 41 -261 116t-82 210t103.5 221t259.5 91q-28 207 -198 207t-246.5 -67t-76.5 -212z" />
    <glyph glyph-name="agrave" unicode="&#xe0;" 
d="M564 1136q171 0 285 -81t114 -249v-517q0 -95 50 -121t151 -8v-166q-118 -18 -206 18t-98 169h-35q-47 -86 -143 -143t-224 -57q-128 1 -226 79q-96 78 -96 232t89 238q89 85 220 84h337v168q0 86 -54 138t-164 52t-164 -38t-85 -161l-157 44q61 319 406 319zM313 311
q0 -173 187 -173t282 154v185h-292q-80 1 -128 -37t-49 -129zM583 1303l-337 373h266l229 -373h-158z" />
    <glyph glyph-name="aacute" unicode="&#xe1;" 
d="M564 1136q171 0 285 -81t114 -249v-517q0 -95 50 -121t151 -8v-166q-118 -18 -206 18t-98 169h-35q-47 -86 -143 -143t-224 -57q-128 1 -226 79q-96 78 -96 232t89 238q89 85 220 84h337v168q0 86 -54 138t-164 52t-164 -38t-85 -161l-157 44q61 319 406 319zM313 311
q0 -173 187 -173t282 154v185h-292q-80 1 -128 -37t-49 -129zM385 1303l231 373h265l-335 -373h-161z" />
    <glyph glyph-name="acircumflex" unicode="&#xe2;" 
d="M564 1136q171 0 285 -81t114 -249v-517q0 -95 50 -121t151 -8v-166q-118 -18 -206 18t-98 169h-35q-47 -86 -143 -143t-224 -57q-128 1 -226 79q-96 78 -96 232t89 238q89 85 220 84h337v168q0 86 -54 138t-164 52t-164 -38t-85 -161l-157 44q61 319 406 319zM313 311
q0 -173 187 -173t282 154v185h-292q-80 1 -128 -37t-49 -129zM302 1318l-73 112l303 275h131l307 -275l-73 -112l-299 212z" />
    <glyph glyph-name="atilde" unicode="&#xe3;" 
d="M564 1136q171 0 285 -81t114 -249v-517q0 -95 50 -121t151 -8v-166q-118 -18 -206 18t-98 169h-35q-47 -86 -143 -143t-224 -57q-128 1 -226 79q-96 78 -96 232t89 238q89 85 220 84h337v168q0 86 -54 138t-164 52t-164 -38t-85 -161l-157 44q61 319 406 319zM313 311
q0 -173 187 -173t282 154v185h-292q-80 1 -128 -37t-49 -129zM732 1476q78 0 78 177v21h136v-28q0 -140 -58 -232t-169 -92q-63 0 -104 33q-40 34 -69 75q-30 40 -55 74t-57 34q-79 0 -77 -177v-20h-137v27q0 140 58 232q59 92 169 92q69 0 110 -34t71 -74t52 -74t52 -34z
" />
    <glyph glyph-name="adieresis" unicode="&#xe4;" 
d="M564 1136q171 0 285 -81t114 -249v-517q0 -95 50 -121t151 -8v-166q-118 -18 -206 18t-98 169h-35q-47 -86 -143 -143t-224 -57q-128 1 -226 79q-96 78 -96 232t89 238q89 85 220 84h337v168q0 86 -54 138t-164 52t-164 -38t-85 -161l-157 44q61 319 406 319zM313 311
q0 -173 187 -173t282 154v185h-292q-80 1 -128 -37t-49 -129zM779 1324q-51 0 -82 22t-30 82v13q0 61 30 85q31 23 83 23t84 -23t32 -85v-13q0 -60 -33 -82t-84 -22zM384 1324q-50 0 -82 22t-32 82v13q0 61 32 85t84 23q52 0 82 -23q31 -23 31 -85v-13q0 -60 -32 -82
t-83 -22z" />
    <glyph glyph-name="aring" unicode="&#xe5;" 
d="M564 1136q171 0 285 -81t114 -249v-517q0 -95 50 -121t151 -8v-166q-118 -18 -206 18t-98 169h-35q-47 -86 -143 -143t-224 -57q-128 1 -226 79q-96 78 -96 232t89 238q89 85 220 84h337v168q0 86 -54 138t-164 52t-164 -38t-85 -161l-157 44q61 319 406 319zM313 311
q0 -173 187 -173t282 154v185h-292q-80 1 -128 -37t-49 -129zM722 1605q0 145 -140 145t-139 -145v-60q0 -74 35 -107q36 -32 105 -32t104 32t35 107v60zM583 1277q-125 0 -201 65t-77 203v60q1 140 77 207t201 67t201 -67t76 -207v-60q0 -138 -76 -203t-201 -65z" />
    <glyph glyph-name="ae" unicode="&#xe6;" 
d="M229 311q0 -192 130 -192q58 0 102 38.5t85 101.5v236h-159q-69 0 -113.5 -40t-44.5 -144zM847 1000q-158 0 -158 -227v-133h316v116q0 128 -39 186t-119 58zM844 1136q148 0 234 -91.5t86 -283.5v-238h-475v-186q0 -117 39 -169.5t119 -52.5t114.5 34.5t47.5 131.5
l156 -13q-19 -147 -89.5 -217t-209.5 -70q-202 0 -266 168h-28q-39 -74 -97 -121t-154 -47t-174 78.5t-78 232.5t80 238t190 84h207v164q0 97 -39 155.5t-113 58.5t-103.5 -33.5t-59.5 -146.5l-140 44q24 138 96 209t218 71t217 -125q74 125 222 125z" />
    <glyph glyph-name="ccedilla" unicode="&#xe7;" 
d="M365 389q1 -246 267 -246q130 0 190 44t66 148l177 -9q-18 -288 -302 -335q53 -57 53 -168t-80 -167q-79 -56 -185 -56t-179 44t-80 149l159 19q2 -35 25 -49t74 -14t77 23q26 24 26 88t-15 87t-34 35q-200 8 -309 109t-109 300v328q0 205 114 311t326 106t319 -95
t120 -287l-177 -9q-7 123 -68 176t-190 53q-265 0 -265 -253v-332z" />
    <glyph glyph-name="egrave" unicode="&#xe8;" 
d="M616 981q-251 0 -251 -264v-56h503v39q0 147 -64 214t-188 67zM186 393v326q0 209 120 313t313 104t310 -106t117 -326v-181h-681v-130q0 -138 62 -198q62 -59 187 -59t180 38t85 122l173 -52q-47 -138 -143 -200t-295 -62q-200 0 -314 104t-114 307zM618 1303l-337 373
h266l229 -373h-158z" />
    <glyph glyph-name="eacute" unicode="&#xe9;" 
d="M616 981q-251 0 -251 -264v-56h503v39q0 147 -64 214t-188 67zM186 393v326q0 209 120 313t313 104t310 -106t117 -326v-181h-681v-130q0 -138 62 -198q62 -59 187 -59t180 38t85 122l173 -52q-47 -138 -143 -200t-295 -62q-200 0 -314 104t-114 307zM423 1303l230 373
h265l-335 -373h-160z" />
    <glyph glyph-name="ecircumflex" unicode="&#xea;" 
d="M616 981q-251 0 -251 -264v-56h503v39q0 147 -64 214t-188 67zM186 393v326q0 209 120 313t313 104t310 -106t117 -326v-181h-681v-130q0 -138 62 -198q62 -59 187 -59t180 38t85 122l173 -52q-47 -138 -143 -200t-295 -62q-200 0 -314 104t-114 307zM320 1318l-72 112
l303 275h130l308 -275l-73 -112l-300 212z" />
    <glyph glyph-name="edieresis" unicode="&#xeb;" 
d="M616 981q-251 0 -251 -264v-56h503v39q0 147 -64 214t-188 67zM186 393v326q0 209 120 313t313 104t310 -106t117 -326v-181h-681v-130q0 -138 62 -198q62 -59 187 -59t180 38t85 122l173 -52q-47 -138 -143 -200t-295 -62q-200 0 -314 104t-114 307zM814 1324
q-52 0 -82 22t-30 82v13q0 61 31 85t83 23q52 0 83 -23q32 -23 32 -85v-13q0 -60 -33 -82t-84 -22zM534 1428q0 -60 -32 -82t-82 -22q-51 0 -83 22t-32 82v13q0 61 32 85t84 23q52 0 83 -23t30 -85v-13z" />
    <glyph glyph-name="igrave.salt_serifs" unicode="&#xe025;" 
d="M707 162h371v-162h-551v955h-372v162h552v-955zM575 1303l-337 373h267l229 -373h-159z" />
    <glyph glyph-name="igrave.salt_serifs" unicode="&#xec;" 
d="M707 162h371v-162h-551v955h-372v162h552v-955zM575 1303l-337 373h267l229 -373h-159z" />
    <glyph glyph-name="iacute.salt_serifs" unicode="&#xe026;" 
d="M707 162h371v-162h-551v955h-372v162h552v-955zM378 1303l231 373h264l-335 -373h-160z" />
    <glyph glyph-name="iacute.salt_serifs" unicode="&#xed;" 
d="M707 162h371v-162h-551v955h-372v162h552v-955zM378 1303l231 373h264l-335 -373h-160z" />
    <glyph glyph-name="icircumflex.salt_serifs" unicode="&#xe027;" 
d="M707 162h371v-162h-551v955h-372v162h552v-955zM277 1318l-72 112l303 275h131l307 -275l-73 -112l-300 212z" />
    <glyph glyph-name="icircumflex.salt_serifs" unicode="&#xee;" 
d="M707 162h371v-162h-551v955h-372v162h552v-955zM277 1318l-72 112l303 275h131l307 -275l-73 -112l-300 212z" />
    <glyph glyph-name="idieresis.salt_serifs" unicode="&#xe028;" 
d="M707 162h371v-162h-551v955h-372v162h552v-955zM888 1428q0 -60 -32 -82t-84 -22q-51 0 -82 22t-31 82v13q0 61 31 85t83 23q51 0 83 -23t32 -85v-13zM377 1324q-51 0 -83 22t-31 82v13q0 61 31 85q32 23 84 23t83 -23t31 -85v-13q0 -60 -32 -82t-83 -22z" />
    <glyph glyph-name="idieresis.salt_serifs" unicode="&#xef;" 
d="M707 162h371v-162h-551v955h-372v162h552v-955zM888 1428q0 -60 -32 -82t-84 -22q-51 0 -82 22t-31 82v13q0 61 31 85t83 23q51 0 83 -23t32 -85v-13zM377 1324q-51 0 -83 22t-31 82v13q0 61 31 85q32 23 84 23t83 -23t31 -85v-13q0 -60 -32 -82t-83 -22z" />
    <glyph glyph-name="eth" unicode="&#xf0;" 
d="M618 143q136 0 193 64.5t57 192.5v129q0 119 -57 178.5t-193 59.5t-192.5 -59.5t-56.5 -178.5v-129q0 -128 56.5 -192.5t192.5 -64.5zM1048 704v-291q0 -225 -119 -328.5t-312.5 -103.5t-313 104.5t-119.5 316.5v149q0 175 108 277.5t281 102.5q106 0 176 -41t96 -97h38
q-14 242 -114 374l-328 -160v145l229 114q-114 88 -303 140l54 123q249 -73 393 -192l311 151v-146l-216 -106q139 -190 139 -532z" />
    <glyph glyph-name="ntilde" unicode="&#xf1;" 
d="M365 0h-179v1117h179v-173h52q41 88 122 140t182 52q151 0 239 -100t86 -273v-763h-178v728q0 117 -52 177t-146 59q-161 0 -305 -186v-778zM801 1476q76 0 78 177v21h136v-28q-1 -140 -59 -232t-168 -92q-63 0 -104 33q-40 34 -70 75q-30 40 -55 74t-56 34
q-79 0 -77 -177v-20h-137v27q0 140 58 232q59 92 169 92q69 0 115 -37t117 -145q22 -34 53 -34z" />
    <glyph glyph-name="ograve" unicode="&#xf2;" 
d="M365 719v-328q0 -128 62 -188t189 -60t189 60t63 188v328q0 253 -252 255q-251 0 -251 -255zM616 -19q-206 1 -318 107t-112 303v328q0 199 112 308t318 109t319 -109q112 -109 111 -308v-326q0 -199 -112 -305t-318 -107zM616 1303l-337 373h267l229 -373h-159z" />
    <glyph glyph-name="oacute" unicode="&#xf3;" 
d="M365 719v-328q0 -128 62 -188t189 -60t189 60t63 188v328q0 253 -252 255q-251 0 -251 -255zM616 -19q-206 1 -318 107t-112 303v328q0 199 112 308t318 109t319 -109q112 -109 111 -308v-326q0 -199 -112 -305t-318 -107zM419 1303l231 373h264l-335 -373h-160z" />
    <glyph glyph-name="ocircumflex" unicode="&#xf4;" 
d="M365 719v-328q0 -128 62 -188t189 -60t189 60t63 188v328q0 253 -252 255q-251 0 -251 -255zM616 -19q-206 1 -318 107t-112 303v328q0 199 112 308t318 109t319 -109q112 -109 111 -308v-326q0 -199 -112 -305t-318 -107zM318 1318l-72 112l303 275h131l307 -275
l-73 -112l-300 212z" />
    <glyph glyph-name="otilde" unicode="&#xf5;" 
d="M365 719v-328q0 -128 62 -188t189 -60t189 60t63 188v328q0 253 -252 255q-251 0 -251 -255zM616 -19q-206 1 -318 107t-112 303v328q0 199 112 308t318 109t319 -109q112 -109 111 -308v-326q0 -199 -112 -305t-318 -107zM765 1476q78 0 78 177v21h136v-28
q0 -141 -58 -233q-59 -91 -169 -91q-63 0 -103 34t-70 74t-55 74t-57 34q-80 0 -76 -177v-20h-138v27q0 140 59 232t168 92q69 0 116 -38t117 -144q22 -34 52 -34z" />
    <glyph glyph-name="odieresis" unicode="&#xf6;" 
d="M365 719v-328q0 -128 62 -188t189 -60t189 60t63 188v328q0 253 -252 255q-251 0 -251 -255zM616 -19q-206 1 -318 107t-112 303v328q0 199 112 308t318 109t319 -109q112 -109 111 -308v-326q0 -199 -112 -305t-318 -107zM929 1428q-1 -60 -33 -82t-83 -22t-82 22
t-31 82v13q0 61 31 85t83 23q52 0 84 -23t31 -85v-13zM532 1428q0 -60 -32 -82t-82 -22q-51 0 -83 22t-32 82v13q0 61 32 85t84 23q52 0 83 -23t30 -85v-13z" />
    <glyph glyph-name="divide" unicode="&#xf7;" 
d="M616 50q-65 0 -107 29t-42 89v31q0 61 42 91t107 30t106 -29.5t41 -91.5v-31q0 -60 -41 -89t-106 -29zM138 560v183h957v-183h-957zM616 981q-65 0 -107 29t-42 88v32q0 61 42 91t107 30t106 -29.5t41 -91.5v-32q0 -60 -41 -88.5t-106 -28.5z" />
    <glyph glyph-name="oslash" unicode="&#xf8;" 
d="M1048 719v-328q0 -209 -119 -309.5t-313 -100.5q-85 0 -167 23l-88 -190h-173l123 260q-127 106 -127 317v328q0 210 120 313.5t314 103.5q95 0 166 -23l87 190h173l-122 -262q126 -109 126 -322zM869 391v328q0 100 -39 162l-327 -721q51 -15 113 -15q130 0 191.5 59
t61.5 187zM363 719v-328q0 -95 39 -160l328 726q-51 15 -114 15q-130 0 -191.5 -60.5t-61.5 -192.5z" />
    <glyph glyph-name="ugrave" unicode="&#xf9;" 
d="M868 1117h178v-1117h-178v173h-53q-35 -86 -117 -139t-184 -53q-149 1 -238 103t-90 270v763h179v-730q0 -236 197 -234q162 0 306 184v780zM568 1303l-337 373h266l229 -373h-158z" />
    <glyph glyph-name="uacute" unicode="&#xfa;" 
d="M868 1117h178v-1117h-178v173h-53q-35 -86 -117 -139t-184 -53q-149 1 -238 103t-90 270v763h179v-730q0 -236 197 -234q162 0 306 184v780zM488 1303l231 373h264l-335 -373h-160z" />
    <glyph glyph-name="ucircumflex" unicode="&#xfb;" 
d="M868 1117h178v-1117h-178v173h-53q-35 -86 -117 -139t-184 -53q-149 1 -238 103t-90 270v763h179v-730q0 -236 197 -234q162 0 306 184v780zM320 1318l-72 112l303 275h130l308 -275l-73 -112l-300 212z" />
    <glyph glyph-name="udieresis" unicode="&#xfc;" 
d="M868 1117h178v-1117h-178v173h-53q-35 -86 -117 -139t-184 -53q-149 1 -238 103t-90 270v763h179v-730q0 -236 197 -234q162 0 306 184v780zM814 1324q-52 0 -82 22t-30 82v13q0 61 31 85t83 23q52 0 83 -23q32 -23 32 -85v-13q0 -60 -33 -82t-84 -22zM534 1428
q0 -60 -32 -82t-82 -22q-51 0 -83 22t-32 82v13q0 61 32 85t84 23q52 0 83 -23t30 -85v-13z" />
    <glyph glyph-name="yacute" unicode="&#xfd;" 
d="M320 -384q-66 0 -173 21l30 162q101 -24 172 -23q164 2 224 220h-74l-359 1121h195l285 -966l283 966h188l-367 -1156q-58 -185 -161 -265t-243 -80zM419 1303l231 373h264l-335 -373h-160z" />
    <glyph glyph-name="thorn" unicode="&#xfe;" 
d="M607 -19q-132 0 -242 53v-406h-179v1861h179v-545h52q41 91 121 141.5t179 50.5q155 0 242 -111t87 -304v-326q0 -194 -117 -304t-322 -110zM606 140q133 0 197.5 62t64.5 196v328q0 123 -48.5 180.5t-152.5 57.5q-168 0 -302 -188v-564q108 -72 241 -72z" />
    <glyph glyph-name="ydieresis" unicode="&#xff;" 
d="M320 -384q-66 0 -173 21l30 162q101 -24 172 -23q164 2 224 220h-74l-359 1121h195l285 -966l283 966h188l-367 -1156q-58 -185 -161 -265t-243 -80zM929 1428q-1 -60 -33 -82t-83 -22t-82 22t-31 82v13q0 61 31 85t83 23q52 0 84 -23t31 -85v-13zM532 1428
q0 -60 -32 -82t-82 -22q-51 0 -83 22t-32 82v13q0 61 32 85t84 23q52 0 83 -23t30 -85v-13z" />
    <glyph glyph-name="Amacron" unicode="&#x100;" 
d="M961 0l-118 434h-459l-118 -434h-182l437 1489h192l438 -1489h-190zM801 594l-185 689l-188 -689h373zM274 1782v160h689v-160h-689z" />
    <glyph glyph-name="amacron" unicode="&#x101;" 
d="M564 1136q171 0 285 -81t114 -249v-517q0 -95 50 -121t151 -8v-166q-118 -18 -206 18t-98 169h-35q-47 -86 -143 -143t-224 -57q-128 1 -226 79q-96 78 -96 232t89 238q89 85 220 84h337v168q0 86 -54 138t-164 52t-164 -38t-85 -161l-157 44q61 319 406 319zM313 311
q0 -173 187 -173t282 154v185h-292q-80 1 -128 -37t-49 -129zM238 1409v161h689v-161h-689z" />
    <glyph glyph-name="Abreve" unicode="&#x102;" 
d="M961 0l-118 434h-459l-118 -434h-182l437 1489h192l438 -1489h-190zM801 594l-185 689l-188 -689h373zM618 1663q-175 0 -287 91t-113 296h177q3 -134 57 -189t166 -55t167 55t57 189h176q-2 -205 -114 -296t-286 -91z" />
    <glyph glyph-name="abreve" unicode="&#x103;" 
d="M564 1136q171 0 285 -81t114 -249v-517q0 -95 50 -121t151 -8v-166q-118 -18 -206 18t-98 169h-35q-47 -86 -143 -143t-224 -57q-128 1 -226 79q-96 78 -96 232t89 238q89 85 220 84h337v168q0 86 -54 138t-164 52t-164 -38t-85 -161l-157 44q61 319 406 319zM313 311
q0 -173 187 -173t282 154v185h-292q-80 1 -128 -37t-49 -129zM583 1290q-175 0 -287 91t-114 296h177q2 -135 57 -189t167 -54q113 0 167 55t56 188h177q-1 -205 -113 -296t-287 -91z" />
    <glyph glyph-name="Aogonek" unicode="&#x104;" 
d="M801 594l-185 689l-188 -689h373zM812 -179q0 125 137 221l-106 392h-459l-118 -434h-182l437 1489h192l438 -1489h-131q-50 -55 -50 -118q0 -117 123 -117q72 0 153 19v-166q-90 -18 -188 -18t-172 59q-74 60 -74 162z" />
    <glyph glyph-name="aogonek" unicode="&#x105;" 
d="M782 -168q0 112 133 207q-48 45 -55 142h-35q-47 -86 -143 -143t-224 -57q-128 1 -226 79q-96 78 -96 232t89 238q89 85 220 84h337v168q0 86 -54 138t-164 52t-164 -38t-85 -161l-157 44q61 319 406 319q171 0 285 -81t114 -249v-517q0 -95 50 -121t151 -8v-166
q-96 -15 -173 7q-49 -54 -50 -118q-2 -118 122 -118q72 0 153 19v-166q-99 -20 -175 -18q-110 0 -185 59q-74 61 -74 173zM313 311q0 -173 187 -173t282 154v185h-292q-80 1 -128 -37t-49 -129z" />
    <glyph glyph-name="Cacute" unicode="&#x106;" 
d="M153 977q0 531 484 531q235 0 350 -121t128 -382l-180 -18q-15 205 -80 282t-227 77t-228 -83q-67 -83 -67 -284v-476q0 -192 70 -276t229 -84q158 1 222 77t81 275l180 -18q-13 -257 -129 -377t-351 -119q-482 0 -482 524v472zM503 1676l231 372h264l-335 -372h-160z
" />
    <glyph glyph-name="cacute" unicode="&#x107;" 
d="M365 389q1 -246 267 -246q130 0 190 44t66 148l177 -9q-22 -345 -425 -345q-226 -1 -340 105t-114 305v328q0 205 114 311t326 106t319 -95t120 -287l-177 -9q-7 123 -68 176t-190 53q-265 0 -265 -253v-332zM434 1303l231 373h264l-335 -373h-160z" />
    <glyph glyph-name="Ccircumflex" unicode="&#x108;" 
d="M153 977q0 531 484 531q235 0 350 -121t128 -382l-180 -18q-15 205 -80 282t-227 77t-228 -83q-67 -83 -67 -284v-476q0 -192 70 -276t229 -84q158 1 222 77t81 275l180 -18q-13 -257 -129 -377t-351 -119q-482 0 -482 524v472zM337 1691l-73 111l304 276h130l307 -276
l-72 -111l-300 212z" />
    <glyph glyph-name="ccircumflex" unicode="&#x109;" 
d="M365 389q1 -246 267 -246q130 0 190 44t66 148l177 -9q-22 -345 -425 -345q-226 -1 -340 105t-114 305v328q0 205 114 311t326 106t319 -95t120 -287l-177 -9q-7 123 -68 176t-190 53q-265 0 -265 -253v-332zM344 1318l-72 112l303 275h131l307 -275l-73 -112l-300 212z
" />
    <glyph glyph-name="Cdotaccent" unicode="&#x10a;" 
d="M153 977q0 531 484 531q235 0 350 -121t128 -382l-180 -18q-15 205 -80 282t-227 77t-228 -83q-67 -83 -67 -284v-476q0 -192 70 -276t229 -84q158 1 222 77t81 275l180 -18q-13 -257 -129 -377t-351 -119q-482 0 -482 524v472zM634 1696q-66 0 -107 22t-41 82v13
q0 61 41 85t108 23q67 0 108 -23t41 -85v-13q0 -60 -42 -82t-108 -22z" />
    <glyph glyph-name="cdotaccent" unicode="&#x10b;" 
d="M365 389q1 -246 267 -246q130 0 190 44t66 148l177 -9q-22 -345 -425 -345q-226 -1 -340 105t-114 305v328q0 205 114 311t326 106t319 -95t120 -287l-177 -9q-7 123 -68 176t-190 53q-265 0 -265 -253v-332zM626 1324q-66 0 -107 22t-41 82v13q0 61 41 85t108 23
q67 0 108 -23t41 -85v-13q0 -60 -42 -82t-108 -22z" />
    <glyph glyph-name="Ccaron" unicode="&#x10c;" 
d="M153 977q0 531 484 531q235 0 350 -121t128 -382l-180 -18q-15 205 -80 282t-227 77t-228 -83q-67 -83 -67 -284v-476q0 -192 70 -276t229 -84q158 1 222 77t81 275l180 -18q-13 -257 -129 -377t-351 -119q-482 0 -482 524v472zM572 1683l-308 276l73 111l300 -210
l296 210l72 -111l-303 -276h-130z" />
    <glyph glyph-name="ccaron" unicode="&#x10d;" 
d="M365 389q1 -246 267 -246q130 0 190 44t66 148l177 -9q-22 -345 -425 -345q-226 -1 -340 105t-114 305v328q0 205 114 311t326 106t319 -95t120 -287l-177 -9q-7 123 -68 176t-190 53q-265 0 -265 -253v-332zM564 1311l-307 275l73 112l299 -210l296 210l73 -112
l-304 -275h-130z" />
    <glyph glyph-name="Dcaron" unicode="&#x10e;" 
d="M365 162h201q168 0 250 97t83 260v444q0 165 -83 265t-250 99h-201v-1165zM184 0v1489h386q238 0 374 -144t136 -384v-440q0 -237 -137 -379t-375 -142h-384zM553 1683l-307 276l72 111l300 -210l296 210l73 -111l-304 -276h-130z" />
    <glyph glyph-name="dcaron" unicode="&#x10f;" 
d="M626 1136q116 0 242 -52v405h178v-1489h-178v173h-53q-41 -91 -120 -141t-179 -51q-156 0 -243 110t-87 306v325q0 194 116 304t324 110zM365 393q0 -240 201 -240q165 0 302 188v564q-104 74 -238 73q-135 -1 -200 -64t-65 -195v-326zM1206 1313l136 549h261l-268 -549
h-129z" />
    <glyph glyph-name="Dcroat" unicode="&#x110;" 
d="M365 162h201q168 0 250.5 97t82.5 260v444q0 166 -82.5 265t-250.5 99h-201v-426h251v-164h-251v-575zM184 0v737h-165v164h165v588h386q238 0 374 -144t136 -384v-440q0 -238 -137 -379.5t-375 -141.5h-384z" />
    <glyph glyph-name="dcroat" unicode="&#x111;" 
d="M626 1044q117 0 242 -54v187h-339v147h339v165h178v-165h172v-147h-172v-1177h-178v173h-53q-41 -91 -121 -141.5t-178 -50.5q-155 0 -242.5 111t-87.5 305v234q0 194 117.5 303.5t322.5 109.5zM628 886q-133 0 -196 -63t-63 -196v-216q0 -132 48 -195t149 -63
q165 0 302 188v473q-107 72 -240 72z" />
    <glyph glyph-name="Emacron" unicode="&#x112;" 
d="M184 0v1489h896v-162h-715v-435h629v-162h-629v-568h715v-162h-896zM305 1782v160h689v-160h-689z" />
    <glyph glyph-name="emacron" unicode="&#x113;" 
d="M616 981q-251 0 -251 -264v-56h503v39q0 147 -64 214t-188 67zM186 393v326q0 209 120 313t313 104t310 -106t117 -326v-181h-681v-130q0 -138 62 -198q62 -59 187 -59t180 38t85 122l173 -52q-47 -138 -143 -200t-295 -62q-200 0 -314 104t-114 307zM274 1409v161h689
v-161h-689z" />
    <glyph glyph-name="Ebreve" unicode="&#x114;" 
d="M184 0v1489h896v-162h-715v-435h629v-162h-629v-568h715v-162h-896zM650 1663q-175 0 -287 91t-114 296h177q2 -134 57 -189t167 -55t166 55t57 189h177q-2 -205 -114 -296t-286 -91z" />
    <glyph glyph-name="ebreve" unicode="&#x115;" 
d="M616 981q-251 0 -251 -264v-56h503v39q0 147 -64 214t-188 67zM186 393v326q0 209 120 313t313 104t310 -106t117 -326v-181h-681v-130q0 -138 62 -198q62 -59 187 -59t180 38t85 122l173 -52q-47 -138 -143 -200t-295 -62q-200 0 -314 104t-114 307zM618 1290
q-175 0 -287 91t-113 296h177q3 -135 57 -189t166 -54t167 55t57 188h176q-2 -205 -114 -296t-286 -91z" />
    <glyph glyph-name="Edotaccent" unicode="&#x116;" 
d="M184 0v1489h896v-162h-715v-435h629v-162h-629v-568h715v-162h-896zM649 1696q-66 0 -107 22t-41 82v13q0 61 41 85t108 23q67 0 108 -23t41 -85v-13q0 -60 -42 -82t-108 -22z" />
    <glyph glyph-name="edotaccent" unicode="&#x117;" 
d="M616 981q-251 0 -251 -264v-56h503v39q0 147 -64 214t-188 67zM186 393v326q0 209 120 313t313 104t310 -106t117 -326v-181h-681v-130q0 -138 62 -198q62 -59 187 -59t180 38t85 122l173 -52q-47 -138 -143 -200t-295 -62q-200 0 -314 104t-114 307zM617 1324
q-66 0 -107 22t-41 82v13q0 61 41 85t108 23q67 0 108 -23t41 -85v-13q0 -60 -42 -82t-108 -22z" />
    <glyph glyph-name="Eogonek" unicode="&#x118;" 
d="M894 -400q-98 0 -172 59t-74 155t66 166l20 20h-550v1489h896v-162h-715v-435h629v-162h-629v-568h715v-162h-223q-49 -54 -50 -117q-2 -118 122 -118q72 0 153 19v-166q-91 -18 -188 -18z" />
    <glyph glyph-name="eogonek" unicode="&#x119;" 
d="M842 -400q-98 0 -172 59t-74 157t68 166q-22 -1 -46 -1q-204 1 -318 105t-114 307v326q0 209 120 313t313 104t310 -106t117 -326v-181h-681v-130q0 -138 62 -198q62 -59 187 -59t180 38t85 122l173 -52q-68 -200 -247 -243q-51 -56 -51 -119q0 -117 123 -117
q72 0 153 19v-166q-90 -18 -188 -18zM616 981q-251 0 -251 -264v-56h503v39q0 147 -64 214t-188 67z" />
    <glyph glyph-name="Ecaron" unicode="&#x11a;" 
d="M184 0v1489h896v-162h-715v-435h629v-162h-629v-568h715v-162h-896zM603 1683l-307 276l73 111l299 -210l296 210l73 -111l-303 -276h-131z" />
    <glyph glyph-name="ecaron" unicode="&#x11b;" 
d="M616 981q-251 0 -251 -264v-56h503v39q0 147 -64 214t-188 67zM186 393v326q0 209 120 313t313 104t310 -106t117 -326v-181h-681v-130q0 -138 62 -198q62 -59 187 -59t180 38t85 122l173 -52q-47 -138 -143 -200t-295 -62q-200 0 -314 104t-114 307zM555 1311l-307 275
l72 112l300 -210l296 210l73 -112l-304 -275h-130z" />
    <glyph glyph-name="Gcircumflex" unicode="&#x11c;" 
d="M1113 523q0 -261 -120 -401q-119 -140 -353 -141q-234 0 -361 138t-126 386v472q0 257 124 394q125 137 349 137t332 -114q109 -114 122 -353l-181 -19q-13 177 -74 251q-61 73 -209 73t-215 -84q-68 -84 -68 -283v-476q0 -194 73 -277t235 -83t227 95t65 321h-317v160
h497v-196zM350 1691l-73 111l304 276h130l307 -276l-72 -111l-300 212z" />
    <glyph glyph-name="gcircumflex" unicode="&#x11d;" 
d="M281 -89q0 -157 173 -157h345q169 0 169 144t-153 141h-534v-128zM583 570q102 0 155 41t53 132v58q0 89 -53 129t-155 40q-101 0 -155 -40t-54 -129v-58q0 -91 54 -132t155 -41zM279 318q0 -115 132 -115h384q145 0 240 -69q95 -68 95 -222t-101 -228t-251 -75h-320
q-156 0 -256 66t-100 208q0 89 45 142t127 61v39q-138 25 -138 186q0 80 47 143t156 73v35q-82 30 -113 91t-31 116v52q0 128 101 212t285 84h510v-166l-266 45v-35q67 -20 103 -78t36 -116v-50q0 -127 -93 -207t-294 -80h-203q-47 0 -71 -25t-24 -87zM303 1318l-72 112
l303 275h131l307 -275l-73 -112l-299 212z" />
    <glyph glyph-name="Gbreve" unicode="&#x11e;" 
d="M1113 523q0 -261 -120 -401q-119 -140 -353 -141q-234 0 -361 138t-126 386v472q0 257 124 394q125 137 349 137t332 -114q109 -114 122 -353l-181 -19q-13 177 -74 251q-61 73 -209 73t-215 -84q-68 -84 -68 -283v-476q0 -194 73 -277t235 -83t227 95t65 321h-317v160
h497v-196zM648 1663q-175 0 -287 91t-113 296h176q2 -134 57 -189t167 -55t167 55t56 189h177q-2 -205 -114 -296t-286 -91z" />
    <glyph glyph-name="gbreve" unicode="&#x11f;" 
d="M281 -89q0 -157 173 -157h345q169 0 169 144t-153 141h-534v-128zM583 570q102 0 155 41t53 132v58q0 89 -53 129t-155 40q-101 0 -155 -40t-54 -129v-58q0 -91 54 -132t155 -41zM279 318q0 -115 132 -115h384q145 0 240 -69q95 -68 95 -222t-101 -228t-251 -75h-320
q-156 0 -256 66t-100 208q0 89 45 142t127 61v39q-138 25 -138 186q0 80 47 143t156 73v35q-82 30 -113 91t-31 116v52q0 128 101 212t285 84h510v-166l-266 45v-35q67 -20 103 -78t36 -116v-50q0 -127 -93 -207t-294 -80h-203q-47 0 -71 -25t-24 -87zM616 1290
q-174 0 -286 91t-114 296h177q2 -135 57 -189q54 -54 166 -54t167 55t57 188h177q-2 -205 -114 -296t-287 -91z" />
    <glyph glyph-name="Gdotaccent" unicode="&#x120;" 
d="M1113 523q0 -261 -120 -401q-119 -140 -353 -141q-234 0 -361 138t-126 386v472q0 257 124 394q125 137 349 137t332 -114q109 -114 122 -353l-181 -19q-13 177 -74 251q-61 73 -209 73t-215 -84q-68 -84 -68 -283v-476q0 -194 73 -277t235 -83t227 95t65 321h-317v160
h497v-196zM632 1696q-66 0 -107 22t-41 82v13q0 61 41 85t108 23q67 0 108 -23t41 -85v-13q0 -60 -42 -82t-108 -22z" />
    <glyph glyph-name="gdotaccent" unicode="&#x121;" 
d="M281 -89q0 -157 173 -157h345q169 0 169 144t-153 141h-534v-128zM583 570q102 0 155 41t53 132v58q0 89 -53 129t-155 40q-101 0 -155 -40t-54 -129v-58q0 -91 54 -132t155 -41zM279 318q0 -115 132 -115h384q145 0 240 -69q95 -68 95 -222t-101 -228t-251 -75h-320
q-156 0 -256 66t-100 208q0 89 45 142t127 61v39q-138 25 -138 186q0 80 47 143t156 73v35q-82 30 -113 91t-31 116v52q0 128 101 212t285 84h510v-166l-266 45v-35q67 -20 103 -78t36 -116v-50q0 -127 -93 -207t-294 -80h-203q-47 0 -71 -25t-24 -87zM615 1324
q-66 0 -107 22t-41 82v13q0 61 41 85t108 23q67 0 108 -23t41 -85v-13q0 -60 -42 -82t-108 -22z" />
    <glyph glyph-name="Gcommaaccent" unicode="&#x122;" 
d="M400 -559l162 373h267l-269 -373h-160zM1113 523q0 -261 -120 -401q-119 -140 -353 -141q-234 0 -361 138t-126 386v472q0 257 124 394q125 137 349 137t332 -114q109 -114 122 -353l-181 -19q-13 177 -74 251q-61 73 -209 73t-215 -84q-68 -84 -68 -283v-476
q0 -194 73 -277t235 -83t227 95t65 321h-317v160h497v-196z" />
    <glyph glyph-name="gcommaaccent" unicode="&#x123;" 
d="M281 -89q0 -157 173 -157h345q169 0 169 144t-153 141h-534v-128zM583 570q102 0 155 41t53 132v58q0 89 -53 129t-155 40q-101 0 -155 -40t-54 -129v-58q0 -91 54 -132t155 -41zM279 318q0 -115 132 -115h384q145 0 240 -69q95 -68 95 -222t-101 -228t-251 -75h-320
q-156 0 -256 66t-100 208q0 89 45 142t127 61v39q-138 25 -138 186q0 80 47 143t156 73v35q-82 30 -113 91t-31 116v52q0 128 101 212t285 84h510v-166l-266 45v-35q67 -20 103 -78t36 -116v-50q0 -127 -93 -207t-294 -80h-203q-47 0 -71 -25t-24 -87zM452 1303l269 373h158
l-160 -373h-267z" />
    <glyph glyph-name="Hcircumflex" unicode="&#x124;" 
d="M184 0v1489h181v-599h503v599h180v-1489h-180v728h-503v-728h-181zM318 1691l-72 111l303 276h131l307 -276l-73 -111l-300 212z" />
    <glyph glyph-name="hcircumflex" unicode="&#x125;" 
d="M365 0h-179v1489h179v-545h52q35 88 116 140t186 52q151 0 239 -101t88 -270v-765h-178v730q0 115 -52 175t-146 59q-161 0 -305 -184v-780zM-28 1691l-73 111l304 276h130l307 -276l-72 -111l-300 212z" />
    <glyph glyph-name="Hbar" unicode="&#x126;" 
d="M365 640v-640h-181v1044h-171v164h171v281h181v-281h503v281h180v-281h171v-164h-171v-1044h-180v640h-503zM365 802h503v242h-503v-242z" />
    <glyph glyph-name="hbar" unicode="&#x127;" 
d="M670 873q-159 0 -305 -192v-681h-179v1177h-171v147h171v165h179v-165h339v-147h-339v-330h52q35 91 121 144t194 53q145 0 229.5 -90t84.5 -243v-711h-178v670q0 203 -198 203z" />
    <glyph glyph-name="Itilde" unicode="&#x128;" 
d="M184 0v162h343v1165h-343v162h864v-162h-341v-1165h341v-162h-864zM843 2026v20h136v-28q0 -141 -58 -233q-59 -91 -169 -91q-63 0 -103 34t-70 74t-55 75q-25 34 -57 33q-80 0 -76 -177v-20h-138v28q0 140 59 232t168 92q69 0 110 -34q41 -35 71 -75t52 -74t52 -33
q78 0 78 177z" />
    <glyph glyph-name="itilde.salt_serifs" unicode="&#xe029;" 
d="M707 162h371v-162h-551v955h-372v162h552v-955zM724 1476q78 0 78 177v21h136v-28q0 -141 -58 -233q-59 -91 -169 -91q-63 0 -103 34t-70 74t-55 74t-57 34q-78 0 -76 -177v-20h-138v27q0 140 59 232t168 92q69 0 116 -38t117 -144q22 -34 52 -34z" />
    <glyph glyph-name="itilde.salt_serifs" unicode="&#x129;" 
d="M707 162h371v-162h-551v955h-372v162h552v-955zM724 1476q78 0 78 177v21h136v-28q0 -141 -58 -233q-59 -91 -169 -91q-63 0 -103 34t-70 74t-55 74t-57 34q-78 0 -76 -177v-20h-138v27q0 140 59 232t168 92q69 0 116 -38t117 -144q22 -34 52 -34z" />
    <glyph glyph-name="Imacron" unicode="&#x12a;" 
d="M184 0v162h343v1165h-343v162h864v-162h-341v-1165h341v-162h-864zM272 1782v160h689v-160h-689z" />
    <glyph glyph-name="imacron.salt_serifs" unicode="&#xe02a;" 
d="M707 162h371v-162h-551v955h-372v162h552v-955zM231 1409v161h689v-161h-689z" />
    <glyph glyph-name="imacron.salt_serifs" unicode="&#x12b;" 
d="M707 162h371v-162h-551v955h-372v162h552v-955zM231 1409v161h689v-161h-689z" />
    <glyph glyph-name="Ibreve" unicode="&#x12c;" 
d="M184 0v162h343v1165h-343v162h864v-162h-341v-1165h341v-162h-864zM616 1663q-174 0 -286 91t-114 296h177q2 -134 57 -189q54 -55 166 -55t167 55t57 189h177q-2 -205 -114 -296t-287 -91z" />
    <glyph glyph-name="ibreve.salt_serifs" unicode="&#xe02b;" 
d="M707 162h371v-162h-551v955h-372v162h552v-955zM575 1290q-175 0 -287 91t-113 296h177q2 -135 57 -189t167 -54t166 55q55 55 57 188h177q-2 -205 -114 -296t-287 -91z" />
    <glyph glyph-name="ibreve.salt_serifs" unicode="&#x12d;" 
d="M707 162h371v-162h-551v955h-372v162h552v-955zM575 1290q-175 0 -287 91t-113 296h177q2 -135 57 -189t167 -54t166 55q55 55 57 188h177q-2 -205 -114 -296t-287 -91z" />
    <glyph glyph-name="Iogonek" unicode="&#x12e;" 
d="M184 0v162h343v1165h-343v162h864v-162h-341v-1165h341v-162h-355q-49 -54 -50 -117q-2 -118 122 -118q74 0 153 19v-166q-99 -20 -175 -18q-110 0 -184 60q-75 60 -75 154q0 96 66 166l20 20h-386z" />
    <glyph glyph-name="iogonek.salt_serifs" unicode="&#xe02c;" 
d="M666 -400q-98 0 -173 59q-74 60 -74 164t108 197v935h-372v162h552v-955h371v-162h-450q-49 -54 -50 -117q-2 -118 122 -118q72 0 153 19v-166q-89 -18 -187 -18zM615 1322q-66 0 -107 22t-41 82v13q0 61 41 85t108 23q67 0 108 -23t41 -85v-13q0 -60 -42 -82t-108 -22z
" />
    <glyph glyph-name="iogonek.salt_serifs" unicode="&#x12f;" 
d="M666 -400q-98 0 -173 59q-74 60 -74 164t108 197v935h-372v162h552v-955h371v-162h-450q-49 -54 -50 -117q-2 -118 122 -118q72 0 153 19v-166q-89 -18 -187 -18zM615 1322q-66 0 -107 22t-41 82v13q0 61 41 85t108 23q67 0 108 -23t41 -85v-13q0 -60 -42 -82t-108 -22z
" />
    <glyph glyph-name="Idotaccent" unicode="&#x130;" 
d="M184 0v162h343v1165h-343v162h864v-162h-341v-1165h341v-162h-864zM615 1696q-66 0 -107 22t-41 82v13q0 61 41 85t108 23q67 0 108 -23t41 -85v-13q0 -60 -42 -82t-108 -22z" />
    <glyph glyph-name="dotlessi.salt_serifs" unicode="&#xe024;" 
d="M707 162h371v-162h-551v955h-372v162h552v-955z" />
    <glyph glyph-name="dotlessi.salt_serifs" unicode="&#x131;" 
d="M707 162h371v-162h-551v955h-372v162h552v-955z" />
    <glyph glyph-name="IJ" unicode="&#x132;" 
d="M784 -19q-166 0 -252.5 109t-99.5 387l175 20q13 -210 45 -281t124 -71t128 84t36 218v880h-318v162h493v-1038q0 -220 -82.5 -345t-248.5 -125zM294 0h-175v1489h175v-1489z" />
    <glyph glyph-name="ij.salt_serifs" unicode="&#xe02d;" 
d="M661 -212q93 0 151 52t57 173v942h-221v162h400v-1128q0 -192 -110 -284t-251 -92q-142 0 -257 41l34 175q104 -41 197 -41zM397 0h-179v1117h179v-1117zM952 1324q-66 0 -107 22t-41 82v13q0 61 41 85t108 23q67 0 108 -23t41 -85v-13q0 -60 -42 -82t-108 -22zM306 1324
q-66 0 -107 22t-41 82v13q0 61 41 85t108 23q67 0 107 -23t40 -85v-13q0 -60 -41 -82t-107 -22z" />
    <glyph glyph-name="ij.salt_serifs" unicode="&#x133;" 
d="M661 -212q93 0 151 52t57 173v942h-221v162h400v-1128q0 -192 -110 -284t-251 -92q-142 0 -257 41l34 175q104 -41 197 -41zM397 0h-179v1117h179v-1117zM952 1324q-66 0 -107 22t-41 82v13q0 61 41 85t108 23q67 0 108 -23t41 -85v-13q0 -60 -42 -82t-108 -22zM306 1324
q-66 0 -107 22t-41 82v13q0 61 41 85t108 23q67 0 107 -23t40 -85v-13q0 -60 -41 -82t-107 -22z" />
    <glyph glyph-name="Jcircumflex" unicode="&#x134;" 
d="M585 143q281 0 281 326v858h-345v162h525v-1018q0 -238 -118 -364t-347 -126q-229 1 -340 119t-124 375l181 20q13 -210 72 -281t215 -71zM469 1691l-72 111l303 276h130l308 -276l-73 -111l-300 212z" />
    <glyph glyph-name="jcircumflex" unicode="&#x135;" 
d="M449 -212q247 0 247 225v942h-476v162h657v-1128q0 -192 -121 -284t-284 -92t-286 41l34 175q108 -41 229 -41zM430 1318l-73 112l304 275h130l307 -275l-72 -112l-300 212z" />
    <glyph glyph-name="Kcommaaccent" unicode="&#x136;" 
d="M365 711v-711h-181v1489h181v-616h58l517 616h207l-583 -685l577 -804h-212l-501 711h-63zM385 -559l162 373h267l-268 -373h-161z" />
    <glyph glyph-name="kcommaaccent" unicode="&#x137;" 
d="M447 510v-510h-181v1489h181v-826h85l326 454h216l-400 -519l395 -598h-205l-332 510h-85zM374 -559l162 373h266l-268 -373h-160z" />
    <glyph glyph-name="kgreenlandic" unicode="&#x138;" 
d="M447 510v-510h-181v1117h181v-454h85l326 454h216l-400 -519l395 -598h-205l-332 510h-85z" />
    <glyph glyph-name="Lacute" unicode="&#x139;" 
d="M270 0v1489h181v-1327h597v-162h-778zM328 1676l231 372h264l-335 -372h-160z" />
    <glyph glyph-name="lacute.salt_serifs_round" unicode="&#xe057;" 
d="M525 348v979h-370v162h551v-1146q0 -188 167 -188q104 0 170 35l35 -156q-88 -43 -230 -43t-233 95q-90 95 -90 262zM313 1676l231 372h264l-335 -372h-160z" />
    <glyph glyph-name="lacute.salt_serifs_round" unicode="&#x13a;" 
d="M525 348v979h-370v162h551v-1146q0 -188 167 -188q104 0 170 35l35 -156q-88 -43 -230 -43t-233 95q-90 95 -90 262zM313 1676l231 372h264l-335 -372h-160z" />
    <glyph glyph-name="Lcommaaccent" unicode="&#x13b;" 
d="M270 0v1489h181v-1327h597v-162h-778zM411 -559l162 373h267l-268 -373h-161z" />
    <glyph glyph-name="lcommaaccent.salt_serifs_round" unicode="&#xe058;" 
d="M525 348v979h-370v162h551v-1146q0 -188 167 -188q104 0 170 35l35 -156q-88 -43 -230 -43t-233 95q-90 95 -90 262zM452 -559l162 373h267l-268 -373h-161z" />
    <glyph glyph-name="lcommaaccent.salt_serifs_round" unicode="&#x13c;" 
d="M525 348v979h-370v162h551v-1146q0 -188 167 -188q104 0 170 35l35 -156q-88 -43 -230 -43t-233 95q-90 95 -90 262zM452 -559l162 373h267l-268 -373h-161z" />
    <glyph glyph-name="Lcaron" unicode="&#x13d;" 
d="M270 0v1489h181v-1327h597v-162h-778zM678 940l136 549h260l-268 -549h-128z" />
    <glyph glyph-name="lcaron.salt_serifs_round" unicode="&#xe059;" 
d="M525 348v979h-370v162h551v-1146q0 -188 167 -188q104 0 170 35l35 -156q-88 -43 -230 -43t-233 95q-90 95 -90 262zM910 1313l136 549h261l-268 -549h-129z" />
    <glyph glyph-name="lcaron.salt_serifs_round" unicode="&#x13e;" 
d="M525 348v979h-370v162h551v-1146q0 -188 167 -188q104 0 170 35l35 -156q-88 -43 -230 -43t-233 95q-90 95 -90 262zM910 1313l136 549h261l-268 -549h-129z" />
    <glyph glyph-name="Ldot" unicode="&#x13f;" 
d="M270 0v1489h181v-1327h597v-162h-778zM1025 767q-66 0 -107 22t-41 82v13q0 60 41 84t108 24t108 -23t41 -85v-13q0 -60 -42 -82t-108 -22z" />
    <glyph glyph-name="ldot.salt_serifs_round" unicode="&#xe05a;" 
d="M525 348v979h-370v162h551v-1146q0 -188 167 -188q104 0 170 35l35 -156q-88 -43 -230 -43t-233 95q-90 95 -90 262zM1275 680q0 -60 -42 -82t-108 -23q-66 1 -107 23t-41 82v13q0 61 41 84t108 23t108 -22q41 -24 41 -85v-13z" />
    <glyph glyph-name="ldot.salt_serifs_round" unicode="&#x140;" 
d="M525 348v979h-370v162h551v-1146q0 -188 167 -188q104 0 170 35l35 -156q-88 -43 -230 -43t-233 95q-90 95 -90 262zM1275 680q0 -60 -42 -82t-108 -23q-66 1 -107 23t-41 82v13q0 61 41 84t108 23t108 -22q41 -24 41 -85v-13z" />
    <glyph glyph-name="Lslash" unicode="&#x141;" 
d="M270 0v674l-168 -56v143l168 56v672h181v-612l424 143v-143l-424 -143v-572h597v-162h-778z" />
    <glyph glyph-name="lslash.salt_serifs_round" unicode="&#xe05b;" 
d="M525 348v307l-255 -74v143l255 75v528h-370v162h551v-636l253 76v-145l-253 -75v-366q0 -188 167 -188q104 0 170 35l35 -156q-88 -43 -230 -43t-232.5 95t-90.5 262z" />
    <glyph glyph-name="lslash.salt_serifs_round" unicode="&#x142;" 
d="M525 348v307l-255 -74v143l255 75v528h-370v162h551v-636l253 76v-145l-253 -75v-366q0 -188 167 -188q104 0 170 35l35 -156q-88 -43 -230 -43t-232.5 95t-90.5 262z" />
    <glyph glyph-name="Nacute" unicode="&#x143;" 
d="M346 0h-162v1489h242l460 -1284v1284h162v-1489h-253l-449 1266v-1266zM454 1676l231 372h265l-336 -372h-160z" />
    <glyph glyph-name="nacute" unicode="&#x144;" 
d="M365 0h-179v1117h179v-173h52q41 88 122 140t182 52q151 0 239 -100t86 -273v-763h-178v728q0 117 -52 177t-146 59q-161 0 -305 -186v-778zM454 1303l231 373h265l-336 -373h-160z" />
    <glyph glyph-name="Ncommaaccent" unicode="&#x145;" 
d="M352 -559l162 373h266l-268 -373h-160zM346 0h-162v1489h242l460 -1284v1284h162v-1489h-253l-449 1266v-1266z" />
    <glyph glyph-name="ncommaaccent" unicode="&#x146;" 
d="M384 -559l162 373h266l-268 -373h-160zM365 0h-179v1117h179v-173h52q41 88 122 140t182 52q151 0 239 -100t86 -273v-763h-178v728q0 117 -52 177t-146 59q-161 0 -305 -186v-778z" />
    <glyph glyph-name="Ncaron" unicode="&#x147;" 
d="M346 0h-162v1489h242l460 -1284v1284h162v-1489h-253l-449 1266v-1266zM585 1683l-308 276l73 111l300 -210l296 210l72 -111l-303 -276h-130z" />
    <glyph glyph-name="ncaron" unicode="&#x148;" 
d="M365 0h-179v1117h179v-173h52q41 88 122 140t182 52q151 0 239 -100t86 -273v-763h-178v728q0 117 -52 177t-146 59q-161 0 -305 -186v-778zM588 1311l-307 275l73 112l299 -210l297 210l72 -112l-303 -275h-131z" />
    <glyph glyph-name="napostrophe" unicode="&#x149;" 
d="M365 0h-179v1117h179v-173h52q41 88 122 140t182 52q151 0 239 -100t86 -273v-763h-178v728q0 117 -52 177t-146 59q-161 0 -305 -186v-778zM-7 1303l230 373h265l-335 -373h-160z" />
    <glyph glyph-name="Eng" unicode="&#x14a;" 
d="M868 91v998q0 130 -56 189t-146 59t-156.5 -58t-144.5 -158v-1121h-181v1489h181v-202h50q41 102 126.5 161.5t190.5 59.5q145 0 230.5 -101.5t85.5 -276.5v-1063q0 -225 -111.5 -339.5t-286.5 -114.5q-92 0 -266 61l33 175q140 -61 233 -61t155.5 70.5t62.5 232.5z" />
    <glyph glyph-name="eng" unicode="&#x14b;" 
d="M670 964q-157 0 -305 -186v-778h-179v1117h179v-173h52q41 89 125 140.5t188 51.5q147 0 231.5 -92.5t84.5 -250.5v-817q0 -184 -99.5 -273.5t-248.5 -89.5q-93 0 -218 41l34 175q104 -41 180 -41q77 0 125.5 49t48.5 163v752q0 212 -198 212z" />
    <glyph glyph-name="Omacron" unicode="&#x14c;" 
d="M616 143q155 0 219 82t64 280v472q0 201 -64 285t-219 84t-219 -84t-64 -285v-472q0 -197 64 -279t219 -83zM616 -19q-227 0 -345 135t-118 390v470q0 260 119 396t345 136q227 0 345 -136t118 -396v-470q0 -255 -118 -390t-346 -135zM272 1782v160h689v-160h-689z" />
    <glyph glyph-name="omacron" unicode="&#x14d;" 
d="M365 719v-328q0 -128 62 -188t189 -60t189 60t63 188v328q0 253 -252 255q-251 0 -251 -255zM616 -19q-206 1 -318 107t-112 303v328q0 199 112 308t318 109t319 -109q112 -109 111 -308v-326q0 -199 -112 -305t-318 -107zM272 1409v161h689v-161h-689z" />
    <glyph glyph-name="Obreve" unicode="&#x14e;" 
d="M616 143q155 0 219 82t64 280v472q0 201 -64 285t-219 84t-219 -84t-64 -285v-472q0 -197 64 -279t219 -83zM616 -19q-227 0 -345 135t-118 390v470q0 260 119 396t345 136q227 0 345 -136t118 -396v-470q0 -255 -118 -390t-346 -135zM616 1663q-174 0 -286 91t-114 296
h177q2 -134 57 -189q54 -55 166 -55t167 55t57 189h177q-2 -205 -114 -296t-287 -91z" />
    <glyph glyph-name="obreve" unicode="&#x14f;" 
d="M365 719v-328q0 -128 62 -188t189 -60t189 60t63 188v328q0 253 -252 255q-251 0 -251 -255zM616 -19q-206 1 -318 107t-112 303v328q0 199 112 308t318 109t319 -109q112 -109 111 -308v-326q0 -199 -112 -305t-318 -107zM618 1290q-175 0 -287 91t-113 296h177
q3 -135 57 -189t166 -54t167 55t57 188h176q-2 -205 -114 -296t-286 -91z" />
    <glyph glyph-name="Ohungarumlaut" unicode="&#x150;" 
d="M616 143q155 0 219 82t64 280v472q0 201 -64 285t-219 84t-219 -84t-64 -285v-472q0 -197 64 -279t219 -83zM616 -19q-227 0 -345 135t-118 390v470q0 260 119 396t345 136q227 0 345 -136t118 -396v-470q0 -255 -118 -390t-346 -135zM320 1676l93 372h246l-216 -372
h-123zM713 1676l95 372h244l-216 -372h-123z" />
    <glyph glyph-name="ohungarumlaut" unicode="&#x151;" 
d="M365 719v-328q0 -128 62 -188t189 -60t189 60t63 188v328q0 253 -252 255q-251 0 -251 -255zM616 -19q-206 1 -318 107t-112 303v328q0 199 112 308t318 109t319 -109q112 -109 111 -308v-326q0 -199 -112 -305t-318 -107zM318 1303l93 373h246l-216 -373h-123zM711 1303
l95 373h244l-216 -373h-123z" />
    <glyph glyph-name="OE" unicode="&#x152;" 
d="M482 141h149v1207h-149q-143 0 -213 -104.5t-70 -275.5v-454q0 -171 70 -272t213 -101zM480 0q-209 0 -326 140.5t-117 375.5v450q0 238 117.5 380.5t323.5 142.5h734v-143h-421v-454h417v-144h-417v-605h421v-143h-732z" />
    <glyph glyph-name="oe" unicode="&#x153;" 
d="M387 992q-156 0 -156 -277v-320q0 -145 39 -207.5t118 -62.5t117.5 62t38.5 208v320q0 143 -38.5 210t-118.5 67zM845 1000q-156 0 -156 -220v-140h313v123q0 123 -38.5 180t-118.5 57zM1162 769v-246h-473v-195q0 -112 38 -162.5t119 -50.5t115.5 30t47.5 116l155 -13
q-17 -136 -87 -201.5t-211 -65.5q-186 0 -255 140q-81 -140 -242 -140q-134 0 -216 101.5t-82 312.5v320q0 212 82.5 316.5t217.5 104.5q165 0 238 -140q69 140 240 140q141 0 227 -89.5t86 -277.5z" />
    <glyph glyph-name="Racute" unicode="&#x154;" 
d="M1128 983q0 -355 -331 -397l348 -586h-205l-342 581h-233v-581h-181v1489h518q426 0 426 -391v-115zM365 737h331q134 0 193 58t59 188v115q0 123 -59 176t-193 53h-331v-590zM542 1676l231 372h264l-335 -372h-160z" />
    <glyph glyph-name="racute" unicode="&#x155;" 
d="M713 964q-162 0 -264 -173v-791h-181v1117h181v-179h50q67 196 289 198q117 0 193 -81t77 -230v-172h-172v107q0 106 -42 155t-131 49zM486 1303l231 373h264l-335 -373h-160z" />
    <glyph glyph-name="Rcommaaccent" unicode="&#x156;" 
d="M1128 983q0 -355 -331 -397l348 -586h-205l-342 581h-233v-581h-181v1489h518q426 0 426 -391v-115zM365 737h331q134 0 193 58t59 188v115q0 123 -59 176t-193 53h-331v-590zM357 -559l162 373h267l-268 -373h-161z" />
    <glyph glyph-name="rcommaaccent" unicode="&#x157;" 
d="M713 964q-162 0 -264 -173v-791h-181v1117h181v-179h50q67 196 289 198q117 0 193 -81t77 -230v-172h-172v107q0 106 -42 155t-131 49zM140 -559l162 373h266l-268 -373h-160z" />
    <glyph glyph-name="Rcaron" unicode="&#x158;" 
d="M1128 983q0 -355 -331 -397l348 -586h-205l-342 581h-233v-581h-181v1489h518q426 0 426 -391v-115zM365 737h331q134 0 193 58t59 188v115q0 123 -59 176t-193 53h-331v-590zM560 1683l-307 276l73 111l300 -210l296 210l72 -111l-303 -276h-131z" />
    <glyph glyph-name="rcaron" unicode="&#x159;" 
d="M713 964q-162 0 -264 -173v-791h-181v1117h181v-179h50q67 196 289 198q117 0 193 -81t77 -230v-172h-172v107q0 106 -42 155t-131 49zM620 1311l-307 275l72 112l300 -210l296 210l73 -112l-304 -275h-130z" />
    <glyph glyph-name="Sacute" unicode="&#x15a;" 
d="M644 149q128 0 207 65q78 65 78 174t-68 166q-67 56 -293 132t-319 168t-93 267t120 275t305 101q311 0 491 -220l-100 -134q-78 95 -182 143t-212 49q-109 0 -174 -51q-65 -50 -65 -154t71 -161q70 -57 296 -130t314 -163t88 -252q0 -210 -140 -324t-333 -113
q-332 0 -521 222l106 130q160 -190 424 -190zM421 1676l231 372h264l-335 -372h-160z" />
    <glyph glyph-name="sacute" unicode="&#x15b;" 
d="M367 820q0 -83 63 -118t250 -65q186 -30 282 -108t96 -216q0 -168 -126 -250t-278 -82q-306 0 -499 159l76 143q178 -138 402 -140q97 0 171 32q74 31 74 119t-64 122t-250 64t-281 104t-95 228t115 239t256 85q264 0 463 -160l-76 -144q-182 142 -365 142
q-89 0 -151 -36t-63 -118zM417 1303l231 373h264l-335 -373h-160z" />
    <glyph glyph-name="Scircumflex" unicode="&#x15c;" 
d="M644 149q128 0 207 65q78 65 78 174t-68 166q-67 56 -293 132t-319 168t-93 267t120 275t305 101q311 0 491 -220l-100 -134q-78 95 -182 143t-212 49q-109 0 -174 -51q-65 -50 -65 -154t71 -161q70 -57 296 -130t314 -163t88 -252q0 -210 -140 -324t-333 -113
q-332 0 -521 222l106 130q160 -190 424 -190zM320 1691l-72 111l303 276h130l308 -276l-73 -111l-300 212z" />
    <glyph glyph-name="scircumflex" unicode="&#x15d;" 
d="M367 820q0 -83 63 -118t250 -65q186 -30 282 -108t96 -216q0 -168 -126 -250t-278 -82q-306 0 -499 159l76 143q178 -138 402 -140q97 0 171 32q74 31 74 119t-64 122t-250 64t-281 104t-95 228t115 239t256 85q264 0 463 -160l-76 -144q-182 142 -365 142
q-89 0 -151 -36t-63 -118zM315 1318l-73 112l304 275h130l307 -275l-73 -112l-299 212z" />
    <glyph glyph-name="Scedilla" unicode="&#x15e;" 
d="M644 149q128 0 207 65q78 65 78 174t-68 166q-67 56 -293 132t-319 168t-93 267t120 275t305 101q311 0 491 -220l-100 -134q-78 95 -182 143t-212 49q-109 0 -174 -51q-65 -50 -65 -154t71 -161q70 -57 296 -130t314 -163t88 -252q0 -210 -140 -323q-93 -76 -210 -101
q61 -58 61 -173t-79 -171t-185 -56t-179 44t-80 149l158 19q2 -35 25 -49t75 -14t77 23q26 24 26 88t-17 90t-43 38q-129 6 -255 54t-228 167l106 130q160 -190 424 -190z" />
    <glyph glyph-name="scedilla" unicode="&#x15f;" 
d="M188 812q0 154 115 239t256 85q264 0 463 -160l-76 -144q-182 142 -365 142q-89 0 -151 -36t-63 -118q0 -83 63 -118t250 -65q186 -30 282 -108t96 -216q0 -168 -126 -250q-78 -51 -174 -70q56 -57 56 -169t-80 -168t-184 -56q-106 0 -179 44t-81 149l159 19
q2 -35 25 -49t74 -14t78 23q26 24 26 88t-16 87t-34 35q-267 9 -447 158l76 143q178 -138 402 -140q97 0 171 32q74 31 74 119t-64 122t-250 64t-281 104t-95 228z" />
    <glyph glyph-name="Scaron" unicode="&#x160;" 
d="M644 149q128 0 207 65q78 65 78 174t-68 166q-67 56 -293 132t-319 168t-93 267t120 275t305 101q311 0 491 -220l-100 -134q-78 95 -182 143t-212 49q-109 0 -174 -51q-65 -50 -65 -154t71 -161q70 -57 296 -130t314 -163t88 -252q0 -210 -140 -324t-333 -113
q-332 0 -521 222l106 130q160 -190 424 -190zM555 1683l-307 276l72 111l300 -210l296 210l73 -111l-304 -276h-130z" />
    <glyph glyph-name="scaron" unicode="&#x161;" 
d="M367 820q0 -83 63 -118t250 -65q186 -30 282 -108t96 -216q0 -168 -126 -250t-278 -82q-306 0 -499 159l76 143q178 -138 402 -140q97 0 171 32q74 31 74 119t-64 122t-250 64t-281 104t-95 228t115 239t256 85q264 0 463 -160l-76 -144q-182 142 -365 142
q-89 0 -151 -36t-63 -118zM549 1311l-307 275l73 112l299 -210l296 210l73 -112l-303 -275h-131z" />
    <glyph glyph-name="Tcedilla" unicode="&#x162;" 
d="M795 -166q0 -122 -79 -178t-185 -56t-179 44t-80 149l158 19q2 -35 25 -49t75 -14t77 23q26 24 26 88t-20 94t-71 46h-15v1327h-423v162h1024v-162h-421v-1306q88 -65 88 -187z" />
    <glyph glyph-name="tcedilla" unicode="&#x163;" 
d="M802 155q131 0 228 37l35 -166q-96 -34 -187 -39q49 -57 49 -166t-79 -165t-185 -56t-179 44t-80 149l158 19q2 -35 25 -49t75 -14t77 23q26 24 26 88t-18 91t-51 41q-104 20 -171 84q-97 93 -97 272v607h-287v162h287v372h181v-372h439v-162h-439v-588q0 -212 193 -212z
" />
    <glyph glyph-name="Tcaron" unicode="&#x164;" 
d="M527 0v1327h-423v162h1024v-162h-421v-1327h-180zM553 1683l-307 276l72 111l300 -210l296 210l73 -111l-304 -276h-130z" />
    <glyph glyph-name="tcaron" unicode="&#x165;" 
d="M428 348v607h-287v162h287v372h181v-372h439v-162h-439v-588q0 -212 193 -212q131 0 228 37l35 -166q-122 -43 -283 -43q-160 0 -257 93t-97 272zM769 1313l136 549h260l-268 -549h-128z" />
    <glyph glyph-name="Tbar" unicode="&#x166;" 
d="M527 0v579h-339v164h339v584h-423v162h1024v-162h-421v-584h337v-164h-337v-579h-180z" />
    <glyph glyph-name="tbar" unicode="&#x167;" 
d="M428 348v177h-225v164h225v266h-287v162h287v372h181v-372h439v-162h-439v-266h385v-164h-385v-158q0 -212 193 -212q129 0 228 37l35 -166q-122 -43 -283 -43q-160 0 -257 93t-97 272z" />
    <glyph glyph-name="Utilde" unicode="&#x168;" 
d="M1048 503q0 -522 -432 -522t-432 522v986h181v-990q0 -195 57 -277q56 -82 194 -81q138 0 195 81t57 277v990h180v-986zM843 2026v20h136v-28q0 -141 -58 -233q-59 -91 -169 -91q-63 0 -103 34t-70 74t-55 75q-25 34 -57 33q-80 0 -76 -177v-20h-138v28q0 140 59 232
t168 92q69 0 110 -34q41 -35 71 -75t52 -74t52 -33q78 0 78 177z" />
    <glyph glyph-name="utilde" unicode="&#x169;" 
d="M868 1117h178v-1117h-178v173h-53q-35 -86 -117 -139t-184 -53q-149 1 -238 103t-90 270v763h179v-730q0 -236 197 -234q162 0 306 184v780zM765 1476q78 0 78 177v21h136v-28q0 -141 -58 -233q-59 -91 -169 -91q-63 0 -103 34t-70 74t-55 74t-57 34q-80 0 -76 -177v-20
h-138v27q0 140 59 232t168 92q69 0 116 -38t117 -144q22 -34 52 -34z" />
    <glyph glyph-name="Umacron" unicode="&#x16a;" 
d="M1048 503q0 -522 -432 -522t-432 522v986h181v-990q0 -195 57 -277q56 -82 194 -81q138 0 195 81t57 277v990h180v-986zM272 1782v160h689v-160h-689z" />
    <glyph glyph-name="umacron" unicode="&#x16b;" 
d="M868 1117h178v-1117h-178v173h-53q-35 -86 -117 -139t-184 -53q-149 1 -238 103t-90 270v763h179v-730q0 -236 197 -234q162 0 306 184v780zM272 1409v161h689v-161h-689z" />
    <glyph glyph-name="Ubreve" unicode="&#x16c;" 
d="M1048 503q0 -522 -432 -522t-432 522v986h181v-990q0 -195 57 -277q56 -82 194 -81q138 0 195 81t57 277v990h180v-986zM616 1663q-174 0 -286 91t-114 296h177q2 -134 57 -189q54 -55 166 -55t167 55t57 189h177q-2 -205 -114 -296t-287 -91z" />
    <glyph glyph-name="ubreve" unicode="&#x16d;" 
d="M868 1117h178v-1117h-178v173h-53q-35 -86 -117 -139t-184 -53q-149 1 -238 103t-90 270v763h179v-730q0 -236 197 -234q162 0 306 184v780zM618 1290q-175 0 -287 91t-113 296h177q3 -135 57 -189t166 -54t167 55t57 188h176q-2 -205 -114 -296t-286 -91z" />
    <glyph glyph-name="Uring" unicode="&#x16e;" 
d="M1048 503q0 -522 -432 -522t-432 522v986h181v-990q0 -195 57 -277q56 -82 194 -81q138 0 195 81t57 277v990h180v-986zM477 1918q0 -140 139 -140q69 0 105 33q35 33 35 107v59q0 145 -140 145t-139 -145v-59zM616 1650q-125 0 -201 65t-76 203v59q0 140 76 207t201 67
t201 -67t77 -207v-59q0 -138 -76 -203t-202 -65z" />
    <glyph glyph-name="uring" unicode="&#x16f;" 
d="M868 1117h178v-1117h-178v173h-53q-35 -86 -117 -139t-184 -53q-149 1 -238 103t-90 270v763h179v-730q0 -236 197 -234q162 0 306 184v780zM758 1605q0 145 -139 145t-141 -145v-60q0 -75 36 -107t104 -32q69 0 104 32t36 107v60zM618 1277q-125 0 -201 65t-76 203v60
q0 140 76 207t201 67t201 -67t77 -207v-60q0 -138 -76 -203t-202 -65z" />
    <glyph glyph-name="Uhungarumlaut" unicode="&#x170;" 
d="M1048 503q0 -522 -432 -522t-432 522v986h181v-990q0 -195 57 -277q56 -82 194 -81q138 0 195 81t57 277v990h180v-986zM337 1676l93 372h246l-216 -372h-123zM730 1676l95 372h244l-216 -372h-123z" />
    <glyph glyph-name="uhungarumlaut" unicode="&#x171;" 
d="M868 1117h178v-1117h-178v173h-53q-35 -86 -117 -139t-184 -53q-149 1 -238 103t-90 270v763h179v-730q0 -236 197 -234q162 0 306 184v780zM352 1303l93 373h246l-216 -373h-123zM745 1303l95 373h244l-216 -373h-123z" />
    <glyph glyph-name="Uogonek" unicode="&#x172;" 
d="M718 -400q-98 0 -172 60t-74 157q0 98 70 169q-358 42 -358 517v986h181v-990q0 -195 57 -277q56 -82 194 -81q138 0 195 81t57 277v990h180v-986q0 -263 -100 -385t-282 -135q-35 -51 -36 -107q-2 -111 122 -111q74 0 153 19v-166q-89 -18 -187 -18z" />
    <glyph glyph-name="uogonek" unicode="&#x173;" 
d="M1000 -400q-98 0 -171 60q-75 60 -75 166q0 107 114 198v149h-53q-35 -86 -117 -139t-184 -53q-149 1 -238 103t-90 270v763h179v-730q0 -236 197 -234q162 0 306 184v780h178v-1117h-83q-49 -54 -50 -117q-2 -118 122 -118q74 0 153 19v-166q-90 -18 -188 -18z" />
    <glyph glyph-name="Wcircumflex" unicode="&#x174;" 
d="M814 0l-198 894l-195 -894h-179l-184 1489h177l119 -1212l175 840h182l175 -840l121 1212h168l-185 -1489h-176zM318 1691l-72 111l303 276h131l307 -276l-73 -111l-300 212z" />
    <glyph glyph-name="wcircumflex" unicode="&#x175;" 
d="M765 0l-149 730l-143 -730h-199l-192 1117h171l127 -974l132 790h201l145 -760l121 944h172l-192 -1117h-194zM320 1318l-72 112l303 275h130l308 -275l-73 -112l-300 212z" />
    <glyph glyph-name="Ycircumflex" unicode="&#x176;" 
d="M707 0h-180v559l-484 930h199l384 -761l366 761h196l-481 -930v-559zM318 1691l-72 111l303 276h131l307 -276l-73 -111l-300 212z" />
    <glyph glyph-name="ycircumflex" unicode="&#x177;" 
d="M320 -384q-66 0 -173 21l30 162q101 -24 172 -23q164 2 224 220h-74l-359 1121h195l285 -966l283 966h188l-367 -1156q-58 -185 -161 -265t-243 -80zM318 1318l-72 112l303 275h131l307 -275l-73 -112l-300 212z" />
    <glyph glyph-name="Ydieresis" unicode="&#x178;" 
d="M707 0h-180v559l-484 930h199l384 -761l366 761h196l-481 -930v-559zM929 1800q-1 -60 -33 -82t-83 -22t-82 22t-31 82v13q0 61 31 85t83 23q52 0 84 -23t31 -85v-13zM532 1800q0 -60 -32 -82t-82 -22q-51 0 -83 22t-32 82v13q0 61 32 85t84 23q52 0 83 -23t30 -85v-13z
" />
    <glyph glyph-name="Zacute" unicode="&#x179;" 
d="M1080 0h-927v162l716 1165h-716v162h927v-162l-717 -1165h717v-162zM471 1676l231 372h264l-335 -372h-160z" />
    <glyph glyph-name="zacute" unicode="&#x17a;" 
d="M1015 0h-797v162l584 793h-584v162h797v-162l-579 -793h579v-162zM424 1303l231 373h265l-335 -373h-161z" />
    <glyph glyph-name="Zdotaccent" unicode="&#x17b;" 
d="M1080 0h-927v162l716 1165h-716v162h927v-162l-717 -1165h717v-162zM615 1696q-66 0 -107 22t-41 82v13q0 61 41 85t108 23q67 0 108 -23t41 -85v-13q0 -60 -42 -82t-108 -22z" />
    <glyph glyph-name="zdotaccent" unicode="&#x17c;" 
d="M1015 0h-797v162l584 793h-584v162h797v-162l-579 -793h579v-162zM621 1324q-66 0 -107 22t-41 82v13q0 61 41 85t108 23q67 0 108 -23t41 -85v-13q0 -60 -42 -82t-108 -22z" />
    <glyph glyph-name="Zcaron" unicode="&#x17d;" 
d="M1080 0h-927v162l716 1165h-716v162h927v-162l-717 -1165h717v-162zM553 1683l-307 276l72 111l300 -210l296 210l73 -111l-304 -276h-130z" />
    <glyph glyph-name="zcaron" unicode="&#x17e;" 
d="M1015 0h-797v162l584 793h-584v162h797v-162l-579 -793h579v-162zM551 1311l-307 275l73 112l299 -210l296 210l73 -112l-304 -275h-130z" />
    <glyph glyph-name="longs" unicode="&#x17f;" 
d="M862 1342q-155 0 -155 -147v-1195h-180v955h-207v162h207v75q0 149 91 230.5t210 81.5t235 -48l-33 -151q-101 37 -168 37z" />
    <glyph glyph-name="florin" unicode="&#x192;" 
d="M1061 1305q-99 37 -189 37q-91 0 -128 -45t-37 -154v-216h373v-162h-373v-463q0 -146 -87.5 -229.5t-240.5 -83.5t-243 45l35 156q99 -37 189 -37t130 42q37 44 37 155v415h-359v162h359v265q0 138 87 229q87 83 238 83t243 -44z" />
    <glyph glyph-name="Aringacute" unicode="&#x1fa;" 
d="M961 0l-118 434h-459l-118 -434h-182l437 1489h192l438 -1489h-190zM801 594l-185 689l-188 -689h373zM478 1918q0 -140 139 -140t141 140v59q0 145 -139 145t-141 -145v-59zM896 1918q0 -138 -76 -203t-202 -65q-125 0 -201 65t-76 203v59q0 140 76 207q46 41 110 56
l227 367h264l-326 -363q202 -40 204 -267v-59z" />
    <glyph glyph-name="aringacute" unicode="&#x1fb;" 
d="M564 1136q171 0 285 -81t114 -249v-517q0 -95 50 -121t151 -8v-166q-118 -18 -206 18t-98 169h-35q-47 -86 -143 -143t-224 -57q-128 1 -226 79q-96 78 -96 232t89 238q89 85 220 84h337v168q0 86 -54 138t-164 52t-164 -38t-85 -161l-157 44q61 319 406 319zM313 311
q0 -173 187 -173t282 154v185h-292q-80 1 -128 -37t-49 -129zM722 1605q0 145 -140 145t-139 -145v-60q0 -74 35 -107q36 -32 105 -32t104 32t35 107v60zM583 1277q-125 0 -201 65t-77 203v60q0 216 184 263l228 366h264l-326 -362q76 -14 129 -60q76 -67 76 -207v-60
q0 -138 -76 -203t-201 -65z" />
    <glyph glyph-name="AEacute" unicode="&#x1fc;" 
d="M640 1676l231 372h265l-335 -372h-161zM631 434h-346l-114 -434h-151l410 1489h765v-143h-404v-475h388v-141h-388v-587h404v-143h-564v434zM631 575v771h-106l-203 -771h309z" />
    <glyph glyph-name="aeacute" unicode="&#x1fd;" 
d="M229 318q0 -198 124 -199q64 1 108 39t85 101v236h-159q-69 0 -113 -40q-44 -39 -45 -137zM847 1000q-158 0 -158 -227v-133h316v116q0 128 -39 186t-119 58zM844 1136q148 0 234 -92t86 -283v-238h-475v-186q0 -117 39 -169t119 -52q81 0 115 34t47 131l156 -13
q-19 -147 -89 -217t-210 -70q-202 0 -266 168h-28q-39 -74 -97 -121t-154 -47q-96 1 -174 79t-78 232t80 239q80 84 190 83h207v164q0 97 -40 156q-40 58 -112 58q-74 0 -104 -34t-59 -146l-140 44q24 138 96 209t219 71t216 -125q74 125 222 125zM510 1303l231 373h264
l-335 -373h-160z" />
    <glyph glyph-name="Oslashacute" unicode="&#x1fe;" 
d="M1080 977v-472q0 -253 -119 -389q-120 -135 -345 -135q-113 0 -195 34l-75 -201h-175l108 292q-128 132 -126 399v472q0 257 119 394t346 137q85 0 166 -22l71 190h175l-103 -270q153 -135 153 -429zM616 143q156 0 221 82q64 82 64 278v476q0 180 -50 263l-387 -1071
q65 -28 152 -28zM616 1346q-156 0 -220 -84t-65 -283v-476q0 -145 32 -222l380 1048q-63 17 -127 17zM486 1676l231 372h264l-335 -372h-160z" />
    <glyph glyph-name="oslashacute" unicode="&#x1ff;" 
d="M1048 391q0 -209 -119 -309t-313 -101q-85 0 -167 23l-88 -190h-173l123 260q-127 106 -127 317v328q0 210 120 313t314 104q89 0 166 -23l87 190h173l-122 -262q128 -111 126 -322v-328zM869 391v328q0 100 -39 162l-327 -721q51 -15 113 -15q130 0 192 59q61 59 61 187
zM363 719v-328q0 -98 39 -160l328 726q-51 15 -114 15q-130 0 -192 -61t-61 -192zM424 1303l231 373h265l-335 -373h-161z" />
    <glyph glyph-name="Scommaaccent" unicode="&#x218;" 
d="M644 149q128 0 207 65q78 65 78 174t-68 166q-67 56 -293 132t-319 168t-93 267t120 275t305 101q311 0 491 -220l-100 -134q-78 95 -182 143t-212 49q-109 0 -174 -51q-65 -50 -65 -154t71 -161q70 -57 296 -130t314 -163t88 -252q0 -210 -140 -324t-333 -113
q-332 0 -521 222l106 130q160 -190 424 -190zM350 -559l162 373h266l-268 -373h-160z" />
    <glyph glyph-name="scommaaccent" unicode="&#x219;" 
d="M367 820q0 -83 63 -118t250 -65q186 -30 282 -108t96 -216q0 -168 -126 -250t-278 -82q-306 0 -499 159l76 143q178 -138 402 -140q97 0 171 32q74 31 74 119t-64 122t-250 64t-281 104t-95 228t115 239t256 85q264 0 463 -160l-76 -144q-182 142 -365 142
q-89 0 -151 -36t-63 -118zM350 -559l162 373h266l-268 -373h-160z" />
    <glyph glyph-name="Tcommaaccent" unicode="&#x21a;" 
d="M527 0v1327h-423v162h1024v-162h-421v-1327h-180zM348 -559l162 373h266l-268 -373h-160z" />
    <glyph glyph-name="tcommaaccent" unicode="&#x21b;" 
d="M428 348v607h-287v162h287v372h181v-372h439v-162h-439v-588q0 -212 193 -212q131 0 228 37l35 -166q-122 -43 -283 -43q-160 0 -257 93t-97 272zM387 -559l162 373h266l-268 -373h-160z" />
    <glyph glyph-name="dotlessj" unicode="&#xf6be;" 
d="M449 -212q247 0 247 225v942h-476v162h657v-1128q0 -192 -121 -284t-284 -92t-286 41l34 175q108 -41 229 -41z" />
    <glyph glyph-name="dotlessj" unicode="&#x237;" 
d="M449 -212q247 0 247 225v942h-476v162h657v-1128q0 -192 -121 -284t-284 -92t-286 41l34 175q108 -41 229 -41z" />
    <glyph glyph-name="quoteleft" unicode="&#x2018;" 
d="M357 750l388 739h147l-186 -739h-349z" />
    <glyph glyph-name="quoteleft" unicode="&#x2bb;" 
d="M357 750l388 739h147l-186 -739h-349z" />
    <glyph glyph-name="circumflex" unicode="&#x2c6;" 
d="M318 1318l-72 112l303 275h131l307 -275l-73 -112l-300 212z" />
    <glyph glyph-name="caron" unicode="&#x2c7;" 
d="M553 1311l-307 275l72 112l300 -210l296 210l73 -112l-304 -275h-130z" />
    <glyph glyph-name="breve" unicode="&#x2d8;" 
d="M616 1290q-174 0 -286 91t-114 296h177q2 -135 57 -189q54 -54 166 -54t167 55t57 188h177q-2 -205 -114 -296t-287 -91z" />
    <glyph glyph-name="dotaccent" unicode="&#x2d9;" 
d="M615 1324q-66 0 -107 22t-41 82v13q0 61 41 85t108 23q67 0 108 -23t41 -85v-13q0 -60 -42 -82t-108 -22z" />
    <glyph glyph-name="ring" unicode="&#x2da;" 
d="M756 1605q0 145 -140 145t-139 -145v-60q0 -75 35 -107t104 -32t105 32q35 33 35 107v60zM616 1277q-125 0 -201 65t-76 203v60q0 140 76 207t201 67t201 -67t77 -207v-60q0 -138 -76 -203t-202 -65z" />
    <glyph glyph-name="ogonek" unicode="&#x2db;" 
d="M605 -128q0 -107 130 -107q64 0 146 19v-166q-90 -18 -187 -18q-98 0 -173 59q-74 59 -74 155t66 166t146 104l47 -41q-98 -66 -101 -171z" />
    <glyph glyph-name="tilde" unicode="&#x2dc;" 
d="M765 1476q78 0 78 177v21h136v-28q0 -141 -58 -233q-59 -91 -169 -91q-63 0 -103 34t-70 74t-55 74t-57 34q-80 0 -76 -177v-20h-138v27q0 140 59 232t168 92q69 0 116 -38t117 -144q22 -34 52 -34z" />
    <glyph glyph-name="hungarumlaut" unicode="&#x2dd;" 
d="M350 1303l93 373h246l-216 -373h-123zM743 1303l95 373h244l-216 -373h-123z" />
    <glyph glyph-name="gravecmb" unicode="&#x300;" horiz-adv-x="0" 
d="M0 1303l-337 373h266l229 -373h-158z" />
    <glyph glyph-name="acutecmb" unicode="&#x301;" horiz-adv-x="0" 
d="M-197 1303l231 373h264l-335 -373h-160z" />
    <glyph glyph-name="circumflexcmb" unicode="&#x302;" horiz-adv-x="0" 
d="M-298 1318l-73 112l304 275h130l308 -275l-73 -112l-300 212z" />
    <glyph glyph-name="tildecmb" unicode="&#x303;" horiz-adv-x="0" 
d="M149 1476q78 0 78 177v21h136v-28q0 -141 -58.5 -232.5t-168.5 -91.5q-63 0 -103 33.5t-70 74.5t-55 74.5t-57 33.5q-80 0 -76 -177v-20h-138v27q0 140 58.5 232t168.5 92q69 0 110 -33.5t70.5 -74.5t52 -74.5t52.5 -33.5z" />
    <glyph glyph-name="macroncmb" unicode="&#x304;" horiz-adv-x="0" 
d="M-344 1409v161h688v-161h-688z" />
    <glyph glyph-name="brevecmb" unicode="&#x306;" horiz-adv-x="0" 
d="M0 1290q-175 0 -286.5 91.5t-113.5 295.5h177q2 -134 56.5 -188.5t166.5 -54.5t167 54.5t56 188.5h177q-2 -205 -113.5 -296t-286.5 -91z" />
    <glyph glyph-name="dotaccentcmb" unicode="&#x307;" horiz-adv-x="0" 
d="M-1 1324q-66 0 -107 22t-41 82v13q0 61 41 84.5t108 23.5t108 -23.5t41 -84.5v-13q0 -60 -42 -82t-108 -22z" />
    <glyph glyph-name="dieresiscmb" unicode="&#x308;" horiz-adv-x="0" 
d="M196 1324q-51 0 -81.5 22t-30.5 82v13q0 61 30.5 84.5t82.5 23.5t84 -23.5t32 -84.5v-13q0 -60 -33 -82t-84 -22zM-198 1324q-51 0 -83 22t-32 82v13q0 61 32 84.5t84 23.5t82.5 -23.5t30.5 -84.5v-13q0 -60 -31.5 -82t-82.5 -22z" />
    <glyph glyph-name="ringcmb" unicode="&#x30a;" horiz-adv-x="0" 
d="M0 1750q-140 0 -140 -145v-60q0 -74 35.5 -106.5t104.5 -32.5t104.5 32.5t35.5 106.5v60q0 145 -140 145zM0 1277q-125 0 -201 65.5t-76 202.5v60q0 140 76 207t201 67t201 -67t76 -207v-60q0 -138 -76 -203t-201 -65z" />
    <glyph glyph-name="hungarumlautcmb" unicode="&#x30b;" horiz-adv-x="0" 
d="M-266 1303l93 373h246l-216 -373h-123zM127 1303l95 373h243l-216 -373h-122z" />
    <glyph glyph-name="caroncmb" unicode="&#x30c;" horiz-adv-x="0" 
d="M-63 1311l-308 275l73 112l300 -210l296 210l73 -112l-304 -275h-130z" />
    <glyph glyph-name="commaturnedabovecmb" unicode="&#x312;" horiz-adv-x="0" 
d="M-231 1303l268 373h158l-160 -373h-266z" />
    <glyph glyph-name="commaaccentcmb" unicode="&#x326;" horiz-adv-x="0" 
d="M-233 -559l162 373h266l-268 -373h-160z" />
    <glyph glyph-name="cedillacmb" unicode="&#x327;" horiz-adv-x="0" 
d="M201 -171q0 -117 -79 -173t-185 -56t-179 43.5t-80 149.5l158 19q2 -35 25.5 -49t74.5 -14t77 23.5t26 87.5t-20.5 94.5t-70.5 45.5l35 78q86 -17 152 -74.5t66 -174.5z" />
    <glyph glyph-name="ogonekcmb" unicode="&#x328;" horiz-adv-x="0" 
d="M89 43q-100 -67 -100 -173q0 -105 131 -105q66 0 144 19v-166q-90 -18 -187 -18q-98 0 -172 59t-74 155t66 166t146 104z" />
    <glyph glyph-name="tonos" unicode="&#x384;" 
d="M488 1303l126 373h250l-235 -373h-141z" />
    <glyph glyph-name="dieresistonos" unicode="&#x385;" 
d="M1017 1409q0 -104 -97 -104t-97 104v12q0 106 97 108q97 0 97 -108v-12zM410 1409q0 -104 -97 -104t-97 104v12q0 106 97 108q97 0 97 -108v-12zM505 1303l78 373h210l-179 -373h-109z" />
    <glyph glyph-name="Alphatonos" unicode="&#x386;" 
d="M961 0l-118 434h-459l-118 -434h-182l437 1489h192l438 -1489h-190zM801 594l-185 689l-188 -689h373zM58 1303l126 373h250l-235 -373h-141z" />
    <glyph glyph-name="anoteleia" unicode="&#x387;" 
d="M626 544q-86 0 -140 42t-54 131v46q0 91 54 134t142 43t140 -43q53 -43 53 -134v-46q0 -89 -54 -131t-141 -42z" />
    <glyph glyph-name="Epsilontonos" unicode="&#x388;" 
d="M184 0v1489h896v-162h-715v-435h629v-162h-629v-568h715v-162h-896zM-181 1303l127 373h249l-234 -373h-142z" />
    <glyph glyph-name="Etatonos" unicode="&#x389;" 
d="M184 0v1489h181v-599h503v599h180v-1489h-180v728h-503v-728h-181zM-199 1303l126 373h250l-235 -373h-141z" />
    <glyph glyph-name="Iotatonos" unicode="&#x38a;" 
d="M184 0v162h343v1165h-343v162h864v-162h-341v-1165h341v-162h-864zM-199 1303l126 373h250l-235 -373h-141z" />
    <glyph glyph-name="Omicrontonos" unicode="&#x38c;" 
d="M624 143q154 0 218 82t65 280v472q-1 201 -65 285t-218 84t-219 -84q-64 -84 -64 -285v-472q0 -197 64 -279t219 -83zM624 -19q-227 0 -346 135q-118 135 -118 390v470q0 260 119 396t345 136t345 -136q118 -136 118 -396v-470q0 -255 -118 -390t-345 -135zM-50 1303
l126 373h250l-235 -373h-141z" />
    <glyph glyph-name="Upsilontonos" unicode="&#x38e;" 
d="M707 0h-180v559l-484 930h199l384 -761l366 761h196l-481 -930v-559zM-248 1303l127 373h249l-234 -373h-142z" />
    <glyph glyph-name="Omegatonos" unicode="&#x38f;" 
d="M1097 752q0 -336 -220 -413v-175h220v-164h-397v428q124 24 170 105t46 219v225q0 201 -68 285t-232 84t-232 -84t-67 -285v-225q-1 -138 45 -219t170 -105v-428h-396v164h220v175q-220 77 -220 413v225q0 261 121 396t359 135t360 -135t121 -396v-225zM-95 1303l127 373
h249l-234 -373h-142z" />
    <glyph glyph-name="iotadieresistonos" unicode="&#x390;" 
d="M525 348v607h-370v162h551v-774q0 -188 167 -188q104 0 170 35l35 -156q-88 -43 -230 -43t-233 95q-90 95 -90 262zM1000 1409q0 -104 -97 -104t-97 104v12q0 106 97 108q97 0 97 -108v-12zM393 1409q0 -104 -97 -104t-97 104v12q0 106 97 108q97 0 97 -108v-12z
M488 1303l78 373h210l-178 -373h-110z" />
    <glyph glyph-name="Alpha" unicode="&#x391;" 
d="M961 0l-118 434h-459l-118 -434h-182l437 1489h192l438 -1489h-190zM801 594l-185 689l-188 -689h373z" />
    <glyph glyph-name="Beta" unicode="&#x392;" 
d="M365 162h294q128 0 188 57t60 181v58q0 125 -60 181t-188 55h-294v-532zM365 855h262q119 0 175 49q55 49 54 161v50q0 112 -54 162q-55 50 -175 50h-262v-472zM184 0v1489h430q212 0 316 -86q103 -87 103 -264v-85q0 -94 -51 -158t-142 -81v-54q114 -11 180 -92t67 -207
v-82q0 -380 -461 -380h-442z" />
    <glyph glyph-name="Gamma" unicode="&#x393;" 
d="M190 0v1489h892v-162h-711v-1327h-181z" />
    <glyph glyph-name="Delta" unicode="&#x394;" 
d="M966 162l-352 1138l-355 -1138h707zM86 0v162l426 1327h195l440 -1327v-162h-1061z" />
    <glyph glyph-name="Epsilon" unicode="&#x395;" 
d="M184 0v1489h896v-162h-715v-435h629v-162h-629v-568h715v-162h-896z" />
    <glyph glyph-name="Zeta" unicode="&#x396;" 
d="M1080 0h-927v162l716 1165h-716v162h927v-162l-717 -1165h717v-162z" />
    <glyph glyph-name="Eta" unicode="&#x397;" 
d="M184 0v1489h181v-599h503v599h180v-1489h-180v728h-503v-728h-181z" />
    <glyph glyph-name="Theta" unicode="&#x398;" 
d="M452 672v164h334v-164h-334zM616 143q177 0 250.5 82t73.5 278v476q0 199 -73.5 283t-250.5 84t-250.5 -83.5t-73.5 -283.5v-476q0 -195 73.5 -277.5t250.5 -82.5zM616.5 -19q-245.5 0 -373.5 134t-128 390v472q0 261 128.5 396t373.5 135t373.5 -135t128.5 -396v-472
q0 -255 -128.5 -389.5t-374 -134.5z" />
    <glyph glyph-name="Iota" unicode="&#x399;" 
d="M184 0v162h343v1165h-343v162h864v-162h-341v-1165h341v-162h-864z" />
    <glyph glyph-name="Kappa" unicode="&#x39a;" 
d="M365 711v-711h-181v1489h181v-616h58l517 616h207l-583 -685l577 -804h-212l-501 711h-63z" />
    <glyph glyph-name="Lambda" unicode="&#x39b;" 
d="M961 0l-345 1283l-350 -1283h-182l437 1489h192l438 -1489h-190z" />
    <glyph glyph-name="Mu" unicode="&#x39c;" 
d="M132 0v1489h235l255 -901l253 901h225v-1489h-162l4 1203l-242 -836h-168l-242 836l4 -1203h-162z" />
    <glyph glyph-name="Nu" unicode="&#x39d;" 
d="M346 0h-162v1489h242l460 -1284v1284h162v-1489h-253l-449 1266v-1266z" />
    <glyph glyph-name="Xi" unicode="&#x39e;" 
d="M153 0v162h927v-162h-927zM195 730v162h842v-162h-842zM153 1327v162h927v-162h-927z" />
    <glyph glyph-name="Omicron" unicode="&#x39f;" 
d="M616 143q155 0 219 82t64 280v472q0 201 -64 285t-219 84t-219 -84t-64 -285v-472q0 -197 64 -279t219 -83zM616 -19q-227 0 -345 135t-118 390v470q0 260 119 396t345 136q227 0 345 -136t118 -396v-470q0 -255 -118 -390t-346 -135z" />
    <glyph glyph-name="Pi" unicode="&#x3a0;" 
d="M184 0v1489h864v-1489h-180v1327h-503v-1327h-181z" />
    <glyph glyph-name="Rho" unicode="&#x3a1;" 
d="M365 683h298q137 0 195 54t58 183v171q0 128 -59 182t-194 54h-298v-644zM184 0v1489h484q218 -1 323 -97t106 -295v-177q-1 -201 -107 -298t-323 -97h-302v-525h-181z" />
    <glyph glyph-name="Sigma" unicode="&#x3a3;" 
d="M1078 0h-940v162l599 605l-599 560v162h940v-162h-707l502 -482v-141l-523 -542h728v-162z" />
    <glyph glyph-name="Tau" unicode="&#x3a4;" 
d="M527 0v1327h-423v162h1024v-162h-421v-1327h-180z" />
    <glyph glyph-name="Upsilon" unicode="&#x3a5;" 
d="M707 0h-180v559l-484 930h199l384 -761l366 761h196l-481 -930v-559z" />
    <glyph glyph-name="Phi" unicode="&#x3a6;" 
d="M477 330h59v830h-59q-106 0 -152 -76t-46 -254v-178q0 -174 46 -248t152 -74zM758 1160h-62v-830h62q104 0 150 74t45 248v178q0 177 -45 254q-46 76 -150 76zM758 168h-52v-187h-177v187h-52q-192 0 -283 130t-92 354v178q0 228 92 360t283 132h52v186h177v-186h52
q192 0 282 -132t90 -360v-178q0 -224 -90 -354t-282 -130z" />
    <glyph glyph-name="Chi" unicode="&#x3a7;" 
d="M974 0l-356 601l-357 -601h-207l471 760l-430 729h207l337 -569l338 569h205l-452 -728l447 -761h-203z" />
    <glyph glyph-name="Psi" unicode="&#x3a8;" 
d="M706 0h-177v361q-194 22 -286 148t-92 329v651h169v-653q0 -145 48.5 -218.5t160.5 -90.5v962h177v-962q112 15 159 89.5t47 219.5v653h170v-651q0 -203 -92.5 -328.5t-283.5 -148.5v-361z" />
    <glyph glyph-name="Omega" unicode="&#x3a9;" 
d="M1097 752q0 -336 -220 -413v-175h220v-164h-397v428q125 24 170.5 105t45.5 219v225q0 201 -68 285t-232 84t-231.5 -83.5t-67.5 -285.5v-225q0 -138 45.5 -219t169.5 -105v-428h-396v164h220v175q-220 77 -220 413v225q0 261 121 396t359.5 135t359.5 -135t121 -396
v-225z" />
    <glyph glyph-name="Iotadieresis" unicode="&#x3aa;" 
d="M184 0v162h343v1165h-343v162h864v-162h-341v-1165h341v-162h-864zM929 1800q-1 -60 -33 -82t-83 -22t-82 22t-31 82v13q0 61 31 85t83 23q52 0 84 -23t31 -85v-13zM532 1800q0 -60 -32 -82t-82 -22q-51 0 -83 22t-32 82v13q0 61 32 85t84 23q52 0 83 -23t30 -85v-13z
" />
    <glyph glyph-name="Upsilondieresis" unicode="&#x3ab;" 
d="M707 0h-180v559l-484 930h199l384 -761l366 761h196l-481 -930v-559zM929 1800q-1 -60 -33 -82t-83 -22t-82 22t-31 82v13q0 61 31 85t83 23q52 0 84 -23t31 -85v-13zM532 1800q0 -60 -32 -82t-82 -22q-51 0 -83 22t-32 82v13q0 61 32 85t84 23q52 0 83 -23t30 -85v-13z
" />
    <glyph glyph-name="alphatonos" unicode="&#x3ac;" 
d="M484 -19q-143 0 -229 108t-86 308v325q0 198 87 306t228 108q95 0 167 -50t112 -142h51v173h180v-825q0 -97 42 -123t128 -9v-166q-140 -19 -220 26t-91 170h-51q-46 -101 -128 -155t-190 -54zM354 413q0 -260 178 -260q80 0 148 46q67 47 134 142v435q-67 95 -134 142
t-148 46q-180 0 -178 -258v-293zM575 1303l127 373h249l-234 -373h-142z" />
    <glyph glyph-name="epsilontonos" unicode="&#x3ad;" 
d="M618 -19q-232 0 -348 81q-115 81 -115 251v17q0 94 66 166t200 81v41q-110 6 -172 58t-63 141v25q0 150 107 222t321 72t318 -80q103 -80 116 -254l-177 -14q-11 106 -68 148t-188 42t-190 -34t-58 -112v-26q0 -69 56 -99t188 -29h96v-147h-96q-149 0 -213 -42t-63 -141
v-18q0 -102 66 -146q67 -44 215 -44t211 46t76 164l177 -13q-13 -188 -122 -272q-108 -84 -340 -84zM490 1303l126 373h250l-235 -373h-141z" />
    <glyph glyph-name="etatonos" unicode="&#x3ae;" 
d="M670 964q-155 0 -305 -186v-778h-179v1117h179v-173h52q41 88 125 140t188 52q145 0 231 -93t85 -250v-1165h-178v1124q0 212 -198 212zM495 1303l127 373h249l-234 -373h-142z" />
    <glyph glyph-name="iotatonos" unicode="&#x3af;" 
d="M525 348v607h-370v162h551v-774q0 -188 167 -188q104 0 170 35l35 -156q-88 -43 -230 -43t-233 95q-90 95 -90 262zM480 1303l127 373h249l-234 -373h-142z" />
    <glyph glyph-name="upsilondieresistonos" unicode="&#x3b0;" 
d="M616 -19q-210 -1 -320 105t-110 303v728h179v-730q-1 -130 59 -187t192 -57t192 57t60 187v730h178v-728q0 -197 -110 -303t-320 -105zM1017 1409q0 -104 -97 -104t-97 104v12q0 106 97 108q97 0 97 -108v-12zM410 1409q0 -104 -97 -104t-97 104v12q0 106 97 108
q97 0 97 -108v-12zM505 1303l78 373h210l-179 -373h-109z" />
    <glyph glyph-name="alpha" unicode="&#x3b1;" 
d="M484 -19q-143 0 -229 108t-86 308v325q0 197 87 305.5t228 108.5q95 0 166.5 -50.5t112.5 -141.5h51v173h180v-825q0 -97 42 -123t128 -9v-166q-140 -19 -220 26t-91 170h-51q-45 -101 -127.5 -155t-190.5 -54zM354 413q0 -260 178 -260q80 0 147.5 46.5t134.5 141.5v435
q-67 95 -134 141.5t-148 46.5q-178 0 -178 -258v-293z" />
    <glyph glyph-name="beta" unicode="&#x3b2;" 
d="M992 1091q0 -221 -190 -257v-54q114 -13 178 -90t66 -184v-96q0 -222 -133 -325.5t-306 -103.5q-125 0 -242 54v-407h-179v1452q0 218 112.5 323t290.5 105t290.5 -96t112.5 -271v-50zM602 140q133 0 197.5 65t64.5 205v80q0 223 -255 223h-84v160h73q217 0 217 203v34
q0 121 -55.5 178.5t-169.5 57.5t-169.5 -63.5t-55.5 -195.5v-877q104 -70 237 -70z" />
    <glyph glyph-name="gamma" unicode="&#x3b3;" 
d="M724 -372h-216l19 409l-387 1080h197l285 -849l281 849h188l-384 -1080z" />
    <glyph glyph-name="delta" unicode="&#x3b4;" 
d="M365 581v-183q0 -136 63.5 -195.5t188 -59.5t188 60t63.5 195v203q0 101 -70 156t-254 107q-179 -83 -179 -283zM616.5 -19q-193.5 0 -313 102.5t-119.5 314.5v183q0 114 65.5 197.5t176.5 133.5q-102 50 -146 112.5t-44 159.5q0 156 94 230.5t281 74.5h318v-162h-318
q-106 0 -156.5 -27.5t-50.5 -101.5t53 -110t247 -101t269 -150t75 -236v-203q0 -212 -119 -314.5t-312.5 -102.5z" />
    <glyph glyph-name="epsilon" unicode="&#x3b5;" 
d="M618 -19q-232 0 -347.5 81t-115.5 251v17q0 95 66 166.5t200 80.5v41q-110 7 -172.5 58.5t-62.5 140.5v25q0 151 107 222.5t321 71.5t317.5 -80t116.5 -254l-177 -14q-11 106 -67 147.5t-188 41.5t-190.5 -33.5t-58.5 -111.5v-26q0 -69 55.5 -98.5t188.5 -29.5h96v-147
h-96q-149 0 -212.5 -42t-63.5 -141v-18q0 -102 66.5 -146t214.5 -44t211 46.5t76 163.5l177 -13q-13 -188 -121.5 -272t-340.5 -84z" />
    <glyph glyph-name="zeta" unicode="&#x3b6;" 
d="M717 -372h-192v163h216q63 0 99.5 23.5t36.5 98t-36.5 98.5t-99.5 24h-143q-210 0 -316.5 124t-106.5 297q0 222 158 410l255 303l-11 26q-184 -19 -289.5 71.5t-138.5 239.5l153 30q24 -123 132 -169.5t264 -1.5l333 164l71 -202l-268 -87l-352 -441
q-126 -161 -126 -330q0 -123 60.5 -196.5t181.5 -73.5h145q140 0 222.5 -68.5t82.5 -212.5t-90 -217t-241 -73z" />
    <glyph glyph-name="eta" unicode="&#x3b7;" 
d="M670 964q-157 0 -305 -186v-778h-179v1117h179v-173h52q41 88 125 140t188 52q145 0 230.5 -93t85.5 -250v-1165h-178v1124q0 212 -198 212z" />
    <glyph glyph-name="theta" unicode="&#x3b8;" 
d="M616.5 143q128.5 0 190 62.5t61.5 196.5v270h-503v-270q0 -134 61.5 -196.5t190 -62.5zM365 1078v-242h503v242q0 136 -61.5 202t-190 66t-190 -65t-61.5 -203zM616.5 -19q-197.5 0 -314 105.5t-116.5 317.5v674q0 216 116.5 323t314.5 107t313.5 -107t115.5 -323v-674
q0 -212 -116 -317.5t-313.5 -105.5z" />
    <glyph glyph-name="iota" unicode="&#x3b9;" 
d="M525 348v607h-370v162h551v-774q0 -188 167 -188q104 0 170 35l35 -156q-88 -43 -230 -43t-233 95q-90 95 -90 262z" />
    <glyph glyph-name="kappa" unicode="&#x3ba;" 
d="M447 510v-510h-181v1117h181v-454h85l326 454h216l-400 -519l395 -598h-205l-332 510h-85z" />
    <glyph glyph-name="lambda" unicode="&#x3bb;" 
d="M324 1499q284 0 370 -266l397 -1233h-195l-283 964l-283 -964h-190l357 1126h67l-11 39q-49 176 -200 176q-77 0 -174 -23l-30 160q110 21 175 21z" />
    <glyph glyph-name="mu" unicode="&#x3bc;" 
d="M186 1117h181v-756q0 -112 56.5 -160t134.5 -48t134 37t107 104v823h180v-825q0 -99 41 -125t127 -7v-166q-250 -40 -268 194h-36q-105 -207 -296 -207q-110 0 -180 90v-34l17 -409h-215l17 409v1080z" />
    <glyph glyph-name="nu" unicode="&#x3bd;" 
d="M1091 1117q-57 -560 -382 -1117h-188l-381 1117h188l311 -981q237 486 275 981h177z" />
    <glyph glyph-name="xi" unicode="&#x3be;" 
d="M289 977q0 148 143 209v43q-153 9 -242 82.5t-119 194.5l152 30q24 -91 141.5 -134t274.5 -21l344 148l71 -202l-369 -100l-85 -54q-131 -85 -131 -194q0 -80 37.5 -111.5t94.5 -31.5h324v-164h-322q-125 0 -180.5 -61.5t-55.5 -148.5v-51q0 -95 56.5 -153.5t179.5 -58.5
h172q140 0 222.5 -68.5t82.5 -212.5t-89.5 -217t-242.5 -73h-188v163h213q63 0 99.5 23.5t36.5 98t-36.5 98.5t-99.5 24h-177q-188 0 -299 94t-111 255v50q0 115 75.5 201.5t226.5 99.5v43q-97 0 -148 57t-51 142z" />
    <glyph glyph-name="omicron" unicode="&#x3bf;" 
d="M365 719v-328q0 -128 62 -188t189 -60t189 60t63 188v328q0 253 -252 255q-251 0 -251 -255zM616 -19q-206 1 -318 107t-112 303v328q0 199 112 308t318 109t319 -109q112 -109 111 -308v-326q0 -199 -112 -305t-318 -107z" />
    <glyph glyph-name="pi" unicode="&#x3c0;" 
d="M1097 1117v-162h-201v-663q0 -95 41.5 -122t160.5 -10v-166q-197 -19 -289 35.5t-92 188.5v737h-287v-955h-179v955h-167v162h1013z" />
    <glyph glyph-name="rho" unicode="&#x3c1;" 
d="M186 -372v1091q0 209 117.5 313t313.5 104t312.5 -104.5t116.5 -312.5v-324q0 -199 -91 -306.5t-242 -107.5q-101 0 -178 50.5t-118 141.5h-52v-545h-179zM667 153q201 0 201 258v308q0 255 -251.5 255t-251.5 -255v-378q137 -188 302 -188z" />
    <glyph glyph-name="sigma1" unicode="&#x3c2;" 
d="M186 715q0 421 423 421q216 0 312.5 -98t109.5 -303l-167 -11q-7 136 -64.5 193t-185.5 57t-188.5 -59t-60.5 -187v-285q0 -128 57.5 -187t184.5 -59h145q140 0 221 -68.5t81 -212.5t-90.5 -216t-242.5 -72h-189v162h215q63 0 99.5 24t36.5 98.5t-36.5 98.5t-99.5 24
h-146q-220 0 -317.5 109t-97.5 320v251z" />
    <glyph glyph-name="sigma" unicode="&#x3c3;" 
d="M979 665v-274q0 -209 -109.5 -309.5t-287.5 -100.5t-287 100.5t-109 309.5v307q0 203 110 311t289 108h629v-181l-369 32q134 -96 134 -303zM799 659q0 294 -217 294t-217 -253v-309q0 -132 55 -190t163 -58t162 58t54 190v268z" />
    <glyph glyph-name="tau" unicode="&#x3c4;" 
d="M527 218v737h-343v162h881v-162h-358v-674q0 -84 43 -110t162 -11v-166q-207 -19 -296 32.5t-89 191.5z" />
    <glyph glyph-name="upsilon" unicode="&#x3c5;" 
d="M616.5 -19q-208.5 0 -319.5 105.5t-111 302.5v728h179v-730q0 -130 59.5 -187t191.5 -57t192 57t60 187v730h178v-728q0 -197 -110.5 -302.5t-319 -105.5z" />
    <glyph glyph-name="phi" unicode="&#x3c6;" 
d="M951 477v119q0 378 -255 378v-844q255 38 255 347zM283 648v-177q0 -303 253 -341v987h164q186 0 299.5 -127.5t113.5 -393.5v-119q0 -222 -113.5 -346t-301.5 -146v-357h-164v357q-192 22 -303.5 146t-111.5 340v177q0 294 119 503l157 -60q-112 -200 -112 -443z" />
    <glyph glyph-name="chi" unicode="&#x3c7;" 
d="M853 -372l-253 567l-265 -567h-175l365 737l-335 752h179l258 -575l270 575h175l-370 -745l333 -744h-182z" />
    <glyph glyph-name="psi" unicode="&#x3c8;" 
d="M698 -372h-164v359q-214 19 -314.5 134t-100.5 305v691h164v-693q0 -130 59.5 -196t193.5 -79v968h162v-968q132 13 192 79t60 196v693h163v-691q0 -190 -101.5 -305t-313.5 -134v-359z" />
    <glyph glyph-name="omega" unicode="&#x3c9;" 
d="M854 143q96 0 96 276v188q0 149 -33.5 284t-61.5 198l154 60q41 -74 72.5 -224t31.5 -318v-188q0 -214 -70.5 -326t-184.5 -112q-80 0 -141.5 56t-89.5 183h-22q-26 -127 -88.5 -183t-142.5 -56q-114 0 -184.5 112t-70.5 326v188q0 168 31.5 317.5t72.5 224.5l155 -60
q-28 -63 -61.5 -198t-33.5 -284v-188q0 -276 128 -276q63 0 94 51.5t31 170.5v493h162v-493q0 -119 30 -170.5t126 -51.5z" />
    <glyph glyph-name="iotadieresis" unicode="&#x3ca;" 
d="M525 348v607h-370v162h551v-774q0 -188 167 -188q104 0 170 35l35 -156q-88 -43 -230 -43t-233 95q-90 95 -90 262zM805 1324q-51 0 -82 22t-30 82v13q0 61 30 85q31 23 83 23t84 -23t32 -85v-13q0 -60 -33 -82t-84 -22zM410 1324q-50 0 -82 22t-32 82v13q0 61 32 85
t84 23q52 0 82 -23q31 -23 31 -85v-13q0 -60 -32 -82t-83 -22z" />
    <glyph glyph-name="upsilondieresis" unicode="&#x3cb;" 
d="M616 -19q-210 -1 -320 105t-110 303v728h179v-730q-1 -130 59 -187t192 -57t192 57t60 187v730h178v-728q0 -197 -110 -303t-320 -105zM929 1428q-1 -60 -33 -82t-83 -22t-82 22t-31 82v13q0 61 31 85t83 23q52 0 84 -23t31 -85v-13zM532 1428q0 -60 -32 -82t-82 -22
q-51 0 -83 22t-32 82v13q0 61 32 85t84 23q52 0 83 -23t30 -85v-13z" />
    <glyph glyph-name="omicrontonos" unicode="&#x3cc;" 
d="M365 719v-328q0 -128 62 -188t189 -60t189 60t63 188v328q0 253 -252 255q-251 0 -251 -255zM616 -19q-206 1 -318 107t-112 303v328q0 199 112 308t318 109t319 -109q112 -109 111 -308v-326q0 -199 -112 -305t-318 -107zM488 1303l126 373h250l-235 -373h-141z" />
    <glyph glyph-name="upsilontonos" unicode="&#x3cd;" 
d="M616 -19q-210 -1 -320 105t-110 303v728h179v-730q-1 -130 59 -187t192 -57t192 57t60 187v730h178v-728q0 -197 -110 -303t-320 -105zM488 1303l126 373h250l-235 -373h-141z" />
    <glyph glyph-name="omegatonos" unicode="&#x3ce;" 
d="M950 419v188q0 149 -34 284t-61 198l154 60q41 -75 73 -225t31 -317v-188q-1 -214 -71 -326t-184 -112q-80 0 -141 56t-90 183h-22q-27 -127 -89 -183t-142 -56q-114 0 -184 112t-71 326v188q0 167 32 317t72 225l155 -60q-28 -63 -62 -198t-33 -284v-188
q0 -276 128 -276q63 -1 94 51t31 171v493h162v-493q0 -119 30 -170t93 -52q129 0 129 276zM505 1303l126 373h250l-235 -373h-141z" />
    <glyph glyph-name="IEgravecyrillic" unicode="&#x400;" 
d="M184 0v1489h896v-162h-715v-435h629v-162h-629v-568h715v-162h-896zM663 1676l-337 372h266l229 -372h-158z" />
    <glyph glyph-name="Iocyrillic" unicode="&#x401;" 
d="M184 0v1489h896v-162h-715v-435h629v-162h-629v-568h715v-162h-896zM979 1800q-1 -60 -33 -82t-83 -22t-82 22t-31 82v13q0 61 31 85t83 23q52 0 84 -23t31 -85v-13zM468 1696q-51 0 -83 22t-31 82v13q0 61 31 85q32 23 84 23t83 -23t31 -85v-13q0 -60 -32 -82t-83 -22z
" />
    <glyph glyph-name="Djecyrillic" unicode="&#x402;" 
d="M717 968q396 0 396 -389v-188q0 -391 -396 -391v158q104 0 161 52.5t57 184.5v180q0 130 -57 182.5t-161 52.5h-216v-810h-181v1327h-253v162h851v-162h-417v-359h216z" />
    <glyph glyph-name="Gjecyrillic" unicode="&#x403;" 
d="M190 0v1489h892v-162h-711v-1327h-181zM495 1676l231 372h264l-335 -372h-160z" />
    <glyph glyph-name="Ecyrillic" unicode="&#x404;" 
d="M153 505v472q0 263 122.5 397t354.5 134q459 0 485 -503l-180 -18q-15 197 -83 278t-226 81t-225.5 -83t-67.5 -284v-87h380v-162h-380v-227q0 -197 68.5 -278.5t226.5 -81.5t226 79.5t81 272.5l180 -18q-26 -496 -480 -496q-238 0 -360 132.5t-122 391.5z" />
    <glyph glyph-name="Dzecyrillic" unicode="&#x405;" 
d="M644 149q128 0 207 65q78 65 78 174t-68 166q-67 56 -293 132t-319 168t-93 267t120 275t305 101q311 0 491 -220l-100 -134q-78 95 -182 143t-212 49q-109 0 -174 -51q-65 -50 -65 -154t71 -161q70 -57 296 -130t314 -163t88 -252q0 -210 -140 -324t-333 -113
q-332 0 -521 222l106 130q160 -190 424 -190z" />
    <glyph glyph-name="Icyrillic" unicode="&#x406;" 
d="M184 0v162h343v1165h-343v162h864v-162h-341v-1165h341v-162h-864z" />
    <glyph glyph-name="Yicyrillic" unicode="&#x407;" 
d="M184 0v162h343v1165h-343v162h864v-162h-341v-1165h341v-162h-864zM929 1800q-1 -60 -33 -82t-83 -22t-82 22t-31 82v13q0 61 31 85t83 23q52 0 84 -23t31 -85v-13zM532 1800q0 -60 -32 -82t-82 -22q-51 0 -83 22t-32 82v13q0 61 32 85t84 23q52 0 83 -23t30 -85v-13z
" />
    <glyph glyph-name="Jecyrillic" unicode="&#x408;" 
d="M585 143q281 0 281 326v858h-345v162h525v-1018q0 -238 -118 -364t-347 -126q-229 1 -340 119t-124 375l181 20q13 -210 72 -281t215 -71z" />
    <glyph glyph-name="Ljecyrillic" unicode="&#x409;" 
d="M700 164h78q82 0 127.5 53t45.5 183v166q0 132 -45.5 185t-127.5 53h-78v-640zM700 1489v-525h82q331 0 331 -396v-173q0 -395 -329 -395h-248v1326h-199l-17 -1017q-2 -168 -65 -244t-160 -76q-42 -3 -108 18l33 164q38 -15 60 -15q76 -4 80 162l21 1171h519z" />
    <glyph glyph-name="Njecyrillic" unicode="&#x40a;" 
d="M1113 395q0 -395 -320 -395h-257v728h-255v-728h-162v1489h162v-599h255v599h164v-525h91q322 0 322 -396v-173zM700 164h89q76 0 119 53t43 183v166q0 132 -42.5 185t-119.5 53h-89v-640z" />
    <glyph glyph-name="Tshecyrillic" unicode="&#x40b;" 
d="M717 910q396 0 396 -389v-521h-180v518q0 127 -49.5 181.5t-166.5 54.5h-233v-754h-181v1327h-251v162h851v-162h-419v-417h233z" />
    <glyph glyph-name="Kjecyrillic" unicode="&#x40c;" 
d="M365 711v-711h-181v1489h181v-616h58l517 616h207l-583 -685l577 -804h-212l-501 711h-63zM536 1676l231 372h264l-335 -372h-160z" />
    <glyph glyph-name="Igravecyrillic" unicode="&#x40d;" 
d="M886 0v1266l-448 -1266h-254v1489h162v-1284l460 1284h242v-1489h-162zM598 1676l-337 372h266l229 -372h-158z" />
    <glyph glyph-name="Ushortcyrillic" unicode="&#x40e;" 
d="M344 -2q-40 0 -149 19l28 162q87 -19 133 -19q84 0 129 49t83 158h-65l-412 1122h181l346 -979l348 979h173l-439 -1200q-60 -167 -152 -229t-204 -62zM616 1663q-151 1 -258 83t-109 285l177 19q2 -132 43 -188t147 -56t147 56t43 188l177 -19q-2 -203 -109 -285
t-258 -83z" />
    <glyph glyph-name="Dzhecyrillic" unicode="&#x40f;" 
d="M527 -279v279h-343v1489h181v-1327h503v1327h180v-1489h-341v-279h-180z" />
    <glyph glyph-name="Acyrillic" unicode="&#x410;" 
d="M961 0l-118 434h-459l-118 -434h-182l437 1489h192l438 -1489h-190zM801 594l-185 689l-188 -689h373z" />
    <glyph glyph-name="Becyrillic" unicode="&#x411;" 
d="M365 162h275q136 0 194 55t58 183v71q0 127 -58 181t-194 54h-275v-544zM184 0v1489h820v-162h-639v-463h309q192 0 295 -95t103 -270v-108q0 -188 -103 -289.5t-293 -101.5h-492z" />
    <glyph glyph-name="Vecyrillic" unicode="&#x412;" 
d="M365 162h294q128 0 188 57t60 181v58q0 125 -60 181t-188 55h-294v-532zM365 855h262q119 0 175 49q55 49 54 161v50q0 112 -54 162q-55 50 -175 50h-262v-472zM184 0v1489h430q212 0 316 -86q103 -87 103 -264v-85q0 -94 -51 -158t-142 -81v-54q114 -11 180 -92t67 -207
v-82q0 -380 -461 -380h-442z" />
    <glyph glyph-name="Gecyrillic" unicode="&#x413;" 
d="M190 0v1489h892v-162h-711v-1327h-181z" />
    <glyph glyph-name="Decyrillic" unicode="&#x414;" 
d="M214 0v-279h-179v441h105q111 90 115 413l6 914h750v-1327h169v-441h-178v279h-788zM339 162h493v1165h-400l-4 -763q-2 -128 -16.5 -212.5t-72.5 -142.5v-47z" />
    <glyph glyph-name="Iecyrillic" unicode="&#x415;" 
d="M184 0v1489h896v-162h-715v-435h629v-162h-629v-568h715v-162h-896z" />
    <glyph glyph-name="Zhecyrillic" unicode="&#x416;" 
d="M538 864v625h160v-625h71l268 625h168l-309 -685l310 -804h-175l-262 721h-71v-721h-160v721h-71l-264 -721h-177l313 804l-309 685h167l270 -625h71z" />
    <glyph glyph-name="Zecyrillic" unicode="&#x417;" 
d="M616 -19q-244 0 -355.5 101.5t-124.5 319.5l181 19q13 -156 78 -218.5t217 -62.5t219.5 60.5t67.5 203.5v50q0 143 -62 200t-221 57h-171v162h171q140 0 195 45t55 156v60q0 117 -60.5 166.5t-195.5 49.5t-191 -57t-69 -196l-181 18q13 205 118 299t315 94t327 -91
t117 -285v-61q0 -112 -71.5 -176.5t-194.5 -73.5v-54q149 -13 224.5 -100.5t75.5 -212.5v-50q0 -205 -110 -314t-354 -109z" />
    <glyph glyph-name="Iicyrillic" unicode="&#x418;" 
d="M886 0v1266l-448 -1266h-254v1489h162v-1284l460 1284h242v-1489h-162z" />
    <glyph glyph-name="Iishortcyrillic" unicode="&#x419;" 
d="M886 0v1266l-448 -1266h-254v1489h162v-1284l460 1284h242v-1489h-162zM633 1663q-151 1 -258 83t-109 285l177 19q2 -132 43 -188t147 -56t147 56t43 188l177 -19q-2 -203 -109 -285t-258 -83z" />
    <glyph glyph-name="Kacyrillic" unicode="&#x41a;" 
d="M365 711v-711h-181v1489h181v-616h58l517 616h207l-583 -685l577 -804h-212l-501 711h-63z" />
    <glyph glyph-name="Elcyrillic" unicode="&#x41b;" 
d="M138 141q78 0 113.5 76.5t37.5 244.5l5 1027h754v-1489h-180v1327h-401l-5 -889q-2 -233 -82 -345t-224 -112q-74 0 -143 23l30 158q65 -21 95 -21z" />
    <glyph glyph-name="Emcyrillic" unicode="&#x41c;" 
d="M132 0v1489h235l255 -901l253 901h225v-1489h-162l4 1203l-242 -836h-168l-242 836l4 -1203h-162z" />
    <glyph glyph-name="Encyrillic" unicode="&#x41d;" 
d="M184 0v1489h181v-599h503v599h180v-1489h-180v728h-503v-728h-181z" />
    <glyph glyph-name="Ocyrillic" unicode="&#x41e;" 
d="M616 143q155 0 219 82t64 280v472q0 201 -64 285t-219 84t-219 -84t-64 -285v-472q0 -197 64 -279t219 -83zM616 -19q-227 0 -345 135t-118 390v470q0 260 119 396t345 136q227 0 345 -136t118 -396v-470q0 -255 -118 -390t-346 -135z" />
    <glyph glyph-name="Pecyrillic" unicode="&#x41f;" 
d="M184 0v1489h864v-1489h-180v1327h-503v-1327h-181z" />
    <glyph glyph-name="Ercyrillic" unicode="&#x420;" 
d="M365 683h298q137 0 195 54t58 183v171q0 128 -59 182t-194 54h-298v-644zM184 0v1489h484q218 -1 323 -97t106 -295v-177q-1 -201 -107 -298t-323 -97h-302v-525h-181z" />
    <glyph glyph-name="Escyrillic" unicode="&#x421;" 
d="M153 977q0 531 484 531q235 0 350 -121t128 -382l-180 -18q-15 205 -80 282t-227 77t-228 -83q-67 -83 -67 -284v-476q0 -192 70 -276t229 -84q158 1 222 77t81 275l180 -18q-13 -257 -129 -377t-351 -119q-482 0 -482 524v472z" />
    <glyph glyph-name="Tecyrillic" unicode="&#x422;" 
d="M527 0v1327h-423v162h1024v-162h-421v-1327h-180z" />
    <glyph glyph-name="Ucyrillic" unicode="&#x423;" 
d="M344 -2q-54 0 -149 19l28 162q87 -19 133 -19q84 0 128.5 49t83.5 158h-65l-412 1122h181l346 -979l348 979h173l-439 -1200q-61 -166 -152.5 -228.5t-203.5 -62.5z" />
    <glyph glyph-name="Efcyrillic" unicode="&#x424;" 
d="M477 330h59v830h-59q-106 0 -152 -76.5t-46 -253.5v-178q0 -173 46 -247.5t152 -74.5zM758 1160h-62v-830h62q104 0 149.5 74t45.5 248v178q0 177 -45.5 253.5t-149.5 76.5zM758 168h-52v-187h-177v187h-52q-192 0 -283.5 130t-91.5 354v178q0 227 91.5 359.5
t283.5 132.5h52v186h177v-186h52q192 0 282 -132t90 -360v-178q0 -223 -90 -353.5t-282 -130.5z" />
    <glyph glyph-name="Khacyrillic" unicode="&#x425;" 
d="M974 0l-356 601l-357 -601h-207l471 760l-430 729h207l337 -569l338 569h205l-452 -728l447 -761h-203z" />
    <glyph glyph-name="Tsecyrillic" unicode="&#x426;" 
d="M953 -279v279h-769v1489h181v-1327h419v1327h180v-1327h170v-441h-181z" />
    <glyph glyph-name="Checyrillic" unicode="&#x427;" 
d="M1048 1489v-1489h-180v525h-252q-231 0 -331.5 90.5t-100.5 296.5v577h181v-573q0 -125 58.5 -180t192.5 -55h252v808h180z" />
    <glyph glyph-name="Shacyrillic" unicode="&#x428;" 
d="M119 0v1489h164v-1334h251v1334h164v-1334h252v1334h163v-1489h-994z" />
    <glyph glyph-name="Shchacyrillic" unicode="&#x429;" 
d="M1190 -274h-172v274h-899v1489h164v-1334h251v1334h164v-1334h252v1334h163v-1334h77v-429z" />
    <glyph glyph-name="Hardsigncyrillic" unicode="&#x42a;" 
d="M532 162h200q117 0 167.5 55t50.5 181v172q0 127 -50.5 181.5t-167.5 54.5h-200v-644zM735 0h-381v1327h-319v162h497v-525h202q205 0 300.5 -94.5t95.5 -297.5v-181q0 -201 -95 -296t-300 -95z" />
    <glyph glyph-name="Yericyrillic" unicode="&#x42b;" 
d="M315 155h95q86 0 133 54.5t47 188.5v172q0 134 -47.5 189t-132.5 55h-95v-659zM918 0v1489h164v-1489h-164zM151 0v1489h164v-525h95q179 0 261.5 -95.5t82.5 -298.5v-177q0 -201 -83 -297t-260 -96h-260z" />
    <glyph glyph-name="Softsigncyrillic" unicode="&#x42c;" 
d="M365 162h302q117 0 185 53t68 183v172q0 130 -67 183t-186 53h-302v-644zM184 0v1489h181v-525h303q222 0 326 -95.5t104 -298.5v-177q0 -201 -103 -297t-325 -96h-486z" />
    <glyph glyph-name="Ereversedcyrillic" unicode="&#x42d;" 
d="M1115 505q0 -524 -469 -524q-236 0 -358 121t-135 375l178 18q15 -192 82 -272t227 -80t227.5 87.5t67.5 272.5v227h-445v162h445v87q0 199 -68.5 283t-226.5 84t-226 -82t-83 -277l-178 18q25 503 478 503q251 0 367.5 -134t116.5 -397v-472z" />
    <glyph glyph-name="IUcyrillic" unicode="&#x42e;" 
d="M780 136q91 0 130.5 70.5t39.5 238.5v586q0 173 -39.5 247t-130.5 74t-130 -73.5t-39 -247.5v-586q0 -168 39 -238.5t130 -70.5zM781 -19q-172 0 -253 124t-81 340v292h-164v-737h-164v1489h164v-605h164v147q0 223 82 350t253 127t251 -126.5t80 -350.5v-586
q0 -216 -80 -340t-252 -124z" />
    <glyph glyph-name="IAcyrillic" unicode="&#x42f;" 
d="M868 581h-239l-327 -581h-214l346 586q-168 20 -249 118t-81 279v115q0 199 104.5 295t322.5 96h517v-1489h-180v581zM536 737h332v590h-332q-134 0 -192.5 -53t-58.5 -176v-115q0 -130 58.5 -188t192.5 -58z" />
    <glyph glyph-name="acyrillic" unicode="&#x430;" 
d="M564 1136q171 0 285 -81t114 -249v-517q0 -95 50 -121t151 -8v-166q-118 -18 -206 18t-98 169h-35q-47 -86 -143 -143t-224 -57q-128 1 -226 79q-96 78 -96 232t89 238q89 85 220 84h337v168q0 86 -54 138t-164 52t-164 -38t-85 -161l-157 44q61 319 406 319zM313 311
q0 -173 187 -173t282 154v185h-292q-80 1 -128 -37t-49 -129z" />
    <glyph glyph-name="becyrillic" unicode="&#x431;" 
d="M615 143q137 0 194 64.5t57 192.5v203q0 119 -57 179t-194 60t-193.5 -60t-56.5 -179v-203q0 -128 56.5 -192.5t193.5 -64.5zM616.5 -19q-193.5 0 -313 103.5t-119.5 326.5v561q0 214 116.5 325.5t304.5 147.5l367 71l26 -153l-365 -71q-145 -30 -215 -110t-70 -253v-58
h39q28 52 101.5 93t191.5 41q179 0 273.5 -103t94.5 -278v-222q0 -212 -119 -316.5t-312.5 -104.5z" />
    <glyph glyph-name="vecyrillic" unicode="&#x432;" 
d="M365 158h246q166 0 227 36.5t61 133.5v18q0 95 -58.5 130.5t-216.5 35.5h-259v-354zM365 659h259q140 0 192.5 27t52.5 102v26q0 84 -54.5 114.5t-203.5 30.5h-246v-300zM1080 311q0 -311 -471 -311h-423v1117h423q223 0 331 -70t108 -215v-24q0 -89 -62.5 -140.5
t-171.5 -58.5v-41q134 -9 200 -77t66 -161v-19z" />
    <glyph glyph-name="gecyrillic" unicode="&#x433;" 
d="M270 0v1117h791v-162h-610v-955h-181z" />
    <glyph glyph-name="decyrillic" unicode="&#x434;" 
d="M263 0v-279h-177v441h121q94 78 96 315l6 640h670v-955h168v-441h-177v279h-707zM408 162h393v793h-321l-3 -490q-4 -167 -69 -256v-47z" />
    <glyph glyph-name="iecyrillic" unicode="&#x435;" 
d="M616 981q-251 0 -251 -264v-56h503v39q0 147 -64 214t-188 67zM186 393v326q0 209 120 313t313 104t310 -106t117 -326v-181h-681v-130q0 -138 62 -198q62 -59 187 -59t180 38t85 122l173 -52q-47 -138 -143 -200t-295 -62q-200 0 -314 104t-114 307z" />
    <glyph glyph-name="zhecyrillic" unicode="&#x436;" 
d="M538 680v437h158v-437h52l246 437h179l-300 -503l296 -614h-180l-239 534h-54v-534h-158v534h-56l-238 -534h-181l296 613l-301 504h180l246 -437h54z" />
    <glyph glyph-name="zecyrillic" unicode="&#x437;" 
d="M622 -19q-244 0 -349 81t-118 275l176 13q13 -125 75.5 -167.5t212.5 -42.5t215 40t65 150v18q0 106 -62 144.5t-213 38.5h-97v147h97q134 0 189 27t55 101v26q0 84 -59 114.5t-191 30.5t-188 -38t-69 -151l-177 14q13 179 113.5 256.5t311.5 77.5t325 -69t114 -225v-25
q0 -89 -63 -140t-171 -59v-41q134 -9 200 -81t66 -166v-17q0 -162 -107 -247t-351 -85z" />
    <glyph glyph-name="iicyrillic" unicode="&#x438;" 
d="M877 0v894l-458 -894h-233v1117h170v-910l469 910h221v-1117h-169z" />
    <glyph glyph-name="iishortcyrillic" unicode="&#x439;" 
d="M877 0v894l-458 -894h-233v1117h170v-910l469 910h221v-1117h-169zM616 1290q-151 0 -258 83t-109 286l177 18q2 -132 43 -188q41 -55 147 -55t147 56t43 187l177 -18q-2 -203 -109 -286t-258 -83z" />
    <glyph glyph-name="kacyrillic" unicode="&#x43a;" 
d="M447 510v-510h-181v1117h181v-454h85l326 454h216l-400 -519l395 -598h-205l-332 510h-85z" />
    <glyph glyph-name="elcyrillic" unicode="&#x43b;" 
d="M169 143q84 0 116.5 71t34.5 248l6 655h722v-1117h-180v955h-369l-6 -517q-2 -233 -82 -345t-223 -112q-46 0 -127 23l30 158q59 -19 78 -19z" />
    <glyph glyph-name="emcyrillic" unicode="&#x43c;" 
d="M168 0v1117h268l186 -665l184 665h259v-1117h-162l-2 944l-194 -665h-182l-197 674l2 -953h-162z" />
    <glyph glyph-name="encyrillic" unicode="&#x43d;" 
d="M186 0v1117h179v-393h503v393h178v-1117h-178v564h-503v-564h-179z" />
    <glyph glyph-name="ocyrillic" unicode="&#x43e;" 
d="M365 719v-328q0 -128 62 -188t189 -60t189 60t63 188v328q0 253 -252 255q-251 0 -251 -255zM616 -19q-206 1 -318 107t-112 303v328q0 199 112 308t318 109t319 -109q112 -109 111 -308v-326q0 -199 -112 -305t-318 -107z" />
    <glyph glyph-name="pecyrillic" unicode="&#x43f;" 
d="M186 0v1117h860v-1117h-178v955h-503v-955h-179z" />
    <glyph glyph-name="ercyrillic" unicode="&#x440;" 
d="M607 -19q-119 0 -242 53v-406h-179v1489h179v-173h52q41 88 121 140t179 52q155 0 243 -111t86 -304v-326q0 -192 -117 -303t-322 -111zM605 140q134 0 198 62t65 196v328q0 240 -201 238q-166 0 -302 -188v-564q106 -72 240 -72z" />
    <glyph glyph-name="escyrillic" unicode="&#x441;" 
d="M365 389q1 -246 267 -246q130 0 190 44t66 148l177 -9q-22 -345 -425 -345q-226 -1 -340 105t-114 305v328q0 205 114 311t326 106t319 -95t120 -287l-177 -9q-7 123 -68 176t-190 53q-265 0 -265 -253v-332z" />
    <glyph glyph-name="tecyrillic" unicode="&#x442;" 
d="M527 0v955h-391v162h961v-162h-390v-955h-180z" />
    <glyph glyph-name="ucyrillic" unicode="&#x443;" 
d="M320 -384q-66 0 -173 21l30 162q101 -24 172 -23q164 2 224 220h-74l-359 1121h195l285 -966l283 966h188l-367 -1156q-58 -185 -161 -265t-243 -80z" />
    <glyph glyph-name="efcyrillic" unicode="&#x444;" 
d="M950 661q0 302 -216 302h-45v-808h45q216 0 216 297v209zM283 452q0 -297 216 -297h45v808h-45q-216 0 -216 -302v-209zM754 0h-56v-372h-164v372h-56q-169 0 -264 119t-95 330v219q0 210 95 329.5t264 119.5h56v372h164v-372h56q169 0 264 -119t95 -330v-219
q0 -210 -95 -329.5t-264 -119.5z" />
    <glyph glyph-name="khacyrillic" unicode="&#x445;" 
d="M868 0l-263 419l-248 -419h-199l360 560l-347 557h201l250 -402l251 402h199l-361 -547l356 -570h-199z" />
    <glyph glyph-name="tsecyrillic" unicode="&#x446;" 
d="M961 -279v279h-775v1117h179v-955h421v955h178v-955h170v-441h-173z" />
    <glyph glyph-name="checyrillic" unicode="&#x447;" 
d="M560 361q-407 0 -407 393v363h180v-359q0 -132 62.5 -184.5t177.5 -55.5t213 46v553h180v-1117h-180v397q-91 -36 -226 -36z" />
    <glyph glyph-name="shacyrillic" unicode="&#x448;" 
d="M119 0v1117h164v-970h251v970h164v-970h252v970h163v-1117h-994z" />
    <glyph glyph-name="shchacyrillic" unicode="&#x449;" 
d="M1206 -279h-163v279h-924v1117h164v-970h251v970h164v-970h252v970h163v-955h93v-441z" />
    <glyph glyph-name="hardsigncyrillic" unicode="&#x44a;" 
d="M454 162h248q112 0 165 41t53 132v78q0 89 -53 129.5t-165 40.5h-248v-421zM739 0h-463v955h-257v162h435v-376h283q169 0 265 -87.5t96 -240.5v-78q0 -156 -95.5 -245.5t-263.5 -89.5z" />
    <glyph glyph-name="yericyrillic" unicode="&#x44b;" 
d="M315 156h111q95 0 138 42t43 137v76q0 91 -43 133t-138 42h-111v-430zM918 0v1117h164v-1117h-164zM151 0v1117h164v-378h143q147 0 230 -87.5t83 -243.5v-71q0 -158 -82 -247.5t-229 -89.5h-309z" />
    <glyph glyph-name="softsigncyrillic" unicode="&#x44c;" 
d="M365 162h331q115 0 167.5 41t52.5 132v78q0 89 -52 129.5t-168 40.5h-331v-421zM184 0v1117h181v-376h367q173 0 269 -86.5t96 -241.5v-78q0 -156 -96 -245.5t-267 -89.5h-550z" />
    <glyph glyph-name="ereversedcyrillic" unicode="&#x44d;" 
d="M1046 398q0 -417 -454 -417q-205 0 -309 87t-117 265l175 11q6 -106 65.5 -153.5t193.5 -47.5t201 60.5t67 187.5v114h-382v145h382v71q0 130 -66 191.5t-200 61.5t-194 -55t-67 -180l-175 11q26 386 428 386q227 0 339.5 -107t112.5 -312v-319z" />
    <glyph glyph-name="iucyrillic" unicode="&#x44e;" 
d="M781 145q92 0 132 50.5t40 165.5v387q0 119 -40 171.5t-132 52.5t-133 -52t-41 -172v-387q0 -115 41 -165.5t133 -50.5zM782 -19q-173 0 -254 100.5t-81 279.5v183h-151v-544h-177v1117h177v-411h151v42q0 181 82 284.5t254 103.5t251 -105.5t79 -282.5v-387
q0 -173 -79 -276.5t-252 -103.5z" />
    <glyph glyph-name="iacyrillic" unicode="&#x44f;" 
d="M868 395h-161l-318 -395h-220l321 397q-147 9 -224.5 94.5t-77.5 242.5v39q0 168 87.5 256t253.5 88h517v-1117h-178v395zM534 553h334v400h-334q-88 0 -126.5 -40t-38.5 -131v-41q0 -97 38.5 -142.5t126.5 -45.5z" />
    <glyph glyph-name="iegravecyrillic" unicode="&#x450;" 
d="M616 981q-251 0 -251 -264v-56h503v39q0 147 -64 214t-188 67zM186 393v326q0 209 120 313t313 104t310 -106t117 -326v-181h-681v-130q0 -138 62 -198q62 -59 187 -59t180 38t85 122l173 -52q-47 -138 -143 -200t-295 -62q-200 0 -314 104t-114 307zM618 1303l-337 373
h266l229 -373h-158z" />
    <glyph glyph-name="iocyrillic" unicode="&#x451;" 
d="M616 981q-251 0 -251 -264v-56h503v39q0 147 -64 214t-188 67zM186 393v326q0 209 120 313t313 104t310 -106t117 -326v-181h-681v-130q0 -138 62 -198q62 -59 187 -59t180 38t85 122l173 -52q-47 -138 -143 -200t-295 -62q-200 0 -314 104t-114 307zM814 1324
q-52 0 -82 22t-30 82v13q0 61 31 85t83 23q52 0 83 -23q32 -23 32 -85v-13q0 -60 -33 -82t-84 -22zM534 1428q0 -60 -32 -82t-82 -22q-51 0 -83 22t-32 82v13q0 61 32 85t84 23q52 0 83 -23t30 -85v-13z" />
    <glyph glyph-name="djecyrillic" unicode="&#x452;" 
d="M417 853q87 191 333 191q128 0 212 -88t84 -237v-730q0 -192 -99.5 -284t-248.5 -92q-95 0 -220 41l36 175q104 -41 180 -41q77 0 125.5 52t48.5 173v663q0 99 -52.5 148t-145.5 49q-159 0 -305 -184v-689h-179v1177h-171v147h171v165h179v-165h339v-147h-339v-324h52z
" />
    <glyph glyph-name="gjecyrillic" unicode="&#x453;" 
d="M270 0v1117h791v-162h-610v-955h-181zM540 1303l231 373h264l-335 -373h-160z" />
    <glyph glyph-name="ecyrillic" unicode="&#x454;" 
d="M365 391q0 -246 267 -246q131 0 191.5 46.5t66.5 152.5l177 -11q-13 -179 -118.5 -265.5t-320.5 -86.5t-328.5 106.5t-113.5 310.5v319q0 205 113 312t327 107t321 -96t120 -290l-177 -11q-7 123 -67 178t-191 55q-267 0 -267 -251v-71h383v-145h-383v-114z" />
    <glyph glyph-name="dzecyrillic" unicode="&#x455;" 
d="M367 820q0 -83 63 -118t250 -65q186 -30 282 -108t96 -216q0 -168 -126 -250t-278 -82q-306 0 -499 159l76 143q178 -138 402 -140q97 0 171 32q74 31 74 119t-64 122t-250 64t-281 104t-95 228t115 239t256 85q264 0 463 -160l-76 -144q-182 142 -365 142
q-89 0 -151 -36t-63 -118z" />
    <glyph glyph-name="icyrillic.salt_serifs" unicode="&#xe02e;" 
d="M707 162h371v-162h-551v955h-372v162h552v-955zM615 1322q-66 0 -107 22t-41 82v13q0 61 41 85t108 23q67 0 108 -23t41 -85v-13q0 -60 -42 -82t-108 -22z" />
    <glyph glyph-name="icyrillic.salt_serifs" unicode="&#x456;" 
d="M707 162h371v-162h-551v955h-372v162h552v-955zM615 1322q-66 0 -107 22t-41 82v13q0 61 41 85t108 23q67 0 108 -23t41 -85v-13q0 -60 -42 -82t-108 -22z" />
    <glyph glyph-name="yicyrillic.salt_serifs" unicode="&#xe02f;" 
d="M707 162h371v-162h-551v955h-372v162h552v-955zM888 1428q0 -60 -32 -82t-84 -22q-51 0 -82 22t-31 82v13q0 61 31 85t83 23q51 0 83 -23t32 -85v-13zM377 1324q-51 0 -83 22t-31 82v13q0 61 31 85q32 23 84 23t83 -23t31 -85v-13q0 -60 -32 -82t-83 -22z" />
    <glyph glyph-name="yicyrillic.salt_serifs" unicode="&#x457;" 
d="M707 162h371v-162h-551v955h-372v162h552v-955zM888 1428q0 -60 -32 -82t-84 -22q-51 0 -82 22t-31 82v13q0 61 31 85t83 23q51 0 83 -23t32 -85v-13zM377 1324q-51 0 -83 22t-31 82v13q0 61 31 85q32 23 84 23t83 -23t31 -85v-13q0 -60 -32 -82t-83 -22z" />
    <glyph glyph-name="jecyrillic" unicode="&#x458;" 
d="M449 -212q247 0 247 225v942h-476v162h657v-1128q0 -192 -121 -284t-284 -92t-286 41l34 175q108 -41 229 -41zM779 1324q-66 0 -107 22t-41 82v13q0 61 41 85t108 23q67 0 108 -23t41 -85v-13q0 -60 -42 -82t-108 -22z" />
    <glyph glyph-name="ljecyrillic" unicode="&#x459;" 
d="M966 328v93q0 86 -35 126.5t-110 40.5h-106v-432h106q145 4 145 172zM119 164q33 0 56.5 28t25.5 98l21 827h493v-376h141q128 0 201 -85.5t73 -234.5v-114q0 -145 -72.5 -226t-199.5 -81h-305v953h-173l-15 -683q-4 -145 -72 -215t-168 -70q-63 0 -123 22l35 175
q49 -18 82 -18z" />
    <glyph glyph-name="njecyrillic" unicode="&#x45a;" 
d="M281 568v-568h-162v1117h162v-393h255v393h164v-378h140q128 0 200.5 -85.5t72.5 -236.5v-108q0 -145 -72.5 -227t-198.5 -82h-306v568h-255zM951 421q0 165 -147 165h-104v-430h104q147 0 147 151v114z" />
    <glyph glyph-name="tshecyrillic" unicode="&#x45b;" 
d="M670 873q-159 0 -305 -192v-681h-179v1177h-171v147h171v165h179v-165h339v-147h-339v-330h52q35 91 121 144t194 53q145 0 230 -90t84 -243v-711h-178v670q0 203 -198 203z" />
    <glyph glyph-name="kjecyrillic" unicode="&#x45c;" 
d="M447 510v-510h-181v1117h181v-454h85l326 454h216l-400 -519l395 -598h-205l-332 510h-85zM527 1303l231 373h264l-335 -373h-160z" />
    <glyph glyph-name="igravecyrillic" unicode="&#x45d;" 
d="M877 0v894l-458 -894h-233v1117h170v-910l469 910h221v-1117h-169zM618 1303l-337 373h266l229 -373h-158z" />
    <glyph glyph-name="ushortcyrillic" unicode="&#x45e;" 
d="M320 -384q-66 0 -173 21l30 162q101 -24 172 -23q164 2 224 220h-74l-359 1121h195l285 -966l283 966h188l-367 -1156q-58 -185 -161 -265t-243 -80zM616 1290q-151 0 -258 83t-109 286l177 18q2 -132 43 -188q41 -55 147 -55t147 56t43 187l177 -18q-2 -203 -109 -286
t-258 -83z" />
    <glyph glyph-name="dzhecyrillic" unicode="&#x45f;" 
d="M531 -279v279h-345v1117h179v-955h503v955h178v-1117h-342v-279h-173z" />
    <glyph glyph-name="Gheupturncyrillic" unicode="&#x490;" 
d="M190 0v1489h711v280h181v-442h-711v-1327h-181z" />
    <glyph glyph-name="gheupturncyrillic" unicode="&#x491;" 
d="M270 0v1117h620v279h171v-441h-610v-955h-181z" />
    <glyph glyph-name="Wgrave" unicode="&#x1e80;" 
d="M814 0l-198 894l-195 -894h-179l-184 1489h177l119 -1212l175 840h182l175 -840l121 1212h168l-185 -1489h-176zM633 1676l-337 372h266l229 -372h-158z" />
    <glyph glyph-name="wgrave" unicode="&#x1e81;" 
d="M765 0l-149 730l-143 -730h-199l-192 1117h171l127 -974l132 790h201l145 -760l121 944h172l-192 -1117h-194zM616 1303l-337 373h267l229 -373h-159z" />
    <glyph glyph-name="Wacute" unicode="&#x1e82;" 
d="M814 0l-198 894l-195 -894h-179l-184 1489h177l119 -1212l175 840h182l175 -840l121 1212h168l-185 -1489h-176zM436 1676l231 372h264l-335 -372h-160z" />
    <glyph glyph-name="wacute" unicode="&#x1e83;" 
d="M765 0l-149 730l-143 -730h-199l-192 1117h171l127 -974l132 790h201l145 -760l121 944h172l-192 -1117h-194zM424 1303l231 373h265l-335 -373h-161z" />
    <glyph glyph-name="Wdieresis" unicode="&#x1e84;" 
d="M814 0l-198 894l-195 -894h-179l-184 1489h177l119 -1212l175 840h182l175 -840l121 1212h168l-185 -1489h-176zM814 1696q-52 0 -82 22t-30 82v13q0 61 31 85t83 23q52 0 83 -23q32 -23 32 -85v-13q0 -60 -33 -82t-84 -22zM534 1800q0 -60 -32 -82t-82 -22q-51 0 -83 22
t-32 82v13q0 61 32 85t84 23q52 0 83 -23t30 -85v-13z" />
    <glyph glyph-name="wdieresis" unicode="&#x1e85;" 
d="M765 0l-149 730l-143 -730h-199l-192 1117h171l127 -974l132 790h201l145 -760l121 944h172l-192 -1117h-194zM814 1324q-52 0 -82 22t-30 82v13q0 61 31 85t83 23q52 0 83 -23q32 -23 32 -85v-13q0 -60 -33 -82t-84 -22zM534 1428q0 -60 -32 -82t-82 -22q-51 0 -83 22
t-32 82v13q0 61 32 85t84 23q52 0 83 -23t30 -85v-13z" />
    <glyph glyph-name="Ygrave" unicode="&#x1ef2;" 
d="M707 0h-180v559l-484 930h199l384 -761l366 761h196l-481 -930v-559zM616 1676l-337 372h267l229 -372h-159z" />
    <glyph glyph-name="ygrave" unicode="&#x1ef3;" 
d="M320 -384q-66 0 -173 21l30 162q101 -24 172 -23q164 2 224 220h-74l-359 1121h195l285 -966l283 966h188l-367 -1156q-58 -185 -161 -265t-243 -80zM616 1303l-337 373h267l229 -373h-159z" />
    <glyph glyph-name="uni2000" unicode="&#x2000;" 
 />
    <glyph glyph-name="uni2001" unicode="&#x2001;" 
 />
    <glyph glyph-name="uni2002" unicode="&#x2002;" 
 />
    <glyph glyph-name="uni2003" unicode="&#x2003;" 
 />
    <glyph glyph-name="uni2004" unicode="&#x2004;" 
 />
    <glyph glyph-name="uni2005" unicode="&#x2005;" 
 />
    <glyph glyph-name="uni2007" unicode="&#x2007;" 
 />
    <glyph glyph-name="uni2009" unicode="&#x2009;" 
 />
    <glyph glyph-name="uni200A" unicode="&#x200a;" 
 />
    <glyph glyph-name="uni200B" unicode="&#x200b;" horiz-adv-x="0" 
 />
    <glyph glyph-name="endash" unicode="&#x2013;" 
d="M184 562v179h864v-179h-864z" />
    <glyph glyph-name="emdash" unicode="&#x2014;" 
d="M19 562v179h1195v-179h-1195z" />
    <glyph glyph-name="horizontalbar" unicode="&#x2015;" 
d="M19 562v179h1195v-179h-1195z" />
    <glyph glyph-name="underscoredbl" unicode="&#x2017;" 
d="M138 0v179h957v-179h-957zM138 -363v179h957v-179h-957z" />
    <glyph glyph-name="quoteright" unicode="&#x2019;" 
d="M341 750l186 739h348l-387 -739h-147z" />
    <glyph glyph-name="quotesinglbase" unicode="&#x201a;" 
d="M367 -378l152 741h349l-354 -741h-147z" />
    <glyph glyph-name="quotereversed" unicode="&#x201b;" 
d="M702 750l-387 739h350l186 -739h-149z" />
    <glyph glyph-name="quotedblleft" unicode="&#x201c;" 
d="M97 750l387 739h132l-186 -739h-333zM618 750l387 739h133l-187 -739h-333z" />
    <glyph glyph-name="quotedblright" unicode="&#x201d;" 
d="M95 750l186 739h333l-387 -739h-132zM616 750l186 739h332l-386 -739h-132z" />
    <glyph glyph-name="quotedblbase" unicode="&#x201e;" 
d="M-28 -376l186 739h334l-388 -739h-132zM493 -376l187 739h331l-385 -739h-133z" />
    <glyph glyph-name="dagger" unicode="&#x2020;" 
d="M527 -372v1327h-168l-67 -391h-141l50 553h322l-11 372h209l-12 -372h322l51 -553h-142l-67 391h-167v-1327h-179z" />
    <glyph glyph-name="daggerdbl" unicode="&#x2021;" 
d="M527 162v793h-168l-69 -262h-141l52 424h322l-11 372h209l-12 -372h322l53 -424h-142l-69 262h-167v-793h167l69 262h142l-53 -424h-322l12 -372h-209l11 372h-322l-52 424h141l69 -262h168z" />
    <glyph glyph-name="bullet" unicode="&#x2022;" 
d="M616 439q-126 0 -205.5 57t-79.5 178v134q0 123 79.5 181.5t208 58.5t206.5 -58.5t78 -181.5v-134q0 -121 -80.5 -178t-206.5 -57z" />
    <glyph glyph-name="ellipsis" unicode="&#x2026;" 
d="M208 -17q-54 0 -88 38.5t-34 118.5v80q0 82 35 121t89 39t87 -39t33 -121v-80q0 -80 -34 -118.5t-88 -38.5zM615 -17q-53 0 -87.5 38.5t-34.5 118.5v80q0 82 34.5 121t89.5 39t88.5 -39t33.5 -121v-80q0 -80 -35.5 -118.5t-88.5 -38.5zM1023 -17q-53 0 -86.5 38.5
t-33.5 118.5v80q0 82 33.5 121t88.5 39t88.5 -39t33.5 -121v-80q0 -80 -35.5 -118.5t-88.5 -38.5z" />
    <glyph glyph-name="perthousand" unicode="&#x2030;" 
d="M1041 400q0 121 -62.5 121t-62.5 -121v-195q0 -116 62.5 -116t62.5 116v195zM771 400q0 121 -62.5 121t-62.5 -121v-195q0 -116 62.5 -116t62.5 116v195zM987 650q95 0 147 -67t52 -205v-151q0 -136 -53 -202t-146 -66t-144 93q-47 -93 -142 -93q-94 0 -147 66t-53 202
v151q0 138 53 205t148 67t143 -93q47 93 142 93zM1134 1126l-1019 -830l-83 108l1014 832zM424 1257q0 124 -64 124t-89 -30.5t-25 -93.5v-138q0 -129 89 -129t89 129v138zM337 847q-112 0 -181.5 68t-69.5 208v130q0 140 69.5 207t181.5 67t180.5 -67t68.5 -207v-130
q0 -140 -68.5 -208t-180.5 -68z" />
    <glyph glyph-name="minute" unicode="&#x2032;" 
d="M350 750l186 739h348l-387 -739h-147z" />
    <glyph glyph-name="second" unicode="&#x2033;" 
d="M-76 750l186 739h333l-387 -739h-132zM445 750l186 739h332l-386 -739h-132z" />
    <glyph glyph-name="guilsinglleft" unicode="&#x2039;" 
d="M877 194l-521 370v175l521 371v-170l-408 -288l408 -289v-169z" />
    <glyph glyph-name="guilsinglright" unicode="&#x203a;" 
d="M356 194v169l407 289l-407 288v170l521 -371v-175z" />
    <glyph glyph-name="exclamdbl" unicode="&#x203c;" 
d="M542 138q0 -157 -167.5 -157t-167.5 157v52q0 84 40 122t149 38t127.5 -59.5t18.5 -100.5v-52zM903.5 -19q-126.5 0 -157.5 29q-52 49 -52 128v52q0 123 62.5 141.5t168 18.5t105.5 -160v-52q0 -157 -126.5 -157zM302 559l-51 930h244l-50 -930h-143zM789 559l-52 930
h246l-52 -930h-142z" />
    <glyph glyph-name="overline" unicode="&#x203e;" 
d="M138 1683v179h957v-179h-957z" />
    <glyph glyph-name="fraction" unicode="&#x2215;" 
d="M186 0l683 1489h177l-683 -1489h-177z" />
    <glyph glyph-name="fraction" unicode="&#x2044;" 
d="M186 0l683 1489h177l-683 -1489h-177z" />
    <glyph glyph-name="zero.sups" unicode="&#x2070;" 
d="M615 681q103 0 147 66.5t44 224.5v106q0 162 -43 229t-147 67t-147 -67t-43 -229v-106q0 -158 43 -224.5t146 -66.5zM617 555q-176 0 -263.5 107t-87.5 295v136q0 192 88.5 300t263.5 108t261.5 -108t86.5 -300v-136q0 -188 -86.5 -295t-262.5 -107z" />
    <glyph glyph-name="four.sups" unicode="&#x2074;" 
d="M1015 801h-159v-235h-160v235h-435v128l387 560h208v-560h159v-128zM696 929v423l-296 -423h296z" />
    <glyph glyph-name="five.sups" unicode="&#x2075;" 
d="M659 1154q304 0 304 -255v-89q0 -112 -85.5 -183.5t-267.5 -71.5t-262 59.5t-87 221.5l160 11q7 -101 46 -133.5t146 -32.5t147.5 33.5t40.5 114.5v48q0 78 -40 109.5t-141 31.5h-328v471h633v-126h-473v-209h207z" />
    <glyph glyph-name="six.sups" unicode="&#x2076;" 
d="M615 683q107 0 145.5 46.5t38.5 115.5v15q0 73 -40 119.5t-142.5 46.5t-143.5 -46.5t-41 -119.5v-15q0 -74 38 -118t145 -44zM661 1145q302 0 302 -276v-24q0 -130 -83 -209t-263 -79t-262.5 86.5t-82.5 242.5v279q0 158 82 247.5t255 89.5t247.5 -55.5t94.5 -169.5
l-169 -28q-13 73 -48.5 99t-133.5 26t-133 -54t-35 -155v-106h9q71 86 220 86z" />
    <glyph glyph-name="seven.sups" unicode="&#x2077;" 
d="M272 1352v137h691v-137q-140 -261 -206 -409t-102 -377h-171q54 266 119 416t198 370h-529z" />
    <glyph glyph-name="eight.sups" unicode="&#x2078;" 
d="M616.5 685q117.5 0 151 35.5t33.5 106.5v15q0 67 -33 105t-152 38t-151.5 -38t-32.5 -105v-15q0 -71 33.5 -106.5t151 -35.5zM617 1115q87 0 125 26t38 90v26q0 63 -38 88t-125 25t-126 -25t-39 -88v-26q0 -63 39 -89.5t126 -26.5zM617 555q-193 0 -269 66t-76 189v26
q0 86 45.5 139t125.5 60v34q-63 7 -107 51t-44 116v37q0 119 83 173.5t241.5 54.5t241 -53t82.5 -175v-37q0 -73 -43.5 -116.5t-107.5 -50.5v-34q82 -7 128 -62t46 -137v-26q0 -125 -76.5 -190t-269.5 -65z" />
    <glyph glyph-name="nine.sups" unicode="&#x2079;" 
d="M569 912q-297 0 -297 276v24q0 128 83 208.5t261.5 80.5t262.5 -87t84 -243v-279q0 -158 -82.5 -247.5t-255.5 -89.5t-248 55t-96 170l171 28q13 -73 48.5 -100t134.5 -27t132.5 54t33.5 157v104h-10q-64 -84 -222 -84zM434 1197q0 -166 184 -166q102 0 142.5 47
t40.5 119v15q0 74 -38.5 118t-144.5 44t-145 -46.5t-39 -115.5v-15z" />
    <glyph glyph-name="nsuperior" unicode="&#x207f;" 
d="M698 1508q116 0 188 -80q77 -77 77 -220v-644h-149v611q0 143 -60.5 167.5t-108.5 24.5t-116 -41q-47 -33 -108 -110v-652h-151v929h151v-141h43q66 156 234 156z" />
    <glyph glyph-name="zero.sinf" unicode="&#x2080;" 
d="M426 406q0 -158 43 -224t146 -67q103 1 147 67t44 224v106q0 162 -44 229t-147 67t-146 -67t-43 -229v-106zM966 391q0 -188 -86 -295t-263 -107q-175 0 -263 107t-88 295v136q0 192 88 300t264 108q175 0 262 -108t86 -300v-136z" />
    <glyph glyph-name="one.sinf" unicode="&#x2081;" 
d="M357 0v132h233v598h-26q-20 -74 -82 -119t-138 -47l-9 136q86 4 161 60t98 163h156v-791h213v-132h-606z" />
    <glyph glyph-name="two.sinf" unicode="&#x2082;" 
d="M616 935q335 0 335 -252v-65q0 -192 -195 -233l-209 -46q-51 -11 -83 -39t-32 -106v-62h531v-132h-691v192q0 230 199 273l209 47q60 13 86 42t25 86v38q0 58 -36 94q-37 36 -139 36t-135 -40t-38 -135l-162 13q7 145 81 217t254 72z" />
    <glyph glyph-name="three.sinf" unicode="&#x2083;" 
d="M608 -11q-182 0 -261 68t-86 202l160 11q7 -84 41 -118t150 -34q114 0 151 36t38 101v30q-1 69 -37 103t-142 33h-149v130h149q88 1 123 21t35 81v40q0 63 -46 88q-47 25 -130 25t-119 -31t-42 -101l-162 11q9 134 87 192t234 58q156 1 247 -51t91 -182v-30
q0 -74 -44 -116t-116 -50v-33q80 -7 131 -61t52 -135v-26q0 -134 -86 -198q-87 -64 -269 -64z" />
    <glyph glyph-name="four.sinf" unicode="&#x2084;" 
d="M1015 235h-159v-235h-160v235h-435v128l387 560h208v-560h159v-128zM696 363v423l-296 -423h296z" />
    <glyph glyph-name="five.sinf" unicode="&#x2085;" 
d="M659 588q302 0 304 -255v-89q0 -112 -85 -184q-86 -72 -268 -71q-182 -1 -262 59t-87 222l160 11q7 -101 46 -133t146 -33q107 0 148 34q40 34 40 114v48q0 78 -40 110t-141 31h-328v471h633v-126h-473v-209h207z" />
    <glyph glyph-name="six.sinf" unicode="&#x2086;" 
d="M615 117q107 0 146 47q38 47 38 115v15q0 74 -40 120q-41 46 -143 46t-143 -47t-41 -119v-15q0 -74 38 -118t145 -44zM667 579q156 0 226 -74t70 -202v-24q0 -130 -83 -209t-263 -79q-181 1 -263 87t-82 242v280q0 158 82 247t255 89t247 -56t95 -169l-169 -28
q-13 73 -48 99t-134 26q-100 0 -134 -54t-34 -154v-107h9q70 86 226 86z" />
    <glyph glyph-name="seven.sinf" unicode="&#x2087;" 
d="M272 786v137h691v-137q-140 -261 -206 -409t-102 -377h-171q54 266 119 416t198 370h-529z" />
    <glyph glyph-name="eight.sinf" unicode="&#x2088;" 
d="M616 119q117 -1 151 35t34 107v15q0 67 -33 105t-152 38q-120 0 -152 -38t-32 -105v-15q0 -71 34 -107t150 -35zM452 665q0 -63 39 -89t126 -27q87 0 125 26t38 90v26q0 63 -38 88t-125 25t-125 -25t-40 -88v-26zM963 244q-1 -125 -77 -190t-269 -65t-269 66t-76 189v26
q0 86 45 139q46 53 126 60v34q-63 7 -107 51t-44 116v37q0 119 83 173t241 55q158 0 241 -53t83 -175v-37q0 -72 -44 -116t-107 -51v-34q82 -7 128 -62t46 -137v-26z" />
    <glyph glyph-name="nine.sinf" unicode="&#x2089;" 
d="M272 622v24q0 128 83 208t261 81q178 0 263 -87q84 -87 84 -243v-279q0 -158 -82 -248q-83 -89 -256 -89t-248 55t-96 170l171 28q12 -73 48 -100t135 -27t133 54t33 157v104h-10q-63 -82 -218 -84q-301 0 -301 276zM434 631q0 -73 40 -119t143 -47q103 0 144 47
q40 47 40 119v15q-1 74 -39 118t-144 44t-145 -47t-39 -115v-15z" />
    <glyph glyph-name="franc" unicode="&#x20a3;" 
d="M702 369h-337v-369h-181v369h-171v165h171v955h898v-162h-717v-400h598v-160h-598v-233h337v-165z" />
    <glyph glyph-name="lira" unicode="&#x20a4;" 
d="M1018.5 35.5q-132.5 -54.5 -209.5 -54.5t-150 32q-25 9 -118 53t-155 55t-114 -26l-157 -112l-100 134l143 92q60 40 104 132q45 93 45 191l-273 19v147h242q-4 9 -8.5 19.5t-9.5 18.5t-11.5 21.5t-10.5 20.5l-33 64q-7 15 -14.5 30.5t-15.5 32.5h-139v147h104l-2 32
q-2 7 -2 10v21q0 184 125 285q127 108 366 108t351 -99q116 -97 126 -307l-180 -18q-12 145 -79 201t-227 56q-233 0 -266 -86t-33 -118v-24q0 -24 1 -31l2 -30h464v-147h-412q19 -42 33 -65q47 -76 64 -142h315v-147h-292v-4q0 -173 -161 -298l23 -29q55 37 113 33
q60 0 137 -32.5t119 -48.5t87 -16q92 0 129.5 57t49.5 204l180 -19q-18 -308 -150.5 -362.5z" />
    <glyph glyph-name="peseta" unicode="&#x20a7;" 
d="M1043 268q-1 63 -27 111q-28 51 -94 143.5t-96 153.5q-29 62 -29 150t15 144h-108v-719q0 -119 43 -119q32 0 70 17l23 37q67 -58 108 -58q95 0 95 140zM1000 989q-65 0 -65 -140q0 -71 31 -125.5t89 -127.5t92 -145q33 -71 33 -157q0 -154 -63 -236q-67 -77 -169 -77
q-61 0 -103 23q-52 -21 -100 -21q-179 0 -179 291v696h-102v-149q0 -300 -205 -300h-50v-521h-138v1489h190q153 0 178 -109.5t25 -189.5v-73h102v372h138v-372h139v-73q54 92 149 92t188 -78l-78 -127q-34 31 -55 44q-21 14 -47 14zM209 665h48q37 0 50 35q19 36 19 125
v357q0 93 -19 125q-13 35 -50 35h-48v-677z" />
    <glyph glyph-name="Euro" unicode="&#x20ac;" 
d="M669 -19q-230 0 -339.5 133.5t-109.5 371.5v7h-170v147h170v205h-170v147h170v6q0 240 110.5 375t340.5 135t330.5 -102.5t111.5 -301.5l-178 -19q-9 134 -59 197.5t-206 63.5t-214.5 -87.5t-58.5 -256.5v-10h338v-147h-338v-205h338v-147h-338v-9q0 -171 58.5 -256
t214.5 -85t205.5 61.5t59.5 192.5l178 -19q-11 -197 -112.5 -297t-331.5 -100z" />
    <glyph glyph-name="careof" unicode="&#x2105;" 
d="M758 238q0 -134 114 -134t113 134v119q0 138 -97 138t-113.5 -51t-16.5 -87v-119zM596 242v112q0 210 108 247.5t170 37.5q127 0 200 -73t73 -212v-112q0 -71 -38.5 -177t-236.5 -106q-132 0 -204 70q-72 71 -72 213zM69 372l1015 857l87 -108l-1016 -857zM246 1132
q0 -142 114.5 -142t114.5 105l160 -15q0 -117 -73 -175t-200 -58t-202 71q-74 74 -74 218v104q0 144 74 216q74 71 203 71q130 0 197 -58q75 -60 75 -173l-160 -15q0 100 -114.5 100t-114.5 -137v-112z" />
    <glyph glyph-name="lsquare" unicode="&#x2113;" 
d="M337 1208q22 147 126 223q104 77 268 77t240 -90t53 -249l-65 -411q-26 -145 -123 -222q-95 -71 -229 -71t-196 79l-26 -159q-21 -160 60.5 -191.5t133.5 -31.5q124 0 270 63l7 -173q-147 -65 -267 -65q-325 0 -363 147t-23 235zM829 1298q-34 48 -119 48t-133.5 -33.5
t-58.5 -98.5l-71 -428q-25 -157 139 -157q171 0 190 125l67 421q12 80 -14 123z" />
    <glyph glyph-name="numero" unicode="&#x2116;" 
d="M894 357q0 153 -126 153t-126 -153v-100q0 -78 31 -111.5t94 -33.5t95 33.5t32 111.5v100zM768 -26q-126 0 -200.5 71.5t-74.5 211.5v100q0 143 74.5 216t200.5 73t200.5 -72.5t74.5 -216.5v-100q0 -140 -74.5 -211.5t-200.5 -71.5zM348 767h-162v722h220l478 -547v547
h162v-722h-219l-479 562v-562z" />
    <glyph glyph-name="uni2117" unicode="&#x2117;" 
d="M547 657h90q65 0 93 31t28 103v69q0 82 -28 118.5t-93 36.5h-90v-358zM387 229v935h252q136 0 206.5 -77.5t70.5 -226.5v-69q0 -136 -70.5 -206.5t-208.5 -70.5h-90v-285h-160zM616.5 -88q232.5 0 330 142.5t97.5 435.5v389q0 292 -97.5 439t-330 147t-330.5 -147
t-98 -439v-387q0 -292 98 -436t330.5 -144zM616.5 -205q-288.5 0 -422 178t-133.5 505v414q0 331 133.5 511t423.5 180t421.5 -180t131.5 -511v-414q0 -328 -133 -505.5t-421.5 -177.5z" />
    <glyph glyph-name="trademark" unicode="&#x2122;" 
d="M549 653v836h196l98 -381l112 381h175v-836h-123l4 686l-125 -430h-91l-127 441l6 -697h-125zM190 653v706h-155v130h430v-130h-137v-706h-138z" />
    <glyph glyph-name="Ohm" unicode="&#x2126;" 
d="M1097 752q0 -336 -220 -413v-175h220v-164h-397v428q124 24 170 105t46 219v225q0 201 -68 285t-232 84t-232 -84t-67 -285v-225q-1 -138 45 -219t170 -105v-428h-396v164h220v175q-220 77 -220 413v225q0 261 121 396t359 135t360 -135t121 -396v-225z" />
    <glyph glyph-name="estimated" unicode="&#x212e;" 
d="M611 1374q-136 0 -231 -97v-476h460v471q-48 45 -101.5 73.5t-127.5 28.5zM609 -22q-238 0 -390 216t-152 557t150.5 553.5t392.5 212.5t393 -239t159 -626h-782v-434q103 -97 230 -97t224 57.5t155 158.5l82 -106q-73 -117 -189.5 -185t-272.5 -68z" />
    <glyph glyph-name="oneeighth" unicode="&#x215b;" 
d="M810 -166v17q0 57 -37 81q-37 25 -147 25t-147 -25q-38 -25 -38 -81v-17q0 -54 35 -79t150 -25q116 0 150 28q34 22 34 76zM789 164v26q0 62 -60.5 69t-163.5 7t-103 -76v-26q0 -41 39 -62q75 -26 181.5 -14t106.5 76zM302 207q0 190 324 190q160 0 242 -46t82 -144v-38
q0 -53 -41 -87t-110 -43v-33q125 -12 149 -70.5t24 -91.5v-26q0 -110 -78 -164t-308.5 -54t-267.5 82.5t-37 135.5v26q0 72 45 111q43 43 126 51v33q-106 13 -128 57.5t-22 72.5v38zM694 503v110l520 37v-185zM19 465v185l543 -37v-110zM324 763v134h233v410h-26
q-17 -71 -79 -118.5t-139 -47.5l-10 136q144 7 195 87.5t62 136.5h159v-604h212v-134h-607z" />
    <glyph glyph-name="threeeighths" unicode="&#x215c;" 
d="M810 -166v17q0 57 -37 81q-37 25 -147 25t-147 -25q-38 -25 -38 -81v-17q0 -54 35 -79t150 -25q116 0 150 28q34 22 34 76zM789 164v26q0 62 -60.5 69t-163.5 7t-103 -76v-26q0 -41 39 -62q75 -26 181.5 -14t106.5 76zM302 207q0 190 324 190q160 0 242 -46t82 -144v-38
q0 -53 -41 -87t-110 -43v-33q125 -12 149 -70.5t24 -91.5v-26q0 -110 -78 -164t-308.5 -54t-267.5 82.5t-37 135.5v26q0 72 45 111q43 43 126 51v33q-106 13 -128 57.5t-22 72.5v38zM694 503v110l520 37v-185zM19 465v185l543 -37v-110zM780 1326q0 55 -126 55.5t-157 -15.5
t-40.5 -34t-13.5 -44l-162 12q8 111 86 163q80 49 239 49t222.5 -29t87.5 -63.5t24 -84.5v-30q0 -66 -44 -102q-38 -36 -116 -45v-33q79 -8 117 -35q66 -46 66 -105v-26q0 -159 -130 -183t-222 -24q-186 0 -265 58q-79 54 -85 175l160 11q8 -67 43 -90t145 -23
q110 -1 142 15t41 30t9 35v29q0 40 -29 55q-49 24 -156 24h-95v132h95q93 1 120 13t35.5 28t8.5 43v39z" />
    <glyph glyph-name="fiveeighths" unicode="&#x215d;" 
d="M810 -166v17q0 57 -37 81q-37 25 -147 25t-147 -25q-38 -25 -38 -81v-17q0 -54 35 -79t150 -25q116 0 150 28q34 22 34 76zM789 164v26q0 62 -60.5 69t-163.5 7t-103 -76v-26q0 -41 39 -62q75 -26 181.5 -14t106.5 76zM302 207q0 190 324 190q160 0 242 -46t82 -144v-38
q0 -53 -41 -87t-110 -43v-33q125 -12 149 -70.5t24 -91.5v-26q0 -110 -78 -164t-308.5 -54t-267.5 82.5t-37 135.5v26q0 72 45 111q43 43 126 51v33q-106 13 -128 57.5t-22 72.5v38zM694 503v110l520 37v-185zM19 465v185l543 -37v-110zM659 1242q304 0 304 -209v-63
q0 -98 -86 -158q-92 -60 -270 -60t-260 49q-81 49 -86 176l160 12q8 -69 45 -88q37 -20 146 -20t149 22q40 18 40 67v48q0 44 -29 60q-50 26 -152 26h-328v397h633v-129h-473v-130h207z" />
    <glyph glyph-name="seveneighths" unicode="&#x215e;" 
d="M810 -166v17q0 57 -37 81q-37 25 -147 25t-147 -25q-38 -25 -38 -81v-17q0 -54 35 -79t150 -25q116 0 150 28q34 22 34 76zM789 164v26q0 62 -60.5 69t-163.5 7t-103 -76v-26q0 -41 39 -62q75 -26 181.5 -14t106.5 76zM302 207q0 190 324 190q160 0 242 -46t82 -144v-38
q0 -53 -41 -87t-110 -43v-33q125 -12 149 -70.5t24 -91.5v-26q0 -110 -78 -164t-308.5 -54t-267.5 82.5t-37 135.5v26q0 72 45 111q43 43 126 51v33q-106 13 -128 57.5t-22 72.5v38zM694 503v110l520 37v-185zM19 465v185l543 -37v-110zM274 1361v140h690v-140
q-249 -281 -307 -598h-171q48 201 101 302q88 166 217 296h-530z" />
    <glyph glyph-name="arrowleft" unicode="&#x2190;" 
d="M622 1344v-512h592v-175h-592v-512h-36l-567 581v37l567 581h36z" />
    <glyph glyph-name="arrowup" unicode="&#x2191;" 
d="M527 6v837h-471v38l544 603h33l544 -603v-38h-470v-837h-180z" />
    <glyph glyph-name="arrowright" unicode="&#x2192;" 
d="M613 145v512h-594v175h594v512h33l568 -581v-37l-568 -581h-33z" />
    <glyph glyph-name="arrowdown" unicode="&#x2193;" 
d="M56 646h471v838h180v-838h470v-37l-544 -603h-33l-544 603v37z" />
    <glyph glyph-name="arrowboth" unicode="&#x2194;" 
d="M495 657v-512h-33l-443 581v37l443 581h33v-512h242v512h34l443 -581v-37l-443 -581h-34v512h-242z" />
    <glyph glyph-name="arrowupdn" unicode="&#x2195;" 
d="M56 465h471v559h-471v37l544 609h33l544 -609v-37h-470v-559h470v-37l-544 -609h-33l-544 609v37z" />
    <glyph glyph-name="arrowupdnbse" unicode="&#x21a8;" 
d="M138 -365v179h957v-179h-957zM56 465h471v559h-471v37l544 609h33l544 -609v-37h-470v-559h470v-37l-544 -609h-33l-544 609v37z" />
    <glyph glyph-name="partialdiff" unicode="&#x2202;" 
d="M587 752q-135 0 -177.5 -88.5t-53.5 -149.5l-23 -116q-26 -132 22 -195t184.5 -63t207.5 63q70 68 95 195l22 116q33 181 -54.5 209.5t-222.5 28.5zM171 534q34 178 157 279t290 101q168 0 215.5 -54t56.5 -82h39q30 237 -58 363q-96 141 -372 220l99 140
q331 -98 441 -289q105 -179 41 -523l-52 -278q-39 -216 -175 -325q-126 -105 -332 -105t-309.5 107.5t-64.5 311.5z" />
    <glyph glyph-name="Delta#1" unicode="&#x2206;" 
d="M966 162l-352 1138l-355 -1138h707zM86 0v162l426 1327h195l440 -1327v-162h-1061z" />
    <glyph glyph-name="product" unicode="&#x220f;" 
d="M184 -372v1861h864v-1861h-180v1699h-503v-1699h-181z" />
    <glyph glyph-name="summation" unicode="&#x2211;" 
d="M1082 -210v-162h-948v162l626 793l-626 744v162h948v-162h-751l563 -668v-141l-583 -728h771z" />
    <glyph glyph-name="minus" unicode="&#x2212;" 
d="M138 562v179h957v-179h-957z" />
    <glyph glyph-name="radical" unicode="&#x221a;" 
d="M590 0l-294 760l-195 -38v153l301 56l292 -808l319 1553h167l-368 -1676h-222z" />
    <glyph glyph-name="infinity" unicode="&#x221e;" 
d="M380 1123q-55 0 -87 -92t-32 -290q7 -374 119 -374q67 0 97.5 96t75.5 244q-60 255 -81 309q-42 108 -92 107zM972 748q-7 375 -119 375q-56 0 -87.5 -79.5t-85.5 -268.5q60 -249 80 -301q41 -107 94 -107q54 0 86 93q32 94 32 288zM158 397.5q-56 105.5 -56 348.5
t79 381q79 137 197 137q92 0 156 -93q66 -103 95 -244q74 252 139.5 294.5t113.5 42.5q103 0 175.5 -137.5t72.5 -382.5t-79 -382t-204 -137q-86 0 -143 92q-54 77 -99 238q-24 -80 -75.5 -205t-173.5 -125q-46 0 -94 33.5t-104 139z" />
    <glyph glyph-name="orthogonal" unicode="&#x221f;" 
d="M190 0v1303h181v-1143h707v-160h-888z" />
    <glyph glyph-name="intersection" unicode="&#x2229;" 
d="M186 0v817q0 248 116 378q117 127 315.5 127t313.5 -127q115 -129 115 -378v-817h-180v819q0 178 -62 263q-61 78 -188 78t-188 -78q-61 -83 -61 -263v-819h-181z" />
    <glyph glyph-name="integral" unicode="&#x222b;" 
d="M1061 1305q-90 37 -187 37t-132 -63t-35 -221v-1043q0 -184 -91 -291.5t-237 -107.5q-145 0 -243 45l35 157q101 -38 168 -38t99.5 14t53.5 46q35 63 35 223v1043q0 187 88 292q88 106 236 106t244 -44z" />
    <glyph glyph-name="approxequal" unicode="&#x2248;" 
d="M953 385v174h159v-187q0 -188 -79 -288q-75 -101 -203 -101q-84 -1 -131 35q-77 59 -138 183t-86 151t-43.5 35t-46.5 8q-108 0 -108 -222v-175h-158v186q0 188 80 289q74 100 205 100q88 0 145 -45q58 -45 104 -136q81 -161 111 -196q30 -34 83 -34q106 0 106 223z
M847 907q106 0 106 223v173h159v-186q0 -188 -79 -288q-75 -101 -201 -101q-127 0 -181.5 74.5t-101.5 170.5t-73 123q-26 28 -44.5 35.5t-46.5 7.5q-108 0 -108 -221v-175h-158v186q0 188 80 289q74 100 205 100q88 0 145 -45q58 -45 104 -137q80 -162 104 -188t43 -33.5
t47 -7.5z" />
    <glyph glyph-name="notequal" unicode="&#x2260;" 
d="M1095 356h-481l-82 -356h-175l82 356h-301v182h344l95 413h-439v183h482l80 355h175l-82 -355h302v-183h-343l-95 -413h438v-182z" />
    <glyph glyph-name="equivalence" unicode="&#x2261;" 
d="M138 195v181h957v-181h-957zM138 562v181h957v-181h-957zM138 929v181h957v-181h-957z" />
    <glyph glyph-name="lessequal" unicode="&#x2264;" 
d="M188 0v164h856v-164h-856zM1044 372l-856 470v178l856 469v-171l-705 -387l705 -387v-172z" />
    <glyph glyph-name="greaterequal" unicode="&#x2265;" 
d="M1044 0h-856v164h856v-164zM188 372v172l706 387l-706 387v171l856 -469v-177z" />
    <glyph glyph-name="logicalnotreversed" unicode="&#x2310;" 
d="M130 0v741h972v-179h-795v-562h-177z" />
    <glyph glyph-name="integralbt" unicode="&#x2321;" 
d="M345 -220q68 0 100.5 17t51.5 51q34 61 34 228v1413h180v-1461q-1 -192 -91 -302t-236 -110q-90 0 -155 17t-88 28l34 157q102 -38 170 -38z" />
    <glyph glyph-name="uni23af" unicode="&#x23af;" 
d="M-19 657v175h1270v-175h-1270z" />
    <glyph glyph-name="lighthorzbxd" unicode="&#x2500;" 
d="M-37 652h1307v-187h-1307v187z" />
    <glyph glyph-name="heavyhorzbxd" unicode="&#x2501;" 
d="M-37 745h1307v-373h-1307v373z" />
    <glyph glyph-name="lightvertbxd" unicode="&#x2502;" 
d="M523 1955h186v-2793h-186v2793z" />
    <glyph glyph-name="heavyvertbxd" unicode="&#x2503;" 
d="M430 1955h372v-2793h-372v2793z" />
    <glyph glyph-name="lighttrpldashhorzbxd" unicode="&#x2504;" 
d="M886 652h274v-187h-274v187zM477 652h273v-187h-273v187zM67 652h274v-187h-274v187z" />
    <glyph glyph-name="heavytrpldashhorzbxd" unicode="&#x2505;" 
d="M886 745h274v-373h-274v373zM477 745h273v-373h-273v373zM67 745h274v-373h-274v373z" />
    <glyph glyph-name="lighttrpldashvertbxd" unicode="&#x2506;" 
d="M523 2147h186v-455h-186v455zM523 1465h186v-454h-186v454zM523 784h186v-454h-186v454zM523 102h186v-454h-186v454z" />
    <glyph glyph-name="heavytrpldashvertbxd" unicode="&#x2507;" 
d="M430 2147h372v-455h-372v455zM430 1465h372v-454h-372v454zM430 784h372v-454h-372v454zM430 102h372v-454h-372v454z" />
    <glyph glyph-name="lightquaddashhorzbxd" unicode="&#x2508;" 
d="M959 652h231v-187h-231v187zM652 652h231v-187h-231v187zM344 652h231v-187h-231v187zM37 652h231v-187h-231v187z" />
    <glyph glyph-name="heavyquaddashhorzbxd" unicode="&#x2509;" 
d="M959 745h231v-373h-231v373zM652 745h231v-373h-231v373zM344 745h231v-373h-231v373zM37 745h231v-373h-231v373z" />
    <glyph glyph-name="lightquaddashvertbxd" unicode="&#x250a;" 
d="M523 1519h186v-385h-186v385zM523 1007h186v-385h-186v385zM523 495h186v-385h-186v385zM523 -17h186v-385h-186v385z" />
    <glyph glyph-name="heavyquaddashvertbxd" unicode="&#x250b;" 
d="M430 1519h372v-385h-372v385zM430 1007h372v-385h-372v385zM430 495h372v-385h-372v385zM430 -17h372v-385h-372v385z" />
    <glyph glyph-name="lightdnrightbxd" unicode="&#x250c;" 
d="M523 652h747v-187h-561v-1303h-186v1490z" />
    <glyph glyph-name="dnlightrightheavybxd" unicode="&#x250d;" 
d="M523 745h747v-373h-561v-1210h-186v1583z" />
    <glyph glyph-name="dnheavyrightlightbxd" unicode="&#x250e;" 
d="M430 652h840v-187h-468v-1303h-372v1490z" />
    <glyph glyph-name="heavydnrightbxd" unicode="&#x250f;" 
d="M430 745h840v-373h-468v-1210h-372v1583z" />
    <glyph glyph-name="lightdnleftbxd" unicode="&#x2510;" 
d="M-37 652h746v-1490h-186v1303h-560v187z" />
    <glyph glyph-name="dnlightleftheavybxd" unicode="&#x2511;" 
d="M-37 745h746v-1583h-186v1210h-560v373z" />
    <glyph glyph-name="dnheavyleftlightbxd" unicode="&#x2512;" 
d="M-37 652h839v-1490h-372v1303h-467v187z" />
    <glyph glyph-name="heavydnleftbxd" unicode="&#x2513;" 
d="M-37 745h839v-1583h-372v1210h-467v373z" />
    <glyph glyph-name="lightuprightbxd" unicode="&#x2514;" 
d="M523 1955h186v-1303h561v-187h-747v1490z" />
    <glyph glyph-name="uplightrightheavybxd" unicode="&#x2515;" 
d="M523 1955h186v-1210h561v-373h-747v1583z" />
    <glyph glyph-name="upheavyrightlightbxd" unicode="&#x2516;" 
d="M430 1955h372v-1303h468v-187h-840v1490z" />
    <glyph glyph-name="heavyuprightbxd" unicode="&#x2517;" 
d="M430 1955h372v-1210h468v-373h-840v1583z" />
    <glyph glyph-name="lightupleftbxd" unicode="&#x2518;" 
d="M-37 652h560v1303h186v-1490h-746v187z" />
    <glyph glyph-name="uplightleftheavybxd" unicode="&#x2519;" 
d="M-37 745h560v1210h186v-1583h-746v373z" />
    <glyph glyph-name="upheavyleftlightbxd" unicode="&#x251a;" 
d="M-37 652h467v1303h372v-1490h-839v187z" />
    <glyph glyph-name="heavyupleftbxd" unicode="&#x251b;" 
d="M-37 745h467v1210h372v-1583h-839v373z" />
    <glyph glyph-name="lightvertrightbxd" unicode="&#x251c;" 
d="M523 1955h186v-1303h561v-187h-561v-1303h-186v2793z" />
    <glyph glyph-name="vertlightrightheavybxd" unicode="&#x251d;" 
d="M523 1955h186v-1210h561v-373h-561v-1210h-186v2793z" />
    <glyph glyph-name="upheavyrightdnlightbxd" unicode="&#x251e;" 
d="M430 1955h372v-1303h468v-187h-561v-1303h-186v1303h-93v1490z" />
    <glyph glyph-name="dnheavyrightuplightbxd" unicode="&#x251f;" 
d="M430 652h93v1303h186v-1303h561v-187h-468v-1303h-372v1490z" />
    <glyph glyph-name="vertheavyrightlightbxd" unicode="&#x2520;" 
d="M430 1955h372v-1303h468v-187h-468v-1303h-372v2793z" />
    <glyph glyph-name="dnlightrightupheavybxd" unicode="&#x2521;" 
d="M430 1955h372v-1210h468v-373h-561v-1210h-186v1210h-93v1583z" />
    <glyph glyph-name="uplightrightdnheavybxd" unicode="&#x2522;" 
d="M430 745h93v1210h186v-1210h561v-373h-468v-1210h-372v1583z" />
    <glyph glyph-name="heavyvertrightbxd" unicode="&#x2523;" 
d="M430 1955h372v-1210h468v-373h-468v-1210h-372v2793z" />
    <glyph glyph-name="lightvertleftbxd" unicode="&#x2524;" 
d="M-37 652h560v1303h186v-2793h-186v1303h-560v187z" />
    <glyph glyph-name="vertlightleftheavybxd" unicode="&#x2525;" 
d="M-37 745h560v1210h186v-2793h-186v1210h-560v373z" />
    <glyph glyph-name="upheavyleftdnlightbxd" unicode="&#x2526;" 
d="M-37 652h467v1303h372v-1490h-93v-1303h-186v1303h-560v187z" />
    <glyph glyph-name="dnheavyleftuplightbxd" unicode="&#x2527;" 
d="M-37 652h560v1303h186v-1303h93v-1490h-372v1303h-467v187z" />
    <glyph glyph-name="vertheavyleftlightbxd" unicode="&#x2528;" 
d="M-37 652h467v1303h372v-2793h-372v1303h-467v187z" />
    <glyph glyph-name="dnlightleftupheavybxd" unicode="&#x2529;" 
d="M-37 745h467v1210h372v-1583h-93v-1210h-186v1210h-560v373z" />
    <glyph glyph-name="uplightleftdnheavybxd" unicode="&#x252a;" 
d="M-37 745h560v1210h186v-1210h93v-1583h-372v1210h-467v373z" />
    <glyph glyph-name="heavyvertleftbxd" unicode="&#x252b;" 
d="M-37 745h467v1210h372v-2793h-372v1210h-467v373z" />
    <glyph glyph-name="lightdnhorzbxd" unicode="&#x252c;" 
d="M-37 652h1307v-187h-561v-1303h-186v1303h-560v187z" />
    <glyph glyph-name="leftheavyrightdnlightbxd" unicode="&#x252d;" 
d="M-37 745h746v-93h561v-187h-561v-1303h-186v1210h-560v373z" />
    <glyph glyph-name="rightheavyleftdnlightbxd" unicode="&#x252e;" 
d="M-37 652h560v93h747v-373h-561v-1210h-186v1303h-560v187z" />
    <glyph glyph-name="dnlighthorzheavybxd" unicode="&#x252f;" 
d="M-37 745h1307v-373h-561v-1210h-186v1210h-560v373z" />
    <glyph glyph-name="dnheavyhorzlightbxd" unicode="&#x2530;" 
d="M-37 652h1307v-187h-468v-1303h-372v1303h-467v187z" />
    <glyph glyph-name="rightlightleftdnheavybxd" unicode="&#x2531;" 
d="M-37 745h839v-93h468v-187h-468v-1303h-372v1210h-467v373z" />
    <glyph glyph-name="leftlightrightdnheavybxd" unicode="&#x2532;" 
d="M-37 652h467v93h840v-373h-468v-1210h-372v1303h-467v187z" />
    <glyph glyph-name="heavydnhorzbxd" unicode="&#x2533;" 
d="M-37 745h1307v-373h-468v-1210h-372v1210h-467v373z" />
    <glyph glyph-name="lightuphorzbxd" unicode="&#x2534;" 
d="M-37 652h560v1303h186v-1303h561v-187h-1307v187z" />
    <glyph glyph-name="leftheavyrightuplightbxd" unicode="&#x2535;" 
d="M-37 745h560v1210h186v-1303h561v-187h-561v-93h-746v373z" />
    <glyph glyph-name="rightheavyleftuplightbxd" unicode="&#x2536;" 
d="M-37 652h560v1303h186v-1210h561v-373h-747v93h-560v187z" />
    <glyph glyph-name="uplighthorzheavybxd" unicode="&#x2537;" 
d="M-37 745h560v1210h186v-1210h561v-373h-1307v373z" />
    <glyph glyph-name="upheavyhorzlightbxd" unicode="&#x2538;" 
d="M-37 652h467v1303h372v-1303h468v-187h-1307v187z" />
    <glyph glyph-name="rightlightleftupheavybxd" unicode="&#x2539;" 
d="M-37 745h467v1210h372v-1303h468v-187h-468v-93h-839v373z" />
    <glyph glyph-name="leftlightrightupheavybxd" unicode="&#x253a;" 
d="M-37 652h467v1303h372v-1210h468v-373h-840v93h-467v187z" />
    <glyph glyph-name="heavyuphorzbxd" unicode="&#x253b;" 
d="M-37 745h467v1210h372v-1210h468v-373h-1307v373z" />
    <glyph glyph-name="lightverthorzbxd" unicode="&#x253c;" 
d="M-37 652h560v1303h186v-1303h561v-187h-561v-1303h-186v1303h-560v187z" />
    <glyph glyph-name="leftheavyrightvertlightbxd" unicode="&#x253d;" 
d="M-37 745h560v1210h186v-1303h561v-187h-561v-1303h-186v1210h-560v373z" />
    <glyph glyph-name="rightheavyleftvertlightbxd" unicode="&#x253e;" 
d="M-37 652h560v1303h186v-1210h561v-373h-561v-1210h-186v1303h-560v187z" />
    <glyph glyph-name="vertlighthorzheavybxd" unicode="&#x253f;" 
d="M-37 745h560v1210h186v-1210h561v-373h-561v-1210h-186v1210h-560v373z" />
    <glyph glyph-name="upheavydnhorzlightbxd" unicode="&#x2540;" 
d="M-37 652h467v1303h372v-1303h468v-187h-561v-1303h-186v1303h-560v187z" />
    <glyph glyph-name="dnheavyuphorzlightbxd" unicode="&#x2541;" 
d="M-37 652h560v1303h186v-1303h561v-187h-468v-1303h-372v1303h-467v187z" />
    <glyph glyph-name="vertheavyhorzlightbxd" unicode="&#x2542;" 
d="M-37 652h467v1303h372v-1303h468v-187h-468v-1303h-372v1303h-467v187z" />
    <glyph glyph-name="leftupheavyrightdnlightbxd" unicode="&#x2543;" 
d="M-37 745h467v1210h372v-1303h468v-187h-468v-93h-93v-1210h-186v1210h-560v373z" />
    <glyph glyph-name="rightupheavyleftdnlightbxd" unicode="&#x2544;" 
d="M-37 652h467v1303h372v-1210h468v-373h-561v-1210h-186v1210h-93v93h-467v187z" />
    <glyph glyph-name="leftdnheavyrightuplightbxd" unicode="&#x2545;" 
d="M-37 745h560v1210h186v-1210h93v-93h468v-187h-468v-1303h-372v1210h-467v373z" />
    <glyph glyph-name="rightdnheavyleftuplightbxd" unicode="&#x2546;" 
d="M-37 652h467v93h93v1210h186v-1210h561v-373h-468v-1210h-372v1303h-467v187z" />
    <glyph glyph-name="dnlightuphorzheavybxd" unicode="&#x2547;" 
d="M-37 745h467v1210h372v-1210h468v-373h-561v-1210h-186v1210h-560v373z" />
    <glyph glyph-name="uplightdnhorzheavybxd" unicode="&#x2548;" 
d="M-37 745h560v1210h186v-1210h561v-373h-468v-1210h-372v1210h-467v373z" />
    <glyph glyph-name="rightlightleftvertheavybxd" unicode="&#x2549;" 
d="M-37 745h467v1210h372v-1303h468v-187h-468v-1303h-372v1210h-467v373z" />
    <glyph glyph-name="leftlightrightvertheavybxd" unicode="&#x254a;" 
d="M-37 652h467v1303h372v-1210h468v-373h-468v-1210h-372v1303h-467v187z" />
    <glyph glyph-name="heavyverthorzbxd" unicode="&#x254b;" 
d="M-37 745h467v1210h372v-1210h468v-373h-468v-1210h-372v1210h-467v373z" />
    <glyph glyph-name="lightdbldashhorzbxd" unicode="&#x254c;" 
d="M769 652h309v-187h-309v187zM153 652h309v-187h-309v187z" />
    <glyph glyph-name="heavydbldashhorzbxd" unicode="&#x254d;" 
d="M769 745h309v-373h-309v373zM153 745h309v-373h-309v373z" />
    <glyph glyph-name="lightdbldashvertbxd" unicode="&#x254e;" 
d="M523 1326h186v-512h-186v512zM523 302h186v-512h-186v512z" />
    <glyph glyph-name="heavydbldashvertbxd" unicode="&#x254f;" 
d="M430 1326h372v-512h-372v512zM430 302h372v-512h-372v512z" />
    <glyph glyph-name="dblhorzbxd" unicode="&#x2550;" 
d="M-37 465h1307v-186h-1307v186zM-37 838h1307v-186h-1307v186z" />
    <glyph glyph-name="dblvertbxd" unicode="&#x2551;" 
d="M709 1955h187v-2793h-187v2793zM337 1955h186v-2793h-186v2793z" />
    <glyph glyph-name="dnsngrightdblbxd" unicode="&#x2552;" 
d="M523 838h747v-186h-561v-187h561v-186h-561v-1117h-186v1676z" />
    <glyph glyph-name="dndblrightsngbxd" unicode="&#x2553;" 
d="M337 652h933v-187h-374v-1303h-187v1303h-186v-1303h-186v1490z" />
    <glyph glyph-name="dbldnrightbxd" unicode="&#x2554;" 
d="M709 465h561v-186h-374v-1117h-187v1303zM337 838h933v-186h-747v-1490h-186v1676z" />
    <glyph glyph-name="dnsngleftdblbxd" unicode="&#x2555;" 
d="M-37 838h746v-1676h-186v1117h-560v186h560v187h-560v186z" />
    <glyph glyph-name="dndblleftsngbxd" unicode="&#x2556;" 
d="M-37 652h933v-1490h-187v1303h-186v-1303h-186v1303h-374v187z" />
    <glyph glyph-name="dbldnleftbxd" unicode="&#x2557;" 
d="M-37 465h560v-1303h-186v1117h-374v186zM-37 838h933v-1676h-187v1490h-746v186z" />
    <glyph glyph-name="upsngrightdblbxd" unicode="&#x2558;" 
d="M523 1955h186v-1117h561v-186h-561v-187h561v-186h-747v1676z" />
    <glyph glyph-name="updblrightsngbxd" unicode="&#x2559;" 
d="M337 1955h186v-1303h186v1303h187v-1303h374v-187h-933v1490z" />
    <glyph glyph-name="dbluprightbxd" unicode="&#x255a;" 
d="M709 1955h187v-1117h374v-186h-561v1303zM337 1955h186v-1490h747v-186h-933v1676z" />
    <glyph glyph-name="upsngleftdblbxd" unicode="&#x255b;" 
d="M-37 838h560v1117h186v-1676h-746v186h560v187h-560v186z" />
    <glyph glyph-name="updblleftsngbxd" unicode="&#x255c;" 
d="M-37 652h374v1303h186v-1303h186v1303h187v-1490h-933v187z" />
    <glyph glyph-name="dblupleftbxd" unicode="&#x255d;" 
d="M-37 838h374v1117h186v-1303h-560v186zM-37 465h746v1490h187v-1676h-933v186z" />
    <glyph glyph-name="vertsngrightdblbxd" unicode="&#x255e;" 
d="M523 1955h186v-1117h561v-186h-561v-187h561v-186h-561v-1117h-186v2793z" />
    <glyph glyph-name="vertdblrightsngbxd" unicode="&#x255f;" 
d="M337 1955h186v-2793h-186v2793zM709 1955h187v-1303h374v-187h-374v-1303h-187v2793z" />
    <glyph glyph-name="dblvertrightbxd" unicode="&#x2560;" 
d="M709 465h561v-186h-374v-1117h-187v1303zM709 1955h187v-1117h374v-186h-561v1303zM337 1955h186v-2793h-186v2793z" />
    <glyph glyph-name="vertsngleftdblbxd" unicode="&#x2561;" 
d="M-37 838h560v1117h186v-2793h-186v1117h-560v186h560v187h-560v186z" />
    <glyph glyph-name="vertdblleftsngbxd" unicode="&#x2562;" 
d="M709 1955h187v-2793h-187v2793zM-37 652h374v1303h186v-2793h-186v1303h-374v187z" />
    <glyph glyph-name="dblvertleftbxd" unicode="&#x2563;" 
d="M-37 838h374v1117h186v-1303h-560v186zM-37 465h560v-1303h-186v1117h-374v186zM709 1955h187v-2793h-187v2793z" />
    <glyph glyph-name="dnsnghorzdblbxd" unicode="&#x2564;" 
d="M-37 838h1307v-186h-1307v186zM-37 465h1307v-186h-561v-1117h-186v1117h-560v186z" />
    <glyph glyph-name="dndblhorzsngbxd" unicode="&#x2565;" 
d="M-37 652h1307v-187h-374v-1303h-187v1303h-186v-1303h-186v1303h-374v187z" />
    <glyph glyph-name="dbldnhorzbxd" unicode="&#x2566;" 
d="M-37 838h1307v-186h-1307v186zM709 465h561v-186h-374v-1117h-187v1303zM-37 465h560v-1303h-186v1117h-374v186z" />
    <glyph glyph-name="upsnghorzdblbxd" unicode="&#x2567;" 
d="M-37 465h1307v-186h-1307v186zM-37 838h560v1117h186v-1117h561v-186h-1307v186z" />
    <glyph glyph-name="updblhorzsngbxd" unicode="&#x2568;" 
d="M-37 652h374v1303h186v-1303h186v1303h187v-1303h374v-187h-1307v187z" />
    <glyph glyph-name="dbluphorzbxd" unicode="&#x2569;" 
d="M-37 465h1307v-186h-1307v186zM709 1955h187v-1117h374v-186h-561v1303zM-37 838h374v1117h186v-1303h-560v186z" />
    <glyph glyph-name="vertsnghorzdblbxd" unicode="&#x256a;" 
d="M-37 838h560v1117h186v-1117h561v-186h-561v-187h561v-186h-561v-1117h-186v1117h-560v186h560v187h-560v186z" />
    <glyph glyph-name="vertdblhorzsngbxd" unicode="&#x256b;" 
d="M-37 652h374v1303h186v-1303h186v1303h187v-1303h374v-187h-374v-1303h-187v1303h-186v-1303h-186v1303h-374v187z" />
    <glyph glyph-name="dblverthorzbxd" unicode="&#x256c;" 
d="M709 465h561v-186h-374v-1117h-187v1303zM709 1955h187v-1117h374v-186h-561v1303zM-37 465h560v-1303h-186v1117h-374v186zM-37 838h374v1117h186v-1303h-560v186z" />
    <glyph glyph-name="lightarcdnrightbxd" unicode="&#x256d;" 
d="M523 -58q0 148 56 276t152 225t225 153t277 56h37v-187h-37q-215 0 -370 -153q-154 -154 -154 -370v-780h-186v780z" />
    <glyph glyph-name="lightarcdnleftbxd" unicode="&#x256e;" 
d="M709 -838h-186v780q0 215 -153 369t-370 154h-37v187h37q148 0 276 -56t225 -153q208 -208 208 -501v-780z" />
    <glyph glyph-name="lightarcupleftbxd" unicode="&#x256f;" 
d="M709 1175q0 -147 -56 -277q-57 -130 -153 -225q-96 -96 -224 -152t-276 -56h-37v187h37q215 0 370 153q153 153 153 370v780h186v-780z" />
    <glyph glyph-name="lightarcuprightbxd" unicode="&#x2570;" 
d="M523 1955h186v-780q-1 -215 153 -369t371 -154h37v-187h-37q-147 0 -277 56t-225 152q-96 96 -152 225t-56 277v780z" />
    <glyph glyph-name="lightdiaguprightdnleftbxd" unicode="&#x2571;" 
d="M1233 1583v-181l-1125 -1867h-108v180l1125 1868h108z" />
    <glyph glyph-name="lightdiagupleftdnrightbxd" unicode="&#x2572;" 
d="M1233 -465h-108l-1125 1867v181h108l1125 -1868v-180z" />
    <glyph glyph-name="lightdiagcrossbxd" unicode="&#x2573;" 
d="M0 1583h108l508 -846l509 846h108v-181l-509 -843l509 -844v-180h-108l-509 843l-508 -843h-108v180l508 844l-508 843v181z" />
    <glyph glyph-name="lightleftbxd" unicode="&#x2574;" 
d="M-37 652h746v-187h-746v187z" />
    <glyph glyph-name="lightupbxd" unicode="&#x2575;" 
d="M523 1955h186v-1490h-186v1490z" />
    <glyph glyph-name="lightrightbxd" unicode="&#x2576;" 
d="M523 652h747v-187h-747v187z" />
    <glyph glyph-name="lightdnbxd" unicode="&#x2577;" 
d="M523 652h186v-1490h-186v1490z" />
    <glyph glyph-name="heavyleftbxd" unicode="&#x2578;" 
d="M-37 745h746v-373h-746v373z" />
    <glyph glyph-name="heavyupbxd" unicode="&#x2579;" 
d="M430 1955h372v-1490h-372v1490z" />
    <glyph glyph-name="heavyrightbxd" unicode="&#x257a;" 
d="M523 745h747v-373h-747v373z" />
    <glyph glyph-name="heavydnbxd" unicode="&#x257b;" 
d="M430 652h372v-1490h-372v1490z" />
    <glyph glyph-name="lightleftheavyrightbxd" unicode="&#x257c;" 
d="M-37 652h560v93h747v-373h-747v93h-560v187z" />
    <glyph glyph-name="lightupheavydnbxd" unicode="&#x257d;" 
d="M430 652h93v1303h186v-1303h93v-1490h-372v1490z" />
    <glyph glyph-name="heavyleftlightrightbxd" unicode="&#x257e;" 
d="M-37 745h746v-93h561v-187h-561v-93h-746v373z" />
    <glyph glyph-name="heavyuplightdnbxd" unicode="&#x257f;" 
d="M430 1955h372v-1490h-93v-1303h-186v1303h-93v1490z" />
    <glyph glyph-name="uphalfblock" unicode="&#x2580;" 
d="M0 1583h1233v-1024h-1233v1024z" />
    <glyph glyph-name="dneighthblock" unicode="&#x2581;" 
d="M0 -210h1233v-255h-1233v255z" />
    <glyph glyph-name="dnquarterblock" unicode="&#x2582;" 
d="M0 47h1233v-512h-1233v512z" />
    <glyph glyph-name="dnthreeeighthsblock" unicode="&#x2583;" 
d="M0 302h1233v-767h-1233v767z" />
    <glyph glyph-name="dnhalfblock" unicode="&#x2584;" 
d="M0 559h1233v-1024h-1233v1024z" />
    <glyph glyph-name="dnfiveeighthsblock" unicode="&#x2585;" 
d="M0 814h1233v-1279h-1233v1279z" />
    <glyph glyph-name="dnthreequartersblock" unicode="&#x2586;" 
d="M0 1071h1233v-1536h-1233v1536z" />
    <glyph glyph-name="dnseveneighthsblock" unicode="&#x2587;" 
d="M0 1326h1233v-1791h-1233v1791z" />
    <glyph glyph-name="fullblock" unicode="&#x2588;" 
d="M0 1583h1233v-2048h-1233v2048z" />
    <glyph glyph-name="leftseveneighthsblock" unicode="&#x2589;" 
d="M0 1583h1078v-2048h-1078v2048z" />
    <glyph glyph-name="leftthreequartersblock" unicode="&#x258a;" 
d="M0 1583h923v-2048h-923v2048z" />
    <glyph glyph-name="leftfiveeighthsblock" unicode="&#x258b;" 
d="M0 1583h769v-2048h-769v2048z" />
    <glyph glyph-name="lefthalfblock" unicode="&#x258c;" 
d="M0 1583h616v-2048h-616v2048z" />
    <glyph glyph-name="leftthreeeighthsblock" unicode="&#x258d;" 
d="M0 1583h462v-2048h-462v2048z" />
    <glyph glyph-name="leftquarterblock" unicode="&#x258e;" 
d="M0 1583h307v-2048h-307v2048z" />
    <glyph glyph-name="lefteighthblock" unicode="&#x258f;" 
d="M0 1583h153v-2048h-153v2048z" />
    <glyph glyph-name="righthalfblock" unicode="&#x2590;" 
d="M616 1583h617v-2048h-617v2048z" />
    <glyph glyph-name="lightshade" unicode="&#x2591;" 
d="M1210 1545h37v-56h-37v56zM1117 1452h37v-56h-37v56zM1210 1359h37v-56h-37v56zM1117 1266h37v-56h-37v56zM1210 1173h37v-56h-37v56zM1117 1080h37v-56h-37v56zM1210 987h37v-56h-37v56zM1117 894h37v-56h-37v56zM1210 801h37v-56h-37v56zM1117 707h37v-55h-37v55z
M1210 614h37v-55h-37v55zM1117 521h37v-56h-37v56zM1210 428h37v-56h-37v56zM1117 335h37v-56h-37v56zM1210 242h37v-56h-37v56zM1117 149h37v-56h-37v56zM1210 56h37v-56h-37v56zM1117 -37h37v-56h-37v56zM1210 -130h37v-56h-37v56zM1117 -223h37v-56h-37v56zM1210 -317h37
v-55h-37v55zM1117 -410h37v-55h-37v55zM1024 1545h37v-56h-37v56zM931 1452h37v-56h-37v56zM1024 1359h37v-56h-37v56zM931 1266h37v-56h-37v56zM1024 1173h37v-56h-37v56zM931 1080h37v-56h-37v56zM1024 987h37v-56h-37v56zM931 894h37v-56h-37v56zM1024 801h37v-56h-37v56
zM931 707h37v-55h-37v55zM1024 614h37v-55h-37v55zM931 521h37v-56h-37v56zM1024 428h37v-56h-37v56zM931 335h37v-56h-37v56zM1024 242h37v-56h-37v56zM931 149h37v-56h-37v56zM1024 56h37v-56h-37v56zM931 -37h37v-56h-37v56zM1024 -130h37v-56h-37v56zM931 -223h37v-56
h-37v56zM1024 -317h37v-55h-37v55zM931 -410h37v-55h-37v55zM838 1545h37v-56h-37v56zM745 1452h37v-56h-37v56zM838 1359h37v-56h-37v56zM745 1266h37v-56h-37v56zM838 1173h37v-56h-37v56zM745 1080h37v-56h-37v56zM838 987h37v-56h-37v56zM745 894h37v-56h-37v56z
M838 801h37v-56h-37v56zM745 707h37v-55h-37v55zM838 614h37v-55h-37v55zM745 521h37v-56h-37v56zM838 428h37v-56h-37v56zM745 335h37v-56h-37v56zM838 242h37v-56h-37v56zM745 149h37v-56h-37v56zM838 56h37v-56h-37v56zM745 -37h37v-56h-37v56zM838 -130h37v-56h-37v56z
M745 -223h37v-56h-37v56zM838 -317h37v-55h-37v55zM745 -410h37v-55h-37v55zM652 1545h37v-56h-37v56zM559 1452h37v-56h-37v56zM652 1359h37v-56h-37v56zM559 1266h37v-56h-37v56zM652 1173h37v-56h-37v56zM559 1080h37v-56h-37v56zM652 987h37v-56h-37v56zM559 894h37v-56
h-37v56zM652 801h37v-56h-37v56zM559 707h37v-55h-37v55zM652 614h37v-55h-37v55zM559 521h37v-56h-37v56zM652 428h37v-56h-37v56zM559 335h37v-56h-37v56zM652 242h37v-56h-37v56zM559 149h37v-56h-37v56zM652 56h37v-56h-37v56zM559 -37h37v-56h-37v56zM652 -130h37v-56
h-37v56zM559 -223h37v-56h-37v56zM652 -317h37v-55h-37v55zM559 -410h37v-55h-37v55zM465 1545h38v-56h-38v56zM372 1452h38v-56h-38v56zM465 1359h38v-56h-38v56zM372 1266h38v-56h-38v56zM465 1173h38v-56h-38v56zM372 1080h38v-56h-38v56zM465 987h38v-56h-38v56z
M372 894h38v-56h-38v56zM465 801h38v-56h-38v56zM372 707h38v-55h-38v55zM465 614h38v-55h-38v55zM372 521h38v-56h-38v56zM465 428h38v-56h-38v56zM372 335h38v-56h-38v56zM465 242h38v-56h-38v56zM372 149h38v-56h-38v56zM465 56h38v-56h-38v56zM372 -37h38v-56h-38v56z
M465 -130h38v-56h-38v56zM372 -223h38v-56h-38v56zM465 -317h38v-55h-38v55zM372 -410h38v-55h-38v55zM279 1545h38v-56h-38v56zM186 1452h37v-56h-37v56zM279 1359h38v-56h-38v56zM186 1266h37v-56h-37v56zM279 1173h38v-56h-38v56zM186 1080h37v-56h-37v56zM279 987h38
v-56h-38v56zM186 894h37v-56h-37v56zM279 801h38v-56h-38v56zM186 707h37v-55h-37v55zM279 614h38v-55h-38v55zM186 521h37v-56h-37v56zM279 428h38v-56h-38v56zM186 335h37v-56h-37v56zM279 242h38v-56h-38v56zM186 149h37v-56h-37v56zM279 56h38v-56h-38v56zM186 -37h37
v-56h-37v56zM279 -130h38v-56h-38v56zM186 -223h37v-56h-37v56zM279 -317h38v-55h-38v55zM186 -410h37v-55h-37v55zM93 1545h37v-56h-37v56zM0 1452h37v-56h-37v56zM93 1359h37v-56h-37v56zM0 1266h37v-56h-37v56zM93 1173h37v-56h-37v56zM0 1080h37v-56h-37v56zM93 987h37
v-56h-37v56zM0 894h37v-56h-37v56zM93 801h37v-56h-37v56zM0 707h37v-55h-37v55zM93 614h37v-55h-37v55zM0 521h37v-56h-37v56zM93 428h37v-56h-37v56zM0 335h37v-56h-37v56zM93 242h37v-56h-37v56zM0 149h37v-56h-37v56zM93 56h37v-56h-37v56zM0 -37h37v-56h-37v56z
M93 -130h37v-56h-37v56zM0 -223h37v-56h-37v56zM93 -317h37v-55h-37v55zM0 -410h37v-55h-37v55z" />
    <glyph glyph-name="mediumshade" unicode="&#x2592;" 
d="M1210 1583h75v-94h-75v94zM1117 1489h75v-93h-75v93zM1210 1396h75v-93h-75v93zM1117 1303h75v-93h-75v93zM1210 1210h75v-93h-75v93zM1117 1117h75v-93h-75v93zM1210 1024h75v-93h-75v93zM1117 931h75v-93h-75v93zM1210 838h75v-93h-75v93zM1117 745h75v-93h-75v93z
M1210 652h75v-93h-75v93zM1117 559h75v-94h-75v94zM1210 465h75v-93h-75v93zM1117 372h75v-93h-75v93zM1210 279h75v-93h-75v93zM1117 186h75v-93h-75v93zM1210 93h75v-93h-75v93zM1117 0h75v-93h-75v93zM1210 -93h75v-93h-75v93zM1117 -186h75v-93h-75v93zM1210 -279h75
v-93h-75v93zM1117 -372h75v-93h-75v93zM1024 1583h74v-94h-74v94zM931 1489h74v-93h-74v93zM1024 1396h74v-93h-74v93zM931 1303h74v-93h-74v93zM1024 1210h74v-93h-74v93zM931 1117h74v-93h-74v93zM1024 1024h74v-93h-74v93zM931 931h74v-93h-74v93zM1024 838h74v-93h-74
v93zM931 745h74v-93h-74v93zM1024 652h74v-93h-74v93zM931 559h74v-94h-74v94zM1024 465h74v-93h-74v93zM931 372h74v-93h-74v93zM1024 279h74v-93h-74v93zM931 186h74v-93h-74v93zM1024 93h74v-93h-74v93zM931 0h74v-93h-74v93zM1024 -93h74v-93h-74v93zM931 -186h74v-93
h-74v93zM1024 -279h74v-93h-74v93zM931 -372h74v-93h-74v93zM838 1583h74v-94h-74v94zM745 1489h74v-93h-74v93zM838 1396h74v-93h-74v93zM745 1303h74v-93h-74v93zM838 1210h74v-93h-74v93zM745 1117h74v-93h-74v93zM838 1024h74v-93h-74v93zM745 931h74v-93h-74v93z
M838 838h74v-93h-74v93zM745 745h74v-93h-74v93zM838 652h74v-93h-74v93zM745 559h74v-94h-74v94zM838 465h74v-93h-74v93zM745 372h74v-93h-74v93zM838 279h74v-93h-74v93zM745 186h74v-93h-74v93zM838 93h74v-93h-74v93zM745 0h74v-93h-74v93zM838 -93h74v-93h-74v93z
M745 -186h74v-93h-74v93zM838 -279h74v-93h-74v93zM745 -372h74v-93h-74v93zM652 1583h74v-94h-74v94zM559 1489h74v-93h-74v93zM652 1396h74v-93h-74v93zM559 1303h74v-93h-74v93zM652 1210h74v-93h-74v93zM559 1117h74v-93h-74v93zM652 1024h74v-93h-74v93zM559 931h74
v-93h-74v93zM652 838h74v-93h-74v93zM559 745h74v-93h-74v93zM652 652h74v-93h-74v93zM559 559h74v-94h-74v94zM652 465h74v-93h-74v93zM559 372h74v-93h-74v93zM652 279h74v-93h-74v93zM559 186h74v-93h-74v93zM652 93h74v-93h-74v93zM559 0h74v-93h-74v93zM652 -93h74v-93
h-74v93zM559 -186h74v-93h-74v93zM652 -279h74v-93h-74v93zM559 -372h74v-93h-74v93zM465 1583h75v-94h-75v94zM372 1489h75v-93h-75v93zM465 1396h75v-93h-75v93zM372 1303h75v-93h-75v93zM465 1210h75v-93h-75v93zM372 1117h75v-93h-75v93zM465 1024h75v-93h-75v93z
M372 931h75v-93h-75v93zM465 838h75v-93h-75v93zM372 745h75v-93h-75v93zM465 652h75v-93h-75v93zM372 559h75v-94h-75v94zM465 465h75v-93h-75v93zM372 372h75v-93h-75v93zM465 279h75v-93h-75v93zM372 186h75v-93h-75v93zM465 93h75v-93h-75v93zM372 0h75v-93h-75v93z
M465 -93h75v-93h-75v93zM372 -186h75v-93h-75v93zM465 -279h75v-93h-75v93zM372 -372h75v-93h-75v93zM279 1583h75v-94h-75v94zM186 1489h75v-93h-75v93zM279 1396h75v-93h-75v93zM186 1303h75v-93h-75v93zM279 1210h75v-93h-75v93zM186 1117h75v-93h-75v93zM279 1024h75
v-93h-75v93zM186 931h75v-93h-75v93zM279 838h75v-93h-75v93zM186 745h75v-93h-75v93zM279 652h75v-93h-75v93zM186 559h75v-94h-75v94zM279 465h75v-93h-75v93zM186 372h75v-93h-75v93zM279 279h75v-93h-75v93zM186 186h75v-93h-75v93zM279 93h75v-93h-75v93zM186 0h75v-93
h-75v93zM279 -93h75v-93h-75v93zM186 -186h75v-93h-75v93zM279 -279h75v-93h-75v93zM186 -372h75v-93h-75v93zM93 1583h75v-94h-75v94zM0 1489h74v-93h-74v93zM93 1396h75v-93h-75v93zM0 1303h74v-93h-74v93zM93 1210h75v-93h-75v93zM0 1117h74v-93h-74v93zM93 1024h75v-93
h-75v93zM0 931h74v-93h-74v93zM93 838h75v-93h-75v93zM0 745h74v-93h-74v93zM93 652h75v-93h-75v93zM0 559h74v-94h-74v94zM93 465h75v-93h-75v93zM0 372h74v-93h-74v93zM93 279h75v-93h-75v93zM0 186h74v-93h-74v93zM93 93h75v-93h-75v93zM0 0h74v-93h-74v93zM93 -93h75
v-93h-75v93zM0 -186h74v-93h-74v93zM93 -279h75v-93h-75v93zM0 -372h74v-93h-74v93z" />
    <glyph glyph-name="darkshade" unicode="&#x2593;" 
d="M1210 1610h84v-121h-84v121zM1117 1517h84v-121h-84v121zM1210 1424h84v-121h-84v121zM1117 1331h84v-121h-84v121zM1210 1238h84v-121h-84v121zM1117 1145h84v-121h-84v121zM1210 1052h84v-121h-84v121zM1117 959h84v-121h-84v121zM1210 866h84v-121h-84v121zM1117 773
h84v-121h-84v121zM1210 680h84v-121h-84v121zM1117 586h84v-121h-84v121zM1210 493h84v-121h-84v121zM1117 400h84v-121h-84v121zM1210 307h84v-121h-84v121zM1117 214h84v-121h-84v121zM1210 121h84v-121h-84v121zM1117 28h84v-121h-84v121zM1210 -65h84v-121h-84v121z
M1117 -158h84v-121h-84v121zM1210 -251h84v-121h-84v121zM1117 -344h84v-121h-84v121zM1024 1610h84v-121h-84v121zM931 1517h84v-121h-84v121zM1024 1424h84v-121h-84v121zM931 1331h84v-121h-84v121zM1024 1238h84v-121h-84v121zM931 1145h84v-121h-84v121zM1024 1052h84
v-121h-84v121zM931 959h84v-121h-84v121zM1024 866h84v-121h-84v121zM931 773h84v-121h-84v121zM1024 680h84v-121h-84v121zM931 586h84v-121h-84v121zM1024 493h84v-121h-84v121zM931 400h84v-121h-84v121zM1024 307h84v-121h-84v121zM931 214h84v-121h-84v121zM1024 121
h84v-121h-84v121zM931 28h84v-121h-84v121zM1024 -65h84v-121h-84v121zM931 -158h84v-121h-84v121zM1024 -251h84v-121h-84v121zM931 -344h84v-121h-84v121zM838 1610h84v-121h-84v121zM745 1517h84v-121h-84v121zM838 1424h84v-121h-84v121zM745 1331h84v-121h-84v121z
M838 1238h84v-121h-84v121zM745 1145h84v-121h-84v121zM838 1052h84v-121h-84v121zM745 959h84v-121h-84v121zM838 866h84v-121h-84v121zM745 773h84v-121h-84v121zM838 680h84v-121h-84v121zM745 586h84v-121h-84v121zM838 493h84v-121h-84v121zM745 400h84v-121h-84v121z
M838 307h84v-121h-84v121zM745 214h84v-121h-84v121zM838 121h84v-121h-84v121zM745 28h84v-121h-84v121zM838 -65h84v-121h-84v121zM745 -158h84v-121h-84v121zM838 -251h84v-121h-84v121zM745 -344h84v-121h-84v121zM652 1610h83v-121h-83v121zM559 1517h83v-121h-83v121z
M652 1424h83v-121h-83v121zM559 1331h83v-121h-83v121zM652 1238h83v-121h-83v121zM559 1145h83v-121h-83v121zM652 1052h83v-121h-83v121zM559 959h83v-121h-83v121zM652 866h83v-121h-83v121zM559 773h83v-121h-83v121zM652 680h83v-121h-83v121zM559 586h83v-121h-83v121
zM652 493h83v-121h-83v121zM559 400h83v-121h-83v121zM652 307h83v-121h-83v121zM559 214h83v-121h-83v121zM652 121h83v-121h-83v121zM559 28h83v-121h-83v121zM652 -65h83v-121h-83v121zM559 -158h83v-121h-83v121zM652 -251h83v-121h-83v121zM559 -344h83v-121h-83v121z
M465 1610h84v-121h-84v121zM372 1517h84v-121h-84v121zM465 1424h84v-121h-84v121zM372 1331h84v-121h-84v121zM465 1238h84v-121h-84v121zM372 1145h84v-121h-84v121zM465 1052h84v-121h-84v121zM372 959h84v-121h-84v121zM465 866h84v-121h-84v121zM372 773h84v-121h-84
v121zM465 680h84v-121h-84v121zM372 586h84v-121h-84v121zM465 493h84v-121h-84v121zM372 400h84v-121h-84v121zM465 307h84v-121h-84v121zM372 214h84v-121h-84v121zM465 121h84v-121h-84v121zM372 28h84v-121h-84v121zM465 -65h84v-121h-84v121zM372 -158h84v-121h-84v121
zM465 -251h84v-121h-84v121zM372 -344h84v-121h-84v121zM279 1610h84v-121h-84v121zM186 1517h84v-121h-84v121zM279 1424h84v-121h-84v121zM186 1331h84v-121h-84v121zM279 1238h84v-121h-84v121zM186 1145h84v-121h-84v121zM279 1052h84v-121h-84v121zM186 959h84v-121
h-84v121zM279 866h84v-121h-84v121zM186 773h84v-121h-84v121zM279 680h84v-121h-84v121zM186 586h84v-121h-84v121zM279 493h84v-121h-84v121zM186 400h84v-121h-84v121zM279 307h84v-121h-84v121zM186 214h84v-121h-84v121zM279 121h84v-121h-84v121zM186 28h84v-121h-84
v121zM279 -65h84v-121h-84v121zM186 -158h84v-121h-84v121zM279 -251h84v-121h-84v121zM186 -344h84v-121h-84v121zM93 1610h84v-121h-84v121zM0 1517h84v-121h-84v121zM93 1424h84v-121h-84v121zM0 1331h84v-121h-84v121zM93 1238h84v-121h-84v121zM0 1145h84v-121h-84v121
zM93 1052h84v-121h-84v121zM0 959h84v-121h-84v121zM93 866h84v-121h-84v121zM0 773h84v-121h-84v121zM93 680h84v-121h-84v121zM0 586h84v-121h-84v121zM93 493h84v-121h-84v121zM0 400h84v-121h-84v121zM93 307h84v-121h-84v121zM0 214h84v-121h-84v121zM93 121h84v-121
h-84v121zM0 28h84v-121h-84v121zM93 -65h84v-121h-84v121zM0 -158h84v-121h-84v121zM93 -251h84v-121h-84v121zM0 -344h84v-121h-84v121z" />
    <glyph glyph-name="upeighthblock" unicode="&#x2594;" 
d="M0 1583h1233v-257h-1233v257z" />
    <glyph glyph-name="righteighthblock" unicode="&#x2595;" 
d="M1078 1583h155v-2048h-155v2048z" />
    <glyph glyph-name="dnleftquadrant" unicode="&#x2596;" 
d="M0 559h616v-1024h-616v1024z" />
    <glyph glyph-name="dnrightquadrant" unicode="&#x2597;" 
d="M616 559h617v-1024h-617v1024z" />
    <glyph glyph-name="upleftquadrant" unicode="&#x2598;" 
d="M0 1583h616v-1024h-616v1024z" />
    <glyph glyph-name="upleftdnleftdnrightquadrant" unicode="&#x2599;" 
d="M0 1583h616v-1024h617v-1024h-1233v2048z" />
    <glyph glyph-name="upleftdnrightquadrant" unicode="&#x259a;" 
d="M0 1583h616v-1024h-616v1024zM616 559h617v-1024h-617v1024z" />
    <glyph glyph-name="upleftuprightdnleftquadrant" unicode="&#x259b;" 
d="M0 1583h1233v-1024h-617v-1024h-616v2048z" />
    <glyph glyph-name="upleftuprightdnrightquadrant" unicode="&#x259c;" 
d="M0 1583h1233v-2048h-617v1024h-616v1024z" />
    <glyph glyph-name="uprightquadrant" unicode="&#x259d;" 
d="M616 1583h617v-1024h-617v1024z" />
    <glyph glyph-name="uprightdnleftquadrant" unicode="&#x259e;" 
d="M616 1583h617v-1024h-617v1024zM616 559v-1024h-616v1024h616z" />
    <glyph glyph-name="uprightdnleftdnrightquadrant" unicode="&#x259f;" 
d="M0 559h616v1024h617v-2048h-1233v1024z" />
    <glyph glyph-name="blacksquare" unicode="&#x25a0;" 
d="M104 1303h1024v-1117h-1024v1117z" />
    <glyph glyph-name="H22073" unicode="&#x25a1;" 
d="M285 348h665v793h-665v-793zM104 186v1117h1024v-1117h-1024z" />
    <glyph glyph-name="blacksmallsquare" unicode="&#x25aa;" 
d="M367 1017h499v-544h-499v544z" />
    <glyph glyph-name="whitesmallsquare" unicode="&#x25ab;" 
d="M786 948h-339v-406h339v406zM935 398h-637v693h637v-693z" />
    <glyph glyph-name="triagup" unicode="&#x25b2;" 
d="M1056 372h-879v38l423 893h33l423 -893v-38z" />
    <glyph glyph-name="blackrightpointingpointer" unicode="&#x25ba;" 
d="M190 397v882h33l820 -423v-37l-820 -422h-33z" />
    <glyph glyph-name="blackdownpointingtriangle" unicode="&#x25bc;" 
d="M177 1210h879v-37l-423 -894h-33l-423 894v37z" />
    <glyph glyph-name="triaglf" unicode="&#x25c4;" 
d="M1043 1279v-882h-34l-819 422v37l819 423h34z" />
    <glyph glyph-name="lozenge" unicode="&#x25ca;" 
d="M614 112l371 633l-371 633l-357 -633zM519 0l-431 745l431 744h181l447 -744l-447 -745h-181z" />
    <glyph glyph-name="circle" unicode="&#x25cb;" 
d="M620 318q80 0 146 31t114.5 88.5t74.5 136.5t26 172.5t-26 172.5t-74.5 136.5t-114.5 88.5t-146 31t-147 -31t-115.5 -88.5t-74.5 -136.5t-26 -172.5t26 -172.5t74.5 -136.5t115.5 -88.5t147 -31zM233 326q-153 163 -153 419t151.5 423t386.5 167t388 -166
q152 -166 152 -425t-153 -418q-151 -166 -387 -166t-385 166z" />
    <glyph glyph-name="H18533" unicode="&#x25cf;" 
d="M233 326q-153 163 -153 419t151.5 423t386.5 167t388 -166q152 -166 152 -425t-153 -418q-151 -166 -387 -166t-385 166z" />
    <glyph glyph-name="whitebullet" unicode="&#x25e6;" 
d="M406 674q0 -166 211.5 -166t211.5 166v134q0 171 -211.5 171t-211.5 -171v-134zM972 674q0 -148 -95 -229q-88 -80 -260 -80t-261 80q-93 77 -93 229v134q0 230 135.5 272.5t263 42.5t217.5 -82q93 -77 93 -233v-134z" />
    <glyph glyph-name="uni2619" unicode="&#x2619;" 
d="M136 534q0 306 227 306h22l179 -499h58v471h74q125 0 185.5 -61.5t60.5 -203.5v-350q0 -265 -140 -434t-355 -169t-318 114t-99 299l149 -9q0 -170 57.5 -198.5t91.5 -28.5q108 0 108 121v71l-300 400v171zM378 957q-317 0 -300 391l145 -4q-8 -112 15 -154.5t53.5 -59.5
t77.5 -17h117v146q0 239 148 287t241 48l19 -157q-128 0 -183.5 -41.5t-55.5 -164.5v-118h205q146 0 233.5 -108t73.5 -311l-143 4q8 119 -38 189t-128 70h-480z" />
    <glyph glyph-name="female" unicode="&#x2640;" 
d="M923 987q0 166 -84 265.5t-221 99.5t-222 -99t-85 -265t84.5 -266t222 -100t221.5 99.5t84 265.5zM696 -372h-160v376h-346v160h346v307q-174 26 -286 168t-112 359q0 216 134 363t344.5 147t344.5 -145q134 -146 134 -364q0 -217 -109 -360q-109 -142 -290 -168v-307
h348v-160h-348v-376z" />
    <glyph glyph-name="male" unicode="&#x2642;" 
d="M804 484q0 165 -83.5 265t-222 100t-223.5 -99t-85 -265t84.5 -266t223.5 -100t222.5 100t83.5 265zM585 1346v143h672v-742h-144v517l-283 -393q69 -71 108 -168q38 -97 38 -215q0 -234 -133 -379q-133 -146 -344 -146t-346 147q-134 147 -134 375.5t134 373.5
q134 146 354 146q114 0 210 -52l301 393h-433z" />
    <glyph glyph-name="spade" unicode="&#x2660;" 
d="M907 168v-168h-581v168h205l22 484h-47l-95 -280h-91q-115 0 -182 83t-67 208v171l482 655h127l484 -655v-171q0 -123 -67 -207t-185 -84h-91l-95 280h-46l22 -484h205z" />
    <glyph glyph-name="club" unicode="&#x2663;" 
d="M374 1123q0 161 65.5 273t176.5 112t176.5 -110.5t65.5 -274.5l-117 -198l45 -52q39 60 89 99q37 35 85 35q97 0 163.5 -77.5t66.5 -223.5q0 -145 -99 -252q-98 -113 -255 -113l-82 320h-71l19 -499h208v-162h-588v162h209l18 499h-69l-83 -320q-156 0 -255 104t-99 274
q0 126 71 204q69 71 163 71t170 -121l45 52z" />
    <glyph glyph-name="heart" unicode="&#x2665;" 
d="M378 1489q187 0 214 -428h48q18 216 100 322t195.5 106t178.5 -113t50 -270l-36 -320l-415 -786h-194l-415 786l-33 320q-15 165 52 268q68 115 255 115z" />
    <glyph glyph-name="diamond" unicode="&#x2666;" 
d="M518 0l-432 745l432 744h180l447 -744l-447 -745h-180z" />
    <glyph glyph-name="musicalnote" unicode="&#x266a;" 
d="M942 820q0 52 -29 97.5t-137 118t-141 118.5v-871q0 -130 -89.5 -216t-212.5 -86q-124 0 -181 57t-57 148.5t77 164.5t204 73h116v1084h121q6 -73 52 -111t178.5 -125.5t195.5 -171t63 -212.5q0 -184 -78 -276.5t-121 -133.5l-86 107q92 85 108.5 134t16.5 101z" />
    <glyph glyph-name="uni26A1" unicode="&#x26a1;" 
d="M478 692l503 114l50 -84l-672 -1048l-85 45l456 864l-508 -112l-53 78l632 1039l83 -43z" />
    <glyph glyph-name="checkmark" unicode="&#x2713;" 
d="M1195 1489q-414 -681 -605 -1489h-223l-330 905h181l262 -749q179 759 540 1333h175z" />
    <glyph glyph-name="uni2767" unicode="&#x2767;" 
d="M782 -108q0 -121 108 -121q149 0 149 227l149 9q4 -181 -99 -297t-318 -116q-216 0 -356 169q-139 169 -139 434v350q0 208 138 251q46 14 107 14h75v-471h57l179 499h23q227 0 227 -306v-171l-300 -400v-71zM359 957q-80 0 -126 -71t-39 -188l-144 -4q-14 202 74 311
q88 108 233 108h207v118q0 123 -57 165t-183 41l19 157q183 0 286 -88t103 -247v-146h117q131 0 144 135q5 42 1 96l145 4q17 -391 -299 -391h-481z" />
    <glyph glyph-name="a.salt_ss" unicode="&#xe000;" 
d="M186 434v177q0 235 136 380t342 145t382 -71v-1065h-178v210h-53q-104 -229 -314 -229q-145 0 -230 116.5t-85 336.5zM369 432q0 -279 180 -279q157 0 319 225v572q-98 27 -216 27q-119 0 -201 -92t-82 -278v-175z" />
    </font>
</defs>
</svg>
