<?xml version="1.0" standalone="no"?>
<!DOCTYPE svg PUBLIC "-//W3C//DTD SVG 1.1//EN" "http://www.w3.org/Graphics/SVG/1.1/DTD/svg11.dtd" >
<svg xmlns="http://www.w3.org/2000/svg">
<metadata>
Created by FontPrep 20130207 at Mon Aug 15 19:30:22 2016
 By Damien Criado
(c) Copyright The Font Bureau, Inc. 2014. All rights reserved.
</metadata>
<defs>
<font id="eb1058ef4a3cd515918aa27f774682ea" horiz-adv-x='1024' >
  <font-face 
    font-family="InputMonoNarrow-LightItalic"
    font-weight="300"
    font-style="italic"
    font-stretch="semi-condensed"
    units-per-em="2048"
    panose-1="2 0 5 9 2 0 0 9 0 4"
    ascent="1583"
    descent="-465"
    x-height="1117"
    cap-height="1489"
    bbox="-421.368 -838 1676 2607"
    underline-thickness="0"
    underline-position="0"
    slope="-7"
    unicode-range="U+000D-1F41B"
  />
<missing-glyph 
d="M251 -307h730v1731h-730v-1731zM93 -465v2048h1046v-2048h-1046z" />
    <glyph glyph-name=".notdef" 
d="M251 -307h730v1731h-730v-1731zM93 -465v2048h1046v-2048h-1046z" />
    <glyph glyph-name=".null" horiz-adv-x="0" 
 />
    <glyph glyph-name="nonmarkingreturn" unicode="&#xd;" horiz-adv-x="0" 
 />
    <glyph glyph-name="NULL" horiz-adv-x="0" 
 />
    <glyph glyph-name="space" unicode="&#xa0;" 
 />
    <glyph glyph-name="space" unicode=" " 
 />
    <glyph glyph-name="exclam" unicode="!" 
d="M575 350q82 0 114 -39t22 -121l-7 -52q-18 -157 -174 -157q-81 0 -113.5 38.5t-23.5 118.5l7 52q9 82 51 121t124 39zM542 559l61 930h222l-166 -930h-117z" />
    <glyph glyph-name="quotedbl" unicode="&#x22;" 
d="M281 767l37 722h265l-138 -722h-164zM795 767l37 722h265l-138 -722h-164z" />
    <glyph glyph-name="numbersign" unicode="#" 
d="M613 0l63 385h-242l-63 -385h-144l63 385h-221l19 149h229l70 421h-247l18 149h255l64 385h143l-63 -385h242l63 385h143l-63 -385h222l-19 -149h-229l-71 -421h248l-19 -149h-255l-63 -385h-143zM702 534l71 421h-242l-71 -421h242z" />
    <glyph glyph-name="dollar" unicode="$" 
d="M579 -93h-130l22 182q-95 7 -189 38t-154 83l64 129q120 -96 311 -119l57 467q-197 63 -267.5 149.5t-52.5 238.5q37 311 391 325l22 183h131l-23 -185q193 -19 306 -98l-67 -136q-126 74 -272 91l-56 -451q199 -69 272.5 -152.5t55.5 -231.5t-121.5 -236.5t-277.5 -97.5
zM777.5 269q71.5 53 83.5 146t-33.5 143.5t-174.5 96.5l-53 -441q106 2 177.5 55zM631 1260q-234 -4 -255 -182q-11 -95 32.5 -145t170.5 -97z" />
    <glyph glyph-name="percent" unicode="%" 
d="M792 99q120 0 137 143l15 119q17 147 -69.5 147t-124 -35t-46.5 -112l-15 -119q-17 -143 103 -143zM774 -41q-122 0 -188.5 69t-47.5 214l15 115q17 145 100.5 216t205.5 71t187.5 -70.5t48.5 -216.5l-15 -115q-19 -145 -101.5 -214t-204.5 -69zM26 371l1119 854l67 -99
l-1117 -854zM289 1130q-21 -151 103 -151q116 0 139 151l13 114q18 145 -101 145q-123 0 -141 -145zM372 842q-121 0 -187 70.5t-47 219.5l13 108q17 145 102.5 216t206.5 71t186 -71t48 -216l-13 -108q-19 -149 -103.5 -219.5t-205.5 -70.5z" />
    <glyph glyph-name="ampersand" unicode="&#x26;" 
d="M339 127q144 0 292 163q-103 107 -188 257q-20 41 -40.5 82t-35.5 82q-69 -58 -116.5 -145.5t-59.5 -191.5t28 -175.5t120 -71.5zM616 1363q-75 0 -119.5 -65t-57.5 -181t23 -264q269 121 292 309q11 91 -26 146t-112 55zM312 -19q-129 0 -209.5 98t-58.5 273
t106.5 285.5t182.5 163.5q-62 191 -42 350q19 160 111 258.5t228 98.5t208 -90.5t54 -234.5t-110.5 -241t-289.5 -173q11 -41 67 -154t156 -230q128 176 231 408l121 -76q-56 -112 -131.5 -206t-162.5 -204l337 -160l-41 -151q-189 65 -350 211q-89 -102 -183.5 -164
t-223.5 -62z" />
    <glyph glyph-name="quotesingle" unicode="'" 
d="M540 767l37 722h261l-138 -722h-160z" />
    <glyph glyph-name="parenleft" unicode="(" 
d="M814 -391q-249 71 -382.5 316t-85.5 635t241 633.5t459 314.5v-121q-229 -69 -368.5 -293t-177.5 -536t45.5 -537.5t297.5 -294.5z" />
    <glyph glyph-name="parenright" unicode=")" 
d="M140 -391v117q229 69 368.5 294.5t178.5 539.5t-45.5 536t-298.5 291l29 121q251 -71 384.5 -314.5t85.5 -633.5t-241 -635t-461 -316z" />
    <glyph glyph-name="asterisk" unicode="*" 
d="M987 568l-306 283l-7 -434h-197l96 432l-374 -281l-76 169l421 218l-369 216l121 171l304 -283l7 430h197l-97 -431l377 284l76 -171l-421 -216l369 -218z" />
    <glyph glyph-name="plus" unicode="+" 
d="M454 80l62 492h-397l19 160h396l62 491h160l-62 -491h397l-19 -160h-396l-62 -492h-160z" />
    <glyph glyph-name="comma" unicode="," 
d="M225 -395l246 723h326l-436 -723h-136z" />
    <glyph glyph-name="hyphen" unicode="&#x2011;" 
d="M119 572l19 154h953l-19 -154h-953z" />
    <glyph glyph-name="hyphen" unicode="&#x2010;" 
d="M119 572l19 154h953l-19 -154h-953z" />
    <glyph glyph-name="hyphen" unicode="&#xad;" 
d="M119 572l19 154h953l-19 -154h-953z" />
    <glyph glyph-name="hyphen" unicode="-" 
d="M119 572l19 154h953l-19 -154h-953z" />
    <glyph glyph-name="period" unicode="." 
d="M524 -19q-81 0 -127.5 39.5t-35.5 126.5l4 30q21 167 154 167t178.5 -39t34.5 -128l-4 -30q-11 -88 -67 -127t-137 -39z" />
    <glyph glyph-name="slash" unicode="/" 
d="M56 -372l912 1861h162l-912 -1861h-162z" />
    <glyph glyph-name="zero.salt_slash" unicode="&#xe05c;" 
d="M540 127q177 0 256 143t111 404l16 134q39 308 -16 449l-520 -1084q57 -46 153 -46zM693 1363q-177 0 -257 -147t-112 -408l-17 -134q-15 -127 -15 -222.5t21 -170.5l506 1052q-52 30 -126 30zM523 -19q-238 0 -324.5 181t-49.5 497l20 164q39 320 171.5 502.5t371 182.5
t324 -182.5t46.5 -502.5l-21 -164q-37 -317 -168.5 -497.5t-369.5 -180.5z" />
    <glyph glyph-name="zero.salt_slash" unicode="0" 
d="M540 127q177 0 256 143t111 404l16 134q39 308 -16 449l-520 -1084q57 -46 153 -46zM693 1363q-177 0 -257 -147t-112 -408l-17 -134q-15 -127 -15 -222.5t21 -170.5l506 1052q-52 30 -126 30zM523 -19q-238 0 -324.5 181t-49.5 497l20 164q39 320 171.5 502.5t371 182.5
t324 -182.5t46.5 -502.5l-21 -164q-37 -317 -168.5 -497.5t-369.5 -180.5z" />
    <glyph glyph-name="one" unicode="1" 
d="M158 0l17 140h378l141 1154h-48q-69 -101 -168.5 -141.5t-216.5 -18.5l2 160q128 -17 247 33.5t214 161.5h149l-166 -1349h347l-17 -140h-879z" />
    <glyph glyph-name="two" unicode="2" 
d="M697 1363q-159 0 -225 -69t-107 -272l-151 19q45 259 155.5 363t334.5 104t323 -92t77 -280l-17 -134q-17 -134 -98.5 -216t-260.5 -134l-250 -75q-84 -20 -142.5 -76t-72.5 -179l-23 -182h758l-17 -140h-912l39 318q20 171 107 265.5t265 146.5l250 74q99 26 146 76.5
t60 143.5l10 88q17 136 -36.5 193.5t-212.5 57.5z" />
    <glyph glyph-name="three" unicode="3" 
d="M506 -19q-265 0 -341 104.5t-64 311.5l156 18q-4 -179 46.5 -238.5t222.5 -59.5t251 63.5t100 223.5l6 45q19 155 -39 215t-228 60h-171l17 142h171q149 0 213 48.5t79 167.5l8 56q17 130 -41 182t-207 52t-213 -57.5t-96 -214.5l-153 19q39 209 154 299t314 90
t310 -88.5t84 -291.5l-7 -63q-13 -108 -91 -171.5t-209 -70.5l-5 -54q153 -13 216 -103.5t48 -207.5l-6 -52q-24 -194 -142 -309.5t-383 -115.5z" />
    <glyph glyph-name="four" unicode="4" 
d="M1115 397h-205l-48 -397h-155l49 397h-655l18 145l695 947h230l-115 -947h205zM296 542h479l93 769z" />
    <glyph glyph-name="five" unicode="5" 
d="M498 -19q-243 0 -328.5 87t-68.5 330l158 19q-13 -182 39 -236t227 -54t254 68t96 196l11 93q17 138 -29.5 204t-167.5 66h-494l90 735h808l-17 -145h-653l-54 -437h325q199 0 286 -101.5t61 -315.5l-13 -112q-22 -184 -154.5 -290.5t-375.5 -106.5z" />
    <glyph glyph-name="six" unicode="6" 
d="M538.5 127q154.5 0 236 75t102.5 241l4 21q19 162 -44.5 236.5t-218 74.5t-236.5 -74.5t-101 -236.5l-4 -21q-20 -164 43.5 -240t218 -76zM516 -19q-229 0 -321.5 143.5t-62.5 391.5l58 463q30 255 165 392t348 137t303.5 -77t105.5 -252l-176 -43q-9 123 -54.5 175
t-198.5 52t-233.5 -89.5t-106.5 -296.5l-23 -195h34q54 73 128.5 110t189.5 37q214 0 303.5 -126.5t65.5 -316.5l-4 -37q-28 -227 -160 -347.5t-361 -120.5z" />
    <glyph glyph-name="seven" unicode="7" 
d="M363 0q155 488 275 751.5t351 574.5h-758l20 163h913l-21 -163q-238 -350 -367.5 -632.5t-243.5 -693.5h-169z" />
    <glyph glyph-name="eight" unicode="8" 
d="M539.5 117q167.5 0 242 60.5t93.5 220.5l4 28q20 162 -39.5 222.5t-227 60.5t-242 -60.5t-94.5 -222.5l-4 -28q-19 -160 40.5 -220.5t227 -60.5zM629 855q151 0 216 52t82 184l6 47q17 130 -36.5 182t-204 52t-215 -52t-80.5 -182l-6 -47q-17 -132 35 -184t203 -52z
M523 -19q-240 0 -337 95t-71 308l6 39q17 141 99 231.5t208 103.5l8 54q-99 9 -156.5 84.5t-43.5 198.5l8 57q22 188 133 272t333 84t312 -83.5t67 -272.5l-7 -57q-15 -123 -91.5 -198.5t-175.5 -84.5l-7 -54q123 -13 182.5 -104.5t42.5 -230.5l-5 -39
q-26 -212 -145.5 -307.5t-359.5 -95.5z" />
    <glyph glyph-name="nine" unicode="9" 
d="M718 1508q228 0 321 -143.5t61 -390.5l-56 -464q-30 -244 -159 -386.5t-349 -142.5t-310 77.5t-103 252.5l173 43q11 -130 61.5 -178.5t196.5 -48.5t228 90t108 295l24 195h-33q-107 -147 -320 -147t-303 122t-66 322l5 37q28 227 160.5 347t360.5 120zM614.5 715
q150.5 0 236.5 76.5t105 246.5t-46 247.5t-215.5 77.5t-236.5 -78.5t-105 -249.5t46 -245.5t215.5 -74.5z" />
    <glyph glyph-name="colon" unicode=":" 
d="M622 361q134 0 117 -152l-11 -81q-17 -148 -205 -148q-82 0 -130.5 34t-38.5 114l11 81q9 80 66 116t191 36zM614 734q-82 0 -129 34t-38 115l9 78q21 154 156.5 154t182.5 -36t35 -118l-9 -78q-9 -80 -67 -114.5t-140 -34.5z" />
    <glyph glyph-name="semicolon" unicode=";" 
d="M220 -406l249 743h332l-444 -743h-137zM614 734q-82 0 -129 34t-38 115l9 78q21 154 156.5 154t182.5 -36t35 -118l-9 -78q-9 -80 -67 -114.5t-140 -34.5z" />
    <glyph glyph-name="less" unicode="&#x3c;" 
d="M957 47l-788 534l19 141l918 535l-19 -149l-782 -456l671 -457z" />
    <glyph glyph-name="equal" unicode="=" 
d="M89 335l21 158h953l-20 -158h-954zM147 810l21 158h953l-21 -158h-953z" />
    <glyph glyph-name="greater" unicode="&#x3e;" 
d="M104 47l19 154l774 451l-662 450l18 155l788 -533l-19 -145z" />
    <glyph glyph-name="question" unicode="?" 
d="M498 350q81 0 114.5 -39t24.5 -121l-8 -52q-18 -157 -137.5 -157t-152 38.5t-22.5 118.5l7 52q9 82 51 121t123 39zM690 1363q-215 0 -286 -72.5t-108 -268.5l-149 19q45 266 164 366.5t399 100.5t378 -109t76 -287l-12 -92q-22 -190 -181.5 -274.5t-492.5 -140.5
l-20 129q311 52 419 117t123 177l7 61q15 125 -43.5 199.5t-273.5 74.5z" />
    <glyph glyph-name="at" unicode="@" 
d="M803 946q-142 0 -166 -196l-26 -221q-24 -190 120 -190q70 0 112.5 34.5t55.5 145.5l30 235q11 101 -24.5 146.5t-101.5 45.5zM768 1084q92 0 131 -88h51q17 179 -41.5 280.5t-214.5 101.5q-300 0 -351 -410l-77 -614q-24 -205 57 -316t303 -111q175 0 324 51l-17 -133
q-168 -50 -324 -50q-277 0 -399 151t-89 411l74 611q30 244 163.5 392t354.5 148t317 -148t67 -390l-58 -471q-57 -298 -326 -298q-145 0 -204.5 82t-41.5 229l30 253q19 145 99 232t172 87z" />
    <glyph glyph-name="A" unicode="A" 
d="M884 0l-70 451h-471l-181 -451h-162l631 1489h155l264 -1489h-166zM791 590l-111 700l-282 -700h393z" />
    <glyph glyph-name="B" unicode="B" 
d="M598 145q134 0 201 59.5t84 193.5l7 51q15 134 -38 193.5t-187 59.5h-319l-67 -557h319zM646 847q125 0 189 54t79 173l6 43q15 119 -36.5 173t-176.5 54h-281l-61 -497h281zM702 1489q210 0 301.5 -86.5t68.5 -263.5l-11 -89q-11 -88 -70.5 -153t-148.5 -82l-8 -54
q110 -11 168.5 -93t41.5 -210l-9 -82q-24 -190 -147 -283t-356 -93h-426l183 1489h413z" />
    <glyph glyph-name="C" unicode="C" 
d="M538 -19q-473 0 -406 529l56 462q69 536 540 536q231 0 330.5 -120t80.5 -375l-154 -19q7 209 -52 291.5t-229 82.5t-251.5 -88t-108.5 -299l-59 -480q-24 -201 38 -290.5t231 -89.5t247 81t121 286l150 -19q-45 -253 -172.5 -370.5t-361.5 -117.5z" />
    <glyph glyph-name="D" unicode="D" 
d="M490 140q177 0 278 104t122 266l56 462q20 162 -55.5 270t-251.5 108h-213l-149 -1210h213zM652 1489q238 0 357 -143t89 -383l-54 -444q-28 -236 -182.5 -377.5t-392.5 -141.5h-363l183 1489h363z" />
    <glyph glyph-name="E" unicode="E" 
d="M106 0l183 1489h875l-17 -139h-721l-57 -466h635l-17 -139h-635l-75 -605h721l-17 -140h-875z" />
    <glyph glyph-name="F" unicode="F" 
d="M99 0l182 1489h879l-17 -139h-726l-76 -628h607l-19 -139h-607l-71 -583h-152z" />
    <glyph glyph-name="G" unicode="G" 
d="M550 -19q-230 0 -339.5 139t-80.5 386l58 468q32 261 171.5 397.5t359.5 136.5t313 -113.5t78 -353.5l-159 -19q11 186 -45 266t-212 80t-239.5 -88t-110.5 -295l-59 -488q-26 -205 43 -290.5t240 -85.5t253 102.5t112 342.5h-339l19 140h493l-22 -175
q-34 -266 -169 -408t-365 -142z" />
    <glyph glyph-name="H" unicode="H" 
d="M106 0l183 1489h154l-74 -614h528l75 614h154l-182 -1489h-155l90 735h-529l-89 -735h-155z" />
    <glyph glyph-name="I" unicode="I" 
d="M106 0l17 140h342l149 1210h-342l17 139h837l-16 -139h-343l-149 -1210h343l-17 -140h-838z" />
    <glyph glyph-name="J" unicode="J" 
d="M488 -19q-222 0 -318.5 117.5t-76.5 366.5l155 21q-13 -216 39 -290.5t211 -74.5q309 0 353 344l108 885h-337l17 139h491l-125 -1018q-30 -240 -162.5 -365t-354.5 -125z" />
    <glyph glyph-name="K" unicode="K" 
d="M350 728l-89 -728h-155l183 1489h154l-76 -621h56l625 621h183l-695 -683l507 -806h-190l-442 728h-61z" />
    <glyph glyph-name="L" unicode="L" 
d="M192 0l182 1489h153l-166 -1349h600l-17 -140h-752z" />
    <glyph glyph-name="M" unicode="M" 
d="M488 350l-144 894l-158 -1244h-138l183 1489h221l146 -938l374 938h212l-182 -1489h-138l147 1247l-363 -897h-160z" />
    <glyph glyph-name="N" unicode="N" 
d="M715 0l-307 1318l-162 -1318h-140l183 1489h219l317 -1323l162 1323h139l-182 -1489h-229z" />
    <glyph glyph-name="O" unicode="O" 
d="M540 121q164 0 244 88.5t104 296.5l58 470q26 212 -32 302t-221.5 90t-243.5 -90t-106 -302l-58 -470q-24 -209 33.5 -297t221.5 -88zM524 -19q-222 0 -322.5 136t-69.5 397l56 454q32 266 166 403t356 137t322 -137t68 -403l-56 -454q-32 -261 -165 -397t-355 -136z" />
    <glyph glyph-name="P" unicode="P" 
d="M661 674q145 0 214 59.5t86 193.5l22 173q15 132 -39 191t-199 59h-319l-83 -676h318zM763 1489q216 0 306.5 -94.5t66.5 -294.5l-21 -167q-26 -199 -140.5 -297t-330.5 -98h-318l-65 -538h-155l183 1489h474z" />
    <glyph glyph-name="Q" unicode="Q" 
d="M540 128q162 0 242 83t104 277l62 493q24 199 -35.5 286t-221.5 87t-242 -87t-105 -286l-61 -493q-24 -194 35.5 -277t221.5 -83zM710 1508q222 0 322 -137t68 -403l-57 -467q-26 -210 -118.5 -340.5t-243.5 -173.5q-13 -149 73 -188t240 -9l8 -136q-235 -56 -370 14.5
t-114 296.5q-222 2 -320.5 138.5t-67.5 397.5l58 467q32 266 166 403t356 137z" />
    <glyph glyph-name="R" unicode="R" 
d="M799 1489q423 0 376 -387l-15 -112q-44 -364 -395 -398l287 -592h-179l-285 590h-255l-72 -590h-155l183 1489h510zM707 726q143 0 212.5 61.5t85.5 201.5l15 117q15 128 -39 186t-197 58h-358l-76 -624h357z" />
    <glyph glyph-name="S" unicode="S" 
d="M507.5 128q201.5 0 294 70t106.5 184t-48 177t-284 143t-304 170.5t-61 262.5t153 266t288 94q336 0 484 -238l-121 -110q-61 104 -161 156t-210 52t-187 -53.5t-90 -163.5t54 -170t289 -138t298 -164.5t57 -242.5q-26 -210 -179.5 -322t-319.5 -112t-296 53t-214 181
l125 107q125 -202 326.5 -202z" />
    <glyph glyph-name="T" unicode="T" 
d="M449 0l165 1350h-430l17 139h1013l-17 -139h-430l-166 -1350h-152z" />
    <glyph glyph-name="U" unicode="U" 
d="M540 117q145 0 215 86t96 290l121 996h154l-121 -988q-64 -520 -482.5 -520t-354.5 520l121 988h154l-121 -996q-26 -205 23.5 -290.5t194.5 -85.5z" />
    <glyph glyph-name="V" unicode="V" 
d="M601 0h-150l-269 1489h170l207 -1253l510 1253h164z" />
    <glyph glyph-name="W" unicode="W" 
d="M735 0l-96 929l-324 -929h-159l-3 1489h158l-22 -1238l292 866h173l80 -864l279 1236h149l-368 -1489h-159z" />
    <glyph glyph-name="X" unicode="X" 
d="M905 0l-300 635l-458 -635h-186l577 758l-352 731h181l286 -608l438 608h184l-554 -729l366 -760h-182z" />
    <glyph glyph-name="Y" unicode="Y" 
d="M601 0h-152l69 559l-384 930h175l315 -782l482 782h173l-609 -930z" />
    <glyph glyph-name="Z" unicode="Z" 
d="M981 0h-912l17 140l877 1210h-728l16 139h913l-17 -139l-875 -1210h726z" />
    <glyph glyph-name="bracketleft" unicode="[" 
d="M231 -372l229 1861h581l-17 -145h-426l-198 -1599h427l-15 -117h-581z" />
    <glyph glyph-name="backslash" unicode="\" 
d="M739 -372l-454 1861h162l454 -1861h-162z" />
    <glyph glyph-name="bracketright" unicode="]" 
d="M145 -372l15 117h426l198 1599h-427l17 145h581l-229 -1861h-581z" />
    <glyph glyph-name="asciicircum" unicode="^" 
d="M951 372l-262 952l-477 -952h-147l566 1117h153l314 -1117h-147z" />
    <glyph glyph-name="underscore" unicode="_" 
d="M2 -372l20 154h954l-21 -154h-953z" />
    <glyph glyph-name="grave" unicode="`" 
d="M696 767l-292 722h326l104 -722h-138z" />
    <glyph glyph-name="a" unicode="a" 
d="M374 -19q-126 0 -215 76.5t-71 230.5t116.5 238.5t221.5 84.5h354l22 175q11 89 -39 146t-166 57t-178 -40t-114 -169l-130 45q48 151 160 231t275 80t266 -79.5t85 -242.5l-67 -537q-11 -101 37 -128.5t156 -5.5l-18 -152q-114 -13 -198.5 22t-73.5 171h-32
q-58 -88 -161.5 -145.5t-229.5 -57.5zM412 127q211 0 331 171l22 184h-309q-188 0 -208 -168q-11 -92 25.5 -139.5t138.5 -47.5z" />
    <glyph glyph-name="b" unicode="b" 
d="M708 983q-102 0 -185.5 -50t-168.5 -157l-71 -586q101 -71 243 -71q280 0 314 281l41 326q33 257 -173 257zM748 1136q162 0 236 -110t49 -315l-39 -316q-24 -197 -151.5 -306t-343.5 -109t-382 124l170 1385h154l-67 -541h50q54 89 140 138.5t184 49.5z" />
    <glyph glyph-name="c" unicode="c" 
d="M674 1136q208 0 303 -93t82 -282l-150 -7q7 127 -51.5 181.5t-196.5 54.5q-280 0 -313 -264l-43 -342q-15 -130 51 -193.5t202 -63.5t206 45.5t91 153.5l150 -8q-67 -337 -458 -337q-222 0 -321 103.5t-73 302.5l39 332q26 205 150 311t332 106z" />
    <glyph glyph-name="d" unicode="d" 
d="M687 1138q120 0 236 -56l51 407h154l-182 -1489h-155l21 169h-51q-54 -89 -138.5 -138.5t-183.5 -49.5q-156 0 -233.5 110t-50.5 315l39 316q24 195 154 305.5t339 110.5zM668 996q-148 0 -225.5 -69t-96.5 -210l-39 -328q-34 -257 183 -257q174 0 342 209l73 579
q-89 76 -237 76z" />
    <glyph glyph-name="e" unicode="e" 
d="M346 707l-7 -48h532l6 32q37 303 -230 303t-301 -287zM520 -19q-196 0 -294.5 103.5t-72.5 308.5l39 324q26 212 157 315.5t319 103.5t289.5 -105.5t73.5 -328.5l-20 -171h-687l-17 -134q-19 -149 40 -212.5t189 -63.5t191 41t102 125l148 -47q-63 -134 -162 -196.5
t-295 -62.5z" />
    <glyph glyph-name="f" unicode="f" 
d="M897 1346q-219 0 -236 -141l-9 -88h432l-19 -145h-432l-166 -1344h-154l165 1344h-292l19 145h292l9 78q17 145 132.5 222.5t266.5 77.5q69 0 140.5 -17.5t110.5 -36.5l-50 -138q-102 43 -209 43z" />
    <glyph glyph-name="g" unicode="g" 
d="M326 -255h355q179 0 196 153q9 78 -30 113.5t-110 35.5h-560l-17 -138q-11 -84 32 -124t134 -40zM616 566q165 0 186 181l8 52q11 97 -40 139.5t-159 42.5t-170.5 -42.5t-73.5 -139.5l-8 -52q-11 -95 40.5 -138t216.5 -43zM640 -391h-323q-151 0 -242.5 64t-72.5 213
q9 88 59.5 140t133.5 60l4 39q-58 7 -90.5 51t-22.5 126t62.5 145t162.5 72l4 34q-76 32 -96 94t-14 113l7 61q15 125 124 210.5t293 85.5h496l-21 -158l-257 46l-4 -35q67 -20 94 -79t20 -115l-7 -59q-15 -125 -114 -206t-304 -81h-214q-45 0 -70.5 -26t-33.5 -88
q-15 -122 119 -122h399q140 0 225 -69t65 -223t-129 -223.5t-253 -69.5z" />
    <glyph glyph-name="h" unicode="h" 
d="M750 1136q153 0 231 -102.5t58 -275.5l-93 -758h-155l90 732q15 123 -31 187t-139 64q-183 0 -355 -192l-97 -791h-155l183 1489h154l-67 -541h50q47 86 134.5 137t191.5 51z" />
    <glyph glyph-name="i.salt_serifs" unicode="&#xe023;" 
d="M620 145h384l-19 -145h-536l119 972h-384l19 145h536zM688 1329q-60 0 -99 21t-25 85q12 103 151 103q61 0 99 -24t24 -88q-7 -58 -48 -78q-42 -20 -102 -19z" />
    <glyph glyph-name="i.salt_serifs" unicode="i" 
d="M620 145h384l-19 -145h-536l119 972h-384l19 145h536zM688 1329q-60 0 -99 21t-25 85q12 103 151 103q61 0 99 -24t24 -88q-7 -58 -48 -78q-42 -20 -102 -19z" />
    <glyph glyph-name="j" unicode="j" 
d="M336 -223q256 0 288 232l117 963h-484l19 145h636l-139 -1130q-23 -194 -153 -284t-283 -90t-272 41l56 165q96 -42 215 -42zM858 1331q-60 0 -100 21q-39 21 -24 85q7 58 48 80q41 23 102 23t99 -24t24 -88q-7 -58 -48 -78t-101 -19z" />
    <glyph glyph-name="k" unicode="k" 
d="M415 521l-63 -521h-155l183 1489h154l-102 -832h89l391 460h194l-477 -523l335 -594h-178l-281 521h-90z" />
    <glyph glyph-name="l.salt_serifs_round" unicode="&#xe056;" 
d="M983 32q-80 -39 -220 -39t-214 92t-54 259l123 1000h-387l17 145h540l-144 -1165q-22 -188 149 -188q95 0 173 33z" />
    <glyph glyph-name="l.salt_serifs_round" unicode="l" 
d="M983 32q-80 -39 -220 -39t-214 92t-54 259l123 1000h-387l17 145h540l-144 -1165q-22 -188 149 -188q95 0 173 33z" />
    <glyph glyph-name="m" unicode="m" 
d="M549 1138q136 0 157 -162h37q39 76 100 119t137 43t116 -74t25 -204l-106 -860h-146l103 840q22 173 -62 173q-77 0 -214 -205l-98 -808h-146l103 840q22 173 -61 173t-215 -205l-98 -808h-146l138 1117h145l-18 -141h31q41 76 100 119t118 43z" />
    <glyph glyph-name="n" unicode="n" 
d="M748 1136q156 0 234.5 -101.5t56.5 -278.5l-93 -756h-155l90 726q15 127 -31 192t-139 65q-180 0 -355 -199l-97 -784h-155l138 1117h155l-23 -169h50q52 86 140 137t184 51z" />
    <glyph glyph-name="o" unicode="o" 
d="M540 127q134 0 208.5 63t91.5 197l41 335q34 268 -233 268t-300 -269l-43 -336q-15 -134 43 -196t192 -62zM523 -19q-203 0 -299 106.5t-71 303.5l39 328q26 201 148 309t325 108t298.5 -108t71.5 -307l-41 -326q-24 -199 -146 -306.5t-325 -107.5z" />
    <glyph glyph-name="p" unicode="p" 
d="M501 -20q-122 0 -238 55l-51 -407h-154l184 1489h155l-23 -169h50q52 88 140 138t184 50q156 0 233 -114.5t52 -312.5l-39 -314q-24 -194 -156 -304.5t-337 -110.5zM522 121q148 0 224.5 67t93.5 212l41 328q17 134 -27 194.5t-146 60.5t-184.5 -50t-169.5 -157l-71 -579
q91 -76 239 -76z" />
    <glyph glyph-name="q" unicode="q" 
d="M905 927q-106 69 -235 69q-128 0 -217.5 -70t-106.5 -209l-37 -306q-34 -279 181 -279q174 0 342 209zM439 -19q-162 0 -236.5 109t-47.5 316l39 316q24 199 161 307.5t339 108.5t378 -110l-173 -1400h-154l67 541h-51q-58 -95 -142.5 -141.5t-179.5 -46.5z" />
    <glyph glyph-name="r" unicode="r" 
d="M750 983q-168 0 -303 -181l-99 -802h-153l138 1117h153l-22 -173h52q91 192 309 192q112 0 180.5 -80t52.5 -229l-21 -164h-151l13 106q13 112 -24 163t-125 51z" />
    <glyph glyph-name="s" unicode="s" 
d="M560 -20q-295 0 -474 163l93 131q154 -144 383 -144q101 0 184.5 33t94.5 127t-53 130t-249 66t-269 104t-66 228t141.5 236t262.5 82q262 0 438 -170l-95 -132q-161 151 -348 151q-91 0 -163.5 -37.5t-83.5 -127.5t49 -127.5t246 -66.5t274 -107t71 -214
q-20 -168 -155 -246.5t-281 -78.5z" />
    <glyph glyph-name="t" unicode="t" 
d="M972 26q-136 -43 -287 -43t-233.5 90.5t-60.5 269.5l76 629h-294l19 145h294l45 372h154l-45 -372h451l-19 -145h-450l-75 -615q-29 -219 172 -219q116 0 238 37z" />
    <glyph glyph-name="u" unicode="u" 
d="M439 -19q-153 0 -232 106.5t-58 273.5l93 756h155l-92 -733q-30 -252 181 -252q174 0 344 194l99 791h155l-138 -1117h-155l21 169h-51q-43 -82 -131.5 -135t-190.5 -53z" />
    <glyph glyph-name="v" unicode="v" 
d="M618 0h-188l-233 1117h172l173 -989l417 989h167z" />
    <glyph glyph-name="w" unicode="w" 
d="M678 0l-58 771l-240 -771h-185l-57 1117h151l9 -1016l238 835h203l47 -808l251 989h151l-333 -1117h-177z" />
    <glyph glyph-name="x" unicode="x" 
d="M786 0l-216 439l-315 -439h-175l426 559l-277 558h177l208 -428l322 428h176l-434 -549l285 -568h-177z" />
    <glyph glyph-name="y" unicode="y" 
d="M228 -238q68 0 136.5 50.5t119.5 168.5h-50l-233 1136h170l175 -992l415 992h164l-520 -1167q-148 -332 -426 -332q-71 0 -157 21l51 143q87 -20 155 -20z" />
    <glyph glyph-name="z" unicode="z" 
d="M909 0h-768l19 145l680 827h-579l18 145h767l-18 -145l-676 -827h575z" />
    <glyph glyph-name="braceleft" unicode="{" 
d="M810 -391q-354 -7 -501 72t-127 237q11 95 55 159t89 110t85.5 88t46.5 92q11 88 -70 125t-300 42l11 93q222 6 312 42.5t99 121.5q6 48 -26 83t-65.5 75.5t-62 101.5t-15.5 157q19 151 184.5 229.5t517.5 70.5l-17 -145q-285 6 -404 -36t-130 -134q-6 -41 16.5 -83.5
t72.5 -100.5t70.5 -105.5t15.5 -104.5q-26 -201 -339 -216v-10q304 -39 279 -249q-6 -48 -40.5 -93t-97.5 -103t-94.5 -100.5t-39.5 -98.5q-11 -97 98 -140.5t396 -37.5z" />
    <glyph glyph-name="bar" unicode="|" 
d="M408 -372l229 1861h141l-229 -1861h-141z" />
    <glyph glyph-name="braceright" unicode="}" 
d="M849 -82q-20 -158 -186 -237t-520 -72l19 142q283 -6 403 37.5t131 140.5q7 56 -13 99t-70 97q-50 61 -73.5 106t-18.5 93q25 211 343 249v10q-145 7 -220.5 61t-62.5 155q6 58 39 105t96.5 105t97 100.5t39.5 83.5q11 91 -99 133t-395 37l17 145q356 7 503 -71t128 -229
q-13 -97 -56.5 -157.5t-86.5 -100.5t-84 -75t-46 -84q-9 -86 71.5 -122t298.5 -42l-11 -93q-220 -6 -310 -43t-102 -124q-6 -50 24 -92t64 -88t62.5 -110t17.5 -159z" />
    <glyph glyph-name="asciitilde" unicode="~" 
d="M808 406q-108 0 -162 59t-95 219t-69 201.5t-77 41.5q-111 0 -135 -203l-37 -300h-149l37 311q20 162 109.5 255.5t195.5 93.5t162 -60t95 -220t66 -202t77 -42t88.5 54t53.5 172l36 288h148l-37 -301q-20 -173 -109.5 -270t-197.5 -97z" />
    <glyph glyph-name="exclamdown" unicode="&#xa1;" 
d="M700 931l-63 -931h-222l166 931h119zM665 1139q-158 0 -134 161l5 52q18 156 173 156q82 0 114.5 -38t23.5 -118l-5 -52q-11 -82 -53 -121.5t-124 -39.5z" />
    <glyph glyph-name="cent" unicode="&#xa2;" 
d="M467 -93l32 264q-197 15 -270 127t-48 311l35 279q22 194 122.5 305.5t301.5 124.5l32 265h130l-31 -263q175 -11 248.5 -108t60.5 -287l-144 -7q9 145 -37 200t-162 59l-106 -862q117 2 176 51t83 187l143 -7q-35 -184 -132 -274.5t-272 -102.5l-31 -262h-131zM333 583
q-15 -128 33.5 -191.5t167.5 -74.5l105 858q-121 -9 -185.5 -73.5t-79.5 -194.5z" />
    <glyph glyph-name="sterling" unicode="&#xa3;" 
d="M665 -19q-54 0 -106.5 28.5t-112.5 62.5t-105 43.5t-93 -20.5l-172 -112l-76 118l143 85q69 41 154 195t23 349h-234l20 164h151q-38 100 -19 236q20 169 137.5 273.5t322.5 104.5t302 -90.5t82 -292.5l-160 -19q7 156 -48.5 211t-191.5 55t-203.5 -59.5t-82.5 -183.5
t38 -235h357l-20 -164h-278q18 -77 8 -190q-24 -185 -188 -313l18 -20q50 34 94.5 29t90.5 -27t88 -49.5t94 -27.5q88 0 132.5 55t74.5 208l154 -19q-35 -194 -137.5 -294.5t-256.5 -100.5z" />
    <glyph glyph-name="currency" unicode="&#xa4;" 
d="M547.5 168q-174.5 0 -262.5 106l-166 -160l-89 108l195 189q-11 63 0 162l41 332q12 94 43 171l-151 192l118 108l126 -162q108 108 284 108t264 -110l162 155l91 -108l-196 -187q10 -89 0 -167l-41 -332q-12 -91 -41 -160l151 -182l-117 -108l-123 151
q-114 -106 -288.5 -106zM562 307q106 0 167.5 62.5t80.5 203.5l41 332q33 277 -182 277t-246 -277l-41 -332q-19 -141 27.5 -203.5t152.5 -62.5z" />
    <glyph glyph-name="yen" unicode="&#xa5;" 
d="M966 186h-342l-23 -186h-152l22 186h-341l21 162h341l26 211h-341l20 162h254l-321 768h172l305 -837l506 837h170l-505 -768h255l-20 -162h-343l-26 -211h343z" />
    <glyph glyph-name="brokenbar" unicode="&#xa6;" 
d="M408 -372l93 744h141l-93 -744h-141zM546 745l91 744h141l-91 -744h-141z" />
    <glyph glyph-name="section" unicode="&#xa7;" 
d="M510 -385q-117 0 -221.5 44.5t-173.5 130.5l101 122q76 -80 149 -119t171 -39t176.5 44t89.5 148q17 123 -67.5 178t-244.5 90t-248 109t-72 200t86 195.5t168 98.5q-206 98 -178 319q22 190 154 275.5t268 85.5q272 0 412 -175l-101 -129q-76 84 -147.5 124t-171.5 40
t-178 -49t-89 -139q-15 -125 69 -181t242 -90t247.5 -109.5t73.5 -202.5t-89.5 -192.5t-174.5 -93.5q104 -48 153.5 -125.5t35.5 -198.5q-22 -184 -147 -272.5t-293 -88.5zM417 715.5q-76 -45.5 -88 -146.5t51 -141t140.5 -58t93.5 -22q88 2 163.5 47t87.5 147t-57.5 146
t-226.5 75q-88 -2 -164 -47.5z" />
    <glyph glyph-name="dieresis" unicode="&#xa8;" 
d="M883 1331q-47 0 -76 22t-16 84q12 101 118 102t93 -102l-2 -9q-6 -58 -38 -78t-79 -19zM495 1331q-47 0 -77 22t-16 84q12 101 119 103q104 0 92 -103l-2 -9q-7 -58 -38 -78t-78 -19z" />
    <glyph glyph-name="copyright" unicode="&#xa9;" 
d="M518 510q0 -173 110 -173q56 0 77 32.5t29 135.5l132 -12q-9 -153 -63.5 -223.5t-182.5 -70.5q-248 0 -249 337v309q1 334 249 334q126 0 181 -76.5t65 -233.5l-132 -11q-7 108 -29 145.5t-79 37.5t-82.5 -40t-25.5 -133v-358zM616.5 -88q238.5 0 338 143.5t99.5 428.5
v400q0 287 -99.5 434t-338 147t-338 -148t-99.5 -434v-397q0 -287 99.5 -430.5t338 -143.5zM616 -205q-296 0 -430 179t-134 504v414q0 328 135 509.5t431 181.5t429 -182t133 -509v-414q0 -326 -134 -504.5t-430 -178.5z" />
    <glyph glyph-name="ordfeminine" unicode="&#xaa;" 
d="M650 1508q132 0 214 -68t67 -202l-47 -376q-11 -84 21.5 -103.5t125.5 -6.5l-16 -132q-104 -2 -165 26t-48 143h-26q-48 -74 -130 -124.5t-186 -50.5t-175 60t-56 176t95 181.5t175 65.5h283l15 119q9 71 -28 122t-128.5 51t-141.5 -28t-91 -134l-110 39q79 242 352 242z
M504 741q79 0 139.5 32.5t112.5 112.5l13 97h-237q-154 0 -167 -117q-7 -63 26.5 -94t112.5 -31z" />
    <glyph glyph-name="guillemotleft" unicode="&#xab;" 
d="M519 220l-392 359l18 142l481 357l-17 -140l-384 -288l313 -289zM1024 220l-393 359l19 142l480 357l-17 -140l-383 -288l313 -289z" />
    <glyph glyph-name="logicalnot" unicode="&#xac;" 
d="M842 0l70 572h-793l19 160h953l-89 -732h-160z" />
    <glyph glyph-name="registered" unicode="&#xae;" 
d="M815 1011q0 -137 -109 -173l117 -218h-114l-111 209h-77v-209h-98v639h208q89 0 136.5 -51.5t47.5 -146.5v-50zM521 931h114q41 0 60.5 16.5t19.5 63.5v50q0 54 -19.5 76.5t-60.5 22.5h-114v-229zM616.5 367q195.5 0 279 108t83.5 318v276q0 210 -83.5 321t-279 111
t-279.5 -111t-84 -321v-276q0 -210 84 -318t279.5 -108zM616.5 266q-249.5 0 -362.5 140.5t-113 364.5v322q0 225 113 366.5t363 141.5t362 -141.5t112 -366.5v-322q0 -223 -112.5 -364t-362 -141z" />
    <glyph glyph-name="macron" unicode="&#x2c9;" 
d="M363 1419l17 141h674l-17 -141h-674z" />
    <glyph glyph-name="macron" unicode="&#xaf;" 
d="M363 1419l17 141h674l-17 -141h-674z" />
    <glyph glyph-name="degree" unicode="&#xb0;" 
d="M801 1173q-1 184 -185 184t-184 -184v-192q0 -99 45.5 -139.5t137.5 -40.5t139 41.5t47 138.5v192zM616 657q-151 0 -244 82t-93 250v175q0 169 93 253t245 84t244 -84t92 -253v-175q0 -168 -93 -250t-244 -82z" />
    <glyph glyph-name="plusminus" unicode="&#xb1;" 
d="M454 266l62 492h-397l19 160h396l62 491h160l-62 -491h397l-19 -160h-396l-62 -492h-160zM119 2l19 160h953l-19 -160h-953z" />
    <glyph glyph-name="two.sups" unicode="&#xb2;" 
d="M694.5 1383q-109.5 0 -147 -42.5t-55.5 -141.5l-144 13q26 145 106 217t257 72t242 -67t52 -177l-9 -71q-20 -186 -221 -231l-215 -46q-54 -9 -89 -39t-45 -116l-9 -69h531l-15 -119h-674l24 186q28 231 233 276l214 46q61 13 90 43t35 88l5 42q7 58 -24.5 97t-141 39z
" />
    <glyph glyph-name="three.sups" unicode="&#xb3;" 
d="M586 555q-182 0 -249 67t-58 199l145 11q-4 -88 26 -125t152 -37t165 40t52 109l4 30q9 73 -23.5 109t-144.5 36h-141l13 119h141q91 0 131.5 21.5t47.5 84.5l6 45q9 67 -38.5 94t-131.5 27t-127.5 -33.5t-58.5 -109.5l-143 11q22 130 105 189t235 59t235.5 -52.5
t68.5 -180.5l-6 -34q-7 -71 -57.5 -111.5t-120.5 -48.5l-4 -33q78 -7 122.5 -61.5t35.5 -134.5l-4 -28q-17 -132 -106.5 -197t-271.5 -65z" />
    <glyph glyph-name="acute" unicode="&#xb4;" 
d="M493 1303l285 373h239l-375 -373h-149z" />
    <glyph glyph-name="mu1" unicode="&#xb5;" 
d="M462 130q84 0 150 42q64 42 127 115l103 830h152l-104 -840q-11 -102 29 -128t133 -6l-19 -152q-128 -19 -189 33t-49 173h-32q-138 -214 -339 -216q-117 0 -176 93l-6 -37l-33 -409h-189l68 409l134 1080h154l-95 -763q-15 -120 41 -172t140 -52z" />
    <glyph glyph-name="paragraph" unicode="&#xb6;" 
d="M620 1489h508l-229 -1861h-162l125 1005h-175l-125 -1005h-164l125 1005q-162 -2 -270 85.5t-84 281.5l12 97q24 195 151.5 293.5t287.5 98.5z" />
    <glyph glyph-name="periodcentered" unicode="&#x2219;" 
d="M595 560q-81 0 -127.5 39.5t-35.5 128.5l4 24q21 171 153.5 171t178.5 -40t34 -131l-3 -24q-11 -89 -67 -128.5t-137 -39.5z" />
    <glyph glyph-name="periodcentered" unicode="&#xb7;" 
d="M595 560q-81 0 -127.5 39.5t-35.5 128.5l4 24q21 171 153.5 171t178.5 -40t34 -131l-3 -24q-11 -89 -67 -128.5t-137 -39.5z" />
    <glyph glyph-name="cedilla" unicode="&#xb8;" 
d="M414 -397q-98 0 -161 41t-58 142l138 19q-1 -35 21 -49t75 -15q53 0 83 24q30 25 38 91t-10 98t-67 46l45 78q74 -18 128 -76t40 -174t-94 -170t-178 -55z" />
    <glyph glyph-name="one.sups" unicode="&#xb9;" 
d="M343 566l14 119h233l77 615h-25q-30 -73 -97 -118.5t-143 -43.5l4 124q86 2 170.5 59t116.5 168h141l-99 -804h213l-15 -119h-590z" />
    <glyph glyph-name="ordmasculine" unicode="&#xba;" 
d="M616.5 739q111.5 0 175 47.5t76.5 155.5l28 225q25 214 -202.5 214t-252.5 -214l-28 -225q-13 -108 39.5 -155.5t164 -47.5zM601.5 614q-165.5 0 -253 83t-67.5 251l28 216q20 171 127.5 257.5t273 86.5t251 -86.5t65.5 -257.5l-28 -216q-20 -168 -125.5 -251t-271 -83z
" />
    <glyph glyph-name="guillemotright" unicode="&#xbb;" 
d="M586 220l19 141l384 289l-313 288l17 140l394 -357l-18 -142zM82 220l19 141l383 289l-313 288l17 140l395 -357l-19 -142z" />
    <glyph glyph-name="onequarter" unicode="&#xbc;" 
d="M296 -97h307l47 389zM892 -212h-160l-23 -179h-143l22 179h-435l15 115l448 499h192l-61 -499h160zM665 505l13 98l523 37l-21 -173zM-15 467l21 173l540 -37l-14 -98zM331 763l17 129h233l50 419h-24q-30 -74 -97 -119t-141 -45l3 126q91 0 172 58q81 62 115 170h142
l-75 -609h212l-16 -129h-591z" />
    <glyph glyph-name="onehalf" unicode="&#xbd;" 
d="M573 395q254 0 280 -81t20 -132l-9 -70q-11 -85 -67 -132q-58 -43 -151 -64l-214 -46q-58 -11 -81 -30q-41 -33 -51 -112h530l-15 -119h-674l19 151q12 90 65 150q53 59 162 81l214 46q59 12 92 34q25 21 31 61l4 41q8 47 -26 73q-41 28 -145 28t-146 -34
q-32 -31 -52 -115l-143 13q26 136 104 196.5t253 60.5zM665 505l13 98l523 37l-21 -173zM-15 467l21 173l540 -37l-14 -98zM331 763l17 129h233l50 419h-24q-30 -74 -97 -119t-141 -45l3 126q88 0 171 58t116 170h142l-75 -609h212l-16 -129h-591z" />
    <glyph glyph-name="threequarters" unicode="&#xbe;" 
d="M296 -97h305l47 389zM890 -212h-158l-23 -179h-145l22 179h-433l15 115l446 499h194l-61 -499h158zM665 505l13 98l523 37l-21 -173zM-15 467l21 173l540 -37l-14 -98zM612 752q-181 0 -250.5 54.5t-61.5 174.5l143 11q0 -69 35 -92q36 -23 154 -23t157 22q43 20 47 62
l4 29q9 43 -32 60q-36 21 -151 21h-78l15 128h78q104 0 136 19q42 17 48 69l6 44q4 30 -45 43q-41 13 -128 13q-88 1 -121 -17q-55 -29 -65 -83l-144 11q16 105 101 164q83 50 242 50q237 0 273 -63.5t30 -113.5l-3 -34q-8 -62 -54 -100t-127 -47l-4 -33q82 -8 129 -43
q47 -40 39 -91l-4 -28q-6 -54 -56 -130.5t-313 -76.5z" />
    <glyph glyph-name="questiondown" unicode="&#xbf;" 
d="M542 127q214 0 285.5 72.5t108.5 267.5l153 -18q-47 -264 -167 -366t-400 -102t-377 109t-74 288l11 91q22 190 181.5 274.5t492.5 140.5l19 -128q-311 -52 -419 -117.5t-123 -176.5l-8 -62q-15 -125 44 -199t273 -74zM735 1139q-161 0 -137 161l5 52q18 156 137.5 156
t152 -38t23.5 -118l-6 -52q-11 -82 -53 -121.5t-122 -39.5z" />
    <glyph glyph-name="Agrave" unicode="&#xc0;" 
d="M884 0l-70 451h-471l-181 -451h-162l631 1489h155l264 -1489h-166zM791 590l-111 700l-282 -700h393zM734 1676l-282 372h239l192 -372h-149z" />
    <glyph glyph-name="Aacute" unicode="&#xc1;" 
d="M884 0l-70 451h-471l-181 -451h-162l631 1489h155l264 -1489h-166zM791 590l-111 700l-282 -700h393zM536 1676l285 372h238l-374 -372h-149z" />
    <glyph glyph-name="Acircumflex" unicode="&#xc2;" 
d="M884 0l-70 451h-471l-181 -451h-162l631 1489h155l264 -1489h-166zM791 590l-111 700l-282 -700h393zM441 1700l-57 102l337 274h108l273 -274l-80 -102l-266 212z" />
    <glyph glyph-name="Atilde" unicode="&#xc3;" 
d="M884 0l-70 451h-471l-181 -451h-162l631 1489h155l264 -1489h-166zM791 590l-111 700l-282 -700h393zM896 1834q84 0 106 205h123l-4 -28q-17 -137 -85 -227t-174 -90q-60 0 -97 38t-105 150q-22 36 -54 36t-60 -40t-40 -147l-3 -18h-123l4 28q17 134 84 225
q68 91 174 91q68 0 104 -35t62 -75q22 -43 40 -78t48 -35z" />
    <glyph glyph-name="Adieresis" unicode="&#xc4;" 
d="M884 0l-70 451h-471l-181 -451h-162l631 1489h155l264 -1489h-166zM791 590l-111 700l-282 -700h393zM925 1704q-47 0 -75 21t-16 85q12 102 118 102t92 -102q-7 -67 -39 -87q-33 -19 -80 -19zM538 1704q-47 0 -76 21t-17 85q12 102 121 102t87 -112q-7 -58 -37 -77
t-78 -19z" />
    <glyph glyph-name="Aring" unicode="&#xc5;" 
d="M884 0l-70 451h-471l-181 -451h-162l631 1489h155l264 -1489h-166zM791 590l-111 700l-282 -700h393zM738 1774q70 0 111 33t50 111l8 59q18 149 -124 149t-159 -149l-8 -59q-8 -78 22 -111t100 -33zM724 1653q-117 0 -182 65t-49 200l8 59q17 136 99 203t200 67t182 -67
t48 -203l-8 -59q-17 -134 -99 -200t-199 -65z" />
    <glyph glyph-name="AE" unicode="&#xc6;" 
d="M603 451h-365l-175 -451h-137l605 1489h759l-15 -121h-420l-62 -506h406l-15 -123h-406l-76 -618h421l-15 -121h-561zM598 1368l-309 -796h329l97 796h-117z" />
    <glyph glyph-name="Ccedilla" unicode="&#xc7;" 
d="M724 1508q234 0 334 -120t81 -375l-154 -19q7 209 -52 292q-59 82 -229 82t-252 -88t-108 -299l-59 -480q-24 -201 38 -291t231 -89q169 0 247 81t121 286l150 -19q-45 -253 -172 -370q-89 -82 -229 -107q45 -58 31 -169t-93 -165q-80 -54 -178 -55q-98 0 -161 41
t-58 142l138 19q0 -35 21 -49t75 -15q54 0 83 24q30 25 38 91t-5 90t-31 35q-465 4 -399 529l56 462q68 536 536 536z" />
    <glyph glyph-name="Egrave" unicode="&#xc8;" 
d="M106 0l183 1489h875l-17 -139h-721l-57 -466h635l-17 -139h-635l-75 -605h721l-17 -140h-875zM745 1676l-281 372h238l192 -372h-149z" />
    <glyph glyph-name="Eacute" unicode="&#xc9;" 
d="M106 0l183 1489h875l-17 -139h-721l-57 -466h635l-17 -139h-635l-75 -605h721l-17 -140h-875zM586 1676l285 372h239l-375 -372h-149z" />
    <glyph glyph-name="Ecircumflex" unicode="&#xca;" 
d="M106 0l183 1489h875l-17 -139h-721l-57 -466h635l-17 -139h-635l-75 -605h721l-17 -140h-875zM475 1700l-58 102l337 274h108l274 -274l-80 -102l-267 212z" />
    <glyph glyph-name="Edieresis" unicode="&#xcb;" 
d="M106 0l183 1489h875l-17 -139h-721l-57 -466h635l-17 -139h-635l-75 -605h721l-17 -140h-875zM959 1704q-47 0 -75 21t-16 85q12 102 117 102q113 0 91 -112q-6 -58 -38 -77t-79 -19zM572 1704q-47 0 -74 19t-20 82q6 63 40 85t80 22q111 0 89 -112q-7 -58 -37 -77
t-78 -19z" />
    <glyph glyph-name="Igrave" unicode="&#xcc;" 
d="M106 0l17 140h342l149 1210h-342l17 139h837l-16 -139h-343l-149 -1210h343l-17 -140h-838zM732 1676l-281 372h238l192 -372h-149z" />
    <glyph glyph-name="Iacute" unicode="&#xcd;" 
d="M106 0l17 140h342l149 1210h-342l17 139h837l-16 -139h-343l-149 -1210h343l-17 -140h-838zM534 1676l285 372h239l-375 -372h-149z" />
    <glyph glyph-name="Icircumflex" unicode="&#xce;" 
d="M106 0l17 140h342l149 1210h-342l17 139h837l-16 -139h-343l-149 -1210h343l-17 -140h-838zM439 1700l-57 102l337 274h108l273 -274l-80 -102l-266 212z" />
    <glyph glyph-name="Idieresis" unicode="&#xcf;" 
d="M106 0l17 140h342l149 1210h-342l17 139h837l-16 -139h-343l-149 -1210h343l-17 -140h-838zM923 1704q-47 0 -75 21t-16 85q12 102 118 102q113 0 91 -112q-7 -58 -39 -77t-79 -19zM536 1704q-47 0 -76 21t-17 85q12 102 118 102t92 -102q-7 -67 -38 -87q-32 -19 -79 -19
z" />
    <glyph glyph-name="Eth" unicode="&#xd0;" 
d="M490 140q177 0 278 104t122 266l56 462q20 162 -55.5 270t-251.5 108h-213l-55 -454h264l-19 -155h-264l-75 -601h213zM652 1489q238 0 357 -143t89 -383l-54 -444q-28 -236 -182.5 -377.5t-392.5 -141.5h-363l91 741h-177l19 155h177l73 593h363z" />
    <glyph glyph-name="Ntilde" unicode="&#xd1;" 
d="M715 0l-307 1318l-162 -1318h-140l183 1489h219l317 -1323l162 1323h139l-182 -1489h-229zM931 1834q84 0 106 205h123l-4 -28q-17 -137 -85 -227t-174 -90q-60 0 -95 36t-59 76q-25 41 -47 76q-22 36 -54 36t-61 -40q-28 -40 -39 -147l-4 -18h-123l4 28q17 134 85 225
t174 91q67 0 103 -35t62 -75q22 -43 40 -78t48 -35z" />
    <glyph glyph-name="Ograve" unicode="&#xd2;" 
d="M540 121q164 0 244 88t104 297l58 470q26 212 -32 302t-222 90t-243 -90q-80 -90 -106 -302l-58 -470q-25 -209 33 -297t222 -88zM524 -19q-222 0 -324 136q-100 136 -68 397l56 454q32 266 166 403t356 137t322 -137t68 -403l-56 -454q-32 -261 -165 -397t-355 -136z
M732 1676l-281 372h238l192 -372h-149z" />
    <glyph glyph-name="Oacute" unicode="&#xd3;" 
d="M540 121q164 0 244 88t104 297l58 470q26 212 -32 302t-222 90t-243 -90q-80 -90 -106 -302l-58 -470q-25 -209 33 -297t222 -88zM524 -19q-222 0 -324 136q-100 136 -68 397l56 454q32 266 166 403t356 137t322 -137t68 -403l-56 -454q-32 -261 -165 -397t-355 -136z
M605 1676l285 372h238l-374 -372h-149z" />
    <glyph glyph-name="Ocircumflex" unicode="&#xd4;" 
d="M540 121q164 0 244 88t104 297l58 470q26 212 -32 302t-222 90t-243 -90q-80 -90 -106 -302l-58 -470q-25 -209 33 -297t222 -88zM524 -19q-222 0 -324 136q-100 136 -68 397l56 454q32 266 166 403t356 137t322 -137t68 -403l-56 -454q-32 -261 -165 -397t-355 -136z
M439 1700l-57 102l337 274h108l273 -274l-80 -102l-266 212z" />
    <glyph glyph-name="Otilde" unicode="&#xd5;" 
d="M540 121q164 0 244 88t104 297l58 470q26 212 -32 302t-222 90t-243 -90q-80 -90 -106 -302l-58 -470q-25 -209 33 -297t222 -88zM524 -19q-222 0 -324 136q-100 136 -68 397l56 454q32 266 166 403t356 137t322 -137t68 -403l-56 -454q-32 -261 -165 -397t-355 -136z
M894 1834q84 0 106 205h123l-4 -28q-17 -137 -85 -227t-174 -90q-60 0 -95 36t-59 76q-26 41 -48 76q-22 36 -54 36t-60 -40t-39 -147l-4 -18h-123l4 28q17 134 84 225q68 91 174 91q68 0 104 -35t62 -75q22 -43 40 -78t48 -35z" />
    <glyph glyph-name="Odieresis" unicode="&#xd6;" 
d="M540 121q164 0 244 88t104 297l58 470q26 212 -32 302t-222 90t-243 -90q-80 -90 -106 -302l-58 -470q-25 -209 33 -297t222 -88zM524 -19q-222 0 -324 136q-100 136 -68 397l56 454q32 266 166 403t356 137t322 -137t68 -403l-56 -454q-32 -261 -165 -397t-355 -136z
M923 1704q-47 0 -75 21t-16 85q12 102 118 102q113 0 91 -112q-7 -58 -39 -77t-79 -19zM536 1704q-47 0 -76 21t-17 85q12 102 118 102t92 -102q-7 -67 -38 -87q-32 -19 -79 -19z" />
    <glyph glyph-name="multiply" unicode="&#xd7;" 
d="M166 99l-92 95l431 458l-321 458l116 95l316 -455l428 442l92 -95l-430 -445l322 -445l-118 -95l-318 441z" />
    <glyph glyph-name="Oslash" unicode="&#xd8;" 
d="M711 1508q101 0 166 -24l95 192h164l-134 -268q136 -132 98 -432l-57 -470q-30 -255 -164 -390t-356 -135q-115 0 -197 38l-103 -205h-163l145 294q-105 132 -75 398l58 470q34 261 168 396.5t355 135.5zM540 121q162 0 241 85.5t105 288.5l60 497q26 206 -23 304
l-545 -1143q64 -32 162 -32zM693 1368q-162 0 -241.5 -87.5t-105.5 -293.5l-59 -492q-21 -153 7 -255l531 1110q-67 18 -132 18z" />
    <glyph glyph-name="Ugrave" unicode="&#xd9;" 
d="M540 117q146 0 215 86q70 86 96 290l121 996h154l-121 -988q-64 -520 -482 -520q-419 0 -355 520l121 988h154l-121 -996q-26 -205 23 -291t195 -85zM732 1676l-281 372h238l192 -372h-149z" />
    <glyph glyph-name="Uacute" unicode="&#xda;" 
d="M540 117q146 0 215 86q70 86 96 290l121 996h154l-121 -988q-64 -520 -482 -520q-419 0 -355 520l121 988h154l-121 -996q-26 -205 23 -291t195 -85zM534 1676l285 372h239l-375 -372h-149z" />
    <glyph glyph-name="Ucircumflex" unicode="&#xdb;" 
d="M540 117q146 0 215 86q70 86 96 290l121 996h154l-121 -988q-64 -520 -482 -520q-419 0 -355 520l121 988h154l-121 -996q-26 -205 23 -291t195 -85zM439 1700l-57 102l337 274h108l273 -274l-80 -102l-266 212z" />
    <glyph glyph-name="Udieresis" unicode="&#xdc;" 
d="M540 117q146 0 215 86q70 86 96 290l121 996h154l-121 -988q-64 -520 -482 -520q-419 0 -355 520l121 988h154l-121 -996q-26 -205 23 -291t195 -85zM923 1704q-47 0 -75 21t-16 85q12 102 118 102q113 0 91 -112q-7 -58 -39 -77t-79 -19zM536 1704q-47 0 -76 21t-17 85
q12 102 118 102t92 -102q-7 -67 -38 -87q-32 -19 -79 -19z" />
    <glyph glyph-name="Yacute" unicode="&#xdd;" 
d="M601 0h-152l69 559l-384 930h175l315 -782l482 782h173l-609 -930zM534 1676l285 372h239l-375 -372h-149z" />
    <glyph glyph-name="Thorn" unicode="&#xde;" 
d="M635 428q143 0 211 60.5t87 204.5l20 167q15 130 -38 186t-196 56h-322l-84 -674h322zM734 1242q207 0 300.5 -98t69.5 -289l-19 -155q-24 -201 -143 -304.5t-328 -103.5h-318l-35 -292h-155l183 1489h154l-30 -247h321z" />
    <glyph glyph-name="germandbls" unicode="&#xdf;" 
d="M728 -11q-265 0 -384 177l114 132q50 -61 124.5 -107t162.5 -46t151 36.5t74 127.5t-34.5 128.5t-173.5 63.5t-235 84.5t-87 222.5t141 250.5t283 88.5q-4 106 -73 155.5t-180.5 49.5t-202 -71t-108.5 -223l-177 -1430h-155l179 1454q26 210 167.5 316t327.5 106
t291.5 -113.5t83.5 -301.5l-10 -71q-175 0 -284 -39t-121 -137t50 -126.5t194 -55.5t220 -94t67 -242t-146 -255t-259 -80z" />
    <glyph glyph-name="agrave" unicode="&#xe0;" 
d="M374 -19q-126 1 -216 77t-70 230q18 154 117 239q99 84 221 84h354l22 175q11 89 -39 146t-166 57q-115 0 -177 -40t-115 -169l-130 45q48 151 160 231t275 80t266 -79t85 -243l-67 -537q-11 -101 37 -129t156 -5l-18 -152q-114 -13 -199 22t-73 171h-32
q-58 -88 -161 -146q-104 -58 -230 -57zM412 127q211 0 331 171l22 184h-309q-188 0 -208 -168q-11 -92 26 -139q36 -48 138 -48zM655 1303l-281 373h239l191 -373h-149z" />
    <glyph glyph-name="aacute" unicode="&#xe1;" 
d="M374 -19q-126 1 -216 77t-70 230q18 154 117 239q99 84 221 84h354l22 175q11 89 -39 146t-166 57q-115 0 -177 -40t-115 -169l-130 45q48 151 160 231t275 80t266 -79t85 -243l-67 -537q-11 -101 37 -129t156 -5l-18 -152q-114 -13 -199 22t-73 171h-32
q-58 -88 -161 -146q-104 -58 -230 -57zM412 127q211 0 331 171l22 184h-309q-188 0 -208 -168q-11 -92 26 -139q36 -48 138 -48zM458 1303l285 373h238l-374 -373h-149z" />
    <glyph glyph-name="acircumflex" unicode="&#xe2;" 
d="M374 -19q-126 1 -216 77t-70 230q18 154 117 239q99 84 221 84h354l22 175q11 89 -39 146t-166 57q-115 0 -177 -40t-115 -169l-130 45q48 151 160 231t275 80t266 -79t85 -243l-67 -537q-11 -101 37 -129t156 -5l-18 -152q-114 -13 -199 22t-73 171h-32
q-58 -88 -161 -146q-104 -58 -230 -57zM412 127q211 0 331 171l22 184h-309q-188 0 -208 -168q-11 -92 26 -139q36 -48 138 -48zM382 1327l-58 103l337 274h108l274 -274l-80 -103l-267 213z" />
    <glyph glyph-name="atilde" unicode="&#xe3;" 
d="M374 -19q-126 1 -216 77t-70 230q18 154 117 239q99 84 221 84h354l22 175q11 89 -39 146t-166 57q-115 0 -177 -40t-115 -169l-130 45q48 151 160 231t275 80t266 -79t85 -243l-67 -537q-11 -101 37 -129t156 -5l-18 -152q-114 -13 -199 22t-73 171h-32
q-58 -88 -161 -146q-104 -58 -230 -57zM412 127q211 0 331 171l22 184h-309q-188 0 -208 -168q-11 -92 26 -139q36 -48 138 -48zM784 1322q-60 0 -95 35t-61 77t-46 76q-22 35 -54 35t-60 -40t-40 -146l-4 -18h-122l3 27q17 134 85 226t174 91q67 0 103 -35t63 -75
q22 -43 40 -78t50 -35t64 46t39 158h123l-3 -28q-17 -138 -85 -227t-174 -89z" />
    <glyph glyph-name="adieresis" unicode="&#xe4;" 
d="M374 -19q-126 1 -216 77t-70 230q18 154 117 239q99 84 221 84h354l22 175q11 89 -39 146t-166 57q-115 0 -177 -40t-115 -169l-130 45q48 151 160 231t275 80t266 -79t85 -243l-67 -537q-11 -101 37 -129t156 -5l-18 -152q-114 -13 -199 22t-73 171h-32
q-58 -88 -161 -146q-104 -58 -230 -57zM412 127q211 0 331 171l22 184h-309q-188 0 -208 -168q-11 -92 26 -139q36 -48 138 -48zM847 1331q-47 0 -76 22t-15 84q12 101 117 103q116 0 91 -112q-6 -58 -38 -78t-79 -19zM460 1331q-47 0 -77 21t-16 85q12 101 119 103
q114 0 89 -112q-7 -58 -37 -78t-78 -19z" />
    <glyph glyph-name="aring" unicode="&#xe5;" 
d="M374 -19q-126 1 -216 77t-70 230q18 154 117 239q99 84 221 84h354l22 175q11 89 -39 146t-166 57q-115 0 -177 -40t-115 -169l-130 45q48 151 160 231t275 80t266 -79t85 -243l-67 -537q-11 -101 37 -129t156 -5l-18 -152q-114 -13 -199 22t-73 171h-32
q-58 -88 -161 -146q-104 -58 -230 -57zM412 127q211 0 331 171l22 184h-309q-188 0 -208 -168q-11 -92 26 -139q36 -48 138 -48zM662 1402q70 0 111 33t50 110l7 60q18 149 -123 149t-160 -149l-7 -60q-8 -79 22 -111t100 -32zM648 1281q-117 0 -183 65q-65 65 -48 199l7 60
q17 136 99 203t200 67q119 0 183 -67t47 -203l-7 -60q-17 -134 -99 -199t-199 -65z" />
    <glyph glyph-name="ae" unicode="&#xe6;" 
d="M352 506q-168 0 -192 -190q-27 -214 107 -214q70 0 121.5 43t103.5 116l29 245h-169zM1018 756q32 261 -138 261q-171 0 -200 -242l-17 -140h341zM891 1136q148 0 222.5 -89.5t51.5 -277.5l-29 -238h-486l-24 -198q-15 -128 20.5 -181t123.5 -53t126.5 35t64.5 138
l143 -8q-34 -145 -109 -214t-220 -69q-205 0 -252 170h-22q-50 -74 -113.5 -122t-157.5 -48t-164 79.5t-51 231.5t109 235.5t194 83.5h216l23 173q11 101 -23.5 164t-112.5 63t-114.5 -33.5t-79.5 -150.5l-119 42q41 128 119 197.5t225 69.5t201 -121q90 121 238 121z" />
    <glyph glyph-name="ccedilla" unicode="&#xe7;" 
d="M400 -397q-98 0 -162 41q-63 41 -57 142l137 19q0 -35 22 -49t74 -15q53 0 83 24q30 25 38 91q9 66 -5 90t-33 37q-183 11 -277 108t-67 296l39 332q26 205 151 311t332 106t302 -93t82 -282l-150 -7q7 127 -52 182q-59 54 -197 54q-280 -1 -312 -264l-43 -342
q-15 -130 51 -194t202 -63q136 -1 206 45t91 154l150 -8q-58 -293 -362 -331q40 -59 27 -167t-93 -162q-79 -54 -177 -55z" />
    <glyph glyph-name="egrave" unicode="&#xe8;" 
d="M648 994q-268 0 -302 -287l-7 -48h532l6 32q37 305 -229 303zM536 121q130 0 191 41t102 125l148 -47q-63 -134 -163 -196t-294 -62q-196 0 -295 102q-99 104 -72 309l39 324q26 212 157 315q131 104 319 104t289 -105q102 -105 74 -329l-20 -171h-687l-17 -134
q-19 -149 40 -213t189 -63zM693 1303l-282 373h239l192 -373h-149z" />
    <glyph glyph-name="eacute" unicode="&#xe9;" 
d="M648 994q-268 0 -302 -287l-7 -48h532l6 32q37 305 -229 303zM536 121q130 0 191 41t102 125l148 -47q-63 -134 -163 -196t-294 -62q-196 0 -295 102q-99 104 -72 309l39 324q26 212 157 315q131 104 319 104t289 -105q102 -105 74 -329l-20 -171h-687l-17 -134
q-19 -149 40 -213t189 -63zM492 1303l284 373h239l-375 -373h-148z" />
    <glyph glyph-name="ecircumflex" unicode="&#xea;" 
d="M648 994q-268 0 -302 -287l-7 -48h532l6 32q37 305 -229 303zM536 121q130 0 191 41t102 125l148 -47q-63 -134 -163 -196t-294 -62q-196 0 -295 102q-99 104 -72 309l39 324q26 212 157 315q131 104 319 104t289 -105q102 -105 74 -329l-20 -171h-687l-17 -134
q-19 -149 40 -213t189 -63zM400 1327l-57 103l337 274h108l273 -274l-80 -103l-266 213z" />
    <glyph glyph-name="edieresis" unicode="&#xeb;" 
d="M648 994q-268 0 -302 -287l-7 -48h532l6 32q37 305 -229 303zM536 121q130 0 191 41t102 125l148 -47q-63 -134 -163 -196t-294 -62q-196 0 -295 102q-99 104 -72 309l39 324q26 212 157 315q131 104 319 104t289 -105q102 -105 74 -329l-20 -171h-687l-17 -134
q-19 -149 40 -213t189 -63zM884 1331q-47 0 -76 22t-15 84q12 101 117 103q106 0 94 -103l-2 -9q-7 -58 -39 -78t-79 -19zM497 1331q-47 0 -77 22t-16 84q12 101 119 103q105 0 91 -103q-7 -67 -39 -86q-31 -20 -78 -20z" />
    <glyph glyph-name="igrave.salt_serifs" unicode="&#xe025;" 
d="M620 145h384l-19 -145h-536l119 972h-384l19 145h536zM644 1303l-281 373h238l192 -373h-149z" />
    <glyph glyph-name="igrave.salt_serifs" unicode="&#xec;" 
d="M620 145h384l-19 -145h-536l119 972h-384l19 145h536zM644 1303l-281 373h238l192 -373h-149z" />
    <glyph glyph-name="iacute.salt_serifs" unicode="&#xe026;" 
d="M620 145h384l-19 -145h-536l119 972h-384l19 145h536zM447 1303l285 373h238l-374 -373h-149z" />
    <glyph glyph-name="iacute.salt_serifs" unicode="&#xed;" 
d="M620 145h384l-19 -145h-536l119 972h-384l19 145h536zM447 1303l285 373h238l-374 -373h-149z" />
    <glyph glyph-name="icircumflex.salt_serifs" unicode="&#xe027;" 
d="M620 145h384l-19 -145h-536l119 972h-384l19 145h536zM352 1327l-58 103l337 274h108l274 -274l-80 -103l-266 213z" />
    <glyph glyph-name="icircumflex.salt_serifs" unicode="&#xee;" 
d="M620 145h384l-19 -145h-536l119 972h-384l19 145h536zM352 1327l-58 103l337 274h108l274 -274l-80 -103l-266 213z" />
    <glyph glyph-name="idieresis.salt_serifs" unicode="&#xe028;" 
d="M620 145h384l-19 -145h-536l119 972h-384l19 145h536zM836 1331q-47 0 -76 21t-15 85q12 101 117 103q116 0 91 -112q-7 -58 -39 -78t-78 -19zM449 1331q-47 0 -77 21t-16 85q12 101 119 103q103 0 91 -103l-2 -9q-8 -58 -38 -78t-77 -19z" />
    <glyph glyph-name="idieresis.salt_serifs" unicode="&#xef;" 
d="M620 145h384l-19 -145h-536l119 972h-384l19 145h536zM836 1331q-47 0 -76 21t-15 85q12 101 117 103q116 0 91 -112q-7 -58 -39 -78t-78 -19zM449 1331q-47 0 -77 21t-16 85q12 101 119 103q103 0 91 -103l-2 -9q-8 -58 -38 -78t-77 -19z" />
    <glyph glyph-name="eth" unicode="&#xf0;" 
d="M541.5 127q143.5 0 211.5 68t85 203l17 133q15 127 -36.5 190t-195 63t-212 -63.5t-83.5 -189.5l-17 -133q-17 -136 35 -203.5t195.5 -67.5zM523 -19q-188 0 -291.5 102.5t-76.5 313.5l20 160q20 173 140.5 273.5t293.5 100.5q106 0 171 -41t84 -97h39q14 245 -58 384
l-357 -166l17 138l264 126q-99 91 -294 153l41 101q255 -81 374 -202l339 157l-17 -138l-246 -117q105 -179 65 -522l-37 -299q-28 -222 -155.5 -324.5t-315.5 -102.5z" />
    <glyph glyph-name="ntilde" unicode="&#xf1;" 
d="M748 1136q156 0 234 -102t57 -278l-93 -756h-155l90 726q15 127 -31 192t-139 65q-180 0 -355 -199l-97 -784h-155l138 1117h155l-23 -169h50q52 86 140 137t184 51zM888 1462q83 0 106 204h123l-4 -28q-17 -138 -85 -227t-173 -89q-60 0 -95 35q-34 35 -60 77t-47 76
q-21 35 -54 35t-61 -40t-39 -146l-4 -18h-123l4 27q17 134 85 226t174 91q67 0 103 -35t63 -75q22 -43 40 -78t47 -35z" />
    <glyph glyph-name="ograve" unicode="&#xf2;" 
d="M540 127q134 0 208 63t92 197l41 335q34 268 -234 268t-299 -269l-43 -336q-15 -134 43 -196t192 -62zM523 -19q-203 1 -299 107t-71 303l39 328q26 201 148 309t325 108t299 -108t71 -307l-41 -326q-24 -199 -146 -307t-325 -107zM691 1303l-281 373h238l192 -373h-149z
" />
    <glyph glyph-name="oacute" unicode="&#xf3;" 
d="M540 127q134 0 208 63t92 197l41 335q34 268 -234 268t-299 -269l-43 -336q-15 -134 43 -196t192 -62zM523 -19q-203 1 -299 107t-71 303l39 328q26 201 148 309t325 108t299 -108t71 -307l-41 -326q-24 -199 -146 -307t-325 -107zM493 1303l285 373h239l-375 -373h-149z
" />
    <glyph glyph-name="ocircumflex" unicode="&#xf4;" 
d="M540 127q134 0 208 63t92 197l41 335q34 268 -234 268t-299 -269l-43 -336q-15 -134 43 -196t192 -62zM523 -19q-203 1 -299 107t-71 303l39 328q26 201 148 309t325 108t299 -108t71 -307l-41 -326q-24 -199 -146 -307t-325 -107zM398 1327l-57 103l337 274h108
l273 -274l-80 -103l-266 213z" />
    <glyph glyph-name="otilde" unicode="&#xf5;" 
d="M540 127q134 0 208 63t92 197l41 335q34 268 -234 268t-299 -269l-43 -336q-15 -134 43 -196t192 -62zM523 -19q-203 1 -299 107t-71 303l39 328q26 201 148 309t325 108t299 -108t71 -307l-41 -326q-24 -199 -146 -307t-325 -107zM853 1462q83 0 106 204h123l-4 -28
q-17 -138 -85 -227t-174 -89q-60 0 -95 35t-60 77q-24 42 -46 76q-22 35 -54 35t-61 -40q-28 -40 -39 -146l-4 -18h-123l4 27q17 134 84 226q68 91 175 91q67 0 103 -35t62 -75q22 -43 40 -78t48 -35z" />
    <glyph glyph-name="odieresis" unicode="&#xf6;" 
d="M540 127q134 0 208 63t92 197l41 335q34 268 -234 268t-299 -269l-43 -336q-15 -134 43 -196t192 -62zM523 -19q-203 1 -299 107t-71 303l39 328q26 201 148 309t325 108t299 -108t71 -307l-41 -326q-24 -199 -146 -307t-325 -107zM883 1331q-47 0 -76 22t-16 84
q12 101 118 102t93 -102l-2 -9q-6 -58 -38 -78t-79 -19zM495 1331q-47 0 -77 22t-16 84q12 101 119 103q104 0 92 -103l-2 -9q-7 -58 -38 -78t-78 -19z" />
    <glyph glyph-name="divide" unicode="&#xf7;" 
d="M564 315q63 0 98.5 -29t28.5 -87l-4 -31q-14 -114 -116 -114t-139 28t-30 86l4 31q7 58 51 87t107 29zM117 568l21 167h953l-20 -167h-954zM646 985q-63 0 -99.5 28t-30.5 85l5 32q6 58 49.5 87t107 29t99 -29t29.5 -87l-5 -32q-6 -58 -49 -85.5t-106 -27.5z" />
    <glyph glyph-name="oslash" unicode="&#xf8;" 
d="M667 1136q98 0 163 -24l112 191h170l-159 -266q105 -105 80 -316l-41 -332q-26 -210 -155.5 -309t-313.5 -99q-92 0 -167 25l-110 -192h-170l157 264q-105 105 -78 311l40 332q26 214 156.5 314.5t315.5 100.5zM426 147q53 -17 116 -17q134 0 204.5 60.5t85.5 193.5
l43 338q13 113 -20 174zM761 970q-58 17 -115 17q-134 0 -204.5 -63.5t-87.5 -199.5l-43 -340q-12 -108 20 -168z" />
    <glyph glyph-name="ugrave" unicode="&#xf9;" 
d="M439 -19q-153 1 -231 107t-59 273l93 756h155l-92 -733q-30 -250 181 -252q174 0 344 194l99 791h155l-138 -1117h-155l21 169h-51q-43 -82 -131 -135t-191 -53zM633 1303l-281 373h238l192 -373h-149z" />
    <glyph glyph-name="uacute" unicode="&#xfa;" 
d="M439 -19q-153 1 -231 107t-59 273l93 756h155l-92 -733q-30 -250 181 -252q174 0 344 194l99 791h155l-138 -1117h-155l21 169h-51q-43 -82 -131 -135t-191 -53zM560 1303l285 373h239l-375 -373h-149z" />
    <glyph glyph-name="ucircumflex" unicode="&#xfb;" 
d="M439 -19q-153 1 -231 107t-59 273l93 756h155l-92 -733q-30 -250 181 -252q174 0 344 194l99 791h155l-138 -1117h-155l21 169h-51q-43 -82 -131 -135t-191 -53zM397 1327l-58 103l337 274h108l274 -274l-81 -103l-266 213z" />
    <glyph glyph-name="udieresis" unicode="&#xfc;" 
d="M439 -19q-153 1 -231 107t-59 273l93 756h155l-92 -733q-30 -250 181 -252q174 0 344 194l99 791h155l-138 -1117h-155l21 169h-51q-43 -82 -131 -135t-191 -53zM881 1331q-47 0 -73 19t-19 82t39 85q32 23 80 23q105 1 92 -103l-2 -9q-6 -58 -38 -78t-79 -19zM493 1331
q-47 0 -77 22t-16 84q12 101 119 103q104 0 92 -103l-2 -9q-7 -58 -38 -78t-78 -19z" />
    <glyph glyph-name="yacute" unicode="&#xfd;" 
d="M73 -218q93 -21 141 -20q174 0 270 219h-50l-233 1136h170l175 -992l415 992h164l-520 -1167q-148 -332 -426 -332q-59 0 -157 21zM492 1303l284 373h239l-375 -373h-148z" />
    <glyph glyph-name="thorn" unicode="&#xfe;" 
d="M501 -20q-132 0 -238 55l-51 -407h-154l229 1861h154l-67 -541h50q52 88 140 138t184 50q156 0 233 -113.5t52 -313.5l-39 -314q-24 -194 -156 -304.5t-337 -110.5zM708 983q-102 0 -185.5 -50t-168.5 -157l-71 -579q99 -78 243 -78t220.5 68t93.5 213l41 328
q17 134 -27 194.5t-146 60.5z" />
    <glyph glyph-name="ydieresis" unicode="&#xff;" 
d="M73 -218q93 -21 141 -20q174 0 270 219h-50l-233 1136h170l175 -992l415 992h164l-520 -1167q-148 -332 -426 -332q-59 0 -157 21zM883 1331q-47 0 -76 22t-16 84q12 101 118 102t93 -102l-2 -9q-6 -58 -38 -78t-79 -19zM495 1331q-47 0 -77 22t-16 84q12 101 119 103
q104 0 92 -103l-2 -9q-7 -58 -38 -78t-78 -19z" />
    <glyph glyph-name="Amacron" unicode="&#x100;" 
d="M884 0l-70 451h-471l-181 -451h-162l631 1489h155l264 -1489h-166zM791 590l-111 700l-282 -700h393zM406 1791l17 142h674l-17 -142h-674z" />
    <glyph glyph-name="amacron" unicode="&#x101;" 
d="M374 -19q-126 1 -216 77t-70 230q18 154 117 239q99 84 221 84h354l22 175q11 89 -39 146t-166 57q-115 0 -177 -40t-115 -169l-130 45q48 151 160 231t275 80t266 -79t85 -243l-67 -537q-11 -101 37 -129t156 -5l-18 -152q-114 -13 -199 22t-73 171h-32
q-58 -88 -161 -146q-104 -58 -230 -57zM412 127q211 0 331 171l22 184h-309q-188 0 -208 -168q-11 -92 26 -139q36 -48 138 -48zM330 1419l16 141h674l-16 -141h-674z" />
    <glyph glyph-name="Abreve" unicode="&#x102;" 
d="M884 0l-70 451h-471l-181 -451h-162l631 1489h155l264 -1489h-166zM791 590l-111 700l-282 -700h393zM726 1663q-168 1 -268 87t-76 291h162q-15 -134 35 -192t164 -58t177 58t82 192h162q-26 -205 -148 -291t-290 -87z" />
    <glyph glyph-name="abreve" unicode="&#x103;" 
d="M374 -19q-126 1 -216 77t-70 230q18 154 117 239q99 84 221 84h354l22 175q11 89 -39 146t-166 57q-115 0 -177 -40t-115 -169l-130 45q48 151 160 231t275 80t266 -79t85 -243l-67 -537q-11 -101 37 -129t156 -5l-18 -152q-114 -13 -199 22t-73 171h-32
q-58 -88 -161 -146q-104 -58 -230 -57zM412 127q211 0 331 171l22 184h-309q-188 0 -208 -168q-11 -92 26 -139q36 -48 138 -48zM650 1290q-168 0 -268 87t-77 291h162q-15 -134 35 -192t165 -58t177 58t81 192h162q-25 -206 -147 -292t-290 -86z" />
    <glyph glyph-name="Aogonek" unicode="&#x104;" 
d="M791 590l-111 700l-282 -700h393zM922 -397q-97 0 -163 59t-55 151q15 129 174 229l-64 409h-471l-181 -451h-162l631 1489h155l264 -1489h-126q-59 -59 -67 -121q-16 -121 106 -121q81 0 152 19l-18 -157q-78 -17 -175 -17z" />
    <glyph glyph-name="aogonek" unicode="&#x105;" 
d="M374 -19q-126 1 -216 77t-70 230q18 154 117 239q99 84 221 84h354l22 175q11 89 -39 146t-166 57q-115 0 -177 -40t-115 -169l-130 45q48 151 160 231t275 80t266 -79t85 -243l-67 -537q-11 -101 37 -129t156 -5l-18 -152q-95 -11 -170 12q-61 -59 -70 -123
q-16 -122 106 -122q81 0 152 19l-18 -157q-78 -17 -175 -17t-163 59t-55 151t84 159q38 35 77 62q-49 45 -40 150h-32q-58 -88 -161 -146q-104 -58 -230 -57zM412 127q211 0 331 171l22 184h-309q-188 0 -208 -168q-11 -92 26 -139q36 -48 138 -48z" />
    <glyph glyph-name="Cacute" unicode="&#x106;" 
d="M538 -19q-473 0 -406 529l56 462q69 536 540 536q230 0 330 -120t81 -375l-154 -19q7 209 -52 292q-59 82 -229 82t-252 -88t-108 -299l-59 -480q-24 -201 38 -291t231 -89q169 0 247 81t121 286l150 -19q-45 -253 -172 -371q-128 -118 -362 -117zM622 1676l285 372h238
l-374 -372h-149z" />
    <glyph glyph-name="cacute" unicode="&#x107;" 
d="M675 1136q207 0 302 -93t82 -282l-150 -7q7 127 -52 182q-59 54 -197 54q-280 -1 -312 -264l-43 -342q-15 -130 51 -194t202 -63q136 -1 206 45t91 154l150 -8q-67 -337 -458 -337q-221 -1 -321 103t-73 303l39 332q26 205 151 311t332 106zM497 1303l285 373h238
l-374 -373h-149z" />
    <glyph glyph-name="Ccircumflex" unicode="&#x108;" 
d="M538 -19q-473 0 -406 529l56 462q69 536 540 536q230 0 330 -120t81 -375l-154 -19q7 209 -52 292q-59 82 -229 82t-252 -88t-108 -299l-59 -480q-24 -201 38 -291t231 -89q169 0 247 81t121 286l150 -19q-45 -253 -172 -371q-128 -118 -362 -117zM456 1700l-58 102
l337 274h108l274 -274l-80 -102l-266 212z" />
    <glyph glyph-name="ccircumflex" unicode="&#x109;" 
d="M675 1136q207 0 302 -93t82 -282l-150 -7q7 127 -52 182q-59 54 -197 54q-280 -1 -312 -264l-43 -342q-15 -130 51 -194t202 -63q136 -1 206 45t91 154l150 -8q-67 -337 -458 -337q-221 -1 -321 103t-73 303l39 332q26 205 151 311t332 106zM428 1327l-57 103l336 274
h108l274 -274l-80 -103l-266 213z" />
    <glyph glyph-name="Cdotaccent" unicode="&#x10a;" 
d="M538 -19q-473 0 -406 529l56 462q69 536 540 536q230 0 330 -120t81 -375l-154 -19q7 209 -52 292q-59 82 -229 82t-252 -88t-108 -299l-59 -480q-24 -201 38 -291t231 -89q169 0 247 81t121 286l150 -19q-45 -253 -172 -371q-128 -118 -362 -117zM746 1704q-60 0 -98 21
t-26 85q12 102 151 102q61 0 96 -22t28 -85t-48 -82q-43 -19 -103 -19z" />
    <glyph glyph-name="cdotaccent" unicode="&#x10b;" 
d="M675 1136q207 0 302 -93t82 -282l-150 -7q7 127 -52 182q-59 54 -197 54q-280 -1 -312 -264l-43 -342q-15 -130 51 -194t202 -63q136 -1 206 45t91 154l150 -8q-67 -337 -458 -337q-221 -1 -321 103t-73 303l39 332q26 205 151 311t332 106zM700 1331q-60 0 -100 21
q-39 21 -25 85q12 101 151 103q61 0 99 -24t24 -88q-7 -58 -48 -78t-101 -19z" />
    <glyph glyph-name="Ccaron" unicode="&#x10c;" 
d="M538 -19q-473 0 -406 529l56 462q69 536 540 536q230 0 330 -120t81 -375l-154 -19q7 209 -52 292q-59 82 -229 82t-252 -88t-108 -299l-59 -480q-24 -201 38 -291t231 -89q169 0 247 81t121 286l150 -19q-45 -253 -172 -371q-128 -118 -362 -117zM691 1683l-274 272
l82 104l266 -214l315 214l56 -104l-337 -272h-108z" />
    <glyph glyph-name="ccaron" unicode="&#x10d;" 
d="M675 1136q207 0 302 -93t82 -282l-150 -7q7 127 -52 182q-59 54 -197 54q-280 -1 -312 -264l-43 -342q-15 -130 51 -194t202 -63q136 -1 206 45t91 154l150 -8q-67 -337 -458 -337q-221 -1 -321 103t-73 303l39 332q26 205 151 311t332 106zM644 1311l-273 272l81 104
l267 -214l314 214l56 -104l-337 -272h-108z" />
    <glyph glyph-name="Dcaron" unicode="&#x10e;" 
d="M490 140q177 0 278 104t122 266l56 462q20 162 -55 270t-252 108h-213l-149 -1210h213zM652 1489q238 0 357 -143t89 -383l-54 -444q-28 -236 -182 -378q-155 -141 -393 -141h-363l183 1489h363zM674 1683l-274 272l82 104l266 -214l315 214l56 -104l-337 -272h-108z" />
    <glyph glyph-name="dcaron" unicode="&#x10f;" 
d="M687 1138q120 0 236 -56l51 407h154l-182 -1489h-155l21 169h-51q-55 -89 -139 -138t-183 -50q-156 0 -233 110t-51 315l39 316q24 196 154 306t339 110zM668 996q-148 0 -226 -69t-96 -210l-39 -328q-34 -257 183 -257q176 0 342 209l73 579q-89 76 -237 76zM1231 1313
l210 549h235l-328 -549h-117z" />
    <glyph glyph-name="Dcroat" unicode="&#x110;" 
d="M490 140q177 0 278 104t122 266l56 462q20 162 -55.5 270t-251.5 108h-213l-55 -454h264l-19 -155h-264l-75 -601h213zM652 1489q238 0 357 -143t89 -383l-54 -444q-28 -236 -182.5 -377.5t-392.5 -141.5h-363l91 741h-177l19 155h177l73 593h363z" />
    <glyph glyph-name="dcroat" unicode="&#x111;" 
d="M678 1054q120 0 236 -56l22 188h-348l19 141h348l19 162h154l-18 -162h169l-19 -141h-169l-145 -1186h-155l21 169h-51q-54 -91 -139.5 -139.5t-180.5 -48.5q-156 0 -233.5 112t-52.5 313l27 231q24 194 156.5 305.5t339.5 111.5zM480 132q98 0 182.5 51.5t169.5 157.5
l62 495q-92 76 -238 76t-222.5 -68.5t-92.5 -210.5l-28 -220q-34 -281 167 -281z" />
    <glyph glyph-name="Emacron" unicode="&#x112;" 
d="M106 0l183 1489h875l-17 -139h-721l-57 -466h635l-17 -139h-635l-75 -605h721l-17 -140h-875zM439 1791l17 142h674l-17 -142h-674z" />
    <glyph glyph-name="emacron" unicode="&#x113;" 
d="M648 994q-268 0 -302 -287l-7 -48h532l6 32q37 305 -229 303zM536 121q130 0 191 41t102 125l148 -47q-63 -134 -163 -196t-294 -62q-196 0 -295 102q-99 104 -72 309l39 324q26 212 157 315q131 104 319 104t289 -105q102 -105 74 -329l-20 -171h-687l-17 -134
q-19 -149 40 -213t189 -63zM365 1419l17 141h674l-17 -141h-674z" />
    <glyph glyph-name="Ebreve" unicode="&#x114;" 
d="M106 0l183 1489h875l-17 -139h-721l-57 -466h635l-17 -139h-635l-75 -605h721l-17 -140h-875zM760 1663q-168 1 -268 87t-77 291h162q-15 -134 35 -192t164 -58t177 58t82 192h162q-25 -205 -147 -291t-290 -87z" />
    <glyph glyph-name="ebreve" unicode="&#x115;" 
d="M648 994q-268 0 -302 -287l-7 -48h532l6 32q37 305 -229 303zM536 121q130 0 191 41t102 125l148 -47q-63 -134 -163 -196t-294 -62q-196 0 -295 102q-99 104 -72 309l39 324q26 212 157 315q131 104 319 104t289 -105q102 -105 74 -329l-20 -171h-687l-17 -134
q-19 -149 40 -213t189 -63zM685 1290q-167 0 -267 87t-77 291h162q-15 -134 35 -192t164 -58t177 58t82 192h162q-26 -206 -148 -292t-290 -86z" />
    <glyph glyph-name="Edotaccent" unicode="&#x116;" 
d="M106 0l183 1489h875l-17 -139h-721l-57 -466h635l-17 -139h-635l-75 -605h721l-17 -140h-875zM764 1704q-60 0 -95 19t-29 82t48 85t103 22t99 -23t24 -89q-7 -58 -48 -77q-42 -19 -102 -19z" />
    <glyph glyph-name="edotaccent" unicode="&#x117;" 
d="M648 994q-268 0 -302 -287l-7 -48h532l6 32q37 305 -229 303zM536 121q130 0 191 41t102 125l148 -47q-63 -134 -163 -196t-294 -62q-196 0 -295 102q-99 104 -72 309l39 324q26 212 157 315q131 104 319 104t289 -105q102 -105 74 -329l-20 -171h-687l-17 -134
q-19 -149 40 -213t189 -63zM690 1331q-60 0 -99 21t-25 85q7 58 48 80q40 23 102 23t100 -24t24 -88q-7 -58 -48 -78q-42 -20 -102 -19z" />
    <glyph glyph-name="Eogonek" unicode="&#x118;" 
d="M760 -397q-97 0 -163 59t-54 156t115 182h-552l183 1489h875l-17 -139h-721l-57 -466h635l-17 -139h-635l-75 -605h721l-17 -140h-219q-59 -59 -67 -121q-16 -121 106 -121q81 0 152 19l-18 -157q-78 -17 -175 -17z" />
    <glyph glyph-name="eogonek" unicode="&#x119;" 
d="M523 -19q-199 -1 -298 103t-72 309l39 324q26 212 157 315q131 104 319 104t289 -105q102 -105 74 -329l-20 -171h-687l-17 -134q-19 -149 40 -213t189 -63q130 0 191 41t102 125l148 -47q-92 -195 -266 -238q-58 -56 -71 -134q-6 -52 22 -81t72 -29q96 0 167 19
l-18 -157q-78 -17 -175 -17t-163 59t-55 151t83 159q6 6 13 11q-30 -2 -63 -2zM648 994q-268 0 -302 -287l-7 -48h532l6 32q37 305 -229 303z" />
    <glyph glyph-name="Ecaron" unicode="&#x11a;" 
d="M106 0l183 1489h875l-17 -139h-721l-57 -466h635l-17 -139h-635l-75 -605h721l-17 -140h-875zM728 1683l-274 272l82 104l266 -214l315 214l56 -104l-337 -272h-108z" />
    <glyph glyph-name="ecaron" unicode="&#x11b;" 
d="M648 994q-268 0 -302 -287l-7 -48h532l6 32q37 305 -229 303zM536 121q130 0 191 41t102 125l148 -47q-63 -134 -163 -196t-294 -62q-196 0 -295 102q-99 104 -72 309l39 324q26 212 157 315q131 104 319 104t289 -105q102 -105 74 -329l-20 -171h-687l-17 -134
q-19 -149 40 -213t189 -63zM635 1311l-274 272l82 104l266 -214l315 214l56 -104l-337 -272h-108z" />
    <glyph glyph-name="Gcircumflex" unicode="&#x11c;" 
d="M550 -19q-230 0 -341 139q-109 139 -79 386l58 468q32 262 172 398t359 136q221 0 313 -114t78 -353l-159 -19q11 186 -45 266t-212 80t-240 -88t-110 -295l-59 -488q-26 -205 43 -291t240 -85q171 0 253 102t112 343h-339l19 140h493l-22 -175q-34 -266 -169 -408
t-365 -142zM477 1700l-58 102l337 274h108l274 -274l-80 -102l-267 212z" />
    <glyph glyph-name="gcircumflex" unicode="&#x11d;" 
d="M326 -255h355q179 0 196 153q9 78 -30 113t-110 36h-560l-17 -138q-11 -84 32 -124t134 -40zM559 566q222 0 243 181l8 52q11 97 -40 139t-159 43q-223 0 -244 -182l-8 -52q-11 -95 41 -138t159 -43zM640 -391h-323q-151 0 -243 64q-91 64 -72 213q9 88 59 140t134 60
l4 39q-59 7 -91 51t-22 126t63 144q52 64 162 73l4 34q-76 32 -96 94t-14 113l7 61q15 125 124 211t293 85h496l-21 -158l-257 46l-4 -35q67 -20 94 -79t20 -115l-7 -59q-15 -125 -114 -206t-304 -81h-214q-44 0 -70 -26t-34 -88q-15 -124 119 -122h399q140 0 225 -70
t65 -222q-20 -154 -128 -224q-110 -70 -254 -69zM378 1327l-58 103l337 274h108l274 -274l-80 -103l-266 213z" />
    <glyph glyph-name="Gbreve" unicode="&#x11e;" 
d="M550 -19q-230 0 -341 139q-109 139 -79 386l58 468q32 262 172 398t359 136q221 0 313 -114t78 -353l-159 -19q11 186 -45 266t-212 80t-240 -88t-110 -295l-59 -488q-26 -205 43 -291t240 -85q171 0 253 102t112 343h-339l19 140h493l-22 -175q-34 -266 -169 -408
t-365 -142zM761 1663q-167 1 -267 87t-77 291h162q-15 -134 35 -192t164 -58t177 58t82 192h162q-26 -205 -148 -291t-290 -87z" />
    <glyph glyph-name="gbreve" unicode="&#x11f;" 
d="M326 -255h355q179 0 196 153q9 78 -30 113t-110 36h-560l-17 -138q-11 -84 32 -124t134 -40zM559 566q222 0 243 181l8 52q11 97 -40 139t-159 43q-223 0 -244 -182l-8 -52q-11 -95 41 -138t159 -43zM640 -391h-323q-151 0 -243 64q-91 64 -72 213q9 88 59 140t134 60
l4 39q-59 7 -91 51t-22 126t63 144q52 64 162 73l4 34q-76 32 -96 94t-14 113l7 61q15 125 124 211t293 85h496l-21 -158l-257 46l-4 -35q67 -20 94 -79t20 -115l-7 -59q-15 -125 -114 -206t-304 -81h-214q-44 0 -70 -26t-34 -88q-15 -124 119 -122h399q140 0 225 -70
t65 -222q-20 -154 -128 -224q-110 -70 -254 -69zM683 1290q-167 0 -267 87t-77 291h162q-15 -134 35 -192t164 -58t177 58t82 192h162q-26 -206 -148 -292t-290 -86z" />
    <glyph glyph-name="Gdotaccent" unicode="&#x120;" 
d="M550 -19q-230 0 -341 139q-109 139 -79 386l58 468q32 262 172 398t359 136q221 0 313 -114t78 -353l-159 -19q11 186 -45 266t-212 80t-240 -88t-110 -295l-59 -488q-26 -205 43 -291t240 -85q171 0 253 102t112 343h-339l19 140h493l-22 -175q-34 -266 -169 -408
t-365 -142zM746 1704q-60 0 -98 21t-26 85q12 102 151 102q61 0 96 -22t28 -85t-48 -82q-43 -19 -103 -19z" />
    <glyph glyph-name="gdotaccent" unicode="&#x121;" 
d="M326 -255h355q179 0 196 153q9 78 -30 113t-110 36h-560l-17 -138q-11 -84 32 -124t134 -40zM559 566q222 0 243 181l8 52q11 97 -40 139t-159 43q-223 0 -244 -182l-8 -52q-11 -95 41 -138t159 -43zM640 -391h-323q-151 0 -243 64q-91 64 -72 213q9 88 59 140t134 60
l4 39q-59 7 -91 51t-22 126t63 144q52 64 162 73l4 34q-76 32 -96 94t-14 113l7 61q15 125 124 211t293 85h496l-21 -158l-257 46l-4 -35q67 -20 94 -79t20 -115l-7 -59q-15 -125 -114 -206t-304 -81h-214q-44 0 -70 -26t-34 -88q-15 -124 119 -122h399q140 0 225 -70
t65 -222q-20 -154 -128 -224q-110 -70 -254 -69zM688 1331q-60 0 -99 21t-25 85q12 101 151 103q61 0 99 -24t24 -88q-7 -58 -48 -78q-42 -20 -102 -19z" />
    <glyph glyph-name="Gcommaaccent" unicode="&#x122;" 
d="M251 -559l216 373h239l-306 -373h-149zM550 -19q-230 0 -341 139q-109 139 -79 386l58 468q32 262 172 398t359 136q221 0 313 -114t78 -353l-159 -19q11 186 -45 266t-212 80t-240 -88t-110 -295l-59 -488q-26 -205 43 -291t240 -85q171 0 253 102t112 343h-339l19 140
h493l-22 -175q-34 -266 -169 -408t-365 -142z" />
    <glyph glyph-name="gcommaaccent" unicode="&#x123;" 
d="M326 -255h355q179 0 196 153q9 78 -30 113t-110 36h-560l-17 -138q-11 -84 32 -124t134 -40zM559 566q222 0 243 181l8 52q11 97 -40 139t-159 43q-223 0 -244 -182l-8 -52q-11 -95 41 -138t159 -43zM640 -391h-323q-151 0 -243 64q-91 64 -72 213q9 88 59 140t134 60
l4 39q-59 7 -91 51t-22 126t63 144q52 64 162 73l4 34q-76 32 -96 94t-14 113l7 61q15 125 124 211t293 85h496l-21 -158l-257 46l-4 -35q67 -20 94 -79t20 -115l-7 -59q-15 -125 -114 -206t-304 -81h-214q-44 0 -70 -26t-34 -88q-15 -124 119 -122h399q140 0 225 -70
t65 -222q-20 -154 -128 -224q-110 -70 -254 -69zM531 1303l305 373h149l-216 -373h-238z" />
    <glyph glyph-name="Hcircumflex" unicode="&#x124;" 
d="M106 0l183 1489h154l-74 -614h528l75 614h154l-182 -1489h-155l90 735h-529l-89 -735h-155zM439 1700l-57 102l337 274h108l273 -274l-80 -102l-266 212z" />
    <glyph glyph-name="hcircumflex" unicode="&#x125;" 
d="M750 1136q153 0 231 -102t58 -276l-93 -758h-155l90 732q15 123 -31 187t-139 64q-183 0 -355 -192l-97 -791h-155l183 1489h154l-67 -541h50q47 86 135 137t191 51zM112 1700l-58 102l337 274h108l274 -274l-80 -102l-267 212z" />
    <glyph glyph-name="Hbar" unicode="&#x126;" 
d="M341 665l-82 -665h-155l129 1048h-179l19 153h178l36 288h154l-35 -288h532l36 288h154l-35 -288h179l-19 -153h-179l-128 -1048h-155l82 665h-532zM357 806h533l30 242h-533z" />
    <glyph glyph-name="hbar" unicode="&#x127;" 
d="M754 1052q147 0 222.5 -90.5t56.5 -244.5l-87 -717h-155l84 687q26 212 -184 212q-168 0 -347 -199l-85 -700h-155l145 1186h-169l19 141h169l19 162h154l-18 -162h348l-19 -141h-348l-41 -330h50q47 91 140 143.5t201 52.5z" />
    <glyph glyph-name="Itilde" unicode="&#x128;" 
d="M106 0l17 140h342l149 1210h-342l17 139h837l-16 -139h-343l-149 -1210h343l-17 -140h-838zM894 1834q84 0 106 205h123l-4 -28q-17 -137 -85 -227t-174 -90q-60 0 -95 36t-59 76q-26 41 -48 76q-22 36 -54 36t-60 -40t-39 -147l-4 -18h-123l4 28q17 134 84 225
q68 91 174 91q68 0 104 -35t62 -75q22 -43 40 -78t48 -35z" />
    <glyph glyph-name="itilde.salt_serifs" unicode="&#xe029;" 
d="M620 145h384l-19 -145h-536l119 972h-384l19 145h536zM806 1462q83 0 106 204h123l-4 -28q-17 -138 -85 -227t-173 -89q-60 0 -95 35q-34 35 -60 77t-47 76q-21 35 -54 35t-61 -40t-39 -146l-4 -18h-123l4 27q17 134 85 226t174 91q67 0 103 -35t63 -75q22 -43 40 -78
t47 -35z" />
    <glyph glyph-name="itilde.salt_serifs" unicode="&#x129;" 
d="M620 145h384l-19 -145h-536l119 972h-384l19 145h536zM806 1462q83 0 106 204h123l-4 -28q-17 -138 -85 -227t-173 -89q-60 0 -95 35q-34 35 -60 77t-47 76q-21 35 -54 35t-61 -40t-39 -146l-4 -18h-123l4 27q17 134 85 226t174 91q67 0 103 -35t63 -75q22 -43 40 -78
t47 -35z" />
    <glyph glyph-name="Imacron" unicode="&#x12a;" 
d="M106 0l17 140h342l149 1210h-342l17 139h837l-16 -139h-343l-149 -1210h343l-17 -140h-838zM404 1791l17 142h674l-17 -142h-674z" />
    <glyph glyph-name="imacron.salt_serifs" unicode="&#xe02a;" 
d="M620 145h384l-19 -145h-536l119 972h-384l19 145h536zM317 1419l16 141h674l-17 -141h-673z" />
    <glyph glyph-name="imacron.salt_serifs" unicode="&#x12b;" 
d="M620 145h384l-19 -145h-536l119 972h-384l19 145h536zM317 1419l16 141h674l-17 -141h-673z" />
    <glyph glyph-name="Ibreve" unicode="&#x12c;" 
d="M106 0l17 140h342l149 1210h-342l17 139h837l-16 -139h-343l-149 -1210h343l-17 -140h-838zM724 1663q-168 1 -268 87t-76 291h162q-15 -134 35 -192t164 -58t177 58t82 192h162q-26 -205 -148 -291t-290 -87z" />
    <glyph glyph-name="ibreve.salt_serifs" unicode="&#xe02b;" 
d="M620 145h384l-19 -145h-536l119 972h-384l19 145h536zM637 1290q-167 0 -267 87t-78 291h162q-14 -134 36 -192t164 -58t176 58q63 58 82 192h162q-26 -206 -148 -292t-289 -86z" />
    <glyph glyph-name="ibreve.salt_serifs" unicode="&#x12d;" 
d="M620 145h384l-19 -145h-536l119 972h-384l19 145h536zM637 1290q-167 0 -267 87t-78 291h162q-14 -134 36 -192t164 -58t176 58q63 58 82 192h162q-26 -206 -148 -292t-289 -86z" />
    <glyph glyph-name="Iogonek" unicode="&#x12e;" 
d="M618 -242q93 0 166 19l-19 -157q-78 -17 -174 -17q-97 0 -164 59q-66 59 -54 156t115 182h-382l17 140h342l149 1210h-342l17 139h837l-16 -139h-343l-149 -1210h343l-17 -140h-351q-23 -23 -37 -47q-62 -113 -10 -166q28 -29 72 -29z" />
    <glyph glyph-name="iogonek.salt_serifs" unicode="&#xe02c;" 
d="M573 -242q82 0 153 19l-19 -157q-78 -17 -174 -17q-97 0 -163 59t-55 151t83 159q26 24 53 44l117 956h-384l19 145h536l-119 -972h384l-19 -145h-450q-58 -58 -67 -121q-17 -121 105 -121zM688 1329q-60 0 -99 21t-25 85q12 103 151 103q61 0 99 -24t24 -88
q-7 -58 -48 -78q-42 -20 -102 -19z" />
    <glyph glyph-name="iogonek.salt_serifs" unicode="&#x12f;" 
d="M573 -242q82 0 153 19l-19 -157q-78 -17 -174 -17q-97 0 -163 59t-55 151t83 159q26 24 53 44l117 956h-384l19 145h536l-119 -972h384l-19 -145h-450q-58 -58 -67 -121q-17 -121 105 -121zM688 1329q-60 0 -99 21t-25 85q12 103 151 103q61 0 99 -24t24 -88
q-7 -58 -48 -78q-42 -20 -102 -19z" />
    <glyph glyph-name="Idotaccent" unicode="&#x130;" 
d="M106 0l17 140h342l149 1210h-342l17 139h837l-16 -139h-343l-149 -1210h343l-17 -140h-838zM730 1704q-60 0 -99 21q-38 21 -26 85q12 102 151 102q61 0 99 -23t24 -89q-7 -58 -48 -77t-101 -19z" />
    <glyph glyph-name="dotlessi.salt_serifs" unicode="&#xe024;" 
d="M620 145h384l-19 -145h-536l119 972h-384l19 145h536z" />
    <glyph glyph-name="dotlessi.salt_serifs" unicode="&#x131;" 
d="M620 145h384l-19 -145h-536l119 972h-384l19 145h536z" />
    <glyph glyph-name="IJ" unicode="&#x132;" 
d="M686 -19q-165 0 -238.5 107t-54.5 385l167 20q-15 -214 11.5 -288.5t124.5 -74.5q178 0 216 324l110 888h-335l17 147h497l-127 -1029q-26 -222 -124.5 -350.5t-263.5 -128.5zM195 0h-161l182 1489h162z" />
    <glyph glyph-name="ij.salt_serifs" unicode="&#xe02d;" 
d="M540 -223q99 0 167 54t84 178l118 963h-224l19 145h380l-140 -1130q-24 -192 -144 -283t-277 -91q-113 0 -225 41l56 165q87 -42 186 -42zM300 0h-157l138 1117h157zM1027 1331q-62 0 -101 21t-25 85q7 58 49 80q42 23 104 23q63 0 98 -22t28 -85q-7 -62 -49 -82
t-104 -20zM386 1331q-62 0 -101 21t-24 85q7 58 48 80q41 23 104 23t100 -24t23 -88q-8 -58 -48 -78t-102 -19z" />
    <glyph glyph-name="ij.salt_serifs" unicode="&#x133;" 
d="M540 -223q99 0 167 54t84 178l118 963h-224l19 145h380l-140 -1130q-24 -192 -144 -283t-277 -91q-113 0 -225 41l56 165q87 -42 186 -42zM300 0h-157l138 1117h157zM1027 1331q-62 0 -101 21t-25 85q7 58 49 80q42 23 104 23q63 0 98 -22t28 -85q-7 -62 -49 -82
t-104 -20zM386 1331q-62 0 -101 21t-24 85q7 58 48 80q41 23 104 23t100 -24t23 -88q-8 -58 -48 -78t-102 -19z" />
    <glyph glyph-name="Jcircumflex" unicode="&#x134;" 
d="M488 -19q-222 -1 -320 117q-96 118 -75 367l155 21q-13 -216 39 -290t211 -75q308 0 353 344l108 885h-337l17 139h491l-125 -1018q-31 -240 -163 -365t-354 -125zM598 1700l-58 102l337 274h108l274 -274l-80 -102l-267 212z" />
    <glyph glyph-name="jcircumflex" unicode="&#x135;" 
d="M336 -223q256 0 288 232l117 963h-484l19 145h636l-139 -1130q-23 -194 -153 -284t-283 -90t-272 41l56 165q96 -42 215 -42zM514 1327l-58 103l337 274h108l274 -274l-80 -103l-266 213z" />
    <glyph glyph-name="Kcommaaccent" unicode="&#x136;" 
d="M350 728l-89 -728h-155l183 1489h154l-76 -621h56l625 621h183l-695 -683l507 -806h-190l-442 728h-61zM229 -559l216 373h238l-305 -373h-149z" />
    <glyph glyph-name="kcommaaccent" unicode="&#x137;" 
d="M415 521l-63 -521h-155l183 1489h154l-102 -832h89l391 460h194l-477 -523l335 -594h-178l-281 521h-90zM216 -559l216 373h238l-305 -373h-149z" />
    <glyph glyph-name="kgreenlandic" unicode="&#x138;" 
d="M415 521l-63 -521h-155l138 1117h155l-58 -460h89l391 460h194l-477 -523l335 -594h-178l-281 521h-90z" />
    <glyph glyph-name="Lacute" unicode="&#x139;" 
d="M192 0l182 1489h153l-166 -1349h600l-17 -140h-752zM460 1676l285 372h238l-374 -372h-149z" />
    <glyph glyph-name="lacute.salt_serifs_round" unicode="&#xe057;" 
d="M983 32q-80 -39 -220 -39t-214 92t-54 259l123 1000h-387l17 145h540l-144 -1165q-22 -188 149 -188q100 0 173 33zM398 1676l285 372h239l-375 -372h-149z" />
    <glyph glyph-name="lacute.salt_serifs_round" unicode="&#x13a;" 
d="M983 32q-80 -39 -220 -39t-214 92t-54 259l123 1000h-387l17 145h540l-144 -1165q-22 -188 149 -188q100 0 173 33zM398 1676l285 372h239l-375 -372h-149z" />
    <glyph glyph-name="Lcommaaccent" unicode="&#x13b;" 
d="M192 0l182 1489h153l-166 -1349h600l-17 -140h-752zM253 -559l216 373h238l-305 -373h-149z" />
    <glyph glyph-name="lcommaaccent.salt_serifs_round" unicode="&#xe058;" 
d="M983 32q-80 -39 -220 -39t-214 92t-54 259l123 1000h-387l17 145h540l-144 -1165q-22 -188 149 -188q100 0 173 33zM302 -559l216 373h238l-305 -373h-149z" />
    <glyph glyph-name="lcommaaccent.salt_serifs_round" unicode="&#x13c;" 
d="M983 32q-80 -39 -220 -39t-214 92t-54 259l123 1000h-387l17 145h540l-144 -1165q-22 -188 149 -188q100 0 173 33zM302 -559l216 373h238l-305 -373h-149z" />
    <glyph glyph-name="Lcaron" unicode="&#x13d;" 
d="M192 0l182 1489h153l-166 -1349h600l-17 -140h-752zM741 940l210 549h235l-328 -549h-117z" />
    <glyph glyph-name="lcaron.salt_serifs_round" unicode="&#xe059;" 
d="M983 32q-80 -39 -220 -39t-214 92t-54 259l123 1000h-387l17 145h540l-144 -1165q-22 -188 149 -188q100 0 173 33zM927 1313l211 549h234l-328 -549h-117z" />
    <glyph glyph-name="lcaron.salt_serifs_round" unicode="&#x13e;" 
d="M983 32q-80 -39 -220 -39t-214 92t-54 259l123 1000h-387l17 145h540l-144 -1165q-22 -188 149 -188q100 0 173 33zM927 1313l211 549h234l-328 -549h-117z" />
    <glyph glyph-name="Ldot" unicode="&#x13f;" 
d="M192 0l182 1489h153l-166 -1349h600l-17 -140h-752zM1098 776q-60 0 -99 21q-38 21 -25 86q12 102 151 102q61 0 98 -23t24 -89q-7 -57 -48 -77t-101 -20z" />
    <glyph glyph-name="ldot.salt_serifs_round" unicode="&#xe05a;" 
d="M983 32q-80 -39 -220 -39t-214 92t-54 259l123 1000h-387l17 145h540l-144 -1165q-22 -188 149 -188q100 0 173 33zM1182 572q-60 0 -99 21q-38 21 -25 85q12 102 150 102q61 0 99 -23t24 -89q-7 -58 -48 -77t-101 -19z" />
    <glyph glyph-name="ldot.salt_serifs_round" unicode="&#x140;" 
d="M983 32q-80 -39 -220 -39t-214 92t-54 259l123 1000h-387l17 145h540l-144 -1165q-22 -188 149 -188q100 0 173 33zM1182 572q-60 0 -99 21q-38 21 -25 85q12 102 150 102q61 0 99 -23t24 -89q-7 -58 -48 -77t-101 -19z" />
    <glyph glyph-name="Lslash" unicode="&#x141;" 
d="M192 0l84 685l-185 -58l17 131l184 57l82 674h153l-76 -621l450 143l-17 -130l-448 -144l-75 -597h600l-17 -140h-752z" />
    <glyph glyph-name="lslash.salt_serifs_round" unicode="&#xe05b;" 
d="M983 32q-80 -39 -220 -39t-214 92t-54 259l39 324l-271 -78l16 131l272 78l67 545h-387l17 145h540l-79 -646l270 79l-16 -131l-270 -78l-49 -389q-22 -188 149 -188q95 0 173 33z" />
    <glyph glyph-name="lslash.salt_serifs_round" unicode="&#x142;" 
d="M983 32q-80 -39 -220 -39t-214 92t-54 259l39 324l-271 -78l16 131l272 78l67 545h-387l17 145h540l-79 -646l270 79l-16 -131l-270 -78l-49 -389q-22 -188 149 -188q95 0 173 33z" />
    <glyph glyph-name="Nacute" unicode="&#x143;" 
d="M715 0l-307 1318l-162 -1318h-140l183 1489h219l317 -1323l162 1323h139l-182 -1489h-229zM566 1676l285 372h238l-374 -372h-149z" />
    <glyph glyph-name="nacute" unicode="&#x144;" 
d="M748 1136q156 0 234 -102t57 -278l-93 -756h-155l90 726q15 127 -31 192t-139 65q-180 0 -355 -199l-97 -784h-155l138 1117h155l-23 -169h50q52 86 140 137t184 51zM529 1303l285 373h238l-374 -373h-149z" />
    <glyph glyph-name="Ncommaaccent" unicode="&#x145;" 
d="M195 -559l216 373h239l-306 -373h-149zM715 0l-307 1318l-162 -1318h-140l183 1489h219l317 -1323l162 1323h139l-182 -1489h-229z" />
    <glyph glyph-name="ncommaaccent" unicode="&#x146;" 
d="M233 -559l216 373h238l-305 -373h-149zM748 1136q156 0 234 -102t57 -278l-93 -756h-155l90 726q15 127 -31 192t-139 65q-180 0 -355 -199l-97 -784h-155l138 1117h155l-23 -169h50q52 86 140 137t184 51z" />
    <glyph glyph-name="Ncaron" unicode="&#x147;" 
d="M715 0l-307 1318l-162 -1318h-140l183 1489h219l317 -1323l162 1323h139l-182 -1489h-229zM711 1683l-273 272l81 104l267 -214l314 214l56 -104l-337 -272h-108z" />
    <glyph glyph-name="ncaron" unicode="&#x148;" 
d="M748 1136q156 0 234 -102t57 -278l-93 -756h-155l90 726q15 127 -31 192t-139 65q-180 0 -355 -199l-97 -784h-155l138 1117h155l-23 -169h50q52 86 140 137t184 51zM668 1311l-273 272l82 104l266 -214l315 214l55 -104l-337 -272h-108z" />
    <glyph glyph-name="napostrophe" unicode="&#x149;" 
d="M748 1136q156 0 234 -102t57 -278l-93 -756h-155l90 726q15 127 -31 192t-139 65q-180 0 -355 -199l-97 -784h-155l138 1117h155l-23 -169h50q52 86 140 137t184 51zM67 1303l285 373h238l-374 -373h-149z" />
    <glyph glyph-name="Eng" unicode="&#x14a;" 
d="M740 1355q-96 0 -171.5 -59.5t-168.5 -161.5l-139 -1134h-155l183 1489h154l-24 -199h50q54 99 145.5 158.5t193.5 59.5q151 0 223.5 -103.5t50.5 -276.5l-129 -1046q-28 -233 -152.5 -351t-297.5 -118q-94 0 -263 65l54 164q149 -65 242 -65t168.5 75t97.5 254l121 991
q17 138 -35 198t-148 60z" />
    <glyph glyph-name="eng" unicode="&#x14b;" 
d="M582 -223q79 0 136.5 50t72.5 167l93 760q26 229 -182 229q-169 0 -346 -199l-97 -784h-155l138 1117h155l-23 -169h50q52 86 142.5 137t194.5 51q151 0 225.5 -94t56.5 -253l-101 -817q-22 -181 -129 -270t-254 -89q-90 0 -211 41l56 165q99 -42 178 -42z" />
    <glyph glyph-name="Omacron" unicode="&#x14c;" 
d="M540 121q164 0 244 88t104 297l58 470q26 212 -32 302t-222 90t-243 -90q-80 -90 -106 -302l-58 -470q-25 -209 33 -297t222 -88zM524 -19q-222 0 -324 136q-100 136 -68 397l56 454q32 266 166 403t356 137t322 -137t68 -403l-56 -454q-32 -261 -165 -397t-355 -136z
M404 1791l17 142h674l-17 -142h-674z" />
    <glyph glyph-name="omacron" unicode="&#x14d;" 
d="M540 127q134 0 208 63t92 197l41 335q34 268 -234 268t-299 -269l-43 -336q-15 -134 43 -196t192 -62zM523 -19q-203 1 -299 107t-71 303l39 328q26 201 148 309t325 108t299 -108t71 -307l-41 -326q-24 -199 -146 -307t-325 -107zM363 1419l17 141h674l-17 -141h-674z
" />
    <glyph glyph-name="Obreve" unicode="&#x14e;" 
d="M540 121q164 0 244 88t104 297l58 470q26 212 -32 302t-222 90t-243 -90q-80 -90 -106 -302l-58 -470q-25 -209 33 -297t222 -88zM524 -19q-222 0 -324 136q-100 136 -68 397l56 454q32 266 166 403t356 137t322 -137t68 -403l-56 -454q-32 -261 -165 -397t-355 -136z
M724 1663q-168 1 -268 87t-76 291h162q-15 -134 35 -192t164 -58t177 58t82 192h162q-26 -205 -148 -291t-290 -87z" />
    <glyph glyph-name="obreve" unicode="&#x14f;" 
d="M540 127q134 0 208 63t92 197l41 335q34 268 -234 268t-299 -269l-43 -336q-15 -134 43 -196t192 -62zM523 -19q-203 1 -299 107t-71 303l39 328q26 201 148 309t325 108t299 -108t71 -307l-41 -326q-24 -199 -146 -307t-325 -107zM681 1290q-167 0 -267 87t-77 291h162
q-15 -134 35 -192t164 -58t177 58t82 192h162q-26 -206 -148 -292t-290 -86z" />
    <glyph glyph-name="Ohungarumlaut" unicode="&#x150;" 
d="M540 121q164 0 244 88t104 297l58 470q26 212 -32 302t-222 90t-243 -90q-80 -90 -106 -302l-58 -470q-25 -209 33 -297t222 -88zM524 -19q-222 0 -324 136q-100 136 -68 397l56 454q32 266 166 403t356 137t322 -137t68 -403l-56 -454q-32 -261 -165 -397t-355 -136z
M428 1676l145 372h231l-258 -372h-118zM821 1676l145 372h231l-259 -372h-117z" />
    <glyph glyph-name="ohungarumlaut" unicode="&#x151;" 
d="M540 127q134 0 208 63t92 197l41 335q34 268 -234 268t-299 -269l-43 -336q-15 -134 43 -196t192 -62zM523 -19q-203 1 -299 107t-71 303l39 328q26 201 148 309t325 108t299 -108t71 -307l-41 -326q-24 -199 -146 -307t-325 -107zM389 1303l145 373h231l-259 -373h-117z
M782 1303l145 373h231l-259 -373h-117z" />
    <glyph glyph-name="OE" unicode="&#x152;" 
d="M398 117h164l153 1255h-164q-151 0 -240 -112.5t-112 -285.5l-58 -468q-20 -175 43 -282t214 -107zM387 0q-210 0 -311.5 139.5t-71.5 372.5l56 452q28 238 163.5 381.5t344.5 143.5h741l-15 -121h-439l-60 -484h449l-15 -121h-449l-78 -642h439l-15 -121h-739z" />
    <glyph glyph-name="oe" unicode="&#x153;" 
d="M304 102q85 0 136.5 70t71.5 230l35 300q39 313 -132 313t-210 -311l-36 -302q-20 -160 15 -230t120 -70zM885 1018q-172 0 -202 -245l-16 -138h342l15 121q33 262 -139 262zM885 1136q157 0 231 -90.5t51 -278.5l-29 -236h-485l-24 -198q-15 -127 19.5 -180.5t122 -53.5
t126 31.5t60.5 117.5l145 -6q-32 -128 -107 -194.5t-220 -66.5q-190 0 -241 144q-99 -144 -260 -144q-134 0 -203 105.5t-43 321.5l35 294q28 220 124 327t230 107q166 0 223 -144q88 144 245 144z" />
    <glyph glyph-name="Racute" unicode="&#x154;" 
d="M799 1489q423 0 376 -387l-15 -112q-44 -366 -395 -398l287 -592h-179l-285 590h-255l-72 -590h-155l183 1489h510zM707 726q143 0 213 62t85 201l15 117q15 128 -39 186t-197 58h-358l-76 -624h357zM672 1676l285 372h238l-374 -372h-149z" />
    <glyph glyph-name="racute" unicode="&#x155;" 
d="M750 983q-168 0 -303 -181l-99 -802h-153l138 1117h153l-22 -173h52q91 192 309 192q113 0 181 -80t52 -229l-21 -164h-151l13 106q13 112 -24 163t-125 51zM564 1303l285 373h238l-374 -373h-149z" />
    <glyph glyph-name="Rcommaaccent" unicode="&#x156;" 
d="M799 1489q423 0 376 -387l-15 -112q-44 -366 -395 -398l287 -592h-179l-285 590h-255l-72 -590h-155l183 1489h510zM707 726q143 0 213 62t85 201l15 117q15 128 -39 186t-197 58h-358l-76 -624h357zM209 -559l215 373h239l-306 -373h-148z" />
    <glyph glyph-name="rcommaaccent" unicode="&#x157;" 
d="M750 983q-168 0 -303 -181l-99 -802h-153l138 1117h153l-22 -173h52q91 192 309 192q113 0 181 -80t52 -229l-21 -164h-151l13 106q13 112 -24 163t-125 51zM-2 -559l216 373h238l-305 -373h-149z" />
    <glyph glyph-name="Rcaron" unicode="&#x158;" 
d="M799 1489q423 0 376 -387l-15 -112q-44 -366 -395 -398l287 -592h-179l-285 590h-255l-72 -590h-155l183 1489h510zM707 726q143 0 213 62t85 201l15 117q15 128 -39 186t-197 58h-358l-76 -624h357zM685 1683l-274 272l82 104l267 -214l314 214l56 -104l-337 -272h-108z
" />
    <glyph glyph-name="rcaron" unicode="&#x159;" 
d="M750 983q-168 0 -303 -181l-99 -802h-153l138 1117h153l-22 -173h52q91 192 309 192q113 0 181 -80t52 -229l-21 -164h-151l13 106q13 112 -24 163t-125 51zM704 1311l-274 272l82 104l266 -214l315 214l56 -104l-337 -272h-108z" />
    <glyph glyph-name="Sacute" unicode="&#x15a;" 
d="M652 1495q336 0 484 -238l-121 -110q-61 104 -161 156t-210 52t-188 -54q-76 -53 -89 -163t54 -170t289 -138t297 -164q76 -86 58 -243q-26 -210 -179 -322q-154 -112 -320 -112t-296 53t-214 181l125 107q124 -200 394 -202q134 0 227 70q92 70 106 184t-48 177
t-284 143t-304 170t-61 262t153 267q132 94 288 94zM536 1676l285 372h238l-374 -372h-149z" />
    <glyph glyph-name="sacute" unicode="&#x15b;" 
d="M560 -20q-295 0 -474 163l93 131q152 -142 383 -144q101 0 185 33q85 33 95 127t-54 130t-249 66t-269 104t-66 228t142 236q123 82 262 82q262 0 438 -170l-95 -132q-161 151 -348 151q-91 0 -164 -37t-83 -127q-10 -89 50 -127t246 -68t273 -107q88 -78 71 -214
q-20 -169 -155 -247t-281 -78zM488 1303l285 373h238l-374 -373h-149z" />
    <glyph glyph-name="Scircumflex" unicode="&#x15c;" 
d="M652 1495q336 0 484 -238l-121 -110q-61 104 -161 156t-210 52t-188 -54q-76 -53 -89 -163t54 -170t289 -138t297 -164q76 -86 58 -243q-26 -210 -179 -322q-154 -112 -320 -112t-296 53t-214 181l125 107q124 -200 394 -202q134 0 227 70q92 70 106 184t-48 177
t-284 143t-304 170t-61 262t153 267q132 94 288 94zM441 1700l-57 102l337 274h108l273 -274l-80 -102l-266 212z" />
    <glyph glyph-name="scircumflex" unicode="&#x15d;" 
d="M560 -20q-295 0 -474 163l93 131q152 -142 383 -144q101 0 185 33q85 33 95 127t-54 130t-249 66t-269 104t-66 228t142 236q123 82 262 82q262 0 438 -170l-95 -132q-161 151 -348 151q-91 0 -164 -37t-83 -127q-10 -89 50 -127t246 -68t273 -107q88 -78 71 -214
q-20 -169 -155 -247t-281 -78zM395 1327l-58 103l337 274h108l274 -274l-80 -103l-267 213z" />
    <glyph glyph-name="Scedilla" unicode="&#x15e;" 
d="M652 1495q336 0 484 -238l-121 -110q-61 104 -161 156t-210 52t-188 -54q-76 -53 -89 -163t54 -170t289 -138t297 -164q76 -86 58 -243q-26 -210 -179 -322q-109 -80 -235 -103q51 -58 37 -172t-94 -168t-178 -55q-98 0 -161 41t-58 142l138 19q-1 -35 21 -49t75 -15
q53 0 83 24q30 25 38 91t-7 93t-45 41q-122 7 -241 56t-203 177l125 107q124 -200 394 -202q134 0 227 70q92 70 106 184t-48 177t-284 143t-304 170t-61 262t153 267q132 94 288 94z" />
    <glyph glyph-name="scedilla" unicode="&#x15f;" 
d="M608 1136q262 0 438 -170l-95 -132q-161 151 -348 151q-91 0 -164 -37t-83 -127q-10 -89 50 -127t246 -68t273 -107q88 -78 71 -214q-20 -168 -155 -246q-87 -51 -187 -70q42 -57 29 -167t-93 -164t-178 -55q-98 0 -161 41t-57 142l137 19q-1 -35 21 -49t75 -15
q53 0 83 24q30 25 38 91t-5 90t-29 34q-259 9 -428 163l93 131q152 -142 383 -144q101 0 185 33q85 33 95 127t-54 130t-249 66t-269 104t-66 228t142 236q123 82 262 82z" />
    <glyph glyph-name="Scaron" unicode="&#x160;" 
d="M652 1495q336 0 484 -238l-121 -110q-61 104 -161 156t-210 52t-188 -54q-76 -53 -89 -163t54 -170t289 -138t297 -164q76 -86 58 -243q-26 -210 -179 -322q-154 -112 -320 -112t-296 53t-214 181l125 107q124 -200 394 -202q134 0 227 70q92 70 106 184t-48 177
t-284 143t-304 170t-61 262t153 267q132 94 288 94zM676 1683l-274 272l82 104l266 -214l315 214l56 -104l-337 -272h-108z" />
    <glyph glyph-name="scaron" unicode="&#x161;" 
d="M560 -20q-295 0 -474 163l93 131q152 -142 383 -144q101 0 185 33q85 33 95 127t-54 130t-249 66t-269 104t-66 228t142 236q123 82 262 82q262 0 438 -170l-95 -132q-161 151 -348 151q-91 0 -164 -37t-83 -127q-10 -89 50 -127t246 -68t273 -107q88 -78 71 -214
q-20 -169 -155 -247t-281 -78zM629 1311l-273 272l82 104l266 -214l314 214l56 -104l-337 -272h-108z" />
    <glyph glyph-name="Tcedilla" unicode="&#x162;" 
d="M392 -397q-98 0 -161 41t-58 142l138 19q0 -35 21 -49q20 -14 74 -15q54 0 84 24q30 25 38 91t-10 98t-67 46h-2l165 1350h-430l17 139h1013l-17 -139h-430l-163 -1329q10 -9 19 -18q55 -59 41 -175t-94 -170t-178 -55z" />
    <glyph glyph-name="tcedilla" unicode="&#x163;" 
d="M727 138q109 0 230 37l15 -149q-101 -32 -198 -40q40 -58 26 -166t-93 -162t-177 -55q-98 0 -161 41t-58 142l138 19q0 -35 21 -49q20 -14 74 -15q54 0 84 24q30 25 38 91t-7 94t-45 41q-103 18 -163 83q-83 90 -60 269l76 629h-294l19 145h294l45 372h154l-45 -372h451
l-19 -145h-450l-75 -615q-15 -111 28 -165t152 -54z" />
    <glyph glyph-name="Tcaron" unicode="&#x164;" 
d="M449 0l165 1350h-430l17 139h1013l-17 -139h-430l-166 -1350h-152zM674 1683l-274 272l82 104l266 -214l315 214l56 -104l-337 -272h-108z" />
    <glyph glyph-name="tcaron" unicode="&#x165;" 
d="M972 26q-136 -43 -287 -43q-151 1 -234 91t-60 269l76 629h-294l19 145h294l45 372h154l-45 -372h451l-19 -145h-450l-75 -615q-29 -219 172 -219q116 0 238 37zM776 1313l211 549h234l-327 -549h-118z" />
    <glyph glyph-name="Tbar" unicode="&#x166;" 
d="M449 0l72 586h-350l19 153h350l74 611h-430l17 139h1013l-17 -139h-430l-74 -611h350l-19 -153h-350l-73 -586h-152z" />
    <glyph glyph-name="tbar" unicode="&#x167;" 
d="M972 26q-136 -43 -287 -43t-233.5 90.5t-60.5 269.5l22 191h-227l19 155h227l35 283h-294l19 145h294l45 372h154l-45 -372h451l-19 -145h-450l-36 -283h393l-18 -155h-393l-21 -177q-29 -219 172 -219q116 0 238 37z" />
    <glyph glyph-name="Utilde" unicode="&#x168;" 
d="M540 117q146 0 215 86q70 86 96 290l121 996h154l-121 -988q-64 -520 -482 -520q-419 0 -355 520l121 988h154l-121 -996q-26 -205 23 -291t195 -85zM894 1834q84 0 106 205h123l-4 -28q-17 -137 -85 -227t-174 -90q-60 0 -95 36t-59 76q-26 41 -48 76q-22 36 -54 36
t-60 -40t-39 -147l-4 -18h-123l4 28q17 134 84 225q68 91 174 91q68 0 104 -35t62 -75q22 -43 40 -78t48 -35z" />
    <glyph glyph-name="utilde" unicode="&#x169;" 
d="M439 -19q-153 1 -231 107t-59 273l93 756h155l-92 -733q-30 -250 181 -252q174 0 344 194l99 791h155l-138 -1117h-155l21 169h-51q-43 -82 -131 -135t-191 -53zM853 1462q83 0 106 204h123l-4 -28q-17 -138 -85 -227t-174 -89q-60 0 -95 35t-60 77q-24 42 -46 76
q-22 35 -54 35t-61 -40q-28 -40 -39 -146l-4 -18h-123l4 27q17 134 84 226q68 91 175 91q67 0 103 -35t62 -75q22 -43 40 -78t48 -35z" />
    <glyph glyph-name="Umacron" unicode="&#x16a;" 
d="M540 117q146 0 215 86q70 86 96 290l121 996h154l-121 -988q-64 -520 -482 -520q-419 0 -355 520l121 988h154l-121 -996q-26 -205 23 -291t195 -85zM404 1791l17 142h674l-17 -142h-674z" />
    <glyph glyph-name="umacron" unicode="&#x16b;" 
d="M439 -19q-153 1 -231 107t-59 273l93 756h155l-92 -733q-30 -250 181 -252q174 0 344 194l99 791h155l-138 -1117h-155l21 169h-51q-43 -82 -131 -135t-191 -53zM363 1419l17 141h674l-17 -141h-674z" />
    <glyph glyph-name="Ubreve" unicode="&#x16c;" 
d="M540 117q146 0 215 86q70 86 96 290l121 996h154l-121 -988q-64 -520 -482 -520q-419 0 -355 520l121 988h154l-121 -996q-26 -205 23 -291t195 -85zM724 1663q-168 1 -268 87t-76 291h162q-15 -134 35 -192t164 -58t177 58t82 192h162q-26 -205 -148 -291t-290 -87z" />
    <glyph glyph-name="ubreve" unicode="&#x16d;" 
d="M439 -19q-153 1 -231 107t-59 273l93 756h155l-92 -733q-30 -250 181 -252q174 0 344 194l99 791h155l-138 -1117h-155l21 169h-51q-43 -82 -131 -135t-191 -53zM681 1290q-167 0 -267 87t-77 291h162q-15 -134 35 -192t164 -58t177 58t82 192h162q-26 -206 -148 -292
t-290 -86z" />
    <glyph glyph-name="Uring" unicode="&#x16e;" 
d="M540 117q146 0 215 86q70 86 96 290l121 996h154l-121 -988q-64 -520 -482 -520q-419 0 -355 520l121 988h154l-121 -996q-26 -205 23 -291t195 -85zM736 1774q70 0 111 33t50 111l8 59q18 149 -124 149t-159 -149l-8 -59q-8 -78 22 -111t100 -33zM722 1653
q-117 0 -182 65t-48 200l7 59q17 136 99 203t200 67t182 -67t48 -203l-8 -59q-17 -134 -98 -200q-83 -65 -200 -65z" />
    <glyph glyph-name="uring" unicode="&#x16f;" 
d="M439 -19q-153 1 -231 107t-59 273l93 756h155l-92 -733q-30 -250 181 -252q174 0 344 194l99 791h155l-138 -1117h-155l21 169h-51q-43 -82 -131 -135t-191 -53zM693 1402q70 0 111 33t51 110l7 60q18 149 -124 149t-159 -149l-7 -60q-9 -79 21 -111t100 -32zM680 1281
q-117 0 -183 65q-65 65 -48 199l7 60q17 136 99 203t200 67t182 -67t48 -203l-8 -60q-17 -134 -99 -199t-198 -65z" />
    <glyph glyph-name="Uhungarumlaut" unicode="&#x170;" 
d="M540 117q146 0 215 86q70 86 96 290l121 996h154l-121 -988q-64 -520 -482 -520q-419 0 -355 520l121 988h154l-121 -996q-26 -205 23 -291t195 -85zM445 1676l145 372h231l-259 -372h-117zM838 1676l145 372h231l-259 -372h-117z" />
    <glyph glyph-name="uhungarumlaut" unicode="&#x171;" 
d="M439 -19q-153 1 -231 107t-59 273l93 756h155l-92 -733q-30 -250 181 -252q174 0 344 194l99 791h155l-138 -1117h-155l21 169h-51q-43 -82 -131 -135t-191 -53zM426 1303l146 373h230l-258 -373h-118zM819 1303l145 373h231l-259 -373h-117z" />
    <glyph glyph-name="Uogonek" unicode="&#x172;" 
d="M540 117q146 0 215 86q70 86 96 290l121 996h154l-121 -988q-32 -261 -145 -383t-293 -135q-45 -56 -52 -112q-7 -55 21 -84t72 -29q94 0 167 19l-19 -157q-78 -17 -175 -17t-163 59t-55 151t84 159q7 6 14 13q-352 37 -293 516l121 988h154l-121 -996q-26 -205 23 -291
t195 -85z" />
    <glyph glyph-name="uogonek" unicode="&#x173;" 
d="M439 -19q-153 1 -231 107t-59 273l93 756h155l-92 -733q-30 -250 181 -252q174 0 344 194l99 791h155l-138 -1117h-72q-58 -58 -67 -121q-18 -121 105 -121q80 0 153 19l-19 -157q-78 -17 -174 -17q-97 0 -164 59q-66 59 -55 151t84 159q28 26 57 47l18 150h-51
q-43 -82 -131 -135t-191 -53z" />
    <glyph glyph-name="Wcircumflex" unicode="&#x174;" 
d="M735 0l-96 929l-324 -929h-159l-3 1489h158l-22 -1238l292 866h173l80 -864l279 1236h149l-368 -1489h-159zM439 1700l-57 102l337 274h108l273 -274l-80 -102l-266 212z" />
    <glyph glyph-name="wcircumflex" unicode="&#x175;" 
d="M678 0l-58 771l-240 -771h-185l-57 1117h151l9 -1016l238 835h203l47 -808l251 989h151l-333 -1117h-177zM397 1327l-58 103l337 274h108l274 -274l-81 -103l-266 213z" />
    <glyph glyph-name="Ycircumflex" unicode="&#x176;" 
d="M601 0h-152l69 559l-384 930h175l315 -782l482 782h173l-609 -930zM439 1700l-57 102l337 274h108l273 -274l-80 -102l-266 212z" />
    <glyph glyph-name="ycircumflex" unicode="&#x177;" 
d="M73 -218q93 -21 141 -20q174 0 270 219h-50l-233 1136h170l175 -992l415 992h164l-520 -1167q-148 -332 -426 -332q-59 0 -157 21zM398 1327l-57 103l337 274h108l273 -274l-80 -103l-266 213z" />
    <glyph glyph-name="Ydieresis" unicode="&#x178;" 
d="M601 0h-152l69 559l-384 930h175l315 -782l482 782h173l-609 -930zM923 1704q-47 0 -75 21t-16 85q12 102 118 102q113 0 91 -112q-7 -58 -39 -77t-79 -19zM536 1704q-47 0 -76 21t-17 85q12 102 118 102t92 -102q-7 -67 -38 -87q-32 -19 -79 -19z" />
    <glyph glyph-name="Zacute" unicode="&#x179;" 
d="M981 0h-912l17 140l877 1210h-728l16 139h913l-17 -139l-875 -1210h726zM586 1676l285 372h239l-375 -372h-149z" />
    <glyph glyph-name="zacute" unicode="&#x17a;" 
d="M909 0h-768l19 145l680 827h-579l18 145h767l-18 -145l-676 -827h575zM486 1303l285 373h238l-374 -373h-149z" />
    <glyph glyph-name="Zdotaccent" unicode="&#x17b;" 
d="M981 0h-912l17 140l877 1210h-728l16 139h913l-17 -139l-875 -1210h726zM730 1704q-60 0 -99 21q-38 21 -26 85q12 102 151 102q61 0 99 -23t24 -89q-7 -58 -48 -77t-101 -19z" />
    <glyph glyph-name="zdotaccent" unicode="&#x17c;" 
d="M909 0h-768l19 145l680 827h-579l18 145h767l-18 -145l-676 -827h575zM696 1331q-60 0 -100 21q-39 21 -24 85q7 58 48 80q41 23 102 23t99 -24t24 -88q-7 -58 -48 -78t-101 -19z" />
    <glyph glyph-name="Zcaron" unicode="&#x17d;" 
d="M981 0h-912l17 140l877 1210h-728l16 139h913l-17 -139l-875 -1210h726zM674 1683l-274 272l82 104l266 -214l315 214l56 -104l-337 -272h-108z" />
    <glyph glyph-name="zcaron" unicode="&#x17e;" 
d="M909 0h-768l19 145l680 827h-579l18 145h767l-18 -145l-676 -827h575zM631 1311l-274 272l82 104l267 -214l314 214l56 -104l-337 -272h-108z" />
    <glyph glyph-name="longs" unicode="&#x17f;" 
d="M920 1346q-153 0 -172 -141l-193 -1577h-153l166 1344h-205l19 145h204l10 78q17 141 114.5 220.5t216.5 79.5q52 0 112.5 -16t96.5 -34l-51 -136q-97 37 -165 37z" />
    <glyph glyph-name="florin" unicode="&#x192;" 
d="M962 1346q-70 0 -105.5 -10t-58.5 -34q-43 -46 -57 -159l-26 -225h380l-19 -145h-380l-59 -484q-17 -134 -108 -220q-92 -80 -208 -80q-115 0 -179 16.5t-84 28.5l52 141q74 -37 153 -37t113 10t58 33q44 43 56 160l54 432h-362l19 145h361l34 277q14 132 108 218
q99 82 223 82q47 0 126 -11t122 -34l-52 -141q-91 37 -161 37z" />
    <glyph glyph-name="Aringacute" unicode="&#x1fa;" 
d="M884 0l-70 451h-471l-181 -451h-162l631 1489h155l264 -1489h-166zM791 590l-111 700l-282 -700h393zM738 1774q70 0 111 33t50 111l8 59q18 149 -124 149t-159 -149l-8 -59q-8 -78 22 -111t100 -33zM724 1653q-117 0 -182 65t-49 200l8 59q25 204 201 257h-67l285 373
h238l-361 -360h2q119 0 183 -67t48 -203l-8 -59q-17 -134 -99 -200t-199 -65z" />
    <glyph glyph-name="aringacute" unicode="&#x1fb;" 
d="M374 -19q-126 1 -216 77t-70 230q18 154 117 239q99 84 221 84h354l22 175q11 89 -39 146t-166 57q-115 0 -177 -40t-115 -169l-130 45q48 151 160 231t275 80t266 -79t85 -243l-67 -537q-11 -101 37 -129t156 -5l-18 -152q-114 -13 -199 22t-73 171h-32
q-58 -88 -161 -146q-104 -58 -230 -57zM412 127q211 0 331 171l22 184h-309q-188 0 -208 -168q-11 -92 26 -139q36 -48 138 -48zM662 1402q70 0 111 33t50 110l7 60q18 149 -123 149t-160 -149l-7 -60q-8 -79 22 -111t100 -32zM648 1281q-117 0 -183 65q-65 65 -48 199l7 60
q26 204 202 257h-62l285 372h238l-361 -359q116 -1 180 -67t47 -203l-7 -60q-17 -134 -99 -199t-199 -65z" />
    <glyph glyph-name="AEacute" unicode="&#x1fc;" 
d="M603 451h-365l-175 -451h-137l605 1489h759l-15 -121h-420l-62 -506h406l-15 -123h-406l-76 -618h421l-15 -121h-561zM598 1368l-309 -796h329l97 796h-117zM758 1676l285 372h238l-374 -372h-149z" />
    <glyph glyph-name="aeacute" unicode="&#x1fd;" 
d="M352 506q-168 0 -192 -190q-27 -214 107 -214q69 0 121 43t104 116l29 245h-169zM879 1017q-169 0 -199 -242l-17 -140h341l14 121q33 259 -139 261zM891 1136q148 0 222 -90t52 -277l-29 -238h-486l-24 -198q-15 -128 20 -181q36 -53 124 -53t126 35t65 138l143 -8
q-34 -145 -109 -214t-220 -69q-203 0 -252 170h-22q-49 -73 -113 -121t-158 -48t-164 78q-70 80 -51 232t109 236q90 83 194 83h216l23 173q11 101 -23 164t-113 63t-115 -34t-79 -150l-119 42q41 127 119 197t225 70t201 -121q90 121 238 121zM573 1303l285 373h239
l-375 -373h-149z" />
    <glyph glyph-name="Oslashacute" unicode="&#x1fe;" 
d="M711 1508q96 0 166 -24l95 192h164l-134 -268q136 -132 98 -432l-57 -470q-30 -255 -164 -390t-356 -135q-115 0 -197 38l-103 -205h-163l145 294q-105 132 -75 398l58 470q34 260 168 396t355 136zM540 121q162 0 241 86t105 288l60 497q26 201 -23 304l-545 -1143
q64 -32 162 -32zM825 1350q-72 19 -132 18q-162 0 -242 -87q-79 -88 -105 -294l-59 -492q-21 -153 7 -255zM605 1676l285 372h238l-374 -372h-149z" />
    <glyph glyph-name="oslashacute" unicode="&#x1ff;" 
d="M667 1136q93 0 163 -24l112 191h170l-159 -266q105 -105 80 -316l-41 -332q-26 -210 -156 -309t-313 -99q-92 0 -167 25l-110 -192h-170l157 264q-103 103 -78 311l40 332q27 215 157 315t315 100zM426 147q53 -17 116 -17q134 0 205 61t85 193l43 338q13 113 -20 174z
M761 970q-58 17 -115 17q-134 1 -205 -63t-87 -200l-43 -340q-12 -108 20 -168zM484 1303l285 373h238l-374 -373h-149z" />
    <glyph glyph-name="Scommaaccent" unicode="&#x218;" 
d="M652 1495q336 0 484 -238l-121 -110q-61 104 -161 156t-210 52t-188 -54q-76 -53 -89 -163t54 -170t289 -138t297 -164q76 -86 58 -243q-26 -210 -179 -322q-154 -112 -320 -112t-296 53t-214 181l125 107q124 -200 394 -202q134 0 227 70q92 70 106 184t-48 177
t-284 143t-304 170t-61 262t153 267q132 94 288 94zM199 -559l216 373h238l-305 -373h-149z" />
    <glyph glyph-name="scommaaccent" unicode="&#x219;" 
d="M560 -20q-295 0 -474 163l93 131q152 -142 383 -144q101 0 185 33q85 33 95 127t-54 130t-249 66t-269 104t-66 228t142 236q123 82 262 82q262 0 438 -170l-95 -132q-161 151 -348 151q-91 0 -164 -37t-83 -127q-10 -89 50 -127t246 -68t273 -107q88 -78 71 -214
q-20 -169 -155 -247t-281 -78zM197 -559l216 373h239l-306 -373h-149z" />
    <glyph glyph-name="Tcommaaccent" unicode="&#x21a;" 
d="M449 0l165 1350h-430l17 139h1013l-17 -139h-430l-166 -1350h-152zM195 -559l216 373h239l-306 -373h-149z" />
    <glyph glyph-name="tcommaaccent" unicode="&#x21b;" 
d="M972 26q-136 -43 -287 -43q-151 1 -234 91t-60 269l76 629h-294l19 145h294l45 372h154l-45 -372h451l-19 -145h-450l-75 -615q-29 -219 172 -219q116 0 238 37zM227 -559l216 373h238l-305 -373h-149z" />
    <glyph glyph-name="dotlessj" unicode="&#xf6be;" 
d="M336 -223q256 0 288 232l117 963h-484l19 145h636l-139 -1130q-24 -194 -153.5 -284t-282.5 -90t-272 41l56 165q96 -42 215 -42z" />
    <glyph glyph-name="dotlessj" unicode="&#x237;" 
d="M336 -223q256 0 288 232l117 963h-484l19 145h636l-139 -1130q-24 -194 -153.5 -284t-282.5 -90t-272 41l56 165q96 -42 215 -42z" />
    <glyph glyph-name="quoteleft" unicode="&#x2018;" 
d="M372 767l468 722h136l-278 -722h-326z" />
    <glyph glyph-name="quoteleft" unicode="&#x2bb;" 
d="M372 767l468 722h136l-278 -722h-326z" />
    <glyph glyph-name="circumflex" unicode="&#x2c6;" 
d="M398 1327l-57 103l337 274h108l273 -274l-80 -103l-266 213z" />
    <glyph glyph-name="caron" unicode="&#x2c7;" 
d="M633 1311l-274 272l82 104l266 -214l315 214l56 -104l-337 -272h-108z" />
    <glyph glyph-name="breve" unicode="&#x2d8;" 
d="M683 1290q-167 0 -267 87t-77 291h162q-15 -134 35 -192t164 -58t177 58t82 192h162q-26 -206 -148 -292t-290 -86z" />
    <glyph glyph-name="dotaccent" unicode="&#x2d9;" 
d="M688 1331q-60 0 -99 21t-25 85q12 101 151 103q61 0 99 -24t24 -88q-7 -58 -48 -78q-42 -20 -102 -19z" />
    <glyph glyph-name="ring" unicode="&#x2da;" 
d="M695 1402q70 0 111 33t50 110l8 60q18 149 -123 149q-143 0 -160 -149l-8 -60q-9 -79 21 -111t101 -32zM681 1281q-117 0 -182 65t-48 199l7 60q17 136 99 203t200 67t182 -67t48 -203l-8 -60q-17 -134 -99 -199t-199 -65z" />
    <glyph glyph-name="ogonek" unicode="&#x2db;" 
d="M597 -242q95 0 166 19l-18 -157q-78 -17 -175 -17t-163 59t-55 151t84 159t150 102l41 -31q-111 -70 -125 -183q-6 -44 23 -73q28 -29 72 -29z" />
    <glyph glyph-name="tilde" unicode="&#x2dc;" 
d="M853 1462q83 0 106 204h123l-4 -28q-17 -138 -85 -227t-174 -89q-60 0 -95 35t-60 77q-24 42 -46 76q-22 35 -54 35t-61 -40q-28 -40 -39 -146l-4 -18h-123l4 27q17 134 84 226q68 91 175 91q67 0 103 -35t62 -75q22 -43 40 -78t48 -35z" />
    <glyph glyph-name="hungarumlaut" unicode="&#x2dd;" 
d="M428 1303l145 373h231l-258 -373h-118zM821 1303l145 373h231l-259 -373h-117z" />
    <glyph glyph-name="gravecmb" unicode="&#x300;" horiz-adv-x="0" 
d="M74 1303l-281 373h239l191 -373h-149z" />
    <glyph glyph-name="acutecmb" unicode="&#x301;" horiz-adv-x="0" 
d="M-123 1303l285 373h238l-374 -373h-149z" />
    <glyph glyph-name="circumflexcmb" unicode="&#x302;" horiz-adv-x="0" 
d="M-218 1327l-58 103l337 274h108l274 -274l-80 -103l-266 213z" />
    <glyph glyph-name="tildecmb" unicode="&#x303;" horiz-adv-x="0" 
d="M236 1462q84 0 107 204h122l-3 -28q-17 -138 -85 -227t-174 -89q-60 0 -97.5 38t-81.5 111.5t-76 73.5t-60.5 -40t-40.5 -146l-3 -18h-123l3 27q17 134 85 225.5t174 91.5q67 0 103.5 -35.5t62.5 -74.5q22 -43 40 -78t47 -35z" />
    <glyph glyph-name="macroncmb" unicode="&#x304;" horiz-adv-x="0" 
d="M-253 1419l17 141h674l-17 -141h-674z" />
    <glyph glyph-name="brevecmb" unicode="&#x306;" horiz-adv-x="0" 
d="M67 1290q-168 0 -267.5 86.5t-76.5 291.5h162q-15 -134 35 -191.5t163.5 -57.5t177 57.5t82.5 191.5h162q-26 -205 -148 -291.5t-290 -86.5z" />
    <glyph glyph-name="dotaccentcmb" unicode="&#x307;" horiz-adv-x="0" 
d="M72 1331q-60 0 -99 21t-25 85q12 103 112 103t135 -22t27 -85q-7 -63 -48.5 -82.5t-101.5 -19.5z" />
    <glyph glyph-name="dieresiscmb" unicode="&#x308;" horiz-adv-x="0" 
d="M266.5 1331q-46.5 0 -76 21.5t-15.5 84.5q12 103 118 103t92 -103q-7 -67 -39.5 -86.5t-79 -19.5zM-121 1331q-47 0 -77 21.5t-16 84.5q12 103 122.5 103t85.5 -112q-7 -58 -37.5 -77.5t-77.5 -19.5z" />
    <glyph glyph-name="ringcmb" unicode="&#x30a;" horiz-adv-x="0" 
d="M79 1402q70 0 111 32.5t50 110.5l8 60q18 149 -124 149t-159 -149l-8 -60q-9 -78 21.5 -110.5t100.5 -32.5zM65 1281q-117 0 -182 65t-49 199l8 60q17 136 98.5 203t199.5 67t182.5 -67t48.5 -203l-8 -60q-17 -134 -99 -199t-199 -65z" />
    <glyph glyph-name="hungarumlautcmb" unicode="&#x30b;" horiz-adv-x="0" 
d="M-188 1303l145 373h231l-259 -373h-117zM205 1303l145 373h231l-259 -373h-117z" />
    <glyph glyph-name="caroncmb" unicode="&#x30c;" horiz-adv-x="0" 
d="M17 1311l-274 272l82 104l266 -214l315 214l56 -104l-337 -272h-108z" />
    <glyph glyph-name="commaturnedabovecmb" unicode="&#x312;" horiz-adv-x="0" 
d="M-156 1303l305 373h149l-216 -373h-238z" />
    <glyph glyph-name="commaaccentcmb" unicode="&#x326;" horiz-adv-x="0" 
d="M-384 -559l216 373h239l-306 -373h-149z" />
    <glyph glyph-name="cedillacmb" unicode="&#x327;" horiz-adv-x="0" 
d="M-202 -397q-98 0 -161 41t-58 142l138 19q0 -35 21.5 -49.5t74.5 -14.5t83 24.5t38 90.5t-9.5 97.5t-67.5 46.5l44 78q73 -17 128 -75.5t41 -174.5t-94 -170.5t-178 -54.5z" />
    <glyph glyph-name="ogonekcmb" unicode="&#x328;" horiz-adv-x="0" 
d="M-20 -242q105 0 167 19l-19 -157q-78 -17 -174 -17q-97 0 -163.5 59t-54.5 151t84 159t150 102l41 -31q-107 -67 -125 -175q-6 -52 22 -81t72 -29z" />
    <glyph glyph-name="tonos" unicode="&#x384;" 
d="M562 1303l181 373h223l-272 -373h-132z" />
    <glyph glyph-name="dieresistonos" unicode="&#x385;" 
d="M974 1309q-39 0 -60 19q-20 20 -13 78v9q7 58 33 79t68 22q86 0 74 -101v-9q-7 -58 -35 -78t-67 -19zM394 1309q-40 0 -61 19q-20 20 -13 78v9q8 58 34 79q26 22 67 22t61 -22t13 -79v-9q-7 -58 -34 -78t-67 -19zM581 1303l125 373h195l-225 -373h-95z" />
    <glyph glyph-name="Alphatonos" unicode="&#x386;" 
d="M884 0l-70 451h-471l-181 -451h-162l631 1489h155l264 -1489h-166zM791 590l-111 700l-282 -700h393zM143 1303l181 373h223l-271 -373h-133z" />
    <glyph glyph-name="anoteleia" unicode="&#x387;" 
d="M604 560q-82 0 -128 40t-35 128l4 24q21 171 205 171q82 0 128 -40t34 -131l-4 -24q-11 -88 -67 -128t-137 -40z" />
    <glyph glyph-name="Epsilontonos" unicode="&#x388;" 
d="M106 0l183 1489h875l-17 -139h-721l-57 -466h635l-17 -139h-635l-75 -605h721l-17 -140h-875zM-93 1303l181 373h223l-272 -373h-132z" />
    <glyph glyph-name="Etatonos" unicode="&#x389;" 
d="M106 0l183 1489h154l-74 -614h528l75 614h154l-182 -1489h-155l90 735h-529l-89 -735h-155zM-108 1303l181 373h223l-272 -373h-132z" />
    <glyph glyph-name="Iotatonos" unicode="&#x38a;" 
d="M106 0l17 140h342l149 1210h-342l17 139h837l-16 -139h-343l-149 -1210h343l-17 -140h-838zM-108 1303l181 373h223l-272 -373h-132z" />
    <glyph glyph-name="Omicrontonos" unicode="&#x38c;" 
d="M549 121q164 0 244 88t104 297l58 470q26 212 -32 302q-57 90 -221 90t-244 -90t-106 -302l-58 -470q-24 -209 34 -297t221 -88zM532 -19q-222 0 -322 136t-69 397l56 454q32 266 166 403t357 137q222 0 322 -137t68 -403l-56 -454q-32 -261 -166 -397t-356 -136z
M30 1303l180 373h224l-272 -373h-132z" />
    <glyph glyph-name="Upsilontonos" unicode="&#x38e;" 
d="M601 0h-152l69 559l-384 930h175l315 -782l482 782h173l-609 -930zM-166 1303l181 373h223l-272 -373h-132z" />
    <glyph glyph-name="Omegatonos" unicode="&#x38f;" 
d="M710 1508q234 0 337 -134t70 -398l-28 -226q-42 -352 -275 -420l-23 -175h226l-19 -155h-384l53 428q139 24 195 104t73 218l28 224q26 216 -35 305q-62 89 -236 89t-257 -89t-109 -305l-28 -224q-17 -138 21 -218t169 -104l-52 -428h-384l19 155h225l22 175
q-215 68 -175 420l28 226q69 532 539 532zM-9 1303l180 373h224l-272 -373h-132z" />
    <glyph glyph-name="iotadieresistonos" unicode="&#x390;" 
d="M983 30q-85 -37 -222 -37q-138 0 -212 92t-54 259l77 628h-388l19 145h540l-99 -793q-22 -188 149 -188q100 0 173 33zM957 1309q-39 0 -60 19q-20 20 -13 78v9q8 58 34 79t67 22q86 0 74 -101v-9q-7 -58 -35 -78t-67 -19zM377 1309q-40 -1 -60 19t-14 78v9q7 58 33 79
q26 22 68 22q41 0 61 -22t13 -79v-9q-7 -58 -34 -78t-67 -19zM564 1303l125 373h195l-225 -373h-95z" />
    <glyph glyph-name="Alpha" unicode="&#x391;" 
d="M884 0l-70 451h-471l-181 -451h-162l631 1489h155l264 -1489h-166zM791 590l-111 700l-282 -700h393z" />
    <glyph glyph-name="Beta" unicode="&#x392;" 
d="M598 145q134 0 201 60t84 193l7 51q15 133 -38 193t-187 60h-319l-67 -557h319zM646 847q125 0 189 54t79 173l6 43q16 119 -36 173t-177 54h-281l-61 -497h281zM702 1489q210 0 302 -86q91 -87 68 -264l-11 -89q-11 -88 -71 -153t-148 -82l-8 -54q110 -11 169 -93
t41 -210l-9 -82q-24 -190 -147 -283t-356 -93h-426l183 1489h413z" />
    <glyph glyph-name="Gamma" unicode="&#x393;" 
d="M99 0l182 1489h879l-17 -139h-726l-166 -1350h-152z" />
    <glyph glyph-name="Delta" unicode="&#x394;" 
d="M916 140l-235 1165l-519 -1165h754zM-4 0l17 140l611 1349h149l298 -1349l-17 -140h-1058z" />
    <glyph glyph-name="Epsilon" unicode="&#x395;" 
d="M106 0l183 1489h875l-17 -139h-721l-57 -466h635l-17 -139h-635l-75 -605h721l-17 -140h-875z" />
    <glyph glyph-name="Zeta" unicode="&#x396;" 
d="M981 0h-912l17 140l877 1210h-728l16 139h913l-17 -139l-875 -1210h726z" />
    <glyph glyph-name="Eta" unicode="&#x397;" 
d="M106 0l183 1489h154l-74 -614h528l75 614h154l-182 -1489h-155l90 735h-529l-89 -735h-155z" />
    <glyph glyph-name="Theta" unicode="&#x398;" 
d="M439 680l19 149h343l-19 -149h-343zM539 121q187 0 274.5 85.5t113.5 288.5l60 492q26 207 -41 294t-253.5 87t-274 -87.5t-113.5 -293.5l-59 -492q-26 -203 40 -288.5t253 -85.5zM523 -19q-246 0 -356.5 133.5t-78.5 391.5l57 470q34 263 177 397.5t388 134.5t356 -135
t77 -397l-58 -470q-32 -259 -174 -392t-388 -133z" />
    <glyph glyph-name="Iota" unicode="&#x399;" 
d="M106 0l17 140h342l149 1210h-342l17 139h837l-16 -139h-343l-149 -1210h343l-17 -140h-838z" />
    <glyph glyph-name="Kappa" unicode="&#x39a;" 
d="M350 728l-89 -728h-155l183 1489h154l-76 -621h56l625 621h183l-695 -683l507 -806h-190l-442 728h-61z" />
    <glyph glyph-name="Lambda" unicode="&#x39b;" 
d="M884 0l-204 1290l-518 -1290h-162l631 1489h155l264 -1489h-166z" />
    <glyph glyph-name="Mu" unicode="&#x39c;" 
d="M488 350l-144 894l-158 -1244h-138l183 1489h221l146 -938l374 938h212l-182 -1489h-138l147 1247l-363 -897h-160z" />
    <glyph glyph-name="Nu" unicode="&#x39d;" 
d="M715 0l-307 1318l-162 -1318h-140l183 1489h219l317 -1323l162 1323h139l-182 -1489h-229z" />
    <glyph glyph-name="Xi" unicode="&#x39e;" 
d="M69 0l17 140h912l-17 -140h-912zM203 745l17 139h826l-16 -139h-827zM235 1350l16 139h913l-17 -139h-912z" />
    <glyph glyph-name="Omicron" unicode="&#x39f;" 
d="M540 121q164 0 244 88t104 297l58 470q26 212 -32 302t-222 90t-243 -90q-80 -90 -106 -302l-58 -470q-25 -209 33 -297t222 -88zM524 -19q-222 0 -324 136q-100 136 -68 397l56 454q32 266 166 403t356 137t322 -137t68 -403l-56 -454q-32 -261 -165 -397t-355 -136z
" />
    <glyph glyph-name="Pi" unicode="&#x3a0;" 
d="M106 0l183 1489h837l-182 -1489h-155l166 1350h-529l-165 -1350h-155z" />
    <glyph glyph-name="Rho" unicode="&#x3a1;" 
d="M661 674q145 0 214 60t86 193l22 173q15 132 -39 191t-199 59h-319l-83 -676h318zM763 1489q216 0 307 -94q90 -95 66 -295l-21 -167q-27 -199 -141 -297t-330 -98h-318l-65 -538h-155l183 1489h474z" />
    <glyph glyph-name="Sigma" unicode="&#x3a3;" 
d="M987 0h-940l16 140l693 627l-544 583l17 139h940l-17 -139h-726l458 -512l-15 -127l-612 -571h747z" />
    <glyph glyph-name="Tau" unicode="&#x3a4;" 
d="M449 0l165 1350h-430l17 139h1013l-17 -139h-430l-166 -1350h-152z" />
    <glyph glyph-name="Upsilon" unicode="&#x3a5;" 
d="M601 0h-152l69 559l-384 930h175l315 -782l482 782h173l-609 -930z" />
    <glyph glyph-name="Phi" unicode="&#x3a6;" 
d="M428 313h65l107 864h-66q-114 0 -174 -79t-83 -271l-22 -172q-21 -186 19 -264t154 -78zM808 1177h-65l-106 -864h65q114 0 172 78t81 264l22 172q22 192 -16 271q-39 79 -153 79zM685 168h-59l-23 -187h-160l22 187h-55q-194 0 -269 131q-74 131 -46 356l22 172
q26 227 133 361t299 134h58l22 186h160l-22 -186h60q193 0 265 -134t46 -361l-23 -172q-28 -225 -133 -356t-297 -131z" />
    <glyph glyph-name="Chi" unicode="&#x3a7;" 
d="M905 0l-300 635l-458 -635h-186l577 758l-352 731h181l286 -608l438 608h184l-554 -729l366 -760h-182z" />
    <glyph glyph-name="Psi" unicode="&#x3a8;" 
d="M605 0h-160l45 363q-190 20 -265.5 146t-51.5 327l80 653h151l-80 -660q-19 -153 23 -228.5t161 -90.5l119 979h161l-120 -979q123 15 183.5 90.5t79.5 228.5l80 660h151l-80 -653q-24 -201 -131.5 -326.5t-300.5 -146.5z" />
    <glyph glyph-name="Omega" unicode="&#x3a9;" 
d="M592 1508q352 0 455.5 -134t69.5 -398l-28 -226q-42 -350 -275 -420l-23 -175h226l-19 -155h-384l53 428q138 24 194.5 104.5t73.5 217.5l28 224q26 216 -34.5 305t-235.5 89t-258 -89t-109 -305l-28 -224q-17 -138 21 -218t169 -104l-52 -428h-384l19 155h225l22 175
q-215 68 -175 420l28 226q69 532 421 532z" />
    <glyph glyph-name="Iotadieresis" unicode="&#x3aa;" 
d="M106 0l17 140h342l149 1210h-342l17 139h837l-16 -139h-343l-149 -1210h343l-17 -140h-838zM923 1704q-47 0 -75 21t-16 85q12 102 118 102q113 0 91 -112q-7 -58 -39 -77t-79 -19zM536 1704q-47 0 -76 21t-17 85q12 102 118 102t92 -102q-7 -67 -38 -87q-32 -19 -79 -19
z" />
    <glyph glyph-name="Upsilondieresis" unicode="&#x3ab;" 
d="M601 0h-152l69 559l-384 930h175l315 -782l482 782h173l-609 -930zM923 1704q-47 0 -75 21t-16 85q12 102 118 102q113 0 91 -112q-7 -58 -39 -77t-79 -19zM536 1704q-47 0 -76 21t-17 85q12 102 118 102t92 -102q-7 -67 -38 -87q-32 -19 -79 -19z" />
    <glyph glyph-name="alphatonos" unicode="&#x3ac;" 
d="M547 1136q95 0 162 -50t97 -142h50l23 173h154l-104 -840q-11 -101 29 -127t131 -7l-18 -152q-141 -15 -215 27t-67 164h-50q-112 -199 -337 -201q-145 0 -219 110t-47 317l37 309q25 201 127 310t247 109zM448 132q92 0 171 53t165 159l52 429q-60 106 -126 158t-158 52
t-149 -71t-73 -210l-34 -285q-19 -141 21 -213q39 -72 131 -72zM648 1303l181 373h223l-272 -373h-132z" />
    <glyph glyph-name="epsilontonos" unicode="&#x3ad;" 
d="M519 -19q-226 0 -331 84t-78 265q11 98 86 170t210 81l5 41q-109 7 -165 58t-45 141l2 21q37 294 457 294q210 0 302 -79t84 -247l-158 -15q4 108 -52 150t-196 42q-140 -1 -206 -35q-67 -34 -78 -116l-4 -26q-6 -69 50 -100t196 -30h96l-16 -140h-97q-155 0 -229 -45
t-86 -151q-21 -125 48 -172q68 -48 220 -48t227 48q74 47 105 171l152 -13q-37 -186 -155 -268t-344 -81zM559 1303l180 373h224l-272 -373h-132z" />
    <glyph glyph-name="etatonos" unicode="&#x3ae;" 
d="M761 1136q147 0 223 -94t59 -253l-144 -1161h-154l139 1126q26 229 -172 229q-181 0 -356 -199l-97 -784h-155l138 1117h155l-23 -169h50q52 86 144 137t193 51zM555 1303l180 373h224l-272 -373h-132z" />
    <glyph glyph-name="iotatonos" unicode="&#x3af;" 
d="M983 30q-85 -37 -222 -37q-138 0 -212 92t-54 259l77 628h-388l19 145h540l-99 -793q-22 -188 149 -188q100 0 173 33zM551 1303l181 373h223l-272 -373h-132z" />
    <glyph glyph-name="upsilondieresistonos" unicode="&#x3b0;" 
d="M523 -19q-205 1 -301 103t-71 296l91 737h155l-92 -743q-17 -136 39 -194t196 -59q140 0 210 59t88 196l91 741h155l-92 -737q-24 -194 -144 -296t-325 -103zM974 1309q-39 0 -60 19q-20 20 -13 78v9q7 58 33 79t68 22q86 0 74 -101v-9q-7 -58 -35 -78t-67 -19zM394 1309
q-40 0 -61 19q-20 20 -13 78v9q8 58 34 79q26 22 67 22t61 -22t13 -79v-9q-7 -58 -34 -78t-67 -19zM581 1303l125 373h195l-225 -373h-95z" />
    <glyph glyph-name="alpha" unicode="&#x3b1;" 
d="M402 -19q-145 0 -218.5 110t-47.5 317l37 309q26 201 127.5 310t246.5 109q95 0 162 -50.5t97 -141.5h50l23 173h154l-104 -840q-11 -101 29 -126.5t131 -7.5l-18 -152q-140 -15 -214.5 27.5t-67.5 163.5h-50q-56 -99 -143.5 -150t-193.5 -51zM448 132q92 0 171 53
t165 159l52 429q-60 106 -126 158t-158 52t-149 -70.5t-73 -210.5l-34 -285q-19 -140 20.5 -212.5t131.5 -72.5z" />
    <glyph glyph-name="beta" unicode="&#x3b2;" 
d="M501 -19q-121 0 -238 56l-51 -409h-154l178 1452q28 222 152 325t295.5 103t270 -96t76.5 -274l-6 -49q-29 -220 -209 -255l-7 -54q106 -11 158 -88.5t43 -177.5l-13 -99q-28 -229 -177 -331.5t-318 -102.5zM523 117q145 0 220.5 72t94.5 217l9 82q15 114 -44.5 171.5
t-197.5 57.5h-86l19 152h76q231 0 261 216l2 27q33 256 -150 256t-250 -68.5t-84 -208.5l-110 -897q95 -77 240 -77z" />
    <glyph glyph-name="gamma" unicode="&#x3b3;" 
d="M572 -372h-187l67 409l-251 1080h171l192 -858l397 858h164l-520 -1080z" />
    <glyph glyph-name="delta" unicode="&#x3b4;" 
d="M540 127q134 0 209.5 63t92.5 208l26 209q13 102 -55 160t-256 112q-204 -92 -229 -298l-23 -183q-17 -145 42 -208t193 -63zM523 -19q-188 0 -292 101.5t-78 315.5l22 185q15 115 90.5 200.5t194.5 134.5q-97 50 -134 113.5t-24 160.5q19 156 118 226.5t282 70.5h313
l-17 -145h-315q-114 0 -171.5 -28t-67.5 -108t38.5 -118t240.5 -104t254 -150t43 -229l-26 -209q-26 -214 -154.5 -315.5t-316.5 -101.5z" />
    <glyph glyph-name="epsilon" unicode="&#x3b5;" 
d="M519 -19q-226 0 -331.5 84.5t-77.5 264.5q11 99 86.5 170.5t209.5 80.5l5 41q-108 7 -164.5 58.5t-45.5 140.5l2 21q37 294 457 294q211 0 302.5 -79.5t83.5 -246.5l-158 -15q4 108 -52 150t-196 42t-206.5 -34.5t-77.5 -116.5l-4 -26q-7 -69 49.5 -99.5t196.5 -30.5h96
l-16 -140h-97q-155 0 -228.5 -44.5t-86.5 -151.5q-21 -125 47.5 -172t220.5 -47t227 47.5t105 170.5l152 -13q-37 -186 -155 -267.5t-344 -81.5z" />
    <glyph glyph-name="zeta" unicode="&#x3b6;" 
d="M583 -372h-185l19 149h212q63 0 105 25t52 100t-26 99.5t-99 24.5h-149q-209 0 -296.5 130.5t-66.5 299.5q13 108 68 213.5t122 172.5l313 329l-10 26q-186 -17 -278 77t-100 240l149 13q2 -119 101 -167.5t257 -2.5l354 168l50 -179l-268 -95l-442 -476
q-135 -130 -162 -315q-15 -127 40 -206t184 -79h143q138 0 209 -65t55 -203t-111 -208.5t-240 -70.5z" />
    <glyph glyph-name="eta" unicode="&#x3b7;" 
d="M761 1136q147 0 223.5 -94t58.5 -253l-144 -1161h-154l139 1126q26 229 -172 229q-96 0 -181.5 -49.5t-174.5 -149.5l-97 -784h-155l138 1117h155l-23 -169h50q52 86 143.5 137t193.5 51z" />
    <glyph glyph-name="theta" unicode="&#x3b8;" 
d="M541 127q133 0 206.5 65t90.5 205l35 279h-529l-35 -279q-17 -140 41 -205t191 -65zM922 1080q37 283 -228 283q-133 0 -207.5 -68t-93.5 -213l-30 -252h529zM523.5 -19q-193.5 0 -295 103.5t-73.5 319.5l81 674q26 218 154 324t320 106t293 -106t75 -324l-82 -674
q-28 -216 -153.5 -319.5t-319 -103.5z" />
    <glyph glyph-name="iota" unicode="&#x3b9;" 
d="M983 30q-85 -37 -222 -37q-138 0 -212 92t-54 259l77 628h-388l19 145h540l-99 -793q-22 -188 149 -188q100 0 173 33z" />
    <glyph glyph-name="kappa" unicode="&#x3ba;" 
d="M415 521l-63 -521h-155l138 1117h155l-58 -460h89l391 460h194l-477 -523l335 -594h-178l-281 521h-90z" />
    <glyph glyph-name="lambda" unicode="&#x3bb;" 
d="M435 1499q97 0 182 -57t115 -187l255 -1255h-172l-171 987l-417 -987h-164l516 1158h34l-4 37q-33 164 -179 164q-80 0 -173 -24l-13 141q94 23 191 23z" />
    <glyph glyph-name="mu" unicode="&#x3bc;" 
d="M482 130q84 0 148 42t128 115l102 830h153l-104 -840q-11 -102 28.5 -128t133.5 -6l-19 -152q-128 -19 -189 33t-49 173h-32q-139 -216 -339 -216q-116 0 -177 93l-39 -446h-188l67 409l134 1080h155l-95 -763q-15 -119 41.5 -171.5t140.5 -52.5z" />
    <glyph glyph-name="nu" unicode="&#x3bd;" 
d="M1125 1117q-125 -557 -520 -1117h-162l-242 1117h162l194 -1022q311 506 417 1022h151z" />
    <glyph glyph-name="xi" unicode="&#x3be;" 
d="M622 -372h-186l18 149h216q63 0 103.5 25t49.5 100t-24.5 99.5t-96.5 24.5h-184q-188 0 -289 95t-80 255l6 54q15 117 102 204.5t238 100.5l6 43q-99 0 -142.5 57t-34.5 136q18 156 162 222l6 43q-153 13 -230.5 86.5t-88.5 191.5l153 13q2 -80 116.5 -124t266.5 -25
l362 147l52 -179l-378 -110l-101 -56q-80 -48 -119 -95.5t-47 -118.5t28 -104t94 -33h331l-19 -149h-326q-130 0 -196 -65.5t-77 -156.5l-6 -54q-13 -102 38.5 -165.5t179.5 -63.5h188q134 0 205 -64.5t54 -202.5t-112 -209t-238 -71z" />
    <glyph glyph-name="omicron" unicode="&#x3bf;" 
d="M540 127q134 0 208 63t92 197l41 335q34 268 -234 268t-299 -269l-43 -336q-15 -134 43 -196t192 -62zM523 -19q-203 1 -299 107t-71 303l39 328q26 201 148 309t325 108t299 -108t71 -307l-41 -326q-24 -199 -146 -307t-325 -107z" />
    <glyph glyph-name="pi" unicode="&#x3c0;" 
d="M1138 1117l-19 -145h-212l-86 -696q-11 -95 28 -123t164 -10l-19 -152q-190 -13 -272 35t-67 171l95 775h-298l-119 -972h-156l119 972h-177l19 145h1000z" />
    <glyph glyph-name="rho" unicode="&#x3c1;" 
d="M666.5 1138q188.5 0 290.5 -105.5t76 -315.5l-37 -315q-26 -205 -130.5 -313t-254.5 -108q-101 0 -173.5 48.5t-107.5 139.5h-51l-67 -541h-154l134 1089q26 210 156 315.5t318.5 105.5zM300 341q121 -209 294 -209q214 0 248 279l37 306q34 275 -232.5 275t-300.5 -275z
" />
    <glyph glyph-name="sigma1" unicode="&#x3c2;" 
d="M640 -227q63 0 103.5 24t49.5 101t-24.5 102.5t-96.5 25.5h-145q-225 0 -309 109t-58 319l32 261q53 421 464 421q213 0 295 -96t71 -301l-145 -7q11 140 -42 199t-189 59t-208.5 -61t-89.5 -195l-37 -308q-17 -134 37 -194.5t184 -60.5h146q138 0 209.5 -63.5
t53.5 -203.5t-110 -208t-233 -68h-188l18 145h212z" />
    <glyph glyph-name="sigma" unicode="&#x3c3;" 
d="M489 -19q-170 0 -266 99t-70 311l37 303q24 205 147 314t294 109h629l-20 -164l-385 37q133 -99 104 -320l-34 -279q-26 -212 -146 -311t-290 -99zM506.5 127q115.5 0 181.5 60.5t85 199.5l31 261q39 320 -194 320t-266 -272l-37 -309q-19 -140 32.5 -200t167 -60z" />
    <glyph glyph-name="tau" unicode="&#x3c4;" 
d="M804 -9q-195 -13 -270.5 33.5t-60.5 172.5l95 780h-343l19 140h854l-18 -140h-359l-88 -716q-9 -82 30 -108t160 -10z" />
    <glyph glyph-name="upsilon" unicode="&#x3c5;" 
d="M523 -19q-205 0 -300.5 102.5t-71.5 296.5l91 737h155l-92 -743q-17 -136 39 -194.5t196 -58.5t210.5 58.5t87.5 196.5l91 741h155l-92 -737q-24 -194 -144 -296.5t-325 -102.5z" />
    <glyph glyph-name="phi" unicode="&#x3c6;" 
d="M722 996l-109 -888q134 19 214 111t98 254l15 123q26 207 -29 303.5t-189 96.5zM750 1117q181 0 277 -124.5t62 -396.5l-15 -123q-28 -223 -158 -347t-320 -143l-45 -355h-147l45 355q-188 19 -287 138t-73 330l23 186q35 295 191 517l129 -59q-146 -222 -175 -458
l-22 -186q-39 -307 227 -345l124 1011h164z" />
    <glyph glyph-name="chi" unicode="&#x3c7;" 
d="M728 -372l-192 607l-352 -607h-147l455 737l-243 752h151l196 -616l361 616h147l-462 -745l241 -744h-155z" />
    <glyph glyph-name="psi" unicode="&#x3c8;" 
d="M551 -372h-145l45 361q-214 17 -302 130.5t-63 301.5l85 696h146l-88 -707q-17 -134 40 -199.5t198 -78.5l121 985h149l-121 -985q145 13 217 78.5t89 199.5l87 707h145l-85 -696q-24 -188 -139.5 -301.5t-333.5 -130.5z" />
    <glyph glyph-name="omega" unicode="&#x3c9;" 
d="M289 -19q-115 0 -173 110t-32 320l20 172q22 175 76.5 335t104.5 231l128 -60q-35 -54 -89 -199t-75 -307l-20 -168q-34 -294 104 -294q67 0 106 56t56 184l62 505h149l-62 -505q-17 -128 9.5 -184t94.5 -56q140 0 174 294l20 168q20 162 1.5 307t-38.5 199l143 60
q32 -71 47 -231t-8 -335l-20 -172q-26 -210 -110 -320t-197 -110q-80 0 -134 57t-66 182h-18q-41 -125 -108 -182t-145 -57z" />
    <glyph glyph-name="iotadieresis" unicode="&#x3ca;" 
d="M983 30q-85 -37 -222 -37q-138 0 -212 92t-54 259l77 628h-388l19 145h540l-99 -793q-22 -188 149 -188q100 0 173 33zM875 1331q-47 0 -76 22t-15 84q12 101 117 103q116 0 91 -112q-6 -58 -38 -78t-79 -19zM488 1331q-47 0 -77 21t-16 85q12 101 119 103q103 0 91 -103
l-2 -9q-7 -58 -37 -78t-78 -19z" />
    <glyph glyph-name="upsilondieresis" unicode="&#x3cb;" 
d="M523 -19q-205 1 -301 103t-71 296l91 737h155l-92 -743q-17 -136 39 -194t196 -59q140 0 210 59t88 196l91 741h155l-92 -737q-24 -194 -144 -296t-325 -103zM883 1331q-47 0 -76 22t-16 84q12 101 118 102t93 -102l-2 -9q-6 -58 -38 -78t-79 -19zM495 1331q-47 0 -77 22
t-16 84q12 101 119 103q104 0 92 -103l-2 -9q-7 -58 -38 -78t-78 -19z" />
    <glyph glyph-name="omicrontonos" unicode="&#x3cc;" 
d="M540 127q134 0 208 63t92 197l41 335q34 268 -234 268t-299 -269l-43 -336q-15 -134 43 -196t192 -62zM523 -19q-203 1 -299 107t-71 303l39 328q26 201 148 309t325 108t299 -108t71 -307l-41 -326q-24 -199 -146 -307t-325 -107zM562 1303l181 373h223l-272 -373h-132z
" />
    <glyph glyph-name="upsilontonos" unicode="&#x3cd;" 
d="M523 -19q-205 1 -301 103t-71 296l91 737h155l-92 -743q-17 -136 39 -194t196 -59q140 0 210 59t88 196l91 741h155l-92 -737q-24 -194 -144 -296t-325 -103zM564 1303l181 373h223l-272 -373h-132z" />
    <glyph glyph-name="omegatonos" unicode="&#x3ce;" 
d="M289 -19q-115 0 -174 110q-58 110 -31 320l20 172q22 175 77 335q54 160 104 231l128 -60q-35 -54 -89 -199t-75 -307l-20 -168q-34 -294 104 -294q67 0 106 56t56 184l62 505h149l-62 -505q-17 -128 9 -184q27 -56 95 -56q140 0 174 294l20 168q20 162 2 307
q-19 145 -39 199l143 60q32 -71 47 -231t-8 -335l-20 -172q-26 -210 -110 -320t-197 -110q-80 0 -134 57t-66 182h-18q-41 -125 -108 -182t-145 -57zM581 1303l180 373h224l-272 -373h-132z" />
    <glyph glyph-name="IEgravecyrillic" unicode="&#x400;" 
d="M106 0l183 1489h875l-17 -139h-721l-57 -466h635l-17 -139h-635l-75 -605h721l-17 -140h-875zM791 1676l-281 372h238l192 -372h-149z" />
    <glyph glyph-name="Iocyrillic" unicode="&#x401;" 
d="M106 0l183 1489h875l-17 -139h-721l-57 -466h635l-17 -139h-635l-75 -605h721l-17 -140h-875zM977 1704q-47 0 -75 21t-16 85q12 102 118 102q113 0 91 -112q-7 -58 -39 -77t-79 -19zM590 1704q-47 0 -76 21t-17 85q12 102 119 102q105 0 91 -102q-7 -67 -38 -87
q-32 -19 -79 -19z" />
    <glyph glyph-name="Djecyrillic" unicode="&#x402;" 
d="M750 968q195 0 278.5 -94t60.5 -286l-26 -206q-44 -382 -432 -382l17 136q110 0 177 55t84 194l26 200q17 138 -37.5 192.5t-163.5 54.5h-233l-103 -832h-152l165 1350h-264l17 139h862l-17 -139h-445l-46 -382h232z" />
    <glyph glyph-name="Gjecyrillic" unicode="&#x403;" 
d="M99 0l182 1489h879l-17 -139h-726l-166 -1350h-152zM613 1676l284 372h239l-375 -372h-148z" />
    <glyph glyph-name="Ecyrillic" unicode="&#x404;" 
d="M534 -19q-227 0 -331 134t-71 395l56 462q69 536 540 536q220 0 324 -126.5t87 -368.5l-154 -19q9 201 -54 287.5t-229 86.5t-248.5 -88t-109.5 -299l-13 -97h401l-17 -139h-400l-30 -244q-24 -205 37.5 -292.5t227.5 -87.5t249.5 85.5t122.5 281.5l150 -19
q-43 -238 -177 -363t-361 -125z" />
    <glyph glyph-name="Dzecyrillic" unicode="&#x405;" 
d="M652 1495q336 0 484 -238l-121 -110q-61 104 -161 156t-210 52t-188 -54q-76 -53 -89 -163t54 -170t289 -138t297 -164q76 -86 58 -243q-26 -210 -179 -322q-154 -112 -320 -112t-296 53t-214 181l125 107q124 -200 394 -202q134 0 227 70q92 70 106 184t-48 177
t-284 143t-304 170t-61 262t153 267q132 94 288 94z" />
    <glyph glyph-name="Icyrillic" unicode="&#x406;" 
d="M106 0l17 140h342l149 1210h-342l17 139h837l-16 -139h-343l-149 -1210h343l-17 -140h-838z" />
    <glyph glyph-name="Yicyrillic" unicode="&#x407;" 
d="M106 0l17 140h342l149 1210h-342l17 139h837l-16 -139h-343l-149 -1210h343l-17 -140h-838zM923 1704q-47 0 -75 21t-16 85q12 102 118 102q113 0 91 -112q-7 -58 -39 -77t-79 -19zM536 1704q-47 0 -76 21t-17 85q12 102 118 102t92 -102q-7 -67 -38 -87q-32 -19 -79 -19
z" />
    <glyph glyph-name="Jecyrillic" unicode="&#x408;" 
d="M488 -19q-222 -1 -320 117q-96 118 -75 367l155 21q-13 -216 39 -290t211 -75q308 0 353 344l108 885h-337l17 139h491l-125 -1018q-31 -240 -163 -365t-354 -125z" />
    <glyph glyph-name="Ljecyrillic" unicode="&#x409;" 
d="M700 149q88 0 144.5 57t75.5 196l16 147q19 141 -24.5 198t-131.5 57h-86l-80 -655h86zM795 951q337 0 289 -409l-17 -140q-52 -402 -387 -402h-231l164 1341h-211l-143 -1023q-22 -173 -96 -252t-165 -79q-42 0 -104 20l52 148q41 -17 61 -17q81 -9 107 173l163 1178
h501l-65 -538h82z" />
    <glyph glyph-name="Njecyrillic" unicode="&#x40a;" 
d="M806 951q326 0 278 -409l-17 -140q-53 -402 -376 -402h-242l89 735h-268l-89 -735h-147l182 1489h147l-74 -614h268l74 614h147l-65 -538h93zM713 149q82 0 135 57t72 196l16 147q19 141 -21 198t-122 57h-99l-80 -655h99z" />
    <glyph glyph-name="Tshecyrillic" unicode="&#x40b;" 
d="M741 907q387 0 339 -388l-63 -519h-153l63 518q17 136 -29.5 194.5t-171.5 58.5h-251l-95 -771h-153l166 1350h-265l17 139h860l-16 -139h-443l-54 -443h249z" />
    <glyph glyph-name="Kjecyrillic" unicode="&#x40c;" 
d="M350 728l-89 -728h-155l183 1489h154l-76 -621h56l625 621h183l-695 -683l507 -806h-190l-442 728h-61zM650 1676l285 372h238l-374 -372h-149z" />
    <glyph glyph-name="Igravecyrillic" unicode="&#x40d;" 
d="M804 0l162 1318l-631 -1318h-229l183 1489h139l-162 -1323l641 1323h219l-182 -1489h-140zM717 1676l-281 372h238l192 -372h-149z" />
    <glyph glyph-name="Ushortcyrillic" unicode="&#x40e;" 
d="M259 0q-47 0 -132 17l46 139q87 -17 119 -16q84 0 133 50t96 149l8 11h-56l-285 1139h155l240 -1037l495 1037h147l-599 -1210q-80 -163 -173 -221t-194 -58zM724 1663q-145 0 -238 80t-71 279l160 19q-13 -134 23 -192t143 -58q108 0 156 58t69 192l157 -19
q-26 -199 -140 -279t-259 -80z" />
    <glyph glyph-name="Dzhecyrillic" unicode="&#x40f;" 
d="M415 -279l34 279h-343l183 1489h154l-166 -1349h529l166 1349h154l-182 -1489h-343l-33 -279h-153z" />
    <glyph glyph-name="Acyrillic" unicode="&#x410;" 
d="M884 0l-70 451h-471l-181 -451h-162l631 1489h155l264 -1489h-166zM791 590l-111 700l-282 -700h393z" />
    <glyph glyph-name="Becyrillic" unicode="&#x411;" 
d="M566 140q143 0 211 57.5t85 193.5l9 74q17 134 -37 191t-197 57h-289l-71 -573h289zM687 849q184 0 272.5 -92t68.5 -264l-15 -111q-22 -184 -133 -283t-295 -99h-479l183 1489h796l-16 -139h-643l-61 -501h322z" />
    <glyph glyph-name="Vecyrillic" unicode="&#x412;" 
d="M598 145q134 0 201 60t84 193l7 51q15 133 -38 193t-187 60h-319l-67 -557h319zM646 847q125 0 189 54t79 173l6 43q16 119 -36 173t-177 54h-281l-61 -497h281zM702 1489q210 0 302 -86q91 -87 68 -264l-11 -89q-11 -88 -71 -153t-148 -82l-8 -54q110 -11 169 -93
t41 -210l-9 -82q-24 -190 -147 -283t-356 -93h-426l183 1489h413z" />
    <glyph glyph-name="Gecyrillic" unicode="&#x413;" 
d="M99 0l182 1489h879l-17 -139h-726l-166 -1350h-152z" />
    <glyph glyph-name="Decyrillic" unicode="&#x414;" 
d="M104 0l-33 -279h-159l51 419h102q134 104 177 435l115 914h740l-166 -1349h175l-50 -419h-159l34 279h-827zM251 190l-7 -50h531l148 1210h-431l-103 -786q-19 -136 -44 -223.5t-94 -150.5z" />
    <glyph glyph-name="Iecyrillic" unicode="&#x415;" 
d="M106 0l183 1489h875l-17 -139h-721l-57 -466h635l-17 -139h-635l-75 -605h721l-17 -140h-875z" />
    <glyph glyph-name="Zhecyrillic" unicode="&#x416;" 
d="M473 735l-380 -735h-162l438 797l-250 692h151l218 -629h72l77 629h145l-76 -629h72l369 629h153l-417 -688l238 -801h-162l-199 735h-71l-89 -735h-146l90 735h-71z" />
    <glyph glyph-name="Zecyrillic" unicode="&#x417;" 
d="M532 117q162 0 243 65.5t102 221.5l6 45q19 156 -39 215.5t-228 59.5h-171l17 142h171q149 0 213 48.5t79 167.5l8 56q15 127 -44 180.5t-204 53.5t-211 -60.5t-98 -211.5l-153 19q37 205 151 297t318 92t311 -92t82 -288l-7 -63q-13 -110 -92 -172.5t-208 -69.5l-5 -54
q151 -13 215 -100.5t49 -210.5l-6 -52q-54 -425 -509 -425q-240 0 -337 100t-84 316l156 18q-6 -162 53.5 -230t221.5 -68z" />
    <glyph glyph-name="Iicyrillic" unicode="&#x418;" 
d="M804 0l162 1318l-631 -1318h-229l183 1489h139l-162 -1323l641 1323h219l-182 -1489h-140z" />
    <glyph glyph-name="Iishortcyrillic" unicode="&#x419;" 
d="M804 0l162 1318l-631 -1318h-229l183 1489h139l-162 -1323l641 1323h219l-182 -1489h-140zM743 1663q-145 0 -238 80t-71 279l160 19q-13 -134 22 -192q36 -58 144 -58t156 58t69 192l156 -19q-25 -199 -139 -279t-259 -80z" />
    <glyph glyph-name="Kacyrillic" unicode="&#x41a;" 
d="M350 728l-89 -728h-155l183 1489h154l-76 -621h56l625 621h183l-695 -683l507 -806h-190l-442 728h-61z" />
    <glyph glyph-name="Elcyrillic" unicode="&#x41b;" 
d="M61 119q84 0 131.5 84t70.5 259l132 1027h731l-182 -1489h-155l166 1350h-430l-117 -912q-32 -235 -124 -345t-228 -110q-79 0 -134 21l44 134q55 -19 95 -19z" />
    <glyph glyph-name="Emcyrillic" unicode="&#x41c;" 
d="M488 350l-144 894l-158 -1244h-138l183 1489h221l146 -938l374 938h212l-182 -1489h-138l147 1247l-363 -897h-160z" />
    <glyph glyph-name="Encyrillic" unicode="&#x41d;" 
d="M106 0l183 1489h154l-74 -614h528l75 614h154l-182 -1489h-155l90 735h-529l-89 -735h-155z" />
    <glyph glyph-name="Ocyrillic" unicode="&#x41e;" 
d="M540 121q164 0 244 88t104 297l58 470q26 212 -32 302t-222 90t-243 -90q-80 -90 -106 -302l-58 -470q-25 -209 33 -297t222 -88zM524 -19q-222 0 -324 136q-100 136 -68 397l56 454q32 266 166 403t356 137t322 -137t68 -403l-56 -454q-32 -261 -165 -397t-355 -136z
" />
    <glyph glyph-name="Pecyrillic" unicode="&#x41f;" 
d="M106 0l183 1489h837l-182 -1489h-155l166 1350h-529l-165 -1350h-155z" />
    <glyph glyph-name="Ercyrillic" unicode="&#x420;" 
d="M661 674q145 0 214 60t86 193l22 173q15 132 -39 191t-199 59h-319l-83 -676h318zM763 1489q216 0 307 -94q90 -95 66 -295l-21 -167q-27 -199 -141 -297t-330 -98h-318l-65 -538h-155l183 1489h474z" />
    <glyph glyph-name="Escyrillic" unicode="&#x421;" 
d="M538 -19q-473 0 -406 529l56 462q69 536 540 536q230 0 330 -120t81 -375l-154 -19q7 209 -52 292q-59 82 -229 82t-252 -88t-108 -299l-59 -480q-24 -201 38 -291t231 -89q169 0 247 81t121 286l150 -19q-45 -253 -172 -371q-128 -118 -362 -117z" />
    <glyph glyph-name="Tecyrillic" unicode="&#x422;" 
d="M449 0l165 1350h-430l17 139h1013l-17 -139h-430l-166 -1350h-152z" />
    <glyph glyph-name="Ucyrillic" unicode="&#x423;" 
d="M292 140q84 0 133.5 50t95.5 149l8 11h-56l-285 1139h155l240 -1037l495 1037h147l-599 -1210q-80 -164 -173 -221.5t-172 -57.5t-154 17l46 139q80 -16 119 -16z" />
    <glyph glyph-name="Efcyrillic" unicode="&#x424;" 
d="M428 313h65l107 864h-66q-114 0 -174 -79.5t-83 -270.5l-22 -172q-22 -186 18.5 -264t154.5 -78zM808 1177h-65l-106 -864h65q114 0 172.5 78t80.5 264l22 172q22 192 -16.5 271t-152.5 79zM685 168h-59l-23 -187h-160l22 187h-55q-194 0 -268.5 131t-46.5 356l22 172
q26 227 133 361t299 134h58l22 186h160l-22 -186h60q192 0 264.5 -134t46.5 -361l-23 -172q-28 -225 -133 -356t-297 -131z" />
    <glyph glyph-name="Khacyrillic" unicode="&#x425;" 
d="M905 0l-300 635l-458 -635h-186l577 758l-352 731h181l286 -608l438 608h184l-554 -729l366 -760h-182z" />
    <glyph glyph-name="Tsecyrillic" unicode="&#x426;" 
d="M842 -279l33 279h-769l183 1489h154l-166 -1349h442l165 1349h153l-166 -1349h173l-50 -419h-152z" />
    <glyph glyph-name="Checyrillic" unicode="&#x427;" 
d="M592 534q-227 0 -312 86.5t-60 288.5l70 580h153l-71 -577q-15 -128 39 -184t198 -56h264l101 817h152l-182 -1489h-153l65 534h-264z" />
    <glyph glyph-name="Shacyrillic" unicode="&#x428;" 
d="M34 0l182 1489h147l-166 -1353h272l166 1353h145l-166 -1353h272l166 1353h147l-182 -1489h-983z" />
    <glyph glyph-name="Shchacyrillic" unicode="&#x429;" 
d="M1061 -257h-152l31 257h-906l182 1489h147l-166 -1353h272l166 1353h145l-166 -1353h272l166 1353h147l-166 -1353h77z" />
    <glyph glyph-name="Hardsigncyrillic" unicode="&#x42a;" 
d="M668 140q123 0 183.5 58.5t77.5 190.5l21 175q17 132 -29 191.5t-169 59.5h-216l-84 -675h216zM650 0h-369l166 1350h-335l16 139h490l-65 -538h212q201 0 282 -95t57 -299l-20 -170q-26 -201 -129.5 -294t-304.5 -93z" />
    <glyph glyph-name="Yericyrillic" unicode="&#x42b;" 
d="M337 136q91 0 150 57.5t75 199.5l21 167q17 141 -27 200t-135 59h-104l-84 -683h104zM834 0l183 1489h145l-183 -1489h-145zM438 951q175 0 245.5 -96.5t44.5 -303.5l-19 -158q-24 -203 -118 -298t-267 -95h-253l182 1489h145l-65 -538h105z" />
    <glyph glyph-name="Softsigncyrillic" unicode="&#x42c;" 
d="M596 140q123 0 200 55.5t94 195.5l20 171q17 140 -45.5 196.5t-184.5 56.5h-319l-84 -675h319zM691 951q218 0 307 -95.5t65 -300.5l-20 -164q-26 -203 -139 -297t-329 -94h-469l183 1489h154l-65 -538h313z" />
    <glyph glyph-name="Ereversedcyrillic" unicode="&#x42d;" 
d="M728 1508q249 0 346 -135t64 -401l-56 -462q-34 -261 -162 -395t-361 -134t-339 120.5t-90 367.5l155 19q-7 -194 53 -280.5t227 -86.5t252.5 93t109.5 287l30 244h-477l17 139h477l13 97q26 210 -37.5 298.5t-229.5 88.5t-248.5 -86.5t-123.5 -287.5l-151 19
q84 495 531 495z" />
    <glyph glyph-name="IUcyrillic" unicode="&#x42e;" 
d="M696.5 112q100.5 0 153.5 80t75 264l69 562q24 192 -8.5 274t-133 82t-153.5 -82t-77 -274l-69 -562q-22 -184 10.5 -264t133 -80zM682 -19q-172 0 -237 127t-37 348l37 298h-173l-93 -754h-145l182 1489h145l-74 -614h173l17 143q28 229 123.5 359.5t348 130.5
t192.5 -490l-69 -562q-28 -222 -123 -348.5t-267 -126.5z" />
    <glyph glyph-name="IAcyrillic" unicode="&#x42f;" 
d="M616 1489h510l-182 -1489h-155l73 590h-261l-413 -590h-190l430 590q-175 15 -246.5 113.5t-49.5 286.5l15 112q24 199 137.5 293t331.5 94zM521 726h358l76 624h-357q-141 0 -211 -58t-85 -186l-15 -117q-17 -140 38 -201.5t196 -61.5z" />
    <glyph glyph-name="acyrillic" unicode="&#x430;" 
d="M374 -19q-126 1 -216 77t-70 230q18 154 117 239q99 84 221 84h354l22 175q11 89 -39 146t-166 57q-115 0 -177 -40t-115 -169l-130 45q48 151 160 231t275 80t266 -79t85 -243l-67 -537q-11 -101 37 -129t156 -5l-18 -152q-114 -13 -199 22t-73 171h-32
q-58 -88 -161 -146q-104 -58 -230 -57zM412 127q211 0 331 171l22 184h-309q-188 0 -208 -168q-11 -92 26 -139q36 -48 138 -48z" />
    <glyph glyph-name="becyrillic" unicode="&#x431;" 
d="M540 127q145 0 213 68t85 205l26 203q15 128 -36.5 191.5t-196.5 63.5t-214 -63t-84 -192l-26 -203q-17 -138 35.5 -205.5t197.5 -67.5zM524 -19q-187 0 -292 100t-77 321l72 598q24 195 151 297.5t311 141.5l370 77l10 -131l-373 -76q-155 -30 -237.5 -114.5
t-104.5 -269.5l-6 -46h41q30 47 108 86.5t197 39.5q184 0 268 -104t62 -283l-28 -218q-26 -212 -155.5 -315.5t-316.5 -103.5z" />
    <glyph glyph-name="vecyrillic" unicode="&#x432;" 
d="M532 143q177 0 247 37.5t83 143.5q24 114 -38.5 153t-229.5 39h-270l-47 -373h255zM611 657q151 0 209.5 29t67.5 105l4 26q11 88 -44 119.5t-213 31.5h-255l-39 -311h270zM653 1117q222 0 323 -75.5t70 -231.5q-9 -89 -79 -139.5t-181 -57.5l-4 -41q132 -9 190 -77.5
t46 -163.5q-24 -331 -502 -331h-412l138 1117h411z" />
    <glyph glyph-name="gecyrillic" unicode="&#x433;" 
d="M192 0l138 1117h776l-19 -140h-623l-120 -977h-152z" />
    <glyph glyph-name="decyrillic" unicode="&#x434;" 
d="M156 0l-33 -279h-157l51 419h123q108 83 141 320l88 657h646l-121 -977h175l-51 -419h-158l34 279h-738zM330 188l-6 -48h413l103 837h-339l-71 -530q-23 -173 -100 -259z" />
    <glyph glyph-name="iecyrillic" unicode="&#x435;" 
d="M648 994q-268 0 -302 -287l-7 -48h532l6 32q37 305 -229 303zM536 121q130 0 191 41t102 125l148 -47q-63 -134 -163 -196t-294 -62q-196 0 -295 102q-99 104 -72 309l39 324q26 212 157 315q131 104 319 104t289 -105q102 -105 74 -329l-20 -171h-687l-17 -134
q-19 -149 40 -213t189 -63z" />
    <glyph glyph-name="zhecyrillic" unicode="&#x436;" 
d="M467 547l-322 -547h-165l387 609l-255 508h165l205 -439h54l54 439h145l-54 -439h54l315 439h164l-384 -506l241 -611h-164l-190 547h-52l-67 -547h-146l67 547h-52z" />
    <glyph glyph-name="zecyrillic" unicode="&#x437;" 
d="M542 128q158 0 233.5 40.5t88.5 157.5l4 18q13 115 -49.5 155.5t-218.5 40.5h-99l17 140h98q141 0 204 27.5t72 102.5l4 26q11 88 -48.5 119.5t-199.5 31.5t-204 -38.5t-92 -153.5l-155 15q35 177 142 251.5t313 74.5t311.5 -69t84.5 -225l-2 -21q-11 -89 -79 -140.5
t-179 -58.5l-6 -41q134 -9 191 -81t45 -170q-27 -349 -493 -349q-242 0 -334 79.5t-81 269.5l156 13q-4 -128 57 -171.5t219 -43.5z" />
    <glyph glyph-name="iicyrillic" unicode="&#x438;" 
d="M795 0l115 933l-590 -933h-216l138 1117h151l-116 -942l600 942h207l-138 -1117h-151z" />
    <glyph glyph-name="iishortcyrillic" unicode="&#x439;" 
d="M795 0l115 933l-590 -933h-216l138 1117h151l-116 -942l600 942h207l-138 -1117h-151zM683 1290q-145 0 -238 80t-71 280l160 18q-14 -134 22 -192t144 -58t156 58t69 192l157 -18q-26 -200 -140 -280t-259 -80z" />
    <glyph glyph-name="kacyrillic" unicode="&#x43a;" 
d="M415 521l-63 -521h-155l138 1117h155l-58 -460h89l391 460h194l-477 -523l335 -594h-178l-281 521h-90z" />
    <glyph glyph-name="elcyrillic" unicode="&#x43b;" 
d="M99 123q89 0 133 77t70 265l85 652h695l-138 -1117h-155l120 972h-391l-71 -531q-30 -236 -123 -347t-231 -111q-52 0 -115 21l44 137q60 -18 77 -18z" />
    <glyph glyph-name="emcyrillic" unicode="&#x43c;" 
d="M469 279l-112 734l-130 -1013h-139l137 1117h261l97 -689l266 689h251l-137 -1117h-140l115 1004l-290 -725h-179z" />
    <glyph glyph-name="encyrillic" unicode="&#x43d;" 
d="M104 0l138 1117h155l-49 -396h533l48 396h155l-138 -1117h-155l71 581h-532l-71 -581h-155z" />
    <glyph glyph-name="ocyrillic" unicode="&#x43e;" 
d="M540 127q134 0 208 63t92 197l41 335q34 268 -234 268t-299 -269l-43 -336q-15 -134 43 -196t192 -62zM523 -19q-203 1 -299 107t-71 303l39 328q26 201 148 309t325 108t299 -108t71 -307l-41 -326q-24 -199 -146 -307t-325 -107z" />
    <glyph glyph-name="pecyrillic" unicode="&#x43f;" 
d="M104 0l138 1117h842l-138 -1117h-155l119 977h-532l-119 -977h-155z" />
    <glyph glyph-name="ercyrillic" unicode="&#x440;" 
d="M501 -20q-120 0 -238 55l-51 -407h-154l184 1489h155l-23 -169h50q52 88 140 138t184 50q156 0 232 -115t53 -312l-39 -314q-24 -195 -156 -305t-337 -110zM522 121q148 0 225 67q76 67 93 212l41 328q33 258 -173 256q-102 0 -184 -51q-83 -50 -170 -157l-71 -579
q91 -76 239 -76z" />
    <glyph glyph-name="escyrillic" unicode="&#x441;" 
d="M675 1136q207 0 302 -93t82 -282l-150 -7q7 127 -52 182q-59 54 -197 54q-280 -1 -312 -264l-43 -342q-15 -130 51 -194t202 -63q136 -1 206 45t91 154l150 -8q-67 -337 -458 -337q-221 -1 -321 103t-73 303l39 332q26 205 151 311t332 106z" />
    <glyph glyph-name="tecyrillic" unicode="&#x442;" 
d="M449 0l119 977h-399l19 140h950l-19 -140h-398l-120 -977h-152z" />
    <glyph glyph-name="ucyrillic" unicode="&#x443;" 
d="M73 -218q93 -21 141 -20q174 0 270 219h-50l-233 1136h170l175 -992l415 992h164l-520 -1167q-148 -332 -426 -332q-59 0 -157 21z" />
    <glyph glyph-name="efcyrillic" unicode="&#x444;" 
d="M653 143q236 0 276 326l21 175q41 332 -194 332h-47l-102 -833h46zM532 976q-234 0 -275 -332l-21 -175q-40 -326 194 -326h47l102 833h-47zM655 0h-57l-47 -372h-145l46 372h-57q-169 0 -250.5 123t-53.5 342l23 185q26 222 137.5 344.5t280.5 122.5h58l45 372h145
l-45 -372h58q169 0 249.5 -123t54.5 -342l-23 -187q-28 -220 -139 -342.5t-280 -122.5z" />
    <glyph glyph-name="khacyrillic" unicode="&#x445;" 
d="M786 0l-216 439l-315 -439h-175l426 559l-277 558h177l208 -428l322 428h176l-434 -549l285 -568h-177z" />
    <glyph glyph-name="tsecyrillic" unicode="&#x446;" 
d="M851 -279l33 279h-780l138 1117h155l-121 -977h441l121 977h152l-121 -977h177l-50 -419h-145z" />
    <glyph glyph-name="checyrillic" unicode="&#x447;" 
d="M748 410q-90 -38 -230 -38q-203 0 -291.5 94t-64.5 288l45 363h154l-44 -359q-17 -138 42.5 -193t182.5 -58t225 52l69 558h154l-137 -1117h-155z" />
    <glyph glyph-name="shacyrillic" unicode="&#x448;" 
d="M34 0l137 1117h146l-123 -990h273l123 990h145l-122 -990h273l123 990h145l-137 -1117h-983z" />
    <glyph glyph-name="shchacyrillic" unicode="&#x449;" 
d="M1080 -279h-145l33 279h-934l137 1117h146l-123 -990h273l123 990h145l-122 -990h273l123 990h145l-119 -972h97z" />
    <glyph glyph-name="hardsigncyrillic" unicode="&#x44a;" 
d="M627 145q121 0 181.5 44t74.5 139l9 78q11 93 -39.5 136.5t-171.5 43.5h-271l-54 -441h271zM644 0h-460l119 977h-256l18 140h410l-49 -389h306q166 0 248.5 -85.5t63.5 -236.5l-9 -73q-19 -156 -123 -244.5t-268 -88.5z" />
    <glyph glyph-name="yericyrillic" unicode="&#x44b;" 
d="M357 140q101 0 151.5 45.5t63.5 144.5l7 65q11 95 -28 141.5t-140 46.5h-124l-54 -443h124zM834 0l138 1117h145l-138 -1117h-145zM464 719q141 0 212 -89.5t50 -245.5l-5 -45q-19 -160 -110.5 -249.5t-230.5 -89.5h-309l138 1117h145l-51 -398h161z" />
    <glyph glyph-name="softsigncyrillic" unicode="&#x44c;" 
d="M637 145q119 0 177.5 44t71.5 139l10 82q11 93 -37.5 134.5t-167.5 41.5h-360l-54 -441h360zM739 728q164 0 247 -84.5t64 -235.5l-9 -77q-19 -156 -123 -243.5t-266 -87.5h-546l138 1117h153l-49 -389h391z" />
    <glyph glyph-name="ereversedcyrillic" unicode="&#x44d;" 
d="M642 1136q444 0 391 -419l-39 -322q-48 -414 -495 -414q-197 0 -289.5 87t-82.5 262l149 5q-7 -106 52 -155.5t197 -49.5q281 0 315 259l15 119h-401l15 136h400l10 75q33 268 -249 268q-140 0 -211 -59.5t-95 -192.5l-147 8q75 393 465 393z" />
    <glyph glyph-name="iucyrillic" unicode="&#x44e;" 
d="M700 130q102 0 153.5 54t66.5 183l46 376q17 132 -21 188t-140 56t-153 -56t-67 -188l-47 -376q-15 -128 22.5 -182.5t139.5 -54.5zM683 -19q-173 0 -241 102.5t-45 283.5l22 186h-156l-68 -553h-161l137 1117h162l-52 -415h157l5 41q22 184 115.5 288.5t267.5 104.5
t239 -107t43 -286l-47 -376q-20 -175 -112.5 -280.5t-265.5 -105.5z" />
    <glyph glyph-name="iacyrillic" unicode="&#x44f;" 
d="M577 1117h507l-138 -1117h-155l51 404h-170l-387 -404h-196l384 398q-155 4 -227.5 91.5t-51.5 249.5l3 36q20 168 118 255t262 87zM499 549h359l52 419h-359q-93 0 -140.5 -43.5t-58.5 -136.5l-6 -41q-11 -101 24.5 -149.5t128.5 -48.5z" />
    <glyph glyph-name="iegravecyrillic" unicode="&#x450;" 
d="M648 994q-268 0 -302 -287l-7 -48h532l6 32q37 305 -229 303zM536 121q130 0 191 41t102 125l148 -47q-63 -134 -163 -196t-294 -62q-196 0 -295 102q-99 104 -72 309l39 324q26 212 157 315q131 104 319 104t289 -105q102 -105 74 -329l-20 -171h-687l-17 -134
q-19 -149 40 -213t189 -63zM693 1303l-282 373h239l192 -373h-149z" />
    <glyph glyph-name="iocyrillic" unicode="&#x451;" 
d="M648 994q-268 0 -302 -287l-7 -48h532l6 32q37 305 -229 303zM536 121q130 0 191 41t102 125l148 -47q-63 -134 -163 -196t-294 -62q-196 0 -295 102q-99 104 -72 309l39 324q26 212 157 315q131 104 319 104t289 -105q102 -105 74 -329l-20 -171h-687l-17 -134
q-19 -149 40 -213t189 -63zM884 1331q-47 0 -76 22t-15 84q12 101 117 103q106 0 94 -103l-2 -9q-7 -58 -39 -78t-79 -19zM497 1331q-47 0 -77 22t-16 84q12 101 119 103q105 0 91 -103q-7 -67 -39 -86q-31 -20 -78 -20z" />
    <glyph glyph-name="djecyrillic" unicode="&#x452;" 
d="M583 -223q78 0 135.5 54t74.5 180l84 682q13 104 -37.5 155t-142.5 51q-176 0 -351 -192l-87 -707h-155l145 1186h-169l19 141h169l19 162h154l-18 -162h348l-19 -141h-348l-39 -322h50q52 89 140.5 138.5t198.5 49.5q147 0 223.5 -89.5t57.5 -238.5l-91 -735
q-22 -190 -130.5 -283t-253.5 -93q-89 0 -210 41l56 165q99 -42 177 -42z" />
    <glyph glyph-name="gjecyrillic" unicode="&#x453;" 
d="M192 0l138 1117h776l-19 -140h-623l-120 -977h-152zM633 1303l285 373h238l-374 -373h-149z" />
    <glyph glyph-name="ecyrillic" unicode="&#x454;" 
d="M674 1136q208 0 300.5 -100t81.5 -293l-153 -8q9 130 -46.5 190t-194.5 60q-283 0 -316 -266l-7 -73h395l-17 -138h-395l-15 -119q-17 -130 49 -193.5t202 -63.5t207 48.5t90 154.5l150 -5q-68 -349 -458 -349q-444 0 -394 414l39 322q26 205 150 312t332 107z" />
    <glyph glyph-name="dzecyrillic" unicode="&#x455;" 
d="M560 -20q-295 0 -474 163l93 131q152 -142 383 -144q101 0 185 33q85 33 95 127t-54 130t-249 66t-269 104t-66 228t142 236q123 82 262 82q262 0 438 -170l-95 -132q-161 151 -348 151q-91 0 -164 -37t-83 -127q-10 -89 50 -127t246 -68t273 -107q88 -78 71 -214
q-20 -169 -155 -247t-281 -78z" />
    <glyph glyph-name="icyrillic.salt_serifs" unicode="&#xe02e;" 
d="M620 145h384l-19 -145h-536l119 972h-384l19 145h536zM688 1329q-60 0 -99 21t-25 85q12 103 151 103q61 0 99 -24t24 -88q-7 -58 -48 -78q-42 -20 -102 -19z" />
    <glyph glyph-name="icyrillic.salt_serifs" unicode="&#x456;" 
d="M620 145h384l-19 -145h-536l119 972h-384l19 145h536zM688 1329q-60 0 -99 21t-25 85q12 103 151 103q61 0 99 -24t24 -88q-7 -58 -48 -78q-42 -20 -102 -19z" />
    <glyph glyph-name="yicyrillic.salt_serifs" unicode="&#xe02f;" 
d="M620 145h384l-19 -145h-536l119 972h-384l19 145h536zM836 1331q-47 0 -76 21t-15 85q12 101 117 103q116 0 91 -112q-7 -58 -39 -78t-78 -19zM449 1331q-47 0 -77 21t-16 85q12 101 119 103q103 0 91 -103l-2 -9q-8 -58 -38 -78t-77 -19z" />
    <glyph glyph-name="yicyrillic.salt_serifs" unicode="&#x457;" 
d="M620 145h384l-19 -145h-536l119 972h-384l19 145h536zM836 1331q-47 0 -76 21t-15 85q12 101 117 103q116 0 91 -112q-7 -58 -39 -78t-78 -19zM449 1331q-47 0 -77 21t-16 85q12 101 119 103q103 0 91 -103l-2 -9q-8 -58 -38 -78t-77 -19z" />
    <glyph glyph-name="jecyrillic" unicode="&#x458;" 
d="M336 -223q256 0 288 232l117 963h-484l19 145h636l-139 -1130q-23 -194 -153 -284t-283 -90t-272 41l56 165q96 -42 215 -42zM858 1331q-60 0 -100 21q-39 21 -24 85q7 58 48 80q41 23 102 23t99 -24t24 -88q-7 -58 -48 -78t-101 -19z" />
    <glyph glyph-name="ljecyrillic" unicode="&#x459;" 
d="M802 586h-113l-54 -441h113q157 4 179 175l11 90q22 176 -136 176zM57 149q32 0 61 30t40 104l125 834h471l-48 -389h147q127 0 189 -86.5t43 -237.5l-13 -104q-17 -140 -99.5 -220t-207.5 -80h-298l118 963h-179l-103 -687q-22 -149 -98.5 -221t-172.5 -72
q-55 0 -120 24l56 162q57 -20 89 -20z" />
    <glyph glyph-name="njecyrillic" unicode="&#x45a;" 
d="M832 719q127 0 189.5 -88.5t43.5 -239.5l-11 -84q-17 -143 -100 -225t-207 -82h-298l70 577h-268l-70 -577h-147l137 1117h147l-50 -400h268l50 400h148l-51 -398h149zM730 145q157 0 177 153l13 106q9 88 -24.5 130.5t-113.5 42.5h-115l-53 -432h116z" />
    <glyph glyph-name="tshecyrillic" unicode="&#x45b;" 
d="M754 1052q146 0 222 -90t57 -245l-87 -717h-155l84 687q26 212 -184 212q-168 0 -347 -199l-85 -700h-155l145 1186h-169l19 141h169l19 162h154l-18 -162h348l-19 -141h-348l-41 -330h50q47 92 140 144t201 52z" />
    <glyph glyph-name="kjecyrillic" unicode="&#x45c;" 
d="M415 521l-63 -521h-155l138 1117h155l-58 -460h89l391 460h194l-477 -523l335 -594h-178l-281 521h-90zM601 1303l285 373h239l-375 -373h-149z" />
    <glyph glyph-name="igravecyrillic" unicode="&#x45d;" 
d="M795 0l115 933l-590 -933h-216l138 1117h151l-116 -942l600 942h207l-138 -1117h-151zM687 1303l-281 373h238l192 -373h-149z" />
    <glyph glyph-name="ushortcyrillic" unicode="&#x45e;" 
d="M73 -218q93 -21 141 -20q174 0 270 219h-50l-233 1136h170l175 -992l415 992h164l-520 -1167q-148 -332 -426 -332q-59 0 -157 21zM683 1290q-145 0 -238 80t-71 280l160 18q-14 -134 22 -192t144 -58t156 58t69 192l157 -18q-26 -200 -140 -280t-259 -80z" />
    <glyph glyph-name="dzhecyrillic" unicode="&#x45f;" 
d="M417 -279l34 279h-347l138 1117h155l-121 -977h532l121 977h155l-138 -1117h-346l-34 -279h-149z" />
    <glyph glyph-name="Gheupturncyrillic" unicode="&#x490;" 
d="M99 0l182 1489h726l36 280h152l-52 -419h-726l-166 -1350h-152z" />
    <glyph glyph-name="gheupturncyrillic" unicode="&#x491;" 
d="M192 0l138 1117h629l33 279h147l-52 -419h-623l-120 -977h-152z" />
    <glyph glyph-name="Wgrave" unicode="&#x1e80;" 
d="M735 0l-96 929l-324 -929h-159l-3 1489h158l-22 -1238l292 866h173l80 -864l279 1236h149l-368 -1489h-159zM750 1676l-281 372h238l192 -372h-149z" />
    <glyph glyph-name="wgrave" unicode="&#x1e81;" 
d="M678 0l-58 771l-240 -771h-185l-57 1117h151l9 -1016l238 835h203l47 -808l251 989h151l-333 -1117h-177zM691 1303l-281 373h238l192 -373h-149z" />
    <glyph glyph-name="Wacute" unicode="&#x1e82;" 
d="M735 0l-96 929l-324 -929h-159l-3 1489h158l-22 -1238l292 866h173l80 -864l279 1236h149l-368 -1489h-159zM553 1676l285 372h238l-374 -372h-149z" />
    <glyph glyph-name="wacute" unicode="&#x1e83;" 
d="M678 0l-58 771l-240 -771h-185l-57 1117h151l9 -1016l238 835h203l47 -808l251 989h151l-333 -1117h-177zM484 1303l285 373h238l-374 -373h-149z" />
    <glyph glyph-name="Wdieresis" unicode="&#x1e84;" 
d="M735 0l-96 929l-324 -929h-159l-3 1489h158l-22 -1238l292 866h173l80 -864l279 1236h149l-368 -1489h-159zM922 1704q-47 0 -73 19t-19 82t39 85t79 22q113 0 91 -112q-7 -58 -39 -77t-78 -19zM534 1704q-47 0 -76 21t-17 85q12 102 119 102q112 0 90 -112
q-7 -58 -38 -77t-78 -19z" />
    <glyph glyph-name="wdieresis" unicode="&#x1e85;" 
d="M678 0l-58 771l-240 -771h-185l-57 1117h151l9 -1016l238 835h203l47 -808l251 989h151l-333 -1117h-177zM881 1331q-47 0 -73 19t-19 82t39 85q32 23 80 23q105 1 92 -103l-2 -9q-6 -58 -38 -78t-79 -19zM493 1331q-47 0 -77 22t-16 84q12 101 119 103q104 0 92 -103
l-2 -9q-7 -58 -38 -78t-78 -19z" />
    <glyph glyph-name="Ygrave" unicode="&#x1ef2;" 
d="M601 0h-152l69 559l-384 930h175l315 -782l482 782h173l-609 -930zM732 1676l-281 372h238l192 -372h-149z" />
    <glyph glyph-name="ygrave" unicode="&#x1ef3;" 
d="M73 -218q93 -21 141 -20q174 0 270 219h-50l-233 1136h170l175 -992l415 992h164l-520 -1167q-148 -332 -426 -332q-59 0 -157 21zM691 1303l-281 373h238l192 -373h-149z" />
    <glyph glyph-name="uni2000" unicode="&#x2000;" 
 />
    <glyph glyph-name="uni2001" unicode="&#x2001;" 
 />
    <glyph glyph-name="uni2002" unicode="&#x2002;" 
 />
    <glyph glyph-name="uni2003" unicode="&#x2003;" 
 />
    <glyph glyph-name="uni2004" unicode="&#x2004;" 
 />
    <glyph glyph-name="uni2005" unicode="&#x2005;" 
 />
    <glyph glyph-name="uni2007" unicode="&#x2007;" 
 />
    <glyph glyph-name="uni2009" unicode="&#x2009;" 
 />
    <glyph glyph-name="uni200A" unicode="&#x200a;" 
 />
    <glyph glyph-name="uni200B" unicode="&#x200b;" horiz-adv-x="0" 
 />
    <glyph glyph-name="endash" unicode="&#x2013;" 
d="M179 572l18 154h834l-18 -154h-834z" />
    <glyph glyph-name="emdash" unicode="&#x2014;" 
d="M-2 572l19 154h1195l-19 -154h-1195z" />
    <glyph glyph-name="horizontalbar" unicode="&#x2015;" 
d="M-2 572l19 154h1195l-19 -154h-1195z" />
    <glyph glyph-name="underscoredbl" unicode="&#x2017;" 
d="M2 0l20 155h954l-21 -155h-953zM2 -337l20 155h954l-21 -155h-953z" />
    <glyph glyph-name="quoteright" unicode="&#x2019;" 
d="M352 767l277 722h326l-467 -722h-136z" />
    <glyph glyph-name="quotesinglbase" unicode="&#x201a;" 
d="M235 -395l245 723h326l-435 -723h-136z" />
    <glyph glyph-name="quotereversed" unicode="&#x201b;" 
d="M706 767l-293 722h326l104 -722h-137z" />
    <glyph glyph-name="quotedblleft" unicode="&#x201c;" 
d="M110 767l471 722h121l-279 -722h-313zM624 767l473 722h121l-282 -722h-312z" />
    <glyph glyph-name="quotedblright" unicode="&#x201d;" 
d="M110 767l281 722h313l-473 -722h-121zM626 767l279 722h313l-471 -722h-121z" />
    <glyph glyph-name="quotedblbase" unicode="&#x201e;" 
d="M-15 -387l281 722h313l-473 -722h-121zM501 -387l279 722h313l-471 -722h-121z" />
    <glyph glyph-name="dagger" unicode="&#x2020;" 
d="M398 -372l166 1344h-177l-115 -386h-127l118 531h316l34 372h189l-55 -372h316l-13 -531h-127l-22 386h-179l-165 -1344h-159z" />
    <glyph glyph-name="daggerdbl" unicode="&#x2021;" 
d="M384 -372l59 381h-316l-2 415h128l36 -269h175l98 808h-175l-100 -270h-129l103 415h316l36 381h189l-57 -381h316l2 -415h-128l-38 270h-175l-98 -808h175l102 269h129l-103 -415h-316l-38 -381h-189z" />
    <glyph glyph-name="bullet" unicode="&#x2022;" 
d="M580 439q-126 0 -199.5 57t-58.5 178l17 134q15 123 101.5 181.5t215 58.5t199 -58.5t55.5 -181.5l-16 -134q-15 -121 -101.5 -178t-212.5 -57z" />
    <glyph glyph-name="ellipsis" unicode="&#x2026;" 
d="M116 -17q-53 0 -82.5 38.5t-20.5 118.5l6 48q11 82 50 121t92 39t81 -39t17 -121l-6 -48q-9 -80 -46.5 -118.5t-90.5 -38.5zM523 -17q-52 0 -81 38.5t-19 118.5l5 48q11 82 49.5 121t91.5 39t81 -39t17 -121l-6 -48q-9 -80 -47.5 -118.5t-90.5 -38.5zM931 -17
q-52 0 -81 38.5t-20 118.5l6 48q11 82 48.5 121t91.5 39t82.5 -39t17.5 -121l-5 -48q-9 -80 -48.5 -118.5t-91.5 -38.5z" />
    <glyph glyph-name="perthousand" unicode="&#x2030;" 
d="M851 201q-13 -121 51 -121t77 121l28 218q14 125 -48 125q-66 0 -80 -125zM715 201l28 218q14 125 -33 125t-68.5 -31t-28.5 -94l-28 -218q-13 -121 51 -121t79 121zM983 661q91 0 133 -66t25 -202l-20 -170q-17 -134 -76.5 -199t-150.5 -65t-129 89q-59 -89 -152 -89
q-92 0 -135.5 65t-26.5 199l20 170q17 136 77.5 202t153.5 66t127 -93q63 93 154 93zM1169 1138l-1111 -862l-73 100l1112 864zM493 1259q17 130 -75 130t-109 -130l-19 -146q-13 -134 78.5 -134t106.5 134zM348 842q-110 0 -169.5 67t-40.5 206l17 142q17 138 94 204
t187 66t168.5 -66t41.5 -204l-17 -142q-19 -140 -95 -206.5t-186 -66.5z" />
    <glyph glyph-name="minute" unicode="&#x2032;" 
d="M361 767l278 722h325l-467 -722h-136z" />
    <glyph glyph-name="second" unicode="&#x2033;" 
d="M-73 767l282 722h312l-473 -722h-121zM443 767l279 722h313l-471 -722h-121z" />
    <glyph glyph-name="guilsinglleft" unicode="&#x2039;" 
d="M801 223l-453 358l19 141l538 358l-17 -140l-432 -288l361 -289z" />
    <glyph glyph-name="guilsinglright" unicode="&#x203a;" 
d="M305 223l17 140l434 289l-363 288l17 140l452 -358l-19 -141z" />
    <glyph glyph-name="exclamdbl" unicode="&#x203c;" 
d="M415 19q-40 -38 -123 -38t-118 37t-23 120l7 52q8 85 54 121q39 39 125 39t116 -38t24 -122l-8 -52q-12 -84 -54 -119zM881 19q-40 -38 -125 -38t-117 38q-35 35 -25 119l8 52q8 85 54 121q39 39 124 39t118 -38t24 -122l-7 -52q-12 -84 -54 -119zM298 559l63 930h229
l-166 -930h-126zM763 559l62 930h229l-164 -930h-127z" />
    <glyph glyph-name="overline" unicode="&#x203e;" 
d="M2 1702l20 154h954l-21 -154h-953z" />
    <glyph glyph-name="fraction" unicode="&#x2215;" 
d="M104 0l866 1489h160l-866 -1489h-160z" />
    <glyph glyph-name="fraction" unicode="&#x2044;" 
d="M104 0l866 1489h160l-866 -1489h-160z" />
    <glyph glyph-name="zero.sups" unicode="&#x2070;" 
d="M607 672q106 0 161 67t75 235l13 102q20 171 -17.5 239t-144 68t-161.5 -68t-75 -239l-13 -102q-20 -168 18 -235t144 -67zM594 555q-173 0 -245 108t-49 298l17 128q24 194 122.5 303t271.5 109t245 -109t48 -303l-17 -128q-22 -190 -121 -298t-272 -108z" />
    <glyph glyph-name="four.sups" unicode="&#x2074;" 
d="M1015 804h-159l-29 -238h-146l30 238h-434l15 118l455 567h193l-69 -567h159zM419 922h307l54 445z" />
    <glyph glyph-name="five.sups" unicode="&#x2075;" 
d="M588 555q-178 0 -249 57.5t-58 217.5l143 12q-6 -106 31 -138t147 -32t159 34.5t58 114.5l8 54q9 80 -28.5 113.5t-137.5 33.5h-326l58 467h614l-15 -117h-471l-26 -225h212q141 0 212 -61.5t55 -193.5l-11 -84q-13 -112 -105 -182.5t-270 -70.5z" />
    <glyph glyph-name="six.sups" unicode="&#x2076;" 
d="M607 672q112 0 158 49t57 130q10 81 -27 130.5t-143 49.5t-157 -51.5t-57 -136.5q-9 -74 24 -122.5t145 -48.5zM704 1145q156 0 219.5 -73.5t46.5 -202.5l-2 -24q-17 -132 -107 -210t-266 -78q-337 0 -297 329l35 279q19 158 110 247.5t259 89.5t234 -53t75 -166
l-156 -28q-4 74 -38.5 102t-136.5 28t-146 -56.5t-57 -163.5l-13 -107h9q75 87 231 87z" />
    <glyph glyph-name="seven.sups" unicode="&#x2077;" 
d="M469 566q86 272 169 419t248 376h-529l15 128h674l-15 -128q-181 -277 -261.5 -418t-143.5 -377h-157z" />
    <glyph glyph-name="eight.sups" unicode="&#x2078;" 
d="M609 676q123 0 161.5 35.5t48.5 115.5q11 80 -17.5 120t-155.5 40t-164 -40t-47 -119t20.5 -115.5t153.5 -36.5zM662 1113q92 0 136 27t51 94l4 26q9 67 -28 93.5t-129 26.5t-135 -26.5t-53 -93.5l-3 -26q-7 -67 29 -94t128 -27zM595 555q-187 0 -254 65t-52 188l3 26
q11 86 62.5 140t131.5 61l4 34q-61 7 -98.5 51t-28.5 118l4 37q29 226 342 226q156 0 230 -53t59 -173l-4 -37q-9 -74 -58.5 -118t-114.5 -51l-4 -34q82 -7 120.5 -63t28.5 -138l-3 -26q-15 -125 -98 -189t-270 -64z" />
    <glyph glyph-name="nine.sups" unicode="&#x2079;" 
d="M597 912q-294 0 -262 276l4 24q17 130 107 209.5t264 79.5t246 -87t51 -243l-33 -279q-20 -158 -111 -247.5t-259 -89.5t-235 53t-75 165l158 29q4 -74 37 -102t135 -28t146.5 57t58.5 163l13 106h-12q-77 -86 -233 -86zM653.5 1026q106.5 0 154.5 48.5t59 130.5
q10 81 -24.5 129.5t-146 48.5t-157 -48.5t-56.5 -130.5q-10 -81 27 -129.5t143.5 -48.5z" />
    <glyph glyph-name="nsuperior" unicode="&#x207f;" 
d="M776 1508q113 0 181 -74q68 -79 52 -211l-82 -657h-126l76 620q20 145 -42 171t-119 26t-118 -41q-48 -27 -129 -108l-82 -668h-126l113 927h127l-17 -138h43q82 153 249 153z" />
    <glyph glyph-name="zero.sinf" unicode="&#x2080;" 
d="M607 106q106 0 161 67t75 235l13 102q20 171 -17 239q-39 68 -145 68t-161 -68t-75 -239l-13 -102q-20 -168 18 -235t144 -67zM594 -11q-173 0 -245 108t-49 298l17 128q24 194 122 303q99 109 272 109t245 -109t48 -303l-17 -128q-22 -190 -121 -298t-272 -108z" />
    <glyph glyph-name="one.sinf" unicode="&#x2081;" 
d="M343 0l14 119h233l77 615h-25q-30 -73 -96 -119t-144 -43l4 124q86 2 170 59t117 168h141l-99 -804h213l-15 -119h-590z" />
    <glyph glyph-name="two.sinf" unicode="&#x2082;" 
d="M694 817q-110 -1 -147 -43t-55 -141l-144 13q26 145 106 217t257 72t242 -67t52 -177l-9 -71q-20 -185 -221 -231l-215 -46q-54 -9 -89 -39t-45 -116l-9 -69h531l-15 -119h-674l24 186q28 231 233 276l214 46q61 13 90 43t35 88l5 42q7 58 -24 97q-32 39 -142 39z" />
    <glyph glyph-name="three.sinf" unicode="&#x2083;" 
d="M586 -11q-182 0 -249 67t-58 199l145 11q-4 -88 26 -125t152 -37t165 40t52 109l4 30q9 73 -23 109q-33 36 -145 36h-141l13 119h141q92 -1 132 21t47 85l6 45q9 67 -38 94t-131 27q-84 1 -128 -33t-59 -110l-143 11q22 130 105 189t235 59t235 -52q84 -52 69 -181
l-6 -34q-7 -72 -57 -112t-121 -48l-4 -33q78 -7 123 -61t35 -135l-4 -28q-17 -132 -107 -197q-89 -65 -271 -65z" />
    <glyph glyph-name="four.sinf" unicode="&#x2084;" 
d="M1015 238h-159l-29 -238h-146l30 238h-434l15 118l455 567h193l-69 -567h159zM419 356h307l54 445z" />
    <glyph glyph-name="five.sinf" unicode="&#x2085;" 
d="M588 -11q-178 0 -249 58t-58 217l143 12q-6 -106 30 -138t148 -32q111 0 159 34t58 115l8 54q9 80 -28 114t-138 33h-326l58 467h614l-15 -117h-471l-26 -225h212q141 1 213 -61t54 -194l-11 -84q-13 -112 -105 -182t-270 -71z" />
    <glyph glyph-name="six.sinf" unicode="&#x2086;" 
d="M607 106q112 0 158 49t57 130q10 81 -27 131t-143 49q-106 0 -157 -52t-57 -136q-9 -75 24 -123t145 -48zM704 579q156 0 219 -74t47 -202l-2 -24q-17 -132 -107 -210t-266 -78q-337 0 -297 329l35 280q19 158 110 247t259 89t234 -53t75 -166l-156 -28q-5 74 -39 102
t-136 28t-147 -57q-44 -57 -56 -162l-13 -108h9q75 87 231 87z" />
    <glyph glyph-name="seven.sinf" unicode="&#x2087;" 
d="M469 0q86 272 169 419t248 376h-529l15 128h674l-15 -128q-181 -277 -261 -418t-144 -377h-157z" />
    <glyph glyph-name="eight.sinf" unicode="&#x2088;" 
d="M609 110q123 0 161 35t49 116q11 80 -17 120q-29 40 -156 40t-164 -40t-47 -119t20 -116q31 -36 154 -36zM662 547q92 0 136 27t51 94l4 26q9 68 -28 94t-129 26t-136 -26q-43 -26 -52 -94l-3 -26q-7 -67 29 -94t128 -27zM595 -11q-187 0 -254 65t-52 188l3 26
q10 86 62 140t132 61l4 34q-61 7 -99 51q-37 44 -28 118l4 37q15 117 101 172q87 54 242 54t229 -53t59 -173l-4 -37q-9 -74 -58 -118t-115 -51l-4 -34q82 -7 120 -63t29 -138l-3 -26q-15 -125 -98 -189t-270 -64z" />
    <glyph glyph-name="nine.sinf" unicode="&#x2089;" 
d="M710 935q174 0 246 -87t51 -243l-33 -279q-20 -158 -112 -248t-258 -89q-168 0 -235 53t-75 165l158 29q4 -74 37 -102t135 -28t147 57t58 163l13 106h-12q-75 -84 -232 -85q-295 -2 -263 275l4 24q17 130 107 210t264 79zM653 460q190 0 213 171q12 88 -23 137t-147 49
t-157 -49t-56 -130q-10 -82 27 -130t143 -48z" />
    <glyph glyph-name="franc" unicode="&#x20a3;" 
d="M653 393h-350l-48 -393h-154l48 393h-171l18 154h172l115 942h881l-17 -139h-726l-52 -432h607l-19 -142h-607l-28 -229h350z" />
    <glyph glyph-name="lira" unicode="&#x20a4;" 
d="M746 132q97 0 142 59t75 204l154 -19q-57 -292 -190.5 -343.5t-210.5 -51.5t-144 32q-19 7 -107 51.5t-154 56.5t-121 -26l-170 -112l-78 118l146 85q68 39 124 144q59 101 69 199l-272 30l17 139h244q-3 14 -10 33t-10.5 29.5t-24.5 59.5t-25.5 66t-7.5 26h-140l17 140
h104q2 11 2 20.5t1 23.5t5 36q18 171 158 274q142 102 375 102t337 -94t88 -289l-160 -19q8 144 -59 205q-66 54 -232 54q-167 0 -256 -58q-81 -59 -97 -179l-2 -39q-2 -9 -1 -18.5t1 -18.5h497l-16 -140h-447q6 -9 8.5 -18.5t8.5 -18.5q2 -11 6.5 -20.5t9.5 -23.5t19 -45
t26 -88h343l-17 -139h-319q-12 -98 -52 -176t-143 -156l17 -20q56 35 111 33t102 -21t124 -53t135 -34z" />
    <glyph glyph-name="peseta" unicode="&#x20a7;" 
d="M863 125q108 0 124 121q14 103 -25 169.5t-75 122.5t-64 121q-33 112 -2 253q6 17 10.5 34t11.5 31h-117l-89 -729q-4 -30 -4 -75t34.5 -45t75.5 19v-2l28 37q60 -57 92 -57zM1126 935q-57 57 -96 57t-56 -35q-24 -38 -31 -92q-14 -115 64.5 -229.5t103.5 -184.5
q25 -71 15 -157q-19 -157 -93 -234q-71 -79 -178 -79q-53 0 -103 23q-52 -21 -101 -21q-177 0 -143 291l86 703h-106l-19 -156q-35 -300 -244 -300h-52l-63 -521h-130l182 1489h184q100 0 146 -70q44 -76 22 -229l-8 -73h107l44 372h132l-44 -372h132l-13 -97
q70 116 180 116q89 0 175 -78zM246 657q71 0 89 168l45 357q17 133 -7.5 150.5t-41.5 17.5h-54l-85 -693h54z" />
    <glyph glyph-name="Euro" unicode="&#x20ac;" 
d="M582 -19q-228 0 -319.5 135t-63.5 376l2 7h-175l17 141h175l26 205h-175l17 142h175v5q30 242 155.5 379t352.5 137t313.5 -97t73.5 -283l-160 -18q7 128 -37.5 193t-208.5 65t-235.5 -94.5t-93.5 -277.5l-2 -9h348l-17 -142h-348l-26 -205h348l-17 -141h-348l-2 -11
q-22 -182 26.5 -274.5t212.5 -92.5t223.5 61.5t87.5 189.5l154 -18q-34 -182 -142.5 -277.5t-336.5 -95.5z" />
    <glyph glyph-name="careof" unicode="&#x2105;" 
d="M824.5 99q89.5 0 104.5 143l15 119q8 73 -12 102t-40.5 37t-64.5 8t-81 -38t-42 -109l-15 -119q-8 -76 12 -101q34 -42 123.5 -42zM584.5 30.5q-64.5 71.5 -46.5 211.5l15 115q13 140 96 214q83 73 278.5 73t167.5 -287l-15 -115q-18 -143 -98 -213t-206.5 -70t-191 71.5
zM26 371l1119 854l67 -99l-1117 -854zM393 981q117 0 132 112l151 -15q-17 -174 -128.5 -205t-203.5 -31t-160 70q-66 72 -46 220l13 108q18 144 99 216q82 71 211 71t194 -59t47 -172l-153 -13q8 108 -106 108q-89 0 -113.5 -55t-27.5 -92l-13 -112q-23 -151 104 -151z" />
    <glyph glyph-name="lsquare" unicode="&#x2113;" 
d="M576 465q-157 0 -200 90l-50 -179q-30 -111 17 -172t160 -61t264 58l-11 -156q-143 -58 -258 -58q-213 0 -297.5 99.5t-34.5 263.5l245 871q38 140 151 214q103 73 258 73q156 0 221 -93t22 -240l-117 -417q-58 -216 -189 -254.5t-181 -38.5zM923 1260.5q0 31.5 -11 55.5
q-33 52 -126 52q-131 0 -170 -50t-48 -82l-129 -452q-24 -81 8 -119q27 -45 123 -45q182 0 218 125l124 443q11 41 11 72.5z" />
    <glyph glyph-name="numero" unicode="&#x2116;" 
d="M583 255q-21 -153 112 -153q131 0 152 153l13 110q22 166 -110 166t-154 -166zM679.5 -28q-119.5 0 -180.5 72.5t-45 216.5l13 100q17 145 97 219.5t200 74.5t180.5 -74.5t44.5 -219.5l-13 -100q-17 -143 -97 -216t-199.5 -73zM411 1372l-72 -596h-142l88 713h199
l436 -567l69 567h141l-87 -713h-194z" />
    <glyph glyph-name="uni2117" unicode="&#x2117;" 
d="M542 652h95q71 0 98.5 32.5t27.5 103.5v68q0 84 -28 121.5t-98 37.5h-95v-363zM397 240v912h242q132 0 201 -75t69 -221v-68q0 -132 -69 -201t-203 -69h-95v-278h-145zM616.5 -88q234.5 0 333 142.5t98.5 429.5v400q0 287 -98.5 434t-333 147t-333.5 -148t-99 -434v-397
q0 -287 99 -430.5t333.5 -143.5zM616.5 -205q-292.5 0 -425.5 179t-133 504v414q0 328 134 509.5t426 181.5t424.5 -182t132.5 -509v-414q0 -326 -133 -504.5t-425.5 -178.5z" />
    <glyph glyph-name="trademark" unicode="&#x2122;" 
d="M549 653v836h192l101 -366l115 366h169v-836h-117v684l-128 -428h-84l-132 443l2 -699h-118zM197 653v714h-160v122h430v-122h-141v-714h-129z" />
    <glyph glyph-name="Ohm" unicode="&#x2126;" 
d="M710 1508q234 0 337 -134t70 -398l-28 -226q-42 -352 -275 -420l-23 -175h226l-19 -155h-384l53 428q139 24 195 104t73 218l28 224q26 216 -35 305q-62 89 -236 89t-257 -89t-109 -305l-28 -224q-17 -138 21 -218t169 -104l-52 -428h-384l19 155h225l22 175
q-215 68 -175 420l28 226q69 532 539 532z" />
    <glyph glyph-name="estimated" unicode="&#x212e;" 
d="M611 1372q-134 0 -231 -99v-472h460v467q-50 47 -103.5 75.5t-125.5 28.5zM612 123q125 0 222 56.5t155 155.5l82 -104q-73 -117 -190 -185t-272 -68q-238 0 -390 213t-152 560t152 556.5t391 209.5t391.5 -234.5t160.5 -630.5h-782v-432q107 -97 232 -97z" />
    <glyph glyph-name="oneeighth" unicode="&#x215b;" 
d="M344 -248q41 -28 155 -28t164 28q39 27 44 97q8 60 -17 79q-45 33 -163 33q-117 0 -148 -21q-32 -22 -41.5 -41.5t-16.5 -69.5q-6 -50 23 -77zM730 194q4 43 -34 61q-38 17 -131 17t-123 -13q-51 -22 -55 -65l-3 -26q-4 -45 32 -62.5t126 -17.5t135 18t49 62zM756 -344
q-86 -56 -270 -56t-254 55q-71 55 -57 161l4 26q8 72 56 114t132 50l5 33q-70 9 -105 42t-29 90l6 38q24 188 337 188q239 0 269.5 -69t24.5 -119l-6 -38q-8 -57 -54 -91q-37 -32 -109 -41l-6 -33q82 -8 121 -53q39 -39 32 -111l-4 -26q-15 -113 -93 -160zM665 505l13 98
l523 37l-21 -173zM-15 467l21 173l540 -37l-14 -98zM331 763l17 129h233l50 419h-24q-30 -74 -94 -119t-144 -45l5 126q90 0 171 56t114 172h142l-75 -609h212l-16 -129h-591z" />
    <glyph glyph-name="threeeighths" unicode="&#x215c;" 
d="M344 -248q41 -28 155 -28t164 28q39 27 44 97q8 60 -17 79q-45 33 -163 33q-117 0 -148 -21q-32 -22 -41.5 -41.5t-16.5 -69.5q-6 -50 23 -77zM730 194q4 43 -34 61q-38 17 -131 17t-123 -13q-51 -22 -55 -65l-3 -26q-4 -45 32 -62.5t126 -17.5t135 18t49 62zM756 -344
q-86 -56 -270 -56t-254 55q-71 55 -57 161l4 26q8 72 56 114t132 50l5 33q-70 9 -105 42t-29 90l6 38q24 188 337 188q239 0 269.5 -69t24.5 -119l-6 -38q-8 -57 -54 -91q-37 -32 -109 -41l-6 -33q82 -8 121 -53q39 -39 32 -111l-4 -26q-15 -113 -93 -160zM665 505l13 98
l523 37l-21 -173zM-15 467l21 173l540 -37l-14 -98zM612 752q-265 0 -290.5 85t-21.5 144l143 11q0 -69 35 -92q36 -23 154 -23t157 22q43 20 47 62l4 29q9 43 -32 60q-36 21 -151 21h-78l15 128h78q102 0 130 13q48 22 54 75l6 44q4 30 -45 43q-41 13 -128 13
q-88 1 -121 -17t-45.5 -37t-19.5 -46l-144 11q16 105 101 164q83 50 241 50t230 -37q86 -40 74 -140l-3 -34q-8 -62 -54 -100t-127 -47l-4 -33q82 -8 129 -43q47 -40 39 -91l-4 -28q-12 -103 -100 -155q-94 -52 -269 -52z" />
    <glyph glyph-name="fiveeighths" unicode="&#x215d;" 
d="M344 -248q41 -28 155 -28t164 28q39 27 44 97q8 60 -17 79q-45 33 -163 33q-117 0 -148 -21q-32 -22 -41.5 -41.5t-16.5 -69.5q-6 -50 23 -77zM730 194q4 43 -34 61q-38 17 -131 17t-123 -13q-51 -22 -55 -65l-3 -26q-4 -45 32 -62.5t126 -17.5t135 18t49 62zM756 -344
q-86 -56 -270 -56t-254 55q-71 55 -57 161l4 26q8 72 56 114t132 50l5 33q-70 9 -105 42t-29 88l6 38q12 96 99 145q88 45 242 45t228 -46t62 -144l-6 -38q-8 -55 -54 -89q-37 -32 -109 -41l-6 -33q82 -8 121 -53q39 -39 32 -111l-4 -26q-15 -113 -93 -160zM665 505l13 98
l523 37l-21 -173zM-15 467l21 173l540 -37l-14 -98zM879 814q-97 -58 -274 -58t-246 45.5t-61 172.5l145 11q0 -70 34 -89t149 -19q114 1 149 17t47 33t16 39l5 52q8 44 -20 61q-49 29 -149 29h-328l49 393h614l-15 -123h-471l-17 -136h213q144 0 212 -52q75 -53 59 -157
l-7 -63q-12 -98 -104 -156z" />
    <glyph glyph-name="seveneighths" unicode="&#x215e;" 
d="M344 -248q41 -28 155 -28t164 28q39 27 44 97q8 60 -17 79q-45 33 -163 33q-117 0 -148 -21q-32 -22 -41.5 -41.5t-16.5 -69.5q-6 -50 23 -77zM730 194q4 43 -34 61q-38 17 -131 17t-123 -13q-51 -22 -55 -65l-3 -26q-4 -45 32 -62.5t126 -17.5t135 18t49 62zM756 -344
q-86 -56 -270 -56t-254 55q-71 55 -57 161l4 26q8 72 56 114t132 50l5 33q-70 9 -105 42t-29 90l6 38q24 188 337 188q239 0 269.5 -69t24.5 -119l-6 -38q-8 -57 -54 -91q-37 -32 -109 -41l-6 -33q82 -8 121 -53q39 -39 32 -111l-4 -26q-15 -113 -93 -160zM665 505l13 98
l523 37l-21 -173zM-15 467l21 173l540 -37l-14 -98zM488 763q76 210 140 311q63 101 120.5 166t132.5 132h-529l17 129h674l-17 -129q-154 -154 -240 -296q-85 -134 -142 -313h-156z" />
    <glyph glyph-name="arrowleft" unicode="&#x2190;" 
d="M607 1327v-512h607v-141h-607v-512h-34l-554 564v37l554 564h34z" />
    <glyph glyph-name="arrowup" unicode="&#x2191;" 
d="M540 22v838h-475v37l535 570h33l534 -570v-37h-474v-838h-153z" />
    <glyph glyph-name="arrowright" unicode="&#x2192;" 
d="M626 162v512h-607v141h607v512h33l555 -564v-37l-555 -564h-33z" />
    <glyph glyph-name="arrowdown" unicode="&#x2193;" 
d="M71 642h469v838h153v-838h471v-37l-531 -570h-33l-529 570v37z" />
    <glyph glyph-name="arrowboth" unicode="&#x2194;" 
d="M499 674v-512h-35l-445 564v37l445 564h35v-512h235v512h35l445 -564v-37l-445 -564h-35v512h-235z" />
    <glyph glyph-name="arrowupdn" unicode="&#x2195;" 
d="M65 465h475v559h-475v37l535 592h33l534 -592v-37h-474v-559h474v-37l-534 -592h-33l-535 592v37z" />
    <glyph glyph-name="arrowupdnbse" unicode="&#x21a8;" 
d="M119 -348l19 160h953l-19 -160h-953zM65 465h475v559h-475v37l535 592h33l534 -592v-37h-474v-559h474v-37l-534 -592h-33l-535 592v37z" />
    <glyph glyph-name="partialdiff" unicode="&#x2202;" 
d="M661 769q-144 0 -223 -63q-73 -63 -95 -194l-23 -115q-28 -135 21 -207q50 -65 197 -67t220 67q74 64 100 207l23 115q22 132 -27 195q-49 62 -193 62zM472.5 -19q-147.5 0 -250.5 103q-103 112 -64 313l26 139q34 174 157 274t298 100q107 0 177 -36.5t93 -98.5h39
q34 239 -56 379t-365 220l74 123q329 -97 436 -285q99 -185 34 -521l-54 -283q-58 -320 -227.5 -373.5t-317 -53.5z" />
    <glyph glyph-name="Delta#1" unicode="&#x2206;" 
d="M916 140l-235 1165l-519 -1165h754zM-4 0l17 140l611 1349h149l298 -1349l-17 -140h-1058z" />
    <glyph glyph-name="product" unicode="&#x220f;" 
d="M60 -372l229 1861h837l-229 -1861h-154l212 1722h-529l-212 -1722h-154z" />
    <glyph glyph-name="summation" unicode="&#x2211;" 
d="M959 -233l-19 -139h-940l19 139l731 816l-538 767l17 139h940l-17 -139h-767l496 -698l-15 -127l-693 -758h786z" />
    <glyph glyph-name="minus" unicode="&#x2212;" 
d="M119 572l19 160h953l-19 -160h-953z" />
    <glyph glyph-name="radical" unicode="&#x221a;" 
d="M512 0l-203 782l-195 -37l16 130l289 56l201 -842l519 1587h144l-576 -1676h-195z" />
    <glyph glyph-name="infinity" unicode="&#x221e;" 
d="M331 352q52 0 107 106q15 29 113 261q-32 251 -44 305q-26 114 -81 114q-87 0 -137 -201.5t-47.5 -393t89.5 -191.5zM990 995q0 143 -87 143q-67 0 -112.5 -107.5t-110.5 -267.5q17 -128 24 -187.5t22 -111.5q23 -112 79 -112t102 91q47 102 65 255q18 154 18 297z
M439 1260q176 0 207 -350q79 184 127 244t86.5 83t84.5 23t88 -33.5t68 -99.5t33.5 -162.5t-14 -279.5t-115 -319.5t-218.5 -136.5q-80 0 -133 95q-37 76 -67 246q-35 -84 -102.5 -212.5t-189.5 -128.5q-100 0 -160 134q-58 135 -28 381.5t125 383.5q95 132 208 132z" />
    <glyph glyph-name="orthogonal" unicode="&#x221f;" 
d="M99 0l160 1303h152l-143 -1167h736l-17 -136h-888z" />
    <glyph glyph-name="intersection" unicode="&#x2229;" 
d="M860 1098q-55 84 -192 84t-210 -85t-101 -278l-100 -819h-155l101 812q29 248 160 383q127 127 325 127t294 -128t66 -382l-100 -812h-155l101 817q22 202 -34 281z" />
    <glyph glyph-name="integral" unicode="&#x222b;" 
d="M966 1346q-78 0 -113.5 -15t-58.5 -49q-42 -64 -64 -239l-127 -1026q-22 -184 -120 -292q-97 -109 -240 -109q-144 0 -230 45l50 142q77 -38 157 -38t114.5 15t68 62t55.5 227l125 1026q21 177 117 292q100 108 246 108q143 0 229 -45l-52 -141q-79 37 -157 37z" />
    <glyph glyph-name="approxequal" unicode="&#x2248;" 
d="M346 402q-51 0 -93 -52q-38 -57 -54 -177l-22 -182h-147l24 193q22 179 114 279.5t220 100.5t169 -75.5t76 -176.5t58 -126q22 -25 39.5 -32t57.5 -7q39 0 68 40q48 66 64 191l22 181h147l-24 -194q-22 -180 -112 -281q-95 -97 -199 -97t-157 46t-97 170q-43 124 -68 156
q-24 32 -42 37.5t-44 5.5zM1044 829q-95 -97 -199 -97t-157 45t-97 172q-45 126 -68 156q-24 30 -41.5 36t-44.5 6q-51 0 -93 -52q-36 -53 -52 -177l-24 -183h-147l24 194q22 179 114 279.5t220 100.5t169 -75.5t76 -175.5t58 -127q23 -26 40.5 -32.5t56.5 -6.5t68 40
q50 69 64 191l22 180h147l-24 -193q-22 -180 -112 -281z" />
    <glyph glyph-name="notequal" unicode="&#x2260;" 
d="M1046 365h-482l-128 -365h-164l128 365h-307l21 164h346l151 432h-445l20 164h484l127 364h164l-127 -364h305l-20 -164h-344l-151 -432h443z" />
    <glyph glyph-name="equivalence" unicode="&#x2261;" 
d="M76 231l21 160h953l-20 -160h-954zM119 577l19 158h953l-19 -158h-953zM162 922l19 158h953l-19 -158h-953z" />
    <glyph glyph-name="lessequal" unicode="&#x2264;" 
d="M99 0l18 147h853l-19 -147h-852zM998 372l-793 488l17 142l912 487l-19 -148l-763 -410l663 -410z" />
    <glyph glyph-name="greaterequal" unicode="&#x2265;" 
d="M951 0h-852l18 147h853zM145 372l17 149l763 410l-662 410l18 148l793 -487l-18 -142z" />
    <glyph glyph-name="logicalnotreversed" unicode="&#x2310;" 
d="M58 0l89 732h935l-19 -160h-773l-70 -572h-162z" />
    <glyph glyph-name="integralbt" unicode="&#x2321;" 
d="M212 -235q80 0 116.5 18t67.5 68t55 233l171 1405h154l-178 -1457q-22 -193 -122 -304.5t-238 -111.5q-84 0 -149 17t-85 28l52 142q76 -38 156 -38z" />
    <glyph glyph-name="uni23af" unicode="&#x23af;" 
d="M-19 674v141h1270v-141h-1270z" />
    <glyph glyph-name="lighthorzbxd" unicode="&#x2500;" 
d="M-37 637h1307v-157h-1307v157z" />
    <glyph glyph-name="heavyhorzbxd" unicode="&#x2501;" 
d="M-37 715h1307v-313h-1307v313z" />
    <glyph glyph-name="lightvertbxd" unicode="&#x2502;" 
d="M538 1955h156v-2793h-156v2793z" />
    <glyph glyph-name="heavyvertbxd" unicode="&#x2503;" 
d="M460 1955h313v-2793h-313v2793z" />
    <glyph glyph-name="lighttrpldashhorzbxd" unicode="&#x2504;" 
d="M886 637h274v-157h-274v157zM477 637h273v-157h-273v157zM67 637h274v-157h-274v157z" />
    <glyph glyph-name="heavytrpldashhorzbxd" unicode="&#x2505;" 
d="M886 715h274v-313h-274v313zM477 715h273v-313h-273v313zM67 715h274v-313h-274v313z" />
    <glyph glyph-name="lighttrpldashvertbxd" unicode="&#x2506;" 
d="M538 2147h156v-455h-156v455zM538 1465h156v-454h-156v454zM538 784h156v-454h-156v454zM538 102h156v-454h-156v454z" />
    <glyph glyph-name="heavytrpldashvertbxd" unicode="&#x2507;" 
d="M460 2147h313v-455h-313v455zM460 1465h313v-454h-313v454zM460 784h313v-454h-313v454zM460 102h313v-454h-313v454z" />
    <glyph glyph-name="lightquaddashhorzbxd" unicode="&#x2508;" 
d="M959 637h231v-157h-231v157zM652 637h231v-157h-231v157zM344 637h231v-157h-231v157zM37 637h231v-157h-231v157z" />
    <glyph glyph-name="heavyquaddashhorzbxd" unicode="&#x2509;" 
d="M959 715h231v-313h-231v313zM652 715h231v-313h-231v313zM344 715h231v-313h-231v313zM37 715h231v-313h-231v313z" />
    <glyph glyph-name="lightquaddashvertbxd" unicode="&#x250a;" 
d="M538 1519h156v-385h-156v385zM538 1007h156v-385h-156v385zM538 495h156v-385h-156v385zM538 -17h156v-385h-156v385z" />
    <glyph glyph-name="heavyquaddashvertbxd" unicode="&#x250b;" 
d="M460 1519h313v-385h-313v385zM460 1007h313v-385h-313v385zM460 495h313v-385h-313v385zM460 -17h313v-385h-313v385z" />
    <glyph glyph-name="lightdnrightbxd" unicode="&#x250c;" 
d="M538 637h732v-157h-576v-1318h-156v1475z" />
    <glyph glyph-name="dnlightrightheavybxd" unicode="&#x250d;" 
d="M538 715h732v-313h-576v-1240h-156v1553z" />
    <glyph glyph-name="dnheavyrightlightbxd" unicode="&#x250e;" 
d="M460 637h810v-157h-497v-1318h-313v1475z" />
    <glyph glyph-name="heavydnrightbxd" unicode="&#x250f;" 
d="M460 715h810v-313h-497v-1240h-313v1553z" />
    <glyph glyph-name="lightdnleftbxd" unicode="&#x2510;" 
d="M-37 637h731v-1475h-156v1318h-575v157z" />
    <glyph glyph-name="dnlightleftheavybxd" unicode="&#x2511;" 
d="M-37 715h731v-1553h-156v1240h-575v313z" />
    <glyph glyph-name="dnheavyleftlightbxd" unicode="&#x2512;" 
d="M-37 637h810v-1475h-313v1318h-497v157z" />
    <glyph glyph-name="heavydnleftbxd" unicode="&#x2513;" 
d="M-37 715h810v-1553h-313v1240h-497v313z" />
    <glyph glyph-name="lightuprightbxd" unicode="&#x2514;" 
d="M538 1955h156v-1318h576v-157h-732v1475z" />
    <glyph glyph-name="uplightrightheavybxd" unicode="&#x2515;" 
d="M538 1955h156v-1240h576v-313h-732v1553z" />
    <glyph glyph-name="upheavyrightlightbxd" unicode="&#x2516;" 
d="M460 1955h313v-1318h497v-157h-810v1475z" />
    <glyph glyph-name="heavyuprightbxd" unicode="&#x2517;" 
d="M460 1955h313v-1240h497v-313h-810v1553z" />
    <glyph glyph-name="lightupleftbxd" unicode="&#x2518;" 
d="M-37 637h575v1318h156v-1475h-731v157z" />
    <glyph glyph-name="uplightleftheavybxd" unicode="&#x2519;" 
d="M-37 715h575v1240h156v-1553h-731v313z" />
    <glyph glyph-name="upheavyleftlightbxd" unicode="&#x251a;" 
d="M-37 637h497v1318h313v-1475h-810v157z" />
    <glyph glyph-name="heavyupleftbxd" unicode="&#x251b;" 
d="M-37 715h497v1240h313v-1553h-810v313z" />
    <glyph glyph-name="lightvertrightbxd" unicode="&#x251c;" 
d="M538 1955h156v-1318h576v-157h-576v-1318h-156v2793z" />
    <glyph glyph-name="vertlightrightheavybxd" unicode="&#x251d;" 
d="M538 1955h156v-1240h576v-313h-576v-1240h-156v2793z" />
    <glyph glyph-name="upheavyrightdnlightbxd" unicode="&#x251e;" 
d="M460 1955h313v-1318h497v-157h-576v-1318h-156v1318h-78v1475z" />
    <glyph glyph-name="dnheavyrightuplightbxd" unicode="&#x251f;" 
d="M460 637h78v1318h156v-1318h576v-157h-497v-1318h-313v1475z" />
    <glyph glyph-name="vertheavyrightlightbxd" unicode="&#x2520;" 
d="M460 1955h313v-1318h497v-157h-497v-1318h-313v2793z" />
    <glyph glyph-name="dnlightrightupheavybxd" unicode="&#x2521;" 
d="M460 1955h313v-1240h497v-313h-576v-1240h-156v1240h-78v1553z" />
    <glyph glyph-name="uplightrightdnheavybxd" unicode="&#x2522;" 
d="M460 715h78v1240h156v-1240h576v-313h-497v-1240h-313v1553z" />
    <glyph glyph-name="heavyvertrightbxd" unicode="&#x2523;" 
d="M460 1955h313v-1240h497v-313h-497v-1240h-313v2793z" />
    <glyph glyph-name="lightvertleftbxd" unicode="&#x2524;" 
d="M-37 637h575v1318h156v-2793h-156v1318h-575v157z" />
    <glyph glyph-name="vertlightleftheavybxd" unicode="&#x2525;" 
d="M-37 715h575v1240h156v-2793h-156v1240h-575v313z" />
    <glyph glyph-name="upheavyleftdnlightbxd" unicode="&#x2526;" 
d="M-37 637h497v1318h313v-1475h-79v-1318h-156v1318h-575v157z" />
    <glyph glyph-name="dnheavyleftuplightbxd" unicode="&#x2527;" 
d="M-37 637h575v1318h156v-1318h79v-1475h-313v1318h-497v157z" />
    <glyph glyph-name="vertheavyleftlightbxd" unicode="&#x2528;" 
d="M-37 637h497v1318h313v-2793h-313v1318h-497v157z" />
    <glyph glyph-name="dnlightleftupheavybxd" unicode="&#x2529;" 
d="M-37 715h497v1240h313v-1553h-79v-1240h-156v1240h-575v313z" />
    <glyph glyph-name="uplightleftdnheavybxd" unicode="&#x252a;" 
d="M-37 715h575v1240h156v-1240h79v-1553h-313v1240h-497v313z" />
    <glyph glyph-name="heavyvertleftbxd" unicode="&#x252b;" 
d="M-37 715h497v1240h313v-2793h-313v1240h-497v313z" />
    <glyph glyph-name="lightdnhorzbxd" unicode="&#x252c;" 
d="M-37 637h1307v-157h-576v-1318h-156v1318h-575v157z" />
    <glyph glyph-name="leftheavyrightdnlightbxd" unicode="&#x252d;" 
d="M-37 715h731v-78h576v-157h-576v-1318h-156v1240h-575v313z" />
    <glyph glyph-name="rightheavyleftdnlightbxd" unicode="&#x252e;" 
d="M-37 637h575v78h732v-313h-576v-1240h-156v1318h-575v157z" />
    <glyph glyph-name="dnlighthorzheavybxd" unicode="&#x252f;" 
d="M-37 715h1307v-313h-576v-1240h-156v1240h-575v313z" />
    <glyph glyph-name="dnheavyhorzlightbxd" unicode="&#x2530;" 
d="M-37 637h1307v-157h-497v-1318h-313v1318h-497v157z" />
    <glyph glyph-name="rightlightleftdnheavybxd" unicode="&#x2531;" 
d="M-37 715h810v-78h497v-157h-497v-1318h-313v1240h-497v313z" />
    <glyph glyph-name="leftlightrightdnheavybxd" unicode="&#x2532;" 
d="M-37 637h497v78h810v-313h-497v-1240h-313v1318h-497v157z" />
    <glyph glyph-name="heavydnhorzbxd" unicode="&#x2533;" 
d="M-37 715h1307v-313h-497v-1240h-313v1240h-497v313z" />
    <glyph glyph-name="lightuphorzbxd" unicode="&#x2534;" 
d="M-37 637h575v1318h156v-1318h576v-157h-1307v157z" />
    <glyph glyph-name="leftheavyrightuplightbxd" unicode="&#x2535;" 
d="M-37 715h575v1240h156v-1318h576v-157h-576v-78h-731v313z" />
    <glyph glyph-name="rightheavyleftuplightbxd" unicode="&#x2536;" 
d="M-37 637h575v1318h156v-1240h576v-313h-732v78h-575v157z" />
    <glyph glyph-name="uplighthorzheavybxd" unicode="&#x2537;" 
d="M-37 715h575v1240h156v-1240h576v-313h-1307v313z" />
    <glyph glyph-name="upheavyhorzlightbxd" unicode="&#x2538;" 
d="M-37 637h497v1318h313v-1318h497v-157h-1307v157z" />
    <glyph glyph-name="rightlightleftupheavybxd" unicode="&#x2539;" 
d="M-37 715h497v1240h313v-1318h497v-157h-497v-78h-810v313z" />
    <glyph glyph-name="leftlightrightupheavybxd" unicode="&#x253a;" 
d="M-37 637h497v1318h313v-1240h497v-313h-810v78h-497v157z" />
    <glyph glyph-name="heavyuphorzbxd" unicode="&#x253b;" 
d="M-37 715h497v1240h313v-1240h497v-313h-1307v313z" />
    <glyph glyph-name="lightverthorzbxd" unicode="&#x253c;" 
d="M-37 637h575v1318h156v-1318h576v-157h-576v-1318h-156v1318h-575v157z" />
    <glyph glyph-name="leftheavyrightvertlightbxd" unicode="&#x253d;" 
d="M-37 715h575v1240h156v-1318h576v-157h-576v-1318h-156v1240h-575v313z" />
    <glyph glyph-name="rightheavyleftvertlightbxd" unicode="&#x253e;" 
d="M-37 637h575v1318h156v-1240h576v-313h-576v-1240h-156v1318h-575v157z" />
    <glyph glyph-name="vertlighthorzheavybxd" unicode="&#x253f;" 
d="M-37 715h575v1240h156v-1240h576v-313h-576v-1240h-156v1240h-575v313z" />
    <glyph glyph-name="upheavydnhorzlightbxd" unicode="&#x2540;" 
d="M-37 637h497v1318h313v-1318h497v-157h-576v-1318h-156v1318h-575v157z" />
    <glyph glyph-name="dnheavyuphorzlightbxd" unicode="&#x2541;" 
d="M-37 637h575v1318h156v-1318h576v-157h-497v-1318h-313v1318h-497v157z" />
    <glyph glyph-name="vertheavyhorzlightbxd" unicode="&#x2542;" 
d="M-37 637h497v1318h313v-1318h497v-157h-497v-1318h-313v1318h-497v157z" />
    <glyph glyph-name="leftupheavyrightdnlightbxd" unicode="&#x2543;" 
d="M-37 715h497v1240h313v-1318h497v-157h-497v-78h-79v-1240h-156v1240h-575v313z" />
    <glyph glyph-name="rightupheavyleftdnlightbxd" unicode="&#x2544;" 
d="M-37 637h497v1318h313v-1240h497v-313h-576v-1240h-156v1240h-78v78h-497v157z" />
    <glyph glyph-name="leftdnheavyrightuplightbxd" unicode="&#x2545;" 
d="M-37 715h575v1240h156v-1240h79v-78h497v-157h-497v-1318h-313v1240h-497v313z" />
    <glyph glyph-name="rightdnheavyleftuplightbxd" unicode="&#x2546;" 
d="M-37 637h497v78h78v1240h156v-1240h576v-313h-497v-1240h-313v1318h-497v157z" />
    <glyph glyph-name="dnlightuphorzheavybxd" unicode="&#x2547;" 
d="M-37 715h497v1240h313v-1240h497v-313h-576v-1240h-156v1240h-575v313z" />
    <glyph glyph-name="uplightdnhorzheavybxd" unicode="&#x2548;" 
d="M-37 715h575v1240h156v-1240h576v-313h-497v-1240h-313v1240h-497v313z" />
    <glyph glyph-name="rightlightleftvertheavybxd" unicode="&#x2549;" 
d="M-37 715h497v1240h313v-1318h497v-157h-497v-1318h-313v1240h-497v313z" />
    <glyph glyph-name="leftlightrightvertheavybxd" unicode="&#x254a;" 
d="M-37 637h497v1318h313v-1240h497v-313h-497v-1240h-313v1318h-497v157z" />
    <glyph glyph-name="heavyverthorzbxd" unicode="&#x254b;" 
d="M-37 715h497v1240h313v-1240h497v-313h-497v-1240h-313v1240h-497v313z" />
    <glyph glyph-name="lightdbldashhorzbxd" unicode="&#x254c;" 
d="M769 637h309v-157h-309v157zM153 637h309v-157h-309v157z" />
    <glyph glyph-name="heavydbldashhorzbxd" unicode="&#x254d;" 
d="M769 715h309v-313h-309v313zM153 715h309v-313h-309v313z" />
    <glyph glyph-name="lightdbldashvertbxd" unicode="&#x254e;" 
d="M538 1326h156v-512h-156v512zM538 302h156v-512h-156v512z" />
    <glyph glyph-name="heavydbldashvertbxd" unicode="&#x254f;" 
d="M460 1326h313v-512h-313v512zM460 302h313v-512h-313v512z" />
    <glyph glyph-name="dblhorzbxd" unicode="&#x2550;" 
d="M-37 480h1307v-156h-1307v156zM-37 793h1307v-156h-1307v156z" />
    <glyph glyph-name="dblvertbxd" unicode="&#x2551;" 
d="M694 1955h157v-2793h-157v2793zM382 1955h156v-2793h-156v2793z" />
    <glyph glyph-name="dnsngrightdblbxd" unicode="&#x2552;" 
d="M538 793h732v-156h-576v-157h576v-156h-576v-1162h-156v1631z" />
    <glyph glyph-name="dndblrightsngbxd" unicode="&#x2553;" 
d="M382 637h888v-157h-419v-1318h-157v1318h-156v-1318h-156v1475z" />
    <glyph glyph-name="dbldnrightbxd" unicode="&#x2554;" 
d="M694 480h576v-156h-419v-1162h-157v1318zM382 793h888v-156h-732v-1475h-156v1631z" />
    <glyph glyph-name="dnsngleftdblbxd" unicode="&#x2555;" 
d="M-37 793h731v-1631h-156v1162h-575v156h575v157h-575v156z" />
    <glyph glyph-name="dndblleftsngbxd" unicode="&#x2556;" 
d="M-37 637h888v-1475h-157v1318h-156v-1318h-156v1318h-419v157z" />
    <glyph glyph-name="dbldnleftbxd" unicode="&#x2557;" 
d="M-37 480h575v-1318h-156v1162h-419v156zM-37 793h888v-1631h-157v1475h-731v156z" />
    <glyph glyph-name="upsngrightdblbxd" unicode="&#x2558;" 
d="M538 1955h156v-1162h576v-156h-576v-157h576v-156h-732v1631z" />
    <glyph glyph-name="updblrightsngbxd" unicode="&#x2559;" 
d="M382 1955h156v-1318h156v1318h157v-1318h419v-157h-888v1475z" />
    <glyph glyph-name="dbluprightbxd" unicode="&#x255a;" 
d="M694 1955h157v-1162h419v-156h-576v1318zM382 1955h156v-1475h732v-156h-888v1631z" />
    <glyph glyph-name="upsngleftdblbxd" unicode="&#x255b;" 
d="M-37 793h575v1162h156v-1631h-731v156h575v157h-575v156z" />
    <glyph glyph-name="updblleftsngbxd" unicode="&#x255c;" 
d="M-37 637h419v1318h156v-1318h156v1318h157v-1475h-888v157z" />
    <glyph glyph-name="dblupleftbxd" unicode="&#x255d;" 
d="M-37 793h419v1162h156v-1318h-575v156zM-37 480h731v1475h157v-1631h-888v156z" />
    <glyph glyph-name="vertsngrightdblbxd" unicode="&#x255e;" 
d="M538 1955h156v-1162h576v-156h-576v-157h576v-156h-576v-1162h-156v2793z" />
    <glyph glyph-name="vertdblrightsngbxd" unicode="&#x255f;" 
d="M382 1955h156v-2793h-156v2793zM694 1955h157v-1318h419v-157h-419v-1318h-157v2793z" />
    <glyph glyph-name="dblvertrightbxd" unicode="&#x2560;" 
d="M694 480h576v-156h-419v-1162h-157v1318zM694 1955h157v-1162h419v-156h-576v1318zM382 1955h156v-2793h-156v2793z" />
    <glyph glyph-name="vertsngleftdblbxd" unicode="&#x2561;" 
d="M-37 793h575v1162h156v-2793h-156v1162h-575v156h575v157h-575v156z" />
    <glyph glyph-name="vertdblleftsngbxd" unicode="&#x2562;" 
d="M694 1955h157v-2793h-157v2793zM-37 637h419v1318h156v-2793h-156v1318h-419v157z" />
    <glyph glyph-name="dblvertleftbxd" unicode="&#x2563;" 
d="M-37 793h419v1162h156v-1318h-575v156zM-37 480h575v-1318h-156v1162h-419v156zM694 1955h157v-2793h-157v2793z" />
    <glyph glyph-name="dnsnghorzdblbxd" unicode="&#x2564;" 
d="M-37 793h1307v-156h-1307v156zM-37 480h1307v-156h-576v-1162h-156v1162h-575v156z" />
    <glyph glyph-name="dndblhorzsngbxd" unicode="&#x2565;" 
d="M-37 637h1307v-157h-419v-1318h-157v1318h-156v-1318h-156v1318h-419v157z" />
    <glyph glyph-name="dbldnhorzbxd" unicode="&#x2566;" 
d="M-37 793h1307v-156h-1307v156zM694 480h576v-156h-419v-1162h-157v1318zM-37 480h575v-1318h-156v1162h-419v156z" />
    <glyph glyph-name="upsnghorzdblbxd" unicode="&#x2567;" 
d="M-37 480h1307v-156h-1307v156zM-37 793h575v1162h156v-1162h576v-156h-1307v156z" />
    <glyph glyph-name="updblhorzsngbxd" unicode="&#x2568;" 
d="M-37 637h419v1318h156v-1318h156v1318h157v-1318h419v-157h-1307v157z" />
    <glyph glyph-name="dbluphorzbxd" unicode="&#x2569;" 
d="M-37 480h1307v-156h-1307v156zM694 1955h157v-1162h419v-156h-576v1318zM-37 793h419v1162h156v-1318h-575v156z" />
    <glyph glyph-name="vertsnghorzdblbxd" unicode="&#x256a;" 
d="M-37 793h575v1162h156v-1162h576v-156h-576v-157h576v-156h-576v-1162h-156v1162h-575v156h575v157h-575v156z" />
    <glyph glyph-name="vertdblhorzsngbxd" unicode="&#x256b;" 
d="M-37 637h419v1318h156v-1318h156v1318h157v-1318h419v-157h-419v-1318h-157v1318h-156v-1318h-156v1318h-419v157z" />
    <glyph glyph-name="dblverthorzbxd" unicode="&#x256c;" 
d="M694 480h576v-156h-419v-1162h-157v1318zM694 1955h157v-1162h419v-156h-576v1318zM-37 480h575v-1318h-156v1162h-419v156zM-37 793h419v1162h156v-1318h-575v156z" />
    <glyph glyph-name="lightarcdnrightbxd" unicode="&#x256d;" 
d="M538 -58q0 143 55 270t149 221t221 149t270 55h37v-157h-37q-223 0 -381 -158t-158 -380v-780h-156v780z" />
    <glyph glyph-name="lightarcdnleftbxd" unicode="&#x256e;" 
d="M694 -838h-156v780q0 224 -157 381t-381 157h-37v157h37q143 0 270 -55t221 -149t149 -221t54 -270v-780z" />
    <glyph glyph-name="lightarcupleftbxd" unicode="&#x256f;" 
d="M694 1175q0 -143 -54 -270t-149 -221q-94 -94 -221 -149t-270 -55h-37v157h37q222 0 381 157q157 157 157 381v780h156v-780z" />
    <glyph glyph-name="lightarcuprightbxd" unicode="&#x2570;" 
d="M538 1955h156v-780q0 -225 158 -382q158 -156 381 -156h37v-157h-37q-143 0 -270 55t-221 149t-149 221t-55 270v780z" />
    <glyph glyph-name="lightdiaguprightdnleftbxd" unicode="&#x2571;" 
d="M1233 1583v-151l-1142 -1897h-91v150l1141 1898h92z" />
    <glyph glyph-name="lightdiagupleftdnrightbxd" unicode="&#x2572;" 
d="M1233 -465h-92l-1141 1897v151h91l1142 -1898v-150z" />
    <glyph glyph-name="lightdiagcrossbxd" unicode="&#x2573;" 
d="M0 1583h91l525 -874l525 874h92v-151l-526 -873l526 -874v-150h-92l-525 871l-525 -871h-91v150l525 874l-525 873v151z" />
    <glyph glyph-name="lightleftbxd" unicode="&#x2574;" 
d="M-37 637h731v-157h-731v157z" />
    <glyph glyph-name="lightupbxd" unicode="&#x2575;" 
d="M538 1955h156v-1475h-156v1475z" />
    <glyph glyph-name="lightrightbxd" unicode="&#x2576;" 
d="M538 637h732v-157h-732v157z" />
    <glyph glyph-name="lightdnbxd" unicode="&#x2577;" 
d="M538 637h156v-1475h-156v1475z" />
    <glyph glyph-name="heavyleftbxd" unicode="&#x2578;" 
d="M-37 715h731v-313h-731v313z" />
    <glyph glyph-name="heavyupbxd" unicode="&#x2579;" 
d="M460 1955h313v-1475h-313v1475z" />
    <glyph glyph-name="heavyrightbxd" unicode="&#x257a;" 
d="M538 715h732v-313h-732v313z" />
    <glyph glyph-name="heavydnbxd" unicode="&#x257b;" 
d="M460 637h313v-1475h-313v1475z" />
    <glyph glyph-name="lightleftheavyrightbxd" unicode="&#x257c;" 
d="M-37 637h575v78h732v-313h-732v78h-575v157z" />
    <glyph glyph-name="lightupheavydnbxd" unicode="&#x257d;" 
d="M460 637h78v1318h156v-1318h79v-1475h-313v1475z" />
    <glyph glyph-name="heavyleftlightrightbxd" unicode="&#x257e;" 
d="M-37 715h731v-78h576v-157h-576v-78h-731v313z" />
    <glyph glyph-name="heavyuplightdnbxd" unicode="&#x257f;" 
d="M460 1955h313v-1475h-79v-1318h-156v1318h-78v1475z" />
    <glyph glyph-name="uphalfblock" unicode="&#x2580;" 
d="M0 1583h1233v-1024h-1233v1024z" />
    <glyph glyph-name="dneighthblock" unicode="&#x2581;" 
d="M0 -210h1233v-255h-1233v255z" />
    <glyph glyph-name="dnquarterblock" unicode="&#x2582;" 
d="M0 47h1233v-512h-1233v512z" />
    <glyph glyph-name="dnthreeeighthsblock" unicode="&#x2583;" 
d="M0 302h1233v-767h-1233v767z" />
    <glyph glyph-name="dnhalfblock" unicode="&#x2584;" 
d="M0 559h1233v-1024h-1233v1024z" />
    <glyph glyph-name="dnfiveeighthsblock" unicode="&#x2585;" 
d="M0 814h1233v-1279h-1233v1279z" />
    <glyph glyph-name="dnthreequartersblock" unicode="&#x2586;" 
d="M0 1071h1233v-1536h-1233v1536z" />
    <glyph glyph-name="dnseveneighthsblock" unicode="&#x2587;" 
d="M0 1326h1233v-1791h-1233v1791z" />
    <glyph glyph-name="fullblock" unicode="&#x2588;" 
d="M0 1583h1233v-2048h-1233v2048z" />
    <glyph glyph-name="leftseveneighthsblock" unicode="&#x2589;" 
d="M0 1583h1078v-2048h-1078v2048z" />
    <glyph glyph-name="leftthreequartersblock" unicode="&#x258a;" 
d="M0 1583h923v-2048h-923v2048z" />
    <glyph glyph-name="leftfiveeighthsblock" unicode="&#x258b;" 
d="M0 1583h769v-2048h-769v2048z" />
    <glyph glyph-name="lefthalfblock" unicode="&#x258c;" 
d="M0 1583h616v-2048h-616v2048z" />
    <glyph glyph-name="leftthreeeighthsblock" unicode="&#x258d;" 
d="M0 1583h462v-2048h-462v2048z" />
    <glyph glyph-name="leftquarterblock" unicode="&#x258e;" 
d="M0 1583h307v-2048h-307v2048z" />
    <glyph glyph-name="lefteighthblock" unicode="&#x258f;" 
d="M0 1583h153v-2048h-153v2048z" />
    <glyph glyph-name="righthalfblock" unicode="&#x2590;" 
d="M616 1583h617v-2048h-617v2048z" />
    <glyph glyph-name="lightshade" unicode="&#x2591;" 
d="M1210 1545h37v-56h-37v56zM1117 1452h37v-56h-37v56zM1210 1359h37v-56h-37v56zM1117 1266h37v-56h-37v56zM1210 1173h37v-56h-37v56zM1117 1080h37v-56h-37v56zM1210 987h37v-56h-37v56zM1117 894h37v-56h-37v56zM1210 801h37v-56h-37v56zM1117 707h37v-55h-37v55z
M1210 614h37v-55h-37v55zM1117 521h37v-56h-37v56zM1210 428h37v-56h-37v56zM1117 335h37v-56h-37v56zM1210 242h37v-56h-37v56zM1117 149h37v-56h-37v56zM1210 56h37v-56h-37v56zM1117 -37h37v-56h-37v56zM1210 -130h37v-56h-37v56zM1117 -223h37v-56h-37v56zM1210 -317h37
v-55h-37v55zM1117 -410h37v-55h-37v55zM1024 1545h37v-56h-37v56zM931 1452h37v-56h-37v56zM1024 1359h37v-56h-37v56zM931 1266h37v-56h-37v56zM1024 1173h37v-56h-37v56zM931 1080h37v-56h-37v56zM1024 987h37v-56h-37v56zM931 894h37v-56h-37v56zM1024 801h37v-56h-37v56
zM931 707h37v-55h-37v55zM1024 614h37v-55h-37v55zM931 521h37v-56h-37v56zM1024 428h37v-56h-37v56zM931 335h37v-56h-37v56zM1024 242h37v-56h-37v56zM931 149h37v-56h-37v56zM1024 56h37v-56h-37v56zM931 -37h37v-56h-37v56zM1024 -130h37v-56h-37v56zM931 -223h37v-56
h-37v56zM1024 -317h37v-55h-37v55zM931 -410h37v-55h-37v55zM838 1545h37v-56h-37v56zM745 1452h37v-56h-37v56zM838 1359h37v-56h-37v56zM745 1266h37v-56h-37v56zM838 1173h37v-56h-37v56zM745 1080h37v-56h-37v56zM838 987h37v-56h-37v56zM745 894h37v-56h-37v56z
M838 801h37v-56h-37v56zM745 707h37v-55h-37v55zM838 614h37v-55h-37v55zM745 521h37v-56h-37v56zM838 428h37v-56h-37v56zM745 335h37v-56h-37v56zM838 242h37v-56h-37v56zM745 149h37v-56h-37v56zM838 56h37v-56h-37v56zM745 -37h37v-56h-37v56zM838 -130h37v-56h-37v56z
M745 -223h37v-56h-37v56zM838 -317h37v-55h-37v55zM745 -410h37v-55h-37v55zM652 1545h37v-56h-37v56zM559 1452h37v-56h-37v56zM652 1359h37v-56h-37v56zM559 1266h37v-56h-37v56zM652 1173h37v-56h-37v56zM559 1080h37v-56h-37v56zM652 987h37v-56h-37v56zM559 894h37v-56
h-37v56zM652 801h37v-56h-37v56zM559 707h37v-55h-37v55zM652 614h37v-55h-37v55zM559 521h37v-56h-37v56zM652 428h37v-56h-37v56zM559 335h37v-56h-37v56zM652 242h37v-56h-37v56zM559 149h37v-56h-37v56zM652 56h37v-56h-37v56zM559 -37h37v-56h-37v56zM652 -130h37v-56
h-37v56zM559 -223h37v-56h-37v56zM652 -317h37v-55h-37v55zM559 -410h37v-55h-37v55zM465 1545h38v-56h-38v56zM372 1452h38v-56h-38v56zM465 1359h38v-56h-38v56zM372 1266h38v-56h-38v56zM465 1173h38v-56h-38v56zM372 1080h38v-56h-38v56zM465 987h38v-56h-38v56z
M372 894h38v-56h-38v56zM465 801h38v-56h-38v56zM372 707h38v-55h-38v55zM465 614h38v-55h-38v55zM372 521h38v-56h-38v56zM465 428h38v-56h-38v56zM372 335h38v-56h-38v56zM465 242h38v-56h-38v56zM372 149h38v-56h-38v56zM465 56h38v-56h-38v56zM372 -37h38v-56h-38v56z
M465 -130h38v-56h-38v56zM372 -223h38v-56h-38v56zM465 -317h38v-55h-38v55zM372 -410h38v-55h-38v55zM279 1545h38v-56h-38v56zM186 1452h37v-56h-37v56zM279 1359h38v-56h-38v56zM186 1266h37v-56h-37v56zM279 1173h38v-56h-38v56zM186 1080h37v-56h-37v56zM279 987h38
v-56h-38v56zM186 894h37v-56h-37v56zM279 801h38v-56h-38v56zM186 707h37v-55h-37v55zM279 614h38v-55h-38v55zM186 521h37v-56h-37v56zM279 428h38v-56h-38v56zM186 335h37v-56h-37v56zM279 242h38v-56h-38v56zM186 149h37v-56h-37v56zM279 56h38v-56h-38v56zM186 -37h37
v-56h-37v56zM279 -130h38v-56h-38v56zM186 -223h37v-56h-37v56zM279 -317h38v-55h-38v55zM186 -410h37v-55h-37v55zM93 1545h37v-56h-37v56zM0 1452h37v-56h-37v56zM93 1359h37v-56h-37v56zM0 1266h37v-56h-37v56zM93 1173h37v-56h-37v56zM0 1080h37v-56h-37v56zM93 987h37
v-56h-37v56zM0 894h37v-56h-37v56zM93 801h37v-56h-37v56zM0 707h37v-55h-37v55zM93 614h37v-55h-37v55zM0 521h37v-56h-37v56zM93 428h37v-56h-37v56zM0 335h37v-56h-37v56zM93 242h37v-56h-37v56zM0 149h37v-56h-37v56zM93 56h37v-56h-37v56zM0 -37h37v-56h-37v56z
M93 -130h37v-56h-37v56zM0 -223h37v-56h-37v56zM93 -317h37v-55h-37v55zM0 -410h37v-55h-37v55z" />
    <glyph glyph-name="mediumshade" unicode="&#x2592;" 
d="M1210 1583h75v-94h-75v94zM1117 1489h75v-93h-75v93zM1210 1396h75v-93h-75v93zM1117 1303h75v-93h-75v93zM1210 1210h75v-93h-75v93zM1117 1117h75v-93h-75v93zM1210 1024h75v-93h-75v93zM1117 931h75v-93h-75v93zM1210 838h75v-93h-75v93zM1117 745h75v-93h-75v93z
M1210 652h75v-93h-75v93zM1117 559h75v-94h-75v94zM1210 465h75v-93h-75v93zM1117 372h75v-93h-75v93zM1210 279h75v-93h-75v93zM1117 186h75v-93h-75v93zM1210 93h75v-93h-75v93zM1117 0h75v-93h-75v93zM1210 -93h75v-93h-75v93zM1117 -186h75v-93h-75v93zM1210 -279h75
v-93h-75v93zM1117 -372h75v-93h-75v93zM1024 1583h74v-94h-74v94zM931 1489h74v-93h-74v93zM1024 1396h74v-93h-74v93zM931 1303h74v-93h-74v93zM1024 1210h74v-93h-74v93zM931 1117h74v-93h-74v93zM1024 1024h74v-93h-74v93zM931 931h74v-93h-74v93zM1024 838h74v-93h-74
v93zM931 745h74v-93h-74v93zM1024 652h74v-93h-74v93zM931 559h74v-94h-74v94zM1024 465h74v-93h-74v93zM931 372h74v-93h-74v93zM1024 279h74v-93h-74v93zM931 186h74v-93h-74v93zM1024 93h74v-93h-74v93zM931 0h74v-93h-74v93zM1024 -93h74v-93h-74v93zM931 -186h74v-93
h-74v93zM1024 -279h74v-93h-74v93zM931 -372h74v-93h-74v93zM838 1583h74v-94h-74v94zM745 1489h74v-93h-74v93zM838 1396h74v-93h-74v93zM745 1303h74v-93h-74v93zM838 1210h74v-93h-74v93zM745 1117h74v-93h-74v93zM838 1024h74v-93h-74v93zM745 931h74v-93h-74v93z
M838 838h74v-93h-74v93zM745 745h74v-93h-74v93zM838 652h74v-93h-74v93zM745 559h74v-94h-74v94zM838 465h74v-93h-74v93zM745 372h74v-93h-74v93zM838 279h74v-93h-74v93zM745 186h74v-93h-74v93zM838 93h74v-93h-74v93zM745 0h74v-93h-74v93zM838 -93h74v-93h-74v93z
M745 -186h74v-93h-74v93zM838 -279h74v-93h-74v93zM745 -372h74v-93h-74v93zM652 1583h74v-94h-74v94zM559 1489h74v-93h-74v93zM652 1396h74v-93h-74v93zM559 1303h74v-93h-74v93zM652 1210h74v-93h-74v93zM559 1117h74v-93h-74v93zM652 1024h74v-93h-74v93zM559 931h74
v-93h-74v93zM652 838h74v-93h-74v93zM559 745h74v-93h-74v93zM652 652h74v-93h-74v93zM559 559h74v-94h-74v94zM652 465h74v-93h-74v93zM559 372h74v-93h-74v93zM652 279h74v-93h-74v93zM559 186h74v-93h-74v93zM652 93h74v-93h-74v93zM559 0h74v-93h-74v93zM652 -93h74v-93
h-74v93zM559 -186h74v-93h-74v93zM652 -279h74v-93h-74v93zM559 -372h74v-93h-74v93zM465 1583h75v-94h-75v94zM372 1489h75v-93h-75v93zM465 1396h75v-93h-75v93zM372 1303h75v-93h-75v93zM465 1210h75v-93h-75v93zM372 1117h75v-93h-75v93zM465 1024h75v-93h-75v93z
M372 931h75v-93h-75v93zM465 838h75v-93h-75v93zM372 745h75v-93h-75v93zM465 652h75v-93h-75v93zM372 559h75v-94h-75v94zM465 465h75v-93h-75v93zM372 372h75v-93h-75v93zM465 279h75v-93h-75v93zM372 186h75v-93h-75v93zM465 93h75v-93h-75v93zM372 0h75v-93h-75v93z
M465 -93h75v-93h-75v93zM372 -186h75v-93h-75v93zM465 -279h75v-93h-75v93zM372 -372h75v-93h-75v93zM279 1583h75v-94h-75v94zM186 1489h75v-93h-75v93zM279 1396h75v-93h-75v93zM186 1303h75v-93h-75v93zM279 1210h75v-93h-75v93zM186 1117h75v-93h-75v93zM279 1024h75
v-93h-75v93zM186 931h75v-93h-75v93zM279 838h75v-93h-75v93zM186 745h75v-93h-75v93zM279 652h75v-93h-75v93zM186 559h75v-94h-75v94zM279 465h75v-93h-75v93zM186 372h75v-93h-75v93zM279 279h75v-93h-75v93zM186 186h75v-93h-75v93zM279 93h75v-93h-75v93zM186 0h75v-93
h-75v93zM279 -93h75v-93h-75v93zM186 -186h75v-93h-75v93zM279 -279h75v-93h-75v93zM186 -372h75v-93h-75v93zM93 1583h75v-94h-75v94zM0 1489h74v-93h-74v93zM93 1396h75v-93h-75v93zM0 1303h74v-93h-74v93zM93 1210h75v-93h-75v93zM0 1117h74v-93h-74v93zM93 1024h75v-93
h-75v93zM0 931h74v-93h-74v93zM93 838h75v-93h-75v93zM0 745h74v-93h-74v93zM93 652h75v-93h-75v93zM0 559h74v-94h-74v94zM93 465h75v-93h-75v93zM0 372h74v-93h-74v93zM93 279h75v-93h-75v93zM0 186h74v-93h-74v93zM93 93h75v-93h-75v93zM0 0h74v-93h-74v93zM93 -93h75
v-93h-75v93zM0 -186h74v-93h-74v93zM93 -279h75v-93h-75v93zM0 -372h74v-93h-74v93z" />
    </font>
</defs>
</svg>
