<?xml version="1.0" standalone="no"?>
<!DOCTYPE svg PUBLIC "-//W3C//DTD SVG 1.1//EN" "http://www.w3.org/Graphics/SVG/1.1/DTD/svg11.dtd" >
<svg xmlns="http://www.w3.org/2000/svg">
<metadata>
Created by FontPrep 20130207 at Mon Aug 15 19:30:09 2016
 By Damien Criado
(c) Copyright The Font Bureau, Inc. 2014. All rights reserved.
</metadata>
<defs>
<font id="04f3776fb82f73d1243832472d284a20" horiz-adv-x='1024' >
  <font-face 
    font-family="InputMonoNarrow-Bold"
    font-weight="700"
    font-stretch="semi-condensed"
    units-per-em="2048"
    panose-1="2 0 7 9 3 0 0 9 0 4"
    ascent="1583"
    descent="-465"
    x-height="1117"
    cap-height="1489"
    bbox="-506 -838 1692 2607"
    underline-thickness="0"
    underline-position="0"
    unicode-range="U+000D-1F41B"
  />
<missing-glyph 
d="M279 -279h674v1675h-674v-1675zM93 -465v2048h1046v-2048h-1046z" />
    <glyph glyph-name=".notdef" 
d="M279 -279h674v1675h-674v-1675zM93 -465v2048h1046v-2048h-1046z" />
    <glyph glyph-name=".null" horiz-adv-x="0" 
 />
    <glyph glyph-name="nonmarkingreturn" unicode="&#xd;" horiz-adv-x="0" 
 />
    <glyph glyph-name="NULL" horiz-adv-x="0" 
 />
    <glyph glyph-name="space" unicode="&#xa0;" 
 />
    <glyph glyph-name="space" unicode=" " 
 />
    <glyph glyph-name="exclam" unicode="!" 
d="M851 138q0 -157 -233 -157t-233 157v52q0 160 233 160t233 -160v-52zM475 559l-51 930h375l-52 -930h-272z" />
    <glyph glyph-name="quotedbl" unicode="&#x22;" 
d="M212 687l-57 802h363l-60 -802h-246zM775 687l-60 802h363l-58 -802h-245z" />
    <glyph glyph-name="numbersign" unicode="#" 
d="M35 339v212h231l19 387h-250v213h259l15 338h237l-17 -338h212l15 338h234l-14 -338h221v-213h-231l-18 -387h249v-212h-259l-15 -339h-234l15 339h-211l-16 -339h-235l15 339h-222zM713 551l19 387h-213l-16 -387h210z" />
    <glyph glyph-name="dollar" unicode="$" 
d="M711 -93h-190v175q-261 24 -437 149l69 208q181 -125 385 -147v348q-236 47 -333 131.5t-97 245.5t104.5 264.5t308.5 124.5v177h190v-177q106 -9 206.5 -43t164.5 -80l-54 -203q-172 98 -334 112v-334q253 -52 355.5 -140t102.5 -254t-116 -265.5t-325 -118.5v-173z
M873 436q0 67 -39 103t-140 66v-316q179 12 179 147zM385 1056q0 -62 33.5 -98t119.5 -64v298q-153 -13 -153 -136z" />
    <glyph glyph-name="percent" unicode="%" 
d="M795 225q0 -104 83 -104t83 104v114q0 108 -83 108t-83 -108v-114zM877 -41q-132 0 -213 69t-81 214v93q0 145 82 216t214 71t213 -71t81 -216v-93q0 -145 -82 -214t-214 -69zM48 385l1026 862l118 -147l-1032 -864zM438 1249q0 106 -82 106q-37 0 -60.5 -26t-23.5 -80
v-113q0 -56 23.5 -81t60.5 -25q82 0 82 106v113zM355.5 864q-132.5 0 -214 70t-81.5 215v91q0 145 83 216t215 71t212 -71t80 -216v-91q0 -145 -81 -215t-213.5 -70z" />
    <glyph glyph-name="ampersand" unicode="&#x26;" 
d="M337 389q0 -208 175 -208q91 0 166 85q-162 156 -281 354q-60 -94 -60 -231zM579 1309q-104 -1 -104 -177q0 -124 30 -218q169 104 169 250t-95 145zM417 -19q-145 0 -251 100.5t-106 260.5t60.5 262t186.5 187q-82 187 -82 311q0 192 94 300t257 108t247 -95t84 -222
t-72 -216t-278 -206q76 -176 223 -326q61 124 140 350l231 -61q-90 -210 -246 -431l311 -117l-56 -216q-179 55 -345 181q-74 -78 -163.5 -124t-234.5 -46z" />
    <glyph glyph-name="quotesingle" unicode="'" 
d="M484 687l-58 802h382l-60 -802h-264z" />
    <glyph glyph-name="parenleft" unicode="(" 
d="M292 555q0 369 167 627.5t541 325.5l30 -205q-240 -67 -335 -254t-95 -489t94.5 -486t335.5 -251l-30 -214q-374 67 -541 322t-167 624z" />
    <glyph glyph-name="parenright" unicode=")" 
d="M635 556q0 292 -96 486t-334 261l30 205q374 -67 539.5 -326t165.5 -627t-165.5 -623.5t-539.5 -322.5l-30 214q238 67 334 254t96 479z" />
    <glyph glyph-name="asterisk" unicode="*" 
d="M994 523l-324 309l75 -448h-261l76 446l-322 -307l-130 233l410 182l-410 183l130 233l322 -310l-76 445h261l-75 -446l324 311l131 -233l-412 -183l412 -182z" />
    <glyph glyph-name="plus" unicode="+" 
d="M490 63v462h-365v253h365v462h253v-462h365v-253h-365v-462h-253z" />
    <glyph glyph-name="comma" unicode="," 
d="M324 -315l132 801h454l-385 -801h-201z" />
    <glyph glyph-name="hyphen" unicode="&#x2011;" 
d="M125 525v266h983v-266h-983z" />
    <glyph glyph-name="hyphen" unicode="&#x2010;" 
d="M125 525v266h983v-266h-983z" />
    <glyph glyph-name="hyphen" unicode="&#xad;" 
d="M125 525v266h983v-266h-983z" />
    <glyph glyph-name="hyphen" unicode="-" 
d="M125 525v266h983v-266h-983z" />
    <glyph glyph-name="period" unicode="." 
d="M616 -19q-108 0 -175 49.5t-67 144.5v121q0 95 67 146t176 51t175 -51t66 -146v-121q0 -95 -67 -144.5t-175 -49.5z" />
    <glyph glyph-name="slash" unicode="/" 
d="M149 -372l683 1861h252l-684 -1861h-251z" />
    <glyph glyph-name="zero.salt_slash" unicode="&#xe05c;" 
d="M840 642v198q0 128 -23 201l-296 -814q36 -20 95 -20q127 0 175.5 101.5t48.5 333.5zM616 1283q-127 0 -174 -104.5t-47 -338.5v-198q0 -126 15 -203l296 825q-40 19 -90 19zM616.5 -19q-249.5 0 -375.5 167t-126 465v256q0 298 127 468.5t376.5 170.5t375 -170.5
t125.5 -468.5v-256q0 -298 -126.5 -465t-376 -167z" />
    <glyph glyph-name="zero.salt_slash" unicode="0" 
d="M840 642v198q0 128 -23 201l-296 -814q36 -20 95 -20q127 0 175.5 101.5t48.5 333.5zM616 1283q-127 0 -174 -104.5t-47 -338.5v-198q0 -126 15 -203l296 825q-40 19 -90 19zM616.5 -19q-249.5 0 -375.5 167t-126 465v256q0 298 127 468.5t376.5 170.5t375 -170.5
t125.5 -468.5v-256q0 -298 -126.5 -465t-376 -167z" />
    <glyph glyph-name="one" unicode="1" 
d="M173 0v236h348v961h-50q-34 -115 -120.5 -179.5t-197.5 -62.5l-17 240q130 4 237 85t154 209h302v-1253h299v-236h-955z" />
    <glyph glyph-name="two" unicode="2" 
d="M614 1508q486 0 486 -411v-92q0 -153 -80 -236.5t-234 -152.5l-181 -74q-115 -52 -149.5 -91.5t-34.5 -135.5v-79h698v-236h-1004v311q0 177 69 273t254 177l178 75q99 43 139 80t40 128v47q0 106 -42 149t-136 43t-132 -52t-47 -209l-306 19q13 249 126 358t356 109z
" />
    <glyph glyph-name="three" unicode="3" 
d="M608 -19q-258 0 -378 110t-133 330l307 18q13 -140 57.5 -182.5t153.5 -42.5t153 44.5t44 145.5v67q0 106 -48.5 151t-150.5 45h-181v232h181q93 0 129 31t36 114v73q0 86 -39 122t-127 36t-125.5 -42.5t-48.5 -148.5l-306 18q13 214 124.5 310t349.5 96t358 -87.5
t120 -279.5v-52q0 -117 -72 -188.5t-183 -85.5v-54q123 -13 206.5 -98.5t83.5 -217.5v-47q0 -218 -126.5 -317.5t-384.5 -99.5z" />
    <glyph glyph-name="four" unicode="4" 
d="M1203 374h-205v-374h-305v374h-596v226l519 889h382v-889h205v-226zM693 600v549l-326 -549h326z" />
    <glyph glyph-name="five" unicode="5" 
d="M689 961q430 0 430 -402v-164q0 -186 -122.5 -300t-390.5 -114t-382 101.5t-127 362.5l307 19q13 -158 56 -207.5t156 -49.5t154.5 52t41.5 169v84q0 112 -45.5 161t-174.5 49h-443v767h914v-225h-609v-303h235z" />
    <glyph glyph-name="six" unicode="6" 
d="M614.5 207q106.5 0 150 58.5t43.5 173.5v41q0 123 -43.5 185.5t-150 62.5t-150 -62.5t-43.5 -185.5v-41q0 -121 43.5 -176.5t150 -55.5zM1119 438q0 -457 -502 -457t-502 524v471q0 532 505 532q225 0 336 -87.5t146 -288.5l-320 -43q-20 115 -55.5 154.5t-129.5 39.5
t-135 -68t-41 -232v-184h20q97 132 293 132q385 0 385 -434v-59z" />
    <glyph glyph-name="seven" unicode="7" 
d="M115 1246v243h1004v-243q-182 -331 -267 -594t-143 -652h-331q91 469 171 711t263 535h-697z" />
    <glyph glyph-name="eight" unicode="8" 
d="M616.5 214q113.5 0 154.5 49.5t41 155.5v43q0 106 -41 157t-154.5 51t-154.5 -51t-41 -157v-43q0 -106 41 -155.5t154.5 -49.5zM616.5 894q85.5 0 123.5 35t38 127v61q0 89 -38 123.5t-123.5 34.5t-124 -34.5t-38.5 -123.5v-61q0 -91 38.5 -126.5t124 -35.5zM616 -19
q-255 0 -378 99t-123 304v50q0 136 74 223.5t208 100.5v54q-106 11 -177 82.5t-71 189.5v68q0 181 114.5 268.5t353 87.5t353 -87.5t114.5 -268.5v-68q0 -117 -71 -189t-177 -83v-54q134 -13 208.5 -101.5t74.5 -222.5v-50q0 -205 -124 -304t-379 -99z" />
    <glyph glyph-name="nine" unicode="9" 
d="M1119 514q0 -533 -506 -533q-223 0 -335 88.5t-148 287.5l322 43q19 -117 55.5 -155t130.5 -38t134 68.5t40 234.5v181h-21q-47 -63 -117.5 -97.5t-185.5 -34.5q-182 0 -277.5 110.5t-95.5 322.5v60q0 456 502 456t502 -523v-471zM618 761q106 0 150 62.5t44 185.5v41
q0 121 -44 177t-150 56t-150 -59.5t-44 -173.5v-41q0 -123 44 -185.5t150 -62.5z" />
    <glyph glyph-name="colon" unicode=":" 
d="M615 -11q-98 0 -159 43.5t-61 129.5v101q0 86 61.5 131t162 45t161 -45.5t60.5 -130.5v-101q0 -86 -63.5 -129.5t-161.5 -43.5zM615 722q-98 0 -159 45t-61 130v99q0 88 61.5 133.5t162 45.5t161 -45.5t60.5 -133.5v-99q0 -86 -63.5 -130.5t-161.5 -44.5z" />
    <glyph glyph-name="semicolon" unicode=";" 
d="M348 -290l123 752h415l-354 -752h-184zM615 722q-98 0 -159 45t-61 130v99q0 88 61.5 133.5t162 45.5t161 -45.5t60.5 -133.5v-99q0 -86 -63.5 -130.5t-161.5 -44.5z" />
    <glyph glyph-name="less" unicode="&#x3c;" 
d="M1058 15l-883 486v301l883 486v-245l-708 -391l708 -391v-246z" />
    <glyph glyph-name="equal" unicode="=" 
d="M125 244v255h983v-255h-983zM125 804v255h983v-255h-983z" />
    <glyph glyph-name="greater" unicode="&#x3e;" 
d="M175 15v233l730 404l-730 404v232l883 -486v-301z" />
    <glyph glyph-name="question" unicode="?" 
d="M767 138q-1 -157 -233 -157t-232 157v52q0 160 232.5 160t232.5 -160v-52zM830 1028v44q0 101 -44 156t-172 55t-171 -57t-56 -204l-307 19q13 244 138.5 355.5t389.5 111.5t396 -119t132 -300v-69q0 -216 -169 -325t-554 -170l-35 209q268 47 360 113.5t92 180.5z" />
    <glyph glyph-name="at" unicode="@" 
d="M678 559q0 -153 79 -153t107 27t28 113v176q0 84 -31 120.5t-77 36.5q-106 0 -106 -160v-160zM95 413v533q0 255 133.5 408.5t393.5 153.5t388 -151.5t128 -420.5v-398q-4 -320 -360 -320q-177 0 -260.5 85.5t-83.5 236.5v197q0 149 71.5 239.5t188.5 90.5
q174 0 233 -127h50q-4 205 -78 304.5t-266 99.5t-274.5 -105t-82.5 -293v-520q0 -220 101 -340.5t334 -120.5q173 0 337 50v-170q-176 -50 -337 -50q-309 0 -462.5 168.5t-153.5 449.5z" />
    <glyph glyph-name="A" unicode="A" 
d="M896 0l-82 371h-399l-89 -371h-279l385 1489h370l386 -1489h-292zM761 607l-139 635l-151 -635h290z" />
    <glyph glyph-name="B" unicode="B" 
d="M428 225h185q106 0 153.5 42t47.5 141v82q0 95 -47.5 137.5t-153.5 42.5h-185v-445zM428 879h179q91 0 129.5 36t38.5 120v77q0 82 -38.5 117t-129.5 35h-179v-385zM1119 387q0 -387 -486 -387h-512v1489h514q443 0 443 -350v-70q0 -112 -49.5 -173.5t-155.5 -80.5v-54
q117 -13 181.5 -88t64.5 -193v-93z" />
    <glyph glyph-name="C" unicode="C" 
d="M115 998q0 510 525 510q261 0 382 -124.5t134 -402.5l-305 -18q-11 184 -55 246.5t-160 62.5t-165.5 -67t-49.5 -229v-470q0 -156 49.5 -222t165.5 -66t159 60.5t56 240.5l305 -18q-11 -274 -134 -397t-515 -123t-392 503v514z" />
    <glyph glyph-name="D" unicode="D" 
d="M428 236h151q127 0 180 74t53 243v376q0 173 -53 248.5t-180 75.5h-151v-1017zM121 0v1489h486q240 0 376 -147t136 -391v-420q0 -242 -137 -386.5t-377 -144.5h-484z" />
    <glyph glyph-name="E" unicode="E" 
d="M121 0v1489h998v-236h-691v-337h605v-236h-605v-444h691v-236h-998z" />
    <glyph glyph-name="F" unicode="F" 
d="M190 0v1489h955v-236h-650v-451h531v-236h-531v-566h-305z" />
    <glyph glyph-name="G" unicode="G" 
d="M622 -19q-244 0 -375.5 135t-131.5 381v490q0 249 131.5 385t374.5 136t364 -117.5t134 -349.5l-307 -19q-11 141 -52 195.5t-146 54.5t-149 -72t-44 -236v-445q0 -162 43.5 -231.5t158.5 -69.5t157.5 73.5t40.5 239.5h-201v236h508v-264q0 -251 -131 -386.5t-375 -135.5
z" />
    <glyph glyph-name="H" unicode="H" 
d="M121 0v1489h307v-549h376v549h308v-1489h-308v704h-376v-704h-307z" />
    <glyph glyph-name="I" unicode="I" 
d="M121 0v236h343v1017h-343v236h991v-236h-343v-1017h343v-236h-991z" />
    <glyph glyph-name="J" unicode="J" 
d="M587 -19q-256 0 -375 125t-132 406l307 20q13 -190 54 -252t143 -62t148 59.5t46 202.5v773h-383v236h689v-1012q0 -235 -120.5 -365.5t-376.5 -130.5z" />
    <glyph glyph-name="K" unicode="K" 
d="M428 655v-655h-307v1489h307v-597h65l367 597h320l-458 -687l453 -802h-317l-359 655h-71z" />
    <glyph glyph-name="L" unicode="L" 
d="M207 0v1489h307v-1253h598v-236h-905z" />
    <glyph glyph-name="M" unicode="M" 
d="M97 0v1489h300l225 -748l223 748h291v-1489h-270l30 1022l-175 -592h-205l-177 603l28 -1033h-270z" />
    <glyph glyph-name="N" unicode="N" 
d="M384 0h-263v1489h343l385 -1128v1128h263v-1489h-367l-361 1078v-1078z" />
    <glyph glyph-name="O" unicode="O" 
d="M616 218q106 0 151 62.5t45 220.5v480q0 160 -45 225.5t-151 65.5t-150.5 -65.5t-44.5 -225.5v-480q0 -158 44.5 -220.5t150.5 -62.5zM616 -19q-244 0 -372.5 130.5t-128.5 366.5v526q0 238 129.5 371t373.5 133t372.5 -133t128.5 -371v-526q0 -236 -129.5 -366.5
t-373.5 -130.5z" />
    <glyph glyph-name="P" unicode="P" 
d="M428 709h199q97 0 143.5 40t46.5 148v164q0 110 -46.5 151t-143.5 41h-199v-544zM121 0v1489h523q227 0 353 -99.5t126 -307.5v-209q0 -205 -124 -300t-355 -95h-216v-478h-307z" />
    <glyph glyph-name="Q" unicode="Q" 
d="M616 246q106 0 151 66t45 222v449q0 156 -45 219.5t-151 63.5t-150.5 -63.5t-44.5 -219.5v-449q0 -156 44.5 -222t150.5 -66zM115 512v492q0 238 129.5 371t373.5 133t372.5 -133t128.5 -371v-492q0 -207 -100.5 -334.5t-294.5 -153.5q6 -119 81.5 -152.5t237.5 -1.5
l31 -248q-303 -52 -446.5 44t-141.5 366q-182 30 -276.5 154.5t-94.5 325.5z" />
    <glyph glyph-name="R" unicode="R" 
d="M1115 959q0 -321 -259 -391l302 -568h-324l-285 544h-121v-544h-307v1489h555q439 0 439 -404v-126zM428 778h205q102 0 146 40t44 146v108q0 101 -44 141t-146 40h-205v-475z" />
    <glyph glyph-name="S" unicode="S" 
d="M175 378q206 -158 428 -158t222 186q0 88 -59.5 129.5t-216.5 90.5q-233 69 -327 167.5t-94 282.5t125 306t358 122q128 0 252 -45.5t208 -114.5l-69 -218q-199 140 -383 140q-185 0 -185 -166q0 -80 57 -124t257 -106t292 -162t92 -294t-144.5 -312.5t-384.5 -118.5
q-298 0 -510 166z" />
    <glyph glyph-name="T" unicode="T" 
d="M464 0v1253h-390v236h1086v-236h-391v-1253h-305z" />
    <glyph glyph-name="U" unicode="U" 
d="M616 -19q-253 0 -374 129.5t-121 401.5v977h307v-970q0 -166 43 -228t145.5 -62t145 62.5t42.5 227.5v970h308v-977q0 -272 -121.5 -401.5t-374.5 -129.5z" />
    <glyph glyph-name="V" unicode="V" 
d="M815 0h-396l-372 1489h305l264 -1226l278 1226h294z" />
    <glyph glyph-name="W" unicode="W" 
d="M750 0l-132 724l-130 -724h-272l-177 1489h264l77 -1120l126 748h218l132 -732l75 1104h262l-176 -1489h-267z" />
    <glyph glyph-name="X" unicode="X" 
d="M868 0l-257 486l-254 -486h-299l415 765l-372 724h316l229 -437l229 437h300l-393 -722l389 -767h-303z" />
    <glyph glyph-name="Y" unicode="Y" 
d="M769 0h-305v559l-421 930h309l266 -659l263 659h307l-419 -930v-559z" />
    <glyph glyph-name="Z" unicode="Z" 
d="M1119 0h-1004v236l687 1017h-687v236h1004v-236l-680 -1017h680v-236z" />
    <glyph glyph-name="bracketleft" unicode="[" 
d="M292 -372v1861h734v-225h-426v-1420h426v-216h-734z" />
    <glyph glyph-name="backslash" unicode="\" 
d="M832 -371l-683 1862l251 -2l684 -1861z" />
    <glyph glyph-name="bracketright" unicode="]" 
d="M207 -372v216h428v1420h-428v225h733v-1861h-733z" />
    <glyph glyph-name="asciicircum" unicode="^" 
d="M884 372l-268 734l-264 -734h-289l401 1117h305l404 -1117h-289z" />
    <glyph glyph-name="underscore" unicode="_" 
d="M125 -372v266h983v-266h-983z" />
    <glyph glyph-name="grave" unicode="`" 
d="M693 687l-421 802h454l168 -802h-201z" />
    <glyph glyph-name="a" unicode="a" 
d="M414 -19q-131 0 -224 86.5t-93 238.5t99.5 234t261.5 82h261v145q0 80 -41 115.5t-124 35.5t-123 -35.5t-59 -134.5l-249 45q35 184 137.5 263.5t303.5 79.5q449 0 449 -358v-448q0 -80 42 -100t122 -7v-219q-286 -63 -343 164h-46q-52 -76 -147.5 -131.5t-226.5 -55.5z
M376 313q0 -132 129 -132q121 0 214 85v188h-224q-58 0 -88.5 -29.5t-30.5 -111.5z" />
    <glyph glyph-name="b" unicode="b" 
d="M615 209q92 0 134 43.5t42 145.5v311q0 187 -138 187q-111 0 -212 -120v-519q82 -48 174 -48zM605 -15q-123 0 -247.5 35.5t-221.5 94.5v1374h305v-558h52q37 101 115.5 153t186.5 52q143 0 222.5 -103.5t79.5 -276.5v-361q0 -199 -127 -304.5t-365 -105.5z" />
    <glyph glyph-name="c" unicode="c" 
d="M634 -19q-243 0 -370.5 109t-127.5 314v311q0 203 129 312t359 109t343 -103.5t135 -302.5l-296 -23q-7 112 -49 157.5t-136 45.5t-137 -47.5t-43 -162.5v-285q0 -114 42.5 -161t138.5 -47t137.5 36t46.5 129l296 -22q-11 -182 -118 -275.5t-350 -93.5z" />
    <glyph glyph-name="d" unicode="d" 
d="M562 1132q127 0 229 -47v404h306v-1489h-306v186h-50q-37 -95 -114.5 -150t-185.5 -55q-151 0 -228 108t-77 272v361q0 192 113.5 301t312.5 109zM617 909q-92 0 -134 -46t-42 -144v-313q0 -93 36.5 -138.5t101.5 -45.5q109 0 212 119v512q-82 56 -174 56z" />
    <glyph glyph-name="e" unicode="e" 
d="M441 745v-78h350v65q0 112 -39 159t-136 47t-136 -44.5t-39 -148.5zM441 380q0 -194 185 -194q95 0 147 30t83 110l257 -69q-58 -151 -164.5 -213.5t-322.5 -62.5t-353 105.5t-137 310.5v325q0 197 130.5 305.5t352.5 108.5t350 -110t128 -315v-212h-656v-119z" />
    <glyph glyph-name="f" unicode="f" 
d="M887 1327q-90 0 -133 -40t-43 -125v-45h386v-225h-386v-892h-307v892h-276v225h276v63q0 168 119 265t315 97q144 0 279 -47l-35 -205q-105 37 -195 37z" />
    <glyph glyph-name="g" unicode="g" 
d="M484 -209h285q61 0 99.5 22.5t38.5 90.5t-37.5 89.5t-94.5 21.5h-408v-101q0 -60 27 -91.5t90 -31.5zM443 724q0 -136 146 -136t146 136v80q0 132 -146 132t-146 -132v-80zM339 333q0 -97 123 -97h318q171 0 273.5 -73t102.5 -226t-106 -240.5t-281 -87.5h-300
q-194 0 -293.5 72.5t-99.5 193.5q0 91 52.5 147t132.5 66v37q-61 19 -104 61.5t-43 134.5t63 156.5t164 75.5v35q-88 26 -132.5 83t-44.5 131v21q0 138 113.5 216t290.5 78h579v-190l-278 37v-37q63 -19 104.5 -72t41.5 -116v-24q0 -134 -113 -209.5t-293 -75.5h-155
q-115 0 -115 -97z" />
    <glyph glyph-name="h" unicode="h" 
d="M665 896q-116 0 -224 -155v-741h-305v1489h305v-558h52q37 95 118.5 150t203.5 55t202 -92.5t80 -248.5v-795h-306v722q0 174 -126 174z" />
    <glyph glyph-name="i.salt_serifs" unicode="&#xe023;" 
d="M769 225h322v-225h-627v892h-323v225h628v-892zM413 1448q0 135 203 135q91 0 147 -30t56 -105v-22q0 -70 -57 -98t-147 -28t-146 28t-56 98v22z" />
    <glyph glyph-name="i.salt_serifs" unicode="i" 
d="M769 225h322v-225h-627v892h-323v225h628v-892zM413 1448q0 135 203 135q91 0 147 -30t56 -105v-22q0 -70 -57 -98t-147 -28t-146 28t-56 98v22z" />
    <glyph glyph-name="j" unicode="j" 
d="M620 22v870h-436v225h743v-1124q0 -181 -136 -281t-341 -101q-205 0 -327 41l35 214q110 -39 227 -38q115 2 175 46t60 148zM557 1448q0 135 203 135q91 0 147 -30t56 -105v-22q0 -70 -57 -98t-147 -28t-146 28t-56 98v22z" />
    <glyph glyph-name="k" unicode="k" 
d="M473 477v-477h-307v1489h307v-804h67l275 432h323l-345 -508l339 -609h-328l-264 477h-67z" />
    <glyph glyph-name="l.salt_serifs_round" unicode="&#xe056;" 
d="M743 408q0 -186 163 -186q79 0 163 37l48 -218q-133 -54 -266 -54q-190 0 -302.5 104t-112.5 272v901h-295v225h602v-1081z" />
    <glyph glyph-name="l.salt_serifs_round" unicode="l" 
d="M743 408q0 -186 163 -186q79 0 163 37l48 -218q-133 -54 -266 -54q-190 0 -302.5 104t-112.5 272v901h-295v225h602v-1081z" />
    <glyph glyph-name="m" unicode="m" 
d="M445 931q-56 0 -110 -127v-804h-251v1117h249v-147h49q60 160 186.5 160t159.5 -160h47q60 160 202 160q80 0 126 -69t46 -193v-868h-252v821q0 110 -48 110q-28 0 -58 -34.5t-54 -92.5v-804h-242v821q0 110 -50 110z" />
    <glyph glyph-name="n" unicode="n" 
d="M136 0v1117h305v-186h52q39 95 123 150t206 55t198.5 -90.5t76.5 -252.5v-793h-306v739q0 76 -32.5 116.5t-92.5 40.5q-131 0 -225 -138v-758h-305z" />
    <glyph glyph-name="o" unicode="o" 
d="M616 207q91 0 133 46.5t42 150.5v303q0 106 -42 154.5t-133 48.5t-133 -47.5t-42 -153.5v-299q0 -106 42 -154.5t133 -48.5zM616 -19q-227 0 -353.5 108t-126.5 302v328q0 195 127.5 306t354.5 111t353.5 -112t126.5 -311v-328q0 -190 -127.5 -297t-354.5 -107z" />
    <glyph glyph-name="p" unicode="p" 
d="M670 -15q-125 0 -229 47v-404h-305v1489h305v-186h52q35 95 115.5 150t186.5 55q141 0 221.5 -99t80.5 -272v-370q0 -188 -115 -299t-312 -111zM621 209q87 0 128.5 44.5t41.5 144.5v323q0 175 -138 175q-111 0 -212 -120v-512q93 -55 180 -55z" />
    <glyph glyph-name="q" unicode="q" 
d="M441 413q0 -191 138 -191q112 0 212 119v519q-86 49 -177 49q-173 0 -173 -190v-306zM791 -372v558h-50q-35 -88 -111.5 -146.5t-206.5 -58.5t-208.5 106.5t-78.5 273.5v361q0 197 130.5 303.5t362.5 106.5q117 0 249.5 -28t218.5 -80v-1396h-306z" />
    <glyph glyph-name="r" unicode="r" 
d="M704 896q-140 0 -218 -146v-750h-305v1117h305v-195h52q67 214 307 214q128 0 198 -82t70 -233v-194h-277v103q0 84 -30 125t-102 41z" />
    <glyph glyph-name="s" unicode="s" 
d="M462 819q0 -63 55 -90t200 -57q199 -35 290 -112.5t91 -231.5t-130 -248.5t-355 -94.5q-134 0 -263.5 38t-224.5 104l76 193q95 -61 208 -95.5t203 -34.5t135.5 27t45.5 91t-45.5 92t-168.5 52q-212 37 -316.5 108.5t-104.5 229.5t122 252t338 94t419 -129l-63 -186
q-196 112 -354 112t-158 -114z" />
    <glyph glyph-name="t" unicode="t" 
d="M374 369v523h-249v225h249v372h306v-372h391v-225h-391v-490q0 -192 167 -192q109 0 205 38l33 -222q-97 -45 -293 -45q-195 0 -306.5 100.5t-111.5 287.5z" />
    <glyph glyph-name="u" unicode="u" 
d="M566 222q117 0 225 160v735h306v-1117h-306v186h-50q-41 -102 -128.5 -153.5t-182.5 -51.5q-128 0 -211 90.5t-83 252.5v793h305v-717q0 -178 125 -178z" />
    <glyph glyph-name="v" unicode="v" 
d="M817 0h-404l-309 1117h294l224 -869l223 869h281z" />
    <glyph glyph-name="w" unicode="w" 
d="M754 0l-138 590l-130 -590h-276l-165 1117h262l91 -784l118 587h195l129 -570l85 767h263l-166 -1117h-268z" />
    <glyph glyph-name="x" unicode="x" 
d="M819 0l-218 346l-197 -346h-307l368 568l-342 549h309l194 -309l176 309h306l-341 -536l365 -581h-313z" />
    <glyph glyph-name="y" unicode="y" 
d="M334 -171q89 0 141 44.5t82 156.5l5 17h-188l-298 1070h315l225 -869l237 869h301l-327 -1115q-63 -212 -176 -302.5t-307 -90.5q-109 0 -247 22l18 224q130 -26 219 -26z" />
    <glyph glyph-name="z" unicode="z" 
d="M1078 0h-922v225l594 667h-594v225h922v-225l-585 -667h585v-225z" />
    <glyph glyph-name="braceleft" unicode="{" 
d="M207 -82q0 86 28.5 143.5t84.5 113.5t83 92t27 74q0 86 -84.5 120t-308.5 42v156q223 7 308 41t85 117q0 35 -27 66t-82 76t-84.5 96t-29.5 137q0 177 190.5 249.5t628.5 66.5v-225q-289 6 -400.5 -25t-111.5 -111q0 -43 26 -78.5t83.5 -80t84.5 -85.5t27 -101
q0 -112 -104 -162t-359 -57v-10q255 -19 359 -72.5t104 -161.5q0 -61 -27.5 -102t-84.5 -85t-83 -83t-26 -93q0 -86 111.5 -118.5t400.5 -26.5v-222q-438 -6 -628.5 65t-190.5 244z" />
    <glyph glyph-name="bar" unicode="|" 
d="M492 -372v1861h249v-1861h-249z" />
    <glyph glyph-name="braceright" unicode="}" 
d="M1026 -82q0 -173 -190 -244t-629 -65v222q289 -6 400.5 26.5t111.5 118.5q0 54 -26 93t-83 84t-85 84.5t-28 101.5q0 108 104.5 162t359.5 72v10q-255 7 -359.5 57.5t-104.5 161.5q0 60 27 101t85 85.5t84 80t26 78.5q0 80 -112 110.5t-400 25.5v225q439 6 629 -67
t190 -249q0 -86 -30 -137t-85 -96t-81 -75.5t-26 -66.5q0 -84 84 -117t309 -41v-156q-225 -7 -309 -42t-84 -120q0 -37 27 -73.5t82 -92.5t84 -113.5t29 -143.5z" />
    <glyph glyph-name="asciitilde" unicode="~" 
d="M836 629q82 0 82 188v244h194v-257q0 -199 -75.5 -307t-198.5 -108q-89 0 -156.5 55.5t-123.5 171.5t-93 180t-81 64q-82 0 -82 -231v-223h-194v234q0 222 75.5 341t198.5 119q89 0 156.5 -55.5t123.5 -171.5t92.5 -180t81.5 -64z" />
    <glyph glyph-name="exclamdown" unicode="&#xa1;" 
d="M761 931l51 -931h-374l52 931h271zM385 1352q0 156 232 156t232 -156v-52q0 -161 -232 -161t-232 161v52z" />
    <glyph glyph-name="cent" unicode="&#xa2;" 
d="M525 -93v266q-199 22 -301.5 134t-102.5 302v279q0 192 106 300t298 128v267h190v-265q186 -20 277.5 -124.5t109.5 -284.5l-279 -23q-7 101 -37 149.5t-95 61.5v-708q69 11 96.5 56t35.5 140l279 -23q-11 -177 -95 -275.5t-292 -115.5v-264h-190zM415 609
q0 -101 30 -154t104 -68v713q-74 -13 -104 -65t-30 -154v-272z" />
    <glyph glyph-name="sterling" unicode="&#xa3;" 
d="M607 572q0 -148 -184 -248l29 -58q116 58 185 19t106 -39q80 0 107 55.5t36 190.5l279 -19q-13 -240 -108.5 -366t-261.5 -126q-74 0 -142.5 31.5t-132.5 61.5t-111.5 43t-95.5 -22l-158 -112l-129 190l171 110q60 39 105.5 118t45.5 150t-24 132h-251v179h154
q-52 102 -52 203q0 199 120 321t354 122t341.5 -121t121.5 -359l-280 -19q-9 128 -45.5 189t-146.5 61q-175 0 -175 -198q0 -89 56 -199h257v-179h-184q13 -52 13 -111z" />
    <glyph glyph-name="currency" unicode="&#xa4;" 
d="M199 590v309q0 101 26 175l-177 194l134 140l157 -170q107 84 280.5 84t277.5 -86l153 162l134 -139l-175 -190q24 -76 24 -170v-309q0 -67 -18 -152l169 -207l-134 -140l-153 164q-101 -87 -276 -87t-284 83l-155 -169l-134 140l177 193q-26 74 -26 175zM616 1085
q-138 0 -138 -186v-309q0 -99 34.5 -142.5t138 -43.5t103.5 186v309q0 186 -138 186z" />
    <glyph glyph-name="yen" unicode="&#xa5;" 
d="M1112 186h-343v-186h-305v186h-343v179h343v194h-343v178h259l-356 752h315l281 -683l281 683h305l-353 -752h259v-178h-343v-194h343v-179z" />
    <glyph glyph-name="brokenbar" unicode="&#xa6;" 
d="M492 -372v744h249v-744h-249zM492 745v744h249v-744h-249z" />
    <glyph glyph-name="section" unicode="&#xa7;" 
d="M1143 -24q0 -171 -135 -266t-360 -95q-145 0 -284 50t-230 125l84 219q216 -158 437 -158q78 0 136 29.5t58 105.5t-74.5 112t-195.5 66q-240 48 -361 131t-121 245q0 102 62.5 166.5t160.5 95.5q-223 114 -223 334q0 173 137.5 267t359.5 94q145 0 279 -50.5t235 -124.5
l-99 -209q-104 69 -202 108t-208 39q-206 0 -206 -137q0 -78 86.5 -114.5t268.5 -74.5t288.5 -120t106.5 -246q0 -101 -54 -169.5t-139 -106.5q193 -106 193 -316zM838 537q0 75 -52 109t-106 46t-70 16.5t-33 8.5q-71 -2 -122 -34.5t-51 -108.5t52.5 -109t105.5 -45
t69.5 -17t33.5 -8q71 2 122 34.5t51 107.5z" />
    <glyph glyph-name="dieresis" unicode="&#xa8;" 
d="M678 1448q0 135 154 135q71 0 114 -30t43 -105v-22q0 -70 -44 -98t-113 -28q-70 0 -112 28t-42 98v22zM244 1448q0 135 156 135t155 -135v-22q0 -126 -155 -126q-68 0 -112 28t-44 98v22z" />
    <glyph glyph-name="copyright" unicode="&#xa9;" 
d="M536 527q0 -192 90 -192q46 0 63 36.5t24 147.5l210 -11q-13 -184 -80 -269.5t-223 -85.5q-306 0 -305 368v341q0 363 305 363q156 0 223 -92t80 -280l-210 -11q-7 119 -24 160t-63 41t-68 -44t-22 -148v-324zM616.5 -88q238.5 0 340.5 141.5t102 454.5v354
q0 315 -102 459t-340.5 144t-340 -144t-101.5 -459v-354q0 -313 101.5 -454.5t340 -141.5zM52 892q0 691 426.5 691t564 -174.5t137.5 -516.5v-414q0 -339 -138.5 -511t-564 -172t-425.5 683v414z" />
    <glyph glyph-name="ordfeminine" unicode="&#xaa;" 
d="M715 1171q0 153 -147 153q-69 0 -106.5 -27t-61.5 -113l-234 41q30 149 125.5 216t283.5 67t293.5 -75.5t105.5 -252.5v-309q0 -82 42 -102.5t131 -8.5v-187q-123 -24 -207 2t-117 132h-39q-41 -65 -132.5 -108.5t-203.5 -43.5t-207.5 63.5t-95.5 195.5t90.5 200
t242.5 68h237v89zM395 827q0 -103 117 -103t203 78v136h-210q-54 0 -82 -23t-28 -88z" />
    <glyph glyph-name="guillemotleft" unicode="&#xab;" 
d="M575 95l-497 406v300l497 407v-268l-352 -288l352 -289v-268zM1156 95l-499 406v300l499 407v-268l-354 -288l354 -289v-268z" />
    <glyph glyph-name="logicalnot" unicode="&#xac;" 
d="M856 0v525h-731v253h983v-778h-252z" />
    <glyph glyph-name="registered" unicode="&#xae;" 
d="M912 1011q0 -132 -123 -173l157 -283h-220l-126 262h-41v-262h-203v735h292q264 0 264 -223v-56zM627 938q80 0 80 75v56q0 52 -24 70.5t-56 18.5h-68v-220h68zM616 337q214 0 307.5 101.5t93.5 322.5v308q0 225 -93.5 328.5t-307.5 103.5t-307 -103.5t-93 -328.5v-308
q0 -222 93 -323t307 -101zM1123 754q1 -519 -505 -519t-506 519v322q0 525 506 525t505 -525v-322z" />
    <glyph glyph-name="macron" unicode="&#x2c9;" 
d="M240 1372v235h752v-235h-752z" />
    <glyph glyph-name="macron" unicode="&#xaf;" 
d="M240 1372v235h752v-235h-752z" />
    <glyph glyph-name="degree" unicode="&#xb0;" 
d="M756 1136q0 156 -139 156t-139 -156v-166q0 -82 34.5 -117.5t103.5 -35.5t104.5 35.5t35.5 117.5v166zM616.5 611q-171.5 0 -276.5 82t-105 255v210q0 173 105 258t277 85t277.5 -85t105.5 -258v-210q0 -173 -106 -255t-277.5 -82z" />
    <glyph glyph-name="plusminus" unicode="&#xb1;" 
d="M125 0v253h365v458h-365v253h365v462h253v-462h365v-253h-365v-458h365v-253h-983z" />
    <glyph glyph-name="two.sups" unicode="&#xb2;" 
d="M614 1501q375 0 375 -276v-45q0 -104 -54 -166.5t-142 -80.5l-208 -47q-65 -13 -90.5 -34.5t-25.5 -73.5v-35h531v-177h-767v210q0 220 199 267l208 46q60 13 86 38t26 83v19q0 61 -35.5 84.5t-102.5 23.5t-98.5 -26t-35.5 -112l-238 13q7 145 94.5 217t277.5 72z" />
    <glyph glyph-name="three.sups" unicode="&#xb3;" 
d="M612 555q-376 0 -390 281l236 11q7 -69 41.5 -93t116.5 -24t113.5 23t31.5 76v27q0 58 -34 81.5t-111 23.5h-182v173h182q65 0 95 16.5t30 67.5v20q0 52 -33.5 70t-103.5 18t-95 -19.5t-29 -73.5l-238 11q9 141 102.5 199t261 58t269.5 -50.5t102 -180.5v-21
q0 -80 -45.5 -125.5t-116.5 -54.5v-34q69 -6 127 -56t58 -141v-19q0 -147 -100.5 -205.5t-287.5 -58.5z" />
    <glyph glyph-name="acute" unicode="&#xb4;" 
d="M395 1303l191 373h391l-374 -373h-208z" />
    <glyph glyph-name="mu1" unicode="&#xb5;" 
d="M145 1117h306v-726q0 -88 35 -126q34 -38 86 -38t89 25t73 72v793h305v-771q0 -86 27 -110t90 -13v-219q-123 -26 -192 9t-102 142h-48q-69 -170 -214 -172q-92 0 -149 75v-21l18 -409h-341l17 409v1080z" />
    <glyph glyph-name="paragraph" unicode="&#xb6;" 
d="M864 633h-153v-1005h-262v1005q-156 6 -261.5 94t-105.5 273v97q0 199 114.5 295.5t276.5 96.5h653v-1861h-262v1005z" />
    <glyph glyph-name="periodcentered" unicode="&#x2219;" 
d="M616 488q-108 0 -175 50t-67 145v119q0 95 67 147.5t176 52.5t175 -52.5t66 -147.5v-119q0 -95 -67 -145t-175 -50z" />
    <glyph glyph-name="periodcentered" unicode="&#xb7;" 
d="M616 488q-108 0 -175 50t-67 145v119q0 95 67 147.5t176 52.5t175 -52.5t66 -147.5v-119q0 -95 -67 -145t-175 -50z" />
    <glyph glyph-name="cedilla" unicode="&#xb8;" 
d="M907 -171q-1 -123 -103 -183t-250 -60t-245 56q-97 55 -104 176l259 18q4 -35 24 -49t64 -14t68 21t24 80t-16 86t-64 40l36 78q138 -18 222 -72t85 -177z" />
    <glyph glyph-name="one.sups" unicode="&#xb9;" 
d="M318 566v177h233v538h-33q-17 -78 -77.5 -123.5t-135.5 -51.5l-9 175q80 9 154.5 61.5t104.5 146.5h233v-746h212v-177h-682z" />
    <glyph glyph-name="ordmasculine" unicode="&#xba;" 
d="M616.5 745q87.5 0 123.5 42t36 135v223q0 86 -36 128.5t-123.5 42.5t-124 -43.5t-36.5 -129.5v-221q0 -93 36.5 -135t124 -42zM617 555q-185 0 -303.5 88.5t-118.5 263.5v242q0 179 118.5 269t303.5 90t302.5 -90.5t117.5 -268.5v-242q0 -175 -117.5 -263.5t-302.5 -88.5
z" />
    <glyph glyph-name="guillemotright" unicode="&#xbb;" 
d="M659 95v268l352 289l-352 288v268l497 -407v-300zM78 95v268l354 289l-354 288v268l499 -407v-300z" />
    <glyph glyph-name="onequarter" unicode="&#xbc;" 
d="M652 -47v287l-250 -287h250zM1048 -210h-160v-181h-236v181h-434v163l387 449h283v-449h160v-163zM694 495v147l520 38v-222zM19 458v222l543 -38v-147zM302 765v155h232v374h-33q-14 -75 -75 -123q-63 -46 -136 -50l-9 173q137 21 189.5 91.5t67.5 116.5h233v-582h212
v-155h-681z" />
    <glyph glyph-name="onehalf" unicode="&#xbd;" 
d="M707 395q282 0 282 -227v-45q0 -160 -196 -199l-208 -47q-62 -13 -88 -30q-24 -21 -28 -61h531v-177h-767v173q0 96 47 157t152 83l208 47q64 13 88 31t24 53v18q0 71 -117.5 71t-135 -35.5t-19.5 -65.5l-238 14q8 123 95.5 181.5t369.5 58.5zM694 495v147l520 38v-222z
M19 458v222l543 -38v-147zM302 765v155h232v374h-33q-14 -75 -75 -123q-63 -46 -136 -50l-9 173q88 14 151 61q76 52 106 147h233v-582h212v-155h-681z" />
    <glyph glyph-name="threequarters" unicode="&#xbe;" 
d="M657 -47v287l-251 -287h251zM1052 -210h-158v-181h-237v181h-435v163l387 449h285v-449h158v-163zM694 495v147l520 38v-222zM19 458v222l543 -38v-147zM1000 961q0 -209 -383 -209t-395 244l236 11q11 -87 64 -95.5t116 -8.5t92 17q31 13 31 50v28q0 38 -26 51
q-43 20 -121 20h-169v150h169q100 0 113.5 23.5t13.5 42.5v20q0 46 -49.5 51t-103.5 5t-79 -14t-29 -55l-238 11q8 107 99 160q96 49 264 49q282 0 327 -64.5t45 -110.5v-21q0 -122 -152 -151v-33q75 -9 110 -37q65 -51 65 -116v-18z" />
    <glyph glyph-name="questiondown" unicode="&#xbf;" 
d="M400 462v-45q0 -101 45 -155.5t173 -54.5t170 56.5t55 203.5l308 -18q-13 -248 -140.5 -358t-390.5 -110t-395 120.5t-132 298.5v69q0 214 169.5 324t554.5 171l36 -208q-272 -47 -362.5 -115t-90.5 -179zM464 1352q0 156 232 156t233 -156v-52q0 -161 -232.5 -161
t-232.5 161v52z" />
    <glyph glyph-name="Agrave" unicode="&#xc0;" 
d="M896 0l-82 371h-399l-89 -371h-279l385 1489h370l386 -1489h-292zM761 607l-139 635l-151 -635h290zM590 1676l-372 372h391l192 -372h-211z" />
    <glyph glyph-name="Aacute" unicode="&#xc1;" 
d="M896 0l-82 371h-399l-89 -371h-279l385 1489h370l386 -1489h-292zM761 607l-139 635l-151 -635h290zM395 1676l191 372h391l-374 -372h-208z" />
    <glyph glyph-name="Acircumflex" unicode="&#xc2;" 
d="M896 0l-82 371h-399l-89 -371h-279l385 1489h370l386 -1489h-292zM761 607l-139 635l-151 -635h290zM285 1663l-99 139l313 289h231l316 -289l-98 -139l-334 203z" />
    <glyph glyph-name="Atilde" unicode="&#xc3;" 
d="M896 0l-82 371h-399l-89 -371h-279l385 1489h370l386 -1489h-292zM761 607l-139 635l-151 -635h290zM473 1884q-75 0 -73 -145v-26h-199v28q0 151 70 249t193 99q74 0 118 -28t74 -65t53 -67q22 -30 52 -30t53 30q22 30 20 115v26h199v-28q-1 -152 -69 -250t-190 -98
t-193 95q-30 35 -53 65t-55 30z" />
    <glyph glyph-name="Adieresis" unicode="&#xc4;" 
d="M896 0l-82 371h-399l-89 -371h-279l385 1489h370l386 -1489h-292zM761 607l-139 635l-151 -635h290zM989 1799q1 -127 -155 -127t-156 127v22q0 134 156 134t155 -134v-22zM555 1799q1 -127 -155 -127t-156 127v22q0 134 156 134t155 -134v-22z" />
    <glyph glyph-name="Aring" unicode="&#xc5;" 
d="M896 0l-82 371h-399l-89 -371h-279l385 1489h370l386 -1489h-292zM761 607l-139 635l-151 -635h290zM490 1918q0 -69 32 -98t94 -29q127 0 127 127v59q0 134 -127 132q-128 0 -126 -132v-59zM616 1637q-152 1 -246 69t-94 212v59q0 145 94 216t248 71t246 -71
q93 -71 93 -216v-59q0 -143 -94 -212t-247 -69z" />
    <glyph glyph-name="AE" unicode="&#xc6;" 
d="M592 371h-255l-86 -371h-219l361 1489h791v-217h-329v-363h297v-216h-297v-475h329v-218h-592v371zM592 588v684h-50l-157 -684h207z" />
    <glyph glyph-name="Ccedilla" unicode="&#xc7;" 
d="M115 998q0 512 525 510q261 0 382 -125t134 -402l-305 -18q-11 184 -55 246q-44 63 -160 63t-166 -67t-49 -229v-470q0 -156 49 -222q50 -66 166 -66t159 60t56 241l305 -18q-11 -274 -134 -397q-67 -67 -176 -97q85 -55 85 -178t-102 -183q-103 -60 -251 -60t-245 56
q-97 55 -104 176l259 18q4 -35 24 -49t64 -14t68 21t24 80q0 58 -12 78t-25 29q-514 4 -516 503v514z" />
    <glyph glyph-name="Egrave" unicode="&#xc8;" 
d="M121 0v1489h998v-236h-691v-337h605v-236h-605v-444h691v-236h-998zM635 1676l-372 372h390l192 -372h-210z" />
    <glyph glyph-name="Eacute" unicode="&#xc9;" 
d="M121 0v1489h998v-236h-691v-337h605v-236h-605v-444h691v-236h-998zM447 1672l192 372h391l-375 -372h-208z" />
    <glyph glyph-name="Ecircumflex" unicode="&#xca;" 
d="M121 0v1489h998v-236h-691v-337h605v-236h-605v-444h691v-236h-998zM305 1663l-98 139l312 289h231l317 -289l-99 -139l-333 203z" />
    <glyph glyph-name="Edieresis" unicode="&#xcb;" 
d="M121 0v1489h998v-236h-691v-337h605v-236h-605v-444h691v-236h-998zM707 1821q0 134 156 134t155 -134v-22q0 -127 -156 -127q-69 0 -112 28t-43 99v22zM585 1799q0 -127 -156 -127t-155 127v22q0 134 156 134t155 -134v-22z" />
    <glyph glyph-name="Igrave" unicode="&#xcc;" 
d="M121 0v236h343v1017h-343v236h991v-236h-343v-1017h343v-236h-991zM590 1676l-372 372h391l192 -372h-211z" />
    <glyph glyph-name="Iacute" unicode="&#xcd;" 
d="M121 0v236h343v1017h-343v236h991v-236h-343v-1017h343v-236h-991zM395 1676l191 372h391l-374 -372h-208z" />
    <glyph glyph-name="Icircumflex" unicode="&#xce;" 
d="M121 0v236h343v1017h-343v236h991v-236h-343v-1017h343v-236h-991zM285 1663l-99 139l313 289h231l316 -289l-98 -139l-334 203z" />
    <glyph glyph-name="Idieresis" unicode="&#xcf;" 
d="M121 0v236h343v1017h-343v236h991v-236h-343v-1017h343v-236h-991zM989 1799q1 -127 -155 -127t-156 127v22q0 134 156 134t155 -134v-22zM555 1799q1 -127 -155 -127t-156 127v22q0 134 156 134t155 -134v-22z" />
    <glyph glyph-name="Eth" unicode="&#xd0;" 
d="M428 236h151q127 0 180 74t53 243v376q0 173 -53 248.5t-180 75.5h-151v-333h188v-201h-188v-483zM121 0v719h-112v201h112v569h486q240 0 376 -147t136 -391v-420q0 -242 -137 -386.5t-377 -144.5h-484z" />
    <glyph glyph-name="Ntilde" unicode="&#xd1;" 
d="M384 0h-263v1489h343l385 -1128v1128h263v-1489h-367l-361 1078v-1078zM769 1899q75 0 73 145v26h199v-28q0 -152 -69 -250t-190 -98t-194 95q-30 35 -53 65t-54 30q-76 0 -73 -145v-26h-199v28q-1 151 69 249t193 99q74 0 118 -28t75 -65t53 -67t52 -30z" />
    <glyph glyph-name="Ograve" unicode="&#xd2;" 
d="M616 218q106 0 151 62t45 221v480q0 160 -45 225q-45 66 -151 66t-151 -66t-44 -225v-480q0 -158 44 -221q45 -62 151 -62zM616 -19q-244 1 -372 131t-129 366v526q-1 238 129 371t374 133t372 -133t129 -371v-526q1 -236 -129 -366t-374 -131zM590 1676l-372 372h391
l192 -372h-211z" />
    <glyph glyph-name="Oacute" unicode="&#xd3;" 
d="M616 218q106 0 151 62t45 221v480q0 160 -45 225q-45 66 -151 66t-151 -66t-44 -225v-480q0 -158 44 -221q45 -62 151 -62zM616 -19q-244 1 -372 131t-129 366v526q-1 238 129 371t374 133t372 -133t129 -371v-526q1 -236 -129 -366t-374 -131zM449 1676l191 372h391
l-374 -372h-208z" />
    <glyph glyph-name="Ocircumflex" unicode="&#xd4;" 
d="M616 218q106 0 151 62t45 221v480q0 160 -45 225q-45 66 -151 66t-151 -66t-44 -225v-480q0 -158 44 -221q45 -62 151 -62zM616 -19q-244 1 -372 131t-129 366v526q-1 238 129 371t374 133t372 -133t129 -371v-526q1 -236 -129 -366t-374 -131zM285 1663l-99 139l313 289
h231l316 -289l-98 -139l-334 203z" />
    <glyph glyph-name="Otilde" unicode="&#xd5;" 
d="M616 218q106 0 151 62t45 221v480q0 160 -45 225q-45 66 -151 66t-151 -66t-44 -225v-480q0 -158 44 -221q45 -62 151 -62zM616 -19q-244 1 -372 131t-129 366v526q-1 238 129 371t374 133t372 -133t129 -371v-526q1 -236 -129 -366t-374 -131zM473 1884q-75 0 -73 -145
v-26h-199v28q0 151 70 249t193 99q74 0 118 -28t74 -65t53 -67q22 -30 52 -30t53 30q22 30 20 115v26h199v-28q-1 -152 -69 -250t-190 -98t-193 95q-30 35 -53 65t-55 30z" />
    <glyph glyph-name="Odieresis" unicode="&#xd6;" 
d="M616 218q106 0 151 62t45 221v480q0 160 -45 225q-45 66 -151 66t-151 -66t-44 -225v-480q0 -158 44 -221q45 -62 151 -62zM616 -19q-244 1 -372 131t-129 366v526q-1 238 129 371t374 133t372 -133t129 -371v-526q1 -236 -129 -366t-374 -131zM989 1799
q1 -127 -155 -127t-156 127v22q0 134 156 134t155 -134v-22zM555 1799q1 -127 -155 -127t-156 127v22q0 134 156 134t155 -134v-22z" />
    <glyph glyph-name="multiply" unicode="&#xd7;" 
d="M303 71l-169 151l320 430l-316 426l165 155l313 -418l315 414l167 -153l-320 -424l320 -425l-167 -153l-315 414z" />
    <glyph glyph-name="Oslash" unicode="&#xd8;" 
d="M1119 981v-480q0 -246 -129.5 -383t-373.5 -137q-64 0 -162 19l-70 -186h-226l106 283q-149 131 -149 404v480q0 249 129.5 388t373.5 139q79 0 155 -17l69 185h225l-104 -280q156 -134 156 -415zM840 523v415q0 62 -17 118l-300 -825q35 -13 93 -13q125 0 174.5 68
t49.5 237zM616 1272q-123 0 -172 -70t-49 -243v-436q0 -70 9 -100l300 837q-33 12 -88 12z" />
    <glyph glyph-name="Ugrave" unicode="&#xd9;" 
d="M616 -19q-253 -1 -374 129t-121 402v977h307v-970q0 -166 43 -228t145 -62t145 62t43 228v970h308v-977q0 -272 -122 -402t-374 -129zM590 1676l-372 372h391l192 -372h-211z" />
    <glyph glyph-name="Uacute" unicode="&#xda;" 
d="M616 -19q-253 -1 -374 129t-121 402v977h307v-970q0 -166 43 -228t145 -62t145 62t43 228v970h308v-977q0 -272 -122 -402t-374 -129zM395 1676l191 372h391l-374 -372h-208z" />
    <glyph glyph-name="Ucircumflex" unicode="&#xdb;" 
d="M616 -19q-253 -1 -374 129t-121 402v977h307v-970q0 -166 43 -228t145 -62t145 62t43 228v970h308v-977q0 -272 -122 -402t-374 -129zM285 1663l-99 139l313 289h231l316 -289l-98 -139l-334 203z" />
    <glyph glyph-name="Udieresis" unicode="&#xdc;" 
d="M616 -19q-253 -1 -374 129t-121 402v977h307v-970q0 -166 43 -228t145 -62t145 62t43 228v970h308v-977q0 -272 -122 -402t-374 -129zM989 1799q1 -127 -155 -127t-156 127v22q0 134 156 134t155 -134v-22zM555 1799q1 -127 -155 -127t-156 127v22q0 134 156 134
t155 -134v-22z" />
    <glyph glyph-name="Yacute" unicode="&#xdd;" 
d="M769 0h-305v559l-421 930h309l266 -659l263 659h307l-419 -930v-559zM395 1676l191 372h391l-374 -372h-208z" />
    <glyph glyph-name="Thorn" unicode="&#xde;" 
d="M428 480h181q112 0 159 40t47 139v184q0 99 -47 139t-159 40h-181v-542zM121 0v1489h307v-230h216q233 0 356 -105.5t123 -304.5v-205q0 -194 -123 -295t-356 -101h-216v-248h-307z" />
    <glyph glyph-name="germandbls" unicode="&#xdf;" 
d="M748 789q0 -58 46 -88.5t156 -74.5t163.5 -115.5t53.5 -184.5q0 -158 -104.5 -247.5t-260.5 -89.5q-89 0 -180 32.5t-153 90.5l75 184q132 -114 236 -114q123 0 123 116q0 56 -37.5 84.5t-153.5 70.5t-172 113t-56 192t73.5 204.5t196.5 104.5q-13 214 -188 214
q-74 0 -128 -54t-54 -179v-1048h-293v1074q0 214 132.5 322t345.5 108t339.5 -129t126.5 -332v-121q-287 -4 -287 -133z" />
    <glyph glyph-name="agrave" unicode="&#xe0;" 
d="M414 -19q-131 0 -224 86q-93 87 -93 239t99 234q100 82 262 82h261v145q0 79 -41 115t-124 36t-123 -35t-59 -135l-249 45q35 183 137 263t304 80q447 0 449 -358v-448q0 -80 42 -100t122 -7v-219q-286 -63 -343 164h-46q-52 -76 -148 -132t-226 -55zM505 181
q121 0 214 85v188h-224q-59 0 -89 -30t-30 -102t30 -106t99 -35zM570 1303l-373 373h391l192 -373h-210z" />
    <glyph glyph-name="aacute" unicode="&#xe1;" 
d="M414 -19q-131 0 -224 86q-93 87 -93 239t99 234q100 82 262 82h261v145q0 79 -41 115t-124 36t-123 -35t-59 -135l-249 45q35 183 137 263t304 80q447 0 449 -358v-448q0 -80 42 -100t122 -7v-219q-286 -63 -343 164h-46q-52 -76 -148 -132t-226 -55zM505 181
q121 0 214 85v188h-224q-59 0 -89 -30t-30 -102t30 -106t99 -35zM374 1303l192 373h391l-374 -373h-209z" />
    <glyph glyph-name="acircumflex" unicode="&#xe2;" 
d="M414 -19q-131 0 -224 86q-93 87 -93 239t99 234q100 82 262 82h261v145q0 79 -41 115t-124 36t-123 -35t-59 -135l-249 45q35 183 137 263t304 80q447 0 449 -358v-448q0 -80 42 -100t122 -7v-219q-286 -63 -343 164h-46q-52 -76 -148 -132t-226 -55zM505 181
q121 0 214 85v188h-224q-59 0 -89 -30t-30 -102t30 -106t99 -35zM268 1290l-99 140l313 288h231l317 -288l-99 -140l-333 203z" />
    <glyph glyph-name="atilde" unicode="&#xe3;" 
d="M414 -19q-131 0 -224 86q-93 87 -93 239t99 234q100 82 262 82h261v145q0 79 -41 115t-124 36t-123 -35t-59 -135l-249 45q35 183 137 263t304 80q447 0 449 -358v-448q0 -80 42 -100t122 -7v-219q-286 -63 -343 164h-46q-52 -76 -148 -132t-226 -55zM505 181
q121 0 214 85v188h-224q-59 0 -89 -30t-30 -102t30 -106t99 -35zM814 1698h199v-28q0 -152 -69 -250t-190 -98t-194 95q-30 35 -53 65t-54 30q-76 0 -73 -145v-26h-199v27q0 151 69 250q70 99 193 99q74 0 127 -34t119 -127q22 -30 52 -29q75 0 73 145v26z" />
    <glyph glyph-name="adieresis" unicode="&#xe4;" 
d="M414 -19q-131 0 -224 86q-93 87 -93 239t99 234q100 82 262 82h261v145q0 79 -41 115t-124 36t-123 -35t-59 -135l-249 45q35 183 137 263t304 80q447 0 449 -358v-448q0 -80 42 -100t122 -7v-219q-286 -63 -343 164h-46q-52 -76 -148 -132t-226 -55zM505 181
q121 0 214 85v188h-224q-59 0 -89 -30t-30 -102t30 -106t99 -35zM657 1448q0 135 155 135q72 0 114 -30t42 -105v-22q0 -70 -44 -98t-112 -28q-69 0 -112 28t-43 98v22zM223 1448q0 135 156 135t155 -135v-22q0 -71 -43 -99q-44 -27 -112 -27t-112 28t-44 98v22z" />
    <glyph glyph-name="aring" unicode="&#xe5;" 
d="M414 -19q-131 0 -224 86q-93 87 -93 239t99 234q100 82 262 82h261v145q0 79 -41 115t-124 36t-123 -35t-59 -135l-249 45q35 183 137 263t304 80q447 0 449 -358v-448q0 -80 42 -100t122 -7v-219q-286 -63 -343 164h-46q-52 -76 -148 -132t-226 -55zM505 181
q121 0 214 85v188h-224q-59 0 -89 -30t-30 -102t30 -106t99 -35zM709 1605q-1 132 -127 132t-126 -132v-60q0 -69 32 -97t95 -29q128 0 126 126v60zM583 1264q-153 0 -247 69t-94 212v60q0 145 94 216t248 71t246 -71t93 -216v-60q1 -143 -93 -212t-247 -69z" />
    <glyph glyph-name="ae" unicode="&#xe6;" 
d="M391 173q61 0 130 76v213h-102q-54 0 -84 -32.5t-30 -116.5q0 -140 86 -140zM830.5 944q-78.5 0 -78.5 -183v-102h203v97q0 101 -23 144.5t-101.5 43.5zM752 346q0 -167 92 -167q48 0 75 29.5t40 104.5l216 -36q-64 -296 -319 -296q-179 0 -249 159h-48q-26 -69 -87 -114
t-162 -45t-177.5 79.5t-76.5 237.5t83.5 241t223.5 83h158v134q0 169 -98 169q-50 0 -72.5 -33.5t-50.5 -130.5l-218 47q34 168 110 248t210 80q164 0 224 -136q81 136 245 136q136 0 221 -100.5t85 -303.5v-233h-425v-153z" />
    <glyph glyph-name="ccedilla" unicode="&#xe7;" 
d="M613 -227q45 0 69 21t24 91t-39 97q-17 -1 -34 -1q-242 0 -370 109t-127 314v311q0 203 128 312t359 109t344 -104t135 -302l-296 -23q-7 112 -49 158q-42 45 -136 45t-137 -47t-43 -163v-285q0 -114 43 -161q42 -47 138 -47t138 36q41 36 46 129l296 -22
q-16 -265 -230 -337q96 -47 96 -177t-102 -190t-250 -60t-245 56q-97 55 -105 176l259 18q3 -35 23 -49t65 -14z" />
    <glyph glyph-name="egrave" unicode="&#xe8;" 
d="M441 745v-78h350v65q0 112 -39 159t-136 47t-136 -44t-39 -149zM136 397v325q0 198 130 306t352 108t351 -110q128 -110 128 -315v-212h-656v-119q0 -194 185 -194q95 0 147 30t83 110l257 -69q-59 -151 -165 -213t-322 -62t-353 104q-137 106 -137 311zM598 1303
l-373 373h391l192 -373h-210z" />
    <glyph glyph-name="eacute" unicode="&#xe9;" 
d="M441 745v-78h350v65q0 112 -39 159t-136 47t-136 -44t-39 -149zM136 397v325q0 198 130 306t352 108t351 -110q128 -110 128 -315v-212h-656v-119q0 -194 185 -194q95 0 147 30t83 110l257 -69q-59 -151 -165 -213t-322 -62t-353 104q-137 106 -137 311zM428 1303
l192 373h391l-374 -373h-209z" />
    <glyph glyph-name="ecircumflex" unicode="&#xea;" 
d="M441 745v-78h350v65q0 112 -39 159t-136 47t-136 -44t-39 -149zM136 397v325q0 198 130 306t352 108t351 -110q128 -110 128 -315v-212h-656v-119q0 -194 185 -194q95 0 147 30t83 110l257 -69q-59 -151 -165 -213t-322 -62t-353 104q-137 106 -137 311zM292 1290
l-98 140l312 288h231l317 -288l-99 -140l-333 203z" />
    <glyph glyph-name="edieresis" unicode="&#xeb;" 
d="M441 745v-78h350v65q0 112 -39 159t-136 47t-136 -44t-39 -149zM136 397v325q0 198 130 306t352 108t351 -110q128 -110 128 -315v-212h-656v-119q0 -194 185 -194q95 0 147 30t83 110l257 -69q-59 -151 -165 -213t-322 -62t-353 104q-137 106 -137 311zM685 1448
q0 135 155 135q72 0 114 -30t42 -105v-22q0 -70 -44 -98t-112 -28q-69 0 -112 28t-43 98v22zM251 1448q-1 135 155 135t156 -135v-22q0 -71 -43 -99q-44 -27 -112 -27t-112 28t-44 98v22z" />
    <glyph glyph-name="igrave.salt_serifs" unicode="&#xe025;" 
d="M769 225h322v-225h-627v892h-323v225h628v-892zM581 1303l-372 373h391l191 -373h-210z" />
    <glyph glyph-name="igrave.salt_serifs" unicode="&#xec;" 
d="M769 225h322v-225h-627v892h-323v225h628v-892zM581 1303l-372 373h391l191 -373h-210z" />
    <glyph glyph-name="iacute.salt_serifs" unicode="&#xe026;" 
d="M769 225h322v-225h-627v892h-323v225h628v-892zM385 1303l192 373h391l-374 -373h-209z" />
    <glyph glyph-name="iacute.salt_serifs" unicode="&#xed;" 
d="M769 225h322v-225h-627v892h-323v225h628v-892zM385 1303l192 373h391l-374 -373h-209z" />
    <glyph glyph-name="icircumflex.salt_serifs" unicode="&#xe027;" 
d="M769 225h322v-225h-627v892h-323v225h628v-892zM276 1290l-99 140l313 288h231l316 -288l-99 -140l-333 203z" />
    <glyph glyph-name="icircumflex.salt_serifs" unicode="&#xee;" 
d="M769 225h322v-225h-627v892h-323v225h628v-892zM276 1290l-99 140l313 288h231l316 -288l-99 -140l-333 203z" />
    <glyph glyph-name="idieresis.salt_serifs" unicode="&#xe028;" 
d="M769 225h322v-225h-627v892h-323v225h628v-892zM668 1448q0 135 155 135q71 0 113 -30t43 -105v-22q0 -71 -43 -99q-44 -27 -113 -27t-112 28t-43 98v22zM235 1448q-1 135 155 135t156 -135v-22q0 -126 -155 -126q-69 0 -113 28t-43 98v22z" />
    <glyph glyph-name="idieresis.salt_serifs" unicode="&#xef;" 
d="M769 225h322v-225h-627v892h-323v225h628v-892zM668 1448q0 135 155 135q71 0 113 -30t43 -105v-22q0 -71 -43 -99q-44 -27 -113 -27t-112 28t-43 98v22zM235 1448q-1 135 155 135t156 -135v-22q0 -126 -155 -126q-69 0 -113 28t-43 98v22z" />
    <glyph glyph-name="eth" unicode="&#xf0;" 
d="M618 207q102 0 144 48t42 149v121q0 91 -42 135t-144 44t-144 -44t-42 -135v-121q0 -101 42 -149t144 -48zM1112 691v-261q0 -233 -137 -341t-358.5 -108t-358.5 108t-137 330v115q0 182 109 289.5t282 107.5q106 0 175 -41t95 -97h37q-17 219 -151 343l-290 -142v171
l134 68q-95 51 -259 98l181 198q229 -67 359 -159l268 131v-172l-136 -67q187 -201 187 -571z" />
    <glyph glyph-name="ntilde" unicode="&#xf1;" 
d="M791 739q0 157 -126 157q-58 0 -118 -34t-106 -104v-758h-305v1117h305v-186h52q39 95 123 150t206 55t198 -90t77 -253v-793h-306v739zM869 1698h200v-28q0 -152 -69 -250t-190 -98t-194 95q-30 35 -53 65t-54 30q-76 0 -73 -145v-26h-200v27q0 151 70 250t193 99
q74 0 127 -34t119 -127q22 -30 52 -29q75 0 72 145v26z" />
    <glyph glyph-name="ograve" unicode="&#xf2;" 
d="M616 207q91 1 133 47t42 150v303q0 107 -42 155t-133 48t-133 -47t-42 -154v-299q0 -106 42 -154t133 -49zM616 -19q-228 0 -354 108t-126 302v328q0 195 127 306q128 111 355 111t354 -112t126 -311v-328q0 -190 -128 -297t-354 -107zM590 1303l-372 373h391l192 -373
h-211z" />
    <glyph glyph-name="oacute" unicode="&#xf3;" 
d="M616 207q91 1 133 47t42 150v303q0 107 -42 155t-133 48t-133 -47t-42 -154v-299q0 -106 42 -154t133 -49zM616 -19q-228 0 -354 108t-126 302v328q0 195 127 306q128 111 355 111t354 -112t126 -311v-328q0 -190 -128 -297t-354 -107zM395 1303l191 373h391l-374 -373
h-208z" />
    <glyph glyph-name="ocircumflex" unicode="&#xf4;" 
d="M616 207q91 1 133 47t42 150v303q0 107 -42 155t-133 48t-133 -47t-42 -154v-299q0 -106 42 -154t133 -49zM616 -19q-228 0 -354 108t-126 302v328q0 195 127 306q128 111 355 111t354 -112t126 -311v-328q0 -190 -128 -297t-354 -107zM285 1290l-99 140l313 288h231
l316 -288l-98 -140l-334 203z" />
    <glyph glyph-name="otilde" unicode="&#xf5;" 
d="M616 207q91 1 133 47t42 150v303q0 107 -42 155t-133 48t-133 -47t-42 -154v-299q0 -106 42 -154t133 -49zM616 -19q-228 0 -354 108t-126 302v328q0 195 127 306q128 111 355 111t354 -112t126 -311v-328q0 -190 -128 -297t-354 -107zM834 1698h199v-28
q-1 -152 -69 -250t-190 -98t-193 95q-30 35 -53 65t-55 30q-75 0 -73 -145v-26h-199v27q0 151 70 250t193 99q74 0 126 -33t119 -128q22 -30 52 -29q76 0 73 145v26z" />
    <glyph glyph-name="odieresis" unicode="&#xf6;" 
d="M616 207q91 1 133 47t42 150v303q0 107 -42 155t-133 48t-133 -47t-42 -154v-299q0 -106 42 -154t133 -49zM616 -19q-228 0 -354 108t-126 302v328q0 195 127 306q128 111 355 111t354 -112t126 -311v-328q0 -190 -128 -297t-354 -107zM678 1448q0 135 154 135
q71 0 114 -30t43 -105v-22q0 -70 -44 -98t-113 -28q-70 0 -112 28t-42 98v22zM244 1448q0 135 156 135t155 -135v-22q0 -126 -155 -126q-68 0 -112 28t-44 98v22z" />
    <glyph glyph-name="divide" unicode="&#xf7;" 
d="M615 32q-75 0 -122.5 32.5t-47.5 101.5v35q0 71 47.5 104.5t124 33.5t123 -33.5t46.5 -104.5v-35q0 -69 -48 -101.5t-123 -32.5zM125 536v231h983v-231h-983zM615 963q-75 0 -122.5 32.5t-47.5 101.5v35q0 71 47.5 104.5t124 33.5t123 -33.5t46.5 -104.5v-35
q0 -69 -48 -101.5t-123 -32.5z" />
    <glyph glyph-name="oslash" unicode="&#xf8;" 
d="M618 1136q70 0 157 -17l83 184h200l-118 -249q80 -52 126 -142.5t46 -202.5v-309q0 -199 -134.5 -309t-361.5 -110q-71 0 -156 17l-86 -184h-199l117 249q-80 52 -125.5 140.5t-45.5 196.5v309q0 203 135 315t362 112zM832 417v289q0 76 -26 124l-279 -625q32 -10 89 -10
q117 0 166.5 52.5t49.5 169.5zM616 922q-117 0 -166.5 -54t-49.5 -166v-285q0 -88 24 -132l283 625q-38 12 -91 12z" />
    <glyph glyph-name="ugrave" unicode="&#xf9;" 
d="M791 1117h306v-1117h-306v186h-50q-41 -102 -129 -154t-182 -51q-128 1 -211 91t-83 252v793h305v-717q0 -180 125 -178q117 0 225 160v735zM594 1303l-372 373h391l191 -373h-210z" />
    <glyph glyph-name="uacute" unicode="&#xfa;" 
d="M791 1117h306v-1117h-306v186h-50q-41 -102 -129 -154t-182 -51q-128 1 -211 91t-83 252v793h305v-717q0 -180 125 -178q117 0 225 160v735zM477 1303l191 373h391l-374 -373h-208z" />
    <glyph glyph-name="ucircumflex" unicode="&#xfb;" 
d="M791 1117h306v-1117h-306v186h-50q-41 -102 -129 -154t-182 -51q-128 1 -211 91t-83 252v793h305v-717q0 -180 125 -178q117 0 225 160v735zM298 1290l-99 140l313 288h231l316 -288l-98 -140l-334 203z" />
    <glyph glyph-name="udieresis" unicode="&#xfc;" 
d="M791 1117h306v-1117h-306v186h-50q-41 -102 -129 -154t-182 -51q-128 1 -211 91t-83 252v793h305v-717q0 -180 125 -178q117 0 225 160v735zM691 1448q0 135 154 135q71 0 114 -30t43 -105v-22q0 -70 -44 -98t-113 -28t-111 28t-43 98v22zM257 1448q-1 135 155 135
t156 -135v-22q0 -126 -155 -126q-69 0 -113 28t-43 98v22z" />
    <glyph glyph-name="yacute" unicode="&#xfd;" 
d="M344 -391q-95 0 -247 22l18 224q139 -28 223 -27q85 2 137 46t82 156l5 17h-188l-298 1070h315l225 -869l237 869h301l-327 -1115q-63 -212 -176 -302t-307 -91zM404 1303l192 373h391l-374 -373h-209z" />
    <glyph glyph-name="thorn" unicode="&#xfe;" 
d="M670 -15q-125 0 -229 47v-404h-305v1861h305v-558h52q35 97 115.5 151t186.5 54q140 0 221 -99t81 -272v-370q0 -188 -114 -299t-313 -111zM620 209q86 0 128.5 44.5t42.5 144.5v323q0 175 -138 175q-111 0 -212 -120v-512q93 -55 179 -55z" />
    <glyph glyph-name="ydieresis" unicode="&#xff;" 
d="M344 -391q-95 0 -247 22l18 224q139 -28 223 -27q85 2 137 46t82 156l5 17h-188l-298 1070h315l225 -869l237 869h301l-327 -1115q-63 -212 -176 -302t-307 -91zM678 1448q0 135 154 135q71 0 114 -30t43 -105v-22q0 -70 -44 -98t-113 -28q-70 0 -112 28t-42 98v22z
M244 1448q0 135 156 135t155 -135v-22q0 -126 -155 -126q-68 0 -112 28t-44 98v22z" />
    <glyph glyph-name="Amacron" unicode="&#x100;" 
d="M896 0l-82 371h-399l-89 -371h-279l385 1489h370l386 -1489h-292zM761 607l-139 635l-151 -635h290zM240 1745v234h752v-234h-752z" />
    <glyph glyph-name="amacron" unicode="&#x101;" 
d="M414 -19q-131 0 -224 86q-93 87 -93 239t99 234q100 82 262 82h261v145q0 79 -41 115t-124 36t-123 -35t-59 -135l-249 45q35 183 137 263t304 80q447 0 449 -358v-448q0 -80 42 -100t122 -7v-219q-286 -63 -343 164h-46q-52 -76 -148 -132t-226 -55zM505 181
q121 0 214 85v188h-224q-59 0 -89 -30t-30 -102t30 -106t99 -35zM207 1372v235h752v-235h-752z" />
    <glyph glyph-name="Abreve" unicode="&#x102;" 
d="M896 0l-82 371h-399l-89 -371h-279l385 1489h370l386 -1489h-292zM761 607l-139 635l-151 -635h290zM616 1663q-216 0 -328 103t-115 321h251q2 -130 46 -180q44 -51 146 -51t146 50t46 181h251q-3 -218 -115 -321t-328 -103z" />
    <glyph glyph-name="abreve" unicode="&#x103;" 
d="M414 -19q-131 0 -224 86q-93 87 -93 239t99 234q100 82 262 82h261v145q0 79 -41 115t-124 36t-123 -35t-59 -135l-249 45q35 183 137 263t304 80q447 0 449 -358v-448q0 -80 42 -100t122 -7v-219q-286 -63 -343 164h-46q-52 -76 -148 -132t-226 -55zM505 181
q121 0 214 85v188h-224q-59 0 -89 -30t-30 -102t30 -106t99 -35zM583 1484q102 0 146 50t46 181h251q-4 -425 -444 -425t-442 425h251q2 -131 46 -181t146 -50z" />
    <glyph glyph-name="Aogonek" unicode="&#x104;" 
d="M761 607l-139 635l-151 -635h290zM1061 -411q-123 1 -203 61t-80 175t110 210l-74 336h-399l-89 -371h-279l385 1489h370l386 -1489h-152q-36 -44 -36 -110q0 -97 126 -99q33 0 161 19v-197q-103 -24 -226 -24z" />
    <glyph glyph-name="aogonek" unicode="&#x105;" 
d="M745 -167q0 123 141 227q-35 41 -52 108h-46q-52 -76 -148 -132t-226 -55q-131 0 -224 86q-93 87 -93 239t99 234q100 82 262 82h261v145q0 79 -41 115t-124 36t-123 -35t-59 -135l-249 45q35 183 137 263t304 80q447 0 449 -358v-448q0 -80 42 -100t122 -7v-219
q-102 -22 -178 -7q-33 -42 -33 -107q0 -97 127 -99q35 0 160 19v-197q-113 -26 -210 -24q-138 1 -218 61t-80 183zM505 181q121 0 214 85v188h-224q-59 0 -89 -30t-30 -102t30 -106t99 -35z" />
    <glyph glyph-name="Cacute" unicode="&#x106;" 
d="M115 998q0 512 525 510q261 0 382 -125t134 -402l-305 -18q-11 184 -55 246q-44 63 -160 63t-166 -67t-49 -229v-470q0 -156 49 -222q50 -66 166 -66t159 60t56 241l305 -18q-12 -274 -134 -397t-383 -123q-522 0 -524 503v514zM460 1676l192 372h391l-375 -372h-208z
" />
    <glyph glyph-name="cacute" unicode="&#x107;" 
d="M634 -19q-243 0 -371 109t-127 314v311q0 203 128 312t359 109t344 -104t135 -302l-296 -23q-7 112 -49 158q-42 45 -136 45t-137 -47t-43 -163v-285q0 -114 43 -161q42 -47 138 -47t138 36q41 36 46 129l296 -22q-11 -182 -118 -276t-350 -93zM460 1303l192 373h391
l-375 -373h-208z" />
    <glyph glyph-name="Ccircumflex" unicode="&#x108;" 
d="M115 998q0 512 525 510q261 0 382 -125t134 -402l-305 -18q-11 184 -55 246q-44 63 -160 63t-166 -67t-49 -229v-470q0 -156 49 -222q50 -66 166 -66t159 60t56 241l305 -18q-12 -274 -134 -397t-383 -123q-522 0 -524 503v514zM309 1663l-99 139l313 289h231l317 -289
l-99 -139l-333 203z" />
    <glyph glyph-name="ccircumflex" unicode="&#x109;" 
d="M634 -19q-243 0 -371 109t-127 314v311q0 203 128 312t359 109t344 -104t135 -302l-296 -23q-7 112 -49 158q-42 45 -136 45t-137 -47t-43 -163v-285q0 -114 43 -161q42 -47 138 -47t138 36q41 36 46 129l296 -22q-11 -182 -118 -276t-350 -93zM298 1290l-99 140l313 288
h231l316 -288l-98 -140l-334 203z" />
    <glyph glyph-name="Cdotaccent" unicode="&#x10a;" 
d="M115 998q0 512 525 510q261 0 382 -125t134 -402l-305 -18q-11 184 -55 246q-44 63 -160 63t-166 -67t-49 -229v-470q0 -156 49 -222q50 -66 166 -66t159 60t56 241l305 -18q-12 -274 -134 -397t-383 -123q-522 0 -524 503v514zM640 1955q205 0 203 -134v-22
q0 -127 -203 -127q-91 0 -147 28t-55 99v22q0 74 55 104q56 30 147 30z" />
    <glyph glyph-name="cdotaccent" unicode="&#x10b;" 
d="M634 -19q-243 0 -371 109t-127 314v311q0 203 128 312t359 109t344 -104t135 -302l-296 -23q-7 112 -49 158q-42 45 -136 45t-137 -47t-43 -163v-285q0 -114 43 -161q42 -47 138 -47t138 36q41 36 46 129l296 -22q-11 -182 -118 -276t-350 -93zM424 1448q0 135 204 135
t202 -135v-22q0 -71 -56 -99q-58 -27 -148 -27t-146 28t-56 98v22z" />
    <glyph glyph-name="Ccaron" unicode="&#x10c;" 
d="M115 998q0 512 525 510q261 0 382 -125t134 -402l-305 -18q-11 184 -55 246q-44 63 -160 63t-166 -67t-49 -229v-470q0 -156 49 -222q50 -66 166 -66t159 60t56 241l305 -18q-12 -274 -134 -397t-383 -123q-522 0 -524 503v514zM527 1683l-317 289l99 139l333 -201
l330 201l99 -139l-313 -289h-231z" />
    <glyph glyph-name="ccaron" unicode="&#x10d;" 
d="M634 -19q-243 0 -371 109t-127 314v311q0 203 128 312t359 109t344 -104t135 -302l-296 -23q-7 112 -49 158q-42 45 -136 45t-137 -47t-43 -163v-285q0 -114 43 -161q42 -47 138 -47t138 36q41 36 46 129l296 -22q-11 -182 -118 -276t-350 -93zM514 1311l-317 288l99 140
l333 -201l330 201l99 -140l-313 -288h-231z" />
    <glyph glyph-name="Dcaron" unicode="&#x10e;" 
d="M428 236h151q127 0 180 74t53 243v376q0 173 -53 249t-180 75h-151v-1017zM121 0v1489h486q240 0 376 -147t136 -391v-420q0 -243 -137 -387t-377 -144h-484zM503 1683l-317 289l99 139l333 -201l330 201l98 -139l-312 -289h-231z" />
    <glyph glyph-name="dcaron" unicode="&#x10f;" 
d="M562 1132q127 0 229 -47v404h306v-1489h-306v186h-50q-37 -95 -114 -150t-186 -55q-151 0 -228 108t-77 272v361q0 192 113 301q114 109 313 109zM617 909q-92 0 -134 -46t-42 -144v-313q1 -92 37 -138t101 -46q109 0 212 119v512q-82 56 -174 56zM1208 1313l97 549h387
l-307 -549h-177z" />
    <glyph glyph-name="Dcroat" unicode="&#x110;" 
d="M428 236h151q127 0 180 74t53 243v376q0 173 -53 248.5t-180 75.5h-151v-333h188v-201h-188v-483zM121 0v719h-112v201h112v569h486q240 0 376 -147t136 -391v-420q0 -242 -137 -386.5t-377 -144.5h-484z" />
    <glyph glyph-name="dcroat" unicode="&#x111;" 
d="M555 1015q130 0 236 -51v175h-286v172h286v178h306v-178h171v-172h-171v-1139h-306v186h-50q-34 -89 -111 -147t-208 -58t-208.5 106.5t-77.5 273.5v244q0 192 111.5 301t307.5 109zM610 793q-87 0 -128 -44.5t-41 -145.5v-193q0 -95 36.5 -141.5t101.5 -46.5
q109 0 212 119v398q-94 54 -181 54z" />
    <glyph glyph-name="Emacron" unicode="&#x112;" 
d="M121 0v1489h998v-236h-691v-337h605v-236h-605v-444h691v-236h-998zM261 1745v234h752v-234h-752z" />
    <glyph glyph-name="emacron" unicode="&#x113;" 
d="M441 745v-78h350v65q0 112 -39 159t-136 47t-136 -44t-39 -149zM136 397v325q0 198 130 306t352 108t351 -110q128 -110 128 -315v-212h-656v-119q0 -194 185 -194q95 0 147 30t83 110l257 -69q-59 -151 -165 -213t-322 -62t-353 104q-137 106 -137 311zM248 1372v235
h752v-235h-752z" />
    <glyph glyph-name="Ebreve" unicode="&#x114;" 
d="M121 0v1489h998v-236h-691v-337h605v-236h-605v-444h691v-236h-998zM637 1663q-216 0 -329 103t-114 321h251q2 -130 46 -180q44 -51 146 -51t146 50t46 181h251q-2 -218 -114 -321t-329 -103z" />
    <glyph glyph-name="ebreve" unicode="&#x115;" 
d="M441 745v-78h350v65q0 112 -39 159t-136 47t-136 -44t-39 -149zM136 397v325q0 198 130 306t352 108t351 -110q128 -110 128 -315v-212h-656v-119q0 -194 185 -194q95 0 147 30t83 110l257 -69q-59 -151 -165 -213t-322 -62t-353 104q-137 106 -137 311zM611 1484
q102 0 146 50t45 181h252q-4 -425 -444 -425t-442 425h251q2 -131 46 -181t146 -50z" />
    <glyph glyph-name="Edotaccent" unicode="&#x116;" 
d="M121 0v1489h998v-236h-691v-337h605v-236h-605v-444h691v-236h-998zM840 1799q0 -127 -203 -127q-91 0 -147 28t-56 99v22q0 134 203 134t203 -134v-22z" />
    <glyph glyph-name="edotaccent" unicode="&#x117;" 
d="M441 745v-78h350v65q0 112 -39 159t-136 47t-136 -44t-39 -149zM136 397v325q0 198 130 306t352 108t351 -110q128 -110 128 -315v-212h-656v-119q0 -194 185 -194q95 0 147 30t83 110l257 -69q-59 -151 -165 -213t-322 -62t-353 104q-137 106 -137 311zM421 1448
q0 135 203 135q91 0 147 -30t56 -105v-22q0 -70 -57 -98t-147 -28t-146 28t-56 98v22z" />
    <glyph glyph-name="Eogonek" unicode="&#x118;" 
d="M891 -411q-122 1 -202 61t-80 166t73 184h-561v1489h998v-236h-691v-337h605v-236h-605v-444h691v-236h-253q-36 -44 -36 -110q0 -97 127 -99q35 0 160 19v-197q-104 -24 -226 -24z" />
    <glyph glyph-name="eogonek" unicode="&#x119;" 
d="M845 -411q-123 1 -203 61t-80 160t57 171q-211 3 -347 107t-136 309v325q0 198 130 306t352 108t351 -110q128 -110 128 -315v-212h-656v-119q0 -194 185 -194q95 0 147 30t83 110l257 -69q-58 -151 -164 -213q-52 -31 -131 -46q-34 -40 -34 -108q0 -97 126 -99
q33 0 161 19v-197q-103 -24 -226 -24zM441 745v-78h350v65q0 112 -39 159t-136 47t-136 -44t-39 -149z" />
    <glyph glyph-name="Ecaron" unicode="&#x11a;" 
d="M121 0v1489h998v-236h-691v-337h605v-236h-605v-444h691v-236h-998zM527 1683l-317 289l99 139l333 -201l330 201l99 -139l-313 -289h-231z" />
    <glyph glyph-name="ecaron" unicode="&#x11b;" 
d="M441 745v-78h350v65q0 112 -39 159t-136 47t-136 -44t-39 -149zM136 397v325q0 198 130 306t352 108t351 -110q128 -110 128 -315v-212h-656v-119q0 -194 185 -194q95 0 147 30t83 110l257 -69q-59 -151 -165 -213t-322 -62t-353 104q-137 106 -137 311zM510 1311
l-316 288l98 140l334 -201l329 201l99 -140l-313 -288h-231z" />
    <glyph glyph-name="Gcircumflex" unicode="&#x11c;" 
d="M622 -19q-244 0 -375 135t-132 381v490q-1 249 131 385t375 136t364 -117t134 -350l-307 -19q-11 142 -52 196t-146 54t-149 -72t-44 -236v-445q0 -161 44 -231q45 -70 159 -70t156 74t41 239h-201v236h508v-264q0 -251 -130 -387q-132 -135 -376 -135zM292 1663l-98 139
l312 289h231l317 -289l-99 -139l-333 203z" />
    <glyph glyph-name="gcircumflex" unicode="&#x11d;" 
d="M367 -86q0 -123 117 -123h285q61 1 99 23t39 90t-37 89t-95 22h-408v-101zM443 724q0 -136 146 -136t146 136v80q0 132 -146 132t-146 -132v-80zM454 430q-115 0 -115 -96t123 -98h318q172 0 274 -73t102 -226t-106 -241t-281 -87h-300q-193 0 -293 73t-100 193
q0 91 52 147t133 66v37q-61 19 -105 61q-42 43 -42 135q0 93 63 157t164 75v35q-89 26 -133 83t-44 131v21q0 138 113 216q114 78 291 78h579v-190l-278 37v-37q63 -19 105 -71q41 -53 41 -117v-24q0 -133 -113 -209t-293 -76h-155zM294 1290l-99 140l313 288h231l317 -288
l-99 -140l-333 203z" />
    <glyph glyph-name="Gbreve" unicode="&#x11e;" 
d="M622 -19q-244 0 -375 135t-132 381v490q-1 249 131 385t375 136t364 -117t134 -350l-307 -19q-11 142 -52 196t-146 54t-149 -72t-44 -236v-445q0 -161 44 -231q45 -70 159 -70t156 74t41 239h-201v236h508v-264q0 -251 -130 -387q-132 -135 -376 -135zM624 1663
q-216 0 -329 103t-114 321h251q2 -130 46 -180q44 -51 146 -51t146 50t45 181h252q-3 -218 -115 -321t-328 -103z" />
    <glyph glyph-name="gbreve" unicode="&#x11f;" 
d="M367 -86q0 -123 117 -123h285q61 1 99 23t39 90t-37 89t-95 22h-408v-101zM443 724q0 -136 146 -136t146 136v80q0 132 -146 132t-146 -132v-80zM454 430q-115 0 -115 -96t123 -98h318q172 0 274 -73t102 -226t-106 -241t-281 -87h-300q-193 0 -293 73t-100 193
q0 91 52 147t133 66v37q-61 19 -105 61q-42 43 -42 135q0 93 63 157t164 75v35q-89 26 -133 83t-44 131v21q0 138 113 216q114 78 291 78h579v-190l-278 37v-37q63 -19 105 -71q41 -53 41 -117v-24q0 -133 -113 -209t-293 -76h-155zM616 1290q-216 0 -328 104t-115 321h251
q2 -131 46 -181t146 -50t146 50t46 181h251q-3 -217 -115 -321t-328 -104z" />
    <glyph glyph-name="Gdotaccent" unicode="&#x120;" 
d="M622 -19q-244 0 -375 135t-132 381v490q-1 249 131 385t375 136t364 -117t134 -350l-307 -19q-11 142 -52 196t-146 54t-149 -72t-44 -236v-445q0 -161 44 -231q45 -70 159 -70t156 74t41 239h-201v236h508v-264q0 -251 -130 -387q-132 -135 -376 -135zM836 1799
q0 -127 -203 -127q-91 0 -147 28t-56 99v22q0 134 203 134t203 -134v-22z" />
    <glyph glyph-name="gdotaccent" unicode="&#x121;" 
d="M367 -86q0 -123 117 -123h285q61 1 99 23t39 90t-37 89t-95 22h-408v-101zM443 724q0 -136 146 -136t146 136v80q0 132 -146 132t-146 -132v-80zM454 430q-115 0 -115 -96t123 -98h318q172 0 274 -73t102 -226t-106 -241t-281 -87h-300q-193 0 -293 73t-100 193
q0 91 52 147t133 66v37q-61 19 -105 61q-42 43 -42 135q0 93 63 157t164 75v35q-89 26 -133 83t-44 131v21q0 138 113 216q114 78 291 78h579v-190l-278 37v-37q63 -19 105 -71q41 -53 41 -117v-24q0 -133 -113 -209t-293 -76h-155zM413 1448q0 135 203 135q91 0 147 -30
t56 -105v-22q0 -70 -57 -98t-147 -28t-146 28t-56 98v22z" />
    <glyph glyph-name="Gcommaaccent" unicode="&#x122;" 
d="M350 -559l125 373h391l-306 -373h-210zM622 -19q-244 0 -375 135t-132 381v490q-1 249 131 385t375 136t364 -117t134 -350l-307 -19q-11 142 -52 196t-146 54t-149 -72t-44 -236v-445q0 -161 44 -231q45 -70 159 -70t156 74t41 239h-201v236h508v-264q0 -251 -130 -387
q-132 -135 -376 -135z" />
    <glyph glyph-name="gcommaaccent" unicode="&#x123;" 
d="M367 -86q0 -123 117 -123h285q61 1 99 23t39 90t-37 89t-95 22h-408v-101zM443 724q0 -136 146 -136t146 136v80q0 132 -146 132t-146 -132v-80zM454 430q-115 0 -115 -96t123 -98h318q172 0 274 -73t102 -226t-106 -241t-281 -87h-300q-193 0 -293 73t-100 193
q0 91 52 147t133 66v37q-61 19 -105 61q-42 43 -42 135q0 93 63 157t164 75v35q-89 26 -133 83t-44 131v21q0 138 113 216q114 78 291 78h579v-190l-278 37v-37q63 -19 105 -71q41 -53 41 -117v-24q0 -133 -113 -209t-293 -76h-155zM402 1303l305 373h209l-123 -373h-391z
" />
    <glyph glyph-name="Hcircumflex" unicode="&#x124;" 
d="M121 0v1489h307v-549h376v549h308v-1489h-308v704h-376v-704h-307zM285 1663l-99 139l313 289h231l316 -289l-98 -139l-334 203z" />
    <glyph glyph-name="hcircumflex" unicode="&#x125;" 
d="M665 896q-118 0 -224 -155v-741h-305v1489h305v-558h52q37 95 119 150t203 55q122 0 202 -92t80 -249v-795h-306v722q0 174 -126 174zM-48 1663l-99 139l313 289h231l316 -289l-99 -139l-333 203z" />
    <glyph glyph-name="Hbar" unicode="&#x126;" 
d="M438 553v-553h-308v1031h-136v202h136v256h308v-256h359v256h305v-256h136v-202h-136v-1031h-305v553h-359zM438 789h359v242h-359v-242z" />
    <glyph glyph-name="hbar" unicode="&#x127;" 
d="M668 780q-118 0 -227 -164v-616h-305v1139h-171v172h171v178h305v-178h287v-172h-287v-325h52q37 97 119 151.5t202 54.5t201.5 -89t81.5 -238v-693h-306v613q0 167 -123 167z" />
    <glyph glyph-name="Itilde" unicode="&#x128;" 
d="M121 0v236h343v1017h-343v236h991v-236h-343v-1017h343v-236h-991zM473 1884q-75 0 -73 -145v-26h-199v28q0 151 70 249t193 99q74 0 118 -28t74 -65t53 -67q22 -30 52 -30t53 30q22 30 20 115v26h199v-28q-1 -152 -69 -250t-190 -98t-193 95q-30 35 -53 65t-55 30z" />
    <glyph glyph-name="itilde.salt_serifs" unicode="&#xe029;" 
d="M769 225h322v-225h-627v892h-323v225h628v-892zM825 1698h199v-28q0 -152 -69 -250t-191 -98t-192 95q-30 35 -53 65t-54 30t-53 -30t-21 -115v-26h-199v27q0 151 70 250t190 99t196 -95q30 -36 52 -66t52 -29q75 0 73 145v26z" />
    <glyph glyph-name="itilde.salt_serifs" unicode="&#x129;" 
d="M769 225h322v-225h-627v892h-323v225h628v-892zM825 1698h199v-28q0 -152 -69 -250t-191 -98t-192 95q-30 35 -53 65t-54 30t-53 -30t-21 -115v-26h-199v27q0 151 70 250t190 99t196 -95q30 -36 52 -66t52 -29q75 0 73 145v26z" />
    <glyph glyph-name="Imacron" unicode="&#x12a;" 
d="M121 0v236h343v1017h-343v236h991v-236h-343v-1017h343v-236h-991zM240 1745v234h752v-234h-752z" />
    <glyph glyph-name="imacron.salt_serifs" unicode="&#xe02a;" 
d="M769 225h322v-225h-627v892h-323v225h628v-892zM231 1372v235h752v-235h-752z" />
    <glyph glyph-name="imacron.salt_serifs" unicode="&#x12b;" 
d="M769 225h322v-225h-627v892h-323v225h628v-892zM231 1372v235h752v-235h-752z" />
    <glyph glyph-name="Ibreve" unicode="&#x12c;" 
d="M121 0v236h343v1017h-343v236h991v-236h-343v-1017h343v-236h-991zM616 1663q-216 0 -328 103t-115 321h251q2 -130 46 -180q44 -51 146 -51t146 50t46 181h251q-3 -218 -115 -321t-328 -103z" />
    <glyph glyph-name="ibreve.salt_serifs" unicode="&#xe02b;" 
d="M769 225h322v-225h-627v892h-323v225h628v-892zM607 1290q-441 0 -443 425h251q2 -131 46 -181t146 -50t146 50t46 181h251q-2 -217 -114 -321t-329 -104z" />
    <glyph glyph-name="ibreve.salt_serifs" unicode="&#x12d;" 
d="M769 225h322v-225h-627v892h-323v225h628v-892zM607 1290q-441 0 -443 425h251q2 -131 46 -181t146 -50t146 50t46 181h251q-2 -217 -114 -321t-329 -104z" />
    <glyph glyph-name="Iogonek" unicode="&#x12e;" 
d="M471 -184q0 106 73 184h-423v236h343v1017h-343v236h991v-236h-343v-1017h343v-236h-384q-37 -45 -36 -103q2 -57 32 -81t80 -24t175 18v-197q-113 -26 -210 -24q-138 1 -218 61t-80 166z" />
    <glyph glyph-name="iogonek.salt_serifs" unicode="&#xe02c;" 
d="M372 -174q0 116 92 192v874h-323v225h628v-892h322v-225h-461q-36 -44 -36 -110q0 -97 127 -99q32 0 160 19v-197q-103 -24 -226 -24q-123 1 -203 61t-80 176zM413 1448q0 135 203 135q91 0 147 -30t56 -105v-22q0 -70 -57 -98t-147 -28t-146 28t-56 98v22z" />
    <glyph glyph-name="iogonek.salt_serifs" unicode="&#x12f;" 
d="M372 -174q0 116 92 192v874h-323v225h628v-892h322v-225h-461q-36 -44 -36 -110q0 -97 127 -99q32 0 160 19v-197q-103 -24 -226 -24q-123 1 -203 61t-80 176zM413 1448q0 135 203 135q91 0 147 -30t56 -105v-22q0 -70 -57 -98t-147 -28t-146 28t-56 98v22z" />
    <glyph glyph-name="Idotaccent" unicode="&#x130;" 
d="M121 0v236h343v1017h-343v236h991v-236h-343v-1017h343v-236h-991zM819 1799q0 -127 -203 -127q-91 0 -147 28t-56 99v22q0 134 203 134t203 -134v-22z" />
    <glyph glyph-name="dotlessi.salt_serifs" unicode="&#xe024;" 
d="M769 225h322v-225h-627v892h-323v225h628v-892z" />
    <glyph glyph-name="dotlessi.salt_serifs" unicode="&#x131;" 
d="M769 225h322v-225h-627v892h-323v225h628v-892z" />
    <glyph glyph-name="IJ" unicode="&#x132;" 
d="M806 -19q-172 0 -260 115.5t-90 393.5l238 20q2 -192 21.5 -253.5t80.5 -61.5t83 55t22 171v856h-244v212h482v-1076q0 -201 -80.5 -316.5t-252.5 -115.5zM333 0h-240v1489h240v-1489z" />
    <glyph glyph-name="ij.salt_serifs" unicode="&#xe02d;" 
d="M644 -171q179 0 177 193v870h-220v225h499v-1124q0 -188 -118 -285t-284 -97q-165 0 -277 41l33 214q105 -37 190 -37zM426 0h-279v1117h279v-1117zM758 1448q0 135 188 135q86 0 139 -30t53 -105v-22q0 -70 -54 -98t-138 -28t-136 28t-52 98v22zM84 1448q0 135 192 135
q86 0 136 -30t52 -105v-22q0 -70 -53 -98t-137 -28t-137 28t-53 98v22z" />
    <glyph glyph-name="ij.salt_serifs" unicode="&#x133;" 
d="M644 -171q179 0 177 193v870h-220v225h499v-1124q0 -188 -118 -285t-284 -97q-165 0 -277 41l33 214q105 -37 190 -37zM426 0h-279v1117h279v-1117zM758 1448q0 135 188 135q86 0 139 -30t53 -105v-22q0 -70 -54 -98t-138 -28t-136 28t-52 98v22zM84 1448q0 135 192 135
q86 0 136 -30t52 -105v-22q0 -70 -53 -98t-137 -28t-137 28t-53 98v22z" />
    <glyph glyph-name="Jcircumflex" unicode="&#x134;" 
d="M1084 477q0 -235 -120 -365t-377 -131q-256 0 -375 125t-132 406l307 20q13 -190 54 -252t143 -62t148 60q47 60 46 202v773h-383v236h689v-1012zM398 1663l-98 139l313 289h230l317 -289l-99 -139l-333 203z" />
    <glyph glyph-name="jcircumflex" unicode="&#x135;" 
d="M620 22v870h-436v225h743v-1124q0 -181 -136 -281t-341 -101q-205 0 -327 41l35 214q110 -39 227 -38q115 2 175 46t60 148zM382 1290l-99 140l313 288h231l316 -288l-99 -140l-333 203z" />
    <glyph glyph-name="Kcommaaccent" unicode="&#x136;" 
d="M428 655v-655h-307v1489h307v-597h65l367 597h320l-458 -687l453 -802h-317l-359 655h-71zM378 -559l125 373h391l-306 -373h-210z" />
    <glyph glyph-name="kcommaaccent" unicode="&#x137;" 
d="M473 477v-477h-307v1489h307v-804h67l275 432h323l-345 -508l339 -609h-328l-264 477h-67zM374 -559l125 373h391l-305 -373h-211z" />
    <glyph glyph-name="kgreenlandic" unicode="&#x138;" 
d="M473 477v-477h-307v1117h307v-432h67l275 432h323l-345 -508l339 -609h-328l-264 477h-67z" />
    <glyph glyph-name="Lacute" unicode="&#x139;" 
d="M207 0v1489h307v-1253h598v-236h-905zM222 1676l191 372h391l-374 -372h-208z" />
    <glyph glyph-name="lacute.salt_serifs_round" unicode="&#xe057;" 
d="M743 408q0 -188 163 -186q79 0 163 37l48 -218q-133 -54 -266 -54q-190 0 -303 104t-112 272v901h-295v225h602v-1081zM231 1676l192 372h391l-375 -372h-208z" />
    <glyph glyph-name="lacute.salt_serifs_round" unicode="&#x13a;" 
d="M743 408q0 -188 163 -186q79 0 163 37l48 -218q-133 -54 -266 -54q-190 0 -303 104t-112 272v901h-295v225h602v-1081zM231 1676l192 372h391l-375 -372h-208z" />
    <glyph glyph-name="Lcommaaccent" unicode="&#x13b;" 
d="M207 0v1489h307v-1253h598v-236h-905zM411 -559l125 373h391l-305 -373h-211z" />
    <glyph glyph-name="lcommaaccent.salt_serifs_round" unicode="&#xe058;" 
d="M743 408q0 -188 163 -186q79 0 163 37l48 -218q-133 -54 -266 -54q-190 0 -303 104t-112 272v901h-295v225h602v-1081zM408 -559l124 373h391l-305 -373h-210z" />
    <glyph glyph-name="lcommaaccent.salt_serifs_round" unicode="&#x13c;" 
d="M743 408q0 -188 163 -186q79 0 163 37l48 -218q-133 -54 -266 -54q-190 0 -303 104t-112 272v901h-295v225h602v-1081zM408 -559l124 373h391l-305 -373h-210z" />
    <glyph glyph-name="Lcaron" unicode="&#x13d;" 
d="M207 0v1489h307v-1253h598v-236h-905zM693 940l96 549h388l-308 -549h-176z" />
    <glyph glyph-name="lcaron.salt_serifs_round" unicode="&#xe059;" 
d="M743 408q0 -188 163 -186q79 0 163 37l48 -218q-133 -54 -266 -54q-190 0 -303 104t-112 272v901h-295v225h602v-1081zM942 1313l97 549h387l-307 -549h-177z" />
    <glyph glyph-name="lcaron.salt_serifs_round" unicode="&#x13e;" 
d="M743 408q0 -188 163 -186q79 0 163 37l48 -218q-133 -54 -266 -54q-190 0 -303 104t-112 272v901h-295v225h602v-1081zM942 1313l97 549h387l-307 -549h-177z" />
    <glyph glyph-name="Ldot" unicode="&#x13f;" 
d="M207 0v1489h307v-1253h598v-236h-905zM1026 1013q203 0 203 -134v-23q0 -70 -57 -98t-146 -28q-203 0 -203 126v23q0 134 203 134z" />
    <glyph glyph-name="ldot.salt_serifs_round" unicode="&#xe05a;" 
d="M743 408q0 -188 163 -186q79 0 163 37l48 -218q-133 -54 -266 -54q-190 0 -303 104t-112 272v901h-295v225h602v-1081zM1404 728q0 -127 -203 -127q-91 0 -147 28t-56 99v22q0 136 203 134q91 0 147 -30t56 -104v-22z" />
    <glyph glyph-name="ldot.salt_serifs_round" unicode="&#x140;" 
d="M743 408q0 -188 163 -186q79 0 163 37l48 -218q-133 -54 -266 -54q-190 0 -303 104t-112 272v901h-295v225h602v-1081zM1404 728q0 -127 -203 -127q-91 0 -147 28t-56 99v22q0 136 203 134q91 0 147 -30t56 -104v-22z" />
    <glyph glyph-name="Lslash" unicode="&#x141;" 
d="M207 0v624l-131 -43v194l131 42v672h307v-567l400 136v-194l-400 -136v-492h598v-236h-905z" />
    <glyph glyph-name="lslash.salt_serifs_round" unicode="&#xe05b;" 
d="M743 408q0 -186 163 -186q79 0 163 37l48 -218q-133 -54 -266 -54q-190 0 -302.5 104t-112.5 272v242l-214 -61v193l214 62v465h-295v225h602v-603l229 67v-193l-229 -67v-285z" />
    <glyph glyph-name="lslash.salt_serifs_round" unicode="&#x142;" 
d="M743 408q0 -186 163 -186q79 0 163 37l48 -218q-133 -54 -266 -54q-190 0 -302.5 104t-112.5 272v242l-214 -61v193l214 62v465h-295v225h602v-603l229 67v-193l-229 -67v-285z" />
    <glyph glyph-name="Nacute" unicode="&#x143;" 
d="M384 0h-263v1489h343l385 -1128v1128h263v-1489h-367l-361 1078v-1078zM443 1676l192 372h391l-374 -372h-209z" />
    <glyph glyph-name="nacute" unicode="&#x144;" 
d="M791 739q0 157 -126 157q-58 0 -118 -34t-106 -104v-758h-305v1117h305v-186h52q39 95 123 150t206 55t198 -90t77 -253v-793h-306v739zM430 1303l192 373h391l-374 -373h-209z" />
    <glyph glyph-name="Ncommaaccent" unicode="&#x145;" 
d="M339 -559l125 373h391l-306 -373h-210zM384 0h-263v1489h343l385 -1128v1128h263v-1489h-367l-361 1078v-1078z" />
    <glyph glyph-name="ncommaaccent" unicode="&#x146;" 
d="M346 -559l125 373h391l-305 -373h-211zM791 739q0 157 -126 157q-58 0 -118 -34t-106 -104v-758h-305v1117h305v-186h52q39 95 123 150t206 55t198 -90t77 -253v-793h-306v739z" />
    <glyph glyph-name="Ncaron" unicode="&#x147;" 
d="M384 0h-263v1489h343l385 -1128v1128h263v-1489h-367l-361 1078v-1078zM510 1683l-316 289l98 139l334 -201l329 201l99 -139l-313 -289h-231z" />
    <glyph glyph-name="ncaron" unicode="&#x148;" 
d="M791 739q0 157 -126 157q-58 0 -118 -34t-106 -104v-758h-305v1117h305v-186h52q39 95 123 150t206 55t198 -90t77 -253v-793h-306v739zM538 1311l-316 288l98 140l333 -201l330 201l99 -140l-313 -288h-231z" />
    <glyph glyph-name="napostrophe" unicode="&#x149;" 
d="M791 739q0 157 -126 157q-58 0 -118 -34t-106 -104v-758h-305v1117h305v-186h52q39 95 123 150t206 55t198 -90t77 -253v-793h-306v739zM-32 1303l192 373h391l-374 -373h-209z" />
    <glyph glyph-name="Eng" unicode="&#x14a;" 
d="M478 1268q96 240 337 240q119 0 208 -95t89 -274v-1124q0 -205 -123 -304.5t-302 -99.5q-111 0 -240 48l33 214q110 -44 172 -44q152 0 152 216v1014q0 106 -36 157.5t-98 51.5t-118.5 -50.5t-123.5 -145.5v-1072h-307v1489h307v-221h50z" />
    <glyph glyph-name="eng" unicode="&#x14b;" 
d="M791 747q0 149 -126 149q-58 0 -117.5 -34.5t-106.5 -103.5v-758h-305v1117h305v-186h52q41 102 129.5 153.5t185.5 51.5q134 0 211.5 -86.5t77.5 -247.5l1 -813q0 -197 -121 -287.5t-279 -90.5q-106 0 -231 41l36 214q98 -37 160 -37q128 0 128 190v728z" />
    <glyph glyph-name="Omacron" unicode="&#x14c;" 
d="M616 218q106 0 151 62t45 221v480q0 160 -45 225q-45 66 -151 66t-151 -66t-44 -225v-480q0 -158 44 -221q45 -62 151 -62zM616 -19q-244 1 -372 131t-129 366v526q-1 238 129 371t374 133t372 -133t129 -371v-526q1 -236 -129 -366t-374 -131zM240 1745v234h752v-234
h-752z" />
    <glyph glyph-name="omacron" unicode="&#x14d;" 
d="M616 207q91 1 133 47t42 150v303q0 107 -42 155t-133 48t-133 -47t-42 -154v-299q0 -106 42 -154t133 -49zM616 -19q-228 0 -354 108t-126 302v328q0 195 127 306q128 111 355 111t354 -112t126 -311v-328q0 -190 -128 -297t-354 -107zM240 1372v235h752v-235h-752z" />
    <glyph glyph-name="Obreve" unicode="&#x14e;" 
d="M616 218q106 0 151 62t45 221v480q0 160 -45 225q-45 66 -151 66t-151 -66t-44 -225v-480q0 -158 44 -221q45 -62 151 -62zM616 -19q-244 1 -372 131t-129 366v526q-1 238 129 371t374 133t372 -133t129 -371v-526q1 -236 -129 -366t-374 -131zM616 1663q-216 0 -328 103
t-115 321h251q2 -130 46 -180q44 -51 146 -51t146 50t46 181h251q-3 -218 -115 -321t-328 -103z" />
    <glyph glyph-name="obreve" unicode="&#x14f;" 
d="M616 207q91 1 133 47t42 150v303q0 107 -42 155t-133 48t-133 -47t-42 -154v-299q0 -106 42 -154t133 -49zM616 -19q-228 0 -354 108t-126 302v328q0 195 127 306q128 111 355 111t354 -112t126 -311v-328q0 -190 -128 -297t-354 -107zM629 1290q-217 0 -329 104
t-114 321h252q2 -130 45 -181q44 -50 146 -50t146 50t46 181h251q-2 -217 -114 -321t-329 -104z" />
    <glyph glyph-name="Ohungarumlaut" unicode="&#x150;" 
d="M616 218q106 0 151 62t45 221v480q0 160 -45 225q-45 66 -151 66t-151 -66t-44 -225v-480q0 -158 44 -221q45 -62 151 -62zM616 -19q-244 1 -372 131t-129 366v526q-1 238 129 371t374 133t372 -133t129 -371v-526q1 -236 -129 -366t-374 -131zM320 1676l82 372h307
l-227 -372h-162zM713 1676l82 372h307l-227 -372h-162z" />
    <glyph glyph-name="ohungarumlaut" unicode="&#x151;" 
d="M616 207q91 1 133 47t42 150v303q0 107 -42 155t-133 48t-133 -47t-42 -154v-299q0 -106 42 -154t133 -49zM616 -19q-228 0 -354 108t-126 302v328q0 195 127 306q128 111 355 111t354 -112t126 -311v-328q0 -190 -128 -297t-354 -107zM305 1303l82 373h307l-227 -373
h-162zM698 1303l82 373h307l-227 -373h-162z" />
    <glyph glyph-name="OE" unicode="&#x152;" 
d="M516 229h76v1031h-76q-106 0 -149 -76t-43 -233v-409q0 -156 43 -234.5t149 -78.5zM492 0q-201 0 -315 143.5t-114 381.5v441q0 238 113.5 380.5t316.5 142.5h695v-217h-333v-356h264v-218h-264v-480h333v-218h-696z" />
    <glyph glyph-name="oe" unicode="&#x153;" 
d="M413.5 199q46.5 0 66 38.5t19.5 125.5v397q0 80 -19.5 119t-66 39t-66 -41t-19.5 -121v-393q0 -88 19.5 -126t66 -38zM734 808v-149h171v136q0 78 -18.5 111.5t-66.5 33.5t-67 -31.5t-19 -100.5zM734 309q0 -130 75 -130t108 23t42 103l206 -35q-26 -160 -102 -224.5
t-208 -64.5q-169 0 -252 131q-68 -131 -210 -131q-141 0 -227 91.5t-86 281.5v402q0 194 86.5 287t227.5 93t209 -131q76 131 244 131q134 0 219.5 -89.5t85.5 -273.5v-274h-418v-190z" />
    <glyph glyph-name="Racute" unicode="&#x154;" 
d="M1115 959q0 -321 -259 -391l302 -568h-324l-285 544h-121v-544h-307v1489h555q439 0 439 -404v-126zM428 778h205q102 0 146 40t44 146v108q0 101 -44 141t-146 40h-205v-475zM454 1676l192 372h391l-374 -372h-209z" />
    <glyph glyph-name="racute" unicode="&#x155;" 
d="M704 896q-140 0 -218 -146v-750h-305v1117h305v-195h52q67 214 307 214q129 0 199 -82t69 -233v-194h-277v103q0 84 -30 125t-102 41zM443 1303l192 373h391l-374 -373h-209z" />
    <glyph glyph-name="Rcommaaccent" unicode="&#x156;" 
d="M1115 959q0 -321 -259 -391l302 -568h-324l-285 544h-121v-544h-307v1489h555q439 0 439 -404v-126zM428 778h205q102 0 146 40t44 146v108q0 101 -44 141t-146 40h-205v-475zM307 -559l125 373h391l-305 -373h-211z" />
    <glyph glyph-name="rcommaaccent" unicode="&#x157;" 
d="M704 896q-140 0 -218 -146v-750h-305v1117h305v-195h52q67 214 307 214q129 0 199 -82t69 -233v-194h-277v103q0 84 -30 125t-102 41zM82 -559l125 373h391l-306 -373h-210z" />
    <glyph glyph-name="Rcaron" unicode="&#x158;" 
d="M1115 959q0 -321 -259 -391l302 -568h-324l-285 544h-121v-544h-307v1489h555q439 0 439 -404v-126zM428 778h205q102 0 146 40t44 146v108q0 101 -44 141t-146 40h-205v-475zM484 1683l-316 289l98 139l334 -201l329 201l99 -139l-313 -289h-231z" />
    <glyph glyph-name="rcaron" unicode="&#x159;" 
d="M704 896q-140 0 -218 -146v-750h-305v1117h305v-195h52q67 214 307 214q129 0 199 -82t69 -233v-194h-277v103q0 84 -30 125t-102 41zM551 1311l-316 288l98 140l334 -201l329 201l99 -140l-313 -288h-231z" />
    <glyph glyph-name="Sacute" unicode="&#x15a;" 
d="M619 1266q-185 0 -185 -166q0 -80 57 -124t257 -106t292 -162t92 -294t-144 -313q-145 -118 -385 -118q-298 0 -510 166l82 229q206 -158 436 -158q108 0 161 49t53 137t-60 129q-60 42 -216 91q-233 70 -327 168t-94 282t125 306t358 122q128 0 252 -46t208 -114
l-69 -218q-198 140 -383 140zM393 1676l192 372h391l-375 -372h-208z" />
    <glyph glyph-name="sacute" unicode="&#x15b;" 
d="M462 819q0 -63 55 -90t200 -57q199 -34 290 -112t91 -232t-130 -248q-130 -95 -355 -95q-133 0 -263 38t-225 104l76 193q95 -62 208 -96t203 -34t136 27t46 91t-46 92t-169 52q-212 37 -316 109q-105 71 -105 229t122 252t338 94t419 -129l-63 -186q-196 112 -354 112
t-158 -114zM406 1303l192 373h391l-375 -373h-208z" />
    <glyph glyph-name="Scircumflex" unicode="&#x15c;" 
d="M619 1266q-185 0 -185 -166q0 -80 57 -124t257 -106t292 -162t92 -294t-144 -313q-145 -118 -385 -118q-298 0 -510 166l82 229q206 -158 436 -158q108 0 161 49t53 137t-60 129q-60 42 -216 91q-233 70 -327 168t-94 282t125 306t358 122q128 0 252 -46t208 -114
l-69 -218q-198 140 -383 140zM283 1663l-99 139l313 289h231l316 -289l-98 -139l-333 203z" />
    <glyph glyph-name="scircumflex" unicode="&#x15d;" 
d="M462 819q0 -63 55 -90t200 -57q199 -34 290 -112t91 -232t-130 -248q-130 -95 -355 -95q-133 0 -263 38t-225 104l76 193q95 -62 208 -96t203 -34t136 27t46 91t-46 92t-169 52q-212 37 -316 109q-105 71 -105 229t122 252t338 94t419 -129l-63 -186q-196 112 -354 112
t-158 -114zM281 1290l-99 140l313 288h231l317 -288l-99 -140l-333 203z" />
    <glyph glyph-name="Scedilla" unicode="&#x15e;" 
d="M825 406q0 88 -60 129q-60 42 -216 91q-233 70 -327 168t-94 282t125 306t358 122q128 0 252 -46t208 -114l-69 -218q-199 140 -383 140q-185 0 -185 -166q0 -80 57 -124t257 -106t292 -162t92 -294t-144 -313q-74 -61 -175 -90q4 -2 7 -4q85 -55 85 -178
q-1 -123 -103 -183t-250 -60t-245 56q-97 55 -104 176l259 18q4 -35 24 -49t64 -14t68 21q24 20 24 92t-40 97q-297 0 -509 166l82 229q206 -158 436 -158q108 0 161 49t53 137z" />
    <glyph glyph-name="scedilla" unicode="&#x15f;" 
d="M462 819q0 -63 55 -90t200 -57q199 -34 290 -112t91 -232t-130 -248q-68 -50 -163 -73q85 -55 85 -178t-102 -183t-250 -60t-246 56q-97 55 -104 176l259 18q3 -35 23 -49t64 -14t69 21q24 21 24 80t-13 80t-31 32q-119 4 -241 40t-217 101l76 193q95 -62 208 -96
t203 -34t136 27t46 91t-46 92t-169 52q-212 37 -316 109q-105 71 -105 229t122 252t338 94t419 -129l-63 -186q-196 112 -354 112t-158 -114z" />
    <glyph glyph-name="Scaron" unicode="&#x160;" 
d="M619 1266q-185 0 -185 -166q0 -80 57 -124t257 -106t292 -162t92 -294t-144 -313q-145 -118 -385 -118q-298 0 -510 166l82 229q206 -158 436 -158q108 0 161 49t53 137t-60 129q-60 42 -216 91q-233 70 -327 168t-94 282t125 306t358 122q128 0 252 -46t208 -114
l-69 -218q-198 140 -383 140zM501 1683l-317 289l99 139l333 -201l330 201l98 -139l-312 -289h-231z" />
    <glyph glyph-name="scaron" unicode="&#x161;" 
d="M462 819q0 -63 55 -90t200 -57q199 -34 290 -112t91 -232t-130 -248q-130 -95 -355 -95q-133 0 -263 38t-225 104l76 193q95 -62 208 -96t203 -34t136 27t46 91t-46 92t-169 52q-212 37 -316 109q-105 71 -105 229t122 252t338 94t419 -129l-63 -186q-196 112 -354 112
t-158 -114zM499 1311l-317 288l99 140l333 -201l330 201l99 -140l-313 -288h-231z" />
    <glyph glyph-name="Tcedilla" unicode="&#x162;" 
d="M464 0v1253h-390v236h1086v-236h-391v-1227q18 -9 34 -19q85 -55 85 -178t-102 -183t-250 -60t-246 56q-97 55 -104 176l259 18q3 -35 23 -49t65 -14t69 21t24 80t-17 86t-63 40h-82z" />
    <glyph glyph-name="tcedilla" unicode="&#x163;" 
d="M847 210q107 0 205 38l33 -222q-49 -23 -157 -38q61 -55 61 -154q-1 -128 -103 -188t-250 -60t-245 56q-97 55 -104 176l259 18q4 -35 24 -49t64 -14t68 21t24 80q0 58 -16 84t-53 39q-103 24 -171 85q-112 101 -112 287v523h-249v225h249v372h306v-372h391v-225h-391
v-490q0 -192 167 -192z" />
    <glyph glyph-name="Tcaron" unicode="&#x164;" 
d="M464 0v1253h-390v236h1086v-236h-391v-1253h-305zM503 1683l-317 289l99 139l333 -201l330 201l98 -139l-312 -289h-231z" />
    <glyph glyph-name="tcaron" unicode="&#x165;" 
d="M374 369v523h-249v225h249v372h306v-372h391v-225h-391v-490q0 -192 167 -192q107 0 205 38l33 -222q-97 -45 -293 -45q-194 0 -306 101t-112 287zM845 1313l97 549h387l-307 -549h-177z" />
    <glyph glyph-name="Tbar" unicode="&#x166;" 
d="M464 0v555h-289v201h289v497h-390v236h1086v-236h-391v-497h289v-201h-289v-555h-305z" />
    <glyph glyph-name="tbar" unicode="&#x167;" 
d="M374 369v119h-208v201h208v203h-249v225h249v372h306v-372h391v-225h-391v-203h353v-201h-353v-86q0 -192 167 -192q109 0 205 38l33 -222q-97 -45 -293 -45q-195 0 -306.5 100.5t-111.5 287.5z" />
    <glyph glyph-name="Utilde" unicode="&#x168;" 
d="M616 -19q-253 -1 -374 129t-121 402v977h307v-970q0 -166 43 -228t145 -62t145 62t43 228v970h308v-977q0 -272 -122 -402t-374 -129zM473 1884q-75 0 -73 -145v-26h-199v28q0 151 70 249t193 99q74 0 118 -28t74 -65t53 -67q22 -30 52 -30t53 30q22 30 20 115v26h199
v-28q-1 -152 -69 -250t-190 -98t-193 95q-30 35 -53 65t-55 30z" />
    <glyph glyph-name="utilde" unicode="&#x169;" 
d="M791 1117h306v-1117h-306v186h-50q-41 -102 -129 -154t-182 -51q-128 1 -211 91t-83 252v793h305v-717q0 -180 125 -178q117 0 225 160v735zM834 1698h199v-28q-1 -152 -69 -250t-190 -98t-193 95q-30 35 -53 65t-55 30q-75 0 -73 -145v-26h-199v27q0 151 70 250t193 99
q74 0 126 -33t119 -128q22 -30 52 -29q76 0 73 145v26z" />
    <glyph glyph-name="Umacron" unicode="&#x16a;" 
d="M616 -19q-253 -1 -374 129t-121 402v977h307v-970q0 -166 43 -228t145 -62t145 62t43 228v970h308v-977q0 -272 -122 -402t-374 -129zM240 1745v234h752v-234h-752z" />
    <glyph glyph-name="umacron" unicode="&#x16b;" 
d="M791 1117h306v-1117h-306v186h-50q-41 -102 -129 -154t-182 -51q-128 1 -211 91t-83 252v793h305v-717q0 -180 125 -178q117 0 225 160v735zM240 1372v235h752v-235h-752z" />
    <glyph glyph-name="Ubreve" unicode="&#x16c;" 
d="M616 -19q-253 -1 -374 129t-121 402v977h307v-970q0 -166 43 -228t145 -62t145 62t43 228v970h308v-977q0 -272 -122 -402t-374 -129zM616 1663q-216 0 -328 103t-115 321h251q2 -130 46 -180q44 -51 146 -51t146 50t46 181h251q-3 -218 -115 -321t-328 -103z" />
    <glyph glyph-name="ubreve" unicode="&#x16d;" 
d="M791 1117h306v-1117h-306v186h-50q-41 -102 -129 -154t-182 -51q-128 1 -211 91t-83 252v793h305v-717q0 -180 125 -178q117 0 225 160v735zM629 1290q-217 0 -329 104t-114 321h252q2 -130 45 -181q44 -50 146 -50t146 50t46 181h251q-2 -217 -114 -321t-329 -104z" />
    <glyph glyph-name="Uring" unicode="&#x16e;" 
d="M616 -19q-253 -1 -374 129t-121 402v977h307v-970q0 -166 43 -228t145 -62t145 62t43 228v970h308v-977q0 -272 -122 -402t-374 -129zM490 1918q0 -69 32 -98t94 -29q127 0 127 127v59q0 134 -127 132q-128 0 -126 -132v-59zM616 1637q-152 1 -246 69t-94 212v59
q0 145 94 216t248 71t246 -71q93 -71 93 -216v-59q0 -143 -94 -212t-247 -69z" />
    <glyph glyph-name="uring" unicode="&#x16f;" 
d="M791 1117h306v-1117h-306v186h-50q-41 -102 -129 -154t-182 -51q-128 1 -211 91t-83 252v793h305v-717q0 -180 125 -178q117 0 225 160v735zM756 1605q0 132 -127 132t-126 -132v-60q-1 -69 31 -97t94 -29q62 0 95 29t33 97v60zM629 1264q-153 0 -247 69t-93 212v60
q0 145 94 216q93 71 247 71t247 -71t93 -216v-60q0 -143 -94 -212t-247 -69z" />
    <glyph glyph-name="Uhungarumlaut" unicode="&#x170;" 
d="M616 -19q-253 -1 -374 129t-121 402v977h307v-970q0 -166 43 -228t145 -62t145 62t43 228v970h308v-977q0 -272 -122 -402t-374 -129zM337 1676l82 372h307l-227 -372h-162zM730 1676l82 372h307l-227 -372h-162z" />
    <glyph glyph-name="uhungarumlaut" unicode="&#x171;" 
d="M791 1117h306v-1117h-306v186h-50q-41 -102 -129 -154t-182 -51q-128 1 -211 91t-83 252v793h305v-717q0 -180 125 -178q117 0 225 160v735zM313 1303l82 373h307l-227 -373h-162zM706 1303l82 373h307l-227 -373h-162z" />
    <glyph glyph-name="Uogonek" unicode="&#x172;" 
d="M436 -188q0 102 63 177q-166 24 -257 122q-121 129 -121 401v977h307v-970q0 -166 43 -228t145 -62t145 62t43 228v970h308v-977q0 -272 -122 -401q-105 -112 -309 -127q-24 -38 -24 -94q0 -97 127 -99q35 0 160 19v-197q-103 -24 -226 -24q-122 1 -202 61t-80 162z" />
    <glyph glyph-name="uogonek" unicode="&#x173;" 
d="M693 -182q0 108 81 190l17 17v161h-50q-41 -102 -129 -153t-198 -51q-112 0 -195 90t-83 252v793h305v-717q0 -180 125 -178q117 0 225 160v735h306v-1117h-147q-36 -44 -36 -110q0 -97 127 -99q32 0 160 19v-197q-103 -24 -226 -24q-123 1 -203 61t-79 168z" />
    <glyph glyph-name="Wcircumflex" unicode="&#x174;" 
d="M750 0l-132 724l-130 -724h-272l-177 1489h264l77 -1120l126 748h218l132 -732l75 1104h262l-176 -1489h-267zM285 1663l-99 139l313 289h231l316 -289l-98 -139l-334 203z" />
    <glyph glyph-name="wcircumflex" unicode="&#x175;" 
d="M754 0l-138 590l-130 -590h-276l-165 1117h262l91 -784l118 587h195l129 -570l85 767h263l-166 -1117h-268zM298 1290l-99 140l313 288h231l316 -288l-98 -140l-334 203z" />
    <glyph glyph-name="Ycircumflex" unicode="&#x176;" 
d="M769 0h-305v559l-421 930h309l266 -659l263 659h307l-419 -930v-559zM285 1663l-99 139l313 289h231l316 -289l-98 -139l-334 203z" />
    <glyph glyph-name="ycircumflex" unicode="&#x177;" 
d="M344 -391q-95 0 -247 22l18 224q139 -28 223 -27q85 2 137 46t82 156l5 17h-188l-298 1070h315l225 -869l237 869h301l-327 -1115q-63 -212 -176 -302t-307 -91zM285 1290l-99 140l313 288h231l316 -288l-98 -140l-334 203z" />
    <glyph glyph-name="Ydieresis" unicode="&#x178;" 
d="M769 0h-305v559l-421 930h309l266 -659l263 659h307l-419 -930v-559zM989 1799q1 -127 -155 -127t-156 127v22q0 134 156 134t155 -134v-22zM555 1799q1 -127 -155 -127t-156 127v22q0 134 156 134t155 -134v-22z" />
    <glyph glyph-name="Zacute" unicode="&#x179;" 
d="M1119 0h-1004v236l687 1017h-687v236h1004v-236l-680 -1017h680v-236zM447 1676l192 372h391l-375 -372h-208z" />
    <glyph glyph-name="zacute" unicode="&#x17a;" 
d="M1078 0h-922v225l594 667h-594v225h922v-225l-585 -667h585v-225zM454 1303l192 373h391l-374 -373h-209z" />
    <glyph glyph-name="Zdotaccent" unicode="&#x17b;" 
d="M1119 0h-1004v236l687 1017h-687v236h1004v-236l-680 -1017h680v-236zM819 1799q0 -127 -203 -127q-91 0 -147 28t-56 99v22q0 134 203 134t203 -134v-22z" />
    <glyph glyph-name="zdotaccent" unicode="&#x17c;" 
d="M1078 0h-922v225l594 667h-594v225h922v-225l-585 -667h585v-225zM408 1448q0 135 203 135q91 0 147 -30t56 -105v-22q0 -70 -57 -98t-147 -28t-146 28t-56 98v22z" />
    <glyph glyph-name="Zcaron" unicode="&#x17d;" 
d="M1119 0h-1004v236l687 1017h-687v236h1004v-236l-680 -1017h680v-236zM503 1683l-317 289l99 139l333 -201l330 201l98 -139l-312 -289h-231z" />
    <glyph glyph-name="zcaron" unicode="&#x17e;" 
d="M1078 0h-922v225l594 667h-594v225h922v-225l-585 -667h585v-225zM499 1311l-317 288l99 140l333 -201l330 201l99 -140l-313 -288h-231z" />
    <glyph glyph-name="longs" unicode="&#x17f;" 
d="M922 1327q-153 0 -153 -165v-1162h-305v892h-205v225h205v63q0 173 117 267.5t302 94.5q108 0 243 -45l-33 -205q-99 35 -171 35z" />
    <glyph glyph-name="florin" unicode="&#x192;" 
d="M945 1327q-61 0 -118.5 -20t-57.5 -164v-179h350v-223h-350v-391q0 -167 -113 -263t-306 -96q-151 0 -251 43l33 206q99 -37 177 -37q78 -1 115 43q38 44 38 141v354h-345v223h347v216q0 168 111 265q116 97 308 97q136 0 251 -45l-34 -205q-94 35 -155 35z" />
    <glyph glyph-name="Aringacute" unicode="&#x1fa;" 
d="M896 0l-82 371h-399l-89 -371h-279l385 1489h370l386 -1489h-292zM761 607l-139 635l-151 -635h290zM490 1918q0 -69 32 -98t94 -29q127 0 127 127v59q0 134 -127 132q-128 0 -126 -132v-59zM957 1977v-59q0 -143 -94 -212t-247 -69q-152 1 -246 69t-94 212v59
q0 145 94 216q63 47 151 63l181 351h391l-357 -356q221 -51 221 -274z" />
    <glyph glyph-name="aringacute" unicode="&#x1fb;" 
d="M414 -19q-131 0 -224 86q-93 87 -93 239t99 234q100 82 262 82h261v145q0 79 -41 115t-124 36t-123 -35t-59 -135l-249 45q35 183 137 263t304 80q447 0 449 -358v-448q0 -80 42 -100t122 -7v-219q-286 -63 -343 164h-46q-52 -76 -148 -132t-226 -55zM505 181
q121 0 214 85v188h-224q-59 0 -89 -30t-30 -102t30 -106t99 -35zM709 1605q-1 132 -127 132t-126 -132v-60q0 -69 32 -97t95 -29q128 0 126 126v60zM583 1264q-153 0 -247 69t-94 212v60q0 220 215 272l183 357h391l-352 -350q89 -16 151 -63q93 -71 93 -216v-60
q1 -143 -93 -212t-247 -69z" />
    <glyph glyph-name="AEacute" unicode="&#x1fc;" 
d="M592 371h-255l-86 -371h-219l361 1489h791v-217h-329v-363h297v-216h-297v-475h329v-218h-592v371zM592 588v684h-50l-157 -684h207zM603 1676l192 372h391l-374 -372h-209z" />
    <glyph glyph-name="aeacute" unicode="&#x1fd;" 
d="M391 173q61 0 130 76v213h-102q-54 0 -84 -33t-30 -116q0 -140 86 -140zM856 944q-104 0 -104 -183v-102h203v97q0 100 -23 144t-76 44zM310 -19q-102 -1 -178 79t-76 238t84 241t223 83h158v134q0 169 -100 169q-48 0 -71 -33q-22 -34 -50 -131l-218 47q34 168 110 248
t210 80q164 0 224 -136q81 136 245 136q136 0 221 -101t85 -303v-233h-425v-153q0 -169 95 -167q45 0 72 30t40 104l216 -36q-64 -296 -319 -296q-178 0 -249 159h-48q-26 -69 -87 -114t-162 -45zM534 1303l192 373h391l-374 -373h-209z" />
    <glyph glyph-name="Oslashacute" unicode="&#x1fe;" 
d="M1119 981v-480q1 -246 -129 -383t-374 -137q-64 0 -162 19l-70 -186h-226l106 283q-147 129 -149 404v480q-1 249 129 388t374 139q68 0 155 -17l69 185h225l-104 -280q156 -134 156 -415zM840 938q0 65 -17 118l-300 -825q35 -13 93 -13q125 0 174 68t50 237v415z
M616 1272q-123 0 -172 -70t-49 -243v-436q0 -70 9 -100l300 837q-33 12 -88 12zM449 1676l191 372h391l-374 -372h-208z" />
    <glyph glyph-name="oslashacute" unicode="&#x1ff;" 
d="M618 1136q70 0 157 -17l83 184h200l-118 -249q80 -52 126 -142t46 -203v-309q0 -199 -134 -309t-362 -110q-71 0 -156 17l-86 -184h-199l117 249q-80 53 -126 141t-45 196v309q0 203 135 315t362 112zM832 417v289q0 76 -26 124l-279 -625q32 -10 89 -10q116 1 166 53
t50 169zM616 922q-117 0 -166 -54t-50 -166v-285q0 -84 24 -132l283 625q-38 12 -91 12zM462 1303l191 373h391l-374 -373h-208z" />
    <glyph glyph-name="Scommaaccent" unicode="&#x218;" 
d="M619 1266q-185 0 -185 -166q0 -80 57 -124t257 -106t292 -162t92 -294t-144 -313q-145 -118 -385 -118q-298 0 -510 166l82 229q206 -158 436 -158q108 0 161 49t53 137t-60 129q-60 42 -216 91q-233 70 -327 168t-94 282t125 306t358 122q128 0 252 -46t208 -114
l-69 -218q-198 140 -383 140zM313 -559l125 373h391l-306 -373h-210z" />
    <glyph glyph-name="scommaaccent" unicode="&#x219;" 
d="M462 819q0 -63 55 -90t200 -57q199 -34 290 -112t91 -232t-130 -248q-130 -95 -355 -95q-133 0 -263 38t-225 104l76 193q95 -62 208 -96t203 -34t136 27t46 91t-46 92t-169 52q-212 37 -316 109q-105 71 -105 229t122 252t338 94t419 -129l-63 -186q-196 112 -354 112
t-158 -114zM326 -559l125 373h391l-306 -373h-210z" />
    <glyph glyph-name="Tcommaaccent" unicode="&#x21a;" 
d="M464 0v1253h-390v236h1086v-236h-391v-1253h-305zM326 -559l125 373h391l-306 -373h-210z" />
    <glyph glyph-name="tcommaaccent" unicode="&#x21b;" 
d="M374 369v523h-249v225h249v372h306v-372h391v-225h-391v-490q0 -192 167 -192q107 0 205 38l33 -222q-97 -45 -293 -45q-194 0 -306 101t-112 287zM387 -559l125 373h391l-305 -373h-211z" />
    <glyph glyph-name="dotlessj" unicode="&#xf6be;" 
d="M381 -171q120 0 179.5 44.5t59.5 148.5v870h-436v225h743v-1124q0 -181 -136 -281.5t-339 -100.5t-329 41l35 214q103 -37 223 -37z" />
    <glyph glyph-name="dotlessj" unicode="&#x237;" 
d="M381 -171q120 0 179.5 44.5t59.5 148.5v870h-436v225h743v-1124q0 -181 -136 -281.5t-339 -100.5t-329 41l35 214q103 -37 223 -37z" />
    <glyph glyph-name="quoteleft" unicode="&#x2018;" 
d="M305 687l419 802h203l-169 -802h-453z" />
    <glyph glyph-name="quoteleft" unicode="&#x2bb;" 
d="M305 687l419 802h203l-169 -802h-453z" />
    <glyph glyph-name="circumflex" unicode="&#x2c6;" 
d="M285 1290l-99 140l313 288h231l316 -288l-98 -140l-334 203z" />
    <glyph glyph-name="caron" unicode="&#x2c7;" 
d="M503 1311l-317 288l99 140l333 -201l330 201l98 -140l-312 -288h-231z" />
    <glyph glyph-name="breve" unicode="&#x2d8;" 
d="M616 1290q-216 0 -328 104t-115 321h251q2 -131 46 -181t146 -50t146 50t46 181h251q-3 -217 -115 -321t-328 -104z" />
    <glyph glyph-name="dotaccent" unicode="&#x2d9;" 
d="M413 1448q0 135 203 135q91 0 147 -30t56 -105v-22q0 -70 -57 -98t-147 -28t-146 28t-56 98v22z" />
    <glyph glyph-name="ring" unicode="&#x2da;" 
d="M743 1605q0 132 -127 132t-126 -132v-60q0 -69 32 -97t93 -29q62 0 95 29t33 97v60zM616 1264q-152 0 -246 69t-94 212v60q0 145 94 216t248 71t246 -71q93 -71 93 -216v-60q0 -143 -94 -212t-247 -69z" />
    <glyph glyph-name="ogonek" unicode="&#x2db;" 
d="M642 -411q-123 1 -203 61t-80 168t81 190q81 81 182 113l46 -78q-87 -54 -87 -152t126 -100q33 0 161 19v-197q-103 -24 -226 -24z" />
    <glyph glyph-name="tilde" unicode="&#x2dc;" 
d="M834 1698h199v-28q-1 -152 -69 -250t-190 -98t-193 95q-30 35 -53 65t-55 30q-75 0 -73 -145v-26h-199v27q0 151 70 250t193 99q74 0 126 -33t119 -128q22 -30 52 -29q76 0 73 145v26z" />
    <glyph glyph-name="hungarumlaut" unicode="&#x2dd;" 
d="M300 1303l82 373h307l-227 -373h-162zM693 1303l82 373h307l-227 -373h-162z" />
    <glyph glyph-name="gravecmb" unicode="&#x300;" horiz-adv-x="0" 
d="M-26 1303l-372 373h391l191 -373h-210z" />
    <glyph glyph-name="acutecmb" unicode="&#x301;" horiz-adv-x="0" 
d="M-222 1303l192 373h391l-374 -373h-209z" />
    <glyph glyph-name="circumflexcmb" unicode="&#x302;" horiz-adv-x="0" 
d="M-331 1290l-99 140l313 288h231l316 -288l-99 -140l-333 203z" />
    <glyph glyph-name="tildecmb" unicode="&#x303;" horiz-adv-x="0" 
d="M-142 1512q-30 0 -53 -30t-21 -115v-26h-199v27q0 151 69.5 250t192.5 99q74 0 118 -28t75 -65t53 -67t52 -30t52.5 29.5t20.5 115.5v26h199v-28q0 -151 -69 -249.5t-191 -98.5t-192 95q-30 35 -53.5 65t-53.5 30z" />
    <glyph glyph-name="macroncmb" unicode="&#x304;" horiz-adv-x="0" 
d="M-376 1372v235h752v-235h-752z" />
    <glyph glyph-name="brevecmb" unicode="&#x306;" horiz-adv-x="0" 
d="M0 1290q-216 0 -328.5 103.5t-114.5 321.5h251q2 -130 46 -180.5t146 -50.5t146 50t46 181h251q-2 -218 -114.5 -321.5t-328.5 -103.5z" />
    <glyph glyph-name="dotaccentcmb" unicode="&#x307;" horiz-adv-x="0" 
d="M-203 1448q0 135 147 135t203 -30t56 -105v-22q0 -71 -57 -98.5t-147 -27.5t-146 27.5t-56 98.5v22z" />
    <glyph glyph-name="dieresiscmb" unicode="&#x308;" horiz-adv-x="0" 
d="M61 1448q0 135 155 135q71 0 113.5 -30t42.5 -105v-22q0 -71 -43.5 -98.5t-112.5 -27.5t-112 27.5t-43 98.5v22zM-61 1426q0 -126 -155 -126q-69 0 -112.5 27.5t-43.5 98.5v22q0 135 155.5 135t155.5 -135v-22z" />
    <glyph glyph-name="ringcmb" unicode="&#x30a;" horiz-adv-x="0" 
d="M0 1737q-127 0 -127 -132v-60q0 -69 32 -97.5t94 -28.5t95 28.5t33 97.5v60q0 132 -127 132zM0 1264q-153 0 -247 69t-94 212v60q0 145 94 216t248 71t247 -71t93 -216v-60q0 -143 -94 -212t-247 -69z" />
    <glyph glyph-name="hungarumlautcmb" unicode="&#x30b;" horiz-adv-x="0" 
d="M-317 1303l82 373h308l-228 -373h-162zM76 1303l82 373h307l-227 -373h-162z" />
    <glyph glyph-name="caroncmb" unicode="&#x30c;" horiz-adv-x="0" 
d="M-114 1311l-316 288l99 140l333 -201l329 201l99 -140l-313 -288h-231z" />
    <glyph glyph-name="commaturnedabovecmb" unicode="&#x312;" horiz-adv-x="0" 
d="M-255 1303l305 373h209l-123 -373h-391z" />
    <glyph glyph-name="commaaccentcmb" unicode="&#x326;" horiz-adv-x="0" 
d="M-270 -559l125 373h391l-306 -373h-210z" />
    <glyph glyph-name="cedillacmb" unicode="&#x327;" horiz-adv-x="0" 
d="M290 -171q0 -123 -102 -182.5t-250 -59.5t-245 55t-104 176l258 18q4 -35 23.5 -49t64.5 -14t69 21.5t24 79.5t-16.5 85.5t-63.5 40.5l35 78q138 -17 222.5 -71.5t84.5 -177.5z" />
    <glyph glyph-name="ogonekcmb" unicode="&#x328;" horiz-adv-x="0" 
d="M25 -411q-122 0 -202 60.5t-80 168.5t81 189.5t182 113.5l46 -78q-56 -35 -71.5 -74.5t-15.5 -78.5q0 -99 126 -99q35 0 160 19v-197q-104 -24 -226 -24z" />
    <glyph glyph-name="tonos" unicode="&#x384;" 
d="M464 1303l87 373h376l-272 -373h-191z" />
    <glyph glyph-name="dieresistonos" unicode="&#x385;" 
d="M1123 1421q0 -129 -140 -129q-61 0 -100 28q-38 28 -38 101v20q0 134 139 134t139 -134v-20zM110 1441q0 134 139 134q63 0 101 -30t37 -104v-20q0 -73 -39 -101q-40 -28 -100 -28t-99 28t-39 101v20zM473 1303l78 373h274l-181 -373h-171z" />
    <glyph glyph-name="Alphatonos" unicode="&#x386;" 
d="M896 0l-82 371h-399l-89 -371h-279l385 1489h370l386 -1489h-292zM761 607l-139 635l-151 -635h290zM-17 1303l88 373h376l-272 -373h-192z" />
    <glyph glyph-name="anoteleia" unicode="&#x387;" 
d="M868 683q0 -95 -68 -145t-175 -50q-109 0 -175 50t-66 145v119q0 96 67 148t175 52t176 -52q66 -52 66 -148v-119z" />
    <glyph glyph-name="Epsilontonos" unicode="&#x388;" 
d="M121 0v1489h998v-236h-691v-337h605v-236h-605v-444h691v-236h-998zM-268 1303l87 373h376l-271 -373h-192z" />
    <glyph glyph-name="Etatonos" unicode="&#x389;" 
d="M121 0v1489h307v-549h376v549h308v-1489h-308v704h-376v-704h-307zM-300 1303l88 373h376l-272 -373h-192z" />
    <glyph glyph-name="Iotatonos" unicode="&#x38a;" 
d="M121 0v236h343v1017h-343v236h991v-236h-343v-1017h343v-236h-991zM-300 1303l88 373h376l-272 -373h-192z" />
    <glyph glyph-name="Omicrontonos" unicode="&#x38c;" 
d="M618 218q106 0 151 62t45 221v480q0 160 -45 225q-45 66 -151 66t-151 -66t-44 -225v-480q0 -158 44 -221q45 -62 151 -62zM618 -19q-244 1 -372 131t-129 366v526q-1 238 129 371t374 133t372 -133t129 -371v-526q1 -236 -129 -366t-374 -131zM-106 1303l87 373h376
l-271 -373h-192z" />
    <glyph glyph-name="Upsilontonos" unicode="&#x38e;" 
d="M769 0h-305v559l-421 930h309l266 -659l263 659h307l-419 -930v-559zM-309 1303l87 373h377l-272 -373h-192z" />
    <glyph glyph-name="Omegatonos" unicode="&#x38f;" 
d="M1136 761q0 -289 -196 -390v-170h196v-201h-462v428q84 24 119 110t36 223v229q1 154 -51 216t-162 62t-161 -62t-51 -216v-229q0 -137 35 -223t120 -110v-428h-462v201h195v170q-195 100 -195 390v220q0 257 133 392t386 135q252 0 386 -135t134 -392v-220zM-169 1303
l87 373h376l-272 -373h-191z" />
    <glyph glyph-name="iotadieresistonos" unicode="&#x390;" 
d="M743 408q0 -188 163 -186q79 0 163 37l48 -218q-133 -54 -266 -54q-190 0 -303 104t-112 272v529h-295v225h602v-709zM1106 1421q0 -129 -140 -129q-61 0 -99 28t-38 101v20q1 134 139 134t138 -134v-20zM371 1421q0 -129 -138 -129q-61 0 -101 28q-39 28 -39 101v20
q0 134 140 134q63 0 100 -30t38 -104v-20zM456 1303l78 373h274l-181 -373h-171z" />
    <glyph glyph-name="Alpha" unicode="&#x391;" 
d="M896 0l-82 371h-399l-89 -371h-279l385 1489h370l386 -1489h-292zM761 607l-139 635l-151 -635h290z" />
    <glyph glyph-name="Beta" unicode="&#x392;" 
d="M428 225h185q106 0 153 42t48 141v82q0 96 -48 138t-153 42h-185v-445zM428 879h179q91 0 129 36t39 120v77q-1 82 -39 117t-129 35h-179v-385zM1119 387q0 -387 -486 -387h-512v1489h514q443 0 443 -350v-70q0 -112 -49 -173t-156 -81v-54q117 -13 181 -88t65 -193v-93z
" />
    <glyph glyph-name="Gamma" unicode="&#x393;" 
d="M190 0v1489h955v-236h-650v-1253h-305z" />
    <glyph glyph-name="Delta" unicode="&#x394;" 
d="M875 236l-259 1034l-272 -1034h531zM73 0v236l338 1253h423l326 -1253v-236h-1087z" />
    <glyph glyph-name="Epsilon" unicode="&#x395;" 
d="M121 0v1489h998v-236h-691v-337h605v-236h-605v-444h691v-236h-998z" />
    <glyph glyph-name="Zeta" unicode="&#x396;" 
d="M1119 0h-1004v236l687 1017h-687v236h1004v-236l-680 -1017h680v-236z" />
    <glyph glyph-name="Eta" unicode="&#x397;" 
d="M121 0v1489h307v-549h376v549h308v-1489h-308v704h-376v-704h-307z" />
    <glyph glyph-name="Theta" unicode="&#x398;" 
d="M475 648v212h285v-212h-285zM616.5 218q128.5 0 186 69t57.5 236v436q0 169 -57.5 241t-186 72t-186.5 -72t-58 -241v-436q0 -168 58 -236.5t186.5 -68.5zM616.5 -19q-247.5 0 -381 135t-133.5 385v480q0 253 135 390t381 137t379 -137t133 -390v-480q0 -249 -133 -384.5
t-380.5 -135.5z" />
    <glyph glyph-name="Iota" unicode="&#x399;" 
d="M121 0v236h343v1017h-343v236h991v-236h-343v-1017h343v-236h-991z" />
    <glyph glyph-name="Kappa" unicode="&#x39a;" 
d="M428 655v-655h-307v1489h307v-597h65l367 597h320l-458 -687l453 -802h-317l-359 655h-71z" />
    <glyph glyph-name="Lambda" unicode="&#x39b;" 
d="M896 0l-274 1242l-296 -1242h-279l385 1489h370l386 -1489h-292z" />
    <glyph glyph-name="Mu" unicode="&#x39c;" 
d="M97 0v1489h300l225 -748l223 748h291v-1489h-270l30 1022l-175 -592h-205l-177 603l28 -1033h-270z" />
    <glyph glyph-name="Nu" unicode="&#x39d;" 
d="M384 0h-263v1489h343l385 -1128v1128h263v-1489h-367l-361 1078v-1078z" />
    <glyph glyph-name="Xi" unicode="&#x39e;" 
d="M115 0v236h1004v-236h-1004zM156 680v236h920v-236h-920zM115 1253v236h1004v-236h-1004z" />
    <glyph glyph-name="Omicron" unicode="&#x39f;" 
d="M616 218q106 0 151 62t45 221v480q0 160 -45 225q-45 66 -151 66t-151 -66t-44 -225v-480q0 -158 44 -221q45 -62 151 -62zM616 -19q-244 1 -372 131t-129 366v526q-1 238 129 371t374 133t372 -133t129 -371v-526q1 -236 -129 -366t-374 -131z" />
    <glyph glyph-name="Pi" unicode="&#x3a0;" 
d="M121 0v1489h991v-1489h-308v1253h-376v-1253h-307z" />
    <glyph glyph-name="Rho" unicode="&#x3a1;" 
d="M428 709h199q97 0 144 40t46 148v164q0 110 -46 151q-47 41 -144 41h-199v-544zM121 0v1489h523q227 1 353 -99t126 -308v-209q0 -205 -124 -300t-355 -95h-216v-478h-307z" />
    <glyph glyph-name="Sigma" unicode="&#x3a3;" 
d="M1078 0h-940v236l527 527l-527 490v236h940v-236h-620l415 -384v-189l-435 -444h640v-236z" />
    <glyph glyph-name="Tau" unicode="&#x3a4;" 
d="M464 0v1253h-390v236h1086v-236h-391v-1253h-305z" />
    <glyph glyph-name="Upsilon" unicode="&#x3a5;" 
d="M769 0h-305v559l-421 930h309l266 -659l263 659h307l-419 -930v-559z" />
    <glyph glyph-name="Phi" unicode="&#x3a6;" 
d="M464 393h35v704h-35q-69 0 -98 -68t-29 -191v-194q0 -123 29 -187t98 -64zM896 838q0 259 -121 259h-43v-704h43q65 0 93 64t28 187v194zM765 168h-24v-187h-251v187h-23q-189 0 -287 128t-98 348v194q0 225 99 354t288 130h21v186h251v-186h24q188 0 287 -130t99 -354
v-194q0 -222 -99 -349t-287 -127z" />
    <glyph glyph-name="Chi" unicode="&#x3a7;" 
d="M868 0l-257 486l-254 -486h-299l415 765l-372 724h316l229 -437l229 437h300l-393 -722l389 -767h-303z" />
    <glyph glyph-name="Psi" unicode="&#x3a8;" 
d="M743 0h-253v352q-195 30 -293 158.5t-98 336.5v642h253v-629q0 -123 32.5 -189t107.5 -83v901h249v-901q74 17 108 83t34 189v629h251v-642q0 -209 -98 -337t-293 -158v-352z" />
    <glyph glyph-name="Omega" unicode="&#x3a9;" 
d="M829 761v229q0 153 -51.5 215.5t-161.5 62.5t-161 -62.5t-51 -215.5v-229q0 -138 35.5 -223.5t119.5 -109.5v-428h-462v201h195v170q-195 100 -195 390v220q0 257 133 392t386 135t386.5 -135t133.5 -392v-220q0 -289 -196 -390v-170h196v-201h-462v428q155 44 155 333z
" />
    <glyph glyph-name="Iotadieresis" unicode="&#x3aa;" 
d="M121 0v236h343v1017h-343v236h991v-236h-343v-1017h343v-236h-991zM989 1799q1 -127 -155 -127t-156 127v22q0 134 156 134t155 -134v-22zM555 1799q1 -127 -155 -127t-156 127v22q0 134 156 134t155 -134v-22z" />
    <glyph glyph-name="Upsilondieresis" unicode="&#x3ab;" 
d="M769 0h-305v559l-421 930h309l266 -659l263 659h307l-419 -930v-559zM989 1799q1 -127 -155 -127t-156 127v22q0 134 156 134t155 -134v-22zM555 1799q1 -127 -155 -127t-156 127v22q0 134 156 134t155 -134v-22z" />
    <glyph glyph-name="alphatonos" unicode="&#x3ac;" 
d="M776 216q-98 -233 -350 -233q-126 0 -210 99t-84 272v387q0 179 78 288t205 109q186 0 261 -196h50v175h307v-771q0 -86 30 -110t101 -13v-219q-145 -30 -228 20q-81 51 -107 192h-53zM438 397q0 -175 117 -175q91 0 171 111v453q-86 113 -175 111q-52 1 -83 -43
t-30 -139v-318zM555 1303l87 373h376l-271 -373h-192z" />
    <glyph glyph-name="epsilontonos" unicode="&#x3ad;" 
d="M158 840q0 296 477 296q223 0 337 -85t126 -273l-277 -15q-9 95 -50 136t-135 41t-132 -29t-39 -94v-26q-1 -69 39 -94t131 -25h95v-171h-95q-123 1 -162 -35t-39 -109v-18q0 -77 42 -113t162 -36t161 45t52 139l277 -13q-13 -192 -117 -286t-376 -94q-507 0 -507 317v30
q0 89 66 155t201 76v41q-110 7 -173 59t-64 143v38zM492 1303l87 373h376l-272 -373h-191z" />
    <glyph glyph-name="etatonos" unicode="&#x3ae;" 
d="M791 747q0 147 -126 149q-132 0 -224 -138v-758h-305v1117h305v-186h52q39 95 123 150t206 55t198 -88t77 -246v-1174h-306v1119zM542 1303l87 373h376l-271 -373h-192z" />
    <glyph glyph-name="iotatonos" unicode="&#x3af;" 
d="M743 408q0 -188 163 -186q79 0 163 37l48 -218q-133 -54 -266 -54q-190 0 -303 104t-112 272v529h-295v225h602v-709zM469 1303l88 373h376l-272 -373h-192z" />
    <glyph glyph-name="upsilondieresistonos" unicode="&#x3b0;" 
d="M1097 423q0 -209 -126 -325t-354 -117q-229 1 -355 117t-126 325v694h305v-689q0 -110 41 -160t134 -50t134 49t41 157v693h306v-694zM1123 1421q0 -129 -140 -129q-61 0 -100 28q-38 28 -38 101v20q0 134 139 134t139 -134v-20zM110 1441q0 134 139 134q63 0 101 -30
t37 -104v-20q0 -73 -39 -101q-40 -28 -100 -28t-99 28t-39 101v20zM473 1303l78 373h274l-181 -373h-171z" />
    <glyph glyph-name="alpha" unicode="&#x3b1;" 
d="M776 216q-98 -233 -350 -233q-127 0 -210.5 99t-83.5 272v387q0 179 78.5 288t204.5 109q186 0 261 -196h50v175h307v-771q0 -86 30 -110t101 -13v-219q-145 -30 -227 20.5t-108 191.5h-53zM438 397q0 -175 117 -175q91 0 171 111v453q-84 111 -175 111q-113 0 -113 -182
v-318z" />
    <glyph glyph-name="beta" unicode="&#x3b2;" 
d="M1043 1100q0 -219 -254 -266v-54q147 -15 227.5 -95t80.5 -208v-90q0 -194 -119.5 -300t-307.5 -106q-119 0 -229 43v-396h-305v1452q0 209 121 318.5t329 109.5t332.5 -93t124.5 -261v-54zM788 426v73q0 112 -47 156.5t-138 44.5h-67v186h58q147 0 147 157v59
q0 91 -37.5 130.5t-115.5 39.5t-112.5 -48.5t-34.5 -152.5v-801q74 -56 160 -56q187 0 187 212z" />
    <glyph glyph-name="gamma" unicode="&#x3b3;" 
d="M801 -372h-369l32 409l-388 1080h311l229 -804l229 804h309l-385 -1080z" />
    <glyph glyph-name="delta" unicode="&#x3b4;" 
d="M441 586v-193q0 -101 44.5 -143.5t131.5 -42.5t130.5 42.5t43.5 143.5v188q0 91 -48.5 140.5t-180.5 95.5q-121 -73 -121 -231zM134 575q0 217 238 319q-101 50 -143.5 110.5t-42.5 155.5q0 164 110 246.5t315 82.5h344v-225h-331q-73 0 -108.5 -21t-35.5 -77t55 -88
t225 -94t254 -149t84 -254v-188q0 -203 -129 -307.5t-352.5 -104.5t-353 104.5t-129.5 307.5v182z" />
    <glyph glyph-name="epsilon" unicode="&#x3b5;" 
d="M158 840q0 296 477 296q223 0 336.5 -85t126.5 -273l-277 -15q-9 95 -50 136t-135 41t-132.5 -28.5t-38.5 -94.5v-26q0 -69 39.5 -94t130.5 -25h95v-171h-95q-123 0 -162 -35.5t-39 -108.5v-18q0 -76 42 -112.5t162 -36.5t161 44.5t52 139.5l277 -13q-13 -192 -117 -286
t-376 -94q-507 0 -507 317v30q0 89 66.5 155t200.5 76v41q-110 7 -173.5 59t-63.5 143v38z" />
    <glyph glyph-name="zeta" unicode="&#x3b6;" 
d="M439 499q0 -220 164 -220h157q158 0 248 -78t90 -242t-105.5 -247.5t-286.5 -83.5h-229v214h227q58 0 90.5 20.5t32.5 88.5t-33 91t-90 23h-118q-227 0 -340.5 103.5t-113.5 287.5q0 145 57 250.5t174 243.5l175 212l-11 26q-169 -30 -287.5 50t-185.5 244l173 91
q69 -143 183.5 -184t302.5 4l337 149l56 -282l-317 -65l-210 -316q-67 -112 -103.5 -195t-36.5 -185z" />
    <glyph glyph-name="eta" unicode="&#x3b7;" 
d="M791 747q0 149 -128 149t-222 -138v-758h-305v1117h305v-186h52q39 95 123 150t206 55t198.5 -88.5t76.5 -245.5v-1174h-306v1119z" />
    <glyph glyph-name="theta" unicode="&#x3b8;" 
d="M616.5 207q102.5 0 145 51t42.5 163v232h-376v-232q0 -112 43 -163t145.5 -51zM428 1071v-216h376v219q0 102 -42.5 155.5t-145 53.5t-145.5 -53t-43 -159zM616.5 -19q-221.5 0 -351 112t-129.5 311v674q0 205 130.5 317.5t352 112.5t350 -112.5t128.5 -317.5v-674
q0 -199 -129.5 -311t-351 -112z" />
    <glyph glyph-name="iota" unicode="&#x3b9;" 
d="M743 408q0 -188 163 -186q79 0 163 37l48 -218q-133 -54 -266 -54q-190 0 -303 104t-112 272v529h-295v225h602v-709z" />
    <glyph glyph-name="kappa" unicode="&#x3ba;" 
d="M473 477v-477h-307v1117h307v-432h67l275 432h323l-345 -508l339 -609h-328l-264 477h-67z" />
    <glyph glyph-name="lambda" unicode="&#x3bb;" 
d="M328 1501q201 0 316.5 -79.5t169.5 -263.5l340 -1158h-309l-238 883l-223 -883h-308l272 1015h224l-13 43q-32 121 -87 169t-151 48t-165 -13l-33 224q116 15 205 15z" />
    <glyph glyph-name="mu" unicode="&#x3bc;" 
d="M149 1117h305v-726q0 -88 35.5 -126t85.5 -38q90 0 162 97v793h306v-771q0 -86 27 -110t90 -13v-219q-123 -26 -192 9t-102 142h-49q-70 -172 -214 -172q-94 0 -149 75v-21l19 -409h-341l17 409v1080z" />
    <glyph glyph-name="nu" unicode="&#x3bd;" 
d="M1154 1117q-57 -562 -381 -1117h-315l-382 1117h309l265 -843q86 207 137 431t64 412h303z" />
    <glyph glyph-name="xi" unicode="&#x3be;" 
d="M735 279q369 0 369 -320q0 -164 -105 -247.5t-301 -83.5h-201v214h201q61 0 98.5 20.5t37.5 88.5t-37 91t-99 23h-139q-190 0 -300 92t-110 251v39q0 110 75.5 192.5t226.5 95.5v43q-97 0 -148.5 55t-51.5 128t48.5 126.5t145.5 74.5v43q-302 -4 -411 277l163 91
q76 -128 184.5 -168t286.5 -5l358 142l48 -282l-374 -70l-58 -39q-85 -60 -85 -172q0 -65 29.5 -92t74.5 -27h290v-212h-301q-102 0 -149 -50.5t-47 -122.5v-39q0 -69 45 -113t141 -44h95z" />
    <glyph glyph-name="omicron" unicode="&#x3bf;" 
d="M616 207q91 1 133 47t42 150v303q0 107 -42 155t-133 48t-133 -47t-42 -154v-299q0 -106 42 -154t133 -49zM616 -19q-228 0 -354 108t-126 302v328q0 195 127 306q128 111 355 111t354 -112t126 -311v-328q0 -190 -128 -297t-354 -107z" />
    <glyph glyph-name="pi" unicode="&#x3c0;" 
d="M1123 1117v-225h-151v-536q0 -89 38 -118t139 -15v-219q-223 -39 -339.5 33.5t-116.5 252.5v602h-237v-892h-279v892h-130v225h1076z" />
    <glyph glyph-name="rho" unicode="&#x3c1;" 
d="M136 -372v1093q0 201 123 306t355 105t357.5 -105t125.5 -306v-349q0 -179 -90.5 -285t-246.5 -106q-104 0 -173 54t-94 151h-52v-558h-305zM653 222q138 0 138 191v306q0 101 -43.5 144.5t-129.5 43.5q-177 0 -177 -188v-378q101 -119 212 -119z" />
    <glyph glyph-name="sigma1" unicode="&#x3c2;" 
d="M464 -372v225h229q56 0 89 19.5t33 84.5t-33.5 86.5t-88.5 21.5h-151q-199 0 -302.5 112.5t-103.5 317.5v220q0 199 124 310t354 111t337 -104.5t131 -309.5l-294 -22q-7 117 -45.5 163.5t-131.5 46.5t-131.5 -48t-38.5 -160v-203q0 -112 40 -160.5t141 -48.5h149
q155 0 241 -81t86 -242t-119 -250t-326 -89h-189z" />
    <glyph glyph-name="sigma" unicode="&#x3c3;" 
d="M1030 639v-248q0 -195 -121 -302.5t-326 -107.5t-326 107t-121 303v320q0 190 121 298t328 108h629v-244l-268 21q84 -96 84 -255zM582.5 207q76.5 0 108 44.5t31.5 148.5v300q0 101 -31.5 152t-108 51t-109 -48.5t-32.5 -143.5v-311q0 -104 32.5 -148.5t109 -44.5z" />
    <glyph glyph-name="tau" unicode="&#x3c4;" 
d="M464 290v591h-343v236h1007v-236h-359v-529q0 -88 45.5 -116.5t159.5 -12.5v-219q-249 -43 -379.5 29.5t-130.5 256.5z" />
    <glyph glyph-name="upsilon" unicode="&#x3c5;" 
d="M617 -19q-228 0 -354.5 116.5t-126.5 325.5v694h305v-689q0 -110 41 -160t134 -50t134 49.5t41 156.5v693h306v-694q0 -209 -126 -325.5t-354 -116.5z" />
    <glyph glyph-name="phi" unicode="&#x3c6;" 
d="M722 899v-690q106 19 151 86.5t45 192.5v108q0 158 -48.5 230.5t-147.5 72.5zM341 685v-139q0 -151 41.5 -232t136.5 -105v908h161q214 0 338.5 -136t124.5 -385v-108q0 -209 -108 -337.5t-294 -157.5v-365h-240v363q-194 32 -303 174t-109 381v139q0 300 82 453l244 -60
q-74 -150 -74 -393z" />
    <glyph glyph-name="chi" unicode="&#x3c7;" 
d="M789 -372l-191 428l-200 -428h-301l365 737l-335 752h305l195 -437l207 437h302l-373 -745l335 -744h-309z" />
    <glyph glyph-name="psi" unicode="&#x3c8;" 
d="M89 452v665h254v-644q0 -117 38 -183.5t124 -84.5v912h223v-912q88 19 125 85t37 183v644h253v-665q0 -201 -99.5 -323t-302.5 -151v-350h-249v350q-403 60 -403 474z" />
    <glyph glyph-name="omega" unicode="&#x3c9;" 
d="M879 -19q-186 0 -242 239h-47q-22 -134 -88 -186.5t-154 -52.5q-117 0 -188 119.5t-71 348.5v240q0 278 80 460l244 -60q-70 -212 -70 -400v-253q0 -218 78 -218q43 0 63.5 38t20.5 126v452h223v-452q0 -164 81 -164t81 218v253q0 169 -71 400l246 60q78 -187 78 -460
v-240q0 -229 -71.5 -348.5t-192.5 -119.5z" />
    <glyph glyph-name="iotadieresis" unicode="&#x3ca;" 
d="M743 408q0 -188 163 -186q79 0 163 37l48 -218q-133 -54 -266 -54q-190 0 -303 104t-112 272v529h-295v225h602v-709zM670 1448q0 135 155 135q71 0 113 -30t43 -105v-22q1 -70 -43 -98t-113 -28t-112 28t-43 98v22zM236 1448q0 135 156 135t155 -135v-22q0 -71 -43 -99
q-44 -27 -112 -27t-112 28t-44 98v22z" />
    <glyph glyph-name="upsilondieresis" unicode="&#x3cb;" 
d="M1097 423q0 -209 -126 -325t-354 -117q-229 1 -355 117t-126 325v694h305v-689q0 -110 41 -160t134 -50t134 49t41 157v693h306v-694zM678 1448q0 135 154 135q71 0 114 -30t43 -105v-22q0 -70 -44 -98t-113 -28q-70 0 -112 28t-42 98v22zM244 1448q0 135 156 135
t155 -135v-22q0 -126 -155 -126q-68 0 -112 28t-44 98v22z" />
    <glyph glyph-name="omicrontonos" unicode="&#x3cc;" 
d="M616 207q91 1 133 47t42 150v303q0 107 -42 155t-133 48t-133 -47t-42 -154v-299q0 -106 42 -154t133 -49zM616 -19q-228 0 -354 108t-126 302v328q0 195 127 306q128 111 355 111t354 -112t126 -311v-328q0 -190 -128 -297t-354 -107zM464 1303l87 373h376l-272 -373
h-191z" />
    <glyph glyph-name="upsilontonos" unicode="&#x3cd;" 
d="M1097 423q0 -209 -126 -325t-354 -117q-229 1 -355 117t-126 325v694h305v-689q0 -110 41 -160t134 -50t134 49t41 157v693h306v-694zM451 1303l87 373h376l-272 -373h-191z" />
    <glyph glyph-name="omegatonos" unicode="&#x3ce;" 
d="M1143 689v-240q0 -229 -72 -348t-192 -120q-82 0 -146 53t-96 186h-47q-22 -134 -88 -186t-154 -53q-117 -1 -188 119t-71 349v240q0 278 80 460l244 -60q-70 -212 -70 -400v-253q0 -218 78 -218q43 0 63 38t21 126v452h223v-452q0 -164 84 -164q78 0 78 218v253
q0 177 -71 400l246 60q78 -187 78 -460zM475 1303l87 373h376l-271 -373h-192z" />
    <glyph glyph-name="IEgravecyrillic" unicode="&#x400;" 
d="M121 0v1489h998v-236h-691v-337h605v-236h-605v-444h691v-236h-998zM573 1676l-372 372h391l192 -372h-211z" />
    <glyph glyph-name="Iocyrillic" unicode="&#x401;" 
d="M121 0v1489h998v-236h-691v-337h605v-236h-605v-444h691v-236h-998zM1013 1799q1 -127 -155 -127t-156 127v22q0 134 156 134t155 -134v-22zM579 1799q1 -127 -155 -127t-156 127v22q0 134 156 134t155 -134v-22z" />
    <glyph glyph-name="Djecyrillic" unicode="&#x402;" 
d="M693 968q446 0 446 -426v-118q0 -424 -446 -424v233q74 0 114 42.5t40 152.5v110q0 110 -40 153.5t-114 43.5h-142v-735h-307v1253h-201v236h800v-236h-292v-285h142z" />
    <glyph glyph-name="Gjecyrillic" unicode="&#x403;" 
d="M190 0v1489h955v-236h-650v-1253h-305zM458 1676l192 372h391l-374 -372h-209z" />
    <glyph glyph-name="Ecyrillic" unicode="&#x404;" 
d="M638.5 -19q-258.5 0 -391 127t-132.5 376v514q0 251 132.5 380.5t390.5 129.5t381.5 -123t136.5 -404l-305 -18q-13 181 -56 245t-160 64t-165.5 -64.5t-48.5 -231.5v-60h283v-236h-283v-174q0 -164 48.5 -226t165.5 -62t160 61.5t56 239.5l305 -18q-11 -270 -135 -395
t-382.5 -125z" />
    <glyph glyph-name="Dzecyrillic" unicode="&#x405;" 
d="M619 1266q-185 0 -185 -166q0 -80 57 -124t257 -106t292 -162t92 -294t-144 -313q-145 -118 -385 -118q-298 0 -510 166l82 229q206 -158 436 -158q108 0 161 49t53 137t-60 129q-60 42 -216 91q-233 70 -327 168t-94 282t125 306t358 122q128 0 252 -46t208 -114
l-69 -218q-198 140 -383 140z" />
    <glyph glyph-name="Icyrillic" unicode="&#x406;" 
d="M121 0v236h343v1017h-343v236h991v-236h-343v-1017h343v-236h-991z" />
    <glyph glyph-name="Yicyrillic" unicode="&#x407;" 
d="M121 0v236h343v1017h-343v236h991v-236h-343v-1017h343v-236h-991zM989 1799q1 -127 -155 -127t-156 127v22q0 134 156 134t155 -134v-22zM555 1799q1 -127 -155 -127t-156 127v22q0 134 156 134t155 -134v-22z" />
    <glyph glyph-name="Jecyrillic" unicode="&#x408;" 
d="M1084 477q0 -235 -120 -365t-377 -131q-256 0 -375 125t-132 406l307 20q13 -190 54 -252t143 -62t148 60q47 60 46 202v773h-383v236h689v-1012z" />
    <glyph glyph-name="Ljecyrillic" unicode="&#x409;" 
d="M752 214h50q52 0 78.5 41t26.5 142v229q0 97 -26 136.5t-79 39.5h-50v-588zM752 1489v-478h91q145 0 222.5 -90.5t77.5 -263.5v-286q0 -182 -78 -276.5t-223 -94.5h-326v1275h-140l-9 -1003q-2 -141 -69 -212t-186 -71q-46 0 -121 18l33 228q38 -12 56 -11t35 25.5
t19 93.5l13 1146h605z" />
    <glyph glyph-name="Njecyrillic" unicode="&#x40a;" 
d="M1143 371q0 -371 -300 -371h-327v704h-188v-704h-237v1489h237v-549h188v549h236v-478h93q298 0 298 -354v-286zM752 214h52q52 0 77.5 41t25.5 142v229q0 97 -25.5 136.5t-77.5 39.5h-52v-588z" />
    <glyph glyph-name="Tshecyrillic" unicode="&#x40b;" 
d="M547 0h-305v1253h-203v236h814v-236h-306v-330h153q222 0 330.5 -98.5t108.5 -299.5v-525h-307v514q0 95 -33.5 136t-105.5 41h-146v-691z" />
    <glyph glyph-name="Kjecyrillic" unicode="&#x40c;" 
d="M428 655v-655h-307v1489h307v-597h65l367 597h320l-458 -687l453 -802h-317l-359 655h-71zM514 1676l192 372h391l-375 -372h-208z" />
    <glyph glyph-name="Igravecyrillic" unicode="&#x40d;" 
d="M842 0v1071l-354 -1071h-367v1489h270v-1126l378 1126h343v-1489h-270zM560 1676l-372 372h391l192 -372h-211z" />
    <glyph glyph-name="Ushortcyrillic" unicode="&#x40e;" 
d="M320 -9q-102 0 -225 26l28 236q100 -24 182 -24t133 36q50 36 78 128l9 37h-112l-346 1059h300l246 -774l253 774h298l-389 -1167q-60 -173 -173 -252t-282 -79zM616 1663q-184 0 -308 95t-122 310l266 19q-2 -125 34 -178t130 -53q95 0 131 53q35 53 33 178l266 -19
q2 -216 -122 -310t-308 -95z" />
    <glyph glyph-name="Dzhecyrillic" unicode="&#x40f;" 
d="M464 -279v279h-343v1489h307v-1253h376v1253h308v-1489h-343v-279h-305z" />
    <glyph glyph-name="Acyrillic" unicode="&#x410;" 
d="M896 0l-82 371h-399l-89 -371h-279l385 1489h370l386 -1489h-292zM761 607l-139 635l-151 -635h290z" />
    <glyph glyph-name="Becyrillic" unicode="&#x411;" 
d="M428 236h212q101 0 145 47t44 147v63q0 101 -44 146.5t-145 45.5h-212v-449zM121 0v1489h927v-236h-620v-335h246q222 0 342 -103.5t120 -293.5v-102q0 -201 -119.5 -310t-340.5 -109h-555z" />
    <glyph glyph-name="Vecyrillic" unicode="&#x412;" 
d="M428 225h185q106 0 153 42t48 141v82q0 96 -48 138t-153 42h-185v-445zM428 879h179q91 0 129 36t39 120v77q-1 82 -39 117t-129 35h-179v-385zM1119 387q0 -387 -486 -387h-512v1489h514q443 0 443 -350v-70q0 -112 -49 -173t-156 -81v-54q117 -13 181 -88t65 -193v-93z
" />
    <glyph glyph-name="Gecyrillic" unicode="&#x413;" 
d="M190 0v1489h955v-236h-650v-1253h-305z" />
    <glyph glyph-name="Decyrillic" unicode="&#x414;" 
d="M302 0v-279h-280v515h119q82 68 86 337l9 916h801v-1253h143v-515h-279v279h-599zM432 236h326v1017h-250l-5 -687q-4 -216 -71 -290v-40z" />
    <glyph glyph-name="Iecyrillic" unicode="&#x415;" 
d="M121 0v1489h998v-236h-691v-337h605v-236h-605v-444h691v-236h-998z" />
    <glyph glyph-name="Zhecyrillic" unicode="&#x416;" 
d="M506 877v612h222v-612h63l159 612h242l-203 -664l199 -825h-240l-147 670h-73v-670h-222v670h-72l-149 -670h-240l208 834l-212 655h244l158 -612h63z" />
    <glyph glyph-name="Zecyrillic" unicode="&#x417;" 
d="M620 -19q-260 0 -385 107t-138 333l307 18q13 -132 62.5 -178.5t152.5 -46.5t148 45.5t45 144.5v67q0 106 -49.5 151t-153.5 45h-177v232h177q91 0 130 31t39 114v73q0 88 -39 123t-127 35t-125.5 -42.5t-48.5 -148.5l-306 18q13 209 128.5 307.5t349.5 98.5t354 -88.5
t120 -278.5v-52q0 -117 -69 -188.5t-186 -85.5v-54q130 -13 210 -97.5t80 -218.5v-47q0 -210 -119.5 -313.5t-379.5 -103.5z" />
    <glyph glyph-name="Iicyrillic" unicode="&#x418;" 
d="M842 0v1071l-354 -1071h-367v1489h270v-1126l378 1126h343v-1489h-270z" />
    <glyph glyph-name="Iishortcyrillic" unicode="&#x419;" 
d="M842 0v1071l-354 -1071h-367v1489h270v-1126l378 1126h343v-1489h-270zM620 1663q-184 0 -308 95t-122 310l266 19q-2 -125 34 -178t130 -53q95 0 130 53t34 178l266 -19q2 -216 -122 -310t-308 -95z" />
    <glyph glyph-name="Kacyrillic" unicode="&#x41a;" 
d="M428 655v-655h-307v1489h307v-597h65l367 597h320l-458 -687l453 -802h-317l-359 655h-71z" />
    <glyph glyph-name="Elcyrillic" unicode="&#x41b;" 
d="M1112 1489v-1489h-308v1253h-253l-5 -814q-4 -461 -352 -461q-80 0 -175 28l33 236q65 -19 86 -19q50 0 77 51.5t29 189.5l7 1025h861z" />
    <glyph glyph-name="Emcyrillic" unicode="&#x41c;" 
d="M97 0v1489h300l225 -748l223 748h291v-1489h-270l30 1022l-175 -592h-205l-177 603l28 -1033h-270z" />
    <glyph glyph-name="Encyrillic" unicode="&#x41d;" 
d="M121 0v1489h307v-549h376v549h308v-1489h-308v704h-376v-704h-307z" />
    <glyph glyph-name="Ocyrillic" unicode="&#x41e;" 
d="M616 218q106 0 151 62t45 221v480q0 160 -45 225q-45 66 -151 66t-151 -66t-44 -225v-480q0 -158 44 -221q45 -62 151 -62zM616 -19q-244 1 -372 131t-129 366v526q-1 238 129 371t374 133t372 -133t129 -371v-526q1 -236 -129 -366t-374 -131z" />
    <glyph glyph-name="Pecyrillic" unicode="&#x41f;" 
d="M121 0v1489h991v-1489h-308v1253h-376v-1253h-307z" />
    <glyph glyph-name="Ercyrillic" unicode="&#x420;" 
d="M428 709h199q97 0 144 40t46 148v164q0 110 -46 151q-47 41 -144 41h-199v-544zM121 0v1489h523q227 1 353 -99t126 -308v-209q0 -205 -124 -300t-355 -95h-216v-478h-307z" />
    <glyph glyph-name="Escyrillic" unicode="&#x421;" 
d="M115 998q0 512 525 510q261 0 382 -125t134 -402l-305 -18q-11 184 -55 246q-44 63 -160 63t-166 -67t-49 -229v-470q0 -156 49 -222q50 -66 166 -66t159 60t56 241l305 -18q-12 -274 -134 -397t-383 -123q-522 0 -524 503v514z" />
    <glyph glyph-name="Tecyrillic" unicode="&#x422;" 
d="M464 0v1253h-390v236h1086v-236h-391v-1253h-305z" />
    <glyph glyph-name="Ucyrillic" unicode="&#x423;" 
d="M320 -9q-88 0 -225 26l28 236q100 -24 182 -24t132.5 36.5t78.5 127.5l9 37h-112l-346 1059h300l246 -774l253 774h298l-389 -1167q-60 -173 -173 -252t-282 -79z" />
    <glyph glyph-name="Efcyrillic" unicode="&#x424;" 
d="M464 393h35v704h-35q-69 0 -98 -68t-29 -191v-194q0 -123 29 -187t98 -64zM896 838q0 259 -121 259h-43v-704h43q65 0 93 64t28 187v194zM765 168h-24v-187h-251v187h-23q-188 0 -286.5 127.5t-98.5 348.5v194q0 225 98.5 354.5t288.5 129.5h21v186h251v-186h24
q188 0 287 -129.5t99 -354.5v-194q0 -222 -99 -349t-287 -127z" />
    <glyph glyph-name="Khacyrillic" unicode="&#x425;" 
d="M868 0l-257 486l-254 -486h-299l415 765l-372 724h316l229 -437l229 437h300l-393 -722l389 -767h-303z" />
    <glyph glyph-name="Tsecyrillic" unicode="&#x426;" 
d="M890 -279v279h-769v1489h307v-1253h319v1253h305v-1253h145v-515h-307z" />
    <glyph glyph-name="Checyrillic" unicode="&#x427;" 
d="M1104 1489v-1489h-305v488h-190q-255 0 -374.5 107t-119.5 334v560h306v-556q0 -112 46.5 -163t141.5 -51h190v770h305z" />
    <glyph glyph-name="Shacyrillic" unicode="&#x428;" 
d="M86 0v1489h253v-1267h154v1267h246v-1267h155v1267h253v-1489h-1061z" />
    <glyph glyph-name="Shchacyrillic" unicode="&#x429;" 
d="M1219 -337h-260v337h-873v1489h253v-1267h154v1267h246v-1267h155v1267h253v-1267h72v-559z" />
    <glyph glyph-name="Hardsigncyrillic" unicode="&#x42a;" 
d="M564 236h112q89 0 128 44t39 150v160q0 102 -39 146t-128 44h-112v-544zM713 1011q430 0 430 -387v-220q0 -205 -107 -304.5t-325 -99.5h-445v1253h-244v236h542v-478h149z" />
    <glyph glyph-name="Yericyrillic" unicode="&#x42b;" 
d="M350 222h48q63 0 92 44.5t29 152.5v184q0 106 -28.5 148t-92.5 42h-48v-571zM883 0v1489h253v-1489h-253zM97 0v1489h253v-478h52q184 0 273.5 -93t89.5 -283v-242q0 -199 -90 -296t-275 -97h-303z" />
    <glyph glyph-name="Softsigncyrillic" unicode="&#x42c;" 
d="M428 236h212q110 0 163 43t53 147v168q0 101 -53 143.5t-163 42.5h-212v-544zM1162 402q0 -402 -479 -402h-562v1489h307v-478h257q477 0 477 -385v-224z" />
    <glyph glyph-name="Ereversedcyrillic" unicode="&#x42d;" 
d="M1139 484q0 -503 -523 -503q-255 0 -380.5 126t-138.5 394l307 18q11 -177 55.5 -239t166.5 -62t165 69t43 219v174h-303v236h303v60q0 164 -48.5 230t-166.5 66t-161 -65.5t-54 -243.5l-307 18q13 272 138.5 399.5t378.5 127.5q525 0 525 -510v-514z" />
    <glyph glyph-name="IUcyrillic" unicode="&#x42e;" 
d="M806 214q52 0 70 45.5t18 148.5v664q0 106 -18 153.5t-70 47.5t-70.5 -47t-18.5 -154v-664q0 -102 18.5 -148t70.5 -46zM806 -19q-168 0 -252.5 114t-84.5 313v275h-132v-683h-251v1489h251v-575h132v158q0 205 85.5 320.5t253.5 115.5t253.5 -115.5t85.5 -320.5v-664
q0 -199 -86.5 -313t-254.5 -114z" />
    <glyph glyph-name="IAcyrillic" unicode="&#x42f;" 
d="M117 959v126q0 199 111 301.5t329 102.5h555v-1489h-308v544h-132l-272 -544h-326l293 573q-250 78 -250 386zM600 778h204v475h-204q-104 0 -147 -41t-43 -140v-108q0 -102 43 -144t147 -42z" />
    <glyph glyph-name="acyrillic" unicode="&#x430;" 
d="M414 -19q-131 0 -224 86q-93 87 -93 239t99 234q100 82 262 82h261v145q0 79 -41 115t-124 36t-123 -35t-59 -135l-249 45q35 183 137 263t304 80q447 0 449 -358v-448q0 -80 42 -100t122 -7v-219q-286 -63 -343 164h-46q-52 -76 -148 -132t-226 -55zM505 181
q121 0 214 85v188h-224q-59 0 -89 -30t-30 -102t30 -106t99 -35z" />
    <glyph glyph-name="becyrillic" unicode="&#x431;" 
d="M614 207q95 0 135 46.5t40 141.5v214q0 86 -40 127.5t-135 41.5t-134 -42t-39 -127v-214q0 -95 39 -141.5t134 -46.5zM1098 640v-230q0 -212 -127.5 -320.5t-354.5 -108.5t-354.5 114.5t-127.5 349.5v428q0 281 119 422.5t358 171.5l400 50l26 -238l-378 -50
q-117 -19 -174 -86t-59 -205l-2 -96h40q84 163 290 163q153 0 248.5 -98.5t95.5 -266.5z" />
    <glyph glyph-name="vecyrillic" unicode="&#x432;" 
d="M428 209h203q115 0 160 33.5t45 101.5v19q0 69 -43 99.5t-162 30.5h-203v-284zM428 665h203q95 0 134 23t39 88v26q0 65 -36 92.5t-137 27.5h-203v-257zM136 0v1117h480q229 0 355.5 -65t126.5 -212v-39q0 -91 -63 -144.5t-173 -60.5v-41q134 -9 200 -74.5t66 -156.5v-30
q0 -145 -117 -219.5t-395 -74.5h-480z" />
    <glyph glyph-name="gecyrillic" unicode="&#x433;" 
d="M207 0v1117h867v-236h-560v-881h-307z" />
    <glyph glyph-name="decyrillic" unicode="&#x434;" 
d="M339 0v-279h-279v515h108q74 60 78 302l9 579h775v-881h143v-515h-279v279h-555zM449 236h301v645h-227l-4 -350q-4 -148 -70 -252v-43z" />
    <glyph glyph-name="iecyrillic" unicode="&#x435;" 
d="M441 745v-78h350v65q0 112 -39 159t-136 47t-136 -44t-39 -149zM136 397v325q0 198 130 306t352 108t351 -110q128 -110 128 -315v-212h-656v-119q0 -194 185 -194q95 0 147 30t83 110l257 -69q-59 -151 -165 -213t-322 -62t-353 104q-137 106 -137 311z" />
    <glyph glyph-name="zhecyrillic" unicode="&#x436;" 
d="M506 685v432h222v-432h45l173 432h259l-233 -499l233 -618h-255l-159 492h-63v-492h-222v492h-70l-159 -492h-249l231 618l-237 499h254l180 -432h50z" />
    <glyph glyph-name="zecyrillic" unicode="&#x437;" 
d="M632 -19q-256 0 -373.5 90.5t-130.5 289.5l278 13q13 -117 58.5 -157t161.5 -40t156.5 41t40.5 121v18q0 74 -39 109t-162 35h-82v171h82q91 0 130 24.5t39 94.5v26q0 69 -37 96t-132 27t-135 -36t-51 -141l-278 15q13 188 125.5 273t346.5 85t351 -71t117 -225v-38
q0 -91 -63 -143t-173 -59v-41q134 -9 200 -75.5t66 -155.5v-30q0 -162 -120 -239.5t-376 -77.5z" />
    <glyph glyph-name="iicyrillic" unicode="&#x438;" 
d="M834 0v754l-378 -754h-320v1117h262v-799l401 799h298v-1117h-263z" />
    <glyph glyph-name="iishortcyrillic" unicode="&#x439;" 
d="M834 0v754l-378 -754h-320v1117h262v-799l401 799h298v-1117h-263zM616 1290q-184 0 -308 95t-122 311l266 19q-2 -125 34 -178t130 -53q95 0 131 53q35 53 33 178l266 -19q2 -216 -122 -311t-308 -95z" />
    <glyph glyph-name="kacyrillic" unicode="&#x43a;" 
d="M473 477v-477h-307v1117h307v-432h67l275 432h323l-345 -508l339 -609h-328l-264 477h-67z" />
    <glyph glyph-name="elcyrillic" unicode="&#x43b;" 
d="M145 212q52 0 78 52.5t28 186.5l8 666h853v-1117h-308v892h-260l-4 -464q-2 -231 -86.5 -340.5t-254.5 -109.5q-69 0 -169 28l33 225q65 -19 82 -19z" />
    <glyph glyph-name="emcyrillic" unicode="&#x43c;" 
d="M117 0v1117h306l199 -570l195 570h298v-1117h-262l28 737l-159 -458h-208l-164 466l30 -745h-263z" />
    <glyph glyph-name="encyrillic" unicode="&#x43d;" 
d="M136 0v1117h305v-380h350v380h306v-1117h-306v501h-350v-501h-305z" />
    <glyph glyph-name="ocyrillic" unicode="&#x43e;" 
d="M616 207q91 1 133 47t42 150v303q0 107 -42 155t-133 48t-133 -47t-42 -154v-299q0 -106 42 -154t133 -49zM616 -19q-228 0 -354 108t-126 302v328q0 195 127 306q128 111 355 111t354 -112t126 -311v-328q0 -190 -128 -297t-354 -107z" />
    <glyph glyph-name="pecyrillic" unicode="&#x43f;" 
d="M136 0v1117h961v-1117h-306v881h-350v-881h-305z" />
    <glyph glyph-name="ercyrillic" unicode="&#x440;" 
d="M670 -15q-127 0 -229 47v-404h-305v1489h305v-186h52q35 95 115 150t187 55q141 0 221 -99t81 -272v-370q0 -188 -115 -299t-312 -111zM621 209q87 1 129 45t41 144v323q0 175 -138 175q-109 0 -212 -120v-512q93 -55 180 -55z" />
    <glyph glyph-name="escyrillic" unicode="&#x441;" 
d="M634 -19q-243 0 -371 109t-127 314v311q0 203 128 312t359 109t344 -104t135 -302l-296 -23q-7 112 -49 158q-42 45 -136 45t-137 -47t-43 -163v-285q0 -114 43 -161q42 -47 138 -47t138 36q41 36 46 129l296 -22q-11 -182 -118 -276t-350 -93z" />
    <glyph glyph-name="tecyrillic" unicode="&#x442;" 
d="M464 0v881h-352v236h1011v-236h-354v-881h-305z" />
    <glyph glyph-name="ucyrillic" unicode="&#x443;" 
d="M344 -391q-95 0 -247 22l18 224q139 -28 223 -27q85 2 137 46t82 156l5 17h-188l-298 1070h315l225 -869l237 869h301l-327 -1115q-63 -212 -176 -302t-307 -91z" />
    <glyph glyph-name="efcyrillic" unicode="&#x444;" 
d="M756 920h-37v-725h37q63 0 101.5 47.5t38.5 152.5v326q0 104 -38.5 151.5t-101.5 47.5zM477 195h37v725h-37q-61 0 -100.5 -47.5t-39.5 -151.5v-326q0 -104 39.5 -152t100.5 -48zM786 0h-45v-372h-249v372h-45q-168 0 -263 103.5t-95 287.5v337q0 184 95 286.5t263 102.5
h45v372h249v-372h45q168 0 262.5 -102.5t94.5 -286.5v-337q0 -184 -94.5 -287.5t-262.5 -103.5z" />
    <glyph glyph-name="khacyrillic" unicode="&#x445;" 
d="M819 0l-218 346l-197 -346h-307l368 568l-342 549h309l194 -309l176 309h306l-341 -536l365 -581h-313z" />
    <glyph glyph-name="tsecyrillic" unicode="&#x446;" 
d="M899 -279v279h-763v1117h305v-881h313v881h305v-881h131v-515h-291z" />
    <glyph glyph-name="checyrillic" unicode="&#x447;" 
d="M760 1117h307v-1117h-307v350q-94 -28 -203 -28q-442 0 -442 434v361h306v-357q0 -114 45.5 -159.5t127.5 -47.5t166 33v531z" />
    <glyph glyph-name="shacyrillic" unicode="&#x448;" 
d="M89 0v1117h248v-897h156v897h246v-897h157v897h247v-1117h-1054z" />
    <glyph glyph-name="shchacyrillic" unicode="&#x449;" 
d="M1212 -279h-246v279h-877v1117h248v-897h156v897h246v-897h157v897h247v-894h69v-502z" />
    <glyph glyph-name="hardsigncyrillic" unicode="&#x44a;" 
d="M581 225h125q78 0 114 32t36 104v77q0 73 -36 101.5t-114 28.5h-125v-343zM752 0h-476v881h-257v236h562v-329h173q192 0 300 -92.5t108 -256.5v-95q0 -162 -108 -253t-302 -91z" />
    <glyph glyph-name="yericyrillic" unicode="&#x44b;" 
d="M350 210h56q67 0 98.5 33t31.5 113v111q0 76 -31.5 107t-98.5 31h-56v-395zM883 0v1117h253v-1117h-253zM97 0v1117h253v-305h67q168 0 260 -83t92 -232v-164q0 -158 -93 -245.5t-261 -87.5h-318z" />
    <glyph glyph-name="softsigncyrillic" unicode="&#x44c;" 
d="M432 225h207q93 0 136.5 30t43.5 104v69q0 74 -43.5 107t-136.5 33h-207v-343zM127 0v1117h305v-329h259q205 0 320 -92.5t115 -259.5v-88q0 -166 -115 -257t-322 -91h-562z" />
    <glyph glyph-name="ereversedcyrillic" unicode="&#x44d;" 
d="M600 -19q-240 0 -356 89.5t-129 277.5l298 23q7 -101 43.5 -142t143 -41t149 49.5t42.5 160.5v88h-292v182h292v56q0 108 -41.5 155.5t-143.5 47.5t-143.5 -38t-49.5 -137l-298 23q20 186 137.5 273.5t349.5 87.5t363.5 -107t131.5 -314v-309q0 -205 -128.5 -315
t-368.5 -110z" />
    <glyph glyph-name="iucyrillic" unicode="&#x44e;" 
d="M805 195q51 0 71 36.5t20 112.5v421q0 80 -20 118.5t-71 38.5t-69.5 -38.5t-18.5 -118.5v-421q0 -76 18.5 -112.5t69.5 -36.5zM806 -19q-168 0 -252.5 97t-84.5 266v162h-128v-506h-255v1117h255v-398h128v46q0 173 85.5 272t253.5 99t253.5 -99t85.5 -272v-421
q0 -168 -86.5 -265.5t-254.5 -97.5z" />
    <glyph glyph-name="iacyrillic" unicode="&#x44f;" 
d="M162 713v52q0 169 92 260.5t265 91.5h578v-1117h-306v357h-111l-229 -357h-332l250 387q-207 66 -207 326zM590 568h201v335h-201q-63 0 -92 -30t-29 -113v-41q0 -88 29 -119.5t92 -31.5z" />
    <glyph glyph-name="iegravecyrillic" unicode="&#x450;" 
d="M441 745v-78h350v65q0 112 -39 159t-136 47t-136 -44t-39 -149zM136 397v325q0 198 130 306t352 108t351 -110q128 -110 128 -315v-212h-656v-119q0 -194 185 -194q95 0 147 30t83 110l257 -69q-59 -151 -165 -213t-322 -62t-353 104q-137 106 -137 311zM598 1303
l-373 373h391l192 -373h-210z" />
    <glyph glyph-name="iocyrillic" unicode="&#x451;" 
d="M441 745v-78h350v65q0 112 -39 159t-136 47t-136 -44t-39 -149zM136 397v325q0 198 130 306t352 108t351 -110q128 -110 128 -315v-212h-656v-119q0 -194 185 -194q95 0 147 30t83 110l257 -69q-59 -151 -165 -213t-322 -62t-353 104q-137 106 -137 311zM678 1448
q0 135 154 135q71 0 114 -30t43 -105v-22q0 -70 -44 -98t-113 -28q-70 0 -112 28t-42 98v22zM244 1448q0 135 156 135t155 -135v-22q0 -126 -155 -126q-68 0 -112 28t-44 98v22z" />
    <glyph glyph-name="djecyrillic" unicode="&#x452;" 
d="M667 780q-118 0 -226 -156v-624h-305v1139h-171v172h171v178h305v-178h287v-172h-287v-324h52q39 95 120 150t201 55t201.5 -87.5t81.5 -238.5v-709q0 -188 -121.5 -281t-290.5 -93q-106 0 -231 41l34 214q102 -37 160 -37q143 0 143 184v605q0 80 -32.5 121t-91.5 41z
" />
    <glyph glyph-name="gjecyrillic" unicode="&#x453;" 
d="M207 0v1117h867v-236h-560v-881h-307zM428 1303l192 373h391l-374 -373h-209z" />
    <glyph glyph-name="ecyrillic" unicode="&#x454;" 
d="M634 -19q-240 0 -369 110t-129 315v309q0 207 133 314t365 107t347.5 -87.5t135.5 -273.5l-296 -23q-7 97 -50 136t-143 39t-143.5 -46.5t-43.5 -156.5v-61h324v-171h-324v-94q0 -112 44 -160t147 -48t142.5 40t46.5 141l296 -23q-13 -188 -128 -277.5t-355 -89.5z" />
    <glyph glyph-name="dzecyrillic" unicode="&#x455;" 
d="M462 819q0 -63 55 -90t200 -57q199 -34 290 -112t91 -232t-130 -248q-130 -95 -355 -95q-133 0 -263 38t-225 104l76 193q95 -62 208 -96t203 -34t136 27t46 91t-46 92t-169 52q-212 37 -316 109q-105 71 -105 229t122 252t338 94t419 -129l-63 -186q-196 112 -354 112
t-158 -114z" />
    <glyph glyph-name="icyrillic.salt_serifs" unicode="&#xe02e;" 
d="M769 225h322v-225h-627v892h-323v225h628v-892zM413 1448q0 135 203 135q91 0 147 -30t56 -105v-22q0 -70 -57 -98t-147 -28t-146 28t-56 98v22z" />
    <glyph glyph-name="icyrillic.salt_serifs" unicode="&#x456;" 
d="M769 225h322v-225h-627v892h-323v225h628v-892zM413 1448q0 135 203 135q91 0 147 -30t56 -105v-22q0 -70 -57 -98t-147 -28t-146 28t-56 98v22z" />
    <glyph glyph-name="yicyrillic.salt_serifs" unicode="&#xe02f;" 
d="M769 225h322v-225h-627v892h-323v225h628v-892zM668 1448q0 135 155 135q71 0 113 -30t43 -105v-22q0 -71 -43 -99q-44 -27 -113 -27t-112 28t-43 98v22zM235 1448q-1 135 155 135t156 -135v-22q0 -126 -155 -126q-69 0 -113 28t-43 98v22z" />
    <glyph glyph-name="yicyrillic.salt_serifs" unicode="&#x457;" 
d="M769 225h322v-225h-627v892h-323v225h628v-892zM668 1448q0 135 155 135q71 0 113 -30t43 -105v-22q0 -71 -43 -99q-44 -27 -113 -27t-112 28t-43 98v22zM235 1448q-1 135 155 135t156 -135v-22q0 -126 -155 -126q-69 0 -113 28t-43 98v22z" />
    <glyph glyph-name="jecyrillic" unicode="&#x458;" 
d="M620 22v870h-436v225h743v-1124q0 -181 -136 -281t-341 -101q-205 0 -327 41l35 214q110 -39 227 -38q115 2 175 46t60 148zM557 1448q0 135 203 135q91 0 147 -30t56 -105v-22q0 -70 -57 -98t-147 -28t-146 28t-56 98v22z" />
    <glyph glyph-name="ljecyrillic" unicode="&#x459;" 
d="M756 199h58q52 0 74 35.5t22 117.5v106q0 73 -22 103.5t-74 30.5h-58v-393zM78 216q62 0 65 97l10 804h603v-329h106q134 0 209.5 -81t75.5 -229v-145q0 -158 -75.5 -245.5t-211.5 -87.5h-341v916h-137l-6 -668q-2 -127 -70 -193t-185 -66q-63 0 -127 18l34 220
q24 -11 50 -11z" />
    <glyph glyph-name="njecyrillic" unicode="&#x45a;" 
d="M328 538v-538h-237v1117h237v-369h188v369h236v-305h108q134 0 208.5 -80t74.5 -224v-193q0 -149 -75.5 -232t-209.5 -83h-342v538h-188zM752 199h58q52 0 74.5 32t22.5 106v140q0 74 -22.5 106.5t-74.5 32.5h-58v-417z" />
    <glyph glyph-name="tshecyrillic" unicode="&#x45b;" 
d="M668 780q-118 0 -227 -164v-616h-305v1139h-171v172h171v178h305v-178h287v-172h-287v-325h52q37 98 119 152t203 54q120 0 201 -89t81 -238v-693h-306v613q0 167 -123 167z" />
    <glyph glyph-name="kjecyrillic" unicode="&#x45c;" 
d="M473 477v-477h-307v1117h307v-432h67l275 432h323l-345 -508l339 -609h-328l-264 477h-67zM503 1303l191 373h391l-374 -373h-208z" />
    <glyph glyph-name="igravecyrillic" unicode="&#x45d;" 
d="M834 0v754l-378 -754h-320v1117h262v-799l401 799h298v-1117h-263zM618 1303l-372 373h391l192 -373h-211z" />
    <glyph glyph-name="ushortcyrillic" unicode="&#x45e;" 
d="M344 -391q-95 0 -247 22l18 224q139 -28 223 -27q85 2 137 46t82 156l5 17h-188l-298 1070h315l225 -869l237 869h301l-327 -1115q-63 -212 -176 -302t-307 -91zM616 1290q-184 0 -308 95t-122 311l266 19q-2 -125 34 -178t130 -53q95 0 131 53q35 53 33 178l266 -19
q2 -216 -122 -311t-308 -95z" />
    <glyph glyph-name="dzhecyrillic" unicode="&#x45f;" 
d="M471 -279v279h-335v1117h305v-881h350v881h306v-1117h-336v-279h-290z" />
    <glyph glyph-name="Gheupturncyrillic" unicode="&#x490;" 
d="M190 0v1489h650v280h305v-516h-650v-1253h-305z" />
    <glyph glyph-name="gheupturncyrillic" unicode="&#x491;" 
d="M207 0v1117h577v279h290v-515h-560v-881h-307z" />
    <glyph glyph-name="Wgrave" unicode="&#x1e80;" 
d="M750 0l-132 724l-130 -724h-272l-177 1489h264l77 -1120l126 748h218l132 -732l75 1104h262l-176 -1489h-267zM594 1676l-372 372h391l191 -372h-210z" />
    <glyph glyph-name="wgrave" unicode="&#x1e81;" 
d="M754 0l-138 590l-130 -590h-276l-165 1117h262l91 -784l118 587h195l129 -570l85 767h263l-166 -1117h-268zM590 1303l-372 373h391l192 -373h-211z" />
    <glyph glyph-name="Wacute" unicode="&#x1e82;" 
d="M750 0l-132 724l-130 -724h-272l-177 1489h264l77 -1120l126 748h218l132 -732l75 1104h262l-176 -1489h-267zM398 1676l192 372h391l-374 -372h-209z" />
    <glyph glyph-name="wacute" unicode="&#x1e83;" 
d="M754 0l-138 590l-130 -590h-276l-165 1117h262l91 -784l118 587h195l129 -570l85 767h263l-166 -1117h-268zM462 1303l191 373h391l-374 -373h-208z" />
    <glyph glyph-name="Wdieresis" unicode="&#x1e84;" 
d="M750 0l-132 724l-130 -724h-272l-177 1489h264l77 -1120l126 748h218l132 -732l75 1104h262l-176 -1489h-267zM1002 1799q0 -127 -156 -127t-155 127v22q-1 134 155 134t156 -134v-22zM568 1799q0 -127 -156 -127t-155 127v22q-1 134 155 134t156 -134v-22z" />
    <glyph glyph-name="wdieresis" unicode="&#x1e85;" 
d="M754 0l-138 590l-130 -590h-276l-165 1117h262l91 -784l118 587h195l129 -570l85 767h263l-166 -1117h-268zM691 1448q0 135 154 135q71 0 114 -30t43 -105v-22q0 -70 -44 -98t-113 -28t-111 28t-43 98v22zM257 1448q-1 135 155 135t156 -135v-22q0 -126 -155 -126
q-69 0 -113 28t-43 98v22z" />
    <glyph glyph-name="Ygrave" unicode="&#x1ef2;" 
d="M769 0h-305v559l-421 930h309l266 -659l263 659h307l-419 -930v-559zM590 1676l-372 372h391l192 -372h-211z" />
    <glyph glyph-name="ygrave" unicode="&#x1ef3;" 
d="M344 -391q-95 0 -247 22l18 224q139 -28 223 -27q85 2 137 46t82 156l5 17h-188l-298 1070h315l225 -869l237 869h301l-327 -1115q-63 -212 -176 -302t-307 -91zM590 1303l-372 373h391l192 -373h-211z" />
    <glyph glyph-name="uni2000" unicode="&#x2000;" 
 />
    <glyph glyph-name="uni2001" unicode="&#x2001;" 
 />
    <glyph glyph-name="uni2002" unicode="&#x2002;" 
 />
    <glyph glyph-name="uni2003" unicode="&#x2003;" 
 />
    <glyph glyph-name="uni2004" unicode="&#x2004;" 
 />
    <glyph glyph-name="uni2005" unicode="&#x2005;" 
 />
    <glyph glyph-name="uni2007" unicode="&#x2007;" 
 />
    <glyph glyph-name="uni2009" unicode="&#x2009;" 
 />
    <glyph glyph-name="uni200A" unicode="&#x200a;" 
 />
    <glyph glyph-name="uni200B" unicode="&#x200b;" horiz-adv-x="0" 
 />
    <glyph glyph-name="endash" unicode="&#x2013;" 
d="M108 525v266h1017v-266h-1017z" />
    <glyph glyph-name="emdash" unicode="&#x2014;" 
d="M19 525v266h1195v-266h-1195z" />
    <glyph glyph-name="horizontalbar" unicode="&#x2015;" 
d="M19 525v266h1195v-266h-1195z" />
    <glyph glyph-name="underscoredbl" unicode="&#x2017;" 
d="M125 0v266h983v-266h-983zM125 -478v266h983v-266h-983z" />
    <glyph glyph-name="quoteright" unicode="&#x2019;" 
d="M307 687l168 802h452l-419 -802h-201z" />
    <glyph glyph-name="quotesinglbase" unicode="&#x201a;" 
d="M333 -315l132 801h455l-386 -801h-201z" />
    <glyph glyph-name="quotereversed" unicode="&#x201b;" 
d="M702 687l-421 802h454l168 -802h-201z" />
    <glyph glyph-name="quotedblleft" unicode="&#x201c;" 
d="M56 687l402 802h181l-159 -802h-424zM611 687l394 802h181l-151 -802h-424z" />
    <glyph glyph-name="quotedblright" unicode="&#x201d;" 
d="M47 687l150 802h425l-395 -802h-180zM594 687l158 802h425l-402 -802h-181z" />
    <glyph glyph-name="quotedblbase" unicode="&#x201e;" 
d="M-61 -317l150 803h425l-395 -803h-180zM486 -317l158 803h425l-402 -803h-181z" />
    <glyph glyph-name="dagger" unicode="&#x2020;" 
d="M484 -372v1264h-125l-59 -402h-212l52 627h342l-15 372h298l-15 -372h345l50 -627h-212l-60 402h-125v-1264h-264z" />
    <glyph glyph-name="daggerdbl" unicode="&#x2021;" 
d="M484 190v737h-130l-69 -238h-205l52 463h346l-11 337h298l-11 -337h346l52 -463h-204l-69 238h-131v-737h131l69 238h204l-52 -463h-346l11 -337h-298l11 337h-346l-52 463h205l69 -238h130z" />
    <glyph glyph-name="bullet" unicode="&#x2022;" 
d="M616 439q-126 0 -205.5 57t-79.5 178v134q0 123 79.5 181.5t208 58.5t206.5 -58.5t78 -181.5v-134q0 -121 -80.5 -178t-206.5 -57z" />
    <glyph glyph-name="ellipsis" unicode="&#x2026;" 
d="M208 -17q-60 0 -97.5 38.5t-37.5 118.5v193q0 82 38.5 121t98.5 39t96.5 -39t36.5 -121v-193q0 -80 -37.5 -118.5t-97.5 -38.5zM615 -17q-59 0 -96 38.5t-37 118.5v193q0 82 37.5 121t97.5 39t96.5 -39t36.5 -121v-193q0 -80 -38 -118.5t-97 -38.5zM1023 -17
q-59 0 -96 38.5t-37 118.5v193q0 82 37 121t97 39t98 -39t38 -121v-193q0 -80 -39 -118.5t-98 -38.5z" />
    <glyph glyph-name="perthousand" unicode="&#x2030;" 
d="M1017 339q0 108 -55 108t-55 -108v-116q0 -102 55 -102t55 102v116zM672 447q-54 0 -54 -108v-116q0 -102 54 -102t54 102v116q0 108 -54 108zM970 613q105 0 164 -71t59 -216v-84q0 -145 -60 -214t-165 -69t-153 101q-50 -101 -169 -101q-91 0 -148 69t-57 214v84
q0 145 61.5 216t163.5 71t151 -101q48 101 153 101zM1186 1087l-1065 -726l-89 136l1061 726zM400 1247q0 108 -74.5 108t-74.5 -108v-111q0 -106 74.5 -106t74.5 106v111zM327 864q-122 0 -198.5 70t-76.5 215v91q0 145 76.5 216t199.5 71t197.5 -71t74.5 -216v-91
q0 -145 -75.5 -215t-197.5 -70z" />
    <glyph glyph-name="minute" unicode="&#x2032;" 
d="M317 687l167 802h452l-418 -802h-201z" />
    <glyph glyph-name="second" unicode="&#x2033;" 
d="M-76 687l150 802h425l-395 -802h-180zM471 687l158 802h425l-402 -802h-181z" />
    <glyph glyph-name="guilsinglleft" unicode="&#x2039;" 
d="M940 95l-648 406v301l648 406v-268l-456 -288l456 -289v-268z" />
    <glyph glyph-name="guilsinglright" unicode="&#x203a;" 
d="M292 95v268l458 289l-458 288v268l648 -406v-301z" />
    <glyph glyph-name="exclamdbl" unicode="&#x203c;" 
d="M538 138q0 -157 -206 -157t-205 157v52q0 160 205.5 160t205.5 -160v-52zM1125 138q0 -157 -206 -157t-206 157v52q0 160 206 160t206 -160v-52zM216 559l-50 930h320l-52 -930h-218zM802 559l-50 930h320l-52 -930h-218z" />
    <glyph glyph-name="overline" unicode="&#x203e;" 
d="M125 1596v266h983v-266h-983z" />
    <glyph glyph-name="fraction" unicode="&#x2215;" 
d="M149 0l683 1489h252l-684 -1489h-251z" />
    <glyph glyph-name="fraction" unicode="&#x2044;" 
d="M149 0l683 1489h252l-684 -1489h-251z" />
    <glyph glyph-name="zero.sups" unicode="&#x2070;" 
d="M614 719q88 0 117 58.5t29 186.5v121q0 130 -28 191t-117 61t-115.5 -60.5t-26.5 -191.5v-121q0 -128 26.5 -186.5t114.5 -58.5zM614.5 555q-184.5 0 -281.5 101.5t-97 285.5v166q0 186 98 289.5t282.5 103.5t282 -103.5t97.5 -289.5v-166q0 -184 -98.5 -285.5
t-283 -101.5z" />
    <glyph glyph-name="four.sups" unicode="&#x2074;" 
d="M1052 789h-158v-223h-237v223h-435v166l387 534h285v-534h158v-166zM657 955v318l-234 -318h234z" />
    <glyph glyph-name="five.sups" unicode="&#x2075;" 
d="M667 1179q333 0 333 -254v-108q0 -114 -91 -188t-293 -74t-294.5 68t-99.5 235l236 11q9 -88 43.5 -119t118.5 -31t112.5 28.5t28.5 105.5v31q0 69 -38 94.5t-138 25.5h-332v485h717v-163h-480v-147h177z" />
    <glyph glyph-name="six.sups" unicode="&#x2076;" 
d="M614.5 721q85.5 0 116 33.5t30.5 90.5v15q0 69 -30.5 105.5t-116 36.5t-115.5 -36.5t-30 -105.5v-15q0 -65 30 -94.5t115.5 -29.5zM233 1164q1 337 377 337q198 0 278 -65.5t101 -182.5l-246 -28q-13 69 -44 90.5t-109 21.5t-99.5 -44t-21.5 -131v-95h11q61 76 226 76
t229.5 -70.5t64.5 -204.5v-25q0 -123 -92.5 -205.5t-292.5 -82.5t-291 86.5t-91 242.5v280z" />
    <glyph glyph-name="seven.sups" unicode="&#x2077;" 
d="M233 1314v175h767v-175q-110 -209 -185.5 -376t-123.5 -372h-246q65 246 136.5 405t179.5 343h-528z" />
    <glyph glyph-name="eight.sups" unicode="&#x2078;" 
d="M616 719q88 0 116.5 30.5t28.5 84.5v26q0 54 -28.5 86.5t-117.5 32.5t-117.5 -32.5t-28.5 -86.5v-26q0 -54 29.5 -84.5t117.5 -30.5zM615 1123q59 0 92.5 19.5t33.5 69.5v35q0 52 -33.5 71t-92.5 19t-92 -18.5t-33 -71.5v-35q0 -50 33 -69.5t92 -19.5zM253 1266
q0 235 361 235q175 0 269 -54t94 -181v-37q0 -69 -45.5 -111t-112.5 -49v-34q84 -7 132.5 -59.5t48.5 -132.5v-26q0 -127 -84 -194.5t-301 -67.5t-299.5 69.5t-82.5 192.5v26q0 80 46.5 132.5t131.5 59.5v34q-67 7 -112.5 49t-45.5 111v37z" />
    <glyph glyph-name="nine.sups" unicode="&#x2079;" 
d="M614 1501q386 0 386 -330v-277q0 -162 -88.5 -250.5t-289.5 -88.5t-279.5 64t-100.5 185l246 26q13 -71 44.5 -91t109.5 -20t98.5 44.5t20.5 130.5v95h-13q-62 -77 -221 -77q-158 0 -226 68t-68 208v24q0 125 91 207t290 82zM616.5 1054q85.5 0 115 36t29.5 105v15
q0 67 -29.5 97t-115 30t-115.5 -33.5t-30 -93.5v-15q0 -69 30 -105t115.5 -36z" />
    <glyph glyph-name="nsuperior" unicode="&#x207f;" 
d="M467 560h-260v931h260v-150h49q33 80 102 126q70 41 140 41q131 0 200 -92q68 -92 68 -260v-596h-261v579q0 86 -28 123q-27 41 -72 41q-97 0 -198 -149v-594z" />
    <glyph glyph-name="zero.sinf" unicode="&#x2080;" 
d="M473 398q1 -128 27 -186t114 -59q88 0 118 58q28 59 28 187v121q0 130 -28 191t-117 61t-115 -61t-27 -191v-121zM614 -11q-184 0 -281 101t-97 286v166q0 186 98 289t282 103t282 -102q98 -104 98 -290v-166q0 -184 -99 -286t-283 -101z" />
    <glyph glyph-name="one.sinf" unicode="&#x2081;" 
d="M318 0v177h233v538h-33q-17 -78 -78 -124t-135 -51l-9 175q80 9 155 61q74 52 104 147h233v-746h212v-177h-682z" />
    <glyph glyph-name="two.sinf" unicode="&#x2082;" 
d="M614 935q373 0 375 -276v-45q0 -104 -54 -166t-142 -81l-208 -47q-65 -13 -91 -34t-25 -74v-35h531v-177h-767v210q0 222 199 267l208 46q60 13 86 38t26 83v19q0 61 -35 85t-103 23q-68 0 -98 -26q-32 -26 -36 -112l-238 13q7 145 95 217t277 72z" />
    <glyph glyph-name="three.sinf" unicode="&#x2083;" 
d="M1000 253q0 -147 -100 -205t-288 -59q-376 0 -390 281l236 11q8 -69 42 -93t116 -24t114 23t31 76v27q0 58 -34 81t-111 24h-182v173h182q65 0 95 17t30 67v20q0 52 -34 70q-33 18 -103 18t-95 -20t-29 -73l-238 11q9 141 102 199t261 58q168 -1 270 -51t102 -180v-21
q1 -79 -45 -125t-117 -55v-34q69 -6 127 -56t58 -141v-19z" />
    <glyph glyph-name="four.sinf" unicode="&#x2084;" 
d="M1052 223h-158v-223h-237v223h-435v166l387 534h285v-534h158v-166zM657 389v318l-234 -318h234z" />
    <glyph glyph-name="five.sinf" unicode="&#x2085;" 
d="M667 613q333 0 333 -254v-108q0 -114 -90 -188t-294 -74q-202 0 -295 68q-92 68 -99 235l236 11q10 -87 44 -119t118 -32t113 30q29 29 28 105v31q0 69 -38 94t-138 26h-332v485h717v-163h-480v-147h177z" />
    <glyph glyph-name="six.sinf" unicode="&#x2086;" 
d="M614 155q86 -1 117 33t30 91v15q0 69 -30 105q-31 37 -117 37t-116 -36t-29 -106v-15q-1 -65 29 -95t116 -29zM706 577q166 0 230 -71t64 -204v-25q0 -123 -92 -205t-293 -83q-200 1 -291 87t-91 242v280q1 336 377 336q198 0 278 -64q80 -66 101 -183l-246 -28
q-13 69 -44 90t-109 21t-100 -43q-20 -44 -21 -131v-95h11q61 76 226 76z" />
    <glyph glyph-name="seven.sinf" unicode="&#x2087;" 
d="M233 748v175h767v-175q-110 -208 -185 -376t-124 -372h-246q65 246 137 405t179 343h-528z" />
    <glyph glyph-name="eight.sinf" unicode="&#x2088;" 
d="M469 268q-1 -54 29 -84t118 -31q88 0 117 30q29 31 28 85v26q0 54 -28 87q-29 33 -118 33t-117 -34q-28 -32 -29 -86v-26zM490 646q0 -50 33 -70t92 -19q59 -1 93 19t33 70v35q0 52 -34 71q-35 19 -93 19t-92 -19t-32 -71v-35zM253 700q0 235 361 235q175 0 269 -54
t94 -181v-37q1 -69 -45 -111t-113 -49v-34q84 -7 132 -59t49 -133v-26q0 -127 -84 -195t-301 -67q-217 0 -299 70t-83 192v26q0 80 46 133q47 52 132 59v34q-67 7 -113 49t-45 111v37z" />
    <glyph glyph-name="nine.sinf" unicode="&#x2089;" 
d="M614 935q386 0 386 -330v-277q0 -162 -88 -250t-290 -89q-201 0 -279 64t-101 185l246 26q12 -71 44 -91t110 -20q78 1 99 45q20 44 20 130v95h-13q-62 -77 -221 -77q-158 0 -226 68t-68 208v24q0 125 91 207t290 82zM616 488q86 0 116 36t29 105v15q0 67 -29 97
q-30 30 -116 30t-116 -34t-29 -93v-15q-1 -69 29 -105t116 -36z" />
    <glyph glyph-name="franc" unicode="&#x20a3;" 
d="M728 289h-274v-289h-307v289h-171v203h171v997h981v-236h-674v-289h555v-234h-555v-238h274v-203z" />
    <glyph glyph-name="lira" unicode="&#x20a4;" 
d="M39 881v171h101v4q6 327 190 389.5t310 62.5q250 0 375 -119q118 -118 130 -361l-289 -19q-13 140 -56.5 194t-153.5 54q-199 0 -199 -203l300 -2v-171h-263q5 -15 11 -25t8.5 -17t6.5 -18t12 -26t14 -31t11.5 -32.5t11.5 -33.5h188v-171h-179q-14 -56 -60 -108
q-42 -53 -119 -95l30 -58q105 59 183 30q27 -10 52.5 -20t52 -20t62.5 -10q76 0 105 56t38 190l289 -19q-14 -240 -119 -367q-107 -125 -291 -125q-62 0 -143 30q-34 15 -13 5l-125 62q-154 75 -233 17l-156 -112l-130 190l173 110q46 30 95 102q46 79 50 142h-270v171h237
l-94 183h-143z" />
    <glyph glyph-name="peseta" unicode="&#x20a7;" 
d="M864 588.5q-19 31.5 -43 90.5t-24 133t11 134h-80v-682q0 -84 16.5 -101.5t24.5 -17.5h11q12 0 20 3t14 5l26 46q67 -58 122.5 -58t55.5 127q0 76 -31.5 126.5t-67.5 106.5t-55 87.5zM1000 976q-41 0 -41 -112t39 -168t69 -98q84 -119 98.5 -192t14.5 -136
q0 -138 -66 -213q-66 -76 -166 -76q-41 0 -92 17q-21 -7 -63 -13l-59 -2q-76 1 -122 69t-46 222v672h-76v-125q0 -300 -205 -300h-37v-521h-177v1489h216q203 0 203 -299v-73h76v372h162v-372h179v-7q39 26 77 26q58 0 100.5 -17t95.5 -61l-78 -140q-34 31 -55 44
q-21 14 -47 14zM326 1182q0 136 -69 136h-22v-629h22q69 0 69 136v357z" />
    <glyph glyph-name="Euro" unicode="&#x20ac;" 
d="M647 -19q-241 0 -359.5 127t-118.5 357v6h-143v169h143v205h-143v170h143v3q0 233 121 361.5t361 128.5t351 -119t124 -372l-266 -19q-11 155 -55.5 214.5t-160.5 59.5t-161 -63.5t-45 -188.5v-5h284v-170h-286v-205h286v-169h-284v-6q0 -125 46 -186t168 -61t159.5 62.5
t48.5 203.5l266 -19q-13 -249 -125.5 -366.5t-353.5 -117.5z" />
    <glyph glyph-name="careof" unicode="&#x2105;" 
d="M795 225q0 -104 83 -104t83 104v114q0 80 -32 94t-50 14q-84 0 -84 -108v-114zM843 -41q-103 0 -181.5 70.5t-78.5 212.5v93q0 211 114.5 249t215.5 38t180.5 -71.5t79.5 -215.5v-93q0 -212 -113.5 -247.5t-216.5 -35.5zM48 385l1026 862l118 -147l-1032 -864zM60 1149
v91q0 211 114.5 249t179.5 38q260 0 283 -226l-199 -24q0 35 -21 55t-61 20q-84 0 -84 -108v-112q0 -106 83 -106t83 72l199 -14q-24 -220 -281 -220q-134 0 -215 69q-81 73 -81 216z" />
    <glyph glyph-name="lsquare" unicode="&#x2113;" 
d="M662 465q-125 0 -193 40l-13 -82q-14 -97 28 -147q45 -49 127 -49q133 0 309 86l-2 -237q-194 -89 -389 -89q-194 0 -304.5 114.5t-73.5 334.5l115 728q29 177 157 264q113 80 298 80q318 0 348.5 -132t14.5 -225l-64 -393q-22 -145 -128 -222q-105 -71 -230 -71z
M719 1272q-79 0 -108 -28t-43 -105l-56 -350q-23 -122 56 -122t110 25q32 25 43 99l54 337q23 144 -56 144z" />
    <glyph glyph-name="numero" unicode="&#x2116;" 
d="M635 259q0 -114 101.5 -114t101.5 114v72q0 108 -101.5 108t-101.5 -108v-72zM736 -20q-154 0 -246.5 67t-92.5 201v95q0 136 93 204.5t247 68.5t246.5 -69t92.5 -204v-95q0 -134 -93 -201t-247 -67zM413 730h-257v759h311l352 -476v476h259v-759h-333l-332 447v-447z
" />
    <glyph glyph-name="uni2117" unicode="&#x2117;" 
d="M728 877q0 136 -93 136h-60v-333h60q41 0 67 25t26 97v75zM950 802q0 -303 -315 -303h-60v-304h-234v1002h296q313 0 313 -320v-75zM616.5 -88q221.5 0 318 141.5t96.5 454.5v354q0 315 -96.5 459t-318 144t-318.5 -144t-97 -459v-354q0 -313 97 -454.5t318.5 -141.5z
M1152 478q0 -683 -536 -683t-536 683v414q0 343 132 517t405 174t404 -174.5t131 -516.5v-414z" />
    <glyph glyph-name="trademark" unicode="&#x2122;" 
d="M549 653v836h216l88 -431l91 431h212v-836h-162l26 689l-104 -433h-130l-103 437l28 -693h-162zM153 653v682h-131v154h430v-154h-111v-682h-188z" />
    <glyph glyph-name="Ohm" unicode="&#x2126;" 
d="M1136 761q0 -289 -196 -390v-170h196v-201h-462v428q84 24 119 110t36 223v229q1 154 -51 216t-162 62t-161 -62t-51 -216v-229q0 -137 35 -223t120 -110v-428h-462v201h195v170q-195 100 -195 390v220q0 257 133 392t386 135q252 0 386 -135t134 -392v-220z" />
    <glyph glyph-name="estimated" unicode="&#x212e;" 
d="M605 1383q-142 0 -225 -96v-486h460v480q-93 102 -235 102zM67 751q0 323 148 544.5t398 221.5t395.5 -251t153.5 -614h-782v-443q97 -97 229 -97q242 0 380 229l82 -110q-153 -253 -462 -253q-244 0 -393 225t-149 548z" />
    <glyph glyph-name="oneeighth" unicode="&#x215b;" 
d="M776 -168v25q0 41 -22 56q-40 26 -121 26t-121 -21q-28 -21 -28 -61v-25q0 -38 28 -59q40 -21 117.5 -21t106.5 16q28 16 34 30t6 34zM756 147v35q0 64 -110.5 64t-125.5 -22.5t-15 -41.5v-35q0 -65 125.5 -65t125.5 65zM268 205q0 193 361 193q180 0 268 -44
q93 -44 93 -149v-37q0 -109 -156 -127v-34q128 -13 153.5 -69.5t25.5 -90.5v-26q0 -112 -87 -166q-87 -53 -342.5 -53t-295.5 82.5t-40 136.5v26q0 104 68 130.5t110 29.5v34q-67 8 -113 39q-45 38 -45 88v37zM694 495v147l520 38v-222zM19 458v222l543 -38v-147zM298 765
v155h233v374h-34q-14 -76 -74 -123q-63 -46 -136 -50l-11 173q88 14 152 61q76 52 106 147h233v-582h212v-155h-681z" />
    <glyph glyph-name="threeeighths" unicode="&#x215c;" 
d="M776 -168v25q0 41 -22 56q-40 26 -121 26t-121 -21q-28 -21 -28 -61v-25q0 -38 28 -59q40 -21 117.5 -21t106.5 16q28 16 34 30t6 34zM756 147v35q0 64 -110.5 64t-125.5 -22.5t-15 -41.5v-35q0 -65 125.5 -65t125.5 65zM268 205q0 193 361 193q180 0 268 -44
q93 -44 93 -149v-37q0 -109 -156 -127v-34q128 -13 153.5 -69.5t25.5 -90.5v-26q0 -112 -87 -166q-87 -53 -342.5 -53t-295.5 82.5t-40 136.5v26q0 104 68 130.5t110 29.5v34q-67 8 -113 39q-45 38 -45 88v37zM694 495v147l520 38v-222zM19 458v222l543 -38v-147zM897 797
q-89 -45 -279 -45t-290 60q-100 64 -106 184l236 11q11 -87 64 -95.5t116 -8.5t92 17q31 13 31 50v28q0 38 -26 51q-43 20 -121 20h-169v150h169q100 0 113.5 23.5t13.5 42.5v20q0 46 -49.5 51t-103.5 5t-79 -14t-29 -55l-238 11q11 165 144 187t313 22t229 -62.5t49 -112.5
v-21q0 -122 -152 -151v-33q75 -9 110 -37q65 -51 65 -116v-18q0 -116 -103 -164z" />
    <glyph glyph-name="fiveeighths" unicode="&#x215d;" 
d="M776 -168v25q0 41 -22 56q-40 26 -121 26t-121 -21q-28 -21 -28 -61v-25q0 -38 28 -59q40 -21 117.5 -21t106.5 16q28 16 34 30t6 34zM756 147v35q0 64 -110.5 64t-125.5 -22.5t-15 -41.5v-35q0 -65 125.5 -65t125.5 65zM268 207q0 191 361 191q180 0 268 -44
q93 -44 93 -147v-38q0 -57 -44 -87q-38 -32 -112 -41v-34q128 -13 153.5 -69.5t25.5 -90.5v-26q0 -112 -87 -166q-87 -53 -342.5 -53t-295.5 82.5t-40 136.5v26q0 104 68 130.5t110 29.5v34q-108 13 -133 56.5t-25 71.5v38zM694 495v147l520 38v-222zM19 458v222l543 -38
v-147zM667 1244q333 0 333 -213v-63q0 -101 -92 -163t-292 -62q-201 0 -296 54q-92 59 -98 193l236 12q8 -62 35 -79q45 -27 133 -27t111 20q24 14 24 69v32q0 42 -26 53q-50 21 -163 21h-319v411h717v-152h-480v-106h177z" />
    <glyph glyph-name="seveneighths" unicode="&#x215e;" 
d="M776 -168v25q0 41 -22 56q-40 26 -121 26t-121 -21q-28 -21 -28 -61v-25q0 -38 28 -59q40 -21 117.5 -21t106.5 16q28 16 34 30t6 34zM756 147v35q0 64 -110.5 64t-125.5 -22.5t-15 -41.5v-35q0 -65 125.5 -65t125.5 65zM268 205q0 193 361 193q180 0 268 -44
q93 -44 93 -149v-37q0 -109 -156 -127v-34q128 -13 153.5 -69.5t25.5 -90.5v-26q0 -112 -87 -166q-87 -53 -342.5 -53t-295.5 82.5t-40 136.5v26q0 104 68 130.5t110 29.5v34q-67 8 -113 39q-45 38 -45 88v37zM694 495v147l520 38v-222zM19 458v222l543 -38v-147zM272 1327
v175h767v-175q-240 -277 -309 -562h-246q47 172 120 300t198 262h-530z" />
    <glyph glyph-name="arrowleft" unicode="&#x2190;" 
d="M683 1408v-512h531v-302h-531v-512h-33l-631 644v37l631 645h33z" />
    <glyph glyph-name="arrowup" unicode="&#x2191;" 
d="M464 -58v838h-449v37l585 730h33l585 -730v-37h-449v-838h-305z" />
    <glyph glyph-name="arrowright" unicode="&#x2192;" 
d="M549 82v512h-530v302h530v512h34l631 -645v-37l-631 -644h-34z" />
    <glyph glyph-name="arrowdown" unicode="&#x2193;" 
d="M-7 665h471v837h305v-837h469v-38l-605 -728h-33l-607 728v38z" />
    <glyph glyph-name="arrowboth" unicode="&#x2194;" 
d="M484 594v-512h-35l-430 644v37l430 645h35v-512h266v512h34l430 -645v-37l-430 -644h-34v512h-266z" />
    <glyph glyph-name="arrowupdn" unicode="&#x2195;" 
d="M15 465h449v559h-449v37l585 672h33l585 -672v-37h-449v-559h449v-37l-585 -672h-33l-585 672v37z" />
    <glyph glyph-name="arrowupdnbse" unicode="&#x21a8;" 
d="M125 -439v253h424l-534 614v37h449v559h-449v37l585 672h33l585 -672v-37h-449v-559h449v-37l-535 -614h425v-253h-983z" />
    <glyph glyph-name="partialdiff" unicode="&#x2202;" 
d="M573.5 205q70.5 0 117.5 45t69 152l22 117q14 93 -22 137t-152 44t-146 -67t-38 -114l-22 -117q-27 -150 37 -173.5t134.5 -23.5zM266 819q127 106 283 106t201 -55t54 -82h36q9 108 -8.5 186t-71.5 138q-104 117 -395 202l221 205q342 -104 464 -298q123 -195 67 -536
l-43 -255q-40 -230 -190 -341q-141 -108 -369 -108t-342 112t-76 326l18 110q30 179 151 290z" />
    <glyph glyph-name="Delta#1" unicode="&#x2206;" 
d="M875 236l-259 1034l-272 -1034h531zM73 0v236l338 1253h423l326 -1253v-236h-1087z" />
    <glyph glyph-name="product" unicode="&#x220f;" 
d="M121 -372v1861h991v-1861h-308v1625h-376v-1625h-307z" />
    <glyph glyph-name="summation" unicode="&#x2211;" 
d="M1102 -136v-236h-988v236l590 713l-590 676v236h988v-236h-689l488 -570v-190l-506 -629h707z" />
    <glyph glyph-name="minus" unicode="&#x2212;" 
d="M125 525v253h983v-253h-983z" />
    <glyph glyph-name="radical" unicode="&#x221a;" 
d="M527 0l-261 683l-229 -35v227l386 56l245 -689l291 1434h285l-369 -1676h-348z" />
    <glyph glyph-name="infinity" unicode="&#x221e;" 
d="M393 1072q-95 0 -95 -335q7 -320 91 -320q78 0 157 253q-47 227 -71 294q-25 66 -42.5 87t-39.5 21zM842 417q93 0 93 335q-7 320 -92 320q-65 0 -101 -97.5t-55 -159.5q67 -327 100 -362.5t55 -35.5zM387 1277q177 0 255 -298q49 149 90 203t75.5 74.5t81.5 20.5
t96.5 -35.5t87.5 -103.5q83 -149 83 -398t-93 -392q-91 -136 -223 -136q-90 0 -148 74t-102 217q-46 -143 -97 -213q-63 -78 -128 -78q-120 0 -205 138q-84 149 -84 393.5t93 397.5q87 136 218 136z" />
    <glyph glyph-name="orthogonal" unicode="&#x221f;" 
d="M190 0v1303h305v-1055h583v-248h-888z" />
    <glyph glyph-name="intersection" unicode="&#x2229;" 
d="M149 0v836q0 228 124 357t345.5 129t343.5 -128t122 -358v-836h-306v821q0 139 -37 199q-36 65 -125 65t-125.5 -66t-36.5 -202v-817h-305z" />
    <glyph glyph-name="integral" unicode="&#x222b;" 
d="M945 1327q-61 0 -118.5 -24t-57.5 -191v-1103q0 -188 -121 -292q-120 -99 -305 -99q-135 0 -244 43l33 207q99 -37 157 -37q100 0 135 50q40 52 40 167v1101q0 187 118.5 290t303.5 103q133 0 248 -45l-34 -205q-94 35 -155 35z" />
    <glyph glyph-name="approxequal" unicode="&#x2248;" 
d="M909 410v149h203v-162q0 -208 -73 -317q-73 -110 -200 -110t-186 73.5t-91 127.5l-81 138q8 -15 -8 9q-39 53 -78 53q-84 0 -84 -198v-151h-203v162q0 209 74 317q71 110 197 110t186.5 -73t98.5 -138q59 -103 91.5 -145.5t73.5 -42.5q80 0 80 198zM825 957q84 0 84 197
v149h203v-162q0 -207 -73 -316q-73 -110 -200 -110t-186 73.5t-111 161.5q-78 130 -100 148q-23 16 -45 17q-86 0 -86 -197v-151h-203v162q0 209 72 317t199 109q126 0 187 -72.5t110 -157.5t70 -113q41 -55 79 -55z" />
    <glyph glyph-name="notequal" unicode="&#x2260;" 
d="M1108 326h-475l-74 -326h-226l75 326h-283v242h339l80 354h-419v242h476l73 325h225l-72 -325h281v-242h-339l-80 -354h419v-242z" />
    <glyph glyph-name="equivalence" unicode="&#x2261;" 
d="M125 73v253h983v-253h-983zM125 512v255h983v-255h-983zM125 953v255h983v-255h-983z" />
    <glyph glyph-name="lessequal" unicode="&#x2264;" 
d="M175 0v220h883v-220h-883zM1058 372l-883 408v302l883 407v-245l-671 -313l671 -313v-246z" />
    <glyph glyph-name="greaterequal" unicode="&#x2265;" 
d="M1058 0h-883v220h883v-220zM175 372v246l670 313l-670 313v245l883 -407v-302z" />
    <glyph glyph-name="logicalnotreversed" unicode="&#x2310;" 
d="M43 0v778h1147v-253h-894v-525h-253z" />
    <glyph glyph-name="integralbt" unicode="&#x2321;" 
d="M355 -169q100 0 138 52t38 169v1437h307v-1476q0 -192 -123 -294q-117 -101 -302 -101q-138 0 -247 43l33 207q98 -37 156 -37z" />
    <glyph glyph-name="uni23af" unicode="&#x23af;" 
d="M-19 594v302h1270v-302h-1270z" />
    <glyph glyph-name="lighthorzbxd" unicode="&#x2500;" 
d="M-37 652h1307v-187h-1307v187z" />
    <glyph glyph-name="heavyhorzbxd" unicode="&#x2501;" 
d="M-37 745h1307v-373h-1307v373z" />
    <glyph glyph-name="lightvertbxd" unicode="&#x2502;" 
d="M523 1955h186v-2793h-186v2793z" />
    <glyph glyph-name="heavyvertbxd" unicode="&#x2503;" 
d="M430 1955h372v-2793h-372v2793z" />
    <glyph glyph-name="lighttrpldashhorzbxd" unicode="&#x2504;" 
d="M886 652h274v-187h-274v187zM477 652h273v-187h-273v187zM67 652h274v-187h-274v187z" />
    <glyph glyph-name="heavytrpldashhorzbxd" unicode="&#x2505;" 
d="M886 745h274v-373h-274v373zM477 745h273v-373h-273v373zM67 745h274v-373h-274v373z" />
    <glyph glyph-name="lighttrpldashvertbxd" unicode="&#x2506;" 
d="M523 2147h186v-455h-186v455zM523 1465h186v-454h-186v454zM523 784h186v-454h-186v454zM523 102h186v-454h-186v454z" />
    <glyph glyph-name="heavytrpldashvertbxd" unicode="&#x2507;" 
d="M430 2147h372v-455h-372v455zM430 1465h372v-454h-372v454zM430 784h372v-454h-372v454zM430 102h372v-454h-372v454z" />
    <glyph glyph-name="lightquaddashhorzbxd" unicode="&#x2508;" 
d="M959 652h231v-187h-231v187zM652 652h231v-187h-231v187zM344 652h231v-187h-231v187zM37 652h231v-187h-231v187z" />
    <glyph glyph-name="heavyquaddashhorzbxd" unicode="&#x2509;" 
d="M959 745h231v-373h-231v373zM652 745h231v-373h-231v373zM344 745h231v-373h-231v373zM37 745h231v-373h-231v373z" />
    <glyph glyph-name="lightquaddashvertbxd" unicode="&#x250a;" 
d="M523 1519h186v-385h-186v385zM523 1007h186v-385h-186v385zM523 495h186v-385h-186v385zM523 -17h186v-385h-186v385z" />
    <glyph glyph-name="heavyquaddashvertbxd" unicode="&#x250b;" 
d="M430 1519h372v-385h-372v385zM430 1007h372v-385h-372v385zM430 495h372v-385h-372v385zM430 -17h372v-385h-372v385z" />
    <glyph glyph-name="lightdnrightbxd" unicode="&#x250c;" 
d="M523 652h747v-187h-561v-1303h-186v1490z" />
    <glyph glyph-name="dnlightrightheavybxd" unicode="&#x250d;" 
d="M523 745h747v-373h-561v-1210h-186v1583z" />
    <glyph glyph-name="dnheavyrightlightbxd" unicode="&#x250e;" 
d="M430 652h840v-187h-468v-1303h-372v1490z" />
    <glyph glyph-name="heavydnrightbxd" unicode="&#x250f;" 
d="M430 745h840v-373h-468v-1210h-372v1583z" />
    <glyph glyph-name="lightdnleftbxd" unicode="&#x2510;" 
d="M-37 652h746v-1490h-186v1303h-560v187z" />
    <glyph glyph-name="dnlightleftheavybxd" unicode="&#x2511;" 
d="M-37 745h746v-1583h-186v1210h-560v373z" />
    <glyph glyph-name="dnheavyleftlightbxd" unicode="&#x2512;" 
d="M-37 652h839v-1490h-372v1303h-467v187z" />
    <glyph glyph-name="heavydnleftbxd" unicode="&#x2513;" 
d="M-37 745h839v-1583h-372v1210h-467v373z" />
    <glyph glyph-name="lightuprightbxd" unicode="&#x2514;" 
d="M523 1955h186v-1303h561v-187h-747v1490z" />
    <glyph glyph-name="uplightrightheavybxd" unicode="&#x2515;" 
d="M523 1955h186v-1210h561v-373h-747v1583z" />
    <glyph glyph-name="upheavyrightlightbxd" unicode="&#x2516;" 
d="M430 1955h372v-1303h468v-187h-840v1490z" />
    <glyph glyph-name="heavyuprightbxd" unicode="&#x2517;" 
d="M430 1955h372v-1210h468v-373h-840v1583z" />
    <glyph glyph-name="lightupleftbxd" unicode="&#x2518;" 
d="M-37 652h560v1303h186v-1490h-746v187z" />
    <glyph glyph-name="uplightleftheavybxd" unicode="&#x2519;" 
d="M-37 745h560v1210h186v-1583h-746v373z" />
    <glyph glyph-name="upheavyleftlightbxd" unicode="&#x251a;" 
d="M-37 652h467v1303h372v-1490h-839v187z" />
    <glyph glyph-name="heavyupleftbxd" unicode="&#x251b;" 
d="M-37 745h467v1210h372v-1583h-839v373z" />
    <glyph glyph-name="lightvertrightbxd" unicode="&#x251c;" 
d="M523 1955h186v-1303h561v-187h-561v-1303h-186v2793z" />
    <glyph glyph-name="vertlightrightheavybxd" unicode="&#x251d;" 
d="M523 1955h186v-1210h561v-373h-561v-1210h-186v2793z" />
    <glyph glyph-name="upheavyrightdnlightbxd" unicode="&#x251e;" 
d="M430 1955h372v-1303h468v-187h-561v-1303h-186v1303h-93v1490z" />
    <glyph glyph-name="dnheavyrightuplightbxd" unicode="&#x251f;" 
d="M430 652h93v1303h186v-1303h561v-187h-468v-1303h-372v1490z" />
    <glyph glyph-name="vertheavyrightlightbxd" unicode="&#x2520;" 
d="M430 1955h372v-1303h468v-187h-468v-1303h-372v2793z" />
    <glyph glyph-name="dnlightrightupheavybxd" unicode="&#x2521;" 
d="M430 1955h372v-1210h468v-373h-561v-1210h-186v1210h-93v1583z" />
    <glyph glyph-name="uplightrightdnheavybxd" unicode="&#x2522;" 
d="M430 745h93v1210h186v-1210h561v-373h-468v-1210h-372v1583z" />
    <glyph glyph-name="heavyvertrightbxd" unicode="&#x2523;" 
d="M430 1955h372v-1210h468v-373h-468v-1210h-372v2793z" />
    <glyph glyph-name="lightvertleftbxd" unicode="&#x2524;" 
d="M-37 652h560v1303h186v-2793h-186v1303h-560v187z" />
    <glyph glyph-name="vertlightleftheavybxd" unicode="&#x2525;" 
d="M-37 745h560v1210h186v-2793h-186v1210h-560v373z" />
    <glyph glyph-name="upheavyleftdnlightbxd" unicode="&#x2526;" 
d="M-37 652h467v1303h372v-1490h-93v-1303h-186v1303h-560v187z" />
    <glyph glyph-name="dnheavyleftuplightbxd" unicode="&#x2527;" 
d="M-37 652h560v1303h186v-1303h93v-1490h-372v1303h-467v187z" />
    <glyph glyph-name="vertheavyleftlightbxd" unicode="&#x2528;" 
d="M-37 652h467v1303h372v-2793h-372v1303h-467v187z" />
    <glyph glyph-name="dnlightleftupheavybxd" unicode="&#x2529;" 
d="M-37 745h467v1210h372v-1583h-93v-1210h-186v1210h-560v373z" />
    <glyph glyph-name="uplightleftdnheavybxd" unicode="&#x252a;" 
d="M-37 745h560v1210h186v-1210h93v-1583h-372v1210h-467v373z" />
    <glyph glyph-name="heavyvertleftbxd" unicode="&#x252b;" 
d="M-37 745h467v1210h372v-2793h-372v1210h-467v373z" />
    <glyph glyph-name="lightdnhorzbxd" unicode="&#x252c;" 
d="M-37 652h1307v-187h-561v-1303h-186v1303h-560v187z" />
    <glyph glyph-name="leftheavyrightdnlightbxd" unicode="&#x252d;" 
d="M-37 745h746v-93h561v-187h-561v-1303h-186v1210h-560v373z" />
    <glyph glyph-name="rightheavyleftdnlightbxd" unicode="&#x252e;" 
d="M-37 652h560v93h747v-373h-561v-1210h-186v1303h-560v187z" />
    <glyph glyph-name="dnlighthorzheavybxd" unicode="&#x252f;" 
d="M-37 745h1307v-373h-561v-1210h-186v1210h-560v373z" />
    <glyph glyph-name="dnheavyhorzlightbxd" unicode="&#x2530;" 
d="M-37 652h1307v-187h-468v-1303h-372v1303h-467v187z" />
    <glyph glyph-name="rightlightleftdnheavybxd" unicode="&#x2531;" 
d="M-37 745h839v-93h468v-187h-468v-1303h-372v1210h-467v373z" />
    <glyph glyph-name="leftlightrightdnheavybxd" unicode="&#x2532;" 
d="M-37 652h467v93h840v-373h-468v-1210h-372v1303h-467v187z" />
    <glyph glyph-name="heavydnhorzbxd" unicode="&#x2533;" 
d="M-37 745h1307v-373h-468v-1210h-372v1210h-467v373z" />
    <glyph glyph-name="lightuphorzbxd" unicode="&#x2534;" 
d="M-37 652h560v1303h186v-1303h561v-187h-1307v187z" />
    <glyph glyph-name="leftheavyrightuplightbxd" unicode="&#x2535;" 
d="M-37 745h560v1210h186v-1303h561v-187h-561v-93h-746v373z" />
    <glyph glyph-name="rightheavyleftuplightbxd" unicode="&#x2536;" 
d="M-37 652h560v1303h186v-1210h561v-373h-747v93h-560v187z" />
    <glyph glyph-name="uplighthorzheavybxd" unicode="&#x2537;" 
d="M-37 745h560v1210h186v-1210h561v-373h-1307v373z" />
    <glyph glyph-name="upheavyhorzlightbxd" unicode="&#x2538;" 
d="M-37 652h467v1303h372v-1303h468v-187h-1307v187z" />
    <glyph glyph-name="rightlightleftupheavybxd" unicode="&#x2539;" 
d="M-37 745h467v1210h372v-1303h468v-187h-468v-93h-839v373z" />
    <glyph glyph-name="leftlightrightupheavybxd" unicode="&#x253a;" 
d="M-37 652h467v1303h372v-1210h468v-373h-840v93h-467v187z" />
    <glyph glyph-name="heavyuphorzbxd" unicode="&#x253b;" 
d="M-37 745h467v1210h372v-1210h468v-373h-1307v373z" />
    <glyph glyph-name="lightverthorzbxd" unicode="&#x253c;" 
d="M-37 652h560v1303h186v-1303h561v-187h-561v-1303h-186v1303h-560v187z" />
    <glyph glyph-name="leftheavyrightvertlightbxd" unicode="&#x253d;" 
d="M-37 745h560v1210h186v-1303h561v-187h-561v-1303h-186v1210h-560v373z" />
    <glyph glyph-name="rightheavyleftvertlightbxd" unicode="&#x253e;" 
d="M-37 652h560v1303h186v-1210h561v-373h-561v-1210h-186v1303h-560v187z" />
    <glyph glyph-name="vertlighthorzheavybxd" unicode="&#x253f;" 
d="M-37 745h560v1210h186v-1210h561v-373h-561v-1210h-186v1210h-560v373z" />
    <glyph glyph-name="upheavydnhorzlightbxd" unicode="&#x2540;" 
d="M-37 652h467v1303h372v-1303h468v-187h-561v-1303h-186v1303h-560v187z" />
    <glyph glyph-name="dnheavyuphorzlightbxd" unicode="&#x2541;" 
d="M-37 652h560v1303h186v-1303h561v-187h-468v-1303h-372v1303h-467v187z" />
    <glyph glyph-name="vertheavyhorzlightbxd" unicode="&#x2542;" 
d="M-37 652h467v1303h372v-1303h468v-187h-468v-1303h-372v1303h-467v187z" />
    <glyph glyph-name="leftupheavyrightdnlightbxd" unicode="&#x2543;" 
d="M-37 745h467v1210h372v-1303h468v-187h-468v-93h-93v-1210h-186v1210h-560v373z" />
    <glyph glyph-name="rightupheavyleftdnlightbxd" unicode="&#x2544;" 
d="M-37 652h467v1303h372v-1210h468v-373h-561v-1210h-186v1210h-93v93h-467v187z" />
    <glyph glyph-name="leftdnheavyrightuplightbxd" unicode="&#x2545;" 
d="M-37 745h560v1210h186v-1210h93v-93h468v-187h-468v-1303h-372v1210h-467v373z" />
    <glyph glyph-name="rightdnheavyleftuplightbxd" unicode="&#x2546;" 
d="M-37 652h467v93h93v1210h186v-1210h561v-373h-468v-1210h-372v1303h-467v187z" />
    <glyph glyph-name="dnlightuphorzheavybxd" unicode="&#x2547;" 
d="M-37 745h467v1210h372v-1210h468v-373h-561v-1210h-186v1210h-560v373z" />
    <glyph glyph-name="uplightdnhorzheavybxd" unicode="&#x2548;" 
d="M-37 745h560v1210h186v-1210h561v-373h-468v-1210h-372v1210h-467v373z" />
    <glyph glyph-name="rightlightleftvertheavybxd" unicode="&#x2549;" 
d="M-37 745h467v1210h372v-1303h468v-187h-468v-1303h-372v1210h-467v373z" />
    <glyph glyph-name="leftlightrightvertheavybxd" unicode="&#x254a;" 
d="M-37 652h467v1303h372v-1210h468v-373h-468v-1210h-372v1303h-467v187z" />
    <glyph glyph-name="heavyverthorzbxd" unicode="&#x254b;" 
d="M-37 745h467v1210h372v-1210h468v-373h-468v-1210h-372v1210h-467v373z" />
    <glyph glyph-name="lightdbldashhorzbxd" unicode="&#x254c;" 
d="M769 652h309v-187h-309v187zM153 652h309v-187h-309v187z" />
    <glyph glyph-name="heavydbldashhorzbxd" unicode="&#x254d;" 
d="M769 745h309v-373h-309v373zM153 745h309v-373h-309v373z" />
    <glyph glyph-name="lightdbldashvertbxd" unicode="&#x254e;" 
d="M523 1326h186v-512h-186v512zM523 302h186v-512h-186v512z" />
    <glyph glyph-name="heavydbldashvertbxd" unicode="&#x254f;" 
d="M430 1326h372v-512h-372v512zM430 302h372v-512h-372v512z" />
    <glyph glyph-name="dblhorzbxd" unicode="&#x2550;" 
d="M-37 465h1307v-186h-1307v186zM-37 838h1307v-186h-1307v186z" />
    <glyph glyph-name="dblvertbxd" unicode="&#x2551;" 
d="M709 1955h187v-2793h-187v2793zM337 1955h186v-2793h-186v2793z" />
    <glyph glyph-name="dnsngrightdblbxd" unicode="&#x2552;" 
d="M523 838h747v-186h-561v-187h561v-186h-561v-1117h-186v1676z" />
    <glyph glyph-name="dndblrightsngbxd" unicode="&#x2553;" 
d="M337 652h933v-187h-374v-1303h-187v1303h-186v-1303h-186v1490z" />
    <glyph glyph-name="dbldnrightbxd" unicode="&#x2554;" 
d="M709 465h561v-186h-374v-1117h-187v1303zM337 838h933v-186h-747v-1490h-186v1676z" />
    <glyph glyph-name="dnsngleftdblbxd" unicode="&#x2555;" 
d="M-37 838h746v-1676h-186v1117h-560v186h560v187h-560v186z" />
    <glyph glyph-name="dndblleftsngbxd" unicode="&#x2556;" 
d="M-37 652h933v-1490h-187v1303h-186v-1303h-186v1303h-374v187z" />
    <glyph glyph-name="dbldnleftbxd" unicode="&#x2557;" 
d="M-37 465h560v-1303h-186v1117h-374v186zM-37 838h933v-1676h-187v1490h-746v186z" />
    <glyph glyph-name="upsngrightdblbxd" unicode="&#x2558;" 
d="M523 1955h186v-1117h561v-186h-561v-187h561v-186h-747v1676z" />
    <glyph glyph-name="updblrightsngbxd" unicode="&#x2559;" 
d="M337 1955h186v-1303h186v1303h187v-1303h374v-187h-933v1490z" />
    <glyph glyph-name="dbluprightbxd" unicode="&#x255a;" 
d="M709 1955h187v-1117h374v-186h-561v1303zM337 1955h186v-1490h747v-186h-933v1676z" />
    <glyph glyph-name="upsngleftdblbxd" unicode="&#x255b;" 
d="M-37 838h560v1117h186v-1676h-746v186h560v187h-560v186z" />
    <glyph glyph-name="updblleftsngbxd" unicode="&#x255c;" 
d="M-37 652h374v1303h186v-1303h186v1303h187v-1490h-933v187z" />
    <glyph glyph-name="dblupleftbxd" unicode="&#x255d;" 
d="M-37 838h374v1117h186v-1303h-560v186zM-37 465h746v1490h187v-1676h-933v186z" />
    <glyph glyph-name="vertsngrightdblbxd" unicode="&#x255e;" 
d="M523 1955h186v-1117h561v-186h-561v-187h561v-186h-561v-1117h-186v2793z" />
    <glyph glyph-name="vertdblrightsngbxd" unicode="&#x255f;" 
d="M337 1955h186v-2793h-186v2793zM709 1955h187v-1303h374v-187h-374v-1303h-187v2793z" />
    <glyph glyph-name="dblvertrightbxd" unicode="&#x2560;" 
d="M709 465h561v-186h-374v-1117h-187v1303zM709 1955h187v-1117h374v-186h-561v1303zM337 1955h186v-2793h-186v2793z" />
    <glyph glyph-name="vertsngleftdblbxd" unicode="&#x2561;" 
d="M-37 838h560v1117h186v-2793h-186v1117h-560v186h560v187h-560v186z" />
    <glyph glyph-name="vertdblleftsngbxd" unicode="&#x2562;" 
d="M709 1955h187v-2793h-187v2793zM-37 652h374v1303h186v-2793h-186v1303h-374v187z" />
    <glyph glyph-name="dblvertleftbxd" unicode="&#x2563;" 
d="M-37 838h374v1117h186v-1303h-560v186zM-37 465h560v-1303h-186v1117h-374v186zM709 1955h187v-2793h-187v2793z" />
    <glyph glyph-name="dnsnghorzdblbxd" unicode="&#x2564;" 
d="M-37 838h1307v-186h-1307v186zM-37 465h1307v-186h-561v-1117h-186v1117h-560v186z" />
    <glyph glyph-name="dndblhorzsngbxd" unicode="&#x2565;" 
d="M-37 652h1307v-187h-374v-1303h-187v1303h-186v-1303h-186v1303h-374v187z" />
    <glyph glyph-name="dbldnhorzbxd" unicode="&#x2566;" 
d="M-37 838h1307v-186h-1307v186zM709 465h561v-186h-374v-1117h-187v1303zM-37 465h560v-1303h-186v1117h-374v186z" />
    <glyph glyph-name="upsnghorzdblbxd" unicode="&#x2567;" 
d="M-37 465h1307v-186h-1307v186zM-37 838h560v1117h186v-1117h561v-186h-1307v186z" />
    <glyph glyph-name="updblhorzsngbxd" unicode="&#x2568;" 
d="M-37 652h374v1303h186v-1303h186v1303h187v-1303h374v-187h-1307v187z" />
    <glyph glyph-name="dbluphorzbxd" unicode="&#x2569;" 
d="M-37 465h1307v-186h-1307v186zM709 1955h187v-1117h374v-186h-561v1303zM-37 838h374v1117h186v-1303h-560v186z" />
    <glyph glyph-name="vertsnghorzdblbxd" unicode="&#x256a;" 
d="M-37 838h560v1117h186v-1117h561v-186h-561v-187h561v-186h-561v-1117h-186v1117h-560v186h560v187h-560v186z" />
    <glyph glyph-name="vertdblhorzsngbxd" unicode="&#x256b;" 
d="M-37 652h374v1303h186v-1303h186v1303h187v-1303h374v-187h-374v-1303h-187v1303h-186v-1303h-186v1303h-374v187z" />
    <glyph glyph-name="dblverthorzbxd" unicode="&#x256c;" 
d="M709 465h561v-186h-374v-1117h-187v1303zM709 1955h187v-1117h374v-186h-561v1303zM-37 465h560v-1303h-186v1117h-374v186zM-37 838h374v1117h186v-1303h-560v186z" />
    <glyph glyph-name="lightarcdnrightbxd" unicode="&#x256d;" 
d="M523 -58q0 148 56 276t152 225t225 153t277 56h37v-187h-37q-215 0 -370 -153q-154 -154 -154 -370v-780h-186v780z" />
    <glyph glyph-name="lightarcdnleftbxd" unicode="&#x256e;" 
d="M709 -838h-186v780q0 215 -153 369t-370 154h-37v187h37q148 0 276 -56t225 -153q208 -208 208 -501v-780z" />
    <glyph glyph-name="lightarcupleftbxd" unicode="&#x256f;" 
d="M709 1175q0 -147 -56 -277q-57 -130 -153 -225q-96 -96 -224 -152t-276 -56h-37v187h37q215 0 370 153q153 153 153 370v780h186v-780z" />
    <glyph glyph-name="lightarcuprightbxd" unicode="&#x2570;" 
d="M523 1955h186v-780q-1 -215 153 -369t371 -154h37v-187h-37q-147 0 -277 56t-225 152q-96 96 -152 225t-56 277v780z" />
    <glyph glyph-name="lightdiaguprightdnleftbxd" unicode="&#x2571;" 
d="M1233 1583v-181l-1125 -1867h-108v180l1125 1868h108z" />
    <glyph glyph-name="lightdiagupleftdnrightbxd" unicode="&#x2572;" 
d="M1233 -465h-108l-1125 1867v181h108l1125 -1868v-180z" />
    <glyph glyph-name="lightdiagcrossbxd" unicode="&#x2573;" 
d="M0 1583h108l508 -846l509 846h108v-181l-509 -843l509 -844v-180h-108l-509 843l-508 -843h-108v180l508 844l-508 843v181z" />
    <glyph glyph-name="lightleftbxd" unicode="&#x2574;" 
d="M-37 652h746v-187h-746v187z" />
    <glyph glyph-name="lightupbxd" unicode="&#x2575;" 
d="M523 1955h186v-1490h-186v1490z" />
    <glyph glyph-name="lightrightbxd" unicode="&#x2576;" 
d="M523 652h747v-187h-747v187z" />
    <glyph glyph-name="lightdnbxd" unicode="&#x2577;" 
d="M523 652h186v-1490h-186v1490z" />
    <glyph glyph-name="heavyleftbxd" unicode="&#x2578;" 
d="M-37 745h746v-373h-746v373z" />
    <glyph glyph-name="heavyupbxd" unicode="&#x2579;" 
d="M430 1955h372v-1490h-372v1490z" />
    <glyph glyph-name="heavyrightbxd" unicode="&#x257a;" 
d="M523 745h747v-373h-747v373z" />
    <glyph glyph-name="heavydnbxd" unicode="&#x257b;" 
d="M430 652h372v-1490h-372v1490z" />
    <glyph glyph-name="lightleftheavyrightbxd" unicode="&#x257c;" 
d="M-37 652h560v93h747v-373h-747v93h-560v187z" />
    <glyph glyph-name="lightupheavydnbxd" unicode="&#x257d;" 
d="M430 652h93v1303h186v-1303h93v-1490h-372v1490z" />
    <glyph glyph-name="heavyleftlightrightbxd" unicode="&#x257e;" 
d="M-37 745h746v-93h561v-187h-561v-93h-746v373z" />
    <glyph glyph-name="heavyuplightdnbxd" unicode="&#x257f;" 
d="M430 1955h372v-1490h-93v-1303h-186v1303h-93v1490z" />
    <glyph glyph-name="uphalfblock" unicode="&#x2580;" 
d="M0 1583h1233v-1024h-1233v1024z" />
    <glyph glyph-name="dneighthblock" unicode="&#x2581;" 
d="M0 -210h1233v-255h-1233v255z" />
    <glyph glyph-name="dnquarterblock" unicode="&#x2582;" 
d="M0 47h1233v-512h-1233v512z" />
    <glyph glyph-name="dnthreeeighthsblock" unicode="&#x2583;" 
d="M0 302h1233v-767h-1233v767z" />
    <glyph glyph-name="dnhalfblock" unicode="&#x2584;" 
d="M0 559h1233v-1024h-1233v1024z" />
    <glyph glyph-name="dnfiveeighthsblock" unicode="&#x2585;" 
d="M0 814h1233v-1279h-1233v1279z" />
    <glyph glyph-name="dnthreequartersblock" unicode="&#x2586;" 
d="M0 1071h1233v-1536h-1233v1536z" />
    <glyph glyph-name="dnseveneighthsblock" unicode="&#x2587;" 
d="M0 1326h1233v-1791h-1233v1791z" />
    <glyph glyph-name="fullblock" unicode="&#x2588;" 
d="M0 1583h1233v-2048h-1233v2048z" />
    <glyph glyph-name="leftseveneighthsblock" unicode="&#x2589;" 
d="M0 1583h1078v-2048h-1078v2048z" />
    <glyph glyph-name="leftthreequartersblock" unicode="&#x258a;" 
d="M0 1583h923v-2048h-923v2048z" />
    <glyph glyph-name="leftfiveeighthsblock" unicode="&#x258b;" 
d="M0 1583h769v-2048h-769v2048z" />
    <glyph glyph-name="lefthalfblock" unicode="&#x258c;" 
d="M0 1583h616v-2048h-616v2048z" />
    <glyph glyph-name="leftthreeeighthsblock" unicode="&#x258d;" 
d="M0 1583h462v-2048h-462v2048z" />
    <glyph glyph-name="leftquarterblock" unicode="&#x258e;" 
d="M0 1583h307v-2048h-307v2048z" />
    <glyph glyph-name="lefteighthblock" unicode="&#x258f;" 
d="M0 1583h153v-2048h-153v2048z" />
    <glyph glyph-name="righthalfblock" unicode="&#x2590;" 
d="M616 1583h617v-2048h-617v2048z" />
    <glyph glyph-name="lightshade" unicode="&#x2591;" 
d="M1210 1545h37v-56h-37v56zM1117 1452h37v-56h-37v56zM1210 1359h37v-56h-37v56zM1117 1266h37v-56h-37v56zM1210 1173h37v-56h-37v56zM1117 1080h37v-56h-37v56zM1210 987h37v-56h-37v56zM1117 894h37v-56h-37v56zM1210 801h37v-56h-37v56zM1117 707h37v-55h-37v55z
M1210 614h37v-55h-37v55zM1117 521h37v-56h-37v56zM1210 428h37v-56h-37v56zM1117 335h37v-56h-37v56zM1210 242h37v-56h-37v56zM1117 149h37v-56h-37v56zM1210 56h37v-56h-37v56zM1117 -37h37v-56h-37v56zM1210 -130h37v-56h-37v56zM1117 -223h37v-56h-37v56zM1210 -317h37
v-55h-37v55zM1117 -410h37v-55h-37v55zM1024 1545h37v-56h-37v56zM931 1452h37v-56h-37v56zM1024 1359h37v-56h-37v56zM931 1266h37v-56h-37v56zM1024 1173h37v-56h-37v56zM931 1080h37v-56h-37v56zM1024 987h37v-56h-37v56zM931 894h37v-56h-37v56zM1024 801h37v-56h-37v56
zM931 707h37v-55h-37v55zM1024 614h37v-55h-37v55zM931 521h37v-56h-37v56zM1024 428h37v-56h-37v56zM931 335h37v-56h-37v56zM1024 242h37v-56h-37v56zM931 149h37v-56h-37v56zM1024 56h37v-56h-37v56zM931 -37h37v-56h-37v56zM1024 -130h37v-56h-37v56zM931 -223h37v-56
h-37v56zM1024 -317h37v-55h-37v55zM931 -410h37v-55h-37v55zM838 1545h37v-56h-37v56zM745 1452h37v-56h-37v56zM838 1359h37v-56h-37v56zM745 1266h37v-56h-37v56zM838 1173h37v-56h-37v56zM745 1080h37v-56h-37v56zM838 987h37v-56h-37v56zM745 894h37v-56h-37v56z
M838 801h37v-56h-37v56zM745 707h37v-55h-37v55zM838 614h37v-55h-37v55zM745 521h37v-56h-37v56zM838 428h37v-56h-37v56zM745 335h37v-56h-37v56zM838 242h37v-56h-37v56zM745 149h37v-56h-37v56zM838 56h37v-56h-37v56zM745 -37h37v-56h-37v56zM838 -130h37v-56h-37v56z
M745 -223h37v-56h-37v56zM838 -317h37v-55h-37v55zM745 -410h37v-55h-37v55zM652 1545h37v-56h-37v56zM559 1452h37v-56h-37v56zM652 1359h37v-56h-37v56zM559 1266h37v-56h-37v56zM652 1173h37v-56h-37v56zM559 1080h37v-56h-37v56zM652 987h37v-56h-37v56zM559 894h37v-56
h-37v56zM652 801h37v-56h-37v56zM559 707h37v-55h-37v55zM652 614h37v-55h-37v55zM559 521h37v-56h-37v56zM652 428h37v-56h-37v56zM559 335h37v-56h-37v56zM652 242h37v-56h-37v56zM559 149h37v-56h-37v56zM652 56h37v-56h-37v56zM559 -37h37v-56h-37v56zM652 -130h37v-56
h-37v56zM559 -223h37v-56h-37v56zM652 -317h37v-55h-37v55zM559 -410h37v-55h-37v55zM465 1545h38v-56h-38v56zM372 1452h38v-56h-38v56zM465 1359h38v-56h-38v56zM372 1266h38v-56h-38v56zM465 1173h38v-56h-38v56zM372 1080h38v-56h-38v56zM465 987h38v-56h-38v56z
M372 894h38v-56h-38v56zM465 801h38v-56h-38v56zM372 707h38v-55h-38v55zM465 614h38v-55h-38v55zM372 521h38v-56h-38v56zM465 428h38v-56h-38v56zM372 335h38v-56h-38v56zM465 242h38v-56h-38v56zM372 149h38v-56h-38v56zM465 56h38v-56h-38v56zM372 -37h38v-56h-38v56z
M465 -130h38v-56h-38v56zM372 -223h38v-56h-38v56zM465 -317h38v-55h-38v55zM372 -410h38v-55h-38v55zM279 1545h38v-56h-38v56zM186 1452h37v-56h-37v56zM279 1359h38v-56h-38v56zM186 1266h37v-56h-37v56zM279 1173h38v-56h-38v56zM186 1080h37v-56h-37v56zM279 987h38
v-56h-38v56zM186 894h37v-56h-37v56zM279 801h38v-56h-38v56zM186 707h37v-55h-37v55zM279 614h38v-55h-38v55zM186 521h37v-56h-37v56zM279 428h38v-56h-38v56zM186 335h37v-56h-37v56zM279 242h38v-56h-38v56zM186 149h37v-56h-37v56zM279 56h38v-56h-38v56zM186 -37h37
v-56h-37v56zM279 -130h38v-56h-38v56zM186 -223h37v-56h-37v56zM279 -317h38v-55h-38v55zM186 -410h37v-55h-37v55zM93 1545h37v-56h-37v56zM0 1452h37v-56h-37v56zM93 1359h37v-56h-37v56zM0 1266h37v-56h-37v56zM93 1173h37v-56h-37v56zM0 1080h37v-56h-37v56zM93 987h37
v-56h-37v56zM0 894h37v-56h-37v56zM93 801h37v-56h-37v56zM0 707h37v-55h-37v55zM93 614h37v-55h-37v55zM0 521h37v-56h-37v56zM93 428h37v-56h-37v56zM0 335h37v-56h-37v56zM93 242h37v-56h-37v56zM0 149h37v-56h-37v56zM93 56h37v-56h-37v56zM0 -37h37v-56h-37v56z
M93 -130h37v-56h-37v56zM0 -223h37v-56h-37v56zM93 -317h37v-55h-37v55zM0 -410h37v-55h-37v55z" />
    <glyph glyph-name="mediumshade" unicode="&#x2592;" 
d="M1210 1583h75v-94h-75v94zM1117 1489h75v-93h-75v93zM1210 1396h75v-93h-75v93zM1117 1303h75v-93h-75v93zM1210 1210h75v-93h-75v93zM1117 1117h75v-93h-75v93zM1210 1024h75v-93h-75v93zM1117 931h75v-93h-75v93zM1210 838h75v-93h-75v93zM1117 745h75v-93h-75v93z
M1210 652h75v-93h-75v93zM1117 559h75v-94h-75v94zM1210 465h75v-93h-75v93zM1117 372h75v-93h-75v93zM1210 279h75v-93h-75v93zM1117 186h75v-93h-75v93zM1210 93h75v-93h-75v93zM1117 0h75v-93h-75v93zM1210 -93h75v-93h-75v93zM1117 -186h75v-93h-75v93zM1210 -279h75
v-93h-75v93zM1117 -372h75v-93h-75v93zM1024 1583h74v-94h-74v94zM931 1489h74v-93h-74v93zM1024 1396h74v-93h-74v93zM931 1303h74v-93h-74v93zM1024 1210h74v-93h-74v93zM931 1117h74v-93h-74v93zM1024 1024h74v-93h-74v93zM931 931h74v-93h-74v93zM1024 838h74v-93h-74
v93zM931 745h74v-93h-74v93zM1024 652h74v-93h-74v93zM931 559h74v-94h-74v94zM1024 465h74v-93h-74v93zM931 372h74v-93h-74v93zM1024 279h74v-93h-74v93zM931 186h74v-93h-74v93zM1024 93h74v-93h-74v93zM931 0h74v-93h-74v93zM1024 -93h74v-93h-74v93zM931 -186h74v-93
h-74v93zM1024 -279h74v-93h-74v93zM931 -372h74v-93h-74v93zM838 1583h74v-94h-74v94zM745 1489h74v-93h-74v93zM838 1396h74v-93h-74v93zM745 1303h74v-93h-74v93zM838 1210h74v-93h-74v93zM745 1117h74v-93h-74v93zM838 1024h74v-93h-74v93zM745 931h74v-93h-74v93z
M838 838h74v-93h-74v93zM745 745h74v-93h-74v93zM838 652h74v-93h-74v93zM745 559h74v-94h-74v94zM838 465h74v-93h-74v93zM745 372h74v-93h-74v93zM838 279h74v-93h-74v93zM745 186h74v-93h-74v93zM838 93h74v-93h-74v93zM745 0h74v-93h-74v93zM838 -93h74v-93h-74v93z
M745 -186h74v-93h-74v93zM838 -279h74v-93h-74v93zM745 -372h74v-93h-74v93zM652 1583h74v-94h-74v94zM559 1489h74v-93h-74v93zM652 1396h74v-93h-74v93zM559 1303h74v-93h-74v93zM652 1210h74v-93h-74v93zM559 1117h74v-93h-74v93zM652 1024h74v-93h-74v93zM559 931h74
v-93h-74v93zM652 838h74v-93h-74v93zM559 745h74v-93h-74v93zM652 652h74v-93h-74v93zM559 559h74v-94h-74v94zM652 465h74v-93h-74v93zM559 372h74v-93h-74v93zM652 279h74v-93h-74v93zM559 186h74v-93h-74v93zM652 93h74v-93h-74v93zM559 0h74v-93h-74v93zM652 -93h74v-93
h-74v93zM559 -186h74v-93h-74v93zM652 -279h74v-93h-74v93zM559 -372h74v-93h-74v93zM465 1583h75v-94h-75v94zM372 1489h75v-93h-75v93zM465 1396h75v-93h-75v93zM372 1303h75v-93h-75v93zM465 1210h75v-93h-75v93zM372 1117h75v-93h-75v93zM465 1024h75v-93h-75v93z
M372 931h75v-93h-75v93zM465 838h75v-93h-75v93zM372 745h75v-93h-75v93zM465 652h75v-93h-75v93zM372 559h75v-94h-75v94zM465 465h75v-93h-75v93zM372 372h75v-93h-75v93zM465 279h75v-93h-75v93zM372 186h75v-93h-75v93zM465 93h75v-93h-75v93zM372 0h75v-93h-75v93z
M465 -93h75v-93h-75v93zM372 -186h75v-93h-75v93zM465 -279h75v-93h-75v93zM372 -372h75v-93h-75v93zM279 1583h75v-94h-75v94zM186 1489h75v-93h-75v93zM279 1396h75v-93h-75v93zM186 1303h75v-93h-75v93zM279 1210h75v-93h-75v93zM186 1117h75v-93h-75v93zM279 1024h75
v-93h-75v93zM186 931h75v-93h-75v93zM279 838h75v-93h-75v93zM186 745h75v-93h-75v93zM279 652h75v-93h-75v93zM186 559h75v-94h-75v94zM279 465h75v-93h-75v93zM186 372h75v-93h-75v93zM279 279h75v-93h-75v93zM186 186h75v-93h-75v93zM279 93h75v-93h-75v93zM186 0h75v-93
h-75v93zM279 -93h75v-93h-75v93zM186 -186h75v-93h-75v93zM279 -279h75v-93h-75v93zM186 -372h75v-93h-75v93zM93 1583h75v-94h-75v94zM0 1489h74v-93h-74v93zM93 1396h75v-93h-75v93zM0 1303h74v-93h-74v93zM93 1210h75v-93h-75v93zM0 1117h74v-93h-74v93zM93 1024h75v-93
h-75v93zM0 931h74v-93h-74v93zM93 838h75v-93h-75v93zM0 745h74v-93h-74v93zM93 652h75v-93h-75v93zM0 559h74v-94h-74v94zM93 465h75v-93h-75v93zM0 372h74v-93h-74v93zM93 279h75v-93h-75v93zM0 186h74v-93h-74v93zM93 93h75v-93h-75v93zM0 0h74v-93h-74v93zM93 -93h75
v-93h-75v93zM0 -186h74v-93h-74v93zM93 -279h75v-93h-75v93zM0 -372h74v-93h-74v93z" />
    <glyph glyph-name="darkshade" unicode="&#x2593;" 
d="M1210 1610h84v-121h-84v121zM1117 1517h84v-121h-84v121zM1210 1424h84v-121h-84v121zM1117 1331h84v-121h-84v121zM1210 1238h84v-121h-84v121zM1117 1145h84v-121h-84v121zM1210 1052h84v-121h-84v121zM1117 959h84v-121h-84v121zM1210 866h84v-121h-84v121zM1117 773
h84v-121h-84v121zM1210 680h84v-121h-84v121zM1117 586h84v-121h-84v121zM1210 493h84v-121h-84v121zM1117 400h84v-121h-84v121zM1210 307h84v-121h-84v121zM1117 214h84v-121h-84v121zM1210 121h84v-121h-84v121zM1117 28h84v-121h-84v121zM1210 -65h84v-121h-84v121z
M1117 -158h84v-121h-84v121zM1210 -251h84v-121h-84v121zM1117 -344h84v-121h-84v121zM1024 1610h84v-121h-84v121zM931 1517h84v-121h-84v121zM1024 1424h84v-121h-84v121zM931 1331h84v-121h-84v121zM1024 1238h84v-121h-84v121zM931 1145h84v-121h-84v121zM1024 1052h84
v-121h-84v121zM931 959h84v-121h-84v121zM1024 866h84v-121h-84v121zM931 773h84v-121h-84v121zM1024 680h84v-121h-84v121zM931 586h84v-121h-84v121zM1024 493h84v-121h-84v121zM931 400h84v-121h-84v121zM1024 307h84v-121h-84v121zM931 214h84v-121h-84v121zM1024 121
h84v-121h-84v121zM931 28h84v-121h-84v121zM1024 -65h84v-121h-84v121zM931 -158h84v-121h-84v121zM1024 -251h84v-121h-84v121zM931 -344h84v-121h-84v121zM838 1610h84v-121h-84v121zM745 1517h84v-121h-84v121zM838 1424h84v-121h-84v121zM745 1331h84v-121h-84v121z
M838 1238h84v-121h-84v121zM745 1145h84v-121h-84v121zM838 1052h84v-121h-84v121zM745 959h84v-121h-84v121zM838 866h84v-121h-84v121zM745 773h84v-121h-84v121zM838 680h84v-121h-84v121zM745 586h84v-121h-84v121zM838 493h84v-121h-84v121zM745 400h84v-121h-84v121z
M838 307h84v-121h-84v121zM745 214h84v-121h-84v121zM838 121h84v-121h-84v121zM745 28h84v-121h-84v121zM838 -65h84v-121h-84v121zM745 -158h84v-121h-84v121zM838 -251h84v-121h-84v121zM745 -344h84v-121h-84v121zM652 1610h83v-121h-83v121zM559 1517h83v-121h-83v121z
M652 1424h83v-121h-83v121zM559 1331h83v-121h-83v121zM652 1238h83v-121h-83v121zM559 1145h83v-121h-83v121zM652 1052h83v-121h-83v121zM559 959h83v-121h-83v121zM652 866h83v-121h-83v121zM559 773h83v-121h-83v121zM652 680h83v-121h-83v121zM559 586h83v-121h-83v121
zM652 493h83v-121h-83v121zM559 400h83v-121h-83v121zM652 307h83v-121h-83v121zM559 214h83v-121h-83v121zM652 121h83v-121h-83v121zM559 28h83v-121h-83v121zM652 -65h83v-121h-83v121zM559 -158h83v-121h-83v121zM652 -251h83v-121h-83v121zM559 -344h83v-121h-83v121z
M465 1610h84v-121h-84v121zM372 1517h84v-121h-84v121zM465 1424h84v-121h-84v121zM372 1331h84v-121h-84v121zM465 1238h84v-121h-84v121zM372 1145h84v-121h-84v121zM465 1052h84v-121h-84v121zM372 959h84v-121h-84v121zM465 866h84v-121h-84v121zM372 773h84v-121h-84
v121zM465 680h84v-121h-84v121zM372 586h84v-121h-84v121zM465 493h84v-121h-84v121zM372 400h84v-121h-84v121zM465 307h84v-121h-84v121zM372 214h84v-121h-84v121zM465 121h84v-121h-84v121zM372 28h84v-121h-84v121zM465 -65h84v-121h-84v121zM372 -158h84v-121h-84v121
zM465 -251h84v-121h-84v121zM372 -344h84v-121h-84v121zM279 1610h84v-121h-84v121zM186 1517h84v-121h-84v121zM279 1424h84v-121h-84v121zM186 1331h84v-121h-84v121zM279 1238h84v-121h-84v121zM186 1145h84v-121h-84v121zM279 1052h84v-121h-84v121zM186 959h84v-121
h-84v121zM279 866h84v-121h-84v121zM186 773h84v-121h-84v121zM279 680h84v-121h-84v121zM186 586h84v-121h-84v121zM279 493h84v-121h-84v121zM186 400h84v-121h-84v121zM279 307h84v-121h-84v121zM186 214h84v-121h-84v121zM279 121h84v-121h-84v121zM186 28h84v-121h-84
v121zM279 -65h84v-121h-84v121zM186 -158h84v-121h-84v121zM279 -251h84v-121h-84v121zM186 -344h84v-121h-84v121zM93 1610h84v-121h-84v121zM0 1517h84v-121h-84v121zM93 1424h84v-121h-84v121zM0 1331h84v-121h-84v121zM93 1238h84v-121h-84v121zM0 1145h84v-121h-84v121
zM93 1052h84v-121h-84v121zM0 959h84v-121h-84v121zM93 866h84v-121h-84v121zM0 773h84v-121h-84v121zM93 680h84v-121h-84v121zM0 586h84v-121h-84v121zM93 493h84v-121h-84v121zM0 400h84v-121h-84v121zM93 307h84v-121h-84v121zM0 214h84v-121h-84v121zM93 121h84v-121
h-84v121zM0 28h84v-121h-84v121zM93 -65h84v-121h-84v121zM0 -158h84v-121h-84v121zM93 -251h84v-121h-84v121zM0 -344h84v-121h-84v121z" />
    <glyph glyph-name="upeighthblock" unicode="&#x2594;" 
d="M0 1583h1233v-257h-1233v257z" />
    <glyph glyph-name="righteighthblock" unicode="&#x2595;" 
d="M1078 1583h155v-2048h-155v2048z" />
    <glyph glyph-name="dnleftquadrant" unicode="&#x2596;" 
d="M0 559h616v-1024h-616v1024z" />
    <glyph glyph-name="dnrightquadrant" unicode="&#x2597;" 
d="M616 559h617v-1024h-617v1024z" />
    <glyph glyph-name="upleftquadrant" unicode="&#x2598;" 
d="M0 1583h616v-1024h-616v1024z" />
    <glyph glyph-name="upleftdnleftdnrightquadrant" unicode="&#x2599;" 
d="M0 1583h616v-1024h617v-1024h-1233v2048z" />
    <glyph glyph-name="upleftdnrightquadrant" unicode="&#x259a;" 
d="M0 1583h616v-1024h-616v1024zM616 559h617v-1024h-617v1024z" />
    <glyph glyph-name="upleftuprightdnleftquadrant" unicode="&#x259b;" 
d="M0 1583h1233v-1024h-617v-1024h-616v2048z" />
    <glyph glyph-name="upleftuprightdnrightquadrant" unicode="&#x259c;" 
d="M0 1583h1233v-2048h-617v1024h-616v1024z" />
    <glyph glyph-name="uprightquadrant" unicode="&#x259d;" 
d="M616 1583h617v-1024h-617v1024z" />
    <glyph glyph-name="uprightdnleftquadrant" unicode="&#x259e;" 
d="M616 1583h617v-1024h-617v1024zM616 559v-1024h-616v1024h616z" />
    <glyph glyph-name="uprightdnleftdnrightquadrant" unicode="&#x259f;" 
d="M0 559h616v1024h617v-2048h-1233v1024z" />
    <glyph glyph-name="blacksquare" unicode="&#x25a0;" 
d="M104 1303h1024v-1117h-1024v1117z" />
    <glyph glyph-name="H22073" unicode="&#x25a1;" 
d="M287 352h661v786h-661v-786zM104 186v1117h1024v-1117h-1024z" />
    <glyph glyph-name="blacksmallsquare" unicode="&#x25aa;" 
d="M367 1017h499v-544h-499v544z" />
    <glyph glyph-name="whitesmallsquare" unicode="&#x25ab;" 
d="M786 944h-339v-398h339v398zM935 398h-637v693h637v-693z" />
    <glyph glyph-name="triagup" unicode="&#x25b2;" 
d="M1056 372h-879v38l423 893h33l423 -893v-38z" />
    <glyph glyph-name="blackrightpointingpointer" unicode="&#x25ba;" 
d="M190 380v916h33l820 -440v-37l-820 -439h-33z" />
    <glyph glyph-name="blackdownpointingtriangle" unicode="&#x25bc;" 
d="M177 1210h879v-37l-423 -894h-33l-423 894v37z" />
    <glyph glyph-name="triaglf" unicode="&#x25c4;" 
d="M1043 1296v-916h-34l-819 439v37l819 440h34z" />
    <glyph glyph-name="lozenge" unicode="&#x25ca;" 
d="M614 112l371 633l-371 633l-357 -633zM519 0l-431 745l431 744h181l447 -744l-447 -745h-181z" />
    <glyph glyph-name="circle" unicode="&#x25cb;" 
d="M884 439q101 122 101 308.5t-101 306.5q-104 117 -267 117t-263 -117q-101 -122 -101 -308.5t101 -305.5q101 -118 262 -118q162 0 268 117zM233 326q-153 163 -153 419t151.5 423t386.5 167t388 -166q152 -166 152 -425t-153 -418q-151 -166 -387 -166t-385 166z" />
    <glyph glyph-name="H18533" unicode="&#x25cf;" 
d="M233 326q-153 163 -153 419t151.5 423t386.5 167t388 -166q152 -166 152 -425t-153 -418q-151 -166 -387 -166t-385 166z" />
    <glyph glyph-name="whitebullet" unicode="&#x25e6;" 
d="M825 808q0 168 -207.5 168t-207.5 -168v-134q0 -162 208 -162t207 162v134zM972 674q0 -148 -95 -229q-88 -80 -260 -80t-261 80q-93 77 -93 229v134q0 230 135.5 272.5t263 42.5t217.5 -82q93 -77 93 -233v-134z" />
    <glyph glyph-name="uni2619" unicode="&#x2619;" 
d="M140 534q0 306 227 306h22l177 -499h58v471h74q125 0 185.5 -61.5t60.5 -203.5v-350q0 -265 -140 -434t-355 -169t-318 114t-99 299l150 -9q0 -169 58 -198t91 -29q108 0 108 121v71l-299 400v171zM860 957h-480q-315 0 -298 391l145 -4q-8 -111 23.5 -171t121.5 -60h118
v146q0 240 147 287.5t240 47.5l20 -157q-129 0 -184.5 -41.5t-55.5 -164.5v-118h205q149 0 236 -108.5t73 -310.5l-145 4q12 185 -56.5 222t-109.5 37z" />
    <glyph glyph-name="female" unicode="&#x2640;" 
d="M391 1253q-86 -101 -86 -265t85.5 -265t226 -101t225.5 100.5t85 264.5t-85 264.5t-225 100.5t-226 -99zM694 -372h-156v378h-348v156h348v309q-179 26 -290 168q-110 146 -110 361t134 361q134 147 344.5 147t344.5 -145q134 -146 134 -363t-110 -361
q-111 -142 -291 -168v-309h350v-156h-350v-378z" />
    <glyph glyph-name="male" unicode="&#x2642;" 
d="M272 750q-86 -101 -86 -265t85.5 -265t225.5 -101t225.5 101t85.5 264t-85.5 264t-225 101t-225.5 -99zM832 869q144 -148 144 -380t-134 -379t-344 -147t-345 147q-134 147 -134 375.5t134 373.5q134 146 344 146q124 0 220 -52l305 393h-437v143h672v-742h-138v517z
" />
    <glyph glyph-name="spade" unicode="&#x2660;" 
d="M907 168v-168h-581v168h205l22 484h-47l-95 -280h-91q-115 0 -182 83t-67 208v171l482 655h127l484 -655v-171q0 -123 -67 -207t-185 -84h-91l-95 280h-46l22 -484h205z" />
    <glyph glyph-name="club" unicode="&#x2663;" 
d="M374 1123q0 161 65.5 273t176.5 112t176.5 -110.5t65.5 -274.5l-117 -198l45 -52q39 60 89 99q37 35 85 35q97 0 163.5 -77.5t66.5 -223.5q0 -145 -99 -252q-98 -113 -255 -113l-82 320h-71l19 -495h208v-166h-588v166h209l18 495h-69l-83 -320q-156 0 -255 104t-99 274
q0 126 71 204q69 71 163 71t170 -121l45 52z" />
    <glyph glyph-name="heart" unicode="&#x2665;" 
d="M378 1489q187 0 214 -428h48q18 216 100 322t195.5 106t178.5 -113t50 -270l-36 -320l-415 -786h-194l-415 786l-33 320q-15 165 52 268q68 115 255 115z" />
    <glyph glyph-name="diamond" unicode="&#x2666;" 
d="M518 0l-432 745l432 744h180l447 -744l-447 -745h-180z" />
    <glyph glyph-name="musicalnote" unicode="&#x266a;" 
d="M942 820q0 52 -29 97.5t-137 118t-141 118.5v-871q0 -130 -89.5 -216t-212.5 -86q-124 0 -181 57t-57 148.5t77 164.5t204 73h119v1084h118q6 -73 52 -111t178.5 -125.5t195.5 -171t63 -212.5q0 -184 -78 -276.5t-121 -133.5l-86 107q92 85 108.5 134t16.5 101z" />
    <glyph glyph-name="uni26A1" unicode="&#x26a1;" 
d="M599 770l447 101l75 -132l-747 -1067l-128 62l389 781l-462 -105l-71 121l712 1065l119 -66z" />
    <glyph glyph-name="checkmark" unicode="&#x2713;" 
d="M1247 1489q-390 -653 -594 -1489h-348l-331 905h307l196 -551q194 673 469 1135h301z" />
    <glyph glyph-name="uni2767" unicode="&#x2767;" 
d="M782 -108q0 -121 108 -121q149 0 149 227l149 9q4 -181 -99 -297t-318 -116q-216 0 -356 169q-139 169 -139 434v350q0 208 138 251q46 14 107 14h75v-471h57l179 499h23q227 0 227 -306v-171l-300 -400v-71zM359 957q-80 0 -126 -71t-39 -188l-144 -4q-14 202 74 311
q88 108 233 108h207v118q0 123 -57 165t-183 41l19 157q183 0 286 -88t103 -247v-146h117q131 0 144 135q5 42 1 96l145 4q17 -391 -299 -391h-481z" />
    <glyph glyph-name="a.salt_ss" unicode="&#xe000;" 
d="M741 223q-82 -242 -324 -242q-125 0 -203 109t-78 308v200q0 249 141.5 391.5t393.5 142.5t426 -93v-1039h-306v223h-50zM648 909q-207 0 -207 -313v-175q0 -104 32.5 -151.5t101.5 -47.5q105 0 216 156v505q-61 26 -143 26z" />
    <glyph glyph-name="agrave.salt_ss" unicode="&#xe001;" 
d="M741 223q-82 -242 -324 -242q-125 0 -203 109t-78 308v200q0 250 141 392t394 142t426 -93v-1039h-306v223h-50zM648 909q-207 0 -207 -313v-175q1 -103 33 -151t101 -48q105 0 216 156v505q-61 26 -143 26zM553 1303l-372 373h391l191 -373h-210z" />
    <glyph glyph-name="aacute.salt_ss" unicode="&#xe002;" 
d="M741 223q-82 -242 -324 -242q-125 0 -203 109t-78 308v200q0 250 141 392t394 142t426 -93v-1039h-306v223h-50zM648 909q-207 0 -207 -313v-175q1 -103 33 -151t101 -48q105 0 216 156v505q-61 26 -143 26zM510 1303l192 373h391l-374 -373h-209z" />
    <glyph glyph-name="acircumflex.salt_ss" unicode="&#xe003;" 
d="M741 223q-82 -242 -324 -242q-125 0 -203 109t-78 308v200q0 250 141 392t394 142t426 -93v-1039h-306v223h-50zM648 909q-207 0 -207 -313v-175q1 -103 33 -151t101 -48q105 0 216 156v505q-61 26 -143 26zM317 1290l-99 140l313 288h230l317 -288l-99 -140l-333 203z
" />
    <glyph glyph-name="atilde.salt_ss" unicode="&#xe004;" 
d="M741 223q-82 -242 -324 -242q-125 0 -203 109t-78 308v200q0 250 141 392t394 142t426 -93v-1039h-306v223h-50zM648 909q-207 0 -207 -313v-175q1 -103 33 -151t101 -48q105 0 216 156v505q-61 26 -143 26zM866 1698h199v-28q0 -152 -69 -250t-191 -98t-192 95
q-29 35 -53 65t-54 30t-54 -30q-22 -30 -20 -115v-26h-199v27q0 151 70 250t192 99q74 0 127 -34t119 -127q22 -30 52 -29q75 0 73 145v26z" />
    <glyph glyph-name="adieresis.salt_ss" unicode="&#xe005;" 
d="M741 223q-82 -242 -324 -242q-125 0 -203 109t-78 308v200q0 250 141 392t394 142t426 -93v-1039h-306v223h-50zM648 909q-207 0 -207 -313v-175q1 -103 33 -151t101 -48q105 0 216 156v505q-61 26 -143 26zM709 1448q0 135 155 135q72 0 114 -30t42 -105v-22
q0 -71 -43 -99q-44 -27 -113 -27t-112 28t-43 98v22zM432 1583q156 0 154 -135v-22q0 -71 -43 -99q-44 -27 -112 -27t-112 28t-43 98v22q0 135 156 135z" />
    </font>
</defs>
</svg>
