<?xml version="1.0" standalone="no"?>
<!DOCTYPE svg PUBLIC "-//W3C//DTD SVG 20010904//EN"
 "http://www.w3.org/TR/2001/REC-SVG-20010904/DTD/svg10.dtd">
<svg version="1.0" xmlns="http://www.w3.org/2000/svg"
 width="960.000000pt" height="960.000000pt" viewBox="0 0 960.000000 960.000000"
 preserveAspectRatio="xMidYMid meet">
<metadata>
Created by potrace 1.11, written by Peter Selinger 2001-2013
</metadata>
<g transform="translate(0.000000,960.000000) scale(0.100000,-0.100000)"
fill="#000000" stroke="none">
<path d="M4461 9384 c-12 -15 -21 -29 -21 -33 0 -3 -15 -23 -33 -44 -19 -20
-40 -55 -47 -77 -7 -22 -17 -40 -22 -40 -5 0 -7 -4 -3 -10 9 -14 -6 -61 -17
-54 -6 4 -14 0 -19 -7 -6 -10 -9 -6 -9 13 0 20 -6 27 -22 30 -14 2 -29 16 -39
37 -15 32 -15 38 1 80 33 88 34 88 17 69 -9 -12 -17 -14 -24 -7 -13 13 -33
-39 -33 -83 0 -34 -27 -68 -39 -49 -5 7 -16 -2 -32 -26 -13 -21 -28 -37 -33
-35 -13 3 -14 50 -4 90 5 18 7 39 5 45 -2 7 -9 -6 -15 -28 -7 -22 -18 -49 -27
-60 -13 -17 -16 -18 -25 -5 -8 12 -10 11 -10 -6 0 -11 -10 -29 -22 -40 -21
-19 -21 -19 -15 4 4 17 2 22 -8 19 -8 -4 -19 11 -30 41 -24 64 -37 76 -20 17
10 -33 12 -57 6 -79 -5 -17 -10 -23 -10 -13 -1 9 -5 17 -11 17 -5 0 -16 15
-23 32 -13 31 -14 31 -19 10 -3 -12 -2 -22 4 -22 17 0 0 -147 -23 -201 -15
-34 -28 -49 -47 -54 -14 -3 -36 -17 -49 -31 -22 -24 -43 -32 -43 -15 0 5 6 12
13 14 7 4 6 6 -4 6 -22 1 -41 -23 -33 -43 3 -9 1 -16 -5 -16 -6 0 -11 3 -11 8
0 8 -59 36 -112 52 -26 8 -43 8 -55 1 -15 -8 -10 -10 22 -11 45 0 105 -32 105
-55 0 -19 -5 -19 -36 1 -23 16 -27 15 -65 -1 -22 -10 -52 -29 -67 -42 -15 -13
-33 -23 -41 -23 -26 0 -96 -39 -136 -75 -24 -23 -44 -34 -54 -30 -9 4 -18 7
-21 7 -3 0 -15 4 -28 9 -14 6 -29 5 -41 -2 -14 -10 -22 -7 -45 16 -37 37 -30
59 41 135 44 48 76 71 147 105 50 24 114 49 141 55 66 14 87 21 82 26 -2 2
-54 -7 -115 -20 -113 -24 -192 -60 -215 -97 -6 -10 -17 -19 -22 -19 -21 0
-110 -101 -126 -143 -15 -38 -20 -42 -48 -39 -28 3 -42 -7 -126 -93 -73 -73
-99 -94 -111 -87 -13 7 -65 3 -137 -11 -14 -2 -56 -44 -74 -73 -11 -16 -12 -5
-10 64 2 76 -3 96 -18 73 -3 -5 -19 -12 -35 -16 -21 -5 -40 -22 -70 -67 -39
-59 -110 -220 -110 -252 0 -8 -5 -36 -12 -61 -11 -41 -16 -46 -51 -56 -23 -6
-60 -29 -87 -55 -26 -24 -50 -42 -53 -39 -4 3 -5 2 -2 -2 3 -3 -1 -13 -8 -21
-9 -13 -9 -14 1 -8 8 5 12 1 12 -11 1 -17 1 -17 11 0 13 23 22 22 83 -9 28
-14 53 -25 56 -24 3 0 7 -6 8 -16 3 -10 0 -14 -7 -10 -7 5 -11 -4 -11 -23 0
-31 -14 -42 -23 -18 -3 6 -6 -9 -6 -35 -1 -27 -5 -48 -11 -48 -5 0 -10 -7 -10
-15 0 -8 -6 -15 -13 -15 -16 0 -40 -38 -31 -51 3 -6 -1 -18 -9 -27 -8 -9 -17
-28 -20 -42 -6 -22 -5 -22 5 3 12 27 36 32 30 6 -16 -64 -15 -74 0 -61 10 8
19 9 22 3 3 -5 0 -12 -6 -14 -10 -4 -9 -8 2 -16 13 -9 13 -12 -2 -28 -17 -16
-18 -16 -18 5 0 12 -6 22 -14 22 -8 0 -17 10 -19 23 l-4 22 -2 -23 c0 -13 6
-36 14 -52 16 -31 14 -34 -27 -44 -29 -7 -39 -38 -18 -51 6 -4 8 -16 5 -28 -4
-12 -9 -30 -12 -41 -4 -13 -1 -16 8 -11 9 6 11 2 6 -16 -4 -13 -7 -32 -7 -41
0 -10 -7 -18 -15 -18 -16 0 -31 -42 -21 -59 6 -9 -32 -37 -44 -33 -3 1 -5 -7
-5 -18 0 -10 -11 -30 -23 -43 -12 -13 -22 -31 -22 -40 0 -9 -4 -18 -9 -21 -5
-3 -11 -15 -14 -26 -4 -15 -1 -20 11 -18 13 2 18 -6 20 -34 3 -32 -2 -40 -36
-68 -24 -19 -47 -49 -57 -76 -9 -24 -25 -50 -35 -57 -14 -10 -18 -24 -17 -53
2 -29 -2 -43 -18 -57 -16 -14 -17 -16 -2 -11 15 5 16 3 8 -19 -7 -18 -7 -27 1
-29 7 -3 8 -10 1 -23 -6 -11 -16 -38 -23 -60 -7 -22 -20 -48 -28 -58 -15 -17
-15 -17 11 -8 42 16 39 2 -17 -107 -17 -35 -24 -58 -18 -65 5 -7 12 -34 15
-62 3 -27 10 -51 15 -53 5 -1 8 -22 5 -46 -3 -32 0 -45 11 -49 15 -6 14 -13
-6 -94 -7 -29 -17 -43 -31 -47 -17 -4 -19 -8 -9 -18 6 -6 12 -23 12 -38 -1
-24 -1 -24 -12 -5 -11 19 -13 17 -19 -15 -5 -24 -3 -42 7 -57 7 -12 11 -29 8
-37 -4 -11 0 -16 10 -16 19 0 21 -21 4 -38 -9 -9 -8 -12 5 -12 20 0 20 -1 5
-37 -6 -15 -19 -50 -28 -76 -17 -47 -17 -49 1 -44 15 4 19 0 19 -18 0 -13 -5
-27 -11 -31 -8 -5 -8 -9 1 -14 13 -8 -16 -65 -62 -118 -15 -18 -28 -38 -28
-44 0 -6 15 6 34 28 36 42 57 41 38 -1 -14 -31 -16 -58 -3 -51 8 6 21 -39 21
-75 0 -10 5 -30 11 -46 7 -15 13 -35 14 -43 4 -33 18 -60 31 -60 7 0 19 -10
25 -22 15 -28 45 -58 59 -58 5 0 10 -5 10 -12 0 -6 7 -19 15 -28 21 -23 37
-110 20 -110 -8 0 -16 6 -19 13 -3 6 -3 2 0 -11 4 -18 2 -22 -17 -20 -19 3
-23 -2 -26 -31 -2 -19 -10 -45 -18 -57 -14 -21 -13 -24 5 -34 17 -9 19 -17 14
-51 -5 -30 -4 -39 7 -37 7 2 15 -8 18 -22 10 -45 37 -73 63 -65 20 5 20 4 6
-5 -26 -16 -22 -25 12 -27 22 -2 28 1 23 12 -6 18 1 19 27 5 15 -8 23 -5 38
15 17 21 21 23 32 10 7 -8 17 -12 23 -8 6 3 7 1 3 -5 -4 -6 0 -35 8 -63 9 -28
13 -55 11 -59 -3 -5 1 -10 7 -13 10 -3 10 -9 -1 -29 -7 -14 -11 -32 -8 -40 3
-7 6 -3 6 10 2 44 28 22 44 -38 10 -33 22 -60 27 -60 6 0 10 -5 10 -11 0 -6 9
-22 20 -36 19 -24 20 -25 20 -5 0 24 -24 100 -47 151 -12 26 -13 42 -5 67 6
22 6 34 0 36 -11 4 -11 7 -3 177 5 97 3 126 -7 133 -11 6 -10 10 2 17 8 6 11
13 7 17 -4 4 5 27 19 51 14 24 25 54 24 66 -4 46 0 59 15 53 9 -3 15 0 15 10
0 8 7 17 15 20 10 4 12 10 7 18 -14 17 -2 86 14 87 8 1 19 3 24 4 6 1 14 3 19
4 5 0 7 20 4 43 -4 28 -3 39 5 34 6 -3 14 -1 18 5 10 17 11 118 0 122 -5 2 -3
19 4 41 8 24 17 36 25 32 16 -6 32 73 20 101 -4 10 -9 32 -11 48 -2 17 -6 39
-8 50 -3 11 -6 25 -6 30 -1 6 -6 16 -12 22 -6 7 -9 46 -8 85 1 40 1 89 1 108
0 19 7 69 15 110 9 41 17 92 18 112 1 20 5 40 9 44 10 10 9 36 -1 30 -4 -2 -8
4 -8 15 0 10 3 19 6 19 4 0 15 7 26 16 18 14 18 15 -3 4 -32 -15 -29 4 4 29
14 12 23 24 19 28 -4 4 -11 2 -15 -5 -6 -10 -11 -9 -22 4 -9 12 -10 15 -1 10
6 -4 17 -4 23 0 8 4 7 9 -2 14 -10 7 -10 11 0 24 7 9 10 23 7 32 -3 9 3 27 14
41 11 14 17 30 13 37 -12 18 -14 108 -3 101 6 -4 8 -10 5 -15 -10 -16 59 -110
73 -101 10 6 9 11 -3 21 -20 16 -19 40 2 55 15 11 15 15 4 29 -7 9 -10 16 -5
16 4 0 0 6 -10 13 -16 12 -15 14 7 36 16 14 27 19 32 12 3 -6 11 -11 17 -11 6
0 3 9 -7 20 -17 19 -17 20 0 20 11 0 15 5 11 15 -4 12 0 14 22 8 24 -6 26 -5
13 10 -7 10 -20 17 -28 17 -8 0 -13 6 -10 13 2 7 17 11 33 9 21 -2 25 0 15 7
-12 8 -12 12 -2 25 11 13 11 16 0 16 -7 0 -3 11 12 27 18 20 20 25 7 20 -22
-8 -23 2 -2 31 19 28 31 28 37 0 3 -17 5 -15 6 9 0 17 -3 34 -7 37 -5 3 -5 29
-2 58 4 29 5 59 3 66 -4 8 0 10 11 6 14 -5 16 -2 10 20 -9 39 9 56 48 45 18
-5 34 -7 36 -4 3 3 -9 8 -27 11 -17 4 -34 11 -37 15 -8 14 22 39 48 39 13 0
30 4 37 9 10 6 -1 8 -30 4 -39 -6 -43 -4 -31 9 10 13 10 17 0 21 -9 4 -7 6 4
6 9 1 18 6 20 11 2 6 21 13 42 17 28 4 37 3 32 -5 -4 -7 -3 -12 2 -12 6 0 12
7 16 15 6 17 32 20 41 6 3 -5 -2 -16 -10 -25 -14 -13 -13 -15 5 -13 11 1 20 5
20 9 0 4 11 2 25 -4 28 -13 30 -19 13 -37 -11 -10 -10 -11 5 -6 9 4 17 10 17
14 0 3 21 7 47 8 26 1 42 -1 37 -5 -21 -14 -20 -38 3 -59 27 -27 29 -22 6 14
-15 22 -15 26 -3 21 9 -3 41 -11 73 -18 31 -6 57 -15 57 -19 0 -5 -15 -13 -32
-19 -30 -11 -29 -11 22 -7 30 2 65 7 78 11 39 11 23 -12 -18 -26 -21 -7 -37
-17 -34 -22 4 -6 10 -6 16 0 6 6 17 8 24 5 8 -3 14 0 14 6 0 6 5 11 11 11 6 0
25 6 42 14 63 26 83 31 125 28 41 -3 61 -22 22 -22 -11 0 -20 -4 -20 -9 0 -5
19 -5 43 0 113 23 184 23 105 0 -31 -9 -30 -9 20 -10 28 -1 52 -5 52 -11 0 -5
-7 -10 -16 -10 -10 0 -14 -6 -10 -15 4 -10 -1 -15 -14 -15 -11 0 -20 -5 -20
-10 0 -12 48 -2 69 14 12 9 13 8 8 -7 -6 -15 -3 -17 13 -12 15 5 23 0 32 -19
6 -14 17 -26 25 -26 7 0 13 -4 13 -8 0 -5 28 -29 63 -55 34 -26 84 -65 110
-87 27 -22 53 -38 58 -34 5 3 12 -2 15 -11 9 -23 76 -54 115 -53 19 1 28 3 22
5 -7 3 -13 9 -13 15 0 6 6 8 14 5 8 -3 16 -2 18 3 3 10 27 14 72 12 24 -2 27
-4 16 -17 -11 -13 -8 -15 16 -15 22 -1 25 -3 14 -10 -9 -4 -31 -5 -50 0 -19 4
-26 8 -15 9 17 1 17 3 5 11 -20 13 -43 13 -35 0 3 -5 0 -10 -7 -10 -8 -1 -5
-7 7 -16 19 -15 17 -15 -25 -9 -31 5 -42 4 -35 -3 6 -6 65 -12 132 -13 67 -2
130 -6 140 -10 15 -6 14 -8 -7 -9 -15 -1 -19 -4 -11 -7 10 -4 8 -9 -10 -19
-23 -13 -23 -13 9 -8 20 4 32 3 32 -5 0 -6 -7 -11 -15 -11 -8 0 -15 -3 -15 -7
0 -5 18 -8 41 -9 22 0 44 -6 48 -13 5 -7 15 -11 24 -9 9 2 16 0 16 -5 1 -15
26 -34 38 -30 7 3 25 -4 40 -14 15 -11 48 -21 73 -22 45 -2 74 -16 64 -32 -6
-10 59 -39 88 -39 11 0 22 -9 25 -20 3 -11 10 -20 17 -20 6 0 22 -3 36 -6 20
-4 22 -3 10 5 -24 17 -2 13 25 -5 14 -9 22 -21 18 -28 -3 -6 3 -3 15 8 25 21
62 15 43 -8 -9 -10 -7 -17 6 -27 11 -10 17 -11 20 -3 2 7 12 10 22 7 11 -3 27
0 37 5 15 8 23 5 37 -13 11 -16 13 -26 6 -30 -7 -5 -3 -14 10 -26 26 -24 34
-24 19 1 -17 26 0 40 19 15 15 -20 15 -20 10 3 -3 15 -1 22 9 22 8 0 14 -9 14
-20 0 -11 5 -20 11 -20 6 0 8 7 5 16 -3 9 -6 20 -6 25 0 5 -7 9 -15 9 -20 0
-19 16 1 24 26 10 62 7 76 -7 7 -8 27 -17 43 -21 19 -4 25 -3 16 2 -9 7 -10
12 -2 16 6 4 12 1 12 -6 1 -7 2 -19 3 -27 2 -28 26 -23 27 6 0 28 1 28 11 5 7
-13 17 -21 25 -18 7 3 13 1 13 -4 0 -6 -4 -10 -9 -10 -10 0 -8 -58 3 -83 5 -9
6 -26 3 -37 -6 -22 0 -25 22 -11 12 8 12 14 -2 44 -10 19 -17 45 -17 57 0 19
1 20 16 6 8 -9 12 -22 8 -28 -4 -7 3 -3 15 9 11 12 21 28 21 34 0 7 3 10 6 6
8 -8 -5 -44 -23 -62 -8 -9 -12 -19 -9 -23 4 -3 11 0 15 7 5 8 14 10 21 6 9 -5
11 -4 6 3 -8 14 22 82 36 82 6 0 7 -7 4 -16 -4 -10 1 -22 11 -30 11 -8 13 -13
6 -14 -20 0 -15 -24 8 -43 20 -18 21 -18 14 3 -6 18 -3 21 17 19 12 -1 32 -1
43 0 17 3 17 4 -5 11 -22 7 -20 8 15 9 28 0 36 -2 25 -9 -8 -5 -11 -12 -7 -16
3 -4 13 -1 21 5 8 7 16 8 19 4 3 -5 -6 -13 -19 -20 -14 -6 -24 -7 -24 -2 0 6
-8 5 -19 -1 -11 -5 -28 -8 -38 -5 -11 4 -9 1 4 -6 18 -9 21 -18 16 -38 -8 -36
-11 -37 -22 -8 -7 18 -15 25 -26 21 -8 -3 -15 -8 -15 -11 0 -3 7 -3 15 1 8 3
15 1 15 -3 0 -5 -8 -12 -17 -15 -12 -5 -14 -9 -5 -18 7 -7 12 -20 12 -30 0
-10 4 -18 9 -18 5 0 7 8 5 18 -4 13 1 17 20 18 15 1 26 -2 26 -7 0 -6 19 -28
42 -50 35 -33 40 -42 28 -50 -12 -9 -12 -10 3 -5 10 3 24 6 29 6 6 0 8 3 5 7
-4 3 -2 12 4 20 9 10 6 18 -12 33 -13 10 -27 19 -31 20 -3 0 -4 8 -1 19 3 12
-7 28 -33 50 -21 17 -34 31 -28 31 5 0 14 -4 20 -9 5 -5 20 -12 34 -16 25 -8
25 -8 6 14 -28 31 4 28 34 -4 19 -20 26 -23 38 -12 13 10 14 4 10 -46 -5 -56
-4 -57 21 -58 15 0 20 -3 11 -6 -47 -17 -77 -72 -57 -103 16 -26 21 -25 36 6
13 29 6 48 -9 24 -11 -18 -25 -6 -17 15 4 8 15 15 26 15 23 0 34 -36 18 -64
-6 -12 -10 -24 -9 -28 1 -5 -5 -8 -13 -8 -10 0 -15 -10 -15 -31 0 -29 -2 -30
-32 -24 -27 5 -30 4 -15 -5 10 -7 29 -9 43 -6 15 4 24 2 24 -6 0 -6 10 -22 22
-35 12 -13 16 -23 10 -23 -7 0 -12 -7 -12 -15 0 -8 5 -15 10 -15 7 0 7 -6 0
-19 -14 -26 -13 -42 3 -40 26 3 36 -2 81 -46 45 -45 56 -65 36 -65 -5 0 -10 5
-10 10 0 11 -45 60 -55 60 -3 0 -5 -11 -5 -24 0 -14 -5 -28 -11 -32 -8 -4 -7
-9 2 -15 12 -8 12 -10 0 -18 -10 -7 -7 -9 12 -8 31 2 32 5 11 28 -15 17 -15
18 5 16 20 -1 25 -14 24 -54 -1 -7 3 -13 8 -13 5 0 9 5 9 11 0 5 3 8 8 5 12
-7 5 -108 -8 -116 -13 -8 -3 -60 11 -60 5 0 9 -8 9 -17 0 -13 -3 -14 -12 -5
-32 32 -38 -1 -6 -35 12 -13 18 -26 14 -30 -4 -4 -12 0 -17 9 -5 9 -16 24 -24
32 -10 10 -13 25 -9 45 6 27 4 31 -15 31 -11 0 -21 5 -21 10 0 6 9 10 19 10
25 0 37 18 22 33 -8 8 -11 8 -11 -2 0 -9 -11 -11 -37 -8 -21 2 -30 2 -20 0 19
-5 24 -23 5 -23 -22 0 -87 35 -88 48 0 6 -4 12 -9 12 -6 0 -9 -9 -8 -20 1 -11
7 -20 14 -20 18 0 27 -20 13 -33 -9 -9 -15 -8 -25 6 -8 12 -15 14 -20 8 -3 -6
-1 -11 5 -11 7 0 10 -6 7 -13 -4 -10 5 -14 29 -15 21 -1 37 4 40 12 3 8 14 12
26 8 20 -5 20 -5 2 -19 -16 -12 -17 -15 -5 -23 12 -7 12 -11 2 -24 -16 -19
-31 -12 -31 15 0 14 -7 19 -30 19 -16 0 -30 -5 -30 -12 0 -6 -13 3 -28 20 -29
32 -47 40 -54 23 -1 -5 -12 -3 -23 6 -20 15 -20 15 3 8 13 -4 22 -2 22 4 0 14
-41 14 -76 1 -21 -9 -29 -7 -40 7 -7 10 -14 14 -14 9 0 -5 7 -18 17 -28 14
-16 15 -18 0 -18 -9 0 -22 9 -30 20 -12 17 -16 18 -33 6 -10 -7 -39 -16 -63
-19 -28 -3 -39 -2 -31 3 8 5 11 12 8 15 -4 4 -13 3 -20 -1 -14 -9 -19 -10 -64
-12 -23 -2 -31 -7 -30 -18 0 -9 -6 -19 -14 -21 -13 -4 -13 -3 0 6 13 10 13 11
0 12 -40 4 -87 1 -108 -5 -19 -6 -21 -10 -11 -22 10 -12 6 -13 -22 -8 -19 4
-39 11 -45 15 -16 13 -26 -2 -11 -19 10 -13 8 -14 -11 -8 -12 3 -31 9 -42 12
-11 3 -20 1 -20 -5 0 -6 6 -11 14 -11 7 0 19 -6 25 -14 10 -12 1 -13 -61 -10
-40 2 -83 6 -94 9 -17 4 -23 -1 -29 -23 -7 -25 -8 -25 -15 -7 -7 19 -8 19 -15
2 -4 -10 -14 -16 -21 -13 -9 3 -14 -2 -14 -13 0 -14 -6 -17 -27 -13 -27 4 -27
4 -8 -12 18 -14 18 -15 3 -16 -10 0 -18 -5 -18 -11 0 -5 -5 -7 -10 -4 -6 4 -8
10 -5 15 9 15 -10 18 -23 4 -7 -8 -8 -14 -2 -14 5 0 10 -4 10 -10 0 -5 -8 -10
-17 -10 -15 0 -16 -2 -3 -10 12 -7 10 -13 -13 -34 -23 -21 -25 -26 -11 -34 13
-7 11 -12 -13 -28 -15 -10 -33 -17 -40 -16 -19 4 -24 -15 -8 -28 8 -7 15 -19
15 -27 0 -10 7 -14 20 -10 11 3 23 1 26 -4 3 -5 0 -9 -5 -9 -6 0 -11 -6 -11
-14 0 -21 -21 -31 -32 -15 -7 10 -8 7 -4 -11 3 -16 -2 -34 -14 -50 -11 -14
-20 -20 -20 -15 -1 6 -7 -5 -15 -23 -9 -21 -19 -31 -27 -26 -7 5 -9 2 -5 -9 3
-9 -1 -18 -10 -21 -9 -4 -13 -13 -9 -21 3 -9 -1 -18 -9 -22 -12 -4 -13 -9 -4
-19 7 -8 7 -14 2 -14 -14 0 -26 -81 -14 -93 7 -7 7 -16 1 -28 -6 -10 -7 -20
-2 -23 4 -2 9 -19 10 -37 2 -18 6 -36 10 -39 4 -3 13 -16 20 -29 12 -20 12
-25 0 -33 -10 -7 -10 -11 0 -15 6 -2 12 -16 12 -30 0 -21 4 -24 21 -20 17 4
19 3 10 -6 -14 -14 -15 -47 -1 -47 6 0 10 5 10 10 0 20 27 9 38 -15 14 -30 28
-32 35 -5 4 16 11 18 43 14 56 -8 104 -24 104 -34 0 -11 41 -50 52 -50 4 0 8
7 8 15 0 8 5 15 10 15 6 0 10 -7 10 -15 0 -21 16 -19 25 2 6 17 7 17 21 -1 14
-20 14 -20 14 0 1 18 1 18 14 1 11 -14 15 -15 25 -3 6 7 9 20 6 29 -4 10 3 18
24 25 37 13 41 25 6 16 -16 -4 -25 -2 -25 6 0 6 5 8 11 5 6 -4 16 0 22 9 7 9
30 17 52 19 22 1 46 6 53 10 7 5 21 6 31 2 12 -3 21 0 25 10 4 11 -1 15 -17
15 -17 0 -19 2 -7 9 8 6 17 8 21 6 3 -3 14 4 24 15 10 11 24 20 32 20 9 0 12
6 9 18 -5 16 -1 18 29 16 20 -2 35 1 35 8 0 7 5 6 15 -2 8 -7 15 -21 15 -31 0
-12 7 -19 20 -19 11 0 20 6 20 14 0 7 7 19 16 26 13 11 16 10 21 -8 3 -12 9
-19 14 -16 5 3 9 -2 9 -10 0 -10 -6 -13 -15 -10 -10 4 -15 0 -15 -11 0 -11 5
-15 15 -11 8 3 15 0 15 -6 0 -26 19 9 23 42 l4 35 1 -37 c1 -20 7 -40 12 -43
10 -6 12 5 12 53 0 20 1 20 5 2 3 -14 12 -20 31 -20 32 0 46 9 55 33 5 15 13
17 42 11 22 -4 35 -2 35 5 0 6 6 8 14 5 8 -3 19 4 26 16 7 12 18 19 26 16 8
-3 14 1 14 9 0 9 -6 12 -15 9 -10 -4 -15 0 -15 15 0 12 5 22 10 22 6 1 15 3
20 4 6 1 13 3 16 4 4 0 1 8 -6 16 -6 8 -9 18 -6 23 3 6 -1 15 -9 22 -8 7 -15
21 -15 31 0 10 -4 21 -10 24 -5 3 -10 13 -10 22 0 9 -11 31 -25 49 -26 34 -32
54 -15 54 6 0 10 5 10 11 0 7 -9 9 -23 5 -13 -3 -36 -1 -52 3 -17 5 -25 10
-20 11 6 1 15 3 20 5 6 1 16 3 23 3 7 1 10 7 7 12 -3 6 6 15 20 20 33 12 45
13 25 0 -23 -14 -10 -18 75 -21 66 -2 85 -7 108 -26 16 -13 33 -23 38 -23 14
0 11 -27 -3 -34 -7 -3 -4 -4 7 -3 15 1 20 -3 18 -18 -1 -11 3 -22 8 -26 14 -8
28 -187 16 -206 -4 -6 -2 -70 4 -141 8 -98 8 -147 -1 -199 -21 -119 -27 -163
-22 -167 9 -9 106 53 114 73 4 12 12 21 18 21 6 0 10 6 9 12 -6 50 -1 55 62
62 33 3 65 8 69 11 18 11 70 137 86 207 9 40 20 78 26 84 5 7 8 16 7 20 -3 14
35 94 44 94 5 0 6 -15 2 -33 -6 -32 -6 -32 8 -7 85 153 97 179 90 195 -4 12
-3 16 4 12 15 -9 22 21 33 142 5 57 14 109 20 116 7 9 8 15 1 19 -6 4 -7 14
-4 22 3 9 1 19 -4 23 -14 9 -26 51 -15 51 5 0 12 -9 15 -20 3 -11 10 -20 16
-20 7 0 7 8 1 26 -6 14 -10 38 -10 53 0 25 4 29 40 35 22 3 40 11 40 16 0 6 7
10 15 10 8 0 15 5 15 10 0 6 10 10 21 10 16 0 20 5 16 20 -3 12 1 25 11 33 23
16 27 47 7 47 -8 0 -15 -7 -15 -15 0 -8 -4 -15 -10 -15 -10 0 -14 14 -11 38 1
6 -3 12 -9 12 -5 0 -10 -4 -10 -10 0 -5 -7 -10 -15 -10 -21 0 -19 17 5 42 18
19 18 23 5 38 -17 19 -3 40 26 40 20 0 33 26 18 36 -6 3 -8 16 -5 28 4 18 1
17 -18 -7 l-23 -29 -5 26 c-4 17 0 29 10 35 10 5 11 10 4 15 -8 5 -8 15 -1 33
5 14 7 28 5 31 -3 2 1 10 8 17 7 8 16 34 19 60 4 29 16 54 31 70 14 14 23 32
20 39 -4 9 6 21 25 31 36 18 37 24 12 56 -10 13 -16 30 -14 37 3 7 -5 12 -19
12 -14 0 -34 10 -46 23 -26 27 -28 42 -7 33 18 -7 20 5 3 22 -10 10 -10 14 0
21 7 4 10 15 6 24 -3 10 -1 17 6 17 8 0 9 10 5 29 -5 24 -2 30 14 36 12 3 18
12 15 20 -3 7 6 34 20 60 25 44 27 65 6 65 -5 0 -7 -7 -3 -16 4 -12 1 -15 -13
-12 -13 3 -18 11 -16 28 1 14 7 27 12 28 16 6 11 19 -9 25 -25 6 -17 47 11 55
12 3 17 10 13 20 -3 8 -1 20 5 27 7 8 7 21 2 36 -5 13 -7 30 -5 37 3 6 0 12
-7 12 -6 0 -9 4 -5 9 3 5 1 12 -4 15 -5 4 -12 2 -16 -4 -9 -15 -25 -12 -19 4
3 8 0 17 -6 21 -8 5 -6 13 6 26 20 23 38 25 31 4 -4 -8 -1 -17 5 -21 7 -5 9 2
5 22 -3 19 0 35 11 47 14 16 14 18 -3 31 -11 8 -14 15 -8 19 6 4 8 22 3 48 -4
22 -6 51 -3 62 4 18 3 19 -6 7 -6 -8 -11 -25 -11 -37 0 -30 -14 -29 -28 2 -16
34 -15 35 6 35 25 0 22 35 -6 63 -12 12 -22 16 -22 10 0 -7 5 -15 10 -18 6 -3
10 -12 10 -18 0 -17 -49 45 -50 62 0 8 -7 23 -16 33 -15 15 -16 27 -7 85 12
80 10 142 -4 151 -6 4 -13 14 -16 22 -4 12 -6 11 -6 -2 -1 -10 -8 -18 -16 -18
-8 0 -15 -7 -15 -16 0 -8 -4 -13 -9 -10 -5 4 -11 1 -13 -6 -7 -19 -28 1 -28
28 0 15 6 24 15 24 18 0 19 5 3 30 -10 15 -10 27 1 55 14 40 1 99 -24 109 -9
3 -12 16 -10 35 2 17 -1 33 -6 37 -6 3 -6 10 -1 17 5 7 15 36 22 65 l12 52 57
-4 c64 -5 128 -26 174 -57 l32 -21 -27 25 c-26 24 -172 87 -201 87 -24 0 -35
23 -35 72 1 38 7 53 34 83 21 24 34 32 37 23 4 -10 8 -10 16 2 6 9 7 16 1 18
-30 11 29 72 69 72 14 0 33 5 41 10 12 8 10 10 -9 10 -20 0 -22 4 -17 26 6 23
5 25 -8 13 -36 -33 -46 -39 -63 -39 -27 1 32 49 68 57 16 3 29 10 29 15 0 5
16 16 36 24 20 8 34 18 31 20 -3 3 -14 1 -25 -5 -11 -6 -22 -8 -25 -4 -4 3
-30 -4 -59 -15 -29 -12 -72 -26 -96 -32 -24 -6 -58 -20 -75 -31 -48 -29 -57
-25 -57 26 0 40 3 45 28 52 15 4 35 6 45 4 9 -1 17 3 17 8 0 6 -8 11 -18 11
-27 0 -32 9 -21 39 9 24 8 25 -6 7 -17 -23 -55 -32 -55 -13 0 6 6 24 14 38 14
27 26 69 31 110 3 17 -1 26 -11 26 -8 0 -14 -11 -15 -26 0 -14 -6 -41 -13 -60
-10 -27 -14 -31 -19 -18 -10 27 -28 20 -21 -8 3 -14 2 -25 -4 -25 -12 0 -22
74 -10 78 4 2 8 11 8 19 0 13 -3 13 -15 3 -12 -10 -15 -10 -15 3 0 8 6 18 13
20 7 3 7 6 1 6 -6 1 -29 -12 -51 -28 -35 -25 -42 -27 -58 -15 -17 12 -17 14
-2 14 9 0 17 4 17 8 0 5 18 17 40 27 48 22 59 34 25 27 -19 -3 -25 0 -25 12 0
11 22 27 63 46 64 29 65 42 0 15 -45 -19 -46 -19 -35 3 5 9 7 23 4 31 -3 10 0
12 11 8 8 -3 23 3 33 14 9 10 25 19 34 19 9 0 25 9 34 19 17 19 17 19 -2 14
-11 -2 -37 3 -57 13 -35 16 -37 16 -66 -5 -17 -13 -33 -20 -36 -17 -3 3 2 8
11 12 9 3 16 12 16 19 0 7 7 18 15 25 8 7 15 17 15 23 0 6 -17 -5 -37 -25 -36
-34 -103 -73 -103 -60 0 3 18 27 41 54 42 51 44 58 4 32 -23 -15 -23 -15 -36
40 -6 30 -15 53 -19 51 -6 -4 -21 -62 -35 -134 -6 -32 -24 -51 -47 -51 -11 0
-16 -4 -12 -11 4 -7 -2 -9 -17 -7 -15 2 -23 9 -21 18 2 8 0 11 -5 7 -4 -5 -8
-14 -8 -20 0 -7 -17 -12 -39 -13 -33 -1 -46 6 -82 41 -41 39 -57 75 -34 75 18
0 10 18 -10 23 -12 3 -20 14 -20 25 0 12 -4 24 -10 27 -6 4 -7 -5 -4 -24 6
-26 3 -31 -19 -36 -61 -16 -52 22 24 98 22 21 39 45 39 53 0 8 5 14 12 14 6 0
9 2 7 5 -8 8 -49 -7 -43 -16 2 -5 -6 -11 -20 -15 -15 -4 -23 -11 -19 -19 5
-14 -42 -33 -54 -22 -8 9 39 57 55 57 7 0 11 4 7 10 -4 6 -15 6 -30 0 -14 -5
-25 -8 -25 -5 0 2 -13 0 -30 -5 -18 -5 -30 -5 -30 1 0 5 5 9 11 9 6 0 9 7 5
15 -3 8 -1 15 5 15 6 0 18 9 27 19 10 10 40 27 67 37 49 19 49 19 18 22 -19 2
-55 -8 -90 -23 -170 -78 -173 -79 -190 -58 -13 17 -14 17 -12 -2 2 -36 -1 -44
-22 -50 -14 -5 -25 -1 -34 12 -14 17 -14 17 -15 0 0 -11 -6 -17 -12 -14 -14 5
-12 40 3 45 5 2 9 10 9 18 0 8 10 14 24 14 13 0 26 6 29 14 3 7 26 23 51 36
25 12 48 26 52 31 3 5 14 9 25 9 30 0 22 17 -12 24 -32 6 -116 -16 -156 -41
-18 -12 -26 -12 -58 2 -31 12 -41 13 -53 3 -13 -11 -15 -10 -9 4 3 10 -2 26
-13 40 -11 13 -19 18 -20 12 0 -5 -21 -11 -47 -12 -27 -1 -60 -5 -75 -8 -19
-4 -28 -1 -29 8 -5 53 -4 86 4 108 5 14 10 48 11 75 1 45 4 50 26 53 30 4 52
22 26 22 -9 0 -15 3 -13 8 3 4 -1 12 -8 19 -10 9 -15 9 -17 1 -3 -8 -11 -7
-27 2 -15 7 -21 8 -17 1 4 -6 2 -11 -4 -11 -6 0 -18 -7 -26 -15 -18 -17 -44
-20 -44 -5 0 6 11 15 24 20 25 9 44 30 27 30 -5 0 -11 -3 -13 -7 -6 -16 -66
-40 -78 -33 -6 4 -10 18 -8 31 2 18 9 24 26 23 12 0 22 3 22 7 0 10 -30 20
-41 13 -15 -9 -10 18 8 38 9 10 14 20 12 23 -11 11 -97 -88 -109 -126 -8 -22
-23 -47 -34 -55 -27 -18 -37 -18 -29 2 3 9 1 19 -5 23 -7 4 -4 18 7 42 10 20
16 46 14 59 -2 13 0 21 3 17 12 -11 32 39 27 67 -3 15 -1 26 6 26 6 0 11 5 11
11 0 8 -4 8 -14 0 -8 -7 -16 -8 -18 -4 -3 4 -4 3 -2 -3 1 -6 -2 -17 -7 -25 -7
-12 -9 -12 -9 0 0 27 -56 -38 -85 -99 -24 -50 -31 -58 -43 -47 -13 10 -14 6
-10 -26 3 -33 2 -38 -13 -34 -10 3 -20 -1 -23 -9 -3 -7 -21 -16 -41 -20 -19
-3 -38 -10 -41 -15 -9 -16 -40 -10 -59 11 -14 16 -16 23 -7 32 9 9 12 9 12 0
0 -7 4 -12 9 -12 5 0 7 8 4 18 -3 14 5 23 29 35 30 15 31 17 9 17 -20 0 -22 3
-13 12 24 24 12 31 -13 8 -51 -48 -33 -11 27 56 74 82 72 81 -31 -18 -55 -54
-84 -76 -95 -72 -11 4 -14 13 -11 25 4 13 1 19 -9 19 -26 0 -19 16 31 64 25
25 43 46 40 46 -13 0 -52 -25 -60 -38 -5 -7 -13 -9 -19 -6 -7 4 -8 2 -4 -4 14
-24 -24 -12 -50 16 -15 15 -22 19 -15 10 8 -10 11 -28 7 -43 -4 -16 -2 -25 5
-25 7 0 10 -2 7 -5 -9 -9 -38 7 -38 21 0 8 -7 14 -15 14 -29 0 -27 28 9 104
19 42 33 76 31 76 -2 0 -13 -12 -24 -26z m-308 -211 c-4 -11 -3 -14 5 -9 7 4
12 3 12 -2 0 -5 -9 -12 -20 -15 -14 -4 -20 0 -20 12 0 19 8 31 21 31 5 0 5 -7
2 -17z m74 -20 c-11 -10 -26 8 -20 23 5 15 7 14 15 -1 6 -9 7 -19 5 -22z m183
1 c0 -26 -17 -33 -26 -9 -8 20 3 48 16 40 5 -3 10 -17 10 -31z m116 -1 c-10
-10 -19 5 -10 18 6 11 8 11 12 0 2 -7 1 -15 -2 -18z m518 3 c-3 -9 -10 -16
-15 -16 -6 0 -5 9 1 21 13 24 24 20 14 -5z m-480 -41 c3 -9 0 -15 -9 -15 -8 0
-15 7 -15 15 0 8 4 15 9 15 5 0 11 -7 15 -15z m-634 -67 c0 -20 -38 -78 -52
-78 -12 0 -10 43 4 96 l13 46 17 -22 c10 -12 18 -31 18 -42z m110 23 c-15 -30
-32 -16 -18 15 7 15 15 21 21 15 5 -5 4 -17 -3 -30z m120 25 c0 -8 -4 -18 -10
-21 -5 -3 -10 3 -10 14 0 12 5 21 10 21 6 0 10 -6 10 -14z m130 -16 c0 -5 -4
-10 -10 -10 -5 0 -10 5 -10 10 0 6 5 10 10 10 6 0 10 -4 10 -10z m-70 -31 c0
-5 -4 -9 -10 -9 -5 0 -10 7 -10 16 0 8 5 12 10 9 6 -3 10 -10 10 -16z m418 -9
c7 -11 9 -20 4 -20 -10 0 -32 22 -32 32 0 15 15 8 28 -12z m185 1 c7 -28 -5
-41 -46 -48 -42 -6 -48 7 -21 45 19 27 60 29 67 3z m372 -16 c-3 -34 -19 -58
-43 -62 -17 -4 -15 12 8 57 25 49 40 51 35 5z m-957 -14 c3 -8 -1 -12 -9 -9
-7 2 -15 10 -17 17 -3 8 1 12 9 9 7 -2 15 -10 17 -17z m433 -14 c-1 -12 -15
-9 -19 4 -3 6 1 10 8 8 6 -3 11 -8 11 -12z m449 -15 c0 -15 -25 -62 -33 -62
-7 0 0 45 10 63 6 9 23 9 23 -1z m30 -36 c0 -3 -4 -8 -10 -11 -5 -3 -10 -1
-10 4 0 6 5 11 10 11 6 0 10 -2 10 -4z m-93 -48 c-3 -8 -6 -5 -6 6 -1 11 2 17
5 13 3 -3 4 -12 1 -19z m133 7 c0 -8 -4 -15 -10 -15 -5 0 -7 7 -4 15 4 8 8 15
10 15 2 0 4 -7 4 -15z m196 -78 c4 -4 -13 -7 -37 -6 -36 1 -39 2 -19 8 29 9
46 8 56 -2z m-1431 -7 c-3 -5 -11 -10 -16 -10 -6 0 -7 5 -4 10 3 6 11 10 16
10 6 0 7 -4 4 -10z m1342 4 c-3 -3 -12 -4 -19 -1 -8 3 -5 6 6 6 11 1 17 -2 13
-5z m338 -3 c-7 -12 -75 -35 -82 -28 -7 7 48 36 70 37 10 0 16 -4 12 -9z
m-251 -37 c18 -7 22 -49 5 -60 -6 -3 -16 -1 -22 5 -6 6 -17 11 -25 11 -10 0
-10 -4 3 -16 25 -25 10 -29 -23 -5 -17 12 -35 21 -41 21 -6 0 -11 4 -11 9 0
15 18 23 25 11 9 -15 28 -12 22 4 -3 8 -3 17 0 20 8 8 47 8 67 0z m56 -13 c0
-12 -20 -25 -27 -18 -7 7 6 27 18 27 5 0 9 -4 9 -9z m-1511 -22 c-31 -24 -47
-24 -26 -1 10 10 24 19 33 19 12 0 10 -5 -7 -18z m-898 -56 c-8 -15 -10 -15
-11 -2 0 17 10 32 18 25 2 -3 -1 -13 -7 -23z m339 17 c0 -5 -3 -10 -7 -10 -5
0 -19 -3 -33 -6 l-25 -5 25 15 c30 18 40 20 40 6z m120 0 c0 -5 -7 -10 -15
-10 -8 0 -15 5 -15 10 0 6 7 10 15 10 8 0 15 -4 15 -10z m-390 -76 c0 -8 -4
-12 -10 -9 -5 3 -10 10 -10 16 0 5 5 9 10 9 6 0 10 -7 10 -16z m205 -4 c-3 -5
-10 -10 -16 -10 -5 0 -9 5 -9 10 0 6 7 10 16 10 8 0 12 -4 9 -10z m-226 -36
c3 -16 1 -17 -13 -5 -19 16 -21 34 -3 29 6 -3 14 -13 16 -24z m2751 12 c0 -7
-82 -47 -87 -42 -11 11 7 35 29 39 33 6 58 8 58 3z m-2630 -46 c0 -5 -2 -10
-4 -10 -3 0 -8 5 -11 10 -3 6 -1 10 4 10 6 0 11 -4 11 -10z m3032 -14 c3 -15
0 -27 -8 -30 -9 -3 -12 3 -9 22 4 42 10 44 17 8z m-3758 -23 c-4 -10 -20 -53
-35 -97 -45 -128 -66 -125 -33 6 15 59 45 108 67 108 5 0 6 -8 1 -17z m226
-42 c0 -4 -21 -17 -47 -27 -27 -11 -51 -20 -55 -22 -5 -2 -8 4 -8 12 0 18 9
23 54 30 16 3 31 8 34 11 8 8 22 6 22 -4z m13 -36 c1 -6 -11 -11 -28 -13 -29
-3 -29 -3 -10 12 21 16 35 17 38 1z m-228 -32 c4 -12 -1 -24 -15 -35 -30 -25
-43 -13 -25 23 18 33 30 37 40 12z m232 1 c-3 -3 -12 -4 -19 -1 -8 3 -5 6 6 6
11 1 17 -2 13 -5z m223 -4 c0 -5 -4 -10 -10 -10 -5 0 -10 5 -10 10 0 6 5 10
10 10 6 0 10 -4 10 -10z m-289 -38 c-7 -2 -24 -15 -38 -28 -14 -13 -28 -22
-30 -20 -8 8 21 45 39 49 10 3 18 13 18 24 1 17 1 17 12 -1 8 -15 8 -21 -1
-24z m3676 -9 c-9 -9 -20 -13 -24 -9 -4 4 -1 11 7 16 25 16 35 11 17 -7z
m-3865 -25 c-12 -12 -25 -18 -29 -14 -4 4 3 16 17 26 32 24 40 16 12 -12z
m903 3 c-15 -13 -62 -26 -50 -13 6 5 19 12 30 15 11 3 22 5 25 6 2 0 0 -3 -5
-8z m-908 -54 c-12 -28 -27 -36 -27 -15 0 12 31 50 37 45 1 -2 -3 -15 -10 -30z
m3844 -40 c-8 -8 -11 -7 -11 4 0 9 3 19 7 23 4 4 9 2 11 -4 3 -7 -1 -17 -7
-23z m-1 -127 c0 -11 -7 -20 -15 -20 -15 0 -21 21 -8 33 12 13 23 7 23 -13z
m80 -25 c0 -8 -4 -15 -9 -15 -13 0 -22 16 -14 24 11 11 23 6 23 -9z m-4136
-27 c-4 -13 -15 -29 -25 -36 -11 -7 -19 -22 -19 -33 0 -22 -6 -23 -49 -8 -17
6 -31 16 -31 23 0 20 46 58 82 66 49 12 50 12 42 -12z m4127 -38 c5 0 9 -7 9
-16 0 -11 -6 -15 -20 -11 -11 3 -18 2 -16 -1 2 -4 -6 -16 -17 -27 l-20 -20 8
20 c4 11 10 30 13 43 3 15 10 21 19 18 8 -3 19 -6 24 -6z m-4131 -19 c0 -20
-13 -41 -21 -35 -15 9 -10 44 6 44 8 0 15 -4 15 -9z m4359 -95 c-14 -11 -103
-56 -110 -56 -25 0 -3 20 43 39 28 12 49 24 45 27 -3 3 -15 0 -27 -6 -11 -6
-26 -10 -32 -8 -6 2 4 11 22 20 29 14 35 14 48 2 8 -8 13 -16 11 -18z m-19
-63 c-20 -36 -59 -77 -66 -70 -4 3 8 24 27 46 35 41 57 54 39 24z m-4333 -25
c-3 -8 -6 -5 -6 6 -1 11 2 17 5 13 3 -3 4 -12 1 -19z m4173 -12 c0 -2 -7 -6
-15 -10 -8 -3 -15 -1 -15 4 0 6 7 10 15 10 8 0 15 -2 15 -4z m-4220 -46 c0 -5
-4 -10 -10 -10 -5 0 -10 5 -10 10 0 6 5 10 10 10 6 0 10 -4 10 -10z m145 -10
c3 -5 1 -10 -4 -10 -6 0 -11 5 -11 10 0 6 2 10 4 10 3 0 8 -4 11 -10z m4085
-90 c0 -5 -5 -10 -11 -10 -5 0 -7 5 -4 10 3 6 8 10 11 10 2 0 4 -4 4 -10z m40
-30 c0 -5 -6 -10 -14 -10 -8 0 -18 5 -21 10 -3 6 3 10 14 10 12 0 21 -4 21
-10z m-1406 -37 c-8 -34 -24 -54 -24 -30 0 15 20 57 28 57 1 0 -1 -12 -4 -27z
m1410 -19 c3 -8 2 -13 -3 -9 -5 3 -11 -1 -14 -7 -4 -10 -7 -11 -18 0 -11 10
-10 12 5 12 9 0 14 5 11 10 -3 6 -2 10 3 10 6 0 13 -7 16 -16z m-19 -54 c3 -5
2 -10 -4 -10 -5 0 -13 5 -16 10 -3 6 -2 10 4 10 5 0 13 -4 16 -10z m-3075 -59
c0 -5 -7 -11 -14 -14 -10 -4 -13 -1 -9 9 6 15 23 19 23 5z m-210 -21 c0 -5 -5
-10 -11 -10 -5 0 -7 5 -4 10 3 6 8 10 11 10 2 0 4 -4 4 -10z m3320 -20 c0 -5
-2 -10 -4 -10 -3 0 -8 5 -11 10 -3 6 -1 10 4 10 6 0 11 -4 11 -10z m-4430
-175 c0 -8 -7 -15 -16 -15 -14 0 -14 3 -4 15 7 8 14 15 16 15 2 0 4 -7 4 -15z
m207 -21 c-3 -3 -12 -4 -19 -1 -8 3 -5 6 6 6 11 1 17 -2 13 -5z m723 -23 c0
-13 -28 -22 -35 -11 -3 4 1 11 7 13 20 8 28 8 28 -2z m-175 -11 c-27 -12 -43
-12 -25 0 8 5 22 9 30 9 10 0 8 -3 -5 -9z m486 0 c4 0 6 -7 2 -16 -3 -8 -12
-13 -19 -10 -8 3 -14 1 -14 -4 0 -6 -5 -10 -11 -10 -6 0 -9 7 -5 15 3 8 0 15
-7 15 -8 0 -6 4 3 10 8 5 21 8 28 5 8 -3 18 -5 23 -5z m-286 -10 c-4 -6 5 -10
20 -10 15 0 24 -4 20 -10 -3 -5 -15 -10 -25 -10 -10 0 -22 5 -25 10 -6 10 1
30 11 30 3 0 2 -4 -1 -10z m-65 -10 c0 -5 -4 -10 -10 -10 -5 0 -10 5 -10 10 0
6 5 10 10 10 6 0 10 -4 10 -10z m60 -46 c0 -8 -46 -3 -60 6 -13 9 -13 11 -1
19 13 8 61 -12 61 -25z m200 17 c0 -5 -11 -12 -24 -15 -13 -3 -32 -9 -43 -13
-10 -3 -14 -2 -10 3 4 4 22 14 40 20 18 6 33 12 35 13 1 0 2 -3 2 -8z m-34
-72 c-16 -5 -34 -5 -39 -2 -15 9 24 21 48 15 17 -5 16 -7 -9 -13z m114 -19 c0
-5 -4 -10 -9 -10 -5 0 -16 -3 -25 -6 -9 -3 -16 -1 -16 4 0 9 16 17 43 21 4 0
7 -3 7 -9z m40 -20 c-8 -5 -19 -10 -25 -10 -5 0 -3 5 5 10 8 5 20 10 25 10 6
0 3 -5 -5 -10z m-951 -108 c23 -36 23 -37 2 -17 -26 22 -46 55 -34 55 4 0 19
-17 32 -38z m1581 -51 c0 -5 -9 -7 -20 -4 -11 3 -20 7 -20 9 0 2 9 4 20 4 11
0 20 -4 20 -9z m-80 -15 c0 -11 -19 -15 -25 -6 -3 5 1 10 9 10 9 0 16 -2 16
-4z m44 -37 c29 -23 28 -40 -1 -18 -17 12 -17 12 -2 -5 9 -10 32 -19 51 -21
20 -2 45 -8 57 -14 11 -6 31 -16 42 -22 12 -6 46 -13 76 -16 53 -6 73 -16 53
-28 -5 -3 -10 -1 -10 4 0 6 -7 11 -16 11 -14 0 -14 -2 -3 -16 12 -15 10 -16
-21 -11 -19 3 -46 8 -59 13 -16 5 -22 4 -17 -4 3 -6 -8 -3 -26 5 -45 22 -49
27 -13 19 33 -8 34 -9 -15 24 -23 16 -30 18 -21 7 16 -21 1 -23 -32 -5 -35 20
-97 80 -91 90 8 13 19 10 48 -13z m-1344 -63 c0 -3 -4 -8 -10 -11 -5 -3 -10
-1 -10 4 0 6 5 11 10 11 6 0 10 -2 10 -4z m-162 -45 c3 -8 -1 -12 -9 -9 -7 2
-15 10 -17 17 -3 8 1 12 9 9 7 -2 15 -10 17 -17z m53 -29 c-6 -2 -18 3 -26 11
-24 24 -18 29 11 10 15 -9 22 -19 15 -21z m94 -2 c-3 -5 2 -10 12 -10 17 -1
17 -2 -1 -15 -11 -8 -25 -15 -30 -15 -6 0 -4 4 4 10 12 7 11 10 -5 16 -18 7
-18 8 1 15 26 10 26 10 19 -1z m-225 -45 c0 -5 -5 -3 -10 5 -5 8 -10 20 -10
25 0 6 5 3 10 -5 5 -8 10 -19 10 -25z m1787 29 c-3 -3 -12 -4 -19 -1 -8 3 -5
6 6 6 11 1 17 -2 13 -5z m449 -174 c8 0 14 -4 14 -9 0 -6 -9 -9 -20 -8 -13 1
-20 8 -19 22 0 11 3 14 6 8 2 -7 11 -13 19 -13z m2174 -64 c0 -3 -4 -8 -10
-11 -5 -3 -10 -1 -10 4 0 6 5 11 10 11 6 0 10 -2 10 -4z m-1690 -126 c0 -5 -2
-10 -4 -10 -3 0 -8 5 -11 10 -3 6 -1 10 4 10 6 0 11 -4 11 -10z m375 -10 c3
-5 1 -10 -4 -10 -6 0 -11 5 -11 10 0 6 2 10 4 10 3 0 8 -4 11 -10z m285 -5 c6
-8 8 -20 4 -26 -5 -9 -10 -5 -16 10 -5 13 -12 19 -19 15 -8 -4 -9 -3 -5 4 10
16 21 15 36 -3z m-330 -5 c0 -5 -8 -10 -17 -10 -15 0 -16 2 -3 10 19 12 20 12
20 0z m-58 -12 c-9 -9 -15 -9 -24 0 -9 9 -7 12 12 12 19 0 21 -3 12 -12z m465
-10 c-3 -8 -6 -5 -6 6 -1 11 2 17 5 13 3 -3 4 -12 1 -19z m-3567 -33 c-6 -15
-13 -26 -15 -23 -3 2 1 19 8 37 6 17 13 28 15 23 1 -5 -2 -22 -8 -37z m3290
25 c0 -5 -4 -10 -10 -10 -5 0 -10 5 -10 10 0 6 5 10 10 10 6 0 10 -4 10 -10z
m297 -12 c-3 -8 -6 -5 -6 6 -1 11 2 17 5 13 3 -3 4 -12 1 -19z m-637 2 c0 -5
-5 -10 -11 -10 -5 0 -7 5 -4 10 3 6 8 10 11 10 2 0 4 -4 4 -10z m567 -22 c-3
-8 -6 -5 -6 6 -1 11 2 17 5 13 3 -3 4 -12 1 -19z m-3617 -49 c0 -6 -4 -7 -10
-4 -5 3 -10 11 -10 16 0 6 5 7 10 4 6 -3 10 -11 10 -16z m3664 -19 c-6 -5 -24
21 -24 34 0 6 6 1 14 -10 8 -10 12 -21 10 -24z m-174 10 c0 -5 -5 -10 -11 -10
-5 0 -7 5 -4 10 3 6 8 10 11 10 2 0 4 -4 4 -10z m200 -50 c0 -5 -5 -10 -11
-10 -5 0 -7 5 -4 10 3 6 8 10 11 10 2 0 4 -4 4 -10z m-30 -26 c0 -8 -4 -12
-10 -9 -5 3 -10 10 -10 16 0 5 5 9 10 9 6 0 10 -7 10 -16z m67 -6 c-3 -8 -6
-5 -6 6 -1 11 2 17 5 13 3 -3 4 -12 1 -19z m-167 -81 c0 -5 -4 -5 -10 -2 -5 3
-10 14 -10 23 0 15 2 15 10 2 5 -8 10 -19 10 -23z m-3596 -87 c7 -33 6 -34 -9
-16 -8 11 -15 34 -15 50 1 38 14 18 24 -34z m3766 -129 c0 -5 -9 -7 -20 -4
-11 3 -20 7 -20 9 0 2 9 4 20 4 11 0 20 -4 20 -9z m60 -15 c0 -11 -19 -15 -25
-6 -3 5 1 10 9 10 9 0 16 -2 16 -4z m25 -176 c19 -8 19 -9 -2 -9 -12 -1 -25 4
-28 9 -7 12 2 12 30 0z m-3560 -200 c3 -5 -1 -10 -9 -10 -9 0 -16 5 -16 10 0
6 4 10 9 10 6 0 13 -4 16 -10z m2830 -120 c3 -5 -1 -10 -10 -10 -9 0 -13 5
-10 10 3 6 8 10 10 10 2 0 7 -4 10 -10z m145 -6 c0 -2 -7 -4 -15 -4 -8 0 -15
4 -15 10 0 5 7 7 15 4 8 -4 15 -8 15 -10z m560 6 c0 -5 -2 -10 -4 -10 -3 0 -8
5 -11 10 -3 6 -1 10 4 10 6 0 11 -4 11 -10z m-25 -20 c3 -5 2 -10 -4 -10 -5 0
-13 5 -16 10 -3 6 -2 10 4 10 5 0 13 -4 16 -10z m-3923 -52 c-8 -8 -9 -4 -5
13 4 13 8 18 11 10 2 -7 -1 -18 -6 -23z m3839 5 c6 -17 4 -20 -12 -16 -11 3
-19 14 -19 25 0 25 21 19 31 -9z m59 7 c0 -5 -2 -10 -4 -10 -3 0 -8 5 -11 10
-3 6 -1 10 4 10 6 0 11 -4 11 -10z m25 -20 c-3 -5 -14 -10 -23 -10 -15 0 -15
2 -2 10 20 13 33 13 25 0z m25 -40 c0 -5 -2 -10 -4 -10 -3 0 -8 5 -11 10 -3 6
-1 10 4 10 6 0 11 -4 11 -10z m40 0 c0 -5 -4 -10 -10 -10 -5 0 -10 5 -10 10 0
6 5 10 10 10 6 0 10 -4 10 -10z m-1143 -86 c-3 -3 -12 -4 -19 -1 -8 3 -5 6 6
6 11 1 17 -2 13 -5z m1693 -66 c0 -6 -7 -5 -15 2 -8 7 -15 17 -15 22 0 6 7 5
15 -2 8 -7 15 -17 15 -22z m-1830 -52 c0 -3 -4 -8 -10 -11 -5 -3 -10 -1 -10 4
0 6 5 11 10 11 6 0 10 -2 10 -4z m648 -11 c2 -2 -10 -4 -26 -7 -16 -2 -34 2
-40 8 -9 10 -4 11 26 7 20 -3 38 -7 40 -8z m-3381 -14 c10 -16 9 -20 -5 -23
-12 -4 -17 2 -18 19 -2 28 7 30 23 4z m3598 -21 c16 -7 13 -9 -17 -9 -20 -1
-39 -5 -42 -10 -6 -10 23 -26 39 -21 21 6 83 5 79 -2 -2 -4 1 -10 7 -14 17
-10 -10 -24 -48 -24 -17 0 -35 5 -38 10 -5 8 -11 7 -21 -1 -12 -10 -16 -8 -21
10 -4 16 -11 20 -24 16 -11 -4 -36 3 -60 17 -33 19 -37 24 -22 29 25 10 144 9
168 -1z m419 -26 c4 -10 1 -14 -6 -12 -15 5 -23 28 -10 28 5 0 13 -7 16 -16z
m-107 0 c-3 -3 -12 -4 -19 -1 -8 3 -5 6 6 6 11 1 17 -2 13 -5z m13 -54 c0 -5
-4 -10 -10 -10 -5 0 -10 5 -10 10 0 6 5 10 10 10 6 0 10 -4 10 -10z m75 0 c3
-5 3 -15 -1 -21 -6 -11 -23 6 -24 24 0 10 18 9 25 -3z m-390 -20 c-3 -5 -12
-10 -18 -10 -7 0 -6 4 3 10 19 12 23 12 15 0z m-3695 -45 c0 -8 -4 -15 -10
-15 -5 0 -10 7 -10 15 0 8 5 15 10 15 6 0 10 -7 10 -15z m3520 -51 c0 -13 3
-14 13 -5 16 12 27 5 27 -18 0 -9 9 -23 20 -31 14 -10 16 -17 9 -27 -6 -7 -9
-18 -7 -25 6 -16 -28 -49 -77 -74 -27 -13 -63 -21 -110 -23 l-70 -2 49 35 c57
41 83 80 92 136 6 35 14 44 47 49 4 0 7 -6 7 -15z m-3330 -64 c15 0 -8 -82
-29 -101 -11 -11 -21 -18 -22 -17 0 2 -2 17 -4 33 -4 25 -3 27 5 10 8 -16 9
-14 5 10 -12 61 -14 96 -5 90 5 -3 12 5 16 17 7 22 8 21 17 -9 6 -18 13 -33
17 -33z m2890 1 c0 -5 -6 -12 -12 -14 -7 -3 -1 -6 13 -6 15 -1 36 -13 52 -31
32 -35 33 -41 9 -37 -24 3 -92 46 -92 58 0 5 -8 10 -17 10 -17 1 -17 2 0 6 9
2 17 9 17 14 0 5 7 9 15 9 8 0 15 -4 15 -9z m-3033 -17 c-3 -3 -12 -4 -19 -1
-8 3 -5 6 6 6 11 1 17 -2 13 -5z m3333 -49 c-7 -9 -15 -13 -17 -11 -7 7 7 26
19 26 6 0 6 -6 -2 -15z m-3280 -25 c0 -5 -5 -10 -11 -10 -5 0 -7 5 -4 10 3 6
8 10 11 10 2 0 4 -4 4 -10z m3707 -137 c-9 -9 -20 -14 -24 -10 -3 4 2 14 13
21 25 19 33 10 11 -11z m-477 -14 c0 -6 -4 -7 -10 -4 -5 3 -10 11 -10 16 0 6
5 7 10 4 6 -3 10 -11 10 -16z m290 11 c0 -5 -5 -10 -11 -10 -5 0 -7 5 -4 10 3
6 8 10 11 10 2 0 4 -4 4 -10z m-75 -10 c3 -5 1 -10 -4 -10 -6 0 -11 5 -11 10
0 6 2 10 4 10 3 0 8 -4 11 -10z m150 0 c3 -5 -1 -10 -10 -10 -9 0 -13 5 -10
10 3 6 8 10 10 10 2 0 7 -4 10 -10z m-395 -67 c0 -20 -3 -24 -11 -16 -7 7 -9
19 -6 27 10 24 17 19 17 -11z m-159 -68 c1 -17 -18 -17 -25 0 -4 11 -1 15 10
13 8 -2 15 -7 15 -13z m-326 -5 c3 -5 -1 -10 -10 -10 -9 0 -13 5 -10 10 3 6 8
10 10 10 2 0 7 -4 10 -10z m205 -46 c0 -14 -4 -23 -9 -20 -5 3 -7 15 -4 26 7
28 13 25 13 -6z m60 6 c0 -5 -4 -10 -10 -10 -5 0 -10 5 -10 10 0 6 5 10 10 10
6 0 10 -4 10 -10z"/>
<path d="M5338 8763 c7 -3 16 -2 19 1 4 3 -2 6 -13 5 -11 0 -14 -3 -6 -6z"/>
<path d="M4157 9253 c-4 -3 -7 -11 -7 -17 0 -6 5 -5 12 2 6 6 9 14 7 17 -3 3
-9 2 -12 -2z"/>
<path d="M4729 9213 c-13 -16 -12 -17 4 -4 16 13 21 21 13 21 -2 0 -10 -8 -17
-17z"/>
<path d="M5310 9071 c0 -6 4 -13 10 -16 6 -3 7 1 4 9 -7 18 -14 21 -14 7z"/>
<path d="M3620 8949 c27 -5 52 -18 62 -31 10 -13 18 -17 18 -10 0 27 -39 52
-82 51 l-43 -1 45 -9z"/>
<path d="M6294 8485 c-10 -8 -14 -15 -8 -15 6 0 17 7 24 15 16 19 9 19 -16 0z"/>
<path d="M6485 8360 c-25 -11 1 -11 35 0 20 6 21 8 5 8 -11 0 -29 -3 -40 -8z"/>
<path d="M6480 8300 c-8 -5 -12 -11 -9 -14 3 -3 14 1 25 9 21 16 8 20 -16 5z"/>
<path d="M6437 8269 c-9 -5 -21 -8 -26 -4 -5 3 -12 1 -15 -4 -7 -10 100 -8
111 2 3 4 -1 7 -10 7 -8 0 -21 2 -29 5 -7 2 -21 0 -31 -6z"/>
<path d="M6564 8058 l-19 -23 23 19 c21 18 27 26 19 26 -2 0 -12 -10 -23 -22z"/>
<path d="M2020 8046 c0 -3 9 -10 20 -16 11 -6 20 -8 20 -6 0 3 -9 10 -20 16
-11 6 -20 8 -20 6z"/>
<path d="M2030 7299 c0 -5 5 -7 10 -4 6 3 10 8 10 11 0 2 -4 4 -10 4 -5 0 -10
-5 -10 -11z"/>
<path d="M2790 7131 c0 -5 9 -7 20 -4 11 3 20 7 20 9 0 2 -9 4 -20 4 -11 0
-20 -4 -20 -9z"/>
<path d="M3148 7043 c7 -3 16 -2 19 1 4 3 -2 6 -13 5 -11 0 -14 -3 -6 -6z"/>
<path d="M2930 7020 c-9 -6 -10 -10 -3 -10 6 0 15 5 18 10 8 12 4 12 -15 0z"/>
<path d="M3350 7010 c0 -5 7 -10 16 -10 8 0 12 5 9 10 -3 6 -10 10 -16 10 -5
0 -9 -4 -9 -10z"/>
<path d="M3415 7010 c-16 -7 -17 -9 -3 -9 9 -1 20 4 23 9 7 11 7 11 -20 0z"/>
<path d="M1884 6992 c-6 -10 -14 -33 -18 -52 -6 -34 -5 -34 14 9 21 46 24 75
4 43z"/>
<path d="M6720 6885 c0 -5 5 -17 10 -25 5 -8 10 -10 10 -5 0 6 -5 17 -10 25
-5 8 -10 11 -10 5z"/>
<path d="M4450 6486 c0 -2 7 -7 16 -10 8 -3 12 -2 9 4 -6 10 -25 14 -25 6z"/>
<path d="M2440 6270 c0 -5 5 -10 10 -10 6 0 10 5 10 10 0 6 -4 10 -10 10 -5 0
-10 -4 -10 -10z"/>
<path d="M4960 6256 c0 -9 5 -16 10 -16 6 0 10 4 10 9 0 6 -4 13 -10 16 -5 3
-10 -1 -10 -9z"/>
<path d="M4928 6253 c7 -3 16 -2 19 1 4 3 -2 6 -13 5 -11 0 -14 -3 -6 -6z"/>
<path d="M5262 6229 c-10 -15 -11 -24 -3 -32 15 -15 23 -3 19 27 -3 27 -3 27
-16 5z"/>
<path d="M5048 6233 c6 -2 18 -2 25 0 6 3 1 5 -13 5 -14 0 -19 -2 -12 -5z"/>
<path d="M4950 6181 c0 -6 4 -13 10 -16 6 -3 7 1 4 9 -7 18 -14 21 -14 7z"/>
<path d="M5255 6170 c-3 -5 3 -10 14 -10 12 0 21 5 21 10 0 6 -6 10 -14 10 -8
0 -18 -4 -21 -10z"/>
<path d="M5390 6170 c0 -5 5 -10 11 -10 5 0 7 5 4 10 -3 6 -8 10 -11 10 -2 0
-4 -4 -4 -10z"/>
<path d="M5195 6139 c-11 -16 -1 -19 13 -3 7 8 8 14 3 14 -5 0 -13 -5 -16 -11z"/>
<path d="M5530 6105 c0 -8 7 -15 15 -15 8 0 15 7 15 15 0 8 -7 15 -15 15 -8 0
-15 -7 -15 -15z"/>
<path d="M5510 6075 c0 -9 6 -12 15 -9 8 4 12 10 9 15 -8 14 -24 10 -24 -6z"/>
<path d="M5460 6041 c0 -11 5 -23 10 -26 6 -3 10 3 10 14 0 11 -4 23 -10 26
-5 3 -10 -3 -10 -14z"/>
<path d="M5540 6040 c0 -5 5 -10 10 -10 6 0 10 5 10 10 0 6 -4 10 -10 10 -5 0
-10 -4 -10 -10z"/>
<path d="M5760 6029 c0 -5 5 -9 10 -9 6 0 10 -5 10 -11 0 -6 -7 -8 -17 -4 -14
5 -15 4 -6 -6 10 -10 16 -9 28 1 9 7 14 18 12 23 -4 13 -37 18 -37 6z"/>
<path d="M5485 5968 c8 -18 29 -71 47 -118 18 -47 43 -99 55 -115 l21 -30 -5
28 c-3 15 -9 27 -14 27 -5 0 -9 7 -9 16 0 9 -13 42 -29 73 -16 31 -37 77 -46
104 -10 26 -22 47 -26 47 -5 0 -2 -15 6 -32z"/>
<path d="M5570 5960 c0 -19 3 -21 12 -12 9 9 9 15 0 24 -9 9 -12 7 -12 -12z"/>
<path d="M5405 5960 c-3 -5 -1 -10 4 -10 6 0 11 5 11 10 0 6 -2 10 -4 10 -3 0
-8 -4 -11 -10z"/>
<path d="M5640 5961 c-32 -6 -35 -9 -41 -48 -3 -24 -2 -43 3 -43 4 0 8 10 8
23 0 12 5 29 10 37 7 12 11 8 16 -18 8 -42 22 -50 33 -20 6 13 10 17 10 11 1
-7 6 -13 12 -13 8 0 7 6 -2 16 -8 9 -12 27 -11 40 2 13 2 23 0 23 -2 -1 -19
-4 -38 -8z"/>
<path d="M6695 5940 c3 -5 8 -10 11 -10 2 0 4 5 4 10 0 6 -5 10 -11 10 -5 0
-7 -4 -4 -10z"/>
<path d="M5750 5855 c7 -9 15 -13 17 -11 7 7 -7 26 -19 26 -6 0 -6 -6 2 -15z"/>
<path d="M5660 5840 c-9 -6 -10 -10 -3 -10 6 0 15 5 18 10 8 12 4 12 -15 0z"/>
<path d="M5700 5840 c0 -5 5 -10 10 -10 6 0 10 5 10 10 0 6 -4 10 -10 10 -5 0
-10 -4 -10 -10z"/>
<path d="M5650 5800 c0 -5 5 -10 10 -10 6 0 10 5 10 10 0 6 -4 10 -10 10 -5 0
-10 -4 -10 -10z"/>
<path d="M5610 5780 c0 -5 5 -10 10 -10 6 0 10 5 10 10 0 6 -4 10 -10 10 -5 0
-10 -4 -10 -10z"/>
<path d="M5755 5700 c3 -5 8 -10 11 -10 2 0 4 5 4 10 0 6 -5 10 -11 10 -5 0
-7 -4 -4 -10z"/>
<path d="M5760 5500 c0 -13 18 -22 24 -11 3 5 -1 11 -9 15 -8 3 -15 1 -15 -4z"/>
<path d="M5855 5480 c-3 -5 -1 -10 4 -10 6 0 11 5 11 10 0 6 -2 10 -4 10 -3 0
-8 -4 -11 -10z"/>
<path d="M5911 5443 c0 -5 4 -17 9 -28 8 -17 8 -16 7 8 -1 15 -5 27 -9 27 -4
0 -8 -3 -7 -7z"/>
<path d="M5810 5433 c0 -4 5 -15 10 -23 8 -13 10 -13 10 2 0 9 -4 20 -10 23
-5 3 -10 3 -10 -2z"/>
<path d="M5951 5394 c0 -11 3 -14 6 -6 3 7 2 16 -1 19 -3 4 -6 -2 -5 -13z"/>
<path d="M2930 5390 c-8 -5 -10 -10 -5 -10 6 0 17 5 25 10 8 5 11 10 5 10 -5
0 -17 -5 -25 -10z"/>
<path d="M3080 5382 c-52 -5 -56 -17 -5 -17 25 0 45 4 46 8 1 12 -2 13 -41 9z"/>
<path d="M3188 5383 c7 -3 16 -2 19 1 4 3 -2 6 -13 5 -11 0 -14 -3 -6 -6z"/>
<path d="M5726 5365 c4 -8 7 -15 9 -15 2 0 5 7 9 15 3 9 0 15 -9 15 -9 0 -12
-6 -9 -15z"/>
<path d="M5810 5370 c0 -5 5 -10 11 -10 5 0 7 5 4 10 -3 6 -8 10 -11 10 -2 0
-4 -4 -4 -10z"/>
<path d="M2958 5363 c-21 -2 -38 -8 -38 -13 0 -10 56 -2 80 11 8 5 11 8 5 7
-5 -1 -27 -3 -47 -5z"/>
<path d="M5690 5357 c0 -7 10 -18 23 -26 21 -13 22 -13 4 6 -9 11 -14 23 -10
26 3 4 1 7 -5 7 -7 0 -12 -6 -12 -13z"/>
<path d="M2984 5335 c-87 -34 -93 -37 -87 -50 3 -11 -3 -14 -26 -12 -28 2 -29
3 -14 15 15 11 15 12 -5 12 -12 0 -22 -5 -22 -11 0 -6 -8 -8 -18 -5 -12 4 -19
1 -19 -7 0 -8 12 -15 26 -15 65 -4 90 -8 98 -16 4 -4 -16 -6 -45 -5 -28 2 -52
1 -52 -3 0 -5 12 -8 28 -9 33 -1 78 -17 50 -18 -10 -1 -18 -6 -18 -12 0 -12
72 -8 104 6 15 6 17 5 11 -5 -6 -10 -4 -12 8 -7 10 4 17 2 17 -4 0 -6 -9 -9
-19 -6 -10 2 -25 1 -32 -4 -11 -7 -9 -9 6 -10 11 -1 37 -2 58 -3 21 -2 43 -8
49 -14 15 -15 41 -16 32 -1 -5 8 -1 8 14 0 11 -6 30 -11 41 -11 11 0 26 -7 35
-15 8 -8 26 -15 40 -15 14 0 27 -4 30 -9 3 -5 20 -11 38 -14 146 -23 160 -27
154 -42 -2 -7 1 -18 7 -24 8 -8 5 -11 -11 -11 -12 0 -22 5 -22 11 0 6 -8 8
-19 4 -40 -12 -93 -15 -112 -4 -16 8 -25 7 -37 -4 -11 -9 -51 -17 -107 -21
-94 -7 -136 -12 -170 -23 -29 -10 -46 -13 -78 -16 -15 -2 -33 -9 -40 -16 -10
-10 -6 -11 17 -5 22 5 28 4 24 -7 -6 -18 -96 -61 -117 -56 -13 3 -13 5 4 12
11 5 29 17 40 28 19 21 19 21 0 13 -28 -10 -85 -50 -85 -58 0 -5 9 -8 19 -8
11 0 26 -7 35 -15 13 -14 19 -13 58 2 24 9 52 22 63 29 26 17 141 54 166 54
12 0 19 -7 19 -20 0 -11 5 -19 12 -18 6 2 18 -10 26 -26 13 -26 13 -31 -3 -42
-9 -7 -15 -19 -12 -26 4 -10 6 -10 6 1 1 11 6 10 21 -4 21 -19 26 -41 10 -47
-22 -7 57 -68 90 -68 11 0 20 -5 20 -11 0 -8 -14 -10 -40 -6 -23 3 -40 1 -40
-5 0 -5 -5 -6 -12 -2 -6 4 -8 3 -5 -3 7 -12 120 -30 199 -32 22 -1 29 -7 36
-33 8 -32 11 -33 53 -30 l44 3 -50 -27 c-62 -33 -62 -33 -45 -44 9 -5 19 -5
27 1 8 7 19 7 33 -1 14 -7 26 -8 33 -2 7 5 29 12 50 14 28 3 36 1 33 -9 -7
-17 19 -17 33 1 9 11 9 15 -1 19 -7 3 3 6 22 6 19 0 41 -3 49 -8 16 -10 43 -3
36 9 -3 5 4 12 16 15 20 7 19 9 -17 27 -35 17 -36 19 -9 13 l30 -6 -35 23
c-25 17 -30 24 -18 26 10 2 19 11 22 20 3 10 16 22 28 27 31 13 35 54 8 85
-24 28 -20 36 10 20 29 -16 35 -7 20 29 -14 35 -105 131 -124 131 -7 0 -22 9
-34 21 -12 11 -26 18 -31 15 -10 -7 -34 18 -25 27 3 3 -3 8 -14 11 -11 4 -23
14 -26 22 -4 10 -13 13 -25 9 -11 -3 -22 -1 -26 5 -10 16 41 12 83 -6 23 -10
75 -17 137 -19 55 -2 102 -4 105 -5 3 0 -2 -5 -10 -10 -10 -6 -2 -7 25 -3 51
8 53 10 23 24 -39 17 -26 49 21 49 27 0 32 3 21 10 -8 5 -25 10 -38 10 -12 0
-25 7 -28 15 -4 8 -12 15 -19 15 -8 0 -16 8 -18 18 -4 16 -5 16 -6 0 0 -10 -5
-18 -10 -18 -15 0 -20 27 -8 40 10 10 4 11 -25 7 -21 -3 -40 -1 -43 4 -4 5
-15 9 -26 9 -11 0 -17 5 -14 10 8 13 -40 31 -62 23 -11 -4 -14 -3 -9 5 5 8 0
12 -12 12 -11 0 -23 7 -26 16 -4 9 -13 14 -21 10 -8 -3 -15 -1 -15 4 0 6 -3 9
-7 9 -5 -1 -12 0 -18 1 -5 2 -17 4 -25 4 -54 6 -110 20 -110 27 0 5 -22 9 -50
9 -27 0 -49 3 -49 8 3 19 -3 22 -23 11 -18 -10 -20 -9 -15 4 5 14 -8 16 -102
15 -59 -1 -121 -7 -137 -13z m20 -20 c-10 -8 -25 -15 -33 -15 -11 0 -9 4 5 15
10 8 25 15 33 15 11 0 9 -4 -5 -15z m-49 -34 c19 -8 19 -8 -4 -21 -21 -11 -23
-10 -18 3 3 9 1 18 -6 21 -7 2 -7 4 -2 5 6 0 19 -4 30 -8z m104 -45 c-2 -2
-15 -9 -29 -16 -23 -12 -24 -12 -11 3 7 10 20 17 29 17 8 0 13 -2 11 -4z m580
-192 c10 -9 -35 -3 -49 6 -11 8 -7 9 15 4 17 -4 32 -8 34 -10z m-119 -175 c3
-4 23 -18 44 -33 27 -18 40 -34 41 -51 0 -13 -1 -22 -4 -20 -2 3 -9 -5 -15
-18 -12 -24 -63 -41 -170 -57 -33 -5 -62 -14 -66 -20 -4 -6 -14 -8 -23 -4 -13
5 -9 11 21 31 71 48 112 113 112 179 l0 34 28 -17 c15 -10 29 -20 32 -24z
m-130 -29 c0 -5 -5 -10 -11 -10 -5 0 -7 5 -4 10 3 6 8 10 11 10 2 0 4 -4 4
-10z m-190 -24 c0 -3 -4 -8 -10 -11 -5 -3 -10 -1 -10 4 0 6 5 11 10 11 6 0 10
-2 10 -4z m173 -36 c-2 -2 -8 2 -13 10 -6 10 -10 7 -16 -16 -10 -41 -14 -46
-29 -34 -7 6 -25 8 -40 4 -21 -5 -26 -4 -23 7 3 8 12 13 20 11 9 -1 21 5 28
13 7 8 17 15 22 15 5 0 17 7 26 16 15 15 16 15 23 -2 3 -11 5 -21 2 -24z m342
-240 c3 -5 -3 -10 -14 -10 -12 0 -21 5 -21 10 0 6 6 10 14 10 8 0 18 -4 21
-10z"/>
<path d="M2744 5301 c-41 -10 -58 -21 -47 -32 5 -5 27 0 51 12 58 29 57 34 -4
20z"/>
<path d="M2765 5270 c3 -5 8 -10 11 -10 2 0 4 5 4 10 0 6 -5 10 -11 10 -5 0
-7 -4 -4 -10z"/>
<path d="M1650 5260 c0 -5 5 -10 10 -10 6 0 10 5 10 10 0 6 -4 10 -10 10 -5 0
-10 -4 -10 -10z"/>
<path d="M4780 5190 c0 -5 5 -10 11 -10 5 0 7 5 4 10 -3 6 -8 10 -11 10 -2 0
-4 -4 -4 -10z"/>
<path d="M4665 5080 c-3 -5 -1 -10 4 -10 6 0 11 5 11 10 0 6 -2 10 -4 10 -3 0
-8 -4 -11 -10z"/>
<path d="M1776 5037 c3 -10 9 -15 12 -12 3 3 0 11 -7 18 -10 9 -11 8 -5 -6z"/>
<path d="M5730 4780 c0 -13 20 -13 40 0 12 8 9 10 -12 10 -16 0 -28 -4 -28
-10z"/>
<path d="M5710 4740 c0 -5 7 -7 15 -4 8 4 15 8 15 10 0 2 -7 4 -15 4 -8 0 -15
-4 -15 -10z"/>
<path d="M5795 4570 c-3 -5 -1 -10 4 -10 6 0 11 5 11 10 0 6 -2 10 -4 10 -3 0
-8 -4 -11 -10z"/>
<path d="M5730 4415 c0 -8 7 -15 16 -15 14 0 14 3 4 15 -7 8 -14 15 -16 15 -2
0 -4 -7 -4 -15z"/>
<path d="M5708 4368 c9 -9 15 -9 24 0 9 9 7 12 -12 12 -19 0 -21 -3 -12 -12z"/>
<path d="M5352 4331 c14 -23 24 -26 33 -10 8 13 6 15 -23 24 -22 6 -22 5 -10
-14z"/>
<path d="M5270 4330 c0 -5 5 -10 11 -10 5 0 7 5 4 10 -3 6 -8 10 -11 10 -2 0
-4 -4 -4 -10z"/>
<path d="M5225 4290 c-3 -5 1 -10 10 -10 9 0 13 5 10 10 -3 6 -8 10 -10 10 -2
0 -7 -4 -10 -10z"/>
<path d="M5280 4279 c0 -5 5 -7 10 -4 6 3 10 8 10 11 0 2 -4 4 -10 4 -5 0 -10
-5 -10 -11z"/>
<path d="M4595 4230 c-3 -6 1 -13 10 -16 10 -4 13 -13 10 -24 -3 -10 -2 -21 3
-23 7 -5 8 15 3 61 -1 15 -17 16 -26 2z"/>
<path d="M4660 4180 c0 -5 4 -10 9 -10 6 0 13 5 16 10 3 6 -1 10 -9 10 -9 0
-16 -4 -16 -10z"/>
<path d="M4705 4180 c3 -5 8 -10 11 -10 2 0 4 5 4 10 0 6 -5 10 -11 10 -5 0
-7 -4 -4 -10z"/>
<path d="M6240 4072 c0 -7 -5 -12 -10 -12 -12 0 -23 -8 -74 -56 -36 -34 -55
-89 -37 -107 8 -8 11 -7 11 5 0 14 27 31 52 33 4 0 11 5 16 10 13 15 53 127
47 133 -3 3 -5 0 -5 -6z m-38 -94 c-7 -7 -12 -8 -12 -2 0 14 12 26 19 19 2 -3
-1 -11 -7 -17z"/>
<path d="M6152 3908 c2 -5 8 -9 13 -9 5 0 11 4 13 9 1 5 -4 9 -13 9 -9 0 -14
-4 -13 -9z"/>
<path d="M4647 3866 c-4 -10 -1 -13 9 -9 15 6 19 23 5 23 -5 0 -11 -7 -14 -14z"/>
<path d="M6137 3873 c-4 -3 -7 -11 -7 -17 0 -6 5 -5 12 2 6 6 9 14 7 17 -3 3
-9 2 -12 -2z"/>
<path d="M4484 3832 c3 -6 2 -13 -4 -17 -21 -13 -9 -21 26 -17 28 3 35 1 29
-8 -5 -8 -1 -18 10 -26 10 -8 15 -20 11 -29 -3 -9 3 -29 15 -45 12 -15 18 -33
14 -40 -4 -6 5 -22 20 -36 14 -13 21 -24 16 -24 -6 0 -11 -4 -11 -10 0 -5 7
-10 15 -10 8 0 15 -4 15 -10 0 -5 -4 -10 -10 -10 -5 0 -10 -7 -10 -16 0 -14 3
-14 15 -4 9 7 18 10 22 6 3 -3 1 -6 -7 -6 -9 0 -9 -4 -2 -12 15 -19 25 -84 18
-113 -4 -14 -22 -41 -42 -60 -29 -28 -42 -34 -77 -33 -61 2 -80 -7 -130 -62
-25 -28 -48 -50 -51 -50 -3 0 -15 -9 -26 -20 -11 -11 -26 -17 -35 -14 -8 4
-27 3 -41 0 -21 -6 -24 -9 -14 -21 7 -8 23 -15 36 -15 21 0 23 -3 17 -32 -3
-18 -3 -30 2 -26 4 4 21 -1 38 -11 45 -24 69 -33 62 -21 -4 6 5 10 20 10 14 0
24 -4 20 -9 -8 -15 15 -25 28 -12 16 16 44 14 51 -5 8 -20 27 -8 24 14 -2 9 3
16 10 15 14 -3 52 32 52 47 0 14 -23 13 -38 -2 -9 -9 -12 -8 -12 5 0 13 9 17
43 17 24 0 48 -5 55 -12 7 -7 12 -8 12 -2 0 5 -14 18 -30 29 -35 23 -38 35
-10 35 11 0 20 -5 20 -11 0 -5 5 -7 11 -3 6 3 9 15 6 25 -3 11 -1 19 3 19 5 0
11 8 13 18 4 16 5 16 6 0 2 -32 16 -19 16 15 0 18 -5 33 -12 33 -23 3 -24 4
-13 24 6 11 20 20 30 20 11 0 20 7 20 15 0 19 -14 19 -30 0 -8 -9 -17 -12 -22
-7 -12 12 1 42 19 42 11 0 13 5 8 18 -4 9 -10 29 -12 44 -4 22 -1 27 18 30
l24 4 -27 12 c-34 14 -41 27 -28 52 9 16 8 25 -1 36 -14 17 -5 18 22 3 18 -9
19 -8 7 10 -6 11 -16 19 -22 18 -5 -1 -13 13 -16 31 -4 18 -18 41 -30 52 -13
11 -18 20 -11 20 24 0 6 45 -22 58 -23 11 -26 17 -17 26 10 8 14 8 17 -1 5
-14 33 -18 33 -5 -1 14 -73 62 -94 62 -12 0 -32 3 -45 7 -16 4 -22 3 -17 -5z
m-167 -688 c-3 -3 -12 -4 -19 -1 -8 3 -5 6 6 6 11 1 17 -2 13 -5z m83 -44 c0
-5 -5 -10 -11 -10 -5 0 -7 5 -4 10 3 6 8 10 11 10 2 0 4 -4 4 -10z"/>
<path d="M5875 3740 c-3 -5 -1 -10 4 -10 6 0 11 5 11 10 0 6 -2 10 -4 10 -3 0
-8 -4 -11 -10z"/>
<path d="M5986 3701 c-4 -7 -5 -15 -2 -18 9 -9 19 4 14 18 -4 11 -6 11 -12 0z"/>
<path d="M5948 3673 c7 -3 16 -2 19 1 4 3 -2 6 -13 5 -11 0 -14 -3 -6 -6z"/>
<path d="M5950 3650 c0 -5 5 -10 11 -10 5 0 7 5 4 10 -3 6 -8 10 -11 10 -2 0
-4 -4 -4 -10z"/>
<path d="M4706 3523 c-12 -12 -6 -33 9 -33 8 0 15 6 15 14 0 17 -14 28 -24 19z"/>
<path d="M4820 3295 c0 -8 7 -15 15 -15 9 0 12 6 9 15 -4 8 -10 15 -15 15 -5
0 -9 -7 -9 -15z"/>
<path d="M5655 3018 c-2 -7 -11 -35 -20 -63 -10 -27 -20 -81 -24 -120 -5 -62
-8 -70 -26 -67 -18 2 -19 1 -3 -11 20 -16 8 -43 -16 -34 -9 4 -16 3 -16 -2 0
-14 44 -21 53 -8 6 8 7 6 3 -6 -3 -10 -6 -22 -6 -27 0 -11 -84 0 -88 11 -6 14
-19 10 -26 -7 -3 -8 -1 -25 6 -37 10 -20 10 -21 -5 -8 -10 7 -17 24 -17 37 0
16 -6 24 -16 24 -13 0 -15 -7 -11 -30 4 -16 2 -32 -3 -35 -6 -3 -10 -17 -10
-31 0 -26 -9 -31 -28 -12 -9 9 -12 8 -12 -5 0 -9 8 -20 18 -26 16 -9 16 -10
-1 -17 -21 -8 -27 -3 -32 23 -2 10 -4 20 -5 23 -1 6 -29 -42 -30 -52 0 -4 10
-8 23 -10 26 -4 30 -34 5 -32 -20 2 -24 -11 -8 -21 6 -3 10 -12 10 -18 0 -7
-4 -6 -10 3 -7 10 -12 11 -17 4 -5 -6 -17 -14 -28 -19 -18 -7 -18 -9 -2 -12 9
-3 17 -9 17 -14 0 -13 -24 -11 -38 3 -8 8 -12 9 -12 1 0 -6 5 -13 12 -15 17
-6 1 -39 -22 -45 -11 -3 -20 -9 -20 -14 0 -15 -40 -10 -46 6 -4 9 -19 15 -35
15 -19 0 -29 5 -29 15 0 8 7 15 15 15 17 0 19 9 5 30 -8 13 -10 12 -10 -3 0
-10 -7 -20 -15 -23 -8 -4 -15 -12 -15 -19 0 -7 -7 -15 -15 -19 -8 -3 -15 -12
-15 -20 0 -8 -6 -17 -12 -19 -10 -4 -10 -6 -1 -6 7 -1 10 -8 7 -16 -4 -10 -13
-13 -25 -10 -13 4 -19 1 -19 -9 0 -9 -8 -16 -17 -16 -14 0 -14 -3 -5 -12 10
-10 15 -10 22 2 5 8 12 11 17 6 4 -4 0 -12 -9 -17 -10 -5 -15 -16 -12 -24 4
-8 1 -15 -5 -15 -6 0 -11 7 -11 15 0 8 -4 15 -10 15 -5 0 -10 -9 -10 -19 0
-11 -4 -23 -10 -26 -5 -3 -10 -14 -10 -24 0 -10 -9 -26 -20 -36 -26 -23 -25
-35 1 -35 11 0 28 -7 36 -16 15 -14 14 -15 -3 -12 -12 2 -23 -7 -33 -27 -8
-16 -18 -32 -23 -33 -5 -2 -3 -14 5 -26 13 -19 13 -24 -3 -44 -10 -12 -28 -22
-39 -22 -12 0 -21 -4 -21 -10 0 -5 5 -10 11 -10 5 0 7 -5 3 -11 -10 -17 -26
17 -19 41 4 11 2 20 -4 20 -6 0 -11 -7 -11 -15 0 -8 -6 -15 -14 -15 -18 0 -27
-26 -20 -56 4 -14 2 -24 -5 -24 -6 0 -11 -21 -12 -52 -1 -50 -2 -51 -8 -17 -7
35 -36 77 -47 67 -2 -3 2 -20 10 -39 8 -20 11 -40 7 -47 -7 -12 -71 -24 -69
-13 2 21 -4 31 -20 31 -10 0 -33 11 -51 25 l-34 24 -18 -22 -19 -22 6 33 c4
21 3 32 -5 32 -6 0 -11 5 -11 10 0 12 -40 71 -55 82 -19 14 -18 -3 2 -30 11
-15 23 -48 27 -72 3 -25 3 -40 0 -33 -3 7 -12 9 -20 6 -24 -9 -42 26 -36 69 4
36 3 38 -22 38 -30 0 -34 -14 -9 -29 10 -5 15 -12 11 -16 -3 -4 -15 2 -26 13
-18 18 -21 19 -36 4 -15 -15 -16 -14 -16 11 0 16 4 26 10 22 5 -3 7 0 4 9 -9
24 -32 27 -48 5 -13 -20 -14 -19 -20 7 -5 18 -2 32 9 44 11 12 13 20 5 25 -18
11 0 25 35 25 18 0 36 6 38 13 4 10 6 10 6 0 1 -7 11 -13 24 -13 22 1 22 1 -4
24 -30 26 -53 85 -43 109 9 24 17 21 34 -15 8 -18 21 -34 28 -36 14 -4 17 34
2 43 -5 3 -10 12 -9 18 0 9 2 9 6 0 7 -20 43 -16 43 5 0 13 -2 14 -9 3 -5 -8
-11 -9 -15 -3 -3 6 -2 13 4 17 5 3 10 15 10 26 0 10 6 19 13 19 6 0 13 11 13
25 1 14 -2 25 -7 25 -5 0 -9 -5 -9 -11 0 -5 -4 -7 -10 -4 -6 4 -10 -5 -10 -20
0 -16 -4 -24 -10 -20 -6 4 -8 15 -5 26 4 11 2 19 -4 19 -6 0 -11 -7 -11 -15 0
-18 -16 -20 -23 -2 -3 7 -6 5 -6 -5 -1 -10 4 -18 9 -18 6 0 10 -10 10 -22 l-1
-23 -18 22 c-20 23 -103 44 -146 35 -14 -2 -32 1 -40 8 -12 10 -15 9 -15 -6 0
-16 -2 -17 -10 -4 -5 8 -10 11 -10 6 0 -5 -7 -3 -15 4 -8 7 -15 10 -15 8 0 -3
-23 -1 -51 3 -54 9 -83 0 -105 -29 -8 -11 -13 -12 -18 -4 -4 7 -2 12 4 12 6 0
9 4 6 9 -10 15 -88 5 -98 -13 -13 -24 -31 -20 -23 5 5 14 3 19 -4 15 -15 -10
-9 -65 7 -59 20 8 13 -10 -13 -36 -32 -30 -25 -38 15 -17 l32 15 -16 -24 c-14
-21 -14 -25 -2 -25 7 0 21 12 31 26 9 14 19 23 23 20 3 -4 0 -12 -6 -18 -7 -7
-12 -18 -12 -26 0 -12 2 -12 16 -1 15 12 16 11 10 -8 -4 -12 -2 -24 4 -28 6
-3 8 -12 4 -18 -3 -7 3 -2 13 11 23 28 31 22 27 -18 -2 -17 1 -30 6 -30 6 0
10 7 10 15 0 8 5 15 10 15 6 0 10 -7 10 -17 0 -15 1 -15 18 0 25 23 35 21 22
-4 -15 -26 -5 -37 19 -22 16 10 20 9 24 -9 3 -11 1 -32 -5 -47 -9 -24 -11 -24
-17 -7 -7 19 -8 19 -15 1 -4 -10 -2 -21 4 -25 8 -5 6 -9 -4 -13 -9 -4 -15 -10
-14 -14 1 -4 -2 -25 -6 -46 -6 -28 -11 -35 -21 -27 -17 14 -26 1 -14 -21 5
-11 6 -19 2 -19 -4 0 -2 -5 4 -11 15 -15 -14 -62 -33 -55 -10 4 -11 -1 -5 -17
5 -13 18 -23 32 -24 15 -1 17 0 7 3 -22 7 -23 18 -3 34 18 15 21 13 30 -22 6
-22 3 -27 -17 -30 -17 -2 -24 -10 -26 -33 -2 -27 -1 -28 11 -12 8 9 21 17 30
17 19 0 33 -20 21 -29 -9 -6 -28 -43 -38 -73 -10 -32 -25 -19 -28 25 l-3 42
-20 -40 c-11 -22 -30 -50 -43 -62 -13 -12 -22 -30 -20 -40 1 -10 -2 -20 -7
-23 -6 -3 -11 8 -13 24 -3 21 5 37 29 62 18 19 30 37 26 40 -4 4 -15 -3 -26
-14 -21 -25 -41 -31 -21 -7 17 20 5 32 -15 15 -12 -10 -15 -10 -15 4 0 9 -7
16 -15 16 -13 0 -14 -4 -5 -20 7 -14 7 -20 0 -20 -5 0 -9 -3 -9 -7 3 -15 -14
-74 -19 -68 -15 15 -18 123 -3 138 6 6 11 22 11 37 -1 24 -1 24 -16 5 -8 -11
-12 -26 -9 -33 4 -10 0 -12 -10 -8 -10 3 -14 2 -9 -5 3 -6 7 -40 8 -76 2 -48
-1 -66 -12 -70 -7 -3 -10 -9 -4 -12 5 -4 4 -17 -3 -34 -11 -26 -12 -27 -26
-11 -9 11 -9 15 -1 10 6 -4 12 -2 12 4 0 6 -7 13 -15 16 -8 4 -15 12 -15 20 0
8 -9 14 -21 14 -18 0 -20 5 -17 48 2 34 7 47 18 47 8 0 23 14 34 30 10 17 30
42 44 58 14 15 21 27 16 27 -13 0 -47 -39 -59 -65 -7 -19 -8 -18 -14 5 -5 17
-9 21 -15 12 -12 -20 -28 -14 -21 8 4 11 2 20 -4 20 -6 0 -11 -16 -11 -35 0
-34 14 -48 23 -22 2 6 7 9 11 6 4 -4 -3 -17 -16 -29 -16 -14 -23 -33 -24 -59
-1 -21 -4 -50 -8 -65 -4 -18 -3 -25 6 -24 6 2 14 -5 16 -14 2 -10 -1 -18 -7
-18 -6 0 -11 5 -11 10 0 6 -8 10 -19 10 -14 0 -17 6 -15 28 2 15 1 19 -2 8 -6
-20 -28 -46 -39 -46 -3 0 -4 4 -1 9 3 5 -1 12 -10 15 -22 9 -24 8 -18 -8 4
-11 0 -13 -15 -9 -12 3 -21 12 -21 20 0 8 -4 12 -9 9 -5 -3 -25 1 -44 9 -23 9
-38 11 -42 5 -11 -18 -26 -10 -23 13 2 16 -2 22 -15 21 -9 -1 -39 18 -66 42
-26 24 -50 41 -53 38 -3 -2 -11 2 -18 11 -7 8 -18 15 -25 15 -8 0 -23 12 -34
27 -12 14 -23 24 -25 22 -7 -7 6 -59 14 -54 4 2 15 -4 25 -15 10 -11 21 -20
25 -20 16 0 71 -60 65 -70 -3 -5 -3 -16 1 -22 6 -9 10 -5 15 12 l7 25 1 -27
c1 -25 44 -78 63 -78 14 0 9 10 -17 35 -19 16 -22 25 -14 31 7 4 20 -2 32 -17
10 -13 22 -22 26 -19 3 3 7 -5 9 -17 2 -13 8 -23 13 -23 6 0 8 4 4 9 -3 5 -1
12 4 16 6 3 15 -4 21 -15 9 -16 15 -19 24 -10 10 8 15 6 19 -10 3 -12 13 -20
26 -20 12 0 24 -6 27 -14 4 -10 16 -12 43 -9 30 4 41 1 52 -13 24 -32 51 -42
81 -32 20 7 33 6 49 -6 21 -14 24 -14 37 5 l14 20 15 -20 c13 -20 15 -20 31
-5 11 11 17 13 20 5 6 -17 22 -3 22 20 0 22 18 26 26 5 3 -8 16 -13 30 -11 16
1 24 -3 25 -14 0 -9 7 -1 15 17 16 36 29 44 18 10 -6 -19 -5 -21 8 -11 8 7 18
9 22 5 4 -4 14 2 22 12 13 19 14 18 15 -10 1 -40 13 -71 23 -56 4 7 16 12 27
12 10 0 19 7 19 15 0 8 4 15 9 15 4 0 6 -11 4 -24 -3 -13 0 -27 6 -30 6 -4 11
0 11 11 0 14 2 15 9 4 6 -9 11 -10 15 -2 4 6 4 15 1 21 -3 6 1 10 9 10 9 0 16
4 16 10 0 5 10 15 23 21 20 11 21 11 8 -4 -7 -10 -12 -17 -10 -18 44 -8 72 -7
59 1 -12 7 -12 12 -2 22 10 10 15 10 22 -2 9 -13 10 -13 10 0 0 13 2 13 9 1 8
-13 17 -11 55 9 25 12 53 31 62 41 21 23 48 14 34 -11 -7 -14 -6 -20 7 -24 21
-8 35 12 29 42 -3 19 0 23 14 19 12 -3 20 2 23 13 5 18 28 20 60 5 11 -4 23
-3 30 4 17 17 25 13 30 -11 l4 -23 8 23 c8 23 20 28 30 12 10 -16 25 -12 19 5
-4 8 -1 15 5 15 6 0 11 5 11 11 0 6 -7 8 -16 5 -9 -4 -13 -2 -8 5 4 6 0 15 -7
20 -11 6 -11 11 -1 21 18 18 15 28 -10 29 -21 1 -21 2 -3 6 11 3 24 11 28 19
4 8 15 14 23 14 8 0 24 9 36 20 12 11 27 20 34 20 6 0 15 7 18 16 3 8 10 12
16 9 6 -4 9 9 8 33 -2 49 12 75 32 62 9 -6 11 -13 5 -17 -5 -5 -11 -22 -12
-38 -2 -37 29 -64 52 -45 8 7 19 9 25 5 17 -11 11 11 -15 48 -24 37 -24 37 -4
48 17 8 20 17 15 40 -4 22 -1 32 14 41 12 8 20 24 20 40 0 35 17 45 36 22 14
-18 15 -17 10 14 -3 18 -1 32 4 32 6 0 9 6 7 13 -1 6 4 11 11 10 6 -2 12 6 12
17 0 10 6 23 13 27 15 10 57 69 57 81 0 5 11 19 25 32 14 13 25 29 25 37 0 7
7 13 16 13 8 0 12 5 9 10 -4 6 7 10 24 10 17 0 30 -3 29 -7 -3 -16 15 -43 24
-37 7 4 7 9 0 13 -6 4 -17 28 -24 55 -12 45 -11 49 8 65 11 9 19 21 17 27 -5
15 45 63 65 62 9 0 24 1 32 3 21 6 26 -63 6 -83 -12 -13 -12 -20 5 -57 21 -47
13 -75 -26 -86 -17 -5 -18 -7 -5 -18 20 -16 19 -50 -2 -59 -10 -4 -18 -14 -18
-23 0 -8 -4 -15 -10 -15 -5 0 -10 5 -10 10 0 6 -4 10 -8 10 -4 0 -8 -16 -9
-35 -1 -19 2 -35 6 -35 4 0 12 -15 20 -32 12 -30 13 -31 22 -13 7 14 8 9 3
-20 -3 -22 -12 -47 -20 -56 -8 -8 -14 -23 -14 -32 0 -20 -17 -23 -23 -4 -2 6
-2 3 1 -8 12 -50 13 -105 3 -105 -6 0 -11 -7 -11 -15 0 -18 -17 -20 -23 -2 -2
6 -3 -1 -1 -18 3 -16 10 -33 17 -37 8 -5 4 -8 -10 -8 -18 0 -23 -6 -23 -25 0
-17 -10 -32 -35 -47 -38 -25 -40 -41 -7 -46 28 -4 29 -22 2 -22 -13 0 -20 -7
-20 -20 0 -11 3 -19 8 -19 18 3 32 -2 32 -11 0 -5 -9 -10 -20 -10 -11 0 -20
-6 -20 -14 0 -9 7 -12 20 -9 11 3 20 3 20 0 0 -9 -50 -57 -60 -57 -4 0 -6 -18
-3 -40 6 -42 -2 -51 -22 -23 -11 15 -13 15 -24 -5 -6 -11 -12 -32 -13 -45 -2
-17 -7 -24 -18 -22 -12 2 -16 -9 -17 -53 -2 -31 2 -61 9 -69 9 -11 7 -15 -10
-20 -12 -3 -19 -9 -16 -14 3 -5 -1 -9 -9 -9 -18 0 -29 -24 -21 -45 5 -11 -1
-15 -22 -16 -21 -1 -24 -3 -9 -6 48 -12 58 -39 20 -53 -30 -11 -31 -29 -6 -72
l20 -32 -26 -23 c-24 -23 -24 -25 -8 -44 17 -18 17 -19 -3 -19 -12 0 -22 -4
-22 -10 0 -5 9 -10 20 -10 11 0 20 -5 20 -11 0 -7 -9 -9 -24 -5 -19 5 -25 1
-28 -19 -7 -35 23 -61 50 -44 14 9 22 28 26 71 5 43 11 58 23 58 9 0 13 -6 10
-14 -4 -10 -1 -13 8 -10 8 3 19 21 25 40 6 19 19 39 28 45 15 9 15 10 -1 5
-27 -9 -18 26 11 39 30 13 28 27 -3 19 -19 -5 -25 -2 -25 10 0 12 6 15 24 10
24 -6 51 16 28 24 -19 6 -14 30 9 42 11 6 35 9 52 6 30 -6 30 -5 -10 16 -41
21 -61 47 -27 34 11 -4 18 1 21 14 7 25 35 27 31 2 -2 -10 3 -17 12 -17 10 0
16 12 18 37 2 28 9 39 25 44 12 3 32 17 44 31 11 13 24 20 27 14 4 -5 1 -13
-5 -16 -6 -4 -8 -19 -5 -34 4 -16 3 -21 -2 -13 -14 21 -62 -2 -62 -31 0 -31
18 -47 52 -47 26 0 28 -3 28 -41 0 -26 -8 -52 -22 -71 -18 -26 -19 -33 -7 -42
16 -13 13 -66 -4 -66 -12 0 -43 -40 -39 -51 1 -4 -10 -10 -23 -13 -14 -4 -25
-13 -25 -21 0 -8 -12 -22 -27 -32 -16 -10 -31 -22 -35 -28 -5 -6 -8 -5 -8 3 0
18 -25 15 -45 -8 -18 -20 -73 -24 -88 -5 -4 6 -15 1 -26 -12 -11 -13 -27 -23
-38 -23 -10 0 -26 -12 -36 -25 -10 -14 -13 -25 -7 -25 5 0 10 -7 10 -16 0 -8
-4 -13 -9 -10 -10 7 -51 -27 -51 -43 0 -6 -6 -11 -14 -11 -8 0 -23 -11 -34
-25 -11 -14 -25 -25 -31 -25 -6 0 -11 -4 -11 -10 0 -5 -7 -10 -15 -10 -8 0
-15 -4 -15 -10 0 -5 -11 -12 -25 -16 -14 -3 -22 -10 -19 -15 7 -12 33 -5 111
32 34 16 66 29 71 29 14 0 130 66 148 85 9 8 22 15 30 15 12 0 95 60 124 90 3
3 22 16 42 30 21 14 38 31 38 38 0 6 7 12 14 12 8 0 58 43 110 96 94 94 110
105 81 54 -20 -35 -18 -50 5 -50 11 0 20 6 20 14 0 8 7 16 15 20 8 3 15 15 15
26 0 11 8 24 18 27 9 4 20 11 24 17 9 13 10 -35 2 -87 -4 -22 -12 -37 -20 -37
-8 0 -14 -7 -14 -15 0 -9 9 -15 25 -15 30 0 34 -33 8 -63 -13 -15 -15 -21 -5
-24 17 -7 15 -23 -4 -23 -8 0 -12 -5 -9 -10 3 -6 -1 -13 -9 -16 -9 -3 -16 -11
-16 -18 0 -6 -14 -22 -31 -36 -16 -14 -42 -37 -57 -51 -15 -14 -42 -32 -59
-40 -18 -7 -33 -18 -33 -24 0 -12 -61 -55 -78 -55 -7 0 -12 -7 -12 -15 0 -16
16 -21 22 -7 2 5 26 24 53 43 45 31 97 69 149 109 11 8 39 34 63 58 24 23 48
42 53 42 6 0 10 6 10 13 0 6 18 30 40 51 22 22 40 45 40 53 0 7 4 13 9 13 6 0
16 12 23 27 16 32 38 42 38 16 -1 -22 -24 -55 -33 -46 -4 3 -2 -8 2 -24 7 -24
5 -37 -10 -59 -10 -16 -19 -38 -19 -50 0 -12 -11 -30 -25 -40 -14 -10 -23 -25
-20 -32 3 -7 1 -11 -4 -8 -5 3 -14 -1 -21 -9 -10 -12 -10 -15 0 -15 7 0 10 -7
6 -15 -3 -8 -1 -15 4 -15 6 0 10 -7 10 -15 0 -8 -7 -15 -16 -15 -9 0 -14 -6
-11 -12 2 -7 -2 -26 -10 -42 -9 -16 -17 -43 -19 -60 -5 -51 -10 -71 -18 -84
-4 -7 -1 -12 8 -12 9 0 16 6 16 13 0 15 38 40 50 32 13 -8 80 5 80 16 0 5 -7
6 -15 3 -8 -4 -15 -1 -15 5 0 6 6 11 14 11 7 0 27 7 42 15 16 8 40 15 54 16
14 0 19 3 13 6 -7 2 -13 10 -13 16 0 8 4 7 12 -1 7 -7 21 -13 33 -13 16 -1 17
-2 3 -6 -10 -2 -18 -9 -18 -14 0 -5 -14 -9 -30 -9 -23 0 -33 -6 -40 -24 -5
-13 -17 -27 -27 -30 -10 -3 0 -3 22 0 48 7 54 12 35 25 -13 9 -13 10 0 6 31
-8 16 -42 -29 -64 -24 -12 -51 -29 -61 -38 -9 -8 -23 -15 -30 -15 -7 0 -11 -3
-7 -6 3 -4 35 5 69 19 35 14 76 29 93 32 32 7 55 22 55 36 0 5 -13 6 -30 2
-42 -8 -39 14 3 32 19 8 39 21 47 30 7 8 20 14 29 13 12 -2 15 7 15 44 0 38 4
49 18 54 10 3 18 10 18 15 0 5 7 9 15 9 8 0 15 4 15 10 0 10 52 40 69 40 6 0
6 -12 0 -34 -5 -19 -9 -38 -8 -43 4 -25 -3 -43 -18 -44 -10 0 -3 -6 16 -13 41
-15 50 -32 22 -41 -27 -8 -27 -21 0 -28 18 -5 20 -11 14 -36 -4 -17 -5 -31 -3
-31 2 0 62 20 133 44 425 143 836 352 1212 619 62 44 110 83 108 88 -3 4 -42
27 -87 51 -134 70 -246 200 -498 578 -78 117 -138 223 -240 425 -109 216 -163
309 -209 359 -14 16 -75 66 -136 111 -60 45 -123 97 -140 115 -16 18 -48 44
-69 57 -22 14 -72 56 -110 92 -39 37 -98 81 -131 98 -33 17 -76 40 -95 51 -67
40 -156 80 -224 101 -80 25 -76 24 -81 9z m-195 -398 c0 -5 -4 -10 -10 -10 -5
0 -10 5 -10 10 0 6 5 10 10 10 6 0 10 -4 10 -10z m-120 -240 c0 -5 -4 -10 -10
-10 -5 0 -10 5 -10 10 0 6 5 10 10 10 6 0 10 -4 10 -10z m91 -13 c-10 -9 -11
-8 -5 6 3 10 9 15 12 12 3 -3 0 -11 -7 -18z m-306 -127 c3 -5 -1 -10 -9 -10
-9 0 -16 5 -16 10 0 6 4 10 9 10 6 0 13 -4 16 -10z m-45 -40 c0 -5 -4 -10 -10
-10 -5 0 -10 5 -10 10 0 6 5 10 10 10 6 0 10 -4 10 -10z m56 -28 c-4 -3 -11 0
-16 8 -15 24 -11 33 6 15 9 -9 13 -19 10 -23z m94 18 c0 -5 -5 -10 -11 -10 -5
0 -7 5 -4 10 3 6 8 10 11 10 2 0 4 -4 4 -10z m-27 -14 c4 -10 1 -13 -9 -9 -7
3 -14 9 -14 14 0 14 17 10 23 -5z m-1153 -10 c0 -3 -4 -8 -10 -11 -5 -3 -10
-1 -10 4 0 6 5 11 10 11 6 0 10 -2 10 -4z m1090 -12 c0 -2 -17 -4 -37 -3 -33
1 -35 2 -13 8 23 7 50 4 50 -5z m-775 -24 c3 -5 1 -10 -4 -10 -6 0 -11 5 -11
10 0 6 2 10 4 10 3 0 8 -4 11 -10z m779 -8 c3 -4 -11 -9 -30 -9 -19 -1 -34 3
-34 8 0 11 57 12 64 1z m13 -38 c-3 -3 -12 -4 -19 -1 -8 3 -5 6 6 6 11 1 17
-2 13 -5z m-47 -20 c0 -17 -22 -14 -28 4 -2 7 3 12 12 12 9 0 16 -7 16 -16z
m-940 -99 c-7 -9 -9 -22 -5 -32 5 -10 7 -25 6 -33 -2 -8 0 -12 5 -8 4 5 14 -1
22 -13 11 -16 12 -23 3 -32 -9 -9 -11 -8 -6 6 4 10 2 17 -4 17 -6 0 -11 -6
-11 -12 -1 -7 -8 0 -16 15 -9 16 -18 27 -20 24 -2 -2 2 -17 11 -33 17 -34 19
-50 5 -59 -5 -3 -7 0 -4 9 3 9 -5 26 -20 41 -14 14 -26 30 -26 34 0 9 30 25
43 23 11 -3 9 16 -3 20 -15 5 0 48 17 48 13 0 13 -3 3 -15z m1270 -5 c0 -5 -4
-10 -10 -10 -5 0 -10 5 -10 10 0 6 5 10 10 10 6 0 10 -4 10 -10z m-430 -10 c0
-5 -7 -10 -15 -10 -8 0 -15 5 -15 10 0 6 7 10 15 10 8 0 15 -4 15 -10z m-895
-100 c3 -5 1 -10 -4 -10 -6 0 -11 5 -11 10 0 6 2 10 4 10 3 0 8 -4 11 -10z
m313 -36 c-4 -3 -12 5 -18 18 -12 22 -12 22 6 6 10 -10 15 -20 12 -24z m-309
-6 c-5 -10 -14 -18 -19 -18 -5 0 -8 8 -7 18 0 10 9 18 18 18 14 0 15 -4 8 -18z
m-49 -18 c0 -5 -4 -10 -10 -10 -5 0 -10 5 -10 10 0 6 5 10 10 10 6 0 10 -4 10
-10z m340 -16 c7 -17 7 -31 -1 -42 -9 -15 -10 -14 -6 5 3 13 -1 24 -9 27 -16
6 -19 36 -4 36 6 0 15 -12 20 -26z m208 -4 c7 -11 8 -20 3 -20 -6 0 -13 5 -16
10 -11 18 -23 10 -18 -12 4 -21 3 -21 -7 -5 -9 14 -9 22 0 33 16 19 23 18 38
-6z m-483 -21 c4 -11 5 -21 3 -22 -1 -1 -13 -7 -25 -14 -19 -11 -22 -9 -28 14
-10 41 38 62 50 22z m38 -56 c-7 -2 -9 -11 -6 -19 3 -9 -2 -14 -17 -14 -11 0
-19 4 -16 9 4 5 3 11 -1 14 -5 2 -3 2 4 1 6 -2 17 4 24 12 6 8 15 12 18 8 3
-4 1 -9 -6 -11z m234 -35 c-3 -8 -6 -5 -6 6 -1 11 2 17 5 13 3 -3 4 -12 1 -19z
m270 0 c-3 -8 -6 -5 -6 6 -1 11 2 17 5 13 3 -3 4 -12 1 -19z m-553 -82 c-3 -9
-10 -16 -14 -16 -10 0 -22 31 -15 38 3 3 5 0 5 -6 0 -7 5 -12 11 -12 6 0 8 9
4 23 -5 18 -4 19 5 5 5 -9 7 -23 4 -32z m-31 -36 c3 -11 1 -18 -4 -14 -5 3 -9
12 -9 20 0 20 7 17 13 -6z m-202 -37 c-8 -15 -10 -15 -11 -2 0 17 10 32 18 25
2 -3 -1 -13 -7 -23z m106 -23 c-1 -11 -5 -20 -9 -20 -4 0 -8 9 -8 20 0 11 4
20 9 20 6 0 9 -9 8 -20z m720 -12 c-3 -8 -6 -5 -6 6 -1 11 2 17 5 13 3 -3 4
-12 1 -19z m653 -8 c-8 -5 -22 -9 -30 -9 -10 0 -8 3 5 9 27 12 43 12 25 0z
m-1480 -32 c0 -6 -6 -5 -15 2 -8 7 -15 14 -15 16 0 2 7 1 15 -2 8 -4 15 -11
15 -16z m820 12 c0 -5 -4 -10 -10 -10 -5 0 -10 5 -10 10 0 6 5 10 10 10 6 0
10 -4 10 -10z m-856 -21 c-6 -11 -24 -2 -24 11 0 5 7 7 15 4 8 -4 12 -10 9
-15z m-135 -101 c1 -5 -3 -8 -9 -8 -5 0 -10 12 -9 28 0 24 1 25 9 7 5 -11 9
-23 9 -27z m81 7 c0 -8 -4 -15 -10 -15 -5 0 -10 7 -10 15 0 8 5 15 10 15 6 0
10 -7 10 -15z m-52 -30 c-3 -3 -9 2 -12 12 -6 14 -5 15 5 6 7 -7 10 -15 7 -18z
m192 21 c0 -11 -19 -15 -25 -6 -3 5 1 10 9 10 9 0 16 -2 16 -4z m1310 -126 c0
-5 -4 -10 -10 -10 -5 0 -10 5 -10 10 0 6 5 10 10 10 6 0 10 -4 10 -10z m-30
-51 c0 -6 -6 -17 -14 -25 -19 -18 -33 1 -16 21 15 18 30 20 30 4z m-40 -149
c0 -5 -5 -10 -11 -10 -5 0 -7 5 -4 10 3 6 8 10 11 10 2 0 4 -4 4 -10z m580
-100 c0 -13 -5 -18 -15 -14 -8 4 -15 12 -15 20 0 8 7 14 15 14 8 0 15 -9 15
-20z m-130 -10 c0 -5 -5 -10 -11 -10 -5 0 -7 5 -4 10 3 6 8 10 11 10 2 0 4 -4
4 -10z m390 -31 c0 -5 -4 -9 -10 -9 -5 0 -10 7 -10 16 0 8 5 12 10 9 6 -3 10
-10 10 -16z m-290 -13 c0 -3 -4 -8 -10 -11 -5 -3 -10 -1 -10 4 0 6 5 11 10 11
6 0 10 -2 10 -4z m240 -136 c0 -13 -20 -13 -40 0 -12 8 -9 10 13 10 15 0 27
-4 27 -10z m-863 -56 c-3 -3 -12 -4 -19 -1 -8 3 -5 6 6 6 11 1 17 -2 13 -5z
m890 -46 c-3 -8 -6 -5 -6 6 -1 11 2 17 5 13 3 -3 4 -12 1 -19z m153 -2 c0 -3
-4 -8 -10 -11 -5 -3 -10 -1 -10 4 0 6 5 11 10 11 6 0 10 -2 10 -4z m-220 -16
c0 -5 -4 -10 -10 -10 -5 0 -10 5 -10 10 0 6 5 10 10 10 6 0 10 -4 10 -10z
m-36 -79 c3 -5 -1 -12 -10 -15 -8 -3 -12 -11 -9 -16 5 -8 11 -7 21 1 12 10 16
8 21 -9 5 -20 15 -26 36 -23 4 0 7 -5 7 -13 0 -9 -8 -12 -25 -8 -18 3 -31 -2
-44 -17 -18 -21 -48 -30 -36 -11 10 16 -12 12 -29 -5 -8 -8 -19 -15 -25 -15
-17 0 -5 60 15 75 18 13 18 14 2 15 -21 0 -23 7 -5 25 21 21 72 31 81 16z
m246 -22 c0 -5 -7 -9 -15 -9 -15 0 -20 12 -9 23 8 8 24 -1 24 -14z m-150 4
c-8 -3 -21 -10 -27 -16 -9 -7 -13 -5 -13 7 0 11 8 16 28 15 15 0 21 -3 12 -6z
m90 -38 c-1 -13 -38 -40 -67 -49 -18 -6 -22 -4 -17 8 3 9 14 16 23 16 14 1 14
2 -1 14 -27 20 -22 25 22 23 22 -1 40 -6 40 -12z m-145 -75 c3 -6 -4 -10 -17
-10 -18 0 -20 2 -8 10 19 12 18 12 25 0z m-49 -25 c15 -11 16 -14 3 -15 -8 0
-24 7 -35 15 -15 11 -16 14 -3 15 8 0 24 -7 35 -15z m125 -8 c-13 -13 -26 -3
-16 12 3 6 11 8 17 5 6 -4 6 -10 -1 -17z m-176 3 c4 -6 -7 -10 -27 -10 -25 0
-29 3 -18 10 19 13 37 13 45 0z m155 -40 c0 -5 -4 -10 -10 -10 -5 0 -10 5 -10
10 0 6 5 10 10 10 6 0 10 -4 10 -10z"/>
<path d="M5580 2880 c0 -5 5 -10 10 -10 6 0 10 5 10 10 0 6 -4 10 -10 10 -5 0
-10 -4 -10 -10z"/>
<path d="M3370 2815 c0 -21 44 -37 72 -26 22 8 22 9 -9 25 -40 20 -63 21 -63
1z"/>
<path d="M5570 2790 c0 -5 5 -10 10 -10 6 0 10 5 10 10 0 6 -4 10 -10 10 -5 0
-10 -4 -10 -10z"/>
<path d="M5515 2769 c-4 -12 -2 -26 5 -33 10 -8 11 -7 6 8 -3 10 -1 25 5 32 8
9 8 14 1 14 -6 0 -14 -9 -17 -21z"/>
<path d="M4111 2771 c-10 -7 -10 -10 -1 -16 6 -4 16 -3 22 3 13 13 -4 23 -21
13z"/>
<path d="M4271 2762 c-8 -16 -21 -21 -53 -21 -66 0 -78 -3 -78 -18 0 -7 -4
-13 -10 -13 -5 0 -6 -8 -3 -17 6 -16 5 -16 -10 -5 -9 8 -22 12 -29 9 -8 -3 -2
-9 14 -17 37 -17 26 -31 -15 -19 -17 5 -53 9 -78 9 -26 0 -92 15 -150 34 -57
19 -105 33 -107 31 -2 -2 19 -14 47 -27 28 -12 51 -26 51 -30 0 -5 9 -8 20 -8
13 0 18 -5 14 -15 -4 -10 0 -15 12 -15 10 0 36 -8 58 -19 64 -29 101 -39 128
-34 15 3 31 -2 41 -11 8 -9 20 -16 25 -16 5 0 9 -8 8 -17 0 -10 9 -20 24 -24
14 -4 18 -7 11 -8 -13 -1 -13 -3 -2 -13 11 -10 14 -10 18 0 3 6 11 12 18 12 7
0 16 6 18 13 3 6 6 3 6 -8 1 -22 19 -45 34 -45 5 0 4 6 -2 14 -9 11 -9 16 0
22 7 4 15 2 17 -4 2 -7 12 -12 23 -12 10 0 19 -5 19 -11 0 -6 -6 -9 -13 -6 -8
3 -20 -10 -30 -35 -17 -38 -44 -45 -32 -7 4 11 2 19 -4 19 -6 0 -11 6 -11 14
0 8 -3 17 -8 20 -4 2 -6 -14 -5 -37 l3 -42 -13 40 c-8 24 -16 35 -20 28 -4 -6
-4 -18 -1 -27 3 -9 1 -16 -5 -16 -6 0 -11 -4 -11 -10 0 -5 7 -10 15 -10 25 0
19 -57 -7 -72 -13 -7 -26 -12 -30 -13 -4 0 -13 -6 -19 -12 -11 -11 -4 -13 31
-14 25 0 56 -2 70 -3 14 -2 32 0 40 4 41 21 76 33 87 31 7 -1 31 10 54 24 22
15 43 25 45 22 3 -2 27 18 55 44 28 27 57 49 64 49 9 0 11 8 8 23 -5 18 -3 20
8 10 18 -18 29 -16 29 5 0 13 8 17 33 17 26 0 31 4 29 19 -3 14 1 17 14 12 15
-6 15 -4 3 10 -12 15 -11 16 9 10 16 -6 29 -2 43 10 22 19 33 15 23 -10 -3 -9
-15 -16 -26 -16 -10 0 -16 -4 -13 -10 9 -14 42 -12 49 3 3 6 3 -4 0 -23 -6
-34 -5 -34 10 -13 9 12 16 26 15 30 -4 22 3 34 23 42 20 7 18 9 -15 15 -39 7
-49 29 -19 41 15 6 15 8 2 18 -8 7 -23 24 -33 39 -20 32 -60 53 -102 53 -23 0
-29 -4 -27 -17 4 -22 8 -22 -56 2 -29 11 -58 18 -63 14 -5 -3 -16 0 -24 6 -8
6 -19 9 -25 5 -5 -3 -10 -1 -10 6 0 8 -4 9 -13 1 -15 -13 -53 -15 -114 -6 -32
5 -43 3 -43 -7 -1 -10 -5 -8 -15 4 -13 18 -14 18 -24 -1z m89 -220 c0 -4 -9
-13 -20 -20 -22 -13 -27 -3 -8 16 14 14 28 16 28 4z"/>
<path d="M2452 2565 c-39 -59 -110 -201 -127 -256 -4 -13 -18 -46 -30 -74 -12
-27 -35 -79 -51 -115 -15 -36 -43 -88 -60 -116 -18 -27 -46 -75 -62 -106 -61
-113 -251 -362 -320 -420 -19 -16 -63 -33 -119 -47 -48 -12 -119 -34 -157 -48
l-69 -26 64 -59 c279 -255 586 -483 892 -659 208 -121 550 -280 565 -264 4 3
0 10 -8 15 -13 8 -12 10 2 10 9 0 22 8 27 18 9 15 10 15 11 0 0 -9 -6 -19 -12
-21 -7 -3 -3 -6 9 -6 15 -1 23 6 25 21 2 15 9 22 18 19 50 -13 70 -13 70 2 0
9 -9 22 -19 29 -14 10 -17 18 -11 28 8 12 10 12 15 -2 4 -10 13 -14 22 -11 11
4 14 3 9 -6 -9 -14 19 -49 49 -62 17 -6 17 -8 3 -8 -22 -1 -24 -21 -3 -21 8 0
15 -4 15 -10 0 -14 -13 -13 -28 2 -7 7 -12 8 -12 4 0 -5 -7 -3 -15 4 -13 11
-13 15 -3 21 11 7 11 9 0 9 -7 0 -21 -7 -29 -16 -11 -11 -26 -14 -50 -9 -28 5
-33 3 -33 -13 0 -11 8 -26 18 -33 14 -11 15 -11 5 1 -19 21 -16 32 6 19 11 -8
26 -9 37 -4 32 14 49 11 52 -10 2 -11 14 -30 25 -43 20 -21 22 -22 29 -5 6 16
7 16 13 -4 7 -22 65 -51 65 -32 0 5 7 9 15 9 8 0 12 -6 9 -13 -6 -17 136 -61
150 -47 6 6 18 10 28 10 10 0 18 5 18 10 0 6 -16 10 -35 10 -25 0 -35 4 -35
16 0 12 6 15 23 11 12 -3 31 -1 42 3 l20 9 -20 1 c-18 1 -18 2 4 14 l24 14
-22 7 c-15 5 -20 12 -16 25 3 10 -1 25 -9 33 -15 15 -16 53 -2 75 4 7 5 16 2
21 -4 5 0 12 6 14 8 3 5 6 -6 6 -12 1 -16 6 -12 17 5 12 2 15 -10 10 -12 -5
-15 -2 -10 10 7 19 -13 41 -57 64 -23 11 -28 20 -26 45 3 25 -6 39 -45 78 -34
34 -46 54 -43 68 3 12 0 19 -9 19 -8 0 -14 4 -14 10 0 5 -15 24 -32 42 -28 28
-33 39 -30 73 2 33 -2 45 -23 65 -14 13 -25 29 -25 37 0 7 -4 13 -10 13 -5 0
-10 5 -10 11 0 5 5 7 10 4 6 -3 14 -4 20 0 11 7 -5 56 -23 67 -9 6 -9 10 0 16
8 5 8 12 -2 25 -13 18 -13 18 -19 0 -3 -10 -4 -3 -2 16 2 26 -1 35 -16 39 -10
2 -18 8 -18 13 0 17 32 22 41 8 7 -12 9 -11 9 2 0 8 -13 28 -30 44 -16 16 -30
39 -30 52 0 13 -4 23 -10 23 -5 0 -10 11 -10 25 0 17 -4 23 -15 19 -11 -5 -13
1 -10 30 3 20 1 36 -5 36 -6 0 -10 7 -10 16 0 8 -4 13 -9 9 -5 -3 -12 -1 -15
4 -4 5 2 12 11 14 16 4 16 5 -1 6 -15 1 -17 8 -15 45 3 35 1 42 -9 34 -9 -8
-11 -7 -6 6 3 9 1 16 -5 16 -6 0 -11 11 -11 25 0 14 -4 25 -8 25 -5 0 -19 20
-32 45 -12 24 -30 46 -39 48 -9 3 -4 5 12 6 15 0 27 5 27 9 0 19 -26 62 -37
62 -7 0 -10 6 -7 14 3 7 -2 16 -11 19 -16 7 -40 54 -36 74 1 6 -3 14 -9 18 -5
3 -10 14 -10 23 0 10 -9 34 -20 55 -11 20 -20 42 -20 47 0 6 -11 23 -25 38
-14 15 -25 32 -25 39 0 7 -4 13 -9 13 -5 0 -12 15 -15 33 -3 19 -15 43 -26 55
-11 12 -20 26 -20 31 0 5 -15 41 -34 78 -19 37 -46 107 -61 155 -14 48 -29 89
-33 92 -4 2 -27 -24 -50 -59z m412 -774 c-2 -3 -12 3 -22 13 -16 17 -16 18 5
5 12 -7 20 -15 17 -18z m83 -1063 c-3 -8 -6 -5 -6 6 -1 11 2 17 5 13 3 -3 4
-12 1 -19z m393 -88 c0 -5 -4 -10 -10 -10 -5 0 -10 5 -10 10 0 6 5 10 10 10 6
0 10 -4 10 -10z m-423 -47 c-17 -18 -22 -8 -11 22 5 12 10 13 17 6 8 -8 6 -16
-6 -28z m100 -7 c4 -5 -2 -5 -14 -2 -12 4 -24 2 -28 -4 -3 -6 -11 -8 -16 -5
-5 4 -9 1 -9 -6 0 -6 8 -9 19 -6 25 6 36 -34 19 -65 -24 -42 -35 -49 -61 -39
-28 11 -43 29 -32 39 3 3 10 0 15 -8 7 -11 12 -11 23 -2 7 7 17 9 20 5 4 -3 7
-1 7 5 0 7 -4 12 -8 12 -5 0 -17 6 -27 14 -18 13 -18 14 3 44 17 23 29 30 52
28 16 -1 33 -6 37 -10z m383 -42 c0 -8 -4 -12 -10 -9 -5 3 -10 10 -10 16 0 5
5 9 10 9 6 0 10 -7 10 -16z m-330 -54 c0 -5 -5 -10 -11 -10 -5 0 -7 5 -4 10 3
6 8 10 11 10 2 0 4 -4 4 -10z m-30 -30 c0 -5 -4 -10 -10 -10 -5 0 -10 5 -10
10 0 6 5 10 10 10 6 0 10 -4 10 -10z m-50 -21 c0 -5 -7 -9 -15 -9 -15 0 -20
12 -9 23 8 8 24 -1 24 -14z m450 -71 c0 -16 -3 -19 -11 -11 -6 6 -8 16 -5 22
11 17 16 13 16 -11z"/>
<path d="M2930 544 c0 -8 5 -12 10 -9 6 4 8 11 5 16 -9 14 -15 11 -15 -7z"/>
<path d="M5305 2500 c-3 -5 -2 -10 4 -10 5 0 13 5 16 10 3 6 2 10 -4 10 -5 0
-13 -4 -16 -10z"/>
<path d="M5210 2483 c-13 -15 -12 -16 4 -10 10 4 22 7 27 7 6 0 7 5 4 10 -9
14 -18 12 -35 -7z"/>
<path d="M5210 2440 c0 -5 7 -10 16 -10 8 0 12 5 9 10 -3 6 -10 10 -16 10 -5
0 -9 -4 -9 -10z"/>
<path d="M5245 2410 c-3 -5 -1 -10 4 -10 6 0 11 5 11 10 0 6 -2 10 -4 10 -3 0
-8 -4 -11 -10z"/>
<path d="M5191 2401 c-7 -5 -9 -11 -4 -14 5 -3 15 -2 22 2 7 5 9 11 4 14 -5 3
-15 2 -22 -2z"/>
<path d="M4187 2386 c-4 -10 -5 -21 -2 -24 9 -9 17 6 13 25 -3 17 -4 17 -11
-1z"/>
<path d="M5040 2360 c0 -5 7 -10 15 -10 8 0 15 5 15 10 0 6 -7 10 -15 10 -8 0
-15 -4 -15 -10z"/>
<path d="M4635 2340 c3 -5 8 -10 11 -10 2 0 4 5 4 10 0 6 -5 10 -11 10 -5 0
-7 -4 -4 -10z"/>
<path d="M4671 2334 c0 -11 3 -14 6 -6 3 7 2 16 -1 19 -3 4 -6 -2 -5 -13z"/>
<path d="M5412 2308 c-7 -7 -12 -19 -12 -28 0 -9 -5 -21 -12 -28 -9 -9 -9 -12
3 -12 14 0 37 28 51 63 9 20 -11 24 -30 5z"/>
<path d="M4916 2291 c-4 -5 -2 -12 3 -15 5 -4 12 -2 15 3 4 5 2 12 -3 15 -5 4
-12 2 -15 -3z"/>
<path d="M4968 2283 c7 -3 16 -2 19 1 4 3 -2 6 -13 5 -11 0 -14 -3 -6 -6z"/>
<path d="M4556 2243 c-6 -14 -5 -15 5 -6 7 7 10 15 7 18 -3 3 -9 -2 -12 -12z"/>
<path d="M3820 2241 c0 -17 18 -21 24 -6 3 9 0 15 -9 15 -8 0 -15 -4 -15 -9z"/>
<path d="M4705 2240 c3 -5 8 -10 11 -10 2 0 4 5 4 10 0 6 -5 10 -11 10 -5 0
-7 -4 -4 -10z"/>
<path d="M4963 2243 c4 -3 -1 -12 -11 -19 -20 -15 -12 -27 12 -18 18 7 22 44
4 44 -6 0 -8 -3 -5 -7z"/>
<path d="M4496 2216 c7 -19 38 -22 32 -3 -3 6 -12 13 -21 15 -12 2 -15 -1 -11
-12z"/>
<path d="M5360 2186 c0 -8 5 -18 10 -21 6 -3 10 1 10 9 0 8 -4 18 -10 21 -5 3
-10 -1 -10 -9z"/>
<path d="M4865 2170 c-3 -5 -1 -10 4 -10 6 0 11 5 11 10 0 6 -2 10 -4 10 -3 0
-8 -4 -11 -10z"/>
<path d="M5410 2156 c0 -9 5 -16 10 -16 6 0 10 4 10 9 0 6 -4 13 -10 16 -5 3
-10 -1 -10 -9z"/>
<path d="M4391 2144 c0 -11 3 -14 6 -6 3 7 2 16 -1 19 -3 4 -6 -2 -5 -13z"/>
<path d="M4480 2140 c0 -12 37 -12 65 0 15 7 10 9 -22 9 -24 1 -43 -3 -43 -9z"/>
<path d="M4580 2130 c0 -5 5 -10 10 -10 6 0 10 5 10 10 0 6 -4 10 -10 10 -5 0
-10 -4 -10 -10z"/>
<path d="M5300 2120 c0 -5 5 -10 10 -10 6 0 10 5 10 10 0 6 -4 10 -10 10 -5 0
-10 -4 -10 -10z"/>
<path d="M5325 2090 c-3 -5 -2 -10 4 -10 5 0 13 5 16 10 3 6 2 10 -4 10 -5 0
-13 -4 -16 -10z"/>
<path d="M4900 2060 c0 -5 5 -10 10 -10 6 0 10 5 10 10 0 6 -4 10 -10 10 -5 0
-10 -4 -10 -10z"/>
<path d="M5345 2050 c3 -5 8 -10 11 -10 2 0 4 5 4 10 0 6 -5 10 -11 10 -5 0
-7 -4 -4 -10z"/>
<path d="M4505 2040 c3 -5 10 -10 16 -10 5 0 9 5 9 10 0 6 -7 10 -16 10 -8 0
-12 -4 -9 -10z"/>
<path d="M4930 2040 c0 -5 5 -10 10 -10 6 0 10 5 10 10 0 6 -4 10 -10 10 -5 0
-10 -4 -10 -10z"/>
<path d="M4590 2031 c0 -12 29 -23 42 -15 6 4 5 10 -3 15 -18 11 -39 11 -39 0z"/>
<path d="M4886 2014 c-11 -8 -16 -14 -10 -14 13 0 39 18 34 24 -3 2 -14 -2
-24 -10z"/>
<path d="M4368 2003 c7 -3 16 -2 19 1 4 3 -2 6 -13 5 -11 0 -14 -3 -6 -6z"/>
<path d="M2820 1950 c0 -5 5 -10 10 -10 6 0 10 5 10 10 0 6 -4 10 -10 10 -5 0
-10 -4 -10 -10z"/>
<path d="M4020 1920 c0 -5 9 -10 20 -10 11 0 20 5 20 10 0 6 -9 10 -20 10 -11
0 -20 -4 -20 -10z"/>
<path d="M5163 1896 c7 -14 13 -23 15 -21 7 6 -9 45 -18 45 -4 0 -3 -11 3 -24z"/>
<path d="M5130 1879 c0 -5 5 -7 10 -4 6 3 10 8 10 11 0 2 -4 4 -10 4 -5 0 -10
-5 -10 -11z"/>
<path d="M5105 1821 c-3 -5 -1 -12 5 -16 5 -3 10 1 10 9 0 18 -6 21 -15 7z"/>
<path d="M3851 1774 c0 -11 3 -14 6 -6 3 7 2 16 -1 19 -3 4 -6 -2 -5 -13z"/>
<path d="M2896 1761 c-5 -8 5 -20 30 -34 7 -4 9 2 6 18 -4 25 -25 34 -36 16z"/>
<path d="M3690 1721 c0 -5 -3 -16 -6 -25 -3 -9 -2 -16 4 -16 13 0 23 38 11 46
-5 3 -9 1 -9 -5z"/>
<path d="M2957 1697 c-2 -6 2 -18 9 -25 12 -11 14 -9 14 7 0 23 -16 36 -23 18z"/>
<path d="M3727 1689 c7 -7 15 -10 18 -7 3 3 -2 9 -12 12 -14 6 -15 5 -6 -5z"/>
<path d="M3650 1611 c0 -5 7 -12 16 -15 14 -5 15 -4 4 9 -14 17 -20 19 -20 6z"/>
<path d="M3876 1605 c4 -8 8 -15 10 -15 2 0 4 7 4 15 0 8 -4 15 -10 15 -5 0
-7 -7 -4 -15z"/>
<path d="M4895 1570 c3 -5 10 -10 16 -10 5 0 9 5 9 10 0 6 -7 10 -16 10 -8 0
-12 -4 -9 -10z"/>
<path d="M4968 1553 c7 -3 16 -2 19 1 4 3 -2 6 -13 5 -11 0 -14 -3 -6 -6z"/>
<path d="M3740 1530 c0 -5 5 -10 10 -10 6 0 10 5 10 10 0 6 -4 10 -10 10 -5 0
-10 -4 -10 -10z"/>
<path d="M4855 1520 c3 -5 11 -10 16 -10 6 0 7 5 4 10 -3 6 -11 10 -16 10 -6
0 -7 -4 -4 -10z"/>
<path d="M3456 1512 c-2 -4 -1 -14 5 -22 7 -12 9 -10 9 8 0 23 -5 28 -14 14z"/>
<path d="M3740 1489 c0 -11 5 -17 10 -14 6 3 10 13 10 21 0 8 -4 14 -10 14 -5
0 -10 -9 -10 -21z"/>
<path d="M4820 1480 c-12 -8 -9 -10 13 -10 16 0 26 4 22 10 -8 12 -16 12 -35
0z"/>
<path d="M4633 1372 c1 -14 5 -18 11 -12 7 7 6 14 -1 21 -9 9 -12 7 -10 -9z"/>
<path d="M4721 1344 c0 -11 3 -14 6 -6 3 7 2 16 -1 19 -3 4 -6 -2 -5 -13z"/>
<path d="M4680 1330 c0 -6 7 -10 15 -10 8 0 15 2 15 4 0 2 -7 6 -15 10 -8 3
-15 1 -15 -4z"/>
<path d="M4632 1295 c0 -16 2 -22 5 -12 2 9 2 23 0 30 -3 6 -5 -1 -5 -18z"/>
<path d="M4578 1273 c7 -3 16 -2 19 1 4 3 -2 6 -13 5 -11 0 -14 -3 -6 -6z"/>
<path d="M4711 1264 c0 -11 3 -14 6 -6 3 7 2 16 -1 19 -3 4 -6 -2 -5 -13z"/>
<path d="M4300 1250 c0 -5 5 -10 10 -10 6 0 10 5 10 10 0 6 -4 10 -10 10 -5 0
-10 -4 -10 -10z"/>
<path d="M3145 1190 c3 -5 8 -10 11 -10 2 0 4 5 4 10 0 6 -5 10 -11 10 -5 0
-7 -4 -4 -10z"/>
<path d="M5270 935 c0 -8 2 -15 4 -15 2 0 6 7 10 15 3 8 1 15 -4 15 -6 0 -10
-7 -10 -15z"/>
<path d="M5095 920 c-3 -5 1 -10 9 -10 9 0 16 5 16 10 0 6 -4 10 -9 10 -6 0
-13 -4 -16 -10z"/>
<path d="M5049 801 c7 -5 10 -14 7 -20 -9 -14 0 -14 27 1 21 11 21 11 2 19
-11 4 -27 8 -35 8 -12 1 -13 -1 -1 -8z"/>
<path d="M5040 730 c0 -7 -7 -10 -15 -6 -9 3 -15 0 -15 -10 0 -12 4 -13 23 -3
30 16 30 16 18 24 -6 3 -11 1 -11 -5z"/>
<path d="M5620 690 c0 -5 5 -10 10 -10 6 0 10 5 10 10 0 6 -4 10 -10 10 -5 0
-10 -4 -10 -10z"/>
<path d="M5130 655 c0 -8 4 -15 10 -15 5 0 7 7 4 15 -4 8 -8 15 -10 15 -2 0
-4 -7 -4 -15z"/>
<path d="M5408 656 c-10 -7 -18 -18 -18 -24 0 -6 -6 -13 -12 -15 -9 -4 -8 -6
3 -6 23 -1 66 21 78 41 9 15 8 18 -11 18 -13 0 -31 -7 -40 -14z"/>
<path d="M4968 643 c6 -2 18 -2 25 0 6 3 1 5 -13 5 -14 0 -19 -2 -12 -5z"/>
<path d="M5340 601 c0 -5 7 -12 16 -15 24 -9 28 -7 14 9 -14 17 -30 20 -30 6z"/>
<path d="M5437 597 c-3 -8 -2 -20 3 -26 5 -9 8 -4 8 13 0 29 -3 32 -11 13z"/>
<path d="M4960 590 c0 -5 5 -10 10 -10 6 0 10 5 10 10 0 6 -4 10 -10 10 -5 0
-10 -4 -10 -10z"/>
<path d="M5390 560 c-8 -5 -11 -12 -8 -16 4 -3 14 1 23 10 18 17 9 21 -15 6z"/>
<path d="M3510 503 c0 -4 5 -15 10 -23 8 -13 10 -13 10 2 0 9 -4 20 -10 23 -5
3 -10 3 -10 -2z"/>
<path d="M5270 500 c0 -5 5 -10 11 -10 5 0 7 5 4 10 -3 6 -8 10 -11 10 -2 0
-4 -4 -4 -10z"/>
<path d="M3580 491 c0 -5 7 -11 14 -14 10 -4 13 -1 9 9 -6 15 -23 19 -23 5z"/>
<path d="M3490 460 c0 -5 5 -10 10 -10 6 0 10 5 10 10 0 6 -4 10 -10 10 -5 0
-10 -4 -10 -10z"/>
<path d="M3570 460 c0 -5 5 -10 10 -10 6 0 10 5 10 10 0 6 -4 10 -10 10 -5 0
-10 -4 -10 -10z"/>
<path d="M3485 430 c-4 -6 -3 -16 3 -22 6 -6 12 -6 17 2 4 6 3 16 -3 22 -6 6
-12 6 -17 -2z"/>
<path d="M3516 385 c-3 -9 -6 -24 -5 -33 0 -9 5 -4 10 12 9 32 6 48 -5 21z"/>
<path d="M3530 350 c0 -5 7 -10 16 -10 8 0 12 5 9 10 -3 6 -10 10 -16 10 -5 0
-9 -4 -9 -10z"/>
<path d="M3096 334 c-11 -8 -16 -14 -10 -14 13 0 39 18 34 24 -3 2 -14 -2 -24
-10z"/>
<path d="M3840 330 c0 -5 5 -10 11 -10 5 0 7 5 4 10 -3 6 -8 10 -11 10 -2 0
-4 -4 -4 -10z"/>
<path d="M3920 330 c0 -5 5 -10 11 -10 5 0 7 5 4 10 -3 6 -8 10 -11 10 -2 0
-4 -4 -4 -10z"/>
<path d="M4134 315 c21 -16 17 -18 -26 -15 -22 1 -28 -3 -28 -19 0 -17 -6 -21
-35 -21 -21 0 -37 6 -43 16 -6 11 -12 13 -16 6 -3 -6 -2 -13 4 -17 20 -12 9
-23 -29 -29 -33 -5 -38 -9 -34 -26 4 -14 0 -20 -11 -20 -9 0 -16 5 -16 11 0 5
-5 7 -11 3 -8 -4 -8 -9 0 -17 16 -16 13 -37 -4 -37 -8 0 -15 -4 -15 -10 0 -14
-27 -13 -32 1 -2 7 -9 5 -17 -5 -12 -14 -11 -16 5 -16 16 0 17 -2 4 -11 -15
-10 46 -7 125 7 17 3 61 8 100 11 38 3 79 12 91 19 22 15 34 10 34 -13 0 -7
-9 -13 -19 -13 -11 0 -23 -4 -26 -10 -7 -11 40 -8 68 5 13 5 15 10 7 15 -20
12 -1 30 30 30 16 0 31 4 34 9 3 5 36 14 73 21 38 7 99 23 137 36 55 20 71 22
78 12 4 -7 8 -8 8 -3 0 27 -18 36 -54 30 -21 -4 -41 -3 -49 3 -6 6 -28 11 -47
11 -19 1 -44 2 -55 2 -11 1 -42 0 -68 -2 -27 -2 -51 1 -55 7 -4 6 -19 14 -34
18 -16 3 -28 11 -28 16 0 6 -15 10 -32 10 -31 -1 -32 -1 -14 -15z m21 -55 c3
-5 -3 -10 -14 -10 -12 0 -21 5 -21 10 0 6 6 10 14 10 8 0 18 -4 21 -10z m215
0 c0 -5 -2 -10 -4 -10 -3 0 -8 5 -11 10 -3 6 -1 10 4 10 6 0 11 -4 11 -10z
m30 -14 c0 -3 -4 -8 -10 -11 -5 -3 -10 -1 -10 4 0 6 5 11 10 11 6 0 10 -2 10
-4z"/>
<path d="M4316 317 c3 -10 9 -15 12 -12 3 3 0 11 -7 18 -10 9 -11 8 -5 -6z"/>
<path d="M4780 320 c-13 -8 -12 -10 3 -10 9 0 17 5 17 10 0 12 -1 12 -20 0z"/>
<path d="M5284 318 c-3 -4 3 -5 13 -1 38 13 2 -9 -81 -52 -47 -25 -86 -40 -86
-35 0 5 8 14 18 20 16 11 16 11 -1 6 -10 -3 -22 -6 -26 -6 -4 0 -7 -10 -7 -22
1 -17 -5 -24 -21 -26 -13 -2 -23 -10 -23 -17 0 -8 -6 -12 -14 -9 -7 3 -29 -4
-47 -15 -19 -12 -44 -21 -56 -21 -20 0 -67 -17 -115 -41 -10 -5 -29 -9 -43 -9
-14 0 -25 -4 -25 -8 0 -9 -94 -45 -123 -47 -10 -1 -23 -7 -29 -13 -9 -9 -3
-12 28 -12 37 0 144 34 246 78 25 11 49 18 52 15 3 -3 12 2 21 11 9 9 23 16
31 16 8 0 35 11 60 25 25 14 49 25 55 25 5 0 27 11 47 25 20 14 43 25 51 25 7
0 36 16 62 35 27 19 53 35 58 35 5 0 14 6 20 14 10 12 6 14 -24 13 -20 -1 -38
-5 -41 -9z"/>
<path d="M4740 299 c0 -5 5 -7 10 -4 6 3 10 8 10 11 0 2 -4 4 -10 4 -5 0 -10
-5 -10 -11z"/>
<path d="M6100 290 c-13 -8 -13 -10 2 -10 9 0 20 5 23 10 8 13 -5 13 -25 0z"/>
<path d="M4668 273 c7 -3 16 -2 19 1 4 3 -2 6 -13 5 -11 0 -14 -3 -6 -6z"/>
<path d="M6071 275 c0 -5 4 -17 9 -25 8 -13 12 -13 27 4 17 18 17 18 -4 13
-12 -3 -24 0 -27 7 -2 6 -5 7 -5 1z"/>
<path d="M4588 263 c7 -3 16 -2 19 1 4 3 -2 6 -13 5 -11 0 -14 -3 -6 -6z"/>
<path d="M4610 224 l-25 -13 31 2 c20 1 30 6 27 15 -3 6 -6 12 -7 11 0 -1 -12
-7 -26 -15z"/>
<path d="M5813 223 c9 -9 20 -13 24 -9 4 4 1 11 -7 16 -25 16 -35 11 -17 -7z"/>
<path d="M5756 211 c-4 -5 -3 -17 0 -26 6 -14 3 -16 -14 -11 -11 4 -23 2 -27
-4 -3 -5 -15 -10 -26 -10 -11 0 -19 -7 -19 -16 0 -15 2 -15 23 -1 13 8 34 17
48 19 19 2 24 9 24 31 1 29 -1 32 -9 18z"/>
<path d="M6073 203 c-3 -10 -8 -22 -11 -28 -3 -5 7 1 21 14 31 28 32 31 12 31
-9 0 -18 -8 -22 -17z"/>
<path d="M4508 183 c6 -2 18 -2 25 0 6 3 1 5 -13 5 -14 0 -19 -2 -12 -5z"/>
<path d="M5675 180 c-3 -5 -1 -10 4 -10 6 0 11 5 11 10 0 6 -2 10 -4 10 -3 0
-8 -4 -11 -10z"/>
<path d="M4970 170 c-13 -8 -12 -10 3 -10 9 0 17 5 17 10 0 12 -1 12 -20 0z"/>
<path d="M5926 158 c-43 -22 -44 -29 -3 -21 15 3 32 14 38 24 5 11 8 19 7 18
-2 -1 -20 -10 -42 -21z"/>
<path d="M5840 130 c0 -5 7 -10 15 -10 8 0 15 5 15 10 0 6 -7 10 -15 10 -8 0
-15 -4 -15 -10z"/>
<path d="M5694 109 l-19 -22 33 17 c34 18 40 26 19 26 -8 0 -22 -10 -33 -21z"/>
<path d="M4072 104 c-7 -8 -8 -14 -3 -14 10 0 25 19 20 25 -2 1 -10 -3 -17
-11z"/>
</g>
</svg>
