<?xml version="1.0" standalone="no"?>
<!DOCTYPE svg PUBLIC "-//W3C//DTD SVG 1.1//EN" "http://www.w3.org/Graphics/SVG/1.1/DTD/svg11.dtd" >
<svg xmlns="http://www.w3.org/2000/svg">
<metadata>
Created by FontPrep 20130207 at Mon Aug 15 19:47:02 2016
 By Damien Criado
(c) 2010 Klim Type Foundry. All rights reserved.
</metadata>
<defs>
<font id="a5b5f595310f1955c7cc3fbd4474407c" horiz-adv-x='1024' >
  <font-face 
    font-family="CopyrightKlimTypeFoundry-NotLicensedforDesktopUse"
    font-weight="900"
    font-style="italic"
    font-stretch="normal"
    units-per-em="2048"
    panose-1="2 2 10 3 6 3 3 13 4 3"
    ascent="1604"
    descent="-444"
    x-height="1133"
    cap-height="1438"
    bbox="-463 -512 2693 1942"
    underline-thickness="61"
    underline-position="-205"
    slope="-12"
    unicode-range="U+000D-FB04"
  />
<missing-glyph horiz-adv-x="337" 
 />
    <glyph glyph-name="fi" unicode="fi" horiz-adv-x="1406" 
d="M1167 195q50 0 162 143l53 -47q-111 -150 -209 -230.5t-219 -80.5t-176 59t-55 139t20 166l156 623h-233l-111 -504q-109 -487 -279 -704.5t-395 -217.5q-125 0 -208 48.5t-83 128.5t51.5 123.5t120.5 49.5h78q-8 -115 3.5 -187.5t56.5 -72.5q51 0 72.5 100.5t60.5 288.5
l190 947h-141l18 88l148 37q68 238 236.5 375t443.5 137q125 0 242.5 -51.5t117.5 -157.5q0 -51 -28.5 -92t-81.5 -60h-232q29 82 25 174t-80 92q-90 0 -145.5 -130t-59.5 -296h307l297 50h74l-209 -826q-16 -54 -16 -83t28 -29z" />
    <glyph glyph-name="fl" unicode="fl" horiz-adv-x="1402" 
d="M1171 195q50 0 162 143l53 -47q-111 -150 -209 -230.5t-219 -80.5t-176 59t-55 141t21 164l231 936q-20 125 -61 177t-91 52q-94 0 -123.5 -140t-21.5 -286h158l-29 -116h-141l-113 -504q-109 -487 -278.5 -704.5t-395.5 -217.5q-125 0 -208 48.5t-83 128.5t51.5 123.5
t120.5 49.5h78q-8 -115 3.5 -187.5t56.5 -72.5q51 0 72.5 100.5t60.5 288.5l188 947h-139l18 88l150 37q61 207 203.5 359.5t373.5 152.5q157 0 234 -66l336 66h71l-311 -1297q-6 -27 -11 -48t-5 -34q0 -30 28 -30z" />
    <glyph glyph-name=".notdef" horiz-adv-x="337" 
 />
    <glyph glyph-name=".null" horiz-adv-x="0" 
 />
    <glyph glyph-name="nonmarkingreturn" unicode="&#xd;" horiz-adv-x="337" 
 />
    <glyph glyph-name="NULL" horiz-adv-x="0" 
 />
    <glyph glyph-name="NULL" horiz-adv-x="0" 
 />
    <glyph glyph-name="space" unicode=" " horiz-adv-x="337" 
 />
    <glyph glyph-name="exclam" unicode="!" horiz-adv-x="624" 
d="M16 192q0 88 61.5 152t147.5 64t146.5 -64t60.5 -152t-60.5 -150t-146.5 -62t-147.5 62t-61.5 150zM793 1438l-445 -944h-137l37 944h545z" />
    <glyph glyph-name="quotedbl" unicode="&#x22;" horiz-adv-x="790" 
d="M812 1577q64 0 99 -40.5t35 -100.5t-34.5 -111t-67.5 -106l-191 -304h-32l-9 304q-2 90 1 168.5t50 134.5t149 55zM407 1577q83 0 118.5 -40.5t35.5 -100.5t-34.5 -111t-67.5 -106l-191 -304h-32l-9 304q-2 90 1 168.5t50 134.5q46 56 129 55z" />
    <glyph glyph-name="numbersign" unicode="#" horiz-adv-x="1071" 
d="M496 864l-93 -291h265l92 291h-264zM1014 469h-254l-154 -489l-114 36l143 453h-264l-154 -489l-115 36l144 453h-148v104h181l92 291h-219v105h251l156 491l115 -37l-146 -454h265l155 491l115 -37l-145 -454h149v-105h-182l-92 -291h221v-104z" />
    <glyph glyph-name="dollar" unicode="$" horiz-adv-x="1204" 
d="M772 295q0 53 -33.5 94t-95.5 80l-78 -375q86 8 146.5 59.5t60.5 141.5zM526 1166q0 -74 33 -115t96 -80l80 381q-88 -2 -148.5 -57t-60.5 -129zM1147 487q0 -244 -175 -370.5t-431 -134.5l-43 -213h-92l43 213q-158 8 -279 63t-178 113l67 350h105q0 -168 81 -281.5
t228 -132.5l86 420l-63 33q-141 70 -237.5 162t-96.5 252q0 231 163.5 363t432.5 134l43 209h90l-45 -213q127 -12 228.5 -57t154.5 -97l-66 -311h-100q0 135 -60.5 231.5t-179.5 122.5l-86 -417l27 -13q139 -70 261 -165t122 -261z" />
    <glyph glyph-name="percent" unicode="%" horiz-adv-x="1615" 
d="M1116 55q72 0 122 132t50 296q0 63 -13 101.5t-52 38.5q-72 0 -122 -132.5t-50 -295.5q0 -63 13 -101.5t52 -38.5zM1520 1458l-1241 -1478h-123l1243 1478h121zM1124 -20q-136 0 -227.5 73.5t-91.5 220.5q0 207 136.5 315.5t272.5 108.5t228 -73.5t92 -221.5
q0 -207 -137 -315t-273 -108zM561 1382q-72 0 -122 -132t-50 -296q0 -63 13.5 -101t52.5 -38q72 0 122 132t50 296q0 63 -13.5 101t-52.5 38zM552 1458q136 0 228 -73.5t92 -221.5q0 -207 -137 -315.5t-272 -108.5t-227.5 74t-92.5 221q0 207 136.5 315.5t272.5 108.5z" />
    <glyph glyph-name="ampersand" unicode="&#x26;" horiz-adv-x="1519" 
d="M854 1366q-123 0 -123 -178q0 -84 39 -160t70 -123l12 -22q133 91 133 288q0 92 -35 143.5t-96 51.5zM387 473q0 -147 81 -228t216 -81q45 0 104 18q-12 18 -23 37t-22 37l-266 451q-90 -87 -90 -234zM20 360q0 173 112 275t300 147q-65 127 -65 271q0 174 140 289.5
t350 115.5t315.5 -80t105.5 -214t-115.5 -219t-269.5 -128l227 -366q51 86 51 174q0 31 -18 44t-61 13l18 94h430l-18 -94q-109 0 -155.5 -30t-76.5 -96q-52 -117 -112 -198l69 -110q39 -59 82 -107.5t125 -48.5l-18 -92h-471q-55 38 -99 86q-191 -106 -390 -106
t-327.5 103.5t-128.5 276.5z" />
    <glyph glyph-name="quotesingle" unicode="'" horiz-adv-x="405" 
d="M407 1577q83 0 118.5 -40.5t35.5 -100.5t-34.5 -111t-67.5 -106l-191 -304h-32l-9 304q-2 90 1 168.5t50 134.5q46 56 129 55z" />
    <glyph glyph-name="parenleft" unicode="(" horiz-adv-x="774" 
d="M428 271q0 -311 147 -562h-120q-152 135 -233 322.5t-81 394.5q0 346 209 652t502 499h121q-295 -289 -420 -642t-125 -664z" />
    <glyph glyph-name="parenright" unicode=")" horiz-adv-x="774" 
d="M416 1017q0 312 -148 560h121q152 -135 232.5 -322.5t80.5 -394.5q0 -346 -208.5 -652t-501.5 -499h-121q295 289 420 642.5t125 665.5z" />
    <glyph glyph-name="asterisk" unicode="*" horiz-adv-x="925" 
d="M901 1108l-266 20l229 -137q68 -39 77 -92t-32 -92t-94 -23.5t-86 84.5l-115 238l-2 -264q-2 -76 -43 -111t-95 -19t-68.5 69t30.5 116l150 219l-232 -129q-66 -39 -118 -20.5t-63 74.5t27 93t115 31l265 -18l-228 135q-68 39 -77 92t32 92t94.5 24t85.5 -85l115 -240
l2 267q2 76 43 110.5t95 18.5t68.5 -68.5t-30.5 -116.5l-151 -221l233 131q66 39 118 20.5t63 -74.5t-26.5 -93t-115.5 -31z" />
    <glyph glyph-name="plus" unicode="+" horiz-adv-x="1179" 
d="M651 1210h150l-82 -381h383l-33 -147h-381l-80 -381h-149l80 381h-379l33 147h376z" />
    <glyph glyph-name="comma" unicode="," horiz-adv-x="577" 
d="M-4 207q0 88 62.5 141t159.5 53t155.5 -69.5t58.5 -177.5q0 -176 -140 -293t-362 -113v92q115 8 207.5 47t102.5 123h-82q-70 16 -116 62.5t-46 134.5z" />
    <glyph glyph-name="hyphen" unicode="-" horiz-adv-x="655" 
d="M580 547h-533l41 176h533z" />
    <glyph glyph-name="period" unicode="." horiz-adv-x="577" 
d="M-4 206.5q0 100.5 66.5 165t160.5 64.5t161 -64.5t67 -165t-67 -163.5t-161 -63t-160.5 63t-66.5 163.5z" />
    <glyph glyph-name="slash" unicode="/" horiz-adv-x="735" 
d="M946 1577l-952 -1866h-180l950 1866h182z" />
    <glyph glyph-name="zero" unicode="0" horiz-adv-x="1386" 
d="M600 74q156 0 261.5 440t105.5 666q0 80 -18.5 132t-76.5 52q-156 0 -261 -440.5t-105 -665.5q0 -80 18.5 -132t75.5 -52zM600 -20q-225 0 -375.5 162.5t-150.5 408.5q0 342 217 624.5t581 282.5q225 0 376 -162.5t151 -408.5q0 -342 -217 -624.5t-582 -282.5z" />
    <glyph glyph-name="one" unicode="1" horiz-adv-x="917" 
d="M811 1456h98l-260 -1210q-20 -100 7.5 -126t154.5 -28l-20 -92h-822l21 92q135 2 161.5 27.5t47.5 118.5l178 837h-211l18 88l92 15q307 50 535 278z" />
    <glyph glyph-name="two" unicode="2" horiz-adv-x="1136" 
d="M516 1190q-181 0 -291 -123l-39 53q82 137 223 237.5t335 100.5t297.5 -97t103.5 -259q0 -231 -237 -392t-546 -358h295q137 0 200 33t163 170h76l-189 -555h-997l16 72q465 395 625 586.5t160 349.5q0 88 -53.5 135t-141.5 47z" />
    <glyph glyph-name="three" unicode="3" horiz-adv-x="1136" 
d="M455 680q-38 0 -101 -14l-10 77q178 47 285.5 121t107.5 197q0 63 -42 107t-122 44q-138 0 -262 -122l-41 53q82 133 219.5 224t308.5 91t266 -79t95 -201q0 -172 -146.5 -255t-293.5 -110q147 -12 257.5 -110.5t110.5 -237.5q0 -244 -202.5 -364.5t-430.5 -120.5
t-350 88t-122 217q0 70 40.5 113.5t96.5 64.5h223q-31 -64 -31 -152t31 -166.5t104 -78.5q117 0 169.5 141t52.5 251t-57.5 166t-155.5 56z" />
    <glyph glyph-name="four" unicode="4" horiz-adv-x="1343" 
d="M578 227l28 138h-610l16 77l903 996h355l-203 -955h231l-26 -118h-232l-28 -138q-16 -78 4 -104.5t125 -30.5l-21 -92h-747l20 92q104 4 136.5 30.5t48.5 104.5zM195 483h438l133 631z" />
    <glyph glyph-name="five" unicode="5" horiz-adv-x="1118" 
d="M313 322q0 -109 60.5 -181.5t147.5 -72.5t138.5 57t51.5 149q0 172 -152.5 251t-396.5 81l287 832h569q53 0 76.5 14t62.5 72h88l-158 -447h-655l-37 -119q281 -2 476.5 -111.5t195.5 -357.5t-174.5 -378.5t-404.5 -130.5t-360 78.5t-130 211.5q0 63 34 114.5t97 68.5
h205q-21 -78 -21 -131z" />
    <glyph glyph-name="six" unicode="6" horiz-adv-x="1275" 
d="M662 807q-50 0 -107 -19q-66 -208 -66 -452q0 -94 23 -178t98 -84q100 0 170 148.5t70 322.5q0 111 -44 186.5t-144 75.5zM882 942q166 0 268.5 -103.5t102.5 -267.5q0 -258 -192.5 -424.5t-460.5 -166.5q-225 0 -375.5 142t-150.5 386q0 389 341 669.5t814 280.5l18 -67
q-256 -31 -424 -179.5t-250 -367.5q143 98 309 98z" />
    <glyph glyph-name="seven" unicode="7" horiz-adv-x="1097" 
d="M438 1024q-70 0 -117 -33t-100 -131h-90l211 578h965l-19 -86l-854 -1352h-260l764 1024h-500z" />
    <glyph glyph-name="eight" unicode="8" horiz-adv-x="1234" 
d="M983 1172q0 82 -57.5 139t-153.5 57t-155.5 -52t-59.5 -126t33 -114t90 -77l180 -114q63 39 93 122t30 165zM309 340q0 -117 72.5 -193.5t188.5 -76.5t184.5 55t68.5 132t-38.5 116t-116.5 90l-234 147q-80 -47 -102.5 -123.5t-22.5 -146.5zM1247 1136
q0 -140 -108.5 -208t-227.5 -72l19 -8q98 -53 165.5 -147.5t67.5 -225.5q0 -231 -174.5 -363t-414.5 -132t-398 99t-158 251t110 228.5t261 82.5q-74 49 -127 136t-53 216q0 197 160.5 331t390.5 134t358.5 -91t128.5 -231z" />
    <glyph glyph-name="nine" unicode="9" horiz-adv-x="1275" 
d="M700 631q53 0 107 16q65 205 65 455q0 94 -22.5 178t-97.5 84q-100 0 -170 -148.5t-70 -322.5q0 -111 44 -186.5t144 -75.5zM483 496q-169 0 -271.5 103t-102.5 267q0 258 192.5 425t460.5 167q225 0 375.5 -142t150.5 -386q0 -389 -341 -669.5t-814 -280.5l-18 67
q256 29 423 177.5t248 367.5q-134 -96 -303 -96z" />
    <glyph glyph-name="colon" unicode=":" horiz-adv-x="577" 
d="M125 823.5q0 100.5 66.5 165t160.5 64.5t161 -64.5t67 -165t-67 -164t-161 -63.5t-160.5 63.5t-66.5 164zM-4 206.5q0 100.5 66.5 165t160.5 64.5t161 -64.5t67 -165t-67 -163.5t-161 -63t-160.5 63t-66.5 163.5z" />
    <glyph glyph-name="semicolon" unicode=";" horiz-adv-x="577" 
d="M125 823.5q0 100.5 66.5 165t160.5 64.5t161 -64.5t67 -165t-67 -164t-161 -63.5t-160.5 63.5t-66.5 164zM-4 207q0 88 62.5 141t159.5 53t155.5 -69.5t58.5 -177.5q0 -176 -140 -293t-362 -113v92q115 8 207.5 47t102.5 123h-82q-70 16 -116 62.5t-46 134.5z" />
    <glyph glyph-name="less" unicode="&#x3c;" horiz-adv-x="876" 
d="M127 741l6 21l735 399l-39 -182l-446 -231l346 -238l-35 -168z" />
    <glyph glyph-name="equal" unicode="=" horiz-adv-x="1200" 
d="M203 836l30 143h912l-31 -143h-911zM139 535l31 141h911l-30 -141h-912z" />
    <glyph glyph-name="greater" unicode="&#x3e;" horiz-adv-x="876" 
d="M829 762l-6 -21l-735 -399l39 182l446 232l-346 237l35 168z" />
    <glyph glyph-name="question" unicode="?" horiz-adv-x="976" 
d="M213 192q0 88 61.5 152t147.5 64t146.5 -64t60.5 -152t-60.5 -150t-146.5 -62t-147.5 62t-61.5 150zM772 1249q0 121 -120 121q-66 0 -103 -62.5t-37 -123.5t10 -121h-274q-55 51 -55 121q0 135 132.5 204.5t332.5 69.5t314.5 -98t114.5 -248t-86.5 -240t-206.5 -146
t-191 -101t-71 -111q0 -13 5 -33h-62q-156 60 -156 213q0 86 50.5 152t158.5 128t176 121.5t68 153.5z" />
    <glyph glyph-name="at" unicode="@" horiz-adv-x="1830" 
d="M748 453q0 -97 61 -97q84 0 169 159t124 353q-22 64 -82 64q-113 0 -192.5 -171t-79.5 -308zM94 516q0 379 258 641t632 262t575.5 -202.5t201.5 -460.5q0 -326 -178 -462t-338 -136t-207 98t-24 221q-70 -141 -151 -230t-182 -89t-163.5 68.5t-62.5 191.5
q0 207 155.5 398.5t384.5 191.5q74 0 121 -29t68 -57l159 65h95l-72 -192l-125 -392q-47 -165 54 -165t195.5 140t94.5 368t-155.5 406.5t-430.5 178.5q-332 0 -526 -234.5t-194 -575.5t208.5 -511t493.5 -170q168 0 296 39t257 117l29 -43q-236 -217 -627 -217
q-330 0 -586 200.5t-256 579.5z" />
    <glyph glyph-name="A" unicode="A" horiz-adv-x="1546" 
d="M727 1098l-317 -547h415zM209 166q0 -35 36 -51.5t111 -22.5l-20 -92h-449l21 92q43 4 75.5 19.5t57.5 56.5l647 1092l-33 178h463l232 -1270q8 -39 35.5 -53.5t70.5 -22.5l-20 -92h-754l20 92q80 2 130.5 23.5t50.5 81.5q0 32 -6 67l-31 168h-506l-96 -168
q-35 -63 -35 -98z" />
    <glyph glyph-name="B" unicode="B" horiz-adv-x="1476" 
d="M1032 1438q225 0 329.5 -84t104.5 -213q0 -195 -151.5 -291t-304.5 -98q164 -6 286.5 -93.5t122.5 -228.5q0 -217 -186 -323.5t-449 -106.5h-833l20 92q102 10 128 35t42 102l209 979q16 78 1 102.5t-113 35.5l20 92h774zM850 1335h-27l-112 -534h28q133 0 223.5 85
t90.5 255q0 88 -45 141t-158 53zM750 680h-66l-94 -438q-18 -82 5 -111t97 -29h15q111 0 196.5 94.5t85.5 272.5q0 94 -56 152.5t-183 58.5z" />
    <glyph glyph-name="C" unicode="C" horiz-adv-x="1421" 
d="M773.5 92q243.5 0 459.5 443h125l-127 -424q-212 -131 -509 -131q-296 0 -472 168.5t-176 435.5q0 383 269.5 628.5t666.5 245.5q135 0 259 -37t193 -90l-69 -364h-103q-8 180 -68.5 284.5t-193.5 104.5q-250 0 -374 -313.5t-124 -563.5q0 -387 243.5 -387z" />
    <glyph glyph-name="D" unicode="D" horiz-adv-x="1624" 
d="M666 0h-715l20 92q102 10 128 35t42 102l209 979q16 78 1 102.5t-113 35.5l20 92h660q299 0 505.5 -146.5t206.5 -433.5q0 -389 -284.5 -623.5t-679.5 -234.5zM676 102h12q203 0 345.5 277.5t142.5 554.5q0 203 -75 302t-255 99h-23l-231 -1089q-20 -90 0.5 -117
t83.5 -27z" />
    <glyph glyph-name="E" unicode="E" horiz-adv-x="1380" 
d="M1026 1335h-203l-112 -532h170q72 0 106.5 42t69.5 148h96l-109 -504h-96q10 106 -6 148.5t-88 42.5h-170l-94 -440q-18 -82 15.5 -110t113.5 -28h45q143 0 222 76t239 287h102l-166 -465h-1210l20 92q102 10 128 35t42 102l209 979q16 78 1 102.5t-113 35.5l20 92h1198
l-78 -408h-80q-39 172 -81.5 238.5t-190.5 66.5z" />
    <glyph glyph-name="F" unicode="F" horiz-adv-x="1288" 
d="M1006 1335h-183l-116 -547h155q72 0 107 42t69 149h97l-107 -504h-96q10 106 -6.5 148.5t-87.5 42.5h-156l-94 -437q-16 -78 30 -104.5t177 -32.5l-19 -92h-825l20 92q102 10 128 35t42 102l209 979q16 78 1 102.5t-113 35.5l20 92h1184l-80 -424h-80q-33 172 -81 246.5
t-195 74.5z" />
    <glyph glyph-name="G" unicode="G" horiz-adv-x="1542" 
d="M791 92q46 0 88 10l75 353q16 78 1 102.5t-113 34.5l20 92h701l-21 -92q-100 -10 -124.5 -35t-41.5 -102l-73 -340q-240 -135 -548 -135t-494.5 166.5t-186.5 433.5q0 383 279.5 630.5t676.5 247.5q135 0 259 -37t194 -90l-70 -364h-102q-8 180 -68.5 284.5t-193.5 104.5
q-250 0 -384.5 -315.5t-134.5 -565.5q0 -184 71 -283.5t190 -99.5z" />
    <glyph glyph-name="H" unicode="H" horiz-adv-x="1767" 
d="M141 229l209 979q16 78 1 102.5t-113 35.5l20 92h731l-20 -92q-100 -10 -127 -35t-43 -103l-88 -413h473l88 413q16 78 0.5 102.5t-113.5 35.5l21 92h731l-21 -92q-100 -10 -126.5 -35t-43.5 -103l-209 -979q-16 -78 -0.5 -102.5t113.5 -34.5l-20 -92h-732l21 92
q100 10 127 35t43 102l92 426h-473l-92 -426q-16 -78 -1 -102.5t113 -34.5l-20 -92h-731l20 92q100 10 127 34.5t43 102.5z" />
    <glyph glyph-name="I" unicode="I" horiz-adv-x="845" 
d="M141 229l209 979q16 78 1 102.5t-113 35.5l20 92h731l-20 -92q-100 -10 -127 -35t-43 -103l-209 -979q-16 -78 0 -102.5t112 -34.5l-20 -92h-731l20 92q102 10 128 34.5t42 102.5z" />
    <glyph glyph-name="J" unicode="J" horiz-adv-x="1245" 
d="M389 492q-67 -170 -67 -266q0 -152 100 -152q76 0 108.5 76.5t57.5 193.5l184 864q16 78 1 102.5t-114 35.5l21 92h731l-20 -92q-100 -10 -127 -35t-43 -103l-166 -770q-55 -256 -217 -357t-437 -101q-207 0 -330.5 76.5t-123.5 197.5q0 163 168 238h274z" />
    <glyph glyph-name="K" unicode="K" horiz-adv-x="1591" 
d="M799 1208l-209 -979q-16 -78 0 -102.5t112 -34.5l-20 -92h-731l20 92q102 10 128 35t42 102l209 979q16 78 1 102.5t-113 35.5l20 92h731l-20 -92q-100 -10 -127 -35t-43 -103zM1356 1285q0 34 -23.5 46t-101.5 15l20 92h504l-20 -92q-63 -4 -101.5 -17.5t-83.5 -54.5
l-444 -400l264 -653q23 -53 50.5 -87t90.5 -42l-18 -92h-485q-70 73 -138 250l-165 446l571 490q80 65 80 99z" />
    <glyph glyph-name="L" unicode="L" horiz-adv-x="1359" 
d="M711 102h43q94 0 197.5 79t289.5 325h96l-186 -506h-1200l20 92q102 10 128 35t42 102l209 979q16 78 1 102.5t-113 35.5l20 92h729l-20 -92q-100 -10 -127 -35t-43 -103l-207 -968q-16 -82 12.5 -110t108.5 -28z" />
    <glyph glyph-name="M" unicode="M" horiz-adv-x="2031" 
d="M1362 274l61 746l-569 -1020h-170l-147 1020l-269 -778q-25 -84 10 -113t158 -37l-20 -92h-522l20 92q90 4 132 29.5t67 95.5l340 979q16 82 -12.5 113.5t-131.5 36.5l21 92h598q-6 -51 4 -135l102 -738l400 740q20 39 36.5 68.5t26.5 64.5h600l-20 -92
q-102 -4 -145.5 -36t-59.5 -114l-78 -979q-2 -76 31 -98.5t119 -26.5l-21 -92h-788l20 92q111 6 153 37.5t54 144.5z" />
    <glyph glyph-name="N" unicode="N" horiz-adv-x="1556" 
d="M1260 639l122 569q16 78 -20.5 103.5t-159.5 34.5l21 92h497l-20 -92q-102 -10 -128 -35t-42 -103l-256 -1208h-158l-647 1065l-178 -836q-16 -78 20.5 -103.5t159.5 -33.5l-20 -92h-498l20 92q102 10 128 35t42 102l211 994q-31 59 -51 86.5t-65 36.5l20 92h533z" />
    <glyph glyph-name="O" unicode="O" horiz-adv-x="1576" 
d="M956 1352q-203 0 -311 -365.5t-108 -595.5q0 -135 35.5 -220t127.5 -85q203 0 311.5 365.5t108.5 595.5q0 135 -35 220t-129 85zM969 1458q285 0 449.5 -167t164.5 -410q0 -346 -241.5 -623.5t-653.5 -277.5q-285 0 -449.5 166.5t-164.5 410.5q0 346 241.5 623.5
t653.5 277.5z" />
    <glyph glyph-name="P" unicode="P" horiz-adv-x="1439" 
d="M707 664q137 0 251.5 100t114.5 303q0 123 -56 195.5t-167 72.5h-27l-143 -671h27zM995 1438q242 0 378 -104.5t136 -266.5q0 -270 -208.5 -395t-512.5 -125h-133l-67 -318q-16 -78 31 -104.5t178 -32.5l-21 -92h-825l20 92q102 10 128 35t42 102l209 979q16 78 1 102.5
t-113 35.5l20 92h737z" />
    <glyph glyph-name="Q" unicode="Q" horiz-adv-x="1576" 
d="M956 1352q-203 0 -311 -365.5t-108 -595.5q0 -135 34.5 -229t126.5 -94q203 0 312.5 374.5t109.5 604.5q0 135 -35 220t-129 85zM969 1458q285 0 449.5 -167t164.5 -410q0 -305 -191.5 -563.5t-521.5 -321.5l146 -123q63 -55 118.5 -76.5t139.5 -21.5l-8 -39
q-45 -51 -123.5 -85t-186.5 -34t-194 56.5t-137 150.5l-95 172q-213 43 -334.5 198.5t-121.5 362.5q0 346 241.5 623.5t653.5 277.5z" />
    <glyph glyph-name="R" unicode="R" horiz-adv-x="1562" 
d="M1059 1438q246 0 358.5 -102.5t112.5 -245.5q0 -193 -142.5 -297.5t-257.5 -133.5l191 -401q43 -92 72.5 -127t97.5 -39l-18 -92h-480q-64 57 -125 225l-133 369h-69l-78 -365q-16 -78 0 -102.5t112 -34.5l-18 -92h-731l20 92q102 10 128 35t42 102l209 979
q16 78 1 102.5t-113 35.5l20 92h801zM856 1329h-35l-131 -624h45q141 0 249 93t108 300q0 98 -55.5 164.5t-180.5 66.5z" />
    <glyph glyph-name="S" unicode="S" horiz-adv-x="1226" 
d="M1155 494q0 -254 -189.5 -384t-459.5 -130q-174 0 -308.5 58t-197.5 120l68 350h104q0 -182 95 -299t263 -117q100 0 167 51.5t67 142.5t-65.5 141t-200.5 117t-231.5 159t-96.5 251q0 231 167 367.5t437 136.5q154 0 278 -49t185 -109l-66 -311h-100q0 156 -80 259.5
t-239 103.5q-90 0 -145.5 -54.5t-55.5 -141.5t53 -132.5t180 -109.5t249 -159t122 -261z" />
    <glyph glyph-name="T" unicode="T" horiz-adv-x="1509" 
d="M657 1350q-94 0 -177 -99.5t-255 -347.5h-100l145 535h1358l-84 -535h-92q-63 248 -98 347.5t-129 99.5h-70l-242 -1131q-16 -78 12.5 -97.5t125.5 -29.5l-21 -92h-772l21 92q102 10 136 29.5t50 97.5l242 1131h-50z" />
    <glyph glyph-name="U" unicode="U" horiz-adv-x="1568" 
d="M780 -20q-305 0 -454.5 169.5t-89.5 442.5l133 616q16 78 0.5 102.5t-113.5 35.5l20 92h732l-21 -92q-100 -10 -126.5 -35t-43.5 -103l-137 -637q-35 -162 21.5 -282.5t230.5 -120.5q135 0 228 85t138 298l140 657q16 78 -10.5 103.5t-149.5 34.5l20 92h480l-21 -92
q-100 -10 -126.5 -35t-43.5 -103l-149 -698q-57 -270 -227.5 -400t-430.5 -130z" />
    <glyph glyph-name="V" unicode="V" horiz-adv-x="1482" 
d="M1358 1285q0 28 -25.5 42t-105.5 19l20 92h434l-20 -92q-49 -6 -80 -20.5t-57 -55.5l-805 -1276h-131l-301 1276q-8 41 -34 54t-69 22l21 92h733l-20 -92q-94 -4 -132 -26t-38 -73q0 -24 10 -76l145 -659l408 662q47 83 47 111z" />
    <glyph glyph-name="W" unicode="W" horiz-adv-x="2043" 
d="M1921 1271q0 38 -19.5 55t-93.5 20l21 92h414l-21 -92q-51 -6 -83 -21.5t-52 -54.5l-725 -1276h-137l-109 807l-469 -807h-137l-223 1276q-10 56 -103 76l21 92h678l-21 -92q-112 -12 -112 -94q0 -50 8 -103l96 -584l240 412l-39 293q-4 33 -23.5 50t-60.5 26l20 92h631
l-20 -92q-113 -14 -113 -96q0 -36 2 -57t4 -44l64 -578l309 559q53 103 53 141z" />
    <glyph glyph-name="X" unicode="X" horiz-adv-x="1511" 
d="M838 1276q0 -24 24 -84l101 -225l258 254q30 33 30 64q0 30 -26.5 44t-89.5 17l18 92h475l-18 -92q-100 -13 -156 -66l-440 -426l303 -676q20 -43 44.5 -60.5t65.5 -25.5l-18 -92h-750l19 92q63 2 109.5 14.5t46.5 57.5q0 26 -25 82l-150 323l-358 -352q-31 -34 -31 -63
q0 -58 144 -62l-19 -92h-501l18 92q100 13 151 66l543 528l-272 594q-21 46 -101 66l21 92h719l-21 -92q-114 0 -114 -70z" />
    <glyph glyph-name="Y" unicode="Y" horiz-adv-x="1454" 
d="M1333 1294.5q0 46.5 -123 51.5l21 92h422l-21 -92q-45 -8 -76.5 -23.5t-58.5 -52.5l-522 -742l-66 -309q-16 -78 12.5 -97.5t125.5 -29.5l-21 -92h-762l21 92q102 10 136 29.5t50 97.5l64 299l-248 752q-14 43 -37 55t-66 21l21 92h723l-21 -92q-80 -4 -115.5 -28
t-35.5 -68t26 -117l154 -457l326 469q71 103 71 149.5z" />
    <glyph glyph-name="Z" unicode="Z" horiz-adv-x="1343" 
d="M678 102q129 0 226 75t284 312h98l-178 -489h-1180l17 80l977 1255h-195q-147 0 -222 -77.5t-210 -278.5h-96l118 459h1145l-18 -80l-981 -1256h215z" />
    <glyph glyph-name="bracketleft" unicode="[" horiz-adv-x="700" 
d="M623 1368l-308 -1448q-16 -80 25 -97.5t160 -25.5l-17 -86h-465l396 1866h465l-19 -86q-123 -8 -171 -25.5t-66 -97.5z" />
    <glyph glyph-name="backslash" unicode="\" horiz-adv-x="735" 
d="M420 -289l-162 1866h164l162 -1866h-164z" />
    <glyph glyph-name="bracketright" unicode="]" horiz-adv-x="700" 
d="M147 -80l308 1448q16 80 -24 97.5t-161 25.5l19 86h465l-396 -1866h-464l16 86q125 8 173 25.5t64 97.5z" />
    <glyph glyph-name="asciicircum" unicode="^" horiz-adv-x="962" 
d="M784 1577l213 -594h-149l-162 473l-362 -473h-166l463 594h163z" />
    <glyph glyph-name="underscore" unicode="_" horiz-adv-x="860" 
d="M666 -305h-777l33 170h778z" />
    <glyph glyph-name="grave" unicode="`" 
d="M303 1569h371l45 -334h-119l-297 313v21z" />
    <glyph glyph-name="a" unicode="a" horiz-adv-x="1396" 
d="M1159 195q50 0 162 143l53 -47q-111 -150 -209.5 -230.5t-216.5 -80.5t-180.5 56t-62.5 139t51 251q-104 -205 -214 -325.5t-242 -120.5t-202.5 89t-70.5 244q0 279 204.5 549.5t528.5 270.5q92 0 158.5 -33t105.5 -76l254 109h84l-82 -285l-133 -541q-6 -27 -11.5 -48
t-5.5 -34q0 -30 29 -30zM449 387q-1 -125 69 -125t184.5 194.5t198.5 495.5q-4 33 -27.5 58.5t-60.5 25.5q-141 0 -252.5 -228t-111.5 -421z" />
    <glyph glyph-name="b" unicode="b" horiz-adv-x="1339" 
d="M879 748q0 106 -56 106q-88 0 -220 -240.5t-175 -459.5q4 -39 30.5 -61.5t63.5 -22.5q141 0 249 247.5t108 430.5zM1075 1133q238 0 238 -325t-218 -576.5t-540 -251.5q-162 0 -314.5 67.5t-215.5 177.5l284 1161l-98 56l14 69l477 93h72l-237 -986q94 193 232 354
t306 161z" />
    <glyph glyph-name="c" unicode="c" horiz-adv-x="1005" 
d="M612 203q121 0 258 153l48 -47q-88 -154 -217 -241.5t-289 -87.5t-267.5 110.5t-107.5 300.5q0 274 204.5 508t510.5 234q121 0 206.5 -48.5t85.5 -158.5q0 -68 -41.5 -115t-107.5 -68h-125q18 117 15 210.5t-66 93.5q-94 0 -178 -198t-84 -388q0 -258 155 -258z" />
    <glyph glyph-name="d" unicode="d" horiz-adv-x="1402" 
d="M752 1133q110 0 186 -39l68 292l-99 56l15 69l477 93h71l-311 -1297q-6 -27 -11 -48t-5 -34q0 -30 28 -30q50 0 162 143l53 -47q-111 -150 -209.5 -230.5t-216.5 -80.5t-180.5 56t-62.5 142t49 248q-104 -205 -219 -325.5t-247 -120.5t-202.5 89t-70.5 244
q0 279 203.5 549.5t521.5 270.5zM449 387q-1 -125 69 -125t184.5 194.5t198.5 495.5q-4 33 -27.5 58.5t-60.5 25.5q-141 0 -252.5 -228t-111.5 -421z" />
    <glyph glyph-name="e" unicode="e" horiz-adv-x="1064" 
d="M793 954q0 93 -64 93q-88 0 -167 -152t-103 -309q168 41 251 140t83 228zM39 401q0 279 206 505.5t517 226.5q166 0 244.5 -72t78.5 -172q0 -168 -177 -252t-457 -123v-31q0 -135 58 -203.5t159 -68.5q142 0 286 158l50 -47q-222 -342 -562 -342q-174 0 -288.5 114.5
t-114.5 306.5z" />
    <glyph glyph-name="f" unicode="f" horiz-adv-x="790" 
d="M829 1604q113 0 203 -44t90 -151q0 -51 -28.5 -92t-81.5 -60h-193q16 88 21.5 170t-47.5 82q-68 0 -93.5 -140t-17.5 -286h219l-29 -116h-202l-113 -504q-109 -487 -278.5 -704.5t-395.5 -217.5q-125 0 -208 48.5t-83 128.5t51.5 123.5t120.5 49.5h78q-8 -115 3.5 -187.5
t56.5 -72.5q51 0 72.5 100.5t60.5 288.5l188 947h-139l18 88l150 37q61 207 203.5 359.5t373.5 152.5z" />
    <glyph glyph-name="g" unicode="g" horiz-adv-x="1130" 
d="M463 618q0 -150 55 -149q68 0 127.5 136.5t59.5 286.5t-56 150q-68 0 -127 -137t-59 -287zM61 -176q0 -82 87.5 -131t221.5 -49t219 30.5t85 87.5q0 33 -27 46.5t-78 25.5l-426 105q-82 -33 -82 -115zM1085 805q0 -199 -177 -310.5t-410 -111.5q-108 0 -191 29
q-35 -26 -35 -54q0 -27 15.5 -37t36.5 -14l389 -82q154 -29 238.5 -91t84.5 -175q0 -195 -195.5 -306.5t-475.5 -111.5q-207 0 -377 71t-170 210q0 94 96 133t182 37q-80 65 -80 167q0 184 230 281q-162 87 -162 279t175 303t411 111q92 0 182 -35l401 12l-49 -152h-90
l-92 17q63 -79 63 -170z" />
    <glyph glyph-name="h" unicode="h" horiz-adv-x="1370" 
d="M854 811q0 37 -35 37q-57 0 -168.5 -171t-171.5 -403l-71 -274h-418l340 1386l-99 56l15 69l477 93h72l-234 -969q129 260 273.5 379t287.5 119q82 0 128 -48.5t46 -112.5t-18 -134l-148 -531q-16 -54 -16 -83t29 -29q48 0 162 143l53 -47q-111 -150 -209 -230.5
t-219 -80.5t-181.5 59t-60.5 129t31 178l121 399q14 49 14 66z" />
    <glyph glyph-name="i" unicode="i" horiz-adv-x="737" 
d="M498 195q49 0 161 143l54 -47q-111 -150 -209 -230.5t-220 -80.5t-176.5 59t-54.5 128t21 177l139 555l-104 84l14 61l498 89h73l-209 -826q-16 -54 -16 -83t29 -29zM536 1204q-102 0 -158 58.5t-56 140.5t60 146.5t162 64.5t159 -56.5t57 -139.5t-61 -148.5t-163 -65.5z
" />
    <glyph glyph-name="j" unicode="j" horiz-adv-x="671" 
d="M536 1204q-102 0 -158 58.5t-56 140.5t60 146.5t162 64.5t159 -56.5t57 -139.5t-61 -148.5t-163 -65.5zM-172 -459q-125 0 -208 47t-83 129t51.5 125t120.5 49h78q-6 -115 3 -187.5t54 -72.5q51 0 79 100.5t73 286.5l217 881l-104 84l14 61l498 89h73l-237 -940
q-84 -330 -237.5 -491t-391.5 -161z" />
    <glyph glyph-name="k" unicode="k" horiz-adv-x="1329" 
d="M408 0h-418l340 1386l-99 56l15 69l477 93h72zM1350 954q0 -153 -172 -213h-25q8 76 -22.5 120t-90.5 44t-99.5 -34t-82.5 -87l189 -434q20 -49 39.5 -75.5t46 -26.5t52 22.5t70.5 73.5l52 -45q-115 -162 -209 -240.5t-190 -78.5t-141.5 48t-78.5 138l-133 385l369 438
q57 70 114.5 107t137.5 37t127 -53.5t47 -125.5z" />
    <glyph glyph-name="l" unicode="l" horiz-adv-x="712" 
d="M481 195q50 0 162 143l53 -47q-111 -150 -209 -230.5t-219 -80.5t-176 59t-55 139t20 166l258 1042l-98 56l14 69l478 93h71l-311 -1297q-6 -27 -11 -48t-5 -34q0 -30 28 -30z" />
    <glyph glyph-name="m" unicode="m" horiz-adv-x="2025" 
d="M1122 1133q82 0 126 -48.5t44 -126.5t-69 -321q246 496 555 496q82 0 128 -48.5t46 -113.5t-19 -133l-147 -531q-17 -57 -17 -85q0 -27 29 -27q50 0 162 143l53 -47q-111 -150 -209 -230.5t-219 -80.5t-181.5 59t-60.5 129t31 178l121 399q14 49 14 66q0 37 -34 37
q-53 0 -162 -171t-168 -403l-72 -274h-418l185 745q14 49 14 66q0 37 -35 37q-53 0 -161.5 -171t-168.5 -403l-71 -274h-418l225 899l-104 84l14 61l498 89h74l-140 -496q246 496 555 496z" />
    <glyph glyph-name="n" unicode="n" horiz-adv-x="1380" 
d="M864 811q0 37 -35 37q-57 0 -168.5 -171t-171.5 -403l-71 -274h-418l225 899l-104 84l14 61l498 89h74l-140 -500q129 260 275.5 380t290.5 120q82 0 128 -48.5t46 -130.5q0 -42 -19 -116l-147 -531q-17 -57 -17 -85q0 -27 29 -27q50 0 162 143l53 -47
q-111 -150 -209 -230.5t-219 -80.5t-181.5 59t-60.5 129t31 178l121 399q14 49 14 66z" />
    <glyph glyph-name="o" unicode="o" horiz-adv-x="1226" 
d="M1190 696q0 -287 -201 -501.5t-493 -214.5q-201 0 -330 114.5t-129 321.5q0 287 200.5 502t493.5 215q201 0 330 -115t129 -322zM791 901q0 141 -64 141q-102 0 -196.5 -307t-94.5 -524q0 -141 64 -141q102 0 196.5 307t94.5 524z" />
    <glyph glyph-name="p" unicode="p" horiz-adv-x="1359" 
d="M899 748q0 106 -55 106q-84 0 -216 -230.5t-171 -441.5q10 -39 38.5 -61.5t63.5 -22.5q133 0 236.5 233.5t103.5 416.5zM637 -20q-147 0 -201 90l-86 -326q-2 -10 -4 -19.5t-2 -15.5q0 -33 37 -43t111 -14l-17 -86h-682l17 86q57 4 83.5 16.5t36.5 57.5l295 1173l-104 84
l14 61l498 89h74l-150 -515q94 193 232.5 354t306.5 161q237 0 237 -325t-211 -576.5t-485 -251.5z" />
    <glyph glyph-name="q" unicode="q" horiz-adv-x="1331" 
d="M449 387q-1 -125 69 -125t184.5 194.5t198.5 495.5q-4 33 -27.5 58.5t-60.5 25.5q-141 0 -252.5 -228t-111.5 -421zM300 -20q-132 0 -202.5 89t-70.5 244q0 279 203.5 549.5t521.5 270.5q100 0 171.5 -33t110.5 -76l248 109h84l-82 -285l-278 -1114q-7 -22 -7 -42t26 -28
t73 -12l-17 -86h-675l16 86q88 8 120.5 20.5t47.5 63.5l176 690q-104 -205 -219 -325.5t-247 -120.5z" />
    <glyph glyph-name="r" unicode="r" horiz-adv-x="1058" 
d="M918 670q0 100 -84 100q-129 0 -238 -220t-178 -550h-418l225 899l-104 84l14 61l498 89h74l-82 -287l-99 -311q172 352 260 475t197 123q74 0 116 -47.5t42 -135.5t-62.5 -168t-144.5 -112h-16z" />
    <glyph glyph-name="s" unicode="s" horiz-adv-x="964" 
d="M444 63q45 0 72 21.5t27 60.5q0 113 -209 244t-209 336q0 162 140.5 285t346.5 123q129 0 226.5 -50.5t97.5 -158.5q0 -66 -53.5 -107t-106.5 -51h-20q-20 111 -83 196t-151 85q-41 0 -67.5 -24t-26.5 -62q0 -96 221 -241t221 -339q0 -170 -144 -285.5t-330 -115.5
t-300 65.5t-114 179.5q0 72 48 119t113 68h19q27 -160 101.5 -254.5t180.5 -94.5z" />
    <glyph glyph-name="t" unicode="t" horiz-adv-x="858" 
d="M68 217q0 51 16 141l152 609h-125l20 80q145 45 293.5 145t232.5 205h97l-76 -314h223l-29 -116h-223l-155 -621q-17 -79 -17 -102q0 -60 51 -60q95 0 248 178l58 -43q-246 -339 -508 -339q-121 0 -189.5 69.5t-68.5 167.5z" />
    <glyph glyph-name="u" unicode="u" horiz-adv-x="1386" 
d="M485 289q0 -37 33 -37q57 0 165 177.5t165 408.5l63 254l426 20l-202 -805q-17 -66 -17 -82q0 -30 29 -30q48 0 162 143l53 -47q-111 -150 -209.5 -230.5t-216.5 -80.5t-181 56t-63 135t51 255q-129 -256 -244 -351t-225 -95t-166.5 63t-56.5 138t17 136l145 582l-104 84
l14 61l498 89h73l-192 -760q-17 -62 -17 -84z" />
    <glyph glyph-name="v" unicode="v" horiz-adv-x="1101" 
d="M862 788q0 74 -53 117t-135 43l4 33q35 59 100.5 105.5t163.5 46.5t144.5 -62.5t46.5 -166.5t-89.5 -219.5t-201.5 -225.5l-471 -465h-115l-98 921l-113 80l16 54l453 84h43l57 -785l113 125q135 150 135 315z" />
    <glyph glyph-name="w" unicode="w" horiz-adv-x="1662" 
d="M1423 788q0 74 -53 117t-135 43l4 33q35 59 100.5 105.5t163.5 46.5t144.5 -62.5t46.5 -148.5q0 -121 -90.5 -235t-200.5 -228l-447 -465h-106l-53 504l-435 -504h-106l-98 921l-113 80l16 54l453 84h43l53 -727l174 204l-32 305l-99 74l17 53l438 91h43l53 -752l84 92
q135 150 135 315z" />
    <glyph glyph-name="x" unicode="x" horiz-adv-x="1179" 
d="M1072 1135q83 0 121 -47.5t38 -108.5q0 -94 -67.5 -142.5t-131.5 -68.5h-28q18 131 -60 131q-33 0 -60.5 -38t-66.5 -109l-49 -88l78 -295q14 -61 28.5 -96t45.5 -35t61.5 22.5t83.5 79.5l47 -43q-117 -164 -217.5 -240.5t-198.5 -76.5t-143 54t-72 152l-51 183l-78 -154
q-120 -235 -280 -235q-80 0 -122 48t-42 130t62.5 131t131.5 67h29q-8 -57 8.5 -98t60.5 -41t70.5 32.5t65.5 110.5l61 127l-114 420l-154 88l16 56l457 84h43l92 -359l68 119q63 111 123.5 175.5t143.5 64.5z" />
    <glyph glyph-name="y" unicode="y" horiz-adv-x="1126" 
d="M889 724q0 124 -66.5 174t-148.5 50l4 33q35 59 99.5 105.5t162.5 46.5t152.5 -68t54.5 -166q0 -166 -131.5 -368.5t-329.5 -455.5t-356 -393.5t-332 -140.5q-94 0 -160.5 48.5t-66.5 131.5t49 135t125 72h41q0 -102 35 -161.5t107 -59.5t129.5 30t121.5 93l-240 1085
l-112 80l16 54l440 84h43l179 -902q109 150 146.5 259.5t37.5 233.5z" />
    <glyph glyph-name="z" unicode="z" horiz-adv-x="1079" 
d="M330 762q-47 0 -67.5 -15.5t-53.5 -54.5l-43 -51l-41 14l168 531h51q6 -39 15.5 -59.5t29.5 -20.5h780v-49l-749 -635l192 -70q25 -6 73 -18t97 -12t106.5 23.5t133.5 131.5l37 -20q-90 -291 -196.5 -393.5t-254.5 -102.5q-84 0 -158.5 26.5t-152.5 65.5l-209 107
l-59 -160q-99 -4 -99 66q0 48 52 96l716 600h-368z" />
    <glyph glyph-name="braceleft" unicode="{" horiz-adv-x="763" 
d="M139 623l8 41q180 33 215 204l95 447q27 121 140.5 191.5t354.5 70.5l-12 -64q-182 -19 -217 -200l-90 -420q-25 -119 -107 -174t-194 -76q104 -20 162.5 -75.5t31.5 -174.5l-88 -418q-20 -102 21 -147t110 -53l-12 -64q-242 0 -327 71t-58 191l94 445q35 173 -127 205z
" />
    <glyph glyph-name="bar" unicode="|" horiz-adv-x="413" 
d="M526 1577l-395 -1866h-168l395 1866h168z" />
    <glyph glyph-name="braceright" unicode="}" horiz-adv-x="784" 
d="M717 664l-8 -41q-178 -33 -213 -205l-95 -445q-27 -121 -140.5 -191.5t-354.5 -70.5l12 64q74 8 135.5 53t81.5 147l88 418q27 119 108 174.5t193 75.5q-104 20 -161.5 75.5t-32.5 174.5l90 420q20 102 -21 147t-110 53l12 64q242 0 327 -70.5t58 -191.5l-94 -447
q-35 -172 125 -204z" />
    <glyph glyph-name="asciitilde" unicode="~" horiz-adv-x="1028" 
d="M333 600q-75 0 -122 -44t-82 -101l-68 34q96 347 304 347q92 0 174 -78t157 -78t121.5 44t81.5 101l68 -34q-96 -347 -303 -347q-92 0 -174 78t-157 78z" />
    <glyph glyph-name="exclamdown" unicode="&#xa1;" horiz-adv-x="624" 
d="M655 1042q0 -88 -61.5 -151.5t-147.5 -63.5t-146 63.5t-60 151.5t60 150.5t146 62.5t147.5 -62.5t61.5 -150.5zM-121 -203l445 944h137l-37 -944h-545z" />
    <glyph glyph-name="cent" unicode="&#xa2;" horiz-adv-x="1071" 
d="M428 434q0 -156 90 -225l178 854q-129 -41 -198.5 -231.5t-69.5 -397.5zM43 414q0 283 184.5 506t489.5 243l47 223h84l-47 -219q125 -4 213 -58t88 -157q0 -59 -34 -104t-99 -64h-127q23 117 8.5 193t-70.5 90l-184 -891q8 -2 10 -2h29q82 0 155.5 47t151.5 141l47 -38
q-167 -307 -434 -340l-47 -224h-84l45 220q-184 6 -305 126.5t-121 307.5z" />
    <glyph glyph-name="sterling" unicode="&#xa3;" horiz-adv-x="1409" 
d="M182 334q-129 0 -129 -127q0 -45 29 -73t81 -28t81.5 43.5t52.5 137.5q-60 47 -115 47zM1096 1038q69 125 69 233q0 107 -77 107t-113 -143l-119 -432h254l-23 -92h-256l-18 -68q-39 -143 -84 -229l-45 -86q158 -56 307 -56q174 0 174 131q0 65 -63 105l28 27
q82 -20 147.5 -86t65.5 -166q0 -150 -100.5 -226.5t-244.5 -76.5t-246.5 53t-184.5 110q-63 -82 -164 -122.5t-207 -40.5t-174.5 63t-68.5 163.5t68.5 160t147.5 59.5t159 -25l63 310h-201l21 92h199l28 133q107 522 635 522q158 0 267.5 -59.5t109.5 -165.5q0 -76 -44 -125
t-112 -70h-198z" />
    <glyph glyph-name="yen" unicode="&#xa5;" horiz-adv-x="1433" 
d="M1257 1294.5q0 46.5 -122 51.5l20 92h422l-21 -92q-45 -8 -76.5 -23.5t-58.5 -52.5l-313 -453h195l-21 -98h-242l-110 -160h319l-20 -96h-334l-51 -244q-16 -78 12.5 -97.5t124.5 -29.5l-20 -92h-742l21 92q102 10 136 29.5t50 97.5l51 244h-315l20 96h293l-49 160h-211
l21 98h159l-143 453q-14 43 -36.5 55t-65.5 21l20 92h702l-20 -92q-80 -4 -115 -28t-35 -62t25 -123l139 -455l320 467q71 103 71 149.5z" />
    <glyph glyph-name="section" unicode="&#xa7;" horiz-adv-x="1060" 
d="M270 754q0 -250 143.5 -457t143.5 -422q0 -77 -16 -111q94 70 166.5 210.5t72.5 316.5q0 250 -143 456.5t-143 421.5q0 79 16 111q-94 -70 -167 -210t-73 -316zM807 1209q0 73 -26.5 123t-80.5 50q-104 0 -104 -202t143.5 -396t143.5 -493q0 -252 -170 -478.5
t-486 -226.5q-121 0 -198.5 56.5t-77.5 143.5t47 124t94 53h180q-28 -54 -28 -127q0 -74 26.5 -124t77.5 -50q107 0 107 202t-143.5 396.5t-143.5 493.5q0 252 170 478t485 226q121 0 199 -56t78 -144t-47 -124t-95 -53h-180q29 55 29 128z" />
    <glyph glyph-name="dieresis" unicode="&#xa8;" 
d="M724 1227q-85 0 -132 51t-47 123t50 129t135 57t132 -50t47 -122t-50 -130t-135 -58zM296 1227q-85 0 -133 51t-48 123t51 129t136 57t132 -50t47 -122t-50 -130t-135 -58z" />
    <glyph glyph-name="copyright" unicode="&#xa9;" horiz-adv-x="1630" 
d="M830 59q280 0 480.5 208t200.5 505q0 256 -167.5 431t-447.5 175t-480.5 -207.5t-200.5 -504.5q0 -256 167.5 -431.5t447.5 -175.5zM444 635q0 223 154 371.5t373 148.5q171 0 272 -92l-43 -205h-78q2 100 -31.5 159.5t-105.5 59.5q-121 0 -194.5 -157.5t-73.5 -319.5
q0 -90 29.5 -161.5t108.5 -71.5t127 57t103 168h84l-49 -223q-132 -80 -303 -80q-172 0 -272.5 99t-100.5 247zM830 -20q-314 0 -507.5 197.5t-193.5 488.5q0 330 226.5 561t540.5 231t507.5 -197.5t193.5 -488.5q0 -330 -226.5 -561t-540.5 -231z" />
    <glyph glyph-name="ordfeminine" unicode="&#xaa;" horiz-adv-x="1005" 
d="M1055 909q-143 -204 -285 -204q-78 0 -119 39.5t-41 98.5t21 122h-4q-47 -102 -118 -181t-164 -79t-143 62t-50 171q0 184 129 352t319 168q119 0 176 -82l197 82h74l-54 -186l-92 -340q-10 -40 -10 -57t16 -17q48 0 113 84zM442 982q0 -101 47 -101q59 0 128 135
t100 309q-6 27 -18.5 44t-41.5 17q-80 0 -147.5 -151.5t-67.5 -252.5z" />
    <glyph glyph-name="guillemotleft" unicode="&#xab;" horiz-adv-x="964" 
d="M446 559l3 12l471 414h102l-258 -420l80 -420h-103zM49 559l2 12l471 414h103l-258 -420l79 -420h-102z" />
    <glyph glyph-name="registered" unicode="&#xae;" horiz-adv-x="1136" 
d="M648 596q175 0 294 123t119 293t-99.5 273.5t-274.5 103.5t-294 -123t-119 -293t99.5 -273.5t274.5 -103.5zM647 526q-201 0 -323.5 125t-122.5 321t143 341t344 145t324 -125t123 -321t-143.5 -341t-344.5 -145zM729 1245q88 0 132 -37.5t44 -99.5t-45 -97.5t-86 -47.5
l57 -121q20 -41 62 -45l-10 -39h-129q-28 16 -47 63l-60 131h-26l-25 -108q-6 -25 1 -35t40 -12l-10 -39h-238l10 39q37 0 46.5 11t15.5 40l65 297q6 27 0 39t-41 14l9 47h235zM684 1196h-10l-43 -199h10q43 0 82 29t39 77q0 93 -78 93z" />
    <glyph glyph-name="macron" unicode="&#xaf;" 
d="M188 1280l43 195h603l-43 -195h-603z" />
    <glyph glyph-name="degree" unicode="&#xb0;" horiz-adv-x="589" 
d="M400 956q-106 0 -167 60.5t-61 167.5t81 190.5t187 83.5t167 -61t61 -167t-81 -190t-187 -84zM295 1188q-1 -131 109 -131q58 0 99.5 52.5t41.5 116.5q0 132 -103 132q-66 0 -106.5 -53.5t-40.5 -116.5z" />
    <glyph glyph-name="plusminus" unicode="&#xb1;" horiz-adv-x="1179" 
d="M78 276l31 146h903l-31 -146h-903zM662 1245h145l-62 -289h381l-30 -143h-381l-62 -287h-145l61 287h-376l30 143h377z" />
    <glyph glyph-name="twosuperior" unicode="&#xb2;" horiz-adv-x="849" 
d="M561 1178q0 104 -104 104q-55 0 -105.5 -28.5t-85.5 -71.5l-45 43q51 92 144 158.5t211 66.5t188 -50t70 -153q0 -141 -144.5 -239.5t-316.5 -184.5h241q51 0 83 15.5t75 64.5h51l-82 -285h-655l10 58q301 221 383 326.5t82 175.5z" />
    <glyph glyph-name="threesuperior" unicode="&#xb3;" horiz-adv-x="804" 
d="M317 808q0 -124 87 -124q48 0 79 54t31 124q0 142 -106 142q-18 0 -43 -5l-9 48q104 39 150.5 78t46.5 85t-23.5 68t-62.5 22q-98 0 -174 -90l-51 35q51 92 143.5 152.5t196.5 60.5q224 0 223 -167q0 -85 -76 -135t-176 -64q90 -10 153.5 -60.5t63.5 -136.5
q0 -133 -121 -203.5t-253 -70.5t-213 49t-81 126t82 103h156q-23 -41 -23 -91z" />
    <glyph glyph-name="acute" unicode="&#xb4;" 
d="M797 1569v-19l-449 -315h-123l174 334h398z" />
    <glyph glyph-name="paragraph" unicode="&#xb6;" horiz-adv-x="1257" 
d="M508 817q0 -117 29.5 -221.5t105.5 -114.5l186 877q-129 -20 -225 -181t-96 -360zM156 831q0 242 193.5 424.5t498.5 182.5h586l-21 -88q-123 0 -172 -30t-72 -140l-335 -1583h-111l371 1753h-156l-371 -1753h-110l170 800q-197 0 -334 122t-137 312z" />
    <glyph glyph-name="onesuperior" unicode="&#xb9;" horiz-adv-x="686" 
d="M614 1458h72l-137 -651q-14 -63 1 -82.5t103 -24.5l-16 -73h-535l17 73q80 6 105.5 20.5t39.5 74.5l90 419h-129l15 70l59 12q119 25 179 56.5t136 105.5z" />
    <glyph glyph-name="ordmasculine" unicode="&#xba;" horiz-adv-x="868" 
d="M934 1167q0 -188 -136 -328.5t-329 -140.5q-133 0 -222 77t-89 214q0 188 136 328.5t329 140.5q133 0 222 -77t89 -214zM662 1300q0 95 -41 95q-68 0 -129.5 -199t-61.5 -340q0 -94 41 -94q68 0 129.5 198.5t61.5 339.5z" />
    <glyph glyph-name="guillemotright" unicode="&#xbb;" horiz-adv-x="964" 
d="M535 571l-3 -12l-471 -414h-102l258 420l-80 420h103zM932 571l-2 -12l-471 -414h-103l258 420l-79 420h102z" />
    <glyph glyph-name="onequarter" unicode="&#xbc;" horiz-adv-x="1624" 
d="M193 -20l1241 1478h122l-1243 -1478h-120zM1446 0h-475l14 74q66 4 88.5 17t34.5 67l12 55h-383l15 70l520 528h241l-110 -514h160l-17 -84h-160l-12 -55q-12 -53 5.5 -66.5t80.5 -17.5zM877 297h260l71 332zM614 1458h72l-137 -651q-14 -63 1 -82.5t103 -24.5l-16 -73
h-535l17 73q80 6 105.5 20.5t39.5 74.5l90 419h-129l15 70l59 12q119 25 179 56.5t136 105.5z" />
    <glyph glyph-name="onehalf" unicode="&#xbd;" horiz-adv-x="1652" 
d="M193 -20l1241 1478h122l-1243 -1478h-120zM1319 559q0 105 -106 105t-189 -101l-45 43q51 92 143 158.5t211 66.5t188.5 -50t69.5 -152q0 -141 -144.5 -239.5t-316.5 -184.5h242q51 0 83 15.5t75 64.5h51l-82 -285h-655l10 57q301 221 383 326.5t82 175.5zM614 1458h72
l-137 -651q-14 -63 1 -82.5t103 -24.5l-16 -73h-535l17 73q80 6 105.5 20.5t39.5 74.5l90 419h-129l15 70l59 12q119 25 179 56.5t136 105.5z" />
    <glyph glyph-name="threequarters" unicode="&#xbe;" horiz-adv-x="1638" 
d="M207 -20l1241 1478h123l-1243 -1478h-121zM317 808q0 -124 87 -124q48 0 79 54t31 124q0 142 -106 142q-18 0 -43 -5l-9 48q104 39 150.5 78t46.5 85t-23.5 68t-62.5 22q-98 0 -174 -90l-51 35q51 92 143.5 152.5t196.5 60.5q224 0 223 -167q0 -85 -76 -135t-176 -64
q90 -10 153.5 -60.5t63.5 -136.5q0 -133 -121 -203.5t-253 -70.5t-213 49t-81 126t82 103h156q-23 -41 -23 -91zM1460 0h-475l14 74q66 4 88.5 17t34.5 67l13 55h-383l14 70l520 528h242l-111 -514h160l-16 -84h-160l-12 -55q-12 -53 5 -66.5t81 -17.5zM891 297h260l72 332z
" />
    <glyph glyph-name="questiondown" unicode="&#xbf;" horiz-adv-x="976" 
d="M821 1042q0 -88 -61.5 -151.5t-147.5 -63.5t-146 63.5t-60 151.5t60 150.5t146 62.5t147.5 -62.5t61.5 -150.5zM262 -14q0 -121 121 -121q66 0 102.5 62.5t36.5 148.5q0 34 -10 96h274q56 -52 56 -121q0 -135 -132 -204.5t-333 -69.5t-315.5 98.5t-114.5 248.5
t86.5 239.5t206.5 145.5t191 101t71 111q0 15 -4 33h61q156 -60 156 -213q0 -86 -50.5 -152.5t-158.5 -128.5t-176 -121t-68 -153z" />
    <glyph glyph-name="Agrave" unicode="&#xc0;" horiz-adv-x="1546" 
d="M727 1098l-317 -547h415zM209 166q0 -35 36 -51t111 -23l-20 -92h-449l21 92q43 4 76 20t57 56l647 1092l-33 178h463l232 -1270q8 -39 36 -53t70 -23l-20 -92h-754l20 92q80 2 131 24q50 22 50 81q0 32 -6 67l-31 168h-506l-96 -168q-35 -63 -35 -98zM545 1823h370
l46 -305h-119l-297 284v21z" />
    <glyph glyph-name="Aacute" unicode="&#xc1;" horiz-adv-x="1546" 
d="M727 1098l-317 -547h415zM209 166q0 -35 36 -51t111 -23l-20 -92h-449l21 92q43 4 76 20t57 56l647 1092l-33 178h463l232 -1270q8 -39 36 -53t70 -23l-20 -92h-754l20 92q80 2 131 24q50 22 50 81q0 32 -6 67l-31 168h-506l-96 -168q-35 -63 -35 -98zM1411 1823v-19
l-448 -286h-123l174 305h397z" />
    <glyph glyph-name="Acircumflex" unicode="&#xc2;" horiz-adv-x="1546" 
d="M727 1098l-317 -547h415zM209 166q0 -35 36 -51t111 -23l-20 -92h-449l21 92q43 4 76 20t57 56l647 1092l-33 178h463l232 -1270q8 -39 36 -53t70 -23l-20 -92h-754l20 92q80 2 131 24q50 22 50 81q0 32 -6 67l-31 168h-506l-96 -168q-35 -63 -35 -98zM1102 1829
l168 -311h-127l-213 133l-283 -133h-139l315 311h279z" />
    <glyph glyph-name="Atilde" unicode="&#xc3;" horiz-adv-x="1546" 
d="M727 1098l-317 -547h415zM209 166q0 -35 36 -51t111 -23l-20 -92h-449l21 92q43 4 76 20t57 56l647 1092l-33 178h463l232 -1270q8 -39 36 -53t70 -23l-20 -92h-754l20 92q80 2 131 24q50 22 50 81q0 32 -6 67l-31 168h-506l-96 -168q-35 -63 -35 -98zM1040 1518
q-94 0 -144 61t-104 61t-90 -32q-35 -32 -67 -80l-78 45q63 131 127 208t156 77q94 0 144 -62t104 -61t89 33q34 32 66 79l78 -45q-63 -132 -125 -208t-156 -76z" />
    <glyph glyph-name="Adieresis" unicode="&#xc4;" horiz-adv-x="1546" 
d="M727 1098l-317 -547h415zM209 166q0 -35 36 -51t111 -23l-20 -92h-449l21 92q43 4 76 20t57 56l647 1092l-33 178h463l232 -1270q8 -39 36 -53t70 -23l-20 -92h-754l20 92q80 2 131 24q50 22 50 81q0 32 -6 67l-31 168h-506l-96 -168q-35 -63 -35 -98zM1335 1694
q0 -72 -50 -130t-135 -59q-85 0 -132 51t-47 123t50 129q50 58 135 58t132 -50t47 -122zM907 1694q0 -72 -50 -130t-135 -59q-85 0 -133 51t-48 123t51 129q51 58 136 58t132 -50t47 -122z" />
    <glyph glyph-name="Aring" unicode="&#xc5;" horiz-adv-x="1546" 
d="M727 1098l-317 -547h415zM209 166q0 -35 36 -51t111 -23l-20 -92h-449l21 92q43 4 76 20t57 56l647 1092l-33 178h463l232 -1270q8 -39 36 -53t70 -23l-20 -92h-754l20 92q80 2 131 24q50 22 50 81q0 32 -6 67l-31 168h-506l-96 -168q-35 -63 -35 -98zM721 1690
q0 90 63 156q62 66 160 67t156 -57t59 -148q0 -90 -63 -157q-62 -67 -160 -67t-157 58q-58 58 -58 148zM1040 1706q0 43 -25 69q-26 25 -74 25t-75 -33q-26 -33 -26 -75t26 -69q26 -26 73 -26q48 0 75 33q26 33 26 76z" />
    <glyph glyph-name="AE" unicode="&#xc6;" horiz-adv-x="2150" 
d="M1141 1294l-555 -665h411zM1796 1335h-203l-112 -532h170q72 0 106.5 42t69.5 148h96l-108 -504h-97q10 106 -6 148.5t-88 42.5h-170l-94 -440q-18 -82 15.5 -110t113.5 -28h45q143 0 222 76t239 287h102l-166 -465h-1210l20 92q102 10 128 35t42 102l60 281h-484
l-204 -246q-43 -49 -43 -92t39.5 -58.5t115.5 -21.5l-20 -92h-488l21 92q75 7 133 76l924 1118q-44 40 -201 60l20 92h1442l-78 -408h-80q-39 172 -81.5 238.5t-190.5 66.5z" />
    <glyph glyph-name="Ccedilla" unicode="&#xc7;" horiz-adv-x="1421" 
d="M844 -244q0 -117 -123 -175t-291 -58l-18 76q111 0 173 30.5t62 69.5t-40 50t-111 13l110 226q-250 33 -391 195.5t-141 400.5q0 383 269 628.5t667 245.5q135 0 259 -37t193 -90l-69 -364h-103q-8 180 -68.5 284.5t-193.5 104.5q-250 0 -374 -313.5t-124 -563.5
q0 -387 243.5 -387t459.5 443h125l-127 -424q-212 -131 -498 -131h-19q-18 0 -30 2l-31 -60q191 -22 191 -166z" />
    <glyph glyph-name="Egrave" unicode="&#xc8;" horiz-adv-x="1380" 
d="M881 803q73 0 107 42t69 148h96l-109 -504h-96q10 107 -6 149t-88 42h-170l-94 -440q-18 -82 16 -110t113 -28h45q143 0 222 76t239 287h102l-166 -465h-1210l20 92q102 10 128 35t42 102l209 979q16 78 1 103t-113 35l20 92h1198l-78 -408h-80q-39 172 -81 239
q-43 67 -191 66h-203l-112 -532h170zM563 1823h371l45 -305h-119l-297 284v21z" />
    <glyph glyph-name="Eacute" unicode="&#xc9;" horiz-adv-x="1380" 
d="M881 803q73 0 107 42t69 148h96l-109 -504h-96q10 107 -6 149t-88 42h-170l-94 -440q-18 -82 16 -110t113 -28h45q143 0 222 76t239 287h102l-166 -465h-1210l20 92q102 10 128 35t42 102l209 979q16 78 1 103t-113 35l20 92h1198l-78 -408h-80q-39 172 -81 239
q-43 67 -191 66h-203l-112 -532h170zM1432 1823v-19l-449 -286h-123l174 305h398z" />
    <glyph glyph-name="Ecircumflex" unicode="&#xca;" horiz-adv-x="1380" 
d="M881 803q73 0 107 42t69 148h96l-109 -504h-96q10 107 -6 149t-88 42h-170l-94 -440q-18 -82 16 -110t113 -28h45q143 0 222 76t239 287h102l-166 -465h-1210l20 92q102 10 128 35t42 102l209 979q16 78 1 103t-113 35l20 92h1198l-78 -408h-80q-39 172 -81 239
q-43 67 -191 66h-203l-112 -532h170zM1120 1829l168 -311h-127l-213 133l-282 -133h-140l316 311h278z" />
    <glyph glyph-name="Edieresis" unicode="&#xcb;" horiz-adv-x="1380" 
d="M881 803q73 0 107 42t69 148h96l-109 -504h-96q10 107 -6 149t-88 42h-170l-94 -440q-18 -82 16 -110t113 -28h45q143 0 222 76t239 287h102l-166 -465h-1210l20 92q102 10 128 35t42 102l209 979q16 78 1 103t-113 35l20 92h1198l-78 -408h-80q-39 172 -81 239
q-43 67 -191 66h-203l-112 -532h170zM1354 1694q0 -72 -50 -130t-136 -59q-85 0 -132 51t-47 123t50 129q49 58 135 58t133 -50t47 -122zM926 1694q0 -72 -50 -130t-136 -59q-85 0 -133 51t-48 123t51 129q50 58 136 58t133 -50t47 -122z" />
    <glyph glyph-name="Igrave" unicode="&#xcc;" horiz-adv-x="845" 
d="M141 229l209 979q16 78 1 103t-113 35l20 92h731l-20 -92q-100 -10 -127 -35t-43 -103l-209 -979q-16 -79 0 -103t112 -34l-20 -92h-731l20 92q102 10 128 34t42 103zM281 1823h370l45 -305h-118l-297 284v21z" />
    <glyph glyph-name="Iacute" unicode="&#xcd;" horiz-adv-x="845" 
d="M141 229l209 979q16 78 1 103t-113 35l20 92h731l-20 -92q-100 -10 -127 -35t-43 -103l-209 -979q-16 -79 0 -103t112 -34l-20 -92h-731l20 92q102 10 128 34t42 103zM1149 1823v-19l-449 -286h-122l174 305h397z" />
    <glyph glyph-name="Icircumflex" unicode="&#xce;" horiz-adv-x="845" 
d="M141 229l209 979q16 78 1 103t-113 35l20 92h731l-20 -92q-100 -10 -127 -35t-43 -103l-209 -979q-16 -79 0 -103t112 -34l-20 -92h-731l20 92q102 10 128 34t42 103zM838 1829l168 -311h-127l-213 133l-283 -133h-139l315 311h279z" />
    <glyph glyph-name="Idieresis" unicode="&#xcf;" horiz-adv-x="845" 
d="M141 229l209 979q16 78 1 103t-113 35l20 92h731l-20 -92q-100 -10 -127 -35t-43 -103l-209 -979q-16 -79 0 -103t112 -34l-20 -92h-731l20 92q102 10 128 34t42 103zM1079 1694q0 -72 -50 -130t-135 -59q-85 0 -132 51t-47 123t50 129q50 58 135 58t132 -50t47 -122z
M651 1694q0 -72 -50 -130t-135 -59q-85 0 -133 51t-48 123t51 129q51 58 136 58t132 -50t47 -122z" />
    <glyph glyph-name="Eth" unicode="&#xd0;" horiz-adv-x="1624" 
d="M676 102h12q203 0 345.5 277.5t142.5 554.5q0 203 -75 302t-255 99h-23l-114 -540h229l-29 -140h-231l-86 -409q-20 -90 0.5 -117t83.5 -27zM918 1438q299 0 505.5 -146.5t206.5 -433.5q0 -389 -284.5 -623.5t-679.5 -234.5h-715l20 92q102 10 128 35t42 102l90 426h-129
l29 140h131l88 413q16 78 1 102.5t-113 35.5l20 92h660z" />
    <glyph glyph-name="Ntilde" unicode="&#xd1;" horiz-adv-x="1556" 
d="M1260 639l122 569q16 78 -20 104q-37 26 -160 34l21 92h497l-20 -92q-102 -10 -128 -35t-42 -103l-256 -1208h-158l-647 1065l-178 -836q-15 -77 21 -103t159 -34l-20 -92h-498l20 92q102 10 128 35t42 102l211 994q-31 59 -51 87t-65 36l20 92h533zM1144 1518
q-94 0 -144 61t-104 61t-89 -32t-68 -80l-77 45q63 131 126 208q62 77 156 77t144 -62t105 -61q54 1 88 33t67 79l77 -45q-63 -132 -125 -208t-156 -76z" />
    <glyph glyph-name="Ograve" unicode="&#xd2;" horiz-adv-x="1576" 
d="M956 1352q-204 0 -312 -366t-107 -595q-1 -135 35 -220t128 -85q203 0 312 366t108 595q0 135 -35 220t-129 85zM969 1458q285 0 449 -167t165 -410q0 -346 -242 -624t-653 -277q-286 0 -450 166t-164 411q0 346 241 624q242 277 654 277zM653 1823h371l45 -305h-119
l-297 284v21z" />
    <glyph glyph-name="Oacute" unicode="&#xd3;" horiz-adv-x="1576" 
d="M956 1352q-204 0 -312 -366t-107 -595q-1 -135 35 -220t128 -85q203 0 312 366t108 595q0 135 -35 220t-129 85zM969 1458q285 0 449 -167t165 -410q0 -346 -242 -624t-653 -277q-286 0 -450 166t-164 411q0 346 241 624q242 277 654 277zM1522 1823v-19l-449 -286h-123
l174 305h398z" />
    <glyph glyph-name="Ocircumflex" unicode="&#xd4;" horiz-adv-x="1576" 
d="M956 1352q-204 0 -312 -366t-107 -595q-1 -135 35 -220t128 -85q203 0 312 366t108 595q0 135 -35 220t-129 85zM969 1458q285 0 449 -167t165 -410q0 -346 -242 -624t-653 -277q-286 0 -450 166t-164 411q0 346 241 624q242 277 654 277zM1210 1829l168 -311h-127
l-213 133l-282 -133h-140l316 311h278z" />
    <glyph glyph-name="Otilde" unicode="&#xd5;" horiz-adv-x="1576" 
d="M956 1352q-204 0 -312 -366t-107 -595q-1 -135 35 -220t128 -85q203 0 312 366t108 595q0 135 -35 220t-129 85zM969 1458q285 0 449 -167t165 -410q0 -346 -242 -624t-653 -277q-286 0 -450 166t-164 411q0 346 241 624q242 277 654 277zM1150 1518q-93 0 -143 61
q-51 61 -105 61t-89 -32t-68 -80l-77 45q62 131 126 208t157 77t143 -62t105 -61q54 1 88 33t67 79l78 -45q-63 -132 -126 -208t-156 -76z" />
    <glyph glyph-name="Odieresis" unicode="&#xd6;" horiz-adv-x="1576" 
d="M956 1352q-204 0 -312 -366t-107 -595q-1 -135 35 -220t128 -85q203 0 312 366t108 595q0 135 -35 220t-129 85zM969 1458q285 0 449 -167t165 -410q0 -346 -242 -624t-653 -277q-286 0 -450 166t-164 411q0 346 241 624q242 277 654 277zM1444 1694q0 -72 -50 -130
t-136 -59q-85 0 -132 51t-47 123t50 129q49 58 135 58t133 -50t47 -122zM1016 1694q0 -72 -50 -130t-136 -59q-85 0 -133 51t-48 123t51 129q50 58 136 58t133 -50t47 -122z" />
    <glyph glyph-name="multiply" unicode="&#xd7;" horiz-adv-x="1021" 
d="M449 748l-220 278l125 102l215 -280l340 280l82 -102l-340 -278l221 -279l-124 -100l-220 278l-335 -278l-82 100z" />
    <glyph glyph-name="Oslash" unicode="&#xd8;" horiz-adv-x="1576" 
d="M965 1352q-190 0 -305 -325t-130 -568l594 682q-10 96 -46.5 153.5t-112.5 57.5zM532 305q18 -219 160 -219q190 0 305 329.5t129 571.5zM1583 881q0 -346 -241.5 -623.5t-653.5 -277.5q-210 0 -358 94l-123 -142l-78 66l119 137q-174 162 -174 422q0 346 241.5 623.5
t653.5 277.5q198 0 352 -92l106 123l78 -66l-102 -116q180 -160 180 -426z" />
    <glyph glyph-name="Ugrave" unicode="&#xd9;" horiz-adv-x="1568" 
d="M737 -20q-305 0 -455 170t-89 442l133 616q16 78 1 103t-114 35l20 92h732l-21 -92q-100 -10 -127 -35t-43 -103l-137 -637q-35 -163 21 -283t231 -120q135 0 228 85t138 298l140 657q16 78 -11 104t-149 34l20 92h480l-21 -92q-100 -10 -127 -35t-43 -103l-149 -698
q-57 -270 -227 -400t-431 -130zM758 1823h370l46 -305h-119l-297 284v21z" />
    <glyph glyph-name="Uacute" unicode="&#xda;" horiz-adv-x="1568" 
d="M737 -20q-305 0 -455 170t-89 442l133 616q16 78 1 103t-114 35l20 92h732l-21 -92q-100 -10 -127 -35t-43 -103l-137 -637q-35 -163 21 -283t231 -120q135 0 228 85t138 298l140 657q16 78 -11 104t-149 34l20 92h480l-21 -92q-100 -10 -127 -35t-43 -103l-149 -698
q-57 -270 -227 -400t-431 -130zM1626 1823v-19l-448 -286h-123l174 305h397z" />
    <glyph glyph-name="Ucircumflex" unicode="&#xdb;" horiz-adv-x="1568" 
d="M737 -20q-305 0 -455 170t-89 442l133 616q16 78 1 103t-114 35l20 92h732l-21 -92q-100 -10 -127 -35t-43 -103l-137 -637q-35 -163 21 -283t231 -120q135 0 228 85t138 298l140 657q16 78 -11 104t-149 34l20 92h480l-21 -92q-100 -10 -127 -35t-43 -103l-149 -698
q-57 -270 -227 -400t-431 -130zM1315 1829l168 -311h-127l-213 133l-283 -133h-139l315 311h279z" />
    <glyph glyph-name="Udieresis" unicode="&#xdc;" horiz-adv-x="1568" 
d="M737 -20q-305 0 -455 170t-89 442l133 616q16 78 1 103t-114 35l20 92h732l-21 -92q-100 -10 -127 -35t-43 -103l-137 -637q-35 -163 21 -283t231 -120q135 0 228 85t138 298l140 657q16 78 -11 104t-149 34l20 92h480l-21 -92q-100 -10 -127 -35t-43 -103l-149 -698
q-57 -270 -227 -400t-431 -130zM1548 1694q0 -72 -50 -130t-135 -59q-85 0 -132 51t-47 123t50 129q50 58 135 58t132 -50t47 -122zM1120 1694q0 -72 -50 -130t-135 -59q-85 0 -133 51t-48 123t51 129q51 58 136 58t132 -50t47 -122z" />
    <glyph glyph-name="Yacute" unicode="&#xdd;" horiz-adv-x="1454" 
d="M907 1346q-151 -8 -151 -96q0 -44 26 -117l154 -457l326 469q72 104 71 139q0 57 -123 62l21 92h422l-21 -92q-45 -8 -77 -24t-58 -52l-522 -742l-66 -309q-16 -78 13 -97t125 -30l-21 -92h-762l21 92q102 10 136 30t50 97l64 299l-248 752q-14 43 -37 55t-66 21l21 92
h723zM1587 1823v-19l-448 -286h-123l174 305h397z" />
    <glyph glyph-name="Thorn" unicode="&#xde;" horiz-adv-x="1454" 
d="M940 1180q225 0 369.5 -95.5t144.5 -275.5q0 -270 -209 -395t-512 -125h-133l-12 -60q-16 -78 31 -104.5t178 -32.5l-21 -92h-825l20 92q102 10 128 35t42 102l209 979q16 78 1 102.5t-113 35.5l20 92h731l-20 -92q-100 -10 -127 -35t-43 -103l-6 -28h147zM651 406
q137 0 252 100t115 303q0 123 -56.5 195.5t-166.5 72.5h-27l-143 -671h26z" />
    <glyph glyph-name="germandbls" unicode="&#xdf;" horiz-adv-x="1507" 
d="M1018 63q102 0 102 91q0 111 -192.5 235.5t-192.5 325.5q0 123 79.5 201t145.5 134q128 106 127 283q0 72 -36.5 126t-115.5 54t-131 -63.5t-75 -173.5l-172 -813q-102 -489 -275 -705.5t-399 -216.5q-125 0 -208 48.5t-83 128.5t51.5 123.5t120.5 49.5h78
q-8 -115 2.5 -190.5t55.5 -75.5q51 0 72.5 100.5t60.5 288.5l190 953h-139l18 88l150 37q61 207 228 359.5t431 152.5q190 0 319.5 -80t129.5 -205q0 -96 -53 -155.5t-131 -91.5t-110 -53.5t-32 -64.5q0 -90 206 -234.5t206 -332.5t-146.5 -297.5t-328.5 -109.5t-297 65.5
t-115 179.5q0 72 48 119t114 68h18q27 -160 102 -254.5t177 -94.5z" />
    <glyph glyph-name="agrave" unicode="&#xe0;" horiz-adv-x="1396" 
d="M1159 195q50 0 162 143l53 -47q-111 -150 -209 -231q-99 -80 -217 -80t-181 56q-62 56 -62 139t51 251q-104 -205 -214 -326q-110 -120 -242 -120t-203 89t-70 244q0 279 204 549q205 270 529 271q92 0 159 -33t105 -76l254 109h84l-82 -285l-133 -541q-6 -27 -11 -49
t-6 -33q0 -30 29 -30zM518 262q70 0 184 195q115 195 199 495q-4 33 -28 59t-60 25q-141 0 -253 -228t-111 -421q-1 -125 69 -125zM600 1569h371l45 -334h-119l-297 313v21z" />
    <glyph glyph-name="aacute" unicode="&#xe1;" horiz-adv-x="1396" 
d="M1159 195q50 0 162 143l53 -47q-111 -150 -209 -231q-99 -80 -217 -80t-181 56q-62 56 -62 139t51 251q-104 -205 -214 -326q-110 -120 -242 -120t-203 89t-70 244q0 279 204 549q205 270 529 271q92 0 159 -33t105 -76l254 109h84l-82 -285l-133 -541q-6 -27 -11 -49
t-6 -33q0 -30 29 -30zM518 262q70 0 184 195q115 195 199 495q-4 33 -28 59t-60 25q-141 0 -253 -228t-111 -421q-1 -125 69 -125zM1386 1569v-19l-448 -315h-123l174 334h397z" />
    <glyph glyph-name="acircumflex" unicode="&#xe2;" horiz-adv-x="1396" 
d="M1159 195q50 0 162 143l53 -47q-111 -150 -209 -231q-99 -80 -217 -80t-181 56q-62 56 -62 139t51 251q-104 -205 -214 -326q-110 -120 -242 -120t-203 89t-70 244q0 279 204 549q205 270 529 271q92 0 159 -33t105 -76l254 109h84l-82 -285l-133 -541q-6 -27 -11 -49
t-6 -33q0 -30 29 -30zM518 262q70 0 184 195q115 195 199 495q-4 33 -28 59t-60 25q-141 0 -253 -228t-111 -421q-1 -125 69 -125zM1114 1569l168 -346h-127l-213 163l-283 -163h-139l316 346h278z" />
    <glyph glyph-name="atilde" unicode="&#xe3;" horiz-adv-x="1396" 
d="M1159 195q50 0 162 143l53 -47q-111 -150 -209 -231q-99 -80 -217 -80t-181 56q-62 56 -62 139t51 251q-104 -205 -214 -326q-110 -120 -242 -120t-203 89t-70 244q0 279 204 549q205 270 529 271q92 0 159 -33t105 -76l254 109h84l-82 -285l-133 -541q-6 -27 -11 -49
t-6 -33q0 -30 29 -30zM518 262q70 0 184 195q115 195 199 495q-4 33 -28 59t-60 25q-141 0 -253 -228t-111 -421q-1 -125 69 -125zM1027 1233q-93 0 -143 61q-50 62 -104 62t-90 -33q-35 -33 -67 -80l-78 45q63 131 127 208t156 77q94 1 144 -61t104 -62t88 33t67 80l78 -45
q-63 -131 -126 -208t-156 -77z" />
    <glyph glyph-name="adieresis" unicode="&#xe4;" horiz-adv-x="1396" 
d="M1159 195q50 0 162 143l53 -47q-111 -150 -209 -231q-99 -80 -217 -80t-181 56q-62 56 -62 139t51 251q-104 -205 -214 -326q-110 -120 -242 -120t-203 89t-70 244q0 279 204 549q205 270 529 271q92 0 159 -33t105 -76l254 109h84l-82 -285l-133 -541q-6 -27 -11 -49
t-6 -33q0 -30 29 -30zM518 262q70 0 184 195q115 195 199 495q-4 33 -28 59t-60 25q-141 0 -253 -228t-111 -421q-1 -125 69 -125zM1319 1415q-1 -72 -51 -130t-135 -58t-132 51t-47 123t50 129t136 57q85 0 132 -50t47 -122zM891 1415q-1 -72 -51 -130t-135 -58t-133 51
t-48 123t51 129t137 57t132 -50q47 -50 47 -122z" />
    <glyph glyph-name="aring" unicode="&#xe5;" horiz-adv-x="1396" 
d="M1159 195q50 0 162 143l53 -47q-111 -150 -209 -231q-99 -80 -217 -80t-181 56q-62 56 -62 139t51 251q-104 -205 -214 -326q-110 -120 -242 -120t-203 89t-70 244q0 279 204 549q205 270 529 271q92 0 159 -33t105 -76l254 109h84l-82 -285l-133 -541q-6 -27 -11 -49
t-6 -33q0 -30 29 -30zM518 262q70 0 184 195q115 195 199 495q-4 33 -28 59t-60 25q-141 0 -253 -228t-111 -421q-1 -125 69 -125zM702 1393q0 91 64 157t160 66q98 0 156 -57t58 -147t-62 -158q-64 -66 -162 -66t-156 58t-58 147zM921 1300q49 0 75 33t26 76t-26 69t-74 26
t-74 -34q-27 -34 -27 -76t26 -68t74 -26z" />
    <glyph glyph-name="ae" unicode="&#xe6;" horiz-adv-x="1744" 
d="M1473 954q0 93 -64 93q-88 0 -167 -152t-103 -309q168 41 251 140t83 228zM449 387q0 -125 69 -125q39 0 94.5 63.5t112.5 174.5q37 250 219 428q-18 45 -53 78.5t-86 33.5q-135 0 -245.5 -230t-110.5 -423zM294 -20q-126 0 -196.5 89t-70.5 244q0 279 206.5 549.5
t544.5 270.5q94 0 169 -31t120 -78q171 109 356 109t263.5 -72t78.5 -172q0 -168 -177 -252t-458 -123v-31q0 -135 58.5 -203.5t159.5 -68.5q142 0 286 158l49 -47q-222 -342 -561 -342q-166 0 -277.5 102t-125.5 276q-96 -176 -197.5 -277t-227.5 -101z" />
    <glyph glyph-name="ccedilla" unicode="&#xe7;" horiz-adv-x="1005" 
d="M547 -244q0 -117 -123 -175t-291 -58l-18 76q111 0 173 30.5t62 69.5t-40 50t-111 13l112 232q-123 31 -198.5 134t-75.5 263q0 274 204.5 508t510.5 234q121 0 206.5 -48.5t85.5 -158.5q0 -68 -41.5 -115t-107.5 -68h-125q18 117 15 210.5t-66 93.5q-94 0 -178 -198
t-84 -388q0 -258 155 -258q121 0 258 153l48 -47q-88 -154 -216.5 -241.5t-279.5 -87.5h-14q-13 0 -21 2l-31 -60q191 -22 191 -166z" />
    <glyph glyph-name="egrave" unicode="&#xe8;" horiz-adv-x="1064" 
d="M793 954q0 93 -64 93q-88 0 -167 -152t-103 -309q168 41 251 140t83 228zM39 401q0 279 206 505t517 227q166 0 244 -72t79 -172q0 -168 -177 -252t-457 -123v-31q0 -135 58 -203t159 -69q142 0 286 158l50 -47q-222 -342 -562 -342q-174 0 -288 114t-115 307zM461 1569
h370l46 -334h-119l-297 313v21z" />
    <glyph glyph-name="eacute" unicode="&#xe9;" horiz-adv-x="1064" 
d="M793 954q0 93 -64 93q-88 0 -167 -152t-103 -309q168 41 251 140t83 228zM39 401q0 279 206 505t517 227q166 0 244 -72t79 -172q0 -168 -177 -252t-457 -123v-31q0 -135 58 -203t159 -69q142 0 286 158l50 -47q-222 -342 -562 -342q-174 0 -288 114t-115 307zM1227 1569
v-19l-449 -315h-123l174 334h398z" />
    <glyph glyph-name="ecircumflex" unicode="&#xea;" horiz-adv-x="1064" 
d="M793 954q0 93 -64 93q-88 0 -167 -152t-103 -309q168 41 251 140t83 228zM39 401q0 279 206 505t517 227q166 0 244 -72t79 -172q0 -168 -177 -252t-457 -123v-31q0 -135 58 -203t159 -69q142 0 286 158l50 -47q-222 -342 -562 -342q-174 0 -288 114t-115 307zM958 1569
l168 -346h-127l-213 163l-282 -163h-139l315 346h278z" />
    <glyph glyph-name="edieresis" unicode="&#xeb;" horiz-adv-x="1064" 
d="M793 954q0 93 -64 93q-88 0 -167 -152t-103 -309q168 41 251 140t83 228zM39 401q0 279 206 505t517 227q166 0 244 -72t79 -172q0 -168 -177 -252t-457 -123v-31q0 -135 58 -203t159 -69q142 0 286 158l50 -47q-222 -342 -562 -342q-174 0 -288 114t-115 307zM1011 1227
q-85 0 -132 51t-47 123t50 129t135 57t132 -50t47 -122t-50 -130t-135 -58zM583 1227q-85 0 -133 51t-48 123t50 129q52 57 137 57t132 -50t47 -122t-50 -130t-135 -58z" />
    <glyph glyph-name="igrave" unicode="&#xec;" horiz-adv-x="737" 
d="M498 195q49 0 161 143l54 -47q-111 -150 -209 -231q-98 -80 -220 -80t-176 59t-54 128t20 177l139 555l-104 84l14 61l498 89h73l-209 -826q-16 -54 -16 -83t29 -29zM180 1569h371l45 -334h-119l-297 313v21z" />
    <glyph glyph-name="iacute" unicode="&#xed;" horiz-adv-x="737" 
d="M498 195q49 0 161 143l54 -47q-111 -150 -209 -231q-98 -80 -220 -80t-176 59t-54 128t20 177l139 555l-104 84l14 61l498 89h73l-209 -826q-16 -54 -16 -83t29 -29zM1008 1569v-19l-449 -315h-123l174 334h398z" />
    <glyph glyph-name="icircumflex" unicode="&#xee;" horiz-adv-x="737" 
d="M498 195q49 0 161 143l54 -47q-111 -150 -209 -231q-98 -80 -220 -80t-176 59t-54 128t20 177l139 555l-104 84l14 61l498 89h73l-209 -826q-16 -54 -16 -83t29 -29zM719 1569l168 -346h-127l-213 163l-283 -163h-139l315 346h279z" />
    <glyph glyph-name="idieresis" unicode="&#xef;" horiz-adv-x="737" 
d="M498 195q49 0 161 143l54 -47q-111 -150 -209 -231q-98 -80 -220 -80t-176 59t-54 128t20 177l139 555l-104 84l14 61l498 89h73l-209 -826q-16 -54 -16 -83t29 -29zM755 1227q-85 0 -132 51t-47 123t50 129t135 57t132 -50t47 -122t-50 -130t-135 -58zM327 1227
q-85 0 -133 51t-48 123t50 129q52 57 137 57t132 -50t47 -122t-50 -130t-135 -58z" />
    <glyph glyph-name="eth" unicode="&#xf0;" horiz-adv-x="1226" 
d="M436 242q0 -172 62 -172q106 0 199.5 308t93.5 544q0 20 -7 129l-18 2q-145 0 -237.5 -319.5t-92.5 -491.5zM1190 737q0 -354 -211 -555.5t-498 -201.5q-174 0 -309 109.5t-135 320.5q0 287 196.5 505t497.5 218h17q16 0 26 -3q-21 110 -78 191l-395 -121l-27 94l353 109
q-88 84 -238 147l47 64q212 -43 377 -154l283 86l26 -94l-215 -66q152 -137 217.5 -314t65.5 -335z" />
    <glyph glyph-name="ntilde" unicode="&#xf1;" horiz-adv-x="1380" 
d="M864 811q0 37 -35 37q-57 0 -169 -171t-171 -403l-71 -274h-418l225 899l-104 84l14 61l498 89h74l-140 -500q129 260 275 380t291 120q82 -1 128 -49t46 -114t-19 -132l-147 -531q-17 -57 -17 -85q0 -27 29 -27q50 0 162 143l53 -47q-111 -150 -209 -231
q-98 -80 -219 -80t-181 59q-61 59 -61 129t31 178l121 399q14 49 14 66zM1001 1233q-93 0 -143 61q-50 62 -106 62q-54 0 -88 -33t-68 -80l-78 45q62 131 126 208t158 77q94 1 143 -61q51 -62 105 -62t88 33t66 80l78 -45q-64 -131 -126 -208t-155 -77z" />
    <glyph glyph-name="ograve" unicode="&#xf2;" horiz-adv-x="1226" 
d="M1190 696q0 -288 -201 -502t-493 -214q-201 0 -330 114t-129 322q0 287 201 502t493 215q201 0 330 -115t129 -322zM727 1042q-103 0 -197 -307t-94 -524q0 -141 64 -141q102 0 196 307t95 524q0 141 -64 141zM436 1569h371l45 -334h-119l-297 313v21z" />
    <glyph glyph-name="oacute" unicode="&#xf3;" horiz-adv-x="1226" 
d="M1190 696q0 -288 -201 -502t-493 -214q-201 0 -330 114t-129 322q0 287 201 502t493 215q201 0 330 -115t129 -322zM727 1042q-103 0 -197 -307t-94 -524q0 -141 64 -141q102 0 196 307t95 524q0 141 -64 141zM1264 1569v-19l-449 -315h-123l174 334h398z" />
    <glyph glyph-name="ocircumflex" unicode="&#xf4;" horiz-adv-x="1226" 
d="M1190 696q0 -288 -201 -502t-493 -214q-201 0 -330 114t-129 322q0 287 201 502t493 215q201 0 330 -115t129 -322zM727 1042q-103 0 -197 -307t-94 -524q0 -141 64 -141q102 0 196 307t95 524q0 141 -64 141zM975 1569l168 -346h-127l-213 163l-283 -163h-139l315 346
h279z" />
    <glyph glyph-name="otilde" unicode="&#xf5;" horiz-adv-x="1226" 
d="M1190 696q0 -288 -201 -502t-493 -214q-201 0 -330 114t-129 322q0 287 201 502t493 215q201 0 330 -115t129 -322zM727 1042q-103 0 -197 -307t-94 -524q0 -141 64 -141q102 0 196 307t95 524q0 141 -64 141zM900 1233q-93 0 -143 61q-51 62 -105 62t-89 -33t-67 -80
l-78 45q62 131 126 208t157 77q93 1 143 -61t106 -62q54 0 88 33t66 80l78 -45q-63 -131 -126 -208t-156 -77z" />
    <glyph glyph-name="odieresis" unicode="&#xf6;" horiz-adv-x="1226" 
d="M1190 696q0 -288 -201 -502t-493 -214q-201 0 -330 114t-129 322q0 287 201 502t493 215q201 0 330 -115t129 -322zM727 1042q-103 0 -197 -307t-94 -524q0 -141 64 -141q102 0 196 307t95 524q0 141 -64 141zM1011 1227q-85 0 -132 51t-47 123t50 129t135 57t132 -50
t47 -122t-50 -130t-135 -58zM583 1227q-85 0 -133 51t-48 123t50 129q52 57 137 57t132 -50t47 -122t-50 -130t-135 -58z" />
    <glyph glyph-name="divide" unicode="&#xf7;" horiz-adv-x="1179" 
d="M582 1112q0 51 35.5 87t87 36t89 -36t37.5 -87t-37.5 -89t-89 -38t-87 38t-35.5 89zM428 400q0 52 36 89t87 37t89 -37t38 -89t-38 -89t-89 -37t-87 37t-36 89zM160 682l33 147h909l-33 -147h-909z" />
    <glyph glyph-name="oslash" unicode="&#xf8;" horiz-adv-x="1226" 
d="M424 211q0 -141 78 -141t159.5 199.5t118.5 410.5l-356 -420v-49zM727 1042q-82 0 -165 -203.5t-118 -416.5l357 420l2 59q0 141 -76 141zM1190 696q0 -287 -201 -501.5t-493 -214.5q-154 0 -258 61l-103 -123l-74 53l103 123q-127 118 -127 322q0 287 200.5 502
t493.5 215q148 0 262 -64l92 109l74 -54l-94 -110q125 -121 125 -318z" />
    <glyph glyph-name="ugrave" unicode="&#xf9;" horiz-adv-x="1386" 
d="M485 289q0 -37 33 -37q57 0 165 178t165 408l63 254l426 20l-202 -805q-17 -66 -17 -82q0 -30 29 -30q48 0 162 143l53 -47q-111 -150 -209 -231q-99 -80 -217 -80t-181 56t-63 135t51 255q-129 -256 -245 -351t-224 -95q-110 0 -166 63q-89 100 -40 274l145 582l-104 84
l14 61l498 89h73l-192 -760q-17 -62 -17 -84zM502 1569h370l46 -334h-119l-297 313v21z" />
    <glyph glyph-name="uacute" unicode="&#xfa;" horiz-adv-x="1386" 
d="M485 289q0 -37 33 -37q57 0 165 178t165 408l63 254l426 20l-202 -805q-17 -66 -17 -82q0 -30 29 -30q48 0 162 143l53 -47q-111 -150 -209 -231q-99 -80 -217 -80t-181 56t-63 135t51 255q-129 -256 -245 -351t-224 -95q-110 0 -166 63q-89 100 -40 274l145 582l-104 84
l14 61l498 89h73l-192 -760q-17 -62 -17 -84zM1329 1569v-19l-448 -315h-123l174 334h397z" />
    <glyph glyph-name="ucircumflex" unicode="&#xfb;" horiz-adv-x="1386" 
d="M485 289q0 -37 33 -37q57 0 165 178t165 408l63 254l426 20l-202 -805q-17 -66 -17 -82q0 -30 29 -30q48 0 162 143l53 -47q-111 -150 -209 -231q-99 -80 -217 -80t-181 56t-63 135t51 255q-129 -256 -245 -351t-224 -95q-110 0 -166 63q-89 100 -40 274l145 582l-104 84
l14 61l498 89h73l-192 -760q-17 -62 -17 -84zM1040 1569l168 -346h-127l-213 163l-282 -163h-140l316 346h278z" />
    <glyph glyph-name="udieresis" unicode="&#xfc;" horiz-adv-x="1386" 
d="M485 289q0 -37 33 -37q57 0 165 178t165 408l63 254l426 20l-202 -805q-17 -66 -17 -82q0 -30 29 -30q48 0 162 143l53 -47q-111 -150 -209 -231q-99 -80 -217 -80t-181 56t-63 135t51 255q-129 -256 -245 -351t-224 -95q-110 0 -166 63q-89 100 -40 274l145 582l-104 84
l14 61l498 89h73l-192 -760q-17 -62 -17 -84zM1076 1227q-85 0 -132 51t-47 123t50 129t135 57t132 -50q48 -50 48 -122t-50 -130t-136 -58zM648 1227q-85 0 -133 51t-48 123t51 129t136 57t132 -50q48 -50 48 -122t-50 -130t-136 -58z" />
    <glyph glyph-name="yacute" unicode="&#xfd;" horiz-adv-x="1126" 
d="M-14 -72q0 -219 157 -221q111 0 236 123l-240 1085l-112 80l16 54l440 84h43l179 -902q109 149 147 259t37 234q0 124 -67 174t-148 50l4 33q35 59 99 105q65 46 163 46t152 -67q55 -68 55 -166q0 -166 -131 -369q-132 -204 -330 -456t-356 -392t-332 -141q-94 0 -161 48
q-67 47 -67 131t50 136q49 52 125 72h41zM1225 1569v-19l-449 -315h-123l174 334h398z" />
    <glyph glyph-name="thorn" unicode="&#xfe;" horiz-adv-x="1339" 
d="M606 -20q-148 0 -200 90l-87 -326q-2 -10 -4 -19.5t-2 -15.5q0 -33 37 -43t111 -14l-17 -86h-682l17 86q57 4 83.5 16.5t37.5 57.5l417 1660l-98 56l14 69l478 93h71l-256 -986q94 193 232.5 354t306.5 161q238 0 238 -325t-211 -576.5t-486 -251.5zM868 748
q0 106 -55 106q-84 0 -216 -230.5t-171 -441.5q10 -39 39 -61.5t63 -22.5q133 0 236.5 233.5t103.5 416.5z" />
    <glyph glyph-name="ydieresis" unicode="&#xff;" horiz-adv-x="1126" 
d="M-14 -72q0 -219 157 -221q111 0 236 123l-240 1085l-112 80l16 54l440 84h43l179 -902q109 149 147 259t37 234q0 124 -67 174t-148 50l4 33q35 59 99 105q65 46 163 46t152 -67q55 -68 55 -166q0 -166 -131 -369q-132 -204 -330 -456t-356 -392t-332 -141q-94 0 -161 48
q-67 47 -67 131t50 136q49 52 125 72h41zM972 1227q-85 0 -132 51t-47 123t50 129t135 57t132 -50t47 -122t-50 -130t-135 -58zM544 1227q-85 0 -133 51q-49 51 -49 123t52 129t136 57q85 0 132 -50t47 -122t-50 -130t-135 -58z" />
    <glyph glyph-name="Amacron" unicode="&#x100;" horiz-adv-x="1546" 
d="M727 1098l-317 -547h415zM209 166q0 -35 36 -51t111 -23l-20 -92h-449l21 92q43 4 76 20t57 56l647 1092l-33 178h463l232 -1270q8 -39 36 -53t70 -23l-20 -92h-754l20 92q80 2 131 24q50 22 50 81q0 32 -6 67l-31 168h-506l-96 -168q-35 -63 -35 -98zM604 1528l43 194
h602l-43 -194h-602z" />
    <glyph glyph-name="amacron" unicode="&#x101;" horiz-adv-x="1396" 
d="M1159 195q50 0 162 143l53 -47q-111 -150 -209 -231q-99 -80 -217 -80t-181 56q-62 56 -62 139t51 251q-104 -205 -214 -326q-110 -120 -242 -120t-203 89t-70 244q0 279 204 549q205 270 529 271q92 0 159 -33t105 -76l254 109h84l-82 -285l-133 -541q-6 -27 -11 -49
t-6 -33q0 -30 29 -30zM518 262q70 0 184 195q115 195 199 495q-4 33 -28 59t-60 25q-141 0 -253 -228t-111 -421q-1 -125 69 -125zM635 1280l43 195h602l-43 -195h-602z" />
    <glyph glyph-name="Abreve" unicode="&#x102;" horiz-adv-x="1546" 
d="M727 1098l-317 -547h415zM209 166q0 -35 36 -51t111 -23l-20 -92h-449l21 92q43 4 76 20t57 56l647 1092l-33 178h463l232 -1270q8 -39 36 -53t70 -23l-20 -92h-754l20 92q80 2 131 24q50 22 50 81q0 32 -6 67l-31 168h-506l-96 -168q-35 -63 -35 -98zM907 1511
q-137 0 -206 79t-29 241h98q-2 -77 47 -101t125 -24t138 25t96 100h106q-38 -162 -138 -241t-237 -79z" />
    <glyph glyph-name="abreve" unicode="&#x103;" horiz-adv-x="1396" 
d="M1159 195q50 0 162 143l53 -47q-111 -150 -209 -231q-99 -80 -217 -80t-181 56q-62 56 -62 139t51 251q-104 -205 -214 -326q-110 -120 -242 -120t-203 89t-70 244q0 279 204 549q205 270 529 271q92 0 159 -33t105 -76l254 109h84l-82 -285l-133 -541q-6 -27 -11 -49
t-6 -33q0 -30 29 -30zM518 262q70 0 184 195q115 195 199 495q-4 33 -28 59t-60 25q-141 0 -253 -228t-111 -421q-1 -125 69 -125zM922 1225q-147 0 -207 93q-59 93 -21 255h103q-8 -82 42 -113t126 -30q181 0 237 143h103q-39 -162 -137 -255t-246 -93z" />
    <glyph glyph-name="Aogonek" unicode="&#x104;" horiz-adv-x="1546" 
d="M727 1098l-317 -547h415zM762 0q-148 -91 -148 -189t80 -98q62 0 140 56l26 -48q-147 -163 -311 -163q-74 0 -125 40t-51 121q0 113 83.5 190t203.5 130t171.5 79.5t51.5 68.5t-6 77l-31 168h-506l-96 -168q-35 -62 -35 -98q0 -35 36 -51.5t111 -22.5l-20 -92h-449l21 92
q43 4 75.5 19.5t57.5 56.5l647 1092l-33 178h463l232 -1270q8 -39 35.5 -53.5t70.5 -22.5l-20 -92h-674z" />
    <glyph glyph-name="aogonek" unicode="&#x105;" horiz-adv-x="1396" 
d="M449 387q-1 -125 69 -125t184.5 194.5t198.5 495.5q-4 33 -27.5 58.5t-60.5 25.5q-141 0 -252.5 -228t-111.5 -421zM1159 195q50 0 162 143l53 -47q-141 -188 -273 -291.5t-132 -202.5q0 -33 20.5 -58.5t71.5 -25.5t127 56l26 -48q-147 -163 -311 -163q-74 0 -125 38.5
t-51 119.5q0 143 205 264q-104 2 -165.5 57t-61.5 138t51 251q-104 -205 -214 -325.5t-242 -120.5t-202.5 89t-70.5 244q0 279 204.5 549.5t528.5 270.5q92 0 158.5 -33t105.5 -76l254 109h84l-82 -285l-133 -541q-6 -27 -11.5 -48t-5.5 -34q0 -30 29 -30z" />
    <glyph glyph-name="Cacute" unicode="&#x106;" horiz-adv-x="1421" 
d="M74 584q0 382 270 628t666 246q135 0 259 -37t193 -90l-69 -364h-103q-8 180 -68 284t-194 105q-250 0 -374 -314t-124 -563q0 -385 232 -387q255 0 471 443h125l-127 -424q-215 -133 -510 -132t-471 169t-176 436zM1554 1823v-19l-448 -286h-123l174 305h397z" />
    <glyph glyph-name="cacute" unicode="&#x107;" horiz-adv-x="1005" 
d="M457 461q0 -260 155 -258q60 0 120 34t138 119l48 -47q-88 -153 -216 -241t-290 -88q-160 0 -268 110t-107 301q0 273 205 507t510 235q120 -1 206 -49t86 -158q0 -68 -42 -115t-107 -68h-125q18 117 15 211t-66 93q-94 0 -178 -198t-84 -388zM1282 1569v-19l-448 -315
h-123l174 334h397z" />
    <glyph glyph-name="Ccircumflex" unicode="&#x108;" horiz-adv-x="1421" 
d="M74 584q0 382 270 628t666 246q135 0 259 -37t193 -90l-69 -364h-103q-8 180 -68 284t-194 105q-250 0 -374 -314t-124 -563q0 -385 232 -387q255 0 471 443h125l-127 -424q-215 -133 -510 -132t-471 169t-176 436zM1243 1829l168 -311h-127l-213 133l-283 -133h-139
l316 311h278z" />
    <glyph glyph-name="ccircumflex" unicode="&#x109;" horiz-adv-x="1005" 
d="M457 461q0 -260 155 -258q60 0 120 34t138 119l48 -47q-88 -153 -216 -241t-290 -88q-160 0 -268 110t-107 301q0 273 205 507t510 235q120 -1 206 -49t86 -158q0 -68 -42 -115t-107 -68h-125q18 117 15 211t-66 93q-94 0 -178 -198t-84 -388zM993 1569l168 -346h-127
l-213 163l-282 -163h-140l316 346h278z" />
    <glyph glyph-name="Cdotaccent" unicode="&#x10a;" horiz-adv-x="1421" 
d="M74 584q0 382 270 628t666 246q135 0 259 -37t193 -90l-69 -364h-103q-8 180 -68 284t-194 105q-250 0 -374 -314t-124 -563q0 -385 232 -387q255 0 471 443h125l-127 -424q-215 -133 -510 -132t-471 169t-176 436zM1288 1709q0 -77 -56 -139t-153 -61q-96 1 -148 55
t-52 131t56 137q55 60 151 60t149 -53t53 -130z" />
    <glyph glyph-name="cdotaccent" unicode="&#x10b;" horiz-adv-x="1005" 
d="M457 461q0 -260 155 -258q60 0 120 34t138 119l48 -47q-88 -153 -216 -241t-290 -88q-160 0 -268 110t-107 301q0 273 205 507t510 235q120 -1 206 -49t86 -158q0 -68 -42 -115t-107 -68h-125q18 117 15 211t-66 93q-94 0 -178 -198t-84 -388zM820 1599q94 0 148 -53
t54 -130t-56 -138t-153 -61q-96 0 -148 54q-53 54 -53 131t56 137t152 60z" />
    <glyph glyph-name="Ccaron" unicode="&#x10c;" horiz-adv-x="1421" 
d="M74 584q0 382 270 628t666 246q135 0 259 -37t193 -90l-69 -364h-103q-8 180 -68 284t-194 105q-250 0 -374 -314t-124 -563q0 -385 232 -387q255 0 471 443h125l-127 -424q-215 -133 -510 -132t-471 169t-176 436zM909 1520l-168 311h127l213 -133l283 133h139
l-315 -311h-279z" />
    <glyph glyph-name="ccaron" unicode="&#x10d;" horiz-adv-x="1005" 
d="M457 461q0 -260 155 -258q60 0 120 34t138 119l48 -47q-88 -153 -216 -241t-290 -88q-160 0 -268 110t-107 301q0 273 205 507t510 235q120 -1 206 -49t86 -158q0 -68 -42 -115t-107 -68h-125q18 117 15 211t-66 93q-94 0 -178 -198t-84 -388zM649 1233l-168 346h127
l213 -164l283 164h139l-315 -346h-279z" />
    <glyph glyph-name="Dcaron" unicode="&#x10e;" horiz-adv-x="1624" 
d="M666 0h-715l20 92q102 10 128 35t42 102l209 979q16 78 1 103t-113 35l20 92h660q300 0 506 -146t206 -434q0 -389 -284 -624q-285 -234 -680 -234zM676 102h12q203 0 345 278t143 554q0 203 -75 302t-255 99h-23l-231 -1089q-20 -90 0 -117t84 -27zM825 1520l-168 311
h127l213 -133l283 133h139l-315 -311h-279z" />
    <glyph glyph-name="dcaron" unicode="&#x10f;" horiz-adv-x="1402" 
d="M1143 225q0 -30 28 -30q50 0 162 143l53 -47q-110 -150 -208 -231q-98 -80 -217 -80t-182 56q-62 56 -62 142t49 248q-104 -205 -219 -326q-115 -120 -247 -120t-203 89t-70 244q0 279 203 549q204 270 522 271q110 0 186 -39l68 292l-99 56l15 69l477 93h71l-311 -1297
q-6 -27 -11 -49t-5 -33zM518 262q70 0 184 195q115 195 199 495q-4 33 -28 59t-60 25q-141 0 -253 -228t-111 -421q-1 -125 69 -125zM1894 1579l-327 -395h-97l113 420h318z" />
    <glyph glyph-name="Dcroat" unicode="&#x110;" horiz-adv-x="1624" 
d="M676 102h12q203 0 345 278t143 554q0 203 -75 302t-255 99h-23l-114 -540h229l-29 -140h-231l-86 -409q-20 -90 0 -117t84 -27zM918 1438q300 0 506 -146t206 -434q0 -389 -284 -624q-285 -234 -680 -234h-715l20 92q102 10 128 35t42 102l90 426h-129l29 140h131l88 413
q16 78 1 103t-113 35l20 92h660z" />
    <glyph glyph-name="Emacron" unicode="&#x112;" horiz-adv-x="1380" 
d="M881 803q73 0 107 42t69 148h96l-109 -504h-96q10 107 -6 149t-88 42h-170l-94 -440q-18 -82 16 -110t113 -28h45q143 0 222 76t239 287h102l-166 -465h-1210l20 92q102 10 128 35t42 102l209 979q16 78 1 103t-113 35l20 92h1198l-78 -408h-80q-39 172 -81 239
q-43 67 -191 66h-203l-112 -532h170zM623 1528l43 194h602l-43 -194h-602z" />
    <glyph glyph-name="emacron" unicode="&#x113;" horiz-adv-x="1064" 
d="M793 954q0 93 -64 93q-88 0 -167 -152t-103 -309q168 41 251 140t83 228zM39 401q0 279 206 505t517 227q166 0 244 -72t79 -172q0 -168 -177 -252t-457 -123v-31q0 -135 58 -203t159 -69q142 0 286 158l50 -47q-222 -342 -562 -342q-174 0 -288 114t-115 307zM496 1280
l43 195h602l-43 -195h-602z" />
    <glyph glyph-name="Ebreve" unicode="&#x114;" horiz-adv-x="1380" 
d="M881 803q73 0 107 42t69 148h96l-109 -504h-96q10 107 -6 149t-88 42h-170l-94 -440q-18 -82 16 -110t113 -28h45q143 0 222 76t239 287h102l-166 -465h-1210l20 92q102 10 128 35t42 102l209 979q16 78 1 103t-113 35l20 92h1198l-78 -408h-80q-39 172 -81 239
q-43 67 -191 66h-203l-112 -532h170zM928 1511q-137 0 -206 79t-30 241h99q-2 -77 47 -101t125 -24t138 25t95 100h107q-39 -162 -139 -241t-236 -79z" />
    <glyph glyph-name="ebreve" unicode="&#x115;" horiz-adv-x="1064" 
d="M793 954q0 93 -64 93q-88 0 -167 -152t-103 -309q168 41 251 140t83 228zM39 401q0 279 206 505t517 227q166 0 244 -72t79 -172q0 -168 -177 -252t-457 -123v-31q0 -135 58 -203t159 -69q142 0 286 158l50 -47q-222 -342 -562 -342q-174 0 -288 114t-115 307zM782 1225
q-147 0 -207 93q-59 93 -20 255h102q-8 -82 42 -113t126 -30q182 0 238 143h102q-39 -162 -137 -255t-246 -93z" />
    <glyph glyph-name="Edotaccent" unicode="&#x116;" horiz-adv-x="1380" 
d="M881 803q73 0 107 42t69 148h96l-109 -504h-96q10 107 -6 149t-88 42h-170l-94 -440q-18 -82 16 -110t113 -28h45q143 0 222 76t239 287h102l-166 -465h-1210l20 92q102 10 128 35t42 102l209 979q16 78 1 103t-113 35l20 92h1198l-78 -408h-80q-39 172 -81 239
q-43 67 -191 66h-203l-112 -532h170zM1165 1709q-1 -77 -57 -139t-152 -61t-148 55t-52 131t56 137t152 60t148 -53q53 -53 53 -130z" />
    <glyph glyph-name="edotaccent" unicode="&#x117;" horiz-adv-x="1064" 
d="M793 954q0 93 -64 93q-88 0 -167 -152t-103 -309q168 41 251 140t83 228zM39 401q0 279 206 505t517 227q166 0 244 -72t79 -172q0 -168 -177 -252t-457 -123v-31q0 -135 58 -203t159 -69q142 0 286 158l50 -47q-222 -342 -562 -342q-174 0 -288 114t-115 307zM826 1599
q94 0 148 -53t54 -130t-56 -138t-153 -61q-96 0 -148 54q-53 54 -53 131t56 137t152 60z" />
    <glyph glyph-name="Eogonek" unicode="&#x118;" horiz-adv-x="1380" 
d="M842 -203q0 -33 20.5 -58.5t71.5 -25.5t127 56l26 -48q-147 -163 -311 -163q-74 0 -125 38.5t-51 112.5q0 169 242 291h-891l20 92q102 10 128 35t42 102l209 979q16 78 1 102.5t-113 35.5l20 92h1198l-78 -408h-80q-39 172 -81.5 238.5t-190.5 66.5h-203l-112 -532h170
q72 0 106.5 42t69.5 148h96l-109 -504h-96q10 106 -6 148.5t-88 42.5h-170l-94 -440q-18 -82 15.5 -110t113.5 -28h45q143 0 222 76t239 287h102l-166 -465h-188q-131 -95 -131 -203z" />
    <glyph glyph-name="eogonek" unicode="&#x119;" horiz-adv-x="1064" 
d="M793 954q0 93 -64 93q-88 0 -167 -152t-103 -309q168 41 251 140t83 228zM449 -442q-74 0 -125.5 38.5t-51.5 120.5q0 144 209 265q-174 0 -308 113.5t-134 305.5q0 279 206 505.5t517 226.5q166 0 244.5 -72t78.5 -172q0 -168 -177 -252t-457 -123v-31
q0 -135 60.5 -205.5t148.5 -70.5t156.5 39t144.5 119l45 -43q-126 -189 -328 -295q-82 -45 -123 -106t-41 -109q0 -100 80 -99q63 0 139 56l27 -48q-147 -163 -311 -163z" />
    <glyph glyph-name="Ecaron" unicode="&#x11a;" horiz-adv-x="1380" 
d="M881 803q73 0 107 42t69 148h96l-109 -504h-96q10 107 -6 149t-88 42h-170l-94 -440q-18 -82 16 -110t113 -28h45q143 0 222 76t239 287h102l-166 -465h-1210l20 92q102 10 128 35t42 102l209 979q16 78 1 103t-113 35l20 92h1198l-78 -408h-80q-39 172 -81 239
q-43 67 -191 66h-203l-112 -532h170zM786 1520l-168 311h127l213 -133l283 133h139l-315 -311h-279z" />
    <glyph glyph-name="ecaron" unicode="&#x11b;" horiz-adv-x="1064" 
d="M793 954q0 93 -64 93q-88 0 -167 -152t-103 -309q168 41 251 140t83 228zM39 401q0 279 206 505t517 227q166 0 244 -72t79 -172q0 -168 -177 -252t-457 -123v-31q0 -135 58 -203t159 -69q142 0 286 158l50 -47q-222 -342 -562 -342q-174 0 -288 114t-115 307zM621 1233
l-168 346h127l213 -164l282 164h139l-315 -346h-278z" />
    <glyph glyph-name="Gcircumflex" unicode="&#x11c;" horiz-adv-x="1542" 
d="M791 92q46 0 88 10l75 353q16 79 1 103t-113 34l20 92h701l-21 -92q-100 -10 -125 -35t-41 -102l-73 -340q-243 -137 -550 -136q-306 1 -493 167q-186 167 -186 434q0 382 280 630t676 248q135 0 259 -37t194 -90l-70 -364h-102q-9 180 -69 284t-193 105
q-250 0 -384 -316t-135 -565q0 -183 71 -283t190 -100zM1276 1829l168 -311h-127l-213 133l-283 -133h-139l315 311h279z" />
    <glyph glyph-name="gcircumflex" unicode="&#x11d;" horiz-adv-x="1130" 
d="M463 618q0 -150 55 -149q68 0 127 137q60 136 60 286t-56 150q-68 0 -127 -137t-59 -287zM61 -176q0 -82 87 -131q88 -49 222 -49t219 30t85 88q0 32 -27 46t-78 26l-426 105q-82 -33 -82 -115zM1085 805q0 -199 -177 -311t-410 -111q-108 0 -191 29q-33 -25 -34 -53
q-1 -27 15 -37t36 -15l389 -82q155 -29 239 -91t84 -175q0 -195 -196 -307t-475 -111q-207 0 -377 71t-170 210q0 94 96 133t182 37q-78 63 -79 166q-1 102 64 171t165 111q-162 87 -162 279t175 303t411 111q92 0 182 -35l401 12l-49 -152h-90l-92 17q63 -79 63 -170z
M948 1569l168 -346h-127l-213 163l-282 -163h-140l316 346h278z" />
    <glyph glyph-name="Gbreve" unicode="&#x11e;" horiz-adv-x="1542" 
d="M791 92q46 0 88 10l75 353q16 79 1 103t-113 34l20 92h701l-21 -92q-100 -10 -125 -35t-41 -102l-73 -340q-243 -137 -550 -136q-306 1 -493 167q-186 167 -186 434q0 382 280 630t676 248q135 0 259 -37t194 -90l-70 -364h-102q-9 180 -69 284t-193 105
q-250 0 -384 -316t-135 -565q0 -183 71 -283t190 -100zM1083 1511q-137 0 -205 79t-30 241h98q-2 -77 47 -101t125 -24t138 25t96 100h106q-38 -162 -138 -241t-237 -79z" />
    <glyph glyph-name="gbreve" unicode="&#x11f;" horiz-adv-x="1130" 
d="M463 618q0 -150 55 -149q68 0 127 137q60 136 60 286t-56 150q-68 0 -127 -137t-59 -287zM61 -176q0 -82 87 -131q88 -49 222 -49t219 30t85 88q0 32 -27 46t-78 26l-426 105q-82 -33 -82 -115zM1085 805q0 -199 -177 -311t-410 -111q-108 0 -191 29q-33 -25 -34 -53
q-1 -27 15 -37t36 -15l389 -82q155 -29 239 -91t84 -175q0 -195 -196 -307t-475 -111q-207 0 -377 71t-170 210q0 94 96 133t182 37q-78 63 -79 166q-1 102 64 171t165 111q-162 87 -162 279t175 303t411 111q92 0 182 -35l401 12l-49 -152h-90l-92 17q63 -79 63 -170z
M733 1225q-147 0 -207 93q-59 93 -20 255h102q-8 -82 42 -113t126 -30q180 0 238 143h102q-40 -162 -138 -255t-245 -93z" />
    <glyph glyph-name="Gdotaccent" unicode="&#x120;" horiz-adv-x="1542" 
d="M791 92q46 0 88 10l75 353q16 79 1 103t-113 34l20 92h701l-21 -92q-100 -10 -125 -35t-41 -102l-73 -340q-243 -137 -550 -136q-306 1 -493 167q-186 167 -186 434q0 382 280 630t676 248q135 0 259 -37t194 -90l-70 -364h-102q-9 180 -69 284t-193 105
q-250 0 -384 -316t-135 -565q0 -183 71 -283t190 -100zM1112 1509q-96 1 -148 55t-52 131t56 137t151 60t149 -53t53 -130t-57 -139t-152 -61z" />
    <glyph glyph-name="gdotaccent" unicode="&#x121;" horiz-adv-x="1130" 
d="M463 618q0 -150 55 -149q68 0 127 137q60 136 60 286t-56 150q-68 0 -127 -137t-59 -287zM61 -176q0 -82 87 -131q88 -49 222 -49t219 30t85 88q0 32 -27 46t-78 26l-426 105q-82 -33 -82 -115zM1085 805q0 -199 -177 -311t-410 -111q-108 0 -191 29q-33 -25 -34 -53
q-1 -27 15 -37t36 -15l389 -82q155 -29 239 -91t84 -175q0 -195 -196 -307t-475 -111q-207 0 -377 71t-170 210q0 94 96 133t182 37q-78 63 -79 166q-1 102 64 171t165 111q-162 87 -162 279t175 303t411 111q92 0 182 -35l401 12l-49 -152h-90l-92 17q63 -79 63 -170z
M777 1599q95 0 149 -53t53 -130t-57 -138t-152 -61t-148 54t-52 131t56 137t151 60z" />
    <glyph glyph-name="Gcommaaccent" unicode="&#x122;" horiz-adv-x="1542" 
d="M791 92q46 0 88 10l75 353q16 79 1 103t-113 34l20 92h701l-21 -92q-100 -10 -125 -35t-41 -102l-73 -340q-243 -137 -550 -136q-306 1 -493 167q-186 167 -186 434q0 382 280 630t676 248q135 0 259 -37t194 -90l-70 -364h-102q-9 180 -69 284t-193 105
q-250 0 -384 -316t-135 -565q0 -183 71 -283t190 -100zM518 -230q0 72 49 118t139 46t135 -48q46 -48 46 -122q0 -116 -88 -196t-301 -80v82q102 0 162 32t67 74h-125q-84 22 -84 94z" />
    <glyph glyph-name="gcommaaccent" unicode="&#x123;" horiz-adv-x="1130" 
d="M463 618q0 -150 55 -149q68 0 127 137q60 136 60 286t-56 150q-68 0 -127 -137t-59 -287zM61 -176q0 -82 87 -131q88 -49 222 -49t219 30t85 88q0 32 -27 46t-78 26l-426 105q-82 -33 -82 -115zM1085 805q0 -199 -177 -311t-410 -111q-108 0 -191 29q-33 -25 -34 -53
q-1 -27 15 -37t36 -15l389 -82q155 -29 239 -91t84 -175q0 -195 -196 -307t-475 -111q-207 0 -377 71t-170 210q0 94 96 133t182 37q-78 63 -79 166q-1 102 64 171t165 111q-162 87 -162 279t175 303t411 111q92 0 182 -35l401 12l-49 -152h-90l-92 17q63 -79 63 -170z
M767 1206q-89 0 -135 48t-46 122q0 115 88 196t301 81v-82q-102 0 -162 -33t-68 -74h125q86 -22 84 -102q0 -64 -49 -110t-138 -46z" />
    <glyph glyph-name="Hcircumflex" unicode="&#x124;" horiz-adv-x="1767" 
d="M141 229l209 979q16 78 1 103t-113 35l20 92h731l-20 -92q-100 -10 -127 -35t-43 -103l-88 -413h473l88 413q16 78 1 103t-114 35l21 92h731l-21 -92q-100 -10 -127 -35t-43 -103l-209 -979q-16 -79 -1 -103t114 -34l-20 -92h-732l21 92q100 10 127 35t43 102l92 426
h-473l-92 -426q-16 -79 -1 -103t113 -34l-20 -92h-731l20 92q100 10 127 34t43 103zM1298 1829l168 -311h-127l-213 133l-282 -133h-139l315 311h278z" />
    <glyph glyph-name="hcircumflex" unicode="&#x125;" horiz-adv-x="1370" 
d="M854 811q0 37 -35 37q-57 0 -169 -171t-171 -403l-71 -274h-418l340 1386l-99 56l15 69l477 93h72l-234 -969q129 260 273 379t288 119q82 -1 128 -49t46 -113t-18 -133l-148 -531q-16 -54 -16 -83t29 -29q48 0 162 143l53 -47q-111 -150 -209 -231q-98 -80 -219 -80
t-181 59q-61 59 -61 132t31 175l121 399q14 49 14 66zM1155 1935l168 -311h-127l-213 133l-283 -133h-139l316 311h278z" />
    <glyph glyph-name="Hbar" unicode="&#x126;" horiz-adv-x="1767" 
d="M711 795h473l43 202h-473zM172 997l29 140h133l16 71q16 78 1 102.5t-113 35.5l20 92h731l-20 -92q-100 -10 -127 -35t-43 -103l-17 -71h473l17 71q16 78 0.5 102.5t-113.5 35.5l21 92h731l-21 -92q-100 -10 -126.5 -35t-43.5 -103l-16 -71h145l-28 -140h-146l-164 -768
q-16 -78 -0.5 -102.5t113.5 -34.5l-20 -92h-732l21 92q100 10 127 35t43 102l92 426h-473l-92 -426q-16 -78 -1 -102.5t113 -34.5l-20 -92h-731l20 92q100 10 127 35t43 102l164 768h-133z" />
    <glyph glyph-name="hbar" unicode="&#x127;" horiz-adv-x="1380" 
d="M864 811q0 37 -35 37q-57 0 -168.5 -171t-171.5 -403l-71 -274h-418l295 1202h-113l25 115h115l18 69l-98 56l14 69l477 93h72l-70 -287h244l-25 -115h-245l-138 -567q129 260 273.5 379t288.5 119q82 0 128 -48.5t46 -130.5q0 -42 -19 -116l-147 -531q-17 -57 -17 -85
q0 -27 29 -27q50 0 162 143l53 -47q-111 -150 -209 -230.5t-219 -80.5t-181.5 59t-60.5 129t31 178l121 399q14 49 14 66z" />
    <glyph glyph-name="Itilde" unicode="&#x128;" horiz-adv-x="845" 
d="M141 229l209 979q16 78 1 103t-113 35l20 92h731l-20 -92q-100 -10 -127 -35t-43 -103l-209 -979q-16 -79 0 -103t112 -34l-20 -92h-731l20 92q102 10 128 34t42 103zM790 1518q-94 0 -144 61t-104 61t-90 -32q-34 -32 -67 -80l-78 45q63 131 127 208t156 77
q94 0 144 -62t104 -61t89 33q34 32 66 79l78 -45q-63 -132 -125 -208t-156 -76z" />
    <glyph glyph-name="itilde" unicode="&#x129;" horiz-adv-x="737" 
d="M498 195q49 0 161 143l54 -47q-111 -150 -209 -230.5t-220 -80.5t-176.5 59t-54.5 128t21 177l139 555l-104 84l14 61l498 89h73l-209 -826q-16 -54 -16 -83t29 -29zM632 1233q-89 0 -128.5 61.5t-91.5 61.5t-85.5 -33t-66.5 -80l-76 45q63 131 125 208t151 77t128 -61.5
t91 -61.5t85 33t65 80l76 -45q-61 -131 -122.5 -208t-150.5 -77z" />
    <glyph glyph-name="Imacron" unicode="&#x12a;" horiz-adv-x="845" 
d="M141 229l209 979q16 78 1 103t-113 35l20 92h731l-20 -92q-100 -10 -127 -35t-43 -103l-209 -979q-16 -79 0 -103t112 -34l-20 -92h-731l20 92q102 10 128 34t42 103zM340 1528l43 194h602l-43 -194h-602z" />
    <glyph glyph-name="imacron" unicode="&#x12b;" horiz-adv-x="737" 
d="M498 195q49 0 161 143l54 -47q-111 -150 -209 -230.5t-220 -80.5t-176.5 59t-54.5 128t21 177l139 555l-104 84l14 61l498 89h73l-209 -826q-16 -54 -16 -83t29 -29zM236 1280l43 195h561l-43 -195h-561z" />
    <glyph glyph-name="Ibreve" unicode="&#x12c;" horiz-adv-x="845" 
d="M141 229l209 979q16 78 1 103t-113 35l20 92h731l-20 -92q-100 -10 -127 -35t-43 -103l-209 -979q-16 -79 0 -103t112 -34l-20 -92h-731l20 92q102 10 128 34t42 103zM645 1511q-137 0 -206 79t-29 241h98q-2 -77 47 -101t125 -24t138 25t95 100h107q-38 -162 -138 -241
t-237 -79z" />
    <glyph glyph-name="ibreve" unicode="&#x12d;" horiz-adv-x="737" 
d="M498 195q49 0 161 143l54 -47q-111 -150 -209 -231q-98 -80 -220 -80t-176 59t-54 128t20 177l139 555l-104 84l14 61l498 89h73l-209 -826q-16 -54 -16 -83t29 -29zM502 1225q-147 0 -207 93q-59 93 -21 255h103q-8 -82 42 -113t126 -30q181 0 237 143h103
q-39 -162 -137 -255t-246 -93z" />
    <glyph glyph-name="Iogonek" unicode="&#x12e;" horiz-adv-x="845" 
d="M276 -203q0 -33 20.5 -58.5t71.5 -25.5t128 56l26 -48q-147 -163 -311 -163q-74 0 -125 38.5t-51 112.5q0 168 241 291h-325l20 92q102 10 128 34.5t42 102.5l209 979q16 78 1 102.5t-113 35.5l20 92h731l-20 -92q-100 -10 -127 -35t-43 -103l-209 -979q-16 -78 0 -102.5
t112 -34.5l-20 -92h-274q-132 -96 -132 -203z" />
    <glyph glyph-name="iogonek" unicode="&#x12f;" horiz-adv-x="737" 
d="M242 -442q-74 0 -125 38.5t-51 119.5q0 143 204 264q-104 2 -160.5 54t-56.5 140t21 170l139 555l-104 84l14 61l498 89h73l-209 -826q-16 -54 -16 -83t29 -29q49 0 161 143l54 -47q-141 -188 -273.5 -291.5t-132.5 -202.5q0 -33 20.5 -58.5t71.5 -25.5t127 56l27 -48
q-147 -163 -311 -163zM536 1204q-102 0 -158 58.5t-56 140.5t60 146.5t162 64.5t159 -56.5t57 -139.5t-61 -148.5t-163 -65.5z" />
    <glyph glyph-name="dotlessi" unicode="&#x131;" horiz-adv-x="737" 
d="M498 195q49 0 161 143l54 -47q-111 -150 -209 -230.5t-220 -80.5t-176.5 59t-54.5 128t21 177l139 555l-104 84l14 61l498 89h73l-209 -826q-16 -54 -16 -83t29 -29z" />
    <glyph glyph-name="Jcircumflex" unicode="&#x134;" horiz-adv-x="1245" 
d="M389 492q-67 -169 -67 -266q0 -152 100 -152q76 0 108 76t58 194l184 864q16 78 1 103t-114 35l21 92h731l-20 -92q-100 -10 -127 -35t-43 -103l-166 -770q-55 -256 -217 -357t-437 -101q-207 0 -331 76t-123 198q0 160 168 238h274zM1264 1829l168 -311h-127l-213 133
l-283 -133h-139l315 311h279z" />
    <glyph glyph-name="jcircumflex" unicode="&#x135;" horiz-adv-x="671" 
d="M692 1569l168 -346h-127l-213 163l-282 -163h-140l316 346h278zM-172 -459q-125 0 -208 47t-83 129t51.5 125t120.5 49h78q-6 -115 3 -187.5t54 -72.5q51 0 79 100.5t73 286.5l217 881l-104 84l14 61l498 89h73l-237 -940q-84 -330 -237.5 -491t-391.5 -161z" />
    <glyph glyph-name="Kcommaaccent" unicode="&#x136;" horiz-adv-x="1591" 
d="M799 1208l-209 -979q-16 -79 0 -103t112 -34l-20 -92h-731l20 92q102 10 128 35t42 102l209 979q16 78 1 103t-113 35l20 92h731l-20 -92q-100 -10 -127 -35t-43 -103zM1356 1285q0 34 -24 46t-101 15l20 92h504l-20 -92q-63 -4 -101 -18t-84 -54l-444 -400l264 -653
q22 -53 50 -87t91 -42l-18 -92h-485q-68 71 -138 250l-165 446l571 490q80 65 80 99zM695 -66q89 0 135 -48t47 -122q-1 -116 -89 -196t-301 -80v82q102 0 162 32t68 74h-125q-86 22 -84 103q0 63 49 109t138 46z" />
    <glyph glyph-name="kcommaaccent" unicode="&#x137;" horiz-adv-x="1329" 
d="M408 0h-418l340 1386l-99 56l15 69l477 93h72zM1350 954q0 -153 -172 -213h-25q8 76 -23 120t-90 44t-99 -34t-83 -87l189 -434q20 -49 39 -76q18 -26 46 -26t54 22t69 74l52 -45q-115 -162 -209 -241q-94 -78 -190 -78t-141 48q-46 48 -79 138l-133 385l369 438
q57 70 114 107t138 37q82 1 128 -53t46 -126zM517 -66q89 0 135 -48t46 -122q0 -116 -88 -196t-301 -80v82q102 0 162 32t68 74h-125q-86 22 -84 103q0 63 49 109t138 46z" />
    <glyph glyph-name="kgreenlandic" unicode="&#x138;" horiz-adv-x="1339" 
d="M418 0h-418l225 899l-104 84l14 61l483 89h72zM1360 954q0 -153 -172 -213h-25q8 76 -22.5 120t-89.5 44t-94.5 -30t-88.5 -91l189 -434q20 -49 39.5 -75.5t46 -26.5t52.5 22.5t71 73.5l51 -45q-115 -162 -209 -240.5t-190 -78.5t-141.5 48t-78.5 138l-133 385l369 438
q57 70 114.5 107t138.5 37t127 -53.5t46 -125.5z" />
    <glyph glyph-name="Lacute" unicode="&#x139;" horiz-adv-x="1359" 
d="M711 102h43q94 0 197 79t290 325h96l-186 -506h-1200l20 92q102 10 128 35t42 102l209 979q16 78 1 103t-113 35l20 92h729l-20 -92q-100 -10 -127 -35t-43 -103l-207 -968q-16 -82 12 -110t109 -28zM1163 1823v-19l-448 -286h-123l174 305h397z" />
    <glyph glyph-name="lacute" unicode="&#x13a;" horiz-adv-x="712" 
d="M481 195q50 0 162 143l53 -47q-111 -150 -209 -231q-98 -80 -219 -80t-176 59t-55 139t20 166l258 1042l-98 56l14 69l478 93h71l-311 -1297q-6 -27 -11 -49t-5 -33q0 -30 28 -30zM1092 1942v-19l-449 -287h-123l174 306h398z" />
    <glyph glyph-name="Lcommaaccent" unicode="&#x13b;" horiz-adv-x="1359" 
d="M711 102h43q94 0 197 79t290 325h96l-186 -506h-1200l20 92q102 10 128 35t42 102l209 979q16 78 1 103t-113 35l20 92h729l-20 -92q-100 -10 -127 -35t-43 -103l-207 -968q-16 -82 12 -110t109 -28zM344 -230q0 72 49 118t138 46t135 -48t47 -122q0 -116 -88 -196
t-301 -80v82q102 0 162 32t67 74h-125q-84 22 -84 94z" />
    <glyph glyph-name="lcommaaccent" unicode="&#x13c;" horiz-adv-x="712" 
d="M481 195q50 0 162 143l53 -47q-111 -150 -209 -231q-98 -80 -219 -80t-176 59t-55 139t20 166l258 1042l-98 56l14 69l478 93h71l-311 -1297q-6 -27 -11 -49t-5 -33q0 -30 28 -30zM2 -230q0 72 49 118t138 46t135 -48t47 -122q0 -116 -88 -196t-301 -80v82q102 0 162 32
t67 74h-125q-84 22 -84 94z" />
    <glyph glyph-name="Lcaron" unicode="&#x13d;" horiz-adv-x="1359" 
d="M711 102h43q94 0 197 79t290 325h96l-186 -506h-1200l20 92q102 10 128 35t42 102l209 979q16 78 1 103t-113 35l20 92h729l-20 -92q-100 -10 -127 -35t-43 -103l-207 -968q-16 -82 12 -110t109 -28zM1421 1413l-327 -395h-97l113 420h317z" />
    <glyph glyph-name="lcaron" unicode="&#x13e;" horiz-adv-x="712" 
d="M481 195q50 0 162 143l53 -47q-111 -150 -209 -231q-98 -80 -219 -80t-176 59t-55 139t20 166l258 1042l-98 56l14 69l478 93h71l-311 -1297q-6 -27 -11 -49t-5 -33q0 -30 28 -30zM1202 1579l-328 -395h-96l113 420h317z" />
    <glyph glyph-name="Ldot" unicode="&#x13f;" horiz-adv-x="1359" 
d="M1130 631q-96 0 -148 54t-52 131t56 137.5t152 60.5t148.5 -54t52.5 -130t-56.5 -137.5t-152.5 -61.5zM711 102h43q94 0 197.5 79t289.5 325h96l-186 -506h-1200l20 92q102 10 128 35t42 102l209 979q16 78 1 102.5t-113 35.5l20 92h729l-20 -92q-100 -10 -127 -35
t-43 -103l-207 -968q-16 -82 12.5 -110t108.5 -28z" />
    <glyph glyph-name="ldot" unicode="&#x140;" horiz-adv-x="956" 
d="M850 600q-96 0 -148.5 55t-52.5 131t56.5 136.5t151.5 60.5t148.5 -53t53.5 -130t-56.5 -138.5t-152.5 -61.5zM481 195q50 0 162 143l53 -47q-111 -150 -209 -230.5t-219 -80.5t-176 59t-55 139t20 166l258 1042l-98 56l14 69l478 93h71l-311 -1297q-6 -27 -11 -48
t-5 -34q0 -30 28 -30z" />
    <glyph glyph-name="Lslash" unicode="&#x141;" horiz-adv-x="1359" 
d="M711 102h43q94 0 197.5 79t289.5 325h96l-186 -506h-1200l20 92q102 10 128 35t42 102l70 334l-150 -53l31 143l150 52l108 503q16 78 1 102.5t-113 35.5l20 92h729l-20 -92q-100 -10 -127 -35t-43 -103l-78 -360l264 92l-31 -143l-264 -92l-98 -465q-16 -82 12.5 -110
t108.5 -28z" />
    <glyph glyph-name="lslash" unicode="&#x142;" horiz-adv-x="733" 
d="M492 195q49 0 161 143l54 -47q-111 -150 -209.5 -230.5t-219.5 -80.5t-176 59t-55 141t21 164l100 404l-148 -58l33 135l148 60l125 501l-99 56l15 69l477 93h72l-140 -582l166 68l-33 -136l-166 -67l-139 -580q-6 -27 -11 -48t-5 -34q0 -30 29 -30z" />
    <glyph glyph-name="Nacute" unicode="&#x143;" horiz-adv-x="1556" 
d="M1260 639l122 569q16 78 -20 104q-37 26 -160 34l21 92h497l-20 -92q-102 -10 -128 -35t-42 -103l-256 -1208h-158l-647 1065l-178 -836q-15 -77 21 -103t159 -34l-20 -92h-498l20 92q102 10 128 35t42 102l211 994q-31 59 -51 87t-65 36l20 92h533zM1516 1823v-19
l-449 -286h-123l174 305h398z" />
    <glyph glyph-name="nacute" unicode="&#x144;" horiz-adv-x="1380" 
d="M864 811q0 37 -35 37q-57 0 -169 -171t-171 -403l-71 -274h-418l225 899l-104 84l14 61l498 89h74l-140 -500q129 260 275 380t291 120q82 -1 128 -49t46 -114t-19 -132l-147 -531q-17 -57 -17 -85q0 -27 29 -27q50 0 162 143l53 -47q-111 -150 -209 -231
q-98 -80 -219 -80t-181 59q-61 59 -61 129t31 178l121 399q14 49 14 66zM1364 1569v-19l-449 -315h-122l174 334h397z" />
    <glyph glyph-name="Ncommaaccent" unicode="&#x145;" horiz-adv-x="1556" 
d="M1260 639l122 569q16 78 -20 104q-37 26 -160 34l21 92h497l-20 -92q-102 -10 -128 -35t-42 -103l-256 -1208h-158l-647 1065l-178 -836q-15 -77 21 -103t159 -34l-20 -92h-498l20 92q102 10 128 35t42 102l211 994q-31 59 -51 87t-65 36l20 92h533zM477 -230
q0 72 49 118q48 46 138 46t136 -48t46 -122q0 -116 -88 -196t-301 -80v82q101 0 161 32t68 74h-125q-84 22 -84 94z" />
    <glyph glyph-name="ncommaaccent" unicode="&#x146;" horiz-adv-x="1380" 
d="M864 811q0 37 -35 37q-57 0 -169 -171t-171 -403l-71 -274h-418l225 899l-104 84l14 61l498 89h74l-140 -500q129 260 275 380t291 120q82 -1 128 -49t46 -114t-19 -132l-147 -531q-17 -57 -17 -85q0 -27 29 -27q50 0 162 143l53 -47q-111 -150 -209 -231
q-98 -80 -219 -80t-181 59q-61 59 -61 129t31 178l121 399q14 49 14 66zM552 -66q89 0 135 -48t46 -122q0 -116 -88 -196t-301 -80v82q102 0 162 32t67 74h-124q-86 22 -84 103q0 63 49 109t138 46z" />
    <glyph glyph-name="Ncaron" unicode="&#x147;" horiz-adv-x="1556" 
d="M1260 639l122 569q16 78 -20 104q-37 26 -160 34l21 92h497l-20 -92q-102 -10 -128 -35t-42 -103l-256 -1208h-158l-647 1065l-178 -836q-15 -77 21 -103t159 -34l-20 -92h-498l20 92q102 10 128 35t42 102l211 994q-31 59 -51 87t-65 36l20 92h533zM870 1520l-168 311
h127l213 -133l283 133h139l-315 -311h-279z" />
    <glyph glyph-name="ncaron" unicode="&#x148;" horiz-adv-x="1380" 
d="M864 811q0 37 -35 37q-57 0 -169 -171t-171 -403l-71 -274h-418l225 899l-104 84l14 61l498 89h74l-140 -500q129 260 275 380t291 120q82 -1 128 -49t46 -114t-19 -132l-147 -531q-17 -57 -17 -85q0 -27 29 -27q50 0 162 143l53 -47q-111 -150 -209 -231
q-98 -80 -219 -80t-181 59q-61 59 -61 129t31 178l121 399q14 49 14 66zM731 1233l-168 346h127l213 -164l283 164h139l-315 -346h-279z" />
    <glyph glyph-name="Eng" unicode="&#x14a;" horiz-adv-x="1556" 
d="M1001 182l-532 883l-178 -836q-16 -78 20.5 -103.5t159.5 -33.5l-20 -92h-498l20 92q102 10 128 35t42 102l211 994q-31 59 -51 86.5t-65 36.5l20 92h533l469 -799l122 569q16 78 -20.5 103.5t-159.5 34.5l21 92h497l-20 -92q-102 -10 -128 -35t-42 -103l-207 -981
q-57 -268 -198.5 -406t-438.5 -253l-27 45l127 127q96 98 142 205.5t73 236.5z" />
    <glyph glyph-name="eng" unicode="&#x14b;" horiz-adv-x="1327" 
d="M864 811q0 37 -35 37q-57 0 -168.5 -171t-171.5 -403l-71 -274h-418l225 899l-104 84l14 61l498 89h74l-140 -500q129 260 275.5 380t290.5 120q82 0 128 -48.5t46 -130.5q0 -42 -19 -116l-180 -645q-92 -328 -249 -490t-394 -162q-125 0 -208 47t-83 129t51 125t121 49
h78q-6 -115 3 -187.5t54 -72.5q51 0 88 101.5t86 285.5l195 727q14 49 14 66z" />
    <glyph glyph-name="Omacron" unicode="&#x14c;" horiz-adv-x="1576" 
d="M956 1352q-204 0 -312 -366t-107 -595q-1 -135 35 -220t128 -85q203 0 312 366t108 595q0 135 -35 220t-129 85zM969 1458q285 0 449 -167t165 -410q0 -346 -242 -624t-653 -277q-286 0 -450 166t-164 411q0 346 241 624q242 277 654 277zM713 1528l43 194h602l-43 -194
h-602z" />
    <glyph glyph-name="omacron" unicode="&#x14d;" horiz-adv-x="1226" 
d="M1190 696q0 -288 -201 -502t-493 -214q-201 0 -330 114t-129 322q0 287 201 502t493 215q201 0 330 -115t129 -322zM727 1042q-103 0 -197 -307t-94 -524q0 -141 64 -141q102 0 196 307t95 524q0 141 -64 141zM471 1280l43 195h602l-43 -195h-602z" />
    <glyph glyph-name="Obreve" unicode="&#x14e;" horiz-adv-x="1576" 
d="M956 1352q-204 0 -312 -366t-107 -595q-1 -135 35 -220t128 -85q203 0 312 366t108 595q0 135 -35 220t-129 85zM969 1458q285 0 449 -167t165 -410q0 -346 -242 -624t-653 -277q-286 0 -450 166t-164 411q0 346 241 624q242 277 654 277zM1018 1511q-137 0 -206 79
t-30 241h99q-2 -77 47 -101t125 -24t138 25t95 100h107q-39 -162 -139 -241t-236 -79z" />
    <glyph glyph-name="obreve" unicode="&#x14f;" horiz-adv-x="1226" 
d="M1190 696q0 -288 -201 -502t-493 -214q-201 0 -330 114t-129 322q0 287 201 502t493 215q201 0 330 -115t129 -322zM727 1042q-103 0 -197 -307t-94 -524q0 -141 64 -141q102 0 196 307t95 524q0 141 -64 141zM758 1225q-147 0 -207 93q-59 93 -21 255h103
q-8 -82 42 -113t126 -30q181 0 237 143h103q-39 -162 -137 -255t-246 -93z" />
    <glyph glyph-name="Ohungarumlaut" unicode="&#x150;" horiz-adv-x="1576" 
d="M956 1352q-204 0 -312 -366t-107 -595q-1 -135 35 -220t128 -85q203 0 312 366t108 595q0 135 -35 220t-129 85zM969 1458q285 0 449 -167t165 -410q0 -346 -242 -624t-653 -277q-286 0 -450 166t-164 411q0 346 241 624q242 277 654 277zM1272 1823h332l-5 -21
l-346 -284h-125zM887 1823h332l-5 -21l-346 -284h-125z" />
    <glyph glyph-name="ohungarumlaut" unicode="&#x151;" horiz-adv-x="1226" 
d="M1190 696q0 -288 -201 -502t-493 -214q-201 0 -330 114t-129 322q0 287 201 502t493 215q201 0 330 -115t129 -322zM727 1042q-103 0 -197 -307t-94 -524q0 -141 64 -141q102 0 196 307t95 524q0 141 -64 141zM1006 1569h331l-4 -21l-370 -313h-125zM621 1569h331l-4 -21
l-370 -313h-125z" />
    <glyph glyph-name="OE" unicode="&#x152;" horiz-adv-x="2181" 
d="M786 0q-299 0 -505.5 146.5t-206.5 433.5q0 389 284.5 623.5t679.5 234.5h1219l-78 -408h-80q-39 172 -82 238.5t-190 66.5h-203l-113 -532h170q72 0 107 42t70 148h96l-109 -504h-96q10 106 -6.5 148.5t-87.5 42.5h-170l-94 -440q-18 -82 15.5 -110t113.5 -28h45
q143 0 222 76t238 287h103l-166 -465h-1176zM858 102h57l263 1233h-115q-238 0 -386.5 -277.5t-148.5 -553.5q0 -203 75 -302.5t255 -99.5z" />
    <glyph glyph-name="oe" unicode="&#x153;" horiz-adv-x="1773" 
d="M1501 954q0 93 -63 93q-88 0 -167 -152t-104 -309q168 41 251 140t83 228zM793 901q0 141 -64 141q-102 0 -196.5 -307t-94.5 -524q0 -141 64 -141q102 0 196.5 307t94.5 524zM39 416q0 287 200.5 502t493.5 215q104 0 189.5 -43t142.5 -113q199 156 405 156
q166 0 245 -72t79 -172q0 -168 -177 -252t-458 -123v-31q0 -135 58.5 -203.5t158.5 -68.5q141 0 287 158l49 -47q-222 -342 -561 -342q-168 0 -281 139q-188 -139 -381 -139q-192 0 -321 114.5t-129 321.5z" />
    <glyph glyph-name="Racute" unicode="&#x154;" horiz-adv-x="1562" 
d="M1059 1438q247 0 359 -102t112 -246q0 -193 -142 -297t-258 -134l191 -401q43 -92 73 -127t97 -39l-18 -92h-480q-64 57 -125 225l-133 369h-69l-78 -365q-16 -79 0 -103t112 -34l-18 -92h-731l20 92q102 10 128 35t42 102l209 979q16 78 1 103t-113 35l20 92h801z
M856 1329h-35l-131 -624h45q141 0 249 93t108 300q0 98 -56 164t-180 67zM1419 1823v-19l-448 -286h-123l174 305h397z" />
    <glyph glyph-name="racute" unicode="&#x155;" horiz-adv-x="1058" 
d="M983 1133q74 1 116 -47t42 -136q-1 -88 -63 -168t-144 -112h-16q0 100 -84 100q-129 0 -238 -220t-178 -550h-418l225 899l-104 84l14 61l498 89h74l-82 -287l-99 -311q172 352 260 475t197 123zM1233 1569v-19l-449 -315h-122l174 334h397z" />
    <glyph glyph-name="Rcommaaccent" unicode="&#x156;" horiz-adv-x="1562" 
d="M1059 1438q247 0 359 -102t112 -246q0 -193 -142 -297t-258 -134l191 -401q43 -92 73 -127t97 -39l-18 -92h-480q-64 57 -125 225l-133 369h-69l-78 -365q-16 -79 0 -103t112 -34l-18 -92h-731l20 92q102 10 128 35t42 102l209 979q16 78 1 103t-113 35l20 92h801z
M856 1329h-35l-131 -624h45q141 0 249 93t108 300q0 98 -56 164t-180 67zM648 -66q89 0 135 -48t46 -122q0 -116 -88 -196t-301 -80v82q102 0 162 32t68 74h-125q-86 22 -84 103q0 63 49 109t138 46z" />
    <glyph glyph-name="rcommaaccent" unicode="&#x157;" horiz-adv-x="1058" 
d="M983 1133q74 1 116 -47t42 -136q-1 -88 -63 -168t-144 -112h-16q0 100 -84 100q-129 0 -238 -220t-178 -550h-418l225 899l-104 84l14 61l498 89h74l-82 -287l-99 -311q172 352 260 475t197 123zM-29 -230q0 72 49 118q48 46 138 46t136 -48t46 -122q0 -116 -88 -196
t-301 -80v82q101 0 161 32t68 74h-125q-84 22 -84 94z" />
    <glyph glyph-name="Rcaron" unicode="&#x158;" horiz-adv-x="1562" 
d="M1059 1438q247 0 359 -102t112 -246q0 -193 -142 -297t-258 -134l191 -401q43 -92 73 -127t97 -39l-18 -92h-480q-64 57 -125 225l-133 369h-69l-78 -365q-16 -79 0 -103t112 -34l-18 -92h-731l20 92q102 10 128 35t42 102l209 979q16 78 1 103t-113 35l20 92h801z
M856 1329h-35l-131 -624h45q141 0 249 93t108 300q0 98 -56 164t-180 67zM774 1520l-168 311h127l213 -133l283 133h139l-315 -311h-279z" />
    <glyph glyph-name="rcaron" unicode="&#x159;" horiz-adv-x="1058" 
d="M983 1133q74 1 116 -47t42 -136q-1 -88 -63 -168t-144 -112h-16q0 100 -84 100q-129 0 -238 -220t-178 -550h-418l225 899l-104 84l14 61l498 89h74l-82 -287l-99 -311q172 352 260 475t197 123zM600 1233l-168 346h127l213 -164l283 164h139l-315 -346h-279z" />
    <glyph glyph-name="Sacute" unicode="&#x15a;" horiz-adv-x="1226" 
d="M1155 494q0 -254 -189 -384t-460 -130q-174 0 -308 58t-198 120l68 350h104q0 -182 95 -299t263 -117q100 0 167 51t67 143t-66 141q-66 50 -200 117t-232 158q-96 92 -96 252q0 232 167 368t437 136q154 0 278 -49t185 -109l-66 -311h-100q0 156 -80 259t-239 104
q-90 0 -146 -54t-55 -142q0 -87 53 -133q53 -45 180 -109t249 -159t122 -261zM1335 1823v-19l-448 -286h-123l174 305h397z" />
    <glyph glyph-name="sacute" unicode="&#x15b;" horiz-adv-x="964" 
d="M444 63q45 0 72 22t27 60q0 113 -209 244t-209 336q0 162 140 285t347 123q128 -1 226 -51t98 -158q0 -66 -53 -107t-107 -51h-20q-20 111 -82 196t-152 85q-42 0 -68 -24t-26 -62q0 -97 221 -241t221 -339q0 -170 -144 -286q-144 -115 -330 -115t-300 66
q-115 66 -114 179q0 72 48 119t113 68h19q28 -160 102 -254t180 -95zM1135 1569v-19l-449 -315h-123l174 334h398z" />
    <glyph glyph-name="Scircumflex" unicode="&#x15c;" horiz-adv-x="1226" 
d="M1155 494q0 -254 -189 -384t-460 -130q-174 0 -308 58t-198 120l68 350h104q0 -182 95 -299t263 -117q100 0 167 51t67 143t-66 141q-66 50 -200 117t-232 158q-96 92 -96 252q0 232 167 368t437 136q154 0 278 -49t185 -109l-66 -311h-100q0 156 -80 259t-239 104
q-90 0 -146 -54t-55 -142q0 -87 53 -133q53 -45 180 -109t249 -159t122 -261zM1024 1829l168 -311h-127l-213 133l-283 -133h-139l315 311h279z" />
    <glyph glyph-name="scircumflex" unicode="&#x15d;" horiz-adv-x="964" 
d="M444 63q45 0 72 22t27 60q0 113 -209 244t-209 336q0 162 140 285t347 123q128 -1 226 -51t98 -158q0 -66 -53 -107t-107 -51h-20q-20 111 -82 196t-152 85q-42 0 -68 -24t-26 -62q0 -97 221 -241t221 -339q0 -170 -144 -286q-144 -115 -330 -115t-300 66
q-115 66 -114 179q0 72 48 119t113 68h19q28 -160 102 -254t180 -95zM862 1569l168 -346h-127l-213 163l-282 -163h-140l316 346h278z" />
    <glyph glyph-name="Scedilla" unicode="&#x15e;" horiz-adv-x="1226" 
d="M633 -244q0 -117 -123 -175t-291 -58l-18 76q111 0 173 30.5t62 69.5t-40 50t-111 13l110 226q-135 16 -239.5 67t-155.5 103l68 350h104q0 -182 95 -299t263 -117q100 0 167 51.5t67 142.5t-65.5 141t-200.5 117t-231.5 159t-96.5 251q0 231 167 367.5t437 136.5
q154 0 278 -49t185 -109l-66 -311h-100q0 156 -80 259.5t-239 103.5q-90 0 -145.5 -54.5t-55.5 -141.5t53 -132.5t180 -109.5t249 -159.5t122 -260.5q0 -254 -189.5 -384t-459.5 -130l-33 2l-31 -60q191 -22 191 -166z" />
    <glyph glyph-name="scedilla" unicode="&#x15f;" horiz-adv-x="964" 
d="M522 -244q0 -117 -122.5 -175t-290.5 -58l-19 76q111 0 173.5 30.5t62.5 69.5t-40 50t-112 13l109 224q-133 16 -217 78.5t-84 147.5t48 132t113 68h19q27 -160 101.5 -254.5t180.5 -94.5q45 0 72 21.5t27 60.5q0 113 -209 244t-209 336q0 162 140.5 285t346.5 123
q129 0 226.5 -50.5t97.5 -158.5q0 -66 -53.5 -107t-106.5 -51h-20q-20 111 -83 196t-151 85q-41 0 -67.5 -24t-26.5 -62q0 -96 221 -241t221 -339q0 -170 -144 -285.5t-343 -115.5h-23l-28 -58q190 -22 190 -166z" />
    <glyph glyph-name="Scaron" unicode="&#x160;" horiz-adv-x="1226" 
d="M1155 494q0 -254 -189 -384t-460 -130q-174 0 -308 58t-198 120l68 350h104q0 -182 95 -299t263 -117q100 0 167 51t67 143t-66 141q-66 50 -200 117t-232 158q-96 92 -96 252q0 232 167 368t437 136q154 0 278 -49t185 -109l-66 -311h-100q0 156 -80 259t-239 104
q-90 0 -146 -54t-55 -142q0 -87 53 -133q53 -45 180 -109t249 -159t122 -261zM690 1520l-168 311h127l213 -133l283 133h139l-315 -311h-279z" />
    <glyph glyph-name="scaron" unicode="&#x161;" horiz-adv-x="964" 
d="M444 63q45 0 72 22t27 60q0 113 -209 244t-209 336q0 162 140 285t347 123q128 -1 226 -51t98 -158q0 -66 -53 -107t-107 -51h-20q-20 111 -82 196t-152 85q-42 0 -68 -24t-26 -62q0 -97 221 -241t221 -339q0 -170 -144 -286q-144 -115 -330 -115t-300 66
q-115 66 -114 179q0 72 48 119t113 68h19q28 -160 102 -254t180 -95zM522 1233l-168 346h127l213 -164l283 164h139l-315 -346h-279z" />
    <glyph glyph-name="Tcaron" unicode="&#x164;" horiz-adv-x="1509" 
d="M657 1350q-94 0 -177 -100t-255 -347h-100l145 535h1358l-84 -535h-92q-63 248 -98 347t-129 100h-70l-242 -1131q-16 -78 13 -97t125 -30l-21 -92h-772l21 92q102 10 136 30t50 97l242 1131h-50zM823 1520l-168 311h127l213 -133l283 133h139l-315 -311h-279z" />
    <glyph glyph-name="tcaron" unicode="&#x165;" horiz-adv-x="858" 
d="M1186 1550l-328 -395h-96l112 420h318zM68 217q0 51 16 141l152 609h-125l20 80q145 45 293.5 145t232.5 205h97l-76 -314h223l-29 -116h-223l-155 -621q-17 -79 -17 -102q0 -60 51 -60q95 0 248 178l58 -43q-246 -339 -508 -339q-121 0 -189.5 69.5t-68.5 167.5z" />
    <glyph glyph-name="Tbar" unicode="&#x166;" horiz-adv-x="1509" 
d="M657 1350q-94 0 -177 -99.5t-255 -347.5h-100l145 535h1358l-84 -535h-92q-63 248 -98 347.5t-129 99.5h-70l-119 -555h224l-29 -140h-225l-93 -436q-16 -78 12.5 -97.5t125.5 -29.5l-21 -92h-772l21 92q102 10 136 29.5t50 97.5l92 436h-192l28 140h195l119 555h-50z
" />
    <glyph glyph-name="tbar" unicode="&#x167;" horiz-adv-x="890" 
d="M82 217q0 51 16 141l76 310h-115l27 116h117l47 183h-125l20 80q145 45 294 145t233 205h96l-76 -314h223l-28 -116h-223l-48 -183h236l-27 -116h-237l-80 -322q-16 -74 -16 -102q0 -60 51 -60q95 0 248 178l57 -43q-246 -339 -508 -339q-121 0 -189.5 69.5t-68.5 167.5z
" />
    <glyph glyph-name="Utilde" unicode="&#x168;" horiz-adv-x="1568" 
d="M737 -20q-305 0 -455 170t-89 442l133 616q16 78 1 103t-114 35l20 92h732l-21 -92q-100 -10 -127 -35t-43 -103l-137 -637q-35 -163 21 -283t231 -120q135 0 228 85t138 298l140 657q16 78 -11 104t-149 34l20 92h480l-21 -92q-100 -10 -127 -35t-43 -103l-149 -698
q-57 -270 -227 -400t-431 -130zM1255 1518q-93 0 -143 61t-106 61q-54 0 -88 -32t-68 -80l-78 45q62 131 126 208t158 77t143 -62q51 -62 105 -61t88 33t66 79l78 -45q-64 -132 -126 -208t-155 -76z" />
    <glyph glyph-name="utilde" unicode="&#x169;" horiz-adv-x="1386" 
d="M485 289q0 -37 33 -37q57 0 165 178t165 408l63 254l426 20l-202 -805q-17 -66 -17 -82q0 -30 29 -30q48 0 162 143l53 -47q-111 -150 -209 -231q-99 -80 -217 -80t-181 56t-63 135t51 255q-129 -256 -245 -351t-224 -95q-110 0 -166 63q-89 100 -40 274l145 582l-104 84
l14 61l498 89h73l-192 -760q-17 -62 -17 -84zM966 1233q-94 0 -144 61q-50 62 -104 62t-89 -33t-68 -80l-78 45q63 131 127 208t156 77q94 1 144 -61t104 -62t89 33q34 33 66 80l78 -45q-63 -131 -125 -208t-156 -77z" />
    <glyph glyph-name="Umacron" unicode="&#x16a;" horiz-adv-x="1568" 
d="M737 -20q-305 0 -455 170t-89 442l133 616q16 78 1 103t-114 35l20 92h732l-21 -92q-100 -10 -127 -35t-43 -103l-137 -637q-35 -163 21 -283t231 -120q135 0 228 85t138 298l140 657q16 78 -11 104t-149 34l20 92h480l-21 -92q-100 -10 -127 -35t-43 -103l-149 -698
q-57 -270 -227 -400t-431 -130zM817 1528l43 194h602l-43 -194h-602z" />
    <glyph glyph-name="umacron" unicode="&#x16b;" horiz-adv-x="1386" 
d="M485 289q0 -37 33 -37q57 0 165 178t165 408l63 254l426 20l-202 -805q-17 -66 -17 -82q0 -30 29 -30q48 0 162 143l53 -47q-111 -150 -209 -231q-99 -80 -217 -80t-181 56t-63 135t51 255q-129 -256 -245 -351t-224 -95q-110 0 -166 63q-89 100 -40 274l145 582l-104 84
l14 61l498 89h73l-192 -760q-17 -62 -17 -84zM537 1280l43 195h602l-43 -195h-602z" />
    <glyph glyph-name="Ubreve" unicode="&#x16c;" horiz-adv-x="1568" 
d="M737 -20q-305 0 -455 170t-89 442l133 616q16 78 1 103t-114 35l20 92h732l-21 -92q-100 -10 -127 -35t-43 -103l-137 -637q-35 -163 21 -283t231 -120q135 0 228 85t138 298l140 657q16 78 -11 104t-149 34l20 92h480l-21 -92q-100 -10 -127 -35t-43 -103l-149 -698
q-57 -270 -227 -400t-431 -130zM1122 1511q-137 0 -206 79t-29 241h98q-2 -77 47 -101t125 -24t138 25t96 100h106q-39 -162 -139 -241t-236 -79z" />
    <glyph glyph-name="ubreve" unicode="&#x16d;" horiz-adv-x="1386" 
d="M485 289q0 -37 33 -37q57 0 165 178t165 408l63 254l426 20l-202 -805q-17 -66 -17 -82q0 -30 29 -30q48 0 162 143l53 -47q-111 -150 -209 -231q-99 -80 -217 -80t-181 56t-63 135t51 255q-129 -256 -245 -351t-224 -95q-110 0 -166 63q-89 100 -40 274l145 582l-104 84
l14 61l498 89h73l-192 -760q-17 -62 -17 -84zM823 1225q-147 0 -207 93q-59 93 -20 255h102q-8 -82 42 -113t126 -30q182 0 238 143h102q-40 -162 -138 -255t-245 -93z" />
    <glyph glyph-name="Uring" unicode="&#x16e;" horiz-adv-x="1568" 
d="M737 -20q-305 0 -455 170t-89 442l133 616q16 78 1 103t-114 35l20 92h732l-21 -92q-100 -10 -127 -35t-43 -103l-137 -637q-35 -163 21 -283t231 -120q135 0 228 85t138 298l140 657q16 78 -11 104t-149 34l20 92h480l-21 -92q-100 -10 -127 -35t-43 -103l-149 -698
q-57 -270 -227 -400t-431 -130zM936 1690q0 90 63 156t161 67t156 -57t58 -148t-63 -157t-161 -67t-156 58t-58 148zM1255 1706q0 43 -25 69q-26 25 -74 25t-75 -33t-27 -75t26 -69q26 -26 74 -26t75 33q26 33 26 76z" />
    <glyph glyph-name="uring" unicode="&#x16f;" horiz-adv-x="1386" 
d="M485 289q0 -37 33 -37q57 0 165 178t165 408l63 254l426 20l-202 -805q-17 -66 -17 -82q0 -30 29 -30q48 0 162 143l53 -47q-111 -150 -209 -231q-99 -80 -217 -80t-181 56t-63 135t51 255q-129 -256 -245 -351t-224 -95q-110 0 -166 63q-89 100 -40 274l145 582l-104 84
l14 61l498 89h73l-192 -760q-17 -62 -17 -84zM645 1393q-1 91 63 157t161 66t155 -57t59 -147q0 -90 -63 -158q-62 -66 -160 -66t-157 57q-58 58 -58 148zM965 1409q0 43 -26 69t-74 26q-49 0 -75 -34t-26 -76t26 -68t74 -26t74 33q27 33 27 76z" />
    <glyph glyph-name="Uhungarumlaut" unicode="&#x170;" horiz-adv-x="1568" 
d="M737 -20q-305 0 -455 170t-89 442l133 616q16 78 1 103t-114 35l20 92h732l-21 -92q-100 -10 -127 -35t-43 -103l-137 -637q-35 -163 21 -283t231 -120q135 0 228 85t138 298l140 657q16 78 -11 104t-149 34l20 92h480l-21 -92q-100 -10 -127 -35t-43 -103l-149 -698
q-57 -270 -227 -400t-431 -130zM1376 1823h332l-4 -21l-346 -284h-125zM991 1823h332l-4 -21l-346 -284h-125z" />
    <glyph glyph-name="uhungarumlaut" unicode="&#x171;" horiz-adv-x="1386" 
d="M485 289q0 -37 33 -37q57 0 165 178t165 408l63 254l426 20l-202 -805q-17 -66 -17 -82q0 -30 29 -30q48 0 162 143l53 -47q-111 -150 -209 -231q-99 -80 -217 -80t-181 56t-63 135t51 255q-129 -256 -245 -351t-224 -95q-110 0 -166 63q-89 100 -40 274l145 582l-104 84
l14 61l498 89h73l-192 -760q-17 -62 -17 -84zM1071 1569h332l-4 -21l-371 -313h-125zM686 1569h332l-4 -21l-371 -313h-125z" />
    <glyph glyph-name="Uogonek" unicode="&#x172;" horiz-adv-x="1568" 
d="M780 -20q-305 0 -454.5 169.5t-89.5 442.5l133 616q16 78 0.5 102.5t-113.5 35.5l20 92h732l-21 -92q-100 -10 -126.5 -35t-43.5 -103l-137 -637q-35 -162 21.5 -282.5t230.5 -120.5q135 0 228 85t138 298l140 657q16 78 -10.5 103.5t-149.5 34.5l20 92h480l-21 -92
q-100 -10 -126.5 -35t-43.5 -103l-149 -698q-73 -347 -336 -469q-102 -59 -148.5 -124t-46.5 -109q0 -96 80 -95q63 0 139 56l27 -48q-147 -163 -311 -163q-74 0 -125 38.5t-51 121.5q0 148 215 268q-75 -6 -101 -6z" />
    <glyph glyph-name="uogonek" unicode="&#x173;" horiz-adv-x="1386" 
d="M715 -284q0 144 205 264q-104 2 -166 57t-62 134t51 255q-129 -256 -244 -351t-225 -95t-166.5 63t-56.5 138t17 136l145 582l-104 84l14 61l498 89h73l-192 -760q-17 -62 -17 -84q0 -37 33 -37q57 0 165 177t165 409l63 254l426 20l-202 -805q-17 -57 -17 -85
q0 -27 29 -27q48 0 162 143l53 -47q-141 -188 -273.5 -291.5t-132.5 -202.5q0 -33 20.5 -58.5t70.5 -25.5t129 56l26 -48q-147 -163 -311 -163q-74 0 -125 38.5t-51 119.5z" />
    <glyph glyph-name="Wcircumflex" unicode="&#x174;" horiz-adv-x="2043" 
d="M1921 1271q0 38 -19 55t-94 20l21 92h414l-21 -92q-51 -6 -83 -22t-52 -54l-725 -1276h-137l-109 807l-469 -807h-137l-223 1276q-10 56 -103 76l21 92h678l-21 -92q-114 -12 -112 -94q1 -51 8 -103l96 -584l240 412l-39 293q-3 33 -23 50t-61 26l20 92h631l-20 -92
q-116 -14 -114 -96q0 -36 3 -58q2 -20 4 -43l64 -578l309 559q53 103 53 141zM1475 1829l167 -311h-126l-213 133l-283 -133h-139l315 311h279z" />
    <glyph glyph-name="wcircumflex" unicode="&#x175;" horiz-adv-x="1662" 
d="M1694 922q0 -121 -90 -235t-201 -228l-447 -465h-106l-53 504l-435 -504h-106l-98 921l-113 80l16 54l453 84h43l53 -727l174 204l-32 305l-99 74l17 53l438 91h43l53 -752l84 92q137 152 135 301q0 88 -53 131t-135 43l4 33q35 59 100 105q66 46 164 46q99 0 145 -62
t46 -148zM1217 1569l167 -346h-127l-213 163l-282 -163h-139l315 346h279z" />
    <glyph glyph-name="Ycircumflex" unicode="&#x176;" horiz-adv-x="1454" 
d="M907 1346q-151 -8 -151 -96q0 -44 26 -117l154 -457l326 469q72 104 71 139q0 57 -123 62l21 92h422l-21 -92q-45 -8 -77 -24t-58 -52l-522 -742l-66 -309q-16 -78 13 -97t125 -30l-21 -92h-762l21 92q102 10 136 30t50 97l64 299l-248 752q-14 43 -37 55t-66 21l21 92
h723zM1276 1829l168 -311h-127l-213 133l-283 -133h-139l315 311h279z" />
    <glyph glyph-name="ycircumflex" unicode="&#x177;" horiz-adv-x="1126" 
d="M-14 -72q0 -219 157 -221q111 0 236 123l-240 1085l-112 80l16 54l440 84h43l179 -902q109 149 147 259t37 234q0 124 -67 174t-148 50l4 33q35 59 99 105q65 46 163 46t152 -67q55 -68 55 -166q0 -166 -131 -369q-132 -204 -330 -456t-356 -392t-332 -141q-94 0 -161 48
q-67 47 -67 131t50 136q49 52 125 72h41zM934 1569l168 -346h-127l-213 163l-283 -163h-139l315 346h279z" />
    <glyph glyph-name="Ydieresis" unicode="&#x178;" horiz-adv-x="1454" 
d="M907 1346q-151 -8 -151 -96q0 -44 26 -117l154 -457l326 469q72 104 71 139q0 57 -123 62l21 92h422l-21 -92q-45 -8 -77 -24t-58 -52l-522 -742l-66 -309q-16 -78 13 -97t125 -30l-21 -92h-762l21 92q102 10 136 30t50 97l64 299l-248 752q-14 43 -37 55t-66 21l21 92
h723zM1509 1694q0 -72 -50 -130t-135 -59q-85 0 -132 51t-47 123t50 129q50 58 135 58t132 -50t47 -122zM1081 1694q0 -72 -50 -130t-135 -59q-85 0 -133 51t-48 123t51 129q51 58 136 58t132 -50t47 -122z" />
    <glyph glyph-name="Zacute" unicode="&#x179;" horiz-adv-x="1327" 
d="M678 102q129 0 226 75t284 312h98l-178 -489h-1180l17 80l977 1255h-195q-147 0 -222 -78t-210 -278h-96l118 459h1145l-18 -80l-981 -1256h215zM1456 1823v-19l-448 -286h-123l174 305h397z" />
    <glyph glyph-name="zacute" unicode="&#x17a;" horiz-adv-x="1079" 
d="M330 762q-48 0 -68 -16t-53 -54l-43 -51l-41 14l168 531h51q6 -40 15 -60t30 -20h780v-49l-749 -635l192 -70q25 -6 73 -18t97 -12q48 0 106 24t134 131l37 -20q-91 -291 -197 -393t-254 -103q-84 0 -158 27t-153 65l-209 107l-59 -160q-99 -4 -99 66q0 49 52 96l716 600
h-368zM1233 1569v-19l-449 -315h-122l174 334h397z" />
    <glyph glyph-name="Zdotaccent" unicode="&#x17b;" horiz-adv-x="1327" 
d="M678 102q129 0 226 75t284 312h98l-178 -489h-1180l17 80l977 1255h-195q-147 0 -222 -78t-210 -278h-96l118 459h1145l-18 -80l-981 -1256h215zM981 1509q-96 1 -148 55q-53 54 -53 131t56 137t152 60q94 0 148 -53t54 -130t-56 -139t-153 -61z" />
    <glyph glyph-name="zdotaccent" unicode="&#x17c;" horiz-adv-x="1079" 
d="M330 762q-48 0 -68 -16t-53 -54l-43 -51l-41 14l168 531h51q6 -40 15 -60t30 -20h780v-49l-749 -635l192 -70q25 -6 73 -18t97 -12q48 0 106 24t134 131l37 -20q-91 -291 -197 -393t-254 -103q-84 0 -158 27t-153 65l-209 107l-59 -160q-99 -4 -99 66q0 49 52 96l716 600
h-368zM563 1402q1 77 57 137t151 60t149 -53t53 -130t-57 -138t-152 -61t-149 54q-52 54 -52 131z" />
    <glyph glyph-name="Zcaron" unicode="&#x17d;" horiz-adv-x="1327" 
d="M678 102q129 0 226 75t284 312h98l-178 -489h-1180l17 80l977 1255h-195q-147 0 -222 -78t-210 -278h-96l118 459h1145l-18 -80l-981 -1256h215zM811 1520l-168 311h127l213 -133l283 133h139l-315 -311h-279z" />
    <glyph glyph-name="zcaron" unicode="&#x17e;" horiz-adv-x="1079" 
d="M330 762q-48 0 -68 -16t-53 -54l-43 -51l-41 14l168 531h51q6 -40 15 -60t30 -20h780v-49l-749 -635l192 -70q25 -6 73 -18t97 -12q48 0 106 24t134 131l37 -20q-91 -291 -197 -393t-254 -103q-84 0 -158 27t-153 65l-209 107l-59 -160q-99 -4 -99 66q0 49 52 96l716 600
h-368zM600 1233l-168 346h127l213 -164l283 164h139l-315 -346h-279z" />
    <glyph glyph-name="florin" unicode="&#x192;" horiz-adv-x="1071" 
d="M975 1458q123 0 213 -41t90 -141q0 -51 -28.5 -89t-82.5 -52h-127q12 86 5 168.5t-70 82.5q-72 0 -101 -122l-102 -461h227l-24 -92h-223l-82 -379q-70 -317 -232 -509t-428 -192q-123 0 -216 40t-93 141q0 51 28.5 89t82.5 54h127q-12 -88 -1 -169t72 -81q43 0 63.5 38
t30.5 85l195 883h-203l25 92h198l3 8q70 315 234.5 481t418.5 166z" />
    <glyph glyph-name="AEacute" unicode="&#x1fc;" horiz-adv-x="2150" 
d="M1141 1294l-555 -665h411zM1651 803q73 0 107 42t69 148h96l-108 -504h-97q10 107 -6 149t-88 42h-170l-94 -440q-18 -82 16 -110t113 -28h45q143 0 222 76t239 287h102l-166 -465h-1210l20 92q102 10 128 35t42 102l60 281h-484l-204 -246q-43 -49 -43 -92t40 -58
t115 -22l-20 -92h-488l21 92q77 7 133 76l924 1118q-44 40 -201 60l20 92h1442l-78 -408h-80q-39 172 -81 239q-43 67 -191 66h-203l-112 -532h170zM1954 1823v-19l-449 -286h-123l174 305h398z" />
    <glyph glyph-name="aeacute" unicode="&#x1fd;" horiz-adv-x="1744" 
d="M1473 954q0 93 -64 93q-88 0 -167 -152t-103 -309q168 41 251 140t83 228zM518 262q39 0 94 64t113 174q37 250 219 428q-18 45 -53 79t-86 33q-135 0 -246 -230t-110 -423q0 -125 69 -125zM294 -20q-126 0 -197 89t-70 244q1 279 207 549t544 271q94 0 169 -31t120 -78
q171 109 356 109t264 -72t78 -172q0 -168 -177 -252t-458 -123v-31q0 -135 58 -203t160 -69q142 0 286 158l49 -47q-222 -342 -561 -342q-166 0 -278 102t-125 276q-95 -176 -197 -277t-228 -101zM1610 1569v-19l-449 -315h-123l174 334h398z" />
    <glyph glyph-name="Oslashacute" unicode="&#x1fe;" horiz-adv-x="1576" 
d="M1124 1141q-22 211 -159 211q-189 0 -305 -325t-130 -568zM532 305q18 -219 160 -219q190 0 305 330t129 571zM1583 881q0 -346 -242 -624t-653 -277q-208 0 -358 94l-123 -142l-78 66l119 137q-84 78 -129 188t-45 234q0 346 241 624q242 278 654 277q198 0 352 -92
l106 123l78 -66l-102 -116q88 -78 134 -189t46 -237zM1524 1823v-19l-449 -286h-123l174 305h398z" />
    <glyph glyph-name="oslashacute" unicode="&#x1ff;" horiz-adv-x="1226" 
d="M424 211q0 -141 78 -141t160 200t118 410l-356 -420v-49zM727 1042q-82 0 -165 -204t-118 -416l357 420l2 59q0 141 -76 141zM1190 696q0 -288 -201 -502t-493 -214q-156 0 -258 61l-103 -123l-74 53l103 123q-127 118 -127 322q0 287 201 502t493 215q148 0 262 -64
l92 109l74 -54l-94 -110q125 -121 125 -318zM1266 1569v-19l-449 -315h-123l174 334h398z" />
    <glyph glyph-name="Scommaaccent" unicode="&#x218;" horiz-adv-x="1226" 
d="M1155 494q0 -254 -189 -384t-460 -130q-174 0 -308 58t-198 120l68 350h104q0 -182 95 -299t263 -117q100 0 167 51t67 143t-66 141q-66 50 -200 117t-232 158q-96 92 -96 252q0 232 167 368t437 136q154 0 278 -49t185 -109l-66 -311h-100q0 156 -80 259t-239 104
q-90 0 -146 -54t-55 -142q0 -87 53 -133q53 -45 180 -109t249 -159t122 -261zM266 -230q0 72 49 118t139 46t135 -48q46 -48 46 -122q0 -116 -88 -196t-301 -80v82q102 0 162 32t67 74h-125q-84 22 -84 94z" />
    <glyph glyph-name="scommaaccent" unicode="&#x219;" horiz-adv-x="964" 
d="M444 63q45 0 72 22t27 60q0 113 -209 244t-209 336q0 162 140 285t347 123q128 -1 226 -51t98 -158q0 -66 -53 -107t-107 -51h-20q-20 111 -82 196t-152 85q-42 0 -68 -24t-26 -62q0 -97 221 -241t221 -339q0 -170 -144 -286q-144 -115 -330 -115t-300 66
q-115 66 -114 179q0 72 48 119t113 68h19q28 -160 102 -254t180 -95zM106 -230q0 72 50 118t138 46q89 0 135 -48t46 -122q0 -116 -88 -196t-301 -80v82q102 0 162 32t67 74h-125q-84 22 -84 94z" />
    <glyph glyph-name="circumflex" unicode="&#x2c6;" 
d="M725 1569l168 -346h-127l-213 163l-283 -163h-139l315 346h279z" />
    <glyph glyph-name="caron" unicode="&#x2c7;" 
d="M299 1233l-168 346h127l213 -164l283 164h139l-315 -346h-279z" />
    <glyph glyph-name="breve" unicode="&#x2d8;" 
d="M562 1430q128 0 186 143h102q-39 -162 -137.5 -255t-246 -93t-206.5 93t-20 255h102q-8 -82 42 -112.5t178 -30.5z" />
    <glyph glyph-name="dotaccent" unicode="&#x2d9;" 
d="M508 1217q-96 0 -148.5 54t-52.5 131t56.5 137t151.5 60t148.5 -53t53.5 -130t-56.5 -138t-152.5 -61z" />
    <glyph glyph-name="ring" unicode="&#x2da;" 
d="M293 1393q0 90 63.5 156.5t160.5 66.5t155.5 -57.5t58.5 -147.5t-63.5 -156.5t-160.5 -66.5t-155.5 57.5t-58.5 147.5zM612 1409q0 43 -25.5 68.5t-73.5 25.5t-74.5 -32.5t-26.5 -75.5t25.5 -69t73.5 -26t74.5 33t26.5 76z" />
    <glyph glyph-name="tilde" unicode="&#x2dc;" 
d="M611 1233q-93 0 -143 61.5t-104 61.5t-89 -33t-68 -80l-78 45q63 131 126 208t157 77t144 -61.5t104 -61.5t88 33t67 80l78 -45q-63 -131 -126 -208t-156 -77z" />
    <glyph glyph-name="hungarumlaut" unicode="&#x2dd;" 
d="M623 1569h331l-4 -21l-370 -313h-125zM238 1569h331l-4 -21l-370 -313h-125z" />
    <glyph glyph-name="Wgrave" unicode="&#x1e80;" horiz-adv-x="2043" 
d="M1921 1271q0 38 -19 55t-94 20l21 92h414l-21 -92q-51 -6 -83 -22t-52 -54l-725 -1276h-137l-109 807l-469 -807h-137l-223 1276q-10 56 -103 76l21 92h678l-21 -92q-114 -12 -112 -94q1 -51 8 -103l96 -584l240 412l-39 293q-3 33 -23 50t-61 26l20 92h631l-20 -92
q-116 -14 -114 -96q0 -36 3 -58q2 -20 4 -43l64 -578l309 559q53 103 53 141zM915 1823h371l45 -305h-119l-297 284v21z" />
    <glyph glyph-name="wgrave" unicode="&#x1e81;" horiz-adv-x="1662" 
d="M1694 922q0 -121 -90 -235t-201 -228l-447 -465h-106l-53 504l-435 -504h-106l-98 921l-113 80l16 54l453 84h43l53 -727l174 204l-32 305l-99 74l17 53l438 91h43l53 -752l84 92q137 152 135 301q0 88 -53 131t-135 43l4 33q35 59 100 105q66 46 164 46q99 0 145 -62
t46 -148zM680 1569h371l45 -334h-119l-297 313v21z" />
    <glyph glyph-name="Wacute" unicode="&#x1e82;" horiz-adv-x="2043" 
d="M1921 1271q0 38 -19 55t-94 20l21 92h414l-21 -92q-51 -6 -83 -22t-52 -54l-725 -1276h-137l-109 807l-469 -807h-137l-223 1276q-10 56 -103 76l21 92h678l-21 -92q-114 -12 -112 -94q1 -51 8 -103l96 -584l240 412l-39 293q-3 33 -23 50t-61 26l20 92h631l-20 -92
q-116 -14 -114 -96q0 -36 3 -58q2 -20 4 -43l64 -578l309 559q53 103 53 141zM1784 1823v-19l-449 -286h-123l174 305h398z" />
    <glyph glyph-name="wacute" unicode="&#x1e83;" horiz-adv-x="1662" 
d="M1694 922q0 -121 -90 -235t-201 -228l-447 -465h-106l-53 504l-435 -504h-106l-98 921l-113 80l16 54l453 84h43l53 -727l174 204l-32 305l-99 74l17 53l438 91h43l53 -752l84 92q137 152 135 301q0 88 -53 131t-135 43l4 33q35 59 100 105q66 46 164 46q99 0 145 -62
t46 -148zM1507 1569v-19l-448 -315h-123l174 334h397z" />
    <glyph glyph-name="Wdieresis" unicode="&#x1e84;" horiz-adv-x="2043" 
d="M1921 1271q0 38 -19 55t-94 20l21 92h414l-21 -92q-51 -6 -83 -22t-52 -54l-725 -1276h-137l-109 807l-469 -807h-137l-223 1276q-10 56 -103 76l21 92h678l-21 -92q-114 -12 -112 -94q1 -51 8 -103l96 -584l240 412l-39 293q-3 33 -23 50t-61 26l20 92h631l-20 -92
q-116 -14 -114 -96q0 -36 3 -58q2 -20 4 -43l64 -578l309 559q53 103 53 141zM1708 1694q0 -72 -50 -130t-135 -59q-85 0 -132 51t-47 123t50 129q50 58 135 58t132 -50t47 -122zM1280 1694q0 -72 -50 -130t-135 -59q-85 0 -133 51t-48 123t50 129q52 58 137 58t132 -50
t47 -122z" />
    <glyph glyph-name="wdieresis" unicode="&#x1e85;" horiz-adv-x="1662" 
d="M1694 922q0 -121 -90 -235t-201 -228l-447 -465h-106l-53 504l-435 -504h-106l-98 921l-113 80l16 54l453 84h43l53 -727l174 204l-32 305l-99 74l17 53l438 91h43l53 -752l84 92q137 152 135 301q0 88 -53 131t-135 43l4 33q35 59 100 105q66 46 164 46q99 0 145 -62
t46 -148zM1440 1415q0 -72 -50 -130t-136 -58q-85 0 -132 51t-47 123t50 129q49 57 135 57t133 -50t47 -122zM1012 1415q0 -72 -50 -130t-136 -58q-85 0 -133 51t-48 123t51 129q50 57 136 57t133 -50t47 -122z" />
    <glyph glyph-name="Ygrave" unicode="&#x1ef2;" horiz-adv-x="1454" 
d="M907 1346q-151 -8 -151 -96q0 -44 26 -117l154 -457l326 469q72 104 71 139q0 57 -123 62l21 92h422l-21 -92q-45 -8 -77 -24t-58 -52l-522 -742l-66 -309q-16 -78 13 -97t125 -30l-21 -92h-762l21 92q102 10 136 30t50 97l64 299l-248 752q-14 43 -37 55t-66 21l21 92
h723zM719 1823h371l45 -305h-119l-297 284v21z" />
    <glyph glyph-name="ygrave" unicode="&#x1ef3;" horiz-adv-x="1126" 
d="M-14 -72q0 -219 157 -221q111 0 236 123l-240 1085l-112 80l16 54l440 84h43l179 -902q109 149 147 259t37 234q0 124 -67 174t-148 50l4 33q35 59 99 105q65 46 163 46t152 -67q55 -68 55 -166q0 -166 -131 -369q-132 -204 -330 -456t-356 -392t-332 -141q-94 0 -161 48
q-67 47 -67 131t50 136q49 52 125 72h41zM397 1569h371l45 -334h-119l-297 313v21z" />
    <glyph glyph-name="endash" unicode="&#x2013;" horiz-adv-x="1105" 
d="M1030 557h-983l33 135h983z" />
    <glyph glyph-name="emdash" unicode="&#x2014;" horiz-adv-x="1966" 
d="M1923 692l-33 -135h-1843l33 135h1843z" />
    <glyph glyph-name="quoteleft" unicode="&#x2018;" horiz-adv-x="612" 
d="M651 1094q0 -88 -62.5 -141.5t-159.5 -53.5t-155.5 72.5t-58.5 181.5q0 176 140.5 289.5t361.5 109.5v-92q-115 -8 -207 -47t-102 -123h81q70 -16 116 -62t46 -134z" />
    <glyph glyph-name="quoteright" unicode="&#x2019;" horiz-adv-x="612" 
d="M262 1356q0 88 62.5 141t159.5 53t155.5 -72.5t58.5 -181.5q0 -176 -140 -289.5t-361 -109.5v92q115 8 207 47t102 123h-82q-70 16 -116 62.5t-46 134.5z" />
    <glyph glyph-name="quotesinglbase" unicode="&#x201a;" horiz-adv-x="612" 
d="M12 194q0 88 62.5 141.5t159.5 53.5t156 -72.5t59 -181.5q0 -176 -140.5 -289.5t-361.5 -109.5v92q115 8 207 47t102 123h-82q-70 16 -116 62t-46 134z" />
    <glyph glyph-name="quotedblleft" unicode="&#x201c;" horiz-adv-x="1105" 
d="M1145 1094q0 -88 -62.5 -141.5t-159.5 -53.5t-155.5 72.5t-58.5 181.5q0 176 140 289.5t361 109.5v-92q-115 -8 -207 -47t-102 -123h82q70 -16 116 -62t46 -134zM651 1094q0 -88 -62.5 -141.5t-159.5 -53.5t-155.5 72.5t-58.5 181.5q0 176 140.5 289.5t361.5 109.5v-92
q-115 -8 -207 -47t-102 -123h81q70 -16 116 -62t46 -134z" />
    <glyph glyph-name="quotedblright" unicode="&#x201d;" horiz-adv-x="1105" 
d="M262 1354q0 88 62.5 141t159.5 53t155.5 -72.5t58.5 -181.5q0 -176 -140 -289.5t-361 -109.5v92q115 8 207 47t102 123h-82q-70 16 -116 62.5t-46 134.5zM756 1354q0 88 62.5 141t159.5 53t155.5 -72.5t58.5 -181.5q0 -176 -140.5 -289.5t-361.5 -109.5v92q115 8 207 47
t102 123h-81q-70 16 -116 62.5t-46 134.5z" />
    <glyph glyph-name="quotedblbase" unicode="&#x201e;" horiz-adv-x="1105" 
d="M12 194q0 88 62.5 141.5t159.5 53.5t156 -72.5t59 -181.5q0 -176 -140.5 -289.5t-361.5 -109.5v92q115 8 207 47t102 123h-82q-70 16 -116 62t-46 134zM506 194q0 88 62.5 141.5t159.5 53.5t155.5 -72.5t58.5 -181.5q0 -176 -140 -289.5t-362 -109.5v92q115 8 207.5 47
t102.5 123h-82q-70 16 -116 62t-46 134z" />
    <glyph glyph-name="dagger" unicode="&#x2020;" horiz-adv-x="786" 
d="M778 1315q108 -1 107 -109q0 -56 -39 -88.5t-92 -32.5t-91 46.5t-114 46.5q-14 -70 15.5 -122t64.5 -75l-4 -18q-53 -59 -137.5 -254t-139.5 -426h-29q43 231 41 425.5t-30 254.5l4 18q47 23 99 75t67 122q-76 0 -123 -46.5t-97 -46.5q-108 0 -108 109q0 55 39 88t92 33
t91 -46t114 -46q12 76 -14.5 121t-26.5 98t36 81.5t87 28.5t78.5 -30.5t27.5 -65.5q0 -68 -61.5 -113t-77.5 -120q76 0 123.5 46t97.5 46z" />
    <glyph glyph-name="daggerdbl" unicode="&#x2021;" horiz-adv-x="786" 
d="M790 1362q108 0 107 -108q0 -55 -39 -88t-92 -33t-91 46t-114 46q-22 -109 84 -176l-4 -19q-61 -4 -100 -33.5t-47.5 -74.5t17.5 -75t85 -34l-4 -18q-45 -23 -95.5 -65t-64.5 -112q76 0 123 46.5t97 46.5q108 0 108 -109q0 -55 -39 -88t-92 -33t-91 46t-114 46
q-4 -55 20.5 -86.5t24.5 -85t-36 -82t-85 -28.5t-75.5 30.5t-26.5 65.5q0 63 57 98t72 88q-76 0 -123.5 -46t-97.5 -46q-108 0 -107 109q0 55 39 88t92 33t91 -46.5t114 -46.5q22 110 -86 177l4 18q63 4 101 34t46.5 75t-16 74.5t-86.5 33.5l4 19q47 23 97.5 64.5
t64.5 111.5q-76 0 -123 -46t-97 -46t-79 26.5t-29 81.5t39 88t92 33t91 -46t114 -46q4 55 -20.5 87t-24.5 85t36 81.5t84 28.5t75.5 -30.5t27.5 -65.5q0 -63 -57 -98t-72 -88q76 0 123.5 46t97.5 46z" />
    <glyph glyph-name="bullet" unicode="&#x2022;" horiz-adv-x="782" 
d="M61 635q0 137 97.5 236.5t232.5 99.5t232.5 -99.5t97.5 -236.5t-97.5 -237.5t-232.5 -100.5t-232.5 100.5t-97.5 237.5z" />
    <glyph glyph-name="ellipsis" unicode="&#x2026;" horiz-adv-x="1650" 
d="M1069 206.5q0 100.5 66.5 165t161 64.5t161 -64.5t66.5 -165t-66.5 -163.5t-161 -63t-161 63t-66.5 163.5zM532 206.5q0 100.5 67 165t161 64.5t160.5 -64.5t66.5 -165t-66.5 -163.5t-160.5 -63t-161 63t-67 163.5zM-4 206.5q0 100.5 66.5 165t160.5 64.5t161 -64.5
t67 -165t-67 -163.5t-161 -63t-160.5 63t-66.5 163.5z" />
    <glyph glyph-name="guilsinglleft" unicode="&#x2039;" horiz-adv-x="567" 
d="M49 559l2 12l471 414h103l-258 -420l79 -420h-102z" />
    <glyph glyph-name="guilsinglright" unicode="&#x203a;" horiz-adv-x="567" 
d="M535 571l-3 -12l-471 -414h-102l258 420l-80 420h103z" />
    <glyph glyph-name="fraction" unicode="&#x2044;" horiz-adv-x="579" 
d="M-340 -20l1241 1478h123l-1243 -1478h-121z" />
    <glyph glyph-name="Euro" unicode="&#x20ac;" horiz-adv-x="1406" 
d="M1079 1458q119 0 223.5 -37t165.5 -90l-63 -342h-102q-8 180 -53.5 273.5t-161.5 93.5t-213 -137.5t-154 -315.5h340l-37 -98h-330q-8 -39 -16 -77t-14 -75h292l-36 -100h-267q-2 -20 -2 -25v-49q0 -158 42 -272.5t162 -114.5t207 109.5t183 283.5h117l-121 -387
q-172 -118 -441 -118q-268 0 -427.5 149.5t-159.5 405.5v18h-154l29 100h131q6 60 31 152h-137l28 98h144q100 244 315 399.5t479 155.5z" />
    <glyph glyph-name="trademark" unicode="&#x2122;" horiz-adv-x="1959" 
d="M1393 1403q0 -21 2 -43l43 -324l166 322q24 50 28 80h344l-32 -66q-49 0 -70 -16.5t-29 -55.5l-28 -419q-2 -37 13 -49.5t56 -14.5l-12 -59h-387l12 59q82 2 98.5 34t20.5 105l16 295l-260 -493h-98l-62 493l-106 -295q-20 -59 -26.5 -98t83.5 -41l-12 -59h-279l13 59
q45 2 65.5 13.5t34.5 50.5l152 419q0 33 -9.5 52.5t-54.5 19.5l12 66h308q-2 -14 -2 -35zM774 1374h-16l-107 -487q-8 -39 6.5 -53.5t65.5 -16.5l-12 -59h-383l12 59q47 2 68.5 15.5t29.5 54.5l105 487h-13q-63 0 -107 -47t-87 -129h-72l66 240h669l-38 -240h-72
q-10 82 -34 129t-81 47z" />
    <glyph glyph-name="minus" unicode="&#x2212;" horiz-adv-x="1179" 
d="M160 682l33 147h909l-33 -147h-909z" />
    <glyph glyph-name="approxequal" unicode="&#x2248;" horiz-adv-x="1200" 
d="M459 735q86 0 169.5 -40t169.5 -40t152 18.5t144 63.5l-31 -149q-146 -82 -265 -82q-120 0 -203 39t-169 39t-151.5 -18.5t-141.5 -61.5l31 147q76 45 142.5 64.5t152.5 19.5zM518 1018q86 0 169 -41t170 -41t152.5 19.5t143.5 64.5l-31 -150q-149 -84 -267 -84
t-199.5 41t-167.5 41t-152.5 -19.5t-142.5 -64.5l30 150q78 45 143.5 64.5t151.5 19.5z" />
    <glyph glyph-name="notequal" unicode="&#x2260;" horiz-adv-x="1200" 
d="M203 836l30 141h523l192 213h174l-192 -213h215l-31 -141h-311l-148 -162h424l-28 -139h-521l-192 -213h-174l192 213h-217l29 139h313l148 162h-426z" />
    <glyph glyph-name="lessequal" unicode="&#x2264;" horiz-adv-x="917" 
d="M47 262l31 146h651l-31 -146h-651zM166 821l4 19l725 352l-35 -174l-414 -193l332 -194l-37 -162z" />
    <glyph glyph-name="greaterequal" unicode="&#x2265;" horiz-adv-x="917" 
d="M774 408l-31 -146h-651l31 146h651zM866 840l-4 -19l-725 -352l35 174l414 193l-332 194l37 162z" />
    <glyph glyph-name="ff" unicode="&#xfb00;" horiz-adv-x="1447" 
d="M864 1485q-88 0 -132 -128t-46 -274h223q29 105 82 201q0 76 -32 138.5t-95 62.5zM-119 -459q-125 0 -208 48.5t-83 128.5t51.5 123.5t120.5 49.5h78q-8 -115 3.5 -187.5t56.5 -72.5q51 0 72.5 100.5t60.5 288.5l190 947h-141l18 88l148 37q63 207 204.5 346t361.5 139
t319 -111q153 138 356 138q113 0 203 -44t90 -151q0 -51 -29 -92t-82 -60h-192q16 88 21 170t-48 82q-63 0 -88 -142t-18 -284h213l-29 -116h-203l-96 -443q-115 -518 -298 -740t-384 -222q-92 0 -166 38t-74 114t45 113.5t109 43.5h49q-13 -219 55 -219q45 0 68.5 100.5
t62.5 288.5l187 926h-219l-88 -375q-135 -584 -315.5 -817.5t-381.5 -233.5z" />
    <glyph glyph-name="ffi" unicode="&#xfb03;" horiz-adv-x="2068" 
d="M864 1485q-88 0 -132 -128t-46 -274h223q27 106 82 201q0 76 -32 138.5t-95 62.5zM1829 195q48 0 162 143l53 -47q-111 -150 -209 -230.5t-219 -80.5t-176.5 59t-55.5 137t21 168l156 623h-234l-96 -443q-115 -518 -298 -740t-384 -222q-92 0 -166 38t-74 114t45 113.5
t109 43.5h49q-13 -219 55 -219q45 0 68.5 100.5t62.5 288.5l187 926h-219l-88 -375q-135 -584 -315.5 -817.5t-381.5 -233.5q-125 0 -208 48.5t-83 128.5t51.5 123.5t120.5 49.5h78q-8 -115 3.5 -187.5t56.5 -72.5q51 0 72.5 100.5t60.5 288.5l190 947h-141l18 88l148 37
q63 207 204.5 346t378.5 139q100 0 181.5 -32t124.5 -85q177 144 452 144q125 0 243 -51.5t118 -157.5q0 -51 -29 -92t-82 -60h-231q29 82 24.5 174t-80.5 92q-90 0 -145 -130t-59 -296h307l297 50h73l-208 -826q-17 -57 -17 -85q0 -27 29 -27z" />
    <glyph glyph-name="ffl" unicode="&#xfb04;" horiz-adv-x="2062" 
d="M864 1485q-88 0 -132 -128t-46 -274h223q29 105 82 201q0 76 -31.5 138.5t-95.5 62.5zM1831 195q48 0 162 143l53 -47q-111 -150 -209 -230.5t-219 -80.5t-176.5 59t-55.5 137t21 168l231 936q-20 125 -61 177t-90 52q-88 0 -123 -142t-21 -284h152l-29 -116h-139
l-96 -443q-115 -518 -298 -740t-384 -222q-92 0 -166 38t-74 114t45 113.5t109 43.5h49q-13 -219 55 -219q45 0 68.5 100.5t62.5 288.5l187 926h-219l-88 -375q-135 -584 -315.5 -817.5t-381.5 -233.5q-125 0 -208 48.5t-83 128.5t51.5 123.5t120.5 49.5h78
q-8 -115 3.5 -187.5t56.5 -72.5q51 0 72.5 100.5t60.5 288.5l190 947h-141l18 88l148 37q63 207 204.5 346t361.5 139t319 -111q153 138 356 138q156 0 233 -66l336 66h72l-311 -1297q-6 -27 -11.5 -48t-5.5 -34q0 -30 29 -30z" />
    <glyph glyph-name="space_uni0326" 
d="M338 -230q0 72 49 118t138 46t135.5 -48t46.5 -122q0 -115 -88.5 -195.5t-301.5 -80.5v82q102 0 162 32.5t68 73.5h-125q-84 22 -84 94z" />
    <glyph glyph-name="space_uni0326.alt" 
d="M686 1371q0 -72 -49 -118.5t-138 -46.5t-135.5 48.5t-46.5 121.5q0 115 88.5 196t301.5 81v-82q-102 0 -162 -33t-68 -74h125q84 -21 84 -93z" />
    <glyph glyph-name="f_b" horiz-adv-x="2035" 
d="M1575 748q0 106 -55 106q-88 0 -220.5 -240.5t-175.5 -459.5q4 -39 31 -61.5t64 -22.5q141 0 248.5 247.5t107.5 430.5zM1772 1133q237 0 237 -325t-218 -576.5t-540 -251.5q-162 0 -314.5 67t-215.5 178l258 1055q-20 125 -61 177t-91 52q-94 0 -123.5 -140t-21.5 -286
h158l-29 -116h-141l-113 -504q-109 -487 -278.5 -704.5t-395.5 -217.5q-125 0 -208 48.5t-83 128.5t51.5 123.5t120.5 49.5h78q-8 -115 3.5 -187.5t56.5 -72.5q51 0 72.5 100.5t60.5 288.5l188 947h-139l18 88l150 37q61 207 203.5 359.5t373.5 152.5q157 0 234 -66l336 66
h71l-237 -986q94 193 232.5 354t306.5 161z" />
    <glyph glyph-name="f_f_b" horiz-adv-x="2695" 
d="M864 1485q-88 0 -132 -128t-46 -274h223q29 105 82 201q0 76 -31.5 138.5t-95.5 62.5zM2234 748q0 106 -55 106q-88 0 -220 -240.5t-175 -459.5q4 -39 30.5 -61.5t63.5 -22.5q141 0 248.5 247.5t107.5 430.5zM2431 1133q238 0 238 -325t-218.5 -576.5t-539.5 -251.5
q-162 0 -314.5 67.5t-216.5 177.5l258 1055q-20 125 -61 177t-90 52q-88 0 -123 -142t-21 -284h152l-29 -116h-139l-96 -443q-115 -518 -298 -740t-384 -222q-92 0 -166 38t-74 114t45 113.5t109 43.5h49q-13 -219 55 -219q45 0 68.5 100.5t62.5 288.5l187 926h-219
l-88 -375q-135 -584 -315.5 -817.5t-381.5 -233.5q-125 0 -208 48.5t-83 128.5t51.5 123.5t120.5 49.5h78q-8 -115 3.5 -187.5t56.5 -72.5q51 0 72.5 100.5t60.5 288.5l190 947h-141l18 88l148 37q63 207 204.5 346t361.5 139t319 -111q153 138 356 138q156 0 233 -66
l336 66h72l-238 -986q94 193 232.5 354t306.5 161z" />
    <glyph glyph-name="f_h" horiz-adv-x="2045" 
d="M1530 811q0 37 -35 37q-57 0 -169 -171t-171 -403l-72 -274h-417l313 1280q-20 125 -61 177t-91 52q-94 0 -123.5 -140t-21.5 -286h158l-29 -116h-141l-113 -504q-109 -487 -278.5 -704.5t-395.5 -217.5q-125 0 -208 48.5t-83 128.5t51.5 123.5t120.5 49.5h78
q-8 -115 3.5 -187.5t56.5 -72.5q51 0 72.5 100.5t60.5 288.5l188 947h-139l18 88l150 37q61 207 203.5 359.5t373.5 152.5q157 0 234 -66l336 66h71l-233 -969q129 260 273.5 379t287.5 119q82 0 128 -48.5t46 -112.5t-18 -134l-148 -531q-16 -54 -16 -83t29 -29
q49 0 161 143l54 -47q-111 -150 -209.5 -230.5t-219.5 -80.5t-181 59t-60 132t31 175l121 399q14 49 14 66z" />
    <glyph glyph-name="f_f_h" horiz-adv-x="2705" 
d="M864 1485q-88 0 -132 -128t-46 -274h223q29 105 82 201q0 76 -32 138.5t-95 62.5zM2189 811q0 37 -35 37q-57 0 -168.5 -171t-170.5 -403l-72 -274h-418l313 1280q-20 125 -61 177t-90 52q-88 0 -123 -142t-21 -284h152l-29 -116h-139l-96 -443q-115 -518 -298 -740
t-384 -222q-92 0 -166 38t-74 114t45 113.5t109 43.5h49q-13 -219 55 -219q45 0 68.5 100.5t62.5 288.5l187 926h-219l-88 -375q-135 -584 -315.5 -817.5t-381.5 -233.5q-125 0 -208 48.5t-83 128.5t51.5 123.5t120.5 49.5h78q-8 -115 3.5 -187.5t56.5 -72.5
q51 0 72.5 100.5t60.5 288.5l190 947h-141l18 88l148 37q63 207 204.5 346t361.5 139t319 -111q153 138 356 138q156 0 233 -66l336 66h72l-234 -969q129 260 273.5 379t288.5 119q82 0 128 -48.5t46 -130.5q0 -42 -19 -116l-147 -531q-17 -57 -17 -85q0 -27 29 -27
q50 0 162 143l53 -47q-111 -150 -209 -230.5t-219 -80.5t-181.5 59t-60.5 129t31 178l121 399q14 49 14 66z" />
    <glyph glyph-name="f_j" horiz-adv-x="1349" 
d="M-119 -459q-125 0 -208 48.5t-83 128.5t51.5 123.5t120.5 49.5h78q-8 -115 3.5 -187.5t56.5 -72.5q51 0 72.5 100.5t60.5 288.5l190 947h-141l18 88l148 37q68 238 236.5 375t443.5 137q125 0 242.5 -51.5t117.5 -157.5q0 -51 -28.5 -92t-81.5 -60h-232q29 82 25 174
t-80 92q-90 0 -145.5 -130t-59.5 -296h307l297 50h74l-133 -609q-113 -518 -297 -740t-385 -222q-92 0 -166 38t-74 114t45 113.5t109 43.5h49q-13 -219 55 -219q45 0 67.5 100.5t63.5 288.5l201 926h-233l-88 -375q-137 -584 -316.5 -817.5t-380.5 -233.5z" />
    <glyph glyph-name="f_f_j" horiz-adv-x="2011" 
d="M864 1485q-88 0 -132 -128t-46 -274h223q27 106 82 201q0 76 -32 138.5t-95 62.5zM549 -438q-92 0 -166 38t-74 114t45 113.5t109 43.5h49q-13 -219 55 -219q45 0 68.5 100.5t62.5 288.5l187 926h-219l-88 -375q-135 -584 -315.5 -817.5t-381.5 -233.5q-125 0 -208 48.5
t-83 128.5t51.5 123.5t120.5 49.5h78q-8 -115 3.5 -187.5t56.5 -72.5q51 0 72.5 100.5t60.5 288.5l190 947h-141l18 88l148 37q63 207 204.5 346t378.5 139q100 0 181.5 -32t124.5 -85q177 144 452 144q125 0 243 -51.5t118 -157.5q0 -51 -29 -92t-82 -60h-231
q29 82 24.5 174t-80.5 92q-90 0 -145 -130t-59 -296h307l297 50h73l-133 -609q-113 -518 -297 -740t-385 -222q-92 0 -165.5 38t-73.5 114t45 113.5t108 43.5h50q-13 -219 55 -219q45 0 67.5 100.5t63.5 288.5l201 926h-234l-96 -443q-115 -518 -298 -740t-384 -222z" />
    <glyph glyph-name="f_k" horiz-adv-x="2004" 
d="M2025 954q0 -153 -172 -213h-24q8 76 -22.5 120t-90.5 44t-99.5 -34t-82.5 -87l188 -434q20 -49 40 -75.5t46.5 -26.5t52 22.5t70.5 73.5l51 -45q-115 -162 -209 -240.5t-189 -78.5t-141 48t-79 138l-133 385l368 438q57 70 115 107t138 37t126.5 -53.5t46.5 -125.5z
M829 1604q157 0 234 -66l336 66h71l-387 -1604h-417l313 1280q-20 125 -61 177t-91 52q-94 0 -123.5 -140t-21.5 -286h158l-29 -116h-141l-113 -504q-109 -487 -278.5 -704.5t-395.5 -217.5q-125 0 -208 48.5t-83 128.5t51.5 123.5t120.5 49.5h78q-8 -115 3.5 -187.5
t56.5 -72.5q51 0 72.5 100.5t60.5 288.5l188 947h-139l18 88l150 37q61 207 203.5 359.5t373.5 152.5z" />
    <glyph glyph-name="f_f_k" horiz-adv-x="2664" 
d="M864 1485q-88 0 -132 -128t-46 -274h223q29 105 82 201q0 76 -31.5 138.5t-95.5 62.5zM2685 954q0 -153 -172 -213h-25q8 76 -22.5 120t-89.5 44t-94.5 -30t-88.5 -91l189 -434q20 -49 39.5 -75.5t46 -26.5t52.5 22.5t71 73.5l51 -45q-115 -162 -208.5 -240.5
t-189.5 -78.5t-142 48t-79 138l-133 385l369 438q57 70 114.5 107t138.5 37t127 -53.5t46 -125.5zM1489 1604q156 0 233 -66l336 66h72l-387 -1604h-418l313 1280q-20 125 -61 177t-90 52q-88 0 -123 -142t-21 -284h152l-29 -116h-139l-96 -443q-115 -518 -298 -740
t-384 -222q-92 0 -166 38t-74 114t45 113.5t109 43.5h49q-13 -219 55 -219q45 0 68.5 100.5t62.5 288.5l187 926h-219l-88 -375q-135 -584 -315.5 -817.5t-381.5 -233.5q-125 0 -208 48.5t-83 128.5t51.5 123.5t120.5 49.5h78q-8 -115 3.5 -187.5t56.5 -72.5
q51 0 72.5 100.5t60.5 288.5l190 947h-141l18 88l148 37q63 207 204.5 346t361.5 139t319 -111q153 138 356 138z" />
    <glyph glyph-name="caron.Slovak" 
d="M721 1579l-328 -395h-96l113 420h317z" />
    <glyph glyph-name="grave.cap" 
d="M303 1823h371l45 -305h-119l-297 284v21z" />
    <glyph glyph-name="acute.cap" 
d="M797 1823v-19l-449 -286h-123l174 305h398z" />
    <glyph glyph-name="circumflex.cap" 
d="M725 1829l168 -311h-127l-213 133l-283 -133h-139l315 311h279z" />
    <glyph glyph-name="tilde.cap" 
d="M611 1518q-93 0 -143 61t-104 61t-89 -32.5t-68 -79.5l-78 45q63 131 126 208t157 77t144 -61.5t104 -61.5t88 32.5t67 79.5l78 -45q-63 -131 -126 -207.5t-156 -76.5z" />
    <glyph glyph-name="macron.cap" 
d="M188 1528l43 194h603l-43 -194h-603z" />
    <glyph glyph-name="breve.cap" 
d="M475 1511q-137 0 -205.5 79t-29.5 241h98q-2 -76 47 -100.5t125 -24.5t138.5 24.5t94.5 100.5h107q-39 -162 -138.5 -241t-236.5 -79z" />
    <glyph glyph-name="dotaccent.cap" 
d="M508 1509q-96 0 -148.5 54.5t-52.5 131.5t56.5 137t151.5 60t148.5 -53t53.5 -130t-56.5 -138.5t-152.5 -61.5z" />
    <glyph glyph-name="dieresis.cap" 
d="M724 1505q-85 0 -132 51.5t-47 123.5t50 129t135 57t132 -50t47 -122t-50 -130.5t-135 -58.5zM296 1505q-85 0 -133 51.5t-48 123.5t51 129t136 57t132 -50t47 -122t-50 -130.5t-135 -58.5z" />
    <glyph glyph-name="ring.cap" 
d="M293 1690q0 90 63.5 156.5t160.5 66.5t155.5 -57.5t58.5 -147.5t-63.5 -156.5t-160.5 -66.5t-155.5 57.5t-58.5 147.5zM612 1706q0 43 -25.5 68.5t-73.5 25.5t-74.5 -32.5t-26.5 -75.5t25.5 -69t73.5 -26t74.5 33t26.5 76z" />
    <glyph glyph-name="hungarumlaut.cap" 
d="M610 1823h332l-4 -21l-346 -284h-125zM225 1823h332l-4 -21l-346 -284h-125z" />
    <glyph glyph-name="caron.cap" 
d="M299 1520l-168 311h127l213 -133l283 133h139l-315 -311h-279z" />
    <glyph glyph-name="periodcentered.cap" horiz-adv-x="563" 
d="M102 706.5q0 96.5 64 159t156 62.5t156.5 -62.5t64.5 -159t-64.5 -158t-155.5 -61.5t-156 61.5t-65 158z" />
    </font>
</defs>
</svg>
