<?xml version="1.0" standalone="no"?>
<!DOCTYPE svg PUBLIC "-//W3C//DTD SVG 1.1//EN" "http://www.w3.org/Graphics/SVG/1.1/DTD/svg11.dtd" >
<svg xmlns="http://www.w3.org/2000/svg">
<metadata>
Created by FontPrep 20130207 at Mon Aug 15 19:47:06 2016
 By Damien Criado
(c) 2010 Klim Type Foundry. All rights reserved.
</metadata>
<defs>
<font id="a5b5f595310f1955c7cc3fbd4474407c" horiz-adv-x='1024' >
  <font-face 
    font-family="CopyrightKlimTypeFoundry-NotLicensedforDesktopUse"
    font-weight="500"
    font-stretch="normal"
    units-per-em="2048"
    panose-1="2 2 6 3 6 3 3 6 4 3"
    ascent="1604"
    descent="-444"
    x-height="1085"
    cap-height="1438"
    bbox="-207 -483.015 2566 1964"
    underline-thickness="61"
    underline-position="-144"
    unicode-range="U+000D-FB04"
  />
<missing-glyph horiz-adv-x="391" 
 />
    <glyph glyph-name="fi" unicode="fi" horiz-adv-x="1271" 
d="M745 1393q0 50 -26.5 94.5t-102.5 44.5t-117.5 -71.5t-41.5 -203.5v-172h518l78 21h59v-948q0 -53 28.5 -69.5t98.5 -20.5v-68h-537v68q70 4 97.5 20t27.5 70v833h-370v-833q0 -53 27.5 -69.5t97.5 -20.5v-68h-537v68q70 4 98.5 20t28.5 70v833h-149v56l149 49v49
q0 231 140.5 345t342.5 114q152 0 238 -47.5t86 -129.5t-72 -120h-170q8 36 8 86z" />
    <glyph glyph-name="fl" unicode="fl" horiz-adv-x="1271" 
d="M606 1604q141 0 254 -62l207 62h45v-1446q0 -53 28.5 -69.5t98.5 -20.5v-68h-537v68q70 4 97.5 20t27.5 70v1214q-27 63 -74.5 112.5t-129.5 49.5q-166 0 -166 -248v-201h225v-94h-225v-833q0 -53 27.5 -69.5t97.5 -20.5v-68h-537v68q70 4 98.5 20t28.5 70v833h-149v56
l149 49v86q0 211 123 316.5t311 105.5z" />
    <glyph glyph-name=".notdef" horiz-adv-x="391" 
 />
    <glyph glyph-name=".null" horiz-adv-x="0" 
 />
    <glyph glyph-name="nonmarkingreturn" unicode="&#xd;" horiz-adv-x="391" 
 />
    <glyph glyph-name="NULL" horiz-adv-x="0" 
 />
    <glyph glyph-name="NULL" horiz-adv-x="0" 
 />
    <glyph glyph-name="space" unicode=" " horiz-adv-x="391" 
 />
    <glyph glyph-name="exclam" unicode="!" horiz-adv-x="544" 
d="M311 449h-78l-137 989h353zM102 151q0 71 50.5 122t120 51t119.5 -52t50 -122t-50 -120t-119.5 -50t-120 50t-50.5 121z" />
    <glyph glyph-name="quotedbl" unicode="&#x22;" horiz-adv-x="641" 
d="M352 1444q0 45 30 84t92 39t92 -39t30 -93t-37 -192l-74 -274h-22l-74 274q-10 45 -23.5 100.5t-13.5 100.5zM45 1435q0 54 29.5 93t91.5 39t91.5 -39t29.5 -93t-37 -192l-72 -274h-24l-72 274q-37 138 -37 192z" />
    <glyph glyph-name="numbersign" unicode="#" horiz-adv-x="1097" 
d="M465 913l-113 -360h287l113 360h-287zM946 475h-237l-156 -493l-86 26l147 467h-286l-156 -493l-88 26l147 467h-186v78h211l115 360h-219v80h245l148 467l86 -26l-139 -441h286l148 467l86 -26l-140 -441h181v-80h-207l-113 -360h213v-78z" />
    <glyph glyph-name="dollar" unicode="$" horiz-adv-x="1116" 
d="M545 1376q-109 0 -173.5 -60.5t-64.5 -159.5t53.5 -153.5t178.5 -105.5l82 471q-36 8 -76 8zM801 292q0 103 -56.5 161.5t-189.5 113.5l-88 -501q35 -5 61 -5q123 0 198 64t75 167zM971 1032h-76q-41 240 -205 314l-82 -474q205 -76 323 -171t118 -297t-154 -313
t-367 -111q-39 0 -75 4l-37 -215h-72l39 223q-196 28 -309 123l-19 350h86q27 -141 92.5 -241.5t165.5 -139.5l88 510q-6 2 -11 4t-11 4q-182 63 -289.5 157.5t-107.5 277.5t132 302t345 119q48 0 90 -4l37 203h73l-36 -213q153 -28 262 -107v-305z" />
    <glyph glyph-name="percent" unicode="%" horiz-adv-x="1570" 
d="M1317 327.5q0 116.5 -36 201.5t-120 85t-118.5 -85t-34.5 -201.5t34.5 -200.5t118.5 -84t120 84t36 200.5zM1505 328q0 -166 -104.5 -257t-239.5 -91t-238.5 91t-103.5 257t103.5 257t238.5 91t239.5 -91t104.5 -257zM289 -20l899 1478h94l-899 -1478h-94zM256 1110
q0 -117 35 -202t119 -85t118.5 85t34.5 202t-34.5 201t-118.5 84t-119 -84t-35 -201zM66 1110q0 166 104 257t239.5 91t240 -91t104.5 -257t-104.5 -257t-240 -91t-239.5 91t-104 257z" />
    <glyph glyph-name="ampersand" unicode="&#x26;" horiz-adv-x="1435" 
d="M446 1176q0 -100 58.5 -173t109.5 -131l19 -22q100 51 136 131t36 174t-43 161.5t-132 67.5t-136.5 -54t-47.5 -154zM279 462q0 -167 96 -260t239 -93t250 67l-473 533q-112 -80 -112 -247zM506 -20q-188 0 -337 97t-149 294q0 150 89.5 244t238.5 143v2
q-139 158 -139 328q0 171 116.5 270.5t300.5 99.5t291 -88t107 -223q0 -247 -350 -344l375 -424q55 104 55 225q0 70 -42 93.5t-122 25.5v72h469v-72q-102 -2 -148.5 -30.5t-61.5 -108.5q-27 -145 -97 -267l98 -110q57 -68 105.5 -100.5t113.5 -34.5v-72h-358
q-84 58 -139 115q-180 -135 -416 -135z" />
    <glyph glyph-name="quotesingle" unicode="'" horiz-adv-x="331" 
d="M45 1435q0 54 29.5 93t91.5 39t91.5 -39t29.5 -93t-37 -192l-72 -274h-24l-72 274q-37 138 -37 192z" />
    <glyph glyph-name="parenleft" unicode="(" horiz-adv-x="727" 
d="M348 804q0 -403 70.5 -644.5t255.5 -450.5h-96q-217 190 -336 433t-119 501t118.5 500.5t336.5 433.5h96q-326 -370 -326 -773z" />
    <glyph glyph-name="parenright" unicode=")" horiz-adv-x="727" 
d="M604 643q0 -258 -118.5 -500.5t-335.5 -433.5h-97q184 209 254 450.5t70 483.5t-69.5 483.5t-254.5 450.5h97q217 -190 335.5 -433t118.5 -501z" />
    <glyph glyph-name="asterisk" unicode="*" horiz-adv-x="866" 
d="M442 774q-39 0 -61.5 31t-7.5 84l57 266l-203 -182q-39 -39 -76.5 -35t-58.5 37q-18 33 -2 67.5t68 49.5l258 84l-258 84q-51 14 -67.5 48.5t1.5 69.5q20 33 58 36t77 -34l203 -184l-57 268q-14 51 8 82t61 31t60.5 -30.5t9.5 -82.5l-59 -268l202 184q39 37 77 34t59 -36
q18 -35 1.5 -69.5t-67.5 -48.5l-260 -84l260 -84q51 -14 67.5 -49t-2.5 -68t-57.5 -37t-77.5 35l-202 182l59 -266q12 -53 -9.5 -84t-60.5 -31z" />
    <glyph glyph-name="plus" unicode="+" horiz-adv-x="1165" 
d="M520 1208h123v-389h391v-123h-391v-389h-123v389h-389v123h389v389z" />
    <glyph glyph-name="comma" unicode="," horiz-adv-x="477" 
d="M76 158q0 68 47 109.5t123 41.5t124 -59.5t48 -153.5q0 -145 -92.5 -237t-264.5 -101v66q200 30 215 182h-77q-51 10 -87 47t-36 105z" />
    <glyph glyph-name="hyphen" unicode="-" horiz-adv-x="655" 
d="M594 559h-533v129h533v-129z" />
    <glyph glyph-name="period" unicode="." horiz-adv-x="477" 
d="M61 157.5q0 75.5 52.5 127t126 51.5t125 -51.5t51.5 -127t-51.5 -126.5t-125 -51t-126 51t-52.5 126.5z" />
    <glyph glyph-name="slash" unicode="/" horiz-adv-x="755" 
d="M719 1577l-590 -1866h-121l590 1866h121z" />
    <glyph glyph-name="zero" unicode="0" horiz-adv-x="1302" 
d="M651.5 -20q-266.5 0 -428.5 204.5t-162 534.5t162 534.5t428.5 204.5t429 -204.5t162.5 -534.5t-162.5 -534.5t-429 -204.5zM651.5 53q159.5 0 214 205t54.5 461t-54.5 460.5t-214 204.5t-214 -204.5t-54.5 -460.5t54.5 -461t214 -205z" />
    <glyph glyph-name="one" unicode="1" horiz-adv-x="811" 
d="M782 0h-731v72q154 8 186.5 32.5t32.5 118.5v922h-221v65l88 17q139 25 221 75t152 154h63v-1233q0 -94 34 -118.5t175 -32.5v-72z" />
    <glyph glyph-name="two" unicode="2" horiz-adv-x="1091" 
d="M666 250q115 0 175 30.5t136 176.5h57l-65 -457h-961v55l377 381q162 164 229.5 285t67.5 250t-66 202.5t-180 73.5q-198 0 -325 -162l-52 33q70 131 189 235.5t312 104.5t303 -101.5t110 -273.5q0 -236 -231.5 -442.5t-446.5 -390.5h371z" />
    <glyph glyph-name="three" unicode="3" horiz-adv-x="1064" 
d="M432 1264q-167 0 -289 -152l-43 35q63 135 177 223t282 88t267.5 -81t99.5 -227t-114.5 -224t-225.5 -103q193 -12 312.5 -122.5t119.5 -274.5q0 -215 -159 -330.5t-380 -115.5t-345 88t-124 202q0 57 29 99.5t63 58.5h181q-19 -59 -19 -119q0 -111 61.5 -184.5
t174.5 -73.5t174 83.5t61 229.5t-100 235t-266 89h-56l-16 53q166 57 257 127t91 191q0 90 -54 147.5t-159 57.5z" />
    <glyph glyph-name="four" unicode="4" horiz-adv-x="1239" 
d="M659 207v182h-643v55l732 994h204v-959h242v-90h-242v-182q0 -84 31 -108.5t139 -35.5v-63h-635v63q111 10 141.5 35t30.5 109zM659 479v686l-509 -686h509z" />
    <glyph glyph-name="five" unicode="5" horiz-adv-x="1048" 
d="M274 309q0 -117 56.5 -187.5t172.5 -70.5t187.5 74t71.5 199q0 180 -161 272t-470 94l123 748h516q53 0 76.5 13t56.5 75h62l-56 -348h-614l-39 -238q340 0 540.5 -117.5t200.5 -380.5q0 -213 -143 -337.5t-367 -124.5t-345.5 85t-121.5 201q0 57 29 99.5t68 62.5h174
q-17 -71 -17 -119z" />
    <glyph glyph-name="six" unicode="6" horiz-adv-x="1191" 
d="M559 788q-106 0 -188 -49q-6 -93 -6 -127q0 -248 70.5 -402.5t191.5 -154.5t179 96.5t58 254.5t-75.5 270t-229.5 112zM725 920q176 0 294 -113t118 -313q0 -238 -148.5 -376t-365.5 -138q-266 0 -413 177t-147 445q0 332 225.5 573.5t626.5 280.5l37 -49
q-268 -63 -405 -226t-170 -390q51 45 140 87t208 42z" />
    <glyph glyph-name="seven" unicode="7" horiz-adv-x="1019" 
d="M289 1155q-74 0 -114 -42t-79 -140h-71l90 465h899v-70l-582 -1368h-217l623 1155h-549z" />
    <glyph glyph-name="eight" unicode="8" horiz-adv-x="1148" 
d="M817 1124q0 113 -64.5 187.5t-176.5 74.5t-176 -60t-64 -156t48 -144.5t132 -89.5l160 -80q141 101 141 268zM281 362q0 -137 79.5 -224t208.5 -87t206 64.5t77 170.5t-52 159t-138 92l-236 110q-82 -57 -113.5 -127.5t-31.5 -157.5zM1026 1122q0 -123 -94 -196.5
t-209 -94.5l72 -32q141 -63 219 -158.5t78 -237.5q0 -186 -138 -304.5t-376 -118.5t-381.5 98t-143.5 264q0 131 96.5 213t229.5 113l-41 20q-100 47 -169 136t-69 231q0 176 129 289.5t341 113.5t334 -91t122 -245z" />
    <glyph glyph-name="nine" unicode="9" horiz-adv-x="1191" 
d="M633 649q101 0 188 47q6 93 6 129q0 248 -70.5 402.5t-191.5 154.5t-179 -96t-58 -255t75.5 -270.5t229.5 -111.5zM467 518q-176 0 -294 112.5t-118 313.5q0 238 148.5 376t365.5 138q266 0 412.5 -177t146.5 -445q0 -332 -225 -574t-627 -280l-36 49q268 61 405 225
t170 389q-51 -45 -140 -86t-208 -41z" />
    <glyph glyph-name="colon" unicode=":" horiz-adv-x="477" 
d="M61 823.5q0 75.5 52.5 126.5t126 51t125 -51t51.5 -126.5t-51.5 -127t-125 -51.5t-126 51.5t-52.5 127zM61 157.5q0 75.5 52.5 127t126 51.5t125 -51.5t51.5 -127t-51.5 -126.5t-125 -51t-126 51t-52.5 126.5z" />
    <glyph glyph-name="semicolon" unicode=";" horiz-adv-x="477" 
d="M61 823.5q0 75.5 52.5 126.5t126 51t125 -51t51.5 -126.5t-51.5 -127t-125 -51.5t-126 51.5t-52.5 127zM76 158q0 68 47 109.5t123 41.5t124 -59.5t48 -153.5q0 -145 -92.5 -237t-264.5 -101v66q200 30 215 182h-77q-51 10 -87 47t-36 105z" />
    <glyph glyph-name="less" unicode="&#x3c;" horiz-adv-x="858" 
d="M86 745v19l641 393v-147l-430 -254l430 -256v-146z" />
    <glyph glyph-name="equal" unicode="=" horiz-adv-x="1185" 
d="M141 842v123h903v-123h-903zM141 553v119h903v-119h-903z" />
    <glyph glyph-name="greater" unicode="&#x3e;" horiz-adv-x="858" 
d="M774 764v-19l-643 -391v146l430 256l-430 254v147z" />
    <glyph glyph-name="question" unicode="?" horiz-adv-x="913" 
d="M256 151q0 71 50 122t120 51t120 -52t50 -122t-50 -120t-120 -50t-120 50t-50 121zM37 1194q0 117 118.5 190.5t307.5 73.5t303.5 -88t114.5 -258q0 -129 -80.5 -217.5t-184.5 -158.5t-142 -121.5t-38 -133.5v-47h-35q-45 27 -79.5 84t-34.5 133q0 143 164 271
q78 59 133 118.5t55 153.5t-46 147.5t-136 53.5t-132 -65.5t-42 -139.5t6 -113h-189q-63 41 -63 117z" />
    <glyph glyph-name="at" unicode="@" horiz-adv-x="1775" 
d="M664 430q0 -57 20 -94t59 -37q88 0 190.5 175t160.5 413q-32 69 -113 69q-135 0 -226 -180t-91 -346zM961 1020q123 0 192 -78l143 72h56l-62 -183l-108 -413q-18 -72 -10 -134.5t75 -62.5q143 0 225 165.5t82 393.5t-145 395.5t-422 167.5q-346 0 -552 -261.5
t-206 -585.5t186.5 -494t469.5 -170q172 0 297 37t260 115l22 -35q-109 -92 -266.5 -149.5t-341.5 -57.5q-340 0 -563 193t-223 553t258 642.5t659 282.5q338 0 528.5 -185.5t190.5 -453.5t-143 -443t-340 -175q-158 0 -202 107.5t-11 250.5q-76 -154 -165 -256t-189 -102
t-156 69.5t-56 192.5q0 217 155 409.5t362 192.5z" />
    <glyph glyph-name="A" unicode="A" horiz-adv-x="1490" 
d="M633 1178l-238 -617h484zM432 0h-422v72q43 6 74 20t47 55l447 1147l-64 154h320l526 -1301q16 -41 48 -55t73 -20v-72h-627v72q90 2 131 21.5t41 58.5t-18 90l-95 231h-551l-88 -229q-18 -52 -18 -90q0 -78 176 -82v-72z" />
    <glyph glyph-name="B" unicode="B" horiz-adv-x="1355" 
d="M750 0h-695v72q106 12 135 34.5t29 106.5v1012q0 84 -28.5 106.5t-135.5 34.5v72h662q236 0 364.5 -90.5t128.5 -255.5t-119.5 -247.5t-265.5 -99.5q203 -6 335 -100t132 -268t-139 -275.5t-403 -101.5zM621 786q297 0 297 291q0 135 -79.5 207t-220.5 72h-98v-570h101z
M662 696h-142v-475q0 -82 39 -110.5t131 -28.5h21q137 0 209.5 79t72.5 222t-79.5 228t-251.5 85z" />
    <glyph glyph-name="C" unicode="C" horiz-adv-x="1343" 
d="M379 728q0 -272 111.5 -466t320.5 -194q143 0 242.5 98t152.5 321h82l-31 -385q-193 -122 -473 -122q-334 0 -528.5 195t-194.5 529t210 544t496 210t470 -121l2 -329h-78q-76 364 -368 364q-211 0 -312.5 -186t-101.5 -458z" />
    <glyph glyph-name="D" unicode="D" horiz-adv-x="1533" 
d="M723 0h-668v72q106 12 135 34.5t29 106.5v1012q0 84 -28.5 106.5t-135.5 34.5v72h629q406 0 597.5 -204t191.5 -486q0 -352 -212 -550t-538 -198zM631 1356h-111v-1129q0 -90 39 -117.5t121 -27.5h37q193 0 315.5 164t122.5 448t-127 473t-397 189z" />
    <glyph glyph-name="E" unicode="E" horiz-adv-x="1300" 
d="M55 0v72q106 12 135 34.5t29 106.5v1012q0 84 -28.5 106.5t-135.5 34.5v72h1125l10 -369h-60q-76 166 -138 226.5t-185 60.5h-287v-570h260q68 0 97.5 45.5t44.5 143.5h71v-465h-71q-14 98 -44 142t-98 44h-260v-475q0 -82 44 -110.5t138 -28.5h127q123 0 190.5 72.5
t170.5 255.5h72l-64 -410h-1143z" />
    <glyph glyph-name="F" unicode="F" horiz-adv-x="1206" 
d="M520 678v-451q0 -86 52.5 -115.5t193.5 -37.5v-74h-711v72q106 12 135 34.5t29 106.5v1012q0 84 -28.5 106.5t-135.5 34.5v72h1096l10 -381h-57q-70 170 -137.5 234.5t-188.5 64.5h-258v-586h230q68 0 95 46t42 145h71v-474h-71q-14 98 -42 144.5t-95 46.5h-230z" />
    <glyph glyph-name="G" unicode="G" horiz-adv-x="1474" 
d="M807 66q135 0 203 55v340q0 84 -28 107.5t-136 35.5v70h610v-70q-106 -12 -135 -35.5t-29 -107.5v-340q-224 -141 -522 -141q-340 0 -524.5 203.5t-184.5 500.5q0 354 213 564t506 210t473 -119l2 -331h-77q-76 366 -373 366q-221 0 -323.5 -186.5t-102.5 -450.5
t104.5 -467.5t323.5 -203.5z" />
    <glyph glyph-name="H" unicode="H" horiz-adv-x="1654" 
d="M520 1225v-441h617v441q0 84 -29 106.5t-135 34.5v72h626v-72q-106 -12 -134.5 -34.5t-28.5 -106.5v-1012q0 -84 28.5 -106.5t134.5 -34.5v-72h-626v72q106 12 135 34.5t29 106.5v473h-617v-473q0 -84 29 -106.5t135 -34.5v-72h-629v72q106 12 135 34.5t29 106.5v1012
q0 84 -28.5 106.5t-135.5 34.5v72h629v-72q-106 -12 -135 -34.5t-29 -106.5z" />
    <glyph glyph-name="I" unicode="I" horiz-adv-x="739" 
d="M520 1225v-1012q0 -84 29 -106.5t135 -34.5v-72h-629v72q106 12 135 34.5t29 106.5v1012q0 84 -28.5 106.5t-135.5 34.5v72h629v-72q-106 -12 -135 -34.5t-29 -106.5z" />
    <glyph glyph-name="J" unicode="J" horiz-adv-x="1089" 
d="M256 291q0 -111 42 -174.5t127 -63.5q167 0 167 289v883q0 84 -28.5 106.5t-135.5 34.5v72h627v-72q-106 -12 -135 -34.5t-29 -106.5v-789q0 -231 -127 -343.5t-338 -112.5t-324.5 73.5t-113.5 208.5q0 51 22.5 93t59.5 65h198q-12 -93 -12 -129z" />
    <glyph glyph-name="K" unicode="K" horiz-adv-x="1466" 
d="M520 1225v-1012q0 -84 29 -106.5t135 -34.5v-72h-629v72q106 12 135 34.5t29 106.5v1012q0 84 -28.5 106.5t-135.5 34.5v72h629v-72q-106 -12 -135 -34.5t-29 -106.5zM1466 0h-391q-83 69 -178 207l-354 500l499 520q52 53 52 83t-31 41t-121 15v72h459v-72
q-66 -2 -102.5 -22.5t-81.5 -67.5l-416 -438l442 -619q61 -82 103.5 -112.5t119.5 -34.5v-72z" />
    <glyph glyph-name="L" unicode="L" horiz-adv-x="1257" 
d="M520 1225v-1004q0 -82 42 -110.5t136 -28.5h88q117 0 190 83t183 279h72l-72 -444h-1104v72q106 12 135 34.5t29 106.5v1012q0 84 -28.5 106.5t-135.5 34.5v72h629v-72q-106 -12 -135 -34.5t-29 -106.5z" />
    <glyph glyph-name="M" unicode="M" horiz-adv-x="1918" 
d="M299 203q0 -76 42 -99.5t153 -31.5v-72h-474v72q88 4 125 28.5t45 94.5l127 1022q0 82 -36.5 113.5t-137.5 35.5v72h463q2 -41 33 -125l334 -893l311 895q31 85 33 123h457v-72q-98 -4 -135 -36t-37 -113l127 -1022q8 -74 45.5 -96.5t121.5 -26.5v-72h-665v72
q106 8 149 31.5t43 99.5q0 29 -4 49l-102 848l-393 -1100h-103l-413 1100l-105 -848q-4 -20 -4 -49z" />
    <glyph glyph-name="N" unicode="N" horiz-adv-x="1529" 
d="M1221 1223q0 82 -40 107.5t-165 35.5v72h477v-72q-106 -12 -135 -36.5t-29 -106.5v-1227h-100l-897 1132v-913q0 -82 39 -107.5t164 -35.5v-72h-478v72q109 12 136.5 36.5t27.5 106.5v1024q-45 66 -76.5 95.5t-89.5 31.5v72h420l746 -949v734z" />
    <glyph glyph-name="O" unicode="O" horiz-adv-x="1478" 
d="M712 -20q-308 0 -479.5 215t-171.5 495q0 350 198.5 559t506.5 209t479.5 -215t171.5 -495q0 -350 -198.5 -559t-506.5 -209zM743 63q185 0 269 198t84 450t-87 457.5t-273 205.5t-270.5 -197.5t-84.5 -449.5t88.5 -458t273.5 -206z" />
    <glyph glyph-name="P" unicode="P" horiz-adv-x="1282" 
d="M520 1356v-697h88q170 0 251 92.5t81 250.5t-83 256t-249 98h-88zM520 571v-344q0 -86 52.5 -115.5t193.5 -37.5v-74h-711v72q106 12 135 34.5t29 106.5v1012q0 84 -28.5 106.5t-135.5 34.5v72h627q287 0 426 -126t139 -314t-141 -307.5t-428 -119.5h-158z" />
    <glyph glyph-name="Q" unicode="Q" horiz-adv-x="1478" 
d="M743 63q185 0 269 198t84 450t-87 457.5t-273 205.5t-270.5 -197.5t-84.5 -449.5t88.5 -458t273.5 -206zM61 690q0 350 198.5 559t506.5 209t479.5 -215t171.5 -505t-147.5 -488.5t-378.5 -251.5l145 -125q63 -55 127 -97t154 -46v-29q-101 -74 -205 -74t-189 46.5
t-161 152.5l-111 158q-287 27 -438.5 234.5t-151.5 471.5z" />
    <glyph glyph-name="R" unicode="R" horiz-adv-x="1470" 
d="M520 614v-401q0 -84 29 -106.5t135 -34.5v-72h-629v72q106 12 135 34.5t29 106.5v1012q0 84 -28.5 106.5t-135.5 34.5v72h654q254 0 395 -111t141 -283t-109.5 -264t-224.5 -121l310 -419q70 -94 120 -130t129 -38v-72h-389q-81 59 -172 201l-282 413h-107zM614 1354h-94
v-654h98q160 0 241 88.5t81 236.5t-82 238.5t-244 90.5z" />
    <glyph glyph-name="S" unicode="S" horiz-adv-x="1126" 
d="M551 1458q262 0 426 -121v-305h-76q-29 162 -117 253t-233 91q-106 0 -170 -60.5t-64 -161.5t67 -159.5t251 -124.5t302 -165t118 -301t-153.5 -313t-366.5 -111q-145 0 -265 38.5t-190 96.5l-19 350h86q37 -182 136 -293t237 -111t211.5 63.5t73.5 172.5t-75 171
t-257 128t-290.5 162t-108.5 279t132 302t345 119z" />
    <glyph glyph-name="T" unicode="T" horiz-adv-x="1382" 
d="M950 1364h-108v-1157q0 -84 40 -103.5t144 -31.5v-72h-668v72q102 12 143.5 31.5t41.5 103.5v1157h-109q-117 0 -178 -86t-162 -313h-65l30 473h1264l31 -473h-66q-98 227 -159.5 313t-178.5 86z" />
    <glyph glyph-name="U" unicode="U" horiz-adv-x="1501" 
d="M487 1225v-705q0 -186 83 -293.5t251 -107.5t274.5 97t106.5 316v691q0 82 -34.5 107.5t-159.5 35.5v72h469v-72q-106 -12 -135 -36.5t-29 -106.5v-727q0 -262 -159.5 -389t-407.5 -127t-403 129t-155 391v725q0 84 -28.5 106.5t-134.5 34.5v72h626v-72
q-106 -12 -135 -34.5t-29 -106.5z" />
    <glyph glyph-name="V" unicode="V" horiz-adv-x="1454" 
d="M1028 1438h416v-72q-45 -6 -75 -20.5t-46 -55.5l-526 -1302h-78l-588 1302q-20 43 -49 56.5t-72 19.5v72h631v-72q-98 -2 -133 -22.5t-35 -58.5t23 -91l364 -809l314 809q20 58 20 93q0 36 -35 56.5t-131 22.5v72z" />
    <glyph glyph-name="W" unicode="W" horiz-adv-x="1974" 
d="M610 1366q-147 -4 -147 -72q0 -30 12 -69t293 -824l199 551l-113 338q-14 39 -42 54.5t-71 21.5v72h590v-72q-92 -2 -128 -22.5t-36 -65.5q0 -20 7.5 -46t15.5 -58l250 -762l258 766q8 27 16 51t8 57q0 76 -163 80v72h405v-72q-41 -6 -72.5 -20.5t-46.5 -55.5l-454 -1302
h-99l-280 831l-303 -831h-99l-479 1302q-14 39 -47 54.5t-74 21.5v72h600v-72z" />
    <glyph glyph-name="X" unicode="X" horiz-adv-x="1460" 
d="M1081 1303q0 63 -149 63v72h448v-72q-107 -4 -166 -86l-356 -469l430 -645q61 -90 162 -94v-72h-662v72q78 0 119 12t41 43t-43 102l-260 389l-295 -393q-37 -50 -37 -84q0 -65 168 -69v-72h-471v72q59 2 95 21.5t69 64.5l418 540l-387 582q-53 82 -156 86v72h647v-72
q-74 0 -109.5 -10t-35.5 -47t49 -105l205 -309l237 317q39 53 39 91z" />
    <glyph glyph-name="Y" unicode="Y" horiz-adv-x="1363" 
d="M834 207q0 -84 39.5 -103.5t142.5 -31.5v-72h-658v72q104 12 144.5 31.5t40.5 103.5v346l-412 737q-23 41 -50.5 55.5t-70.5 20.5v72h617v-72q-94 -2 -127 -18.5t-33 -50.5t12.5 -59.5t30.5 -57.5l285 -498l266 494q43 83 43 119t-37 52.5t-125 18.5v72h412v-72
q-43 -6 -72 -21.5t-49 -54.5l-399 -733v-350z" />
    <glyph glyph-name="Z" unicode="Z" horiz-adv-x="1243" 
d="M748 82q129 0 200.5 75.5t188.5 282.5h69l-71 -440h-1098v53l774 1303h-340q-131 0 -184.5 -73t-134.5 -257h-68l16 412h1067v-54l-770 -1302h351z" />
    <glyph glyph-name="bracketleft" unicode="[" horiz-adv-x="665" 
d="M362 1386v-1484q0 -80 50.5 -97.5t173.5 -25.5v-68h-412v1866h412v-68q-123 -8 -173.5 -25.5t-50.5 -97.5z" />
    <glyph glyph-name="backslash" unicode="\" horiz-adv-x="755" 
d="M629 -289l-592 1866h123l590 -1866h-121z" />
    <glyph glyph-name="bracketright" unicode="]" horiz-adv-x="665" 
d="M301 -98v1484q0 80 -49 97.5t-172 25.5v68h412v-1866h-412v68q123 8 172 25.5t49 97.5z" />
    <glyph glyph-name="asciicircum" unicode="^" horiz-adv-x="952" 
d="M543 1577l338 -594h-123l-281 502l-282 -502h-121l338 594h131z" />
    <glyph glyph-name="underscore" unicode="_" horiz-adv-x="825" 
d="M784 -254h-743v119h743v-119z" />
    <glyph glyph-name="grave" unicode="`" 
d="M299 1563h289l112 -340h-71l-330 325v15z" />
    <glyph glyph-name="a" unicode="a" horiz-adv-x="1073" 
d="M111 848q0 127 116.5 192.5t300.5 65.5t288 -79t104 -257v-543q0 -51 14 -82.5t54 -31.5t81 20l12 -45q-95 -108 -233 -108q-82 0 -136.5 48t-68.5 132q-49 -63 -129 -119.5t-196 -56.5t-193.5 70.5t-77.5 197.5t83 192.5t198 108.5l309 113v174q0 200 -145 200
q-74 0 -106 -49t-32 -118t17 -132l-170 -22q-90 31 -90 129zM479 143q45 0 80 16.5t78 49.5v383l-176 -72q-63 -25 -101 -66.5t-38 -124.5t37.5 -134.5t119.5 -51.5z" />
    <glyph glyph-name="b" unicode="b" horiz-adv-x="1206" 
d="M408 291q0 -236 186 -236q129 0 203.5 132t74.5 320.5t-70.5 307.5t-213.5 119q-106 0 -180 -72v-571zM596 -20q-298 0 -473 143v1276l-123 63v43l362 99h46v-691q51 76 136 134.5t208 58.5q186 0 296.5 -131t110.5 -367q0 -299 -164 -463.5t-399 -164.5z" />
    <glyph glyph-name="c" unicode="c" horiz-adv-x="966" 
d="M541 1028q-117 0 -181.5 -116t-64.5 -302t88 -307t242 -121q184 0 286 152l35 -21q-47 -166 -157.5 -249.5t-266.5 -83.5q-205 0 -341 143t-136 391t144.5 420t385.5 172q150 0 245 -61.5t95 -178.5q0 -49 -22.5 -86t-54.5 -51h-156l8 100q0 82 -31.5 140.5t-117.5 58.5z
" />
    <glyph glyph-name="d" unicode="d" horiz-adv-x="1230" 
d="M567 1102q142 0 221 -72v369l-122 63v43l362 99h45v-1387q0 -51 12.5 -72.5t69.5 -25.5l51 -4v-62l-372 -73h-54l8 190q-132 -190 -322 -190q-191 0 -306 140t-115 372q0 289 151.5 449.5t370.5 160.5zM614 154q107 0 174 65v541q0 119 -49 186.5t-141 67.5
q-129 0 -200.5 -117t-71.5 -305t74.5 -313t213.5 -125z" />
    <glyph glyph-name="e" unicode="e" horiz-adv-x="1013" 
d="M717 707q0 323 -142.5 323t-199 -91t-68.5 -232h410zM643 174q191 0 305 166l33 -18q-39 -152 -150.5 -247t-287.5 -95q-221 0 -358.5 150t-137.5 398t148.5 413t355.5 165t313.5 -122t106.5 -306v-47h-668q-6 -213 92.5 -335t247.5 -122z" />
    <glyph glyph-name="f" unicode="f" horiz-adv-x="710" 
d="M567 1532q-110 0 -110 -180v-267h252v-94h-252v-817q0 -63 39 -80.5t133 -25.5v-68h-584v68q70 4 98.5 20t28.5 70v833h-149v56l149 49v86q0 213 121 317.5t303 104.5q135 0 201.5 -46.5t66.5 -129.5t-69 -113h-150q8 63 8 101t-17.5 77t-68.5 39z" />
    <glyph glyph-name="g" unicode="g" horiz-adv-x="1077" 
d="M501 1036q-163 0 -163 -275q0 -122 44 -214t134 -92q158 0 158 199.5t-43 290.5t-130 91zM184 -167q0 -89 85 -149.5t232 -60.5t262.5 53.5t115.5 167.5q0 68 -43 95.5t-119 27.5h-494q-39 -45 -39 -134zM190 -6q-127 50 -127 200q0 76 60.5 137.5t130.5 106.5
q-82 39 -135 112t-53 181q0 176 128 275.5t318 99.5q69 0 182 -29l346 8v-118h-84l-143 6q53 -35 91 -97.5t38 -138.5q0 -162 -124 -256t-314 -94q-116 0 -207 33q-70 -65 -70 -110.5t19.5 -64t52.5 -18.5h422q178 0 269 -72.5t91 -207.5q0 -193 -172.5 -297.5
t-410.5 -104.5t-369 66.5t-131 189.5q0 78 59.5 124t132.5 69z" />
    <glyph glyph-name="h" unicode="h" horiz-adv-x="1267" 
d="M667 934q-93 0 -218 -84v-692q0 -53 27.5 -69.5t96.5 -20.5v-68h-536v68q70 4 98.5 20.5t28.5 69.5v1241l-123 63v43l362 99h46v-699q63 76 155 138.5t228 62.5t212 -85t76 -251v-612q0 -53 29 -69.5t98 -20.5v-68h-536v68q70 4 97.5 20t27.5 70v598q0 88 -38 133
t-131 45z" />
    <glyph glyph-name="i" unicode="i" horiz-adv-x="614" 
d="M310 1229q-75 0 -121 49t-46 114t46.5 112.5t120.5 47.5t120.5 -48t46.5 -112t-46 -113.5t-121 -49.5zM455 1106v-948q0 -53 28.5 -69.5t100.5 -20.5v-68h-541v68q72 4 100.5 20t28.5 70v725l-123 71v39l361 113h45z" />
    <glyph glyph-name="j" unicode="j" horiz-adv-x="559" 
d="M282 1229q-75 0 -121 49t-46 114t46 112.5t121 47.5t121 -48t46 -112t-46 -113.5t-121 -49.5zM428 1106v-911q0 -154 -42 -294t-361 -347l-31 32l84 140q49 82 58 177t9 216v764l-122 71v39l360 113h45z" />
    <glyph glyph-name="k" unicode="k" horiz-adv-x="1200" 
d="M166 158v1241l-123 63v43l363 99h45v-1446q0 -53 28.5 -69.5t98.5 -20.5v-68h-539v68q70 4 98.5 20.5t28.5 69.5zM850 965q0 25 -29.5 35t-101.5 18v67h436v-67q-55 -10 -92 -25.5t-74 -50.5l-272 -252l483 -643v-47h-303l-428 582l322 292q31 27 45 46.5t14 44.5z" />
    <glyph glyph-name="l" unicode="l" horiz-adv-x="608" 
d="M451 1604v-1446q0 -53 28.5 -69.5t98.5 -20.5v-68h-539v68q70 4 98.5 20t28.5 70v1241l-123 63v43l363 99h45z" />
    <glyph glyph-name="m" unicode="m" horiz-adv-x="1890" 
d="M815 758q1 176 -137 176q-70 0 -122 -25.5t-101 -58.5v-692q0 -53 26.5 -69.5t96.5 -20.5v-68h-535v68q72 4 100.5 20t28.5 70v725l-123 71v39l367 113h47l-8 -203q63 82 150 142.5t216 60.5q227 0 266 -207q63 82 155.5 144.5t219.5 62.5q281 0 281 -330v-618
q0 -53 28.5 -69.5t98.5 -20.5v-68h-533v68q70 4 95.5 20.5t25.5 69.5v600q0 88 -33.5 132t-121.5 44t-203 -86v-690q0 -53 25.5 -69.5t95.5 -20.5v-68h-529v68q72 4 97.5 20t25.5 70v600z" />
    <glyph glyph-name="n" unicode="n" horiz-adv-x="1275" 
d="M674 934q-94 0 -219 -84v-692q0 -53 27.5 -69.5t97.5 -20.5v-68h-537v68q72 4 100.5 20t28.5 70v725l-123 71v39l367 113h47l-8 -201q66 76 158 138.5t228 62.5t210.5 -84t74.5 -250v-614q0 -53 29 -69.5t98 -20.5v-68h-536v68q70 4 97.5 20.5t27.5 69.5v598
q0 88 -37 133t-131 45z" />
    <glyph glyph-name="o" unicode="o" horiz-adv-x="1148" 
d="M568 -20q-230 0 -376.5 147t-146.5 399t152.5 416t382.5 164t377 -149.5t147 -400.5t-153 -413.5t-383 -162.5zM572 1030q-226 0 -226 -452q0 -213 56.5 -369t174.5 -156q224 0 224 455q0 213 -55.5 367.5t-173.5 154.5z" />
    <glyph glyph-name="p" unicode="p" horiz-adv-x="1236" 
d="M643 -20q-140 0 -205 57v-307q0 -57 36 -72.5t132 -24.5v-67h-579v67q70 4 98.5 21t28.5 70v1159l-123 71v39l366 113h49l-8 -193q51 76 136 134.5t208 58.5q186 0 297 -131t111 -367q0 -299 -160 -463.5t-387 -164.5zM438 293q0 -236 187 -236q129 0 203.5 131
t74.5 319.5t-70.5 307.5t-214.5 119q-104 0 -180 -72v-569z" />
    <glyph glyph-name="q" unicode="q" horiz-adv-x="1200" 
d="M564 1106q214 0 337 -127l127 123h55l-10 -230v-1148q0 -53 28.5 -69.5t98.5 -21.5v-67h-582v67q98 8 134 24t36 73v440q-134 -190 -323 -190q-190 0 -305 140t-115 372q0 289 152.5 451.5t366.5 162.5zM614 154q107 0 174 65v553q0 121 -52 188.5t-138 67.5
q-129 0 -200.5 -118t-71.5 -308t74.5 -319t213.5 -129z" />
    <glyph glyph-name="r" unicode="r" horiz-adv-x="841" 
d="M735 1106q60 0 90 -35v-221h-39q-94 0 -173.5 -16.5t-157.5 -94.5v-565q0 -63 40 -80.5t134 -25.5v-68h-586v68q72 4 100.5 20t28.5 70v725l-123 71v39l367 113h47l-8 -303q74 166 132 234.5t148 68.5z" />
    <glyph glyph-name="s" unicode="s" horiz-adv-x="931" 
d="M472 1106q181 0 321 -90v-248h-70q-25 111 -90.5 188.5t-158.5 77.5t-137 -42t-44 -110t51.5 -109.5t193.5 -91.5t235 -128.5t93 -234.5t-113.5 -247t-320.5 -91t-350 102l-12 280h75q33 -133 112 -222t196 -89q82 0 138 41t56 124t-58.5 126t-200.5 93t-226 126.5
t-84 224.5t106.5 234t287.5 86z" />
    <glyph glyph-name="t" unicode="t" horiz-adv-x="737" 
d="M131 297v694h-127v47q104 47 194.5 130t155.5 184h62v-267h266v-94h-266v-678q0 -94 35.5 -136t109.5 -42t152 58l24 -37q-113 -176 -315 -176q-125 0 -208 72.5t-83 244.5z" />
    <glyph glyph-name="u" unicode="u" horiz-adv-x="1230" 
d="M420 348q0 -198 160 -198q61 0 110 22.5t98 54.5v617q0 51 -17 77.5t-77 36.5l-30 7v61l372 78h45l-8 -240v-647q0 -51 12.5 -72.5t69.5 -25.5l51 -4v-62l-372 -73h-52l6 196q-63 -72 -149 -134t-214 -62t-209 79.5t-81 251.5v533q0 51 -17.5 77.5t-76.5 36.5l-33 7v61
l377 78h45l-10 -244v-512z" />
    <glyph glyph-name="v" unicode="v" horiz-adv-x="1157" 
d="M1147 1085v-67q-55 -14 -72.5 -29.5t-32.5 -48.5l-405 -954h-76l-446 954q-14 33 -31.5 48.5t-73.5 29.5v67h557v-67q-78 -8 -107.5 -21.5t-29.5 -39.5t12 -66l246 -567l230 569q14 35 14 63t-30 40t-109 22v67h354z" />
    <glyph glyph-name="w" unicode="w" horiz-adv-x="1714" 
d="M1362 1085h342v-67q-53 -14 -71.5 -29.5t-33.5 -48.5l-387 -954h-88l-245 661l-273 -661h-86l-405 954q-14 33 -31.5 48.5t-73.5 29.5v67h535v-67q-57 -8 -87 -21.5t-30 -46.5t12 -57l217 -563l177 438l-64 172q-12 33 -31.5 48.5t-68.5 29.5v67h520v-67
q-63 -8 -97 -20.5t-34 -42.5t8 -62l197 -549l215 549q10 35 10 63t-32 41t-95 21v67z" />
    <glyph glyph-name="x" unicode="x" horiz-adv-x="1173" 
d="M584 1018q-107 -8 -107 -47q0 -25 31 -76l156 -219l163 215q33 54 33 72q0 47 -106 55v67h358v-67q-102 -24 -139 -82l-256 -334l325 -457q20 -31 45 -48t76 -29v-68h-545v68q57 2 88 12t31 33t-35 77l-198 277l-207 -274q-27 -35 -27 -64q0 -57 125 -61v-68h-385v68
q98 23 140 79l301 396l-283 397q-20 29 -43 46.5t-74 31.5v67h533v-67z" />
    <glyph glyph-name="y" unicode="y" horiz-adv-x="1153" 
d="M308 -270q73 0 126 29.5t86 113.5l35 88l-440 979q-14 33 -31.5 48.5t-73.5 29.5v67h557v-67q-78 -8 -108.5 -21.5t-30.5 -41.5t12 -64l246 -606l229 606q15 34 15 63t-30 42.5t-109 21.5v67h352v-67q-53 -14 -71.5 -29.5t-33.5 -48.5l-450 -1135q-51 -123 -110.5 -189.5
t-160.5 -66.5q-51 0 -97 25t-60 70v104q75 -18 148 -18z" />
    <glyph glyph-name="z" unicode="z" horiz-adv-x="1040" 
d="M51 0v47l600 954h-243q-86 0 -141.5 -68.5t-114.5 -227.5h-66l33 444h59l31 -68h768v-51l-586 -950h262q90 0 150.5 69.5t126.5 241.5h63l-39 -391h-903z" />
    <glyph glyph-name="braceleft" unicode="{" horiz-adv-x="724" 
d="M272 864v451q0 121 96.5 191.5t282.5 70.5v-51q-182 -18 -182 -201v-442q0 -111 -59.5 -161t-163.5 -77q104 -27 163.5 -78t59.5 -161v-441q0 -102 50 -147t132 -54v-51q-186 0 -282.5 71t-96.5 191v449q0 173 -170 205v30q170 32 170 205z" />
    <glyph glyph-name="bar" unicode="|" horiz-adv-x="432" 
d="M272 1577v-1866h-114v1866h114z" />
    <glyph glyph-name="braceright" unicode="}" horiz-adv-x="735" 
d="M463 424v-449q0 -121 -97.5 -191.5t-281.5 -70.5v51q180 18 180 201v441q0 111 60.5 161.5t164.5 77.5q-104 27 -164.5 77t-60.5 161v442q0 183 -180 201v51q184 0 281.5 -70.5t97.5 -191.5v-451q0 -173 170 -205v-30q-170 -32 -170 -205z" />
    <glyph glyph-name="asciitilde" unicode="~" horiz-adv-x="966" 
d="M640 467q-97 0 -182.5 72.5t-155.5 72.5t-109 -36.5t-74 -96.5l-58 21q45 143 107 218t160 75t183 -74t155 -74t108.5 37t73.5 98l57 -22q-45 -143 -106.5 -217t-158.5 -74z" />
    <glyph glyph-name="exclamdown" unicode="&#xa1;" horiz-adv-x="544" 
d="M233 766h78l138 -989h-353zM102 1064q0 71 50.5 121t120 50t119.5 -50t50 -121t-50 -122t-119.5 -51t-120 51t-50.5 122z" />
    <glyph glyph-name="cent" unicode="&#xa2;" horiz-adv-x="1075" 
d="M313 654q0 -304 156 -416l158 817q-6 2 -7 2h-22q-129 0 -207 -122.5t-78 -280.5zM567 -20q-21 0 -78 6l-40 -215h-70l43 227q-160 43 -258 181t-98 341q0 262 152.5 437.5t408.5 175.5h16l41 213h72l-43 -220q123 -14 203.5 -74.5t80.5 -162.5q0 -51 -24.5 -87
t-59.5 -52h-141q8 54 8 110q0 138 -86 176l-162 -835q60 -27 140 -27q195 0 311 168l35 -20q-49 -172 -168 -257t-283 -85z" />
    <glyph glyph-name="sterling" unicode="&#xa3;" horiz-adv-x="1347" 
d="M225 303q-53 0 -87 -31.5t-34 -87.5t31 -85t81 -29t91 47t51 147q-80 39 -133 39zM230 381q80 0 139 -21l34 357h-196v76h205l14 131q25 274 156 404t350 130q141 0 240.5 -56t99.5 -169q0 -53 -29 -93t-65 -55h-162q18 61 18 134q0 74 -20 126t-96 52t-117 -93.5
t-60 -226.5l-41 -284h332v-76h-342l-18 -142q-17 -176 -68 -280q82 -39 193.5 -65.5t212.5 -26.5q204 0 204 162q0 25 -10 65l39 10q64 -80 64 -198t-83.5 -190t-225.5 -72t-264 60t-197 124q-43 -82 -120 -133t-181 -51t-160 56t-56 148t65 144.5t145 52.5z" />
    <glyph glyph-name="yen" unicode="&#xa5;" horiz-adv-x="1347" 
d="M825 500h338v-78h-338v-215q0 -84 40 -103.5t143 -31.5v-72h-658v72q102 12 143.5 31.5t41.5 103.5v215h-345v78h345v67l-56 99h-289v77h246l-305 547q-23 41 -50.5 55.5t-70.5 20.5v72h619v-72q-94 -2 -127 -18.5t-33 -50.5t11.5 -59.5t29.5 -57.5l270 -492l262 488
q35 72 35 114q0 41 -35.5 57.5t-123.5 18.5v72h419v-72q-43 -6 -71.5 -21.5t-48.5 -54.5l-297 -547h243v-77h-286l-52 -97v-69z" />
    <glyph glyph-name="section" unicode="&#xa7;" horiz-adv-x="1073" 
d="M913 1252q0 -85 -82 -117h-153v61q0 66 -26 133.5t-112 67.5t-117.5 -44t-31.5 -102q0 -119 108.5 -258t214.5 -286t179.5 -301t73.5 -330q0 -219 -145.5 -354.5t-344.5 -135.5q-154 0 -235.5 59.5t-81.5 146.5t84 118h151v-64q0 -63 27 -131.5t112 -68.5t117.5 44
t32.5 101q0 119 -109 259t-215 288t-180 301.5t-74 329.5q0 219 145.5 354t344.5 135q154 0 235.5 -60.5t81.5 -145.5zM186 987q0 -180 69 -322.5t164 -274.5t220 -301t121 -335q127 123 127 322q0 160 -68.5 302t-164.5 274t-220.5 301t-120.5 337q-127 -123 -127 -303z
" />
    <glyph glyph-name="dieresis" unicode="&#xa8;" 
d="M565 1390.5q0 61.5 43.5 105.5t105.5 44t106 -44t44 -105.5t-44 -105.5t-105 -44t-105.5 44t-44.5 105.5zM168 1390.5q0 61.5 44 105.5t106 44t106.5 -44t44.5 -105.5t-44.5 -105.5t-106.5 -44t-106 44t-44 105.5z" />
    <glyph glyph-name="copyright" unicode="&#xa9;" horiz-adv-x="1613" 
d="M618 718q0 -152 61 -257t163 -105t152 63.5t85 172.5h60l-19 -227q-128 -74 -282 -74q-197 0 -311.5 117.5t-114.5 311.5t127 314.5t297 120.5t278 -84v-205h-57q-47 224 -205 224q-119 0 -176.5 -110t-57.5 -262zM74 719q0 305 206.5 522t526 217t526.5 -217t207 -522
t-207 -522t-526.5 -217t-526 217t-206.5 522zM135 718.5q0 -280.5 188.5 -481t482.5 -200.5t483.5 200.5t189.5 481t-189.5 481.5t-483.5 201t-482.5 -201t-188.5 -481.5z" />
    <glyph glyph-name="ordfeminine" unicode="&#xaa;" horiz-adv-x="784" 
d="M449 1253q-1 156 -91 156t-90 -104q0 -45 13 -86l-125 -17q-58 17 -58 93q0 75 77 119t202 44t191.5 -54t66.5 -183v-322q0 -82 49 -82q28 0 61 14l9 -30q-63 -76 -158 -76q-57 0 -96 34t-47 91q-85 -121 -219 -121q-74 0 -123.5 47t-49.5 129t54.5 124t130.5 69l203 69
v86zM343 840q46 0 106 45v231l-107 -45q-92 -38 -92 -134q0 -97 93 -97z" />
    <glyph glyph-name="guillemotleft" unicode="&#xab;" horiz-adv-x="937" 
d="M418 557v12l385 402h78l-219 -408l219 -407h-78zM59 557v12l385 402h78l-219 -408l219 -407h-78z" />
    <glyph glyph-name="registered" unicode="&#xae;" horiz-adv-x="1054" 
d="M61 992q0 192 131.5 329t334 137t334.5 -137t132 -329t-132 -329t-334.5 -137t-334 137t-131.5 329zM119 992q0 -167 114.5 -289.5t293 -122.5t294 122.5t115.5 289.5t-115.5 290t-294 123t-293 -123t-114.5 -290zM307 1243h228q100 0 147 -42t47 -98t-37 -90t-80 -44
l88 -119q18 -27 36 -41t50 -16v-33h-131q-35 18 -71 78l-80 118h-31v-112q0 -31 11.5 -41t43.5 -10v-33h-221v33q33 0 45.5 10t12.5 41v313q0 33 -12.5 41t-45.5 10v35zM510 1200h-37v-205h37q49 0 75.5 28t26.5 76t-26.5 74.5t-75.5 26.5z" />
    <glyph glyph-name="macron" unicode="&#xaf;" 
d="M236 1278v139h550v-139h-550z" />
    <glyph glyph-name="degree" unicode="&#xb0;" horiz-adv-x="573" 
d="M41 1214.5q0 102.5 71.5 173t174 70.5t174 -70.5t71.5 -173t-71.5 -172t-174 -69.5t-174 69.5t-71.5 172zM133 1214.5q0 -71.5 41 -117.5t112.5 -46t112.5 46t41 117.5t-41 117.5t-112.5 46t-112.5 -46t-41 -117.5z" />
    <glyph glyph-name="plusminus" unicode="&#xb1;" horiz-adv-x="1165" 
d="M133 289v121h899v-121h-899zM522 1239h119v-299h391v-119h-391v-297h-119v297h-389v119h389v299z" />
    <glyph glyph-name="twosuperior" unicode="&#xb2;" horiz-adv-x="780" 
d="M307 1315q-107 0 -192 -96l-35 28q41 80 120.5 143.5t195.5 63.5t180.5 -63t64.5 -181t-109 -213t-256 -206h218q59 0 86.5 17t66.5 85h37l-25 -268h-598v41l224 211q90 88 128 153.5t38 137.5t-37 109.5t-107 37.5z" />
    <glyph glyph-name="threesuperior" unicode="&#xb3;" horiz-adv-x="763" 
d="M238 821q0 -155 131 -155q61 0 97 42t36 126t-52.5 129t-148.5 45h-31l-10 39q94 33 140 71.5t46 89.5t-29.5 85t-89.5 34t-103.5 -30.5t-67.5 -69.5l-45 28q39 82 114 142.5t185 60.5t166.5 -50t56.5 -132t-66.5 -130.5t-142.5 -64.5q117 -6 187.5 -66.5t70.5 -168.5
t-97.5 -170t-232.5 -62t-205.5 51.5t-70.5 120.5q0 35 16.5 58.5t36.5 32.5h117q-8 -28 -8 -56z" />
    <glyph glyph-name="acute" unicode="&#xb4;" 
d="M700 1563v-15l-329 -325h-72l113 340h288z" />
    <glyph glyph-name="paragraph" unicode="&#xb6;" horiz-adv-x="1255" 
d="M377 942.5q0 -149.5 64.5 -290t211.5 -146.5v858q-147 -6 -211.5 -139t-64.5 -282.5zM653 -403v835q-272 0 -412.5 151.5t-140.5 358.5t140.5 351.5t412.5 144.5h551v-72q-109 -2 -159 -28.5t-50 -120.5v-1620h-88v1765h-168v-1765h-86z" />
    <glyph glyph-name="onesuperior" unicode="&#xb9;" horiz-adv-x="681" 
d="M438 1458v-686q0 -53 34 -65.5t122 -18.5v-59h-512v59q96 6 127 18.5t31 65.5v475h-158v49l51 11q94 14 148.5 51t103.5 100h53z" />
    <glyph glyph-name="ordmasculine" unicode="&#xba;" horiz-adv-x="811" 
d="M399.5 725q-153.5 0 -248 98.5t-94.5 262.5t100.5 268t254 104t248 -98t94.5 -262t-100.5 -268.5t-254 -104.5zM409 784q144 0 144 285q0 135 -37 232.5t-113 97.5q-145 0 -145 -285q0 -135 38 -232.5t113 -97.5z" />
    <glyph glyph-name="guillemotright" unicode="&#xbb;" horiz-adv-x="937" 
d="M522 569v-12l-387 -401h-76l220 407l-220 408h76zM881 569v-12l-387 -401h-76l219 407l-219 408h76z" />
    <glyph glyph-name="onequarter" unicode="&#xbc;" horiz-adv-x="1591" 
d="M305 -20l897 1478h94l-897 -1478h-94zM1466 0h-438v57q74 6 97.5 18.5t23.5 65.5v76h-391v49l442 553h146v-534h161v-68h-161v-76q0 -53 24.5 -65.5t95.5 -18.5v-57zM438 1458v-686q0 -53 34 -65.5t122 -18.5v-59h-512v59q96 6 127 18.5t31 65.5v475h-158v49l51 11
q92 18 147.5 53t104.5 98h53zM1149 285v356l-289 -356h289z" />
    <glyph glyph-name="onehalf" unicode="&#xbd;" horiz-adv-x="1626" 
d="M305 -20l897 1478h94l-897 -1478h-94zM1153 688q-111 0 -192 -94l-33 29q39 80 118.5 142t195.5 62t180.5 -61t64.5 -180t-107.5 -215t-257.5 -207h217q59 0 87 18.5t67 83.5h37l-25 -266h-598v39l223 213q90 88 128 153.5t38 136.5q0 146 -143 146zM438 1458v-686
q0 -53 34 -65.5t122 -18.5v-59h-512v59q96 6 127 18.5t31 65.5v475h-158v49l51 11q94 14 148.5 51t103.5 100h53z" />
    <glyph glyph-name="threequarters" unicode="&#xbe;" horiz-adv-x="1622" 
d="M1497 0h-438v57q74 6 97.5 18.5t23.5 65.5v76h-392v49l443 553h145v-534h162v-68h-162v-76q0 -53 24.5 -65.5t96.5 -18.5v-57zM336 -20l897 1478h94l-897 -1478h-94zM1180 285v356l-289 -356h289zM238 821q0 -155 131 -155q61 0 97 42t36 126t-52.5 129t-148.5 45h-31
l-10 39q94 33 140 71.5t46 89.5t-29.5 85t-89.5 34t-103.5 -30.5t-67.5 -69.5l-45 28q39 82 114 142.5t185 60.5t166.5 -50t56.5 -132t-66.5 -127.5t-142.5 -63.5q119 -4 188.5 -65.5t69.5 -169.5t-97.5 -172t-232.5 -64t-205.5 51.5t-70.5 120.5q0 35 16.5 58.5t36.5 32.5
h117q-8 -28 -8 -56z" />
    <glyph glyph-name="questiondown" unicode="&#xbf;" horiz-adv-x="913" 
d="M672 1064q0 -71 -50.5 -122t-120 -51t-119.5 51t-50 122t50 121t119.5 50t120 -50t50.5 -121zM891 20q0 -117 -119.5 -190.5t-307.5 -73.5t-302.5 88t-114.5 258q0 129 80.5 218.5t184.5 159.5t142 120.5t38 132.5v47h34q45 -27 80 -84t35 -133q0 -144 -164 -270
q-78 -59 -133 -119t-55 -154t46 -147t136 -53t132 65.5t42 140.5t-6 111h188q64 -41 64 -117z" />
    <glyph glyph-name="Agrave" unicode="&#xc0;" horiz-adv-x="1490" 
d="M633 1178l-238 -617h484zM432 0h-422v72q43 6 74 20t47 55l447 1147l-64 154h320l526 -1301q16 -41 48 -55t73 -20v-72h-627v72q90 2 131 21t41 58t-18 91l-95 231h-551l-88 -229q-18 -52 -18 -90q0 -78 176 -82v-72zM375 1835h295l106 -305h-76l-325 291v14z" />
    <glyph glyph-name="Aacute" unicode="&#xc1;" horiz-adv-x="1490" 
d="M633 1178l-238 -617h484zM432 0h-422v72q43 6 74 20t47 55l447 1147l-64 154h320l526 -1301q16 -41 48 -55t73 -20v-72h-627v72q90 2 131 21t41 58t-18 91l-95 231h-551l-88 -229q-18 -52 -18 -90q0 -78 176 -82v-72zM1018 1835v-14l-326 -291h-76l107 305h295z" />
    <glyph glyph-name="Acircumflex" unicode="&#xc2;" horiz-adv-x="1490" 
d="M633 1178l-238 -617h484zM432 0h-422v72q43 6 74 20t47 55l447 1147l-64 154h320l526 -1301q16 -41 48 -55t73 -20v-72h-627v72q90 2 131 21t41 58t-18 91l-95 231h-551l-88 -229q-18 -52 -18 -90q0 -78 176 -82v-72zM803 1849l256 -319h-82l-272 168l-273 -168h-82
l256 319h197z" />
    <glyph glyph-name="Atilde" unicode="&#xc3;" horiz-adv-x="1490" 
d="M633 1178l-238 -617h484zM432 0h-422v72q43 6 74 20t47 55l447 1147l-64 154h320l526 -1301q16 -41 48 -55t73 -20v-72h-627v72q90 2 131 21t41 58t-18 91l-95 231h-551l-88 -229q-18 -52 -18 -90q0 -78 176 -82v-72zM835 1530q-83 0 -149 60t-122 60t-89 -28
q-33 -29 -65 -86l-56 31q52 133 104 195t134 62t148 -60q66 -62 121 -62q56 0 89 30t66 87l55 -33q-53 -132 -103 -194t-133 -62z" />
    <glyph glyph-name="Adieresis" unicode="&#xc4;" horiz-adv-x="1490" 
d="M633 1178l-238 -617h484zM432 0h-422v72q43 6 74 20t47 55l447 1147l-64 154h320l526 -1301q16 -41 48 -55t73 -20v-72h-627v72q90 2 131 21t41 58t-18 91l-95 231h-551l-88 -229q-18 -52 -18 -90q0 -78 176 -82v-72zM760 1684q0 60 43 104t105 45q62 0 106 -44
q44 -45 45 -105q0 -60 -44 -105q-45 -45 -107 -45t-105 45t-43 105zM352 1684q0 60 43 104t105 45q62 0 107 -44q44 -45 44 -105t-44 -105t-106 -45t-106 45q-43 45 -43 105z" />
    <glyph glyph-name="Aring" unicode="&#xc5;" horiz-adv-x="1490" 
d="M633 1178l-238 -617h484zM432 0h-422v72q43 6 74 20t47 55l447 1147l-64 154h320l526 -1301q16 -41 48 -55t73 -20v-72h-627v72q90 2 131 21t41 58t-18 91l-95 231h-551l-88 -229q-18 -52 -18 -90q0 -78 176 -82v-72zM496 1688q0 82 56 137t140 55t138 -55t54 -137
t-54 -138t-138 -55q-84 -1 -140 55t-56 138zM586 1688q0 -47 28 -79t78 -32q51 0 79 32t28 79q0 46 -28 78t-79 32q-50 0 -78 -32t-28 -78z" />
    <glyph glyph-name="AE" unicode="&#xc6;" horiz-adv-x="2091" 
d="M1010 594v739l-475 -739h475zM662 1438h1308l10 -369h-61q-74 166 -137.5 226.5t-186.5 60.5h-286v-570h260q70 0 98.5 45.5t42.5 143.5h74v-465h-74q-14 98 -43 142t-98 44h-260v-475q0 -82 44 -110.5t138 -28.5h129q123 0 190.5 72.5t169.5 255.5h72l-63 -410h-1143v72
q106 12 135 34.5t29 106.5v293h-533l-168 -262q-33 -59 -33 -84q0 -84 191 -88v-72h-457v72q43 6 68.5 22t52.5 53l735 1143q-34 67 -204 76v72z" />
    <glyph glyph-name="Ccedilla" unicode="&#xc7;" horiz-adv-x="1343" 
d="M946 -250q0 -111 -108.5 -162t-262.5 -51l-14 64q111 0 169 29.5t58 73.5t-44 61.5t-126 19.5l80 199q-295 25 -466 214t-171 486q0 354 210 564t496 210t470 -121l2 -329h-78q-76 364 -368 364q-211 0 -312.5 -186t-101.5 -458t111.5 -466t320.5 -194q143 0 242.5 98
t152.5 321h82l-31 -385q-193 -122 -473 -122l-20 2l-29 -72q94 0 152.5 -41t58.5 -119z" />
    <glyph glyph-name="Egrave" unicode="&#xc8;" horiz-adv-x="1300" 
d="M55 0v72q106 12 135 34t29 107v1012q0 85 -29 107t-135 34v72h1125l10 -369h-60q-76 166 -138 226t-185 61h-287v-570h260q68 0 98 45t44 144h71v-465h-71q-14 98 -44 142t-98 44h-260v-475q0 -83 44 -111t138 -28h127q123 0 191 73t170 255h72l-64 -410h-1143zM383 1835
h295l106 -305h-75l-326 291v14z" />
    <glyph glyph-name="Eacute" unicode="&#xc9;" horiz-adv-x="1300" 
d="M55 0v72q106 12 135 34t29 107v1012q0 85 -29 107t-135 34v72h1125l10 -369h-60q-76 166 -138 226t-185 61h-287v-570h260q68 0 98 45t44 144h71v-465h-71q-14 98 -44 142t-98 44h-260v-475q0 -83 44 -111t138 -28h127q123 0 191 73t170 255h72l-64 -410h-1143z
M1001 1835v-14l-325 -291h-76l107 305h294z" />
    <glyph glyph-name="Ecircumflex" unicode="&#xca;" horiz-adv-x="1300" 
d="M55 0v72q106 12 135 34t29 107v1012q0 85 -29 107t-135 34v72h1125l10 -369h-60q-76 166 -138 226t-185 61h-287v-570h260q68 0 98 45t44 144h71v-465h-71q-14 98 -44 142t-98 44h-260v-475q0 -83 44 -111t138 -28h127q123 0 191 73t170 255h72l-64 -410h-1143zM786 1849
l256 -319h-81l-273 168l-272 -168h-82l256 319h196z" />
    <glyph glyph-name="Edieresis" unicode="&#xcb;" horiz-adv-x="1300" 
d="M55 0v72q106 12 135 34t29 107v1012q0 85 -29 107t-135 34v72h1125l10 -369h-60q-76 166 -138 226t-185 61h-287v-570h260q68 0 98 45t44 144h71v-465h-71q-14 98 -44 142t-98 44h-260v-475q0 -83 44 -111t138 -28h127q123 0 191 73t170 255h72l-64 -410h-1143zM743 1684
q0 60 43 104q44 44 106 45q62 0 106 -44q44 -45 44 -105t-44 -105t-106 -45t-106 45q-43 45 -43 105zM336 1684q0 60 43 104t105 45q62 0 106 -44q44 -45 45 -105q0 -60 -44 -105q-45 -45 -107 -45t-105 45t-43 105z" />
    <glyph glyph-name="Igrave" unicode="&#xcc;" horiz-adv-x="739" 
d="M520 1225v-1012q0 -84 29 -107t135 -34v-72h-629v72q106 12 135 34t29 107v1012q0 85 -29 107t-135 34v72h629v-72q-106 -12 -135 -34t-29 -107zM61 1835h295l107 -305h-76l-326 291v14z" />
    <glyph glyph-name="Iacute" unicode="&#xcd;" horiz-adv-x="739" 
d="M520 1225v-1012q0 -84 29 -107t135 -34v-72h-629v72q106 12 135 34t29 107v1012q0 85 -29 107t-135 34v72h629v-72q-106 -12 -135 -34t-29 -107zM682 1835v-14l-326 -291h-75l106 305h295z" />
    <glyph glyph-name="Icircumflex" unicode="&#xce;" horiz-adv-x="739" 
d="M520 1225v-1012q0 -84 29 -106.5t135 -34.5v-72h-629v72q106 12 135 34.5t29 106.5v1012q0 84 -28.5 106.5t-135.5 34.5v72h629v-72q-106 -12 -135 -34.5t-29 -106.5zM463 1849l244 -319h-78l-258 168l-258 -168h-78l241 319h187z" />
    <glyph glyph-name="Idieresis" unicode="&#xcf;" horiz-adv-x="739" 
d="M520 1225v-1012q0 -84 29 -107t135 -34v-72h-629v72q106 12 135 34t29 107v1012q0 85 -29 107t-135 34v72h629v-72q-106 -12 -135 -34t-29 -107zM424 1684q0 60 43 104t105 45q62 0 106 -44q44 -45 45 -105q0 -60 -44 -105q-45 -45 -107 -45t-105 45t-43 105zM16 1684
q0 60 43 104t105 45q62 0 107 -44q44 -45 44 -105t-44 -105t-106 -45t-106 45q-43 45 -43 105z" />
    <glyph glyph-name="Eth" unicode="&#xd0;" horiz-adv-x="1554" 
d="M651 1356h-110v-572h278v-98h-278v-459q0 -90 38.5 -117.5t120.5 -27.5h37q193 0 316 164t123 448t-127.5 473t-397.5 189zM76 686v98h164v441q0 84 -29 106.5t-135 34.5v72h629q406 0 597 -204t191 -486q0 -352 -212 -550t-538 -198h-667v72q106 12 135 34.5t29 106.5
v473h-164z" />
    <glyph glyph-name="Ntilde" unicode="&#xd1;" horiz-adv-x="1529" 
d="M1221 1223q0 81 -40 107t-165 36v72h477v-72q-106 -12 -135 -37t-29 -106v-1227h-100l-897 1132v-913q0 -81 39 -107t164 -36v-72h-478v72q109 12 137 37t27 106v1024q-45 65 -77 95t-89 32v72h420l746 -949v734zM927 1530q-83 0 -149 60t-122 60t-89 -28
q-33 -29 -65 -86l-56 31q52 133 104 195t134 62t148 -60q66 -62 122 -62t88 30t66 87l55 -33q-53 -132 -103 -194t-133 -62z" />
    <glyph glyph-name="Ograve" unicode="&#xd2;" horiz-adv-x="1478" 
d="M712 -20q-308 0 -480 215q-171 215 -171 495q0 350 199 559q198 209 506 209t480 -215t171 -495q0 -350 -198 -560q-199 -208 -507 -208zM1096 711q0 251 -87 457t-273 206t-270 -198q-85 -198 -85 -449q1 -252 89 -458t273 -206t269 198t84 450zM436 1835h295l107 -305
h-76l-326 291v14z" />
    <glyph glyph-name="Oacute" unicode="&#xd3;" horiz-adv-x="1478" 
d="M712 -20q-308 0 -480 215q-171 215 -171 495q0 350 199 559q198 209 506 209t480 -215t171 -495q0 -350 -198 -560q-199 -208 -507 -208zM1096 711q0 251 -87 457t-273 206t-270 -198q-85 -198 -85 -449q1 -252 89 -458t273 -206t269 198t84 450zM1057 1835v-14
l-326 -291h-76l107 305h295z" />
    <glyph glyph-name="Ocircumflex" unicode="&#xd4;" horiz-adv-x="1478" 
d="M712 -20q-308 0 -480 215q-171 215 -171 495q0 350 199 559q198 209 506 209t480 -215t171 -495q0 -350 -198 -560q-199 -208 -507 -208zM1096 711q0 251 -87 457t-273 206t-270 -198q-85 -198 -85 -449q1 -252 89 -458t273 -206t269 198t84 450zM842 1849l256 -319h-82
l-273 168l-272 -168h-82l256 319h197z" />
    <glyph glyph-name="Otilde" unicode="&#xd5;" horiz-adv-x="1478" 
d="M712 -20q-308 0 -480 215q-171 215 -171 495q0 350 199 559q198 209 506 209t480 -215t171 -495q0 -350 -198 -560q-199 -208 -507 -208zM1096 711q0 251 -87 457t-273 206t-270 -198q-85 -198 -85 -449q1 -252 89 -458t273 -206t269 198t84 450zM888 1530q-83 0 -149 60
t-122 60t-89 -28q-33 -29 -65 -86l-55 31q53 133 104 195t133 62t148 -60q66 -62 122 -62t89 30t65 87l55 -33q-53 -132 -103 -194t-133 -62z" />
    <glyph glyph-name="Odieresis" unicode="&#xd6;" horiz-adv-x="1478" 
d="M712 -20q-308 0 -480 215q-171 215 -171 495q0 350 199 559q198 209 506 209t480 -215t171 -495q0 -350 -198 -560q-199 -208 -507 -208zM1096 711q0 251 -87 457t-273 206t-270 -198q-85 -198 -85 -449q1 -252 89 -458t273 -206t269 198t84 450zM799 1684q0 60 43 104
t105 45q63 0 107 -44q44 -45 44 -105t-44 -105t-106 -45t-106 45q-43 45 -43 105zM391 1684q0 60 43 104q44 44 106 45q62 0 106 -44q44 -45 44 -105t-44 -105t-106 -45t-106 45q-43 45 -43 105z" />
    <glyph glyph-name="multiply" unicode="&#xd7;" horiz-adv-x="1009" 
d="M422 750l-287 286l82 82l287 -289l287 289l83 -82l-286 -286l286 -287l-83 -84l-287 289l-287 -289l-82 84z" />
    <glyph glyph-name="Oslash" unicode="&#xd8;" horiz-adv-x="1478" 
d="M1012 261q84 198 84 416t-47 388l-572 -817q99 -185 275 -185t260 198zM729 1374q-178 0 -263 -197.5t-85 -430.5t57 -408l576 821q-45 96 -116 155.5t-169 59.5zM752 1458q226 0 387 -119l129 185l67 -49l-131 -187q104 -100 158.5 -241.5t54.5 -298.5
q0 -350 -198.5 -559t-491.5 -209q-210 0 -367 100l-137 -195l-67 47l137 199q-113 100 -172.5 246.5t-59.5 312.5q0 350 199 559t492 209z" />
    <glyph glyph-name="Ugrave" unicode="&#xd9;" horiz-adv-x="1501" 
d="M487 1225v-705q0 -186 83 -294t251 -108t275 98q106 97 106 316v691q0 81 -35 107t-159 36v72h469v-72q-105 -12 -135 -37t-29 -106v-727q0 -262 -160 -390t-385 -126q-270 0 -425 129t-155 391v725q0 85 -28 107t-135 34v72h626v-72q-106 -12 -135 -34t-29 -107z
M506 1835h295l106 -305h-76l-325 291v14z" />
    <glyph glyph-name="Uacute" unicode="&#xda;" horiz-adv-x="1501" 
d="M487 1225v-705q0 -186 83 -294t251 -108t275 98q106 97 106 316v691q0 81 -35 107t-159 36v72h469v-72q-105 -12 -135 -37t-29 -106v-727q0 -262 -160 -390t-385 -126q-270 0 -425 129t-155 391v725q0 85 -28 107t-135 34v72h626v-72q-106 -12 -135 -34t-29 -107z
M1126 1835v-14l-325 -291h-76l106 305h295z" />
    <glyph glyph-name="Ucircumflex" unicode="&#xdb;" horiz-adv-x="1501" 
d="M487 1225v-705q0 -186 83 -294t251 -108t275 98q106 97 106 316v691q0 81 -35 107t-159 36v72h469v-72q-105 -12 -135 -37t-29 -106v-727q0 -262 -160 -390t-385 -126q-270 0 -425 129t-155 391v725q0 85 -28 107t-135 34v72h626v-72q-106 -12 -135 -34t-29 -107z
M911 1849l256 -319h-82l-272 168l-272 -168h-82l256 319h196z" />
    <glyph glyph-name="Udieresis" unicode="&#xdc;" horiz-adv-x="1501" 
d="M487 1225v-705q0 -186 83 -294t251 -108t275 98q106 97 106 316v691q0 81 -35 107t-159 36v72h469v-72q-105 -12 -135 -37t-29 -106v-727q0 -262 -160 -390t-385 -126q-270 0 -425 129t-155 391v725q0 85 -28 107t-135 34v72h626v-72q-106 -12 -135 -34t-29 -107z
M868 1684q0 60 43 104t105 45q62 0 107 -44q44 -45 44 -105t-44 -105t-106 -45t-106 45q-43 45 -43 105zM461 1684q0 60 43 104t105 45q63 0 107 -44q44 -45 44 -105t-44 -105t-106 -45t-106 45q-43 45 -43 105z" />
    <glyph glyph-name="Yacute" unicode="&#xdd;" horiz-adv-x="1363" 
d="M834 207q0 -84 39 -104q40 -19 143 -31v-72h-658v72q104 12 145 31q40 19 40 104v346l-412 737q-23 41 -50 56q-28 14 -71 20v72h617v-72q-94 -2 -127 -18t-33 -50t12 -60t31 -58l285 -498l266 494q43 83 43 119q0 37 -37 53t-125 18v72h412v-72q-43 -6 -72 -21t-49 -55
l-399 -733v-350zM1055 1835v-14l-326 -291h-76l107 305h295z" />
    <glyph glyph-name="Thorn" unicode="&#xde;" horiz-adv-x="1282" 
d="M520 1083v-696h88q170 0 251 92t81 250t-83 256t-249 98h-88zM520 1225v-60h162q287 0 426 -125.5t139 -313.5t-141 -307.5t-428 -119.5h-158v-72q0 -86 52.5 -115.5t193.5 -37.5v-74h-711v72q106 12 135 34.5t29 106.5v1012q0 84 -28.5 106.5t-135.5 34.5v72h629v-72
q-106 -12 -135 -34.5t-29 -106.5z" />
    <glyph glyph-name="germandbls" unicode="&#xdf;" horiz-adv-x="1368" 
d="M676 1604q198 0 312 -86t114 -215q0 -178 -144.5 -245t-144.5 -161q0 -49 65.5 -88t176.5 -105t187.5 -147t76.5 -233t-116 -248t-279 -96q-207 0 -328 108l-12 268h78q29 -125 95.5 -214t160.5 -89t141 45t47 129t-60.5 138.5t-174.5 120.5t-169 128t-55 154
q0 147 128 241.5t128 295.5q0 102 -52 167.5t-165 65.5t-171 -91t-58 -253v-1194h-412v68q70 4 98.5 20t28.5 70v833h-149v56l151 49v45q12 231 158 347t344 116z" />
    <glyph glyph-name="agrave" unicode="&#xe0;" horiz-adv-x="1073" 
d="M528 1106q184 0 288 -79t104 -257v-543q0 -51 14 -83t54 -32t81 21l12 -45q-97 -110 -233 -108q-82 0 -136 48t-69 132q-49 -64 -129 -120t-196 -56t-194 70q-77 70 -77 198q0 126 83 192t198 109l309 113v174q0 200 -145 200q-74 0 -106 -49t-32 -118t17 -132l-170 -22
q-92 31 -90 129q1 126 117 192t300 66zM474 143q77 0 163 66v383l-176 -72q-63 -25 -102 -66q-37 -42 -37 -125t38 -135t114 -51zM221 1563h289l113 -340h-72l-330 325v15z" />
    <glyph glyph-name="aacute" unicode="&#xe1;" horiz-adv-x="1073" 
d="M528 1106q184 0 288 -79t104 -257v-543q0 -51 14 -83t54 -32t81 21l12 -45q-97 -110 -233 -108q-82 0 -136 48t-69 132q-49 -64 -129 -120t-196 -56t-194 70q-77 70 -77 198q0 126 83 192t198 109l309 113v174q0 200 -145 200q-74 0 -106 -49t-32 -118t17 -132l-170 -22
q-92 31 -90 129q1 126 117 192t300 66zM474 143q77 0 163 66v383l-176 -72q-63 -25 -102 -66q-37 -42 -37 -125t38 -135t114 -51zM838 1563v-15l-330 -325h-72l113 340h289z" />
    <glyph glyph-name="acircumflex" unicode="&#xe2;" horiz-adv-x="1073" 
d="M528 1106q184 0 288 -79t104 -257v-543q0 -51 14 -83t54 -32t81 21l12 -45q-97 -110 -233 -108q-82 0 -136 48t-69 132q-49 -64 -129 -120t-196 -56t-194 70q-77 70 -77 198q0 126 83 192t198 109l309 113v174q0 200 -145 200q-74 0 -106 -49t-32 -118t17 -132l-170 -22
q-92 31 -90 129q1 126 117 192t300 66zM474 143q77 0 163 66v383l-176 -72q-63 -25 -102 -66q-37 -42 -37 -125t38 -135t114 -51zM625 1567l233 -350h-88l-244 196l-243 -196h-88l233 350h197z" />
    <glyph glyph-name="atilde" unicode="&#xe3;" horiz-adv-x="1073" 
d="M528 1106q184 0 288 -79t104 -257v-543q0 -51 14 -83t54 -32t81 21l12 -45q-97 -110 -233 -108q-82 0 -136 48t-69 132q-49 -64 -129 -120t-196 -56t-194 70q-77 70 -77 198q0 126 83 192t198 109l309 113v174q0 200 -145 200q-74 0 -106 -49t-32 -118t17 -132l-170 -22
q-92 31 -90 129q1 126 117 192t300 66zM474 143q77 0 163 66v383l-176 -72q-63 -25 -102 -66q-37 -42 -37 -125t38 -135t114 -51zM646 1231q-83 0 -142 61q-60 62 -116 62t-87 -30t-61 -85l-58 31q54 131 102 193q48 63 131 63t142 -60t115 -61q56 0 87 29q30 29 62 86
l56 -31q-53 -131 -101 -195t-130 -63z" />
    <glyph glyph-name="adieresis" unicode="&#xe4;" horiz-adv-x="1073" 
d="M528 1106q184 0 288 -79t104 -257v-543q0 -51 14 -83t54 -32t81 21l12 -45q-97 -110 -233 -108q-82 0 -136 48t-69 132q-49 -64 -129 -120t-196 -56t-194 70q-77 70 -77 198q0 126 83 192t198 109l309 113v174q0 200 -145 200q-74 0 -106 -49t-32 -118t17 -132l-170 -22
q-92 31 -90 129q1 126 117 192t300 66zM474 143q77 0 163 66v383l-176 -72q-63 -25 -102 -66q-37 -42 -37 -125t38 -135t114 -51zM575 1391q1 61 45 105t105 44t105 -44t44 -105t-44 -105t-105 -45q-61 1 -105 45t-45 105zM178 1391q0 61 44 105t106 44t107 -44
q44 -44 44 -105t-44 -105t-106 -45q-62 0 -107 44q-44 45 -44 106z" />
    <glyph glyph-name="aring" unicode="&#xe5;" horiz-adv-x="1073" 
d="M528 1106q184 0 288 -79t104 -257v-543q0 -51 14 -83t54 -32t81 21l12 -45q-97 -110 -233 -108q-82 0 -136 48t-69 132q-49 -64 -129 -120t-196 -56t-194 70q-77 70 -77 198q0 126 83 192t198 109l309 113v174q0 200 -145 200q-74 0 -106 -49t-32 -118t17 -132l-170 -22
q-92 31 -90 129q1 126 117 192t300 66zM474 143q77 0 163 66v383l-176 -72q-63 -25 -102 -66q-37 -42 -37 -125t38 -135t114 -51zM330 1363q0 81 56 136t140 55t138 -55t55 -136q0 -81 -54 -136q-55 -55 -139 -55t-140 54q-56 56 -56 137zM526 1475q-50 0 -78 -32t-28 -79
t28 -80t78 -33q51 0 79 33t28 80t-28 79t-79 32z" />
    <glyph glyph-name="ae" unicode="&#xe6;" horiz-adv-x="1562" 
d="M608 514v24q0 25 2 40l-139 -54q-72 -27 -110.5 -69.5t-38.5 -125.5t40 -134.5t129 -51.5t187 70q-70 129 -70 301zM1081.5 1030q-100.5 0 -150.5 -94t-63 -234h398q0 143 -42 235.5t-142.5 92.5zM1118 1106q191 0 296.5 -125t105.5 -309v-45h-656q-6 -211 87 -332
t247 -121q185 0 299 166l33 -18q-39 -152 -150.5 -247t-287.5 -95q-127 0 -225.5 51t-161.5 139q-63 -76 -151.5 -131t-220.5 -55t-209 70.5t-77 197.5t83 192.5t198 108.5l293 102q8 52 24 97q0 125 -40 206.5t-115 81.5q-136 0 -136 -172q0 -65 17 -127l-170 -22
q-90 31 -90 129q0 127 114.5 192.5t274.5 65.5q209 0 293 -121q134 121 325 121z" />
    <glyph glyph-name="ccedilla" unicode="&#xe7;" horiz-adv-x="966" 
d="M625 182q184 0 286 152l35 -21q-47 -166 -157.5 -249.5t-266.5 -83.5h-28l-29 -70q94 0 152.5 -41t58.5 -119q0 -111 -108.5 -162t-262.5 -51l-14 64q111 0 169 29.5t58 73.5t-44 61.5t-126 19.5l82 203q-170 31 -277.5 168t-107.5 350q0 256 144.5 428t385.5 172
q150 0 245 -61.5t95 -178.5q0 -49 -22.5 -86t-54.5 -51h-156l8 100q0 82 -31.5 140.5t-117.5 58.5q-117 0 -181.5 -116t-64.5 -302t88 -307t242 -121z" />
    <glyph glyph-name="egrave" unicode="&#xe8;" horiz-adv-x="1013" 
d="M717 707q0 323 -185 323q-100 0 -156 -91t-69 -232h410zM643 174q191 0 305 166l33 -18q-39 -152 -151 -247t-287 -95q-221 0 -359 149q-137 151 -137 399q1 248 149 413t355 165t313 -122t107 -306v-47h-668q-6 -213 92 -335t248 -122zM262 1563h289l113 -340h-72
l-330 325v15z" />
    <glyph glyph-name="eacute" unicode="&#xe9;" horiz-adv-x="1013" 
d="M717 707q0 323 -185 323q-100 0 -156 -91t-69 -232h410zM643 174q191 0 305 166l33 -18q-39 -152 -151 -247t-287 -95q-221 0 -359 149q-137 151 -137 399q1 248 149 413t355 165t313 -122t107 -306v-47h-668q-6 -213 92 -335t248 -122zM877 1563v-15l-330 -325h-72
l113 340h289z" />
    <glyph glyph-name="ecircumflex" unicode="&#xea;" horiz-adv-x="1013" 
d="M717 707q0 323 -185 323q-100 0 -156 -91t-69 -232h410zM643 174q191 0 305 166l33 -18q-39 -152 -151 -247t-287 -95q-221 0 -359 149q-137 151 -137 399q1 248 149 413t355 165t313 -122t107 -306v-47h-668q-6 -213 92 -335t248 -122zM657 1567l234 -350h-88l-244 196
l-244 -196h-88l234 350h196z" />
    <glyph glyph-name="edieresis" unicode="&#xeb;" horiz-adv-x="1013" 
d="M717 707q0 323 -185 323q-100 0 -156 -91t-69 -232h410zM643 174q191 0 305 166l33 -18q-39 -152 -151 -247t-287 -95q-221 0 -359 149q-137 151 -137 399q1 248 149 413t355 165t313 -122t107 -306v-47h-668q-6 -213 92 -335t248 -122zM608 1391q0 61 44 105t106 44
t105 -44q44 -44 44 -105t-44 -105t-105 -45q-61 0 -106 44q-44 45 -44 106zM211 1391q0 61 44 105t106 44q63 0 107 -44t44 -105t-44 -105t-106 -45q-62 1 -107 45q-44 44 -44 105z" />
    <glyph glyph-name="igrave" unicode="&#xec;" horiz-adv-x="614" 
d="M455 1106v-948q0 -53 28 -70q29 -16 101 -20v-68h-541v68q73 4 101 20t28 70v725l-123 71v39l361 113h45zM14 1563h289l113 -340h-72l-330 325v15z" />
    <glyph glyph-name="iacute" unicode="&#xed;" horiz-adv-x="614" 
d="M455 1106v-948q0 -53 28 -70q29 -16 101 -20v-68h-541v68q73 4 101 20t28 70v725l-123 71v39l361 113h45zM629 1563v-15l-330 -325h-72l113 340h289z" />
    <glyph glyph-name="icircumflex" unicode="&#xee;" horiz-adv-x="614" 
d="M455 1106v-948q0 -53 28.5 -69.5t100.5 -20.5v-68h-541v68q72 4 100.5 20t28.5 70v725l-123 71v39l361 113h45zM397 1567l211 -350h-80l-219 196l-221 -196h-80l211 350h178z" />
    <glyph glyph-name="idieresis" unicode="&#xef;" horiz-adv-x="614" 
d="M455 1106v-948q0 -53 28.5 -69.5t100.5 -20.5v-68h-541v68q72 4 100.5 20t28.5 70v725l-123 71v39l361 113h45zM350 1390.5q0 61.5 44 105.5t106 44t106.5 -44t44.5 -105.5t-44 -105.5t-106 -44t-106.5 44t-44.5 105.5zM-33 1390.5q0 61.5 43 105.5t106.5 44t106.5 -44
t43 -105.5t-43 -105.5t-106.5 -44t-106.5 44t-43 105.5z" />
    <glyph glyph-name="eth" unicode="&#xf0;" horiz-adv-x="1146" 
d="M574 1030q-226 0 -226 -452q0 -213 55.5 -369t173.5 -156q226 0 226 455q0 213 -55.5 367.5t-173.5 154.5zM1102 643q0 -299 -142.5 -481t-383.5 -182t-386 154t-145 406t154.5 408t351.5 156q142 0 219 -105q-62 184 -184 322l-344 -119l-25 72l309 106
q-128 120 -299 170l33 58q235 -52 420 -174l235 82l25 -74l-184 -64q172 -141 259 -335.5t87 -399.5z" />
    <glyph glyph-name="ntilde" unicode="&#xf1;" horiz-adv-x="1275" 
d="M676 934q-92 0 -221 -84v-692q0 -53 27 -70q28 -16 98 -20v-68h-537v68q73 4 101 20t28 70v725l-123 71v39l367 113h47l-8 -201q65 76 157 138q92 63 228 63t212 -84q75 -84 74 -250v-614q0 -54 29 -70t98 -20v-68h-536v68q69 4 97 20t28 70v598q0 88 -37 133t-129 45z
M788 1231q-82 0 -142 61q-60 62 -116 62t-88 -30q-31 -30 -61 -85l-57 31q55 131 102 193q47 63 130 63t142 -60q60 -60 116 -61q56 0 86 29t63 86l55 -31q-53 -131 -100 -195t-130 -63z" />
    <glyph glyph-name="ograve" unicode="&#xf2;" horiz-adv-x="1148" 
d="M568 -20q-230 0 -377 147q-146 147 -146 399t153 416t383 164t376 -150q147 -150 147 -400t-153 -414q-153 -162 -383 -162zM577 53q224 0 224 455q1 213 -55 368q-56 154 -174 154t-172 -120t-54 -332t56 -369q56 -156 175 -156zM274 1563h289l113 -340h-72l-330 325v15
z" />
    <glyph glyph-name="oacute" unicode="&#xf3;" horiz-adv-x="1148" 
d="M568 -20q-230 0 -377 147q-146 147 -146 399t153 416t383 164t376 -150q147 -150 147 -400t-153 -414q-153 -162 -383 -162zM577 53q224 0 224 455q1 213 -55 368q-56 154 -174 154t-172 -120t-54 -332t56 -369q56 -156 175 -156zM889 1563v-15l-330 -325h-72l113 340
h289z" />
    <glyph glyph-name="ocircumflex" unicode="&#xf4;" horiz-adv-x="1148" 
d="M568 -20q-230 0 -377 147q-146 147 -146 399t153 416t383 164t376 -150q147 -150 147 -400t-153 -414q-153 -162 -383 -162zM577 53q224 0 224 455q1 213 -55 368q-56 154 -174 154t-172 -120t-54 -332t56 -369q56 -156 175 -156zM676 1567l233 -350h-88l-243 196
l-244 -196h-88l233 350h197z" />
    <glyph glyph-name="otilde" unicode="&#xf5;" horiz-adv-x="1148" 
d="M568 -20q-230 0 -377 147q-146 147 -146 399t153 416t383 164t376 -150q147 -150 147 -400t-153 -414q-153 -162 -383 -162zM577 53q224 0 224 455q1 213 -55 368q-56 154 -174 154t-172 -120t-54 -332t56 -369q56 -156 175 -156zM706 1231q-82 0 -142 61q-60 62 -116 62
t-88 -30q-31 -30 -61 -85l-57 31q55 131 102 193q47 63 130 63t142 -60q60 -60 116 -61q56 0 86 29t63 86l55 -31q-53 -131 -100 -195t-130 -63z" />
    <glyph glyph-name="odieresis" unicode="&#xf6;" horiz-adv-x="1148" 
d="M568 -20q-230 0 -377 147q-146 147 -146 399t153 416t383 164t376 -150q147 -150 147 -400t-153 -414q-153 -162 -383 -162zM577 53q224 0 224 455q1 213 -55 368q-56 154 -174 154t-172 -120t-54 -332t56 -369q56 -156 175 -156zM627 1391q0 61 44 105t105 44
q62 0 106 -44t44 -105t-44 -105t-106 -45q-62 1 -105 45q-44 44 -44 105zM229 1391q0 61 44 105q45 44 107 44t106 -44t44 -105t-44 -105t-106 -45q-62 0 -107 44q-44 45 -44 106z" />
    <glyph glyph-name="divide" unicode="&#xf7;" horiz-adv-x="1165" 
d="M467 1101q0 46 34 79.5t80 33.5t80.5 -33.5t34.5 -79.5t-34.5 -80t-80.5 -34t-80 34t-34 80zM467 416q0 47 34 80.5t80 33.5t80.5 -33.5t34.5 -80.5t-34.5 -81t-80.5 -34t-80 34t-34 81zM131 696v123h903v-123h-903z" />
    <glyph glyph-name="oslash" unicode="&#xf8;" horiz-adv-x="1148" 
d="M748 174q53 121 53 298t-25 300l-379 -555q63 -164 180 -164q118 0 171 121zM570 1030q-116 0 -170 -119.5t-54 -304.5t27 -297l377 555q-64 166 -180 166zM1104 570q0 -265 -153 -427.5t-380 -162.5q-166 0 -286 71l-107 -157l-61 40l108 160q-86 70 -133 179.5
t-47 244.5q0 260 152.5 424t380.5 164q159 0 284 -74l109 158l61 -41l-108 -160q180 -154 180 -419z" />
    <glyph glyph-name="ugrave" unicode="&#xf9;" horiz-adv-x="1230" 
d="M420 348q0 -198 160 -198q61 0 110 22t98 55v617q0 51 -17 78t-77 36l-30 7v61l372 78h45l-8 -240v-647q0 -51 12 -73t70 -25l51 -4v-62l-372 -73h-52l6 196q-63 -72 -149 -134t-214 -62t-209 80t-81 251v533q0 51 -17 78t-77 36l-33 7v61l377 78h45l-10 -244v-512z
M309 1563h289l113 -340h-72l-330 325v15z" />
    <glyph glyph-name="uacute" unicode="&#xfa;" horiz-adv-x="1230" 
d="M420 348q0 -198 160 -198q61 0 110 22t98 55v617q0 51 -17 78t-77 36l-30 7v61l372 78h45l-8 -240v-647q0 -51 12 -73t70 -25l51 -4v-62l-372 -73h-52l6 196q-63 -72 -149 -134t-214 -62t-209 80t-81 251v533q0 51 -17 78t-77 36l-33 7v61l377 78h45l-10 -244v-512z
M924 1563v-15l-330 -325h-72l113 340h289z" />
    <glyph glyph-name="ucircumflex" unicode="&#xfb;" horiz-adv-x="1230" 
d="M420 348q0 -198 160 -198q61 0 110 22t98 55v617q0 51 -17 78t-77 36l-30 7v61l372 78h45l-8 -240v-647q0 -51 12 -73t70 -25l51 -4v-62l-372 -73h-52l6 196q-63 -72 -149 -134t-214 -62t-209 80t-81 251v533q0 51 -17 78t-77 36l-33 7v61l377 78h45l-10 -244v-512z
M711 1567l233 -350h-88l-244 196l-243 -196h-88l233 350h197z" />
    <glyph glyph-name="udieresis" unicode="&#xfc;" horiz-adv-x="1230" 
d="M420 348q0 -198 160 -198q61 0 110 22t98 55v617q0 51 -17 78t-77 36l-30 7v61l372 78h45l-8 -240v-647q0 -51 12 -73t70 -25l51 -4v-62l-372 -73h-52l6 196q-63 -72 -149 -134t-214 -62t-209 80t-81 251v533q0 51 -17 78t-77 36l-33 7v61l377 78h45l-10 -244v-512z
M662 1391q0 61 44 105t105 44t105 -44t44 -105t-44 -105t-105 -45q-61 1 -105 45t-44 105zM264 1391q0 61 44 105t106 44t107 -44q44 -44 44 -105t-44 -105t-106 -45q-62 0 -107 44q-44 45 -44 106z" />
    <glyph glyph-name="yacute" unicode="&#xfd;" horiz-adv-x="1153" 
d="M308 -270q73 0 126 30t86 113l35 88l-440 979q-13 33 -31 48t-74 30v67h557v-67q-79 -8 -109 -22t-30 -40q0 -27 12 -65l246 -606l229 606q15 34 15 63t-30 42t-109 22v67h352v-67q-53 -14 -71 -30t-34 -48l-450 -1135q-50 -123 -110 -189t-161 -67q-51 0 -97 25t-60 70
v104q75 -18 148 -18zM954 1563v-15l-329 -325h-72l113 340h288z" />
    <glyph glyph-name="thorn" unicode="&#xfe;" horiz-adv-x="1222" 
d="M629 -20q-136 0 -205 57v-307q0 -57 36 -72.5t134 -24.5v-67h-582v67q70 4 98.5 21t28.5 70v1675l-123 63v43l365 99h43v-691q51 76 136 134.5t208 58.5q186 0 298 -131t112 -367q0 -299 -161 -463.5t-388 -164.5zM424 293q0 -236 188 -236q129 0 203 131t74 319.5
t-69.5 307.5t-213.5 119q-106 0 -182 -72v-569z" />
    <glyph glyph-name="ydieresis" unicode="&#xff;" horiz-adv-x="1153" 
d="M308 -270q73 0 126 30t86 113l35 88l-440 979q-13 33 -31 48t-74 30v67h557v-67q-79 -8 -109 -22t-30 -40q0 -27 12 -65l246 -606l229 606q15 34 15 63t-30 42t-109 22v67h352v-67q-53 -14 -71 -30t-34 -48l-450 -1135q-50 -123 -110 -189t-161 -67q-51 0 -97 25t-60 70
v104q75 -18 148 -18zM690 1391q0 61 44 105t106 44t105 -44q44 -44 44 -105t-44 -105t-105 -45q-61 0 -106 44q-44 45 -44 106zM293 1391q0 61 44 105t106 44q63 0 107 -44t44 -105t-44 -105t-106 -45q-62 1 -107 45q-44 44 -44 105z" />
    <glyph glyph-name="Amacron" unicode="&#x100;" horiz-adv-x="1490" 
d="M633 1178l-238 -617h484zM432 0h-422v72q43 6 74 20t47 55l447 1147l-64 154h320l526 -1301q16 -41 48 -55t73 -20v-72h-627v72q90 2 131 21t41 58t-18 91l-95 231h-551l-88 -229q-18 -52 -18 -90q0 -78 176 -82v-72zM410 1561v139h587v-139h-587z" />
    <glyph glyph-name="amacron" unicode="&#x101;" horiz-adv-x="1073" 
d="M528 1106q184 0 288 -79t104 -257v-543q0 -51 14 -83t54 -32t81 21l12 -45q-97 -110 -233 -108q-82 0 -136 48t-69 132q-49 -64 -129 -120t-196 -56t-194 70q-77 70 -77 198q0 126 83 192t198 109l309 113v174q0 200 -145 200q-74 0 -106 -49t-32 -118t17 -132l-170 -22
q-92 31 -90 129q1 126 117 192t300 66zM474 143q77 0 163 66v383l-176 -72q-63 -25 -102 -66q-37 -42 -37 -125t38 -135t114 -51zM250 1278v139h551v-139h-551z" />
    <glyph glyph-name="Abreve" unicode="&#x102;" horiz-adv-x="1490" 
d="M633 1178l-238 -617h484zM432 0h-422v72q43 6 74 20t47 55l447 1147l-64 154h320l526 -1301q16 -41 48 -55t73 -20v-72h-627v72q90 2 131 21t41 58t-18 91l-95 231h-551l-88 -229q-18 -52 -18 -90q0 -78 176 -82v-72zM1001 1843q-1 -155 -81 -237t-216 -82t-217 82
q-80 82 -79 237h75q15 -94 77 -128t144 -34t144 34q63 34 78 128h75z" />
    <glyph glyph-name="abreve" unicode="&#x103;" horiz-adv-x="1073" 
d="M528 1106q184 0 288 -79t104 -257v-543q0 -51 14 -83t54 -32t81 21l12 -45q-97 -110 -233 -108q-82 0 -136 48t-69 132q-49 -64 -129 -120t-196 -56t-194 70q-77 70 -77 198q0 126 83 192t198 109l309 113v174q0 200 -145 200q-74 0 -106 -49t-32 -118t17 -132l-170 -22
q-92 31 -90 129q1 126 117 192t300 66zM474 143q77 0 163 66v383l-176 -72q-63 -25 -102 -66q-37 -42 -37 -125t38 -135t114 -51zM524 1223q-135 0 -206 86t-70 247h78q8 -98 63 -136t136 -38t137 38q55 38 63 136h78q0 -162 -72 -248t-207 -85z" />
    <glyph glyph-name="Aogonek" unicode="&#x104;" horiz-adv-x="1490" 
d="M752 -436q-80 0 -133.5 48t-53.5 134q0 117 91.5 186.5t193.5 100.5t140 53.5t38 61.5t-18 90l-97 235h-551l-88 -229q-18 -52 -18 -90q0 -78 176 -82v-72h-422v72q43 6 74 20t47 55l447 1147l-64 154h320l526 -1301q16 -41 48 -55t73 -20v-72h-549q-90 -18 -142.5 -73
t-52.5 -119q0 -122 101 -123q79 0 149 59l27 -31q-121 -149 -262 -149zM633 1178l-238 -617h484z" />
    <glyph glyph-name="aogonek" unicode="&#x105;" horiz-adv-x="1073" 
d="M479 143q45 0 80 16.5t78 49.5v383l-176 -72q-63 -25 -101 -66.5t-38 -124.5t37.5 -134.5t119.5 -51.5zM1038 -287q-121 -149 -262 -149q-84 0 -136 46t-52 128t61.5 141.5t153.5 104.5q-59 14 -103.5 60t-56.5 116q-49 -63 -129 -119.5t-196 -56.5t-193.5 70.5
t-77.5 197.5t83 192.5t198 108.5l309 113v174q0 200 -145 200q-74 0 -106 -49t-32 -118t17 -132l-170 -22q-90 31 -90 129q0 127 116.5 192.5t300.5 65.5t288 -79t104 -257v-543q0 -51 14 -82.5t54 -31.5t81 20l12 -45q-82 -70 -200.5 -121t-118.5 -178q0 -104 114 -104
q67 0 136 59z" />
    <glyph glyph-name="Cacute" unicode="&#x106;" horiz-adv-x="1343" 
d="M379 729q-1 -273 111 -467t321 -194q143 0 243 98q99 98 152 321h82l-31 -385q-196 -124 -473 -122q-334 0 -528 194t-195 530q0 334 210 544t513 210q266 0 453 -121l2 -329h-78q-76 364 -368 364q-211 0 -313 -185t-101 -458zM1114 1835v-14l-326 -291h-75l106 305h295
z" />
    <glyph glyph-name="cacute" unicode="&#x107;" horiz-adv-x="966" 
d="M541 1028q-117 0 -181 -116t-65 -302q0 -186 88 -307t242 -121q186 0 286 152l35 -21q-47 -166 -158 -250t-266 -83q-205 0 -341 143t-136 391t144 420t386 172q150 0 245 -62t95 -178q-1 -49 -23 -86t-54 -51h-156l8 100q0 199 -149 199zM879 1563v-15l-330 -325h-72
l113 340h289z" />
    <glyph glyph-name="Ccircumflex" unicode="&#x108;" horiz-adv-x="1343" 
d="M379 729q-1 -273 111 -467t321 -194q143 0 243 98q99 98 152 321h82l-31 -385q-196 -124 -473 -122q-334 0 -528 194t-195 530q0 334 210 544t513 210q266 0 453 -121l2 -329h-78q-76 364 -368 364q-211 0 -313 -185t-101 -458zM899 1849l256 -319h-82l-272 168
l-273 -168h-82l256 319h197z" />
    <glyph glyph-name="ccircumflex" unicode="&#x109;" horiz-adv-x="966" 
d="M541 1028q-117 0 -181 -116t-65 -302q0 -186 88 -307t242 -121q186 0 286 152l35 -21q-47 -166 -158 -250t-266 -83q-205 0 -341 143t-136 391t144 420t386 172q150 0 245 -62t95 -178q-1 -49 -23 -86t-54 -51h-156l8 100q0 199 -149 199zM657 1567l234 -350h-88
l-244 196l-244 -196h-88l234 350h196z" />
    <glyph glyph-name="Cdotaccent" unicode="&#x10a;" horiz-adv-x="1343" 
d="M379 729q-1 -273 111 -467t321 -194q143 0 243 98q99 98 152 321h82l-31 -385q-196 -124 -473 -122q-334 0 -528 194t-195 530q0 334 210 544t513 210q266 0 453 -121l2 -329h-78q-76 364 -368 364q-211 0 -313 -185t-101 -458zM969 1695q0 -65 -47 -113t-122 -48
t-120 48t-45 113t45 113t120 47q75 0 122 -48t47 -112z" />
    <glyph glyph-name="cdotaccent" unicode="&#x10b;" horiz-adv-x="966" 
d="M541 1028q-117 0 -181 -116t-65 -302q0 -186 88 -307t242 -121q186 0 286 152l35 -21q-47 -166 -158 -250t-266 -83q-205 0 -341 143t-136 391t144 420t386 172q150 0 245 -62t95 -178q-1 -49 -23 -86t-54 -51h-156l8 100q0 199 -149 199zM562 1233q-75 0 -120 48
q-45 49 -45 113t45 113t120 49t122 -49t47 -113t-47 -113q-47 -48 -122 -48z" />
    <glyph glyph-name="Ccaron" unicode="&#x10c;" horiz-adv-x="1343" 
d="M379 729q-1 -273 111 -467t321 -194q143 0 243 98q99 98 152 321h82l-31 -385q-196 -124 -473 -122q-334 0 -528 194t-195 530q0 334 210 544t513 210q266 0 453 -121l2 -329h-78q-76 364 -368 364q-211 0 -313 -185t-101 -458zM1155 1849l-256 -319h-197l-256 319h82
l273 -168l272 168h82z" />
    <glyph glyph-name="ccaron" unicode="&#x10d;" horiz-adv-x="966" 
d="M541 1028q-117 0 -181 -116t-65 -302q0 -186 88 -307t242 -121q186 0 286 152l35 -21q-47 -166 -158 -250t-266 -83q-205 0 -341 143t-136 391t144 420t386 172q150 0 245 -62t95 -178q-1 -49 -23 -86t-54 -51h-156l8 100q0 199 -149 199zM897 1573l-233 -350h-197
l-234 350h89l243 -197l244 197h88z" />
    <glyph glyph-name="Dcaron" unicode="&#x10e;" horiz-adv-x="1533" 
d="M723 0h-668v72q106 12 135 34t29 107v1012q0 85 -29 107t-135 34v72h629q406 0 597 -204t192 -486q0 -352 -212 -550t-538 -198zM631 1356h-111v-1129q0 -89 39 -117t121 -28h37q193 0 315 164t123 448q0 284 -127 474q-127 188 -397 188zM1063 1849l-256 -319h-197
l-256 319h82l273 -168l272 168h82z" />
    <glyph glyph-name="dcaron" unicode="&#x10f;" horiz-adv-x="1230" 
d="M567 1102q140 0 221 -72v369l-122 63v43l362 99h45v-1387q0 -51 12 -73t70 -25l51 -4v-62l-372 -73h-54l8 190q-132 -190 -322 -190q-191 0 -306 140t-115 372q0 290 152 450t370 160zM614 154q107 0 174 65v541q0 118 -49 186t-141 68q-129 0 -201 -117
q-71 -117 -71 -305t74 -313t214 -125zM1436 1604v-17l-228 -403h-53l33 420h248z" />
    <glyph glyph-name="Dcroat" unicode="&#x110;" horiz-adv-x="1554" 
d="M651 1356h-110v-572h278v-98h-278v-459q0 -89 39 -117t120 -28h37q193 0 316 164t123 448t-128 474q-128 188 -397 188zM76 686v98h164v441q0 85 -29 107t-135 34v72h629q406 0 597 -204t191 -486q0 -352 -212 -550t-538 -198h-667v72q106 12 135 34t29 107v473h-164z
" />
    <glyph glyph-name="Emacron" unicode="&#x112;" horiz-adv-x="1300" 
d="M55 0v72q106 12 135 34t29 107v1012q0 85 -29 107t-135 34v72h1125l10 -369h-60q-76 166 -138 226t-185 61h-287v-570h260q68 0 98 45t44 144h71v-465h-71q-14 98 -44 142t-98 44h-260v-475q0 -83 44 -111t138 -28h127q123 0 191 73t170 255h72l-64 -410h-1143zM393 1561
v139h588v-139h-588z" />
    <glyph glyph-name="emacron" unicode="&#x113;" horiz-adv-x="1013" 
d="M717 707q0 323 -185 323q-100 0 -156 -91t-69 -232h410zM643 174q191 0 305 166l33 -18q-39 -152 -151 -247t-287 -95q-221 0 -359 149q-137 151 -137 399q1 248 149 413t355 165t313 -122t107 -306v-47h-668q-6 -213 92 -335t248 -122zM279 1278v139h550v-139h-550z" />
    <glyph glyph-name="Ebreve" unicode="&#x114;" horiz-adv-x="1300" 
d="M55 0v72q106 12 135 34t29 107v1012q0 85 -29 107t-135 34v72h1125l10 -369h-60q-76 166 -138 226t-185 61h-287v-570h260q68 0 98 45t44 144h71v-465h-71q-14 98 -44 142t-98 44h-260v-475q0 -83 44 -111t138 -28h127q123 0 191 73t170 255h72l-64 -410h-1143zM987 1843
q0 -155 -81 -237t-217 -82t-216 82t-80 237h76q15 -94 77 -128t143 -34t145 34q63 34 77 128h76z" />
    <glyph glyph-name="ebreve" unicode="&#x115;" horiz-adv-x="1013" 
d="M717 707q0 323 -185 323q-100 0 -156 -91t-69 -232h410zM643 174q191 0 305 166l33 -18q-39 -152 -151 -247t-287 -95q-221 0 -359 149q-137 151 -137 399q1 248 149 413t355 165t313 -122t107 -306v-47h-668q-6 -213 92 -335t248 -122zM565 1223q-135 0 -206 86t-70 247
h78q8 -98 63 -136t136 -38t136 38t64 136h78q0 -162 -72 -248t-207 -85z" />
    <glyph glyph-name="Edotaccent" unicode="&#x116;" horiz-adv-x="1300" 
d="M55 0v72q106 12 135 34t29 107v1012q0 85 -29 107t-135 34v72h1125l10 -369h-60q-76 166 -138 226t-185 61h-287v-570h260q68 0 98 45t44 144h71v-465h-71q-14 98 -44 142t-98 44h-260v-475q0 -83 44 -111t138 -28h127q123 0 191 73t170 255h72l-64 -410h-1143zM858 1695
q0 -65 -47 -113t-122 -48t-120 48t-45 113t45 113t120 47q75 0 122 -48t47 -112z" />
    <glyph glyph-name="edotaccent" unicode="&#x117;" horiz-adv-x="1013" 
d="M717 707q0 323 -185 323q-100 0 -156 -91t-69 -232h410zM643 174q191 0 305 166l33 -18q-39 -152 -151 -247t-287 -95q-221 0 -359 149q-137 151 -137 399q1 248 149 413t355 165t313 -122t107 -306v-47h-668q-6 -213 92 -335t248 -122zM556 1233q-75 0 -120 48
q-45 49 -45 113t45 113t120 49t122 -49t47 -113t-47 -113q-47 -48 -122 -48z" />
    <glyph glyph-name="Eogonek" unicode="&#x118;" horiz-adv-x="1300" 
d="M1106 -287q-121 -149 -262 -149q-84 0 -136.5 46t-52.5 131t70 149.5t168 109.5h-838v72q106 12 135 34.5t29 106.5v1012q0 84 -28.5 106.5t-135.5 34.5v72h1125l10 -369h-60q-76 166 -138 226.5t-185 60.5h-287v-570h260q68 0 97.5 45.5t44.5 143.5h71v-465h-71
q-14 98 -44 142t-98 44h-260v-475q0 -82 44 -110.5t138 -28.5h127q123 0 190.5 72.5t170.5 255.5h72l-64 -410h-205q-164 -86 -164 -211q0 -104 114 -104q66 0 136 59z" />
    <glyph glyph-name="eogonek" unicode="&#x119;" horiz-adv-x="1013" 
d="M717 707q0 323 -142.5 323t-199 -91t-68.5 -232h410zM813 -287q-121 -149 -261 -149q-83 0 -136.5 46t-53.5 122q0 148 205 248h-24q-221 0 -358.5 150t-137.5 398t148.5 413t355.5 165t313.5 -122t106.5 -306v-47h-668q-6 -213 92.5 -335t247.5 -122q191 0 305 166
l33 -18q-58 -221 -260 -312q-184 -80 -184 -213q0 -51 24.5 -81.5t73.5 -30.5q83 0 151 59z" />
    <glyph glyph-name="Ecaron" unicode="&#x11a;" horiz-adv-x="1300" 
d="M55 0v72q106 12 135 34t29 107v1012q0 85 -29 107t-135 34v72h1125l10 -369h-60q-76 166 -138 226t-185 61h-287v-570h260q68 0 98 45t44 144h71v-465h-71q-14 98 -44 142t-98 44h-260v-475q0 -83 44 -111t138 -28h127q123 0 191 73t170 255h72l-64 -410h-1143z
M1042 1849l-256 -319h-196l-256 319h82l272 -168l273 168h81z" />
    <glyph glyph-name="ecaron" unicode="&#x11b;" horiz-adv-x="1013" 
d="M717 707q0 323 -185 323q-100 0 -156 -91t-69 -232h410zM643 174q191 0 305 166l33 -18q-39 -152 -151 -247t-287 -95q-221 0 -359 149q-137 151 -137 399q1 248 149 413t355 165t313 -122t107 -306v-47h-668q-6 -213 92 -335t248 -122zM885 1573l-234 -350h-196
l-234 350h88l244 -197l244 197h88z" />
    <glyph glyph-name="Gcircumflex" unicode="&#x11c;" horiz-adv-x="1474" 
d="M1010 461q0 83 -28 107t-136 36v70h610v-70q-106 -12 -135 -36t-29 -107v-340q-227 -143 -522 -141q-340 0 -524 204t-185 500q0 354 213 564t505 210t474 -119l2 -331h-77q-76 366 -373 366q-221 0 -323 -186t-103 -450q0 -264 104 -469q104 -204 324 -203q135 0 203 55
v340zM907 1849l256 -319h-82l-272 168l-272 -168h-82l256 319h196z" />
    <glyph glyph-name="gcircumflex" unicode="&#x11d;" horiz-adv-x="1077" 
d="M516 455q158 0 158 276q0 123 -43 214t-130 91t-125 -77t-38 -199t44 -213q44 -92 134 -92zM879 -156q0 68 -43 96t-119 27h-494q-37 -42 -38 -133q-1 -90 84 -150t232 -60t263 52q116 53 115 168zM190 -6q-127 50 -127 200q1 76 61 138t130 106q-82 39 -135 112t-53 181
q0 175 128 275t318 100q79 0 182 -29l346 8v-118h-84l-143 6q53 -35 91 -97t38 -139q0 -162 -124 -256t-314 -94q-116 0 -207 33q-68 -63 -69 -110q-2 -81 71 -83h422q178 -1 269 -73t91 -207q0 -193 -172 -297q-173 -104 -411 -104t-369 66q-131 67 -131 189q0 78 59 124
t133 69zM637 1567l233 -350h-88l-243 196l-244 -196h-88l233 350h197z" />
    <glyph glyph-name="Gbreve" unicode="&#x11e;" horiz-adv-x="1474" 
d="M1010 461q0 83 -28 107t-136 36v70h610v-70q-106 -12 -135 -36t-29 -107v-340q-227 -143 -522 -141q-340 0 -524 204t-185 500q0 354 213 564t505 210t474 -119l2 -331h-77q-76 366 -373 366q-221 0 -323 -186t-103 -450q0 -264 104 -469q104 -204 324 -203q135 0 203 55
v340zM1106 1843q0 -155 -81 -237t-217 -82t-216 82t-80 237h76q14 -94 76 -128t144 -34q81 0 144 34t78 128h76z" />
    <glyph glyph-name="gbreve" unicode="&#x11f;" horiz-adv-x="1077" 
d="M516 455q158 0 158 276q0 123 -43 214t-130 91t-125 -77t-38 -199t44 -213q44 -92 134 -92zM879 -156q0 68 -43 96t-119 27h-494q-37 -42 -38 -133q-1 -90 84 -150t232 -60t263 52q116 53 115 168zM190 -6q-127 50 -127 200q1 76 61 138t130 106q-82 39 -135 112t-53 181
q0 175 128 275t318 100q79 0 182 -29l346 8v-118h-84l-143 6q53 -35 91 -97t38 -139q0 -162 -124 -256t-314 -94q-116 0 -207 33q-68 -63 -69 -110q-2 -81 71 -83h422q178 -1 269 -73t91 -207q0 -193 -172 -297q-173 -104 -411 -104t-369 66q-131 67 -131 189q0 78 59 124
t133 69zM539 1223q-135 0 -206 86t-71 247h78q8 -98 63 -136t137 -38t136 38q55 38 63 136h78q1 -162 -71 -248t-207 -85z" />
    <glyph glyph-name="Gdotaccent" unicode="&#x120;" horiz-adv-x="1474" 
d="M1010 461q0 83 -28 107t-136 36v70h610v-70q-106 -12 -135 -36t-29 -107v-340q-227 -143 -522 -141q-340 0 -524 204t-185 500q0 354 213 564t505 210t474 -119l2 -331h-77q-76 366 -373 366q-221 0 -323 -186t-103 -450q0 -264 104 -469q104 -204 324 -203q135 0 203 55
v340zM977 1695q0 -65 -47 -113t-122 -48t-120 48t-45 113t45 113t120 47q75 0 122 -48t47 -112z" />
    <glyph glyph-name="gdotaccent" unicode="&#x121;" horiz-adv-x="1077" 
d="M516 455q158 0 158 276q0 123 -43 214t-130 91t-125 -77t-38 -199t44 -213q44 -92 134 -92zM879 -156q0 68 -43 96t-119 27h-494q-37 -42 -38 -133q-1 -90 84 -150t232 -60t263 52q116 53 115 168zM190 -6q-127 50 -127 200q1 76 61 138t130 106q-82 39 -135 112t-53 181
q0 175 128 275t318 100q79 0 182 -29l346 8v-118h-84l-143 6q53 -35 91 -97t38 -139q0 -162 -124 -256t-314 -94q-116 0 -207 33q-68 -63 -69 -110q-2 -81 71 -83h422q178 -1 269 -73t91 -207q0 -193 -172 -297q-173 -104 -411 -104t-369 66q-131 67 -131 189q0 78 59 124
t133 69zM538 1556q76 0 122 -49t46 -113t-46 -113q-47 -48 -122 -48t-120 48q-45 49 -45 113t45 113t120 49z" />
    <glyph glyph-name="Gcommaaccent" unicode="&#x122;" horiz-adv-x="1474" 
d="M1010 461q0 83 -28 107t-136 36v70h610v-70q-106 -12 -135 -36t-29 -107v-340q-227 -143 -522 -141q-340 0 -524 204t-185 500q0 354 213 564t505 210t474 -119l2 -331h-77q-76 366 -373 366q-221 0 -323 -186t-103 -450q0 -264 104 -469q104 -204 324 -203q135 0 203 55
v340zM649 -201q0 51 40 84t113 33t118 -49t45 -134t-72 -151t-225 -65v61q88 0 131 34t45 77h-105q-90 20 -90 110z" />
    <glyph glyph-name="gcommaaccent" unicode="&#x123;" horiz-adv-x="1077" 
d="M516 455q158 0 158 276q0 123 -43 214t-130 91t-125 -77t-38 -199t44 -213q44 -92 134 -92zM879 -156q0 68 -43 96t-119 27h-494q-37 -42 -38 -133q-1 -90 84 -150t232 -60t263 52q116 53 115 168zM190 -6q-127 50 -127 200q1 76 61 138t130 106q-82 39 -135 112t-53 181
q0 175 128 275t318 100q79 0 182 -29l346 8v-118h-84l-143 6q53 -35 91 -97t38 -139q0 -162 -124 -256t-314 -94q-116 0 -207 33q-68 -63 -69 -110q-2 -81 71 -83h422q178 -1 269 -73t91 -207q0 -193 -172 -297q-173 -104 -411 -104t-369 66q-131 67 -131 189q0 78 59 124
t133 69zM544 1227q-72 0 -118 50q-45 50 -45 135t72 150t225 64v-59q-88 0 -131 -34t-45 -77h102q94 -21 92 -110q0 -51 -40 -85t-112 -34z" />
    <glyph glyph-name="Hcircumflex" unicode="&#x124;" horiz-adv-x="1654" 
d="M520 1225v-441h617v441q0 85 -29 107t-135 34v72h626v-72q-106 -12 -135 -35t-28 -106v-1012q0 -84 28 -107t135 -34v-72h-626v72q106 12 135 34t29 107v473h-617v-473q0 -84 29 -107t135 -34v-72h-629v72q106 12 135 34t29 107v1012q0 85 -29 107t-135 34v72h629v-72
q-106 -12 -135 -34t-29 -107zM926 1849l256 -319h-82l-273 168l-272 -168h-82l256 319h197z" />
    <glyph glyph-name="hcircumflex" unicode="&#x125;" horiz-adv-x="1267" 
d="M669 934q-91 0 -220 -84v-692q0 -53 27 -70q28 -16 97 -20v-68h-536v68q71 4 99 20t28 70v1241l-123 63v43l362 99h46v-699q63 76 155 138q92 63 228 63t212 -85t76 -251v-612q0 -54 29 -70t98 -20v-68h-536v68q69 4 97 20t28 70v598q0 88 -38 133t-129 45zM727 1964
l256 -319h-82l-272 167l-273 -167h-82l256 319h197z" />
    <glyph glyph-name="Hbar" unicode="&#x126;" horiz-adv-x="1695" 
d="M541 784h616v230h-616v-230zM541 1225v-113h616v113q0 84 -28.5 106.5t-135.5 34.5v72h627v-72q-106 -12 -135 -34.5t-29 -106.5v-113h164v-98h-164v-801q0 -84 28.5 -106.5t135.5 -34.5v-72h-627v72q106 12 135 34.5t29 106.5v473h-616v-473q0 -84 28.5 -106.5
t135.5 -34.5v-72h-629v72q106 12 135 34.5t29 106.5v801h-162v98h162v113q0 84 -29 106.5t-135 34.5v72h629v-72q-106 -12 -135 -34.5t-29 -106.5z" />
    <glyph glyph-name="hbar" unicode="&#x127;" horiz-adv-x="1267" 
d="M667 934q-93 0 -218 -84v-692q0 -53 27.5 -69.5t96.5 -20.5v-68h-536v68q70 4 98.5 20.5t28.5 69.5v1054h-123v86h123v101l-123 63v43l362 99h46v-306h262v-86h-262v-307q63 76 155 138.5t228 62.5t212 -85t76 -251v-612q0 -53 29 -69.5t98 -20.5v-68h-536v68
q70 4 97.5 20t27.5 70v598q0 88 -38 133t-131 45z" />
    <glyph glyph-name="Itilde" unicode="&#x128;" horiz-adv-x="739" 
d="M520 1225v-1012q0 -84 29 -106.5t135 -34.5v-72h-629v72q106 12 135 34.5t29 106.5v1012q0 84 -28.5 106.5t-135.5 34.5v72h629v-72q-106 -12 -135 -34.5t-29 -106.5zM501 1528q-79 0 -142 60.5t-115 60.5t-83.5 -29t-62.5 -86l-53 31q51 135 99 197.5t126 62.5
t141 -61.5t115 -61.5t83.5 29.5t62.5 87.5l53 -33q-51 -133 -98 -195.5t-126 -62.5z" />
    <glyph glyph-name="itilde" unicode="&#x129;" horiz-adv-x="614" 
d="M455 1106v-948q0 -53 28.5 -69.5t100.5 -20.5v-68h-541v68q72 4 100.5 20t28.5 70v725l-123 71v39l361 113h45zM421 1233q-75 0 -131.5 59.5t-107.5 59.5t-77.5 -28t-59.5 -85l-57 31q49 133 92 194.5t120 61.5t132 -58.5t105 -58.5t77 27.5t59 83.5l58 -29
q-49 -133 -92 -195.5t-118 -62.5z" />
    <glyph glyph-name="Imacron" unicode="&#x12a;" horiz-adv-x="739" 
d="M520 1225v-1012q0 -84 29 -107t135 -34v-72h-629v72q106 12 135 34t29 107v1012q0 85 -29 107t-135 34v72h629v-72q-106 -12 -135 -34t-29 -107zM74 1561v139h588v-139h-588z" />
    <glyph glyph-name="imacron" unicode="&#x12b;" horiz-adv-x="614" 
d="M455 1106v-948q0 -53 28.5 -69.5t100.5 -20.5v-68h-541v68q72 4 100.5 20t28.5 70v725l-123 71v39l361 113h45zM61 1280v137h496v-137h-496z" />
    <glyph glyph-name="Ibreve" unicode="&#x12c;" horiz-adv-x="739" 
d="M520 1225v-1012q0 -84 29 -106.5t135 -34.5v-72h-629v72q106 12 135 34.5t29 106.5v1012q0 84 -28.5 106.5t-135.5 34.5v72h629v-72q-106 -12 -135 -34.5t-29 -106.5zM653 1843q0 -156 -76.5 -237.5t-205.5 -81.5t-206 82t-77 237h74q21 -162 152.5 -162t191 34t74.5 128
h73z" />
    <glyph glyph-name="ibreve" unicode="&#x12d;" horiz-adv-x="614" 
d="M455 1106v-948q0 -53 28.5 -69.5t100.5 -20.5v-68h-541v68q72 4 100.5 20t28.5 70v725l-123 71v39l361 113h45zM316 1223q-128 0 -195.5 86t-67.5 247h74q8 -98 60.5 -136t128.5 -38t129 38t61 136h74q0 -162 -68 -247.5t-196 -85.5z" />
    <glyph glyph-name="Iogonek" unicode="&#x12e;" horiz-adv-x="739" 
d="M596 -287q-121 -149 -262 -149q-84 0 -136.5 46t-52.5 131t70 149.5t168 109.5h-328v72q106 12 135 34.5t29 106.5v1012q0 84 -28.5 106.5t-135.5 34.5v72h629v-72q-106 -12 -135 -34.5t-29 -106.5v-1012q0 -84 29 -106.5t135 -34.5v-72h-201q-164 -86 -164 -211
q0 -104 114 -104q66 0 136 59z" />
    <glyph glyph-name="iogonek" unicode="&#x12f;" horiz-adv-x="614" 
d="M310 1229q-75 0 -121 49t-46 114t46.5 112.5t120.5 47.5t120.5 -48t46.5 -112t-46 -113.5t-121 -49.5zM530 -287q-121 -149 -262 -149q-84 0 -136 46t-52 131t69.5 149.5t167.5 109.5h-274v68q72 4 100.5 20t28.5 70v725l-123 71v39l361 113h45v-948q0 -53 28.5 -69.5
t100.5 -20.5v-68h-166q-164 -86 -164 -211q0 -104 114 -104q67 0 136 59z" />
    <glyph glyph-name="dotlessi" unicode="&#x131;" horiz-adv-x="614" 
d="M455 1106v-948q0 -53 28.5 -69.5t100.5 -20.5v-68h-541v68q72 4 100.5 20t28.5 70v725l-123 71v39l361 113h45z" />
    <glyph glyph-name="Jcircumflex" unicode="&#x134;" horiz-adv-x="1089" 
d="M256 291q0 -111 42 -174t127 -63q167 -1 167 288v883q0 85 -29 107t-135 34v72h627v-72q-106 -12 -135 -35t-29 -106v-789q0 -231 -127 -344q-127 -112 -338 -112t-325 74t-113 208q0 107 82 158h198q-12 -93 -12 -129zM840 1849l256 -319h-82l-273 168l-272 -168h-82
l256 319h197z" />
    <glyph glyph-name="jcircumflex" unicode="&#x135;" horiz-adv-x="559" 
d="M365 1567l210 -350h-79l-220 196l-221 -196h-80l211 350h179zM428 1106v-911q0 -154 -42 -294t-361 -347l-31 32l84 140q49 82 58 177t9 216v764l-122 71v39l360 113h45z" />
    <glyph glyph-name="Kcommaaccent" unicode="&#x136;" horiz-adv-x="1466" 
d="M520 1225v-1012q0 -84 29 -107t135 -34v-72h-629v72q106 12 135 34t29 107v1012q0 85 -29 107t-135 34v72h629v-72q-106 -12 -135 -34t-29 -107zM1466 0h-391q-83 69 -178 207l-354 500l499 520q50 50 51 82q1 31 -30 42t-121 15v72h459v-72q-66 -2 -103 -22t-81 -68
l-416 -438l442 -619q61 -82 103 -113t120 -34v-72zM604 -201q0 51 40 84t113 33t117 -49t46 -134q0 -85 -72 -151t-225 -65v61q88 0 131 34t45 77h-105q-90 20 -90 110z" />
    <glyph glyph-name="kcommaaccent" unicode="&#x137;" horiz-adv-x="1200" 
d="M166 158v1241l-123 63v43l363 99h45v-1446q0 -53 28 -70q29 -16 99 -20v-68h-539v68q71 4 99 20t28 70zM850 965q0 25 -30 35t-101 18v67h436v-67q-55 -10 -92 -26t-74 -50l-272 -252l483 -643v-47h-303l-428 582l322 292q31 26 45 46t14 45zM479 -201q0 51 40 84t113 33
t118 -49t45 -134t-72 -151t-225 -65v61q88 0 131 34t45 77h-105q-90 20 -90 110z" />
    <glyph glyph-name="kgreenlandic" unicode="&#x138;" horiz-adv-x="1206" 
d="M172 158v725l-123 71v39l363 113h43v-948q0 -53 28.5 -69.5t100.5 -20.5v-68h-541v68q72 4 100.5 20.5t28.5 69.5zM856 965q0 25 -29.5 35t-101.5 18v67h436v-67q-55 -10 -92 -25.5t-74 -50.5l-272 -252l483 -643v-47h-303l-428 582l322 292q29 27 44 46.5t15 44.5z" />
    <glyph glyph-name="Lacute" unicode="&#x139;" horiz-adv-x="1257" 
d="M520 1225v-1004q0 -83 42 -111t136 -28h88q117 0 190 83t183 279h72l-72 -444h-1104v72q106 12 135 34t29 107v1012q0 85 -29 107t-135 34v72h629v-72q-106 -12 -135 -34t-29 -107zM748 1835v-14l-326 -291h-76l107 305h295z" />
    <glyph glyph-name="lacute" unicode="&#x13a;" horiz-adv-x="608" 
d="M451 1604v-1446q0 -53 28 -70q29 -16 99 -20v-68h-539v68q71 4 99 20t28 70v1241l-123 63v43l363 99h45zM621 1939v-14l-326 -291h-76l107 305h295z" />
    <glyph glyph-name="Lcommaaccent" unicode="&#x13b;" horiz-adv-x="1257" 
d="M520 1225v-1004q0 -83 42 -111t136 -28h88q117 0 190 83t183 279h72l-72 -444h-1104v72q106 12 135 34t29 107v1012q0 85 -29 107t-135 34v72h629v-72q-106 -12 -135 -34t-29 -107zM485 -201q0 51 40 84t113 33t118 -49t45 -134t-72 -151t-225 -65v61q88 0 131 34t45 77
h-105q-90 20 -90 110z" />
    <glyph glyph-name="lcommaaccent" unicode="&#x13c;" horiz-adv-x="608" 
d="M451 1604v-1446q0 -53 28 -70q29 -16 99 -20v-68h-539v68q71 4 99 20t28 70v1241l-123 63v43l363 99h45zM304 -84q73 0 118 -49t45 -134t-72 -151t-225 -65v61q88 0 131 34t45 77h-104q-92 20 -90 110q0 51 39 84q40 33 113 33z" />
    <glyph glyph-name="Lcaron" unicode="&#x13d;" horiz-adv-x="1257" 
d="M520 1225v-1004q0 -83 42 -111t136 -28h88q117 0 190 83t183 279h72l-72 -444h-1104v72q106 12 135 34t29 107v1012q0 85 -29 107t-135 34v72h629v-72q-106 -12 -135 -34t-29 -107zM1104 1438v-17l-227 -403h-54l33 420h248z" />
    <glyph glyph-name="lcaron" unicode="&#x13e;" horiz-adv-x="608" 
d="M451 1604v-1446q0 -53 28 -70q29 -16 99 -20v-68h-539v68q71 4 99 20t28 70v1241l-123 63v43l363 99h45zM811 1602v-17l-227 -403h-54l33 420h248z" />
    <glyph glyph-name="Ldot" unicode="&#x13f;" horiz-adv-x="1257" 
d="M862 812q0 75 51.5 125t123 50t121.5 -50t50 -125t-50 -124t-121.5 -49t-123 49t-51.5 124zM520 1225v-1004q0 -82 42 -110.5t136 -28.5h88q117 0 190 83t183 279h72l-72 -444h-1104v72q106 12 135 34.5t29 106.5v1012q0 84 -28.5 106.5t-135.5 34.5v72h629v-72
q-106 -12 -135 -34.5t-29 -106.5z" />
    <glyph glyph-name="ldot" unicode="&#x140;" horiz-adv-x="786" 
d="M530 775q0 71 49.5 120t119 49t117.5 -49t48 -120t-48 -118t-117.5 -47t-119 47t-49.5 118zM451 1604v-1446q0 -53 28.5 -69.5t98.5 -20.5v-68h-539v68q70 4 98.5 20t28.5 70v1241l-123 63v43l363 99h45z" />
    <glyph glyph-name="Lslash" unicode="&#x141;" horiz-adv-x="1257" 
d="M520 1225v-443l301 121v-100l-301 -121v-461q0 -82 42 -110.5t136 -28.5h88q117 0 190 83t183 279h72l-72 -444h-1104v72q106 12 135 34.5t29 106.5v369l-149 -62v101l149 59v545q0 84 -28.5 106.5t-135.5 34.5v72h629v-72q-106 -12 -135 -34.5t-29 -106.5z" />
    <glyph glyph-name="lslash" unicode="&#x142;" horiz-adv-x="645" 
d="M463 1604v-617l168 94v-100l-168 -96v-727q0 -53 28.5 -69.5t98.5 -20.5v-68h-539v68q70 4 98.5 20t28.5 70v604l-158 -84v98l158 88v535l-123 63v43l363 99h45z" />
    <glyph glyph-name="Nacute" unicode="&#x143;" horiz-adv-x="1529" 
d="M1221 1223q0 81 -40 107t-165 36v72h477v-72q-106 -12 -135 -37t-29 -106v-1227h-100l-897 1132v-913q0 -81 39 -107t164 -36v-72h-478v72q109 12 137 37t27 106v1024q-45 65 -77 95t-89 32v72h420l746 -949v734zM1098 1835v-14l-326 -291h-76l107 305h295z" />
    <glyph glyph-name="nacute" unicode="&#x144;" horiz-adv-x="1275" 
d="M676 934q-92 0 -221 -84v-692q0 -53 27 -70q28 -16 98 -20v-68h-537v68q73 4 101 20t28 70v725l-123 71v39l367 113h47l-8 -201q65 76 157 138q92 63 228 63t212 -84q75 -84 74 -250v-614q0 -54 29 -70t98 -20v-68h-536v68q69 4 97 20t28 70v598q0 88 -37 133t-129 45z
M975 1563v-15l-330 -325h-72l113 340h289z" />
    <glyph glyph-name="Ncommaaccent" unicode="&#x145;" horiz-adv-x="1529" 
d="M1221 1223q0 81 -40 107t-165 36v72h477v-72q-106 -12 -135 -37t-29 -106v-1227h-100l-897 1132v-913q0 -81 39 -107t164 -36v-72h-478v72q109 12 137 37t27 106v1024q-45 65 -77 95t-89 32v72h420l746 -949v734zM641 -201q0 51 40 84q41 33 113 33t117 -49t45 -134
t-72 -151t-225 -65v61q88 0 132 34q43 34 45 77h-105q-90 20 -90 110z" />
    <glyph glyph-name="ncommaaccent" unicode="&#x146;" horiz-adv-x="1275" 
d="M676 934q-92 0 -221 -84v-692q0 -53 27 -70q28 -16 98 -20v-68h-537v68q73 4 101 20t28 70v725l-123 71v39l367 113h47l-8 -201q65 76 157 138q92 63 228 63t212 -84q75 -84 74 -250v-614q0 -54 29 -70t98 -20v-68h-536v68q69 4 97 20t28 70v598q0 88 -37 133t-129 45z
M658 -84q72 0 118 -49q45 -49 45 -134q1 -85 -71 -151t-226 -65v61q88 0 131 34t45 77h-104q-92 20 -90 110q0 51 40 84t112 33z" />
    <glyph glyph-name="Ncaron" unicode="&#x147;" horiz-adv-x="1529" 
d="M1221 1223q0 81 -40 107t-165 36v72h477v-72q-106 -12 -135 -37t-29 -106v-1227h-100l-897 1132v-913q0 -81 39 -107t164 -36v-72h-478v72q109 12 137 37t27 106v1024q-45 65 -77 95t-89 32v72h420l746 -949v734zM1151 1849l-256 -319h-197l-256 319h82l273 -168l272 168
h82z" />
    <glyph glyph-name="ncaron" unicode="&#x148;" horiz-adv-x="1275" 
d="M676 934q-92 0 -221 -84v-692q0 -53 27 -70q28 -16 98 -20v-68h-537v68q73 4 101 20t28 70v725l-123 71v39l367 113h47l-8 -201q65 76 157 138q92 63 228 63t212 -84q75 -84 74 -250v-614q0 -54 29 -70t98 -20v-68h-536v68q69 4 97 20t28 70v598q0 88 -37 133t-129 45z
M995 1573l-233 -350h-197l-233 350h88l244 -197l243 197h88z" />
    <glyph glyph-name="Eng" unicode="&#x14a;" horiz-adv-x="1529" 
d="M332 215q0 -82 39 -107.5t164 -35.5v-72h-478v72q109 12 136.5 36.5t27.5 106.5v1024q-45 66 -76.5 95.5t-89.5 31.5v72h422l744 -946v731q0 82 -40 107.5t-165 35.5v72h477v-72q-106 -12 -135 -36.5t-29 -106.5v-1028q0 -150 -20.5 -227.5t-75.5 -153.5t-117.5 -126
t-157.5 -108l-32 33l65 92q70 102 93.5 210.5t23.5 231.5l-776 981v-913z" />
    <glyph glyph-name="eng" unicode="&#x14b;" horiz-adv-x="1257" 
d="M674 934q-94 0 -219 -84v-692q0 -53 27.5 -69.5t97.5 -20.5v-68h-537v68q72 4 100.5 20t28.5 70v725l-123 71v39l367 113h47l-8 -201q66 76 158 138.5t228 62.5t210.5 -84t74.5 -250v-577q0 -154 -24.5 -232.5t-80.5 -152.5q-93 -123 -298 -256l-33 32l84 140
q49 82 58.5 177t9.5 216v637q0 88 -37 133t-131 45z" />
    <glyph glyph-name="Omacron" unicode="&#x14c;" horiz-adv-x="1478" 
d="M712 -20q-308 0 -480 215q-171 215 -171 495q0 350 199 559q198 209 506 209t480 -215t171 -495q0 -350 -198 -560q-199 -208 -507 -208zM1096 711q0 251 -87 457t-273 206t-270 -198q-85 -198 -85 -449q1 -252 89 -458t273 -206t269 198t84 450zM449 1561v139h587v-139
h-587z" />
    <glyph glyph-name="omacron" unicode="&#x14d;" horiz-adv-x="1148" 
d="M568 -20q-230 0 -377 147q-146 147 -146 399t153 416t383 164t376 -150q147 -150 147 -400t-153 -414q-153 -162 -383 -162zM577 53q224 0 224 455q1 213 -55 368q-56 154 -174 154t-172 -120t-54 -332t56 -369q56 -156 175 -156zM303 1278v139h551v-139h-551z" />
    <glyph glyph-name="Obreve" unicode="&#x14e;" horiz-adv-x="1478" 
d="M712 -20q-308 0 -480 215q-171 215 -171 495q0 350 199 559q198 209 506 209t480 -215t171 -495q0 -350 -198 -560q-199 -208 -507 -208zM1096 711q0 251 -87 457t-273 206t-270 -198q-85 -198 -85 -449q1 -252 89 -458t273 -206t269 198t84 450zM1040 1843
q0 -155 -81 -237t-217 -82t-216 82t-80 237h76q14 -94 76 -128t144 -34q81 0 145 34q63 34 78 128h75z" />
    <glyph glyph-name="obreve" unicode="&#x14f;" horiz-adv-x="1148" 
d="M568 -20q-230 0 -377 147q-146 147 -146 399t153 416t383 164t376 -150q147 -150 147 -400t-153 -414q-153 -162 -383 -162zM577 53q224 0 224 455q1 213 -55 368q-56 154 -174 154t-172 -120t-54 -332t56 -369q56 -156 175 -156zM578 1223q-135 0 -206 86t-71 247h78
q8 -98 63 -136q54 -38 136 -38t137 38t63 136h78q0 -162 -72 -248t-206 -85z" />
    <glyph glyph-name="Ohungarumlaut" unicode="&#x150;" horiz-adv-x="1478" 
d="M712 -20q-308 0 -480 215q-171 215 -171 495q0 350 199 559q198 209 506 209t480 -215t171 -495q0 -350 -198 -560q-199 -208 -507 -208zM1096 711q0 251 -87 457t-273 206t-270 -198q-85 -198 -85 -449q1 -252 89 -458t273 -206t269 198t84 450zM1229 1835v-14
l-293 -291h-74l113 305h254zM897 1835v-14l-291 -291h-76l113 305h254z" />
    <glyph glyph-name="ohungarumlaut" unicode="&#x151;" horiz-adv-x="1148" 
d="M568 -20q-230 0 -377 147q-146 147 -146 399t153 416t383 164t376 -150q147 -150 147 -400t-153 -414q-153 -162 -383 -162zM577 53q224 0 224 455q1 213 -55 368q-56 154 -174 154t-172 -120t-54 -332t56 -369q56 -156 175 -156zM1047 1563v-15l-295 -325h-72l113 340
h254zM715 1563v-15l-295 -325h-72l113 340h254z" />
    <glyph glyph-name="OE" unicode="&#x152;" horiz-adv-x="2088" 
d="M885 0q-418 0 -621 204t-203 486q0 352 229.5 550t581.5 198h1106v-369h-59q-76 166 -138.5 226.5t-185.5 60.5h-286v-570h260q70 0 98.5 45.5t42.5 143.5h72v-465h-72q-14 98 -43 142t-98 44h-260v-475q0 -82 44 -110.5t138 -28.5h129q123 0 190.5 72.5t169.5 255.5h70
l-63 -410h-1102zM1008 1356h-115q-229 0 -371.5 -164t-142.5 -448t137 -473t420 -189h72v1274z" />
    <glyph glyph-name="oe" unicode="&#x153;" horiz-adv-x="1767" 
d="M1470 707q0 323 -142 323t-198.5 -91t-68.5 -232h409zM574 1030q-226 0 -226 -452q0 -213 55.5 -369t173.5 -156q226 0 226 455q0 213 -55.5 367.5t-173.5 154.5zM1397 174q191 0 305 166l33 -18q-39 -152 -150.5 -247t-288.5 -95q-111 0 -204 48t-156 124
q-68 -78 -164 -125t-201 -47q-233 0 -378.5 147t-145.5 399t153 416t380 164q117 0 215 -49t163 -131q63 80 155.5 130t197.5 50q203 0 308 -122t105 -306v-47h-667q-6 -213 93 -335t247 -122z" />
    <glyph glyph-name="Racute" unicode="&#x154;" horiz-adv-x="1470" 
d="M520 614v-401q0 -84 29 -107t135 -34v-72h-629v72q106 12 135 34t29 107v1012q0 85 -29 107t-135 34v72h654q254 0 395 -111t141 -283q1 -172 -109 -264t-225 -121l310 -419q69 -94 119 -130t130 -38v-72h-389q-81 59 -172 201l-282 413h-107zM614 1354h-94v-654h98
q160 0 241 88t81 236t-82 240q-82 90 -244 90zM1001 1835v-14l-325 -291h-76l107 305h294z" />
    <glyph glyph-name="racute" unicode="&#x155;" horiz-adv-x="841" 
d="M722 1106q77 0 103 -35v-221h-39q-94 0 -174 -16t-157 -95v-565q0 -62 40 -80t134 -26v-68h-586v68q73 4 101 20t28 70v725l-123 71v39l367 113h47l-8 -303q74 167 132 235t135 68zM813 1563v-15l-330 -325h-71l112 340h289z" />
    <glyph glyph-name="Rcommaaccent" unicode="&#x156;" horiz-adv-x="1470" 
d="M606 -201q0 51 40 84t113 33t118 -49t45 -134t-72 -151t-225 -65v61q88 0 131 34t45 77h-105q-90 20 -90 110zM520 614v-401q0 -84 29 -107t135 -34v-72h-629v72q106 12 135 34t29 107v1012q0 85 -29 107t-135 34v72h654q254 0 395 -111t141 -283q1 -172 -109 -264
t-225 -121l310 -419q69 -94 119 -130t130 -38v-72h-389q-81 59 -172 201l-282 413h-107zM614 1354h-94v-654h98q160 0 241 88t81 236t-82 240q-82 90 -244 90z" />
    <glyph glyph-name="rcommaaccent" unicode="&#x157;" horiz-adv-x="841" 
d="M722 1106q77 0 103 -35v-221h-39q-94 0 -174 -16t-157 -95v-565q0 -62 40 -80t134 -26v-68h-586v68q73 4 101 20t28 70v725l-123 71v39l367 113h47l-8 -303q74 167 132 235t135 68zM174 -201q0 51 40 84t112 33t118 -49q45 -49 45 -134q1 -85 -71 -151t-225 -65v61
q88 0 131 34t45 77h-105q-90 20 -90 110z" />
    <glyph glyph-name="Rcaron" unicode="&#x158;" horiz-adv-x="1470" 
d="M520 614v-401q0 -84 29 -107t135 -34v-72h-629v72q106 12 135 34t29 107v1012q0 85 -29 107t-135 34v72h654q254 0 395 -111t141 -283q1 -172 -109 -264t-225 -121l310 -419q69 -94 119 -130t130 -38v-72h-389q-81 59 -172 201l-282 413h-107zM614 1354h-94v-654h98
q160 0 241 88t81 236t-82 240q-82 90 -244 90zM1042 1849l-256 -319h-196l-256 319h82l272 -168l273 168h81z" />
    <glyph glyph-name="rcaron" unicode="&#x159;" horiz-adv-x="841" 
d="M722 1106q77 0 103 -35v-221h-39q-94 0 -174 -16t-157 -95v-565q0 -62 40 -80t134 -26v-68h-586v68q73 4 101 20t28 70v725l-123 71v39l367 113h47l-8 -303q74 167 132 235t135 68zM834 1573l-234 -350h-197l-233 350h88l244 -197l243 197h89z" />
    <glyph glyph-name="Sacute" unicode="&#x15a;" horiz-adv-x="1126" 
d="M551 1458q261 0 426 -121v-305h-76q-29 162 -117 253t-233 91q-105 0 -169 -60t-64 -162t66 -160q67 -58 251 -124t302 -165q118 -98 118 -301q1 -204 -153 -314t-367 -110q-145 0 -265 38t-190 97l-19 350h86q37 -182 135 -293t238 -111q138 -1 212 63t73 173
q0 109 -75 171t-257 128t-291 162q-108 96 -108 279t132 302t345 119zM901 1835v-14l-326 -291h-75l106 305h295z" />
    <glyph glyph-name="sacute" unicode="&#x15b;" horiz-adv-x="931" 
d="M470 1106q180 0 323 -90v-248h-70q-25 110 -91 188t-158 78q-93 0 -137 -42t-44 -110t52 -109q51 -42 193 -92t235 -128q93 -79 93 -235t-114 -247t-319 -91q-206 0 -351 102l-12 280h75q33 -133 112 -222t196 -89q82 0 138 41t56 124t-58 126q-59 43 -201 93t-226 127
q-84 76 -84 224t106 234t286 86zM793 1563v-15l-330 -325h-72l113 340h289z" />
    <glyph glyph-name="Scircumflex" unicode="&#x15c;" horiz-adv-x="1126" 
d="M551 1458q261 0 426 -121v-305h-76q-29 162 -117 253t-233 91q-105 0 -169 -60t-64 -162t66 -160q67 -58 251 -124t302 -165q118 -98 118 -301q1 -204 -153 -314t-367 -110q-145 0 -265 38t-190 97l-19 350h86q37 -182 135 -293t238 -111q138 -1 212 63t73 173
q0 109 -75 171t-257 128t-291 162q-108 96 -108 279t132 302t345 119zM678 1849l256 -319h-82l-272 168l-273 -168h-82l256 319h197z" />
    <glyph glyph-name="scircumflex" unicode="&#x15d;" horiz-adv-x="931" 
d="M470 1106q180 0 323 -90v-248h-70q-25 110 -91 188t-158 78q-93 0 -137 -42t-44 -110t52 -109q51 -42 193 -92t235 -128q93 -79 93 -235t-114 -247t-319 -91q-206 0 -351 102l-12 280h75q33 -133 112 -222t196 -89q82 0 138 41t56 124t-58 126q-59 43 -201 93t-226 127
q-84 76 -84 224t106 234t286 86zM580 1567l233 -350h-88l-244 196l-243 -196h-88l233 350h197z" />
    <glyph glyph-name="Scedilla" unicode="&#x15e;" horiz-adv-x="1126" 
d="M551 1458q262 0 426 -121v-305h-76q-29 162 -117 253t-233 91q-106 0 -170 -60.5t-64 -161.5t67 -159.5t251 -124.5t302 -165t118 -301t-153.5 -313t-366.5 -111l-27 -70q94 0 152.5 -41t58.5 -119q0 -111 -108.5 -162t-262.5 -51l-14 64q111 0 169 29.5t58 73.5
t-44 61.5t-126 19.5l80 197q-125 8 -227.5 44.5t-163.5 88.5l-19 350h86q37 -182 136 -293t237 -111t211.5 63.5t73.5 172.5t-75 171t-257 128t-290.5 162t-108.5 279t132 302t345 119z" />
    <glyph glyph-name="scedilla" unicode="&#x15f;" horiz-adv-x="931" 
d="M472 1106q181 0 321 -90v-248h-70q-25 111 -90.5 188.5t-158.5 77.5t-137 -42t-44 -110t51.5 -109.5t193.5 -91.5t235 -128.5t93 -234.5t-113.5 -247t-301.5 -91h-13l-26 -70q94 0 152.5 -41t58.5 -119q0 -111 -108.5 -162t-262.5 -51l-14 64q111 0 169 29.5t58 73.5
t-44 61.5t-126 19.5l80 199q-187 17 -293 98l-12 280h75q33 -133 112 -222t196 -89q82 0 138 41t56 124t-58.5 126t-200.5 93t-226 126.5t-84 224.5t106.5 234t287.5 86z" />
    <glyph glyph-name="Scaron" unicode="&#x160;" horiz-adv-x="1126" 
d="M551 1458q261 0 426 -121v-305h-76q-29 162 -117 253t-233 91q-105 0 -169 -60t-64 -162t66 -160q67 -58 251 -124t302 -165q118 -98 118 -301q1 -204 -153 -314t-367 -110q-145 0 -265 38t-190 97l-19 350h86q37 -182 135 -293t238 -111q138 -1 212 63t73 173
q0 109 -75 171t-257 128t-291 162q-108 96 -108 279t132 302t345 119zM934 1849l-256 -319h-197l-256 319h82l273 -168l272 168h82z" />
    <glyph glyph-name="scaron" unicode="&#x161;" horiz-adv-x="931" 
d="M470 1106q180 0 323 -90v-248h-70q-25 110 -91 188t-158 78q-93 0 -137 -42t-44 -110t52 -109q51 -42 193 -92t235 -128q93 -79 93 -235t-114 -247t-319 -91q-206 0 -351 102l-12 280h75q33 -133 112 -222t196 -89q82 0 138 41t56 124t-58 126q-59 43 -201 93t-226 127
q-84 76 -84 224t106 234t286 86zM813 1573l-233 -350h-197l-233 350h88l243 -197l244 197h88z" />
    <glyph glyph-name="Tcaron" unicode="&#x164;" horiz-adv-x="1382" 
d="M950 1364h-108v-1157q0 -83 40 -103t144 -32v-72h-668v72q102 12 144 31q41 19 41 104v1157h-109q-117 0 -178 -86t-162 -313h-65l30 473h1264l31 -473h-66q-98 227 -160 313t-178 86zM1044 1849l-256 -319h-196l-256 319h82l272 -168l273 168h81z" />
    <glyph glyph-name="tcaron" unicode="&#x165;" horiz-adv-x="737" 
d="M416 1352v-267h266v-94h-266v-678q0 -178 143 -178q76 0 154 58l24 -37q-113 -176 -315 -176q-125 0 -208 72t-83 245v694h-127v47q209 94 350 314h62zM784 1604v-17l-227 -403h-53l33 420h247z" />
    <glyph glyph-name="Tbar" unicode="&#x166;" horiz-adv-x="1382" 
d="M950 1364h-108v-580h231v-98h-231v-479q0 -84 40 -103.5t144 -31.5v-72h-668v72q102 12 143.5 31.5t41.5 103.5v479h-232v98h232v580h-109q-117 0 -178 -86t-162 -313h-65l30 473h1264l31 -473h-66q-98 227 -159.5 313t-178.5 86z" />
    <glyph glyph-name="tbar" unicode="&#x167;" horiz-adv-x="765" 
d="M428 1352v-267h266v-94h-266v-223h266v-90h-266v-365q0 -178 143 -178q76 0 154 58l25 -37q-113 -176 -316 -176q-125 0 -208 72.5t-83 244.5v381h-127v90h127v223h-127v47q207 94 351 314h61z" />
    <glyph glyph-name="Utilde" unicode="&#x168;" horiz-adv-x="1501" 
d="M487 1225v-705q0 -186 83 -294t251 -108t275 98q106 97 106 316v691q0 81 -35 107t-159 36v72h469v-72q-105 -12 -135 -37t-29 -106v-727q0 -262 -160 -390t-385 -126q-270 0 -425 129t-155 391v725q0 85 -28 107t-135 34v72h626v-72q-106 -12 -135 -34t-29 -107z
M943 1530q-83 0 -149 60t-121 60q-56 0 -89 -28q-33 -29 -66 -86l-55 31q53 133 104 195t133 62t148 -60q66 -62 122 -62t89 30t65 87l56 -33q-54 -132 -104 -194t-133 -62z" />
    <glyph glyph-name="utilde" unicode="&#x169;" horiz-adv-x="1230" 
d="M420 348q0 -198 160 -198q61 0 110 22t98 55v617q0 51 -17 78t-77 36l-30 7v61l372 78h45l-8 -240v-647q0 -51 12 -73t70 -25l51 -4v-62l-372 -73h-52l6 196q-63 -72 -149 -134t-214 -62t-209 80t-81 251v533q0 51 -17 78t-77 36l-33 7v61l377 78h45l-10 -244v-512z
M734 1231q-83 0 -142 61q-60 62 -116 62t-87 -30t-61 -85l-58 31q54 131 102 193q48 63 131 63t142 -60t115 -61q56 0 87 29q30 29 62 86l56 -31q-53 -131 -101 -195t-130 -63z" />
    <glyph glyph-name="Umacron" unicode="&#x16a;" horiz-adv-x="1501" 
d="M487 1225v-705q0 -186 83 -294t251 -108t275 98q106 97 106 316v691q0 81 -35 107t-159 36v72h469v-72q-105 -12 -135 -37t-29 -106v-727q0 -262 -160 -390t-385 -126q-270 0 -425 129t-155 391v725q0 85 -28 107t-135 34v72h626v-72q-106 -12 -135 -34t-29 -107z
M518 1561v139h588v-139h-588z" />
    <glyph glyph-name="umacron" unicode="&#x16b;" horiz-adv-x="1230" 
d="M420 348q0 -198 160 -198q61 0 110 22t98 55v617q0 51 -17 78t-77 36l-30 7v61l372 78h45l-8 -240v-647q0 -51 12 -73t70 -25l51 -4v-62l-372 -73h-52l6 196q-63 -72 -149 -134t-214 -62t-209 80t-81 251v533q0 51 -17 78t-77 36l-33 7v61l377 78h45l-10 -244v-512z
M338 1278v139h551v-139h-551z" />
    <glyph glyph-name="Ubreve" unicode="&#x16c;" horiz-adv-x="1501" 
d="M487 1225v-705q0 -186 83 -294t251 -108t275 98q106 97 106 316v691q0 81 -35 107t-159 36v72h469v-72q-105 -12 -135 -37t-29 -106v-727q0 -262 -160 -390t-385 -126q-270 0 -425 129t-155 391v725q0 85 -28 107t-135 34v72h626v-72q-106 -12 -135 -34t-29 -107z
M1110 1843q0 -155 -81 -237t-217 -82t-216 82t-80 237h76q14 -94 76 -128t144 -34q81 0 144 34t78 128h76z" />
    <glyph glyph-name="ubreve" unicode="&#x16d;" horiz-adv-x="1230" 
d="M420 348q0 -198 160 -198q61 0 110 22t98 55v617q0 51 -17 78t-77 36l-30 7v61l372 78h45l-8 -240v-647q0 -51 12 -73t70 -25l51 -4v-62l-372 -73h-52l6 196q-63 -72 -149 -134t-214 -62t-209 80t-81 251v533q0 51 -17 78t-77 36l-33 7v61l377 78h45l-10 -244v-512z
M612 1223q-136 0 -206 86t-70 247h78q8 -98 63 -136t136 -38t137 38q55 38 63 136h78q0 -162 -72 -248t-207 -85z" />
    <glyph glyph-name="Uring" unicode="&#x16e;" horiz-adv-x="1501" 
d="M487 1225v-705q0 -186 83 -294t251 -108t275 98q106 97 106 316v691q0 81 -35 107t-159 36v72h469v-72q-105 -12 -135 -37t-29 -106v-727q0 -262 -160 -390t-385 -126q-270 0 -425 129t-155 391v725q0 85 -28 107t-135 34v72h626v-72q-106 -12 -135 -34t-29 -107z
M618 1688q0 82 56 137t141 55q84 0 138 -55q55 -55 55 -137t-54 -138t-139 -55q-85 -1 -141 55t-56 138zM709 1688q-1 -47 27 -79t79 -32t79 32t28 79q0 46 -28 78t-79 32t-79 -32t-27 -78z" />
    <glyph glyph-name="uring" unicode="&#x16f;" horiz-adv-x="1230" 
d="M420 348q0 -198 160 -198q61 0 110 22t98 55v617q0 51 -17 78t-77 36l-30 7v61l372 78h45l-8 -240v-647q0 -51 12 -73t70 -25l51 -4v-62l-372 -73h-52l6 196q-63 -72 -149 -134t-214 -62t-209 80t-81 251v533q0 51 -17 78t-77 36l-33 7v61l377 78h45l-10 -244v-512z
M418 1363q0 81 56 136t140 55t138 -55t55 -136q0 -81 -54 -136q-55 -55 -139 -55t-140 54q-56 56 -56 137zM614 1475q-50 0 -78 -32t-28 -79t28 -80t78 -33t79 33q28 33 28 80t-28 79t-79 32z" />
    <glyph glyph-name="Uhungarumlaut" unicode="&#x170;" horiz-adv-x="1501" 
d="M487 1225v-705q0 -186 83 -294t251 -108t275 98q106 97 106 316v691q0 81 -35 107t-159 36v72h469v-72q-105 -12 -135 -37t-29 -106v-727q0 -262 -160 -390t-385 -126q-270 0 -425 129t-155 391v725q0 85 -28 107t-135 34v72h626v-72q-106 -12 -135 -34t-29 -107z
M1300 1835v-14l-292 -291h-74l113 305h253zM969 1835v-14l-291 -291h-76l113 305h254z" />
    <glyph glyph-name="uhungarumlaut" unicode="&#x171;" horiz-adv-x="1230" 
d="M420 348q0 -198 160 -198q61 0 110 22t98 55v617q0 51 -17 78t-77 36l-30 7v61l372 78h45l-8 -240v-647q0 -51 12 -73t70 -25l51 -4v-62l-372 -73h-52l6 196q-63 -72 -149 -134t-214 -62t-209 80t-81 251v533q0 51 -17 78t-77 36l-33 7v61l377 78h45l-10 -244v-512z
M1081 1563v-15l-295 -325h-71l112 340h254zM750 1563v-15l-295 -325h-72l113 340h254z" />
    <glyph glyph-name="Uogonek" unicode="&#x172;" horiz-adv-x="1501" 
d="M1071 -287q-121 -149 -262 -149q-84 0 -136 46t-52 127q0 139 198 245l-51 -2q-270 0 -425 129t-155 391v725q0 84 -28.5 106.5t-134.5 34.5v72h626v-72q-106 -12 -135 -34.5t-29 -106.5v-705q0 -186 83 -293.5t251 -107.5t274.5 97t106.5 316v691q0 82 -34.5 107.5
t-159.5 35.5v72h469v-72q-106 -12 -135 -36.5t-29 -106.5v-727q0 -201 -95.5 -322t-244.5 -166q-178 -89 -178 -219q0 -45 23.5 -74.5t90.5 -29.5t135 59z" />
    <glyph glyph-name="uogonek" unicode="&#x173;" horiz-adv-x="1230" 
d="M420 348q0 -198 160 -198q61 0 110 22.5t98 54.5v617q0 51 -17 77.5t-77 36.5l-30 7v61l372 78h45l-8 -240v-647q0 -51 12.5 -72.5t69.5 -25.5l51 -4v-62q-266 -51 -360 -109.5t-94 -158.5t98 -100q83 0 151 59l27 -31q-51 -63 -113.5 -106t-147.5 -43t-137 47t-52 128
t55 137t149 101l6 199q-63 -72 -149 -134t-214 -62t-209 79.5t-81 251.5v533q0 51 -17.5 77.5t-76.5 36.5l-33 7v61l377 78h45l-10 -244v-512z" />
    <glyph glyph-name="Wcircumflex" unicode="&#x174;" horiz-adv-x="1974" 
d="M463 1284q0 -20 12 -59t293 -824l199 551l-113 338q-14 38 -42 54t-71 22v72h590v-72q-92 -2 -128 -22t-36 -66q-1 -20 7 -46t16 -58l250 -762l258 766q8 28 16 52t8 56q0 76 -163 80v72h405v-72q-41 -6 -73 -20t-46 -56l-454 -1302h-99l-280 831l-303 -831h-99
l-479 1302q-14 38 -47 54t-74 22v72h600v-72q-147 -4 -147 -82zM1135 1849l256 -319h-82l-273 168l-272 -168h-82l256 319h197z" />
    <glyph glyph-name="wcircumflex" unicode="&#x175;" horiz-adv-x="1714" 
d="M1362 1085h342v-67q-54 -14 -72 -30t-33 -48l-387 -954h-88l-245 661l-273 -661h-86l-405 954q-13 33 -31 48t-74 30v67h535v-67q-57 -8 -87 -22t-30 -45q0 -32 12 -58l217 -563l177 438l-64 172q-12 33 -32 48t-68 30v67h520v-67q-63 -8 -97 -20t-34 -42q0 -29 8 -63
l197 -549l215 549q10 35 10 63t-32 41q-32 12 -95 21v67zM989 1567l234 -350h-88l-244 196l-244 -196h-88l234 350h196z" />
    <glyph glyph-name="Ycircumflex" unicode="&#x176;" horiz-adv-x="1363" 
d="M834 207q0 -84 39 -104q40 -19 143 -31v-72h-658v72q104 12 145 31q40 19 40 104v346l-412 737q-23 41 -50 56q-28 14 -71 20v72h617v-72q-94 -2 -127 -18t-33 -50t12 -60t31 -58l285 -498l266 494q43 83 43 119q0 37 -37 53t-125 18v72h412v-72q-43 -6 -72 -21t-49 -55
l-399 -733v-350zM840 1849l256 -319h-82l-273 168l-272 -168h-82l256 319h197z" />
    <glyph glyph-name="ycircumflex" unicode="&#x177;" horiz-adv-x="1153" 
d="M308 -270q73 0 126 30t86 113l35 88l-440 979q-13 33 -31 48t-74 30v67h557v-67q-79 -8 -109 -22t-30 -40q0 -27 12 -65l246 -606l229 606q15 34 15 63t-30 42t-109 22v67h352v-67q-53 -14 -71 -30t-34 -48l-450 -1135q-50 -123 -110 -189t-161 -67q-51 0 -97 25t-60 70
v104q75 -18 148 -18zM739 1567l234 -350h-88l-244 196l-244 -196h-88l234 350h196z" />
    <glyph glyph-name="Ydieresis" unicode="&#x178;" horiz-adv-x="1363" 
d="M834 207q0 -84 39 -104q40 -19 143 -31v-72h-658v72q104 12 145 31q40 19 40 104v346l-412 737q-23 41 -50 56q-28 14 -71 20v72h617v-72q-94 -2 -127 -18t-33 -50t12 -60t31 -58l285 -498l266 494q43 83 43 119q0 37 -37 53t-125 18v72h412v-72q-43 -6 -72 -21t-49 -55
l-399 -733v-350zM797 1684q0 60 43 104t105 45q63 0 107 -44q44 -45 44 -105t-44 -105t-106 -45t-106 45q-43 45 -43 105zM389 1684q0 60 43 104q44 44 106 45q62 0 106 -44q44 -45 44 -105t-44 -105t-106 -45t-106 45q-43 45 -43 105z" />
    <glyph glyph-name="Zacute" unicode="&#x179;" horiz-adv-x="1243" 
d="M748 82q128 0 200 76t189 282h69l-71 -440h-1098v53l774 1303h-340q-131 0 -184 -73t-135 -257h-68l16 412h1067v-54l-770 -1302h351zM944 1835v-14l-326 -291h-75l106 305h295z" />
    <glyph glyph-name="zacute" unicode="&#x17a;" horiz-adv-x="1040" 
d="M51 0v47l600 954h-243q-86 0 -142 -68q-55 -69 -114 -228h-66l33 444h59l31 -68h768v-51l-586 -950h262q90 0 151 70q60 70 126 241h63l-39 -391h-903zM868 1563v-15l-329 -325h-72l113 340h288z" />
    <glyph glyph-name="Zdotaccent" unicode="&#x17b;" horiz-adv-x="1243" 
d="M748 82q128 0 200 76t189 282h69l-71 -440h-1098v53l774 1303h-340q-131 0 -184 -73t-135 -257h-68l16 412h1067v-54l-770 -1302h351zM799 1695q0 -65 -47 -113t-122 -48t-120 48t-45 113t45 113t120 47q75 0 122 -48t47 -112z" />
    <glyph glyph-name="zdotaccent" unicode="&#x17c;" horiz-adv-x="1040" 
d="M51 0v47l600 954h-243q-86 0 -142 -68q-55 -69 -114 -228h-66l33 444h59l31 -68h768v-51l-586 -950h262q90 0 151 70q60 70 126 241h63l-39 -391h-903zM556 1233q-75 0 -120 48q-45 49 -45 113t45 113t120 49t122 -49t47 -113t-47 -113q-47 -48 -122 -48z" />
    <glyph glyph-name="Zcaron" unicode="&#x17d;" horiz-adv-x="1243" 
d="M748 82q128 0 200 76t189 282h69l-71 -440h-1098v53l774 1303h-340q-131 0 -184 -73t-135 -257h-68l16 412h1067v-54l-770 -1302h351zM985 1849l-256 -319h-197l-256 319h82l273 -168l272 168h82z" />
    <glyph glyph-name="zcaron" unicode="&#x17e;" horiz-adv-x="1040" 
d="M51 0v47l600 954h-243q-86 0 -142 -68q-55 -69 -114 -228h-66l33 444h59l31 -68h768v-51l-586 -950h262q90 0 151 70q60 70 126 241h63l-39 -391h-903zM889 1573l-234 -350h-196l-234 350h88l244 -197l244 197h88z" />
    <glyph glyph-name="florin" unicode="&#x192;" horiz-adv-x="1071" 
d="M1059 1287q0 -87 -103 -122h-73q0 82 -15.5 158t-79.5 76q-90 0 -106 -154l-61 -489h227l-8 -72h-230l-51 -422q-35 -289 -143.5 -443.5t-311.5 -154.5q-111 0 -175 42t-64 124q0 49 28.5 81t73.5 46h74q0 -82 15.5 -157.5t78.5 -75.5q89 0 107 153l100 807h-186l8 72
h186l15 104q35 289 143 443.5t311 154.5q111 0 175.5 -42t64.5 -129z" />
    <glyph glyph-name="AEacute" unicode="&#x1fc;" horiz-adv-x="2091" 
d="M1010 594v739l-475 -739h475zM662 1438h1308l10 -369h-61q-74 166 -137 226t-187 61h-286v-570h260q71 0 99 45t42 144h74v-465h-74q-14 98 -43 142t-98 44h-260v-475q0 -83 44 -111t138 -28h129q122 0 190 73t170 255h72l-63 -410h-1143v72q106 12 135 34t29 107v293
h-533l-168 -262q-32 -56 -33 -84q0 -86 191 -88v-72h-457v72q43 6 69 22q25 16 52 53l735 1143q-35 67 -204 76v72zM1626 1835v-14l-326 -291h-75l106 305h295z" />
    <glyph glyph-name="aeacute" unicode="&#x1fd;" horiz-adv-x="1562" 
d="M608 546q0 17 2 32l-139 -54q-72 -28 -111 -70q-38 -42 -38 -125q1 -186 170 -186q88 0 186 70q-68 126 -70 301v32zM1266 702q0 328 -185 328q-100 0 -150 -94t-63 -234h398zM1118 1106q191 0 296 -125t106 -309v-45h-656q-6 -211 87 -332t247 -121q185 0 299 166
l33 -18q-39 -152 -151 -247t-287 -95q-251 0 -387 190q-63 -76 -151 -131t-221 -55q-132 0 -209 70t-77 198q0 126 83 192t198 109l293 102q9 55 24 97q0 124 -40 206t-115 82q-136 0 -136 -172q0 -65 17 -127l-170 -22q-92 31 -90 129q1 126 115 192t274 66q208 0 293 -121
q134 121 325 121zM1141 1563v-15l-330 -325h-72l113 340h289z" />
    <glyph glyph-name="Oslashacute" unicode="&#x1fe;" horiz-adv-x="1478" 
d="M1012 261q84 198 84 416t-47 388l-572 -817q99 -185 275 -185t260 198zM466 1176q-85 -198 -85 -433q0 -236 57 -405l576 821q-101 215 -282 215t-266 -198zM752 1458q223 0 387 -119l129 185l67 -49l-131 -187q104 -100 158 -241t55 -299q0 -350 -198 -560
q-199 -208 -492 -208q-210 0 -367 100l-137 -195l-67 47l137 199q-113 101 -172 247t-60 312q0 350 199 559t492 209zM1061 1835v-14l-326 -291h-76l107 305h295z" />
    <glyph glyph-name="oslashacute" unicode="&#x1ff;" horiz-adv-x="1148" 
d="M748 174q53 121 53 303t-25 295l-379 -555q63 -164 180 -164q118 0 171 121zM570 1030q-116 0 -170 -120t-54 -305q0 -186 27 -296l377 555q-64 166 -180 166zM1104 570q0 -266 -153 -428t-380 -162q-166 0 -286 71l-107 -157l-61 40l108 160q-180 147 -180 415
q0 269 153 433t380 164q159 0 284 -74l109 158l61 -41l-108 -160q180 -154 180 -419zM887 1563v-15l-330 -325h-72l113 340h289z" />
    <glyph glyph-name="Scommaaccent" unicode="&#x218;" horiz-adv-x="1126" 
d="M551 1458q261 0 426 -121v-305h-76q-29 162 -117 253t-233 91q-105 0 -169 -60t-64 -162t66 -160q67 -58 251 -124t302 -165q118 -98 118 -301q1 -204 -153 -314t-367 -110q-145 0 -265 38t-190 97l-19 350h86q37 -182 135 -293t238 -111q138 -1 212 63t73 173
q0 109 -75 171t-257 128t-291 162q-108 96 -108 279t132 302t345 119zM397 -201q0 51 40 84t113 33t118 -49t45 -134t-72 -151t-225 -65v61q88 0 131 34t45 77h-105q-90 20 -90 110z" />
    <glyph glyph-name="scommaaccent" unicode="&#x219;" horiz-adv-x="931" 
d="M470 1106q180 0 323 -90v-248h-70q-25 110 -91 188t-158 78q-93 0 -137 -42t-44 -110t52 -109q51 -42 193 -92t235 -128q93 -79 93 -235t-114 -247t-319 -91q-206 0 -351 102l-12 280h75q33 -133 112 -222t196 -89q82 0 138 41t56 124t-58 126q-59 43 -201 93t-226 127
q-84 76 -84 224t106 234t286 86zM313 -201q0 51 40 84t113 33t118 -49t45 -134t-72 -151t-225 -65v61q88 0 131 34t45 77h-105q-90 20 -90 110z" />
    <glyph glyph-name="circumflex" unicode="&#x2c6;" 
d="M610 1567l234 -350h-88l-244 196l-244 -196h-88l234 350h196z" />
    <glyph glyph-name="caron" unicode="&#x2c7;" 
d="M844 1573l-234 -350h-196l-234 350h88l244 -197l244 197h88z" />
    <glyph glyph-name="breve" unicode="&#x2d8;" 
d="M518 1223q-135 0 -205.5 86t-70.5 247h77q8 -98 63.5 -136t136.5 -38t136.5 38t63.5 136h78q0 -162 -72 -247.5t-207 -85.5z" />
    <glyph glyph-name="dotaccent" unicode="&#x2d9;" 
d="M511 1233q-75 0 -120 48.5t-45 112.5t45 113t120 49t122 -49t47 -113t-47 -112.5t-122 -48.5z" />
    <glyph glyph-name="ring" unicode="&#x2da;" 
d="M326 1363q0 81 56 136t140 55t138.5 -55t54.5 -136t-54.5 -136.5t-138.5 -55.5t-140 55.5t-56 136.5zM416 1364q0 -47 27.5 -80t78.5 -33t79 33t28 80t-28 79t-79 32t-78.5 -32t-27.5 -79z" />
    <glyph glyph-name="tilde" unicode="&#x2dc;" 
d="M634 1231q-83 0 -142.5 61.5t-115.5 61.5t-87 -30t-62 -85l-57 31q55 131 102 193.5t130 62.5t142.5 -60.5t115.5 -60.5t86 28.5t63 86.5l55 -31q-53 -131 -100 -194.5t-130 -63.5z" />
    <glyph glyph-name="hungarumlaut" unicode="&#x2dd;" 
d="M872 1563v-15l-294 -325h-72l112 340h254zM541 1563v-15l-295 -325h-72l113 340h254z" />
    <glyph glyph-name="Wgrave" unicode="&#x1e80;" horiz-adv-x="1974" 
d="M463 1284q0 -20 12 -59t293 -824l199 551l-113 338q-14 38 -42 54t-71 22v72h590v-72q-92 -2 -128 -22t-36 -66q-1 -20 7 -46t16 -58l250 -762l258 766q8 28 16 52t8 56q0 76 -163 80v72h405v-72q-41 -6 -73 -20t-46 -56l-454 -1302h-99l-280 831l-303 -831h-99
l-479 1302q-14 38 -47 54t-74 22v72h600v-72q-147 -4 -147 -82zM729 1835h295l106 -305h-75l-326 291v14z" />
    <glyph glyph-name="wgrave" unicode="&#x1e81;" horiz-adv-x="1714" 
d="M1362 1085h342v-67q-54 -14 -72 -30t-33 -48l-387 -954h-88l-245 661l-273 -661h-86l-405 954q-13 33 -31 48t-74 30v67h535v-67q-57 -8 -87 -22t-30 -45q0 -32 12 -58l217 -563l177 438l-64 172q-12 33 -32 48t-68 30v67h520v-67q-63 -8 -97 -20t-34 -42q0 -29 8 -63
l197 -549l215 549q10 35 10 63t-32 41q-32 12 -95 21v67zM588 1563h289l112 -340h-71l-330 325v15z" />
    <glyph glyph-name="Wacute" unicode="&#x1e82;" horiz-adv-x="1974" 
d="M463 1284q0 -20 12 -59t293 -824l199 551l-113 338q-14 38 -42 54t-71 22v72h590v-72q-92 -2 -128 -22t-36 -66q-1 -20 7 -46t16 -58l250 -762l258 766q8 28 16 52t8 56q0 76 -163 80v72h405v-72q-41 -6 -73 -20t-46 -56l-454 -1302h-99l-280 831l-303 -831h-99
l-479 1302q-14 38 -47 54t-74 22v72h600v-72q-147 -4 -147 -82zM1350 1835v-14l-326 -291h-76l107 305h295z" />
    <glyph glyph-name="wacute" unicode="&#x1e83;" horiz-adv-x="1714" 
d="M1362 1085h342v-67q-54 -14 -72 -30t-33 -48l-387 -954h-88l-245 661l-273 -661h-86l-405 954q-13 33 -31 48t-74 30v67h535v-67q-57 -8 -87 -22t-30 -45q0 -32 12 -58l217 -563l177 438l-64 172q-12 33 -32 48t-68 30v67h520v-67q-63 -8 -97 -20t-34 -42q0 -29 8 -63
l197 -549l215 549q10 35 10 63t-32 41q-32 12 -95 21v67zM1202 1563v-15l-330 -325h-71l112 340h289z" />
    <glyph glyph-name="Wdieresis" unicode="&#x1e84;" horiz-adv-x="1974" 
d="M463 1284q0 -20 12 -59t293 -824l199 551l-113 338q-14 38 -42 54t-71 22v72h590v-72q-92 -2 -128 -22t-36 -66q-1 -20 7 -46t16 -58l250 -762l258 766q8 28 16 52t8 56q0 76 -163 80v72h405v-72q-41 -6 -73 -20t-46 -56l-454 -1302h-99l-280 831l-303 -831h-99
l-479 1302q-14 38 -47 54t-74 22v72h600v-72q-147 -4 -147 -82zM1092 1684q0 60 43 104t105 45q62 0 106 -44q44 -45 45 -105q0 -60 -44 -105q-45 -45 -107 -45t-105 45t-43 105zM684 1684q0 60 43 104t105 45q62 0 106 -44q44 -45 45 -105q0 -60 -44 -105q-45 -45 -107 -45
t-105 45t-43 105z" />
    <glyph glyph-name="wdieresis" unicode="&#x1e85;" horiz-adv-x="1714" 
d="M1362 1085h342v-67q-54 -14 -72 -30t-33 -48l-387 -954h-88l-245 661l-273 -661h-86l-405 954q-13 33 -31 48t-74 30v67h535v-67q-57 -8 -87 -22t-30 -45q0 -32 12 -58l217 -563l177 438l-64 172q-12 33 -32 48t-68 30v67h520v-67q-63 -8 -97 -20t-34 -42q0 -29 8 -63
l197 -549l215 549q10 35 10 63t-32 41q-32 12 -95 21v67zM940 1391q0 61 44 105t105 44t105 -44t45 -105q0 -61 -44 -105q-43 -44 -105 -45q-62 1 -106 45t-44 105zM543 1391q0 61 44 105t106 44q63 0 107 -44t44 -105t-44 -105t-106 -45q-62 1 -107 45q-44 44 -44 105z" />
    <glyph glyph-name="Ygrave" unicode="&#x1ef2;" horiz-adv-x="1363" 
d="M834 207q0 -84 39 -104q40 -19 143 -31v-72h-658v72q104 12 145 31q40 19 40 104v346l-412 737q-23 41 -50 56q-28 14 -71 20v72h617v-72q-94 -2 -127 -18t-33 -50t12 -60t31 -58l285 -498l266 494q43 83 43 119q0 37 -37 53t-125 18v72h412v-72q-43 -6 -72 -21t-49 -55
l-399 -733v-350zM434 1835h295l107 -305h-76l-326 291v14z" />
    <glyph glyph-name="ygrave" unicode="&#x1ef3;" horiz-adv-x="1153" 
d="M308 -270q73 0 126 30t86 113l35 88l-440 979q-13 33 -31 48t-74 30v67h557v-67q-79 -8 -109 -22t-30 -40q0 -27 12 -65l246 -606l229 606q15 34 15 63t-30 42t-109 22v67h352v-67q-53 -14 -71 -30t-34 -48l-450 -1135q-50 -123 -110 -189t-161 -67q-51 0 -97 25t-60 70
v104q75 -18 148 -18zM338 1563h289l112 -340h-71l-330 325v15z" />
    <glyph glyph-name="endash" unicode="&#x2013;" horiz-adv-x="1105" 
d="M1044 569h-983v99h983v-99z" />
    <glyph glyph-name="emdash" unicode="&#x2014;" horiz-adv-x="1966" 
d="M1905 668v-99h-1844v99h1844z" />
    <glyph glyph-name="quoteleft" unicode="&#x2018;" horiz-adv-x="491" 
d="M424 1162q0 -67 -47 -109.5t-123 -42.5t-124 59t-48 154q0 139 90 226t258 97v-67q-192 -25 -207 -166h80q51 -10 86 -47t35 -104z" />
    <glyph glyph-name="quoteright" unicode="&#x2019;" horiz-adv-x="491" 
d="M76 1384q0 66 47 109t123 43t124 -59.5t48 -153.5q0 -139 -90 -227t-258 -97v66q191 29 206 168h-79q-51 10 -86 47.5t-35 103.5z" />
    <glyph glyph-name="quotesinglbase" unicode="&#x201a;" horiz-adv-x="491" 
d="M76 152q0 68 47 109.5t123 41.5t124 -59.5t48 -153.5q0 -139 -90 -226t-258 -97v67q191 29 206 166h-79q-51 12 -86 48t-35 104z" />
    <glyph glyph-name="quotedblleft" unicode="&#x201c;" horiz-adv-x="888" 
d="M424 1162q0 -67 -47 -109.5t-123 -42.5t-124 59t-48 154q0 139 90 226t258 97v-67q-192 -25 -207 -166h80q51 -10 86 -47t35 -104zM821 1162q0 -67 -47 -109.5t-123 -42.5t-124 59t-48 154q0 139 89 226t257 97v-67q-189 -25 -204 -166h77q51 -10 87 -47t36 -104z" />
    <glyph glyph-name="quotedblright" unicode="&#x201d;" horiz-adv-x="888" 
d="M471 1384q0 66 48 109t124 43t124 -59.5t48 -153.5q0 -139 -90 -227t-258 -97v66q192 29 207 168h-80q-51 10 -87 47.5t-36 103.5zM76 1384q0 66 47 109t123 43t124 -59.5t48 -153.5q0 -139 -90 -227t-258 -97v66q191 29 206 168h-79q-51 10 -86 47.5t-35 103.5z" />
    <glyph glyph-name="quotedblbase" unicode="&#x201e;" horiz-adv-x="888" 
d="M471 152q0 68 48 109.5t124 41.5t124 -59.5t48 -153.5q0 -139 -90 -226t-258 -97v67q192 29 207 166h-80q-51 12 -87 48t-36 104zM76 152q0 68 47 109.5t123 41.5t124 -59.5t48 -153.5q0 -139 -90 -226t-258 -97v67q191 29 206 166h-79q-51 12 -86 48t-35 104z" />
    <glyph glyph-name="dagger" unicode="&#x2020;" horiz-adv-x="747" 
d="M393 1202q0 -66 30 -118t69 -72v-17q-39 -57 -69 -241.5t-36 -401.5h-27q-6 217 -35.5 401.5t-68.5 241.5v17q39 20 69.5 72.5t30.5 117.5q-72 0 -122 -34.5t-97 -34.5t-71.5 23.5t-24.5 63.5t24.5 63.5t71.5 23.5t97.5 -35t121.5 -35q0 72 -34.5 122t-34.5 97t23.5 71.5
t63.5 24.5t63.5 -24.5t23.5 -71.5t-34 -97t-34 -122q72 0 121.5 35t97.5 35q96 0 95 -88q0 -39 -23.5 -62.5t-71.5 -23.5t-97.5 34.5t-121.5 34.5z" />
    <glyph glyph-name="daggerdbl" unicode="&#x2021;" horiz-adv-x="765" 
d="M365 668q0 107 -101 159v19q47 6 75 38.5t28 68.5t-28 69t-75 41v16q101 52 101 160q-72 0 -121.5 -35t-97.5 -35t-72.5 23.5t-24.5 63.5t24.5 63.5t71.5 23.5t97.5 -34.5t122.5 -34.5q0 72 -35 103.5t-35 78.5t23.5 71.5t64.5 24.5t64.5 -24.5t23.5 -71.5t-35 -78.5
t-35 -103.5q72 0 121.5 34.5t97.5 34.5t72.5 -23.5t24.5 -63.5t-24.5 -63.5t-71.5 -23.5t-97.5 35t-122.5 35q0 -107 99 -160v-16q-45 -8 -73 -41t-28 -69t28 -68.5t73 -38.5v-19q-99 -51 -99 -159q72 0 121.5 34.5t97.5 34.5t72.5 -23.5t24.5 -63.5t-24.5 -63.5
t-71.5 -23.5t-97.5 35t-122.5 35q0 -72 35 -103.5t35 -79.5t-23.5 -72t-64.5 -24t-64.5 24.5t-23.5 71.5t35 79t35 104q-72 0 -121.5 -35t-97.5 -35t-72.5 23.5t-24.5 63.5t24.5 63.5t71.5 23.5t97.5 -34.5t122.5 -34.5z" />
    <glyph glyph-name="bullet" unicode="&#x2022;" horiz-adv-x="690" 
d="M61 622.5q0 116.5 84 201.5t200 85t200 -85t84 -201.5t-84 -200.5t-200 -84t-200 84t-84 200.5z" />
    <glyph glyph-name="ellipsis" unicode="&#x2026;" horiz-adv-x="1433" 
d="M1018 157.5q0 75.5 51 127t125 51.5t126 -51.5t52 -127t-52 -126.5t-126 -51t-125 51t-51 126.5zM539 157.5q0 75.5 52 127t126 51.5t126 -51.5t52 -127t-52 -126.5t-126 -51t-126 51t-52 126.5zM61 157.5q0 75.5 52.5 127t126 51.5t125 -51.5t51.5 -127t-51.5 -126.5
t-125 -51t-126 51t-52.5 126.5z" />
    <glyph glyph-name="guilsinglleft" unicode="&#x2039;" horiz-adv-x="579" 
d="M59 557v12l385 402h78l-219 -408l219 -407h-78z" />
    <glyph glyph-name="guilsinglright" unicode="&#x203a;" horiz-adv-x="579" 
d="M522 569v-12l-387 -401h-76l220 407l-220 408h76z" />
    <glyph glyph-name="fraction" unicode="&#x2044;" horiz-adv-x="579" 
d="M-207 -20l897 1478h96l-899 -1478h-94z" />
    <glyph glyph-name="Euro" unicode="&#x20ac;" horiz-adv-x="1347" 
d="M199 694q0 34 6 115h-172v78h182q45 262 213 416.5t409 154.5t400 -125v-325h-78q-33 160 -104 266t-217 106t-227 -149.5t-101 -343.5h469l-25 -78h-448q-2 -16 -2 -21v-61q0 -57 2 -80h401l-24 -78h-373q20 -217 100 -362.5t238 -145.5t235.5 104.5t135.5 293.5h75
l-32 -369q-190 -110 -418 -110q-283 0 -445.5 161.5t-193.5 427.5h-172v78h166v47z" />
    <glyph glyph-name="trademark" unicode="&#x2122;" horiz-adv-x="1755" 
d="M1319 805q94 5 94 45q0 20 -3 41.5t-5 44.5l-43 315l-180 -497h-56l-194 497l-41 -315q-2 -23 -4 -45.5t-2 -42.5q0 -40 92 -43v-47h-242v47q76 4 80 55l62 449q-5 75 -82 80v49h239q4 -34 17 -62l151 -391l146 389q4 16 8 30.5t6 33.5h231v-49q-82 -3 -82 -80l60 -449
q4 -31 23.5 -42t60.5 -13v-47h-336v47zM520 1389h-37v-519q0 -39 24.5 -51t72.5 -14v-47h-357v47q47 2 70.5 14t23.5 51v519h-36q-63 0 -96 -45.5t-66 -122.5h-45l14 217h625l14 -217h-43q-33 78 -66.5 123t-97.5 45z" />
    <glyph glyph-name="minus" unicode="&#x2212;" horiz-adv-x="1165" 
d="M131 696v123h903v-123h-903z" />
    <glyph glyph-name="approxequal" unicode="&#x2248;" horiz-adv-x="1185" 
d="M383 721q119 0 209 -39t211 -39t241 80v-125q-121 -80 -241 -80q-121 0 -211 39t-207 39t-244 -80v123q123 82 242 82zM385 1012q117 0 207 -41t208 -41t244 84v-125q-127 -84 -244 -84q-118 0 -208 41t-207 41t-244 -84v125q127 84 244 84z" />
    <glyph glyph-name="notequal" unicode="&#x2260;" horiz-adv-x="1185" 
d="M141 846v119h541l162 217h133l-162 -217h229v-119h-317l-131 -176h448v-117h-536l-162 -219h-133l162 219h-234v117h322l131 176h-453z" />
    <glyph glyph-name="lessequal" unicode="&#x2264;" horiz-adv-x="899" 
d="M106 281v122h642v-122h-642zM106 819v19l642 344v-138l-412 -215l412 -217v-137z" />
    <glyph glyph-name="greaterequal" unicode="&#x2265;" horiz-adv-x="899" 
d="M795 403v-122h-643v122h643zM795 838v-19l-643 -344v137l413 217l-413 215v138z" />
    <glyph glyph-name="ff" unicode="&#xfb00;" horiz-adv-x="1366" 
d="M457 1235v-150h370v97q0 95 29 176q-75 143 -211 143q-188 0 -188 -266zM1223 1532q-111 0 -111 -180v-267h252v-94h-252v-817q0 -63 39 -80.5t133 -25.5v-68h-582v68q70 4 97.5 20t27.5 70v833h-370v-833q0 -53 27.5 -69.5t97.5 -20.5v-68h-537v68q70 4 98.5 20t28.5 70
v833h-149v56l149 49v34q0 219 134 330t318 111t306 -90q115 123 321 123q135 0 202 -46.5t67 -129.5t-70 -113h-150q9 71 9 105t-17.5 73t-68.5 39z" />
    <glyph glyph-name="ffi" unicode="&#xfb03;" horiz-adv-x="1927" 
d="M645 1501q-188 0 -188 -266v-150h370v60q0 106 35 196q-31 70 -85 115t-132 45zM1401 1393q0 50 -26.5 94.5t-102.5 44.5t-118 -71.5t-42 -203.5v-172h518l78 21h59v-948q0 -53 29 -69.5t98 -20.5v-68h-536v68q70 4 97.5 20t27.5 70v833h-371v-833q0 -53 28.5 -69.5
t98.5 -20.5v-68h-537v68q70 4 97.5 20t27.5 70v833h-370v-833q0 -53 27.5 -69.5t97.5 -20.5v-68h-537v68q70 4 98.5 20t28.5 70v833h-149v56l149 49v34q0 219 134 330t326 111t312 -101q130 134 367 134q152 0 237.5 -47.5t85.5 -129.5t-71 -120h-170q8 36 8 86z" />
    <glyph glyph-name="ffl" unicode="&#xfb04;" horiz-adv-x="1927" 
d="M457 1235v-150h370v97q0 97 29 174q-76 145 -211 145q-188 0 -188 -266zM1112 1286v-201h225v-94h-225v-833q0 -53 27.5 -69.5t97.5 -20.5v-68h-535v68q70 4 97.5 20t27.5 70v833h-370v-833q0 -53 27.5 -69.5t97.5 -20.5v-68h-537v68q70 4 98.5 20t28.5 70v833h-149v56
l149 49v34q0 219 134.5 330t319.5 111t306 -90q115 123 330 123q139 0 254 -62l206 62h45v-1446q0 -53 29 -69.5t98 -20.5v-68h-536v68q70 4 97.5 20t27.5 70v1214q-69 162 -205 162q-166 0 -166 -248z" />
    <glyph glyph-name="space_uni0326" 
d="M346 -201q0 51 40 84t113 33t118 -49t45 -134t-72 -150.5t-225 -65.5v61q88 0 131 34t45 77h-105q-90 20 -90 110z" />
    <glyph glyph-name="space_uni0326.alt" 
d="M662 1346q0 -51 -40 -85t-113 -34t-118 50t-45 135t71.5 149.5t225.5 64.5v-59q-88 0 -131 -34t-45 -77h102q93 -21 93 -110z" />
    <glyph glyph-name="f_b" horiz-adv-x="1910" 
d="M1112 291q0 -236 188 -236q129 0 203 132t74 320.5t-70.5 307.5t-214.5 119q-104 0 -180 -72v-571zM1300 -20q-298 0 -473 143v1249q-27 63 -74.5 112.5t-129.5 49.5q-166 0 -166 -248v-201h225v-94h-225v-833q0 -53 27.5 -69.5t97.5 -20.5v-68h-537v68q70 4 98.5 20
t28.5 70v833h-149v56l149 49v86q0 211 123 316.5t311 105.5q141 0 254 -62l207 62h45v-691q51 76 136 134.5t208 58.5q186 0 297 -131t111 -367q0 -299 -164 -463.5t-400 -164.5z" />
    <glyph glyph-name="f_f_b" horiz-adv-x="2566" 
d="M457 1235v-150h370v97q0 97 29 174q-76 145 -211 145q-188 0 -188 -266zM1767 291q0 -236 189 -236q129 0 202.5 132t73.5 320.5t-70.5 307.5t-213.5 119q-105 0 -181 -72v-571zM1112 1286v-201h225v-94h-225v-833q0 -53 27.5 -69.5t97.5 -20.5v-68h-535v68q70 4 97.5 20
t27.5 70v833h-370v-833q0 -53 27.5 -69.5t97.5 -20.5v-68h-537v68q70 4 98.5 20t28.5 70v833h-149v56l149 49v34q0 219 134 330t319 111t307 -90q115 123 330 123q139 0 254 -62l206 62h45v-691q51 76 136.5 134.5t207.5 58.5q186 0 297 -131t111 -367q0 -299 -164 -463.5
t-399 -164.5q-298 0 -473 143v1249q-69 162 -205 162q-166 0 -166 -248z" />
    <glyph glyph-name="f_h" horiz-adv-x="1931" 
d="M1330 934q-93 0 -218 -84v-692q0 -53 27.5 -69.5t97.5 -20.5v-68h-537v68q70 4 98.5 20.5t28.5 69.5v1214q-27 63 -74.5 112.5t-129.5 49.5q-166 0 -166 -248v-201h217v-94h-217v-833q0 -53 27.5 -69.5t97.5 -20.5v-68h-537v68q70 4 98.5 20t28.5 70v833h-149v56l149 49
v86q0 211 123 316.5t311 105.5q141 0 254 -62l207 62h45v-699q63 76 155.5 138.5t228.5 62.5t211 -85t75 -251v-612q0 -53 28.5 -69.5t100.5 -20.5v-68h-537v68q70 4 97.5 20t27.5 70v598q0 88 -38 133t-131 45z" />
    <glyph glyph-name="f_f_h" horiz-adv-x="2586" 
d="M457 1235v-150h370v97q0 97 29 174q-76 145 -211 145q-188 0 -188 -266zM1987 934q-92 0 -220 -84v-692q0 -53 28 -69.5t97 -20.5v-68h-536v68q70 4 98.5 20.5t28.5 69.5v1214q-69 162 -205 162q-166 0 -166 -248v-201h225v-94h-225v-833q0 -53 27.5 -69.5t97.5 -20.5
v-68h-535v68q70 4 97.5 20t27.5 70v833h-370v-833q0 -53 27.5 -69.5t97.5 -20.5v-68h-537v68q70 4 98.5 20t28.5 70v833h-149v56l149 49v34q0 219 134 330t319 111t307 -90q115 123 330 123q139 0 254 -62l206 62h45v-699q63 76 155.5 138.5t228.5 62.5t211 -85t75 -251
v-612q0 -53 28.5 -69.5t100.5 -20.5v-68h-536v68q70 4 97 20t27 70v598q0 88 -37.5 133t-129.5 45z" />
    <glyph glyph-name="f_j" horiz-adv-x="1243" 
d="M745 1393q0 50 -26.5 94.5t-102.5 44.5t-117.5 -71.5t-41.5 -203.5v-172h518l78 21h59v-911q0 -154 -24.5 -232.5t-80.5 -152.5q-93 -123 -298 -256l-33 32l84 140q49 82 58 177t9 216v872h-370v-833q0 -53 27.5 -69.5t97.5 -20.5v-68h-537v68q70 4 98.5 20t28.5 70v833
h-149v56l149 49v49q0 231 140.5 345t342.5 114q152 0 238 -47.5t86 -129.5t-72 -120h-170q8 36 8 86z" />
    <glyph glyph-name="f_f_j" horiz-adv-x="1898" 
d="M645 1501q-188 0 -188 -266v-150h370v60q0 106 35 196q-31 70 -85 115t-132 45zM1401 1393q0 50 -26.5 94.5t-102.5 44.5t-118 -71.5t-42 -203.5v-172h518l78 21h59v-911q0 -154 -24.5 -232.5t-80.5 -152.5q-93 -123 -298 -256l-33 32l84 140q49 82 58.5 177t9.5 216v872
h-371v-833q0 -53 28.5 -69.5t98.5 -20.5v-68h-537v68q70 4 97.5 20t27.5 70v833h-370v-833q0 -53 27.5 -69.5t97.5 -20.5v-68h-537v68q70 4 98.5 20t28.5 70v833h-149v56l149 49v34q0 219 134 330t326 111t312 -101q130 134 367 134q152 0 237.5 -47.5t85.5 -129.5t-71 -120
h-170q8 36 8 86z" />
    <glyph glyph-name="f_k" horiz-adv-x="1861" 
d="M606 1604q141 0 254 -62l207 62h45v-1446q0 -53 28.5 -69.5t98.5 -20.5v-68h-539v68q70 4 98.5 20.5t28.5 69.5v1214q-27 63 -74.5 112.5t-129.5 49.5q-166 0 -166 -248v-201h225v-94h-225v-833q0 -53 27.5 -69.5t97.5 -20.5v-68h-537v68q70 4 98.5 20t28.5 70v833h-149
v56l149 49v86q0 211 123 316.5t311 105.5zM1511 965q0 25 -29.5 35t-99.5 18v67h435v-67q-55 -10 -92 -25.5t-74 -50.5l-271 -252l482 -643v-47h-301l-431 582l324 292q29 27 43 46.5t14 44.5z" />
    <glyph glyph-name="f_f_k" horiz-adv-x="2516" 
d="M457 1235v-150h370v97q0 97 29 174q-76 145 -211 145q-188 0 -188 -266zM2167 965q0 25 -30 35t-99 18v67h434v-67q-55 -10 -92 -25.5t-74 -50.5l-270 -252l481 -643v-47h-301l-430 582l323 292q29 27 43.5 46.5t14.5 44.5zM1262 1604q139 0 254 -62l206 62h45v-1446
q0 -53 29 -69.5t98 -20.5v-68h-538v68q70 4 98.5 20.5t28.5 69.5v1214q-69 162 -205 162q-166 0 -166 -248v-201h225v-94h-225v-833q0 -53 27.5 -69.5t97.5 -20.5v-68h-535v68q70 4 97.5 20t27.5 70v833h-370v-833q0 -53 27.5 -69.5t97.5 -20.5v-68h-537v68q70 4 98.5 20
t28.5 70v833h-149v56l149 49v34q0 219 134 330t319 111t307 -90q115 123 330 123z" />
    <glyph glyph-name="caron.Slovak" 
d="M674 1604v-17l-228 -403h-53l33 420h248z" />
    <glyph glyph-name="grave.cap" 
d="M299 1835h295l106 -305h-75l-326 291v14z" />
    <glyph glyph-name="acute.cap" 
d="M700 1835v-14l-325 -291h-76l107 305h294z" />
    <glyph glyph-name="circumflex.cap" 
d="M610 1849l256 -319h-82l-272 168l-272 -168h-82l256 319h196z" />
    <glyph glyph-name="tilde.cap" 
d="M628 1530q-83 0 -148.5 60.5t-121.5 60.5t-89 -29t-66 -86l-56 31q53 133 104.5 195.5t133.5 62.5t147.5 -61.5t121.5 -61.5t89 29.5t66 87.5l55 -33q-53 -131 -103 -193.5t-133 -62.5z" />
    <glyph glyph-name="macron.cap" 
d="M223 1561v139h588v-139h-588z" />
    <glyph glyph-name="breve.cap" 
d="M519 1524q-136 0 -216 82t-80 237h76q14 -94 76.5 -128t143.5 -34t144.5 34t77.5 128h76q0 -156 -81 -237.5t-217 -81.5z" />
    <glyph glyph-name="dotaccent.cap" 
d="M511 1534q-75 0 -120 48t-45 113t45 112.5t120 47.5t122 -48t47 -112t-47 -112.5t-122 -48.5z" />
    <glyph glyph-name="dieresis.cap" 
d="M571 1684q0 60 43.5 104.5t105.5 44.5t106 -44.5t44 -104.5t-44 -105t-106 -45t-105.5 45t-43.5 105zM164 1684q0 60 43 104.5t105 44.5t106.5 -44.5t44.5 -104.5t-44.5 -105t-106.5 -45t-105 45t-43 105z" />
    <glyph glyph-name="ring.cap" 
d="M326 1687.5q0 81.5 56 137t140 55.5t138.5 -55.5t54.5 -137t-54.5 -137t-138.5 -55.5t-140 55.5t-56 137zM416 1687.5q0 -47.5 27.5 -79t78.5 -31.5t79 31.5t28 79t-28 79t-79 31.5t-78.5 -31.5t-27.5 -79z" />
    <glyph glyph-name="hungarumlaut.cap" 
d="M872 1835v-14l-292 -291h-74l112 305h254zM541 1835v-14l-291 -291h-76l113 305h254z" />
    <glyph glyph-name="caron.cap" 
d="M866 1849l-256 -319h-196l-256 319h82l272 -168l272 168h82z" />
    <glyph glyph-name="periodcentered.cap" horiz-adv-x="481" 
d="M61 726q0 77 52.5 128t127.5 51t127 -51t52 -128t-53 -128t-127 -51t-126.5 51t-52.5 128z" />
    </font>
</defs>
</svg>
